  0
SECTION
  2
HEADER
  9
$ACADVER
  1
AC1009
  9
$EXTMAX
 10
500.0
 20
1000.0
 30
0.0
  9
$EXTMIN
 10
-500.0
 20
-1000.0
 30
0.0
  9
$INSUNITS
 70
     4
  9
$LUNITS
 70
     2
  9
$LUPREC
 70
     4
  9
$MEASUREMENT
 70
     1
  0
ENDSEC
  0
SECTION
  2
TABLES
  0
TABLE
  2
LAYER
 70
     1
  0
LAYER
  2
0
 70
     0
 62
     7
  6
Continuous
  0
LAYER
  2
Default
 70
     0
 62
    70
  6
Continuous
  0
ENDTAB
  0
TABLE
  2
APPID
 70
     1
  0
APPID
  2
ACAD
 70
     0
  0
ENDTAB
  0
ENDSEC
  0
SECTION
  2
ENTITIES
  0
POLYLINE
  8
Default
 66
     1
 10
0.0
 20
0.0
 30
0.0
 70
     1
  0
VERTEX
  8
Default
 10
460.126217398009
 20
758.295156979292
 42
0.0
  0
VERTEX
  8
Default
 10
457.964144119108
 20
611.496453292618
 42
0.0
  0
VERTEX
  8
Default
 10
427.702243246579
 20
650.102124929506
 42
0.0
  0
VERTEX
  8
Default
 10
425.962592065254
 20
707.392587915348
 42
0.0
  0
SEQEND
  0
POLYLINE
  8
Default
 66
     1
 10
0.0
 20
0.0
 30
0.0
 70
     1
  0
VERTEX
  8
Default
 10
419.688969548961
 20
635.691012388284
 42
0.0
  0
VERTEX
  8
Default
 10
456.40546595852
 20
589.735943002282
 42
0.0
  0
VERTEX
  8
Default
 10
454.17829977535
 20
545.665058523595
 42
0.0
  0
VERTEX
  8
Default
 10
398.984894487897
 20
584.783391009465
 42
0.0
  0
SEQEND
  0
POLYLINE
  8
Default
 66
     1
 10
0.0
 20
0.0
 30
0.0
 70
     1
  0
VERTEX
  8
Default
 10
385.004099816688
 20
578.926062656849
 42
0.0
  0
VERTEX
  8
Default
 10
399.440954973428
 20
525.188708296888
 42
0.0
  0
VERTEX
  8
Default
 10
360.731928661391
 20
521.30273792847
 42
0.0
  0
VERTEX
  8
Default
 10
359.478846860736
 20
548.293269826037
 42
0.0
  0
SEQEND
  0
POLYLINE
  8
Default
 66
     1
 10
0.0
 20
0.0
 30
0.0
 70
     1
  0
VERTEX
  8
Default
 10
309.980228567206
 20
603.556594975293
 42
0.0
  0
VERTEX
  8
Default
 10
355.813761904124
 20
570.406855153453
 42
0.0
  0
VERTEX
  8
Default
 10
323.973766883728
 20
543.352518811332
 42
0.0
  0
VERTEX
  8
Default
 10
294.841255001033
 20
563.814142636137
 42
0.0
  0
SEQEND
  0
POLYLINE
  8
Default
 66
     1
 10
0.0
 20
0.0
 30
0.0
 70
     1
  0
VERTEX
  8
Default
 10
315.753920800001
 20
528.51151767825
 42
0.0
  0
VERTEX
  8
Default
 10
318.13997455567
 20
473.477946741278
 42
0.0
  0
VERTEX
  8
Default
 10
353.903928859935
 20
501.429708770076
 42
0.0
  0
SEQEND
  0
POLYLINE
  8
Default
 66
     1
 10
0.0
 20
0.0
 30
0.0
 70
     1
  0
VERTEX
  8
Default
 10
330.017836083455
 20
458.90871557829
 42
0.0
  0
VERTEX
  8
Default
 10
341.032245809076
 20
385.48382973035
 42
0.0
  0
VERTEX
  8
Default
 10
381.120145875309
 20
479.306479654499
 42
0.0
  0
VERTEX
  8
Default
 10
371.696992115603
 20
489.652916763983
 42
0.0
  0
SEQEND
  0
POLYLINE
  8
Default
 66
     1
 10
0.0
 20
0.0
 30
0.0
 70
     1
  0
VERTEX
  8
Default
 10
304.1937585513
 20
456.220531372821
 42
0.0
  0
VERTEX
  8
Default
 10
310.885452735819
 20
401.389050460855
 42
0.0
  0
VERTEX
  8
Default
 10
266.25106918793
 20
403.351822155348
 42
0.0
  0
VERTEX
  8
Default
 10
265.488119208276
 20
435.069200674487
 42
0.0
  0
SEQEND
  0
POLYLINE
  8
Default
 66
     1
 10
0.0
 20
0.0
 30
0.0
 70
     1
  0
VERTEX
  8
Default
 10
297.144709528719
 20
379.083641948949
 42
0.0
  0
VERTEX
  8
Default
 10
297.775790278924
 20
321.928892005464
 42
0.0
  0
VERTEX
  8
Default
 10
257.779399509734
 20
284.249899888148
 42
0.0
  0
VERTEX
  8
Default
 10
237.828849224304
 20
304.323900242663
 42
0.0
  0
VERTEX
  8
Default
 10
274.632765312728
 20
377.386708325894
 42
0.0
  0
SEQEND
  0
POLYLINE
  8
Default
 66
     1
 10
0.0
 20
0.0
 30
0.0
 70
     1
  0
VERTEX
  8
Default
 10
233.013054895475
 20
332.923849749347
 42
0.0
  0
VERTEX
  8
Default
 10
252.351810132629
 20
377.822934377035
 42
0.0
  0
VERTEX
  8
Default
 10
232.219049818824
 20
412.861229714708
 42
0.0
  0
VERTEX
  8
Default
 10
216.535482869976
 20
374.436649051863
 42
0.0
  0
SEQEND
  0
POLYLINE
  8
Default
 66
     1
 10
0.0
 20
0.0
 30
0.0
 70
     1
  0
VERTEX
  8
Default
 10
214.063302296733
 20
287.600302749617
 42
0.0
  0
VERTEX
  8
Default
 10
213.845465407453
 20
333.434302726835
 42
0.0
  0
VERTEX
  8
Default
 10
174.397131158295
 20
376.040921764291
 42
0.0
  0
VERTEX
  8
Default
 10
159.64235775837
 20
376.419099311617
 42
0.0
  0
VERTEX
  8
Default
 10
171.924740853029
 20
276.700251013146
 42
0.0
  0
SEQEND
  0
POLYLINE
  8
Default
 66
     1
 10
0.0
 20
0.0
 30
0.0
 70
     1
  0
VERTEX
  8
Default
 10
221.749433918573
 20
250.700953289416
 42
0.0
  0
VERTEX
  8
Default
 10
222.330303516629
 20
188.9769958957
 42
0.0
  0
VERTEX
  8
Default
 10
166.316373118128
 20
184.667172236815
 42
0.0
  0
VERTEX
  8
Default
 10
167.913712715776
 20
216.608106026164
 42
0.0
  0
SEQEND
  0
POLYLINE
  8
Default
 66
     1
 10
0.0
 20
0.0
 30
0.0
 70
     1
  0
VERTEX
  8
Default
 10
250.764031381845
 20
258.632490656494
 42
0.0
  0
VERTEX
  8
Default
 10
320.851104439583
 20
231.612025693957
 42
0.0
  0
VERTEX
  8
Default
 10
283.649221687011
 20
150.238649465559
 42
0.0
  0
VERTEX
  8
Default
 10
253.615755108633
 20
170.043671965596
 42
0.0
  0
SEQEND
  0
POLYLINE
  8
Default
 66
     1
 10
0.0
 20
0.0
 30
0.0
 70
     1
  0
VERTEX
  8
Default
 10
176.929915957668
 20
84.3969556771597
 42
0.0
  0
VERTEX
  8
Default
 10
210.341785536529
 20
39.8931617678535
 42
0.0
  0
VERTEX
  8
Default
 10
184.556665344914
 20
26.7763438746226
 42
0.0
  0
VERTEX
  8
Default
 10
145.215147227257
 20
47.8834349786412
 42
0.0
  0
SEQEND
  0
POLYLINE
  8
Default
 66
     1
 10
0.0
 20
0.0
 30
0.0
 70
     1
  0
VERTEX
  8
Default
 10
333.276592296476
 20
657.467009921082
 42
0.0
  0
VERTEX
  8
Default
 10
367.310606325075
 20
593.99690742934
 42
0.0
  0
VERTEX
  8
Default
 10
312.783617678393
 20
616.216486523085
 42
0.0
  0
SEQEND
  0
POLYLINE
  8
Default
 66
     1
 10
0.0
 20
0.0
 30
0.0
 70
     1
  0
VERTEX
  8
Default
 10
291.355983701681
 20
619.323196766979
 42
0.0
  0
VERTEX
  8
Default
 10
280.26960312784
 20
570.261168188502
 42
0.0
  0
VERTEX
  8
Default
 10
262.932950163138
 20
582.044707780676
 42
0.0
  0
SEQEND
  0
POLYLINE
  8
Default
 66
     1
 10
0.0
 20
0.0
 30
0.0
 70
     1
  0
VERTEX
  8
Default
 10
261.569918029284
 20
541.487306972439
 42
0.0
  0
VERTEX
  8
Default
 10
224.520658455519
 20
455.967863777946
 42
0.0
  0
VERTEX
  8
Default
 10
202.525686647828
 20
488.181897072205
 42
0.0
  0
VERTEX
  8
Default
 10
244.552939108766
 20
553.773776008023
 42
0.0
  0
SEQEND
  0
POLYLINE
  8
Default
 66
     1
 10
0.0
 20
0.0
 30
0.0
 70
     1
  0
VERTEX
  8
Default
 10
283.523347393976
 20
527.551798355596
 42
0.0
  0
VERTEX
  8
Default
 10
299.012524140596
 20
474.565212218355
 42
0.0
  0
VERTEX
  8
Default
 10
254.674058100379
 20
455.242199235817
 42
0.0
  0
SEQEND
  0
POLYLINE
  8
Default
 66
     1
 10
0.0
 20
0.0
 30
0.0
 70
     1
  0
VERTEX
  8
Default
 10
190.484204813303
 20
471.143382794958
 42
0.0
  0
VERTEX
  8
Default
 10
215.69912596264
 20
427.09435041625
 42
0.0
  0
VERTEX
  8
Default
 10
184.90688054472
 20
399.088400632667
 42
0.0
  0
VERTEX
  8
Default
 10
170.261311748848
 20
439.577494371229
 42
0.0
  0
SEQEND
  0
POLYLINE
  8
Default
 66
     1
 10
0.0
 20
0.0
 30
0.0
 70
     1
  0
VERTEX
  8
Default
 10
461.25317036699
 20
472.432395275077
 42
0.0
  0
VERTEX
  8
Default
 10
460.673481666349
 20
372.09294518618
 42
0.0
  0
VERTEX
  8
Default
 10
425.765548559105
 20
436.077894654311
 42
0.0
  0
SEQEND
  0
POLYLINE
  8
Default
 66
     1
 10
0.0
 20
0.0
 30
0.0
 70
     1
  0
VERTEX
  8
Default
 10
425.160474323892
 20
464.073352445337
 42
0.0
  0
VERTEX
  8
Default
 10
396.70108507633
 20
500.53695336879
 42
0.0
  0
VERTEX
  8
Default
 10
426.921428585777
 20
535.057773154855
 42
0.0
  0
VERTEX
  8
Default
 10
457.676565824818
 20
528.368580898588
 42
0.0
  0
VERTEX
  8
Default
 10
459.36781350524
 20
488.926829107647
 42
0.0
  0
SEQEND
  0
POLYLINE
  8
Default
 66
     1
 10
0.0
 20
0.0
 30
0.0
 70
     1
  0
VERTEX
  8
Default
 10
434.392507346797
 20
372.224616669674
 42
0.0
  0
VERTEX
  8
Default
 10
459.42815973761
 20
306.501920184811
 42
0.0
  0
VERTEX
  8
Default
 10
352.640957438423
 20
270.564322425752
 42
0.0
  0
VERTEX
  8
Default
 10
381.250805499633
 20
327.500283981374
 42
0.0
  0
SEQEND
  0
POLYLINE
  8
Default
 66
     1
 10
0.0
 20
0.0
 30
0.0
 70
     1
  0
VERTEX
  8
Default
 10
387.474961816471
 20
253.660840903353
 42
0.0
  0
VERTEX
  8
Default
 10
452.095271901807
 20
272.328473480631
 42
0.0
  0
VERTEX
  8
Default
 10
455.704747118787
 20
228.566194183275
 42
0.0
  0
VERTEX
  8
Default
 10
423.640130708239
 20
171.149301407319
 42
0.0
  0
SEQEND
  0
POLYLINE
  8
Default
 66
     1
 10
0.0
 20
0.0
 30
0.0
 70
     1
  0
VERTEX
  8
Default
 10
332.14417589221
 20
141.044379903604
 42
0.0
  0
VERTEX
  8
Default
 10
369.579997612354
 20
112.510654444326
 42
0.0
  0
VERTEX
  8
Default
 10
368.837412991785
 20
98.75405827107
 42
0.0
  0
VERTEX
  8
Default
 10
345.344556697035
 20
83.2121930662008
 42
0.0
  0
VERTEX
  8
Default
 10
301.964621417623
 20
86.9808274142627
 42
0.0
  0
SEQEND
  0
POLYLINE
  8
Default
 66
     1
 10
0.0
 20
0.0
 30
0.0
 70
     1
  0
VERTEX
  8
Default
 10
445.66344408002
 20
-66.2540503021388
 42
0.0
  0
VERTEX
  8
Default
 10
437.095429377312
 20
-123.529798933598
 42
0.0
  0
VERTEX
  8
Default
 10
461.287877113775
 20
-130.043795014202
 42
0.0
  0
VERTEX
  8
Default
 10
461.535111230841
 20
-87.2495585176689
 42
0.0
  0
SEQEND
  0
POLYLINE
  8
Default
 66
     1
 10
0.0
 20
0.0
 30
0.0
 70
     1
  0
VERTEX
  8
Default
 10
347.454616667987
 20
-89.4200585453282
 42
0.0
  0
VERTEX
  8
Default
 10
386.044506608547
 20
-151.165013667866
 42
0.0
  0
VERTEX
  8
Default
 10
368.25369710037
 20
-183.376366743088
 42
0.0
  0
VERTEX
  8
Default
 10
330.404929996167
 20
-145.172559040085
 42
0.0
  0
SEQEND
  0
POLYLINE
  8
Default
 66
     1
 10
0.0
 20
0.0
 30
0.0
 70
     1
  0
VERTEX
  8
Default
 10
435.401959458958
 20
-146.899872685138
 42
0.0
  0
VERTEX
  8
Default
 10
470.389671703038
 20
-187.304945024365
 42
0.0
  0
VERTEX
  8
Default
 10
437.550085375894
 20
-210.701852764359
 42
0.0
  0
VERTEX
  8
Default
 10
405.819877778469
 20
-173.433243523523
 42
0.0
  0
SEQEND
  0
POLYLINE
  8
Default
 66
     1
 10
0.0
 20
0.0
 30
0.0
 70
     1
  0
VERTEX
  8
Default
 10
365.064844535807
 20
-204.282969372954
 42
0.0
  0
VERTEX
  8
Default
 10
405.962516071463
 20
-209.58319639202
 42
0.0
  0
VERTEX
  8
Default
 10
406.47527325861
 20
-236.17669929376
 42
0.0
  0
VERTEX
  8
Default
 10
362.416780600419
 20
-258.660911175203
 42
0.0
  0
SEQEND
  0
POLYLINE
  8
Default
 66
     1
 10
0.0
 20
0.0
 30
0.0
 70
     1
  0
VERTEX
  8
Default
 10
445.879718289815
 20
-229.84617913962
 42
0.0
  0
VERTEX
  8
Default
 10
454.894328712653
 20
-269.92873873242
 42
0.0
  0
VERTEX
  8
Default
 10
430.95364063878
 20
-322.760246125195
 42
0.0
  0
VERTEX
  8
Default
 10
408.007775111229
 20
-255.691251719347
 42
0.0
  0
SEQEND
  0
POLYLINE
  8
Default
 66
     1
 10
0.0
 20
0.0
 30
0.0
 70
     1
  0
VERTEX
  8
Default
 10
94.3971096113476
 20
168.936021122956
 42
0.0
  0
VERTEX
  8
Default
 10
137.3034596982
 20
108.782165363768
 42
0.0
  0
VERTEX
  8
Default
 10
104.255054900804
 20
32.6911474393612
 42
0.0
  0
VERTEX
  8
Default
 10
65.6103282969625
 20
96.570722125651
 42
0.0
  0
SEQEND
  0
POLYLINE
  8
Default
 66
     1
 10
0.0
 20
0.0
 30
0.0
 70
     1
  0
VERTEX
  8
Default
 10
96.7526475928737
 20
243.528360394159
 42
0.0
  0
VERTEX
  8
Default
 10
96.4248830507063
 20
186.794955234985
 42
0.0
  0
VERTEX
  8
Default
 10
140.901231100449
 20
193.449005317782
 42
0.0
  0
VERTEX
  8
Default
 10
148.59244631661
 20
242.85805272509
 42
0.0
  0
SEQEND
  0
POLYLINE
  8
Default
 66
     1
 10
0.0
 20
0.0
 30
0.0
 70
     1
  0
VERTEX
  8
Default
 10
310.946413648674
 20
-268.442789350138
 42
0.0
  0
VERTEX
  8
Default
 10
308.237535759801
 20
-244.182616737947
 42
0.0
  0
VERTEX
  8
Default
 10
334.401081406385
 20
-196.217129560142
 42
0.0
  0
VERTEX
  8
Default
 10
332.204737028976
 20
-271.274864383262
 42
0.0
  0
SEQEND
  0
POLYLINE
  8
Default
 66
     1
 10
0.0
 20
0.0
 30
0.0
 70
     1
  0
VERTEX
  8
Default
 10
369.984495987917
 20
-380.162003598607
 42
0.0
  0
VERTEX
  8
Default
 10
380.888019801655
 20
-422.654346135246
 42
0.0
  0
VERTEX
  8
Default
 10
412.076078544684
 20
-386.874317951089
 42
0.0
  0
SEQEND
  0
POLYLINE
  8
Default
 66
     1
 10
0.0
 20
0.0
 30
0.0
 70
     1
  0
VERTEX
  8
Default
 10
443.120496905353
 20
-619.4626740645
 42
0.0
  0
VERTEX
  8
Default
 10
459.131105567474
 20
-584.087502606923
 42
0.0
  0
VERTEX
  8
Default
 10
449.090161804571
 20
-533.863913741575
 42
0.0
  0
VERTEX
  8
Default
 10
416.530443468107
 20
-568.569033337552
 42
0.0
  0
SEQEND
  0
POLYLINE
  8
Default
 66
     1
 10
0.0
 20
0.0
 30
0.0
 70
     1
  0
VERTEX
  8
Default
 10
361.330083164137
 20
-611.852159222414
 42
0.0
  0
VERTEX
  8
Default
 10
380.522887732942
 20
-580.120596363962
 42
0.0
  0
VERTEX
  8
Default
 10
377.990152363664
 20
-543.621154962083
 42
0.0
  0
VERTEX
  8
Default
 10
361.237366557295
 20
-575.072275452474
 42
0.0
  0
SEQEND
  0
POLYLINE
  8
Default
 66
     1
 10
0.0
 20
0.0
 30
0.0
 70
     1
  0
VERTEX
  8
Default
 10
271.865692383893
 20
-594.389097686127
 42
0.0
  0
VERTEX
  8
Default
 10
335.923095083664
 20
-563.359270274084
 42
0.0
  0
VERTEX
  8
Default
 10
292.444354632885
 20
-529.944629995978
 42
0.0
  0
SEQEND
  0
POLYLINE
  8
Default
 66
     1
 10
0.0
 20
0.0
 30
0.0
 70
     1
  0
VERTEX
  8
Default
 10
311.963014662639
 20
-592.153149644241
 42
0.0
  0
VERTEX
  8
Default
 10
305.156696180827
 20
-624.875533924633
 42
0.0
  0
VERTEX
  8
Default
 10
331.846213866621
 20
-629.909782395433
 42
0.0
  0
VERTEX
  8
Default
 10
328.763012518744
 20
-593.637877072583
 42
0.0
  0
SEQEND
  0
POLYLINE
  8
Default
 66
     1
 10
0.0
 20
0.0
 30
0.0
 70
     1
  0
VERTEX
  8
Default
 10
215.666514120924
 20
-490.816082036421
 42
0.0
  0
VERTEX
  8
Default
 10
251.95070809633
 20
-470.975520410156
 42
0.0
  0
VERTEX
  8
Default
 10
280.487475590975
 20
-503.576372674762
 42
0.0
  0
VERTEX
  8
Default
 10
251.720432665604
 20
-570.389924120804
 42
0.0
  0
SEQEND
  0
POLYLINE
  8
Default
 66
     1
 10
0.0
 20
0.0
 30
0.0
 70
     1
  0
VERTEX
  8
Default
 10
390.126639148446
 20
-482.154552341002
 42
0.0
  0
VERTEX
  8
Default
 10
385.780646951037
 20
-514.592368784458
 42
0.0
  0
VERTEX
  8
Default
 10
407.366316654137
 20
-537.373386135757
 42
0.0
  0
VERTEX
  8
Default
 10
434.428386760159
 20
-506.29117603932
 42
0.0
  0
SEQEND
  0
POLYLINE
  8
Default
 66
     1
 10
0.0
 20
0.0
 30
0.0
 70
     1
  0
VERTEX
  8
Default
 10
453.279260837881
 20
-490.204194181028
 42
0.0
  0
VERTEX
  8
Default
 10
423.467875388631
 20
-472.66137997293
 42
0.0
  0
VERTEX
  8
Default
 10
439.84427029193
 20
-427.872180320281
 42
0.0
  0
VERTEX
  8
Default
 10
454.465675593807
 20
-446.58304354884
 42
0.0
  0
SEQEND
  0
POLYLINE
  8
Default
 66
     1
 10
0.0
 20
0.0
 30
0.0
 70
     1
  0
VERTEX
  8
Default
 10
276.221105581469
 20
-377.09285230264
 42
0.0
  0
VERTEX
  8
Default
 10
312.292925965159
 20
-413.907948178107
 42
0.0
  0
VERTEX
  8
Default
 10
292.021682337235
 20
-483.099152964472
 42
0.0
  0
VERTEX
  8
Default
 10
267.174005944089
 20
-445.070734068648
 42
0.0
  0
SEQEND
  0
POLYLINE
  8
Default
 66
     1
 10
0.0
 20
0.0
 30
0.0
 70
     1
  0
VERTEX
  8
Default
 10
246.23498801199
 20
-434.935297864054
 42
0.0
  0
VERTEX
  8
Default
 10
245.910625675052
 20
-374.985300909396
 42
0.0
  0
VERTEX
  8
Default
 10
207.773636979137
 20
-385.17853830397
 42
0.0
  0
VERTEX
  8
Default
 10
209.495648855147
 20
-437.402299190651
 42
0.0
  0
SEQEND
  0
POLYLINE
  8
Default
 66
     1
 10
0.0
 20
0.0
 30
0.0
 70
     1
  0
VERTEX
  8
Default
 10
171.221204885524
 20
-352.237445887725
 42
0.0
  0
VERTEX
  8
Default
 10
190.243694501291
 20
-374.708492412183
 42
0.0
  0
VERTEX
  8
Default
 10
179.875363437407
 20
-404.681619996814
 42
0.0
  0
VERTEX
  8
Default
 10
155.153090467471
 20
-376.092757585563
 42
0.0
  0
SEQEND
  0
POLYLINE
  8
Default
 66
     1
 10
0.0
 20
0.0
 30
0.0
 70
     1
  0
VERTEX
  8
Default
 10
190.73341203381
 20
-299.110022607257
 42
0.0
  0
VERTEX
  8
Default
 10
184.462586931919
 20
-340.283828819036
 42
0.0
  0
VERTEX
  8
Default
 10
228.627919719092
 20
-357.552074999344
 42
0.0
  0
VERTEX
  8
Default
 10
228.9410301147
 20
-303.35518470685
 42
0.0
  0
SEQEND
  0
POLYLINE
  8
Default
 66
     1
 10
0.0
 20
0.0
 30
0.0
 70
     1
  0
VERTEX
  8
Default
 10
252.150812683059
 20
-278.738388275057
 42
0.0
  0
VERTEX
  8
Default
 10
254.383162706757
 20
-353.098373726601
 42
0.0
  0
VERTEX
  8
Default
 10
308.023270481171
 20
-304.881753687681
 42
0.0
  0
VERTEX
  8
Default
 10
291.545225922631
 20
-262.123334401775
 42
0.0
  0
SEQEND
  0
POLYLINE
  8
Default
 66
     1
 10
0.0
 20
0.0
 30
0.0
 70
     1
  0
VERTEX
  8
Default
 10
308.295089838165
 20
-328.946523523543
 42
0.0
  0
VERTEX
  8
Default
 10
284.514055859527
 20
-357.64440752729
 42
0.0
  0
VERTEX
  8
Default
 10
313.529931777625
 20
-390.955129769628
 42
0.0
  0
SEQEND
  0
POLYLINE
  8
Default
 66
     1
 10
0.0
 20
0.0
 30
0.0
 70
     1
  0
VERTEX
  8
Default
 10
352.791527562449
 20
-399.88700970626
 42
0.0
  0
VERTEX
  8
Default
 10
328.53192590954
 20
-432.899121065495
 42
0.0
  0
VERTEX
  8
Default
 10
365.394589162352
 20
-455.768597999014
 42
0.0
  0
SEQEND
  0
POLYLINE
  8
Default
 66
     1
 10
0.0
 20
0.0
 30
0.0
 70
     1
  0
VERTEX
  8
Default
 10
465.472686506878
 20
-324.085015702488
 42
0.0
  0
VERTEX
  8
Default
 10
464.488453607834
 20
-415.809269659774
 42
0.0
  0
VERTEX
  8
Default
 10
427.00171906253
 20
-377.634739215727
 42
0.0
  0
SEQEND
  0
POLYLINE
  8
Default
 66
     1
 10
0.0
 20
0.0
 30
0.0
 70
     1
  0
VERTEX
  8
Default
 10
236.001608443379
 20
-151.414825971144
 42
0.0
  0
VERTEX
  8
Default
 10
264.126459639984
 20
-215.238903486608
 42
0.0
  0
VERTEX
  8
Default
 10
223.006144286214
 20
-266.054974723345
 42
0.0
  0
VERTEX
  8
Default
 10
201.822957858406
 20
-219.473297274848
 42
0.0
  0
SEQEND
  0
POLYLINE
  8
Default
 66
     1
 10
0.0
 20
0.0
 30
0.0
 70
     1
  0
VERTEX
  8
Default
 10
107.283893634247
 20
-184.521700986798
 42
0.0
  0
VERTEX
  8
Default
 10
143.005095960794
 20
-230.780703554384
 42
0.0
  0
VERTEX
  8
Default
 10
102.299509730866
 20
-268.617750808967
 42
0.0
  0
SEQEND
  0
POLYLINE
  8
Default
 66
     1
 10
0.0
 20
0.0
 30
0.0
 70
     1
  0
VERTEX
  8
Default
 10
157.353984895904
 20
-295.218141494602
 42
0.0
  0
VERTEX
  8
Default
 10
155.220584000635
 20
-324.475045132069
 42
0.0
  0
VERTEX
  8
Default
 10
117.349449201347
 20
-331.531776945501
 42
0.0
  0
VERTEX
  8
Default
 10
124.726835589184
 20
-299.717173373546
 42
0.0
  0
SEQEND
  0
POLYLINE
  8
Default
 66
     1
 10
0.0
 20
0.0
 30
0.0
 70
     1
  0
VERTEX
  8
Default
 10
165.055183287514
 20
-240.071092681197
 42
0.0
  0
VERTEX
  8
Default
 10
169.802282877494
 20
-274.113350562992
 42
0.0
  0
VERTEX
  8
Default
 10
139.590558824047
 20
-262.191815359348
 42
0.0
  0
SEQEND
  0
POLYLINE
  8
Default
 66
     1
 10
0.0
 20
0.0
 30
0.0
 70
     1
  0
VERTEX
  8
Default
 10
125.716487994384
 20
-173.548584810098
 42
0.0
  0
VERTEX
  8
Default
 10
149.743602509047
 20
-208.10443769298
 42
0.0
  0
VERTEX
  8
Default
 10
184.029728867768
 20
-199.952521418034
 42
0.0
  0
VERTEX
  8
Default
 10
171.007680066435
 20
-175.226016649636
 42
0.0
  0
SEQEND
  0
POLYLINE
  8
Default
 66
     1
 10
0.0
 20
0.0
 30
0.0
 70
     1
  0
VERTEX
  8
Default
 10
187.517818929876
 20
-3.8029874955053
 42
0.0
  0
VERTEX
  8
Default
 10
170.219818650327
 20
-75.6131024984578
 42
0.0
  0
VERTEX
  8
Default
 10
217.083387788515
 20
-50.8886382467717
 42
0.0
  0
VERTEX
  8
Default
 10
223.055826376259
 20
-11.1842836060558
 42
0.0
  0
SEQEND
  0
POLYLINE
  8
Default
 66
     1
 10
0.0
 20
0.0
 30
0.0
 70
     1
  0
VERTEX
  8
Default
 10
156.155878596974
 20
-2.4740705365888
 42
0.0
  0
VERTEX
  8
Default
 10
138.131791538496
 20
-62.5638268178826
 42
0.0
  0
VERTEX
  8
Default
 10
112.022893413639
 20
-32.8381594112027
 42
0.0
  0
VERTEX
  8
Default
 10
121.717216997459
 20
1.2418370957862
 42
0.0
  0
SEQEND
  0
POLYLINE
  8
Default
 66
     1
 10
0.0
 20
0.0
 30
0.0
 70
     1
  0
VERTEX
  8
Default
 10
107.582008057804
 20
-64.7981538983065
 42
0.0
  0
VERTEX
  8
Default
 10
84.72992623747
 20
-108.435924994871
 42
0.0
  0
VERTEX
  8
Default
 10
82.4188271580213
 20
-57.0964219185985
 42
0.0
  0
SEQEND
  0
POLYLINE
  8
Default
 66
     1
 10
0.0
 20
0.0
 30
0.0
 70
     1
  0
VERTEX
  8
Default
 10
141.24700597973
 20
-84.7528278941768
 42
0.0
  0
VERTEX
  8
Default
 10
108.958410939537
 20
-133.494030128153
 42
0.0
  0
VERTEX
  8
Default
 10
156.880331002374
 20
-140.254072049006
 42
0.0
  0
VERTEX
  8
Default
 10
169.45518967232
 20
-100.130376400856
 42
0.0
  0
SEQEND
  0
POLYLINE
  8
Default
 66
     1
 10
0.0
 20
0.0
 30
0.0
 70
     1
  0
VERTEX
  8
Default
 10
226.161208388422
 20
-102.627131223899
 42
0.0
  0
VERTEX
  8
Default
 10
206.967776860857
 20
-159.777250394388
 42
0.0
  0
VERTEX
  8
Default
 10
177.305098572584
 20
-151.07068446621
 42
0.0
  0
VERTEX
  8
Default
 10
192.853495149661
 20
-106.12280389477
 42
0.0
  0
SEQEND
  0
POLYLINE
  8
Default
 66
     1
 10
0.0
 20
0.0
 30
0.0
 70
     1
  0
VERTEX
  8
Default
 10
246.280339619106
 20
-93.7955891516502
 42
0.0
  0
VERTEX
  8
Default
 10
269.809058503121
 20
-63.2983340050977
 42
0.0
  0
VERTEX
  8
Default
 10
238.024682400001
 20
-32.6000363539242
 42
0.0
  0
VERTEX
  8
Default
 10
223.803111272736
 20
-80.0510355000949
 42
0.0
  0
SEQEND
  0
POLYLINE
  8
Default
 66
     1
 10
0.0
 20
0.0
 30
0.0
 70
     1
  0
VERTEX
  8
Default
 10
410.318646500816
 20
741.804853877299
 42
0.0
  0
VERTEX
  8
Default
 10
428.256809384635
 20
756.679504494047
 42
0.0
  0
VERTEX
  8
Default
 10
418.997092623019
 20
723.462815867085
 42
0.0
  0
SEQEND
  0
POLYLINE
  8
Default
 66
     1
 10
0.0
 20
0.0
 30
0.0
 70
     1
  0
VERTEX
  8
Default
 10
275.390060855109
 20
274.515306189053
 42
0.0
  0
VERTEX
  8
Default
 10
348.905971469571
 20
341.572621074621
 42
0.0
  0
VERTEX
  8
Default
 10
321.658675794651
 20
253.709301254903
 42
0.0
  0
SEQEND
  0
POLYLINE
  8
Default
 66
     1
 10
0.0
 20
0.0
 30
0.0
 70
     1
  0
VERTEX
  8
Default
 10
262.157286313215
 20
-149.322665656171
 42
0.0
  0
VERTEX
  8
Default
 10
299.869749609542
 20
-206.547660578902
 42
0.0
  0
VERTEX
  8
Default
 10
304.390651924281
 20
-122.167079287198
 42
0.0
  0
SEQEND
  0
POLYLINE
  8
Default
 66
     1
 10
0.0
 20
0.0
 30
0.0
 70
     1
  0
VERTEX
  8
Default
 10
144.738531156445
 20
144.390821359474
 42
0.0
  0
VERTEX
  8
Default
 10
178.55969226896
 20
109.905286957062
 42
0.0
  0
VERTEX
  8
Default
 10
207.69877363489
 20
162.312754155368
 42
0.0
  0
SEQEND
  0
POLYLINE
  8
Default
 66
     1
 10
0.0
 20
0.0
 30
0.0
 70
     1
  0
VERTEX
  8
Default
 10
457.541644982223
 20
179.726941396608
 42
0.0
  0
VERTEX
  8
Default
 10
455.705415168871
 20
94.8725508364246
 42
0.0
  0
VERTEX
  8
Default
 10
424.58065002935
 20
143.65635439524
 42
0.0
  0
SEQEND
  0
POLYLINE
  8
Default
 66
     1
 10
0.0
 20
0.0
 30
0.0
 70
     1
  0
VERTEX
  8
Default
 10
355.881894321069
 20
675.85083166335
 42
0.0
  0
VERTEX
  8
Default
 10
387.869652212457
 20
611.35136493022
 42
0.0
  0
VERTEX
  8
Default
 10
407.394289872482
 20
647.266901481535
 42
0.0
  0
VERTEX
  8
Default
 10
393.189352041541
 20
724.914192161052
 42
0.0
  0
SEQEND
  0
POLYLINE
  8
Default
 66
     1
 10
0.0
 20
0.0
 30
0.0
 70
     1
  0
VERTEX
  8
Default
 10
400.758003578084
 20
430.138544529386
 42
0.0
  0
VERTEX
  8
Default
 10
353.851387345206
 20
370.990416880374
 42
0.0
  0
VERTEX
  8
Default
 10
391.510386680204
 20
364.690414614609
 42
0.0
  0
SEQEND
  0
POLYLINE
  8
Default
 66
     1
 10
0.0
 20
0.0
 30
0.0
 70
     1
  0
VERTEX
  8
Default
 10
351.766304849325
 20
237.804639620648
 42
0.0
  0
VERTEX
  8
Default
 10
324.389050597154
 20
165.590160637476
 42
0.0
  0
VERTEX
  8
Default
 10
392.898773903045
 20
126.853137553396
 42
0.0
  0
VERTEX
  8
Default
 10
397.395380986836
 20
168.529942027446
 42
0.0
  0
SEQEND
  0
POLYLINE
  8
Default
 66
     1
 10
0.0
 20
0.0
 30
0.0
 70
     1
  0
VERTEX
  8
Default
 10
243.613612392272
 20
-124.409671132539
 42
0.0
  0
VERTEX
  8
Default
 10
315.903858591329
 20
-43.8142028544359
 42
0.0
  0
VERTEX
  8
Default
 10
348.877854465064
 20
-62.8632248076483
 42
0.0
  0
VERTEX
  8
Default
 10
300.564490984384
 20
-103.228622572754
 42
0.0
  0
SEQEND
  0
POLYLINE
  8
Default
 66
     1
 10
0.0
 20
0.0
 30
0.0
 70
     1
  0
VERTEX
  8
Default
 10
352.188448348121
 20
-278.967829762889
 42
0.0
  0
VERTEX
  8
Default
 10
326.928593281071
 20
-315.798790198859
 42
0.0
  0
VERTEX
  8
Default
 10
343.025443484825
 20
-364.278692429691
 42
0.0
  0
SEQEND
  0
POLYLINE
  8
Default
 66
     1
 10
0.0
 20
0.0
 30
0.0
 70
     1
  0
VERTEX
  8
Default
 10
365.292496674137
 20
-351.413368702215
 42
0.0
  0
VERTEX
  8
Default
 10
403.587930534732
 20
-370.071557874954
 42
0.0
  0
VERTEX
  8
Default
 10
394.977155245025
 20
-286.169399437287
 42
0.0
  0
SEQEND
  0
POLYLINE
  8
Default
 66
     1
 10
0.0
 20
0.0
 30
0.0
 70
     1
  0
VERTEX
  8
Default
 10
419.886761354384
 20
-412.365788741665
 42
0.0
  0
VERTEX
  8
Default
 10
384.358767972375
 20
-450.47195970396
 42
0.0
  0
VERTEX
  8
Default
 10
400.405967372459
 20
-469.620653979138
 42
0.0
  0
SEQEND
  0
POLYLINE
  8
Default
 66
     1
 10
0.0
 20
0.0
 30
0.0
 70
     1
  0
VERTEX
  8
Default
 10
300.052828643378
 20
57.8040745386151
 42
0.0
  0
VERTEX
  8
Default
 10
266.046550033354
 20
0.5673551799574
 42
0.0
  0
VERTEX
  8
Default
 10
286.597026711847
 20
-35.3838519742011
 42
0.0
  0
VERTEX
  8
Default
 10
307.578237822864
 20
-21.3972436054974
 42
0.0
  0
SEQEND
  0
POLYLINE
  8
Default
 66
     1
 10
0.0
 20
0.0
 30
0.0
 70
     1
  0
VERTEX
  8
Default
 10
443.75507433569
 20
-758.295156979293
 42
0.0
  0
VERTEX
  8
Default
 10
468.877199298053
 20
-733.321482652293
 42
0.0
  0
VERTEX
  8
Default
 10
459.612756729773
 20
-674.533822316813
 42
0.0
  0
VERTEX
  8
Default
 10
433.672030901937
 20
-730.679029006739
 42
0.0
  0
SEQEND
  0
POLYLINE
  8
Default
 66
     1
 10
0.0
 20
0.0
 30
0.0
 70
     1
  0
VERTEX
  8
Default
 10
409.166676507358
 20
-741.213178427209
 42
0.0
  0
VERTEX
  8
Default
 10
410.05850717809
 20
-698.864734137186
 42
0.0
  0
VERTEX
  8
Default
 10
364.02855276443
 20
-676.944709140666
 42
0.0
  0
VERTEX
  8
Default
 10
367.730750292578
 20
-706.309591914734
 42
0.0
  0
SEQEND
  0
POLYLINE
  8
Default
 66
     1
 10
0.0
 20
0.0
 30
0.0
 70
     1
  0
VERTEX
  8
Default
 10
412.503990624992
 20
99.7817518378788
 42
0.0
  0
VERTEX
  8
Default
 10
424.027201642971
 20
30.2248991883131
 42
0.0
  0
VERTEX
  8
Default
 10
460.429480155046
 20
24.0965269489522
 42
0.0
  0
VERTEX
  8
Default
 10
454.737494729383
 20
70.9256295562758
 42
0.0
  0
SEQEND
  0
POLYLINE
  8
Default
 66
     1
 10
0.0
 20
0.0
 30
0.0
 70
     1
  0
VERTEX
  8
Default
 10
459.754889822833
 20
4.7082119995208
 42
0.0
  0
VERTEX
  8
Default
 10
455.475223158527
 20
-46.8178115210479
 42
0.0
  0
VERTEX
  8
Default
 10
421.485225037028
 20
14.5668842482211
 42
0.0
  0
SEQEND
  0
POLYLINE
  8
Default
 66
     1
 10
0.0
 20
0.0
 30
0.0
 70
     1
  0
VERTEX
  8
Default
 10
110.345266387163
 20
284.109652213358
 42
0.0
  0
VERTEX
  8
Default
 10
140.569472593241
 20
368.348489870789
 42
0.0
  0
VERTEX
  8
Default
 10
141.8786993436
 20
266.316178777522
 42
0.0122242342888
  0
SEQEND
  0
POLYLINE
  8
Default
 66
     1
 10
0.0
 20
0.0
 30
0.0
 70
     1
  0
VERTEX
  8
Default
 10
234.585504089414
 20
151.801871425425
 42
0.0
  0
VERTEX
  8
Default
 10
276.812396887803
 20
110.260562917831
 42
-0.0053866170025
  0
VERTEX
  8
Default
 10
241.976566283624
 20
18.4952371224373
 42
-0.007950391976
  0
VERTEX
  8
Default
 10
240.08910010273
 20
13.9000208998754
 42
0.0022986306204
  0
VERTEX
  8
Default
 10
199.799304734392
 20
105.858995290397
 42
0.0
  0
SEQEND
  0
POLYLINE
  8
Default
 66
     1
 10
0.0
 20
0.0
 30
0.0
 70
     1
  0
VERTEX
  8
Default
 10
384.223614625507
 20
-634.509575745661
 42
0.0
  0
VERTEX
  8
Default
 10
414.702845510209
 20
-678.853526568697
 42
0.0
  0
VERTEX
  8
Default
 10
443.480965316672
 20
-652.972374901114
 42
0.0
  0
VERTEX
  8
Default
 10
399.436784028682
 20
-590.435119100312
 42
0.0
  0
SEQEND
  0
POLYLINE
  8
Default
 66
     1
 10
0.0
 20
0.0
 30
0.0
 70
     1
  0
VERTEX
  8
Default
 10
405.482148589629
 20
-19.7444969667756
 42
0.0546502028933
  0
VERTEX
  8
Default
 10
428.82389552109
 20
-62.3203236060542
 42
0.0
  0
VERTEX
  8
Default
 10
391.881158554075
 20
-129.297553691657
 42
0.0
  0
VERTEX
  8
Default
 10
361.29706660768
 20
-52.8017159026919
 42
0.0
  0
SEQEND
  0
POLYLINE
  8
Default
 66
     1
 10
0.0
 20
0.0
 30
0.0
 70
     1
  0
VERTEX
  8
Default
 10
388.696253981045
 20
83.7942612755663
 42
0.0
  0
VERTEX
  8
Default
 10
384.470052534217
 20
5.0356269683893
 42
0.0021774360038
  0
VERTEX
  8
Default
 10
351.336528913827
 20
-37.064044816144
 42
0.0005915007932
  0
VERTEX
  8
Default
 10
329.485909615516
 20
32.6881864010291
 42
0.0
  0
SEQEND
  0
POLYLINE
  8
Default
 66
     1
 10
0.0
 20
0.0
 30
0.0
 70
     1
  0
VERTEX
  8
Default
 10
-300.000001085462
 20
999.99999450766
 42
0.0
  0
VERTEX
  8
Default
 10
-500.000001571789
 20
999.99999450766
 42
0.0
  0
VERTEX
  8
Default
 10
-500.00000157179
 20
-999.999998960144
 42
0.0
  0
VERTEX
  8
Default
 10
500.00000157179
 20
-999.999998960144
 42
0.0
  0
VERTEX
  8
Default
 10
500.00000157179
 20
999.999998960144
 42
0.0
  0
SEQEND
  0
POLYLINE
  8
Default
 66
     1
 10
0.0
 20
0.0
 30
0.0
 70
     1
  0
VERTEX
  8
Default
 10
-286.0
 20
795.561852494173
 42
0.0
  0
VERTEX
  8
Default
 10
-44.9999999999995
 20
795.561852494172
 42
0.0
  0
VERTEX
  8
Default
 10
-44.9999999999995
 20
824.438147505828
 42
0.0
  0
VERTEX
  8
Default
 10
-286.0
 20
824.438147505828
 42
0.0
  0
SEQEND
  0
POLYLINE
  8
Default
 66
     1
 10
0.0
 20
0.0
 30
0.0
 70
     1
  0
VERTEX
  8
Default
 10
-45.0
 20
-554.438147505828
 42
0.0
  0
VERTEX
  8
Default
 10
-45.0
 20
-525.561852494172
 42
0.0
  0
VERTEX
  8
Default
 10
-286.0
 20
-525.561852494172
 42
0.0
  0
VERTEX
  8
Default
 10
-286.0
 20
-554.438147505828
 42
0.0
  0
SEQEND
  0
POLYLINE
  8
Default
 66
     1
 10
0.0
 20
0.0
 30
0.0
 70
     1
  0
VERTEX
  8
Default
 10
245.0
 20
-795.561852494172
 42
0.0
  0
VERTEX
  8
Default
 10
245.0
 20
-824.438147505828
 42
0.0
  0
VERTEX
  8
Default
 10
4.0
 20
-824.438147505828
 42
0.0
  0
VERTEX
  8
Default
 10
4.0
 20
-795.561852494172
 42
0.0
  0
SEQEND
  0
POLYLINE
  8
Default
 66
     1
 10
0.0
 20
0.0
 30
0.0
 70
     1
  0
VERTEX
  8
Default
 10
294.0
 20
-795.561852494172
 42
0.0
  0
VERTEX
  8
Default
 10
294.0
 20
-824.438147505828
 42
0.0
  0
VERTEX
  8
Default
 10
388.20114634085
 20
-824.438147505828
 42
-0.0089367606061
  0
VERTEX
  8
Default
 10
359.309067254156
 20
-795.561852494172
 42
0.0
  0
SEQEND
  0
POLYLINE
  8
Default
 66
     1
 10
0.0
 20
0.0
 30
0.0
 70
     1
  0
VERTEX
  8
Default
 10
245.000000000001
 20
824.438147505828
 42
0.0
  0
VERTEX
  8
Default
 10
245.000000000001
 20
795.561852494172
 42
0.0
  0
VERTEX
  8
Default
 10
4.0000000000005
 20
795.561852494172
 42
0.0
  0
VERTEX
  8
Default
 10
4.0000000000005
 20
824.438147505828
 42
0.0
  0
SEQEND
  0
POLYLINE
  8
Default
 66
     1
 10
0.0
 20
0.0
 30
0.0
 70
     1
  0
VERTEX
  8
Default
 10
-335.0
 20
824.438147505828
 42
0.0
  0
VERTEX
  8
Default
 10
-457.125000534892
 20
824.438147505828
 42
0.0
  0
VERTEX
  8
Default
 10
-457.125000534892
 20
795.561852494172
 42
0.0
  0
VERTEX
  8
Default
 10
-335.0
 20
795.561852494172
 42
0.0
  0
SEQEND
  0
POLYLINE
  8
Default
 66
     1
 10
0.0
 20
0.0
 30
0.0
 70
     1
  0
VERTEX
  8
Default
 10
-286.0
 20
554.438147505828
 42
0.0
  0
VERTEX
  8
Default
 10
-44.9999999999995
 20
554.438147505828
 42
0.0
  0
VERTEX
  8
Default
 10
-44.9999999999995
 20
525.561852494172
 42
0.0
  0
VERTEX
  8
Default
 10
-286.0
 20
525.561852494172
 42
0.0
  0
SEQEND
  0
POLYLINE
  8
Default
 66
     1
 10
0.0
 20
0.0
 30
0.0
 70
     1
  0
VERTEX
  8
Default
 10
-335.0
 20
554.438147505828
 42
0.0
  0
VERTEX
  8
Default
 10
-457.125000534893
 20
554.438147505828
 42
0.0
  0
VERTEX
  8
Default
 10
-457.125000534893
 20
525.561852494172
 42
0.0
  0
VERTEX
  8
Default
 10
-335.0
 20
525.561852494172
 42
0.0
  0
SEQEND
  0
POLYLINE
  8
Default
 66
     1
 10
0.0
 20
0.0
 30
0.0
 70
     1
  0
VERTEX
  8
Default
 10
-286.0
 20
284.438147505828
 42
0.0
  0
VERTEX
  8
Default
 10
-44.9999999999995
 20
284.438147505828
 42
0.0
  0
VERTEX
  8
Default
 10
-44.9999999999998
 20
255.561852494172
 42
0.0
  0
VERTEX
  8
Default
 10
-286.0
 20
255.561852494172
 42
0.0
  0
SEQEND
  0
POLYLINE
  8
Default
 66
     1
 10
0.0
 20
0.0
 30
0.0
 70
     1
  0
VERTEX
  8
Default
 10
-335.0
 20
284.438147505828
 42
0.0
  0
VERTEX
  8
Default
 10
-457.125000534893
 20
284.438147505828
 42
0.0
  0
VERTEX
  8
Default
 10
-457.125000534893
 20
255.561852494172
 42
0.0
  0
VERTEX
  8
Default
 10
-335.0
 20
255.561852494172
 42
0.0
  0
SEQEND
  0
POLYLINE
  8
Default
 66
     1
 10
0.0
 20
0.0
 30
0.0
 70
     1
  0
VERTEX
  8
Default
 10
-286.0
 20
14.4381475058279
 42
0.0
  0
VERTEX
  8
Default
 10
-44.9999999999998
 20
14.4381475058278
 42
0.0
  0
VERTEX
  8
Default
 10
-44.9999999999998
 20
-14.4381475058278
 42
0.0
  0
VERTEX
  8
Default
 10
-286.0
 20
-14.4381475058277
 42
0.0
  0
SEQEND
  0
POLYLINE
  8
Default
 66
     1
 10
0.0
 20
0.0
 30
0.0
 70
     1
  0
VERTEX
  8
Default
 10
-335.0
 20
14.4381475058279
 42
0.0
  0
VERTEX
  8
Default
 10
-457.125000534893
 20
14.438147505828
 42
0.0
  0
VERTEX
  8
Default
 10
-457.125000534893
 20
-14.4381475058277
 42
0.0
  0
VERTEX
  8
Default
 10
-335.0
 20
-14.4381475058277
 42
0.0
  0
SEQEND
  0
POLYLINE
  8
Default
 66
     1
 10
0.0
 20
0.0
 30
0.0
 70
     1
  0
VERTEX
  8
Default
 10
4.0000000000002
 20
-255.561852494172
 42
0.0
  0
VERTEX
  8
Default
 10
4.0000000000002
 20
-284.438147505828
 42
0.0
  0
VERTEX
  8
Default
 10
74.1828634469136
 20
-284.438147505828
 42
-0.0064987770217
  0
VERTEX
  8
Default
 10
67.2113995570992
 20
-255.561852494172
 42
0.0
  0
SEQEND
  0
POLYLINE
  8
Default
 66
     1
 10
0.0
 20
0.0
 30
0.0
 70
     0
  0
VERTEX
  8
Default
 10
-286.0
 20
-255.561852494172
 42
0.0
  0
VERTEX
  8
Default
 10
-44.9999999999998
 20
-255.561852494172
 42
0.0
  0
VERTEX
  8
Default
 10
-44.9999999999998
 20
-284.438147505828
 42
0.0
  0
VERTEX
  8
Default
 10
-286.0
 20
-284.438147505828
 42
0.0
  0
SEQEND
  0
POLYLINE
  8
Default
 66
     1
 10
0.0
 20
0.0
 30
0.0
 70
     1
  0
VERTEX
  8
Default
 10
-335.0
 20
-255.561852494172
 42
0.0
  0
VERTEX
  8
Default
 10
-457.125000534893
 20
-255.561852494172
 42
0.0
  0
VERTEX
  8
Default
 10
-457.125000534893
 20
-284.438147505828
 42
0.0
  0
VERTEX
  8
Default
 10
-335.0
 20
-284.438147505828
 42
0.0
  0
SEQEND
  0
POLYLINE
  8
Default
 66
     1
 10
0.0
 20
0.0
 30
0.0
 70
     1
  0
VERTEX
  8
Default
 10
-286.0
 20
-795.561852494172
 42
0.0
  0
VERTEX
  8
Default
 10
-45.0
 20
-795.561852494172
 42
0.0
  0
VERTEX
  8
Default
 10
-45.0
 20
-824.438147505828
 42
0.0
  0
VERTEX
  8
Default
 10
-286.0
 20
-824.438147505828
 42
0.0
  0
SEQEND
  0
POLYLINE
  8
Default
 66
     1
 10
0.0
 20
0.0
 30
0.0
 70
     1
  0
VERTEX
  8
Default
 10
-335.0
 20
-795.561852494172
 42
0.0
  0
VERTEX
  8
Default
 10
-457.125000534893
 20
-795.561852494172
 42
0.0
  0
VERTEX
  8
Default
 10
-457.125000534893
 20
-824.438147505828
 42
0.0
  0
VERTEX
  8
Default
 10
-335.0
 20
-824.438147505828
 42
0.0
  0
SEQEND
  0
POLYLINE
  8
Default
 66
     1
 10
0.0
 20
0.0
 30
0.0
 70
     1
  0
VERTEX
  8
Default
 10
294.0
 20
795.561852494172
 42
0.0
  0
VERTEX
  8
Default
 10
294.000000000001
 20
824.438147505828
 42
0.0
  0
VERTEX
  8
Default
 10
392.009115850342
 20
824.438147505828
 42
0.0089776145209
  0
VERTEX
  8
Default
 10
362.853663516041
 20
795.561852494172
 42
0.0
  0
SEQEND
  0
POLYLINE
  8
Default
 66
     1
 10
0.0
 20
0.0
 30
0.0
 70
     1
  0
VERTEX
  8
Default
 10
-335.0
 20
-525.561852494172
 42
0.0
  0
VERTEX
  8
Default
 10
-457.125000534893
 20
-525.561852494172
 42
0.0
  0
VERTEX
  8
Default
 10
-457.125000534893
 20
-554.438147505828
 42
0.0
  0
VERTEX
  8
Default
 10
-335.0
 20
-554.438147505828
 42
0.0
  0
SEQEND
  0
POLYLINE
  8
Default
 66
     1
 10
0.0
 20
0.0
 30
0.0
 70
     1
  0
VERTEX
  8
Default
 10
4.0
 20
-525.561852494172
 42
0.0
  0
VERTEX
  8
Default
 10
4.0
 20
-554.438147505828
 42
0.0
  0
VERTEX
  8
Default
 10
181.180770359429
 20
-554.438147505828
 42
-0.0071613154595
  0
VERTEX
  8
Default
 10
165.763891577952
 20
-525.561852494172
 42
0.0
  0
SEQEND
  0
POLYLINE
  8
Default
 66
     1
 10
0.0
 20
0.0
 30
0.0
 70
     1
  0
VERTEX
  8
Default
 10
4.0000000000005
 20
525.561852494172
 42
0.0
  0
VERTEX
  8
Default
 10
4.0000000000005
 20
554.438147505828
 42
0.0
  0
VERTEX
  8
Default
 10
183.208835814271
 20
554.438147505828
 42
0.0071752699186
  0
VERTEX
  8
Default
 10
167.656996839416
 20
525.561852494172
 42
0.0
  0
SEQEND
  0
POLYLINE
  8
Default
 66
     1
 10
0.0
 20
0.0
 30
0.0
 70
     1
  0
VERTEX
  8
Default
 10
4.0000000000002
 20
255.561852494172
 42
0.0
  0
VERTEX
  8
Default
 10
4.0000000000002
 20
284.438147505828
 42
0.0
  0
VERTEX
  8
Default
 10
75.1222113802733
 20
284.438147505828
 42
0.0065039819637
  0
VERTEX
  8
Default
 10
68.050063916829
 20
255.561852494172
 42
0.0
  0
SEQEND
  0
POLYLINE
  8
Default
 66
     1
 10
0.0
 20
0.0
 30
0.0
 70
     1
  0
VERTEX
  8
Default
 10
4.0000000000002
 20
-14.4381475058278
 42
0.0
  0
VERTEX
  8
Default
 10
4.0000000000002
 20
14.4381475058278
 42
0.0
  0
VERTEX
  8
Default
 10
38.8030334271955
 20
14.4381475058278
 42
0.0063172728475
  0
VERTEX
  8
Default
 10
38.7568487548376
 20
-14.4381475058278
 42
0.0
  0
SEQEND
  0
POLYLINE
  8
Default
 66
     1
 10
0.0
 20
0.0
 30
0.0
 70
     1
  0
VERTEX
  8
Default
 10
327.545601108836
 20
-464.451172772308
 42
0.0
  0
VERTEX
  8
Default
 10
367.716322238726
 20
-483.779265639001
 42
-0.0275442474125
  0
VERTEX
  8
Default
 10
357.659637068981
 20
-524.118724997285
 42
-0.0370308465123
  0
VERTEX
  8
Default
 10
356.771123202661
 20
-526.308333984926
 42
-0.0050112237135
  0
VERTEX
  8
Default
 10
314.243432818741
 20
-500.97935983809
 42
0.0
  0
SEQEND
  0
ENDSEC
  0
EOF
