  0
SECTION
  2
HEADER
  9
$ACADVER
  1
AC1009
  9
$EXTMAX
 10
750.0
 20
1000.0
 30
0.0
  9
$EXTMIN
 10
-250.0
 20
-1000.0
 30
0.0
  9
$INSUNITS
 70
     4
  9
$LUNITS
 70
     2
  9
$LUPREC
 70
     4
  9
$MEASUREMENT
 70
     1
  0
ENDSEC
  0
SECTION
  2
TABLES
  0
TABLE
  2
LAYER
 70
     1
  0
LAYER
  2
0
 70
     0
 62
    70
  6
Continuous
  0
LAYER
  2
Image
 70
     0
 62
    70
  6
Continuous
  0
ENDTAB
  0
TABLE
  2
APPID
 70
     1
  0
APPID
  2
ACAD
 70
     0
  0
ENDTAB
  0
ENDSEC
  0
SECTION
  2
ENTITIES
  0
POLYLINE
  8
Image
 66
     1
 10
0.0
 20
0.0
 30
0.0
 70
     1
  0
VERTEX
  8
Image
 10
440.58241
 20
482.000000000001
 42
0.0
  0
SEQEND
  0
POLYLINE
  8
Image
 66
     1
 10
0.0
 20
0.0
 30
0.0
 70
     1
  0
VERTEX
  8
Image
 10
440.596039999999
 20
539.0
 42
0.0
  0
SEQEND
  0
POLYLINE
  8
Image
 66
     1
 10
0.0
 20
0.0
 30
0.0
 70
     1
  0
VERTEX
  8
Image
 10
440.582409999995
 20
664.000000000004
 42
0.0
  0
SEQEND
  0
POLYLINE
  8
Image
 66
     1
 10
0.0
 20
0.0
 30
0.0
 70
     1
  0
VERTEX
  8
Image
 10
440.596040000001
 20
333.0
 42
0.0
  0
SEQEND
  0
POLYLINE
  8
Image
 66
     1
 10
0.0
 20
0.0
 30
0.0
 70
     1
  0
VERTEX
  8
Image
 10
440.58241
 20
265.0
 42
0.0
  0
SEQEND
  0
POLYLINE
  8
Image
 66
     1
 10
0.0
 20
0.0
 30
0.0
 70
     1
  0
VERTEX
  8
Image
 10
219.999999341384
 20
-410.841350067061
 42
0.0
  0
VERTEX
  8
Image
 10
219.999999341385
 20
-970.000001625094
 42
0.0
  0
VERTEX
  8
Image
 10
187.478098063554
 20
-970.000001625095
 42
0.0
  0
VERTEX
  8
Image
 10
187.478098063552
 20
-410.841350067061
 42
0.0
  0
SEQEND
  0
POLYLINE
  8
Image
 66
     1
 10
0.0
 20
0.0
 30
0.0
 70
     1
  0
VERTEX
  8
Image
 10
219.999999341384
 20
-247.51146130979
 42
0.0
  0
VERTEX
  8
Image
 10
219.999999341384
 20
-345.503368141404
 42
0.0
  0
VERTEX
  8
Image
 10
187.478098063551
 20
-345.503368141403
 42
0.0
  0
VERTEX
  8
Image
 10
187.478098063554
 20
-247.511461309791
 42
0.0
  0
SEQEND
  0
POLYLINE
  8
Image
 66
     1
 10
0.0
 20
0.0
 30
0.0
 70
     1
  0
VERTEX
  8
Image
 10
219.999999341386
 20
268.098579669055
 42
0.0
  0
VERTEX
  8
Image
 10
187.478098063556
 20
268.098579669057
 42
0.0
  0
VERTEX
  8
Image
 10
187.478098063554
 20
-191.781119899267
 42
0.0
  0
VERTEX
  8
Image
 10
219.999999341384
 20
-191.781119899266
 42
0.0
  0
SEQEND
  0
POLYLINE
  8
Image
 66
     1
 10
0.0
 20
0.0
 30
0.0
 70
     1
  0
VERTEX
  8
Image
 10
219.999999341385
 20
391.082404685514
 42
0.0
  0
VERTEX
  8
Image
 10
219.999999341385
 20
811.261636295474
 42
0.0
  0
VERTEX
  8
Image
 10
187.478098063554
 20
811.261636295474
 42
0.0
  0
VERTEX
  8
Image
 10
187.478098063554
 20
391.082404685515
 42
0.0
  0
SEQEND
  0
POLYLINE
  8
Image
 66
     1
 10
0.0
 20
0.0
 30
0.0
 70
     1
  0
VERTEX
  8
Image
 10
134.303517561852
 20
32.3971587871876
 42
0.0
  0
VERTEX
  8
Image
 10
134.303517561857
 20
492.276858355505
 42
0.0
  0
VERTEX
  8
Image
 10
101.781616284019
 20
492.276858355503
 42
0.0
  0
VERTEX
  8
Image
 10
101.781616284018
 20
32.3971587871884
 42
0.0
  0
SEQEND
  0
POLYLINE
  8
Image
 66
     1
 10
0.0
 20
0.0
 30
0.0
 70
     1
  0
VERTEX
  8
Image
 10
101.78161628402
 20
576.83012131143
 42
0.0
  0
VERTEX
  8
Image
 10
101.78161628402
 20
970.000001625095
 42
0.0
  0
VERTEX
  8
Image
 10
134.303517561852
 20
970.000001625096
 42
0.0
  0
VERTEX
  8
Image
 10
134.303517561857
 20
576.83012131143
 42
0.0
  0
SEQEND
  0
POLYLINE
  8
Image
 66
     1
 10
0.0
 20
0.0
 30
0.0
 70
     1
  0
VERTEX
  8
Image
 10
101.78161628402
 20
-729.808988746751
 42
0.0
  0
VERTEX
  8
Image
 10
134.303517561851
 20
-729.808988746752
 42
0.0
  0
VERTEX
  8
Image
 10
134.303517561852
 20
-29.7382763000916
 42
0.0
  0
VERTEX
  8
Image
 10
101.781616284021
 20
-29.7382763000916
 42
0.0
  0
SEQEND
  0
POLYLINE
  8
Image
 66
     1
 10
0.0
 20
0.0
 30
0.0
 70
     1
  0
VERTEX
  8
Image
 10
16.1396588623864
 20
-580.57633250109
 42
0.0
  0
VERTEX
  8
Image
 10
16.1396588623864
 20
-960.39236110996
 42
0.0
  0
VERTEX
  8
Image
 10
49.3012167950939
 20
-960.392361109961
 42
0.0
  0
VERTEX
  8
Image
 10
49.3012167950924
 20
-580.57633250109
 42
0.0
  0
SEQEND
  0
POLYLINE
  8
Image
 66
     1
 10
0.0
 20
0.0
 30
0.0
 70
     1
  0
VERTEX
  8
Image
 10
16.1396588623861
 20
-228.29618027952
 42
0.0
  0
VERTEX
  8
Image
 10
16.1396588623861
 20
-428.76958593923
 42
0.0
  0
VERTEX
  8
Image
 10
49.3012167950939
 20
-428.76958593923
 42
0.0
  0
VERTEX
  8
Image
 10
49.3012167950917
 20
-228.29618027952
 42
0.0
  0
SEQEND
  0
POLYLINE
  8
Image
 66
     1
 10
0.0
 20
0.0
 30
0.0
 70
     1
  0
VERTEX
  8
Image
 10
16.1396588623859
 20
348.162250628498
 42
0.0
  0
VERTEX
  8
Image
 10
16.1396588623878
 20
-114.919995778195
 42
0.0
  0
VERTEX
  8
Image
 10
49.3012167950941
 20
-114.919995778197
 42
0.0
  0
VERTEX
  8
Image
 10
49.3012167950927
 20
348.162250628498
 42
0.0
  0
SEQEND
  0
POLYLINE
  8
Image
 66
     1
 10
0.0
 20
0.0
 30
0.0
 70
     1
  0
VERTEX
  8
Image
 10
16.1396588623835
 20
544.804652927649
 42
0.0
  0
VERTEX
  8
Image
 10
49.3012167950941
 20
544.804652927653
 42
0.0
  0
VERTEX
  8
Image
 10
49.3012167950941
 20
963.650472135985
 42
0.0
  0
VERTEX
  8
Image
 10
16.1396588623859
 20
963.650472135985
 42
0.0
  0
SEQEND
  0
POLYLINE
  8
Image
 66
     1
 10
0.0
 20
0.0
 30
0.0
 70
     1
  0
VERTEX
  8
Image
 10
-36.3952649844437
 20
223.262923931762
 42
0.0
  0
VERTEX
  8
Image
 10
-36.3952649844435
 20
158.254236324054
 42
0.0
  0
VERTEX
  8
Image
 10
-36.395264984443
 20
-76.4894337176592
 42
0.0
  0
VERTEX
  8
Image
 10
-68.9171662622762
 20
-76.489433717658
 42
0.0
  0
VERTEX
  8
Image
 10
-68.9171662622755
 20
223.262923931764
 42
0.0
  0
SEQEND
  0
POLYLINE
  8
Image
 66
     1
 10
0.0
 20
0.0
 30
0.0
 70
     1
  0
VERTEX
  8
Image
 10
-68.9171662622745
 20
-180.257977703853
 42
0.0
  0
VERTEX
  8
Image
 10
-68.9171662622741
 20
-700.98606720135
 42
0.0
  0
VERTEX
  8
Image
 10
-36.3952649844427
 20
-700.98606720135
 42
0.0
  0
VERTEX
  8
Image
 10
-36.3952649844449
 20
-180.257977703853
 42
0.0
  0
SEQEND
  0
POLYLINE
  8
Image
 66
     1
 10
0.0
 20
0.0
 30
0.0
 70
     1
  0
VERTEX
  8
Image
 10
-36.3952649844437
 20
713.25259020358
 42
0.0
  0
VERTEX
  8
Image
 10
-36.3952649844437
 20
536.15476325266
 42
0.0
  0
VERTEX
  8
Image
 10
-36.3952649844432
 20
285.398359019042
 42
0.0
  0
VERTEX
  8
Image
 10
-68.9171662622731
 20
285.398359019043
 42
0.0
  0
VERTEX
  8
Image
 10
-68.9171662622719
 20
713.25259020358
 42
0.0
  0
SEQEND
  0
POLYLINE
  8
Image
 66
     1
 10
0.0
 20
0.0
 30
0.0
 70
     1
  0
VERTEX
  8
Image
 10
-135.949895066931
 20
-446.069365289218
 42
0.0
  0
VERTEX
  8
Image
 10
-135.949895066931
 20
-893.138877504024
 42
0.0
  0
VERTEX
  8
Image
 10
-103.4279937891
 20
-893.138877504025
 42
0.0
  0
VERTEX
  8
Image
 10
-103.427993789101
 20
-446.069365289218
 42
0.0
  0
SEQEND
  0
POLYLINE
  8
Image
 66
     1
 10
0.0
 20
0.0
 30
0.0
 70
     1
  0
VERTEX
  8
Image
 10
-103.427993789101
 20
889.392666314365
 42
0.0
  0
VERTEX
  8
Image
 10
-103.427993789106
 20
506.374090867113
 42
0.0
  0
VERTEX
  8
Image
 10
-135.949895066931
 20
506.374090867116
 42
0.0
  0
VERTEX
  8
Image
 10
-135.949895066932
 20
889.392666314365
 42
0.0
  0
SEQEND
  0
POLYLINE
  8
Image
 66
     1
 10
0.0
 20
0.0
 30
0.0
 70
     1
  0
VERTEX
  8
Image
 10
-103.499382862321
 20
-371.123742848428
 42
0.0
  0
VERTEX
  8
Image
 10
-103.499382862321
 20
-273.448599371745
 42
0.0
  0
VERTEX
  8
Image
 10
-135.949895066931
 20
-273.198156878253
 42
0.0
  0
VERTEX
  8
Image
 10
-135.949895066931
 20
-371.123742848427
 42
0.0
  0
SEQEND
  0
POLYLINE
  8
Image
 66
     1
 10
0.0
 20
0.0
 30
0.0
 70
     1
  0
VERTEX
  8
Image
 10
-103.388017081287
 20
-153.350557838729
 42
0.0
  0
VERTEX
  8
Image
 10
-135.949895066931
 20
-153.35055783873
 42
0.0
  0
VERTEX
  8
Image
 10
-135.949895066931
 20
306.529141729588
 42
0.0
  0
VERTEX
  8
Image
 10
-103.388017081287
 20
306.529141729591
 42
0.0
  0
SEQEND
  0
POLYLINE
  8
Image
 66
     1
 10
0.0
 20
0.0
 30
0.0
 70
     1
  0
VERTEX
  8
Image
 10
-187.478098063554
 20
367.377531658768
 42
0.0
  0
VERTEX
  8
Image
 10
-187.478098063555
 20
278.993265342286
 42
0.0
  0
VERTEX
  8
Image
 10
-219.999999341385
 20
278.993265342287
 42
0.0
  0
VERTEX
  8
Image
 10
-219.999999341384
 20
367.377531658769
 42
0.0
  0
SEQEND
  0
POLYLINE
  8
Image
 66
     1
 10
0.0
 20
0.0
 30
0.0
 70
     1
  0
VERTEX
  8
Image
 10
-219.999999341385
 20
480.753716160093
 42
0.0
  0
VERTEX
  8
Image
 10
-219.999999341385
 20
767.695886456005
 42
0.0
  0
VERTEX
  8
Image
 10
-187.478098063554
 20
767.695886456006
 42
0.0
  0
VERTEX
  8
Image
 10
-187.478098063553
 20
480.753716160094
 42
0.0
  0
SEQEND
  0
POLYLINE
  8
Image
 66
     1
 10
0.0
 20
0.0
 30
0.0
 70
     1
  0
VERTEX
  8
Image
 10
-219.999999341385
 20
-970.000001625095
 42
0.0
  0
VERTEX
  8
Image
 10
-187.478098063554
 20
-970.000001625096
 42
0.0
  0
VERTEX
  8
Image
 10
-187.478098063553
 20
-711.880752874584
 42
0.0
  0
VERTEX
  8
Image
 10
-219.999999341385
 20
-711.880752874584
 42
0.0
  0
SEQEND
  0
POLYLINE
  8
Image
 66
     1
 10
0.0
 20
0.0
 30
0.0
 70
     1
  0
VERTEX
  8
Image
 10
-187.478098063554
 20
-262.237150343579
 42
0.0
  0
VERTEX
  8
Image
 10
-187.478098063554
 20
200.845096063117
 42
0.0
  0
VERTEX
  8
Image
 10
-219.999999341385
 20
200.845096063118
 42
0.0
  0
VERTEX
  8
Image
 10
-219.999999341386
 20
-262.237150343579
 42
0.0
  0
SEQEND
  0
POLYLINE
  8
Image
 66
     1
 10
0.0
 20
0.0
 30
0.0
 70
     1
  0
VERTEX
  8
Image
 10
-187.478098063554
 20
-643.340224110549
 42
0.0
  0
VERTEX
  8
Image
 10
-187.478098063553
 20
-353.195506976259
 42
0.0
  0
VERTEX
  8
Image
 10
-219.999999341386
 20
-353.19550697626
 42
0.0
  0
VERTEX
  8
Image
 10
-219.999999341385
 20
-643.340224110549
 42
0.0
  0
SEQEND
  0
POLYLINE
  8
Image
 66
     1
 10
0.0
 20
0.0
 30
0.0
 70
     1
  0
VERTEX
  8
Image
 10
719.999998061385
 20
-410.841350067061
 42
0.0
  0
VERTEX
  8
Image
 10
719.999998061386
 20
-970.000001625094
 42
0.0
  0
VERTEX
  8
Image
 10
687.478096783554
 20
-970.000001625095
 42
0.0
  0
VERTEX
  8
Image
 10
687.478096783552
 20
-410.841350067061
 42
0.0
  0
SEQEND
  0
POLYLINE
  8
Image
 66
     1
 10
0.0
 20
0.0
 30
0.0
 70
     1
  0
VERTEX
  8
Image
 10
719.999998061385
 20
-247.51146130979
 42
0.0
  0
VERTEX
  8
Image
 10
719.999998061385
 20
-345.503368141404
 42
0.0
  0
VERTEX
  8
Image
 10
687.478096783552
 20
-345.503368141403
 42
0.0
  0
VERTEX
  8
Image
 10
687.478096783554
 20
-247.511461309791
 42
0.0
  0
SEQEND
  0
POLYLINE
  8
Image
 66
     1
 10
0.0
 20
0.0
 30
0.0
 70
     1
  0
VERTEX
  8
Image
 10
719.999998061386
 20
268.098579669055
 42
0.0
  0
VERTEX
  8
Image
 10
687.478096783556
 20
268.098579669057
 42
0.0
  0
VERTEX
  8
Image
 10
687.478096783555
 20
-191.781119899267
 42
0.0
  0
VERTEX
  8
Image
 10
719.999998061385
 20
-191.781119899266
 42
0.0
  0
SEQEND
  0
POLYLINE
  8
Image
 66
     1
 10
0.0
 20
0.0
 30
0.0
 70
     1
  0
VERTEX
  8
Image
 10
719.999998061385
 20
391.082404685514
 42
0.0
  0
VERTEX
  8
Image
 10
719.999998061385
 20
811.261636295474
 42
0.0
  0
VERTEX
  8
Image
 10
687.478096783554
 20
811.261636295474
 42
0.0
  0
VERTEX
  8
Image
 10
687.478096783554
 20
391.082404685515
 42
0.0
  0
SEQEND
  0
POLYLINE
  8
Image
 66
     1
 10
0.0
 20
0.0
 30
0.0
 70
     1
  0
VERTEX
  8
Image
 10
634.303516281853
 20
32.3971587871876
 42
0.0
  0
VERTEX
  8
Image
 10
634.303516281857
 20
492.276858355505
 42
0.0
  0
VERTEX
  8
Image
 10
601.781615004019
 20
492.276858355503
 42
0.0
  0
VERTEX
  8
Image
 10
601.781615004019
 20
32.3971587871884
 42
0.0
  0
SEQEND
  0
POLYLINE
  8
Image
 66
     1
 10
0.0
 20
0.0
 30
0.0
 70
     1
  0
VERTEX
  8
Image
 10
601.78161500402
 20
576.83012131143
 42
0.0
  0
VERTEX
  8
Image
 10
601.781615004021
 20
970.000001625095
 42
0.0
  0
VERTEX
  8
Image
 10
634.303516281852
 20
970.000001625096
 42
0.0
  0
VERTEX
  8
Image
 10
634.303516281857
 20
576.83012131143
 42
0.0
  0
SEQEND
  0
POLYLINE
  8
Image
 66
     1
 10
0.0
 20
0.0
 30
0.0
 70
     1
  0
VERTEX
  8
Image
 10
601.781615004021
 20
-729.808988746751
 42
0.0
  0
VERTEX
  8
Image
 10
634.303516281852
 20
-729.808988746752
 42
0.0
  0
VERTEX
  8
Image
 10
634.303516281853
 20
-29.7382763000916
 42
0.0
  0
VERTEX
  8
Image
 10
601.781615004021
 20
-29.7382763000916
 42
0.0
  0
SEQEND
  0
POLYLINE
  8
Image
 66
     1
 10
0.0
 20
0.0
 30
0.0
 70
     1
  0
VERTEX
  8
Image
 10
516.139657582387
 20
-580.57633250109
 42
0.0
  0
VERTEX
  8
Image
 10
516.139657582387
 20
-960.39236110996
 42
0.0
  0
VERTEX
  8
Image
 10
549.301215515094
 20
-960.392361109961
 42
0.0
  0
VERTEX
  8
Image
 10
549.301215515093
 20
-580.57633250109
 42
0.0
  0
SEQEND
  0
POLYLINE
  8
Image
 66
     1
 10
0.0
 20
0.0
 30
0.0
 70
     1
  0
VERTEX
  8
Image
 10
516.139657582386
 20
-228.29618027952
 42
0.0
  0
VERTEX
  8
Image
 10
516.139657582386
 20
-428.76958593923
 42
0.0
  0
VERTEX
  8
Image
 10
549.301215515094
 20
-428.76958593923
 42
0.0
  0
VERTEX
  8
Image
 10
549.301215515092
 20
-228.29618027952
 42
0.0
  0
SEQEND
  0
POLYLINE
  8
Image
 66
     1
 10
0.0
 20
0.0
 30
0.0
 70
     1
  0
VERTEX
  8
Image
 10
516.139657582386
 20
348.162250628498
 42
0.0
  0
VERTEX
  8
Image
 10
516.139657582388
 20
-114.919995778195
 42
0.0
  0
VERTEX
  8
Image
 10
549.301215515094
 20
-114.919995778197
 42
0.0
  0
VERTEX
  8
Image
 10
549.301215515093
 20
348.162250628498
 42
0.0
  0
SEQEND
  0
POLYLINE
  8
Image
 66
     1
 10
0.0
 20
0.0
 30
0.0
 70
     1
  0
VERTEX
  8
Image
 10
516.139657582384
 20
544.804652927649
 42
0.0
  0
VERTEX
  8
Image
 10
549.301215515094
 20
544.804652927653
 42
0.0
  0
VERTEX
  8
Image
 10
549.301215515094
 20
963.650472135985
 42
0.0
  0
VERTEX
  8
Image
 10
516.139657582386
 20
963.650472135985
 42
0.0
  0
SEQEND
  0
POLYLINE
  8
Image
 66
     1
 10
0.0
 20
0.0
 30
0.0
 70
     1
  0
VERTEX
  8
Image
 10
463.604733735557
 20
223.262923931762
 42
0.0
  0
VERTEX
  8
Image
 10
463.604733735557
 20
158.254236324054
 42
0.0
  0
VERTEX
  8
Image
 10
463.604733735557
 20
-76.4894337176592
 42
0.0
  0
VERTEX
  8
Image
 10
431.082832457724
 20
-76.489433717658
 42
0.0
  0
VERTEX
  8
Image
 10
431.082832457725
 20
223.262923931764
 42
0.0
  0
SEQEND
  0
POLYLINE
  8
Image
 66
     1
 10
0.0
 20
0.0
 30
0.0
 70
     1
  0
VERTEX
  8
Image
 10
431.082832457726
 20
-180.257977703853
 42
0.0
  0
VERTEX
  8
Image
 10
431.082832457726
 20
-700.98606720135
 42
0.0
  0
VERTEX
  8
Image
 10
463.604733735558
 20
-700.98606720135
 42
0.0
  0
VERTEX
  8
Image
 10
463.604733735555
 20
-180.257977703853
 42
0.0
  0
SEQEND
  0
POLYLINE
  8
Image
 66
     1
 10
0.0
 20
0.0
 30
0.0
 70
     1
  0
VERTEX
  8
Image
 10
463.604733735557
 20
713.25259020358
 42
0.0
  0
VERTEX
  8
Image
 10
463.604733735557
 20
536.15476325266
 42
0.0
  0
VERTEX
  8
Image
 10
463.604733735557
 20
285.398359019042
 42
0.0
  0
VERTEX
  8
Image
 10
431.082832457727
 20
285.398359019043
 42
0.0
  0
VERTEX
  8
Image
 10
431.082832457728
 20
713.25259020358
 42
0.0
  0
SEQEND
  0
POLYLINE
  8
Image
 66
     1
 10
0.0
 20
0.0
 30
0.0
 70
     1
  0
VERTEX
  8
Image
 10
364.050103653069
 20
-446.069365289218
 42
0.0
  0
VERTEX
  8
Image
 10
364.050103653069
 20
-893.138877504024
 42
0.0
  0
VERTEX
  8
Image
 10
396.5720049309
 20
-893.138877504025
 42
0.0
  0
VERTEX
  8
Image
 10
396.5720049309
 20
-446.069365289218
 42
0.0
  0
SEQEND
  0
POLYLINE
  8
Image
 66
     1
 10
0.0
 20
0.0
 30
0.0
 70
     1
  0
VERTEX
  8
Image
 10
396.5720049309
 20
889.392666314365
 42
0.0
  0
VERTEX
  8
Image
 10
396.572004930895
 20
506.374090867113
 42
0.0
  0
VERTEX
  8
Image
 10
364.050103653069
 20
506.374090867116
 42
0.0
  0
VERTEX
  8
Image
 10
364.050103653069
 20
889.392666314365
 42
0.0
  0
SEQEND
  0
POLYLINE
  8
Image
 66
     1
 10
0.0
 20
0.0
 30
0.0
 70
     1
  0
VERTEX
  8
Image
 10
396.500615857679
 20
-371.123742848428
 42
0.0
  0
VERTEX
  8
Image
 10
396.500615857679
 20
-273.448599371745
 42
0.0
  0
VERTEX
  8
Image
 10
364.05010365307
 20
-273.198156878253
 42
0.0
  0
VERTEX
  8
Image
 10
364.050103653069
 20
-371.123742848427
 42
0.0
  0
SEQEND
  0
POLYLINE
  8
Image
 66
     1
 10
0.0
 20
0.0
 30
0.0
 70
     1
  0
VERTEX
  8
Image
 10
396.611981638713
 20
-153.350557838729
 42
0.0
  0
VERTEX
  8
Image
 10
364.050103653069
 20
-153.35055783873
 42
0.0
  0
VERTEX
  8
Image
 10
364.05010365307
 20
306.529141729588
 42
0.0
  0
VERTEX
  8
Image
 10
396.611981638713
 20
306.529141729591
 42
0.0
  0
SEQEND
  0
POLYLINE
  8
Image
 66
     1
 10
0.0
 20
0.0
 30
0.0
 70
     1
  0
VERTEX
  8
Image
 10
312.521900656446
 20
367.377531658768
 42
0.0
  0
VERTEX
  8
Image
 10
312.521900656445
 20
278.993265342286
 42
0.0
  0
VERTEX
  8
Image
 10
279.999999378615
 20
278.993265342287
 42
0.0
  0
VERTEX
  8
Image
 10
279.999999378616
 20
367.377531658769
 42
0.0
  0
SEQEND
  0
POLYLINE
  8
Image
 66
     1
 10
0.0
 20
0.0
 30
0.0
 70
     1
  0
VERTEX
  8
Image
 10
279.999999378615
 20
480.753716160093
 42
0.0
  0
VERTEX
  8
Image
 10
279.999999378615
 20
767.695886456005
 42
0.0
  0
VERTEX
  8
Image
 10
312.521900656446
 20
767.695886456006
 42
0.0
  0
VERTEX
  8
Image
 10
312.521900656447
 20
480.753716160094
 42
0.0
  0
SEQEND
  0
POLYLINE
  8
Image
 66
     1
 10
0.0
 20
0.0
 30
0.0
 70
     1
  0
VERTEX
  8
Image
 10
279.999999378615
 20
-970.000001625095
 42
0.0
  0
VERTEX
  8
Image
 10
312.521900656446
 20
-970.000001625096
 42
0.0
  0
VERTEX
  8
Image
 10
312.521900656447
 20
-711.880752874584
 42
0.0
  0
VERTEX
  8
Image
 10
279.999999378615
 20
-711.880752874584
 42
0.0
  0
SEQEND
  0
POLYLINE
  8
Image
 66
     1
 10
0.0
 20
0.0
 30
0.0
 70
     1
  0
VERTEX
  8
Image
 10
312.521900656446
 20
-262.237150343579
 42
0.0
  0
VERTEX
  8
Image
 10
312.521900656446
 20
200.845096063117
 42
0.0
  0
VERTEX
  8
Image
 10
279.999999378616
 20
200.845096063118
 42
0.0
  0
VERTEX
  8
Image
 10
279.999999378614
 20
-262.237150343579
 42
0.0
  0
SEQEND
  0
POLYLINE
  8
Image
 66
     1
 10
0.0
 20
0.0
 30
0.0
 70
     1
  0
VERTEX
  8
Image
 10
312.521900656446
 20
-643.340224110549
 42
0.0
  0
VERTEX
  8
Image
 10
312.521900656447
 20
-353.195506976259
 42
0.0
  0
VERTEX
  8
Image
 10
279.999999378614
 20
-353.19550697626
 42
0.0
  0
VERTEX
  8
Image
 10
279.999999378615
 20
-643.340224110549
 42
0.0
  0
SEQEND
  0
LINE
  8
Image
 10
249.99999936
 20
999.999998625
 30
0.0
 11
249.99999936
 21
-999.999998625
 31
0.0
  0
POLYLINE
  8
Image
 66
     1
 10
0.0
 20
0.0
 30
0.0
 70
     1
  0
VERTEX
  8
Image
 10
249.99999936
 20
999.999998625
 42
0.0
  0
VERTEX
  8
Image
 10
-249.99999936
 20
999.999998625
 42
0.0
  0
VERTEX
  8
Image
 10
-249.99999936
 20
-999.999998625
 42
0.0
  0
VERTEX
  8
Image
 10
249.99999936
 20
-999.999998625
 42
0.0
  0
VERTEX
  8
Image
 10
749.999998080001
 20
-999.999998625
 42
0.0
  0
VERTEX
  8
Image
 10
749.999998080001
 20
999.999998625
 42
0.0
  0
SEQEND
  0
ENDSEC
  0
EOF
