  0
SECTION
  2
HEADER
  9
$ACADVER
  1
AC1009
  9
$EXTMAX
 10
500.0
 20
1000.0
 30
0.0
  9
$EXTMIN
 10
-500.0
 20
-1000.0
 30
0.0
  9
$INSUNITS
 70
     4
  9
$LUNITS
 70
     2
  9
$LUPREC
 70
     4
  9
$MEASUREMENT
 70
     1
  0
ENDSEC
  0
SECTION
  2
TABLES
  0
TABLE
  2
LAYER
 70
     1
  0
LAYER
  2
0
 70
     0
 62
     7
  6
Continuous
  0
LAYER
  2
Default
 70
     0
 62
    70
  6
Continuous
  0
ENDTAB
  0
TABLE
  2
APPID
 70
     1
  0
APPID
  2
ACAD
 70
     0
  0
ENDTAB
  0
ENDSEC
  0
SECTION
  2
ENTITIES
  0
CIRCLE
  8
Default
 10
-464.500000975
 20
-962.0
 30
0.0
 40
11.0000000595364
  0
CIRCLE
  8
Default
 10
-464.500000975
 20
-925.0
 30
0.0
 40
11.0000000595364
  0
CIRCLE
  8
Default
 10
-464.500000975
 20
-888.0
 30
0.0
 40
11.0000000595364
  0
CIRCLE
  8
Default
 10
-464.500000975
 20
-851.0
 30
0.0
 40
11.0000000595364
  0
CIRCLE
  8
Default
 10
-464.500000975
 20
-814.0
 30
0.0
 40
11.0000000595364
  0
CIRCLE
  8
Default
 10
-464.500000975
 20
-777.0
 30
0.0
 40
11.0000000595364
  0
CIRCLE
  8
Default
 10
-464.500000975
 20
-740.0
 30
0.0
 40
11.0000000595364
  0
CIRCLE
  8
Default
 10
-464.500000975
 20
-703.0
 30
0.0
 40
11.0000000595364
  0
CIRCLE
  8
Default
 10
-464.500000975
 20
-666.0
 30
0.0
 40
11.0000000595364
  0
CIRCLE
  8
Default
 10
-464.500000975
 20
-629.0
 30
0.0
 40
11.0000000595364
  0
CIRCLE
  8
Default
 10
-464.500000975
 20
-592.0
 30
0.0
 40
11.0000000595364
  0
CIRCLE
  8
Default
 10
-464.500000975
 20
-555.0
 30
0.0
 40
11.0000000595364
  0
CIRCLE
  8
Default
 10
-464.500000975
 20
-518.0
 30
0.0
 40
11.0000000595364
  0
CIRCLE
  8
Default
 10
-464.500000975
 20
-481.0
 30
0.0
 40
11.0000000595364
  0
CIRCLE
  8
Default
 10
-464.500000975
 20
-444.0
 30
0.0
 40
11.0000000595364
  0
CIRCLE
  8
Default
 10
-464.500000975
 20
-407.0
 30
0.0
 40
11.0000000595364
  0
CIRCLE
  8
Default
 10
-464.500000975
 20
-370.0
 30
0.0
 40
11.0000000595364
  0
CIRCLE
  8
Default
 10
-464.500000975
 20
-333.0
 30
0.0
 40
11.0000000595364
  0
CIRCLE
  8
Default
 10
-464.500000975
 20
-296.0
 30
0.0
 40
11.0000000595364
  0
CIRCLE
  8
Default
 10
-464.500000975
 20
-259.0
 30
0.0
 40
11.0000000595364
  0
CIRCLE
  8
Default
 10
-464.500000975
 20
-222.0
 30
0.0
 40
11.0000000595364
  0
CIRCLE
  8
Default
 10
-464.500000975
 20
-185.0
 30
0.0
 40
11.0000000595364
  0
CIRCLE
  8
Default
 10
-464.500000975
 20
-148.0
 30
0.0
 40
11.0000000595364
  0
CIRCLE
  8
Default
 10
-464.500000975
 20
-111.0
 30
0.0
 40
11.0000000595364
  0
CIRCLE
  8
Default
 10
-464.500000974999
 20
-74.0
 30
0.0
 40
11.0000000595364
  0
CIRCLE
  8
Default
 10
-464.500000974999
 20
-37.0
 30
0.0
 40
11.0000000595364
  0
CIRCLE
  8
Default
 10
-464.500000974999
 20
0.0
 30
0.0
 40
11.0000000595364
  0
CIRCLE
  8
Default
 10
-464.500000974999
 20
37.0
 30
0.0
 40
11.0000000595364
  0
CIRCLE
  8
Default
 10
-464.500000974999
 20
74.0
 30
0.0
 40
11.0000000595364
  0
CIRCLE
  8
Default
 10
-464.500000974999
 20
111.0
 30
0.0
 40
11.0000000595364
  0
CIRCLE
  8
Default
 10
-464.500000974999
 20
148.0
 30
0.0
 40
11.0000000595364
  0
CIRCLE
  8
Default
 10
-464.500000974999
 20
185.0
 30
0.0
 40
11.0000000595364
  0
CIRCLE
  8
Default
 10
-464.500000974999
 20
222.0
 30
0.0
 40
11.0000000595364
  0
CIRCLE
  8
Default
 10
-464.500000974999
 20
259.0
 30
0.0
 40
11.0000000595364
  0
CIRCLE
  8
Default
 10
-464.500000974999
 20
296.0
 30
0.0
 40
11.0000000595364
  0
CIRCLE
  8
Default
 10
-464.500000974999
 20
333.0
 30
0.0
 40
11.0000000595364
  0
CIRCLE
  8
Default
 10
-464.500000974999
 20
370.0
 30
0.0
 40
11.0000000595364
  0
CIRCLE
  8
Default
 10
-464.500000974999
 20
407.0
 30
0.0
 40
11.0000000595364
  0
CIRCLE
  8
Default
 10
-464.500000974999
 20
444.0
 30
0.0
 40
11.0000000595364
  0
CIRCLE
  8
Default
 10
-464.500000974999
 20
481.0
 30
0.0
 40
11.0000000595364
  0
CIRCLE
  8
Default
 10
-464.500000974999
 20
518.0
 30
0.0
 40
11.0000000595364
  0
CIRCLE
  8
Default
 10
-464.500000974999
 20
555.0
 30
0.0
 40
11.0000000595364
  0
CIRCLE
  8
Default
 10
-464.500000974999
 20
592.0
 30
0.0
 40
11.0000000595364
  0
CIRCLE
  8
Default
 10
-464.500000974999
 20
629.0
 30
0.0
 40
11.0000000595364
  0
CIRCLE
  8
Default
 10
-464.500000974999
 20
666.0
 30
0.0
 40
11.0000000595364
  0
CIRCLE
  8
Default
 10
-464.500000974999
 20
703.0
 30
0.0
 40
11.0000000595364
  0
CIRCLE
  8
Default
 10
-464.500000974999
 20
740.0
 30
0.0
 40
11.0000000595364
  0
CIRCLE
  8
Default
 10
-464.500000974999
 20
777.0
 30
0.0
 40
11.0000000595364
  0
CIRCLE
  8
Default
 10
-464.500000974999
 20
814.0
 30
0.0
 40
11.0000000595364
  0
CIRCLE
  8
Default
 10
-464.500000974999
 20
851.0
 30
0.0
 40
11.0000000595364
  0
CIRCLE
  8
Default
 10
-464.500000974999
 20
888.0
 30
0.0
 40
11.0000000595364
  0
CIRCLE
  8
Default
 10
-464.500000974999
 20
925.0
 30
0.0
 40
11.0000000595364
  0
CIRCLE
  8
Default
 10
-464.500000974999
 20
962.0
 30
0.0
 40
11.0000000595364
  0
CIRCLE
  8
Default
 10
-428.500000975
 20
-943.0
 30
0.0
 40
11.0000000595364
  0
CIRCLE
  8
Default
 10
-428.500000975
 20
-906.0
 30
0.0
 40
11.0000000595364
  0
CIRCLE
  8
Default
 10
-428.500000975
 20
-869.0
 30
0.0
 40
11.0000000595364
  0
CIRCLE
  8
Default
 10
-428.500000975
 20
-832.0
 30
0.0
 40
11.0000000595364
  0
CIRCLE
  8
Default
 10
-428.500000975
 20
-795.0
 30
0.0
 40
11.0000000595364
  0
CIRCLE
  8
Default
 10
-428.500000975
 20
-758.0
 30
0.0
 40
11.0000000595364
  0
CIRCLE
  8
Default
 10
-428.500000975
 20
-721.0
 30
0.0
 40
11.0000000595364
  0
CIRCLE
  8
Default
 10
-428.500000975
 20
-684.0
 30
0.0
 40
11.0000000595364
  0
CIRCLE
  8
Default
 10
-428.500000975
 20
-647.0
 30
0.0
 40
11.0000000595364
  0
CIRCLE
  8
Default
 10
-428.500000975
 20
-610.0
 30
0.0
 40
11.0000000595364
  0
CIRCLE
  8
Default
 10
-428.500000975
 20
-573.0
 30
0.0
 40
11.0000000595364
  0
CIRCLE
  8
Default
 10
-428.500000975
 20
-536.0
 30
0.0
 40
11.0000000595364
  0
CIRCLE
  8
Default
 10
-428.500000975
 20
-499.0
 30
0.0
 40
11.0000000595364
  0
CIRCLE
  8
Default
 10
-428.500000975
 20
-462.0
 30
0.0
 40
11.0000000595364
  0
CIRCLE
  8
Default
 10
-428.500000975
 20
-425.0
 30
0.0
 40
11.0000000595364
  0
CIRCLE
  8
Default
 10
-428.500000975
 20
-388.0
 30
0.0
 40
11.0000000595364
  0
CIRCLE
  8
Default
 10
-428.500000975
 20
-351.0
 30
0.0
 40
11.0000000595364
  0
CIRCLE
  8
Default
 10
-428.500000975
 20
-314.0
 30
0.0
 40
11.0000000595364
  0
CIRCLE
  8
Default
 10
-428.500000975
 20
-277.0
 30
0.0
 40
11.0000000595364
  0
CIRCLE
  8
Default
 10
-428.500000975
 20
-240.0
 30
0.0
 40
11.0000000595364
  0
CIRCLE
  8
Default
 10
-428.500000975
 20
-203.0
 30
0.0
 40
11.0000000595364
  0
CIRCLE
  8
Default
 10
-428.500000975
 20
-166.0
 30
0.0
 40
11.0000000595364
  0
CIRCLE
  8
Default
 10
-428.500000975
 20
-129.0
 30
0.0
 40
11.0000000595364
  0
CIRCLE
  8
Default
 10
-428.500000975
 20
-92.0
 30
0.0
 40
11.0000000595364
  0
CIRCLE
  8
Default
 10
-428.500000974999
 20
-55.0
 30
0.0
 40
11.0000000595364
  0
CIRCLE
  8
Default
 10
-428.500000974999
 20
-18.0
 30
0.0
 40
11.0000000595364
  0
CIRCLE
  8
Default
 10
-428.500000974999
 20
19.0
 30
0.0
 40
11.0000000595364
  0
CIRCLE
  8
Default
 10
-428.500000974999
 20
56.0
 30
0.0
 40
11.0000000595364
  0
CIRCLE
  8
Default
 10
-428.500000974999
 20
93.0
 30
0.0
 40
11.0000000595364
  0
CIRCLE
  8
Default
 10
-428.500000974999
 20
130.0
 30
0.0
 40
11.0000000595364
  0
CIRCLE
  8
Default
 10
-428.500000974999
 20
167.0
 30
0.0
 40
11.0000000595364
  0
CIRCLE
  8
Default
 10
-428.500000974999
 20
204.0
 30
0.0
 40
11.0000000595364
  0
CIRCLE
  8
Default
 10
-428.500000974999
 20
241.0
 30
0.0
 40
11.0000000595364
  0
CIRCLE
  8
Default
 10
-428.500000974999
 20
278.0
 30
0.0
 40
11.0000000595364
  0
CIRCLE
  8
Default
 10
-428.500000974999
 20
315.0
 30
0.0
 40
11.0000000595364
  0
CIRCLE
  8
Default
 10
-428.500000974999
 20
352.0
 30
0.0
 40
11.0000000595364
  0
CIRCLE
  8
Default
 10
-428.500000974999
 20
389.0
 30
0.0
 40
11.0000000595364
  0
CIRCLE
  8
Default
 10
-428.500000974999
 20
426.0
 30
0.0
 40
11.0000000595364
  0
CIRCLE
  8
Default
 10
-428.500000974999
 20
463.0
 30
0.0
 40
11.0000000595364
  0
CIRCLE
  8
Default
 10
-428.500000974999
 20
500.0
 30
0.0
 40
11.0000000595364
  0
CIRCLE
  8
Default
 10
-428.500000974999
 20
537.0
 30
0.0
 40
11.0000000595364
  0
CIRCLE
  8
Default
 10
-428.500000974999
 20
574.0
 30
0.0
 40
11.0000000595364
  0
CIRCLE
  8
Default
 10
-428.500000974999
 20
611.0
 30
0.0
 40
11.0000000595364
  0
CIRCLE
  8
Default
 10
-428.500000974999
 20
648.0
 30
0.0
 40
11.0000000595364
  0
CIRCLE
  8
Default
 10
-428.500000974999
 20
685.0
 30
0.0
 40
11.0000000595364
  0
CIRCLE
  8
Default
 10
-428.500000974999
 20
722.0
 30
0.0
 40
11.0000000595364
  0
CIRCLE
  8
Default
 10
-428.500000974999
 20
759.0
 30
0.0
 40
11.0000000595364
  0
CIRCLE
  8
Default
 10
-428.500000974999
 20
796.0
 30
0.0
 40
11.0000000595364
  0
CIRCLE
  8
Default
 10
-428.500000974999
 20
833.0
 30
0.0
 40
11.0000000595364
  0
CIRCLE
  8
Default
 10
-428.500000974999
 20
870.0
 30
0.0
 40
11.0000000595364
  0
CIRCLE
  8
Default
 10
-428.500000974999
 20
907.0
 30
0.0
 40
11.0000000595364
  0
CIRCLE
  8
Default
 10
-428.500000974999
 20
944.0
 30
0.0
 40
11.0000000595364
  0
CIRCLE
  8
Default
 10
-393.500000975
 20
-962.0
 30
0.0
 40
11.0000000595364
  0
CIRCLE
  8
Default
 10
-393.500000975
 20
-925.0
 30
0.0
 40
11.0000000595364
  0
CIRCLE
  8
Default
 10
-393.500000975
 20
-888.0
 30
0.0
 40
11.0000000595364
  0
CIRCLE
  8
Default
 10
-393.500000975
 20
-851.0
 30
0.0
 40
11.0000000595364
  0
CIRCLE
  8
Default
 10
-393.500000975
 20
-814.0
 30
0.0
 40
11.0000000595364
  0
CIRCLE
  8
Default
 10
-393.500000975
 20
-777.0
 30
0.0
 40
11.0000000595364
  0
CIRCLE
  8
Default
 10
-393.500000975
 20
-740.0
 30
0.0
 40
11.0000000595364
  0
CIRCLE
  8
Default
 10
-393.500000975
 20
-703.0
 30
0.0
 40
11.0000000595364
  0
CIRCLE
  8
Default
 10
-393.500000975
 20
-666.0
 30
0.0
 40
11.0000000595364
  0
CIRCLE
  8
Default
 10
-393.500000975
 20
-629.0
 30
0.0
 40
11.0000000595364
  0
CIRCLE
  8
Default
 10
-393.500000975
 20
-592.0
 30
0.0
 40
11.0000000595364
  0
CIRCLE
  8
Default
 10
-393.500000975
 20
-555.0
 30
0.0
 40
11.0000000595364
  0
CIRCLE
  8
Default
 10
-393.500000975
 20
-518.0
 30
0.0
 40
11.0000000595364
  0
CIRCLE
  8
Default
 10
-393.500000975
 20
-481.0
 30
0.0
 40
11.0000000595364
  0
CIRCLE
  8
Default
 10
-393.500000975
 20
-444.0
 30
0.0
 40
11.0000000595364
  0
CIRCLE
  8
Default
 10
-393.500000975
 20
-407.0
 30
0.0
 40
11.0000000595364
  0
CIRCLE
  8
Default
 10
-393.500000975
 20
-370.0
 30
0.0
 40
11.0000000595364
  0
CIRCLE
  8
Default
 10
-393.500000975
 20
-333.0
 30
0.0
 40
11.0000000595364
  0
CIRCLE
  8
Default
 10
-393.500000975
 20
-296.0
 30
0.0
 40
11.0000000595364
  0
CIRCLE
  8
Default
 10
-393.500000975
 20
-259.0
 30
0.0
 40
11.0000000595364
  0
CIRCLE
  8
Default
 10
-393.500000975
 20
-222.0
 30
0.0
 40
11.0000000595364
  0
CIRCLE
  8
Default
 10
-393.500000975
 20
-185.0
 30
0.0
 40
11.0000000595364
  0
CIRCLE
  8
Default
 10
-393.500000975
 20
-148.0
 30
0.0
 40
11.0000000595364
  0
CIRCLE
  8
Default
 10
-393.500000975
 20
-111.0
 30
0.0
 40
11.0000000595364
  0
CIRCLE
  8
Default
 10
-393.500000975
 20
-74.0
 30
0.0
 40
11.0000000595364
  0
CIRCLE
  8
Default
 10
-393.500000975
 20
-37.0
 30
0.0
 40
11.0000000595364
  0
CIRCLE
  8
Default
 10
-393.500000975
 20
0.0
 30
0.0
 40
11.0000000595364
  0
CIRCLE
  8
Default
 10
-393.500000975
 20
37.0
 30
0.0
 40
11.0000000595364
  0
CIRCLE
  8
Default
 10
-393.500000975
 20
74.0
 30
0.0
 40
11.0000000595364
  0
CIRCLE
  8
Default
 10
-393.500000975
 20
111.0
 30
0.0
 40
11.0000000595364
  0
CIRCLE
  8
Default
 10
-393.500000975
 20
148.0
 30
0.0
 40
11.0000000595364
  0
CIRCLE
  8
Default
 10
-393.500000975
 20
185.0
 30
0.0
 40
11.0000000595364
  0
CIRCLE
  8
Default
 10
-393.500000975
 20
222.0
 30
0.0
 40
11.0000000595364
  0
CIRCLE
  8
Default
 10
-393.500000975
 20
259.0
 30
0.0
 40
11.0000000595364
  0
CIRCLE
  8
Default
 10
-393.500000975
 20
296.0
 30
0.0
 40
11.0000000595364
  0
CIRCLE
  8
Default
 10
-393.500000975
 20
333.0
 30
0.0
 40
11.0000000595364
  0
CIRCLE
  8
Default
 10
-393.500000975
 20
370.0
 30
0.0
 40
11.0000000595364
  0
CIRCLE
  8
Default
 10
-393.500000975
 20
407.0
 30
0.0
 40
11.0000000595364
  0
CIRCLE
  8
Default
 10
-393.500000975
 20
444.0
 30
0.0
 40
11.0000000595364
  0
CIRCLE
  8
Default
 10
-393.500000975
 20
481.0
 30
0.0
 40
11.0000000595364
  0
CIRCLE
  8
Default
 10
-393.500000975
 20
518.0
 30
0.0
 40
11.0000000595364
  0
CIRCLE
  8
Default
 10
-393.500000975
 20
555.0
 30
0.0
 40
11.0000000595364
  0
CIRCLE
  8
Default
 10
-393.500000975
 20
592.0
 30
0.0
 40
11.0000000595364
  0
CIRCLE
  8
Default
 10
-393.500000975
 20
629.0
 30
0.0
 40
11.0000000595364
  0
CIRCLE
  8
Default
 10
-393.500000975
 20
666.0
 30
0.0
 40
11.0000000595364
  0
CIRCLE
  8
Default
 10
-393.500000975
 20
703.0
 30
0.0
 40
11.0000000595364
  0
CIRCLE
  8
Default
 10
-393.500000975
 20
740.0
 30
0.0
 40
11.0000000595364
  0
CIRCLE
  8
Default
 10
-393.500000975
 20
777.0
 30
0.0
 40
11.0000000595364
  0
CIRCLE
  8
Default
 10
-393.500000975
 20
814.0
 30
0.0
 40
11.0000000595364
  0
CIRCLE
  8
Default
 10
-393.500000975
 20
851.0
 30
0.0
 40
11.0000000595364
  0
CIRCLE
  8
Default
 10
-393.500000975
 20
888.0
 30
0.0
 40
11.0000000595364
  0
CIRCLE
  8
Default
 10
-393.500000975
 20
925.0
 30
0.0
 40
11.0000000595364
  0
CIRCLE
  8
Default
 10
-393.500000975
 20
962.0
 30
0.0
 40
11.0000000595364
  0
CIRCLE
  8
Default
 10
-357.500000975
 20
-943.0
 30
0.0
 40
11.0000000595364
  0
CIRCLE
  8
Default
 10
-357.500000975
 20
-906.0
 30
0.0
 40
11.0000000595364
  0
CIRCLE
  8
Default
 10
-357.500000975
 20
-869.0
 30
0.0
 40
11.0000000595364
  0
CIRCLE
  8
Default
 10
-357.500000975
 20
-832.0
 30
0.0
 40
11.0000000595364
  0
CIRCLE
  8
Default
 10
-357.500000975
 20
-795.0
 30
0.0
 40
11.0000000595364
  0
CIRCLE
  8
Default
 10
-357.500000975
 20
-758.0
 30
0.0
 40
11.0000000595364
  0
CIRCLE
  8
Default
 10
-357.500000975
 20
-721.0
 30
0.0
 40
11.0000000595364
  0
CIRCLE
  8
Default
 10
-357.500000975
 20
-684.0
 30
0.0
 40
11.0000000595364
  0
CIRCLE
  8
Default
 10
-357.500000975
 20
-647.0
 30
0.0
 40
11.0000000595364
  0
CIRCLE
  8
Default
 10
-357.500000975
 20
-610.0
 30
0.0
 40
11.0000000595364
  0
CIRCLE
  8
Default
 10
-357.500000975
 20
-573.0
 30
0.0
 40
11.0000000595364
  0
CIRCLE
  8
Default
 10
-357.500000975
 20
-536.0
 30
0.0
 40
11.0000000595364
  0
CIRCLE
  8
Default
 10
-357.500000975
 20
-499.0
 30
0.0
 40
11.0000000595364
  0
CIRCLE
  8
Default
 10
-357.500000975
 20
-462.0
 30
0.0
 40
11.0000000595364
  0
CIRCLE
  8
Default
 10
-357.500000975
 20
-425.0
 30
0.0
 40
11.0000000595364
  0
CIRCLE
  8
Default
 10
-357.500000975
 20
-388.0
 30
0.0
 40
11.0000000595364
  0
CIRCLE
  8
Default
 10
-357.500000975
 20
-351.0
 30
0.0
 40
11.0000000595364
  0
CIRCLE
  8
Default
 10
-357.500000975
 20
-314.0
 30
0.0
 40
11.0000000595364
  0
CIRCLE
  8
Default
 10
-357.500000975
 20
-277.0
 30
0.0
 40
11.0000000595364
  0
CIRCLE
  8
Default
 10
-357.500000975
 20
-240.0
 30
0.0
 40
11.0000000595364
  0
CIRCLE
  8
Default
 10
-357.500000975
 20
-203.0
 30
0.0
 40
11.0000000595364
  0
CIRCLE
  8
Default
 10
-357.500000975
 20
-166.0
 30
0.0
 40
11.0000000595364
  0
CIRCLE
  8
Default
 10
-357.500000975
 20
-129.0
 30
0.0
 40
11.0000000595364
  0
CIRCLE
  8
Default
 10
-357.500000975
 20
-92.0
 30
0.0
 40
11.0000000595364
  0
CIRCLE
  8
Default
 10
-357.500000975
 20
-55.0
 30
0.0
 40
11.0000000595364
  0
CIRCLE
  8
Default
 10
-357.500000975
 20
-18.0
 30
0.0
 40
11.0000000595364
  0
CIRCLE
  8
Default
 10
-357.500000975
 20
19.0
 30
0.0
 40
11.0000000595364
  0
CIRCLE
  8
Default
 10
-357.500000975
 20
56.0
 30
0.0
 40
11.0000000595364
  0
CIRCLE
  8
Default
 10
-357.500000975
 20
93.0
 30
0.0
 40
11.0000000595364
  0
CIRCLE
  8
Default
 10
-357.500000975
 20
130.0
 30
0.0
 40
11.0000000595364
  0
CIRCLE
  8
Default
 10
-357.500000975
 20
167.0
 30
0.0
 40
11.0000000595364
  0
CIRCLE
  8
Default
 10
-357.500000975
 20
204.0
 30
0.0
 40
11.0000000595364
  0
CIRCLE
  8
Default
 10
-357.500000975
 20
241.0
 30
0.0
 40
11.0000000595364
  0
CIRCLE
  8
Default
 10
-357.500000975
 20
278.0
 30
0.0
 40
11.0000000595364
  0
CIRCLE
  8
Default
 10
-357.500000975
 20
315.0
 30
0.0
 40
11.0000000595364
  0
CIRCLE
  8
Default
 10
-357.500000975
 20
352.0
 30
0.0
 40
11.0000000595364
  0
CIRCLE
  8
Default
 10
-357.500000975
 20
389.0
 30
0.0
 40
11.0000000595364
  0
CIRCLE
  8
Default
 10
-357.500000975
 20
426.0
 30
0.0
 40
11.0000000595364
  0
CIRCLE
  8
Default
 10
-357.500000975
 20
463.0
 30
0.0
 40
11.0000000595364
  0
CIRCLE
  8
Default
 10
-357.500000975
 20
500.0
 30
0.0
 40
11.0000000595364
  0
CIRCLE
  8
Default
 10
-357.500000975
 20
537.0
 30
0.0
 40
11.0000000595364
  0
CIRCLE
  8
Default
 10
-357.500000975
 20
574.0
 30
0.0
 40
11.0000000595364
  0
CIRCLE
  8
Default
 10
-357.500000975
 20
611.0
 30
0.0
 40
11.0000000595364
  0
CIRCLE
  8
Default
 10
-357.500000975
 20
648.0
 30
0.0
 40
11.0000000595364
  0
CIRCLE
  8
Default
 10
-357.500000975
 20
685.0
 30
0.0
 40
11.0000000595364
  0
CIRCLE
  8
Default
 10
-357.500000975
 20
722.0
 30
0.0
 40
11.0000000595364
  0
CIRCLE
  8
Default
 10
-357.500000975
 20
759.0
 30
0.0
 40
11.0000000595364
  0
CIRCLE
  8
Default
 10
-357.500000975
 20
796.0
 30
0.0
 40
11.0000000595364
  0
CIRCLE
  8
Default
 10
-357.500000975
 20
833.0
 30
0.0
 40
11.0000000595364
  0
CIRCLE
  8
Default
 10
-357.500000975
 20
870.0
 30
0.0
 40
11.0000000595364
  0
CIRCLE
  8
Default
 10
-357.500000975
 20
907.0
 30
0.0
 40
11.0000000595364
  0
CIRCLE
  8
Default
 10
-357.500000975
 20
944.0
 30
0.0
 40
11.0000000595364
  0
CIRCLE
  8
Default
 10
-321.500000975
 20
-962.0
 30
0.0
 40
11.0000000595364
  0
CIRCLE
  8
Default
 10
-321.500000975
 20
-925.0
 30
0.0
 40
11.0000000595364
  0
CIRCLE
  8
Default
 10
-321.500000975
 20
-888.0
 30
0.0
 40
11.0000000595364
  0
CIRCLE
  8
Default
 10
-321.500000975
 20
-851.0
 30
0.0
 40
11.0000000595364
  0
CIRCLE
  8
Default
 10
-321.500000975
 20
-814.0
 30
0.0
 40
11.0000000595364
  0
CIRCLE
  8
Default
 10
-321.500000975
 20
-777.0
 30
0.0
 40
11.0000000595364
  0
CIRCLE
  8
Default
 10
-321.500000975
 20
-740.0
 30
0.0
 40
11.0000000595364
  0
CIRCLE
  8
Default
 10
-321.500000975
 20
-703.0
 30
0.0
 40
11.0000000595364
  0
CIRCLE
  8
Default
 10
-321.500000975
 20
-666.0
 30
0.0
 40
11.0000000595364
  0
CIRCLE
  8
Default
 10
-321.500000975
 20
-629.0
 30
0.0
 40
11.0000000595364
  0
CIRCLE
  8
Default
 10
-321.500000975
 20
-592.0
 30
0.0
 40
11.0000000595364
  0
CIRCLE
  8
Default
 10
-321.500000975
 20
-555.0
 30
0.0
 40
11.0000000595364
  0
CIRCLE
  8
Default
 10
-321.500000975
 20
-518.0
 30
0.0
 40
11.0000000595364
  0
CIRCLE
  8
Default
 10
-321.500000975
 20
-481.0
 30
0.0
 40
11.0000000595364
  0
CIRCLE
  8
Default
 10
-321.500000975
 20
-444.0
 30
0.0
 40
11.0000000595364
  0
CIRCLE
  8
Default
 10
-321.500000975
 20
-407.0
 30
0.0
 40
11.0000000595364
  0
CIRCLE
  8
Default
 10
-321.500000975
 20
-370.0
 30
0.0
 40
11.0000000595364
  0
CIRCLE
  8
Default
 10
-321.500000975
 20
-333.0
 30
0.0
 40
11.0000000595364
  0
CIRCLE
  8
Default
 10
-321.500000975
 20
-296.0
 30
0.0
 40
11.0000000595364
  0
CIRCLE
  8
Default
 10
-321.500000975
 20
-259.0
 30
0.0
 40
11.0000000595364
  0
CIRCLE
  8
Default
 10
-321.500000975
 20
-222.0
 30
0.0
 40
11.0000000595364
  0
CIRCLE
  8
Default
 10
-321.500000975
 20
-185.0
 30
0.0
 40
11.0000000595364
  0
CIRCLE
  8
Default
 10
-321.500000975
 20
-148.0
 30
0.0
 40
11.0000000595364
  0
CIRCLE
  8
Default
 10
-321.500000975
 20
-111.0
 30
0.0
 40
11.0000000595364
  0
CIRCLE
  8
Default
 10
-321.500000975
 20
-74.0
 30
0.0
 40
11.0000000595364
  0
CIRCLE
  8
Default
 10
-321.500000975
 20
-37.0
 30
0.0
 40
11.0000000595364
  0
CIRCLE
  8
Default
 10
-321.500000975
 20
0.0
 30
0.0
 40
11.0000000595364
  0
CIRCLE
  8
Default
 10
-321.500000975
 20
37.0
 30
0.0
 40
11.0000000595364
  0
CIRCLE
  8
Default
 10
-321.500000975
 20
74.0
 30
0.0
 40
11.0000000595364
  0
CIRCLE
  8
Default
 10
-321.500000975
 20
111.0
 30
0.0
 40
11.0000000595364
  0
CIRCLE
  8
Default
 10
-321.500000975
 20
148.0
 30
0.0
 40
11.0000000595364
  0
CIRCLE
  8
Default
 10
-321.500000975
 20
185.0
 30
0.0
 40
11.0000000595364
  0
CIRCLE
  8
Default
 10
-321.500000975
 20
222.0
 30
0.0
 40
11.0000000595364
  0
CIRCLE
  8
Default
 10
-321.500000975
 20
259.0
 30
0.0
 40
11.0000000595364
  0
CIRCLE
  8
Default
 10
-321.500000975
 20
296.0
 30
0.0
 40
11.0000000595364
  0
CIRCLE
  8
Default
 10
-321.500000975
 20
333.0
 30
0.0
 40
11.0000000595364
  0
CIRCLE
  8
Default
 10
-321.500000975
 20
370.0
 30
0.0
 40
11.0000000595364
  0
CIRCLE
  8
Default
 10
-321.500000975
 20
407.0
 30
0.0
 40
11.0000000595364
  0
CIRCLE
  8
Default
 10
-321.500000975
 20
444.0
 30
0.0
 40
11.0000000595364
  0
CIRCLE
  8
Default
 10
-321.500000975
 20
481.0
 30
0.0
 40
11.0000000595364
  0
CIRCLE
  8
Default
 10
-321.500000975
 20
518.0
 30
0.0
 40
11.0000000595364
  0
CIRCLE
  8
Default
 10
-321.500000975
 20
555.0
 30
0.0
 40
11.0000000595364
  0
CIRCLE
  8
Default
 10
-321.500000975
 20
592.0
 30
0.0
 40
11.0000000595364
  0
CIRCLE
  8
Default
 10
-321.500000975
 20
629.0
 30
0.0
 40
11.0000000595364
  0
CIRCLE
  8
Default
 10
-321.500000975
 20
666.0
 30
0.0
 40
11.0000000595364
  0
CIRCLE
  8
Default
 10
-321.500000975
 20
703.0
 30
0.0
 40
11.0000000595364
  0
CIRCLE
  8
Default
 10
-321.500000975
 20
740.0
 30
0.0
 40
11.0000000595364
  0
CIRCLE
  8
Default
 10
-321.500000975
 20
777.0
 30
0.0
 40
11.0000000595364
  0
CIRCLE
  8
Default
 10
-321.500000975
 20
814.0
 30
0.0
 40
11.0000000595364
  0
CIRCLE
  8
Default
 10
-321.500000975
 20
851.0
 30
0.0
 40
11.0000000595364
  0
CIRCLE
  8
Default
 10
-321.500000975
 20
888.0
 30
0.0
 40
11.0000000595364
  0
CIRCLE
  8
Default
 10
-321.500000975
 20
925.0
 30
0.0
 40
11.0000000595364
  0
CIRCLE
  8
Default
 10
-321.500000975
 20
962.0
 30
0.0
 40
11.0000000595364
  0
CIRCLE
  8
Default
 10
-285.500000975
 20
-943.0
 30
0.0
 40
11.0000000595364
  0
CIRCLE
  8
Default
 10
-285.500000975
 20
-906.0
 30
0.0
 40
11.0000000595364
  0
CIRCLE
  8
Default
 10
-285.500000975
 20
-869.0
 30
0.0
 40
11.0000000595364
  0
CIRCLE
  8
Default
 10
-285.500000975
 20
-832.0
 30
0.0
 40
11.0000000595364
  0
CIRCLE
  8
Default
 10
-285.500000975
 20
-795.0
 30
0.0
 40
11.0000000595364
  0
CIRCLE
  8
Default
 10
-285.500000975
 20
-758.0
 30
0.0
 40
11.0000000595364
  0
CIRCLE
  8
Default
 10
-285.500000975
 20
-721.0
 30
0.0
 40
11.0000000595364
  0
CIRCLE
  8
Default
 10
-285.500000975
 20
-684.0
 30
0.0
 40
11.0000000595364
  0
CIRCLE
  8
Default
 10
-285.500000975
 20
-647.0
 30
0.0
 40
11.0000000595364
  0
CIRCLE
  8
Default
 10
-285.500000975
 20
-610.0
 30
0.0
 40
11.0000000595364
  0
CIRCLE
  8
Default
 10
-285.500000975
 20
-573.0
 30
0.0
 40
11.0000000595364
  0
CIRCLE
  8
Default
 10
-285.500000975
 20
-536.0
 30
0.0
 40
11.0000000595364
  0
CIRCLE
  8
Default
 10
-285.500000975
 20
-499.0
 30
0.0
 40
11.0000000595364
  0
CIRCLE
  8
Default
 10
-285.500000975
 20
-462.0
 30
0.0
 40
11.0000000595364
  0
CIRCLE
  8
Default
 10
-285.500000975
 20
-425.0
 30
0.0
 40
11.0000000595364
  0
CIRCLE
  8
Default
 10
-285.500000975
 20
-388.0
 30
0.0
 40
11.0000000595364
  0
CIRCLE
  8
Default
 10
-285.500000975
 20
-351.0
 30
0.0
 40
11.0000000595364
  0
CIRCLE
  8
Default
 10
-285.500000975
 20
-314.0
 30
0.0
 40
11.0000000595364
  0
CIRCLE
  8
Default
 10
-285.500000975
 20
-277.0
 30
0.0
 40
11.0000000595364
  0
CIRCLE
  8
Default
 10
-285.500000975
 20
-240.0
 30
0.0
 40
11.0000000595364
  0
CIRCLE
  8
Default
 10
-285.500000975
 20
-203.0
 30
0.0
 40
11.0000000595364
  0
CIRCLE
  8
Default
 10
-285.500000975
 20
-166.0
 30
0.0
 40
11.0000000595364
  0
CIRCLE
  8
Default
 10
-285.500000975
 20
-129.0
 30
0.0
 40
11.0000000595364
  0
CIRCLE
  8
Default
 10
-285.500000975
 20
-92.0
 30
0.0
 40
11.0000000595364
  0
CIRCLE
  8
Default
 10
-285.500000975
 20
-55.0
 30
0.0
 40
11.0000000595364
  0
CIRCLE
  8
Default
 10
-285.500000975
 20
-18.0
 30
0.0
 40
11.0000000595364
  0
CIRCLE
  8
Default
 10
-285.500000975
 20
19.0
 30
0.0
 40
11.0000000595364
  0
CIRCLE
  8
Default
 10
-285.500000975
 20
56.0
 30
0.0
 40
11.0000000595364
  0
CIRCLE
  8
Default
 10
-285.500000975
 20
93.0
 30
0.0
 40
11.0000000595364
  0
CIRCLE
  8
Default
 10
-285.500000975
 20
130.0
 30
0.0
 40
11.0000000595364
  0
CIRCLE
  8
Default
 10
-285.500000975
 20
167.0
 30
0.0
 40
11.0000000595364
  0
CIRCLE
  8
Default
 10
-285.500000975
 20
204.0
 30
0.0
 40
11.0000000595364
  0
CIRCLE
  8
Default
 10
-285.500000975
 20
241.0
 30
0.0
 40
11.0000000595364
  0
CIRCLE
  8
Default
 10
-285.500000975
 20
278.0
 30
0.0
 40
11.0000000595364
  0
CIRCLE
  8
Default
 10
-285.500000975
 20
315.0
 30
0.0
 40
11.0000000595364
  0
CIRCLE
  8
Default
 10
-285.500000975
 20
352.0
 30
0.0
 40
11.0000000595364
  0
CIRCLE
  8
Default
 10
-285.500000975
 20
389.0
 30
0.0
 40
11.0000000595364
  0
CIRCLE
  8
Default
 10
-285.500000975
 20
426.0
 30
0.0
 40
11.0000000595364
  0
CIRCLE
  8
Default
 10
-285.500000975
 20
463.0
 30
0.0
 40
11.0000000595364
  0
CIRCLE
  8
Default
 10
-285.500000975
 20
500.0
 30
0.0
 40
11.0000000595364
  0
CIRCLE
  8
Default
 10
-285.500000975
 20
537.0
 30
0.0
 40
11.0000000595364
  0
CIRCLE
  8
Default
 10
-285.500000975
 20
574.0
 30
0.0
 40
11.0000000595364
  0
CIRCLE
  8
Default
 10
-285.500000975
 20
611.0
 30
0.0
 40
11.0000000595364
  0
CIRCLE
  8
Default
 10
-285.500000975
 20
648.0
 30
0.0
 40
11.0000000595364
  0
CIRCLE
  8
Default
 10
-285.500000975
 20
685.0
 30
0.0
 40
11.0000000595364
  0
CIRCLE
  8
Default
 10
-285.500000975
 20
722.0
 30
0.0
 40
11.0000000595364
  0
CIRCLE
  8
Default
 10
-285.500000975
 20
759.0
 30
0.0
 40
11.0000000595364
  0
CIRCLE
  8
Default
 10
-285.500000975
 20
796.0
 30
0.0
 40
11.0000000595364
  0
CIRCLE
  8
Default
 10
-285.500000975
 20
833.0
 30
0.0
 40
11.0000000595364
  0
CIRCLE
  8
Default
 10
-285.500000975
 20
870.0
 30
0.0
 40
11.0000000595364
  0
CIRCLE
  8
Default
 10
-285.500000975
 20
907.0
 30
0.0
 40
11.0000000595364
  0
CIRCLE
  8
Default
 10
-285.500000975
 20
944.0
 30
0.0
 40
11.0000000595364
  0
CIRCLE
  8
Default
 10
-214.500000325
 20
-962.0
 30
0.0
 40
11.0000000595364
  0
CIRCLE
  8
Default
 10
-214.500000325
 20
-925.0
 30
0.0
 40
11.0000000595364
  0
CIRCLE
  8
Default
 10
-214.500000325
 20
-888.0
 30
0.0
 40
11.0000000595364
  0
CIRCLE
  8
Default
 10
-214.500000325
 20
-851.0
 30
0.0
 40
11.0000000595364
  0
CIRCLE
  8
Default
 10
-214.500000325
 20
-814.0
 30
0.0
 40
11.0000000595364
  0
CIRCLE
  8
Default
 10
-214.500000325
 20
-777.0
 30
0.0
 40
11.0000000595364
  0
CIRCLE
  8
Default
 10
-214.500000325
 20
-740.0
 30
0.0
 40
11.0000000595364
  0
CIRCLE
  8
Default
 10
-214.500000325
 20
-703.0
 30
0.0
 40
11.0000000595364
  0
CIRCLE
  8
Default
 10
-214.500000325
 20
-666.0
 30
0.0
 40
11.0000000595364
  0
CIRCLE
  8
Default
 10
-214.500000325
 20
-629.0
 30
0.0
 40
11.0000000595364
  0
CIRCLE
  8
Default
 10
-214.500000325
 20
-592.0
 30
0.0
 40
11.0000000595364
  0
CIRCLE
  8
Default
 10
-214.500000325
 20
-555.0
 30
0.0
 40
11.0000000595364
  0
CIRCLE
  8
Default
 10
-214.500000325
 20
-518.0
 30
0.0
 40
11.0000000595364
  0
CIRCLE
  8
Default
 10
-214.500000325
 20
-481.0
 30
0.0
 40
11.0000000595364
  0
CIRCLE
  8
Default
 10
-214.500000325
 20
-444.0
 30
0.0
 40
11.0000000595364
  0
CIRCLE
  8
Default
 10
-214.500000325
 20
-407.0
 30
0.0
 40
11.0000000595364
  0
CIRCLE
  8
Default
 10
-214.500000325
 20
-370.0
 30
0.0
 40
11.0000000595364
  0
CIRCLE
  8
Default
 10
-214.500000325
 20
-333.0
 30
0.0
 40
11.0000000595364
  0
CIRCLE
  8
Default
 10
-214.500000325
 20
-296.0
 30
0.0
 40
11.0000000595364
  0
CIRCLE
  8
Default
 10
-214.500000325
 20
-259.0
 30
0.0
 40
11.0000000595364
  0
CIRCLE
  8
Default
 10
-214.500000325
 20
-222.0
 30
0.0
 40
11.0000000595364
  0
CIRCLE
  8
Default
 10
-214.500000325
 20
-185.0
 30
0.0
 40
11.0000000595364
  0
CIRCLE
  8
Default
 10
-214.500000325
 20
-148.0
 30
0.0
 40
11.0000000595364
  0
CIRCLE
  8
Default
 10
-214.500000325
 20
-111.0
 30
0.0
 40
11.0000000595364
  0
CIRCLE
  8
Default
 10
-214.500000325
 20
-74.0
 30
0.0
 40
11.0000000595364
  0
CIRCLE
  8
Default
 10
-214.500000325
 20
-37.0
 30
0.0
 40
11.0000000595364
  0
CIRCLE
  8
Default
 10
-214.500000325
 20
0.0
 30
0.0
 40
11.0000000595364
  0
CIRCLE
  8
Default
 10
-214.500000325
 20
37.0
 30
0.0
 40
11.0000000595364
  0
CIRCLE
  8
Default
 10
-214.500000325
 20
74.0
 30
0.0
 40
11.0000000595364
  0
CIRCLE
  8
Default
 10
-214.500000325
 20
111.0
 30
0.0
 40
11.0000000595364
  0
CIRCLE
  8
Default
 10
-214.500000325
 20
148.0
 30
0.0
 40
11.0000000595364
  0
CIRCLE
  8
Default
 10
-214.500000325
 20
185.0
 30
0.0
 40
11.0000000595364
  0
CIRCLE
  8
Default
 10
-214.500000325
 20
222.0
 30
0.0
 40
11.0000000595364
  0
CIRCLE
  8
Default
 10
-214.500000325
 20
259.0
 30
0.0
 40
11.0000000595364
  0
CIRCLE
  8
Default
 10
-214.500000325
 20
296.0
 30
0.0
 40
11.0000000595364
  0
CIRCLE
  8
Default
 10
-214.500000325
 20
333.0
 30
0.0
 40
11.0000000595364
  0
CIRCLE
  8
Default
 10
-214.500000325
 20
370.0
 30
0.0
 40
11.0000000595364
  0
CIRCLE
  8
Default
 10
-214.500000325
 20
407.0
 30
0.0
 40
11.0000000595364
  0
CIRCLE
  8
Default
 10
-214.500000325
 20
444.0
 30
0.0
 40
11.0000000595364
  0
CIRCLE
  8
Default
 10
-214.500000325
 20
481.0
 30
0.0
 40
11.0000000595364
  0
CIRCLE
  8
Default
 10
-214.500000325
 20
518.0
 30
0.0
 40
11.0000000595364
  0
CIRCLE
  8
Default
 10
-214.500000325
 20
555.0
 30
0.0
 40
11.0000000595364
  0
CIRCLE
  8
Default
 10
-214.500000325
 20
592.0
 30
0.0
 40
11.0000000595364
  0
CIRCLE
  8
Default
 10
-214.500000325
 20
629.0
 30
0.0
 40
11.0000000595364
  0
CIRCLE
  8
Default
 10
-214.500000325
 20
666.0
 30
0.0
 40
11.0000000595364
  0
CIRCLE
  8
Default
 10
-214.500000325
 20
703.0
 30
0.0
 40
11.0000000595364
  0
CIRCLE
  8
Default
 10
-214.500000325
 20
740.0
 30
0.0
 40
11.0000000595364
  0
CIRCLE
  8
Default
 10
-214.500000325
 20
777.0
 30
0.0
 40
11.0000000595364
  0
CIRCLE
  8
Default
 10
-214.500000325
 20
814.0
 30
0.0
 40
11.0000000595364
  0
CIRCLE
  8
Default
 10
-214.500000325
 20
851.0
 30
0.0
 40
11.0000000595364
  0
CIRCLE
  8
Default
 10
-214.500000325
 20
888.0
 30
0.0
 40
11.0000000595364
  0
CIRCLE
  8
Default
 10
-214.500000325
 20
925.0
 30
0.0
 40
11.0000000595364
  0
CIRCLE
  8
Default
 10
-214.500000325
 20
962.0
 30
0.0
 40
11.0000000595364
  0
CIRCLE
  8
Default
 10
-178.500000325
 20
-943.0
 30
0.0
 40
11.0000000595364
  0
CIRCLE
  8
Default
 10
-178.500000325
 20
-906.0
 30
0.0
 40
11.0000000595364
  0
CIRCLE
  8
Default
 10
-178.500000325
 20
-869.0
 30
0.0
 40
11.0000000595364
  0
CIRCLE
  8
Default
 10
-178.500000325
 20
-832.0
 30
0.0
 40
11.0000000595364
  0
CIRCLE
  8
Default
 10
-178.500000325
 20
-795.0
 30
0.0
 40
11.0000000595364
  0
CIRCLE
  8
Default
 10
-178.500000325
 20
-758.0
 30
0.0
 40
11.0000000595364
  0
CIRCLE
  8
Default
 10
-178.500000325
 20
-721.0
 30
0.0
 40
11.0000000595364
  0
CIRCLE
  8
Default
 10
-178.500000325
 20
-684.0
 30
0.0
 40
11.0000000595364
  0
CIRCLE
  8
Default
 10
-178.500000325
 20
-647.0
 30
0.0
 40
11.0000000595364
  0
CIRCLE
  8
Default
 10
-178.500000325
 20
-610.0
 30
0.0
 40
11.0000000595364
  0
CIRCLE
  8
Default
 10
-178.500000325
 20
-573.0
 30
0.0
 40
11.0000000595364
  0
CIRCLE
  8
Default
 10
-178.500000325
 20
-536.0
 30
0.0
 40
11.0000000595364
  0
CIRCLE
  8
Default
 10
-178.500000325
 20
-499.0
 30
0.0
 40
11.0000000595364
  0
CIRCLE
  8
Default
 10
-178.500000325
 20
-462.0
 30
0.0
 40
11.0000000595364
  0
CIRCLE
  8
Default
 10
-178.500000325
 20
-425.0
 30
0.0
 40
11.0000000595364
  0
CIRCLE
  8
Default
 10
-178.500000325
 20
-388.0
 30
0.0
 40
11.0000000595364
  0
CIRCLE
  8
Default
 10
-178.500000325
 20
-351.0
 30
0.0
 40
11.0000000595364
  0
CIRCLE
  8
Default
 10
-178.500000325
 20
-314.0
 30
0.0
 40
11.0000000595364
  0
CIRCLE
  8
Default
 10
-178.500000325
 20
-277.0
 30
0.0
 40
11.0000000595364
  0
CIRCLE
  8
Default
 10
-178.500000325
 20
-240.0
 30
0.0
 40
11.0000000595364
  0
CIRCLE
  8
Default
 10
-178.500000325
 20
-203.0
 30
0.0
 40
11.0000000595364
  0
CIRCLE
  8
Default
 10
-178.500000325
 20
-166.0
 30
0.0
 40
11.0000000595364
  0
CIRCLE
  8
Default
 10
-178.500000325
 20
-129.0
 30
0.0
 40
11.0000000595364
  0
CIRCLE
  8
Default
 10
-178.500000325
 20
-92.0
 30
0.0
 40
11.0000000595364
  0
CIRCLE
  8
Default
 10
-178.500000325
 20
-55.0
 30
0.0
 40
11.0000000595364
  0
CIRCLE
  8
Default
 10
-178.500000325
 20
-18.0
 30
0.0
 40
11.0000000595364
  0
CIRCLE
  8
Default
 10
-178.500000325
 20
19.0
 30
0.0
 40
11.0000000595364
  0
CIRCLE
  8
Default
 10
-178.500000325
 20
56.0
 30
0.0
 40
11.0000000595364
  0
CIRCLE
  8
Default
 10
-178.500000325
 20
93.0
 30
0.0
 40
11.0000000595364
  0
CIRCLE
  8
Default
 10
-178.500000325
 20
130.0
 30
0.0
 40
11.0000000595364
  0
CIRCLE
  8
Default
 10
-178.500000325
 20
167.0
 30
0.0
 40
11.0000000595364
  0
CIRCLE
  8
Default
 10
-178.500000325
 20
204.0
 30
0.0
 40
11.0000000595364
  0
CIRCLE
  8
Default
 10
-178.500000325
 20
241.0
 30
0.0
 40
11.0000000595364
  0
CIRCLE
  8
Default
 10
-178.500000325
 20
278.0
 30
0.0
 40
11.0000000595364
  0
CIRCLE
  8
Default
 10
-178.500000325
 20
315.0
 30
0.0
 40
11.0000000595364
  0
CIRCLE
  8
Default
 10
-178.500000325
 20
352.0
 30
0.0
 40
11.0000000595364
  0
CIRCLE
  8
Default
 10
-178.500000325
 20
389.0
 30
0.0
 40
11.0000000595364
  0
CIRCLE
  8
Default
 10
-178.500000325
 20
426.0
 30
0.0
 40
11.0000000595364
  0
CIRCLE
  8
Default
 10
-178.500000325
 20
463.0
 30
0.0
 40
11.0000000595364
  0
CIRCLE
  8
Default
 10
-178.500000325
 20
500.0
 30
0.0
 40
11.0000000595364
  0
CIRCLE
  8
Default
 10
-178.500000325
 20
537.0
 30
0.0
 40
11.0000000595364
  0
CIRCLE
  8
Default
 10
-178.500000325
 20
574.0
 30
0.0
 40
11.0000000595364
  0
CIRCLE
  8
Default
 10
-178.500000325
 20
611.0
 30
0.0
 40
11.0000000595364
  0
CIRCLE
  8
Default
 10
-178.500000325
 20
648.0
 30
0.0
 40
11.0000000595364
  0
CIRCLE
  8
Default
 10
-178.500000325
 20
685.0
 30
0.0
 40
11.0000000595364
  0
CIRCLE
  8
Default
 10
-178.500000325
 20
722.0
 30
0.0
 40
11.0000000595364
  0
CIRCLE
  8
Default
 10
-178.500000325
 20
759.0
 30
0.0
 40
11.0000000595364
  0
CIRCLE
  8
Default
 10
-178.500000325
 20
796.0
 30
0.0
 40
11.0000000595364
  0
CIRCLE
  8
Default
 10
-178.500000325
 20
833.0
 30
0.0
 40
11.0000000595364
  0
CIRCLE
  8
Default
 10
-178.500000325
 20
870.0
 30
0.0
 40
11.0000000595364
  0
CIRCLE
  8
Default
 10
-178.500000325
 20
907.0
 30
0.0
 40
11.0000000595364
  0
CIRCLE
  8
Default
 10
-178.500000325
 20
944.0
 30
0.0
 40
11.0000000595364
  0
CIRCLE
  8
Default
 10
-143.500000325
 20
-962.0
 30
0.0
 40
11.0000000595364
  0
CIRCLE
  8
Default
 10
-143.500000325
 20
-925.0
 30
0.0
 40
11.0000000595364
  0
CIRCLE
  8
Default
 10
-143.500000325
 20
-888.0
 30
0.0
 40
11.0000000595364
  0
CIRCLE
  8
Default
 10
-143.500000325
 20
-851.0
 30
0.0
 40
11.0000000595364
  0
CIRCLE
  8
Default
 10
-143.500000325
 20
-814.0
 30
0.0
 40
11.0000000595364
  0
CIRCLE
  8
Default
 10
-143.500000325
 20
-777.0
 30
0.0
 40
11.0000000595364
  0
CIRCLE
  8
Default
 10
-143.500000325
 20
-740.0
 30
0.0
 40
11.0000000595364
  0
CIRCLE
  8
Default
 10
-143.500000325
 20
-703.0
 30
0.0
 40
11.0000000595364
  0
CIRCLE
  8
Default
 10
-143.500000325
 20
-666.0
 30
0.0
 40
11.0000000595364
  0
CIRCLE
  8
Default
 10
-143.500000325
 20
-629.0
 30
0.0
 40
11.0000000595364
  0
CIRCLE
  8
Default
 10
-143.500000325
 20
-592.0
 30
0.0
 40
11.0000000595364
  0
CIRCLE
  8
Default
 10
-143.500000325
 20
-555.0
 30
0.0
 40
11.0000000595364
  0
CIRCLE
  8
Default
 10
-143.500000325
 20
-518.0
 30
0.0
 40
11.0000000595364
  0
CIRCLE
  8
Default
 10
-143.500000325
 20
-481.0
 30
0.0
 40
11.0000000595364
  0
CIRCLE
  8
Default
 10
-143.500000325
 20
-444.0
 30
0.0
 40
11.0000000595364
  0
CIRCLE
  8
Default
 10
-143.500000325
 20
-407.0
 30
0.0
 40
11.0000000595364
  0
CIRCLE
  8
Default
 10
-143.500000325
 20
-370.0
 30
0.0
 40
11.0000000595364
  0
CIRCLE
  8
Default
 10
-143.500000325
 20
-333.0
 30
0.0
 40
11.0000000595364
  0
CIRCLE
  8
Default
 10
-143.500000325
 20
-296.0
 30
0.0
 40
11.0000000595364
  0
CIRCLE
  8
Default
 10
-143.500000325
 20
-259.0
 30
0.0
 40
11.0000000595364
  0
CIRCLE
  8
Default
 10
-143.500000325
 20
-222.0
 30
0.0
 40
11.0000000595364
  0
CIRCLE
  8
Default
 10
-143.500000325
 20
-185.0
 30
0.0
 40
11.0000000595364
  0
CIRCLE
  8
Default
 10
-143.500000325
 20
-148.0
 30
0.0
 40
11.0000000595364
  0
CIRCLE
  8
Default
 10
-143.500000325
 20
-111.0
 30
0.0
 40
11.0000000595364
  0
CIRCLE
  8
Default
 10
-143.500000325
 20
-74.0
 30
0.0
 40
11.0000000595364
  0
CIRCLE
  8
Default
 10
-143.500000325
 20
-37.0
 30
0.0
 40
11.0000000595364
  0
CIRCLE
  8
Default
 10
-143.500000325
 20
0.0
 30
0.0
 40
11.0000000595364
  0
CIRCLE
  8
Default
 10
-143.500000325
 20
37.0
 30
0.0
 40
11.0000000595364
  0
CIRCLE
  8
Default
 10
-143.500000325
 20
74.0
 30
0.0
 40
11.0000000595364
  0
CIRCLE
  8
Default
 10
-143.500000325
 20
111.0
 30
0.0
 40
11.0000000595364
  0
CIRCLE
  8
Default
 10
-143.500000325
 20
148.0
 30
0.0
 40
11.0000000595364
  0
CIRCLE
  8
Default
 10
-143.500000325
 20
185.0
 30
0.0
 40
11.0000000595364
  0
CIRCLE
  8
Default
 10
-143.500000325
 20
222.0
 30
0.0
 40
11.0000000595364
  0
CIRCLE
  8
Default
 10
-143.500000325
 20
259.0
 30
0.0
 40
11.0000000595364
  0
CIRCLE
  8
Default
 10
-143.500000325
 20
296.0
 30
0.0
 40
11.0000000595364
  0
CIRCLE
  8
Default
 10
-143.500000325
 20
333.0
 30
0.0
 40
11.0000000595364
  0
CIRCLE
  8
Default
 10
-143.500000325
 20
370.0
 30
0.0
 40
11.0000000595364
  0
CIRCLE
  8
Default
 10
-143.500000325
 20
407.0
 30
0.0
 40
11.0000000595364
  0
CIRCLE
  8
Default
 10
-143.500000325
 20
444.0
 30
0.0
 40
11.0000000595364
  0
CIRCLE
  8
Default
 10
-143.500000325
 20
481.0
 30
0.0
 40
11.0000000595364
  0
CIRCLE
  8
Default
 10
-143.500000325
 20
518.0
 30
0.0
 40
11.0000000595364
  0
CIRCLE
  8
Default
 10
-143.500000325
 20
555.0
 30
0.0
 40
11.0000000595364
  0
CIRCLE
  8
Default
 10
-143.500000325
 20
592.0
 30
0.0
 40
11.0000000595364
  0
CIRCLE
  8
Default
 10
-143.500000325
 20
629.0
 30
0.0
 40
11.0000000595364
  0
CIRCLE
  8
Default
 10
-143.500000325
 20
666.0
 30
0.0
 40
11.0000000595364
  0
CIRCLE
  8
Default
 10
-143.500000325
 20
703.0
 30
0.0
 40
11.0000000595364
  0
CIRCLE
  8
Default
 10
-143.500000325
 20
740.0
 30
0.0
 40
11.0000000595364
  0
CIRCLE
  8
Default
 10
-143.500000325
 20
777.0
 30
0.0
 40
11.0000000595364
  0
CIRCLE
  8
Default
 10
-143.500000325
 20
814.0
 30
0.0
 40
11.0000000595364
  0
CIRCLE
  8
Default
 10
-143.500000325
 20
851.0
 30
0.0
 40
11.0000000595364
  0
CIRCLE
  8
Default
 10
-143.500000325
 20
888.0
 30
0.0
 40
11.0000000595364
  0
CIRCLE
  8
Default
 10
-143.500000325
 20
925.0
 30
0.0
 40
11.0000000595364
  0
CIRCLE
  8
Default
 10
-143.500000325
 20
962.0
 30
0.0
 40
11.0000000595364
  0
CIRCLE
  8
Default
 10
-107.500000325
 20
-943.0
 30
0.0
 40
11.0000000595364
  0
CIRCLE
  8
Default
 10
-107.500000325
 20
-906.0
 30
0.0
 40
11.0000000595364
  0
CIRCLE
  8
Default
 10
-107.500000325
 20
-869.0
 30
0.0
 40
11.0000000595364
  0
CIRCLE
  8
Default
 10
-107.500000325
 20
-832.0
 30
0.0
 40
11.0000000595364
  0
CIRCLE
  8
Default
 10
-107.500000325
 20
-795.0
 30
0.0
 40
11.0000000595364
  0
CIRCLE
  8
Default
 10
-107.500000325
 20
-758.0
 30
0.0
 40
11.0000000595364
  0
CIRCLE
  8
Default
 10
-107.500000325
 20
-721.0
 30
0.0
 40
11.0000000595364
  0
CIRCLE
  8
Default
 10
-107.500000325
 20
-684.0
 30
0.0
 40
11.0000000595364
  0
CIRCLE
  8
Default
 10
-107.500000325
 20
-647.0
 30
0.0
 40
11.0000000595364
  0
CIRCLE
  8
Default
 10
-107.500000325
 20
-610.0
 30
0.0
 40
11.0000000595364
  0
CIRCLE
  8
Default
 10
-107.500000325
 20
-573.0
 30
0.0
 40
11.0000000595364
  0
CIRCLE
  8
Default
 10
-107.500000325
 20
-536.0
 30
0.0
 40
11.0000000595364
  0
CIRCLE
  8
Default
 10
-107.500000325
 20
-499.0
 30
0.0
 40
11.0000000595364
  0
CIRCLE
  8
Default
 10
-107.500000325
 20
-462.0
 30
0.0
 40
11.0000000595364
  0
CIRCLE
  8
Default
 10
-107.500000325
 20
-425.0
 30
0.0
 40
11.0000000595364
  0
CIRCLE
  8
Default
 10
-107.500000325
 20
-388.0
 30
0.0
 40
11.0000000595364
  0
CIRCLE
  8
Default
 10
-107.500000325
 20
-351.0
 30
0.0
 40
11.0000000595364
  0
CIRCLE
  8
Default
 10
-107.500000325
 20
-314.0
 30
0.0
 40
11.0000000595364
  0
CIRCLE
  8
Default
 10
-107.500000325
 20
-277.0
 30
0.0
 40
11.0000000595364
  0
CIRCLE
  8
Default
 10
-107.500000325
 20
-240.0
 30
0.0
 40
11.0000000595364
  0
CIRCLE
  8
Default
 10
-107.500000325
 20
-203.0
 30
0.0
 40
11.0000000595364
  0
CIRCLE
  8
Default
 10
-107.500000325
 20
-166.0
 30
0.0
 40
11.0000000595364
  0
CIRCLE
  8
Default
 10
-107.500000325
 20
-129.0
 30
0.0
 40
11.0000000595364
  0
CIRCLE
  8
Default
 10
-107.500000325
 20
-92.0
 30
0.0
 40
11.0000000595364
  0
CIRCLE
  8
Default
 10
-107.500000325
 20
-55.0
 30
0.0
 40
11.0000000595364
  0
CIRCLE
  8
Default
 10
-107.500000325
 20
-18.0
 30
0.0
 40
11.0000000595364
  0
CIRCLE
  8
Default
 10
-107.500000325
 20
19.0
 30
0.0
 40
11.0000000595364
  0
CIRCLE
  8
Default
 10
-107.500000325
 20
56.0
 30
0.0
 40
11.0000000595364
  0
CIRCLE
  8
Default
 10
-107.500000325
 20
93.0
 30
0.0
 40
11.0000000595364
  0
CIRCLE
  8
Default
 10
-107.500000325
 20
130.0
 30
0.0
 40
11.0000000595364
  0
CIRCLE
  8
Default
 10
-107.500000325
 20
167.0
 30
0.0
 40
11.0000000595364
  0
CIRCLE
  8
Default
 10
-107.500000325
 20
204.0
 30
0.0
 40
11.0000000595364
  0
CIRCLE
  8
Default
 10
-107.500000325
 20
241.0
 30
0.0
 40
11.0000000595364
  0
CIRCLE
  8
Default
 10
-107.500000325
 20
278.0
 30
0.0
 40
11.0000000595364
  0
CIRCLE
  8
Default
 10
-107.500000325
 20
315.0
 30
0.0
 40
11.0000000595364
  0
CIRCLE
  8
Default
 10
-107.500000325
 20
352.0
 30
0.0
 40
11.0000000595364
  0
CIRCLE
  8
Default
 10
-107.500000325
 20
389.0
 30
0.0
 40
11.0000000595364
  0
CIRCLE
  8
Default
 10
-107.500000325
 20
426.0
 30
0.0
 40
11.0000000595364
  0
CIRCLE
  8
Default
 10
-107.500000325
 20
463.0
 30
0.0
 40
11.0000000595364
  0
CIRCLE
  8
Default
 10
-107.500000325
 20
500.0
 30
0.0
 40
11.0000000595364
  0
CIRCLE
  8
Default
 10
-107.500000325
 20
537.0
 30
0.0
 40
11.0000000595364
  0
CIRCLE
  8
Default
 10
-107.500000325
 20
574.0
 30
0.0
 40
11.0000000595364
  0
CIRCLE
  8
Default
 10
-107.500000325
 20
611.0
 30
0.0
 40
11.0000000595364
  0
CIRCLE
  8
Default
 10
-107.500000325
 20
648.0
 30
0.0
 40
11.0000000595364
  0
CIRCLE
  8
Default
 10
-107.500000325
 20
685.0
 30
0.0
 40
11.0000000595364
  0
CIRCLE
  8
Default
 10
-107.500000325
 20
722.0
 30
0.0
 40
11.0000000595364
  0
CIRCLE
  8
Default
 10
-107.500000325
 20
759.0
 30
0.0
 40
11.0000000595364
  0
CIRCLE
  8
Default
 10
-107.500000325
 20
796.0
 30
0.0
 40
11.0000000595364
  0
CIRCLE
  8
Default
 10
-107.500000325
 20
833.0
 30
0.0
 40
11.0000000595364
  0
CIRCLE
  8
Default
 10
-107.500000325
 20
870.0
 30
0.0
 40
11.0000000595364
  0
CIRCLE
  8
Default
 10
-107.500000325
 20
907.0
 30
0.0
 40
11.0000000595364
  0
CIRCLE
  8
Default
 10
-107.500000325
 20
944.0
 30
0.0
 40
11.0000000595364
  0
CIRCLE
  8
Default
 10
-71.500000325
 20
-962.0
 30
0.0
 40
11.0000000595364
  0
CIRCLE
  8
Default
 10
-71.500000325
 20
-925.0
 30
0.0
 40
11.0000000595364
  0
CIRCLE
  8
Default
 10
-71.500000325
 20
-888.0
 30
0.0
 40
11.0000000595364
  0
CIRCLE
  8
Default
 10
-71.500000325
 20
-851.0
 30
0.0
 40
11.0000000595364
  0
CIRCLE
  8
Default
 10
-71.500000325
 20
-814.0
 30
0.0
 40
11.0000000595364
  0
CIRCLE
  8
Default
 10
-71.500000325
 20
-777.0
 30
0.0
 40
11.0000000595364
  0
CIRCLE
  8
Default
 10
-71.500000325
 20
-740.0
 30
0.0
 40
11.0000000595364
  0
CIRCLE
  8
Default
 10
-71.500000325
 20
-703.0
 30
0.0
 40
11.0000000595364
  0
CIRCLE
  8
Default
 10
-71.500000325
 20
-666.0
 30
0.0
 40
11.0000000595364
  0
CIRCLE
  8
Default
 10
-71.500000325
 20
-629.0
 30
0.0
 40
11.0000000595364
  0
CIRCLE
  8
Default
 10
-71.500000325
 20
-592.0
 30
0.0
 40
11.0000000595364
  0
CIRCLE
  8
Default
 10
-71.500000325
 20
-555.0
 30
0.0
 40
11.0000000595364
  0
CIRCLE
  8
Default
 10
-71.500000325
 20
-518.0
 30
0.0
 40
11.0000000595364
  0
CIRCLE
  8
Default
 10
-71.500000325
 20
-481.0
 30
0.0
 40
11.0000000595364
  0
CIRCLE
  8
Default
 10
-71.500000325
 20
-444.0
 30
0.0
 40
11.0000000595364
  0
CIRCLE
  8
Default
 10
-71.500000325
 20
-407.0
 30
0.0
 40
11.0000000595364
  0
CIRCLE
  8
Default
 10
-71.500000325
 20
-370.0
 30
0.0
 40
11.0000000595364
  0
CIRCLE
  8
Default
 10
-71.500000325
 20
-333.0
 30
0.0
 40
11.0000000595364
  0
CIRCLE
  8
Default
 10
-71.500000325
 20
-296.0
 30
0.0
 40
11.0000000595364
  0
CIRCLE
  8
Default
 10
-71.500000325
 20
-259.0
 30
0.0
 40
11.0000000595364
  0
CIRCLE
  8
Default
 10
-71.500000325
 20
-222.0
 30
0.0
 40
11.0000000595364
  0
CIRCLE
  8
Default
 10
-71.500000325
 20
-185.0
 30
0.0
 40
11.0000000595364
  0
CIRCLE
  8
Default
 10
-71.500000325
 20
-148.0
 30
0.0
 40
11.0000000595364
  0
CIRCLE
  8
Default
 10
-71.500000325
 20
-111.0
 30
0.0
 40
11.0000000595364
  0
CIRCLE
  8
Default
 10
-71.500000325
 20
-74.0
 30
0.0
 40
11.0000000595364
  0
CIRCLE
  8
Default
 10
-71.500000325
 20
-37.0
 30
0.0
 40
11.0000000595364
  0
CIRCLE
  8
Default
 10
-71.500000325
 20
0.0
 30
0.0
 40
11.0000000595364
  0
CIRCLE
  8
Default
 10
-71.500000325
 20
37.0
 30
0.0
 40
11.0000000595364
  0
CIRCLE
  8
Default
 10
-71.500000325
 20
74.0
 30
0.0
 40
11.0000000595364
  0
CIRCLE
  8
Default
 10
-71.500000325
 20
111.0
 30
0.0
 40
11.0000000595364
  0
CIRCLE
  8
Default
 10
-71.500000325
 20
148.0
 30
0.0
 40
11.0000000595364
  0
CIRCLE
  8
Default
 10
-71.500000325
 20
185.0
 30
0.0
 40
11.0000000595364
  0
CIRCLE
  8
Default
 10
-71.500000325
 20
222.0
 30
0.0
 40
11.0000000595364
  0
CIRCLE
  8
Default
 10
-71.500000325
 20
259.0
 30
0.0
 40
11.0000000595364
  0
CIRCLE
  8
Default
 10
-71.500000325
 20
296.0
 30
0.0
 40
11.0000000595364
  0
CIRCLE
  8
Default
 10
-71.500000325
 20
333.0
 30
0.0
 40
11.0000000595364
  0
CIRCLE
  8
Default
 10
-71.500000325
 20
370.0
 30
0.0
 40
11.0000000595364
  0
CIRCLE
  8
Default
 10
-71.500000325
 20
407.0
 30
0.0
 40
11.0000000595364
  0
CIRCLE
  8
Default
 10
-71.500000325
 20
444.0
 30
0.0
 40
11.0000000595364
  0
CIRCLE
  8
Default
 10
-71.500000325
 20
481.0
 30
0.0
 40
11.0000000595364
  0
CIRCLE
  8
Default
 10
-71.500000325
 20
518.0
 30
0.0
 40
11.0000000595364
  0
CIRCLE
  8
Default
 10
-71.500000325
 20
555.0
 30
0.0
 40
11.0000000595364
  0
CIRCLE
  8
Default
 10
-71.500000325
 20
592.0
 30
0.0
 40
11.0000000595364
  0
CIRCLE
  8
Default
 10
-71.500000325
 20
629.0
 30
0.0
 40
11.0000000595364
  0
CIRCLE
  8
Default
 10
-71.500000325
 20
666.0
 30
0.0
 40
11.0000000595364
  0
CIRCLE
  8
Default
 10
-71.500000325
 20
703.0
 30
0.0
 40
11.0000000595364
  0
CIRCLE
  8
Default
 10
-71.500000325
 20
740.0
 30
0.0
 40
11.0000000595364
  0
CIRCLE
  8
Default
 10
-71.500000325
 20
777.0
 30
0.0
 40
11.0000000595364
  0
CIRCLE
  8
Default
 10
-71.500000325
 20
814.0
 30
0.0
 40
11.0000000595364
  0
CIRCLE
  8
Default
 10
-71.500000325
 20
851.0
 30
0.0
 40
11.0000000595364
  0
CIRCLE
  8
Default
 10
-71.500000325
 20
888.0
 30
0.0
 40
11.0000000595364
  0
CIRCLE
  8
Default
 10
-71.500000325
 20
925.0
 30
0.0
 40
11.0000000595364
  0
CIRCLE
  8
Default
 10
-71.500000325
 20
962.0
 30
0.0
 40
11.0000000595364
  0
CIRCLE
  8
Default
 10
-35.500000325
 20
-943.0
 30
0.0
 40
11.0000000595364
  0
CIRCLE
  8
Default
 10
-35.500000325
 20
-906.0
 30
0.0
 40
11.0000000595364
  0
CIRCLE
  8
Default
 10
-35.500000325
 20
-869.0
 30
0.0
 40
11.0000000595364
  0
CIRCLE
  8
Default
 10
-35.500000325
 20
-832.0
 30
0.0
 40
11.0000000595364
  0
CIRCLE
  8
Default
 10
-35.500000325
 20
-795.0
 30
0.0
 40
11.0000000595364
  0
CIRCLE
  8
Default
 10
-35.500000325
 20
-758.0
 30
0.0
 40
11.0000000595364
  0
CIRCLE
  8
Default
 10
-35.500000325
 20
-721.0
 30
0.0
 40
11.0000000595364
  0
CIRCLE
  8
Default
 10
-35.500000325
 20
-684.0
 30
0.0
 40
11.0000000595364
  0
CIRCLE
  8
Default
 10
-35.500000325
 20
-647.0
 30
0.0
 40
11.0000000595364
  0
CIRCLE
  8
Default
 10
-35.500000325
 20
-610.0
 30
0.0
 40
11.0000000595364
  0
CIRCLE
  8
Default
 10
-35.500000325
 20
-573.0
 30
0.0
 40
11.0000000595364
  0
CIRCLE
  8
Default
 10
-35.500000325
 20
-536.0
 30
0.0
 40
11.0000000595364
  0
CIRCLE
  8
Default
 10
-35.500000325
 20
-499.0
 30
0.0
 40
11.0000000595364
  0
CIRCLE
  8
Default
 10
-35.500000325
 20
-462.0
 30
0.0
 40
11.0000000595364
  0
CIRCLE
  8
Default
 10
-35.500000325
 20
-425.0
 30
0.0
 40
11.0000000595364
  0
CIRCLE
  8
Default
 10
-35.500000325
 20
-388.0
 30
0.0
 40
11.0000000595364
  0
CIRCLE
  8
Default
 10
-35.500000325
 20
-351.0
 30
0.0
 40
11.0000000595364
  0
CIRCLE
  8
Default
 10
-35.500000325
 20
-314.0
 30
0.0
 40
11.0000000595364
  0
CIRCLE
  8
Default
 10
-35.500000325
 20
-277.0
 30
0.0
 40
11.0000000595364
  0
CIRCLE
  8
Default
 10
-35.500000325
 20
-240.0
 30
0.0
 40
11.0000000595364
  0
CIRCLE
  8
Default
 10
-35.500000325
 20
-203.0
 30
0.0
 40
11.0000000595364
  0
CIRCLE
  8
Default
 10
-35.500000325
 20
-166.0
 30
0.0
 40
11.0000000595364
  0
CIRCLE
  8
Default
 10
-35.500000325
 20
-129.0
 30
0.0
 40
11.0000000595364
  0
CIRCLE
  8
Default
 10
-35.500000325
 20
-92.0
 30
0.0
 40
11.0000000595364
  0
CIRCLE
  8
Default
 10
-35.500000325
 20
-55.0
 30
0.0
 40
11.0000000595364
  0
CIRCLE
  8
Default
 10
-35.500000325
 20
-18.0
 30
0.0
 40
11.0000000595364
  0
CIRCLE
  8
Default
 10
-35.500000325
 20
19.0
 30
0.0
 40
11.0000000595364
  0
CIRCLE
  8
Default
 10
-35.500000325
 20
56.0
 30
0.0
 40
11.0000000595364
  0
CIRCLE
  8
Default
 10
-35.500000325
 20
93.0
 30
0.0
 40
11.0000000595364
  0
CIRCLE
  8
Default
 10
-35.500000325
 20
130.0
 30
0.0
 40
11.0000000595364
  0
CIRCLE
  8
Default
 10
-35.500000325
 20
167.0
 30
0.0
 40
11.0000000595364
  0
CIRCLE
  8
Default
 10
-35.500000325
 20
204.0
 30
0.0
 40
11.0000000595364
  0
CIRCLE
  8
Default
 10
-35.500000325
 20
241.0
 30
0.0
 40
11.0000000595364
  0
CIRCLE
  8
Default
 10
-35.500000325
 20
278.0
 30
0.0
 40
11.0000000595364
  0
CIRCLE
  8
Default
 10
-35.500000325
 20
315.0
 30
0.0
 40
11.0000000595364
  0
CIRCLE
  8
Default
 10
-35.500000325
 20
352.0
 30
0.0
 40
11.0000000595364
  0
CIRCLE
  8
Default
 10
-35.500000325
 20
389.0
 30
0.0
 40
11.0000000595364
  0
CIRCLE
  8
Default
 10
-35.500000325
 20
426.0
 30
0.0
 40
11.0000000595364
  0
CIRCLE
  8
Default
 10
-35.500000325
 20
463.0
 30
0.0
 40
11.0000000595364
  0
CIRCLE
  8
Default
 10
-35.500000325
 20
500.0
 30
0.0
 40
11.0000000595364
  0
CIRCLE
  8
Default
 10
-35.500000325
 20
537.0
 30
0.0
 40
11.0000000595364
  0
CIRCLE
  8
Default
 10
-35.500000325
 20
574.0
 30
0.0
 40
11.0000000595364
  0
CIRCLE
  8
Default
 10
-35.500000325
 20
611.0
 30
0.0
 40
11.0000000595364
  0
CIRCLE
  8
Default
 10
-35.500000325
 20
648.0
 30
0.0
 40
11.0000000595364
  0
CIRCLE
  8
Default
 10
-35.500000325
 20
685.0
 30
0.0
 40
11.0000000595364
  0
CIRCLE
  8
Default
 10
-35.500000325
 20
722.0
 30
0.0
 40
11.0000000595364
  0
CIRCLE
  8
Default
 10
-35.500000325
 20
759.0
 30
0.0
 40
11.0000000595364
  0
CIRCLE
  8
Default
 10
-35.500000325
 20
796.0
 30
0.0
 40
11.0000000595364
  0
CIRCLE
  8
Default
 10
-35.500000325
 20
833.0
 30
0.0
 40
11.0000000595364
  0
CIRCLE
  8
Default
 10
-35.500000325
 20
870.0
 30
0.0
 40
11.0000000595364
  0
CIRCLE
  8
Default
 10
-35.500000325
 20
907.0
 30
0.0
 40
11.0000000595364
  0
CIRCLE
  8
Default
 10
-35.500000325
 20
944.0
 30
0.0
 40
11.0000000595364
  0
POLYLINE
  8
Default
 66
     1
 10
0.0
 20
0.0
 30
0.0
 70
     0
  0
VERTEX
  8
Default
 10
-250.00000065
 20
-1000.000000125
 42
0.0
  0
VERTEX
  8
Default
 10
-250.00000065
 20
1000.000000125
 42
0.0
  0
SEQEND
  0
CIRCLE
  8
Default
 10
35.500000325
 20
-962.0
 30
0.0
 40
11.0000000595364
  0
CIRCLE
  8
Default
 10
35.500000325
 20
-925.0
 30
0.0
 40
11.0000000595364
  0
CIRCLE
  8
Default
 10
35.500000325
 20
-888.0
 30
0.0
 40
11.0000000595364
  0
CIRCLE
  8
Default
 10
35.500000325
 20
-851.0
 30
0.0
 40
11.0000000595364
  0
CIRCLE
  8
Default
 10
35.500000325
 20
-814.0
 30
0.0
 40
11.0000000595364
  0
CIRCLE
  8
Default
 10
35.500000325
 20
-777.0
 30
0.0
 40
11.0000000595364
  0
CIRCLE
  8
Default
 10
35.500000325
 20
-740.0
 30
0.0
 40
11.0000000595364
  0
CIRCLE
  8
Default
 10
35.500000325
 20
-703.0
 30
0.0
 40
11.0000000595364
  0
CIRCLE
  8
Default
 10
35.500000325
 20
-666.0
 30
0.0
 40
11.0000000595364
  0
CIRCLE
  8
Default
 10
35.500000325
 20
-629.0
 30
0.0
 40
11.0000000595364
  0
CIRCLE
  8
Default
 10
35.500000325
 20
-592.0
 30
0.0
 40
11.0000000595364
  0
CIRCLE
  8
Default
 10
35.500000325
 20
-555.0
 30
0.0
 40
11.0000000595364
  0
CIRCLE
  8
Default
 10
35.500000325
 20
-518.0
 30
0.0
 40
11.0000000595364
  0
CIRCLE
  8
Default
 10
35.500000325
 20
-481.0
 30
0.0
 40
11.0000000595364
  0
CIRCLE
  8
Default
 10
35.500000325
 20
-444.0
 30
0.0
 40
11.0000000595364
  0
CIRCLE
  8
Default
 10
35.500000325
 20
-407.0
 30
0.0
 40
11.0000000595364
  0
CIRCLE
  8
Default
 10
35.500000325
 20
-370.0
 30
0.0
 40
11.0000000595364
  0
CIRCLE
  8
Default
 10
35.500000325
 20
-333.0
 30
0.0
 40
11.0000000595364
  0
CIRCLE
  8
Default
 10
35.500000325
 20
-296.0
 30
0.0
 40
11.0000000595364
  0
CIRCLE
  8
Default
 10
35.500000325
 20
-259.0
 30
0.0
 40
11.0000000595364
  0
CIRCLE
  8
Default
 10
35.500000325
 20
-222.0
 30
0.0
 40
11.0000000595364
  0
CIRCLE
  8
Default
 10
35.500000325
 20
-185.0
 30
0.0
 40
11.0000000595364
  0
CIRCLE
  8
Default
 10
35.500000325
 20
-148.0
 30
0.0
 40
11.0000000595364
  0
CIRCLE
  8
Default
 10
35.500000325
 20
-111.0
 30
0.0
 40
11.0000000595364
  0
CIRCLE
  8
Default
 10
35.500000325001
 20
-74.0
 30
0.0
 40
11.0000000595364
  0
CIRCLE
  8
Default
 10
35.500000325001
 20
-37.0
 30
0.0
 40
11.0000000595364
  0
CIRCLE
  8
Default
 10
35.500000325001
 20
0.0
 30
0.0
 40
11.0000000595364
  0
CIRCLE
  8
Default
 10
35.500000325001
 20
37.0
 30
0.0
 40
11.0000000595364
  0
CIRCLE
  8
Default
 10
35.500000325001
 20
74.0
 30
0.0
 40
11.0000000595364
  0
CIRCLE
  8
Default
 10
35.500000325001
 20
111.0
 30
0.0
 40
11.0000000595364
  0
CIRCLE
  8
Default
 10
35.500000325001
 20
148.0
 30
0.0
 40
11.0000000595364
  0
CIRCLE
  8
Default
 10
35.500000325001
 20
185.0
 30
0.0
 40
11.0000000595364
  0
CIRCLE
  8
Default
 10
35.500000325001
 20
222.0
 30
0.0
 40
11.0000000595364
  0
CIRCLE
  8
Default
 10
35.500000325001
 20
259.0
 30
0.0
 40
11.0000000595364
  0
CIRCLE
  8
Default
 10
35.500000325001
 20
296.0
 30
0.0
 40
11.0000000595364
  0
CIRCLE
  8
Default
 10
35.500000325001
 20
333.0
 30
0.0
 40
11.0000000595364
  0
CIRCLE
  8
Default
 10
35.500000325001
 20
370.0
 30
0.0
 40
11.0000000595364
  0
CIRCLE
  8
Default
 10
35.500000325001
 20
407.0
 30
0.0
 40
11.0000000595364
  0
CIRCLE
  8
Default
 10
35.500000325001
 20
444.0
 30
0.0
 40
11.0000000595364
  0
CIRCLE
  8
Default
 10
35.500000325001
 20
481.0
 30
0.0
 40
11.0000000595364
  0
CIRCLE
  8
Default
 10
35.500000325001
 20
518.0
 30
0.0
 40
11.0000000595364
  0
CIRCLE
  8
Default
 10
35.500000325001
 20
555.0
 30
0.0
 40
11.0000000595364
  0
CIRCLE
  8
Default
 10
35.500000325001
 20
592.0
 30
0.0
 40
11.0000000595364
  0
CIRCLE
  8
Default
 10
35.500000325001
 20
629.0
 30
0.0
 40
11.0000000595364
  0
CIRCLE
  8
Default
 10
35.500000325001
 20
666.0
 30
0.0
 40
11.0000000595364
  0
CIRCLE
  8
Default
 10
35.500000325001
 20
703.0
 30
0.0
 40
11.0000000595364
  0
CIRCLE
  8
Default
 10
35.500000325001
 20
740.0
 30
0.0
 40
11.0000000595364
  0
CIRCLE
  8
Default
 10
35.500000325001
 20
777.0
 30
0.0
 40
11.0000000595364
  0
CIRCLE
  8
Default
 10
35.500000325001
 20
814.0
 30
0.0
 40
11.0000000595364
  0
CIRCLE
  8
Default
 10
35.500000325001
 20
851.0
 30
0.0
 40
11.0000000595364
  0
CIRCLE
  8
Default
 10
35.500000325001
 20
888.0
 30
0.0
 40
11.0000000595364
  0
CIRCLE
  8
Default
 10
35.500000325001
 20
925.0
 30
0.0
 40
11.0000000595364
  0
CIRCLE
  8
Default
 10
35.500000325001
 20
962.0
 30
0.0
 40
11.0000000595364
  0
CIRCLE
  8
Default
 10
71.500000325
 20
-943.0
 30
0.0
 40
11.0000000595364
  0
CIRCLE
  8
Default
 10
71.500000325
 20
-906.0
 30
0.0
 40
11.0000000595364
  0
CIRCLE
  8
Default
 10
71.500000325
 20
-869.0
 30
0.0
 40
11.0000000595364
  0
CIRCLE
  8
Default
 10
71.500000325
 20
-832.0
 30
0.0
 40
11.0000000595364
  0
CIRCLE
  8
Default
 10
71.500000325
 20
-795.0
 30
0.0
 40
11.0000000595364
  0
CIRCLE
  8
Default
 10
71.500000325
 20
-758.0
 30
0.0
 40
11.0000000595364
  0
CIRCLE
  8
Default
 10
71.500000325
 20
-721.0
 30
0.0
 40
11.0000000595364
  0
CIRCLE
  8
Default
 10
71.500000325
 20
-684.0
 30
0.0
 40
11.0000000595364
  0
CIRCLE
  8
Default
 10
71.500000325
 20
-647.0
 30
0.0
 40
11.0000000595364
  0
CIRCLE
  8
Default
 10
71.500000325
 20
-610.0
 30
0.0
 40
11.0000000595364
  0
CIRCLE
  8
Default
 10
71.500000325
 20
-573.0
 30
0.0
 40
11.0000000595364
  0
CIRCLE
  8
Default
 10
71.500000325
 20
-536.0
 30
0.0
 40
11.0000000595364
  0
CIRCLE
  8
Default
 10
71.500000325
 20
-499.0
 30
0.0
 40
11.0000000595364
  0
CIRCLE
  8
Default
 10
71.500000325
 20
-462.0
 30
0.0
 40
11.0000000595364
  0
CIRCLE
  8
Default
 10
71.500000325
 20
-425.0
 30
0.0
 40
11.0000000595364
  0
CIRCLE
  8
Default
 10
71.500000325
 20
-388.0
 30
0.0
 40
11.0000000595364
  0
CIRCLE
  8
Default
 10
71.500000325
 20
-351.0
 30
0.0
 40
11.0000000595364
  0
CIRCLE
  8
Default
 10
71.500000325
 20
-314.0
 30
0.0
 40
11.0000000595364
  0
CIRCLE
  8
Default
 10
71.500000325
 20
-277.0
 30
0.0
 40
11.0000000595364
  0
CIRCLE
  8
Default
 10
71.500000325
 20
-240.0
 30
0.0
 40
11.0000000595364
  0
CIRCLE
  8
Default
 10
71.500000325
 20
-203.0
 30
0.0
 40
11.0000000595364
  0
CIRCLE
  8
Default
 10
71.500000325
 20
-166.0
 30
0.0
 40
11.0000000595364
  0
CIRCLE
  8
Default
 10
71.500000325
 20
-129.0
 30
0.0
 40
11.0000000595364
  0
CIRCLE
  8
Default
 10
71.500000325
 20
-92.0
 30
0.0
 40
11.0000000595364
  0
CIRCLE
  8
Default
 10
71.500000325001
 20
-55.0
 30
0.0
 40
11.0000000595364
  0
CIRCLE
  8
Default
 10
71.500000325001
 20
-18.0
 30
0.0
 40
11.0000000595364
  0
CIRCLE
  8
Default
 10
71.500000325001
 20
19.0
 30
0.0
 40
11.0000000595364
  0
CIRCLE
  8
Default
 10
71.500000325001
 20
56.0
 30
0.0
 40
11.0000000595364
  0
CIRCLE
  8
Default
 10
71.500000325001
 20
93.0
 30
0.0
 40
11.0000000595364
  0
CIRCLE
  8
Default
 10
71.500000325001
 20
130.0
 30
0.0
 40
11.0000000595364
  0
CIRCLE
  8
Default
 10
71.500000325001
 20
167.0
 30
0.0
 40
11.0000000595364
  0
CIRCLE
  8
Default
 10
71.500000325001
 20
204.0
 30
0.0
 40
11.0000000595364
  0
CIRCLE
  8
Default
 10
71.500000325001
 20
241.0
 30
0.0
 40
11.0000000595364
  0
CIRCLE
  8
Default
 10
71.500000325001
 20
278.0
 30
0.0
 40
11.0000000595364
  0
CIRCLE
  8
Default
 10
71.500000325001
 20
315.0
 30
0.0
 40
11.0000000595364
  0
CIRCLE
  8
Default
 10
71.500000325001
 20
352.0
 30
0.0
 40
11.0000000595364
  0
CIRCLE
  8
Default
 10
71.500000325001
 20
389.0
 30
0.0
 40
11.0000000595364
  0
CIRCLE
  8
Default
 10
71.500000325001
 20
426.0
 30
0.0
 40
11.0000000595364
  0
CIRCLE
  8
Default
 10
71.500000325001
 20
463.0
 30
0.0
 40
11.0000000595364
  0
CIRCLE
  8
Default
 10
71.500000325001
 20
500.0
 30
0.0
 40
11.0000000595364
  0
CIRCLE
  8
Default
 10
71.500000325001
 20
537.0
 30
0.0
 40
11.0000000595364
  0
CIRCLE
  8
Default
 10
71.500000325001
 20
574.0
 30
0.0
 40
11.0000000595364
  0
CIRCLE
  8
Default
 10
71.500000325001
 20
611.0
 30
0.0
 40
11.0000000595364
  0
CIRCLE
  8
Default
 10
71.500000325001
 20
648.0
 30
0.0
 40
11.0000000595364
  0
CIRCLE
  8
Default
 10
71.500000325001
 20
685.0
 30
0.0
 40
11.0000000595364
  0
CIRCLE
  8
Default
 10
71.500000325001
 20
722.0
 30
0.0
 40
11.0000000595364
  0
CIRCLE
  8
Default
 10
71.500000325001
 20
759.0
 30
0.0
 40
11.0000000595364
  0
CIRCLE
  8
Default
 10
71.500000325001
 20
796.0
 30
0.0
 40
11.0000000595364
  0
CIRCLE
  8
Default
 10
71.500000325001
 20
833.0
 30
0.0
 40
11.0000000595364
  0
CIRCLE
  8
Default
 10
71.500000325001
 20
870.0
 30
0.0
 40
11.0000000595364
  0
CIRCLE
  8
Default
 10
71.500000325001
 20
907.0
 30
0.0
 40
11.0000000595364
  0
CIRCLE
  8
Default
 10
71.500000325001
 20
944.0
 30
0.0
 40
11.0000000595364
  0
CIRCLE
  8
Default
 10
106.500000325
 20
-962.0
 30
0.0
 40
11.0000000595364
  0
CIRCLE
  8
Default
 10
106.500000325
 20
-925.0
 30
0.0
 40
11.0000000595364
  0
CIRCLE
  8
Default
 10
106.500000325
 20
-888.0
 30
0.0
 40
11.0000000595364
  0
CIRCLE
  8
Default
 10
106.500000325
 20
-851.0
 30
0.0
 40
11.0000000595364
  0
CIRCLE
  8
Default
 10
106.500000325
 20
-814.0
 30
0.0
 40
11.0000000595364
  0
CIRCLE
  8
Default
 10
106.500000325
 20
-777.0
 30
0.0
 40
11.0000000595364
  0
CIRCLE
  8
Default
 10
106.500000325
 20
-740.0
 30
0.0
 40
11.0000000595364
  0
CIRCLE
  8
Default
 10
106.500000325
 20
-703.0
 30
0.0
 40
11.0000000595364
  0
CIRCLE
  8
Default
 10
106.500000325
 20
-666.0
 30
0.0
 40
11.0000000595364
  0
CIRCLE
  8
Default
 10
106.500000325
 20
-629.0
 30
0.0
 40
11.0000000595364
  0
CIRCLE
  8
Default
 10
106.500000325
 20
-592.0
 30
0.0
 40
11.0000000595364
  0
CIRCLE
  8
Default
 10
106.500000325
 20
-555.0
 30
0.0
 40
11.0000000595364
  0
CIRCLE
  8
Default
 10
106.500000325
 20
-518.0
 30
0.0
 40
11.0000000595364
  0
CIRCLE
  8
Default
 10
106.500000325
 20
-481.0
 30
0.0
 40
11.0000000595364
  0
CIRCLE
  8
Default
 10
106.500000325
 20
-444.0
 30
0.0
 40
11.0000000595364
  0
CIRCLE
  8
Default
 10
106.500000325
 20
-407.0
 30
0.0
 40
11.0000000595364
  0
CIRCLE
  8
Default
 10
106.500000325
 20
-370.0
 30
0.0
 40
11.0000000595364
  0
CIRCLE
  8
Default
 10
106.500000325
 20
-333.0
 30
0.0
 40
11.0000000595364
  0
CIRCLE
  8
Default
 10
106.500000325
 20
-296.0
 30
0.0
 40
11.0000000595364
  0
CIRCLE
  8
Default
 10
106.500000325
 20
-259.0
 30
0.0
 40
11.0000000595364
  0
CIRCLE
  8
Default
 10
106.500000325
 20
-222.0
 30
0.0
 40
11.0000000595364
  0
CIRCLE
  8
Default
 10
106.500000325
 20
-185.0
 30
0.0
 40
11.0000000595364
  0
CIRCLE
  8
Default
 10
106.500000325
 20
-148.0
 30
0.0
 40
11.0000000595364
  0
CIRCLE
  8
Default
 10
106.500000325
 20
-111.0
 30
0.0
 40
11.0000000595364
  0
CIRCLE
  8
Default
 10
106.500000325
 20
-74.0
 30
0.0
 40
11.0000000595364
  0
CIRCLE
  8
Default
 10
106.500000325
 20
-37.0
 30
0.0
 40
11.0000000595364
  0
CIRCLE
  8
Default
 10
106.500000325
 20
0.0
 30
0.0
 40
11.0000000595364
  0
CIRCLE
  8
Default
 10
106.500000325
 20
37.0
 30
0.0
 40
11.0000000595364
  0
CIRCLE
  8
Default
 10
106.500000325
 20
74.0
 30
0.0
 40
11.0000000595364
  0
CIRCLE
  8
Default
 10
106.500000325
 20
111.0
 30
0.0
 40
11.0000000595364
  0
CIRCLE
  8
Default
 10
106.500000325
 20
148.0
 30
0.0
 40
11.0000000595364
  0
CIRCLE
  8
Default
 10
106.500000325
 20
185.0
 30
0.0
 40
11.0000000595364
  0
CIRCLE
  8
Default
 10
106.500000325
 20
222.0
 30
0.0
 40
11.0000000595364
  0
CIRCLE
  8
Default
 10
106.500000325
 20
259.0
 30
0.0
 40
11.0000000595364
  0
CIRCLE
  8
Default
 10
106.500000325
 20
296.0
 30
0.0
 40
11.0000000595364
  0
CIRCLE
  8
Default
 10
106.500000325
 20
333.0
 30
0.0
 40
11.0000000595364
  0
CIRCLE
  8
Default
 10
106.500000325
 20
370.0
 30
0.0
 40
11.0000000595364
  0
CIRCLE
  8
Default
 10
106.500000325
 20
407.0
 30
0.0
 40
11.0000000595364
  0
CIRCLE
  8
Default
 10
106.500000325
 20
444.0
 30
0.0
 40
11.0000000595364
  0
CIRCLE
  8
Default
 10
106.500000325
 20
481.0
 30
0.0
 40
11.0000000595364
  0
CIRCLE
  8
Default
 10
106.500000325
 20
518.0
 30
0.0
 40
11.0000000595364
  0
CIRCLE
  8
Default
 10
106.500000325
 20
555.0
 30
0.0
 40
11.0000000595364
  0
CIRCLE
  8
Default
 10
106.500000325
 20
592.0
 30
0.0
 40
11.0000000595364
  0
CIRCLE
  8
Default
 10
106.500000325
 20
629.0
 30
0.0
 40
11.0000000595364
  0
CIRCLE
  8
Default
 10
106.500000325
 20
666.0
 30
0.0
 40
11.0000000595364
  0
CIRCLE
  8
Default
 10
106.500000325
 20
703.0
 30
0.0
 40
11.0000000595364
  0
CIRCLE
  8
Default
 10
106.500000325
 20
740.0
 30
0.0
 40
11.0000000595364
  0
CIRCLE
  8
Default
 10
106.500000325
 20
777.0
 30
0.0
 40
11.0000000595364
  0
CIRCLE
  8
Default
 10
106.500000325
 20
814.0
 30
0.0
 40
11.0000000595364
  0
CIRCLE
  8
Default
 10
106.500000325
 20
851.0
 30
0.0
 40
11.0000000595364
  0
CIRCLE
  8
Default
 10
106.500000325
 20
888.0
 30
0.0
 40
11.0000000595364
  0
CIRCLE
  8
Default
 10
106.500000325
 20
925.0
 30
0.0
 40
11.0000000595364
  0
CIRCLE
  8
Default
 10
106.500000325
 20
962.0
 30
0.0
 40
11.0000000595364
  0
CIRCLE
  8
Default
 10
142.500000325
 20
-943.0
 30
0.0
 40
11.0000000595364
  0
CIRCLE
  8
Default
 10
142.500000325
 20
-906.0
 30
0.0
 40
11.0000000595364
  0
CIRCLE
  8
Default
 10
142.500000325
 20
-869.0
 30
0.0
 40
11.0000000595364
  0
CIRCLE
  8
Default
 10
142.500000325
 20
-832.0
 30
0.0
 40
11.0000000595364
  0
CIRCLE
  8
Default
 10
142.500000325
 20
-795.0
 30
0.0
 40
11.0000000595364
  0
CIRCLE
  8
Default
 10
142.500000325
 20
-758.0
 30
0.0
 40
11.0000000595364
  0
CIRCLE
  8
Default
 10
142.500000325
 20
-721.0
 30
0.0
 40
11.0000000595364
  0
CIRCLE
  8
Default
 10
142.500000325
 20
-684.0
 30
0.0
 40
11.0000000595364
  0
CIRCLE
  8
Default
 10
142.500000325
 20
-647.0
 30
0.0
 40
11.0000000595364
  0
CIRCLE
  8
Default
 10
142.500000325
 20
-610.0
 30
0.0
 40
11.0000000595364
  0
CIRCLE
  8
Default
 10
142.500000325
 20
-573.0
 30
0.0
 40
11.0000000595364
  0
CIRCLE
  8
Default
 10
142.500000325
 20
-536.0
 30
0.0
 40
11.0000000595364
  0
CIRCLE
  8
Default
 10
142.500000325
 20
-499.0
 30
0.0
 40
11.0000000595364
  0
CIRCLE
  8
Default
 10
142.500000325
 20
-462.0
 30
0.0
 40
11.0000000595364
  0
CIRCLE
  8
Default
 10
142.500000325
 20
-425.0
 30
0.0
 40
11.0000000595364
  0
CIRCLE
  8
Default
 10
142.500000325
 20
-388.0
 30
0.0
 40
11.0000000595364
  0
CIRCLE
  8
Default
 10
142.500000325
 20
-351.0
 30
0.0
 40
11.0000000595364
  0
CIRCLE
  8
Default
 10
142.500000325
 20
-314.0
 30
0.0
 40
11.0000000595364
  0
CIRCLE
  8
Default
 10
142.500000325
 20
-277.0
 30
0.0
 40
11.0000000595364
  0
CIRCLE
  8
Default
 10
142.500000325
 20
-240.0
 30
0.0
 40
11.0000000595364
  0
CIRCLE
  8
Default
 10
142.500000325
 20
-203.0
 30
0.0
 40
11.0000000595364
  0
CIRCLE
  8
Default
 10
142.500000325
 20
-166.0
 30
0.0
 40
11.0000000595364
  0
CIRCLE
  8
Default
 10
142.500000325
 20
-129.0
 30
0.0
 40
11.0000000595364
  0
CIRCLE
  8
Default
 10
142.500000325
 20
-92.0
 30
0.0
 40
11.0000000595364
  0
CIRCLE
  8
Default
 10
142.500000325
 20
-55.0
 30
0.0
 40
11.0000000595364
  0
CIRCLE
  8
Default
 10
142.500000325
 20
-18.0
 30
0.0
 40
11.0000000595364
  0
CIRCLE
  8
Default
 10
142.500000325
 20
19.0
 30
0.0
 40
11.0000000595364
  0
CIRCLE
  8
Default
 10
142.500000325
 20
56.0
 30
0.0
 40
11.0000000595364
  0
CIRCLE
  8
Default
 10
142.500000325
 20
93.0
 30
0.0
 40
11.0000000595364
  0
CIRCLE
  8
Default
 10
142.500000325
 20
130.0
 30
0.0
 40
11.0000000595364
  0
CIRCLE
  8
Default
 10
142.500000325
 20
167.0
 30
0.0
 40
11.0000000595364
  0
CIRCLE
  8
Default
 10
142.500000325
 20
204.0
 30
0.0
 40
11.0000000595364
  0
CIRCLE
  8
Default
 10
142.500000325
 20
241.0
 30
0.0
 40
11.0000000595364
  0
CIRCLE
  8
Default
 10
142.500000325
 20
278.0
 30
0.0
 40
11.0000000595364
  0
CIRCLE
  8
Default
 10
142.500000325
 20
315.0
 30
0.0
 40
11.0000000595364
  0
CIRCLE
  8
Default
 10
142.500000325
 20
352.0
 30
0.0
 40
11.0000000595364
  0
CIRCLE
  8
Default
 10
142.500000325
 20
389.0
 30
0.0
 40
11.0000000595364
  0
CIRCLE
  8
Default
 10
142.500000325
 20
426.0
 30
0.0
 40
11.0000000595364
  0
CIRCLE
  8
Default
 10
142.500000325
 20
463.0
 30
0.0
 40
11.0000000595364
  0
CIRCLE
  8
Default
 10
142.500000325
 20
500.0
 30
0.0
 40
11.0000000595364
  0
CIRCLE
  8
Default
 10
142.500000325
 20
537.0
 30
0.0
 40
11.0000000595364
  0
CIRCLE
  8
Default
 10
142.500000325
 20
574.0
 30
0.0
 40
11.0000000595364
  0
CIRCLE
  8
Default
 10
142.500000325
 20
611.0
 30
0.0
 40
11.0000000595364
  0
CIRCLE
  8
Default
 10
142.500000325
 20
648.0
 30
0.0
 40
11.0000000595364
  0
CIRCLE
  8
Default
 10
142.500000325
 20
685.0
 30
0.0
 40
11.0000000595364
  0
CIRCLE
  8
Default
 10
142.500000325
 20
722.0
 30
0.0
 40
11.0000000595364
  0
CIRCLE
  8
Default
 10
142.500000325
 20
759.0
 30
0.0
 40
11.0000000595364
  0
CIRCLE
  8
Default
 10
142.500000325
 20
796.0
 30
0.0
 40
11.0000000595364
  0
CIRCLE
  8
Default
 10
142.500000325
 20
833.0
 30
0.0
 40
11.0000000595364
  0
CIRCLE
  8
Default
 10
142.500000325
 20
870.0
 30
0.0
 40
11.0000000595364
  0
CIRCLE
  8
Default
 10
142.500000325
 20
907.0
 30
0.0
 40
11.0000000595364
  0
CIRCLE
  8
Default
 10
142.500000325
 20
944.0
 30
0.0
 40
11.0000000595364
  0
CIRCLE
  8
Default
 10
178.500000325
 20
-962.0
 30
0.0
 40
11.0000000595364
  0
CIRCLE
  8
Default
 10
178.500000325
 20
-925.0
 30
0.0
 40
11.0000000595364
  0
CIRCLE
  8
Default
 10
178.500000325
 20
-888.0
 30
0.0
 40
11.0000000595364
  0
CIRCLE
  8
Default
 10
178.500000325
 20
-851.0
 30
0.0
 40
11.0000000595364
  0
CIRCLE
  8
Default
 10
178.500000325
 20
-814.0
 30
0.0
 40
11.0000000595364
  0
CIRCLE
  8
Default
 10
178.500000325
 20
-777.0
 30
0.0
 40
11.0000000595364
  0
CIRCLE
  8
Default
 10
178.500000325
 20
-740.0
 30
0.0
 40
11.0000000595364
  0
CIRCLE
  8
Default
 10
178.500000325
 20
-703.0
 30
0.0
 40
11.0000000595364
  0
CIRCLE
  8
Default
 10
178.500000325
 20
-666.0
 30
0.0
 40
11.0000000595364
  0
CIRCLE
  8
Default
 10
178.500000325
 20
-629.0
 30
0.0
 40
11.0000000595364
  0
CIRCLE
  8
Default
 10
178.500000325
 20
-592.0
 30
0.0
 40
11.0000000595364
  0
CIRCLE
  8
Default
 10
178.500000325
 20
-555.0
 30
0.0
 40
11.0000000595364
  0
CIRCLE
  8
Default
 10
178.500000325
 20
-518.0
 30
0.0
 40
11.0000000595364
  0
CIRCLE
  8
Default
 10
178.500000325
 20
-481.0
 30
0.0
 40
11.0000000595364
  0
CIRCLE
  8
Default
 10
178.500000325
 20
-444.0
 30
0.0
 40
11.0000000595364
  0
CIRCLE
  8
Default
 10
178.500000325
 20
-407.0
 30
0.0
 40
11.0000000595364
  0
CIRCLE
  8
Default
 10
178.500000325
 20
-370.0
 30
0.0
 40
11.0000000595364
  0
CIRCLE
  8
Default
 10
178.500000325
 20
-333.0
 30
0.0
 40
11.0000000595364
  0
CIRCLE
  8
Default
 10
178.500000325
 20
-296.0
 30
0.0
 40
11.0000000595364
  0
CIRCLE
  8
Default
 10
178.500000325
 20
-259.0
 30
0.0
 40
11.0000000595364
  0
CIRCLE
  8
Default
 10
178.500000325
 20
-222.0
 30
0.0
 40
11.0000000595364
  0
CIRCLE
  8
Default
 10
178.500000325
 20
-185.0
 30
0.0
 40
11.0000000595364
  0
CIRCLE
  8
Default
 10
178.500000325
 20
-148.0
 30
0.0
 40
11.0000000595364
  0
CIRCLE
  8
Default
 10
178.500000325
 20
-111.0
 30
0.0
 40
11.0000000595364
  0
CIRCLE
  8
Default
 10
178.500000325
 20
-74.0
 30
0.0
 40
11.0000000595364
  0
CIRCLE
  8
Default
 10
178.500000325
 20
-37.0
 30
0.0
 40
11.0000000595364
  0
CIRCLE
  8
Default
 10
178.500000325
 20
0.0
 30
0.0
 40
11.0000000595364
  0
CIRCLE
  8
Default
 10
178.500000325
 20
37.0
 30
0.0
 40
11.0000000595364
  0
CIRCLE
  8
Default
 10
178.500000325
 20
74.0
 30
0.0
 40
11.0000000595364
  0
CIRCLE
  8
Default
 10
178.500000325
 20
111.0
 30
0.0
 40
11.0000000595364
  0
CIRCLE
  8
Default
 10
178.500000325
 20
148.0
 30
0.0
 40
11.0000000595364
  0
CIRCLE
  8
Default
 10
178.500000325
 20
185.0
 30
0.0
 40
11.0000000595364
  0
CIRCLE
  8
Default
 10
178.500000325
 20
222.0
 30
0.0
 40
11.0000000595364
  0
CIRCLE
  8
Default
 10
178.500000325
 20
259.0
 30
0.0
 40
11.0000000595364
  0
CIRCLE
  8
Default
 10
178.500000325
 20
296.0
 30
0.0
 40
11.0000000595364
  0
CIRCLE
  8
Default
 10
178.500000325
 20
333.0
 30
0.0
 40
11.0000000595364
  0
CIRCLE
  8
Default
 10
178.500000325
 20
370.0
 30
0.0
 40
11.0000000595364
  0
CIRCLE
  8
Default
 10
178.500000325
 20
407.0
 30
0.0
 40
11.0000000595364
  0
CIRCLE
  8
Default
 10
178.500000325
 20
444.0
 30
0.0
 40
11.0000000595364
  0
CIRCLE
  8
Default
 10
178.500000325
 20
481.0
 30
0.0
 40
11.0000000595364
  0
CIRCLE
  8
Default
 10
178.500000325
 20
518.0
 30
0.0
 40
11.0000000595364
  0
CIRCLE
  8
Default
 10
178.500000325
 20
555.0
 30
0.0
 40
11.0000000595364
  0
CIRCLE
  8
Default
 10
178.500000325
 20
592.0
 30
0.0
 40
11.0000000595364
  0
CIRCLE
  8
Default
 10
178.500000325
 20
629.0
 30
0.0
 40
11.0000000595364
  0
CIRCLE
  8
Default
 10
178.500000325
 20
666.0
 30
0.0
 40
11.0000000595364
  0
CIRCLE
  8
Default
 10
178.500000325
 20
703.0
 30
0.0
 40
11.0000000595364
  0
CIRCLE
  8
Default
 10
178.500000325
 20
740.0
 30
0.0
 40
11.0000000595364
  0
CIRCLE
  8
Default
 10
178.500000325
 20
777.0
 30
0.0
 40
11.0000000595364
  0
CIRCLE
  8
Default
 10
178.500000325
 20
814.0
 30
0.0
 40
11.0000000595364
  0
CIRCLE
  8
Default
 10
178.500000325
 20
851.0
 30
0.0
 40
11.0000000595364
  0
CIRCLE
  8
Default
 10
178.500000325
 20
888.0
 30
0.0
 40
11.0000000595364
  0
CIRCLE
  8
Default
 10
178.500000325
 20
925.0
 30
0.0
 40
11.0000000595364
  0
CIRCLE
  8
Default
 10
178.500000325
 20
962.0
 30
0.0
 40
11.0000000595364
  0
CIRCLE
  8
Default
 10
214.500000325
 20
-943.0
 30
0.0
 40
11.0000000595364
  0
CIRCLE
  8
Default
 10
214.500000325
 20
-906.0
 30
0.0
 40
11.0000000595364
  0
CIRCLE
  8
Default
 10
214.500000325
 20
-869.0
 30
0.0
 40
11.0000000595364
  0
CIRCLE
  8
Default
 10
214.500000325
 20
-832.0
 30
0.0
 40
11.0000000595364
  0
CIRCLE
  8
Default
 10
214.500000325
 20
-795.0
 30
0.0
 40
11.0000000595364
  0
CIRCLE
  8
Default
 10
214.500000325
 20
-758.0
 30
0.0
 40
11.0000000595364
  0
CIRCLE
  8
Default
 10
214.500000325
 20
-721.0
 30
0.0
 40
11.0000000595364
  0
CIRCLE
  8
Default
 10
214.500000325
 20
-684.0
 30
0.0
 40
11.0000000595364
  0
CIRCLE
  8
Default
 10
214.500000325
 20
-647.0
 30
0.0
 40
11.0000000595364
  0
CIRCLE
  8
Default
 10
214.500000325
 20
-610.0
 30
0.0
 40
11.0000000595364
  0
CIRCLE
  8
Default
 10
214.500000325
 20
-573.0
 30
0.0
 40
11.0000000595364
  0
CIRCLE
  8
Default
 10
214.500000325
 20
-536.0
 30
0.0
 40
11.0000000595364
  0
CIRCLE
  8
Default
 10
214.500000325
 20
-499.0
 30
0.0
 40
11.0000000595364
  0
CIRCLE
  8
Default
 10
214.500000325
 20
-462.0
 30
0.0
 40
11.0000000595364
  0
CIRCLE
  8
Default
 10
214.500000325
 20
-425.0
 30
0.0
 40
11.0000000595364
  0
CIRCLE
  8
Default
 10
214.500000325
 20
-388.0
 30
0.0
 40
11.0000000595364
  0
CIRCLE
  8
Default
 10
214.500000325
 20
-351.0
 30
0.0
 40
11.0000000595364
  0
CIRCLE
  8
Default
 10
214.500000325
 20
-314.0
 30
0.0
 40
11.0000000595364
  0
CIRCLE
  8
Default
 10
214.500000325
 20
-277.0
 30
0.0
 40
11.0000000595364
  0
CIRCLE
  8
Default
 10
214.500000325
 20
-240.0
 30
0.0
 40
11.0000000595364
  0
CIRCLE
  8
Default
 10
214.500000325
 20
-203.0
 30
0.0
 40
11.0000000595364
  0
CIRCLE
  8
Default
 10
214.500000325
 20
-166.0
 30
0.0
 40
11.0000000595364
  0
CIRCLE
  8
Default
 10
214.500000325
 20
-129.0
 30
0.0
 40
11.0000000595364
  0
CIRCLE
  8
Default
 10
214.500000325
 20
-92.0
 30
0.0
 40
11.0000000595364
  0
CIRCLE
  8
Default
 10
214.500000325
 20
-55.0
 30
0.0
 40
11.0000000595364
  0
CIRCLE
  8
Default
 10
214.500000325
 20
-18.0
 30
0.0
 40
11.0000000595364
  0
CIRCLE
  8
Default
 10
214.500000325
 20
19.0
 30
0.0
 40
11.0000000595364
  0
CIRCLE
  8
Default
 10
214.500000325
 20
56.0
 30
0.0
 40
11.0000000595364
  0
CIRCLE
  8
Default
 10
214.500000325
 20
93.0
 30
0.0
 40
11.0000000595364
  0
CIRCLE
  8
Default
 10
214.500000325
 20
130.0
 30
0.0
 40
11.0000000595364
  0
CIRCLE
  8
Default
 10
214.500000325
 20
167.0
 30
0.0
 40
11.0000000595364
  0
CIRCLE
  8
Default
 10
214.500000325
 20
204.0
 30
0.0
 40
11.0000000595364
  0
CIRCLE
  8
Default
 10
214.500000325
 20
241.0
 30
0.0
 40
11.0000000595364
  0
CIRCLE
  8
Default
 10
214.500000325
 20
278.0
 30
0.0
 40
11.0000000595364
  0
CIRCLE
  8
Default
 10
214.500000325
 20
315.0
 30
0.0
 40
11.0000000595364
  0
CIRCLE
  8
Default
 10
214.500000325
 20
352.0
 30
0.0
 40
11.0000000595364
  0
CIRCLE
  8
Default
 10
214.500000325
 20
389.0
 30
0.0
 40
11.0000000595364
  0
CIRCLE
  8
Default
 10
214.500000325
 20
426.0
 30
0.0
 40
11.0000000595364
  0
CIRCLE
  8
Default
 10
214.500000325
 20
463.0
 30
0.0
 40
11.0000000595364
  0
CIRCLE
  8
Default
 10
214.500000325
 20
500.0
 30
0.0
 40
11.0000000595364
  0
CIRCLE
  8
Default
 10
214.500000325
 20
537.0
 30
0.0
 40
11.0000000595364
  0
CIRCLE
  8
Default
 10
214.500000325
 20
574.0
 30
0.0
 40
11.0000000595364
  0
CIRCLE
  8
Default
 10
214.500000325
 20
611.0
 30
0.0
 40
11.0000000595364
  0
CIRCLE
  8
Default
 10
214.500000325
 20
648.0
 30
0.0
 40
11.0000000595364
  0
CIRCLE
  8
Default
 10
214.500000325
 20
685.0
 30
0.0
 40
11.0000000595364
  0
CIRCLE
  8
Default
 10
214.500000325
 20
722.0
 30
0.0
 40
11.0000000595364
  0
CIRCLE
  8
Default
 10
214.500000325
 20
759.0
 30
0.0
 40
11.0000000595364
  0
CIRCLE
  8
Default
 10
214.500000325
 20
796.0
 30
0.0
 40
11.0000000595364
  0
CIRCLE
  8
Default
 10
214.500000325
 20
833.0
 30
0.0
 40
11.0000000595364
  0
CIRCLE
  8
Default
 10
214.500000325
 20
870.0
 30
0.0
 40
11.0000000595364
  0
CIRCLE
  8
Default
 10
214.500000325
 20
907.0
 30
0.0
 40
11.0000000595364
  0
CIRCLE
  8
Default
 10
214.500000325
 20
944.0
 30
0.0
 40
11.0000000595364
  0
CIRCLE
  8
Default
 10
285.500000975
 20
-962.0
 30
0.0
 40
11.0000000595364
  0
CIRCLE
  8
Default
 10
285.500000975
 20
-925.0
 30
0.0
 40
11.0000000595364
  0
CIRCLE
  8
Default
 10
285.500000975
 20
-888.0
 30
0.0
 40
11.0000000595364
  0
CIRCLE
  8
Default
 10
285.500000975
 20
-851.0
 30
0.0
 40
11.0000000595364
  0
CIRCLE
  8
Default
 10
285.500000975
 20
-814.0
 30
0.0
 40
11.0000000595364
  0
CIRCLE
  8
Default
 10
285.500000975
 20
-777.0
 30
0.0
 40
11.0000000595364
  0
CIRCLE
  8
Default
 10
285.500000975
 20
-740.0
 30
0.0
 40
11.0000000595364
  0
CIRCLE
  8
Default
 10
285.500000975
 20
-703.0
 30
0.0
 40
11.0000000595364
  0
CIRCLE
  8
Default
 10
285.500000975
 20
-666.0
 30
0.0
 40
11.0000000595364
  0
CIRCLE
  8
Default
 10
285.500000975
 20
-629.0
 30
0.0
 40
11.0000000595364
  0
CIRCLE
  8
Default
 10
285.500000975
 20
-592.0
 30
0.0
 40
11.0000000595364
  0
CIRCLE
  8
Default
 10
285.500000975
 20
-555.0
 30
0.0
 40
11.0000000595364
  0
CIRCLE
  8
Default
 10
285.500000975
 20
-518.0
 30
0.0
 40
11.0000000595364
  0
CIRCLE
  8
Default
 10
285.500000975
 20
-481.0
 30
0.0
 40
11.0000000595364
  0
CIRCLE
  8
Default
 10
285.500000975
 20
-444.0
 30
0.0
 40
11.0000000595364
  0
CIRCLE
  8
Default
 10
285.500000975
 20
-407.0
 30
0.0
 40
11.0000000595364
  0
CIRCLE
  8
Default
 10
285.500000975
 20
-370.0
 30
0.0
 40
11.0000000595364
  0
CIRCLE
  8
Default
 10
285.500000975
 20
-333.0
 30
0.0
 40
11.0000000595364
  0
CIRCLE
  8
Default
 10
285.500000975
 20
-296.0
 30
0.0
 40
11.0000000595364
  0
CIRCLE
  8
Default
 10
285.500000975
 20
-259.0
 30
0.0
 40
11.0000000595364
  0
CIRCLE
  8
Default
 10
285.500000975
 20
-222.0
 30
0.0
 40
11.0000000595364
  0
CIRCLE
  8
Default
 10
285.500000975
 20
-185.0
 30
0.0
 40
11.0000000595364
  0
CIRCLE
  8
Default
 10
285.500000975
 20
-148.0
 30
0.0
 40
11.0000000595364
  0
CIRCLE
  8
Default
 10
285.500000975
 20
-111.0
 30
0.0
 40
11.0000000595364
  0
CIRCLE
  8
Default
 10
285.500000975
 20
-74.0
 30
0.0
 40
11.0000000595364
  0
CIRCLE
  8
Default
 10
285.500000975
 20
-37.0
 30
0.0
 40
11.0000000595364
  0
CIRCLE
  8
Default
 10
285.500000975
 20
0.0
 30
0.0
 40
11.0000000595364
  0
CIRCLE
  8
Default
 10
285.500000975
 20
37.0
 30
0.0
 40
11.0000000595364
  0
CIRCLE
  8
Default
 10
285.500000975
 20
74.0
 30
0.0
 40
11.0000000595364
  0
CIRCLE
  8
Default
 10
285.500000975
 20
111.0
 30
0.0
 40
11.0000000595364
  0
CIRCLE
  8
Default
 10
285.500000975
 20
148.0
 30
0.0
 40
11.0000000595364
  0
CIRCLE
  8
Default
 10
285.500000975
 20
185.0
 30
0.0
 40
11.0000000595364
  0
CIRCLE
  8
Default
 10
285.500000975
 20
222.0
 30
0.0
 40
11.0000000595364
  0
CIRCLE
  8
Default
 10
285.500000975
 20
259.0
 30
0.0
 40
11.0000000595364
  0
CIRCLE
  8
Default
 10
285.500000975
 20
296.0
 30
0.0
 40
11.0000000595364
  0
CIRCLE
  8
Default
 10
285.500000975
 20
333.0
 30
0.0
 40
11.0000000595364
  0
CIRCLE
  8
Default
 10
285.500000975
 20
370.0
 30
0.0
 40
11.0000000595364
  0
CIRCLE
  8
Default
 10
285.500000975
 20
407.0
 30
0.0
 40
11.0000000595364
  0
CIRCLE
  8
Default
 10
285.500000975
 20
444.0
 30
0.0
 40
11.0000000595364
  0
CIRCLE
  8
Default
 10
285.500000975
 20
481.0
 30
0.0
 40
11.0000000595364
  0
CIRCLE
  8
Default
 10
285.500000975
 20
518.0
 30
0.0
 40
11.0000000595364
  0
CIRCLE
  8
Default
 10
285.500000975
 20
555.0
 30
0.0
 40
11.0000000595364
  0
CIRCLE
  8
Default
 10
285.500000975
 20
592.0
 30
0.0
 40
11.0000000595364
  0
CIRCLE
  8
Default
 10
285.500000975
 20
629.0
 30
0.0
 40
11.0000000595364
  0
CIRCLE
  8
Default
 10
285.500000975
 20
666.0
 30
0.0
 40
11.0000000595364
  0
CIRCLE
  8
Default
 10
285.500000975
 20
703.0
 30
0.0
 40
11.0000000595364
  0
CIRCLE
  8
Default
 10
285.500000975
 20
740.0
 30
0.0
 40
11.0000000595364
  0
CIRCLE
  8
Default
 10
285.500000975
 20
777.0
 30
0.0
 40
11.0000000595364
  0
CIRCLE
  8
Default
 10
285.500000975
 20
814.0
 30
0.0
 40
11.0000000595364
  0
CIRCLE
  8
Default
 10
285.500000975
 20
851.0
 30
0.0
 40
11.0000000595364
  0
CIRCLE
  8
Default
 10
285.500000975
 20
888.0
 30
0.0
 40
11.0000000595364
  0
CIRCLE
  8
Default
 10
285.500000975
 20
925.0
 30
0.0
 40
11.0000000595364
  0
CIRCLE
  8
Default
 10
285.500000975
 20
962.0
 30
0.0
 40
11.0000000595364
  0
CIRCLE
  8
Default
 10
321.500000975
 20
-943.0
 30
0.0
 40
11.0000000595364
  0
CIRCLE
  8
Default
 10
321.500000975
 20
-906.0
 30
0.0
 40
11.0000000595364
  0
CIRCLE
  8
Default
 10
321.500000975
 20
-869.0
 30
0.0
 40
11.0000000595364
  0
CIRCLE
  8
Default
 10
321.500000975
 20
-832.0
 30
0.0
 40
11.0000000595364
  0
CIRCLE
  8
Default
 10
321.500000975
 20
-795.0
 30
0.0
 40
11.0000000595364
  0
CIRCLE
  8
Default
 10
321.500000975
 20
-758.0
 30
0.0
 40
11.0000000595364
  0
CIRCLE
  8
Default
 10
321.500000975
 20
-721.0
 30
0.0
 40
11.0000000595364
  0
CIRCLE
  8
Default
 10
321.500000975
 20
-684.0
 30
0.0
 40
11.0000000595364
  0
CIRCLE
  8
Default
 10
321.500000975
 20
-647.0
 30
0.0
 40
11.0000000595364
  0
CIRCLE
  8
Default
 10
321.500000975
 20
-610.0
 30
0.0
 40
11.0000000595364
  0
CIRCLE
  8
Default
 10
321.500000975
 20
-573.0
 30
0.0
 40
11.0000000595364
  0
CIRCLE
  8
Default
 10
321.500000975
 20
-536.0
 30
0.0
 40
11.0000000595364
  0
CIRCLE
  8
Default
 10
321.500000975
 20
-499.0
 30
0.0
 40
11.0000000595364
  0
CIRCLE
  8
Default
 10
321.500000975
 20
-462.0
 30
0.0
 40
11.0000000595364
  0
CIRCLE
  8
Default
 10
321.500000975
 20
-425.0
 30
0.0
 40
11.0000000595364
  0
CIRCLE
  8
Default
 10
321.500000975
 20
-388.0
 30
0.0
 40
11.0000000595364
  0
CIRCLE
  8
Default
 10
321.500000975
 20
-351.0
 30
0.0
 40
11.0000000595364
  0
CIRCLE
  8
Default
 10
321.500000975
 20
-314.0
 30
0.0
 40
11.0000000595364
  0
CIRCLE
  8
Default
 10
321.500000975
 20
-277.0
 30
0.0
 40
11.0000000595364
  0
CIRCLE
  8
Default
 10
321.500000975
 20
-240.0
 30
0.0
 40
11.0000000595364
  0
CIRCLE
  8
Default
 10
321.500000975
 20
-203.0
 30
0.0
 40
11.0000000595364
  0
CIRCLE
  8
Default
 10
321.500000975
 20
-166.0
 30
0.0
 40
11.0000000595364
  0
CIRCLE
  8
Default
 10
321.500000975
 20
-129.0
 30
0.0
 40
11.0000000595364
  0
CIRCLE
  8
Default
 10
321.500000975
 20
-92.0
 30
0.0
 40
11.0000000595364
  0
CIRCLE
  8
Default
 10
321.500000975
 20
-55.0
 30
0.0
 40
11.0000000595364
  0
CIRCLE
  8
Default
 10
321.500000975
 20
-18.0
 30
0.0
 40
11.0000000595364
  0
CIRCLE
  8
Default
 10
321.500000975
 20
19.0
 30
0.0
 40
11.0000000595364
  0
CIRCLE
  8
Default
 10
321.500000975
 20
56.0
 30
0.0
 40
11.0000000595364
  0
CIRCLE
  8
Default
 10
321.500000975
 20
93.0
 30
0.0
 40
11.0000000595364
  0
CIRCLE
  8
Default
 10
321.500000975
 20
130.0
 30
0.0
 40
11.0000000595364
  0
CIRCLE
  8
Default
 10
321.500000975
 20
167.0
 30
0.0
 40
11.0000000595364
  0
CIRCLE
  8
Default
 10
321.500000975
 20
204.0
 30
0.0
 40
11.0000000595364
  0
CIRCLE
  8
Default
 10
321.500000975
 20
241.0
 30
0.0
 40
11.0000000595364
  0
CIRCLE
  8
Default
 10
321.500000975
 20
278.0
 30
0.0
 40
11.0000000595364
  0
CIRCLE
  8
Default
 10
321.500000975
 20
315.0
 30
0.0
 40
11.0000000595364
  0
CIRCLE
  8
Default
 10
321.500000975
 20
352.0
 30
0.0
 40
11.0000000595364
  0
CIRCLE
  8
Default
 10
321.500000975
 20
389.0
 30
0.0
 40
11.0000000595364
  0
CIRCLE
  8
Default
 10
321.500000975
 20
426.0
 30
0.0
 40
11.0000000595364
  0
CIRCLE
  8
Default
 10
321.500000975
 20
463.0
 30
0.0
 40
11.0000000595364
  0
CIRCLE
  8
Default
 10
321.500000975
 20
500.0
 30
0.0
 40
11.0000000595364
  0
CIRCLE
  8
Default
 10
321.500000975
 20
537.0
 30
0.0
 40
11.0000000595364
  0
CIRCLE
  8
Default
 10
321.500000975
 20
574.0
 30
0.0
 40
11.0000000595364
  0
CIRCLE
  8
Default
 10
321.500000975
 20
611.0
 30
0.0
 40
11.0000000595364
  0
CIRCLE
  8
Default
 10
321.500000975
 20
648.0
 30
0.0
 40
11.0000000595364
  0
CIRCLE
  8
Default
 10
321.500000975
 20
685.0
 30
0.0
 40
11.0000000595364
  0
CIRCLE
  8
Default
 10
321.500000975
 20
722.0
 30
0.0
 40
11.0000000595364
  0
CIRCLE
  8
Default
 10
321.500000975
 20
759.0
 30
0.0
 40
11.0000000595364
  0
CIRCLE
  8
Default
 10
321.500000975
 20
796.0
 30
0.0
 40
11.0000000595364
  0
CIRCLE
  8
Default
 10
321.500000975
 20
833.0
 30
0.0
 40
11.0000000595364
  0
CIRCLE
  8
Default
 10
321.500000975
 20
870.0
 30
0.0
 40
11.0000000595364
  0
CIRCLE
  8
Default
 10
321.500000975
 20
907.0
 30
0.0
 40
11.0000000595364
  0
CIRCLE
  8
Default
 10
321.500000975
 20
944.0
 30
0.0
 40
11.0000000595364
  0
CIRCLE
  8
Default
 10
356.500000975
 20
-962.0
 30
0.0
 40
11.0000000595364
  0
CIRCLE
  8
Default
 10
356.500000975
 20
-925.0
 30
0.0
 40
11.0000000595364
  0
CIRCLE
  8
Default
 10
356.500000975
 20
-888.0
 30
0.0
 40
11.0000000595364
  0
CIRCLE
  8
Default
 10
356.500000975
 20
-851.0
 30
0.0
 40
11.0000000595364
  0
CIRCLE
  8
Default
 10
356.500000975
 20
-814.0
 30
0.0
 40
11.0000000595364
  0
CIRCLE
  8
Default
 10
356.500000975
 20
-777.0
 30
0.0
 40
11.0000000595364
  0
CIRCLE
  8
Default
 10
356.500000975
 20
-740.0
 30
0.0
 40
11.0000000595364
  0
CIRCLE
  8
Default
 10
356.500000975
 20
-703.0
 30
0.0
 40
11.0000000595364
  0
CIRCLE
  8
Default
 10
356.500000975
 20
-666.0
 30
0.0
 40
11.0000000595364
  0
CIRCLE
  8
Default
 10
356.500000975
 20
-629.0
 30
0.0
 40
11.0000000595364
  0
CIRCLE
  8
Default
 10
356.500000975
 20
-592.0
 30
0.0
 40
11.0000000595364
  0
CIRCLE
  8
Default
 10
356.500000975
 20
-555.0
 30
0.0
 40
11.0000000595364
  0
CIRCLE
  8
Default
 10
356.500000975
 20
-518.0
 30
0.0
 40
11.0000000595364
  0
CIRCLE
  8
Default
 10
356.500000975
 20
-481.0
 30
0.0
 40
11.0000000595364
  0
CIRCLE
  8
Default
 10
356.500000975
 20
-444.0
 30
0.0
 40
11.0000000595364
  0
CIRCLE
  8
Default
 10
356.500000975
 20
-407.0
 30
0.0
 40
11.0000000595364
  0
CIRCLE
  8
Default
 10
356.500000975
 20
-370.0
 30
0.0
 40
11.0000000595364
  0
CIRCLE
  8
Default
 10
356.500000975
 20
-333.0
 30
0.0
 40
11.0000000595364
  0
CIRCLE
  8
Default
 10
356.500000975
 20
-296.0
 30
0.0
 40
11.0000000595364
  0
CIRCLE
  8
Default
 10
356.500000975
 20
-259.0
 30
0.0
 40
11.0000000595364
  0
CIRCLE
  8
Default
 10
356.500000975
 20
-222.0
 30
0.0
 40
11.0000000595364
  0
CIRCLE
  8
Default
 10
356.500000975
 20
-185.0
 30
0.0
 40
11.0000000595364
  0
CIRCLE
  8
Default
 10
356.500000975
 20
-148.0
 30
0.0
 40
11.0000000595364
  0
CIRCLE
  8
Default
 10
356.500000975
 20
-111.0
 30
0.0
 40
11.0000000595364
  0
CIRCLE
  8
Default
 10
356.500000975
 20
-74.0
 30
0.0
 40
11.0000000595364
  0
CIRCLE
  8
Default
 10
356.500000975
 20
-37.0
 30
0.0
 40
11.0000000595364
  0
CIRCLE
  8
Default
 10
356.500000975
 20
0.0
 30
0.0
 40
11.0000000595364
  0
CIRCLE
  8
Default
 10
356.500000975
 20
37.0
 30
0.0
 40
11.0000000595364
  0
CIRCLE
  8
Default
 10
356.500000975
 20
74.0
 30
0.0
 40
11.0000000595364
  0
CIRCLE
  8
Default
 10
356.500000975
 20
111.0
 30
0.0
 40
11.0000000595364
  0
CIRCLE
  8
Default
 10
356.500000975
 20
148.0
 30
0.0
 40
11.0000000595364
  0
CIRCLE
  8
Default
 10
356.500000975
 20
185.0
 30
0.0
 40
11.0000000595364
  0
CIRCLE
  8
Default
 10
356.500000975
 20
222.0
 30
0.0
 40
11.0000000595364
  0
CIRCLE
  8
Default
 10
356.500000975
 20
259.0
 30
0.0
 40
11.0000000595364
  0
CIRCLE
  8
Default
 10
356.500000975
 20
296.0
 30
0.0
 40
11.0000000595364
  0
CIRCLE
  8
Default
 10
356.500000975
 20
333.0
 30
0.0
 40
11.0000000595364
  0
CIRCLE
  8
Default
 10
356.500000975
 20
370.0
 30
0.0
 40
11.0000000595364
  0
CIRCLE
  8
Default
 10
356.500000975
 20
407.0
 30
0.0
 40
11.0000000595364
  0
CIRCLE
  8
Default
 10
356.500000975
 20
444.0
 30
0.0
 40
11.0000000595364
  0
CIRCLE
  8
Default
 10
356.500000975
 20
481.0
 30
0.0
 40
11.0000000595364
  0
CIRCLE
  8
Default
 10
356.500000975
 20
518.0
 30
0.0
 40
11.0000000595364
  0
CIRCLE
  8
Default
 10
356.500000975
 20
555.0
 30
0.0
 40
11.0000000595364
  0
CIRCLE
  8
Default
 10
356.500000975
 20
592.0
 30
0.0
 40
11.0000000595364
  0
CIRCLE
  8
Default
 10
356.500000975
 20
629.0
 30
0.0
 40
11.0000000595364
  0
CIRCLE
  8
Default
 10
356.500000975
 20
666.0
 30
0.0
 40
11.0000000595364
  0
CIRCLE
  8
Default
 10
356.500000975
 20
703.0
 30
0.0
 40
11.0000000595364
  0
CIRCLE
  8
Default
 10
356.500000975
 20
740.0
 30
0.0
 40
11.0000000595364
  0
CIRCLE
  8
Default
 10
356.500000975
 20
777.0
 30
0.0
 40
11.0000000595364
  0
CIRCLE
  8
Default
 10
356.500000975
 20
814.0
 30
0.0
 40
11.0000000595364
  0
CIRCLE
  8
Default
 10
356.500000975
 20
851.0
 30
0.0
 40
11.0000000595364
  0
CIRCLE
  8
Default
 10
356.500000975
 20
888.0
 30
0.0
 40
11.0000000595364
  0
CIRCLE
  8
Default
 10
356.500000975
 20
925.0
 30
0.0
 40
11.0000000595364
  0
CIRCLE
  8
Default
 10
356.500000975
 20
962.0
 30
0.0
 40
11.0000000595364
  0
CIRCLE
  8
Default
 10
392.500000975
 20
-943.0
 30
0.0
 40
11.0000000595364
  0
CIRCLE
  8
Default
 10
392.500000975
 20
-906.0
 30
0.0
 40
11.0000000595364
  0
CIRCLE
  8
Default
 10
392.500000975
 20
-869.0
 30
0.0
 40
11.0000000595364
  0
CIRCLE
  8
Default
 10
392.500000975
 20
-832.0
 30
0.0
 40
11.0000000595364
  0
CIRCLE
  8
Default
 10
392.500000975
 20
-795.0
 30
0.0
 40
11.0000000595364
  0
CIRCLE
  8
Default
 10
392.500000975
 20
-758.0
 30
0.0
 40
11.0000000595364
  0
CIRCLE
  8
Default
 10
392.500000975
 20
-721.0
 30
0.0
 40
11.0000000595364
  0
CIRCLE
  8
Default
 10
392.500000975
 20
-684.0
 30
0.0
 40
11.0000000595364
  0
CIRCLE
  8
Default
 10
392.500000975
 20
-647.0
 30
0.0
 40
11.0000000595364
  0
CIRCLE
  8
Default
 10
392.500000975
 20
-610.0
 30
0.0
 40
11.0000000595364
  0
CIRCLE
  8
Default
 10
392.500000975
 20
-573.0
 30
0.0
 40
11.0000000595364
  0
CIRCLE
  8
Default
 10
392.500000975
 20
-536.0
 30
0.0
 40
11.0000000595364
  0
CIRCLE
  8
Default
 10
392.500000975
 20
-499.0
 30
0.0
 40
11.0000000595364
  0
CIRCLE
  8
Default
 10
392.500000975
 20
-462.0
 30
0.0
 40
11.0000000595364
  0
CIRCLE
  8
Default
 10
392.500000975
 20
-425.0
 30
0.0
 40
11.0000000595364
  0
CIRCLE
  8
Default
 10
392.500000975
 20
-388.0
 30
0.0
 40
11.0000000595364
  0
CIRCLE
  8
Default
 10
392.500000975
 20
-351.0
 30
0.0
 40
11.0000000595364
  0
CIRCLE
  8
Default
 10
392.500000975
 20
-314.0
 30
0.0
 40
11.0000000595364
  0
CIRCLE
  8
Default
 10
392.500000975
 20
-277.0
 30
0.0
 40
11.0000000595364
  0
CIRCLE
  8
Default
 10
392.500000975
 20
-240.0
 30
0.0
 40
11.0000000595364
  0
CIRCLE
  8
Default
 10
392.500000975
 20
-203.0
 30
0.0
 40
11.0000000595364
  0
CIRCLE
  8
Default
 10
392.500000975
 20
-166.0
 30
0.0
 40
11.0000000595364
  0
CIRCLE
  8
Default
 10
392.500000975
 20
-129.0
 30
0.0
 40
11.0000000595364
  0
CIRCLE
  8
Default
 10
392.500000975
 20
-92.0
 30
0.0
 40
11.0000000595364
  0
CIRCLE
  8
Default
 10
392.500000975
 20
-55.0
 30
0.0
 40
11.0000000595364
  0
CIRCLE
  8
Default
 10
392.500000975
 20
-18.0
 30
0.0
 40
11.0000000595364
  0
CIRCLE
  8
Default
 10
392.500000975
 20
19.0
 30
0.0
 40
11.0000000595364
  0
CIRCLE
  8
Default
 10
392.500000975
 20
56.0
 30
0.0
 40
11.0000000595364
  0
CIRCLE
  8
Default
 10
392.500000975
 20
93.0
 30
0.0
 40
11.0000000595364
  0
CIRCLE
  8
Default
 10
392.500000975
 20
130.0
 30
0.0
 40
11.0000000595364
  0
CIRCLE
  8
Default
 10
392.500000975
 20
167.0
 30
0.0
 40
11.0000000595364
  0
CIRCLE
  8
Default
 10
392.500000975
 20
204.0
 30
0.0
 40
11.0000000595364
  0
CIRCLE
  8
Default
 10
392.500000975
 20
241.0
 30
0.0
 40
11.0000000595364
  0
CIRCLE
  8
Default
 10
392.500000975
 20
278.0
 30
0.0
 40
11.0000000595364
  0
CIRCLE
  8
Default
 10
392.500000975
 20
315.0
 30
0.0
 40
11.0000000595364
  0
CIRCLE
  8
Default
 10
392.500000975
 20
352.0
 30
0.0
 40
11.0000000595364
  0
CIRCLE
  8
Default
 10
392.500000975
 20
389.0
 30
0.0
 40
11.0000000595364
  0
CIRCLE
  8
Default
 10
392.500000975
 20
426.0
 30
0.0
 40
11.0000000595364
  0
CIRCLE
  8
Default
 10
392.500000975
 20
463.0
 30
0.0
 40
11.0000000595364
  0
CIRCLE
  8
Default
 10
392.500000975
 20
500.0
 30
0.0
 40
11.0000000595364
  0
CIRCLE
  8
Default
 10
392.500000975
 20
537.0
 30
0.0
 40
11.0000000595364
  0
CIRCLE
  8
Default
 10
392.500000975
 20
574.0
 30
0.0
 40
11.0000000595364
  0
CIRCLE
  8
Default
 10
392.500000975
 20
611.0
 30
0.0
 40
11.0000000595364
  0
CIRCLE
  8
Default
 10
392.500000975
 20
648.0
 30
0.0
 40
11.0000000595364
  0
CIRCLE
  8
Default
 10
392.500000975
 20
685.0
 30
0.0
 40
11.0000000595364
  0
CIRCLE
  8
Default
 10
392.500000975
 20
722.0
 30
0.0
 40
11.0000000595364
  0
CIRCLE
  8
Default
 10
392.500000975
 20
759.0
 30
0.0
 40
11.0000000595364
  0
CIRCLE
  8
Default
 10
392.500000975
 20
796.0
 30
0.0
 40
11.0000000595364
  0
CIRCLE
  8
Default
 10
392.500000975
 20
833.0
 30
0.0
 40
11.0000000595364
  0
CIRCLE
  8
Default
 10
392.500000975
 20
870.0
 30
0.0
 40
11.0000000595364
  0
CIRCLE
  8
Default
 10
392.500000975
 20
907.0
 30
0.0
 40
11.0000000595364
  0
CIRCLE
  8
Default
 10
392.500000975
 20
944.0
 30
0.0
 40
11.0000000595364
  0
CIRCLE
  8
Default
 10
428.500000975
 20
-962.0
 30
0.0
 40
11.0000000595364
  0
CIRCLE
  8
Default
 10
428.500000975
 20
-925.0
 30
0.0
 40
11.0000000595364
  0
CIRCLE
  8
Default
 10
428.500000975
 20
-888.0
 30
0.0
 40
11.0000000595364
  0
CIRCLE
  8
Default
 10
428.500000975
 20
-851.0
 30
0.0
 40
11.0000000595364
  0
CIRCLE
  8
Default
 10
428.500000975
 20
-814.0
 30
0.0
 40
11.0000000595364
  0
CIRCLE
  8
Default
 10
428.500000975
 20
-777.0
 30
0.0
 40
11.0000000595364
  0
CIRCLE
  8
Default
 10
428.500000975
 20
-740.0
 30
0.0
 40
11.0000000595364
  0
CIRCLE
  8
Default
 10
428.500000975
 20
-703.0
 30
0.0
 40
11.0000000595364
  0
CIRCLE
  8
Default
 10
428.500000975
 20
-666.0
 30
0.0
 40
11.0000000595364
  0
CIRCLE
  8
Default
 10
428.500000975
 20
-629.0
 30
0.0
 40
11.0000000595364
  0
CIRCLE
  8
Default
 10
428.500000975
 20
-592.0
 30
0.0
 40
11.0000000595364
  0
CIRCLE
  8
Default
 10
428.500000975
 20
-555.0
 30
0.0
 40
11.0000000595364
  0
CIRCLE
  8
Default
 10
428.500000975
 20
-518.0
 30
0.0
 40
11.0000000595364
  0
CIRCLE
  8
Default
 10
428.500000975
 20
-481.0
 30
0.0
 40
11.0000000595364
  0
CIRCLE
  8
Default
 10
428.500000975
 20
-444.0
 30
0.0
 40
11.0000000595364
  0
CIRCLE
  8
Default
 10
428.500000975
 20
-407.0
 30
0.0
 40
11.0000000595364
  0
CIRCLE
  8
Default
 10
428.500000975
 20
-370.0
 30
0.0
 40
11.0000000595364
  0
CIRCLE
  8
Default
 10
428.500000975
 20
-333.0
 30
0.0
 40
11.0000000595364
  0
CIRCLE
  8
Default
 10
428.500000975
 20
-296.0
 30
0.0
 40
11.0000000595364
  0
CIRCLE
  8
Default
 10
428.500000975
 20
-259.0
 30
0.0
 40
11.0000000595364
  0
CIRCLE
  8
Default
 10
428.500000975
 20
-222.0
 30
0.0
 40
11.0000000595364
  0
CIRCLE
  8
Default
 10
428.500000975
 20
-185.0
 30
0.0
 40
11.0000000595364
  0
CIRCLE
  8
Default
 10
428.500000975
 20
-148.0
 30
0.0
 40
11.0000000595364
  0
CIRCLE
  8
Default
 10
428.500000975
 20
-111.0
 30
0.0
 40
11.0000000595364
  0
CIRCLE
  8
Default
 10
428.500000975
 20
-74.0
 30
0.0
 40
11.0000000595364
  0
CIRCLE
  8
Default
 10
428.500000975
 20
-37.0
 30
0.0
 40
11.0000000595364
  0
CIRCLE
  8
Default
 10
428.500000975
 20
0.0
 30
0.0
 40
11.0000000595364
  0
CIRCLE
  8
Default
 10
428.500000975
 20
37.0
 30
0.0
 40
11.0000000595364
  0
CIRCLE
  8
Default
 10
428.500000975
 20
74.0
 30
0.0
 40
11.0000000595364
  0
CIRCLE
  8
Default
 10
428.500000975
 20
111.0
 30
0.0
 40
11.0000000595364
  0
CIRCLE
  8
Default
 10
428.500000975
 20
148.0
 30
0.0
 40
11.0000000595364
  0
CIRCLE
  8
Default
 10
428.500000975
 20
185.0
 30
0.0
 40
11.0000000595364
  0
CIRCLE
  8
Default
 10
428.500000975
 20
222.0
 30
0.0
 40
11.0000000595364
  0
CIRCLE
  8
Default
 10
428.500000975
 20
259.0
 30
0.0
 40
11.0000000595364
  0
CIRCLE
  8
Default
 10
428.500000975
 20
296.0
 30
0.0
 40
11.0000000595364
  0
CIRCLE
  8
Default
 10
428.500000975
 20
333.0
 30
0.0
 40
11.0000000595364
  0
CIRCLE
  8
Default
 10
428.500000975
 20
370.0
 30
0.0
 40
11.0000000595364
  0
CIRCLE
  8
Default
 10
428.500000975
 20
407.0
 30
0.0
 40
11.0000000595364
  0
CIRCLE
  8
Default
 10
428.500000975
 20
444.0
 30
0.0
 40
11.0000000595364
  0
CIRCLE
  8
Default
 10
428.500000975
 20
481.0
 30
0.0
 40
11.0000000595364
  0
CIRCLE
  8
Default
 10
428.500000975
 20
518.0
 30
0.0
 40
11.0000000595364
  0
CIRCLE
  8
Default
 10
428.500000975
 20
555.0
 30
0.0
 40
11.0000000595364
  0
CIRCLE
  8
Default
 10
428.500000975
 20
592.0
 30
0.0
 40
11.0000000595364
  0
CIRCLE
  8
Default
 10
428.500000975
 20
629.0
 30
0.0
 40
11.0000000595364
  0
CIRCLE
  8
Default
 10
428.500000975
 20
666.0
 30
0.0
 40
11.0000000595364
  0
CIRCLE
  8
Default
 10
428.500000975
 20
703.0
 30
0.0
 40
11.0000000595364
  0
CIRCLE
  8
Default
 10
428.500000975
 20
740.0
 30
0.0
 40
11.0000000595364
  0
CIRCLE
  8
Default
 10
428.500000975
 20
777.0
 30
0.0
 40
11.0000000595364
  0
CIRCLE
  8
Default
 10
428.500000975
 20
814.0
 30
0.0
 40
11.0000000595364
  0
CIRCLE
  8
Default
 10
428.500000975
 20
851.0
 30
0.0
 40
11.0000000595364
  0
CIRCLE
  8
Default
 10
428.500000975
 20
888.0
 30
0.0
 40
11.0000000595364
  0
CIRCLE
  8
Default
 10
428.500000975
 20
925.0
 30
0.0
 40
11.0000000595364
  0
CIRCLE
  8
Default
 10
428.500000975
 20
962.0
 30
0.0
 40
11.0000000595364
  0
CIRCLE
  8
Default
 10
464.500000975
 20
-943.0
 30
0.0
 40
11.0000000595364
  0
CIRCLE
  8
Default
 10
464.500000975
 20
-906.0
 30
0.0
 40
11.0000000595364
  0
CIRCLE
  8
Default
 10
464.500000975
 20
-869.0
 30
0.0
 40
11.0000000595364
  0
CIRCLE
  8
Default
 10
464.500000975
 20
-832.0
 30
0.0
 40
11.0000000595364
  0
CIRCLE
  8
Default
 10
464.500000975
 20
-795.0
 30
0.0
 40
11.0000000595364
  0
CIRCLE
  8
Default
 10
464.500000975
 20
-758.0
 30
0.0
 40
11.0000000595364
  0
CIRCLE
  8
Default
 10
464.500000975
 20
-721.0
 30
0.0
 40
11.0000000595364
  0
CIRCLE
  8
Default
 10
464.500000975
 20
-684.0
 30
0.0
 40
11.0000000595364
  0
CIRCLE
  8
Default
 10
464.500000975
 20
-647.0
 30
0.0
 40
11.0000000595364
  0
CIRCLE
  8
Default
 10
464.500000975
 20
-610.0
 30
0.0
 40
11.0000000595364
  0
CIRCLE
  8
Default
 10
464.500000975
 20
-573.0
 30
0.0
 40
11.0000000595364
  0
CIRCLE
  8
Default
 10
464.500000975
 20
-536.0
 30
0.0
 40
11.0000000595364
  0
CIRCLE
  8
Default
 10
464.500000975
 20
-499.0
 30
0.0
 40
11.0000000595364
  0
CIRCLE
  8
Default
 10
464.500000975
 20
-462.0
 30
0.0
 40
11.0000000595364
  0
CIRCLE
  8
Default
 10
464.500000975
 20
-425.0
 30
0.0
 40
11.0000000595364
  0
CIRCLE
  8
Default
 10
464.500000975
 20
-388.0
 30
0.0
 40
11.0000000595364
  0
CIRCLE
  8
Default
 10
464.500000975
 20
-351.0
 30
0.0
 40
11.0000000595364
  0
CIRCLE
  8
Default
 10
464.500000975
 20
-314.0
 30
0.0
 40
11.0000000595364
  0
CIRCLE
  8
Default
 10
464.500000975
 20
-277.0
 30
0.0
 40
11.0000000595364
  0
CIRCLE
  8
Default
 10
464.500000975
 20
-240.0
 30
0.0
 40
11.0000000595364
  0
CIRCLE
  8
Default
 10
464.500000975
 20
-203.0
 30
0.0
 40
11.0000000595364
  0
CIRCLE
  8
Default
 10
464.500000975
 20
-166.0
 30
0.0
 40
11.0000000595364
  0
CIRCLE
  8
Default
 10
464.500000975
 20
-129.0
 30
0.0
 40
11.0000000595364
  0
CIRCLE
  8
Default
 10
464.500000975
 20
-92.0
 30
0.0
 40
11.0000000595364
  0
CIRCLE
  8
Default
 10
464.500000975
 20
-55.0
 30
0.0
 40
11.0000000595364
  0
CIRCLE
  8
Default
 10
464.500000975
 20
-18.0
 30
0.0
 40
11.0000000595364
  0
CIRCLE
  8
Default
 10
464.500000975
 20
19.0
 30
0.0
 40
11.0000000595364
  0
CIRCLE
  8
Default
 10
464.500000975
 20
56.0
 30
0.0
 40
11.0000000595364
  0
CIRCLE
  8
Default
 10
464.500000975
 20
93.0
 30
0.0
 40
11.0000000595364
  0
CIRCLE
  8
Default
 10
464.500000975
 20
130.0
 30
0.0
 40
11.0000000595364
  0
CIRCLE
  8
Default
 10
464.500000975
 20
167.0
 30
0.0
 40
11.0000000595364
  0
CIRCLE
  8
Default
 10
464.500000975
 20
204.0
 30
0.0
 40
11.0000000595364
  0
CIRCLE
  8
Default
 10
464.500000975
 20
241.0
 30
0.0
 40
11.0000000595364
  0
CIRCLE
  8
Default
 10
464.500000975
 20
278.0
 30
0.0
 40
11.0000000595364
  0
CIRCLE
  8
Default
 10
464.500000975
 20
315.0
 30
0.0
 40
11.0000000595364
  0
CIRCLE
  8
Default
 10
464.500000975
 20
352.0
 30
0.0
 40
11.0000000595364
  0
CIRCLE
  8
Default
 10
464.500000975
 20
389.0
 30
0.0
 40
11.0000000595364
  0
CIRCLE
  8
Default
 10
464.500000975
 20
426.0
 30
0.0
 40
11.0000000595364
  0
CIRCLE
  8
Default
 10
464.500000975
 20
463.0
 30
0.0
 40
11.0000000595364
  0
CIRCLE
  8
Default
 10
464.500000975
 20
500.0
 30
0.0
 40
11.0000000595364
  0
CIRCLE
  8
Default
 10
464.500000975
 20
537.0
 30
0.0
 40
11.0000000595364
  0
CIRCLE
  8
Default
 10
464.500000975
 20
574.0
 30
0.0
 40
11.0000000595364
  0
CIRCLE
  8
Default
 10
464.500000975
 20
611.0
 30
0.0
 40
11.0000000595364
  0
CIRCLE
  8
Default
 10
464.500000975
 20
648.0
 30
0.0
 40
11.0000000595364
  0
CIRCLE
  8
Default
 10
464.500000975
 20
685.0
 30
0.0
 40
11.0000000595364
  0
CIRCLE
  8
Default
 10
464.500000975
 20
722.0
 30
0.0
 40
11.0000000595364
  0
CIRCLE
  8
Default
 10
464.500000975
 20
759.0
 30
0.0
 40
11.0000000595364
  0
CIRCLE
  8
Default
 10
464.500000975
 20
796.0
 30
0.0
 40
11.0000000595364
  0
CIRCLE
  8
Default
 10
464.500000975
 20
833.0
 30
0.0
 40
11.0000000595364
  0
CIRCLE
  8
Default
 10
464.500000975
 20
870.0
 30
0.0
 40
11.0000000595364
  0
CIRCLE
  8
Default
 10
464.500000975
 20
907.0
 30
0.0
 40
11.0000000595364
  0
CIRCLE
  8
Default
 10
464.500000975
 20
944.0
 30
0.0
 40
11.0000000595364
  0
POLYLINE
  8
Default
 66
     1
 10
0.0
 20
0.0
 30
0.0
 70
     0
  0
VERTEX
  8
Default
 10
250.00000065
 20
-1000.000000125
 42
0.0
  0
VERTEX
  8
Default
 10
250.00000065
 20
1000.000000125
 42
0.0
  0
SEQEND
  0
POLYLINE
  8
Default
 66
     1
 10
0.0
 20
0.0
 30
0.0
 70
     0
  0
VERTEX
  8
Default
 10
0.0
 20
-1000.000000125
 42
0.0
  0
VERTEX
  8
Default
 10
0.0
 20
1000.000000125
 42
0.0
  0
SEQEND
  0
POLYLINE
  8
Default
 66
     1
 10
0.0
 20
0.0
 30
0.0
 70
     1
  0
VERTEX
  8
Default
 10
0.0
 20
-1000.000000125
 42
0.0
  0
VERTEX
  8
Default
 10
500.0000013
 20
-1000.000000125
 42
0.0
  0
VERTEX
  8
Default
 10
500.0000013
 20
1000.000000125
 42
0.0
  0
VERTEX
  8
Default
 10
-500.0000013
 20
1000.000000125
 42
0.0
  0
VERTEX
  8
Default
 10
-500.0000013
 20
-1000.000000125
 42
0.0
  0
SEQEND
  0
ENDSEC
  0
EOF
