  0
SECTION
  2
HEADER
  9
$ACADVER
  1
AC1009
  9
$EXTMAX
 10
1000.0
 20
2000.0
 30
0.0
  9
$EXTMIN
 10
0.0
 20
0.0
 30
0.0
  9
$INSUNITS
 70
     4
  9
$LUNITS
 70
     2
  9
$LUPREC
 70
     4
  9
$MEASUREMENT
 70
     1
  0
ENDSEC
  0
SECTION
  2
TABLES
  0
TABLE
  2
LAYER
 70
     1
  0
LAYER
  2
0
 70
     0
 62
    70
  6
Continuous
  0
LAYER
  2
Layer_1
 70
     0
 62
    70
  6
Continuous
  0
ENDTAB
  0
TABLE
  2
APPID
 70
     1
  0
APPID
  2
ACAD
 70
     0
  0
ENDTAB
  0
ENDSEC
  0
SECTION
  2
ENTITIES
  0
POLYLINE
  8
Layer_1
 66
     1
 10
0.0
 20
0.0
 30
0.0
 70
     1
  0
VERTEX
  8
Layer_1
 10
703.08822708064
 20
1393.07194194817
 42
-0.0249601769839
  0
VERTEX
  8
Layer_1
 10
683.737023884536
 20
1364.13730742242
 42
0.0
  0
VERTEX
  8
Layer_1
 10
677.27165369412
 20
1370.7745675429
 42
0.0
  0
VERTEX
  8
Layer_1
 10
701.039901966971
 20
1395.17472433965
 42
0.0
  0
SEQEND
  0
POLYLINE
  8
Layer_1
 66
     1
 10
0.0
 20
0.0
 30
0.0
 70
     1
  0
VERTEX
  8
Layer_1
 10
671.579917797038
 20
1348.73564377829
 42
-0.026261079901
  0
VERTEX
  8
Layer_1
 10
648.366431850475
 20
1323.76597560694
 42
0.0
  0
VERTEX
  8
Layer_1
 10
639.92345477932
 20
1332.43341975351
 42
0.0
  0
VERTEX
  8
Layer_1
 10
663.691703052169
 20
1356.83357655029
 42
0.0
  0
SEQEND
  0
POLYLINE
  8
Layer_1
 66
     1
 10
0.0
 20
0.0
 30
0.0
 70
     1
  0
VERTEX
  8
Layer_1
 10
602.575255864518
 20
1294.09227196417
 42
0.0
  0
VERTEX
  8
Layer_1
 10
626.343504137361
 20
1318.49242876093
 42
0.0
  0
VERTEX
  8
Layer_1
 10
633.972675178157
 20
1310.66042669297
 42
-0.0284297959922
  0
VERTEX
  8
Layer_1
 10
606.699340810668
 20
1289.8585430762
 42
0.0
  0
SEQEND
  0
POLYLINE
  8
Layer_1
 66
     1
 10
0.0
 20
0.0
 30
0.0
 70
     1
  0
VERTEX
  8
Layer_1
 10
937.245631907224
 20
1816.55100650038
 42
0.0
  0
VERTEX
  8
Layer_1
 10
916.693897829445
 20
1837.6491340606
 42
0.0
  0
VERTEX
  8
Layer_1
 10
957.797365985015
 20
1837.6491340606
 42
0.0
  0
SEQEND
  0
POLYLINE
  8
Layer_1
 66
     1
 10
0.0
 20
0.0
 30
0.0
 70
     1
  0
VERTEX
  8
Layer_1
 10
713.156438418419
 20
1816.55100650038
 42
0.0
  0
VERTEX
  8
Layer_1
 10
692.604704340638
 20
1837.64913406059
 42
0.0
  0
VERTEX
  8
Layer_1
 10
733.708172496205
 20
1837.6491340606
 42
0.0
  0
SEQEND
  0
POLYLINE
  8
Layer_1
 66
     1
 10
0.0
 20
0.0
 30
0.0
 70
     1
  0
VERTEX
  8
Layer_1
 10
563.763642759208
 20
1816.55100650039
 42
0.0
  0
VERTEX
  8
Layer_1
 10
543.211908681443
 20
1837.64913406061
 42
0.0
  0
VERTEX
  8
Layer_1
 10
584.31537683701
 20
1837.6491340606
 42
0.0
  0
SEQEND
  0
POLYLINE
  8
Layer_1
 66
     1
 10
0.0
 20
0.0
 30
0.0
 70
     1
  0
VERTEX
  8
Layer_1
 10
862.549234077616
 20
1816.55100650038
 42
0.0
  0
VERTEX
  8
Layer_1
 10
841.997499999848
 20
1837.6491340606
 42
0.0
  0
VERTEX
  8
Layer_1
 10
883.100968155412
 20
1837.6491340606
 42
0.0
  0
SEQEND
  0
POLYLINE
  8
Layer_1
 66
     1
 10
0.0
 20
0.0
 30
0.0
 70
     1
  0
VERTEX
  8
Layer_1
 10
787.852836248013
 20
1816.55100650038
 42
0.0
  0
VERTEX
  8
Layer_1
 10
767.301102170239
 20
1837.64913406059
 42
0.0
  0
VERTEX
  8
Layer_1
 10
808.404570325802
 20
1837.64913406059
 42
0.0
  0
SEQEND
  0
POLYLINE
  8
Layer_1
 66
     1
 10
0.0
 20
0.0
 30
0.0
 70
     1
  0
VERTEX
  8
Layer_1
 10
638.460040588816
 20
1816.55100650039
 42
0.0
  0
VERTEX
  8
Layer_1
 10
617.908306511027
 20
1837.6491340606
 42
0.0
  0
VERTEX
  8
Layer_1
 10
659.011774666597
 20
1837.6491340606
 42
0.0
  0
SEQEND
  0
POLYLINE
  8
Layer_1
 66
     1
 10
0.0
 20
0.0
 30
0.0
 70
     1
  0
VERTEX
  8
Layer_1
 10
839.807774757031
 20
1685.38142285638
 42
0.0
  0
VERTEX
  8
Layer_1
 10
861.737051960612
 20
1707.89371724445
 42
0.0
  0
VERTEX
  8
Layer_1
 10
879.662277886428
 20
1689.4919268312
 42
0.0297912691222
  0
VERTEX
  8
Layer_1
 10
851.476306526451
 20
1673.40266861697
 42
0.0
  0
SEQEND
  0
POLYLINE
  8
Layer_1
 66
     1
 10
0.0
 20
0.0
 30
0.0
 70
     1
  0
VERTEX
  8
Layer_1
 10
802.459575842232
 20
1647.04027506701
 42
0.0
  0
VERTEX
  8
Layer_1
 10
824.388853045803
 20
1669.5525694551
 42
0.0
  0
VERTEX
  8
Layer_1
 10
833.258911686923
 20
1660.44668924234
 42
0.0267404884123
  0
VERTEX
  8
Layer_1
 10
809.431986412494
 20
1639.88249426582
 42
0.0
  0
SEQEND
  0
POLYLINE
  8
Layer_1
 66
     1
 10
0.0
 20
0.0
 30
0.0
 70
     1
  0
VERTEX
  8
Layer_1
 10
794.067290224786
 20
1623.99797368785
 42
0.0248630553761
  0
VERTEX
  8
Layer_1
 10
774.125052164497
 20
1599.44581224262
 42
0.0
  0
VERTEX
  8
Layer_1
 10
765.11137692743
 20
1608.69912727766
 42
0.0
  0
VERTEX
  8
Layer_1
 10
787.040654131011
 20
1631.21142166572
 42
0.0
  0
SEQEND
  0
POLYLINE
  8
Layer_1
 66
     1
 10
0.0
 20
0.0
 30
0.0
 70
     1
  0
VERTEX
  8
Layer_1
 10
749.692455216203
 20
1592.87027387638
 42
0.0
  0
VERTEX
  8
Layer_1
 10
761.435783721334
 20
1580.81473433675
 42
0.023954794645
  0
VERTEX
  8
Layer_1
 10
745.3135857725
 20
1552.34097224938
 42
0.0
  0
VERTEX
  8
Layer_1
 10
727.763178012629
 20
1570.35797948831
 42
0.0
  0
SEQEND
  0
POLYLINE
  8
Layer_1
 66
     1
 10
0.0
 20
0.0
 30
0.0
 70
     1
  0
VERTEX
  8
Layer_1
 10
709.600779238016
 20
1435.63865755489
 42
0.0
  0
VERTEX
  8
Layer_1
 10
690.414979097832
 20
1455.33453612023
 42
0.0
  0
VERTEX
  8
Layer_1
 10
712.344256301403
 20
1477.84683050827
 42
0.0
  0
VERTEX
  8
Layer_1
 10
716.595930907685
 20
1473.48211982993
 42
0.0254770555752
  0
SEQEND
  0
POLYLINE
  8
Layer_1
 66
     1
 10
0.0
 20
0.0
 30
0.0
 70
     1
  0
VERTEX
  8
Layer_1
 10
965.000004812997
 20
1786.47519696564
 42
0.0
  0
VERTEX
  8
Layer_1
 10
965.000004813009
 20
1816.85466500303
 42
0.0
  0
VERTEX
  8
Layer_1
 10
950.203650332107
 20
1801.66493098433
 42
0.0
  0
SEQEND
  0
POLYLINE
  8
Layer_1
 66
     1
 10
0.0
 20
0.0
 30
0.0
 70
     1
  0
VERTEX
  8
Layer_1
 10
584.880737845781
 20
1301.96994496278
 42
0.0
  0
VERTEX
  8
Layer_1
 10
562.951460642201
 20
1279.4576505747
 42
0.0
  0
VERTEX
  8
Layer_1
 10
541.022183438622
 20
1301.96994496278
 42
0.0
  0
VERTEX
  8
Layer_1
 10
562.951460642196
 20
1324.48223935083
 42
0.0
  0
SEQEND
  0
POLYLINE
  8
Layer_1
 66
     1
 10
0.0
 20
0.0
 30
0.0
 70
     1
  0
VERTEX
  8
Layer_1
 10
622.228936760583
 20
1340.31109275213
 42
0.0
  0
VERTEX
  8
Layer_1
 10
600.299659557004
 20
1317.79879836407
 42
0.0
  0
VERTEX
  8
Layer_1
 10
578.370382353424
 20
1340.31109275213
 42
0.0
  0
VERTEX
  8
Layer_1
 10
600.299659557004
 20
1362.82338714021
 42
0.0
  0
SEQEND
  0
POLYLINE
  8
Layer_1
 66
     1
 10
0.0
 20
0.0
 30
0.0
 70
     1
  0
VERTEX
  8
Layer_1
 10
584.880737845785
 20
1378.6522405415
 42
0.0
  0
VERTEX
  8
Layer_1
 10
562.951460642195
 20
1356.13994615343
 42
0.0
  0
VERTEX
  8
Layer_1
 10
541.022183438626
 20
1378.6522405415
 42
0.0
  0
VERTEX
  8
Layer_1
 10
562.951460642199
 20
1401.16453492956
 42
0.0
  0
SEQEND
  0
POLYLINE
  8
Layer_1
 66
     1
 10
0.0
 20
0.0
 30
0.0
 70
     1
  0
VERTEX
  8
Layer_1
 10
659.57713567538
 20
1378.65224054151
 42
0.0
  0
VERTEX
  8
Layer_1
 10
637.647858471808
 20
1356.13994615343
 42
0.0
  0
VERTEX
  8
Layer_1
 10
615.718581268219
 20
1378.6522405415
 42
0.0
  0
VERTEX
  8
Layer_1
 10
637.647858471806
 20
1401.16453492956
 42
0.0
  0
SEQEND
  0
POLYLINE
  8
Layer_1
 66
     1
 10
0.0
 20
0.0
 30
0.0
 70
     1
  0
VERTEX
  8
Layer_1
 10
622.228936760581
 20
1416.99338833087
 42
0.0
  0
VERTEX
  8
Layer_1
 10
600.299659557001
 20
1394.4810939428
 42
0.0
  0
VERTEX
  8
Layer_1
 10
578.370382353422
 20
1416.99338833087
 42
0.0
  0
VERTEX
  8
Layer_1
 10
600.299659556999
 20
1439.50568271894
 42
0.0
  0
SEQEND
  0
POLYLINE
  8
Layer_1
 66
     1
 10
0.0
 20
0.0
 30
0.0
 70
     1
  0
VERTEX
  8
Layer_1
 10
696.925334590183
 20
1416.99338833086
 42
0.0
  0
VERTEX
  8
Layer_1
 10
674.996057386608
 20
1394.48109394279
 42
0.0
  0
VERTEX
  8
Layer_1
 10
653.066780183025
 20
1416.99338833086
 42
0.0
  0
VERTEX
  8
Layer_1
 10
674.99605738661
 20
1439.50568271894
 42
0.0
  0
SEQEND
  0
POLYLINE
  8
Layer_1
 66
     1
 10
0.0
 20
0.0
 30
0.0
 70
     1
  0
VERTEX
  8
Layer_1
 10
659.577135675387
 20
1455.33453612022
 42
0.0
  0
VERTEX
  8
Layer_1
 10
637.647858471807
 20
1432.82224173215
 42
0.0
  0
VERTEX
  8
Layer_1
 10
615.718581268227
 20
1455.33453612023
 42
0.0
  0
VERTEX
  8
Layer_1
 10
637.647858471808
 20
1477.84683050828
 42
0.0
  0
SEQEND
  0
POLYLINE
  8
Layer_1
 66
     1
 10
0.0
 20
0.0
 30
0.0
 70
     1
  0
VERTEX
  8
Layer_1
 10
696.925334590183
 20
1493.67568390958
 42
0.0
  0
VERTEX
  8
Layer_1
 10
674.996057386606
 20
1471.16338952151
 42
0.0
  0
VERTEX
  8
Layer_1
 10
653.066780183025
 20
1493.67568390958
 42
0.0
  0
VERTEX
  8
Layer_1
 10
674.99605738661
 20
1516.18797829766
 42
0.0
  0
SEQEND
  0
POLYLINE
  8
Layer_1
 66
     1
 10
0.0
 20
0.0
 30
0.0
 70
     1
  0
VERTEX
  8
Layer_1
 10
585.692919962793
 20
1455.65182299483
 42
0.0
  0
VERTEX
  8
Layer_1
 10
563.763642759209
 20
1433.13952860677
 42
0.0
  0
VERTEX
  8
Layer_1
 10
541.834365555635
 20
1455.65182299482
 42
0.0
  0
VERTEX
  8
Layer_1
 10
563.763642759206
 20
1478.16411738291
 42
0.0
  0
SEQEND
  0
POLYLINE
  8
Layer_1
 66
     1
 10
0.0
 20
0.0
 30
0.0
 70
     1
  0
VERTEX
  8
Layer_1
 10
734.273533504986
 20
1532.01683169895
 42
0.0
  0
VERTEX
  8
Layer_1
 10
712.344256301403
 20
1509.50453731087
 42
0.0
  0
VERTEX
  8
Layer_1
 10
690.414979097824
 20
1532.01683169896
 42
0.0
  0
VERTEX
  8
Layer_1
 10
712.344256301407
 20
1554.52912608701
 42
0.0
  0
SEQEND
  0
POLYLINE
  8
Layer_1
 66
     1
 10
0.0
 20
0.0
 30
0.0
 70
     1
  0
VERTEX
  8
Layer_1
 10
623.041118877591
 20
1493.99297078419
 42
0.0
  0
VERTEX
  8
Layer_1
 10
601.11184167401
 20
1471.48067639614
 42
0.0
  0
VERTEX
  8
Layer_1
 10
579.182564470431
 20
1493.9929707842
 42
0.0
  0
VERTEX
  8
Layer_1
 10
601.111841674008
 20
1516.50526517226
 42
0.0
  0
SEQEND
  0
POLYLINE
  8
Layer_1
 66
     1
 10
0.0
 20
0.0
 30
0.0
 70
     1
  0
VERTEX
  8
Layer_1
 10
585.692919962793
 20
1532.33411857354
 42
0.0
  0
VERTEX
  8
Layer_1
 10
563.763642759209
 20
1509.82182418549
 42
0.0
  0
VERTEX
  8
Layer_1
 10
541.834365555634
 20
1532.33411857354
 42
0.0
  0
VERTEX
  8
Layer_1
 10
563.763642759212
 20
1554.84641296163
 42
0.0
  0
SEQEND
  0
POLYLINE
  8
Layer_1
 66
     1
 10
0.0
 20
0.0
 30
0.0
 70
     1
  0
VERTEX
  8
Layer_1
 10
660.389317792392
 20
1532.33411857354
 42
0.0
  0
VERTEX
  8
Layer_1
 10
638.460040588815
 20
1509.82182418549
 42
0.0
  0
VERTEX
  8
Layer_1
 10
616.53076338523
 20
1532.33411857354
 42
0.0
  0
VERTEX
  8
Layer_1
 10
638.460040588816
 20
1554.84641296163
 42
0.0
  0
SEQEND
  0
POLYLINE
  8
Layer_1
 66
     1
 10
0.0
 20
0.0
 30
0.0
 70
     1
  0
VERTEX
  8
Layer_1
 10
623.041118877593
 20
1570.67526636292
 42
0.0
  0
VERTEX
  8
Layer_1
 10
601.11184167401
 20
1548.16297197484
 42
0.0
  0
VERTEX
  8
Layer_1
 10
579.182564470433
 20
1570.67526636292
 42
0.0
  0
VERTEX
  8
Layer_1
 10
601.111841674012
 20
1593.18756075099
 42
0.0
  0
SEQEND
  0
POLYLINE
  8
Layer_1
 66
     1
 10
0.0
 20
0.0
 30
0.0
 70
     1
  0
VERTEX
  8
Layer_1
 10
697.737516707192
 20
1570.67526636292
 42
0.0
  0
VERTEX
  8
Layer_1
 10
675.80823950362
 20
1548.16297197485
 42
0.0
  0
VERTEX
  8
Layer_1
 10
653.878962300034
 20
1570.67526636292
 42
0.0
  0
VERTEX
  8
Layer_1
 10
675.808239503615
 20
1593.187560751
 42
0.0
  0
SEQEND
  0
POLYLINE
  8
Layer_1
 66
     1
 10
0.0
 20
0.0
 30
0.0
 70
     1
  0
VERTEX
  8
Layer_1
 10
585.692919962789
 20
1609.01641415227
 42
0.0
  0
VERTEX
  8
Layer_1
 10
563.763642759205
 20
1586.50411976422
 42
0.0
  0
VERTEX
  8
Layer_1
 10
541.834365555634
 20
1609.01641415228
 42
0.0
  0
VERTEX
  8
Layer_1
 10
563.763642759207
 20
1631.52870854035
 42
0.0
  0
SEQEND
  0
POLYLINE
  8
Layer_1
 66
     1
 10
0.0
 20
0.0
 30
0.0
 70
     1
  0
VERTEX
  8
Layer_1
 10
660.389317792393
 20
1609.01641415227
 42
0.0
  0
VERTEX
  8
Layer_1
 10
638.460040588816
 20
1586.50411976422
 42
0.0
  0
VERTEX
  8
Layer_1
 10
616.530763385232
 20
1609.01641415227
 42
0.0
  0
VERTEX
  8
Layer_1
 10
638.460040588813
 20
1631.52870854035
 42
0.0
  0
SEQEND
  0
POLYLINE
  8
Layer_1
 66
     1
 10
0.0
 20
0.0
 30
0.0
 70
     1
  0
VERTEX
  8
Layer_1
 10
735.085715621994
 20
1609.01641415227
 42
0.0
  0
VERTEX
  8
Layer_1
 10
713.156438418419
 20
1586.50411976422
 42
0.0
  0
VERTEX
  8
Layer_1
 10
691.227161214832
 20
1609.01641415227
 42
0.0
  0
VERTEX
  8
Layer_1
 10
713.156438418416
 20
1631.52870854036
 42
0.0
  0
SEQEND
  0
POLYLINE
  8
Layer_1
 66
     1
 10
0.0
 20
0.0
 30
0.0
 70
     1
  0
VERTEX
  8
Layer_1
 10
623.041118877594
 20
1647.35756194165
 42
0.0
  0
VERTEX
  8
Layer_1
 10
601.11184167401
 20
1624.84526755357
 42
0.0
  0
VERTEX
  8
Layer_1
 10
579.182564470431
 20
1647.35756194165
 42
0.0
  0
VERTEX
  8
Layer_1
 10
601.11184167401
 20
1669.86985632971
 42
0.0
  0
SEQEND
  0
POLYLINE
  8
Layer_1
 66
     1
 10
0.0
 20
0.0
 30
0.0
 70
     1
  0
VERTEX
  8
Layer_1
 10
697.73751670719
 20
1647.35756194164
 42
0.0
  0
VERTEX
  8
Layer_1
 10
675.808239503619
 20
1624.84526755358
 42
0.0
  0
VERTEX
  8
Layer_1
 10
653.878962300034
 20
1647.35756194165
 42
0.0
  0
VERTEX
  8
Layer_1
 10
675.808239503622
 20
1669.86985632971
 42
0.0
  0
SEQEND
  0
POLYLINE
  8
Layer_1
 66
     1
 10
0.0
 20
0.0
 30
0.0
 70
     1
  0
VERTEX
  8
Layer_1
 10
772.433914536792
 20
1647.35756194165
 42
0.0
  0
VERTEX
  8
Layer_1
 10
750.504637333211
 20
1624.84526755357
 42
0.0
  0
VERTEX
  8
Layer_1
 10
728.57536012964
 20
1647.35756194165
 42
0.0
  0
VERTEX
  8
Layer_1
 10
750.504637333214
 20
1669.86985632971
 42
0.0
  0
SEQEND
  0
POLYLINE
  8
Layer_1
 66
     1
 10
0.0
 20
0.0
 30
0.0
 70
     1
  0
VERTEX
  8
Layer_1
 10
921.01452807899
 20
1723.72257064574
 42
0.0
  0
VERTEX
  8
Layer_1
 10
899.085250875416
 20
1701.21027625768
 42
0.0
  0
VERTEX
  8
Layer_1
 10
877.155973671829
 20
1723.72257064574
 42
0.0
  0
VERTEX
  8
Layer_1
 10
899.085250875414
 20
1746.23486503381
 42
0.0
  0
SEQEND
  0
POLYLINE
  8
Layer_1
 66
     1
 10
0.0
 20
0.0
 30
0.0
 70
     1
  0
VERTEX
  8
Layer_1
 10
585.692919962789
 20
1685.69870973099
 42
0.0
  0
VERTEX
  8
Layer_1
 10
563.763642759207
 20
1663.18641534294
 42
0.0
  0
VERTEX
  8
Layer_1
 10
541.834365555635
 20
1685.69870973099
 42
0.0
  0
VERTEX
  8
Layer_1
 10
563.763642759208
 20
1708.21100411908
 42
0.0
  0
SEQEND
  0
POLYLINE
  8
Layer_1
 66
     1
 10
0.0
 20
0.0
 30
0.0
 70
     1
  0
VERTEX
  8
Layer_1
 10
660.389317792393
 20
1685.69870973099
 42
0.0
  0
VERTEX
  8
Layer_1
 10
638.460040588819
 20
1663.18641534295
 42
0.0
  0
VERTEX
  8
Layer_1
 10
616.530763385235
 20
1685.69870973099
 42
0.0
  0
VERTEX
  8
Layer_1
 10
638.460040588814
 20
1708.21100411908
 42
0.0
  0
SEQEND
  0
POLYLINE
  8
Layer_1
 66
     1
 10
0.0
 20
0.0
 30
0.0
 70
     1
  0
VERTEX
  8
Layer_1
 10
735.085715621988
 20
1685.69870973099
 42
0.0
  0
VERTEX
  8
Layer_1
 10
713.156438418421
 20
1663.18641534294
 42
0.0
  0
VERTEX
  8
Layer_1
 10
691.227161214833
 20
1685.69870973099
 42
0.0
  0
VERTEX
  8
Layer_1
 10
713.156438418416
 20
1708.21100411908
 42
0.0
  0
SEQEND
  0
POLYLINE
  8
Layer_1
 66
     1
 10
0.0
 20
0.0
 30
0.0
 70
     1
  0
VERTEX
  8
Layer_1
 10
809.782113451601
 20
1685.69870973099
 42
0.0
  0
VERTEX
  8
Layer_1
 10
787.852836248018
 20
1663.18641534295
 42
0.0
  0
VERTEX
  8
Layer_1
 10
765.923559044439
 20
1685.69870973099
 42
0.0
  0
VERTEX
  8
Layer_1
 10
787.852836248013
 20
1708.21100411908
 42
0.0
  0
SEQEND
  0
POLYLINE
  8
Layer_1
 66
     1
 10
0.0
 20
0.0
 30
0.0
 70
     1
  0
VERTEX
  8
Layer_1
 10
958.362726993792
 20
1762.0637184351
 42
0.0
  0
VERTEX
  8
Layer_1
 10
936.433449790217
 20
1739.55142404704
 42
0.0
  0
VERTEX
  8
Layer_1
 10
914.504172586636
 20
1762.0637184351
 42
0.0
  0
VERTEX
  8
Layer_1
 10
936.433449790222
 20
1784.57601282317
 42
0.0
  0
SEQEND
  0
POLYLINE
  8
Layer_1
 66
     1
 10
0.0
 20
0.0
 30
0.0
 70
     1
  0
VERTEX
  8
Layer_1
 10
623.041118877593
 20
1724.03985752037
 42
0.0
  0
VERTEX
  8
Layer_1
 10
601.111841674008
 20
1701.52756313229
 42
0.0
  0
VERTEX
  8
Layer_1
 10
579.182564470436
 20
1724.03985752037
 42
0.0
  0
VERTEX
  8
Layer_1
 10
601.111841674005
 20
1746.55215190844
 42
0.0
  0
SEQEND
  0
POLYLINE
  8
Layer_1
 66
     1
 10
0.0
 20
0.0
 30
0.0
 70
     1
  0
VERTEX
  8
Layer_1
 10
697.737516707197
 20
1724.03985752037
 42
0.0
  0
VERTEX
  8
Layer_1
 10
675.80823950362
 20
1701.52756313229
 42
0.0
  0
VERTEX
  8
Layer_1
 10
653.878962300035
 20
1724.03985752037
 42
0.0
  0
VERTEX
  8
Layer_1
 10
675.808239503619
 20
1746.55215190844
 42
0.0
  0
SEQEND
  0
POLYLINE
  8
Layer_1
 66
     1
 10
0.0
 20
0.0
 30
0.0
 70
     1
  0
VERTEX
  8
Layer_1
 10
772.433914536792
 20
1724.03985752037
 42
0.0
  0
VERTEX
  8
Layer_1
 10
750.504637333221
 20
1701.52756313229
 42
0.0
  0
VERTEX
  8
Layer_1
 10
728.575360129642
 20
1724.03985752037
 42
0.0
  0
VERTEX
  8
Layer_1
 10
750.504637333213
 20
1746.55215190844
 42
0.0
  0
SEQEND
  0
POLYLINE
  8
Layer_1
 66
     1
 10
0.0
 20
0.0
 30
0.0
 70
     1
  0
VERTEX
  8
Layer_1
 10
847.130312366405
 20
1724.03985752037
 42
0.0
  0
VERTEX
  8
Layer_1
 10
825.201035162821
 20
1701.52756313229
 42
0.0
  0
VERTEX
  8
Layer_1
 10
803.271757959239
 20
1724.03985752037
 42
0.0
  0
VERTEX
  8
Layer_1
 10
825.201035162816
 20
1746.55215190844
 42
0.0
  0
SEQEND
  0
POLYLINE
  8
Layer_1
 66
     1
 10
0.0
 20
0.0
 30
0.0
 70
     1
  0
VERTEX
  8
Layer_1
 10
585.69291996279
 20
1762.38100530973
 42
0.0
  0
VERTEX
  8
Layer_1
 10
563.763642759209
 20
1739.86871092167
 42
0.0
  0
VERTEX
  8
Layer_1
 10
541.834365555628
 20
1762.38100530973
 42
0.0
  0
VERTEX
  8
Layer_1
 10
563.763642759205
 20
1784.89329969779
 42
0.0
  0
SEQEND
  0
POLYLINE
  8
Layer_1
 66
     1
 10
0.0
 20
0.0
 30
0.0
 70
     1
  0
VERTEX
  8
Layer_1
 10
660.389317792391
 20
1762.38100530972
 42
0.0
  0
VERTEX
  8
Layer_1
 10
638.460040588815
 20
1739.86871092167
 42
0.0
  0
VERTEX
  8
Layer_1
 10
616.530763385235
 20
1762.38100530972
 42
0.0
  0
VERTEX
  8
Layer_1
 10
638.460040588816
 20
1784.8932996978
 42
0.0
  0
SEQEND
  0
POLYLINE
  8
Layer_1
 66
     1
 10
0.0
 20
0.0
 30
0.0
 70
     1
  0
VERTEX
  8
Layer_1
 10
735.085715621992
 20
1762.38100530973
 42
0.0
  0
VERTEX
  8
Layer_1
 10
713.156438418417
 20
1739.86871092167
 42
0.0
  0
VERTEX
  8
Layer_1
 10
691.227161214836
 20
1762.38100530972
 42
0.0
  0
VERTEX
  8
Layer_1
 10
713.156438418417
 20
1784.89329969779
 42
0.0
  0
SEQEND
  0
POLYLINE
  8
Layer_1
 66
     1
 10
0.0
 20
0.0
 30
0.0
 70
     1
  0
VERTEX
  8
Layer_1
 10
809.7821134516
 20
1762.38100530973
 42
0.0
  0
VERTEX
  8
Layer_1
 10
787.852836248013
 20
1739.86871092167
 42
0.0
  0
VERTEX
  8
Layer_1
 10
765.923559044442
 20
1762.38100530973
 42
0.0
  0
VERTEX
  8
Layer_1
 10
787.852836248018
 20
1784.8932996978
 42
0.0
  0
SEQEND
  0
POLYLINE
  8
Layer_1
 66
     1
 10
0.0
 20
0.0
 30
0.0
 70
     1
  0
VERTEX
  8
Layer_1
 10
884.478511281203
 20
1762.38100530972
 42
0.0
  0
VERTEX
  8
Layer_1
 10
862.549234077616
 20
1739.86871092167
 42
0.0
  0
VERTEX
  8
Layer_1
 10
840.619956874041
 20
1762.38100530973
 42
0.0
  0
VERTEX
  8
Layer_1
 10
862.549234077618
 20
1784.8932996978
 42
0.0
  0
SEQEND
  0
POLYLINE
  8
Layer_1
 66
     1
 10
0.0
 20
0.0
 30
0.0
 70
     1
  0
VERTEX
  8
Layer_1
 10
623.041118877589
 20
1800.72215309908
 42
0.0
  0
VERTEX
  8
Layer_1
 10
601.11184167401
 20
1778.20985871101
 42
0.0
  0
VERTEX
  8
Layer_1
 10
579.182564470431
 20
1800.7221530991
 42
0.0
  0
VERTEX
  8
Layer_1
 10
601.11184167401
 20
1823.23444748715
 42
0.0
  0
SEQEND
  0
POLYLINE
  8
Layer_1
 66
     1
 10
0.0
 20
0.0
 30
0.0
 70
     1
  0
VERTEX
  8
Layer_1
 10
697.737516707189
 20
1800.72215309908
 42
0.0
  0
VERTEX
  8
Layer_1
 10
675.80823950362
 20
1778.20985871102
 42
0.0
  0
VERTEX
  8
Layer_1
 10
653.878962300034
 20
1800.7221530991
 42
0.0
  0
VERTEX
  8
Layer_1
 10
675.808239503615
 20
1823.23444748715
 42
0.0
  0
SEQEND
  0
POLYLINE
  8
Layer_1
 66
     1
 10
0.0
 20
0.0
 30
0.0
 70
     1
  0
VERTEX
  8
Layer_1
 10
772.433914536795
 20
1800.7221530991
 42
0.0
  0
VERTEX
  8
Layer_1
 10
750.504637333221
 20
1778.20985871101
 42
0.0
  0
VERTEX
  8
Layer_1
 10
728.575360129642
 20
1800.72215309908
 42
0.0
  0
VERTEX
  8
Layer_1
 10
750.504637333213
 20
1823.23444748715
 42
0.0
  0
SEQEND
  0
POLYLINE
  8
Layer_1
 66
     1
 10
0.0
 20
0.0
 30
0.0
 70
     1
  0
VERTEX
  8
Layer_1
 10
847.130312366404
 20
1800.72215309908
 42
0.0
  0
VERTEX
  8
Layer_1
 10
825.20103516282
 20
1778.20985871101
 42
0.0
  0
VERTEX
  8
Layer_1
 10
803.271757959239
 20
1800.72215309908
 42
0.0
  0
VERTEX
  8
Layer_1
 10
825.201035162821
 20
1823.23444748714
 42
0.0
  0
SEQEND
  0
POLYLINE
  8
Layer_1
 66
     1
 10
0.0
 20
0.0
 30
0.0
 70
     1
  0
VERTEX
  8
Layer_1
 10
921.826710196001
 20
1800.7221530991
 42
0.0
  0
VERTEX
  8
Layer_1
 10
899.897432992427
 20
1778.20985871101
 42
0.0
  0
VERTEX
  8
Layer_1
 10
877.968155788841
 20
1800.72215309908
 42
0.0
  0
VERTEX
  8
Layer_1
 10
899.897432992427
 20
1823.23444748715
 42
0.0
  0
SEQEND
  0
POLYLINE
  8
Layer_1
 66
     1
 10
0.0
 20
0.0
 30
0.0
 70
     1
  0
VERTEX
  8
Layer_1
 10
553.175569117377
 20
1801.10265275001
 42
0.0
  0
VERTEX
  8
Layer_1
 10
535.00000287305
 20
1824.95902681438
 42
0.0
  0
VERTEX
  8
Layer_1
 10
535.000002873049
 20
1777.24627868562
 42
0.0
  0
SEQEND
  0
POLYLINE
  8
Layer_1
 66
     1
 10
0.0
 20
0.0
 30
0.0
 70
     1
  0
VERTEX
  8
Layer_1
 10
553.175569117378
 20
1724.76591748295
 42
0.0
  0
VERTEX
  8
Layer_1
 10
535.000002873046
 20
1700.90954341859
 42
0.0
  0
VERTEX
  8
Layer_1
 10
535.000002873046
 20
1748.62229154732
 42
0.0
  0
SEQEND
  0
POLYLINE
  8
Layer_1
 66
     1
 10
0.0
 20
0.0
 30
0.0
 70
     1
  0
VERTEX
  8
Layer_1
 10
553.987751234385
 20
1646.54362644543
 42
0.0
  0
VERTEX
  8
Layer_1
 10
535.812184990055
 20
1622.68725238107
 42
0.0
  0
VERTEX
  8
Layer_1
 10
535.812184990056
 20
1670.40000050981
 42
0.0
  0
SEQEND
  0
POLYLINE
  8
Layer_1
 66
     1
 10
0.0
 20
0.0
 30
0.0
 70
     1
  0
VERTEX
  8
Layer_1
 10
553.987751234388
 20
1570.20689117838
 42
0.0
  0
VERTEX
  8
Layer_1
 10
535.812184990059
 20
1546.35051711401
 42
0.0
  0
VERTEX
  8
Layer_1
 10
535.812184990055
 20
1594.06326524275
 42
0.0
  0
SEQEND
  0
POLYLINE
  8
Layer_1
 66
     1
 10
0.0
 20
0.0
 30
0.0
 70
     1
  0
VERTEX
  8
Layer_1
 10
553.987751234385
 20
1491.98460014086
 42
0.0
  0
VERTEX
  8
Layer_1
 10
535.812184990059
 20
1468.12822607648
 42
0.0
  0
VERTEX
  8
Layer_1
 10
535.812184990055
 20
1515.84097420524
 42
0.0
  0
SEQEND
  0
POLYLINE
  8
Layer_1
 66
     1
 10
0.0
 20
0.0
 30
0.0
 70
     1
  0
VERTEX
  8
Layer_1
 10
554.799933351399
 20
1415.64786487381
 42
0.0
  0
VERTEX
  8
Layer_1
 10
536.624367107068
 20
1391.79149080943
 42
0.0
  0
VERTEX
  8
Layer_1
 10
536.624367107065
 20
1439.50423893818
 42
0.0
  0
SEQEND
  0
POLYLINE
  8
Layer_1
 66
     1
 10
0.0
 20
0.0
 30
0.0
 70
     1
  0
VERTEX
  8
Layer_1
 10
553.987751234388
 20
1340.28218092906
 42
0.0
  0
VERTEX
  8
Layer_1
 10
535.81218499005
 20
1316.42580686469
 42
0.0
  0
VERTEX
  8
Layer_1
 10
535.812184990056
 20
1364.13855499341
 42
0.0
  0
SEQEND
  0
POLYLINE
  8
Layer_1
 66
     1
 10
0.0
 20
0.0
 30
0.0
 70
     1
  0
VERTEX
  8
Layer_1
 10
669.144071393545
 20
1028.65427867011
 42
-0.1551978787308
  0
VERTEX
  8
Layer_1
 10
666.491636867434
 20
1058.7168136501
 42
-0.0035916437429
  0
VERTEX
  8
Layer_1
 10
668.893879346325
 20
1070.63719467688
 42
0.0084678540063
  0
VERTEX
  8
Layer_1
 10
684.105098985943
 20
1032.48634115189
 42
-0.1209832794719
  0
VERTEX
  8
Layer_1
 10
689.009686182867
 20
961.47213178193
 42
0.0300658577563
  0
VERTEX
  8
Layer_1
 10
669.872876596589
 20
1026.44507794522
 42
-0.0033725673419
  0
SEQEND
  0
POLYLINE
  8
Layer_1
 66
     1
 10
0.0
 20
0.0
 30
0.0
 70
     1
  0
VERTEX
  8
Layer_1
 10
758.562697819757
 20
632.677222525406
 42
-0.0609973375308
  0
VERTEX
  8
Layer_1
 10
744.713554257663
 20
585.867053602656
 42
0.0281023793053
  0
VERTEX
  8
Layer_1
 10
717.381292707364
 20
507.797091508715
 42
0.006240921164
  0
VERTEX
  8
Layer_1
 10
712.246913972706
 20
482.268490644157
 42
-0.1539537033206
  0
VERTEX
  8
Layer_1
 10
727.917838901706
 20
595.76898643296
 42
-0.0067578089246
  0
VERTEX
  8
Layer_1
 10
754.757174080297
 20
649.118676809421
 42
0.0073067415969
  0
VERTEX
  8
Layer_1
 10
760.592713609346
 20
661.547119717923
 42
-0.0293133713283
  0
VERTEX
  8
Layer_1
 10
758.562686473487
 20
632.677137421285
 42
0.0
  0
SEQEND
  0
POLYLINE
  8
Layer_1
 66
     1
 10
0.0
 20
0.0
 30
0.0
 70
     1
  0
VERTEX
  8
Layer_1
 10
296.911778043397
 20
1393.07194194817
 42
0.0249601769839
  0
VERTEX
  8
Layer_1
 10
316.262981239502
 20
1364.13730742242
 42
0.0
  0
VERTEX
  8
Layer_1
 10
322.728351429918
 20
1370.7745675429
 42
0.0
  0
VERTEX
  8
Layer_1
 10
298.960103157067
 20
1395.17472433965
 42
0.0
  0
SEQEND
  0
POLYLINE
  8
Layer_1
 66
     1
 10
0.0
 20
0.0
 30
0.0
 70
     1
  0
VERTEX
  8
Layer_1
 10
328.420087327
 20
1348.73564377829
 42
0.026261079901
  0
VERTEX
  8
Layer_1
 10
351.633573273562
 20
1323.76597560694
 42
0.0
  0
VERTEX
  8
Layer_1
 10
360.076550344717
 20
1332.43341975351
 42
0.0
  0
VERTEX
  8
Layer_1
 10
336.308302071868
 20
1356.83357655029
 42
0.0
  0
SEQEND
  0
POLYLINE
  8
Layer_1
 66
     1
 10
0.0
 20
0.0
 30
0.0
 70
     1
  0
VERTEX
  8
Layer_1
 10
397.424749259519
 20
1294.09227196417
 42
0.0
  0
VERTEX
  8
Layer_1
 10
373.656500986676
 20
1318.49242876093
 42
0.0
  0
VERTEX
  8
Layer_1
 10
366.02732994588
 20
1310.66042669297
 42
0.0284297959922
  0
VERTEX
  8
Layer_1
 10
393.300664313369
 20
1289.8585430762
 42
0.0
  0
SEQEND
  0
POLYLINE
  8
Layer_1
 66
     1
 10
0.0
 20
0.0
 30
0.0
 70
     1
  0
VERTEX
  8
Layer_1
 10
62.7543732168133
 20
1816.55100650038
 42
0.0
  0
VERTEX
  8
Layer_1
 10
83.3061072945925
 20
1837.6491340606
 42
0.0
  0
VERTEX
  8
Layer_1
 10
42.2026391390223
 20
1837.6491340606
 42
0.0
  0
SEQEND
  0
POLYLINE
  8
Layer_1
 66
     1
 10
0.0
 20
0.0
 30
0.0
 70
     1
  0
VERTEX
  8
Layer_1
 10
286.843566705618
 20
1816.55100650038
 42
0.0
  0
VERTEX
  8
Layer_1
 10
307.395300783399
 20
1837.64913406059
 42
0.0
  0
VERTEX
  8
Layer_1
 10
266.291832627832
 20
1837.6491340606
 42
0.0
  0
SEQEND
  0
POLYLINE
  8
Layer_1
 66
     1
 10
0.0
 20
0.0
 30
0.0
 70
     1
  0
VERTEX
  8
Layer_1
 10
436.236362364829
 20
1816.55100650039
 42
0.0
  0
VERTEX
  8
Layer_1
 10
456.788096442594
 20
1837.64913406061
 42
0.0
  0
VERTEX
  8
Layer_1
 10
415.684628287027
 20
1837.6491340606
 42
0.0
  0
SEQEND
  0
POLYLINE
  8
Layer_1
 66
     1
 10
0.0
 20
0.0
 30
0.0
 70
     1
  0
VERTEX
  8
Layer_1
 10
137.450771046422
 20
1816.55100650038
 42
0.0
  0
VERTEX
  8
Layer_1
 10
158.002505124189
 20
1837.6491340606
 42
0.0
  0
VERTEX
  8
Layer_1
 10
116.899036968625
 20
1837.6491340606
 42
0.0
  0
SEQEND
  0
POLYLINE
  8
Layer_1
 66
     1
 10
0.0
 20
0.0
 30
0.0
 70
     1
  0
VERTEX
  8
Layer_1
 10
212.147168876025
 20
1816.55100650038
 42
0.0
  0
VERTEX
  8
Layer_1
 10
232.698902953798
 20
1837.64913406059
 42
0.0
  0
VERTEX
  8
Layer_1
 10
191.595434798236
 20
1837.64913406059
 42
0.0
  0
SEQEND
  0
POLYLINE
  8
Layer_1
 66
     1
 10
0.0
 20
0.0
 30
0.0
 70
     1
  0
VERTEX
  8
Layer_1
 10
361.539964535221
 20
1816.55100650039
 42
0.0
  0
VERTEX
  8
Layer_1
 10
382.09169861301
 20
1837.6491340606
 42
0.0
  0
VERTEX
  8
Layer_1
 10
340.988230457441
 20
1837.6491340606
 42
0.0
  0
SEQEND
  0
POLYLINE
  8
Layer_1
 66
     1
 10
0.0
 20
0.0
 30
0.0
 70
     1
  0
VERTEX
  8
Layer_1
 10
160.192230367007
 20
1685.38142285638
 42
0.0
  0
VERTEX
  8
Layer_1
 10
138.262953163426
 20
1707.89371724445
 42
0.0
  0
VERTEX
  8
Layer_1
 10
120.33772723761
 20
1689.4919268312
 42
-0.0297912691222
  0
VERTEX
  8
Layer_1
 10
148.523698597587
 20
1673.40266861697
 42
0.0
  0
SEQEND
  0
POLYLINE
  8
Layer_1
 66
     1
 10
0.0
 20
0.0
 30
0.0
 70
     1
  0
VERTEX
  8
Layer_1
 10
197.540429281805
 20
1647.04027506701
 42
0.0
  0
VERTEX
  8
Layer_1
 10
175.611152078234
 20
1669.5525694551
 42
0.0
  0
VERTEX
  8
Layer_1
 10
166.741093437115
 20
1660.44668924234
 42
-0.0267404884123
  0
VERTEX
  8
Layer_1
 10
190.568018711543
 20
1639.88249426582
 42
0.0
  0
SEQEND
  0
POLYLINE
  8
Layer_1
 66
     1
 10
0.0
 20
0.0
 30
0.0
 70
     1
  0
VERTEX
  8
Layer_1
 10
205.932714899252
 20
1623.99797368785
 42
-0.0248630553761
  0
VERTEX
  8
Layer_1
 10
225.87495295954
 20
1599.44581224262
 42
0.0
  0
VERTEX
  8
Layer_1
 10
234.888628196607
 20
1608.69912727766
 42
0.0
  0
VERTEX
  8
Layer_1
 10
212.959350993027
 20
1631.21142166572
 42
0.0
  0
SEQEND
  0
POLYLINE
  8
Layer_1
 66
     1
 10
0.0
 20
0.0
 30
0.0
 70
     1
  0
VERTEX
  8
Layer_1
 10
250.307549907835
 20
1592.87027387638
 42
0.0
  0
VERTEX
  8
Layer_1
 10
238.564221402704
 20
1580.81473433675
 42
-0.023954794645
  0
VERTEX
  8
Layer_1
 10
254.686419351538
 20
1552.34097224938
 42
0.0
  0
VERTEX
  8
Layer_1
 10
272.236827111408
 20
1570.35797948831
 42
0.0
  0
SEQEND
  0
POLYLINE
  8
Layer_1
 66
     1
 10
0.0
 20
0.0
 30
0.0
 70
     1
  0
VERTEX
  8
Layer_1
 10
290.399225886021
 20
1435.63865755489
 42
0.0
  0
VERTEX
  8
Layer_1
 10
309.585026026205
 20
1455.33453612023
 42
0.0
  0
VERTEX
  8
Layer_1
 10
287.655748822634
 20
1477.84683050827
 42
0.0
  0
VERTEX
  8
Layer_1
 10
283.404074216353
 20
1473.48211982993
 42
-0.0254770555752
  0
SEQEND
  0
POLYLINE
  8
Layer_1
 66
     1
 10
0.0
 20
0.0
 30
0.0
 70
     1
  0
VERTEX
  8
Layer_1
 10
35.00000031104
 20
1786.47519696564
 42
0.0
  0
VERTEX
  8
Layer_1
 10
35.0000003110282
 20
1816.85466500303
 42
0.0
  0
VERTEX
  8
Layer_1
 10
49.7963547919304
 20
1801.66493098433
 42
0.0
  0
SEQEND
  0
POLYLINE
  8
Layer_1
 66
     1
 10
0.0
 20
0.0
 30
0.0
 70
     1
  0
VERTEX
  8
Layer_1
 10
415.119267278257
 20
1301.96994496278
 42
0.0
  0
VERTEX
  8
Layer_1
 10
437.048544481836
 20
1279.4576505747
 42
0.0
  0
VERTEX
  8
Layer_1
 10
458.977821685415
 20
1301.96994496278
 42
0.0
  0
VERTEX
  8
Layer_1
 10
437.048544481841
 20
1324.48223935083
 42
0.0
  0
SEQEND
  0
POLYLINE
  8
Layer_1
 66
     1
 10
0.0
 20
0.0
 30
0.0
 70
     1
  0
VERTEX
  8
Layer_1
 10
377.771068363454
 20
1340.31109275213
 42
0.0
  0
VERTEX
  8
Layer_1
 10
399.700345567034
 20
1317.79879836407
 42
0.0
  0
VERTEX
  8
Layer_1
 10
421.629622770613
 20
1340.31109275213
 42
0.0
  0
VERTEX
  8
Layer_1
 10
399.700345567034
 20
1362.82338714021
 42
0.0
  0
SEQEND
  0
POLYLINE
  8
Layer_1
 66
     1
 10
0.0
 20
0.0
 30
0.0
 70
     1
  0
VERTEX
  8
Layer_1
 10
415.119267278252
 20
1378.6522405415
 42
0.0
  0
VERTEX
  8
Layer_1
 10
437.048544481843
 20
1356.13994615343
 42
0.0
  0
VERTEX
  8
Layer_1
 10
458.977821685411
 20
1378.6522405415
 42
0.0
  0
VERTEX
  8
Layer_1
 10
437.048544481838
 20
1401.16453492956
 42
0.0
  0
SEQEND
  0
POLYLINE
  8
Layer_1
 66
     1
 10
0.0
 20
0.0
 30
0.0
 70
     1
  0
VERTEX
  8
Layer_1
 10
340.422869448657
 20
1378.65224054151
 42
0.0
  0
VERTEX
  8
Layer_1
 10
362.352146652229
 20
1356.13994615343
 42
0.0
  0
VERTEX
  8
Layer_1
 10
384.281423855818
 20
1378.6522405415
 42
0.0
  0
VERTEX
  8
Layer_1
 10
362.352146652232
 20
1401.16453492956
 42
0.0
  0
SEQEND
  0
POLYLINE
  8
Layer_1
 66
     1
 10
0.0
 20
0.0
 30
0.0
 70
     1
  0
VERTEX
  8
Layer_1
 10
377.771068363457
 20
1416.99338833087
 42
0.0
  0
VERTEX
  8
Layer_1
 10
399.700345567037
 20
1394.4810939428
 42
0.0
  0
VERTEX
  8
Layer_1
 10
421.629622770616
 20
1416.99338833087
 42
0.0
  0
VERTEX
  8
Layer_1
 10
399.700345567038
 20
1439.50568271894
 42
0.0
  0
SEQEND
  0
POLYLINE
  8
Layer_1
 66
     1
 10
0.0
 20
0.0
 30
0.0
 70
     1
  0
VERTEX
  8
Layer_1
 10
303.074670533855
 20
1416.99338833086
 42
0.0
  0
VERTEX
  8
Layer_1
 10
325.003947737429
 20
1394.48109394279
 42
0.0
  0
VERTEX
  8
Layer_1
 10
346.933224941012
 20
1416.99338833086
 42
0.0
  0
VERTEX
  8
Layer_1
 10
325.003947737427
 20
1439.50568271894
 42
0.0
  0
SEQEND
  0
POLYLINE
  8
Layer_1
 66
     1
 10
0.0
 20
0.0
 30
0.0
 70
     1
  0
VERTEX
  8
Layer_1
 10
340.422869448651
 20
1455.33453612022
 42
0.0
  0
VERTEX
  8
Layer_1
 10
362.352146652231
 20
1432.82224173215
 42
0.0
  0
VERTEX
  8
Layer_1
 10
384.28142385581
 20
1455.33453612023
 42
0.0
  0
VERTEX
  8
Layer_1
 10
362.352146652229
 20
1477.84683050828
 42
0.0
  0
SEQEND
  0
POLYLINE
  8
Layer_1
 66
     1
 10
0.0
 20
0.0
 30
0.0
 70
     1
  0
VERTEX
  8
Layer_1
 10
303.074670533855
 20
1493.67568390958
 42
0.0
  0
VERTEX
  8
Layer_1
 10
325.003947737431
 20
1471.16338952151
 42
0.0
  0
VERTEX
  8
Layer_1
 10
346.933224941012
 20
1493.67568390958
 42
0.0
  0
VERTEX
  8
Layer_1
 10
325.003947737427
 20
1516.18797829766
 42
0.0
  0
SEQEND
  0
POLYLINE
  8
Layer_1
 66
     1
 10
0.0
 20
0.0
 30
0.0
 70
     1
  0
VERTEX
  8
Layer_1
 10
414.307085161245
 20
1455.65182299483
 42
0.0
  0
VERTEX
  8
Layer_1
 10
436.236362364828
 20
1433.13952860677
 42
0.0
  0
VERTEX
  8
Layer_1
 10
458.165639568403
 20
1455.65182299482
 42
0.0
  0
VERTEX
  8
Layer_1
 10
436.236362364831
 20
1478.16411738291
 42
0.0
  0
SEQEND
  0
POLYLINE
  8
Layer_1
 66
     1
 10
0.0
 20
0.0
 30
0.0
 70
     1
  0
VERTEX
  8
Layer_1
 10
265.726471619051
 20
1532.01683169895
 42
0.0
  0
VERTEX
  8
Layer_1
 10
287.655748822634
 20
1509.50453731087
 42
0.0
  0
VERTEX
  8
Layer_1
 10
309.585026026214
 20
1532.01683169896
 42
0.0
  0
VERTEX
  8
Layer_1
 10
287.655748822631
 20
1554.52912608701
 42
0.0
  0
SEQEND
  0
POLYLINE
  8
Layer_1
 66
     1
 10
0.0
 20
0.0
 30
0.0
 70
     1
  0
VERTEX
  8
Layer_1
 10
376.958886246446
 20
1493.99297078419
 42
0.0
  0
VERTEX
  8
Layer_1
 10
398.888163450027
 20
1471.48067639614
 42
0.0
  0
VERTEX
  8
Layer_1
 10
420.817440653607
 20
1493.9929707842
 42
0.0
  0
VERTEX
  8
Layer_1
 10
398.888163450029
 20
1516.50526517226
 42
0.0
  0
SEQEND
  0
POLYLINE
  8
Layer_1
 66
     1
 10
0.0
 20
0.0
 30
0.0
 70
     1
  0
VERTEX
  8
Layer_1
 10
414.307085161245
 20
1532.33411857354
 42
0.0
  0
VERTEX
  8
Layer_1
 10
436.236362364828
 20
1509.82182418549
 42
0.0
  0
VERTEX
  8
Layer_1
 10
458.165639568403
 20
1532.33411857354
 42
0.0
  0
VERTEX
  8
Layer_1
 10
436.236362364825
 20
1554.84641296163
 42
0.0
  0
SEQEND
  0
POLYLINE
  8
Layer_1
 66
     1
 10
0.0
 20
0.0
 30
0.0
 70
     1
  0
VERTEX
  8
Layer_1
 10
339.610687331645
 20
1532.33411857354
 42
0.0
  0
VERTEX
  8
Layer_1
 10
361.539964535222
 20
1509.82182418549
 42
0.0
  0
VERTEX
  8
Layer_1
 10
383.469241738807
 20
1532.33411857354
 42
0.0
  0
VERTEX
  8
Layer_1
 10
361.539964535221
 20
1554.84641296163
 42
0.0
  0
SEQEND
  0
POLYLINE
  8
Layer_1
 66
     1
 10
0.0
 20
0.0
 30
0.0
 70
     1
  0
VERTEX
  8
Layer_1
 10
376.958886246445
 20
1570.67526636292
 42
0.0
  0
VERTEX
  8
Layer_1
 10
398.888163450027
 20
1548.16297197484
 42
0.0
  0
VERTEX
  8
Layer_1
 10
420.817440653604
 20
1570.67526636292
 42
0.0
  0
VERTEX
  8
Layer_1
 10
398.888163450025
 20
1593.18756075099
 42
0.0
  0
SEQEND
  0
POLYLINE
  8
Layer_1
 66
     1
 10
0.0
 20
0.0
 30
0.0
 70
     1
  0
VERTEX
  8
Layer_1
 10
302.262488416845
 20
1570.67526636292
 42
0.0
  0
VERTEX
  8
Layer_1
 10
324.191765620417
 20
1548.16297197485
 42
0.0
  0
VERTEX
  8
Layer_1
 10
346.121042824003
 20
1570.67526636292
 42
0.0
  0
VERTEX
  8
Layer_1
 10
324.191765620423
 20
1593.187560751
 42
0.0
  0
SEQEND
  0
POLYLINE
  8
Layer_1
 66
     1
 10
0.0
 20
0.0
 30
0.0
 70
     1
  0
VERTEX
  8
Layer_1
 10
414.307085161248
 20
1609.01641415227
 42
0.0
  0
VERTEX
  8
Layer_1
 10
436.236362364832
 20
1586.50411976422
 42
0.0
  0
VERTEX
  8
Layer_1
 10
458.165639568403
 20
1609.01641415228
 42
0.0
  0
VERTEX
  8
Layer_1
 10
436.23636236483
 20
1631.52870854035
 42
0.0
  0
SEQEND
  0
POLYLINE
  8
Layer_1
 66
     1
 10
0.0
 20
0.0
 30
0.0
 70
     1
  0
VERTEX
  8
Layer_1
 10
339.610687331644
 20
1609.01641415227
 42
0.0
  0
VERTEX
  8
Layer_1
 10
361.539964535221
 20
1586.50411976422
 42
0.0
  0
VERTEX
  8
Layer_1
 10
383.469241738805
 20
1609.01641415227
 42
0.0
  0
VERTEX
  8
Layer_1
 10
361.539964535224
 20
1631.52870854035
 42
0.0
  0
SEQEND
  0
POLYLINE
  8
Layer_1
 66
     1
 10
0.0
 20
0.0
 30
0.0
 70
     1
  0
VERTEX
  8
Layer_1
 10
264.914289502043
 20
1609.01641415227
 42
0.0
  0
VERTEX
  8
Layer_1
 10
286.843566705618
 20
1586.50411976422
 42
0.0
  0
VERTEX
  8
Layer_1
 10
308.772843909205
 20
1609.01641415227
 42
0.0
  0
VERTEX
  8
Layer_1
 10
286.843566705621
 20
1631.52870854036
 42
0.0
  0
SEQEND
  0
POLYLINE
  8
Layer_1
 66
     1
 10
0.0
 20
0.0
 30
0.0
 70
     1
  0
VERTEX
  8
Layer_1
 10
376.958886246444
 20
1647.35756194165
 42
0.0
  0
VERTEX
  8
Layer_1
 10
398.888163450027
 20
1624.84526755357
 42
0.0
  0
VERTEX
  8
Layer_1
 10
420.817440653606
 20
1647.35756194165
 42
0.0
  0
VERTEX
  8
Layer_1
 10
398.888163450027
 20
1669.86985632971
 42
0.0
  0
SEQEND
  0
POLYLINE
  8
Layer_1
 66
     1
 10
0.0
 20
0.0
 30
0.0
 70
     1
  0
VERTEX
  8
Layer_1
 10
302.262488416847
 20
1647.35756194164
 42
0.0
  0
VERTEX
  8
Layer_1
 10
324.191765620418
 20
1624.84526755358
 42
0.0
  0
VERTEX
  8
Layer_1
 10
346.121042824003
 20
1647.35756194165
 42
0.0
  0
VERTEX
  8
Layer_1
 10
324.191765620415
 20
1669.86985632971
 42
0.0
  0
SEQEND
  0
POLYLINE
  8
Layer_1
 66
     1
 10
0.0
 20
0.0
 30
0.0
 70
     1
  0
VERTEX
  8
Layer_1
 10
227.566090587245
 20
1647.35756194165
 42
0.0
  0
VERTEX
  8
Layer_1
 10
249.495367790826
 20
1624.84526755357
 42
0.0
  0
VERTEX
  8
Layer_1
 10
271.424644994397
 20
1647.35756194165
 42
0.0
  0
VERTEX
  8
Layer_1
 10
249.495367790823
 20
1669.86985632971
 42
0.0
  0
SEQEND
  0
POLYLINE
  8
Layer_1
 66
     1
 10
0.0
 20
0.0
 30
0.0
 70
     1
  0
VERTEX
  8
Layer_1
 10
78.9854770450478
 20
1723.72257064574
 42
0.0
  0
VERTEX
  8
Layer_1
 10
100.914754248621
 20
1701.21027625768
 42
0.0
  0
VERTEX
  8
Layer_1
 10
122.844031452208
 20
1723.72257064574
 42
0.0
  0
VERTEX
  8
Layer_1
 10
100.914754248623
 20
1746.23486503381
 42
0.0
  0
SEQEND
  0
POLYLINE
  8
Layer_1
 66
     1
 10
0.0
 20
0.0
 30
0.0
 70
     1
  0
VERTEX
  8
Layer_1
 10
414.307085161248
 20
1685.69870973099
 42
0.0
  0
VERTEX
  8
Layer_1
 10
436.23636236483
 20
1663.18641534294
 42
0.0
  0
VERTEX
  8
Layer_1
 10
458.165639568402
 20
1685.69870973099
 42
0.0
  0
VERTEX
  8
Layer_1
 10
436.236362364829
 20
1708.21100411908
 42
0.0
  0
SEQEND
  0
POLYLINE
  8
Layer_1
 66
     1
 10
0.0
 20
0.0
 30
0.0
 70
     1
  0
VERTEX
  8
Layer_1
 10
339.610687331644
 20
1685.69870973099
 42
0.0
  0
VERTEX
  8
Layer_1
 10
361.539964535219
 20
1663.18641534295
 42
0.0
  0
VERTEX
  8
Layer_1
 10
383.469241738803
 20
1685.69870973099
 42
0.0
  0
VERTEX
  8
Layer_1
 10
361.539964535223
 20
1708.21100411908
 42
0.0
  0
SEQEND
  0
POLYLINE
  8
Layer_1
 66
     1
 10
0.0
 20
0.0
 30
0.0
 70
     1
  0
VERTEX
  8
Layer_1
 10
264.914289502049
 20
1685.69870973099
 42
0.0
  0
VERTEX
  8
Layer_1
 10
286.843566705617
 20
1663.18641534294
 42
0.0
  0
VERTEX
  8
Layer_1
 10
308.772843909204
 20
1685.69870973099
 42
0.0
  0
VERTEX
  8
Layer_1
 10
286.843566705621
 20
1708.21100411908
 42
0.0
  0
SEQEND
  0
POLYLINE
  8
Layer_1
 66
     1
 10
0.0
 20
0.0
 30
0.0
 70
     1
  0
VERTEX
  8
Layer_1
 10
190.217891672436
 20
1685.69870973099
 42
0.0
  0
VERTEX
  8
Layer_1
 10
212.147168876019
 20
1663.18641534295
 42
0.0
  0
VERTEX
  8
Layer_1
 10
234.076446079598
 20
1685.69870973099
 42
0.0
  0
VERTEX
  8
Layer_1
 10
212.147168876025
 20
1708.21100411908
 42
0.0
  0
SEQEND
  0
POLYLINE
  8
Layer_1
 66
     1
 10
0.0
 20
0.0
 30
0.0
 70
     1
  0
VERTEX
  8
Layer_1
 10
41.6372781302451
 20
1762.0637184351
 42
0.0
  0
VERTEX
  8
Layer_1
 10
63.5665553338206
 20
1739.55142404704
 42
0.0
  0
VERTEX
  8
Layer_1
 10
85.4958325374015
 20
1762.0637184351
 42
0.0
  0
VERTEX
  8
Layer_1
 10
63.5665553338152
 20
1784.57601282317
 42
0.0
  0
SEQEND
  0
POLYLINE
  8
Layer_1
 66
     1
 10
0.0
 20
0.0
 30
0.0
 70
     1
  0
VERTEX
  8
Layer_1
 10
376.958886246445
 20
1724.03985752037
 42
0.0
  0
VERTEX
  8
Layer_1
 10
398.888163450029
 20
1701.52756313229
 42
0.0
  0
VERTEX
  8
Layer_1
 10
420.817440653601
 20
1724.03985752037
 42
0.0
  0
VERTEX
  8
Layer_1
 10
398.888163450032
 20
1746.55215190844
 42
0.0
  0
SEQEND
  0
POLYLINE
  8
Layer_1
 66
     1
 10
0.0
 20
0.0
 30
0.0
 70
     1
  0
VERTEX
  8
Layer_1
 10
302.262488416841
 20
1724.03985752037
 42
0.0
  0
VERTEX
  8
Layer_1
 10
324.191765620417
 20
1701.52756313229
 42
0.0
  0
VERTEX
  8
Layer_1
 10
346.121042824002
 20
1724.03985752037
 42
0.0
  0
VERTEX
  8
Layer_1
 10
324.191765620418
 20
1746.55215190844
 42
0.0
  0
SEQEND
  0
POLYLINE
  8
Layer_1
 66
     1
 10
0.0
 20
0.0
 30
0.0
 70
     1
  0
VERTEX
  8
Layer_1
 10
227.566090587245
 20
1724.03985752037
 42
0.0
  0
VERTEX
  8
Layer_1
 10
249.495367790816
 20
1701.52756313229
 42
0.0
  0
VERTEX
  8
Layer_1
 10
271.424644994395
 20
1724.03985752037
 42
0.0
  0
VERTEX
  8
Layer_1
 10
249.495367790824
 20
1746.55215190844
 42
0.0
  0
SEQEND
  0
POLYLINE
  8
Layer_1
 66
     1
 10
0.0
 20
0.0
 30
0.0
 70
     1
  0
VERTEX
  8
Layer_1
 10
152.869692757633
 20
1724.03985752037
 42
0.0
  0
VERTEX
  8
Layer_1
 10
174.798969961217
 20
1701.52756313229
 42
0.0
  0
VERTEX
  8
Layer_1
 10
196.728247164799
 20
1724.03985752037
 42
0.0
  0
VERTEX
  8
Layer_1
 10
174.798969961221
 20
1746.55215190844
 42
0.0
  0
SEQEND
  0
POLYLINE
  8
Layer_1
 66
     1
 10
0.0
 20
0.0
 30
0.0
 70
     1
  0
VERTEX
  8
Layer_1
 10
414.307085161247
 20
1762.38100530973
 42
0.0
  0
VERTEX
  8
Layer_1
 10
436.236362364828
 20
1739.86871092167
 42
0.0
  0
VERTEX
  8
Layer_1
 10
458.165639568409
 20
1762.38100530973
 42
0.0
  0
VERTEX
  8
Layer_1
 10
436.236362364833
 20
1784.89329969779
 42
0.0
  0
SEQEND
  0
POLYLINE
  8
Layer_1
 66
     1
 10
0.0
 20
0.0
 30
0.0
 70
     1
  0
VERTEX
  8
Layer_1
 10
339.610687331647
 20
1762.38100530972
 42
0.0
  0
VERTEX
  8
Layer_1
 10
361.539964535222
 20
1739.86871092167
 42
0.0
  0
VERTEX
  8
Layer_1
 10
383.469241738802
 20
1762.38100530972
 42
0.0
  0
VERTEX
  8
Layer_1
 10
361.539964535221
 20
1784.8932996978
 42
0.0
  0
SEQEND
  0
POLYLINE
  8
Layer_1
 66
     1
 10
0.0
 20
0.0
 30
0.0
 70
     1
  0
VERTEX
  8
Layer_1
 10
264.914289502046
 20
1762.38100530973
 42
0.0
  0
VERTEX
  8
Layer_1
 10
286.84356670562
 20
1739.86871092167
 42
0.0
  0
VERTEX
  8
Layer_1
 10
308.772843909201
 20
1762.38100530972
 42
0.0
  0
VERTEX
  8
Layer_1
 10
286.84356670562
 20
1784.89329969779
 42
0.0
  0
SEQEND
  0
POLYLINE
  8
Layer_1
 66
     1
 10
0.0
 20
0.0
 30
0.0
 70
     1
  0
VERTEX
  8
Layer_1
 10
190.217891672437
 20
1762.38100530973
 42
0.0
  0
VERTEX
  8
Layer_1
 10
212.147168876025
 20
1739.86871092167
 42
0.0
  0
VERTEX
  8
Layer_1
 10
234.076446079596
 20
1762.38100530973
 42
0.0
  0
VERTEX
  8
Layer_1
 10
212.147168876019
 20
1784.8932996978
 42
0.0
  0
SEQEND
  0
POLYLINE
  8
Layer_1
 66
     1
 10
0.0
 20
0.0
 30
0.0
 70
     1
  0
VERTEX
  8
Layer_1
 10
115.521493842834
 20
1762.38100530972
 42
0.0
  0
VERTEX
  8
Layer_1
 10
137.450771046422
 20
1739.86871092167
 42
0.0
  0
VERTEX
  8
Layer_1
 10
159.380048249996
 20
1762.38100530973
 42
0.0
  0
VERTEX
  8
Layer_1
 10
137.450771046419
 20
1784.8932996978
 42
0.0
  0
SEQEND
  0
POLYLINE
  8
Layer_1
 66
     1
 10
0.0
 20
0.0
 30
0.0
 70
     1
  0
VERTEX
  8
Layer_1
 10
376.958886246448
 20
1800.72215309908
 42
0.0
  0
VERTEX
  8
Layer_1
 10
398.888163450027
 20
1778.20985871101
 42
0.0
  0
VERTEX
  8
Layer_1
 10
420.817440653606
 20
1800.7221530991
 42
0.0
  0
VERTEX
  8
Layer_1
 10
398.888163450027
 20
1823.23444748715
 42
0.0
  0
SEQEND
  0
POLYLINE
  8
Layer_1
 66
     1
 10
0.0
 20
0.0
 30
0.0
 70
     1
  0
VERTEX
  8
Layer_1
 10
302.262488416848
 20
1800.72215309908
 42
0.0
  0
VERTEX
  8
Layer_1
 10
324.191765620417
 20
1778.20985871102
 42
0.0
  0
VERTEX
  8
Layer_1
 10
346.121042824003
 20
1800.7221530991
 42
0.0
  0
VERTEX
  8
Layer_1
 10
324.191765620423
 20
1823.23444748715
 42
0.0
  0
SEQEND
  0
POLYLINE
  8
Layer_1
 66
     1
 10
0.0
 20
0.0
 30
0.0
 70
     1
  0
VERTEX
  8
Layer_1
 10
227.566090587242
 20
1800.7221530991
 42
0.0
  0
VERTEX
  8
Layer_1
 10
249.495367790816
 20
1778.20985871101
 42
0.0
  0
VERTEX
  8
Layer_1
 10
271.424644994395
 20
1800.72215309908
 42
0.0
  0
VERTEX
  8
Layer_1
 10
249.495367790824
 20
1823.23444748715
 42
0.0
  0
SEQEND
  0
POLYLINE
  8
Layer_1
 66
     1
 10
0.0
 20
0.0
 30
0.0
 70
     1
  0
VERTEX
  8
Layer_1
 10
152.869692757634
 20
1800.72215309908
 42
0.0
  0
VERTEX
  8
Layer_1
 10
174.798969961218
 20
1778.20985871101
 42
0.0
  0
VERTEX
  8
Layer_1
 10
196.728247164799
 20
1800.72215309908
 42
0.0
  0
VERTEX
  8
Layer_1
 10
174.798969961217
 20
1823.23444748714
 42
0.0
  0
SEQEND
  0
POLYLINE
  8
Layer_1
 66
     1
 10
0.0
 20
0.0
 30
0.0
 70
     1
  0
VERTEX
  8
Layer_1
 10
78.1732949280361
 20
1800.7221530991
 42
0.0
  0
VERTEX
  8
Layer_1
 10
100.10257213161
 20
1778.20985871101
 42
0.0
  0
VERTEX
  8
Layer_1
 10
122.031849335197
 20
1800.72215309908
 42
0.0
  0
VERTEX
  8
Layer_1
 10
100.10257213161
 20
1823.23444748715
 42
0.0
  0
SEQEND
  0
POLYLINE
  8
Layer_1
 66
     1
 10
0.0
 20
0.0
 30
0.0
 70
     1
  0
VERTEX
  8
Layer_1
 10
446.82443600666
 20
1801.10265275001
 42
0.0
  0
VERTEX
  8
Layer_1
 10
465.000002250987
 20
1824.95902681438
 42
0.0
  0
VERTEX
  8
Layer_1
 10
465.000002250988
 20
1777.24627868562
 42
0.0
  0
SEQEND
  0
POLYLINE
  8
Layer_1
 66
     1
 10
0.0
 20
0.0
 30
0.0
 70
     1
  0
VERTEX
  8
Layer_1
 10
446.82443600666
 20
1724.76591748295
 42
0.0
  0
VERTEX
  8
Layer_1
 10
465.000002250991
 20
1700.90954341859
 42
0.0
  0
VERTEX
  8
Layer_1
 10
465.000002250991
 20
1748.62229154732
 42
0.0
  0
SEQEND
  0
POLYLINE
  8
Layer_1
 66
     1
 10
0.0
 20
0.0
 30
0.0
 70
     1
  0
VERTEX
  8
Layer_1
 10
446.012253889652
 20
1646.54362644543
 42
0.0
  0
VERTEX
  8
Layer_1
 10
464.187820133982
 20
1622.68725238107
 42
0.0
  0
VERTEX
  8
Layer_1
 10
464.187820133981
 20
1670.40000050981
 42
0.0
  0
SEQEND
  0
POLYLINE
  8
Layer_1
 66
     1
 10
0.0
 20
0.0
 30
0.0
 70
     1
  0
VERTEX
  8
Layer_1
 10
446.01225388965
 20
1570.20689117838
 42
0.0
  0
VERTEX
  8
Layer_1
 10
464.187820133978
 20
1546.35051711401
 42
0.0
  0
VERTEX
  8
Layer_1
 10
464.187820133982
 20
1594.06326524275
 42
0.0
  0
SEQEND
  0
POLYLINE
  8
Layer_1
 66
     1
 10
0.0
 20
0.0
 30
0.0
 70
     1
  0
VERTEX
  8
Layer_1
 10
446.012253889652
 20
1491.98460014086
 42
0.0
  0
VERTEX
  8
Layer_1
 10
464.187820133978
 20
1468.12822607648
 42
0.0
  0
VERTEX
  8
Layer_1
 10
464.187820133982
 20
1515.84097420524
 42
0.0
  0
SEQEND
  0
POLYLINE
  8
Layer_1
 66
     1
 10
0.0
 20
0.0
 30
0.0
 70
     1
  0
VERTEX
  8
Layer_1
 10
445.200071772639
 20
1415.64786487381
 42
0.0
  0
VERTEX
  8
Layer_1
 10
463.375638016969
 20
1391.79149080943
 42
0.0
  0
VERTEX
  8
Layer_1
 10
463.375638016972
 20
1439.50423893818
 42
0.0
  0
SEQEND
  0
POLYLINE
  8
Layer_1
 66
     1
 10
0.0
 20
0.0
 30
0.0
 70
     1
  0
VERTEX
  8
Layer_1
 10
446.012253889649
 20
1340.28218092906
 42
0.0
  0
VERTEX
  8
Layer_1
 10
464.187820133987
 20
1316.42580686469
 42
0.0
  0
VERTEX
  8
Layer_1
 10
464.187820133981
 20
1364.13855499341
 42
0.0
  0
SEQEND
  0
POLYLINE
  8
Layer_1
 66
     1
 10
0.0
 20
0.0
 30
0.0
 70
     1
  0
VERTEX
  8
Layer_1
 10
330.855933730492
 20
1028.65427867011
 42
0.1551978787308
  0
VERTEX
  8
Layer_1
 10
333.508368256603
 20
1058.7168136501
 42
0.0035916437429
  0
VERTEX
  8
Layer_1
 10
331.106125777713
 20
1070.63719467688
 42
-0.0084678540063
  0
VERTEX
  8
Layer_1
 10
315.894906138095
 20
1032.48634115189
 42
0.1209832794719
  0
VERTEX
  8
Layer_1
 10
310.99031894117
 20
961.47213178193
 42
-0.0300658577563
  0
VERTEX
  8
Layer_1
 10
330.127128527448
 20
1026.44507794522
 42
0.0033725673419
  0
SEQEND
  0
POLYLINE
  8
Layer_1
 66
     1
 10
0.0
 20
0.0
 30
0.0
 70
     1
  0
VERTEX
  8
Layer_1
 10
241.43730730428
 20
632.677222525406
 42
0.0609973375308
  0
VERTEX
  8
Layer_1
 10
255.286450866374
 20
585.867053602656
 42
-0.0281023793053
  0
VERTEX
  8
Layer_1
 10
282.618712416673
 20
507.797091508715
 42
-0.006240921164
  0
VERTEX
  8
Layer_1
 10
287.753091151331
 20
482.268490644157
 42
0.1539537033206
  0
VERTEX
  8
Layer_1
 10
272.082166222331
 20
595.76898643296
 42
0.0067578089246
  0
VERTEX
  8
Layer_1
 10
245.24283104374
 20
649.118676809421
 42
-0.0073067415969
  0
VERTEX
  8
Layer_1
 10
239.407291514691
 20
661.547119717923
 42
0.0293133713283
  0
VERTEX
  8
Layer_1
 10
241.43731865055
 20
632.677137421285
 42
0.0
  0
SEQEND
  0
POLYLINE
  8
Layer_1
 66
     1
 10
0.0
 20
0.0
 30
0.0
 70
     0
  0
VERTEX
  8
Layer_1
 10
500.000002562019
 20
0.0
 42
0.0
  0
VERTEX
  8
Layer_1
 10
500.000002562019
 20
2000.00000651851
 42
0.0
  0
SEQEND
  0
POLYLINE
  8
Layer_1
 66
     1
 10
0.0
 20
0.0
 30
0.0
 70
     1
  0
VERTEX
  8
Layer_1
 10
878.050676164469
 20
82.1950859627702
 42
-0.4070376731974
  0
VERTEX
  8
Layer_1
 10
886.530316323896
 20
74.0298549431218
 42
-0.1641930437428
  0
VERTEX
  8
Layer_1
 10
874.429613108971
 20
53.3755461598082
 42
-0.5801326578263
  0
VERTEX
  8
Layer_1
 10
869.55070292374
 20
52.6262652612063
 42
-0.1465500324936
  0
VERTEX
  8
Layer_1
 10
869.937148414151
 20
59.6576232323856
 42
0.3459297051987
  0
VERTEX
  8
Layer_1
 10
863.571659704512
 20
75.2038252693512
 42
-0.2536860203699
  0
VERTEX
  8
Layer_1
 10
862.12504951705
 20
81.5250325856815
 42
-0.2499590996374
  0
VERTEX
  8
Layer_1
 10
870.02516054321
 20
83.7667182765566
 42
-0.0101476677947
  0
SEQEND
  0
POLYLINE
  8
Layer_1
 66
     1
 10
0.0
 20
0.0
 30
0.0
 70
     1
  0
VERTEX
  8
Layer_1
 10
834.626072018334
 20
226.362207908695
 42
-0.5351696211814
  0
VERTEX
  8
Layer_1
 10
838.763132266277
 20
226.559709237943
 42
-0.134307854743
  0
VERTEX
  8
Layer_1
 10
829.462059492173
 20
217.394998891109
 42
-0.1658718754881
  0
VERTEX
  8
Layer_1
 10
810.412370770672
 20
214.968734586797
 42
0.3750869089432
  0
VERTEX
  8
Layer_1
 10
798.479530140945
 20
211.226091317741
 42
-0.3125409551449
  0
VERTEX
  8
Layer_1
 10
792.941955088201
 20
205.968787416423
 42
-0.2991905119552
  0
VERTEX
  8
Layer_1
 10
790.625826912745
 20
211.594228422505
 42
-0.4706069627119
  0
VERTEX
  8
Layer_1
 10
808.436686336517
 20
227.379742590924
 42
-0.0258460245492
  0
VERTEX
  8
Layer_1
 10
821.191256651056
 20
223.192858534951
 42
0.1224692008238
  0
SEQEND
  0
POLYLINE
  8
Layer_1
 66
     1
 10
0.0
 20
0.0
 30
0.0
 70
     1
  0
VERTEX
  8
Layer_1
 10
621.679694694218
 20
74.3727669527264
 42
0.2938471283592
  0
VERTEX
  8
Layer_1
 10
617.845106844747
 20
56.3854203283406
 42
-0.4181729244734
  0
VERTEX
  8
Layer_1
 10
617.039370858814
 20
51.954204144093
 42
-0.1719115106512
  0
VERTEX
  8
Layer_1
 10
606.788525902942
 20
58.0753349578879
 42
-0.0762259262337
  0
VERTEX
  8
Layer_1
 10
596.676328563281
 20
70.1802554165406
 42
-0.4229242096539
  0
VERTEX
  8
Layer_1
 10
597.983999513027
 20
74.7899895642271
 42
-0.188866309429
  0
VERTEX
  8
Layer_1
 10
623.511163735961
 20
81.9567908300147
 42
-0.7758283873152
  0
VERTEX
  8
Layer_1
 10
625.589388602662
 20
79.6505724808142
 42
0.0027534070467
  0
SEQEND
  0
POLYLINE
  8
Layer_1
 66
     1
 10
0.0
 20
0.0
 30
0.0
 70
     1
  0
VERTEX
  8
Layer_1
 10
782.505844136901
 20
74.3727669527264
 42
0.2938448698197
  0
VERTEX
  8
Layer_1
 10
778.671276140367
 20
56.3854123573694
 42
-0.4181724975302
  0
VERTEX
  8
Layer_1
 10
777.865531194624
 20
51.95420352872
 42
-0.1719113302432
  0
VERTEX
  8
Layer_1
 10
767.61469309913
 20
58.0753349578879
 42
-0.0762262204938
  0
VERTEX
  8
Layer_1
 10
757.502487187793
 20
70.1802556200936
 42
-0.4229240437499
  0
VERTEX
  8
Layer_1
 10
758.81016716609
 20
74.7899895642271
 42
-0.1888667092366
  0
VERTEX
  8
Layer_1
 10
784.337336441769
 20
81.9567908300147
 42
-0.7758290777709
  0
VERTEX
  8
Layer_1
 10
786.415551748951
 20
79.6505724808142
 42
0.0027552202629
  0
SEQEND
  0
POLYLINE
  8
Layer_1
 66
     1
 10
0.0
 20
0.0
 30
0.0
 70
     1
  0
VERTEX
  8
Layer_1
 10
564.566131520075
 20
82.1410342271965
 42
-0.5141013927172
  0
VERTEX
  8
Layer_1
 10
572.721889842937
 20
70.544492434412
 42
-0.1833932707139
  0
VERTEX
  8
Layer_1
 10
560.225485781867
 20
52.5805566090673
 42
-0.7281089001849
  0
VERTEX
  8
Layer_1
 10
555.53809741214
 20
54.8096638352841
 42
0.0147622764112
  0
VERTEX
  8
Layer_1
 10
556.814653521374
 20
63.3476143706148
 42
0.1768419941934
  0
VERTEX
  8
Layer_1
 10
550.372471816155
 20
75.5399363527418
 42
-0.3173917217819
  0
VERTEX
  8
Layer_1
 10
548.514032949802
 20
81.5250325856815
 42
-0.2499641352413
  0
VERTEX
  8
Layer_1
 10
556.414137003766
 20
83.7667182765567
 42
-0.0120387833095
  0
SEQEND
  0
POLYLINE
  8
Layer_1
 66
     1
 10
0.0
 20
0.0
 30
0.0
 70
     1
  0
VERTEX
  8
Layer_1
 10
926.536121843145
 20
93.6096121266916
 42
-0.1209088832875
  0
VERTEX
  8
Layer_1
 10
911.477035464153
 20
87.1277042953934
 42
-0.4207121513275
  0
VERTEX
  8
Layer_1
 10
905.013290900963
 20
92.4300051387593
 42
-0.1456586166059
  0
VERTEX
  8
Layer_1
 10
906.586617750791
 20
116.303004842952
 42
-0.815140688992
  0
VERTEX
  8
Layer_1
 10
912.169164460553
 20
117.707376934602
 42
0.016176172795
  0
VERTEX
  8
Layer_1
 10
915.896719501673
 20
109.33782463349
 42
0.2468979821662
  0
VERTEX
  8
Layer_1
 10
927.680696489727
 20
103.691227068942
 42
-0.7183090053533
  0
VERTEX
  8
Layer_1
 10
931.359619606588
 20
98.0464165495559
 42
-0.0479324928336
  0
SEQEND
  0
POLYLINE
  8
Layer_1
 66
     1
 10
0.0
 20
0.0
 30
0.0
 70
     1
  0
VERTEX
  8
Layer_1
 10
932.435908795598
 20
1577.32954119432
 42
-0.1615602433237
  0
VERTEX
  8
Layer_1
 10
921.868303215736
 20
1575.10020585859
 42
-0.1485190763853
  0
VERTEX
  8
Layer_1
 10
907.701128558824
 20
1577.95703517677
 42
-0.3138060375557
  0
VERTEX
  8
Layer_1
 10
907.980239917207
 20
1584.30758953173
 42
-0.0522743977286
  0
VERTEX
  8
Layer_1
 10
919.027814009004
 20
1600.74829599968
 42
-0.0717028036968
  0
VERTEX
  8
Layer_1
 10
931.882086693961
 20
1579.5550001327
 42
-0.2676403608665
  0
SEQEND
  0
POLYLINE
  8
Layer_1
 66
     1
 10
0.0
 20
0.0
 30
0.0
 70
     1
  0
VERTEX
  8
Layer_1
 10
868.579567670806
 20
98.6372186228709
 42
-0.4936892277735
  0
VERTEX
  8
Layer_1
 10
871.199315496179
 20
103.436330055888
 42
0.3025003214611
  0
VERTEX
  8
Layer_1
 10
884.580480986551
 20
113.517623240759
 42
-0.3573895233387
  0
VERTEX
  8
Layer_1
 10
891.701484576672
 20
115.162308487846
 42
-0.2034671727168
  0
VERTEX
  8
Layer_1
 10
895.409669834868
 20
92.3865521160101
 42
-0.0669348052789
  0
VERTEX
  8
Layer_1
 10
893.899451266652
 20
89.7143933275497
 42
-0.2100519655388
  0
VERTEX
  8
Layer_1
 10
869.465191006423
 20
97.5876088584062
 42
-0.113906716853
  0
SEQEND
  0
POLYLINE
  8
Layer_1
 66
     1
 10
0.0
 20
0.0
 30
0.0
 70
     1
  0
VERTEX
  8
Layer_1
 10
916.354835142835
 20
42.0500701398861
 42
-0.149936484883
  0
VERTEX
  8
Layer_1
 10
887.221682560288
 20
42.3164342638958
 42
-0.5225863366405
  0
VERTEX
  8
Layer_1
 10
885.037437680859
 20
47.84331860023
 42
-0.0526080230857
  0
VERTEX
  8
Layer_1
 10
899.031133824374
 20
70.055736613941
 42
-0.0394659767203
  0
VERTEX
  8
Layer_1
 10
915.815885311824
 20
43.435677167939
 42
-0.4539443145746
  0
SEQEND
  0
POLYLINE
  8
Layer_1
 66
     1
 10
0.0
 20
0.0
 30
0.0
 70
     1
  0
VERTEX
  8
Layer_1
 10
771.046967417901
 20
92.0250413223068
 42
-0.1446333237486
  0
VERTEX
  8
Layer_1
 10
759.918149869081
 20
88.2491714099094
 42
-0.3274258129899
  0
VERTEX
  8
Layer_1
 10
753.943971194282
 20
94.4786962719138
 42
-0.1442772991472
  0
VERTEX
  8
Layer_1
 10
753.694610034049
 20
114.344231574834
 42
-0.5793208094424
  0
VERTEX
  8
Layer_1
 10
759.052416099265
 20
115.328488966643
 42
0.038330690657
  0
VERTEX
  8
Layer_1
 10
768.148280211089
 20
106.198532346403
 42
0.0973659080966
  0
VERTEX
  8
Layer_1
 10
777.280574107015
 20
103.457807420232
 42
-0.5115849162901
  0
VERTEX
  8
Layer_1
 10
778.834418885544
 20
98.6337894288768
 42
-0.0877030993111
  0
SEQEND
  0
POLYLINE
  8
Layer_1
 66
     1
 10
0.0
 20
0.0
 30
0.0
 70
     1
  0
VERTEX
  8
Layer_1
 10
731.569094688913
 20
41.6488830761564
 42
-0.0252483760277
  0
VERTEX
  8
Layer_1
 10
744.522466210093
 20
70.7808688067651
 42
-0.0529715985932
  0
VERTEX
  8
Layer_1
 10
762.946030743416
 20
44.3268143663749
 42
-0.7302602770327
  0
VERTEX
  8
Layer_1
 10
761.689642989596
 20
41.6667058039991
 42
-0.1052180333966
  0
VERTEX
  8
Layer_1
 10
731.76487755404
 20
41.4810955718151
 42
-0.0440363001947
  0
SEQEND
  0
POLYLINE
  8
Layer_1
 66
     1
 10
0.0
 20
0.0
 30
0.0
 70
     1
  0
VERTEX
  8
Layer_1
 10
742.508093621355
 20
86.7933602296671
 42
-0.2141007488475
  0
VERTEX
  8
Layer_1
 10
736.583339297176
 20
88.1165254263019
 42
-0.1020506013872
  0
VERTEX
  8
Layer_1
 10
718.862090330714
 20
96.1051040872543
 42
-0.4817107863614
  0
VERTEX
  8
Layer_1
 10
715.713995962434
 20
102.294766410008
 42
-0.0538641411741
  0
VERTEX
  8
Layer_1
 10
722.905573263945
 20
104.226096680867
 42
0.1652457925659
  0
VERTEX
  8
Layer_1
 10
734.421782757555
 20
115.820362794641
 42
-0.1595666934236
  0
VERTEX
  8
Layer_1
 10
739.569929485695
 20
118.877762983499
 42
-0.2451708033568
  0
VERTEX
  8
Layer_1
 10
742.400377724984
 20
112.909451726757
 42
-0.0863329698084
  0
VERTEX
  8
Layer_1
 10
742.977050943929
 20
88.2273742587147
 42
-0.2241953736702
  0
SEQEND
  0
POLYLINE
  8
Layer_1
 66
     1
 10
0.0
 20
0.0
 30
0.0
 70
     1
  0
VERTEX
  8
Layer_1
 10
570.739621251235
 20
42.4252418418392
 42
-0.0430562370215
  0
VERTEX
  8
Layer_1
 10
585.645235695526
 20
69.7127579314808
 42
-0.0405191042672
  0
VERTEX
  8
Layer_1
 10
602.158986028842
 20
43.5239449412478
 42
-0.8882736316075
  0
VERTEX
  8
Layer_1
 10
601.626933001382
 20
41.4631745912874
 42
-0.0999380261622
  0
VERTEX
  8
Layer_1
 10
573.390870343559
 20
41.4415566750263
 42
-0.428311227774
  0
SEQEND
  0
POLYLINE
  8
Layer_1
 66
     1
 10
0.0
 20
0.0
 30
0.0
 70
     1
  0
VERTEX
  8
Layer_1
 10
595.771795885199
 20
118.574415279248
 42
-0.1244940837416
  0
VERTEX
  8
Layer_1
 10
601.60601862432
 20
112.598191150221
 42
0.2761892367155
  0
VERTEX
  8
Layer_1
 10
615.885039902142
 20
103.581774885733
 42
-0.5593872795896
  0
VERTEX
  8
Layer_1
 10
618.139891920003
 20
98.8653003999732
 42
-0.1035952703483
  0
VERTEX
  8
Layer_1
 10
604.451953556714
 20
89.1849380460995
 42
-0.1689396595071
  0
VERTEX
  8
Layer_1
 10
595.471630567504
 20
87.2131296740337
 42
-0.2782715159641
  0
VERTEX
  8
Layer_1
 10
590.814750828544
 20
96.5566032722172
 42
-0.0864548527886
  0
VERTEX
  8
Layer_1
 10
591.862017408301
 20
114.446000272981
 42
-0.5487125763439
  0
SEQEND
  0
POLYLINE
  8
Layer_1
 66
     1
 10
0.0
 20
0.0
 30
0.0
 70
     1
  0
VERTEX
  8
Layer_1
 10
942.479920029201
 20
1585.4800039996
 42
-0.1467544356655
  0
VERTEX
  8
Layer_1
 10
936.317909729823
 20
1589.87210487201
 42
-0.0842161802373
  0
VERTEX
  8
Layer_1
 10
928.181998316763
 20
1601.39326176306
 42
-0.4038528450225
  0
VERTEX
  8
Layer_1
 10
931.945024996338
 20
1607.24121238259
 42
-0.1318356217325
  0
VERTEX
  8
Layer_1
 10
950.115206320863
 20
1611.41088588482
 42
-0.5093486584575
  0
VERTEX
  8
Layer_1
 10
950.557831993925
 20
1607.84188565995
 42
0.2411590504645
  0
VERTEX
  8
Layer_1
 10
944.108787754895
 20
1593.88703296595
 42
-0.1515055877107
  0
VERTEX
  8
Layer_1
 10
943.090410502166
 20
1586.09964741724
 42
-0.1614954380457
  0
SEQEND
  0
POLYLINE
  8
Layer_1
 66
     1
 10
0.0
 20
0.0
 30
0.0
 70
     1
  0
VERTEX
  8
Layer_1
 10
905.220139922035
 20
1595.27111984629
 42
-0.1872950785063
  0
VERTEX
  8
Layer_1
 10
897.207546187197
 20
1585.56648838358
 42
-0.4939799056198
  0
VERTEX
  8
Layer_1
 10
893.343094196599
 20
1588.60674676504
 42
0.1090376401435
  0
VERTEX
  8
Layer_1
 10
891.20578143791
 20
1602.79506982441
 42
-0.0110592325635
  0
VERTEX
  8
Layer_1
 10
886.557168788151
 20
1607.92377083538
 42
-0.5833976899419
  0
VERTEX
  8
Layer_1
 10
889.95161063389
 20
1612.79795542938
 42
-0.1409307555293
  0
VERTEX
  8
Layer_1
 10
905.489410202842
 20
1608.42449439518
 42
-0.3579167481841
  0
VERTEX
  8
Layer_1
 10
907.173421693985
 20
1599.01123582826
 42
0.0024204299915
  0
SEQEND
  0
POLYLINE
  8
Layer_1
 66
     1
 10
0.0
 20
0.0
 30
0.0
 70
     1
  0
VERTEX
  8
Layer_1
 10
581.461506009525
 20
86.6529730938466
 42
-0.1127294382596
  0
VERTEX
  8
Layer_1
 10
558.320173937159
 20
95.8819880275631
 42
-0.4673867969498
  0
VERTEX
  8
Layer_1
 10
554.86710947286
 20
102.225773899647
 42
-0.0453542451288
  0
VERTEX
  8
Layer_1
 10
562.31894468431
 20
104.30054470714
 42
0.1535736832187
  0
VERTEX
  8
Layer_1
 10
571.122166092117
 20
113.690705336618
 42
-0.1705190671094
  0
VERTEX
  8
Layer_1
 10
575.595947227419
 20
118.984996437174
 42
-0.3926001482287
  0
VERTEX
  8
Layer_1
 10
580.826805401019
 20
115.214276431789
 42
-0.1167166162587
  0
VERTEX
  8
Layer_1
 10
581.729422098785
 20
87.4070682983389
 42
-0.185980987795
  0
SEQEND
  0
POLYLINE
  8
Layer_1
 66
     1
 10
0.0
 20
0.0
 30
0.0
 70
     1
  0
VERTEX
  8
Layer_1
 10
940.953258920491
 20
1619.61462396296
 42
-0.1617770446114
  0
VERTEX
  8
Layer_1
 10
928.555357049813
 20
1615.00946877525
 42
-0.3225686102728
  0
VERTEX
  8
Layer_1
 10
924.074008146211
 20
1621.02810383192
 42
-0.1780507515053
  0
VERTEX
  8
Layer_1
 10
925.812219431066
 20
1643.0379809429
 42
-0.5869058036285
  0
VERTEX
  8
Layer_1
 10
929.604178694059
 20
1642.13805059671
 42
0.0729507572678
  0
VERTEX
  8
Layer_1
 10
933.660595075853
 20
1632.36726092752
 42
0.1215764225332
  0
VERTEX
  8
Layer_1
 10
945.23930244282
 20
1628.93370908873
 42
-0.2555816128057
  0
VERTEX
  8
Layer_1
 10
947.247267745638
 20
1626.0495461165
 42
-0.0790964266563
  0
SEQEND
  0
POLYLINE
  8
Layer_1
 66
     1
 10
0.0
 20
0.0
 30
0.0
 70
     1
  0
VERTEX
  8
Layer_1
 10
893.045752411666
 20
1625.31896223056
 42
-0.4353129540648
  0
VERTEX
  8
Layer_1
 10
897.591248306103
 20
1629.30714625428
 42
0.1727214309218
  0
VERTEX
  8
Layer_1
 10
907.489536842074
 20
1637.64432211384
 42
0.0
  0
VERTEX
  8
Layer_1
 10
912.682049019466
 20
1645.98147466779
 42
-0.0775237006303
  0
VERTEX
  8
Layer_1
 10
916.645159908542
 20
1625.08405337206
 42
-0.5212374398522
  0
VERTEX
  8
Layer_1
 10
909.655569661582
 20
1617.09660383616
 42
-0.167632125161
  0
VERTEX
  8
Layer_1
 10
894.09254632511
 20
1623.94658706951
 42
-0.207149162646
  0
SEQEND
  0
POLYLINE
  8
Layer_1
 66
     1
 10
0.0
 20
0.0
 30
0.0
 70
     1
  0
VERTEX
  8
Layer_1
 10
908.483598115931
 20
74.2920976412497
 42
-0.0638422334336
  0
VERTEX
  8
Layer_1
 10
927.760802540185
 20
83.601054520193
 42
-0.3450850385045
  0
VERTEX
  8
Layer_1
 10
937.574670720913
 20
83.0969213153181
 42
-0.2284815654625
  0
VERTEX
  8
Layer_1
 10
935.520305332581
 20
74.7017361777533
 42
0.3012782009
  0
VERTEX
  8
Layer_1
 10
931.411289482142
 20
56.5819320027588
 42
-0.4456839849518
  0
VERTEX
  8
Layer_1
 10
930.619550582676
 20
51.9256805375443
 42
-0.1881813022406
  0
VERTEX
  8
Layer_1
 10
920.83052325568
 20
57.6855843111772
 42
-0.1031618684794
  0
VERTEX
  8
Layer_1
 10
908.747131731505
 20
73.2040851623354
 42
-0.2455120452611
  0
SEQEND
  0
POLYLINE
  8
Layer_1
 66
     1
 10
0.0
 20
0.0
 30
0.0
 70
     1
  0
VERTEX
  8
Layer_1
 10
725.392292618589
 20
82.1410342271965
 42
-0.5141014150197
  0
VERTEX
  8
Layer_1
 10
733.548045847695
 20
70.544492434412
 42
-0.183393051665
  0
VERTEX
  8
Layer_1
 10
721.051635523417
 20
52.5805566090673
 42
-0.7281084994379
  0
VERTEX
  8
Layer_1
 10
716.364251347117
 20
54.8096638352861
 42
0.0147603138956
  0
VERTEX
  8
Layer_1
 10
717.640812827531
 20
63.3476143706148
 42
0.1768408691936
  0
VERTEX
  8
Layer_1
 10
711.198624309984
 20
75.5399384455548
 42
-0.317391865795
  0
VERTEX
  8
Layer_1
 10
709.340198670016
 20
81.5250325856815
 42
-0.2499639483519
  0
VERTEX
  8
Layer_1
 10
717.240304789804
 20
83.7667182765566
 42
-0.0120388220686
  0
SEQEND
  0
POLYLINE
  8
Layer_1
 66
     1
 10
0.0
 20
0.0
 30
0.0
 70
     1
  0
VERTEX
  8
Layer_1
 10
826.038533505253
 20
1462.40448029939
 42
-0.1615602432975
  0
VERTEX
  8
Layer_1
 10
815.47092792539
 20
1460.17514496365
 42
-0.148519076385
  0
VERTEX
  8
Layer_1
 10
801.303753268478
 20
1463.03197428182
 42
-0.3138060375158
  0
VERTEX
  8
Layer_1
 10
801.582864626859
 20
1469.38252863679
 42
-0.0522743977296
  0
VERTEX
  8
Layer_1
 10
812.630438718658
 20
1485.82323510473
 42
-0.0717028036965
  0
VERTEX
  8
Layer_1
 10
825.484711403614
 20
1464.62993923776
 42
-0.2676403609063
  0
SEQEND
  0
POLYLINE
  8
Layer_1
 66
     1
 10
0.0
 20
0.0
 30
0.0
 70
     1
  0
VERTEX
  8
Layer_1
 10
836.082544738856
 20
1470.55494310466
 42
-0.1467544356627
  0
VERTEX
  8
Layer_1
 10
829.920534439476
 20
1474.9470439771
 42
-0.0842161802376
  0
VERTEX
  8
Layer_1
 10
821.784623026418
 20
1486.46820086812
 42
-0.4038528450235
  0
VERTEX
  8
Layer_1
 10
825.547649705992
 20
1492.31615148765
 42
-0.1318356216311
  0
VERTEX
  8
Layer_1
 10
843.717831029786
 20
1496.48582499031
 42
-0.5093486585518
  0
VERTEX
  8
Layer_1
 10
844.160456703579
 20
1492.91682476499
 42
0.2411590504635
  0
VERTEX
  8
Layer_1
 10
837.711412464548
 20
1478.96197207102
 42
-0.1515055877266
  0
VERTEX
  8
Layer_1
 10
836.693035211857
 20
1471.17458652233
 42
-0.1614954360996
  0
SEQEND
  0
POLYLINE
  8
Layer_1
 66
     1
 10
0.0
 20
0.0
 30
0.0
 70
     1
  0
VERTEX
  8
Layer_1
 10
798.822764631688
 20
1480.34605895134
 42
-0.1872950785001
  0
VERTEX
  8
Layer_1
 10
790.81017089685
 20
1470.64142748864
 42
-0.4939799055652
  0
VERTEX
  8
Layer_1
 10
786.945718906253
 20
1473.68168587008
 42
0.1090376401788
  0
VERTEX
  8
Layer_1
 10
784.808406147563
 20
1487.87000892947
 42
-0.0110592325662
  0
VERTEX
  8
Layer_1
 10
780.159793497806
 20
1492.99870994045
 42
-0.5833976899252
  0
VERTEX
  8
Layer_1
 10
783.554235343545
 20
1497.87289453445
 42
-0.1409307555267
  0
VERTEX
  8
Layer_1
 10
799.092034912495
 20
1493.49943350025
 42
-0.3579167481667
  0
VERTEX
  8
Layer_1
 10
800.776046403639
 20
1484.08617493333
 42
0.002420429989
  0
SEQEND
  0
POLYLINE
  8
Layer_1
 66
     1
 10
0.0
 20
0.0
 30
0.0
 70
     1
  0
VERTEX
  8
Layer_1
 10
834.555883630145
 20
1504.68956306803
 42
-0.1617770446097
  0
VERTEX
  8
Layer_1
 10
822.157981759468
 20
1500.08440788029
 42
-0.3225686102859
  0
VERTEX
  8
Layer_1
 10
817.676632855864
 20
1506.10304293697
 42
-0.1780507515048
  0
VERTEX
  8
Layer_1
 10
819.414844140715
 20
1528.11292004796
 42
-0.5869058030626
  0
VERTEX
  8
Layer_1
 10
823.20680340371
 20
1527.21298970178
 42
0.0729507572615
  0
VERTEX
  8
Layer_1
 10
827.26321978551
 20
1517.44220003259
 42
0.1215764225602
  0
VERTEX
  8
Layer_1
 10
838.841927152159
 20
1514.00864819398
 42
-0.2555816128209
  0
VERTEX
  8
Layer_1
 10
840.849892455292
 20
1511.12448522156
 42
-0.0790964266557
  0
SEQEND
  0
POLYLINE
  8
Layer_1
 66
     1
 10
0.0
 20
0.0
 30
0.0
 70
     1
  0
VERTEX
  8
Layer_1
 10
786.648377121321
 20
1510.39390133563
 42
-0.4353129540744
  0
VERTEX
  8
Layer_1
 10
791.193873015757
 20
1514.38208535936
 42
0.1727214309499
  0
VERTEX
  8
Layer_1
 10
801.092161551726
 20
1522.71926121891
 42
0.0
  0
VERTEX
  8
Layer_1
 10
806.284673729119
 20
1531.05641377284
 42
-0.0775237006284
  0
VERTEX
  8
Layer_1
 10
810.247784618196
 20
1510.15899247711
 42
-0.5212374398553
  0
VERTEX
  8
Layer_1
 10
803.258194371235
 20
1502.17154294122
 42
-0.1676321251558
  0
VERTEX
  8
Layer_1
 10
787.695171034764
 20
1509.02152617457
 42
-0.2071491626437
  0
SEQEND
  0
POLYLINE
  8
Layer_1
 66
     1
 10
0.0
 20
0.0
 30
0.0
 70
     1
  0
VERTEX
  8
Layer_1
 10
764.095275956512
 20
1291.91472792515
 42
-0.1615602433437
  0
VERTEX
  8
Layer_1
 10
753.527670376649
 20
1289.68539258942
 42
-0.1485190763871
  0
VERTEX
  8
Layer_1
 10
739.360495719736
 20
1292.5422219076
 42
-0.3138060375421
  0
VERTEX
  8
Layer_1
 10
739.639607078119
 20
1298.89277626255
 42
-0.0522743977278
  0
VERTEX
  8
Layer_1
 10
750.687181169919
 20
1315.3334827305
 42
-0.0717028036951
  0
VERTEX
  8
Layer_1
 10
763.541453854873
 20
1294.14018686354
 42
-0.2676403607305
  0
SEQEND
  0
POLYLINE
  8
Layer_1
 66
     1
 10
0.0
 20
0.0
 30
0.0
 70
     1
  0
VERTEX
  8
Layer_1
 10
774.139287190114
 20
1300.06519073044
 42
-0.1467544356708
  0
VERTEX
  8
Layer_1
 10
767.977276890736
 20
1304.45729160286
 42
-0.0842161802372
  0
VERTEX
  8
Layer_1
 10
759.841365477676
 20
1315.97844849389
 42
-0.403852845019
  0
VERTEX
  8
Layer_1
 10
763.604392157251
 20
1321.82639911343
 42
-0.1318356217818
  0
VERTEX
  8
Layer_1
 10
781.774573482091
 20
1325.99607261546
 42
-0.5093486583966
  0
VERTEX
  8
Layer_1
 10
782.217199154838
 20
1322.42707239077
 42
0.2411590504627
  0
VERTEX
  8
Layer_1
 10
775.768154915807
 20
1308.47221969678
 42
-0.1515055877083
  0
VERTEX
  8
Layer_1
 10
774.749777663119
 20
1300.6848341481
 42
-0.1614954367089
  0
SEQEND
  0
POLYLINE
  8
Layer_1
 66
     1
 10
0.0
 20
0.0
 30
0.0
 70
     1
  0
VERTEX
  8
Layer_1
 10
736.879507082948
 20
1309.85630657712
 42
-0.1872950785035
  0
VERTEX
  8
Layer_1
 10
728.86691334811
 20
1300.15167511441
 42
-0.4939799055753
  0
VERTEX
  8
Layer_1
 10
725.002461357512
 20
1303.19193349587
 42
0.1090376402051
  0
VERTEX
  8
Layer_1
 10
722.865148598822
 20
1317.38025655524
 42
-0.0110592325678
  0
VERTEX
  8
Layer_1
 10
718.216535949065
 20
1322.50895756622
 42
-0.5833976899383
  0
VERTEX
  8
Layer_1
 10
721.610977794803
 20
1327.38314216021
 42
-0.1409307555276
  0
VERTEX
  8
Layer_1
 10
737.148777363754
 20
1323.00968112602
 42
-0.3579167481767
  0
VERTEX
  8
Layer_1
 10
738.832788854897
 20
1313.5964225591
 42
0.0024204299904
  0
SEQEND
  0
POLYLINE
  8
Layer_1
 66
     1
 10
0.0
 20
0.0
 30
0.0
 70
     1
  0
VERTEX
  8
Layer_1
 10
772.612626081405
 20
1334.19981069379
 42
-0.1617770446092
  0
VERTEX
  8
Layer_1
 10
760.214724210726
 20
1329.59465550606
 42
-0.3225686102839
  0
VERTEX
  8
Layer_1
 10
755.733375307124
 20
1335.61329056274
 42
-0.178050751506
  0
VERTEX
  8
Layer_1
 10
757.471586591974
 20
1357.62316767372
 42
-0.5869058035725
  0
VERTEX
  8
Layer_1
 10
761.26354585497
 20
1356.72323732755
 42
0.072950757269
  0
VERTEX
  8
Layer_1
 10
765.319962236765
 20
1346.95244765836
 42
0.1215764223568
  0
VERTEX
  8
Layer_1
 10
776.898669605518
 20
1343.51889581852
 42
-0.2555816127103
  0
VERTEX
  8
Layer_1
 10
778.906634906552
 20
1340.63473284732
 42
-0.0790964266561
  0
SEQEND
  0
POLYLINE
  8
Layer_1
 66
     1
 10
0.0
 20
0.0
 30
0.0
 70
     1
  0
VERTEX
  8
Layer_1
 10
724.705119572579
 20
1339.90414896137
 42
-0.4353129540605
  0
VERTEX
  8
Layer_1
 10
729.250615467017
 20
1343.89233298512
 42
0.1727214309326
  0
VERTEX
  8
Layer_1
 10
739.148904002986
 20
1352.22950884468
 42
0.0
  0
VERTEX
  8
Layer_1
 10
744.341416180379
 20
1360.5666613986
 42
-0.0775237006315
  0
VERTEX
  8
Layer_1
 10
748.304527069455
 20
1339.66924010287
 42
-0.521237439852
  0
VERTEX
  8
Layer_1
 10
741.314936822494
 20
1331.68179056698
 42
-0.1676321251463
  0
VERTEX
  8
Layer_1
 10
725.751913486023
 20
1338.53177380033
 42
-0.207149162648
  0
SEQEND
  0
POLYLINE
  8
Layer_1
 66
     1
 10
0.0
 20
0.0
 30
0.0
 70
     1
  0
VERTEX
  8
Layer_1
 10
626.627760842729
 20
1162.24037530614
 42
-0.16156024331
  0
VERTEX
  8
Layer_1
 10
616.060155262867
 20
1160.0110399704
 42
-0.1485190763858
  0
VERTEX
  8
Layer_1
 10
601.892980605955
 20
1162.86786928857
 42
-0.3138060374844
  0
VERTEX
  8
Layer_1
 10
602.172091964337
 20
1169.21842364354
 42
-0.0522743977291
  0
VERTEX
  8
Layer_1
 10
613.219666056135
 20
1185.65913011149
 42
-0.0717028036971
  0
VERTEX
  8
Layer_1
 10
626.073938741091
 20
1164.46583424451
 42
-0.2676403609638
  0
SEQEND
  0
POLYLINE
  8
Layer_1
 66
     1
 10
0.0
 20
0.0
 30
0.0
 70
     1
  0
VERTEX
  8
Layer_1
 10
636.671772076332
 20
1170.39083811142
 42
-0.1467544356709
  0
VERTEX
  8
Layer_1
 10
630.509761776953
 20
1174.78293898385
 42
-0.0842161802376
  0
VERTEX
  8
Layer_1
 10
622.373850363894
 20
1186.30409587488
 42
-0.4038528450222
  0
VERTEX
  8
Layer_1
 10
626.136877043468
 20
1192.15204649439
 42
-0.1318356217437
  0
VERTEX
  8
Layer_1
 10
644.307058368039
 20
1196.32171999661
 42
-0.5093486584996
  0
VERTEX
  8
Layer_1
 10
644.749684041056
 20
1192.75271977174
 42
0.2411590504696
  0
VERTEX
  8
Layer_1
 10
638.300639802024
 20
1178.79786707777
 42
-0.1515055877367
  0
VERTEX
  8
Layer_1
 10
637.282262549326
 20
1171.01048152908
 42
-0.1614954369848
  0
SEQEND
  0
POLYLINE
  8
Layer_1
 66
     1
 10
0.0
 20
0.0
 30
0.0
 70
     1
  0
VERTEX
  8
Layer_1
 10
599.411991969165
 20
1180.18195395809
 42
-0.1872950785042
  0
VERTEX
  8
Layer_1
 10
591.399398234327
 20
1170.47732249538
 42
-0.4939799055529
  0
VERTEX
  8
Layer_1
 10
587.534946243729
 20
1173.51758087685
 42
0.1090376402572
  0
VERTEX
  8
Layer_1
 10
585.39763348504
 20
1187.70590393623
 42
-0.011059232569
  0
VERTEX
  8
Layer_1
 10
580.749020835281
 20
1192.8346049472
 42
-0.5833976899448
  0
VERTEX
  8
Layer_1
 10
584.143462681021
 20
1197.70878954119
 42
-0.1409307555289
  0
VERTEX
  8
Layer_1
 10
599.681262249971
 20
1193.335328507
 42
-0.3579167481626
  0
VERTEX
  8
Layer_1
 10
601.365273741116
 20
1183.92206994008
 42
0.0024204299904
  0
SEQEND
  0
POLYLINE
  8
Layer_1
 66
     1
 10
0.0
 20
0.0
 30
0.0
 70
     1
  0
VERTEX
  8
Layer_1
 10
635.145110967621
 20
1204.52545807477
 42
-0.1617770446143
  0
VERTEX
  8
Layer_1
 10
622.747209096945
 20
1199.92030288705
 42
-0.322568610289
  0
VERTEX
  8
Layer_1
 10
618.265860193341
 20
1205.93893794373
 42
-0.1780507515074
  0
VERTEX
  8
Layer_1
 10
620.004071478191
 20
1227.9488150547
 42
-0.5869058034925
  0
VERTEX
  8
Layer_1
 10
623.796030741185
 20
1227.04888470853
 42
0.0729507572606
  0
VERTEX
  8
Layer_1
 10
627.852447122984
 20
1217.27809503935
 42
0.1215764224456
  0
VERTEX
  8
Layer_1
 10
639.431154490819
 20
1213.84454320005
 42
-0.2555816127423
  0
VERTEX
  8
Layer_1
 10
641.439119792769
 20
1210.96038022832
 42
-0.079096426655
  0
SEQEND
  0
POLYLINE
  8
Layer_1
 66
     1
 10
0.0
 20
0.0
 30
0.0
 70
     1
  0
VERTEX
  8
Layer_1
 10
587.237604458797
 20
1210.22979634237
 42
-0.4353129540615
  0
VERTEX
  8
Layer_1
 10
591.783100353234
 20
1214.21798036612
 42
0.1727214309145
  0
VERTEX
  8
Layer_1
 10
601.681388889203
 20
1222.55515622565
 42
0.0
  0
VERTEX
  8
Layer_1
 10
606.873901066595
 20
1230.89230877959
 42
-0.0775237006326
  0
VERTEX
  8
Layer_1
 10
610.837011955674
 20
1209.99488748386
 42
-0.52123743985
  0
VERTEX
  8
Layer_1
 10
603.847421708712
 20
1202.00743794797
 42
-0.1676321251642
  0
VERTEX
  8
Layer_1
 10
588.28439837224
 20
1208.85742118133
 42
-0.2071491626493
  0
SEQEND
  0
POLYLINE
  8
Layer_1
 66
     1
 10
0.0
 20
0.0
 30
0.0
 70
     1
  0
VERTEX
  8
Layer_1
 10
767.338161529371
 20
1176.96877687584
 42
-0.3042554639632
  0
VERTEX
  8
Layer_1
 10
788.549279606808
 20
1224.53495021093
 42
-0.0483216248457
  0
VERTEX
  8
Layer_1
 10
795.622910177323
 20
1227.39816451569
 42
0.1036140618765
  0
VERTEX
  8
Layer_1
 10
781.070858513962
 20
1167.83863001197
 42
-0.087618288879
  0
VERTEX
  8
Layer_1
 10
772.144168745761
 20
1119.94941501099
 42
0.0
  0
VERTEX
  8
Layer_1
 10
772.144189433562
 20
1119.94946856067
 42
-0.0588448232735
  0
VERTEX
  8
Layer_1
 10
753.525017771454
 20
1083.08552932777
 42
0.0412334240238
  0
VERTEX
  8
Layer_1
 10
757.205437276991
 20
1119.50551037667
 42
0.0
  0
VERTEX
  8
Layer_1
 10
757.205439383086
 20
1119.50508111907
 42
0.2056370565604
  0
VERTEX
  8
Layer_1
 10
746.735942592165
 20
1148.63031883556
 42
0.0
  0
VERTEX
  8
Layer_1
 10
741.685383580859
 20
1153.99516523381
 42
-0.1374487633603
  0
VERTEX
  8
Layer_1
 10
755.193943071899
 20
1164.44675884716
 42
0.1170540033855
  0
VERTEX
  8
Layer_1
 10
764.233756361286
 20
1165.97363094826
 42
0.2400898952289
  0
SEQEND
  0
POLYLINE
  8
Layer_1
 66
     1
 10
0.0
 20
0.0
 30
0.0
 70
     1
  0
VERTEX
  8
Layer_1
 10
564.56238044398
 20
230.716352991636
 42
0.0291841483766
  0
VERTEX
  8
Layer_1
 10
574.905260351953
 20
232.082136170845
 42
-0.4770378469074
  0
VERTEX
  8
Layer_1
 10
578.625449598942
 20
229.973904272702
 42
0.1761619698694
  0
VERTEX
  8
Layer_1
 10
597.44898202278
 20
211.487777612018
 42
0.656155123602
  0
VERTEX
  8
Layer_1
 10
602.901390506867
 20
216.903222919006
 42
-0.1051060267296
  0
VERTEX
  8
Layer_1
 10
600.277010715691
 20
237.587907868296
 42
-0.244036764101
  0
VERTEX
  8
Layer_1
 10
610.791564881227
 20
253.12995940794
 42
-0.3328910958327
  0
VERTEX
  8
Layer_1
 10
627.310970465958
 20
247.144396016775
 42
-0.3801061719259
  0
VERTEX
  8
Layer_1
 10
623.723396752366
 20
197.553884951972
 42
-0.3403880770738
  0
VERTEX
  8
Layer_1
 10
588.803099140337
 20
191.159448972195
 42
-0.1315849924787
  0
VERTEX
  8
Layer_1
 10
564.171907136843
 20
212.53213408594
 42
-0.0433787920898
  0
VERTEX
  8
Layer_1
 10
552.184459795413
 20
233.564633044421
 42
0.0985406298141
  0
SEQEND
  0
POLYLINE
  8
Layer_1
 66
     1
 10
0.0
 20
0.0
 30
0.0
 70
     1
  0
VERTEX
  8
Layer_1
 10
812.611712415979
 20
1133.51831428908
 42
-0.0100689392687
  0
VERTEX
  8
Layer_1
 10
810.25625497166
 20
1130.37594891918
 42
0.0831362540557
  0
VERTEX
  8
Layer_1
 10
830.97614978582
 20
1190.37697184889
 42
0.1067105060432
  0
VERTEX
  8
Layer_1
 10
828.077820492795
 20
1229.7476772664
 42
-0.0341784309271
  0
VERTEX
  8
Layer_1
 10
821.272634199396
 20
1258.68540975662
 42
-0.0973659960861
  0
VERTEX
  8
Layer_1
 10
823.227353340687
 20
1285.97393964128
 42
-0.062134081195
  0
VERTEX
  8
Layer_1
 10
837.897956026425
 20
1328.69077460472
 42
0.0625707314783
  0
VERTEX
  8
Layer_1
 10
844.371158716619
 20
1266.38488965484
 42
-0.1929357284653
  0
VERTEX
  8
Layer_1
 10
830.979957961458
 20
1162.66703953813
 42
-0.0363457781907
  0
SEQEND
  0
POLYLINE
  8
Layer_1
 66
     1
 10
0.0
 20
0.0
 30
0.0
 70
     1
  0
VERTEX
  8
Layer_1
 10
751.132516450852
 20
225.440647999655
 42
-0.3882594250645
  0
VERTEX
  8
Layer_1
 10
727.135596892053
 20
222.162071821096
 42
-0.2977911809353
  0
VERTEX
  8
Layer_1
 10
714.216881381617
 20
259.057153890468
 42
-0.1921580393078
  0
VERTEX
  8
Layer_1
 10
717.515002247692
 20
261.720875571722
 42
-0.3198815195572
  0
VERTEX
  8
Layer_1
 10
721.169973379819
 20
255.324919982565
 42
0.3104539239606
  0
VERTEX
  8
Layer_1
 10
741.617113383623
 20
227.336947846686
 42
-0.1166673952143
  0
VERTEX
  8
Layer_1
 10
750.622649276759
 20
225.797659242652
 42
-0.2933824146535
  0
SEQEND
  0
POLYLINE
  8
Layer_1
 66
     1
 10
0.0
 20
0.0
 30
0.0
 70
     1
  0
VERTEX
  8
Layer_1
 10
670.332900984098
 20
911.068686431079
 42
0.1826529680662
  0
VERTEX
  8
Layer_1
 10
637.786530380199
 20
952.283413189458
 42
0.1290744542402
  0
VERTEX
  8
Layer_1
 10
625.799778201898
 20
956.0848285424
 42
-0.4399457348342
  0
VERTEX
  8
Layer_1
 10
623.489134605329
 20
959.461329021131
 42
-0.2172693909824
  0
VERTEX
  8
Layer_1
 10
630.798725665164
 20
971.935179147721
 42
0.3990272202376
  0
VERTEX
  8
Layer_1
 10
636.860286683143
 20
986.634979557703
 42
-0.2413328372023
  0
VERTEX
  8
Layer_1
 10
636.199307547165
 20
1018.5968725791
 42
-0.0313489818942
  0
VERTEX
  8
Layer_1
 10
637.186630558247
 20
1020.20522494668
 42
0.1119400437934
  0
VERTEX
  8
Layer_1
 10
649.206290642366
 20
981.495371971761
 42
-0.0697994108932
  0
VERTEX
  8
Layer_1
 10
667.702907147075
 20
933.980000770923
 42
-0.0437023828432
  0
SEQEND
  0
POLYLINE
  8
Layer_1
 66
     1
 10
0.0
 20
0.0
 30
0.0
 70
     1
  0
VERTEX
  8
Layer_1
 10
700.579189364661
 20
221.175029930447
 42
0.0197218205298
  0
VERTEX
  8
Layer_1
 10
688.399841844517
 20
256.250682403697
 42
0.0962765772274
  0
VERTEX
  8
Layer_1
 10
658.251761693735
 20
300.336304065108
 42
0.3033250745443
  0
VERTEX
  8
Layer_1
 10
599.969671386934
 20
309.127435574011
 42
0.2515540983398
  0
VERTEX
  8
Layer_1
 10
574.0193418628
 20
258.307285742241
 42
-0.2496904641175
  0
VERTEX
  8
Layer_1
 10
573.352015661706
 20
253.561745071217
 42
-0.1128141054421
  0
VERTEX
  8
Layer_1
 10
550.735091107199
 20
253.295174936904
 42
-0.3296589895351
  0
VERTEX
  8
Layer_1
 10
549.598927862471
 20
254.451813228414
 42
-0.114312128257
  0
VERTEX
  8
Layer_1
 10
554.224707695148
 20
280.581879055155
 42
-0.0842020887964
  0
VERTEX
  8
Layer_1
 10
571.146922998744
 20
313.937378884919
 42
-0.2000332186714
  0
VERTEX
  8
Layer_1
 10
615.777522224594
 20
337.129024088733
 42
-0.1693303236575
  0
VERTEX
  8
Layer_1
 10
644.288479018392
 20
326.677044902505
 42
-0.1361441564488
  0
VERTEX
  8
Layer_1
 10
693.247842484288
 20
258.305196631039
 42
-0.047882161282
  0
VERTEX
  8
Layer_1
 10
703.330292866499
 20
224.684798236025
 42
-0.075326283935
  0
VERTEX
  8
Layer_1
 10
703.903543716106
 20
217.647872654623
 42
-0.0727698971702
  0
SEQEND
  0
POLYLINE
  8
Layer_1
 66
     1
 10
0.0
 20
0.0
 30
0.0
 70
     1
  0
VERTEX
  8
Layer_1
 10
680.968616402164
 20
514.423192784855
 42
-0.0316424037546
  0
VERTEX
  8
Layer_1
 10
681.97225235249
 20
601.669800313863
 42
-0.092869908334
  0
VERTEX
  8
Layer_1
 10
719.887271256423
 20
719.216034855968
 42
-0.3146200922943
  0
VERTEX
  8
Layer_1
 10
858.827473625444
 20
784.189673554688
 42
-0.2207702427622
  0
VERTEX
  8
Layer_1
 10
927.619298888039
 20
732.455844441259
 42
-0.0669657076475
  0
VERTEX
  8
Layer_1
 10
941.754719133468
 20
695.974765359373
 42
-0.0393062924449
  0
VERTEX
  8
Layer_1
 10
941.928309965313
 20
694.064130607114
 42
0.2690113062079
  0
VERTEX
  8
Layer_1
 10
913.849388326741
 20
686.166617926216
 42
-0.1128221526519
  0
VERTEX
  8
Layer_1
 10
900.952489584298
 20
679.776577674826
 42
-0.359337001315
  0
VERTEX
  8
Layer_1
 10
888.682822990666
 20
686.784348952021
 42
0.0939771799521
  0
VERTEX
  8
Layer_1
 10
860.661300834434
 20
726.930900008894
 42
0.1599219537863
  0
VERTEX
  8
Layer_1
 10
838.645465917161
 20
737.676280531316
 42
0.055558328573
  0
VERTEX
  8
Layer_1
 10
806.397679800415
 20
740.338029672502
 42
0.1135630657501
  0
VERTEX
  8
Layer_1
 10
783.791074701754
 20
734.382627694222
 42
0.1512447044722
  0
VERTEX
  8
Layer_1
 10
732.635096652984
 20
684.967269999706
 42
0.1079616283047
  0
VERTEX
  8
Layer_1
 10
691.644872250355
 20
548.465654365069
 42
0.0994484737815
  0
VERTEX
  8
Layer_1
 10
705.990801691088
 20
405.835077691978
 42
0.0
  0
VERTEX
  8
Layer_1
 10
716.173089195722
 20
373.737589489475
 42
-0.2087080141672
  0
VERTEX
  8
Layer_1
 10
713.228154735223
 20
377.527804323906
 42
-0.0933479768965
  0
SEQEND
  0
POLYLINE
  8
Layer_1
 66
     1
 10
0.0
 20
0.0
 30
0.0
 70
     1
  0
VERTEX
  8
Layer_1
 10
734.012309452976
 20
805.875815557312
 42
-0.1805623134451
  0
VERTEX
  8
Layer_1
 10
728.218416346865
 20
793.894982073357
 42
-0.0562362158828
  0
VERTEX
  8
Layer_1
 10
720.115323712464
 20
786.433886314129
 42
-0.0613646232346
  0
VERTEX
  8
Layer_1
 10
757.033774351797
 20
899.318438242728
 42
-0.096617518708
  0
VERTEX
  8
Layer_1
 10
813.173198069476
 20
973.754291131517
 42
-0.0361007910692
  0
VERTEX
  8
Layer_1
 10
872.889755498537
 20
1018.86180252245
 42
0.04326099148
  0
VERTEX
  8
Layer_1
 10
904.7937958082
 20
1044.36005980994
 42
0.0715827027777
  0
VERTEX
  8
Layer_1
 10
919.667661611489
 20
1063.74421115887
 42
0.0694125567934
  0
VERTEX
  8
Layer_1
 10
941.393653562046
 20
1116.56767248438
 42
0.0645898609728
  0
VERTEX
  8
Layer_1
 10
942.439117517526
 20
1125.83289567756
 42
-0.153687609993
  0
VERTEX
  8
Layer_1
 10
952.621261978333
 20
1060.38546783903
 42
-0.2640546361416
  0
VERTEX
  8
Layer_1
 10
902.578013431049
 20
989.652533202818
 42
-0.0232104710616
  0
VERTEX
  8
Layer_1
 10
891.877467175709
 20
985.336963409743
 42
0.0315967155881
  0
VERTEX
  8
Layer_1
 10
837.67116309126
 20
960.560348393308
 42
0.1084377905026
  0
VERTEX
  8
Layer_1
 10
782.473922428176
 20
908.849684770485
 42
0.0709361020172
  0
VERTEX
  8
Layer_1
 10
750.391481178652
 20
853.243264632089
 42
0.0322341555858
  0
SEQEND
  0
POLYLINE
  8
Layer_1
 66
     1
 10
0.0
 20
0.0
 30
0.0
 70
     1
  0
VERTEX
  8
Layer_1
 10
716.26322895516
 20
343.703916221868
 42
-0.1282669077993
  0
VERTEX
  8
Layer_1
 10
738.234031702774
 20
305.221244763507
 42
0.1020899918379
  0
VERTEX
  8
Layer_1
 10
762.117259680025
 20
255.27488319773
 42
0.0447529700551
  0
VERTEX
  8
Layer_1
 10
770.177674878535
 20
247.311304634565
 42
-0.1944294483969
  0
VERTEX
  8
Layer_1
 10
751.404229344506
 20
247.859082329793
 42
-0.2210111751641
  0
VERTEX
  8
Layer_1
 10
728.112721698611
 20
272.626779855361
 42
-0.0420489585606
  0
VERTEX
  8
Layer_1
 10
721.580090543194
 20
308.053720230782
 42
0.0248100374559
  0
VERTEX
  8
Layer_1
 10
712.452931471515
 20
347.072425593854
 42
-0.0182218920928
  0
SEQEND
  0
POLYLINE
  8
Layer_1
 66
     1
 10
0.0
 20
0.0
 30
0.0
 70
     1
  0
VERTEX
  8
Layer_1
 10
861.886500835159
 20
410.965600281463
 42
-0.1786135535794
  0
VERTEX
  8
Layer_1
 10
864.590318216436
 20
352.567095683093
 42
-0.146021398328
  0
VERTEX
  8
Layer_1
 10
855.631478968987
 20
334.480417256522
 42
0.0542082901861
  0
VERTEX
  8
Layer_1
 10
837.615358958556
 20
314.914040152535
 42
0.1505529321031
  0
VERTEX
  8
Layer_1
 10
829.400341231576
 20
280.042770106044
 42
0.1074149128974
  0
VERTEX
  8
Layer_1
 10
837.580318604696
 20
260.665571415857
 42
-0.1315519605172
  0
VERTEX
  8
Layer_1
 10
842.252372573471
 20
249.021591658229
 42
-0.1527814029793
  0
VERTEX
  8
Layer_1
 10
824.17509296731
 20
259.894569050083
 42
-0.2544047446145
  0
VERTEX
  8
Layer_1
 10
805.868167437911
 20
322.248443537389
 42
-0.1555423495011
  0
VERTEX
  8
Layer_1
 10
826.493170525647
 20
353.896402690468
 42
0.1416272287747
  0
VERTEX
  8
Layer_1
 10
860.108091020779
 20
401.414378345583
 42
0.0618280115604
  0
SEQEND
  0
POLYLINE
  8
Layer_1
 66
     1
 10
0.0
 20
0.0
 30
0.0
 70
     1
  0
VERTEX
  8
Layer_1
 10
771.176151940354
 20
571.75270453436
 42
-0.0968985159409
  0
VERTEX
  8
Layer_1
 10
779.498555191813
 20
539.876169140223
 42
-0.1552389683792
  0
VERTEX
  8
Layer_1
 10
770.436810421653
 20
519.942228348032
 42
0.1081797456868
  0
VERTEX
  8
Layer_1
 10
756.780110388636
 20
499.44090073454
 42
-0.034843188323
  0
VERTEX
  8
Layer_1
 10
731.180684310759
 20
449.882732366957
 42
-0.0624618016924
  0
VERTEX
  8
Layer_1
 10
737.618371065783
 20
486.273055720268
 42
-0.0267429032943
  0
VERTEX
  8
Layer_1
 10
760.771706154923
 20
545.757939376987
 42
0.0206170997919
  0
SEQEND
  0
POLYLINE
  8
Layer_1
 66
     1
 10
0.0
 20
0.0
 30
0.0
 70
     1
  0
VERTEX
  8
Layer_1
 10
787.89538752297
 20
274.131270538387
 42
-0.1454532431944
  0
VERTEX
  8
Layer_1
 10
772.151665916301
 20
324.809452004022
 42
-0.1279590682846
  0
VERTEX
  8
Layer_1
 10
783.092902248744
 20
383.292880014729
 42
-0.0887243260201
  0
VERTEX
  8
Layer_1
 10
792.897942013009
 20
397.214733761041
 42
0.2051778882145
  0
VERTEX
  8
Layer_1
 10
801.279465350171
 20
264.803783023725
 42
0.0
  0
VERTEX
  8
Layer_1
 10
801.2793307112
 20
264.804047308587
 42
0.0
  0
VERTEX
  8
Layer_1
 10
805.545238705366
 20
256.429516307766
 42
-0.0809221986333
  0
SEQEND
  0
POLYLINE
  8
Layer_1
 66
     1
 10
0.0
 20
0.0
 30
0.0
 70
     1
  0
VERTEX
  8
Layer_1
 10
726.006471752836
 20
1152.48643342126
 42
0.0826309530355
  0
VERTEX
  8
Layer_1
 10
721.148265507854
 20
1095.57274867536
 42
-0.0376311461108
  0
VERTEX
  8
Layer_1
 10
721.619859141627
 20
1053.38655320219
 42
-0.0893643013105
  0
VERTEX
  8
Layer_1
 10
713.725884378007
 20
1023.95799702921
 42
0.2432344118007
  0
VERTEX
  8
Layer_1
 10
697.961743244762
 20
1094.80734859818
 42
-0.074565445315
  0
VERTEX
  8
Layer_1
 10
693.248538740031
 20
1101.94807118981
 42
-0.2583253206748
  0
VERTEX
  8
Layer_1
 10
704.120796232236
 20
1109.26375582281
 42
0.4081545926413
  0
VERTEX
  8
Layer_1
 10
711.520693473654
 20
1120.10220733394
 42
-0.1578159581855
  0
VERTEX
  8
Layer_1
 10
723.043919892562
 20
1149.64961543444
 42
-0.0650082105411
  0
SEQEND
  0
POLYLINE
  8
Layer_1
 66
     1
 10
0.0
 20
0.0
 30
0.0
 70
     1
  0
VERTEX
  8
Layer_1
 10
855.245656241642
 20
296.524835428247
 42
0.0338234095006
  0
VERTEX
  8
Layer_1
 10
851.855438860237
 20
290.946258824078
 42
-0.1850405988037
  0
VERTEX
  8
Layer_1
 10
889.220262573428
 20
343.713092765678
 42
0.2069129865209
  0
VERTEX
  8
Layer_1
 10
935.053209958151
 20
421.804592385686
 42
0.0514448888199
  0
VERTEX
  8
Layer_1
 10
935.135011018134
 20
467.621649357276
 42
-0.1759396676591
  0
VERTEX
  8
Layer_1
 10
957.116360599579
 20
434.177235555407
 42
-0.1422241366377
  0
VERTEX
  8
Layer_1
 10
957.085704863689
 20
383.083723936688
 42
-0.2015414304702
  0
VERTEX
  8
Layer_1
 10
924.314333049412
 20
344.357316135563
 42
0.026420670495
  0
VERTEX
  8
Layer_1
 10
891.473302013201
 20
328.906681665409
 42
0.1066008536706
  0
SEQEND
  0
POLYLINE
  8
Layer_1
 66
     1
 10
0.0
 20
0.0
 30
0.0
 70
     1
  0
VERTEX
  8
Layer_1
 10
864.40148669009
 20
941.597608072229
 42
-0.0545871869232
  0
VERTEX
  8
Layer_1
 10
923.57119990543
 20
963.215414266375
 42
-0.4649274243496
  0
VERTEX
  8
Layer_1
 10
938.978202491409
 20
956.560420536753
 42
-0.4280777312785
  0
VERTEX
  8
Layer_1
 10
940.210770639597
 20
945.877002140681
 42
-0.2086788280448
  0
VERTEX
  8
Layer_1
 10
926.697988919595
 20
936.36999594958
 42
-0.0389657418582
  0
VERTEX
  8
Layer_1
 10
914.315682671197
 20
933.776120123022
 42
0.2343080058424
  0
VERTEX
  8
Layer_1
 10
764.749552100506
 20
823.255242125017
 42
-0.103765306902
  0
VERTEX
  8
Layer_1
 10
756.018849130153
 20
811.774095432828
 42
-0.0891803076906
  0
VERTEX
  8
Layer_1
 10
755.253218265406
 20
811.347839607951
 42
-0.0502430338457
  0
VERTEX
  8
Layer_1
 10
767.673587569171
 20
837.824269733457
 42
-0.049115643551
  0
VERTEX
  8
Layer_1
 10
817.443520046228
 20
906.578248168538
 42
-0.0841549387742
  0
SEQEND
  0
POLYLINE
  8
Layer_1
 66
     1
 10
0.0
 20
0.0
 30
0.0
 70
     1
  0
VERTEX
  8
Layer_1
 10
661.241934461922
 20
852.041498535618
 42
0.2056214009057
  0
VERTEX
  8
Layer_1
 10
641.427157539577
 20
878.020190640718
 42
-0.1135016972444
  0
VERTEX
  8
Layer_1
 10
622.526931223067
 20
895.263064097231
 42
-0.137979339436
  0
VERTEX
  8
Layer_1
 10
618.214864049102
 20
919.122991851938
 42
-0.0666098203283
  0
VERTEX
  8
Layer_1
 10
618.772862695133
 20
921.35075411682
 42
-0.1174832388849
  0
VERTEX
  8
Layer_1
 10
654.195324395172
 20
891.705040210456
 42
-0.171365302394
  0
SEQEND
  0
POLYLINE
  8
Layer_1
 66
     1
 10
0.0
 20
0.0
 30
0.0
 70
     1
  0
VERTEX
  8
Layer_1
 10
642.725066895536
 20
818.736973927781
 42
0.2443994319344
  0
VERTEX
  8
Layer_1
 10
630.718901334964
 20
826.14200410655
 42
-0.3011708217661
  0
VERTEX
  8
Layer_1
 10
618.190673469654
 20
850.906346510617
 42
-0.1691728751204
  0
VERTEX
  8
Layer_1
 10
636.245239825692
 20
835.143673456248
 42
-0.1499523637708
  0
SEQEND
  0
POLYLINE
  8
Layer_1
 66
     1
 10
0.0
 20
0.0
 30
0.0
 70
     1
  0
VERTEX
  8
Layer_1
 10
896.819042422966
 20
657.576844907525
 42
0.1931103171451
  0
VERTEX
  8
Layer_1
 10
935.340003641873
 20
659.245674173093
 42
0.0635142967833
  0
VERTEX
  8
Layer_1
 10
942.945726553666
 20
664.657051627545
 42
-0.1587810922435
  0
VERTEX
  8
Layer_1
 10
946.077081465964
 20
665.986950751252
 42
-0.14016147324
  0
VERTEX
  8
Layer_1
 10
947.15940106998
 20
658.439003879296
 42
-0.1432278410218
  0
VERTEX
  8
Layer_1
 10
927.602008362998
 20
593.349427257133
 42
-0.1179197368308
  0
VERTEX
  8
Layer_1
 10
890.863109394799
 20
560.790351514226
 42
-0.1327191087489
  0
VERTEX
  8
Layer_1
 10
856.626377406707
 20
555.188162722857
 42
-0.2284491500838
  0
VERTEX
  8
Layer_1
 10
802.925602605805
 20
576.570679317281
 42
-0.1493611127755
  0
VERTEX
  8
Layer_1
 10
788.723544825323
 20
618.259537849199
 42
-0.1592445599429
  0
VERTEX
  8
Layer_1
 10
801.537442812119
 20
673.744971070282
 42
-0.1853218615251
  0
VERTEX
  8
Layer_1
 10
821.111097632376
 20
691.447259027103
 42
-0.2188159084791
  0
VERTEX
  8
Layer_1
 10
834.619879070831
 20
689.913548855408
 42
-0.3519426252363
  0
VERTEX
  8
Layer_1
 10
852.498057121959
 20
656.011799104638
 42
-0.1531528269218
  0
VERTEX
  8
Layer_1
 10
842.661367071587
 20
634.701278531507
 42
-0.3145582488761
  0
VERTEX
  8
Layer_1
 10
829.672690169642
 20
630.646385592353
 42
0.7526689620256
  0
VERTEX
  8
Layer_1
 10
822.62887804951
 20
622.2054551417
 42
0.3436950982607
  0
VERTEX
  8
Layer_1
 10
853.211344161632
 20
608.434511108161
 42
0.3115347517769
  0
VERTEX
  8
Layer_1
 10
891.996877855835
 20
651.853486500925
 42
-0.1647152103876
  0
VERTEX
  8
Layer_1
 10
893.482901583952
 20
658.448515693778
 42
0.0041372310373
  0
SEQEND
  0
POLYLINE
  8
Layer_1
 66
     1
 10
0.0
 20
0.0
 30
0.0
 70
     1
  0
VERTEX
  8
Layer_1
 10
749.13626349422
 20
351.927840067776
 42
-0.1214775583124
  0
VERTEX
  8
Layer_1
 10
759.446559666674
 20
449.387681369142
 42
-0.1342062761415
  0
VERTEX
  8
Layer_1
 10
795.521634261544
 20
502.008391856817
 42
-0.1902435663987
  0
VERTEX
  8
Layer_1
 10
847.765689658382
 20
521.494980257853
 42
-0.06209584028
  0
VERTEX
  8
Layer_1
 10
872.316773396131
 20
515.870671808073
 42
0.1553676177953
  0
VERTEX
  8
Layer_1
 10
904.916903277647
 20
511.538672585151
 42
0.2040147146243
  0
VERTEX
  8
Layer_1
 10
920.312474434667
 20
522.903819398742
 42
-0.1118691957807
  0
VERTEX
  8
Layer_1
 10
889.889944005603
 20
481.934507771898
 42
-0.3010714573359
  0
VERTEX
  8
Layer_1
 10
823.5637069641
 20
477.58275922708
 42
-0.0088974292151
  0
VERTEX
  8
Layer_1
 10
804.860117670502
 20
487.912890630054
 42
0.3251549929325
  0
VERTEX
  8
Layer_1
 10
799.972168041202
 20
485.567721977332
 42
0.1651051517055
  0
VERTEX
  8
Layer_1
 10
751.426431412019
 20
384.138122850819
 42
0.0141995445309
  0
SEQEND
  0
POLYLINE
  8
Layer_1
 66
     1
 10
0.0
 20
0.0
 30
0.0
 70
     1
  0
VERTEX
  8
Layer_1
 10
643.729137947967
 20
361.568689349329
 42
0.1441593054597
  0
VERTEX
  8
Layer_1
 10
583.114907669
 20
358.140023759408
 42
-0.0854655965282
  0
VERTEX
  8
Layer_1
 10
569.358229480839
 20
351.542239173055
 42
-0.1174015100385
  0
VERTEX
  8
Layer_1
 10
584.578704656484
 20
379.041252335993
 42
-0.089565648478
  0
VERTEX
  8
Layer_1
 10
606.961269883807
 20
391.298808698462
 42
0.4538719562344
  0
VERTEX
  8
Layer_1
 10
608.096023693788
 20
396.366936805658
 42
-0.1788481150087
  0
VERTEX
  8
Layer_1
 10
571.900036605265
 20
502.132045865487
 42
-0.0237638600544
  0
VERTEX
  8
Layer_1
 10
583.637095606039
 20
624.389836250169
 42
-0.0341652691296
  0
VERTEX
  8
Layer_1
 10
585.391945680885
 20
633.487859235267
 42
-0.1214567929294
  0
VERTEX
  8
Layer_1
 10
600.69105008468
 20
585.574550305889
 42
0.0121080336652
  0
VERTEX
  8
Layer_1
 10
603.854219021318
 20
485.483707176474
 42
0.0782778375353
  0
VERTEX
  8
Layer_1
 10
622.906816783855
 20
399.418721339601
 42
0.0441728749323
  0
SEQEND
  0
POLYLINE
  8
Layer_1
 66
     1
 10
0.0
 20
0.0
 30
0.0
 70
     1
  0
VERTEX
  8
Layer_1
 10
783.530552289845
 20
230.240494750541
 42
-0.0908661695365
  0
VERTEX
  8
Layer_1
 10
766.600890337744
 20
206.444487554726
 42
-0.405648914125
  0
VERTEX
  8
Layer_1
 10
751.151132480121
 20
205.634897623127
 42
-0.1304865563531
  0
VERTEX
  8
Layer_1
 10
750.143132124053
 20
207.227474610753
 42
0.1611410238144
  0
VERTEX
  8
Layer_1
 10
757.76350259573
 20
212.49595979292
 42
-0.0992216379143
  0
VERTEX
  8
Layer_1
 10
773.612678576674
 20
231.389409840368
 42
-0.3352783290947
  0
VERTEX
  8
Layer_1
 10
783.578975714961
 20
230.616923203831
 42
-0.0156854884534
  0
SEQEND
  0
POLYLINE
  8
Layer_1
 66
     1
 10
0.0
 20
0.0
 30
0.0
 70
     1
  0
VERTEX
  8
Layer_1
 10
923.178829490038
 20
869.894760644886
 42
0.2862561119191
  0
VERTEX
  8
Layer_1
 10
907.205126392797
 20
879.499545743506
 42
0.0438442755917
  0
VERTEX
  8
Layer_1
 10
873.294079720437
 20
878.947166499642
 42
0.1051766437984
  0
VERTEX
  8
Layer_1
 10
841.243132761752
 20
863.152980721042
 42
0.0417944123768
  0
VERTEX
  8
Layer_1
 10
807.660772612957
 20
834.129743505531
 42
-0.1033492915426
  0
VERTEX
  8
Layer_1
 10
781.707470331412
 20
814.811512812943
 42
-0.0564697695556
  0
VERTEX
  8
Layer_1
 10
842.619393694045
 20
873.846047373559
 42
-0.1422481729645
  0
VERTEX
  8
Layer_1
 10
894.013795932787
 20
894.114766862572
 42
-0.4328703340625
  0
VERTEX
  8
Layer_1
 10
944.235332724516
 20
849.202105785341
 42
-0.1759817748651
  0
VERTEX
  8
Layer_1
 10
932.266281498692
 20
819.311682880003
 42
-0.126674939265
  0
VERTEX
  8
Layer_1
 10
923.993822815408
 20
814.104911054768
 42
-0.2487524001833
  0
VERTEX
  8
Layer_1
 10
894.025481148021
 20
819.143839344971
 42
-0.4099931022505
  0
VERTEX
  8
Layer_1
 10
890.935836925873
 20
855.975585292392
 42
-0.6110952932324
  0
VERTEX
  8
Layer_1
 10
910.277590461378
 20
851.73327989008
 42
-0.0895831717983
  0
VERTEX
  8
Layer_1
 10
912.115805249404
 20
841.243169331012
 42
0.0
  0
VERTEX
  8
Layer_1
 10
912.115806132213
 20
841.243349119004
 42
0.1020699671379
  0
VERTEX
  8
Layer_1
 10
913.582980982459
 20
830.740120895051
 42
0.5848603654124
  0
VERTEX
  8
Layer_1
 10
923.743373072309
 20
830.854909235316
 42
0.3084036778658
  0
VERTEX
  8
Layer_1
 10
929.115770835882
 20
858.691638587242
 42
0.0561548094637
  0
SEQEND
  0
POLYLINE
  8
Layer_1
 66
     1
 10
0.0
 20
0.0
 30
0.0
 70
     1
  0
VERTEX
  8
Layer_1
 10
834.251084302054
 20
1051.16077515515
 42
-0.2036079198116
  0
VERTEX
  8
Layer_1
 10
809.655732510077
 20
1087.0017649947
 42
0.1109037454864
  0
VERTEX
  8
Layer_1
 10
862.25402363273
 20
1146.60917967469
 42
0.0382026225347
  0
VERTEX
  8
Layer_1
 10
872.612455718775
 20
1170.58359861108
 42
0.0
  0
VERTEX
  8
Layer_1
 10
872.612350454778
 20
1170.58329297119
 42
0.0889696422171
  0
VERTEX
  8
Layer_1
 10
885.707297486817
 20
1253.12386919414
 42
0.0792869936279
  0
VERTEX
  8
Layer_1
 10
873.263504567975
 20
1335.97514754184
 42
0.0121016611771
  0
VERTEX
  8
Layer_1
 10
857.120818679612
 20
1390.78970067322
 42
-0.0055893278035
  0
VERTEX
  8
Layer_1
 10
881.370515780331
 20
1360.95827188531
 42
-0.1092442574583
  0
VERTEX
  8
Layer_1
 10
920.940290841301
 20
1278.55296869497
 42
-0.1956651629297
  0
VERTEX
  8
Layer_1
 10
914.57129172662
 20
1130.84344151502
 42
-0.1073486668661
  0
VERTEX
  8
Layer_1
 10
879.905768721525
 20
1085.59681388602
 42
-0.0068428238822
  0
SEQEND
  0
POLYLINE
  8
Layer_1
 66
     1
 10
0.0
 20
0.0
 30
0.0
 70
     1
  0
VERTEX
  8
Layer_1
 10
796.849128238169
 20
1074.7383654923
 42
0.1775516075411
  0
VERTEX
  8
Layer_1
 10
819.750200072867
 20
1039.22530960864
 42
0.163410636076
  0
VERTEX
  8
Layer_1
 10
709.689755762864
 20
835.472623895848
 42
-0.0021354740853
  0
VERTEX
  8
Layer_1
 10
702.327866271769
 20
783.34023271068
 42
-0.0560439842064
  0
VERTEX
  8
Layer_1
 10
699.454015761769
 20
771.796922549438
 42
-0.035330321515
  0
VERTEX
  8
Layer_1
 10
697.358923350746
 20
783.970300166642
 42
-0.0929511491813
  0
VERTEX
  8
Layer_1
 10
707.054659820998
 20
900.774682619958
 42
-0.0484004492421
  0
VERTEX
  8
Layer_1
 10
744.296297948748
 20
999.401518222808
 42
-0.069923550302
  0
SEQEND
  0
POLYLINE
  8
Layer_1
 66
     1
 10
0.0
 20
0.0
 30
0.0
 70
     1
  0
VERTEX
  8
Layer_1
 10
884.797651804774
 20
1922.82943443197
 42
-0.4070376731957
  0
VERTEX
  8
Layer_1
 10
893.2772919642
 20
1914.66420341232
 42
-0.1641930437426
  0
VERTEX
  8
Layer_1
 10
881.176588749275
 20
1894.00989462901
 42
-0.58013265779
  0
VERTEX
  8
Layer_1
 10
876.297678564044
 20
1893.26061373042
 42
-0.146550032467
  0
VERTEX
  8
Layer_1
 10
876.684124054456
 20
1900.29197170159
 42
0.345929705197
  0
VERTEX
  8
Layer_1
 10
870.31863534481
 20
1915.83817373856
 42
-0.2536860203744
  0
VERTEX
  8
Layer_1
 10
868.872025157354
 20
1922.15938105489
 42
-0.2499590996666
  0
VERTEX
  8
Layer_1
 10
876.772136183515
 20
1924.40106674576
 42
-0.0101476677987
  0
SEQEND
  0
POLYLINE
  8
Layer_1
 66
     1
 10
0.0
 20
0.0
 30
0.0
 70
     1
  0
VERTEX
  8
Layer_1
 10
628.426670334523
 20
1915.00711542193
 42
0.2938471283582
  0
VERTEX
  8
Layer_1
 10
624.592082485052
 20
1897.01976879754
 42
-0.4181729244774
  0
VERTEX
  8
Layer_1
 10
623.786346499118
 20
1892.58855261329
 42
-0.1719115106531
  0
VERTEX
  8
Layer_1
 10
613.535501543246
 20
1898.70968342709
 42
-0.0762259262324
  0
VERTEX
  8
Layer_1
 10
603.423304203584
 20
1910.81460388574
 42
-0.4229242096465
  0
VERTEX
  8
Layer_1
 10
604.730975153331
 20
1915.42433803343
 42
-0.1888663094286
  0
VERTEX
  8
Layer_1
 10
630.258139376264
 20
1922.59113929922
 42
-0.7758283872167
  0
VERTEX
  8
Layer_1
 10
632.336364242967
 20
1920.28492095002
 42
0.0027534070462
  0
SEQEND
  0
POLYLINE
  8
Layer_1
 66
     1
 10
0.0
 20
0.0
 30
0.0
 70
     1
  0
VERTEX
  8
Layer_1
 10
789.252819777206
 20
1915.00711542193
 42
0.2938448698101
  0
VERTEX
  8
Layer_1
 10
785.418251780671
 20
1897.01976082658
 42
-0.4181724975325
  0
VERTEX
  8
Layer_1
 10
784.612506834929
 20
1892.58855199793
 42
-0.1719113302429
  0
VERTEX
  8
Layer_1
 10
774.361668739434
 20
1898.70968342709
 42
-0.0762262204936
  0
VERTEX
  8
Layer_1
 10
764.249462828098
 20
1910.8146040893
 42
-0.4229240437413
  0
VERTEX
  8
Layer_1
 10
765.557142806394
 20
1915.42433803343
 42
-0.1888667092368
  0
VERTEX
  8
Layer_1
 10
791.084312082074
 20
1922.59113929922
 42
-0.7758290778786
  0
VERTEX
  8
Layer_1
 10
793.162527389255
 20
1920.28492095002
 42
0.0027552202653
  0
SEQEND
  0
POLYLINE
  8
Layer_1
 66
     1
 10
0.0
 20
0.0
 30
0.0
 70
     1
  0
VERTEX
  8
Layer_1
 10
571.313107160379
 20
1922.7753826964
 42
-0.5141013927176
  0
VERTEX
  8
Layer_1
 10
579.468865483241
 20
1911.17884090363
 42
-0.1833932707142
  0
VERTEX
  8
Layer_1
 10
566.972461422172
 20
1893.21490507828
 42
-0.7281089002136
  0
VERTEX
  8
Layer_1
 10
562.285073052444
 20
1895.44401230448
 42
0.0147622764117
  0
VERTEX
  8
Layer_1
 10
563.561629161679
 20
1903.98196283981
 42
0.1768419941934
  0
VERTEX
  8
Layer_1
 10
557.119447456459
 20
1916.17428482194
 42
-0.317391721779
  0
VERTEX
  8
Layer_1
 10
555.261008590106
 20
1922.15938105489
 42
-0.249964132702
  0
VERTEX
  8
Layer_1
 10
563.16111264407
 20
1924.40106674576
 42
-0.0120387833042
  0
SEQEND
  0
POLYLINE
  8
Layer_1
 66
     1
 10
0.0
 20
0.0
 30
0.0
 70
     1
  0
VERTEX
  8
Layer_1
 10
933.28309748345
 20
1934.24396059589
 42
-0.1209088832403
  0
VERTEX
  8
Layer_1
 10
918.224011104458
 20
1927.7620527646
 42
-0.4207121513437
  0
VERTEX
  8
Layer_1
 10
911.760266541267
 20
1933.06435360796
 42
-0.1456586166066
  0
VERTEX
  8
Layer_1
 10
913.333593391095
 20
1956.93735331216
 42
-0.8151406889608
  0
VERTEX
  8
Layer_1
 10
918.916140100857
 20
1958.3417254038
 42
0.0161761727944
  0
VERTEX
  8
Layer_1
 10
922.643695141978
 20
1949.9721731027
 42
0.2468979821666
  0
VERTEX
  8
Layer_1
 10
934.427672130032
 20
1944.32557553814
 42
-0.7183090053352
  0
VERTEX
  8
Layer_1
 10
938.106595246893
 20
1938.68076501875
 42
-0.0479324928368
  0
SEQEND
  0
POLYLINE
  8
Layer_1
 66
     1
 10
0.0
 20
0.0
 30
0.0
 70
     1
  0
VERTEX
  8
Layer_1
 10
875.32654331111
 20
1939.27156709208
 42
-0.4936892277822
  0
VERTEX
  8
Layer_1
 10
877.946291136483
 20
1944.07067852509
 42
0.3025003214597
  0
VERTEX
  8
Layer_1
 10
891.327456626858
 20
1954.15197170996
 42
-0.3573895233415
  0
VERTEX
  8
Layer_1
 10
898.448460216977
 20
1955.79665695704
 42
-0.2034671727168
  0
VERTEX
  8
Layer_1
 10
902.156645475176
 20
1933.02090058522
 42
-0.0669348054363
  0
VERTEX
  8
Layer_1
 10
900.646426906957
 20
1930.34874179676
 42
-0.210051965539
  0
VERTEX
  8
Layer_1
 10
876.212166646728
 20
1938.22195732761
 42
-0.1139067168496
  0
SEQEND
  0
POLYLINE
  8
Layer_1
 66
     1
 10
0.0
 20
0.0
 30
0.0
 70
     1
  0
VERTEX
  8
Layer_1
 10
923.101810783138
 20
1882.68441860909
 42
-0.1499364848836
  0
VERTEX
  8
Layer_1
 10
893.968658200593
 20
1882.9507827331
 42
-0.522586336626
  0
VERTEX
  8
Layer_1
 10
891.784413321163
 20
1888.47766706943
 42
-0.0526080230849
  0
VERTEX
  8
Layer_1
 10
905.778109464678
 20
1910.69008508314
 42
-0.0394659767204
  0
VERTEX
  8
Layer_1
 10
922.562860952129
 20
1884.07002563714
 42
-0.4539443142009
  0
SEQEND
  0
POLYLINE
  8
Layer_1
 66
     1
 10
0.0
 20
0.0
 30
0.0
 70
     1
  0
VERTEX
  8
Layer_1
 10
777.793943058207
 20
1932.65938979152
 42
-0.144633323747
  0
VERTEX
  8
Layer_1
 10
766.665125509385
 20
1928.88351987911
 42
-0.3274258129862
  0
VERTEX
  8
Layer_1
 10
760.690946834587
 20
1935.11304474112
 42
-0.144277299149
  0
VERTEX
  8
Layer_1
 10
760.441585674353
 20
1954.97858004404
 42
-0.5793208094355
  0
VERTEX
  8
Layer_1
 10
765.799391739569
 20
1955.96283743585
 42
0.0383306906575
  0
VERTEX
  8
Layer_1
 10
774.895255851394
 20
1946.83288081561
 42
0.0973659081068
  0
VERTEX
  8
Layer_1
 10
784.027549747321
 20
1944.09215588944
 42
-0.5115849163239
  0
VERTEX
  8
Layer_1
 10
785.581394525849
 20
1939.26813789808
 42
-0.0877030993105
  0
SEQEND
  0
POLYLINE
  8
Layer_1
 66
     1
 10
0.0
 20
0.0
 30
0.0
 70
     1
  0
VERTEX
  8
Layer_1
 10
738.316070329217
 20
1882.28323154536
 42
-0.0252483760277
  0
VERTEX
  8
Layer_1
 10
751.269441850388
 20
1911.41521727597
 42
-0.0529715985934
  0
VERTEX
  8
Layer_1
 10
769.693006383721
 20
1884.96116283558
 42
-0.7302602770816
  0
VERTEX
  8
Layer_1
 10
768.436618629901
 20
1882.3010542732
 42
-0.105218033599
  0
VERTEX
  8
Layer_1
 10
738.511853193587
 20
1882.11544404166
 42
-0.0440363008117
  0
SEQEND
  0
POLYLINE
  8
Layer_1
 66
     1
 10
0.0
 20
0.0
 30
0.0
 70
     1
  0
VERTEX
  8
Layer_1
 10
749.255069261658
 20
1927.42770869888
 42
-0.2141007488393
  0
VERTEX
  8
Layer_1
 10
743.33031493748
 20
1928.75087389551
 42
-0.1020506013871
  0
VERTEX
  8
Layer_1
 10
725.609065971019
 20
1936.73945255646
 42
-0.4817107863805
  0
VERTEX
  8
Layer_1
 10
722.460971602739
 20
1942.92911487921
 42
-0.053864141179
  0
VERTEX
  8
Layer_1
 10
729.65254890425
 20
1944.86044515006
 42
0.1652457925649
  0
VERTEX
  8
Layer_1
 10
741.168758397861
 20
1956.45471126385
 42
-0.1595666934626
  0
VERTEX
  8
Layer_1
 10
746.316905125999
 20
1959.5121114527
 42
-0.2451708033435
  0
VERTEX
  8
Layer_1
 10
749.147353365289
 20
1953.54380019597
 42
-0.086332969808
  0
VERTEX
  8
Layer_1
 10
749.724026584234
 20
1928.86172272792
 42
-0.2241953740761
  0
SEQEND
  0
POLYLINE
  8
Layer_1
 66
     1
 10
0.0
 20
0.0
 30
0.0
 70
     1
  0
VERTEX
  8
Layer_1
 10
577.486596891539
 20
1883.05959031105
 42
-0.0430562370214
  0
VERTEX
  8
Layer_1
 10
592.39221133583
 20
1910.34710640069
 42
-0.0405191042673
  0
VERTEX
  8
Layer_1
 10
608.905961669147
 20
1884.15829341045
 42
-0.8882736316726
  0
VERTEX
  8
Layer_1
 10
608.373908641686
 20
1882.09752306048
 42
-0.0999380261626
  0
VERTEX
  8
Layer_1
 10
580.137845983864
 20
1882.07590514423
 42
-0.4283112277798
  0
SEQEND
  0
POLYLINE
  8
Layer_1
 66
     1
 10
0.0
 20
0.0
 30
0.0
 70
     1
  0
VERTEX
  8
Layer_1
 10
602.518771525503
 20
1959.20876374845
 42
-0.1244940837402
  0
VERTEX
  8
Layer_1
 10
608.352994264624
 20
1953.23253961943
 42
0.2761892367149
  0
VERTEX
  8
Layer_1
 10
622.632015542446
 20
1944.21612335494
 42
-0.5593872795537
  0
VERTEX
  8
Layer_1
 10
624.886867560308
 20
1939.49964886919
 42
-0.1035952703481
  0
VERTEX
  8
Layer_1
 10
611.198929197019
 20
1929.81928651531
 42
-0.1689396595581
  0
VERTEX
  8
Layer_1
 10
602.218606207808
 20
1927.84747814324
 42
-0.2782715159764
  0
VERTEX
  8
Layer_1
 10
597.561726468849
 20
1937.19095174142
 42
-0.0864548527906
  0
VERTEX
  8
Layer_1
 10
598.608993048606
 20
1955.08034874219
 42
-0.5487125763479
  0
SEQEND
  0
POLYLINE
  8
Layer_1
 66
     1
 10
0.0
 20
0.0
 30
0.0
 70
     1
  0
VERTEX
  8
Layer_1
 10
588.208481649829
 20
1927.28732156305
 42
-0.1127294382594
  0
VERTEX
  8
Layer_1
 10
565.067149577463
 20
1936.51633649677
 42
-0.4673867969512
  0
VERTEX
  8
Layer_1
 10
561.614085113164
 20
1942.86012236885
 42
-0.0453542451318
  0
VERTEX
  8
Layer_1
 10
569.065920324615
 20
1944.93489317635
 42
0.153573683219
  0
VERTEX
  8
Layer_1
 10
577.869141732422
 20
1954.32505380582
 42
-0.1705190671109
  0
VERTEX
  8
Layer_1
 10
582.342922867724
 20
1959.61934490638
 42
-0.3926001482281
  0
VERTEX
  8
Layer_1
 10
587.573781041324
 20
1955.848624901
 42
-0.1167166162617
  0
VERTEX
  8
Layer_1
 10
588.476397739089
 20
1928.04141676755
 42
-0.1859809866597
  0
SEQEND
  0
POLYLINE
  8
Layer_1
 66
     1
 10
0.0
 20
0.0
 30
0.0
 70
     1
  0
VERTEX
  8
Layer_1
 10
915.230573756237
 20
1914.92644611045
 42
-0.0638422334358
  0
VERTEX
  8
Layer_1
 10
934.50777818049
 20
1924.2354029894
 42
-0.3450850384916
  0
VERTEX
  8
Layer_1
 10
944.321646361218
 20
1923.73126978452
 42
-0.2284815654629
  0
VERTEX
  8
Layer_1
 10
942.267280972885
 20
1915.33608464696
 42
0.3012782008923
  0
VERTEX
  8
Layer_1
 10
938.158265122446
 20
1897.21628047196
 42
-0.4456839848794
  0
VERTEX
  8
Layer_1
 10
937.36652622298
 20
1892.56002900675
 42
-0.1881813022414
  0
VERTEX
  8
Layer_1
 10
927.577498895984
 20
1898.31993278039
 42
-0.1031618684793
  0
VERTEX
  8
Layer_1
 10
915.49410737181
 20
1913.83843363154
 42
-0.2455120479991
  0
SEQEND
  0
POLYLINE
  8
Layer_1
 66
     1
 10
0.0
 20
0.0
 30
0.0
 70
     1
  0
VERTEX
  8
Layer_1
 10
732.139268258893
 20
1922.7753826964
 42
-0.5141014150182
  0
VERTEX
  8
Layer_1
 10
740.295021487999
 20
1911.17884090363
 42
-0.1833930516656
  0
VERTEX
  8
Layer_1
 10
727.798611163722
 20
1893.21490507828
 42
-0.7281084994713
  0
VERTEX
  8
Layer_1
 10
723.111226987423
 20
1895.44401230448
 42
0.0147603138963
  0
VERTEX
  8
Layer_1
 10
724.387788467834
 20
1903.98196283981
 42
0.1768408691944
  0
VERTEX
  8
Layer_1
 10
717.94559995029
 20
1916.17428691476
 42
-0.3173918657909
  0
VERTEX
  8
Layer_1
 10
716.087174310321
 20
1922.15938105489
 42
-0.2499639518547
  0
VERTEX
  8
Layer_1
 10
723.987280430108
 20
1924.40106674576
 42
-0.0120388220645
  0
SEQEND
  0
POLYLINE
  8
Layer_1
 66
     1
 10
0.0
 20
0.0
 30
0.0
 70
     1
  0
VERTEX
  8
Layer_1
 10
121.949328959569
 20
82.1950859627702
 42
0.4070376731966
  0
VERTEX
  8
Layer_1
 10
113.469688800141
 20
74.0298549431218
 42
0.1641930437428
  0
VERTEX
  8
Layer_1
 10
125.570392015066
 20
53.3755461598082
 42
0.5801326578252
  0
VERTEX
  8
Layer_1
 10
130.449302200298
 20
52.6262652612063
 42
0.1465500324936
  0
VERTEX
  8
Layer_1
 10
130.062856709886
 20
59.6576232323856
 42
-0.3459297051985
  0
VERTEX
  8
Layer_1
 10
136.428345419525
 20
75.2038252693512
 42
0.25368602037
  0
VERTEX
  8
Layer_1
 10
137.874955606987
 20
81.5250325856815
 42
0.2499590996374
  0
VERTEX
  8
Layer_1
 10
129.974844580827
 20
83.7667182765566
 42
0.0101476677947
  0
SEQEND
  0
POLYLINE
  8
Layer_1
 66
     1
 10
0.0
 20
0.0
 30
0.0
 70
     1
  0
VERTEX
  8
Layer_1
 10
165.373933105703
 20
226.362207908695
 42
0.5351696211798
  0
VERTEX
  8
Layer_1
 10
161.23687285776
 20
226.559709237943
 42
0.134307854743
  0
VERTEX
  8
Layer_1
 10
170.537945631864
 20
217.394998891109
 42
0.1658718754881
  0
VERTEX
  8
Layer_1
 10
189.587634353365
 20
214.968734586797
 42
-0.3750869089434
  0
VERTEX
  8
Layer_1
 10
201.520474983092
 20
211.226091317741
 42
0.3125409551448
  0
VERTEX
  8
Layer_1
 10
207.058050035836
 20
205.968787416423
 42
0.2991905119551
  0
VERTEX
  8
Layer_1
 10
209.374178211292
 20
211.594228422505
 42
0.4706069627119
  0
VERTEX
  8
Layer_1
 10
191.56331878752
 20
227.379742590924
 42
0.0258460245492
  0
VERTEX
  8
Layer_1
 10
178.808748472982
 20
223.192858534951
 42
-0.1224692008238
  0
SEQEND
  0
POLYLINE
  8
Layer_1
 66
     1
 10
0.0
 20
0.0
 30
0.0
 70
     1
  0
VERTEX
  8
Layer_1
 10
378.320310429819
 20
74.3727669527264
 42
-0.2938471283593
  0
VERTEX
  8
Layer_1
 10
382.154898279291
 20
56.3854203283406
 42
0.4181729244742
  0
VERTEX
  8
Layer_1
 10
382.960634265223
 20
51.954204144093
 42
0.1719115106512
  0
VERTEX
  8
Layer_1
 10
393.211479221095
 20
58.0753349578879
 42
0.0762259262337
  0
VERTEX
  8
Layer_1
 10
403.323676560756
 20
70.1802554165406
 42
0.4229242096537
  0
VERTEX
  8
Layer_1
 10
402.01600561101
 20
74.7899895642271
 42
0.188866309429
  0
VERTEX
  8
Layer_1
 10
376.488841388077
 20
81.9567908300147
 42
0.7758283873167
  0
VERTEX
  8
Layer_1
 10
374.410616521375
 20
79.6505724808142
 42
-0.0027534070467
  0
SEQEND
  0
POLYLINE
  8
Layer_1
 66
     1
 10
0.0
 20
0.0
 30
0.0
 70
     1
  0
VERTEX
  8
Layer_1
 10
217.494160987136
 20
74.3727669527264
 42
-0.2938448698199
  0
VERTEX
  8
Layer_1
 10
221.32872898367
 20
56.3854123573694
 42
0.4181724975303
  0
VERTEX
  8
Layer_1
 10
222.134473929414
 20
51.95420352872
 42
0.1719113302432
  0
VERTEX
  8
Layer_1
 10
232.385312024907
 20
58.0753349578879
 42
0.0762262204938
  0
VERTEX
  8
Layer_1
 10
242.497517936244
 20
70.1802556200936
 42
0.4229240437493
  0
VERTEX
  8
Layer_1
 10
241.189837957947
 20
74.7899895642271
 42
0.1888667092367
  0
VERTEX
  8
Layer_1
 10
215.662668682268
 20
81.9567908300147
 42
0.7758290777705
  0
VERTEX
  8
Layer_1
 10
213.584453375086
 20
79.6505724808142
 42
-0.0027552202629
  0
SEQEND
  0
POLYLINE
  8
Layer_1
 66
     1
 10
0.0
 20
0.0
 30
0.0
 70
     1
  0
VERTEX
  8
Layer_1
 10
435.433873603962
 20
82.1410342271965
 42
0.5141013927171
  0
VERTEX
  8
Layer_1
 10
427.2781152811
 20
70.544492434412
 42
0.1833932707138
  0
VERTEX
  8
Layer_1
 10
439.77451934217
 20
52.5805566090673
 42
0.7281089001847
  0
VERTEX
  8
Layer_1
 10
444.461907711897
 20
54.8096638352841
 42
-0.0147622764112
  0
VERTEX
  8
Layer_1
 10
443.185351602663
 20
63.3476143706148
 42
-0.1768419941934
  0
VERTEX
  8
Layer_1
 10
449.627533307882
 20
75.5399363527418
 42
0.3173917217817
  0
VERTEX
  8
Layer_1
 10
451.485972174235
 20
81.5250325856815
 42
0.2499641352413
  0
VERTEX
  8
Layer_1
 10
443.585868120272
 20
83.7667182765567
 42
0.0120387833095
  0
SEQEND
  0
POLYLINE
  8
Layer_1
 66
     1
 10
0.0
 20
0.0
 30
0.0
 70
     1
  0
VERTEX
  8
Layer_1
 10
73.4638832808917
 20
93.6096121266916
 42
0.1209088832875
  0
VERTEX
  8
Layer_1
 10
88.5229696598838
 20
87.1277042953934
 42
0.4207121513277
  0
VERTEX
  8
Layer_1
 10
94.986714223074
 20
92.4300051387593
 42
0.1456586166059
  0
VERTEX
  8
Layer_1
 10
93.4133873732462
 20
116.303004842952
 42
0.8151406889925
  0
VERTEX
  8
Layer_1
 10
87.8308406634845
 20
117.707376934602
 42
-0.016176172795
  0
VERTEX
  8
Layer_1
 10
84.1032856223644
 20
109.33782463349
 42
-0.2468979821662
  0
VERTEX
  8
Layer_1
 10
72.3193086343103
 20
103.691227068942
 42
0.7183090053522
  0
VERTEX
  8
Layer_1
 10
68.6403855174485
 20
98.0464165495559
 42
0.0479324928336
  0
SEQEND
  0
POLYLINE
  8
Layer_1
 66
     1
 10
0.0
 20
0.0
 30
0.0
 70
     1
  0
VERTEX
  8
Layer_1
 10
67.5640963284395
 20
1577.32954119432
 42
0.1615602433237
  0
VERTEX
  8
Layer_1
 10
78.1317019083008
 20
1575.10020585859
 42
0.1485190763854
  0
VERTEX
  8
Layer_1
 10
92.2988765652131
 20
1577.95703517677
 42
0.3138060375562
  0
VERTEX
  8
Layer_1
 10
92.0197652068305
 20
1584.30758953173
 42
0.0522743977286
  0
VERTEX
  8
Layer_1
 10
80.972191115033
 20
1600.74829599968
 42
0.0717028036968
  0
VERTEX
  8
Layer_1
 10
68.1179184300765
 20
1579.5550001327
 42
0.2676403608687
  0
SEQEND
  0
POLYLINE
  8
Layer_1
 66
     1
 10
0.0
 20
0.0
 30
0.0
 70
     1
  0
VERTEX
  8
Layer_1
 10
131.420437453231
 20
98.6372186228709
 42
0.4936892277734
  0
VERTEX
  8
Layer_1
 10
128.800689627859
 20
103.436330055888
 42
-0.3025003214611
  0
VERTEX
  8
Layer_1
 10
115.419524137486
 20
113.517623240759
 42
0.3573895233388
  0
VERTEX
  8
Layer_1
 10
108.298520547365
 20
115.162308487846
 42
0.2034671727168
  0
VERTEX
  8
Layer_1
 10
104.590335289169
 20
92.3865521160101
 42
0.0669348052789
  0
VERTEX
  8
Layer_1
 10
106.100553857385
 20
89.7143933275497
 42
0.2100519655389
  0
VERTEX
  8
Layer_1
 10
130.534814117614
 20
97.5876088584062
 42
0.1139067168529
  0
SEQEND
  0
POLYLINE
  8
Layer_1
 66
     1
 10
0.0
 20
0.0
 30
0.0
 70
     1
  0
VERTEX
  8
Layer_1
 10
83.6451699812023
 20
42.0500701398861
 42
0.149936484883
  0
VERTEX
  8
Layer_1
 10
112.778322563749
 20
42.3164342638958
 42
0.5225863366405
  0
VERTEX
  8
Layer_1
 10
114.962567443178
 20
47.84331860023
 42
0.0526080230857
  0
VERTEX
  8
Layer_1
 10
100.968871299663
 20
70.055736613941
 42
0.0394659767203
  0
VERTEX
  8
Layer_1
 10
84.1841198122131
 20
43.435677167939
 42
0.453944314576
  0
SEQEND
  0
POLYLINE
  8
Layer_1
 66
     1
 10
0.0
 20
0.0
 30
0.0
 70
     1
  0
VERTEX
  8
Layer_1
 10
228.953037706136
 20
92.0250413223068
 42
0.1446333237486
  0
VERTEX
  8
Layer_1
 10
240.081855254956
 20
88.2491714099094
 42
0.32742581299
  0
VERTEX
  8
Layer_1
 10
246.056033929755
 20
94.4786962719138
 42
0.1442772991472
  0
VERTEX
  8
Layer_1
 10
246.305395089988
 20
114.344231574834
 42
0.5793208094431
  0
VERTEX
  8
Layer_1
 10
240.947589024772
 20
115.328488966643
 42
-0.038330690657
  0
VERTEX
  8
Layer_1
 10
231.851724912948
 20
106.198532346403
 42
-0.0973659080966
  0
VERTEX
  8
Layer_1
 10
222.719431017022
 20
103.457807420232
 42
0.5115849162916
  0
VERTEX
  8
Layer_1
 10
221.165586238493
 20
98.6337894288768
 42
0.0877030993111
  0
SEQEND
  0
POLYLINE
  8
Layer_1
 66
     1
 10
0.0
 20
0.0
 30
0.0
 70
     1
  0
VERTEX
  8
Layer_1
 10
268.430910435124
 20
41.6488830761564
 42
0.0252483760277
  0
VERTEX
  8
Layer_1
 10
255.477538913945
 20
70.7808688067651
 42
0.0529715985932
  0
VERTEX
  8
Layer_1
 10
237.053974380621
 20
44.3268143663749
 42
0.7302602770328
  0
VERTEX
  8
Layer_1
 10
238.310362134441
 20
41.6667058039991
 42
0.1052180333966
  0
VERTEX
  8
Layer_1
 10
268.235127569997
 20
41.4810955718151
 42
0.0440363001947
  0
SEQEND
  0
POLYLINE
  8
Layer_1
 66
     1
 10
0.0
 20
0.0
 30
0.0
 70
     1
  0
VERTEX
  8
Layer_1
 10
257.491911502683
 20
86.7933602296671
 42
0.2141007488476
  0
VERTEX
  8
Layer_1
 10
263.416665826861
 20
88.1165254263019
 42
0.1020506013872
  0
VERTEX
  8
Layer_1
 10
281.137914793323
 20
96.1051040872543
 42
0.4817107863613
  0
VERTEX
  8
Layer_1
 10
284.286009161603
 20
102.294766410008
 42
0.0538641411741
  0
VERTEX
  8
Layer_1
 10
277.094431860092
 20
104.226096680867
 42
-0.1652457925659
  0
VERTEX
  8
Layer_1
 10
265.578222366482
 20
115.820362794641
 42
0.1595666934236
  0
VERTEX
  8
Layer_1
 10
260.430075638342
 20
118.877762983499
 42
0.2451708033566
  0
VERTEX
  8
Layer_1
 10
257.599627399053
 20
112.909451726757
 42
0.0863329698084
  0
VERTEX
  8
Layer_1
 10
257.022954180108
 20
88.2273742587147
 42
0.2241953736702
  0
SEQEND
  0
POLYLINE
  8
Layer_1
 66
     1
 10
0.0
 20
0.0
 30
0.0
 70
     1
  0
VERTEX
  8
Layer_1
 10
429.260383872802
 20
42.4252418418392
 42
0.0430562370215
  0
VERTEX
  8
Layer_1
 10
414.354769428511
 20
69.7127579314808
 42
0.0405191042672
  0
VERTEX
  8
Layer_1
 10
397.841019095195
 20
43.5239449412478
 42
0.8882736316079
  0
VERTEX
  8
Layer_1
 10
398.373072122656
 20
41.4631745912874
 42
0.0999380261622
  0
VERTEX
  8
Layer_1
 10
426.609134780478
 20
41.4415566750263
 42
0.4283112277731
  0
SEQEND
  0
POLYLINE
  8
Layer_1
 66
     1
 10
0.0
 20
0.0
 30
0.0
 70
     1
  0
VERTEX
  8
Layer_1
 10
404.228209238838
 20
118.574415279248
 42
0.1244940837416
  0
VERTEX
  8
Layer_1
 10
398.393986499717
 20
112.598191150221
 42
-0.2761892367155
  0
VERTEX
  8
Layer_1
 10
384.114965221895
 20
103.581774885733
 42
0.5593872795895
  0
VERTEX
  8
Layer_1
 10
381.860113204034
 20
98.8653003999732
 42
0.1035952703483
  0
VERTEX
  8
Layer_1
 10
395.548051567323
 20
89.1849380460995
 42
0.1689396595071
  0
VERTEX
  8
Layer_1
 10
404.528374556533
 20
87.2131296740337
 42
0.2782715159644
  0
VERTEX
  8
Layer_1
 10
409.185254295493
 20
96.5566032722172
 42
0.0864548527886
  0
VERTEX
  8
Layer_1
 10
408.137987715736
 20
114.446000272981
 42
0.5487125763446
  0
SEQEND
  0
POLYLINE
  8
Layer_1
 66
     1
 10
0.0
 20
0.0
 30
0.0
 70
     1
  0
VERTEX
  8
Layer_1
 10
57.5200850948363
 20
1585.4800039996
 42
0.1467544356649
  0
VERTEX
  8
Layer_1
 10
63.6820953942148
 20
1589.87210487201
 42
0.0842161802372
  0
VERTEX
  8
Layer_1
 10
71.8180068072743
 20
1601.39326176306
 42
0.4038528450221
  0
VERTEX
  8
Layer_1
 10
68.0549801276997
 20
1607.24121238259
 42
0.1318356217327
  0
VERTEX
  8
Layer_1
 10
49.8847988031747
 20
1611.41088588482
 42
0.5093486584437
  0
VERTEX
  8
Layer_1
 10
49.4421731301125
 20
1607.84188565995
 42
-0.2411590504639
  0
VERTEX
  8
Layer_1
 10
55.8912173691425
 20
1593.88703296595
 42
0.1515055877107
  0
VERTEX
  8
Layer_1
 10
56.9095946218713
 20
1586.09964741724
 42
0.1614954380457
  0
SEQEND
  0
POLYLINE
  8
Layer_1
 66
     1
 10
0.0
 20
0.0
 30
0.0
 70
     1
  0
VERTEX
  8
Layer_1
 10
94.7798652020027
 20
1595.27111984629
 42
0.1872950785062
  0
VERTEX
  8
Layer_1
 10
102.792458936841
 20
1585.56648838358
 42
0.4939799056264
  0
VERTEX
  8
Layer_1
 10
106.656910927438
 20
1588.60674676504
 42
-0.1090376401435
  0
VERTEX
  8
Layer_1
 10
108.794223686128
 20
1602.79506982441
 42
0.0110592325635
  0
VERTEX
  8
Layer_1
 10
113.442836335886
 20
1607.92377083538
 42
0.583397689943
  0
VERTEX
  8
Layer_1
 10
110.048394490147
 20
1612.79795542938
 42
0.1409307555292
  0
VERTEX
  8
Layer_1
 10
94.5105949211958
 20
1608.42449439518
 42
0.3579167481841
  0
VERTEX
  8
Layer_1
 10
92.8265834300521
 20
1599.01123582826
 42
-0.0024204299916
  0
SEQEND
  0
POLYLINE
  8
Layer_1
 66
     1
 10
0.0
 20
0.0
 30
0.0
 70
     1
  0
VERTEX
  8
Layer_1
 10
418.538499114512
 20
86.6529730938466
 42
0.1127294382596
  0
VERTEX
  8
Layer_1
 10
441.679831186879
 20
95.8819880275631
 42
0.4673867969497
  0
VERTEX
  8
Layer_1
 10
445.132895651177
 20
102.225773899647
 42
0.0453542451288
  0
VERTEX
  8
Layer_1
 10
437.681060439727
 20
104.30054470714
 42
-0.1535736832187
  0
VERTEX
  8
Layer_1
 10
428.87783903192
 20
113.690705336618
 42
0.1705190671093
  0
VERTEX
  8
Layer_1
 10
424.404057896618
 20
118.984996437174
 42
0.3926001482293
  0
VERTEX
  8
Layer_1
 10
419.173199723018
 20
115.214276431789
 42
0.1167166162587
  0
VERTEX
  8
Layer_1
 10
418.270583025252
 20
87.4070682983389
 42
0.185980987795
  0
SEQEND
  0
POLYLINE
  8
Layer_1
 66
     1
 10
0.0
 20
0.0
 30
0.0
 70
     1
  0
VERTEX
  8
Layer_1
 10
59.0467462035458
 20
1619.61462396296
 42
0.1617770446112
  0
VERTEX
  8
Layer_1
 10
71.4446480742241
 20
1615.00946877525
 42
0.3225686102776
  0
VERTEX
  8
Layer_1
 10
75.9259969778268
 20
1621.02810383192
 42
0.1780507515064
  0
VERTEX
  8
Layer_1
 10
74.1877856929713
 20
1643.0379809429
 42
0.5869058036218
  0
VERTEX
  8
Layer_1
 10
70.3958264299782
 20
1642.13805059671
 42
-0.0729507572678
  0
VERTEX
  8
Layer_1
 10
66.3394100481846
 20
1632.36726092752
 42
-0.121576422533
  0
VERTEX
  8
Layer_1
 10
54.7607026812178
 20
1628.93370908873
 42
0.2555816128039
  0
VERTEX
  8
Layer_1
 10
52.7527373783992
 20
1626.0495461165
 42
0.0790964266562
  0
SEQEND
  0
POLYLINE
  8
Layer_1
 66
     1
 10
0.0
 20
0.0
 30
0.0
 70
     1
  0
VERTEX
  8
Layer_1
 10
106.954252712371
 20
1625.31896223056
 42
0.4353129540664
  0
VERTEX
  8
Layer_1
 10
102.408756817934
 20
1629.30714625428
 42
-0.1727214309218
  0
VERTEX
  8
Layer_1
 10
92.5104682819635
 20
1637.64432211384
 42
0.0
  0
VERTEX
  8
Layer_1
 10
87.3179561045716
 20
1645.98147466779
 42
0.0775237006303
  0
VERTEX
  8
Layer_1
 10
83.3548452154954
 20
1625.08405337206
 42
0.5212374398503
  0
VERTEX
  8
Layer_1
 10
90.3444354624557
 20
1617.09660383616
 42
0.1676321251615
  0
VERTEX
  8
Layer_1
 10
105.907458798927
 20
1623.94658706951
 42
0.2071491626458
  0
SEQEND
  0
POLYLINE
  8
Layer_1
 66
     1
 10
0.0
 20
0.0
 30
0.0
 70
     1
  0
VERTEX
  8
Layer_1
 10
91.5164070081057
 20
74.2920976412497
 42
0.0638422334336
  0
VERTEX
  8
Layer_1
 10
72.2392025838525
 20
83.601054520193
 42
0.3450850385044
  0
VERTEX
  8
Layer_1
 10
62.4253344031242
 20
83.0969213153181
 42
0.2284815654625
  0
VERTEX
  8
Layer_1
 10
64.4796997914557
 20
74.7017361777533
 42
-0.3012782009001
  0
VERTEX
  8
Layer_1
 10
68.5887156418951
 20
56.5819320027588
 42
0.4456839849522
  0
VERTEX
  8
Layer_1
 10
69.3804545413611
 20
51.9256805375443
 42
0.1881813022407
  0
VERTEX
  8
Layer_1
 10
79.1694818683568
 20
57.6855843111772
 42
0.1031618684794
  0
VERTEX
  8
Layer_1
 10
91.2528733925319
 20
73.2040851623354
 42
0.2455120452611
  0
SEQEND
  0
POLYLINE
  8
Layer_1
 66
     1
 10
0.0
 20
0.0
 30
0.0
 70
     1
  0
VERTEX
  8
Layer_1
 10
274.607712505448
 20
82.1410342271965
 42
0.5141014150197
  0
VERTEX
  8
Layer_1
 10
266.451959276342
 20
70.544492434412
 42
0.183393051665
  0
VERTEX
  8
Layer_1
 10
278.94836960062
 20
52.5805566090673
 42
0.7281084994377
  0
VERTEX
  8
Layer_1
 10
283.635753776921
 20
54.8096638352861
 42
-0.0147603138956
  0
VERTEX
  8
Layer_1
 10
282.359192296506
 20
63.3476143706148
 42
-0.1768408691936
  0
VERTEX
  8
Layer_1
 10
288.801380814053
 20
75.5399384455548
 42
0.3173918657949
  0
VERTEX
  8
Layer_1
 10
290.659806454021
 20
81.5250325856815
 42
0.2499639483519
  0
VERTEX
  8
Layer_1
 10
282.759700334233
 20
83.7667182765566
 42
0.0120388220686
  0
SEQEND
  0
POLYLINE
  8
Layer_1
 66
     1
 10
0.0
 20
0.0
 30
0.0
 70
     1
  0
VERTEX
  8
Layer_1
 10
173.961471618785
 20
1462.40448029939
 42
0.1615602432975
  0
VERTEX
  8
Layer_1
 10
184.529077198647
 20
1460.17514496365
 42
0.148519076385
  0
VERTEX
  8
Layer_1
 10
198.696251855559
 20
1463.03197428182
 42
0.3138060375179
  0
VERTEX
  8
Layer_1
 10
198.417140497178
 20
1469.38252863679
 42
0.0522743977296
  0
VERTEX
  8
Layer_1
 10
187.369566405379
 20
1485.82323510473
 42
0.0717028036965
  0
VERTEX
  8
Layer_1
 10
174.515293720423
 20
1464.62993923776
 42
0.2676403609311
  0
SEQEND
  0
POLYLINE
  8
Layer_1
 66
     1
 10
0.0
 20
0.0
 30
0.0
 70
     1
  0
VERTEX
  8
Layer_1
 10
163.917460385181
 20
1470.55494310466
 42
0.1467544356624
  0
VERTEX
  8
Layer_1
 10
170.079470684561
 20
1474.9470439771
 42
0.0842161802377
  0
VERTEX
  8
Layer_1
 10
178.21538209762
 20
1486.46820086812
 42
0.4038528450186
  0
VERTEX
  8
Layer_1
 10
174.452355418045
 20
1492.31615148765
 42
0.1318356216307
  0
VERTEX
  8
Layer_1
 10
156.282174094251
 20
1496.48582499031
 42
0.5093486585788
  0
VERTEX
  8
Layer_1
 10
155.839548420459
 20
1492.91682476499
 42
-0.2411590504631
  0
VERTEX
  8
Layer_1
 10
162.288592659489
 20
1478.96197207102
 42
0.1515055877266
  0
VERTEX
  8
Layer_1
 10
163.30696991218
 20
1471.17458652233
 42
0.1614954360996
  0
SEQEND
  0
POLYLINE
  8
Layer_1
 66
     1
 10
0.0
 20
0.0
 30
0.0
 70
     1
  0
VERTEX
  8
Layer_1
 10
201.177240492349
 20
1480.34605895134
 42
0.1872950785001
  0
VERTEX
  8
Layer_1
 10
209.189834227187
 20
1470.64142748864
 42
0.493979905564
  0
VERTEX
  8
Layer_1
 10
213.054286217784
 20
1473.68168587008
 42
-0.1090376401788
  0
VERTEX
  8
Layer_1
 10
215.191598976474
 20
1487.87000892947
 42
0.0110592325662
  0
VERTEX
  8
Layer_1
 10
219.840211626232
 20
1492.99870994045
 42
0.5833976899409
  0
VERTEX
  8
Layer_1
 10
216.445769780492
 20
1497.87289453445
 42
0.1409307555266
  0
VERTEX
  8
Layer_1
 10
200.907970211542
 20
1493.49943350025
 42
0.3579167481663
  0
VERTEX
  8
Layer_1
 10
199.223958720398
 20
1484.08617493333
 42
-0.002420429989
  0
SEQEND
  0
POLYLINE
  8
Layer_1
 66
     1
 10
0.0
 20
0.0
 30
0.0
 70
     1
  0
VERTEX
  8
Layer_1
 10
165.444121493892
 20
1504.68956306803
 42
0.1617770446099
  0
VERTEX
  8
Layer_1
 10
177.842023364569
 20
1500.08440788029
 42
0.3225686102893
  0
VERTEX
  8
Layer_1
 10
182.323372268173
 20
1506.10304293697
 42
0.1780507515047
  0
VERTEX
  8
Layer_1
 10
180.585160983322
 20
1528.11292004796
 42
0.5869058030507
  0
VERTEX
  8
Layer_1
 10
176.793201720328
 20
1527.21298970178
 42
-0.0729507572615
  0
VERTEX
  8
Layer_1
 10
172.736785338528
 20
1517.44220003259
 42
-0.1215764225601
  0
VERTEX
  8
Layer_1
 10
161.158077971878
 20
1514.00864819398
 42
0.2555816128209
  0
VERTEX
  8
Layer_1
 10
159.150112668745
 20
1511.12448522156
 42
0.0790964266556
  0
SEQEND
  0
POLYLINE
  8
Layer_1
 66
     1
 10
0.0
 20
0.0
 30
0.0
 70
     1
  0
VERTEX
  8
Layer_1
 10
213.351628002716
 20
1510.39390133563
 42
0.4353129540616
  0
VERTEX
  8
Layer_1
 10
208.80613210828
 20
1514.38208535936
 42
-0.1727214309487
  0
VERTEX
  8
Layer_1
 10
198.907843572311
 20
1522.71926121891
 42
0.0
  0
VERTEX
  8
Layer_1
 10
193.715331394918
 20
1531.05641377284
 42
0.0775237006286
  0
VERTEX
  8
Layer_1
 10
189.752220505842
 20
1510.15899247711
 42
0.5212374398527
  0
VERTEX
  8
Layer_1
 10
196.741810752802
 20
1502.17154294122
 42
0.167632125156
  0
VERTEX
  8
Layer_1
 10
212.304834089273
 20
1509.02152617457
 42
0.2071491626441
  0
SEQEND
  0
POLYLINE
  8
Layer_1
 66
     1
 10
0.0
 20
0.0
 30
0.0
 70
     1
  0
VERTEX
  8
Layer_1
 10
235.904729167525
 20
1291.91472792515
 42
0.1615602433437
  0
VERTEX
  8
Layer_1
 10
246.472334747389
 20
1289.68539258942
 42
0.148519076387
  0
VERTEX
  8
Layer_1
 10
260.639509404301
 20
1292.5422219076
 42
0.3138060375398
  0
VERTEX
  8
Layer_1
 10
260.360398045918
 20
1298.89277626255
 42
0.0522743977278
  0
VERTEX
  8
Layer_1
 10
249.312823954119
 20
1315.3334827305
 42
0.0717028036951
  0
VERTEX
  8
Layer_1
 10
236.458551269164
 20
1294.14018686354
 42
0.2676403607376
  0
SEQEND
  0
POLYLINE
  8
Layer_1
 66
     1
 10
0.0
 20
0.0
 30
0.0
 70
     1
  0
VERTEX
  8
Layer_1
 10
225.860717933923
 20
1300.06519073044
 42
0.1467544356707
  0
VERTEX
  8
Layer_1
 10
232.022728233302
 20
1304.45729160286
 42
0.0842161802372
  0
VERTEX
  8
Layer_1
 10
240.158639646361
 20
1315.97844849389
 42
0.4038528450181
  0
VERTEX
  8
Layer_1
 10
236.395612966787
 20
1321.82639911343
 42
0.1318356217817
  0
VERTEX
  8
Layer_1
 10
218.225431641946
 20
1325.99607261546
 42
0.5093486583944
  0
VERTEX
  8
Layer_1
 10
217.782805969199
 20
1322.42707239077
 42
-0.2411590504626
  0
VERTEX
  8
Layer_1
 10
224.231850208231
 20
1308.47221969678
 42
0.1515055877083
  0
VERTEX
  8
Layer_1
 10
225.250227460918
 20
1300.6848341481
 42
0.1614954367089
  0
SEQEND
  0
POLYLINE
  8
Layer_1
 66
     1
 10
0.0
 20
0.0
 30
0.0
 70
     1
  0
VERTEX
  8
Layer_1
 10
263.12049804109
 20
1309.85630657712
 42
0.1872950785037
  0
VERTEX
  8
Layer_1
 10
271.133091775927
 20
1300.15167511441
 42
0.4939799055848
  0
VERTEX
  8
Layer_1
 10
274.997543766525
 20
1303.19193349587
 42
-0.1090376402051
  0
VERTEX
  8
Layer_1
 10
277.134856525216
 20
1317.38025655524
 42
0.0110592325678
  0
VERTEX
  8
Layer_1
 10
281.783469174972
 20
1322.50895756622
 42
0.5833976899397
  0
VERTEX
  8
Layer_1
 10
278.389027329234
 20
1327.38314216021
 42
0.1409307555276
  0
VERTEX
  8
Layer_1
 10
262.851227760284
 20
1323.00968112602
 42
0.3579167481773
  0
VERTEX
  8
Layer_1
 10
261.16721626914
 20
1313.5964225591
 42
-0.0024204299905
  0
SEQEND
  0
POLYLINE
  8
Layer_1
 66
     1
 10
0.0
 20
0.0
 30
0.0
 70
     1
  0
VERTEX
  8
Layer_1
 10
227.387379042633
 20
1334.19981069379
 42
0.1617770446091
  0
VERTEX
  8
Layer_1
 10
239.785280913311
 20
1329.59465550606
 42
0.3225686102857
  0
VERTEX
  8
Layer_1
 10
244.266629816913
 20
1335.61329056274
 42
0.1780507515057
  0
VERTEX
  8
Layer_1
 10
242.528418532064
 20
1357.62316767372
 42
0.5869058035711
  0
VERTEX
  8
Layer_1
 10
238.736459269067
 20
1356.72323732755
 42
-0.072950757269
  0
VERTEX
  8
Layer_1
 10
234.680042887273
 20
1346.95244765836
 42
-0.1215764223564
  0
VERTEX
  8
Layer_1
 10
223.10133551852
 20
1343.51889581852
 42
0.2555816127063
  0
VERTEX
  8
Layer_1
 10
221.093370217485
 20
1340.63473284732
 42
0.0790964266561
  0
SEQEND
  0
POLYLINE
  8
Layer_1
 66
     1
 10
0.0
 20
0.0
 30
0.0
 70
     1
  0
VERTEX
  8
Layer_1
 10
275.294885551458
 20
1339.90414896137
 42
0.4353129540606
  0
VERTEX
  8
Layer_1
 10
270.74938965702
 20
1343.89233298512
 42
-0.1727214309327
  0
VERTEX
  8
Layer_1
 10
260.851101121051
 20
1352.22950884468
 42
0.0
  0
VERTEX
  8
Layer_1
 10
255.658588943658
 20
1360.5666613986
 42
0.0775237006315
  0
VERTEX
  8
Layer_1
 10
251.695478054582
 20
1339.66924010287
 42
0.5212374398496
  0
VERTEX
  8
Layer_1
 10
258.685068301544
 20
1331.68179056698
 42
0.1676321251463
  0
VERTEX
  8
Layer_1
 10
274.248091638014
 20
1338.53177380033
 42
0.2071491626438
  0
SEQEND
  0
POLYLINE
  8
Layer_1
 66
     1
 10
0.0
 20
0.0
 30
0.0
 70
     1
  0
VERTEX
  8
Layer_1
 10
373.372244281309
 20
1162.24037530614
 42
0.16156024331
  0
VERTEX
  8
Layer_1
 10
383.93984986117
 20
1160.0110399704
 42
0.1485190763858
  0
VERTEX
  8
Layer_1
 10
398.107024518083
 20
1162.86786928857
 42
0.3138060374828
  0
VERTEX
  8
Layer_1
 10
397.827913159701
 20
1169.21842364354
 42
0.0522743977291
  0
VERTEX
  8
Layer_1
 10
386.780339067902
 20
1185.65913011149
 42
0.0717028036971
  0
VERTEX
  8
Layer_1
 10
373.926066382947
 20
1164.46583424451
 42
0.2676403609684
  0
SEQEND
  0
POLYLINE
  8
Layer_1
 66
     1
 10
0.0
 20
0.0
 30
0.0
 70
     1
  0
VERTEX
  8
Layer_1
 10
363.328233047705
 20
1170.39083811142
 42
0.1467544356709
  0
VERTEX
  8
Layer_1
 10
369.490243347084
 20
1174.78293898385
 42
0.0842161802377
  0
VERTEX
  8
Layer_1
 10
377.626154760144
 20
1186.30409587488
 42
0.4038528450185
  0
VERTEX
  8
Layer_1
 10
373.863128080569
 20
1192.15204649439
 42
0.1318356217436
  0
VERTEX
  8
Layer_1
 10
355.692946755999
 20
1196.32171999661
 42
0.5093486584921
  0
VERTEX
  8
Layer_1
 10
355.250321082982
 20
1192.75271977174
 42
-0.2411590504694
  0
VERTEX
  8
Layer_1
 10
361.699365322013
 20
1178.79786707777
 42
0.1515055877367
  0
VERTEX
  8
Layer_1
 10
362.717742574712
 20
1171.01048152908
 42
0.1614954369848
  0
SEQEND
  0
POLYLINE
  8
Layer_1
 66
     1
 10
0.0
 20
0.0
 30
0.0
 70
     1
  0
VERTEX
  8
Layer_1
 10
400.588013154872
 20
1180.18195395809
 42
0.1872950785041
  0
VERTEX
  8
Layer_1
 10
408.60060688971
 20
1170.47732249538
 42
0.4939799055585
  0
VERTEX
  8
Layer_1
 10
412.465058880308
 20
1173.51758087685
 42
-0.1090376402572
  0
VERTEX
  8
Layer_1
 10
414.602371638997
 20
1187.70590393623
 42
0.011059232569
  0
VERTEX
  8
Layer_1
 10
419.250984288756
 20
1192.8346049472
 42
0.5833976899401
  0
VERTEX
  8
Layer_1
 10
415.856542443017
 20
1197.70878954119
 42
0.1409307555289
  0
VERTEX
  8
Layer_1
 10
400.318742874066
 20
1193.335328507
 42
0.3579167481613
  0
VERTEX
  8
Layer_1
 10
398.634731382922
 20
1183.92206994008
 42
-0.0024204299903
  0
SEQEND
  0
POLYLINE
  8
Layer_1
 66
     1
 10
0.0
 20
0.0
 30
0.0
 70
     1
  0
VERTEX
  8
Layer_1
 10
364.854894156416
 20
1204.52545807477
 42
0.1617770446144
  0
VERTEX
  8
Layer_1
 10
377.252796027092
 20
1199.92030288705
 42
0.3225686102886
  0
VERTEX
  8
Layer_1
 10
381.734144930696
 20
1205.93893794373
 42
0.1780507515077
  0
VERTEX
  8
Layer_1
 10
379.995933645846
 20
1227.9488150547
 42
0.5869058034831
  0
VERTEX
  8
Layer_1
 10
376.203974382852
 20
1227.04888470853
 42
-0.0729507572606
  0
VERTEX
  8
Layer_1
 10
372.147558001053
 20
1217.27809503935
 42
-0.121576422446
  0
VERTEX
  8
Layer_1
 10
360.568850633218
 20
1213.84454320005
 42
0.255581612745
  0
VERTEX
  8
Layer_1
 10
358.560885331268
 20
1210.96038022832
 42
0.0790964266549
  0
SEQEND
  0
POLYLINE
  8
Layer_1
 66
     1
 10
0.0
 20
0.0
 30
0.0
 70
     1
  0
VERTEX
  8
Layer_1
 10
412.76240066524
 20
1210.22979634237
 42
0.4353129540593
  0
VERTEX
  8
Layer_1
 10
408.216904770803
 20
1214.21798036612
 42
-0.1727214309133
  0
VERTEX
  8
Layer_1
 10
398.318616234834
 20
1222.55515622565
 42
0.0
  0
VERTEX
  8
Layer_1
 10
393.126104057442
 20
1230.89230877959
 42
0.0775237006328
  0
VERTEX
  8
Layer_1
 10
389.162993168364
 20
1209.99488748386
 42
0.5212374398513
  0
VERTEX
  8
Layer_1
 10
396.152583415326
 20
1202.00743794797
 42
0.1676321251641
  0
VERTEX
  8
Layer_1
 10
411.715606751797
 20
1208.85742118133
 42
0.2071491626472
  0
SEQEND
  0
POLYLINE
  8
Layer_1
 66
     1
 10
0.0
 20
0.0
 30
0.0
 70
     1
  0
VERTEX
  8
Layer_1
 10
232.661843594667
 20
1176.96877687584
 42
0.3042554639632
  0
VERTEX
  8
Layer_1
 10
211.45072551723
 20
1224.53495021093
 42
0.0483216248457
  0
VERTEX
  8
Layer_1
 10
204.377094946714
 20
1227.39816451569
 42
-0.1036140618765
  0
VERTEX
  8
Layer_1
 10
218.929146610075
 20
1167.83863001197
 42
0.087618288879
  0
VERTEX
  8
Layer_1
 10
227.855836378276
 20
1119.94941501099
 42
0.0
  0
VERTEX
  8
Layer_1
 10
227.855815690475
 20
1119.94946856067
 42
0.0588448232735
  0
VERTEX
  8
Layer_1
 10
246.474987352583
 20
1083.08552932777
 42
-0.0412334240238
  0
VERTEX
  8
Layer_1
 10
242.794567847046
 20
1119.50551037667
 42
0.0
  0
VERTEX
  8
Layer_1
 10
242.794565740951
 20
1119.50508111907
 42
-0.2056370565604
  0
VERTEX
  8
Layer_1
 10
253.264062531872
 20
1148.63031883556
 42
0.0
  0
VERTEX
  8
Layer_1
 10
258.314621543178
 20
1153.99516523381
 42
0.1374487633603
  0
VERTEX
  8
Layer_1
 10
244.806062052138
 20
1164.44675884716
 42
-0.1170540033855
  0
VERTEX
  8
Layer_1
 10
235.766248762751
 20
1165.97363094826
 42
-0.2400898952289
  0
SEQEND
  0
POLYLINE
  8
Layer_1
 66
     1
 10
0.0
 20
0.0
 30
0.0
 70
     1
  0
VERTEX
  8
Layer_1
 10
435.437624680057
 20
230.716352991636
 42
-0.0291841483766
  0
VERTEX
  8
Layer_1
 10
425.094744772084
 20
232.082136170845
 42
0.4770378469072
  0
VERTEX
  8
Layer_1
 10
421.374555525095
 20
229.973904272702
 42
-0.1761619698694
  0
VERTEX
  8
Layer_1
 10
402.551023101258
 20
211.487777612018
 42
-0.6561551236019
  0
VERTEX
  8
Layer_1
 10
397.09861461717
 20
216.903222919006
 42
0.1051060267296
  0
VERTEX
  8
Layer_1
 10
399.722994408346
 20
237.587907868296
 42
0.244036764101
  0
VERTEX
  8
Layer_1
 10
389.20844024281
 20
253.12995940794
 42
0.3328910958327
  0
VERTEX
  8
Layer_1
 10
372.689034658079
 20
247.144396016775
 42
0.3801061719258
  0
VERTEX
  8
Layer_1
 10
376.276608371671
 20
197.553884951972
 42
0.3403880770737
  0
VERTEX
  8
Layer_1
 10
411.1969059837
 20
191.159448972195
 42
0.1315849924787
  0
VERTEX
  8
Layer_1
 10
435.828097987194
 20
212.53213408594
 42
0.0433787920898
  0
VERTEX
  8
Layer_1
 10
447.815545328625
 20
233.564633044421
 42
-0.0985406298141
  0
SEQEND
  0
POLYLINE
  8
Layer_1
 66
     1
 10
0.0
 20
0.0
 30
0.0
 70
     1
  0
VERTEX
  8
Layer_1
 10
187.388292708059
 20
1133.51831428908
 42
0.0100689392687
  0
VERTEX
  8
Layer_1
 10
189.743750152377
 20
1130.37594891918
 42
-0.0831362540557
  0
VERTEX
  8
Layer_1
 10
169.023855338217
 20
1190.37697184889
 42
-0.1067105060432
  0
VERTEX
  8
Layer_1
 10
171.922184631243
 20
1229.7476772664
 42
0.0341784309271
  0
VERTEX
  8
Layer_1
 10
178.727370924641
 20
1258.68540975662
 42
0.0973659960861
  0
VERTEX
  8
Layer_1
 10
176.77265178335
 20
1285.97393964128
 42
0.062134081195
  0
VERTEX
  8
Layer_1
 10
162.102049097612
 20
1328.69077460472
 42
-0.0625707314783
  0
VERTEX
  8
Layer_1
 10
155.628846407418
 20
1266.38488965484
 42
0.1929357284653
  0
VERTEX
  8
Layer_1
 10
169.02004716258
 20
1162.66703953813
 42
0.0363457781906
  0
SEQEND
  0
POLYLINE
  8
Layer_1
 66
     1
 10
0.0
 20
0.0
 30
0.0
 70
     1
  0
VERTEX
  8
Layer_1
 10
248.867488673186
 20
225.440647999655
 42
0.3882594250645
  0
VERTEX
  8
Layer_1
 10
272.864408231984
 20
222.162071821096
 42
0.2977911809352
  0
VERTEX
  8
Layer_1
 10
285.783123742421
 20
259.057153890468
 42
0.1921580393078
  0
VERTEX
  8
Layer_1
 10
282.485002876345
 20
261.720875571722
 42
0.3198815195573
  0
VERTEX
  8
Layer_1
 10
278.830031744219
 20
255.324919982565
 42
-0.3104539239606
  0
VERTEX
  8
Layer_1
 10
258.382891740414
 20
227.336947846686
 42
0.116667395214
  0
VERTEX
  8
Layer_1
 10
249.377355847278
 20
225.797659242652
 42
0.2933824181502
  0
SEQEND
  0
POLYLINE
  8
Layer_1
 66
     1
 10
0.0
 20
0.0
 30
0.0
 70
     1
  0
VERTEX
  8
Layer_1
 10
329.667104139939
 20
911.068686431079
 42
-0.1826529680662
  0
VERTEX
  8
Layer_1
 10
362.213474743838
 20
952.283413189458
 42
-0.1290744542402
  0
VERTEX
  8
Layer_1
 10
374.200226922139
 20
956.0848285424
 42
0.4399457348435
  0
VERTEX
  8
Layer_1
 10
376.510870518708
 20
959.461329021131
 42
0.2172693909824
  0
VERTEX
  8
Layer_1
 10
369.201279458874
 20
971.935179147721
 42
-0.3990272202376
  0
VERTEX
  8
Layer_1
 10
363.139718440894
 20
986.634979557703
 42
0.2413328372023
  0
VERTEX
  8
Layer_1
 10
363.800697576872
 20
1018.5968725791
 42
0.0313489818942
  0
VERTEX
  8
Layer_1
 10
362.81337456579
 20
1020.20522494668
 42
-0.1119400437934
  0
VERTEX
  8
Layer_1
 10
350.793714481671
 20
981.495371971761
 42
0.0697994108931
  0
VERTEX
  8
Layer_1
 10
332.297097976962
 20
933.980000770923
 42
0.0437023828432
  0
SEQEND
  0
POLYLINE
  8
Layer_1
 66
     1
 10
0.0
 20
0.0
 30
0.0
 70
     1
  0
VERTEX
  8
Layer_1
 10
299.420815759376
 20
221.175029930447
 42
-0.0197218205298
  0
VERTEX
  8
Layer_1
 10
311.600163279521
 20
256.250682403697
 42
-0.0962765772274
  0
VERTEX
  8
Layer_1
 10
341.748243430302
 20
300.336304065108
 42
-0.3033250745443
  0
VERTEX
  8
Layer_1
 10
400.030333737103
 20
309.127435574011
 42
-0.2515540983397
  0
VERTEX
  8
Layer_1
 10
425.980663261237
 20
258.307285742241
 42
0.2496904641175
  0
VERTEX
  8
Layer_1
 10
426.647989462331
 20
253.561745071217
 42
0.1128141054421
  0
VERTEX
  8
Layer_1
 10
449.264914016838
 20
253.295174936904
 42
0.3296589895351
  0
VERTEX
  8
Layer_1
 10
450.401077261566
 20
254.451813228414
 42
0.114312128257
  0
VERTEX
  8
Layer_1
 10
445.775297428889
 20
280.581879055155
 42
0.0842020887964
  0
VERTEX
  8
Layer_1
 10
428.853082125293
 20
313.937378884919
 42
0.2000332186714
  0
VERTEX
  8
Layer_1
 10
384.222482899444
 20
337.129024088733
 42
0.1693303236575
  0
VERTEX
  8
Layer_1
 10
355.711526105645
 20
326.677044902505
 42
0.1361441564488
  0
VERTEX
  8
Layer_1
 10
306.752162639749
 20
258.305196631039
 42
0.047882161282
  0
VERTEX
  8
Layer_1
 10
296.669712257538
 20
224.684798236025
 42
0.075326283935
  0
VERTEX
  8
Layer_1
 10
296.096461407931
 20
217.647872654623
 42
0.0727698971702
  0
SEQEND
  0
POLYLINE
  8
Layer_1
 66
     1
 10
0.0
 20
0.0
 30
0.0
 70
     1
  0
VERTEX
  8
Layer_1
 10
319.031388721873
 20
514.423192784855
 42
0.0316424037546
  0
VERTEX
  8
Layer_1
 10
318.027752771548
 20
601.669800313863
 42
0.092869908334
  0
VERTEX
  8
Layer_1
 10
280.112733867614
 20
719.216034855968
 42
0.3146200922943
  0
VERTEX
  8
Layer_1
 10
141.172531498593
 20
784.189673554688
 42
0.2207702427622
  0
VERTEX
  8
Layer_1
 10
72.3807062359986
 20
732.455844441259
 42
0.0669657076475
  0
VERTEX
  8
Layer_1
 10
58.2452859905693
 20
695.974765359373
 42
0.0393062924449
  0
VERTEX
  8
Layer_1
 10
58.0716951587242
 20
694.064130607114
 42
-0.2690113062079
  0
VERTEX
  8
Layer_1
 10
86.1506167972958
 20
686.166617926216
 42
0.1128221526519
  0
VERTEX
  8
Layer_1
 10
99.0475155397395
 20
679.776577674826
 42
0.3593370013148
  0
VERTEX
  8
Layer_1
 10
111.317182133371
 20
686.784348952021
 42
-0.0939771799521
  0
VERTEX
  8
Layer_1
 10
139.338704289604
 20
726.930900008894
 42
-0.1599219537863
  0
VERTEX
  8
Layer_1
 10
161.354539206876
 20
737.676280531316
 42
-0.055558328573
  0
VERTEX
  8
Layer_1
 10
193.602325323622
 20
740.338029672502
 42
-0.1135630657501
  0
VERTEX
  8
Layer_1
 10
216.208930422283
 20
734.382627694222
 42
-0.1512447044723
  0
VERTEX
  8
Layer_1
 10
267.364908471053
 20
684.967269999706
 42
-0.1079616283047
  0
VERTEX
  8
Layer_1
 10
308.355132873682
 20
548.465654365069
 42
-0.0994484737815
  0
VERTEX
  8
Layer_1
 10
294.009203432949
 20
405.835077691978
 42
0.0
  0
VERTEX
  8
Layer_1
 10
283.826915928315
 20
373.737589489475
 42
0.2087080141672
  0
VERTEX
  8
Layer_1
 10
286.771850388814
 20
377.527804323906
 42
0.0933479768965
  0
SEQEND
  0
POLYLINE
  8
Layer_1
 66
     1
 10
0.0
 20
0.0
 30
0.0
 70
     1
  0
VERTEX
  8
Layer_1
 10
265.987695671061
 20
805.875815557312
 42
0.1805623134451
  0
VERTEX
  8
Layer_1
 10
271.781588777172
 20
793.894982073357
 42
0.0562362158827
  0
VERTEX
  8
Layer_1
 10
279.884681411573
 20
786.433886314129
 42
0.0613646232346
  0
VERTEX
  8
Layer_1
 10
242.96623077224
 20
899.318438242728
 42
0.096617518708
  0
VERTEX
  8
Layer_1
 10
186.826807054561
 20
973.754291131517
 42
0.0361007910692
  0
VERTEX
  8
Layer_1
 10
127.1102496255
 20
1018.86180252245
 42
-0.04326099148
  0
VERTEX
  8
Layer_1
 10
95.2062093158372
 20
1044.36005980994
 42
-0.0715827027777
  0
VERTEX
  8
Layer_1
 10
80.3323435125478
 20
1063.74421115887
 42
-0.0694125567934
  0
VERTEX
  8
Layer_1
 10
58.6063515619916
 20
1116.56767248438
 42
-0.0645898609728
  0
VERTEX
  8
Layer_1
 10
57.5608876065112
 20
1125.83289567756
 42
0.153687609993
  0
VERTEX
  8
Layer_1
 10
47.378743145704
 20
1060.38546783903
 42
0.2640546361416
  0
VERTEX
  8
Layer_1
 10
97.4219916929882
 20
989.652533202818
 42
0.0232104710616
  0
VERTEX
  8
Layer_1
 10
108.122537948328
 20
985.336963409743
 42
-0.0315967155881
  0
VERTEX
  8
Layer_1
 10
162.328842032778
 20
960.560348393308
 42
-0.1084377905026
  0
VERTEX
  8
Layer_1
 10
217.526082695861
 20
908.849684770485
 42
-0.0709361020172
  0
VERTEX
  8
Layer_1
 10
249.608523945385
 20
853.243264632089
 42
-0.0322341555858
  0
SEQEND
  0
POLYLINE
  8
Layer_1
 66
     1
 10
0.0
 20
0.0
 30
0.0
 70
     1
  0
VERTEX
  8
Layer_1
 10
283.736776168877
 20
343.703916221868
 42
0.1282669077993
  0
VERTEX
  8
Layer_1
 10
261.765973421263
 20
305.221244763507
 42
-0.1020899918379
  0
VERTEX
  8
Layer_1
 10
237.882745444012
 20
255.27488319773
 42
-0.0447529700551
  0
VERTEX
  8
Layer_1
 10
229.822330245502
 20
247.311304634565
 42
0.1944294483969
  0
VERTEX
  8
Layer_1
 10
248.595775779531
 20
247.859082329793
 42
0.2210111751641
  0
VERTEX
  8
Layer_1
 10
271.887283425426
 20
272.626779855361
 42
0.0420489585606
  0
VERTEX
  8
Layer_1
 10
278.419914580843
 20
308.053720230782
 42
-0.0248100374559
  0
VERTEX
  8
Layer_1
 10
287.547073652522
 20
347.072425593854
 42
0.0182218920927
  0
SEQEND
  0
POLYLINE
  8
Layer_1
 66
     1
 10
0.0
 20
0.0
 30
0.0
 70
     1
  0
VERTEX
  8
Layer_1
 10
138.113504288879
 20
410.965600281463
 42
0.1786135535794
  0
VERTEX
  8
Layer_1
 10
135.409686907601
 20
352.567095683093
 42
0.146021398328
  0
VERTEX
  8
Layer_1
 10
144.36852615505
 20
334.480417256522
 42
-0.0542082901861
  0
VERTEX
  8
Layer_1
 10
162.384646165482
 20
314.914040152535
 42
-0.1505529321031
  0
VERTEX
  8
Layer_1
 10
170.599663892461
 20
280.042770106044
 42
-0.1074149128974
  0
VERTEX
  8
Layer_1
 10
162.419686519341
 20
260.665571415857
 42
0.1315519605172
  0
VERTEX
  8
Layer_1
 10
157.747632550566
 20
249.021591658229
 42
0.1527814029794
  0
VERTEX
  8
Layer_1
 10
175.824912156727
 20
259.894569050083
 42
0.2544047446145
  0
VERTEX
  8
Layer_1
 10
194.131837686126
 20
322.248443537389
 42
0.1555423495011
  0
VERTEX
  8
Layer_1
 10
173.50683459839
 20
353.896402690468
 42
-0.1416272287747
  0
VERTEX
  8
Layer_1
 10
139.891914103259
 20
401.414378345583
 42
-0.0618280115604
  0
SEQEND
  0
POLYLINE
  8
Layer_1
 66
     1
 10
0.0
 20
0.0
 30
0.0
 70
     1
  0
VERTEX
  8
Layer_1
 10
228.823853183683
 20
571.75270453436
 42
0.0968985159405
  0
VERTEX
  8
Layer_1
 10
220.501449932224
 20
539.876169140223
 42
0.1552389683792
  0
VERTEX
  8
Layer_1
 10
229.563194702384
 20
519.942228348032
 42
-0.1081797456869
  0
VERTEX
  8
Layer_1
 10
243.219894735401
 20
499.44090073454
 42
0.034843188323
  0
VERTEX
  8
Layer_1
 10
268.819320813278
 20
449.882732366957
 42
0.0624618016924
  0
VERTEX
  8
Layer_1
 10
262.381634058254
 20
486.273055720268
 42
0.0267429032943
  0
VERTEX
  8
Layer_1
 10
239.228298969114
 20
545.757939376987
 42
-0.0206170997919
  0
SEQEND
  0
POLYLINE
  8
Layer_1
 66
     1
 10
0.0
 20
0.0
 30
0.0
 70
     1
  0
VERTEX
  8
Layer_1
 10
212.104617601067
 20
274.131270538387
 42
0.1454532431944
  0
VERTEX
  8
Layer_1
 10
227.848339207736
 20
324.809452004022
 42
0.1279590682846
  0
VERTEX
  8
Layer_1
 10
216.907102875293
 20
383.292880014729
 42
0.0887243260201
  0
VERTEX
  8
Layer_1
 10
207.102063111028
 20
397.214733761041
 42
-0.2051778882145
  0
VERTEX
  8
Layer_1
 10
198.720539773867
 20
264.803783023725
 42
0.0
  0
VERTEX
  8
Layer_1
 10
198.720674412837
 20
264.804047308587
 42
0.0
  0
VERTEX
  8
Layer_1
 10
194.454766418671
 20
256.429516307766
 42
0.0809221986333
  0
SEQEND
  0
POLYLINE
  8
Layer_1
 66
     1
 10
0.0
 20
0.0
 30
0.0
 70
     1
  0
VERTEX
  8
Layer_1
 10
273.993533371201
 20
1152.48643342126
 42
-0.0826309530355
  0
VERTEX
  8
Layer_1
 10
278.851739616183
 20
1095.57274867536
 42
0.0376311461108
  0
VERTEX
  8
Layer_1
 10
278.38014598241
 20
1053.38655320219
 42
0.0893643013105
  0
VERTEX
  8
Layer_1
 10
286.274120746031
 20
1023.95799702921
 42
-0.2432344118007
  0
VERTEX
  8
Layer_1
 10
302.038261879276
 20
1094.80734859818
 42
0.074565445315
  0
VERTEX
  8
Layer_1
 10
306.751466384006
 20
1101.94807118981
 42
0.2583253206748
  0
VERTEX
  8
Layer_1
 10
295.879208891801
 20
1109.26375582281
 42
-0.4081545926409
  0
VERTEX
  8
Layer_1
 10
288.479311650383
 20
1120.10220733394
 42
0.1578159581855
  0
VERTEX
  8
Layer_1
 10
276.956085231475
 20
1149.64961543444
 42
0.0650082105411
  0
SEQEND
  0
POLYLINE
  8
Layer_1
 66
     1
 10
0.0
 20
0.0
 30
0.0
 70
     1
  0
VERTEX
  8
Layer_1
 10
144.754348882395
 20
296.524835428247
 42
-0.0338234095006
  0
VERTEX
  8
Layer_1
 10
148.144566263801
 20
290.946258824078
 42
0.1850405988036
  0
VERTEX
  8
Layer_1
 10
110.779742550609
 20
343.713092765678
 42
-0.206912986521
  0
VERTEX
  8
Layer_1
 10
64.9467951658867
 20
421.804592385686
 42
-0.0514448888199
  0
VERTEX
  8
Layer_1
 10
64.8649941059032
 20
467.621649357276
 42
0.1759396676591
  0
VERTEX
  8
Layer_1
 10
42.8836445244581
 20
434.177235555407
 42
0.1422241366377
  0
VERTEX
  8
Layer_1
 10
42.9143002603485
 20
383.083723936688
 42
0.2015414304702
  0
VERTEX
  8
Layer_1
 10
75.6856720746248
 20
344.357316135563
 42
-0.026420670495
  0
VERTEX
  8
Layer_1
 10
108.526703110836
 20
328.906681665409
 42
-0.1066008536706
  0
SEQEND
  0
POLYLINE
  8
Layer_1
 66
     1
 10
0.0
 20
0.0
 30
0.0
 70
     1
  0
VERTEX
  8
Layer_1
 10
135.598518433947
 20
941.597608072229
 42
0.0545871869232
  0
VERTEX
  8
Layer_1
 10
76.4288052186073
 20
963.215414266375
 42
0.46492742435
  0
VERTEX
  8
Layer_1
 10
61.0218026326278
 20
956.560420536753
 42
0.428077731279
  0
VERTEX
  8
Layer_1
 10
59.78923448444
 20
945.877002140681
 42
0.2086788280448
  0
VERTEX
  8
Layer_1
 10
73.3020162044426
 20
936.36999594958
 42
0.0389657418582
  0
VERTEX
  8
Layer_1
 10
85.6843224528401
 20
933.776120123022
 42
-0.2343080058424
  0
VERTEX
  8
Layer_1
 10
235.250453023532
 20
823.255242125017
 42
0.103765306902
  0
VERTEX
  8
Layer_1
 10
243.981155993885
 20
811.774095432828
 42
0.0891803076906
  0
VERTEX
  8
Layer_1
 10
244.746786858631
 20
811.347839607951
 42
0.0502430338457
  0
VERTEX
  8
Layer_1
 10
232.326417554866
 20
837.824269733457
 42
0.049115643551
  0
VERTEX
  8
Layer_1
 10
182.556485077809
 20
906.578248168538
 42
0.0841549387742
  0
SEQEND
  0
POLYLINE
  8
Layer_1
 66
     1
 10
0.0
 20
0.0
 30
0.0
 70
     1
  0
VERTEX
  8
Layer_1
 10
338.758070662115
 20
852.041498535618
 42
-0.2056214009056
  0
VERTEX
  8
Layer_1
 10
358.57284758446
 20
878.020190640718
 42
0.1135016972444
  0
VERTEX
  8
Layer_1
 10
377.47307390097
 20
895.263064097231
 42
0.137979339436
  0
VERTEX
  8
Layer_1
 10
381.785141074935
 20
919.122991851938
 42
0.0666098203283
  0
VERTEX
  8
Layer_1
 10
381.227142428904
 20
921.35075411682
 42
0.1174832388849
  0
VERTEX
  8
Layer_1
 10
345.804680728865
 20
891.705040210456
 42
0.171365302394
  0
SEQEND
  0
POLYLINE
  8
Layer_1
 66
     1
 10
0.0
 20
0.0
 30
0.0
 70
     1
  0
VERTEX
  8
Layer_1
 10
357.274938228501
 20
818.736973927781
 42
-0.2443994319342
  0
VERTEX
  8
Layer_1
 10
369.281103789074
 20
826.14200410655
 42
0.3011708217661
  0
VERTEX
  8
Layer_1
 10
381.809331654383
 20
850.906346510617
 42
0.1691728751204
  0
VERTEX
  8
Layer_1
 10
363.754765298346
 20
835.143673456248
 42
0.1499523637708
  0
SEQEND
  0
POLYLINE
  8
Layer_1
 66
     1
 10
0.0
 20
0.0
 30
0.0
 70
     1
  0
VERTEX
  8
Layer_1
 10
103.180962701071
 20
657.576844907525
 42
-0.1931103171451
  0
VERTEX
  8
Layer_1
 10
64.6600014821646
 20
659.245674173093
 42
-0.0635142967833
  0
VERTEX
  8
Layer_1
 10
57.0542785703714
 20
664.657051627545
 42
0.1587810922435
  0
VERTEX
  8
Layer_1
 10
53.922923658073
 20
665.986950751252
 42
0.14016147324
  0
VERTEX
  8
Layer_1
 10
52.8406040540575
 20
658.439003879296
 42
0.1432278410218
  0
VERTEX
  8
Layer_1
 10
72.3979967610392
 20
593.349427257133
 42
0.1179197368308
  0
VERTEX
  8
Layer_1
 10
109.136895729238
 20
560.790351514226
 42
0.1327191087489
  0
VERTEX
  8
Layer_1
 10
143.37362771733
 20
555.188162722857
 42
0.2284491500838
  0
VERTEX
  8
Layer_1
 10
197.074402518232
 20
576.570679317281
 42
0.1493611127755
  0
VERTEX
  8
Layer_1
 10
211.276460298715
 20
618.259537849199
 42
0.1592445599429
  0
VERTEX
  8
Layer_1
 10
198.462562311918
 20
673.744971070282
 42
0.1853218615251
  0
VERTEX
  8
Layer_1
 10
178.888907491661
 20
691.447259027103
 42
0.2188159084791
  0
VERTEX
  8
Layer_1
 10
165.380126053207
 20
689.913548855408
 42
0.3519426252364
  0
VERTEX
  8
Layer_1
 10
147.501948002079
 20
656.011799104638
 42
0.1531528269218
  0
VERTEX
  8
Layer_1
 10
157.33863805245
 20
634.701278531507
 42
0.3145582488761
  0
VERTEX
  8
Layer_1
 10
170.327314954395
 20
630.646385592353
 42
-0.752668962026
  0
VERTEX
  8
Layer_1
 10
177.371127074527
 20
622.2054551417
 42
-0.3436950982608
  0
VERTEX
  8
Layer_1
 10
146.788660962405
 20
608.434511108161
 42
-0.3115347517769
  0
VERTEX
  8
Layer_1
 10
108.003127268202
 20
651.853486500925
 42
0.1647152103876
  0
VERTEX
  8
Layer_1
 10
106.517103540085
 20
658.448515693778
 42
-0.0041372310373
  0
SEQEND
  0
POLYLINE
  8
Layer_1
 66
     1
 10
0.0
 20
0.0
 30
0.0
 70
     1
  0
VERTEX
  8
Layer_1
 10
250.863741629817
 20
351.927840067776
 42
0.1214775583124
  0
VERTEX
  8
Layer_1
 10
240.553445457363
 20
449.387681369142
 42
0.1342062761415
  0
VERTEX
  8
Layer_1
 10
204.478370862493
 20
502.008391856817
 42
0.1902435663987
  0
VERTEX
  8
Layer_1
 10
152.234315465655
 20
521.494980257853
 42
0.06209584028
  0
VERTEX
  8
Layer_1
 10
127.683231727906
 20
515.870671808073
 42
-0.1553676177953
  0
VERTEX
  8
Layer_1
 10
95.0831018463899
 20
511.538672585151
 42
-0.2040147146242
  0
VERTEX
  8
Layer_1
 10
79.6875306893699
 20
522.903819398742
 42
0.1118691957807
  0
VERTEX
  8
Layer_1
 10
110.110061118434
 20
481.934507771898
 42
0.3010714573359
  0
VERTEX
  8
Layer_1
 10
176.436298159937
 20
477.58275922708
 42
0.0088974292151
  0
VERTEX
  8
Layer_1
 10
195.139887453535
 20
487.912890630054
 42
-0.3251549929325
  0
VERTEX
  8
Layer_1
 10
200.027837082835
 20
485.567721977332
 42
-0.1651051517055
  0
VERTEX
  8
Layer_1
 10
248.573573712018
 20
384.138122850819
 42
-0.0141995445309
  0
SEQEND
  0
POLYLINE
  8
Layer_1
 66
     1
 10
0.0
 20
0.0
 30
0.0
 70
     1
  0
VERTEX
  8
Layer_1
 10
356.27086717607
 20
361.568689349329
 42
-0.1441593054597
  0
VERTEX
  8
Layer_1
 10
416.885097455037
 20
358.140023759408
 42
0.0854655965282
  0
VERTEX
  8
Layer_1
 10
430.641775643199
 20
351.542239173055
 42
0.1174015100385
  0
VERTEX
  8
Layer_1
 10
415.421300467553
 20
379.041252335993
 42
0.089565648478
  0
VERTEX
  8
Layer_1
 10
393.038735240231
 20
391.298808698462
 42
-0.4538719562344
  0
VERTEX
  8
Layer_1
 10
391.903981430249
 20
396.366936805658
 42
0.1788481150087
  0
VERTEX
  8
Layer_1
 10
428.099968518772
 20
502.132045865487
 42
0.0237638600544
  0
VERTEX
  8
Layer_1
 10
416.362909517998
 20
624.389836250169
 42
0.0341652691296
  0
VERTEX
  8
Layer_1
 10
414.608059443152
 20
633.487859235267
 42
0.1214567929294
  0
VERTEX
  8
Layer_1
 10
399.308955039357
 20
585.574550305889
 42
-0.0121080336652
  0
VERTEX
  8
Layer_1
 10
396.145786102719
 20
485.483707176474
 42
-0.0782778375353
  0
VERTEX
  8
Layer_1
 10
377.093188340182
 20
399.418721339601
 42
-0.0441728749323
  0
SEQEND
  0
POLYLINE
  8
Layer_1
 66
     1
 10
0.0
 20
0.0
 30
0.0
 70
     1
  0
VERTEX
  8
Layer_1
 10
216.469452834192
 20
230.240494750541
 42
0.0908661695365
  0
VERTEX
  8
Layer_1
 10
233.399114786293
 20
206.444487554726
 42
0.405648914125
  0
VERTEX
  8
Layer_1
 10
248.848872643916
 20
205.634897623127
 42
0.1304865563531
  0
VERTEX
  8
Layer_1
 10
249.856872999984
 20
207.227474610753
 42
-0.1611410238144
  0
VERTEX
  8
Layer_1
 10
242.236502528307
 20
212.49595979292
 42
0.0992216379143
  0
VERTEX
  8
Layer_1
 10
226.387326547363
 20
231.389409840368
 42
0.3352783290947
  0
VERTEX
  8
Layer_1
 10
216.421029409076
 20
230.616923203831
 42
0.0156854884534
  0
SEQEND
  0
POLYLINE
  8
Layer_1
 66
     1
 10
0.0
 20
0.0
 30
0.0
 70
     1
  0
VERTEX
  8
Layer_1
 10
76.8211756339988
 20
869.894760644886
 42
-0.2862561119191
  0
VERTEX
  8
Layer_1
 10
92.7948787312399
 20
879.499545743506
 42
-0.0438442755917
  0
VERTEX
  8
Layer_1
 10
126.7059254036
 20
878.947166499642
 42
-0.1051766437984
  0
VERTEX
  8
Layer_1
 10
158.756872362286
 20
863.152980721042
 42
-0.0417944123768
  0
VERTEX
  8
Layer_1
 10
192.33923251108
 20
834.129743505531
 42
0.1033492915426
  0
VERTEX
  8
Layer_1
 10
218.292534792625
 20
814.811512812943
 42
0.0564697695556
  0
VERTEX
  8
Layer_1
 10
157.380611429993
 20
873.846047373559
 42
0.1422481729645
  0
VERTEX
  8
Layer_1
 10
105.98620919125
 20
894.114766862572
 42
0.4328703340626
  0
VERTEX
  8
Layer_1
 10
55.7646723995217
 20
849.202105785341
 42
0.1759817748651
  0
VERTEX
  8
Layer_1
 10
67.7337236253453
 20
819.311682880003
 42
0.126674939265
  0
VERTEX
  8
Layer_1
 10
76.0061823086294
 20
814.104911054768
 42
0.2487524001833
  0
VERTEX
  8
Layer_1
 10
105.974523976016
 20
819.143839344971
 42
0.4099931022505
  0
VERTEX
  8
Layer_1
 10
109.064168198165
 20
855.975585292392
 42
0.611095293232
  0
VERTEX
  8
Layer_1
 10
89.7224146626587
 20
851.73327989008
 42
0.0895831717983
  0
VERTEX
  8
Layer_1
 10
87.8841998746332
 20
841.243169331012
 42
0.0
  0
VERTEX
  8
Layer_1
 10
87.884198991824
 20
841.243349119004
 42
-0.1020699671379
  0
VERTEX
  8
Layer_1
 10
86.4170241415782
 20
830.740120895051
 42
-0.5848603654123
  0
VERTEX
  8
Layer_1
 10
76.2566320517279
 20
830.854909235316
 42
-0.3084036778658
  0
VERTEX
  8
Layer_1
 10
70.8842342881557
 20
858.691638587242
 42
-0.0561548094637
  0
SEQEND
  0
POLYLINE
  8
Layer_1
 66
     1
 10
0.0
 20
0.0
 30
0.0
 70
     1
  0
VERTEX
  8
Layer_1
 10
165.748920821983
 20
1051.16077515515
 42
0.2036079198116
  0
VERTEX
  8
Layer_1
 10
190.34427261396
 20
1087.0017649947
 42
-0.1109037454864
  0
VERTEX
  8
Layer_1
 10
137.745981491308
 20
1146.60917967469
 42
-0.0382026225347
  0
VERTEX
  8
Layer_1
 10
127.387549405262
 20
1170.58359861108
 42
0.0
  0
VERTEX
  8
Layer_1
 10
127.387654669259
 20
1170.58329297119
 42
-0.0889696422171
  0
VERTEX
  8
Layer_1
 10
114.29270763722
 20
1253.12386919414
 42
-0.0792869936279
  0
VERTEX
  8
Layer_1
 10
126.736500556062
 20
1335.97514754184
 42
-0.0121016611771
  0
VERTEX
  8
Layer_1
 10
142.879186444425
 20
1390.78970067322
 42
0.0055893278035
  0
VERTEX
  8
Layer_1
 10
118.629489343706
 20
1360.95827188531
 42
0.1092442574583
  0
VERTEX
  8
Layer_1
 10
79.059714282736
 20
1278.55296869497
 42
0.1956651629297
  0
VERTEX
  8
Layer_1
 10
85.4287133974168
 20
1130.84344151502
 42
0.1073486668661
  0
VERTEX
  8
Layer_1
 10
120.094236402512
 20
1085.59681388602
 42
0.0068428238822
  0
SEQEND
  0
POLYLINE
  8
Layer_1
 66
     1
 10
0.0
 20
0.0
 30
0.0
 70
     1
  0
VERTEX
  8
Layer_1
 10
203.150876885869
 20
1074.7383654923
 42
-0.1775516075411
  0
VERTEX
  8
Layer_1
 10
180.24980505117
 20
1039.22530960864
 42
-0.163410636076
  0
VERTEX
  8
Layer_1
 10
290.310249361173
 20
835.472623895848
 42
0.0021354740853
  0
VERTEX
  8
Layer_1
 10
297.672138852268
 20
783.34023271068
 42
0.0560439842064
  0
VERTEX
  8
Layer_1
 10
300.545989362268
 20
771.796922549438
 42
0.035330321515
  0
VERTEX
  8
Layer_1
 10
302.641081773291
 20
783.970300166642
 42
0.0929511491813
  0
VERTEX
  8
Layer_1
 10
292.945345303039
 20
900.774682619958
 42
0.0484004492421
  0
VERTEX
  8
Layer_1
 10
255.703707175289
 20
999.401518222808
 42
0.069923550302
  0
SEQEND
  0
POLYLINE
  8
Layer_1
 66
     1
 10
0.0
 20
0.0
 30
0.0
 70
     1
  0
VERTEX
  8
Layer_1
 10
115.202353319264
 20
1922.82943443197
 42
0.4070376731936
  0
VERTEX
  8
Layer_1
 10
106.722713159837
 20
1914.66420341232
 42
0.1641930437425
  0
VERTEX
  8
Layer_1
 10
118.823416374762
 20
1894.00989462901
 42
0.5801326577913
  0
VERTEX
  8
Layer_1
 10
123.702326559993
 20
1893.26061373042
 42
0.146550032467
  0
VERTEX
  8
Layer_1
 10
123.315881069581
 20
1900.29197170159
 42
-0.3459297051984
  0
VERTEX
  8
Layer_1
 10
129.681369779227
 20
1915.83817373856
 42
0.253686020374
  0
VERTEX
  8
Layer_1
 10
131.127979966683
 20
1922.15938105489
 42
0.2499590996666
  0
VERTEX
  8
Layer_1
 10
123.227868940522
 20
1924.40106674576
 42
0.0101476677988
  0
SEQEND
  0
POLYLINE
  8
Layer_1
 66
     1
 10
0.0
 20
0.0
 30
0.0
 70
     1
  0
VERTEX
  8
Layer_1
 10
371.573334789514
 20
1915.00711542193
 42
-0.2938471283579
  0
VERTEX
  8
Layer_1
 10
375.407922638986
 20
1897.01976879754
 42
0.4181729244676
  0
VERTEX
  8
Layer_1
 10
376.213658624919
 20
1892.58855261329
 42
0.1719115106534
  0
VERTEX
  8
Layer_1
 10
386.464503580792
 20
1898.70968342709
 42
0.0762259262323
  0
VERTEX
  8
Layer_1
 10
396.576700920453
 20
1910.81460388574
 42
0.422924209653
  0
VERTEX
  8
Layer_1
 10
395.269029970707
 20
1915.42433803343
 42
0.1888663094285
  0
VERTEX
  8
Layer_1
 10
369.741865747773
 20
1922.59113929922
 42
0.7758283872249
  0
VERTEX
  8
Layer_1
 10
367.66364088107
 20
1920.28492095002
 42
-0.0027534070462
  0
SEQEND
  0
POLYLINE
  8
Layer_1
 66
     1
 10
0.0
 20
0.0
 30
0.0
 70
     1
  0
VERTEX
  8
Layer_1
 10
210.747185346831
 20
1915.00711542193
 42
-0.2938448698097
  0
VERTEX
  8
Layer_1
 10
214.581753343366
 20
1897.01976082658
 42
0.4181724975312
  0
VERTEX
  8
Layer_1
 10
215.387498289109
 20
1892.58855199793
 42
0.1719113302428
  0
VERTEX
  8
Layer_1
 10
225.638336384603
 20
1898.70968342709
 42
0.0762262204936
  0
VERTEX
  8
Layer_1
 10
235.750542295939
 20
1910.8146040893
 42
0.4229240437496
  0
VERTEX
  8
Layer_1
 10
234.442862317644
 20
1915.42433803343
 42
0.1888667092368
  0
VERTEX
  8
Layer_1
 10
208.915693041963
 20
1922.59113929922
 42
0.7758290778861
  0
VERTEX
  8
Layer_1
 10
206.837477734782
 20
1920.28492095002
 42
-0.0027552202653
  0
SEQEND
  0
POLYLINE
  8
Layer_1
 66
     1
 10
0.0
 20
0.0
 30
0.0
 70
     1
  0
VERTEX
  8
Layer_1
 10
428.686897963658
 20
1922.7753826964
 42
0.5141013927171
  0
VERTEX
  8
Layer_1
 10
420.531139640796
 20
1911.17884090363
 42
0.1833932707143
  0
VERTEX
  8
Layer_1
 10
433.027543701866
 20
1893.21490507828
 42
0.7281089002142
  0
VERTEX
  8
Layer_1
 10
437.714932071593
 20
1895.44401230448
 42
-0.0147622764117
  0
VERTEX
  8
Layer_1
 10
436.438375962358
 20
1903.98196283981
 42
-0.1768419941934
  0
VERTEX
  8
Layer_1
 10
442.880557667578
 20
1916.17428482194
 42
0.3173917217865
  0
VERTEX
  8
Layer_1
 10
444.738996533931
 20
1922.15938105489
 42
0.249964132702
  0
VERTEX
  8
Layer_1
 10
436.838892479968
 20
1924.40106674576
 42
0.0120387833042
  0
SEQEND
  0
POLYLINE
  8
Layer_1
 66
     1
 10
0.0
 20
0.0
 30
0.0
 70
     1
  0
VERTEX
  8
Layer_1
 10
66.716907640587
 20
1934.24396059589
 42
0.1209088832402
  0
VERTEX
  8
Layer_1
 10
81.775994019579
 20
1927.7620527646
 42
0.4207121513434
  0
VERTEX
  8
Layer_1
 10
88.2397385827704
 20
1933.06435360796
 42
0.1456586166066
  0
VERTEX
  8
Layer_1
 10
86.6664117329425
 20
1956.93735331216
 42
0.8151406889708
  0
VERTEX
  8
Layer_1
 10
81.0838650231799
 20
1958.3417254038
 42
-0.0161761727944
  0
VERTEX
  8
Layer_1
 10
77.3563099820598
 20
1949.9721731027
 42
-0.2468979821665
  0
VERTEX
  8
Layer_1
 10
65.5723329940056
 20
1944.32557553814
 42
0.7183090053275
  0
VERTEX
  8
Layer_1
 10
61.8934098771438
 20
1938.68076501875
 42
0.0479324928368
  0
SEQEND
  0
POLYLINE
  8
Layer_1
 66
     1
 10
0.0
 20
0.0
 30
0.0
 70
     1
  0
VERTEX
  8
Layer_1
 10
124.673461812928
 20
1939.27156709208
 42
0.4936892277765
  0
VERTEX
  8
Layer_1
 10
122.053713987554
 20
1944.07067852509
 42
-0.3025003214596
  0
VERTEX
  8
Layer_1
 10
108.672548497179
 20
1954.15197170996
 42
0.3573895233418
  0
VERTEX
  8
Layer_1
 10
101.55154490706
 20
1955.79665695704
 42
0.2034671727167
  0
VERTEX
  8
Layer_1
 10
97.8433596488619
 20
1933.02090058522
 42
0.0669348054363
  0
VERTEX
  8
Layer_1
 10
99.3535782170807
 20
1930.34874179676
 42
0.2100519655391
  0
VERTEX
  8
Layer_1
 10
123.78783847731
 20
1938.22195732761
 42
0.1139067168529
  0
SEQEND
  0
POLYLINE
  8
Layer_1
 66
     1
 10
0.0
 20
0.0
 30
0.0
 70
     1
  0
VERTEX
  8
Layer_1
 10
76.8981943408987
 20
1882.68441860909
 42
0.1499364848836
  0
VERTEX
  8
Layer_1
 10
106.031346923445
 20
1882.9507827331
 42
0.5225863366287
  0
VERTEX
  8
Layer_1
 10
108.215591802874
 20
1888.47766706943
 42
0.0526080230849
  0
VERTEX
  8
Layer_1
 10
94.2218956593595
 20
1910.69008508314
 42
0.0394659767205
  0
VERTEX
  8
Layer_1
 10
77.4371441719084
 20
1884.07002563714
 42
0.4539443140925
  0
SEQEND
  0
POLYLINE
  8
Layer_1
 66
     1
 10
0.0
 20
0.0
 30
0.0
 70
     1
  0
VERTEX
  8
Layer_1
 10
222.20606206583
 20
1932.65938979152
 42
0.144633323747
  0
VERTEX
  8
Layer_1
 10
233.334879614652
 20
1928.88351987911
 42
0.3274258129858
  0
VERTEX
  8
Layer_1
 10
239.30905828945
 20
1935.11304474112
 42
0.144277299149
  0
VERTEX
  8
Layer_1
 10
239.558419449684
 20
1954.97858004404
 42
0.5793208094325
  0
VERTEX
  8
Layer_1
 10
234.200613384469
 20
1955.96283743585
 42
-0.0383306906575
  0
VERTEX
  8
Layer_1
 10
225.104749272643
 20
1946.83288081561
 42
-0.0973659081068
  0
VERTEX
  8
Layer_1
 10
215.972455376716
 20
1944.09215588944
 42
0.5115849163209
  0
VERTEX
  8
Layer_1
 10
214.418610598188
 20
1939.26813789808
 42
0.0877030993106
  0
SEQEND
  0
POLYLINE
  8
Layer_1
 66
     1
 10
0.0
 20
0.0
 30
0.0
 70
     1
  0
VERTEX
  8
Layer_1
 10
261.683934794821
 20
1882.28323154536
 42
0.0252483760277
  0
VERTEX
  8
Layer_1
 10
248.730563273649
 20
1911.41521727597
 42
0.0529715985935
  0
VERTEX
  8
Layer_1
 10
230.306998740317
 20
1884.96116283558
 42
0.7302602771526
  0
VERTEX
  8
Layer_1
 10
231.563386494136
 20
1882.3010542732
 42
0.1052180335981
  0
VERTEX
  8
Layer_1
 10
261.48815193045
 20
1882.11544404166
 42
0.0440363008117
  0
SEQEND
  0
POLYLINE
  8
Layer_1
 66
     1
 10
0.0
 20
0.0
 30
0.0
 70
     1
  0
VERTEX
  8
Layer_1
 10
250.744935862379
 20
1927.42770869888
 42
0.2141007488386
  0
VERTEX
  8
Layer_1
 10
256.669690186558
 20
1928.75087389551
 42
0.1020506013871
  0
VERTEX
  8
Layer_1
 10
274.390939153018
 20
1936.73945255646
 42
0.4817107863832
  0
VERTEX
  8
Layer_1
 10
277.539033521298
 20
1942.92911487921
 42
0.053864141179
  0
VERTEX
  8
Layer_1
 10
270.347456219787
 20
1944.86044515006
 42
-0.1652457925652
  0
VERTEX
  8
Layer_1
 10
258.831246726177
 20
1956.45471126385
 42
0.1595666934626
  0
VERTEX
  8
Layer_1
 10
253.683099998038
 20
1959.5121114527
 42
0.2451708033445
  0
VERTEX
  8
Layer_1
 10
250.852651758748
 20
1953.54380019597
 42
0.086332969808
  0
VERTEX
  8
Layer_1
 10
250.275978539803
 20
1928.86172272792
 42
0.2241953740761
  0
SEQEND
  0
POLYLINE
  8
Layer_1
 66
     1
 10
0.0
 20
0.0
 30
0.0
 70
     1
  0
VERTEX
  8
Layer_1
 10
422.513408232498
 20
1883.05959031105
 42
0.0430562370214
  0
VERTEX
  8
Layer_1
 10
407.607793788207
 20
1910.34710640069
 42
0.0405191042674
  0
VERTEX
  8
Layer_1
 10
391.094043454891
 20
1884.15829341045
 42
0.8882736315397
  0
VERTEX
  8
Layer_1
 10
391.626096482352
 20
1882.09752306048
 42
0.0999380261626
  0
VERTEX
  8
Layer_1
 10
419.862159140174
 20
1882.07590514423
 42
0.4283112277464
  0
SEQEND
  0
POLYLINE
  8
Layer_1
 66
     1
 10
0.0
 20
0.0
 30
0.0
 70
     1
  0
VERTEX
  8
Layer_1
 10
397.481233598534
 20
1959.20876374845
 42
0.1244940837404
  0
VERTEX
  8
Layer_1
 10
391.647010859414
 20
1953.23253961943
 42
-0.2761892367154
  0
VERTEX
  8
Layer_1
 10
377.367989581592
 20
1944.21612335494
 42
0.5593872795569
  0
VERTEX
  8
Layer_1
 10
375.113137563729
 20
1939.49964886919
 42
0.1035952703481
  0
VERTEX
  8
Layer_1
 10
388.801075927019
 20
1929.81928651531
 42
0.1689396595581
  0
VERTEX
  8
Layer_1
 10
397.781398916229
 20
1927.84747814324
 42
0.2782715159782
  0
VERTEX
  8
Layer_1
 10
402.438278655188
 20
1937.19095174142
 42
0.0864548527906
  0
VERTEX
  8
Layer_1
 10
401.391012075432
 20
1955.08034874219
 42
0.5487125763469
  0
SEQEND
  0
POLYLINE
  8
Layer_1
 66
     1
 10
0.0
 20
0.0
 30
0.0
 70
     1
  0
VERTEX
  8
Layer_1
 10
411.791523474208
 20
1927.28732156305
 42
0.1127294382594
  0
VERTEX
  8
Layer_1
 10
434.932855546574
 20
1936.51633649677
 42
0.4673867969539
  0
VERTEX
  8
Layer_1
 10
438.385920010873
 20
1942.86012236885
 42
0.0453542451318
  0
VERTEX
  8
Layer_1
 10
430.934084799423
 20
1944.93489317635
 42
-0.1535736832192
  0
VERTEX
  8
Layer_1
 10
422.130863391616
 20
1954.32505380582
 42
0.1705190671103
  0
VERTEX
  8
Layer_1
 10
417.657082256314
 20
1959.61934490638
 42
0.39260014822
  0
VERTEX
  8
Layer_1
 10
412.426224082714
 20
1955.848624901
 42
0.1167166162617
  0
VERTEX
  8
Layer_1
 10
411.523607384948
 20
1928.04141676755
 42
0.1859809866597
  0
SEQEND
  0
POLYLINE
  8
Layer_1
 66
     1
 10
0.0
 20
0.0
 30
0.0
 70
     1
  0
VERTEX
  8
Layer_1
 10
84.7694313678001
 20
1914.92644611045
 42
0.0638422334358
  0
VERTEX
  8
Layer_1
 10
65.4922269435476
 20
1924.2354029894
 42
0.3450850384904
  0
VERTEX
  8
Layer_1
 10
55.6783587628195
 20
1923.73126978452
 42
0.2284815654631
  0
VERTEX
  8
Layer_1
 10
57.7327241511521
 20
1915.33608464696
 42
-0.3012782008922
  0
VERTEX
  8
Layer_1
 10
61.8417400015913
 20
1897.21628047196
 42
0.4456839848829
  0
VERTEX
  8
Layer_1
 10
62.6334789010575
 20
1892.56002900675
 42
0.188181302241
  0
VERTEX
  8
Layer_1
 10
72.4225062280532
 20
1898.31993278039
 42
0.1031618684793
  0
VERTEX
  8
Layer_1
 10
84.5058977522273
 20
1913.83843363154
 42
0.2455120479991
  0
SEQEND
  0
POLYLINE
  8
Layer_1
 66
     1
 10
0.0
 20
0.0
 30
0.0
 70
     1
  0
VERTEX
  8
Layer_1
 10
267.860736865145
 20
1922.7753826964
 42
0.5141014150186
  0
VERTEX
  8
Layer_1
 10
259.704983636039
 20
1911.17884090363
 42
0.1833930516655
  0
VERTEX
  8
Layer_1
 10
272.201393960315
 20
1893.21490507828
 42
0.7281084994658
  0
VERTEX
  8
Layer_1
 10
276.888778136615
 20
1895.44401230448
 42
-0.0147603138963
  0
VERTEX
  8
Layer_1
 10
275.612216656203
 20
1903.98196283981
 42
-0.1768408691944
  0
VERTEX
  8
Layer_1
 10
282.054405173748
 20
1916.17428691476
 42
0.3173918657885
  0
VERTEX
  8
Layer_1
 10
283.912830813716
 20
1922.15938105489
 42
0.2499639518547
  0
VERTEX
  8
Layer_1
 10
276.01272469393
 20
1924.40106674576
 42
0.0120388220646
  0
SEQEND
  0
POLYLINE
  8
Layer_1
 66
     1
 10
0.0
 20
0.0
 30
0.0
 70
     1
  0
VERTEX
  8
Layer_1
 10
500.000002562019
 20
2000.00000651851
 42
0.0
  0
VERTEX
  8
Layer_1
 10
0.0
 20
2000.00000651851
 42
0.0
  0
VERTEX
  8
Layer_1
 10
0.0
 20
0.0
 42
0.0
  0
VERTEX
  8
Layer_1
 10
1000.00000512404
 20
0.0
 42
0.0
  0
VERTEX
  8
Layer_1
 10
1000.00000512404
 20
2000.00000651851
 42
0.0
  0
SEQEND
  0
POLYLINE
  8
Layer_1
 66
     1
 10
0.0
 20
0.0
 30
0.0
 70
     1
  0
VERTEX
  8
Layer_1
 10
364.281056897199
 20
537.357728684267
 42
-0.1393160678555
  0
VERTEX
  8
Layer_1
 10
341.234380419896
 20
538.18334377154
 42
-0.0025654908969
  0
VERTEX
  8
Layer_1
 10
340.556749620725
 20
474.435219083254
 42
-0.0905737169919
  0
VERTEX
  8
Layer_1
 10
315.042647454906
 20
338.833450976224
 42
0.05029813322
  0
VERTEX
  8
Layer_1
 10
306.083937192389
 20
307.451962766015
 42
0.0248757272781
  0
VERTEX
  8
Layer_1
 10
305.873764405996
 20
303.633155659761
 42
0.0336966135695
  0
VERTEX
  8
Layer_1
 10
308.121499773594
 20
307.037167346786
 42
0.0786160340502
  0
VERTEX
  8
Layer_1
 10
353.052353057543
 20
442.583792068083
 42
0.0224815137387
  0
SEQEND
  0
POLYLINE
  8
Layer_1
 66
     1
 10
0.0
 20
0.0
 30
0.0
 70
     1
  0
VERTEX
  8
Layer_1
 10
341.294123080624
 20
551.737995053049
 42
0.1447477707974
  0
VERTEX
  8
Layer_1
 10
365.216688356199
 20
551.443583200023
 42
0.0092449449756
  0
VERTEX
  8
Layer_1
 10
366.833415329983
 20
590.672694965792
 42
-0.0339176703036
  0
VERTEX
  8
Layer_1
 10
373.936137973709
 20
675.751547648093
 42
-0.044996868629
  0
VERTEX
  8
Layer_1
 10
396.392061179659
 20
752.749187405172
 42
0.020030507497
  0
VERTEX
  8
Layer_1
 10
406.686462343704
 20
783.730287200946
 42
0.1786314807865
  0
VERTEX
  8
Layer_1
 10
353.088629215325
 20
722.257887794506
 42
0.01429212264
  0
VERTEX
  8
Layer_1
 10
340.257739202377
 20
687.66942384998
 42
-0.005470426308
  0
SEQEND
  0
POLYLINE
  8
Layer_1
 66
     1
 10
0.0
 20
0.0
 30
0.0
 70
     1
  0
VERTEX
  8
Layer_1
 10
658.705882043413
 20
551.737995053049
 42
-0.1447477707974
  0
VERTEX
  8
Layer_1
 10
634.783316767838
 20
551.443583200023
 42
-0.0092449449756
  0
VERTEX
  8
Layer_1
 10
633.166589794054
 20
590.672694965792
 42
0.0339176703036
  0
VERTEX
  8
Layer_1
 10
626.063867150328
 20
675.751547648093
 42
0.044996868629
  0
VERTEX
  8
Layer_1
 10
603.607943944378
 20
752.749187405172
 42
-0.020030507497
  0
VERTEX
  8
Layer_1
 10
593.313542780333
 20
783.730287200946
 42
-0.1786314807865
  0
VERTEX
  8
Layer_1
 10
646.911375908712
 20
722.257887794506
 42
-0.01429212264
  0
VERTEX
  8
Layer_1
 10
659.74226592166
 20
687.66942384998
 42
0.005470426308
  0
SEQEND
  0
POLYLINE
  8
Layer_1
 66
     1
 10
0.0
 20
0.0
 30
0.0
 70
     1
  0
VERTEX
  8
Layer_1
 10
635.718948226838
 20
537.357728684267
 42
0.1393160678555
  0
VERTEX
  8
Layer_1
 10
658.765624704141
 20
538.18334377154
 42
0.0025654908969
  0
VERTEX
  8
Layer_1
 10
659.443255503312
 20
474.435219083254
 42
0.0905737169919
  0
VERTEX
  8
Layer_1
 10
684.957357669131
 20
338.833450976224
 42
-0.05029813322
  0
VERTEX
  8
Layer_1
 10
693.916067931648
 20
307.451962766015
 42
-0.0248757272781
  0
VERTEX
  8
Layer_1
 10
694.126240718041
 20
303.633155659761
 42
-0.0336966135695
  0
VERTEX
  8
Layer_1
 10
691.878505350443
 20
307.037167346786
 42
-0.0786160340502
  0
VERTEX
  8
Layer_1
 10
646.947652066494
 20
442.583792068083
 42
-0.0224815137387
  0
SEQEND
  0
ENDSEC
  0
EOF
