  0
SECTION
  2
HEADER
  9
$ACADVER
  1
AC1009
  9
$EXTMAX
 10
875.0
 20
1000.0
 30
0.0
  9
$EXTMIN
 10
-125.0
 20
-1000.0
 30
0.0
  9
$INSUNITS
 70
     4
  9
$LUNITS
 70
     2
  9
$LUPREC
 70
     4
  9
$MEASUREMENT
 70
     1
  0
ENDSEC
  0
SECTION
  2
TABLES
  0
TABLE
  2
LAYER
 70
     1
  0
LAYER
  2
0
 70
     0
 62
    70
  6
Continuous
  0
LAYER
  2
Image
 70
     0
 62
    70
  6
Continuous
  0
ENDTAB
  0
TABLE
  2
APPID
 70
     1
  0
APPID
  2
ACAD
 70
     0
  0
ENDTAB
  0
ENDSEC
  0
SECTION
  2
ENTITIES
  0
POLYLINE
  8
Image
 66
     1
 10
0.0
 20
0.0
 30
0.0
 70
     1
  0
VERTEX
  8
Image
 10
-56.5801342228563
 20
935.402516594163
 42
0.0
  0
VERTEX
  8
Image
 10
-65.6320449756374
 20
903.813183701307
 42
0.0
  0
VERTEX
  8
Image
 10
-101.839730788906
 20
902.870281087019
 42
0.0
  0
VERTEX
  8
Image
 10
-72.4209923076042
 20
886.086506120602
 42
0.0
  0
VERTEX
  8
Image
 10
-83.3587225563427
 20
851.57606784086
 42
0.0
  0
VERTEX
  8
Image
 10
-56.5801342228552
 20
871.704940703381
 42
0.0
  0
VERTEX
  8
Image
 10
-29.80154588937
 20
851.57606784086
 42
0.0
  0
VERTEX
  8
Image
 10
-40.7392761381081
 20
886.086506120602
 42
0.0
  0
VERTEX
  8
Image
 10
-11.3205376568064
 20
902.870281087019
 42
0.0
  0
VERTEX
  8
Image
 10
-47.5282234700748
 20
903.813183701307
 42
0.0
  0
SEQEND
  0
POLYLINE
  8
Image
 66
     1
 10
0.0
 20
0.0
 30
0.0
 70
     1
  0
VERTEX
  8
Image
 10
56.5801342228563
 20
935.402516594163
 42
0.0
  0
VERTEX
  8
Image
 10
47.5282234700748
 20
903.813183701307
 42
0.0
  0
VERTEX
  8
Image
 10
11.3205376568064
 20
902.870281087019
 42
0.0
  0
VERTEX
  8
Image
 10
40.7392761381085
 20
886.086506120602
 42
0.0
  0
VERTEX
  8
Image
 10
29.80154588937
 20
851.57606784086
 42
0.0
  0
VERTEX
  8
Image
 10
56.5801342228571
 20
871.704940703381
 42
0.0
  0
VERTEX
  8
Image
 10
83.3587225563427
 20
851.57606784086
 42
0.0
  0
VERTEX
  8
Image
 10
72.4209923076042
 20
886.086506120602
 42
0.0
  0
VERTEX
  8
Image
 10
101.839730788906
 20
902.870281087019
 42
0.0
  0
VERTEX
  8
Image
 10
65.6320449756378
 20
903.813183701307
 42
0.0
  0
SEQEND
  0
POLYLINE
  8
Image
 66
     1
 10
0.0
 20
0.0
 30
0.0
 70
     1
  0
VERTEX
  8
Image
 10
-56.5801342228563
 20
773.320967891244
 42
0.0
  0
VERTEX
  8
Image
 10
-65.6320449756374
 20
741.731634998389
 42
0.0
  0
VERTEX
  8
Image
 10
-101.839730788906
 20
740.788732384101
 42
0.0
  0
VERTEX
  8
Image
 10
-72.4209923076042
 20
724.004957417684
 42
0.0
  0
VERTEX
  8
Image
 10
-83.3587225563427
 20
689.494519137942
 42
0.0
  0
VERTEX
  8
Image
 10
-56.5801342228552
 20
709.623392000463
 42
0.0
  0
VERTEX
  8
Image
 10
-29.80154588937
 20
689.494519137942
 42
0.0
  0
VERTEX
  8
Image
 10
-40.7392761381081
 20
724.004957417684
 42
0.0
  0
VERTEX
  8
Image
 10
-11.3205376568064
 20
740.788732384101
 42
0.0
  0
VERTEX
  8
Image
 10
-47.5282234700748
 20
741.731634998389
 42
0.0
  0
SEQEND
  0
POLYLINE
  8
Image
 66
     1
 10
0.0
 20
0.0
 30
0.0
 70
     1
  0
VERTEX
  8
Image
 10
56.5801342228563
 20
773.320967891244
 42
0.0
  0
VERTEX
  8
Image
 10
47.5282234700748
 20
741.731634998389
 42
0.0
  0
VERTEX
  8
Image
 10
11.3205376568064
 20
740.788732384101
 42
0.0
  0
VERTEX
  8
Image
 10
40.7392761381085
 20
724.004957417684
 42
0.0
  0
VERTEX
  8
Image
 10
29.80154588937
 20
689.494519137942
 42
0.0
  0
VERTEX
  8
Image
 10
56.5801342228571
 20
709.623392000463
 42
0.0
  0
VERTEX
  8
Image
 10
83.3587225563427
 20
689.494519137942
 42
0.0
  0
VERTEX
  8
Image
 10
72.4209923076042
 20
724.004957417684
 42
0.0
  0
VERTEX
  8
Image
 10
101.839730788906
 20
740.788732384101
 42
0.0
  0
VERTEX
  8
Image
 10
65.6320449756378
 20
741.731634998389
 42
0.0
  0
SEQEND
  0
POLYLINE
  8
Image
 66
     1
 10
0.0
 20
0.0
 30
0.0
 70
     1
  0
VERTEX
  8
Image
 10
0.9373519367589
 20
854.07845017602
 42
0.0
  0
VERTEX
  8
Image
 10
-8.1145588160226
 20
822.489117283165
 42
0.0
  0
VERTEX
  8
Image
 10
-44.3222446292911
 20
821.546214668876
 42
0.0
  0
VERTEX
  8
Image
 10
-14.9035061479894
 20
804.76243970246
 42
0.0
  0
VERTEX
  8
Image
 10
-25.8412363967275
 20
770.252001422718
 42
0.0
  0
VERTEX
  8
Image
 10
0.9373519367597
 20
790.380874285239
 42
0.0
  0
VERTEX
  8
Image
 10
27.7159402702452
 20
770.252001422718
 42
0.0
  0
VERTEX
  8
Image
 10
16.7782100215067
 20
804.76243970246
 42
0.0
  0
VERTEX
  8
Image
 10
46.1969485028085
 20
821.546214668876
 42
0.0
  0
VERTEX
  8
Image
 10
9.98926268954
 20
822.489117283165
 42
0.0
  0
SEQEND
  0
POLYLINE
  8
Image
 66
     1
 10
0.0
 20
0.0
 30
0.0
 70
     1
  0
VERTEX
  8
Image
 10
-56.5801342228563
 20
611.239419188326
 42
0.0
  0
VERTEX
  8
Image
 10
-65.6320449756374
 20
579.65008629547
 42
0.0
  0
VERTEX
  8
Image
 10
-101.839730788906
 20
578.707183681182
 42
0.0
  0
VERTEX
  8
Image
 10
-72.4209923076042
 20
561.923408714765
 42
0.0
  0
VERTEX
  8
Image
 10
-83.3587225563427
 20
527.412970435023
 42
0.0
  0
VERTEX
  8
Image
 10
-56.5801342228552
 20
547.541843297544
 42
0.0
  0
VERTEX
  8
Image
 10
-29.80154588937
 20
527.412970435023
 42
0.0
  0
VERTEX
  8
Image
 10
-40.7392761381081
 20
561.923408714765
 42
0.0
  0
VERTEX
  8
Image
 10
-11.3205376568064
 20
578.707183681182
 42
0.0
  0
VERTEX
  8
Image
 10
-47.5282234700748
 20
579.65008629547
 42
0.0
  0
SEQEND
  0
POLYLINE
  8
Image
 66
     1
 10
0.0
 20
0.0
 30
0.0
 70
     1
  0
VERTEX
  8
Image
 10
56.5801342228563
 20
611.239419188326
 42
0.0
  0
VERTEX
  8
Image
 10
47.5282234700748
 20
579.65008629547
 42
0.0
  0
VERTEX
  8
Image
 10
11.3205376568064
 20
578.707183681182
 42
0.0
  0
VERTEX
  8
Image
 10
40.7392761381085
 20
561.923408714765
 42
0.0
  0
VERTEX
  8
Image
 10
29.80154588937
 20
527.412970435023
 42
0.0
  0
VERTEX
  8
Image
 10
56.5801342228571
 20
547.541843297544
 42
0.0
  0
VERTEX
  8
Image
 10
83.3587225563427
 20
527.412970435023
 42
0.0
  0
VERTEX
  8
Image
 10
72.4209923076042
 20
561.923408714765
 42
0.0
  0
VERTEX
  8
Image
 10
101.839730788906
 20
578.707183681182
 42
0.0
  0
VERTEX
  8
Image
 10
65.6320449756378
 20
579.65008629547
 42
0.0
  0
SEQEND
  0
POLYLINE
  8
Image
 66
     1
 10
0.0
 20
0.0
 30
0.0
 70
     1
  0
VERTEX
  8
Image
 10
0.9373519367589
 20
691.996901473102
 42
0.0
  0
VERTEX
  8
Image
 10
-8.1145588160226
 20
660.407568580246
 42
0.0
  0
VERTEX
  8
Image
 10
-44.3222446292911
 20
659.464665965958
 42
0.0
  0
VERTEX
  8
Image
 10
-14.9035061479894
 20
642.680890999541
 42
0.0
  0
VERTEX
  8
Image
 10
-25.8412363967275
 20
608.170452719799
 42
0.0
  0
VERTEX
  8
Image
 10
0.9373519367597
 20
628.29932558232
 42
0.0
  0
VERTEX
  8
Image
 10
27.7159402702452
 20
608.170452719799
 42
0.0
  0
VERTEX
  8
Image
 10
16.7782100215067
 20
642.680890999541
 42
0.0
  0
VERTEX
  8
Image
 10
46.1969485028085
 20
659.464665965958
 42
0.0
  0
VERTEX
  8
Image
 10
9.98926268954
 20
660.407568580246
 42
0.0
  0
SEQEND
  0
POLYLINE
  8
Image
 66
     1
 10
0.0
 20
0.0
 30
0.0
 70
     1
  0
VERTEX
  8
Image
 10
-56.5801342228563
 20
449.157870485407
 42
0.0
  0
VERTEX
  8
Image
 10
-65.6320449756374
 20
417.568537592551
 42
0.0
  0
VERTEX
  8
Image
 10
-101.839730788906
 20
416.625634978263
 42
0.0
  0
VERTEX
  8
Image
 10
-72.4209923076042
 20
399.841860011846
 42
0.0
  0
VERTEX
  8
Image
 10
-83.3587225563427
 20
365.331421732105
 42
0.0
  0
VERTEX
  8
Image
 10
-56.5801342228552
 20
385.460294594625
 42
0.0
  0
VERTEX
  8
Image
 10
-29.80154588937
 20
365.331421732105
 42
0.0
  0
VERTEX
  8
Image
 10
-40.7392761381081
 20
399.841860011846
 42
0.0
  0
VERTEX
  8
Image
 10
-11.3205376568064
 20
416.625634978263
 42
0.0
  0
VERTEX
  8
Image
 10
-47.5282234700748
 20
417.568537592551
 42
0.0
  0
SEQEND
  0
POLYLINE
  8
Image
 66
     1
 10
0.0
 20
0.0
 30
0.0
 70
     1
  0
VERTEX
  8
Image
 10
56.5801342228563
 20
449.157870485407
 42
0.0
  0
VERTEX
  8
Image
 10
47.5282234700748
 20
417.568537592551
 42
0.0
  0
VERTEX
  8
Image
 10
11.3205376568064
 20
416.625634978263
 42
0.0
  0
VERTEX
  8
Image
 10
40.7392761381085
 20
399.841860011846
 42
0.0
  0
VERTEX
  8
Image
 10
29.80154588937
 20
365.331421732105
 42
0.0
  0
VERTEX
  8
Image
 10
56.5801342228571
 20
385.460294594625
 42
0.0
  0
VERTEX
  8
Image
 10
83.3587225563427
 20
365.331421732105
 42
0.0
  0
VERTEX
  8
Image
 10
72.4209923076042
 20
399.841860011846
 42
0.0
  0
VERTEX
  8
Image
 10
101.839730788906
 20
416.625634978263
 42
0.0
  0
VERTEX
  8
Image
 10
65.6320449756378
 20
417.568537592551
 42
0.0
  0
SEQEND
  0
POLYLINE
  8
Image
 66
     1
 10
0.0
 20
0.0
 30
0.0
 70
     1
  0
VERTEX
  8
Image
 10
0.9373519367589
 20
529.915352770183
 42
0.0
  0
VERTEX
  8
Image
 10
-8.1145588160226
 20
498.326019877327
 42
0.0
  0
VERTEX
  8
Image
 10
-44.3222446292911
 20
497.383117263039
 42
0.0
  0
VERTEX
  8
Image
 10
-14.9035061479894
 20
480.599342296622
 42
0.0
  0
VERTEX
  8
Image
 10
-25.8412363967275
 20
446.088904016881
 42
0.0
  0
VERTEX
  8
Image
 10
0.9373519367597
 20
466.217776879401
 42
0.0
  0
VERTEX
  8
Image
 10
27.7159402702452
 20
446.088904016881
 42
0.0
  0
VERTEX
  8
Image
 10
16.7782100215067
 20
480.599342296622
 42
0.0
  0
VERTEX
  8
Image
 10
46.1969485028085
 20
497.383117263039
 42
0.0
  0
VERTEX
  8
Image
 10
9.98926268954
 20
498.326019877327
 42
0.0
  0
SEQEND
  0
POLYLINE
  8
Image
 66
     1
 10
0.0
 20
0.0
 30
0.0
 70
     1
  0
VERTEX
  8
Image
 10
-56.5801342228563
 20
287.076321782488
 42
0.0
  0
VERTEX
  8
Image
 10
-65.6320449756374
 20
255.486988889633
 42
0.0
  0
VERTEX
  8
Image
 10
-101.839730788906
 20
254.544086275345
 42
0.0
  0
VERTEX
  8
Image
 10
-72.4209923076042
 20
237.760311308928
 42
0.0
  0
VERTEX
  8
Image
 10
-83.3587225563427
 20
203.249873029186
 42
0.0
  0
VERTEX
  8
Image
 10
-56.5801342228552
 20
223.378745891707
 42
0.0
  0
VERTEX
  8
Image
 10
-29.80154588937
 20
203.249873029186
 42
0.0
  0
VERTEX
  8
Image
 10
-40.7392761381081
 20
237.760311308928
 42
0.0
  0
VERTEX
  8
Image
 10
-11.3205376568064
 20
254.544086275345
 42
0.0
  0
VERTEX
  8
Image
 10
-47.5282234700748
 20
255.486988889633
 42
0.0
  0
SEQEND
  0
POLYLINE
  8
Image
 66
     1
 10
0.0
 20
0.0
 30
0.0
 70
     1
  0
VERTEX
  8
Image
 10
56.5801342228563
 20
287.076321782488
 42
0.0
  0
VERTEX
  8
Image
 10
47.5282234700748
 20
255.486988889633
 42
0.0
  0
VERTEX
  8
Image
 10
11.3205376568064
 20
254.544086275345
 42
0.0
  0
VERTEX
  8
Image
 10
40.7392761381085
 20
237.760311308928
 42
0.0
  0
VERTEX
  8
Image
 10
29.80154588937
 20
203.249873029186
 42
0.0
  0
VERTEX
  8
Image
 10
56.5801342228571
 20
223.378745891707
 42
0.0
  0
VERTEX
  8
Image
 10
83.3587225563427
 20
203.249873029186
 42
0.0
  0
VERTEX
  8
Image
 10
72.4209923076042
 20
237.760311308928
 42
0.0
  0
VERTEX
  8
Image
 10
101.839730788906
 20
254.544086275345
 42
0.0
  0
VERTEX
  8
Image
 10
65.6320449756378
 20
255.486988889633
 42
0.0
  0
SEQEND
  0
POLYLINE
  8
Image
 66
     1
 10
0.0
 20
0.0
 30
0.0
 70
     1
  0
VERTEX
  8
Image
 10
0.9373519367589
 20
367.833804067265
 42
0.0
  0
VERTEX
  8
Image
 10
-8.1145588160226
 20
336.244471174409
 42
0.0
  0
VERTEX
  8
Image
 10
-44.3222446292911
 20
335.301568560121
 42
0.0
  0
VERTEX
  8
Image
 10
-14.9035061479894
 20
318.517793593704
 42
0.0
  0
VERTEX
  8
Image
 10
-25.8412363967275
 20
284.007355313962
 42
0.0
  0
VERTEX
  8
Image
 10
0.9373519367597
 20
304.136228176483
 42
0.0
  0
VERTEX
  8
Image
 10
27.7159402702452
 20
284.007355313962
 42
0.0
  0
VERTEX
  8
Image
 10
16.7782100215067
 20
318.517793593704
 42
0.0
  0
VERTEX
  8
Image
 10
46.1969485028085
 20
335.301568560121
 42
0.0
  0
VERTEX
  8
Image
 10
9.98926268954
 20
336.244471174409
 42
0.0
  0
SEQEND
  0
POLYLINE
  8
Image
 66
     1
 10
0.0
 20
0.0
 30
0.0
 70
     1
  0
VERTEX
  8
Image
 10
-56.5801342228563
 20
124.99477307957
 42
0.0
  0
VERTEX
  8
Image
 10
-65.6320449756374
 20
93.4054401867141
 42
0.0
  0
VERTEX
  8
Image
 10
-101.839730788906
 20
92.462537572426
 42
0.0
  0
VERTEX
  8
Image
 10
-72.4209923076042
 20
75.6787626060092
 42
0.0
  0
VERTEX
  8
Image
 10
-83.3587225563427
 20
41.1683243262674
 42
0.0
  0
VERTEX
  8
Image
 10
-56.5801342228552
 20
61.2971971887881
 42
0.0
  0
VERTEX
  8
Image
 10
-29.80154588937
 20
41.1683243262674
 42
0.0
  0
VERTEX
  8
Image
 10
-40.7392761381081
 20
75.6787626060092
 42
0.0
  0
VERTEX
  8
Image
 10
-11.3205376568064
 20
92.462537572426
 42
0.0
  0
VERTEX
  8
Image
 10
-47.5282234700748
 20
93.4054401867141
 42
0.0
  0
SEQEND
  0
POLYLINE
  8
Image
 66
     1
 10
0.0
 20
0.0
 30
0.0
 70
     1
  0
VERTEX
  8
Image
 10
56.5801342228563
 20
124.99477307957
 42
0.0
  0
VERTEX
  8
Image
 10
47.5282234700748
 20
93.4054401867141
 42
0.0
  0
VERTEX
  8
Image
 10
11.3205376568064
 20
92.462537572426
 42
0.0
  0
VERTEX
  8
Image
 10
40.7392761381085
 20
75.6787626060092
 42
0.0
  0
VERTEX
  8
Image
 10
29.80154588937
 20
41.1683243262674
 42
0.0
  0
VERTEX
  8
Image
 10
56.5801342228571
 20
61.2971971887881
 42
0.0
  0
VERTEX
  8
Image
 10
83.3587225563427
 20
41.1683243262674
 42
0.0
  0
VERTEX
  8
Image
 10
72.4209923076042
 20
75.6787626060092
 42
0.0
  0
VERTEX
  8
Image
 10
101.839730788906
 20
92.462537572426
 42
0.0
  0
VERTEX
  8
Image
 10
65.6320449756378
 20
93.4054401867141
 42
0.0
  0
SEQEND
  0
POLYLINE
  8
Image
 66
     1
 10
0.0
 20
0.0
 30
0.0
 70
     1
  0
VERTEX
  8
Image
 10
0.9373519367589
 20
205.752255364346
 42
0.0
  0
VERTEX
  8
Image
 10
-8.1145588160226
 20
174.16292247149
 42
0.0
  0
VERTEX
  8
Image
 10
-44.3222446292911
 20
173.220019857202
 42
0.0
  0
VERTEX
  8
Image
 10
-14.9035061479894
 20
156.436244890785
 42
0.0
  0
VERTEX
  8
Image
 10
-25.8412363967275
 20
121.925806611043
 42
0.0
  0
VERTEX
  8
Image
 10
0.9373519367597
 20
142.054679473564
 42
0.0
  0
VERTEX
  8
Image
 10
27.7159402702452
 20
121.925806611043
 42
0.0
  0
VERTEX
  8
Image
 10
16.7782100215067
 20
156.436244890785
 42
0.0
  0
VERTEX
  8
Image
 10
46.1969485028085
 20
173.220019857202
 42
0.0
  0
VERTEX
  8
Image
 10
9.98926268954
 20
174.16292247149
 42
0.0
  0
SEQEND
  0
POLYLINE
  8
Image
 66
     1
 10
0.0
 20
0.0
 30
0.0
 70
     1
  0
VERTEX
  8
Image
 10
-56.5801342228563
 20
-37.0867756233488
 42
0.0
  0
VERTEX
  8
Image
 10
-65.6320449756374
 20
-68.6761085162045
 42
0.0
  0
VERTEX
  8
Image
 10
-101.839730788906
 20
-69.6190111304926
 42
0.0
  0
VERTEX
  8
Image
 10
-72.4209923076042
 20
-86.4027860969095
 42
0.0
  0
VERTEX
  8
Image
 10
-83.3587225563427
 20
-120.913224376651
 42
0.0
  0
VERTEX
  8
Image
 10
-56.5801342228552
 20
-100.784351514131
 42
0.0
  0
VERTEX
  8
Image
 10
-29.80154588937
 20
-120.913224376651
 42
0.0
  0
VERTEX
  8
Image
 10
-40.7392761381081
 20
-86.4027860969095
 42
0.0
  0
VERTEX
  8
Image
 10
-11.3205376568064
 20
-69.6190111304926
 42
0.0
  0
VERTEX
  8
Image
 10
-47.5282234700748
 20
-68.6761085162045
 42
0.0
  0
SEQEND
  0
POLYLINE
  8
Image
 66
     1
 10
0.0
 20
0.0
 30
0.0
 70
     1
  0
VERTEX
  8
Image
 10
56.5801342228563
 20
-37.0867756233488
 42
0.0
  0
VERTEX
  8
Image
 10
47.5282234700748
 20
-68.6761085162045
 42
0.0
  0
VERTEX
  8
Image
 10
11.3205376568064
 20
-69.6190111304926
 42
0.0
  0
VERTEX
  8
Image
 10
40.7392761381085
 20
-86.4027860969095
 42
0.0
  0
VERTEX
  8
Image
 10
29.80154588937
 20
-120.913224376651
 42
0.0
  0
VERTEX
  8
Image
 10
56.5801342228571
 20
-100.784351514131
 42
0.0
  0
VERTEX
  8
Image
 10
83.3587225563427
 20
-120.913224376651
 42
0.0
  0
VERTEX
  8
Image
 10
72.4209923076042
 20
-86.4027860969095
 42
0.0
  0
VERTEX
  8
Image
 10
101.839730788906
 20
-69.6190111304926
 42
0.0
  0
VERTEX
  8
Image
 10
65.6320449756378
 20
-68.6761085162045
 42
0.0
  0
SEQEND
  0
POLYLINE
  8
Image
 66
     1
 10
0.0
 20
0.0
 30
0.0
 70
     1
  0
VERTEX
  8
Image
 10
0.9373519367589
 20
43.6707066614272
 42
0.0
  0
VERTEX
  8
Image
 10
-8.1145588160226
 20
12.0813737685715
 42
0.0
  0
VERTEX
  8
Image
 10
-44.3222446292911
 20
11.1384711542834
 42
0.0
  0
VERTEX
  8
Image
 10
-14.9035061479894
 20
-5.6453038121335
 42
0.0
  0
VERTEX
  8
Image
 10
-25.8412363967275
 20
-40.1557420918753
 42
0.0
  0
VERTEX
  8
Image
 10
0.9373519367597
 20
-20.0268692293546
 42
0.0
  0
VERTEX
  8
Image
 10
27.7159402702452
 20
-40.1557420918753
 42
0.0
  0
VERTEX
  8
Image
 10
16.7782100215067
 20
-5.6453038121335
 42
0.0
  0
VERTEX
  8
Image
 10
46.1969485028085
 20
11.1384711542834
 42
0.0
  0
VERTEX
  8
Image
 10
9.98926268954
 20
12.0813737685715
 42
0.0
  0
SEQEND
  0
POLYLINE
  8
Image
 66
     1
 10
0.0
 20
0.0
 30
0.0
 70
     1
  0
VERTEX
  8
Image
 10
-56.5801342228563
 20
-199.168324326267
 42
0.0
  0
VERTEX
  8
Image
 10
-65.6320449756374
 20
-230.757657219123
 42
0.0
  0
VERTEX
  8
Image
 10
-101.839730788906
 20
-231.700559833411
 42
0.0
  0
VERTEX
  8
Image
 10
-72.4209923076042
 20
-248.484334799828
 42
0.0
  0
VERTEX
  8
Image
 10
-83.3587225563427
 20
-282.99477307957
 42
0.0
  0
VERTEX
  8
Image
 10
-56.5801342228552
 20
-262.865900217049
 42
0.0
  0
VERTEX
  8
Image
 10
-29.80154588937
 20
-282.99477307957
 42
0.0
  0
VERTEX
  8
Image
 10
-40.7392761381081
 20
-248.484334799828
 42
0.0
  0
VERTEX
  8
Image
 10
-11.3205376568064
 20
-231.700559833411
 42
0.0
  0
VERTEX
  8
Image
 10
-47.5282234700748
 20
-230.757657219123
 42
0.0
  0
SEQEND
  0
POLYLINE
  8
Image
 66
     1
 10
0.0
 20
0.0
 30
0.0
 70
     1
  0
VERTEX
  8
Image
 10
56.5801342228563
 20
-199.168324326267
 42
0.0
  0
VERTEX
  8
Image
 10
47.5282234700748
 20
-230.757657219123
 42
0.0
  0
VERTEX
  8
Image
 10
11.3205376568064
 20
-231.700559833411
 42
0.0
  0
VERTEX
  8
Image
 10
40.7392761381085
 20
-248.484334799828
 42
0.0
  0
VERTEX
  8
Image
 10
29.80154588937
 20
-282.99477307957
 42
0.0
  0
VERTEX
  8
Image
 10
56.5801342228571
 20
-262.865900217049
 42
0.0
  0
VERTEX
  8
Image
 10
83.3587225563427
 20
-282.99477307957
 42
0.0
  0
VERTEX
  8
Image
 10
72.4209923076042
 20
-248.484334799828
 42
0.0
  0
VERTEX
  8
Image
 10
101.839730788906
 20
-231.700559833411
 42
0.0
  0
VERTEX
  8
Image
 10
65.6320449756378
 20
-230.757657219123
 42
0.0
  0
SEQEND
  0
POLYLINE
  8
Image
 66
     1
 10
0.0
 20
0.0
 30
0.0
 70
     1
  0
VERTEX
  8
Image
 10
0.9373519367589
 20
-118.410842041491
 42
0.0
  0
VERTEX
  8
Image
 10
-8.1145588160226
 20
-150.000174934347
 42
0.0
  0
VERTEX
  8
Image
 10
-44.3222446292911
 20
-150.943077548635
 42
0.0
  0
VERTEX
  8
Image
 10
-14.9035061479894
 20
-167.726852515052
 42
0.0
  0
VERTEX
  8
Image
 10
-25.8412363967275
 20
-202.237290794794
 42
0.0
  0
VERTEX
  8
Image
 10
0.9373519367597
 20
-182.108417932273
 42
0.0
  0
VERTEX
  8
Image
 10
27.7159402702452
 20
-202.237290794794
 42
0.0
  0
VERTEX
  8
Image
 10
16.7782100215067
 20
-167.726852515052
 42
0.0
  0
VERTEX
  8
Image
 10
46.1969485028085
 20
-150.943077548635
 42
0.0
  0
VERTEX
  8
Image
 10
9.98926268954
 20
-150.000174934347
 42
0.0
  0
SEQEND
  0
POLYLINE
  8
Image
 66
     1
 10
0.0
 20
0.0
 30
0.0
 70
     1
  0
VERTEX
  8
Image
 10
-56.5801342228563
 20
-361.249873029186
 42
0.0
  0
VERTEX
  8
Image
 10
-65.6320449756374
 20
-392.839205922042
 42
0.0
  0
VERTEX
  8
Image
 10
-101.839730788906
 20
-393.78210853633
 42
0.0
  0
VERTEX
  8
Image
 10
-72.4209923076042
 20
-410.565883502747
 42
0.0
  0
VERTEX
  8
Image
 10
-83.3587225563427
 20
-445.076321782488
 42
0.0
  0
VERTEX
  8
Image
 10
-56.5801342228552
 20
-424.947448919968
 42
0.0
  0
VERTEX
  8
Image
 10
-29.80154588937
 20
-445.076321782488
 42
0.0
  0
VERTEX
  8
Image
 10
-40.7392761381081
 20
-410.565883502747
 42
0.0
  0
VERTEX
  8
Image
 10
-11.3205376568064
 20
-393.78210853633
 42
0.0
  0
VERTEX
  8
Image
 10
-47.5282234700748
 20
-392.839205922042
 42
0.0
  0
SEQEND
  0
POLYLINE
  8
Image
 66
     1
 10
0.0
 20
0.0
 30
0.0
 70
     1
  0
VERTEX
  8
Image
 10
56.5801342228563
 20
-361.249873029186
 42
0.0
  0
VERTEX
  8
Image
 10
47.5282234700748
 20
-392.839205922042
 42
0.0
  0
VERTEX
  8
Image
 10
11.3205376568064
 20
-393.78210853633
 42
0.0
  0
VERTEX
  8
Image
 10
40.7392761381085
 20
-410.565883502747
 42
0.0
  0
VERTEX
  8
Image
 10
29.80154588937
 20
-445.076321782488
 42
0.0
  0
VERTEX
  8
Image
 10
56.5801342228571
 20
-424.947448919968
 42
0.0
  0
VERTEX
  8
Image
 10
83.3587225563427
 20
-445.076321782488
 42
0.0
  0
VERTEX
  8
Image
 10
72.4209923076042
 20
-410.565883502747
 42
0.0
  0
VERTEX
  8
Image
 10
101.839730788906
 20
-393.78210853633
 42
0.0
  0
VERTEX
  8
Image
 10
65.6320449756378
 20
-392.839205922042
 42
0.0
  0
SEQEND
  0
POLYLINE
  8
Image
 66
     1
 10
0.0
 20
0.0
 30
0.0
 70
     1
  0
VERTEX
  8
Image
 10
0.9373519367589
 20
-280.49239074441
 42
0.0
  0
VERTEX
  8
Image
 10
-8.1145588160226
 20
-312.081723637266
 42
0.0
  0
VERTEX
  8
Image
 10
-44.3222446292911
 20
-313.024626251554
 42
0.0
  0
VERTEX
  8
Image
 10
-14.9035061479894
 20
-329.808401217971
 42
0.0
  0
VERTEX
  8
Image
 10
-25.8412363967275
 20
-364.318839497713
 42
0.0
  0
VERTEX
  8
Image
 10
0.9373519367597
 20
-344.189966635192
 42
0.0
  0
VERTEX
  8
Image
 10
27.7159402702452
 20
-364.318839497713
 42
0.0
  0
VERTEX
  8
Image
 10
16.7782100215067
 20
-329.808401217971
 42
0.0
  0
VERTEX
  8
Image
 10
46.1969485028085
 20
-313.024626251554
 42
0.0
  0
VERTEX
  8
Image
 10
9.98926268954
 20
-312.081723637266
 42
0.0
  0
SEQEND
  0
POLYLINE
  8
Image
 66
     1
 10
0.0
 20
0.0
 30
0.0
 70
     1
  0
VERTEX
  8
Image
 10
-56.5801342228563
 20
-523.331421732105
 42
0.0
  0
VERTEX
  8
Image
 10
-65.6320449756374
 20
-554.92075462496
 42
0.0
  0
VERTEX
  8
Image
 10
-101.839730788906
 20
-555.863657239249
 42
0.0
  0
VERTEX
  8
Image
 10
-72.4209923076042
 20
-572.647432205665
 42
0.0
  0
VERTEX
  8
Image
 10
-83.3587225563427
 20
-607.157870485407
 42
0.0
  0
VERTEX
  8
Image
 10
-56.5801342228552
 20
-587.028997622886
 42
0.0
  0
VERTEX
  8
Image
 10
-29.80154588937
 20
-607.157870485407
 42
0.0
  0
VERTEX
  8
Image
 10
-40.7392761381081
 20
-572.647432205665
 42
0.0
  0
VERTEX
  8
Image
 10
-11.3205376568064
 20
-555.863657239249
 42
0.0
  0
VERTEX
  8
Image
 10
-47.5282234700748
 20
-554.92075462496
 42
0.0
  0
SEQEND
  0
POLYLINE
  8
Image
 66
     1
 10
0.0
 20
0.0
 30
0.0
 70
     1
  0
VERTEX
  8
Image
 10
56.5801342228563
 20
-523.331421732105
 42
0.0
  0
VERTEX
  8
Image
 10
47.5282234700748
 20
-554.92075462496
 42
0.0
  0
VERTEX
  8
Image
 10
11.3205376568064
 20
-555.863657239249
 42
0.0
  0
VERTEX
  8
Image
 10
40.7392761381085
 20
-572.647432205665
 42
0.0
  0
VERTEX
  8
Image
 10
29.80154588937
 20
-607.157870485407
 42
0.0
  0
VERTEX
  8
Image
 10
56.5801342228571
 20
-587.028997622886
 42
0.0
  0
VERTEX
  8
Image
 10
83.3587225563427
 20
-607.157870485407
 42
0.0
  0
VERTEX
  8
Image
 10
72.4209923076042
 20
-572.647432205665
 42
0.0
  0
VERTEX
  8
Image
 10
101.839730788906
 20
-555.863657239249
 42
0.0
  0
VERTEX
  8
Image
 10
65.6320449756378
 20
-554.92075462496
 42
0.0
  0
SEQEND
  0
POLYLINE
  8
Image
 66
     1
 10
0.0
 20
0.0
 30
0.0
 70
     1
  0
VERTEX
  8
Image
 10
0.9373519367589
 20
-442.573939447329
 42
0.0
  0
VERTEX
  8
Image
 10
-8.1145588160226
 20
-474.163272340184
 42
0.0
  0
VERTEX
  8
Image
 10
-44.3222446292911
 20
-475.106174954473
 42
0.0
  0
VERTEX
  8
Image
 10
-14.9035061479894
 20
-491.889949920889
 42
0.0
  0
VERTEX
  8
Image
 10
-25.8412363967275
 20
-526.400388200631
 42
0.0
  0
VERTEX
  8
Image
 10
0.9373519367597
 20
-506.271515338111
 42
0.0
  0
VERTEX
  8
Image
 10
27.7159402702452
 20
-526.400388200631
 42
0.0
  0
VERTEX
  8
Image
 10
16.7782100215067
 20
-491.889949920889
 42
0.0
  0
VERTEX
  8
Image
 10
46.1969485028085
 20
-475.106174954473
 42
0.0
  0
VERTEX
  8
Image
 10
9.98926268954
 20
-474.163272340184
 42
0.0
  0
SEQEND
  0
POLYLINE
  8
Image
 66
     1
 10
0.0
 20
0.0
 30
0.0
 70
     1
  0
VERTEX
  8
Image
 10
-56.5801342228563
 20
-685.412970435023
 42
0.0
  0
VERTEX
  8
Image
 10
-65.6320449756374
 20
-717.002303327879
 42
0.0
  0
VERTEX
  8
Image
 10
-101.839730788906
 20
-717.945205942167
 42
0.0
  0
VERTEX
  8
Image
 10
-72.4209923076042
 20
-734.728980908584
 42
0.0
  0
VERTEX
  8
Image
 10
-83.3587225563427
 20
-769.239419188326
 42
0.0
  0
VERTEX
  8
Image
 10
-56.5801342228552
 20
-749.110546325805
 42
0.0
  0
VERTEX
  8
Image
 10
-29.80154588937
 20
-769.239419188326
 42
0.0
  0
VERTEX
  8
Image
 10
-40.7392761381081
 20
-734.728980908584
 42
0.0
  0
VERTEX
  8
Image
 10
-11.3205376568064
 20
-717.945205942167
 42
0.0
  0
VERTEX
  8
Image
 10
-47.5282234700748
 20
-717.002303327879
 42
0.0
  0
SEQEND
  0
POLYLINE
  8
Image
 66
     1
 10
0.0
 20
0.0
 30
0.0
 70
     1
  0
VERTEX
  8
Image
 10
56.5801342228563
 20
-685.412970435023
 42
0.0
  0
VERTEX
  8
Image
 10
47.5282234700748
 20
-717.002303327879
 42
0.0
  0
VERTEX
  8
Image
 10
11.3205376568064
 20
-717.945205942167
 42
0.0
  0
VERTEX
  8
Image
 10
40.7392761381085
 20
-734.728980908584
 42
0.0
  0
VERTEX
  8
Image
 10
29.80154588937
 20
-769.239419188326
 42
0.0
  0
VERTEX
  8
Image
 10
56.5801342228571
 20
-749.110546325805
 42
0.0
  0
VERTEX
  8
Image
 10
83.3587225563427
 20
-769.239419188326
 42
0.0
  0
VERTEX
  8
Image
 10
72.4209923076042
 20
-734.728980908584
 42
0.0
  0
VERTEX
  8
Image
 10
101.839730788906
 20
-717.945205942167
 42
0.0
  0
VERTEX
  8
Image
 10
65.6320449756378
 20
-717.002303327879
 42
0.0
  0
SEQEND
  0
POLYLINE
  8
Image
 66
     1
 10
0.0
 20
0.0
 30
0.0
 70
     1
  0
VERTEX
  8
Image
 10
0.9373519367589
 20
-604.655488150247
 42
0.0
  0
VERTEX
  8
Image
 10
-8.1145588160226
 20
-636.244821043103
 42
0.0
  0
VERTEX
  8
Image
 10
-44.3222446292911
 20
-637.187723657391
 42
0.0
  0
VERTEX
  8
Image
 10
-14.9035061479894
 20
-653.971498623808
 42
0.0
  0
VERTEX
  8
Image
 10
-25.8412363967275
 20
-688.48193690355
 42
0.0
  0
VERTEX
  8
Image
 10
0.9373519367597
 20
-668.353064041029
 42
0.0
  0
VERTEX
  8
Image
 10
27.7159402702452
 20
-688.48193690355
 42
0.0
  0
VERTEX
  8
Image
 10
16.7782100215067
 20
-653.971498623808
 42
0.0
  0
VERTEX
  8
Image
 10
46.1969485028085
 20
-637.187723657391
 42
0.0
  0
VERTEX
  8
Image
 10
9.98926268954
 20
-636.244821043103
 42
0.0
  0
SEQEND
  0
POLYLINE
  8
Image
 66
     1
 10
0.0
 20
0.0
 30
0.0
 70
     1
  0
VERTEX
  8
Image
 10
-56.5801342228563
 20
-847.494519137942
 42
0.0
  0
VERTEX
  8
Image
 10
-65.6320449756374
 20
-879.083852030798
 42
0.0
  0
VERTEX
  8
Image
 10
-101.839730788906
 20
-880.026754645086
 42
0.0
  0
VERTEX
  8
Image
 10
-72.4209923076042
 20
-896.810529611503
 42
0.0
  0
VERTEX
  8
Image
 10
-83.3587225563427
 20
-931.320967891245
 42
0.0
  0
VERTEX
  8
Image
 10
-56.5801342228552
 20
-911.192095028724
 42
0.0
  0
VERTEX
  8
Image
 10
-29.80154588937
 20
-931.320967891245
 42
0.0
  0
VERTEX
  8
Image
 10
-40.7392761381081
 20
-896.810529611503
 42
0.0
  0
VERTEX
  8
Image
 10
-11.3205376568064
 20
-880.026754645086
 42
0.0
  0
VERTEX
  8
Image
 10
-47.5282234700748
 20
-879.083852030798
 42
0.0
  0
SEQEND
  0
POLYLINE
  8
Image
 66
     1
 10
0.0
 20
0.0
 30
0.0
 70
     1
  0
VERTEX
  8
Image
 10
56.5801342228563
 20
-847.494519137942
 42
0.0
  0
VERTEX
  8
Image
 10
47.5282234700748
 20
-879.083852030798
 42
0.0
  0
VERTEX
  8
Image
 10
11.3205376568064
 20
-880.026754645086
 42
0.0
  0
VERTEX
  8
Image
 10
40.7392761381085
 20
-896.810529611503
 42
0.0
  0
VERTEX
  8
Image
 10
29.80154588937
 20
-931.320967891245
 42
0.0
  0
VERTEX
  8
Image
 10
56.5801342228571
 20
-911.192095028724
 42
0.0
  0
VERTEX
  8
Image
 10
83.3587225563427
 20
-931.320967891245
 42
0.0
  0
VERTEX
  8
Image
 10
72.4209923076042
 20
-896.810529611503
 42
0.0
  0
VERTEX
  8
Image
 10
101.839730788906
 20
-880.026754645086
 42
0.0
  0
VERTEX
  8
Image
 10
65.6320449756378
 20
-879.083852030798
 42
0.0
  0
SEQEND
  0
POLYLINE
  8
Image
 66
     1
 10
0.0
 20
0.0
 30
0.0
 70
     1
  0
VERTEX
  8
Image
 10
0.9373519367589
 20
-766.737036853166
 42
0.0
  0
VERTEX
  8
Image
 10
-8.1145588160226
 20
-798.326369746022
 42
0.0
  0
VERTEX
  8
Image
 10
-44.3222446292911
 20
-799.26927236031
 42
0.0
  0
VERTEX
  8
Image
 10
-14.9035061479894
 20
-816.053047326727
 42
0.0
  0
VERTEX
  8
Image
 10
-25.8412363967275
 20
-850.563485606468
 42
0.0
  0
VERTEX
  8
Image
 10
0.9373519367597
 20
-830.434612743948
 42
0.0
  0
VERTEX
  8
Image
 10
27.7159402702452
 20
-850.563485606468
 42
0.0
  0
VERTEX
  8
Image
 10
16.7782100215067
 20
-816.053047326727
 42
0.0
  0
VERTEX
  8
Image
 10
46.1969485028085
 20
-799.26927236031
 42
0.0
  0
VERTEX
  8
Image
 10
9.98926268954
 20
-798.326369746022
 42
0.0
  0
SEQEND
  0
POLYLINE
  8
Image
 66
     1
 10
0.0
 20
0.0
 30
0.0
 70
     1
  0
VERTEX
  8
Image
 10
-105.00000058
 20
-349.619272863734
 42
0.0
  0
VERTEX
  8
Image
 10
-85.4443281754675
 20
-364.318839497713
 42
0.0
  0
VERTEX
  8
Image
 10
-96.3820584242059
 20
-329.808401217971
 42
0.0
  0
VERTEX
  8
Image
 10
-66.9633199429038
 20
-313.024626251554
 42
0.0
  0
VERTEX
  8
Image
 10
-103.171005756172
 20
-312.081723637266
 42
0.0
  0
VERTEX
  8
Image
 10
-105.00000058
 20
-305.698902603437
 42
0.0
  0
SEQEND
  0
POLYLINE
  8
Image
 66
     1
 10
0.0
 20
0.0
 30
0.0
 70
     1
  0
VERTEX
  8
Image
 10
-105.00000058
 20
-187.537724160816
 42
0.0
  0
VERTEX
  8
Image
 10
-85.4443281754675
 20
-202.237290794794
 42
0.0
  0
VERTEX
  8
Image
 10
-96.3820584242059
 20
-167.726852515052
 42
0.0
  0
VERTEX
  8
Image
 10
-66.9633199429038
 20
-150.943077548635
 42
0.0
  0
VERTEX
  8
Image
 10
-103.171005756172
 20
-150.000174934347
 42
0.0
  0
VERTEX
  8
Image
 10
-105.00000058
 20
-143.617353900517
 42
0.0
  0
SEQEND
  0
POLYLINE
  8
Image
 66
     1
 10
0.0
 20
0.0
 30
0.0
 70
     1
  0
VERTEX
  8
Image
 10
-105.00000058
 20
-25.4561754578972
 42
0.0
  0
VERTEX
  8
Image
 10
-85.4443281754675
 20
-40.1557420918753
 42
0.0
  0
VERTEX
  8
Image
 10
-96.3820584242059
 20
-5.6453038121335
 42
0.0
  0
VERTEX
  8
Image
 10
-66.9633199429038
 20
11.1384711542834
 42
0.0
  0
VERTEX
  8
Image
 10
-103.171005756172
 20
12.0813737685715
 42
0.0
  0
VERTEX
  8
Image
 10
-105.00000058
 20
18.4641948024013
 42
0.0
  0
SEQEND
  0
POLYLINE
  8
Image
 66
     1
 10
0.0
 20
0.0
 30
0.0
 70
     1
  0
VERTEX
  8
Image
 10
17.3694292765597
 20
-979.999995445
 42
0.0
  0
VERTEX
  8
Image
 10
16.7782100215067
 20
-978.134596029645
 42
0.0
  0
VERTEX
  8
Image
 10
46.1969485028085
 20
-961.350821063229
 42
0.0
  0
VERTEX
  8
Image
 10
9.98926268954
 20
-960.40791844894
 42
0.0
  0
VERTEX
  8
Image
 10
0.9373519367589
 20
-928.818585556085
 42
0.0
  0
VERTEX
  8
Image
 10
-8.1145588160226
 20
-960.40791844894
 42
0.0
  0
VERTEX
  8
Image
 10
-44.3222446292911
 20
-961.350821063229
 42
0.0
  0
VERTEX
  8
Image
 10
-14.9035061479894
 20
-978.134596029645
 42
0.0
  0
VERTEX
  8
Image
 10
-15.4947254030423
 20
-979.999995445
 42
0.0
  0
SEQEND
  0
POLYLINE
  8
Image
 66
     1
 10
0.0
 20
0.0
 30
0.0
 70
     1
  0
VERTEX
  8
Image
 10
-95.7908391691528
 20
-979.999995445
 42
0.0
  0
VERTEX
  8
Image
 10
-96.3820584242059
 20
-978.134596029645
 42
0.0
  0
VERTEX
  8
Image
 10
-66.9633199429038
 20
-961.350821063229
 42
0.0
  0
VERTEX
  8
Image
 10
-103.171005756172
 20
-960.40791844894
 42
0.0
  0
VERTEX
  8
Image
 10
-105.00000058
 20
-954.025097415111
 42
0.0
  0
VERTEX
  8
Image
 10
-105.00000058
 20
-979.999995445
 42
0.0
  0
SEQEND
  0
POLYLINE
  8
Image
 66
     1
 10
0.0
 20
0.0
 30
0.0
 70
     1
  0
VERTEX
  8
Image
 10
-105.00000058
 20
-835.863918972491
 42
0.0
  0
VERTEX
  8
Image
 10
-85.4443281754675
 20
-850.563485606468
 42
0.0
  0
VERTEX
  8
Image
 10
-96.3820584242059
 20
-816.053047326727
 42
0.0
  0
VERTEX
  8
Image
 10
-66.9633199429038
 20
-799.26927236031
 42
0.0
  0
VERTEX
  8
Image
 10
-103.171005756172
 20
-798.326369746022
 42
0.0
  0
VERTEX
  8
Image
 10
-105.00000058
 20
-791.943548712193
 42
0.0
  0
SEQEND
  0
POLYLINE
  8
Image
 66
     1
 10
0.0
 20
0.0
 30
0.0
 70
     1
  0
VERTEX
  8
Image
 10
-105.00000058
 20
-673.782370269572
 42
0.0
  0
VERTEX
  8
Image
 10
-85.4443281754675
 20
-688.48193690355
 42
0.0
  0
VERTEX
  8
Image
 10
-96.3820584242059
 20
-653.971498623808
 42
0.0
  0
VERTEX
  8
Image
 10
-66.9633199429038
 20
-637.187723657391
 42
0.0
  0
VERTEX
  8
Image
 10
-103.171005756172
 20
-636.244821043103
 42
0.0
  0
VERTEX
  8
Image
 10
-105.00000058
 20
-629.862000009273
 42
0.0
  0
SEQEND
  0
POLYLINE
  8
Image
 66
     1
 10
0.0
 20
0.0
 30
0.0
 70
     1
  0
VERTEX
  8
Image
 10
-105.00000058
 20
622.870019353777
 42
0.0
  0
VERTEX
  8
Image
 10
-85.4443281754675
 20
608.170452719799
 42
0.0
  0
VERTEX
  8
Image
 10
-96.3820584242059
 20
642.680890999541
 42
0.0
  0
VERTEX
  8
Image
 10
-66.9633199429038
 20
659.464665965958
 42
0.0
  0
VERTEX
  8
Image
 10
-103.171005756172
 20
660.407568580246
 42
0.0
  0
VERTEX
  8
Image
 10
-105.00000058
 20
666.790389614075
 42
0.0
  0
SEQEND
  0
POLYLINE
  8
Image
 66
     1
 10
0.0
 20
0.0
 30
0.0
 70
     1
  0
VERTEX
  8
Image
 10
-105.00000058
 20
784.951568056696
 42
0.0
  0
VERTEX
  8
Image
 10
-85.4443281754675
 20
770.252001422718
 42
0.0
  0
VERTEX
  8
Image
 10
-96.3820584242059
 20
804.76243970246
 42
0.0
  0
VERTEX
  8
Image
 10
-66.9633199429038
 20
821.546214668876
 42
0.0
  0
VERTEX
  8
Image
 10
-103.171005756172
 20
822.489117283165
 42
0.0
  0
VERTEX
  8
Image
 10
-105.00000058
 20
828.871938316994
 42
0.0
  0
SEQEND
  0
POLYLINE
  8
Image
 66
     1
 10
0.0
 20
0.0
 30
0.0
 70
     1
  0
VERTEX
  8
Image
 10
-105.00000058
 20
947.033116759615
 42
0.0
  0
VERTEX
  8
Image
 10
-85.4443281754675
 20
932.333550125637
 42
0.0
  0
VERTEX
  8
Image
 10
-96.3820584242059
 20
966.843988405378
 42
0.0
  0
VERTEX
  8
Image
 10
-73.3221013328352
 20
979.999995445
 42
0.0
  0
VERTEX
  8
Image
 10
-105.00000058
 20
979.999995445
 42
0.0
  0
SEQEND
  0
POLYLINE
  8
Image
 66
     1
 10
0.0
 20
0.0
 30
0.0
 70
     1
  0
VERTEX
  8
Image
 10
-105.00000058
 20
136.625373245022
 42
0.0
  0
VERTEX
  8
Image
 10
-85.4443281754675
 20
121.925806611043
 42
0.0
  0
VERTEX
  8
Image
 10
-96.3820584242059
 20
156.436244890785
 42
0.0
  0
VERTEX
  8
Image
 10
-66.9633199429038
 20
173.220019857202
 42
0.0
  0
VERTEX
  8
Image
 10
-103.171005756172
 20
174.16292247149
 42
0.0
  0
VERTEX
  8
Image
 10
-105.00000058
 20
180.54574350532
 42
0.0
  0
SEQEND
  0
POLYLINE
  8
Image
 66
     1
 10
0.0
 20
0.0
 30
0.0
 70
     1
  0
VERTEX
  8
Image
 10
-105.00000058
 20
298.70692194794
 42
0.0
  0
VERTEX
  8
Image
 10
-85.4443281754675
 20
284.007355313962
 42
0.0
  0
VERTEX
  8
Image
 10
-96.3820584242059
 20
318.517793593704
 42
0.0
  0
VERTEX
  8
Image
 10
-66.9633199429038
 20
335.301568560121
 42
0.0
  0
VERTEX
  8
Image
 10
-103.171005756172
 20
336.244471174409
 42
0.0
  0
VERTEX
  8
Image
 10
-105.00000058
 20
342.627292208239
 42
0.0
  0
SEQEND
  0
POLYLINE
  8
Image
 66
     1
 10
0.0
 20
0.0
 30
0.0
 70
     1
  0
VERTEX
  8
Image
 10
-105.00000058
 20
460.788470650859
 42
0.0
  0
VERTEX
  8
Image
 10
-85.4443281754675
 20
446.088904016881
 42
0.0
  0
VERTEX
  8
Image
 10
-96.3820584242059
 20
480.599342296622
 42
0.0
  0
VERTEX
  8
Image
 10
-66.9633199429038
 20
497.383117263039
 42
0.0
  0
VERTEX
  8
Image
 10
-103.171005756172
 20
498.326019877327
 42
0.0
  0
VERTEX
  8
Image
 10
-105.00000058
 20
504.708840911157
 42
0.0
  0
SEQEND
  0
POLYLINE
  8
Image
 66
     1
 10
0.0
 20
0.0
 30
0.0
 70
     1
  0
VERTEX
  8
Image
 10
-37.9634632393605
 20
979.999995445
 42
0.0
  0
VERTEX
  8
Image
 10
-14.9035061479894
 20
966.843988405378
 42
0.0
  0
VERTEX
  8
Image
 10
-25.8412363967275
 20
932.333550125637
 42
0.0
  0
VERTEX
  8
Image
 10
0.9373519367597
 20
952.462422988157
 42
0.0
  0
VERTEX
  8
Image
 10
27.7159402702452
 20
932.333550125637
 42
0.0
  0
VERTEX
  8
Image
 10
16.7782100215067
 20
966.843988405378
 42
0.0
  0
VERTEX
  8
Image
 10
39.8381671128775
 20
979.999995445
 42
0.0
  0
SEQEND
  0
POLYLINE
  8
Image
 66
     1
 10
0.0
 20
0.0
 30
0.0
 70
     1
  0
VERTEX
  8
Image
 10
105.00000058
 20
660.406378247821
 42
0.0
  0
VERTEX
  8
Image
 10
68.8380238164212
 20
659.464665965958
 42
0.0
  0
VERTEX
  8
Image
 10
98.2567622977229
 20
642.680890999541
 42
0.0
  0
VERTEX
  8
Image
 10
87.3190320489844
 20
608.170452719799
 42
0.0
  0
VERTEX
  8
Image
 10
105.00000058
 20
621.460845895678
 42
0.0
  0
SEQEND
  0
POLYLINE
  8
Image
 66
     1
 10
0.0
 20
0.0
 30
0.0
 70
     1
  0
VERTEX
  8
Image
 10
105.00000058
 20
822.48792695074
 42
0.0
  0
VERTEX
  8
Image
 10
68.8380238164212
 20
821.546214668876
 42
0.0
  0
VERTEX
  8
Image
 10
98.2567622977229
 20
804.76243970246
 42
0.0
  0
VERTEX
  8
Image
 10
87.3190320489844
 20
770.252001422718
 42
0.0
  0
VERTEX
  8
Image
 10
105.00000058
 20
783.542394598596
 42
0.0
  0
SEQEND
  0
POLYLINE
  8
Image
 66
     1
 10
0.0
 20
0.0
 30
0.0
 70
     1
  0
VERTEX
  8
Image
 10
75.1968052063515
 20
979.999995445
 42
0.0
  0
VERTEX
  8
Image
 10
98.2567622977229
 20
966.843988405378
 42
0.0
  0
VERTEX
  8
Image
 10
87.3190320489844
 20
932.333550125637
 42
0.0
  0
VERTEX
  8
Image
 10
105.00000058
 20
945.623943301515
 42
0.0
  0
VERTEX
  8
Image
 10
105.00000058
 20
979.999995445
 42
0.0
  0
SEQEND
  0
POLYLINE
  8
Image
 66
     1
 10
0.0
 20
0.0
 30
0.0
 70
     1
  0
VERTEX
  8
Image
 10
105.00000058
 20
174.161732139065
 42
0.0
  0
VERTEX
  8
Image
 10
68.8380238164212
 20
173.220019857202
 42
0.0
  0
VERTEX
  8
Image
 10
98.2567622977229
 20
156.436244890785
 42
0.0
  0
VERTEX
  8
Image
 10
87.3190320489844
 20
121.925806611043
 42
0.0
  0
VERTEX
  8
Image
 10
105.00000058
 20
135.216199786922
 42
0.0
  0
SEQEND
  0
POLYLINE
  8
Image
 66
     1
 10
0.0
 20
0.0
 30
0.0
 70
     1
  0
VERTEX
  8
Image
 10
105.00000058
 20
336.243280841984
 42
0.0
  0
VERTEX
  8
Image
 10
68.8380238164212
 20
335.301568560121
 42
0.0
  0
VERTEX
  8
Image
 10
98.2567622977229
 20
318.517793593704
 42
0.0
  0
VERTEX
  8
Image
 10
87.3190320489844
 20
284.007355313962
 42
0.0
  0
VERTEX
  8
Image
 10
105.00000058
 20
297.297748489841
 42
0.0
  0
SEQEND
  0
POLYLINE
  8
Image
 66
     1
 10
0.0
 20
0.0
 30
0.0
 70
     1
  0
VERTEX
  8
Image
 10
105.00000058
 20
498.324829544903
 42
0.0
  0
VERTEX
  8
Image
 10
68.8380238164212
 20
497.383117263039
 42
0.0
  0
VERTEX
  8
Image
 10
98.2567622977229
 20
480.599342296622
 42
0.0
  0
VERTEX
  8
Image
 10
87.3190320489844
 20
446.088904016881
 42
0.0
  0
VERTEX
  8
Image
 10
105.00000058
 20
459.379297192759
 42
0.0
  0
SEQEND
  0
POLYLINE
  8
Image
 66
     1
 10
0.0
 20
0.0
 30
0.0
 70
     1
  0
VERTEX
  8
Image
 10
105.00000058
 20
-474.164462672609
 42
0.0
  0
VERTEX
  8
Image
 10
68.8380238164212
 20
-475.106174954473
 42
0.0
  0
VERTEX
  8
Image
 10
98.2567622977229
 20
-491.889949920889
 42
0.0
  0
VERTEX
  8
Image
 10
87.3190320489844
 20
-526.400388200631
 42
0.0
  0
VERTEX
  8
Image
 10
105.00000058
 20
-513.109995024753
 42
0.0
  0
SEQEND
  0
POLYLINE
  8
Image
 66
     1
 10
0.0
 20
0.0
 30
0.0
 70
     1
  0
VERTEX
  8
Image
 10
105.00000058
 20
-312.08291396969
 42
0.0
  0
VERTEX
  8
Image
 10
68.8380238164212
 20
-313.024626251554
 42
0.0
  0
VERTEX
  8
Image
 10
98.2567622977229
 20
-329.808401217971
 42
0.0
  0
VERTEX
  8
Image
 10
87.3190320489844
 20
-364.318839497713
 42
0.0
  0
VERTEX
  8
Image
 10
105.00000058
 20
-351.028446321834
 42
0.0
  0
SEQEND
  0
POLYLINE
  8
Image
 66
     1
 10
0.0
 20
0.0
 30
0.0
 70
     1
  0
VERTEX
  8
Image
 10
105.00000058
 20
-150.001365266772
 42
0.0
  0
VERTEX
  8
Image
 10
68.8380238164212
 20
-150.943077548635
 42
0.0
  0
VERTEX
  8
Image
 10
98.2567622977229
 20
-167.726852515052
 42
0.0
  0
VERTEX
  8
Image
 10
87.3190320489844
 20
-202.237290794794
 42
0.0
  0
VERTEX
  8
Image
 10
105.00000058
 20
-188.946897618915
 42
0.0
  0
SEQEND
  0
POLYLINE
  8
Image
 66
     1
 10
0.0
 20
0.0
 30
0.0
 70
     1
  0
VERTEX
  8
Image
 10
105.00000058
 20
12.0801834361468
 42
0.0
  0
VERTEX
  8
Image
 10
68.8380238164212
 20
11.1384711542834
 42
0.0
  0
VERTEX
  8
Image
 10
98.2567622977229
 20
-5.6453038121335
 42
0.0
  0
VERTEX
  8
Image
 10
87.3190320489844
 20
-40.1557420918753
 42
0.0
  0
VERTEX
  8
Image
 10
105.00000058
 20
-26.8653489159967
 42
0.0
  0
SEQEND
  0
POLYLINE
  8
Image
 66
     1
 10
0.0
 20
0.0
 30
0.0
 70
     1
  0
VERTEX
  8
Image
 10
105.00000058
 20
-960.409108781365
 42
0.0
  0
VERTEX
  8
Image
 10
68.8380238164212
 20
-961.350821063229
 42
0.0
  0
VERTEX
  8
Image
 10
98.2567622977229
 20
-978.134596029645
 42
0.0
  0
VERTEX
  8
Image
 10
97.6655430426698
 20
-979.999995445
 42
0.0
  0
VERTEX
  8
Image
 10
105.00000058
 20
-979.999995445
 42
0.0
  0
SEQEND
  0
POLYLINE
  8
Image
 66
     1
 10
0.0
 20
0.0
 30
0.0
 70
     1
  0
VERTEX
  8
Image
 10
105.00000058
 20
-798.327560078446
 42
0.0
  0
VERTEX
  8
Image
 10
68.8380238164212
 20
-799.26927236031
 42
0.0
  0
VERTEX
  8
Image
 10
98.2567622977229
 20
-816.053047326727
 42
0.0
  0
VERTEX
  8
Image
 10
87.3190320489844
 20
-850.563485606468
 42
0.0
  0
VERTEX
  8
Image
 10
105.00000058
 20
-837.27309243059
 42
0.0
  0
SEQEND
  0
POLYLINE
  8
Image
 66
     1
 10
0.0
 20
0.0
 30
0.0
 70
     1
  0
VERTEX
  8
Image
 10
105.00000058
 20
-636.246011375528
 42
0.0
  0
VERTEX
  8
Image
 10
68.8380238164212
 20
-637.187723657391
 42
0.0
  0
VERTEX
  8
Image
 10
98.2567622977229
 20
-653.971498623808
 42
0.0
  0
VERTEX
  8
Image
 10
87.3190320489844
 20
-688.48193690355
 42
0.0
  0
VERTEX
  8
Image
 10
105.00000058
 20
-675.191543727671
 42
0.0
  0
SEQEND
  0
POLYLINE
  8
Image
 66
     1
 10
0.0
 20
0.0
 30
0.0
 70
     1
  0
VERTEX
  8
Image
 10
-105.00000058
 20
-511.700821566653
 42
0.0
  0
VERTEX
  8
Image
 10
-85.4443281754675
 20
-526.400388200631
 42
0.0
  0
VERTEX
  8
Image
 10
-96.3820584242059
 20
-491.889949920889
 42
0.0
  0
VERTEX
  8
Image
 10
-66.9633199429038
 20
-475.106174954473
 42
0.0
  0
VERTEX
  8
Image
 10
-103.171005756172
 20
-474.163272340184
 42
0.0
  0
VERTEX
  8
Image
 10
-105.00000058
 20
-467.780451306355
 42
0.0
  0
SEQEND
  0
POLYLINE
  8
Image
 66
     1
 10
0.0
 20
0.0
 30
0.0
 70
     1
  0
VERTEX
  8
Image
 10
193.419866937144
 20
935.402516594163
 42
0.0
  0
VERTEX
  8
Image
 10
184.367956184363
 20
903.813183701307
 42
0.0
  0
VERTEX
  8
Image
 10
148.160270371094
 20
902.870281087019
 42
0.0
  0
VERTEX
  8
Image
 10
177.579008852396
 20
886.086506120602
 42
0.0
  0
VERTEX
  8
Image
 10
166.641278603657
 20
851.57606784086
 42
0.0
  0
VERTEX
  8
Image
 10
193.419866937145
 20
871.704940703381
 42
0.0
  0
VERTEX
  8
Image
 10
220.19845527063
 20
851.57606784086
 42
0.0
  0
VERTEX
  8
Image
 10
209.260725021892
 20
886.086506120602
 42
0.0
  0
VERTEX
  8
Image
 10
238.679463503194
 20
902.870281087019
 42
0.0
  0
VERTEX
  8
Image
 10
202.471777689925
 20
903.813183701307
 42
0.0
  0
SEQEND
  0
POLYLINE
  8
Image
 66
     1
 10
0.0
 20
0.0
 30
0.0
 70
     1
  0
VERTEX
  8
Image
 10
306.580135382856
 20
935.402516594163
 42
0.0
  0
VERTEX
  8
Image
 10
297.528224630075
 20
903.813183701307
 42
0.0
  0
VERTEX
  8
Image
 10
261.320538816806
 20
902.870281087019
 42
0.0
  0
VERTEX
  8
Image
 10
290.739277298109
 20
886.086506120602
 42
0.0
  0
VERTEX
  8
Image
 10
279.80154704937
 20
851.57606784086
 42
0.0
  0
VERTEX
  8
Image
 10
306.580135382857
 20
871.704940703381
 42
0.0
  0
VERTEX
  8
Image
 10
333.358723716343
 20
851.57606784086
 42
0.0
  0
VERTEX
  8
Image
 10
322.420993467604
 20
886.086506120602
 42
0.0
  0
VERTEX
  8
Image
 10
351.839731948906
 20
902.870281087019
 42
0.0
  0
VERTEX
  8
Image
 10
315.632046135638
 20
903.813183701307
 42
0.0
  0
SEQEND
  0
POLYLINE
  8
Image
 66
     1
 10
0.0
 20
0.0
 30
0.0
 70
     1
  0
VERTEX
  8
Image
 10
193.419866937144
 20
773.320967891244
 42
0.0
  0
VERTEX
  8
Image
 10
184.367956184363
 20
741.731634998389
 42
0.0
  0
VERTEX
  8
Image
 10
148.160270371094
 20
740.788732384101
 42
0.0
  0
VERTEX
  8
Image
 10
177.579008852396
 20
724.004957417684
 42
0.0
  0
VERTEX
  8
Image
 10
166.641278603657
 20
689.494519137942
 42
0.0
  0
VERTEX
  8
Image
 10
193.419866937145
 20
709.623392000463
 42
0.0
  0
VERTEX
  8
Image
 10
220.19845527063
 20
689.494519137942
 42
0.0
  0
VERTEX
  8
Image
 10
209.260725021892
 20
724.004957417684
 42
0.0
  0
VERTEX
  8
Image
 10
238.679463503194
 20
740.788732384101
 42
0.0
  0
VERTEX
  8
Image
 10
202.471777689925
 20
741.731634998389
 42
0.0
  0
SEQEND
  0
POLYLINE
  8
Image
 66
     1
 10
0.0
 20
0.0
 30
0.0
 70
     1
  0
VERTEX
  8
Image
 10
306.580135382856
 20
773.320967891244
 42
0.0
  0
VERTEX
  8
Image
 10
297.528224630075
 20
741.731634998389
 42
0.0
  0
VERTEX
  8
Image
 10
261.320538816806
 20
740.788732384101
 42
0.0
  0
VERTEX
  8
Image
 10
290.739277298109
 20
724.004957417684
 42
0.0
  0
VERTEX
  8
Image
 10
279.80154704937
 20
689.494519137942
 42
0.0
  0
VERTEX
  8
Image
 10
306.580135382857
 20
709.623392000463
 42
0.0
  0
VERTEX
  8
Image
 10
333.358723716343
 20
689.494519137942
 42
0.0
  0
VERTEX
  8
Image
 10
322.420993467604
 20
724.004957417684
 42
0.0
  0
VERTEX
  8
Image
 10
351.839731948906
 20
740.788732384101
 42
0.0
  0
VERTEX
  8
Image
 10
315.632046135638
 20
741.731634998389
 42
0.0
  0
SEQEND
  0
POLYLINE
  8
Image
 66
     1
 10
0.0
 20
0.0
 30
0.0
 70
     1
  0
VERTEX
  8
Image
 10
250.937353096759
 20
854.07845017602
 42
0.0
  0
VERTEX
  8
Image
 10
241.885442343977
 20
822.489117283165
 42
0.0
  0
VERTEX
  8
Image
 10
205.677756530709
 20
821.546214668876
 42
0.0
  0
VERTEX
  8
Image
 10
235.096495012011
 20
804.76243970246
 42
0.0
  0
VERTEX
  8
Image
 10
224.158764763273
 20
770.252001422718
 42
0.0
  0
VERTEX
  8
Image
 10
250.93735309676
 20
790.380874285239
 42
0.0
  0
VERTEX
  8
Image
 10
277.715941430245
 20
770.252001422718
 42
0.0
  0
VERTEX
  8
Image
 10
266.778211181507
 20
804.76243970246
 42
0.0
  0
VERTEX
  8
Image
 10
296.196949662808
 20
821.546214668876
 42
0.0
  0
VERTEX
  8
Image
 10
259.98926384954
 20
822.489117283165
 42
0.0
  0
SEQEND
  0
POLYLINE
  8
Image
 66
     1
 10
0.0
 20
0.0
 30
0.0
 70
     1
  0
VERTEX
  8
Image
 10
193.419866937144
 20
611.239419188326
 42
0.0
  0
VERTEX
  8
Image
 10
184.367956184363
 20
579.65008629547
 42
0.0
  0
VERTEX
  8
Image
 10
148.160270371094
 20
578.707183681182
 42
0.0
  0
VERTEX
  8
Image
 10
177.579008852396
 20
561.923408714765
 42
0.0
  0
VERTEX
  8
Image
 10
166.641278603657
 20
527.412970435023
 42
0.0
  0
VERTEX
  8
Image
 10
193.419866937145
 20
547.541843297544
 42
0.0
  0
VERTEX
  8
Image
 10
220.19845527063
 20
527.412970435023
 42
0.0
  0
VERTEX
  8
Image
 10
209.260725021892
 20
561.923408714765
 42
0.0
  0
VERTEX
  8
Image
 10
238.679463503194
 20
578.707183681182
 42
0.0
  0
VERTEX
  8
Image
 10
202.471777689925
 20
579.65008629547
 42
0.0
  0
SEQEND
  0
POLYLINE
  8
Image
 66
     1
 10
0.0
 20
0.0
 30
0.0
 70
     1
  0
VERTEX
  8
Image
 10
306.580135382856
 20
611.239419188326
 42
0.0
  0
VERTEX
  8
Image
 10
297.528224630075
 20
579.65008629547
 42
0.0
  0
VERTEX
  8
Image
 10
261.320538816806
 20
578.707183681182
 42
0.0
  0
VERTEX
  8
Image
 10
290.739277298109
 20
561.923408714765
 42
0.0
  0
VERTEX
  8
Image
 10
279.80154704937
 20
527.412970435023
 42
0.0
  0
VERTEX
  8
Image
 10
306.580135382857
 20
547.541843297544
 42
0.0
  0
VERTEX
  8
Image
 10
333.358723716343
 20
527.412970435023
 42
0.0
  0
VERTEX
  8
Image
 10
322.420993467604
 20
561.923408714765
 42
0.0
  0
VERTEX
  8
Image
 10
351.839731948906
 20
578.707183681182
 42
0.0
  0
VERTEX
  8
Image
 10
315.632046135638
 20
579.65008629547
 42
0.0
  0
SEQEND
  0
POLYLINE
  8
Image
 66
     1
 10
0.0
 20
0.0
 30
0.0
 70
     1
  0
VERTEX
  8
Image
 10
250.937353096759
 20
691.996901473102
 42
0.0
  0
VERTEX
  8
Image
 10
241.885442343977
 20
660.407568580246
 42
0.0
  0
VERTEX
  8
Image
 10
205.677756530709
 20
659.464665965958
 42
0.0
  0
VERTEX
  8
Image
 10
235.096495012011
 20
642.680890999541
 42
0.0
  0
VERTEX
  8
Image
 10
224.158764763273
 20
608.170452719799
 42
0.0
  0
VERTEX
  8
Image
 10
250.93735309676
 20
628.29932558232
 42
0.0
  0
VERTEX
  8
Image
 10
277.715941430245
 20
608.170452719799
 42
0.0
  0
VERTEX
  8
Image
 10
266.778211181507
 20
642.680890999541
 42
0.0
  0
VERTEX
  8
Image
 10
296.196949662808
 20
659.464665965958
 42
0.0
  0
VERTEX
  8
Image
 10
259.98926384954
 20
660.407568580246
 42
0.0
  0
SEQEND
  0
POLYLINE
  8
Image
 66
     1
 10
0.0
 20
0.0
 30
0.0
 70
     1
  0
VERTEX
  8
Image
 10
193.419866937144
 20
449.157870485407
 42
0.0
  0
VERTEX
  8
Image
 10
184.367956184363
 20
417.568537592551
 42
0.0
  0
VERTEX
  8
Image
 10
148.160270371094
 20
416.625634978263
 42
0.0
  0
VERTEX
  8
Image
 10
177.579008852396
 20
399.841860011846
 42
0.0
  0
VERTEX
  8
Image
 10
166.641278603657
 20
365.331421732105
 42
0.0
  0
VERTEX
  8
Image
 10
193.419866937145
 20
385.460294594625
 42
0.0
  0
VERTEX
  8
Image
 10
220.19845527063
 20
365.331421732105
 42
0.0
  0
VERTEX
  8
Image
 10
209.260725021892
 20
399.841860011846
 42
0.0
  0
VERTEX
  8
Image
 10
238.679463503194
 20
416.625634978263
 42
0.0
  0
VERTEX
  8
Image
 10
202.471777689925
 20
417.568537592551
 42
0.0
  0
SEQEND
  0
POLYLINE
  8
Image
 66
     1
 10
0.0
 20
0.0
 30
0.0
 70
     1
  0
VERTEX
  8
Image
 10
306.580135382856
 20
449.157870485407
 42
0.0
  0
VERTEX
  8
Image
 10
297.528224630075
 20
417.568537592551
 42
0.0
  0
VERTEX
  8
Image
 10
261.320538816806
 20
416.625634978263
 42
0.0
  0
VERTEX
  8
Image
 10
290.739277298109
 20
399.841860011846
 42
0.0
  0
VERTEX
  8
Image
 10
279.80154704937
 20
365.331421732105
 42
0.0
  0
VERTEX
  8
Image
 10
306.580135382857
 20
385.460294594625
 42
0.0
  0
VERTEX
  8
Image
 10
333.358723716343
 20
365.331421732105
 42
0.0
  0
VERTEX
  8
Image
 10
322.420993467604
 20
399.841860011846
 42
0.0
  0
VERTEX
  8
Image
 10
351.839731948906
 20
416.625634978263
 42
0.0
  0
VERTEX
  8
Image
 10
315.632046135638
 20
417.568537592551
 42
0.0
  0
SEQEND
  0
POLYLINE
  8
Image
 66
     1
 10
0.0
 20
0.0
 30
0.0
 70
     1
  0
VERTEX
  8
Image
 10
250.937353096759
 20
529.915352770183
 42
0.0
  0
VERTEX
  8
Image
 10
241.885442343977
 20
498.326019877327
 42
0.0
  0
VERTEX
  8
Image
 10
205.677756530709
 20
497.383117263039
 42
0.0
  0
VERTEX
  8
Image
 10
235.096495012011
 20
480.599342296622
 42
0.0
  0
VERTEX
  8
Image
 10
224.158764763273
 20
446.088904016881
 42
0.0
  0
VERTEX
  8
Image
 10
250.93735309676
 20
466.217776879401
 42
0.0
  0
VERTEX
  8
Image
 10
277.715941430245
 20
446.088904016881
 42
0.0
  0
VERTEX
  8
Image
 10
266.778211181507
 20
480.599342296622
 42
0.0
  0
VERTEX
  8
Image
 10
296.196949662808
 20
497.383117263039
 42
0.0
  0
VERTEX
  8
Image
 10
259.98926384954
 20
498.326019877327
 42
0.0
  0
SEQEND
  0
POLYLINE
  8
Image
 66
     1
 10
0.0
 20
0.0
 30
0.0
 70
     1
  0
VERTEX
  8
Image
 10
193.419866937144
 20
287.076321782488
 42
0.0
  0
VERTEX
  8
Image
 10
184.367956184363
 20
255.486988889633
 42
0.0
  0
VERTEX
  8
Image
 10
148.160270371094
 20
254.544086275345
 42
0.0
  0
VERTEX
  8
Image
 10
177.579008852396
 20
237.760311308928
 42
0.0
  0
VERTEX
  8
Image
 10
166.641278603657
 20
203.249873029186
 42
0.0
  0
VERTEX
  8
Image
 10
193.419866937145
 20
223.378745891707
 42
0.0
  0
VERTEX
  8
Image
 10
220.19845527063
 20
203.249873029186
 42
0.0
  0
VERTEX
  8
Image
 10
209.260725021892
 20
237.760311308928
 42
0.0
  0
VERTEX
  8
Image
 10
238.679463503194
 20
254.544086275345
 42
0.0
  0
VERTEX
  8
Image
 10
202.471777689925
 20
255.486988889633
 42
0.0
  0
SEQEND
  0
POLYLINE
  8
Image
 66
     1
 10
0.0
 20
0.0
 30
0.0
 70
     1
  0
VERTEX
  8
Image
 10
306.580135382856
 20
287.076321782488
 42
0.0
  0
VERTEX
  8
Image
 10
297.528224630075
 20
255.486988889633
 42
0.0
  0
VERTEX
  8
Image
 10
261.320538816806
 20
254.544086275345
 42
0.0
  0
VERTEX
  8
Image
 10
290.739277298109
 20
237.760311308928
 42
0.0
  0
VERTEX
  8
Image
 10
279.80154704937
 20
203.249873029186
 42
0.0
  0
VERTEX
  8
Image
 10
306.580135382857
 20
223.378745891707
 42
0.0
  0
VERTEX
  8
Image
 10
333.358723716343
 20
203.249873029186
 42
0.0
  0
VERTEX
  8
Image
 10
322.420993467604
 20
237.760311308928
 42
0.0
  0
VERTEX
  8
Image
 10
351.839731948906
 20
254.544086275345
 42
0.0
  0
VERTEX
  8
Image
 10
315.632046135638
 20
255.486988889633
 42
0.0
  0
SEQEND
  0
POLYLINE
  8
Image
 66
     1
 10
0.0
 20
0.0
 30
0.0
 70
     1
  0
VERTEX
  8
Image
 10
250.937353096759
 20
367.833804067265
 42
0.0
  0
VERTEX
  8
Image
 10
241.885442343977
 20
336.244471174409
 42
0.0
  0
VERTEX
  8
Image
 10
205.677756530709
 20
335.301568560121
 42
0.0
  0
VERTEX
  8
Image
 10
235.096495012011
 20
318.517793593704
 42
0.0
  0
VERTEX
  8
Image
 10
224.158764763273
 20
284.007355313962
 42
0.0
  0
VERTEX
  8
Image
 10
250.93735309676
 20
304.136228176483
 42
0.0
  0
VERTEX
  8
Image
 10
277.715941430245
 20
284.007355313962
 42
0.0
  0
VERTEX
  8
Image
 10
266.778211181507
 20
318.517793593704
 42
0.0
  0
VERTEX
  8
Image
 10
296.196949662808
 20
335.301568560121
 42
0.0
  0
VERTEX
  8
Image
 10
259.98926384954
 20
336.244471174409
 42
0.0
  0
SEQEND
  0
POLYLINE
  8
Image
 66
     1
 10
0.0
 20
0.0
 30
0.0
 70
     1
  0
VERTEX
  8
Image
 10
193.419866937144
 20
124.99477307957
 42
0.0
  0
VERTEX
  8
Image
 10
184.367956184363
 20
93.4054401867141
 42
0.0
  0
VERTEX
  8
Image
 10
148.160270371094
 20
92.462537572426
 42
0.0
  0
VERTEX
  8
Image
 10
177.579008852396
 20
75.6787626060092
 42
0.0
  0
VERTEX
  8
Image
 10
166.641278603657
 20
41.1683243262674
 42
0.0
  0
VERTEX
  8
Image
 10
193.419866937145
 20
61.2971971887881
 42
0.0
  0
VERTEX
  8
Image
 10
220.19845527063
 20
41.1683243262674
 42
0.0
  0
VERTEX
  8
Image
 10
209.260725021892
 20
75.6787626060092
 42
0.0
  0
VERTEX
  8
Image
 10
238.679463503194
 20
92.462537572426
 42
0.0
  0
VERTEX
  8
Image
 10
202.471777689925
 20
93.4054401867141
 42
0.0
  0
SEQEND
  0
POLYLINE
  8
Image
 66
     1
 10
0.0
 20
0.0
 30
0.0
 70
     1
  0
VERTEX
  8
Image
 10
306.580135382856
 20
124.99477307957
 42
0.0
  0
VERTEX
  8
Image
 10
297.528224630075
 20
93.4054401867141
 42
0.0
  0
VERTEX
  8
Image
 10
261.320538816806
 20
92.462537572426
 42
0.0
  0
VERTEX
  8
Image
 10
290.739277298109
 20
75.6787626060092
 42
0.0
  0
VERTEX
  8
Image
 10
279.80154704937
 20
41.1683243262674
 42
0.0
  0
VERTEX
  8
Image
 10
306.580135382857
 20
61.2971971887881
 42
0.0
  0
VERTEX
  8
Image
 10
333.358723716343
 20
41.1683243262674
 42
0.0
  0
VERTEX
  8
Image
 10
322.420993467604
 20
75.6787626060092
 42
0.0
  0
VERTEX
  8
Image
 10
351.839731948906
 20
92.462537572426
 42
0.0
  0
VERTEX
  8
Image
 10
315.632046135638
 20
93.4054401867141
 42
0.0
  0
SEQEND
  0
POLYLINE
  8
Image
 66
     1
 10
0.0
 20
0.0
 30
0.0
 70
     1
  0
VERTEX
  8
Image
 10
250.937353096759
 20
205.752255364346
 42
0.0
  0
VERTEX
  8
Image
 10
241.885442343977
 20
174.16292247149
 42
0.0
  0
VERTEX
  8
Image
 10
205.677756530709
 20
173.220019857202
 42
0.0
  0
VERTEX
  8
Image
 10
235.096495012011
 20
156.436244890785
 42
0.0
  0
VERTEX
  8
Image
 10
224.158764763273
 20
121.925806611043
 42
0.0
  0
VERTEX
  8
Image
 10
250.93735309676
 20
142.054679473564
 42
0.0
  0
VERTEX
  8
Image
 10
277.715941430245
 20
121.925806611043
 42
0.0
  0
VERTEX
  8
Image
 10
266.778211181507
 20
156.436244890785
 42
0.0
  0
VERTEX
  8
Image
 10
296.196949662808
 20
173.220019857202
 42
0.0
  0
VERTEX
  8
Image
 10
259.98926384954
 20
174.16292247149
 42
0.0
  0
SEQEND
  0
POLYLINE
  8
Image
 66
     1
 10
0.0
 20
0.0
 30
0.0
 70
     1
  0
VERTEX
  8
Image
 10
193.419866937144
 20
-37.0867756233488
 42
0.0
  0
VERTEX
  8
Image
 10
184.367956184363
 20
-68.6761085162045
 42
0.0
  0
VERTEX
  8
Image
 10
148.160270371094
 20
-69.6190111304926
 42
0.0
  0
VERTEX
  8
Image
 10
177.579008852396
 20
-86.4027860969095
 42
0.0
  0
VERTEX
  8
Image
 10
166.641278603657
 20
-120.913224376651
 42
0.0
  0
VERTEX
  8
Image
 10
193.419866937145
 20
-100.784351514131
 42
0.0
  0
VERTEX
  8
Image
 10
220.19845527063
 20
-120.913224376651
 42
0.0
  0
VERTEX
  8
Image
 10
209.260725021892
 20
-86.4027860969095
 42
0.0
  0
VERTEX
  8
Image
 10
238.679463503194
 20
-69.6190111304926
 42
0.0
  0
VERTEX
  8
Image
 10
202.471777689925
 20
-68.6761085162045
 42
0.0
  0
SEQEND
  0
POLYLINE
  8
Image
 66
     1
 10
0.0
 20
0.0
 30
0.0
 70
     1
  0
VERTEX
  8
Image
 10
306.580135382856
 20
-37.0867756233488
 42
0.0
  0
VERTEX
  8
Image
 10
297.528224630075
 20
-68.6761085162045
 42
0.0
  0
VERTEX
  8
Image
 10
261.320538816806
 20
-69.6190111304926
 42
0.0
  0
VERTEX
  8
Image
 10
290.739277298109
 20
-86.4027860969095
 42
0.0
  0
VERTEX
  8
Image
 10
279.80154704937
 20
-120.913224376651
 42
0.0
  0
VERTEX
  8
Image
 10
306.580135382857
 20
-100.784351514131
 42
0.0
  0
VERTEX
  8
Image
 10
333.358723716343
 20
-120.913224376651
 42
0.0
  0
VERTEX
  8
Image
 10
322.420993467604
 20
-86.4027860969095
 42
0.0
  0
VERTEX
  8
Image
 10
351.839731948906
 20
-69.6190111304926
 42
0.0
  0
VERTEX
  8
Image
 10
315.632046135638
 20
-68.6761085162045
 42
0.0
  0
SEQEND
  0
POLYLINE
  8
Image
 66
     1
 10
0.0
 20
0.0
 30
0.0
 70
     1
  0
VERTEX
  8
Image
 10
250.937353096759
 20
43.6707066614272
 42
0.0
  0
VERTEX
  8
Image
 10
241.885442343977
 20
12.0813737685715
 42
0.0
  0
VERTEX
  8
Image
 10
205.677756530709
 20
11.1384711542834
 42
0.0
  0
VERTEX
  8
Image
 10
235.096495012011
 20
-5.6453038121335
 42
0.0
  0
VERTEX
  8
Image
 10
224.158764763273
 20
-40.1557420918753
 42
0.0
  0
VERTEX
  8
Image
 10
250.93735309676
 20
-20.0268692293546
 42
0.0
  0
VERTEX
  8
Image
 10
277.715941430245
 20
-40.1557420918753
 42
0.0
  0
VERTEX
  8
Image
 10
266.778211181507
 20
-5.6453038121335
 42
0.0
  0
VERTEX
  8
Image
 10
296.196949662808
 20
11.1384711542834
 42
0.0
  0
VERTEX
  8
Image
 10
259.98926384954
 20
12.0813737685715
 42
0.0
  0
SEQEND
  0
POLYLINE
  8
Image
 66
     1
 10
0.0
 20
0.0
 30
0.0
 70
     1
  0
VERTEX
  8
Image
 10
193.419866937144
 20
-199.168324326267
 42
0.0
  0
VERTEX
  8
Image
 10
184.367956184363
 20
-230.757657219123
 42
0.0
  0
VERTEX
  8
Image
 10
148.160270371094
 20
-231.700559833411
 42
0.0
  0
VERTEX
  8
Image
 10
177.579008852396
 20
-248.484334799828
 42
0.0
  0
VERTEX
  8
Image
 10
166.641278603657
 20
-282.99477307957
 42
0.0
  0
VERTEX
  8
Image
 10
193.419866937145
 20
-262.865900217049
 42
0.0
  0
VERTEX
  8
Image
 10
220.19845527063
 20
-282.99477307957
 42
0.0
  0
VERTEX
  8
Image
 10
209.260725021892
 20
-248.484334799828
 42
0.0
  0
VERTEX
  8
Image
 10
238.679463503194
 20
-231.700559833411
 42
0.0
  0
VERTEX
  8
Image
 10
202.471777689925
 20
-230.757657219123
 42
0.0
  0
SEQEND
  0
POLYLINE
  8
Image
 66
     1
 10
0.0
 20
0.0
 30
0.0
 70
     1
  0
VERTEX
  8
Image
 10
306.580135382856
 20
-199.168324326267
 42
0.0
  0
VERTEX
  8
Image
 10
297.528224630075
 20
-230.757657219123
 42
0.0
  0
VERTEX
  8
Image
 10
261.320538816806
 20
-231.700559833411
 42
0.0
  0
VERTEX
  8
Image
 10
290.739277298109
 20
-248.484334799828
 42
0.0
  0
VERTEX
  8
Image
 10
279.80154704937
 20
-282.99477307957
 42
0.0
  0
VERTEX
  8
Image
 10
306.580135382857
 20
-262.865900217049
 42
0.0
  0
VERTEX
  8
Image
 10
333.358723716343
 20
-282.99477307957
 42
0.0
  0
VERTEX
  8
Image
 10
322.420993467604
 20
-248.484334799828
 42
0.0
  0
VERTEX
  8
Image
 10
351.839731948906
 20
-231.700559833411
 42
0.0
  0
VERTEX
  8
Image
 10
315.632046135638
 20
-230.757657219123
 42
0.0
  0
SEQEND
  0
POLYLINE
  8
Image
 66
     1
 10
0.0
 20
0.0
 30
0.0
 70
     1
  0
VERTEX
  8
Image
 10
250.937353096759
 20
-118.410842041491
 42
0.0
  0
VERTEX
  8
Image
 10
241.885442343977
 20
-150.000174934347
 42
0.0
  0
VERTEX
  8
Image
 10
205.677756530709
 20
-150.943077548635
 42
0.0
  0
VERTEX
  8
Image
 10
235.096495012011
 20
-167.726852515052
 42
0.0
  0
VERTEX
  8
Image
 10
224.158764763273
 20
-202.237290794794
 42
0.0
  0
VERTEX
  8
Image
 10
250.93735309676
 20
-182.108417932273
 42
0.0
  0
VERTEX
  8
Image
 10
277.715941430245
 20
-202.237290794794
 42
0.0
  0
VERTEX
  8
Image
 10
266.778211181507
 20
-167.726852515052
 42
0.0
  0
VERTEX
  8
Image
 10
296.196949662808
 20
-150.943077548635
 42
0.0
  0
VERTEX
  8
Image
 10
259.98926384954
 20
-150.000174934347
 42
0.0
  0
SEQEND
  0
POLYLINE
  8
Image
 66
     1
 10
0.0
 20
0.0
 30
0.0
 70
     1
  0
VERTEX
  8
Image
 10
193.419866937144
 20
-361.249873029186
 42
0.0
  0
VERTEX
  8
Image
 10
184.367956184363
 20
-392.839205922042
 42
0.0
  0
VERTEX
  8
Image
 10
148.160270371094
 20
-393.78210853633
 42
0.0
  0
VERTEX
  8
Image
 10
177.579008852396
 20
-410.565883502747
 42
0.0
  0
VERTEX
  8
Image
 10
166.641278603657
 20
-445.076321782488
 42
0.0
  0
VERTEX
  8
Image
 10
193.419866937145
 20
-424.947448919968
 42
0.0
  0
VERTEX
  8
Image
 10
220.19845527063
 20
-445.076321782488
 42
0.0
  0
VERTEX
  8
Image
 10
209.260725021892
 20
-410.565883502747
 42
0.0
  0
VERTEX
  8
Image
 10
238.679463503194
 20
-393.78210853633
 42
0.0
  0
VERTEX
  8
Image
 10
202.471777689925
 20
-392.839205922042
 42
0.0
  0
SEQEND
  0
POLYLINE
  8
Image
 66
     1
 10
0.0
 20
0.0
 30
0.0
 70
     1
  0
VERTEX
  8
Image
 10
306.580135382856
 20
-361.249873029186
 42
0.0
  0
VERTEX
  8
Image
 10
297.528224630075
 20
-392.839205922042
 42
0.0
  0
VERTEX
  8
Image
 10
261.320538816806
 20
-393.78210853633
 42
0.0
  0
VERTEX
  8
Image
 10
290.739277298109
 20
-410.565883502747
 42
0.0
  0
VERTEX
  8
Image
 10
279.80154704937
 20
-445.076321782488
 42
0.0
  0
VERTEX
  8
Image
 10
306.580135382857
 20
-424.947448919968
 42
0.0
  0
VERTEX
  8
Image
 10
333.358723716343
 20
-445.076321782488
 42
0.0
  0
VERTEX
  8
Image
 10
322.420993467604
 20
-410.565883502747
 42
0.0
  0
VERTEX
  8
Image
 10
351.839731948906
 20
-393.78210853633
 42
0.0
  0
VERTEX
  8
Image
 10
315.632046135638
 20
-392.839205922042
 42
0.0
  0
SEQEND
  0
POLYLINE
  8
Image
 66
     1
 10
0.0
 20
0.0
 30
0.0
 70
     1
  0
VERTEX
  8
Image
 10
250.937353096759
 20
-280.49239074441
 42
0.0
  0
VERTEX
  8
Image
 10
241.885442343977
 20
-312.081723637266
 42
0.0
  0
VERTEX
  8
Image
 10
205.677756530709
 20
-313.024626251554
 42
0.0
  0
VERTEX
  8
Image
 10
235.096495012011
 20
-329.808401217971
 42
0.0
  0
VERTEX
  8
Image
 10
224.158764763273
 20
-364.318839497713
 42
0.0
  0
VERTEX
  8
Image
 10
250.93735309676
 20
-344.189966635192
 42
0.0
  0
VERTEX
  8
Image
 10
277.715941430245
 20
-364.318839497713
 42
0.0
  0
VERTEX
  8
Image
 10
266.778211181507
 20
-329.808401217971
 42
0.0
  0
VERTEX
  8
Image
 10
296.196949662808
 20
-313.024626251554
 42
0.0
  0
VERTEX
  8
Image
 10
259.98926384954
 20
-312.081723637266
 42
0.0
  0
SEQEND
  0
POLYLINE
  8
Image
 66
     1
 10
0.0
 20
0.0
 30
0.0
 70
     1
  0
VERTEX
  8
Image
 10
193.419866937144
 20
-523.331421732105
 42
0.0
  0
VERTEX
  8
Image
 10
184.367956184363
 20
-554.92075462496
 42
0.0
  0
VERTEX
  8
Image
 10
148.160270371094
 20
-555.863657239249
 42
0.0
  0
VERTEX
  8
Image
 10
177.579008852396
 20
-572.647432205665
 42
0.0
  0
VERTEX
  8
Image
 10
166.641278603657
 20
-607.157870485407
 42
0.0
  0
VERTEX
  8
Image
 10
193.419866937145
 20
-587.028997622886
 42
0.0
  0
VERTEX
  8
Image
 10
220.19845527063
 20
-607.157870485407
 42
0.0
  0
VERTEX
  8
Image
 10
209.260725021892
 20
-572.647432205665
 42
0.0
  0
VERTEX
  8
Image
 10
238.679463503194
 20
-555.863657239249
 42
0.0
  0
VERTEX
  8
Image
 10
202.471777689925
 20
-554.92075462496
 42
0.0
  0
SEQEND
  0
POLYLINE
  8
Image
 66
     1
 10
0.0
 20
0.0
 30
0.0
 70
     1
  0
VERTEX
  8
Image
 10
306.580135382856
 20
-523.331421732105
 42
0.0
  0
VERTEX
  8
Image
 10
297.528224630075
 20
-554.92075462496
 42
0.0
  0
VERTEX
  8
Image
 10
261.320538816806
 20
-555.863657239249
 42
0.0
  0
VERTEX
  8
Image
 10
290.739277298109
 20
-572.647432205665
 42
0.0
  0
VERTEX
  8
Image
 10
279.80154704937
 20
-607.157870485407
 42
0.0
  0
VERTEX
  8
Image
 10
306.580135382857
 20
-587.028997622886
 42
0.0
  0
VERTEX
  8
Image
 10
333.358723716343
 20
-607.157870485407
 42
0.0
  0
VERTEX
  8
Image
 10
322.420993467604
 20
-572.647432205665
 42
0.0
  0
VERTEX
  8
Image
 10
351.839731948906
 20
-555.863657239249
 42
0.0
  0
VERTEX
  8
Image
 10
315.632046135638
 20
-554.92075462496
 42
0.0
  0
SEQEND
  0
POLYLINE
  8
Image
 66
     1
 10
0.0
 20
0.0
 30
0.0
 70
     1
  0
VERTEX
  8
Image
 10
250.937353096759
 20
-442.573939447329
 42
0.0
  0
VERTEX
  8
Image
 10
241.885442343977
 20
-474.163272340184
 42
0.0
  0
VERTEX
  8
Image
 10
205.677756530709
 20
-475.106174954473
 42
0.0
  0
VERTEX
  8
Image
 10
235.096495012011
 20
-491.889949920889
 42
0.0
  0
VERTEX
  8
Image
 10
224.158764763273
 20
-526.400388200631
 42
0.0
  0
VERTEX
  8
Image
 10
250.93735309676
 20
-506.271515338111
 42
0.0
  0
VERTEX
  8
Image
 10
277.715941430245
 20
-526.400388200631
 42
0.0
  0
VERTEX
  8
Image
 10
266.778211181507
 20
-491.889949920889
 42
0.0
  0
VERTEX
  8
Image
 10
296.196949662808
 20
-475.106174954473
 42
0.0
  0
VERTEX
  8
Image
 10
259.98926384954
 20
-474.163272340184
 42
0.0
  0
SEQEND
  0
POLYLINE
  8
Image
 66
     1
 10
0.0
 20
0.0
 30
0.0
 70
     1
  0
VERTEX
  8
Image
 10
193.419866937144
 20
-685.412970435023
 42
0.0
  0
VERTEX
  8
Image
 10
184.367956184363
 20
-717.002303327879
 42
0.0
  0
VERTEX
  8
Image
 10
148.160270371094
 20
-717.945205942167
 42
0.0
  0
VERTEX
  8
Image
 10
177.579008852396
 20
-734.728980908584
 42
0.0
  0
VERTEX
  8
Image
 10
166.641278603657
 20
-769.239419188326
 42
0.0
  0
VERTEX
  8
Image
 10
193.419866937145
 20
-749.110546325805
 42
0.0
  0
VERTEX
  8
Image
 10
220.19845527063
 20
-769.239419188326
 42
0.0
  0
VERTEX
  8
Image
 10
209.260725021892
 20
-734.728980908584
 42
0.0
  0
VERTEX
  8
Image
 10
238.679463503194
 20
-717.945205942167
 42
0.0
  0
VERTEX
  8
Image
 10
202.471777689925
 20
-717.002303327879
 42
0.0
  0
SEQEND
  0
POLYLINE
  8
Image
 66
     1
 10
0.0
 20
0.0
 30
0.0
 70
     1
  0
VERTEX
  8
Image
 10
306.580135382856
 20
-685.412970435023
 42
0.0
  0
VERTEX
  8
Image
 10
297.528224630075
 20
-717.002303327879
 42
0.0
  0
VERTEX
  8
Image
 10
261.320538816806
 20
-717.945205942167
 42
0.0
  0
VERTEX
  8
Image
 10
290.739277298109
 20
-734.728980908584
 42
0.0
  0
VERTEX
  8
Image
 10
279.80154704937
 20
-769.239419188326
 42
0.0
  0
VERTEX
  8
Image
 10
306.580135382857
 20
-749.110546325805
 42
0.0
  0
VERTEX
  8
Image
 10
333.358723716343
 20
-769.239419188326
 42
0.0
  0
VERTEX
  8
Image
 10
322.420993467604
 20
-734.728980908584
 42
0.0
  0
VERTEX
  8
Image
 10
351.839731948906
 20
-717.945205942167
 42
0.0
  0
VERTEX
  8
Image
 10
315.632046135638
 20
-717.002303327879
 42
0.0
  0
SEQEND
  0
POLYLINE
  8
Image
 66
     1
 10
0.0
 20
0.0
 30
0.0
 70
     1
  0
VERTEX
  8
Image
 10
250.937353096759
 20
-604.655488150247
 42
0.0
  0
VERTEX
  8
Image
 10
241.885442343977
 20
-636.244821043103
 42
0.0
  0
VERTEX
  8
Image
 10
205.677756530709
 20
-637.187723657391
 42
0.0
  0
VERTEX
  8
Image
 10
235.096495012011
 20
-653.971498623808
 42
0.0
  0
VERTEX
  8
Image
 10
224.158764763273
 20
-688.48193690355
 42
0.0
  0
VERTEX
  8
Image
 10
250.93735309676
 20
-668.353064041029
 42
0.0
  0
VERTEX
  8
Image
 10
277.715941430245
 20
-688.48193690355
 42
0.0
  0
VERTEX
  8
Image
 10
266.778211181507
 20
-653.971498623808
 42
0.0
  0
VERTEX
  8
Image
 10
296.196949662808
 20
-637.187723657391
 42
0.0
  0
VERTEX
  8
Image
 10
259.98926384954
 20
-636.244821043103
 42
0.0
  0
SEQEND
  0
POLYLINE
  8
Image
 66
     1
 10
0.0
 20
0.0
 30
0.0
 70
     1
  0
VERTEX
  8
Image
 10
193.419866937144
 20
-847.494519137942
 42
0.0
  0
VERTEX
  8
Image
 10
184.367956184363
 20
-879.083852030798
 42
0.0
  0
VERTEX
  8
Image
 10
148.160270371094
 20
-880.026754645086
 42
0.0
  0
VERTEX
  8
Image
 10
177.579008852396
 20
-896.810529611503
 42
0.0
  0
VERTEX
  8
Image
 10
166.641278603657
 20
-931.320967891245
 42
0.0
  0
VERTEX
  8
Image
 10
193.419866937145
 20
-911.192095028724
 42
0.0
  0
VERTEX
  8
Image
 10
220.19845527063
 20
-931.320967891245
 42
0.0
  0
VERTEX
  8
Image
 10
209.260725021892
 20
-896.810529611503
 42
0.0
  0
VERTEX
  8
Image
 10
238.679463503194
 20
-880.026754645086
 42
0.0
  0
VERTEX
  8
Image
 10
202.471777689925
 20
-879.083852030798
 42
0.0
  0
SEQEND
  0
POLYLINE
  8
Image
 66
     1
 10
0.0
 20
0.0
 30
0.0
 70
     1
  0
VERTEX
  8
Image
 10
306.580135382856
 20
-847.494519137942
 42
0.0
  0
VERTEX
  8
Image
 10
297.528224630075
 20
-879.083852030798
 42
0.0
  0
VERTEX
  8
Image
 10
261.320538816806
 20
-880.026754645086
 42
0.0
  0
VERTEX
  8
Image
 10
290.739277298109
 20
-896.810529611503
 42
0.0
  0
VERTEX
  8
Image
 10
279.80154704937
 20
-931.320967891245
 42
0.0
  0
VERTEX
  8
Image
 10
306.580135382857
 20
-911.192095028724
 42
0.0
  0
VERTEX
  8
Image
 10
333.358723716343
 20
-931.320967891245
 42
0.0
  0
VERTEX
  8
Image
 10
322.420993467604
 20
-896.810529611503
 42
0.0
  0
VERTEX
  8
Image
 10
351.839731948906
 20
-880.026754645086
 42
0.0
  0
VERTEX
  8
Image
 10
315.632046135638
 20
-879.083852030798
 42
0.0
  0
SEQEND
  0
POLYLINE
  8
Image
 66
     1
 10
0.0
 20
0.0
 30
0.0
 70
     1
  0
VERTEX
  8
Image
 10
250.937353096759
 20
-766.737036853166
 42
0.0
  0
VERTEX
  8
Image
 10
241.885442343977
 20
-798.326369746022
 42
0.0
  0
VERTEX
  8
Image
 10
205.677756530709
 20
-799.26927236031
 42
0.0
  0
VERTEX
  8
Image
 10
235.096495012011
 20
-816.053047326727
 42
0.0
  0
VERTEX
  8
Image
 10
224.158764763273
 20
-850.563485606468
 42
0.0
  0
VERTEX
  8
Image
 10
250.93735309676
 20
-830.434612743948
 42
0.0
  0
VERTEX
  8
Image
 10
277.715941430245
 20
-850.563485606468
 42
0.0
  0
VERTEX
  8
Image
 10
266.778211181507
 20
-816.053047326727
 42
0.0
  0
VERTEX
  8
Image
 10
296.196949662808
 20
-799.26927236031
 42
0.0
  0
VERTEX
  8
Image
 10
259.98926384954
 20
-798.326369746022
 42
0.0
  0
SEQEND
  0
POLYLINE
  8
Image
 66
     1
 10
0.0
 20
0.0
 30
0.0
 70
     1
  0
VERTEX
  8
Image
 10
145.00000058
 20
-349.619272863734
 42
0.0
  0
VERTEX
  8
Image
 10
164.555672984533
 20
-364.318839497713
 42
0.0
  0
VERTEX
  8
Image
 10
153.617942735794
 20
-329.808401217971
 42
0.0
  0
VERTEX
  8
Image
 10
183.036681217096
 20
-313.024626251554
 42
0.0
  0
VERTEX
  8
Image
 10
146.828995403828
 20
-312.081723637266
 42
0.0
  0
VERTEX
  8
Image
 10
145.00000058
 20
-305.698902603437
 42
0.0
  0
SEQEND
  0
POLYLINE
  8
Image
 66
     1
 10
0.0
 20
0.0
 30
0.0
 70
     1
  0
VERTEX
  8
Image
 10
145.00000058
 20
-187.537724160816
 42
0.0
  0
VERTEX
  8
Image
 10
164.555672984533
 20
-202.237290794794
 42
0.0
  0
VERTEX
  8
Image
 10
153.617942735794
 20
-167.726852515052
 42
0.0
  0
VERTEX
  8
Image
 10
183.036681217096
 20
-150.943077548635
 42
0.0
  0
VERTEX
  8
Image
 10
146.828995403828
 20
-150.000174934347
 42
0.0
  0
VERTEX
  8
Image
 10
145.00000058
 20
-143.617353900517
 42
0.0
  0
SEQEND
  0
POLYLINE
  8
Image
 66
     1
 10
0.0
 20
0.0
 30
0.0
 70
     1
  0
VERTEX
  8
Image
 10
145.00000058
 20
-25.4561754578972
 42
0.0
  0
VERTEX
  8
Image
 10
164.555672984533
 20
-40.1557420918753
 42
0.0
  0
VERTEX
  8
Image
 10
153.617942735794
 20
-5.6453038121335
 42
0.0
  0
VERTEX
  8
Image
 10
183.036681217096
 20
11.1384711542834
 42
0.0
  0
VERTEX
  8
Image
 10
146.828995403828
 20
12.0813737685715
 42
0.0
  0
VERTEX
  8
Image
 10
145.00000058
 20
18.4641948024013
 42
0.0
  0
SEQEND
  0
POLYLINE
  8
Image
 66
     1
 10
0.0
 20
0.0
 30
0.0
 70
     1
  0
VERTEX
  8
Image
 10
267.36943043656
 20
-979.999995445
 42
0.0
  0
VERTEX
  8
Image
 10
266.778211181507
 20
-978.134596029645
 42
0.0
  0
VERTEX
  8
Image
 10
296.196949662808
 20
-961.350821063229
 42
0.0
  0
VERTEX
  8
Image
 10
259.98926384954
 20
-960.40791844894
 42
0.0
  0
VERTEX
  8
Image
 10
250.937353096759
 20
-928.818585556085
 42
0.0
  0
VERTEX
  8
Image
 10
241.885442343977
 20
-960.40791844894
 42
0.0
  0
VERTEX
  8
Image
 10
205.677756530709
 20
-961.350821063229
 42
0.0
  0
VERTEX
  8
Image
 10
235.096495012011
 20
-978.134596029645
 42
0.0
  0
VERTEX
  8
Image
 10
234.505275756958
 20
-979.999995445
 42
0.0
  0
SEQEND
  0
POLYLINE
  8
Image
 66
     1
 10
0.0
 20
0.0
 30
0.0
 70
     1
  0
VERTEX
  8
Image
 10
154.209161990847
 20
-979.999995445
 42
0.0
  0
VERTEX
  8
Image
 10
153.617942735794
 20
-978.134596029645
 42
0.0
  0
VERTEX
  8
Image
 10
183.036681217096
 20
-961.350821063229
 42
0.0
  0
VERTEX
  8
Image
 10
146.828995403828
 20
-960.40791844894
 42
0.0
  0
VERTEX
  8
Image
 10
145.00000058
 20
-954.025097415111
 42
0.0
  0
VERTEX
  8
Image
 10
145.00000058
 20
-979.999995445
 42
0.0
  0
SEQEND
  0
POLYLINE
  8
Image
 66
     1
 10
0.0
 20
0.0
 30
0.0
 70
     1
  0
VERTEX
  8
Image
 10
145.00000058
 20
-835.863918972491
 42
0.0
  0
VERTEX
  8
Image
 10
164.555672984533
 20
-850.563485606468
 42
0.0
  0
VERTEX
  8
Image
 10
153.617942735794
 20
-816.053047326727
 42
0.0
  0
VERTEX
  8
Image
 10
183.036681217096
 20
-799.26927236031
 42
0.0
  0
VERTEX
  8
Image
 10
146.828995403828
 20
-798.326369746022
 42
0.0
  0
VERTEX
  8
Image
 10
145.00000058
 20
-791.943548712193
 42
0.0
  0
SEQEND
  0
POLYLINE
  8
Image
 66
     1
 10
0.0
 20
0.0
 30
0.0
 70
     1
  0
VERTEX
  8
Image
 10
145.00000058
 20
-673.782370269572
 42
0.0
  0
VERTEX
  8
Image
 10
164.555672984533
 20
-688.48193690355
 42
0.0
  0
VERTEX
  8
Image
 10
153.617942735794
 20
-653.971498623808
 42
0.0
  0
VERTEX
  8
Image
 10
183.036681217096
 20
-637.187723657391
 42
0.0
  0
VERTEX
  8
Image
 10
146.828995403828
 20
-636.244821043103
 42
0.0
  0
VERTEX
  8
Image
 10
145.00000058
 20
-629.862000009273
 42
0.0
  0
SEQEND
  0
POLYLINE
  8
Image
 66
     1
 10
0.0
 20
0.0
 30
0.0
 70
     1
  0
VERTEX
  8
Image
 10
145.00000058
 20
622.870019353777
 42
0.0
  0
VERTEX
  8
Image
 10
164.555672984533
 20
608.170452719799
 42
0.0
  0
VERTEX
  8
Image
 10
153.617942735794
 20
642.680890999541
 42
0.0
  0
VERTEX
  8
Image
 10
183.036681217096
 20
659.464665965958
 42
0.0
  0
VERTEX
  8
Image
 10
146.828995403828
 20
660.407568580246
 42
0.0
  0
VERTEX
  8
Image
 10
145.00000058
 20
666.790389614075
 42
0.0
  0
SEQEND
  0
POLYLINE
  8
Image
 66
     1
 10
0.0
 20
0.0
 30
0.0
 70
     1
  0
VERTEX
  8
Image
 10
145.00000058
 20
784.951568056696
 42
0.0
  0
VERTEX
  8
Image
 10
164.555672984533
 20
770.252001422718
 42
0.0
  0
VERTEX
  8
Image
 10
153.617942735794
 20
804.76243970246
 42
0.0
  0
VERTEX
  8
Image
 10
183.036681217096
 20
821.546214668876
 42
0.0
  0
VERTEX
  8
Image
 10
146.828995403828
 20
822.489117283165
 42
0.0
  0
VERTEX
  8
Image
 10
145.00000058
 20
828.871938316994
 42
0.0
  0
SEQEND
  0
POLYLINE
  8
Image
 66
     1
 10
0.0
 20
0.0
 30
0.0
 70
     1
  0
VERTEX
  8
Image
 10
145.00000058
 20
947.033116759615
 42
0.0
  0
VERTEX
  8
Image
 10
164.555672984533
 20
932.333550125637
 42
0.0
  0
VERTEX
  8
Image
 10
153.617942735794
 20
966.843988405378
 42
0.0
  0
VERTEX
  8
Image
 10
176.677899827165
 20
979.999995445
 42
0.0
  0
VERTEX
  8
Image
 10
145.00000058
 20
979.999995445
 42
0.0
  0
SEQEND
  0
POLYLINE
  8
Image
 66
     1
 10
0.0
 20
0.0
 30
0.0
 70
     1
  0
VERTEX
  8
Image
 10
145.00000058
 20
136.625373245022
 42
0.0
  0
VERTEX
  8
Image
 10
164.555672984533
 20
121.925806611043
 42
0.0
  0
VERTEX
  8
Image
 10
153.617942735794
 20
156.436244890785
 42
0.0
  0
VERTEX
  8
Image
 10
183.036681217096
 20
173.220019857202
 42
0.0
  0
VERTEX
  8
Image
 10
146.828995403828
 20
174.16292247149
 42
0.0
  0
VERTEX
  8
Image
 10
145.00000058
 20
180.54574350532
 42
0.0
  0
SEQEND
  0
POLYLINE
  8
Image
 66
     1
 10
0.0
 20
0.0
 30
0.0
 70
     1
  0
VERTEX
  8
Image
 10
145.00000058
 20
298.70692194794
 42
0.0
  0
VERTEX
  8
Image
 10
164.555672984533
 20
284.007355313962
 42
0.0
  0
VERTEX
  8
Image
 10
153.617942735794
 20
318.517793593704
 42
0.0
  0
VERTEX
  8
Image
 10
183.036681217096
 20
335.301568560121
 42
0.0
  0
VERTEX
  8
Image
 10
146.828995403828
 20
336.244471174409
 42
0.0
  0
VERTEX
  8
Image
 10
145.00000058
 20
342.627292208239
 42
0.0
  0
SEQEND
  0
POLYLINE
  8
Image
 66
     1
 10
0.0
 20
0.0
 30
0.0
 70
     1
  0
VERTEX
  8
Image
 10
145.00000058
 20
460.788470650859
 42
0.0
  0
VERTEX
  8
Image
 10
164.555672984533
 20
446.088904016881
 42
0.0
  0
VERTEX
  8
Image
 10
153.617942735794
 20
480.599342296622
 42
0.0
  0
VERTEX
  8
Image
 10
183.036681217096
 20
497.383117263039
 42
0.0
  0
VERTEX
  8
Image
 10
146.828995403828
 20
498.326019877327
 42
0.0
  0
VERTEX
  8
Image
 10
145.00000058
 20
504.708840911157
 42
0.0
  0
SEQEND
  0
POLYLINE
  8
Image
 66
     1
 10
0.0
 20
0.0
 30
0.0
 70
     1
  0
VERTEX
  8
Image
 10
212.03653792064
 20
979.999995445
 42
0.0
  0
VERTEX
  8
Image
 10
235.096495012011
 20
966.843988405378
 42
0.0
  0
VERTEX
  8
Image
 10
224.158764763273
 20
932.333550125637
 42
0.0
  0
VERTEX
  8
Image
 10
250.93735309676
 20
952.462422988157
 42
0.0
  0
VERTEX
  8
Image
 10
277.715941430245
 20
932.333550125637
 42
0.0
  0
VERTEX
  8
Image
 10
266.778211181507
 20
966.843988405378
 42
0.0
  0
VERTEX
  8
Image
 10
289.838168272878
 20
979.999995445
 42
0.0
  0
SEQEND
  0
POLYLINE
  8
Image
 66
     1
 10
0.0
 20
0.0
 30
0.0
 70
     1
  0
VERTEX
  8
Image
 10
355.00000174
 20
660.406378247821
 42
0.0
  0
VERTEX
  8
Image
 10
318.838024976421
 20
659.464665965958
 42
0.0
  0
VERTEX
  8
Image
 10
348.256763457723
 20
642.680890999541
 42
0.0
  0
VERTEX
  8
Image
 10
337.319033208984
 20
608.170452719799
 42
0.0
  0
VERTEX
  8
Image
 10
355.00000174
 20
621.460845895678
 42
0.0
  0
SEQEND
  0
POLYLINE
  8
Image
 66
     1
 10
0.0
 20
0.0
 30
0.0
 70
     1
  0
VERTEX
  8
Image
 10
355.00000174
 20
822.48792695074
 42
0.0
  0
VERTEX
  8
Image
 10
318.838024976421
 20
821.546214668876
 42
0.0
  0
VERTEX
  8
Image
 10
348.256763457723
 20
804.76243970246
 42
0.0
  0
VERTEX
  8
Image
 10
337.319033208984
 20
770.252001422718
 42
0.0
  0
VERTEX
  8
Image
 10
355.00000174
 20
783.542394598596
 42
0.0
  0
SEQEND
  0
POLYLINE
  8
Image
 66
     1
 10
0.0
 20
0.0
 30
0.0
 70
     1
  0
VERTEX
  8
Image
 10
325.196806366352
 20
979.999995445
 42
0.0
  0
VERTEX
  8
Image
 10
348.256763457723
 20
966.843988405378
 42
0.0
  0
VERTEX
  8
Image
 10
337.319033208984
 20
932.333550125637
 42
0.0
  0
VERTEX
  8
Image
 10
355.00000174
 20
945.623943301515
 42
0.0
  0
VERTEX
  8
Image
 10
355.00000174
 20
979.999995445
 42
0.0
  0
SEQEND
  0
POLYLINE
  8
Image
 66
     1
 10
0.0
 20
0.0
 30
0.0
 70
     1
  0
VERTEX
  8
Image
 10
355.00000174
 20
174.161732139065
 42
0.0
  0
VERTEX
  8
Image
 10
318.838024976421
 20
173.220019857202
 42
0.0
  0
VERTEX
  8
Image
 10
348.256763457723
 20
156.436244890785
 42
0.0
  0
VERTEX
  8
Image
 10
337.319033208984
 20
121.925806611043
 42
0.0
  0
VERTEX
  8
Image
 10
355.00000174
 20
135.216199786922
 42
0.0
  0
SEQEND
  0
POLYLINE
  8
Image
 66
     1
 10
0.0
 20
0.0
 30
0.0
 70
     1
  0
VERTEX
  8
Image
 10
355.00000174
 20
336.243280841984
 42
0.0
  0
VERTEX
  8
Image
 10
318.838024976421
 20
335.301568560121
 42
0.0
  0
VERTEX
  8
Image
 10
348.256763457723
 20
318.517793593704
 42
0.0
  0
VERTEX
  8
Image
 10
337.319033208984
 20
284.007355313962
 42
0.0
  0
VERTEX
  8
Image
 10
355.00000174
 20
297.297748489841
 42
0.0
  0
SEQEND
  0
POLYLINE
  8
Image
 66
     1
 10
0.0
 20
0.0
 30
0.0
 70
     1
  0
VERTEX
  8
Image
 10
355.00000174
 20
498.324829544903
 42
0.0
  0
VERTEX
  8
Image
 10
318.838024976421
 20
497.383117263039
 42
0.0
  0
VERTEX
  8
Image
 10
348.256763457723
 20
480.599342296622
 42
0.0
  0
VERTEX
  8
Image
 10
337.319033208984
 20
446.088904016881
 42
0.0
  0
VERTEX
  8
Image
 10
355.00000174
 20
459.379297192759
 42
0.0
  0
SEQEND
  0
POLYLINE
  8
Image
 66
     1
 10
0.0
 20
0.0
 30
0.0
 70
     1
  0
VERTEX
  8
Image
 10
355.00000174
 20
-474.164462672609
 42
0.0
  0
VERTEX
  8
Image
 10
318.838024976421
 20
-475.106174954473
 42
0.0
  0
VERTEX
  8
Image
 10
348.256763457723
 20
-491.889949920889
 42
0.0
  0
VERTEX
  8
Image
 10
337.319033208984
 20
-526.400388200631
 42
0.0
  0
VERTEX
  8
Image
 10
355.00000174
 20
-513.109995024753
 42
0.0
  0
SEQEND
  0
POLYLINE
  8
Image
 66
     1
 10
0.0
 20
0.0
 30
0.0
 70
     1
  0
VERTEX
  8
Image
 10
355.00000174
 20
-312.08291396969
 42
0.0
  0
VERTEX
  8
Image
 10
318.838024976421
 20
-313.024626251554
 42
0.0
  0
VERTEX
  8
Image
 10
348.256763457723
 20
-329.808401217971
 42
0.0
  0
VERTEX
  8
Image
 10
337.319033208984
 20
-364.318839497713
 42
0.0
  0
VERTEX
  8
Image
 10
355.00000174
 20
-351.028446321834
 42
0.0
  0
SEQEND
  0
POLYLINE
  8
Image
 66
     1
 10
0.0
 20
0.0
 30
0.0
 70
     1
  0
VERTEX
  8
Image
 10
355.00000174
 20
-150.001365266772
 42
0.0
  0
VERTEX
  8
Image
 10
318.838024976421
 20
-150.943077548635
 42
0.0
  0
VERTEX
  8
Image
 10
348.256763457723
 20
-167.726852515052
 42
0.0
  0
VERTEX
  8
Image
 10
337.319033208984
 20
-202.237290794794
 42
0.0
  0
VERTEX
  8
Image
 10
355.00000174
 20
-188.946897618915
 42
0.0
  0
SEQEND
  0
POLYLINE
  8
Image
 66
     1
 10
0.0
 20
0.0
 30
0.0
 70
     1
  0
VERTEX
  8
Image
 10
355.00000174
 20
12.0801834361468
 42
0.0
  0
VERTEX
  8
Image
 10
318.838024976421
 20
11.1384711542834
 42
0.0
  0
VERTEX
  8
Image
 10
348.256763457723
 20
-5.6453038121335
 42
0.0
  0
VERTEX
  8
Image
 10
337.319033208984
 20
-40.1557420918753
 42
0.0
  0
VERTEX
  8
Image
 10
355.00000174
 20
-26.8653489159967
 42
0.0
  0
SEQEND
  0
POLYLINE
  8
Image
 66
     1
 10
0.0
 20
0.0
 30
0.0
 70
     1
  0
VERTEX
  8
Image
 10
355.00000174
 20
-960.409108781365
 42
0.0
  0
VERTEX
  8
Image
 10
318.838024976421
 20
-961.350821063229
 42
0.0
  0
VERTEX
  8
Image
 10
348.256763457723
 20
-978.134596029645
 42
0.0
  0
VERTEX
  8
Image
 10
347.66554420267
 20
-979.999995445
 42
0.0
  0
VERTEX
  8
Image
 10
355.00000174
 20
-979.999995445
 42
0.0
  0
SEQEND
  0
POLYLINE
  8
Image
 66
     1
 10
0.0
 20
0.0
 30
0.0
 70
     1
  0
VERTEX
  8
Image
 10
355.00000174
 20
-798.327560078446
 42
0.0
  0
VERTEX
  8
Image
 10
318.838024976421
 20
-799.26927236031
 42
0.0
  0
VERTEX
  8
Image
 10
348.256763457723
 20
-816.053047326727
 42
0.0
  0
VERTEX
  8
Image
 10
337.319033208984
 20
-850.563485606468
 42
0.0
  0
VERTEX
  8
Image
 10
355.00000174
 20
-837.27309243059
 42
0.0
  0
SEQEND
  0
POLYLINE
  8
Image
 66
     1
 10
0.0
 20
0.0
 30
0.0
 70
     1
  0
VERTEX
  8
Image
 10
355.00000174
 20
-636.246011375528
 42
0.0
  0
VERTEX
  8
Image
 10
318.838024976421
 20
-637.187723657391
 42
0.0
  0
VERTEX
  8
Image
 10
348.256763457723
 20
-653.971498623808
 42
0.0
  0
VERTEX
  8
Image
 10
337.319033208984
 20
-688.48193690355
 42
0.0
  0
VERTEX
  8
Image
 10
355.00000174
 20
-675.191543727671
 42
0.0
  0
SEQEND
  0
POLYLINE
  8
Image
 66
     1
 10
0.0
 20
0.0
 30
0.0
 70
     1
  0
VERTEX
  8
Image
 10
145.00000058
 20
-511.700821566653
 42
0.0
  0
VERTEX
  8
Image
 10
164.555672984533
 20
-526.400388200631
 42
0.0
  0
VERTEX
  8
Image
 10
153.617942735794
 20
-491.889949920889
 42
0.0
  0
VERTEX
  8
Image
 10
183.036681217096
 20
-475.106174954473
 42
0.0
  0
VERTEX
  8
Image
 10
146.828995403828
 20
-474.163272340184
 42
0.0
  0
VERTEX
  8
Image
 10
145.00000058
 20
-467.780451306355
 42
0.0
  0
SEQEND
  0
POLYLINE
  8
Image
 66
     1
 10
0.0
 20
0.0
 30
0.0
 70
     1
  0
VERTEX
  8
Image
 10
443.419868097144
 20
935.402516594163
 42
0.0
  0
VERTEX
  8
Image
 10
434.367957344363
 20
903.813183701307
 42
0.0
  0
VERTEX
  8
Image
 10
398.160271531094
 20
902.870281087019
 42
0.0
  0
VERTEX
  8
Image
 10
427.579010012396
 20
886.086506120602
 42
0.0
  0
VERTEX
  8
Image
 10
416.641279763657
 20
851.57606784086
 42
0.0
  0
VERTEX
  8
Image
 10
443.419868097145
 20
871.704940703381
 42
0.0
  0
VERTEX
  8
Image
 10
470.19845643063
 20
851.57606784086
 42
0.0
  0
VERTEX
  8
Image
 10
459.260726181892
 20
886.086506120602
 42
0.0
  0
VERTEX
  8
Image
 10
488.679464663194
 20
902.870281087019
 42
0.0
  0
VERTEX
  8
Image
 10
452.471778849925
 20
903.813183701307
 42
0.0
  0
SEQEND
  0
POLYLINE
  8
Image
 66
     1
 10
0.0
 20
0.0
 30
0.0
 70
     1
  0
VERTEX
  8
Image
 10
556.580136542856
 20
935.402516594163
 42
0.0
  0
VERTEX
  8
Image
 10
547.528225790075
 20
903.813183701307
 42
0.0
  0
VERTEX
  8
Image
 10
511.320539976806
 20
902.870281087019
 42
0.0
  0
VERTEX
  8
Image
 10
540.739278458109
 20
886.086506120602
 42
0.0
  0
VERTEX
  8
Image
 10
529.80154820937
 20
851.57606784086
 42
0.0
  0
VERTEX
  8
Image
 10
556.580136542857
 20
871.704940703381
 42
0.0
  0
VERTEX
  8
Image
 10
583.358724876343
 20
851.57606784086
 42
0.0
  0
VERTEX
  8
Image
 10
572.420994627604
 20
886.086506120602
 42
0.0
  0
VERTEX
  8
Image
 10
601.839733108906
 20
902.870281087019
 42
0.0
  0
VERTEX
  8
Image
 10
565.632047295638
 20
903.813183701307
 42
0.0
  0
SEQEND
  0
POLYLINE
  8
Image
 66
     1
 10
0.0
 20
0.0
 30
0.0
 70
     1
  0
VERTEX
  8
Image
 10
443.419868097144
 20
773.320967891244
 42
0.0
  0
VERTEX
  8
Image
 10
434.367957344363
 20
741.731634998389
 42
0.0
  0
VERTEX
  8
Image
 10
398.160271531094
 20
740.788732384101
 42
0.0
  0
VERTEX
  8
Image
 10
427.579010012396
 20
724.004957417684
 42
0.0
  0
VERTEX
  8
Image
 10
416.641279763657
 20
689.494519137942
 42
0.0
  0
VERTEX
  8
Image
 10
443.419868097145
 20
709.623392000463
 42
0.0
  0
VERTEX
  8
Image
 10
470.19845643063
 20
689.494519137942
 42
0.0
  0
VERTEX
  8
Image
 10
459.260726181892
 20
724.004957417684
 42
0.0
  0
VERTEX
  8
Image
 10
488.679464663194
 20
740.788732384101
 42
0.0
  0
VERTEX
  8
Image
 10
452.471778849925
 20
741.731634998389
 42
0.0
  0
SEQEND
  0
POLYLINE
  8
Image
 66
     1
 10
0.0
 20
0.0
 30
0.0
 70
     1
  0
VERTEX
  8
Image
 10
556.580136542856
 20
773.320967891244
 42
0.0
  0
VERTEX
  8
Image
 10
547.528225790075
 20
741.731634998389
 42
0.0
  0
VERTEX
  8
Image
 10
511.320539976806
 20
740.788732384101
 42
0.0
  0
VERTEX
  8
Image
 10
540.739278458109
 20
724.004957417684
 42
0.0
  0
VERTEX
  8
Image
 10
529.80154820937
 20
689.494519137942
 42
0.0
  0
VERTEX
  8
Image
 10
556.580136542857
 20
709.623392000463
 42
0.0
  0
VERTEX
  8
Image
 10
583.358724876343
 20
689.494519137942
 42
0.0
  0
VERTEX
  8
Image
 10
572.420994627604
 20
724.004957417684
 42
0.0
  0
VERTEX
  8
Image
 10
601.839733108906
 20
740.788732384101
 42
0.0
  0
VERTEX
  8
Image
 10
565.632047295638
 20
741.731634998389
 42
0.0
  0
SEQEND
  0
POLYLINE
  8
Image
 66
     1
 10
0.0
 20
0.0
 30
0.0
 70
     1
  0
VERTEX
  8
Image
 10
500.937354256759
 20
854.07845017602
 42
0.0
  0
VERTEX
  8
Image
 10
491.885443503978
 20
822.489117283165
 42
0.0
  0
VERTEX
  8
Image
 10
455.677757690709
 20
821.546214668876
 42
0.0
  0
VERTEX
  8
Image
 10
485.096496172011
 20
804.76243970246
 42
0.0
  0
VERTEX
  8
Image
 10
474.158765923273
 20
770.252001422718
 42
0.0
  0
VERTEX
  8
Image
 10
500.93735425676
 20
790.380874285239
 42
0.0
  0
VERTEX
  8
Image
 10
527.715942590245
 20
770.252001422718
 42
0.0
  0
VERTEX
  8
Image
 10
516.778212341507
 20
804.76243970246
 42
0.0
  0
VERTEX
  8
Image
 10
546.196950822809
 20
821.546214668876
 42
0.0
  0
VERTEX
  8
Image
 10
509.98926500954
 20
822.489117283165
 42
0.0
  0
SEQEND
  0
POLYLINE
  8
Image
 66
     1
 10
0.0
 20
0.0
 30
0.0
 70
     1
  0
VERTEX
  8
Image
 10
443.419868097144
 20
611.239419188326
 42
0.0
  0
VERTEX
  8
Image
 10
434.367957344363
 20
579.65008629547
 42
0.0
  0
VERTEX
  8
Image
 10
398.160271531094
 20
578.707183681182
 42
0.0
  0
VERTEX
  8
Image
 10
427.579010012396
 20
561.923408714765
 42
0.0
  0
VERTEX
  8
Image
 10
416.641279763657
 20
527.412970435023
 42
0.0
  0
VERTEX
  8
Image
 10
443.419868097145
 20
547.541843297544
 42
0.0
  0
VERTEX
  8
Image
 10
470.19845643063
 20
527.412970435023
 42
0.0
  0
VERTEX
  8
Image
 10
459.260726181892
 20
561.923408714765
 42
0.0
  0
VERTEX
  8
Image
 10
488.679464663194
 20
578.707183681182
 42
0.0
  0
VERTEX
  8
Image
 10
452.471778849925
 20
579.65008629547
 42
0.0
  0
SEQEND
  0
POLYLINE
  8
Image
 66
     1
 10
0.0
 20
0.0
 30
0.0
 70
     1
  0
VERTEX
  8
Image
 10
556.580136542856
 20
611.239419188326
 42
0.0
  0
VERTEX
  8
Image
 10
547.528225790075
 20
579.65008629547
 42
0.0
  0
VERTEX
  8
Image
 10
511.320539976806
 20
578.707183681182
 42
0.0
  0
VERTEX
  8
Image
 10
540.739278458109
 20
561.923408714765
 42
0.0
  0
VERTEX
  8
Image
 10
529.80154820937
 20
527.412970435023
 42
0.0
  0
VERTEX
  8
Image
 10
556.580136542857
 20
547.541843297544
 42
0.0
  0
VERTEX
  8
Image
 10
583.358724876343
 20
527.412970435023
 42
0.0
  0
VERTEX
  8
Image
 10
572.420994627604
 20
561.923408714765
 42
0.0
  0
VERTEX
  8
Image
 10
601.839733108906
 20
578.707183681182
 42
0.0
  0
VERTEX
  8
Image
 10
565.632047295638
 20
579.65008629547
 42
0.0
  0
SEQEND
  0
POLYLINE
  8
Image
 66
     1
 10
0.0
 20
0.0
 30
0.0
 70
     1
  0
VERTEX
  8
Image
 10
500.937354256759
 20
691.996901473102
 42
0.0
  0
VERTEX
  8
Image
 10
491.885443503978
 20
660.407568580246
 42
0.0
  0
VERTEX
  8
Image
 10
455.677757690709
 20
659.464665965958
 42
0.0
  0
VERTEX
  8
Image
 10
485.096496172011
 20
642.680890999541
 42
0.0
  0
VERTEX
  8
Image
 10
474.158765923273
 20
608.170452719799
 42
0.0
  0
VERTEX
  8
Image
 10
500.93735425676
 20
628.29932558232
 42
0.0
  0
VERTEX
  8
Image
 10
527.715942590245
 20
608.170452719799
 42
0.0
  0
VERTEX
  8
Image
 10
516.778212341507
 20
642.680890999541
 42
0.0
  0
VERTEX
  8
Image
 10
546.196950822809
 20
659.464665965958
 42
0.0
  0
VERTEX
  8
Image
 10
509.98926500954
 20
660.407568580246
 42
0.0
  0
SEQEND
  0
POLYLINE
  8
Image
 66
     1
 10
0.0
 20
0.0
 30
0.0
 70
     1
  0
VERTEX
  8
Image
 10
443.419868097144
 20
449.157870485407
 42
0.0
  0
VERTEX
  8
Image
 10
434.367957344363
 20
417.568537592551
 42
0.0
  0
VERTEX
  8
Image
 10
398.160271531094
 20
416.625634978263
 42
0.0
  0
VERTEX
  8
Image
 10
427.579010012396
 20
399.841860011846
 42
0.0
  0
VERTEX
  8
Image
 10
416.641279763657
 20
365.331421732105
 42
0.0
  0
VERTEX
  8
Image
 10
443.419868097145
 20
385.460294594625
 42
0.0
  0
VERTEX
  8
Image
 10
470.19845643063
 20
365.331421732105
 42
0.0
  0
VERTEX
  8
Image
 10
459.260726181892
 20
399.841860011846
 42
0.0
  0
VERTEX
  8
Image
 10
488.679464663194
 20
416.625634978263
 42
0.0
  0
VERTEX
  8
Image
 10
452.471778849925
 20
417.568537592551
 42
0.0
  0
SEQEND
  0
POLYLINE
  8
Image
 66
     1
 10
0.0
 20
0.0
 30
0.0
 70
     1
  0
VERTEX
  8
Image
 10
556.580136542856
 20
449.157870485407
 42
0.0
  0
VERTEX
  8
Image
 10
547.528225790075
 20
417.568537592551
 42
0.0
  0
VERTEX
  8
Image
 10
511.320539976806
 20
416.625634978263
 42
0.0
  0
VERTEX
  8
Image
 10
540.739278458109
 20
399.841860011846
 42
0.0
  0
VERTEX
  8
Image
 10
529.80154820937
 20
365.331421732105
 42
0.0
  0
VERTEX
  8
Image
 10
556.580136542857
 20
385.460294594625
 42
0.0
  0
VERTEX
  8
Image
 10
583.358724876343
 20
365.331421732105
 42
0.0
  0
VERTEX
  8
Image
 10
572.420994627604
 20
399.841860011846
 42
0.0
  0
VERTEX
  8
Image
 10
601.839733108906
 20
416.625634978263
 42
0.0
  0
VERTEX
  8
Image
 10
565.632047295638
 20
417.568537592551
 42
0.0
  0
SEQEND
  0
POLYLINE
  8
Image
 66
     1
 10
0.0
 20
0.0
 30
0.0
 70
     1
  0
VERTEX
  8
Image
 10
500.937354256759
 20
529.915352770183
 42
0.0
  0
VERTEX
  8
Image
 10
491.885443503978
 20
498.326019877327
 42
0.0
  0
VERTEX
  8
Image
 10
455.677757690709
 20
497.383117263039
 42
0.0
  0
VERTEX
  8
Image
 10
485.096496172011
 20
480.599342296622
 42
0.0
  0
VERTEX
  8
Image
 10
474.158765923273
 20
446.088904016881
 42
0.0
  0
VERTEX
  8
Image
 10
500.93735425676
 20
466.217776879401
 42
0.0
  0
VERTEX
  8
Image
 10
527.715942590245
 20
446.088904016881
 42
0.0
  0
VERTEX
  8
Image
 10
516.778212341507
 20
480.599342296622
 42
0.0
  0
VERTEX
  8
Image
 10
546.196950822809
 20
497.383117263039
 42
0.0
  0
VERTEX
  8
Image
 10
509.98926500954
 20
498.326019877327
 42
0.0
  0
SEQEND
  0
POLYLINE
  8
Image
 66
     1
 10
0.0
 20
0.0
 30
0.0
 70
     1
  0
VERTEX
  8
Image
 10
443.419868097144
 20
287.076321782488
 42
0.0
  0
VERTEX
  8
Image
 10
434.367957344363
 20
255.486988889633
 42
0.0
  0
VERTEX
  8
Image
 10
398.160271531094
 20
254.544086275345
 42
0.0
  0
VERTEX
  8
Image
 10
427.579010012396
 20
237.760311308928
 42
0.0
  0
VERTEX
  8
Image
 10
416.641279763657
 20
203.249873029186
 42
0.0
  0
VERTEX
  8
Image
 10
443.419868097145
 20
223.378745891707
 42
0.0
  0
VERTEX
  8
Image
 10
470.19845643063
 20
203.249873029186
 42
0.0
  0
VERTEX
  8
Image
 10
459.260726181892
 20
237.760311308928
 42
0.0
  0
VERTEX
  8
Image
 10
488.679464663194
 20
254.544086275345
 42
0.0
  0
VERTEX
  8
Image
 10
452.471778849925
 20
255.486988889633
 42
0.0
  0
SEQEND
  0
POLYLINE
  8
Image
 66
     1
 10
0.0
 20
0.0
 30
0.0
 70
     1
  0
VERTEX
  8
Image
 10
556.580136542856
 20
287.076321782488
 42
0.0
  0
VERTEX
  8
Image
 10
547.528225790075
 20
255.486988889633
 42
0.0
  0
VERTEX
  8
Image
 10
511.320539976806
 20
254.544086275345
 42
0.0
  0
VERTEX
  8
Image
 10
540.739278458109
 20
237.760311308928
 42
0.0
  0
VERTEX
  8
Image
 10
529.80154820937
 20
203.249873029186
 42
0.0
  0
VERTEX
  8
Image
 10
556.580136542857
 20
223.378745891707
 42
0.0
  0
VERTEX
  8
Image
 10
583.358724876343
 20
203.249873029186
 42
0.0
  0
VERTEX
  8
Image
 10
572.420994627604
 20
237.760311308928
 42
0.0
  0
VERTEX
  8
Image
 10
601.839733108906
 20
254.544086275345
 42
0.0
  0
VERTEX
  8
Image
 10
565.632047295638
 20
255.486988889633
 42
0.0
  0
SEQEND
  0
POLYLINE
  8
Image
 66
     1
 10
0.0
 20
0.0
 30
0.0
 70
     1
  0
VERTEX
  8
Image
 10
500.937354256759
 20
367.833804067265
 42
0.0
  0
VERTEX
  8
Image
 10
491.885443503978
 20
336.244471174409
 42
0.0
  0
VERTEX
  8
Image
 10
455.677757690709
 20
335.301568560121
 42
0.0
  0
VERTEX
  8
Image
 10
485.096496172011
 20
318.517793593704
 42
0.0
  0
VERTEX
  8
Image
 10
474.158765923273
 20
284.007355313962
 42
0.0
  0
VERTEX
  8
Image
 10
500.93735425676
 20
304.136228176483
 42
0.0
  0
VERTEX
  8
Image
 10
527.715942590245
 20
284.007355313962
 42
0.0
  0
VERTEX
  8
Image
 10
516.778212341507
 20
318.517793593704
 42
0.0
  0
VERTEX
  8
Image
 10
546.196950822809
 20
335.301568560121
 42
0.0
  0
VERTEX
  8
Image
 10
509.98926500954
 20
336.244471174409
 42
0.0
  0
SEQEND
  0
POLYLINE
  8
Image
 66
     1
 10
0.0
 20
0.0
 30
0.0
 70
     1
  0
VERTEX
  8
Image
 10
443.419868097144
 20
124.99477307957
 42
0.0
  0
VERTEX
  8
Image
 10
434.367957344363
 20
93.4054401867141
 42
0.0
  0
VERTEX
  8
Image
 10
398.160271531094
 20
92.462537572426
 42
0.0
  0
VERTEX
  8
Image
 10
427.579010012396
 20
75.6787626060092
 42
0.0
  0
VERTEX
  8
Image
 10
416.641279763657
 20
41.1683243262674
 42
0.0
  0
VERTEX
  8
Image
 10
443.419868097145
 20
61.2971971887881
 42
0.0
  0
VERTEX
  8
Image
 10
470.19845643063
 20
41.1683243262674
 42
0.0
  0
VERTEX
  8
Image
 10
459.260726181892
 20
75.6787626060092
 42
0.0
  0
VERTEX
  8
Image
 10
488.679464663194
 20
92.462537572426
 42
0.0
  0
VERTEX
  8
Image
 10
452.471778849925
 20
93.4054401867141
 42
0.0
  0
SEQEND
  0
POLYLINE
  8
Image
 66
     1
 10
0.0
 20
0.0
 30
0.0
 70
     1
  0
VERTEX
  8
Image
 10
556.580136542856
 20
124.99477307957
 42
0.0
  0
VERTEX
  8
Image
 10
547.528225790075
 20
93.4054401867141
 42
0.0
  0
VERTEX
  8
Image
 10
511.320539976806
 20
92.462537572426
 42
0.0
  0
VERTEX
  8
Image
 10
540.739278458109
 20
75.6787626060092
 42
0.0
  0
VERTEX
  8
Image
 10
529.80154820937
 20
41.1683243262674
 42
0.0
  0
VERTEX
  8
Image
 10
556.580136542857
 20
61.2971971887881
 42
0.0
  0
VERTEX
  8
Image
 10
583.358724876343
 20
41.1683243262674
 42
0.0
  0
VERTEX
  8
Image
 10
572.420994627604
 20
75.6787626060092
 42
0.0
  0
VERTEX
  8
Image
 10
601.839733108906
 20
92.462537572426
 42
0.0
  0
VERTEX
  8
Image
 10
565.632047295638
 20
93.4054401867141
 42
0.0
  0
SEQEND
  0
POLYLINE
  8
Image
 66
     1
 10
0.0
 20
0.0
 30
0.0
 70
     1
  0
VERTEX
  8
Image
 10
500.937354256759
 20
205.752255364346
 42
0.0
  0
VERTEX
  8
Image
 10
491.885443503978
 20
174.16292247149
 42
0.0
  0
VERTEX
  8
Image
 10
455.677757690709
 20
173.220019857202
 42
0.0
  0
VERTEX
  8
Image
 10
485.096496172011
 20
156.436244890785
 42
0.0
  0
VERTEX
  8
Image
 10
474.158765923273
 20
121.925806611043
 42
0.0
  0
VERTEX
  8
Image
 10
500.93735425676
 20
142.054679473564
 42
0.0
  0
VERTEX
  8
Image
 10
527.715942590245
 20
121.925806611043
 42
0.0
  0
VERTEX
  8
Image
 10
516.778212341507
 20
156.436244890785
 42
0.0
  0
VERTEX
  8
Image
 10
546.196950822809
 20
173.220019857202
 42
0.0
  0
VERTEX
  8
Image
 10
509.98926500954
 20
174.16292247149
 42
0.0
  0
SEQEND
  0
POLYLINE
  8
Image
 66
     1
 10
0.0
 20
0.0
 30
0.0
 70
     1
  0
VERTEX
  8
Image
 10
443.419868097144
 20
-37.0867756233488
 42
0.0
  0
VERTEX
  8
Image
 10
434.367957344363
 20
-68.6761085162045
 42
0.0
  0
VERTEX
  8
Image
 10
398.160271531094
 20
-69.6190111304926
 42
0.0
  0
VERTEX
  8
Image
 10
427.579010012396
 20
-86.4027860969095
 42
0.0
  0
VERTEX
  8
Image
 10
416.641279763657
 20
-120.913224376651
 42
0.0
  0
VERTEX
  8
Image
 10
443.419868097145
 20
-100.784351514131
 42
0.0
  0
VERTEX
  8
Image
 10
470.19845643063
 20
-120.913224376651
 42
0.0
  0
VERTEX
  8
Image
 10
459.260726181892
 20
-86.4027860969095
 42
0.0
  0
VERTEX
  8
Image
 10
488.679464663194
 20
-69.6190111304926
 42
0.0
  0
VERTEX
  8
Image
 10
452.471778849925
 20
-68.6761085162045
 42
0.0
  0
SEQEND
  0
POLYLINE
  8
Image
 66
     1
 10
0.0
 20
0.0
 30
0.0
 70
     1
  0
VERTEX
  8
Image
 10
556.580136542856
 20
-37.0867756233488
 42
0.0
  0
VERTEX
  8
Image
 10
547.528225790075
 20
-68.6761085162045
 42
0.0
  0
VERTEX
  8
Image
 10
511.320539976806
 20
-69.6190111304926
 42
0.0
  0
VERTEX
  8
Image
 10
540.739278458109
 20
-86.4027860969095
 42
0.0
  0
VERTEX
  8
Image
 10
529.80154820937
 20
-120.913224376651
 42
0.0
  0
VERTEX
  8
Image
 10
556.580136542857
 20
-100.784351514131
 42
0.0
  0
VERTEX
  8
Image
 10
583.358724876343
 20
-120.913224376651
 42
0.0
  0
VERTEX
  8
Image
 10
572.420994627604
 20
-86.4027860969095
 42
0.0
  0
VERTEX
  8
Image
 10
601.839733108906
 20
-69.6190111304926
 42
0.0
  0
VERTEX
  8
Image
 10
565.632047295638
 20
-68.6761085162045
 42
0.0
  0
SEQEND
  0
POLYLINE
  8
Image
 66
     1
 10
0.0
 20
0.0
 30
0.0
 70
     1
  0
VERTEX
  8
Image
 10
500.937354256759
 20
43.6707066614272
 42
0.0
  0
VERTEX
  8
Image
 10
491.885443503978
 20
12.0813737685715
 42
0.0
  0
VERTEX
  8
Image
 10
455.677757690709
 20
11.1384711542834
 42
0.0
  0
VERTEX
  8
Image
 10
485.096496172011
 20
-5.6453038121335
 42
0.0
  0
VERTEX
  8
Image
 10
474.158765923273
 20
-40.1557420918753
 42
0.0
  0
VERTEX
  8
Image
 10
500.93735425676
 20
-20.0268692293546
 42
0.0
  0
VERTEX
  8
Image
 10
527.715942590245
 20
-40.1557420918753
 42
0.0
  0
VERTEX
  8
Image
 10
516.778212341507
 20
-5.6453038121335
 42
0.0
  0
VERTEX
  8
Image
 10
546.196950822809
 20
11.1384711542834
 42
0.0
  0
VERTEX
  8
Image
 10
509.98926500954
 20
12.0813737685715
 42
0.0
  0
SEQEND
  0
POLYLINE
  8
Image
 66
     1
 10
0.0
 20
0.0
 30
0.0
 70
     1
  0
VERTEX
  8
Image
 10
443.419868097144
 20
-199.168324326267
 42
0.0
  0
VERTEX
  8
Image
 10
434.367957344363
 20
-230.757657219123
 42
0.0
  0
VERTEX
  8
Image
 10
398.160271531094
 20
-231.700559833411
 42
0.0
  0
VERTEX
  8
Image
 10
427.579010012396
 20
-248.484334799828
 42
0.0
  0
VERTEX
  8
Image
 10
416.641279763657
 20
-282.99477307957
 42
0.0
  0
VERTEX
  8
Image
 10
443.419868097145
 20
-262.865900217049
 42
0.0
  0
VERTEX
  8
Image
 10
470.19845643063
 20
-282.99477307957
 42
0.0
  0
VERTEX
  8
Image
 10
459.260726181892
 20
-248.484334799828
 42
0.0
  0
VERTEX
  8
Image
 10
488.679464663194
 20
-231.700559833411
 42
0.0
  0
VERTEX
  8
Image
 10
452.471778849925
 20
-230.757657219123
 42
0.0
  0
SEQEND
  0
POLYLINE
  8
Image
 66
     1
 10
0.0
 20
0.0
 30
0.0
 70
     1
  0
VERTEX
  8
Image
 10
556.580136542856
 20
-199.168324326267
 42
0.0
  0
VERTEX
  8
Image
 10
547.528225790075
 20
-230.757657219123
 42
0.0
  0
VERTEX
  8
Image
 10
511.320539976806
 20
-231.700559833411
 42
0.0
  0
VERTEX
  8
Image
 10
540.739278458109
 20
-248.484334799828
 42
0.0
  0
VERTEX
  8
Image
 10
529.80154820937
 20
-282.99477307957
 42
0.0
  0
VERTEX
  8
Image
 10
556.580136542857
 20
-262.865900217049
 42
0.0
  0
VERTEX
  8
Image
 10
583.358724876343
 20
-282.99477307957
 42
0.0
  0
VERTEX
  8
Image
 10
572.420994627604
 20
-248.484334799828
 42
0.0
  0
VERTEX
  8
Image
 10
601.839733108906
 20
-231.700559833411
 42
0.0
  0
VERTEX
  8
Image
 10
565.632047295638
 20
-230.757657219123
 42
0.0
  0
SEQEND
  0
POLYLINE
  8
Image
 66
     1
 10
0.0
 20
0.0
 30
0.0
 70
     1
  0
VERTEX
  8
Image
 10
500.937354256759
 20
-118.410842041491
 42
0.0
  0
VERTEX
  8
Image
 10
491.885443503978
 20
-150.000174934347
 42
0.0
  0
VERTEX
  8
Image
 10
455.677757690709
 20
-150.943077548635
 42
0.0
  0
VERTEX
  8
Image
 10
485.096496172011
 20
-167.726852515052
 42
0.0
  0
VERTEX
  8
Image
 10
474.158765923273
 20
-202.237290794794
 42
0.0
  0
VERTEX
  8
Image
 10
500.93735425676
 20
-182.108417932273
 42
0.0
  0
VERTEX
  8
Image
 10
527.715942590245
 20
-202.237290794794
 42
0.0
  0
VERTEX
  8
Image
 10
516.778212341507
 20
-167.726852515052
 42
0.0
  0
VERTEX
  8
Image
 10
546.196950822809
 20
-150.943077548635
 42
0.0
  0
VERTEX
  8
Image
 10
509.98926500954
 20
-150.000174934347
 42
0.0
  0
SEQEND
  0
POLYLINE
  8
Image
 66
     1
 10
0.0
 20
0.0
 30
0.0
 70
     1
  0
VERTEX
  8
Image
 10
443.419868097144
 20
-361.249873029186
 42
0.0
  0
VERTEX
  8
Image
 10
434.367957344363
 20
-392.839205922042
 42
0.0
  0
VERTEX
  8
Image
 10
398.160271531094
 20
-393.78210853633
 42
0.0
  0
VERTEX
  8
Image
 10
427.579010012396
 20
-410.565883502747
 42
0.0
  0
VERTEX
  8
Image
 10
416.641279763657
 20
-445.076321782488
 42
0.0
  0
VERTEX
  8
Image
 10
443.419868097145
 20
-424.947448919968
 42
0.0
  0
VERTEX
  8
Image
 10
470.19845643063
 20
-445.076321782488
 42
0.0
  0
VERTEX
  8
Image
 10
459.260726181892
 20
-410.565883502747
 42
0.0
  0
VERTEX
  8
Image
 10
488.679464663194
 20
-393.78210853633
 42
0.0
  0
VERTEX
  8
Image
 10
452.471778849925
 20
-392.839205922042
 42
0.0
  0
SEQEND
  0
POLYLINE
  8
Image
 66
     1
 10
0.0
 20
0.0
 30
0.0
 70
     1
  0
VERTEX
  8
Image
 10
556.580136542856
 20
-361.249873029186
 42
0.0
  0
VERTEX
  8
Image
 10
547.528225790075
 20
-392.839205922042
 42
0.0
  0
VERTEX
  8
Image
 10
511.320539976806
 20
-393.78210853633
 42
0.0
  0
VERTEX
  8
Image
 10
540.739278458109
 20
-410.565883502747
 42
0.0
  0
VERTEX
  8
Image
 10
529.80154820937
 20
-445.076321782488
 42
0.0
  0
VERTEX
  8
Image
 10
556.580136542857
 20
-424.947448919968
 42
0.0
  0
VERTEX
  8
Image
 10
583.358724876343
 20
-445.076321782488
 42
0.0
  0
VERTEX
  8
Image
 10
572.420994627604
 20
-410.565883502747
 42
0.0
  0
VERTEX
  8
Image
 10
601.839733108906
 20
-393.78210853633
 42
0.0
  0
VERTEX
  8
Image
 10
565.632047295638
 20
-392.839205922042
 42
0.0
  0
SEQEND
  0
POLYLINE
  8
Image
 66
     1
 10
0.0
 20
0.0
 30
0.0
 70
     1
  0
VERTEX
  8
Image
 10
500.937354256759
 20
-280.49239074441
 42
0.0
  0
VERTEX
  8
Image
 10
491.885443503978
 20
-312.081723637266
 42
0.0
  0
VERTEX
  8
Image
 10
455.677757690709
 20
-313.024626251554
 42
0.0
  0
VERTEX
  8
Image
 10
485.096496172011
 20
-329.808401217971
 42
0.0
  0
VERTEX
  8
Image
 10
474.158765923273
 20
-364.318839497713
 42
0.0
  0
VERTEX
  8
Image
 10
500.93735425676
 20
-344.189966635192
 42
0.0
  0
VERTEX
  8
Image
 10
527.715942590245
 20
-364.318839497713
 42
0.0
  0
VERTEX
  8
Image
 10
516.778212341507
 20
-329.808401217971
 42
0.0
  0
VERTEX
  8
Image
 10
546.196950822809
 20
-313.024626251554
 42
0.0
  0
VERTEX
  8
Image
 10
509.98926500954
 20
-312.081723637266
 42
0.0
  0
SEQEND
  0
POLYLINE
  8
Image
 66
     1
 10
0.0
 20
0.0
 30
0.0
 70
     1
  0
VERTEX
  8
Image
 10
443.419868097144
 20
-523.331421732105
 42
0.0
  0
VERTEX
  8
Image
 10
434.367957344363
 20
-554.92075462496
 42
0.0
  0
VERTEX
  8
Image
 10
398.160271531094
 20
-555.863657239249
 42
0.0
  0
VERTEX
  8
Image
 10
427.579010012396
 20
-572.647432205665
 42
0.0
  0
VERTEX
  8
Image
 10
416.641279763657
 20
-607.157870485407
 42
0.0
  0
VERTEX
  8
Image
 10
443.419868097145
 20
-587.028997622886
 42
0.0
  0
VERTEX
  8
Image
 10
470.19845643063
 20
-607.157870485407
 42
0.0
  0
VERTEX
  8
Image
 10
459.260726181892
 20
-572.647432205665
 42
0.0
  0
VERTEX
  8
Image
 10
488.679464663194
 20
-555.863657239249
 42
0.0
  0
VERTEX
  8
Image
 10
452.471778849925
 20
-554.92075462496
 42
0.0
  0
SEQEND
  0
POLYLINE
  8
Image
 66
     1
 10
0.0
 20
0.0
 30
0.0
 70
     1
  0
VERTEX
  8
Image
 10
556.580136542856
 20
-523.331421732105
 42
0.0
  0
VERTEX
  8
Image
 10
547.528225790075
 20
-554.92075462496
 42
0.0
  0
VERTEX
  8
Image
 10
511.320539976806
 20
-555.863657239249
 42
0.0
  0
VERTEX
  8
Image
 10
540.739278458109
 20
-572.647432205665
 42
0.0
  0
VERTEX
  8
Image
 10
529.80154820937
 20
-607.157870485407
 42
0.0
  0
VERTEX
  8
Image
 10
556.580136542857
 20
-587.028997622886
 42
0.0
  0
VERTEX
  8
Image
 10
583.358724876343
 20
-607.157870485407
 42
0.0
  0
VERTEX
  8
Image
 10
572.420994627604
 20
-572.647432205665
 42
0.0
  0
VERTEX
  8
Image
 10
601.839733108906
 20
-555.863657239249
 42
0.0
  0
VERTEX
  8
Image
 10
565.632047295638
 20
-554.92075462496
 42
0.0
  0
SEQEND
  0
POLYLINE
  8
Image
 66
     1
 10
0.0
 20
0.0
 30
0.0
 70
     1
  0
VERTEX
  8
Image
 10
500.937354256759
 20
-442.573939447329
 42
0.0
  0
VERTEX
  8
Image
 10
491.885443503978
 20
-474.163272340184
 42
0.0
  0
VERTEX
  8
Image
 10
455.677757690709
 20
-475.106174954473
 42
0.0
  0
VERTEX
  8
Image
 10
485.096496172011
 20
-491.889949920889
 42
0.0
  0
VERTEX
  8
Image
 10
474.158765923273
 20
-526.400388200631
 42
0.0
  0
VERTEX
  8
Image
 10
500.93735425676
 20
-506.271515338111
 42
0.0
  0
VERTEX
  8
Image
 10
527.715942590245
 20
-526.400388200631
 42
0.0
  0
VERTEX
  8
Image
 10
516.778212341507
 20
-491.889949920889
 42
0.0
  0
VERTEX
  8
Image
 10
546.196950822809
 20
-475.106174954473
 42
0.0
  0
VERTEX
  8
Image
 10
509.98926500954
 20
-474.163272340184
 42
0.0
  0
SEQEND
  0
POLYLINE
  8
Image
 66
     1
 10
0.0
 20
0.0
 30
0.0
 70
     1
  0
VERTEX
  8
Image
 10
443.419868097144
 20
-685.412970435023
 42
0.0
  0
VERTEX
  8
Image
 10
434.367957344363
 20
-717.002303327879
 42
0.0
  0
VERTEX
  8
Image
 10
398.160271531094
 20
-717.945205942167
 42
0.0
  0
VERTEX
  8
Image
 10
427.579010012396
 20
-734.728980908584
 42
0.0
  0
VERTEX
  8
Image
 10
416.641279763657
 20
-769.239419188326
 42
0.0
  0
VERTEX
  8
Image
 10
443.419868097145
 20
-749.110546325805
 42
0.0
  0
VERTEX
  8
Image
 10
470.19845643063
 20
-769.239419188326
 42
0.0
  0
VERTEX
  8
Image
 10
459.260726181892
 20
-734.728980908584
 42
0.0
  0
VERTEX
  8
Image
 10
488.679464663194
 20
-717.945205942167
 42
0.0
  0
VERTEX
  8
Image
 10
452.471778849925
 20
-717.002303327879
 42
0.0
  0
SEQEND
  0
POLYLINE
  8
Image
 66
     1
 10
0.0
 20
0.0
 30
0.0
 70
     1
  0
VERTEX
  8
Image
 10
556.580136542856
 20
-685.412970435023
 42
0.0
  0
VERTEX
  8
Image
 10
547.528225790075
 20
-717.002303327879
 42
0.0
  0
VERTEX
  8
Image
 10
511.320539976806
 20
-717.945205942167
 42
0.0
  0
VERTEX
  8
Image
 10
540.739278458109
 20
-734.728980908584
 42
0.0
  0
VERTEX
  8
Image
 10
529.80154820937
 20
-769.239419188326
 42
0.0
  0
VERTEX
  8
Image
 10
556.580136542857
 20
-749.110546325805
 42
0.0
  0
VERTEX
  8
Image
 10
583.358724876343
 20
-769.239419188326
 42
0.0
  0
VERTEX
  8
Image
 10
572.420994627604
 20
-734.728980908584
 42
0.0
  0
VERTEX
  8
Image
 10
601.839733108906
 20
-717.945205942167
 42
0.0
  0
VERTEX
  8
Image
 10
565.632047295638
 20
-717.002303327879
 42
0.0
  0
SEQEND
  0
POLYLINE
  8
Image
 66
     1
 10
0.0
 20
0.0
 30
0.0
 70
     1
  0
VERTEX
  8
Image
 10
500.937354256759
 20
-604.655488150247
 42
0.0
  0
VERTEX
  8
Image
 10
491.885443503978
 20
-636.244821043103
 42
0.0
  0
VERTEX
  8
Image
 10
455.677757690709
 20
-637.187723657391
 42
0.0
  0
VERTEX
  8
Image
 10
485.096496172011
 20
-653.971498623808
 42
0.0
  0
VERTEX
  8
Image
 10
474.158765923273
 20
-688.48193690355
 42
0.0
  0
VERTEX
  8
Image
 10
500.93735425676
 20
-668.353064041029
 42
0.0
  0
VERTEX
  8
Image
 10
527.715942590245
 20
-688.48193690355
 42
0.0
  0
VERTEX
  8
Image
 10
516.778212341507
 20
-653.971498623808
 42
0.0
  0
VERTEX
  8
Image
 10
546.196950822809
 20
-637.187723657391
 42
0.0
  0
VERTEX
  8
Image
 10
509.98926500954
 20
-636.244821043103
 42
0.0
  0
SEQEND
  0
POLYLINE
  8
Image
 66
     1
 10
0.0
 20
0.0
 30
0.0
 70
     1
  0
VERTEX
  8
Image
 10
443.419868097144
 20
-847.494519137942
 42
0.0
  0
VERTEX
  8
Image
 10
434.367957344363
 20
-879.083852030798
 42
0.0
  0
VERTEX
  8
Image
 10
398.160271531094
 20
-880.026754645086
 42
0.0
  0
VERTEX
  8
Image
 10
427.579010012396
 20
-896.810529611503
 42
0.0
  0
VERTEX
  8
Image
 10
416.641279763657
 20
-931.320967891245
 42
0.0
  0
VERTEX
  8
Image
 10
443.419868097145
 20
-911.192095028724
 42
0.0
  0
VERTEX
  8
Image
 10
470.19845643063
 20
-931.320967891245
 42
0.0
  0
VERTEX
  8
Image
 10
459.260726181892
 20
-896.810529611503
 42
0.0
  0
VERTEX
  8
Image
 10
488.679464663194
 20
-880.026754645086
 42
0.0
  0
VERTEX
  8
Image
 10
452.471778849925
 20
-879.083852030798
 42
0.0
  0
SEQEND
  0
POLYLINE
  8
Image
 66
     1
 10
0.0
 20
0.0
 30
0.0
 70
     1
  0
VERTEX
  8
Image
 10
556.580136542856
 20
-847.494519137942
 42
0.0
  0
VERTEX
  8
Image
 10
547.528225790075
 20
-879.083852030798
 42
0.0
  0
VERTEX
  8
Image
 10
511.320539976806
 20
-880.026754645086
 42
0.0
  0
VERTEX
  8
Image
 10
540.739278458109
 20
-896.810529611503
 42
0.0
  0
VERTEX
  8
Image
 10
529.80154820937
 20
-931.320967891245
 42
0.0
  0
VERTEX
  8
Image
 10
556.580136542857
 20
-911.192095028724
 42
0.0
  0
VERTEX
  8
Image
 10
583.358724876343
 20
-931.320967891245
 42
0.0
  0
VERTEX
  8
Image
 10
572.420994627604
 20
-896.810529611503
 42
0.0
  0
VERTEX
  8
Image
 10
601.839733108906
 20
-880.026754645086
 42
0.0
  0
VERTEX
  8
Image
 10
565.632047295638
 20
-879.083852030798
 42
0.0
  0
SEQEND
  0
POLYLINE
  8
Image
 66
     1
 10
0.0
 20
0.0
 30
0.0
 70
     1
  0
VERTEX
  8
Image
 10
500.937354256759
 20
-766.737036853166
 42
0.0
  0
VERTEX
  8
Image
 10
491.885443503978
 20
-798.326369746022
 42
0.0
  0
VERTEX
  8
Image
 10
455.677757690709
 20
-799.26927236031
 42
0.0
  0
VERTEX
  8
Image
 10
485.096496172011
 20
-816.053047326727
 42
0.0
  0
VERTEX
  8
Image
 10
474.158765923273
 20
-850.563485606468
 42
0.0
  0
VERTEX
  8
Image
 10
500.93735425676
 20
-830.434612743948
 42
0.0
  0
VERTEX
  8
Image
 10
527.715942590245
 20
-850.563485606468
 42
0.0
  0
VERTEX
  8
Image
 10
516.778212341507
 20
-816.053047326727
 42
0.0
  0
VERTEX
  8
Image
 10
546.196950822809
 20
-799.26927236031
 42
0.0
  0
VERTEX
  8
Image
 10
509.98926500954
 20
-798.326369746022
 42
0.0
  0
SEQEND
  0
POLYLINE
  8
Image
 66
     1
 10
0.0
 20
0.0
 30
0.0
 70
     1
  0
VERTEX
  8
Image
 10
395.00000174
 20
-349.619272863734
 42
0.0
  0
VERTEX
  8
Image
 10
414.555674144533
 20
-364.318839497713
 42
0.0
  0
VERTEX
  8
Image
 10
403.617943895794
 20
-329.808401217971
 42
0.0
  0
VERTEX
  8
Image
 10
433.036682377096
 20
-313.024626251554
 42
0.0
  0
VERTEX
  8
Image
 10
396.828996563828
 20
-312.081723637266
 42
0.0
  0
VERTEX
  8
Image
 10
395.00000174
 20
-305.698902603437
 42
0.0
  0
SEQEND
  0
POLYLINE
  8
Image
 66
     1
 10
0.0
 20
0.0
 30
0.0
 70
     1
  0
VERTEX
  8
Image
 10
395.00000174
 20
-187.537724160816
 42
0.0
  0
VERTEX
  8
Image
 10
414.555674144533
 20
-202.237290794794
 42
0.0
  0
VERTEX
  8
Image
 10
403.617943895794
 20
-167.726852515052
 42
0.0
  0
VERTEX
  8
Image
 10
433.036682377096
 20
-150.943077548635
 42
0.0
  0
VERTEX
  8
Image
 10
396.828996563828
 20
-150.000174934347
 42
0.0
  0
VERTEX
  8
Image
 10
395.00000174
 20
-143.617353900517
 42
0.0
  0
SEQEND
  0
POLYLINE
  8
Image
 66
     1
 10
0.0
 20
0.0
 30
0.0
 70
     1
  0
VERTEX
  8
Image
 10
395.00000174
 20
-25.4561754578972
 42
0.0
  0
VERTEX
  8
Image
 10
414.555674144533
 20
-40.1557420918753
 42
0.0
  0
VERTEX
  8
Image
 10
403.617943895794
 20
-5.6453038121335
 42
0.0
  0
VERTEX
  8
Image
 10
433.036682377096
 20
11.1384711542834
 42
0.0
  0
VERTEX
  8
Image
 10
396.828996563828
 20
12.0813737685715
 42
0.0
  0
VERTEX
  8
Image
 10
395.00000174
 20
18.4641948024013
 42
0.0
  0
SEQEND
  0
POLYLINE
  8
Image
 66
     1
 10
0.0
 20
0.0
 30
0.0
 70
     1
  0
VERTEX
  8
Image
 10
517.36943159656
 20
-979.999995445
 42
0.0
  0
VERTEX
  8
Image
 10
516.778212341507
 20
-978.134596029645
 42
0.0
  0
VERTEX
  8
Image
 10
546.196950822809
 20
-961.350821063229
 42
0.0
  0
VERTEX
  8
Image
 10
509.98926500954
 20
-960.40791844894
 42
0.0
  0
VERTEX
  8
Image
 10
500.937354256759
 20
-928.818585556085
 42
0.0
  0
VERTEX
  8
Image
 10
491.885443503978
 20
-960.40791844894
 42
0.0
  0
VERTEX
  8
Image
 10
455.677757690709
 20
-961.350821063229
 42
0.0
  0
VERTEX
  8
Image
 10
485.096496172011
 20
-978.134596029645
 42
0.0
  0
VERTEX
  8
Image
 10
484.505276916958
 20
-979.999995445
 42
0.0
  0
SEQEND
  0
POLYLINE
  8
Image
 66
     1
 10
0.0
 20
0.0
 30
0.0
 70
     1
  0
VERTEX
  8
Image
 10
404.209163150847
 20
-979.999995445
 42
0.0
  0
VERTEX
  8
Image
 10
403.617943895794
 20
-978.134596029645
 42
0.0
  0
VERTEX
  8
Image
 10
433.036682377096
 20
-961.350821063229
 42
0.0
  0
VERTEX
  8
Image
 10
396.828996563828
 20
-960.40791844894
 42
0.0
  0
VERTEX
  8
Image
 10
395.00000174
 20
-954.025097415111
 42
0.0
  0
VERTEX
  8
Image
 10
395.00000174
 20
-979.999995445
 42
0.0
  0
SEQEND
  0
POLYLINE
  8
Image
 66
     1
 10
0.0
 20
0.0
 30
0.0
 70
     1
  0
VERTEX
  8
Image
 10
395.00000174
 20
-835.863918972491
 42
0.0
  0
VERTEX
  8
Image
 10
414.555674144533
 20
-850.563485606468
 42
0.0
  0
VERTEX
  8
Image
 10
403.617943895794
 20
-816.053047326727
 42
0.0
  0
VERTEX
  8
Image
 10
433.036682377096
 20
-799.26927236031
 42
0.0
  0
VERTEX
  8
Image
 10
396.828996563828
 20
-798.326369746022
 42
0.0
  0
VERTEX
  8
Image
 10
395.00000174
 20
-791.943548712193
 42
0.0
  0
SEQEND
  0
POLYLINE
  8
Image
 66
     1
 10
0.0
 20
0.0
 30
0.0
 70
     1
  0
VERTEX
  8
Image
 10
395.00000174
 20
-673.782370269572
 42
0.0
  0
VERTEX
  8
Image
 10
414.555674144533
 20
-688.48193690355
 42
0.0
  0
VERTEX
  8
Image
 10
403.617943895794
 20
-653.971498623808
 42
0.0
  0
VERTEX
  8
Image
 10
433.036682377096
 20
-637.187723657391
 42
0.0
  0
VERTEX
  8
Image
 10
396.828996563828
 20
-636.244821043103
 42
0.0
  0
VERTEX
  8
Image
 10
395.00000174
 20
-629.862000009273
 42
0.0
  0
SEQEND
  0
POLYLINE
  8
Image
 66
     1
 10
0.0
 20
0.0
 30
0.0
 70
     1
  0
VERTEX
  8
Image
 10
395.00000174
 20
622.870019353777
 42
0.0
  0
VERTEX
  8
Image
 10
414.555674144533
 20
608.170452719799
 42
0.0
  0
VERTEX
  8
Image
 10
403.617943895794
 20
642.680890999541
 42
0.0
  0
VERTEX
  8
Image
 10
433.036682377096
 20
659.464665965958
 42
0.0
  0
VERTEX
  8
Image
 10
396.828996563828
 20
660.407568580246
 42
0.0
  0
VERTEX
  8
Image
 10
395.00000174
 20
666.790389614075
 42
0.0
  0
SEQEND
  0
POLYLINE
  8
Image
 66
     1
 10
0.0
 20
0.0
 30
0.0
 70
     1
  0
VERTEX
  8
Image
 10
395.00000174
 20
784.951568056696
 42
0.0
  0
VERTEX
  8
Image
 10
414.555674144533
 20
770.252001422718
 42
0.0
  0
VERTEX
  8
Image
 10
403.617943895794
 20
804.76243970246
 42
0.0
  0
VERTEX
  8
Image
 10
433.036682377096
 20
821.546214668876
 42
0.0
  0
VERTEX
  8
Image
 10
396.828996563828
 20
822.489117283165
 42
0.0
  0
VERTEX
  8
Image
 10
395.00000174
 20
828.871938316994
 42
0.0
  0
SEQEND
  0
POLYLINE
  8
Image
 66
     1
 10
0.0
 20
0.0
 30
0.0
 70
     1
  0
VERTEX
  8
Image
 10
395.00000174
 20
947.033116759615
 42
0.0
  0
VERTEX
  8
Image
 10
414.555674144533
 20
932.333550125637
 42
0.0
  0
VERTEX
  8
Image
 10
403.617943895794
 20
966.843988405378
 42
0.0
  0
VERTEX
  8
Image
 10
426.677900987165
 20
979.999995445
 42
0.0
  0
VERTEX
  8
Image
 10
395.00000174
 20
979.999995445
 42
0.0
  0
SEQEND
  0
POLYLINE
  8
Image
 66
     1
 10
0.0
 20
0.0
 30
0.0
 70
     1
  0
VERTEX
  8
Image
 10
395.00000174
 20
136.625373245022
 42
0.0
  0
VERTEX
  8
Image
 10
414.555674144533
 20
121.925806611043
 42
0.0
  0
VERTEX
  8
Image
 10
403.617943895794
 20
156.436244890785
 42
0.0
  0
VERTEX
  8
Image
 10
433.036682377096
 20
173.220019857202
 42
0.0
  0
VERTEX
  8
Image
 10
396.828996563828
 20
174.16292247149
 42
0.0
  0
VERTEX
  8
Image
 10
395.00000174
 20
180.54574350532
 42
0.0
  0
SEQEND
  0
POLYLINE
  8
Image
 66
     1
 10
0.0
 20
0.0
 30
0.0
 70
     1
  0
VERTEX
  8
Image
 10
395.00000174
 20
298.70692194794
 42
0.0
  0
VERTEX
  8
Image
 10
414.555674144533
 20
284.007355313962
 42
0.0
  0
VERTEX
  8
Image
 10
403.617943895794
 20
318.517793593704
 42
0.0
  0
VERTEX
  8
Image
 10
433.036682377096
 20
335.301568560121
 42
0.0
  0
VERTEX
  8
Image
 10
396.828996563828
 20
336.244471174409
 42
0.0
  0
VERTEX
  8
Image
 10
395.00000174
 20
342.627292208239
 42
0.0
  0
SEQEND
  0
POLYLINE
  8
Image
 66
     1
 10
0.0
 20
0.0
 30
0.0
 70
     1
  0
VERTEX
  8
Image
 10
395.00000174
 20
460.788470650859
 42
0.0
  0
VERTEX
  8
Image
 10
414.555674144533
 20
446.088904016881
 42
0.0
  0
VERTEX
  8
Image
 10
403.617943895794
 20
480.599342296622
 42
0.0
  0
VERTEX
  8
Image
 10
433.036682377096
 20
497.383117263039
 42
0.0
  0
VERTEX
  8
Image
 10
396.828996563828
 20
498.326019877327
 42
0.0
  0
VERTEX
  8
Image
 10
395.00000174
 20
504.708840911157
 42
0.0
  0
SEQEND
  0
POLYLINE
  8
Image
 66
     1
 10
0.0
 20
0.0
 30
0.0
 70
     1
  0
VERTEX
  8
Image
 10
462.03653908064
 20
979.999995445
 42
0.0
  0
VERTEX
  8
Image
 10
485.096496172011
 20
966.843988405378
 42
0.0
  0
VERTEX
  8
Image
 10
474.158765923273
 20
932.333550125637
 42
0.0
  0
VERTEX
  8
Image
 10
500.93735425676
 20
952.462422988157
 42
0.0
  0
VERTEX
  8
Image
 10
527.715942590245
 20
932.333550125637
 42
0.0
  0
VERTEX
  8
Image
 10
516.778212341507
 20
966.843988405378
 42
0.0
  0
VERTEX
  8
Image
 10
539.838169432878
 20
979.999995445
 42
0.0
  0
SEQEND
  0
POLYLINE
  8
Image
 66
     1
 10
0.0
 20
0.0
 30
0.0
 70
     1
  0
VERTEX
  8
Image
 10
605.0000029
 20
660.406378247821
 42
0.0
  0
VERTEX
  8
Image
 10
568.838026136421
 20
659.464665965958
 42
0.0
  0
VERTEX
  8
Image
 10
598.256764617723
 20
642.680890999541
 42
0.0
  0
VERTEX
  8
Image
 10
587.319034368984
 20
608.170452719799
 42
0.0
  0
VERTEX
  8
Image
 10
605.0000029
 20
621.460845895678
 42
0.0
  0
SEQEND
  0
POLYLINE
  8
Image
 66
     1
 10
0.0
 20
0.0
 30
0.0
 70
     1
  0
VERTEX
  8
Image
 10
605.0000029
 20
822.48792695074
 42
0.0
  0
VERTEX
  8
Image
 10
568.838026136421
 20
821.546214668876
 42
0.0
  0
VERTEX
  8
Image
 10
598.256764617723
 20
804.76243970246
 42
0.0
  0
VERTEX
  8
Image
 10
587.319034368984
 20
770.252001422718
 42
0.0
  0
VERTEX
  8
Image
 10
605.0000029
 20
783.542394598596
 42
0.0
  0
SEQEND
  0
POLYLINE
  8
Image
 66
     1
 10
0.0
 20
0.0
 30
0.0
 70
     1
  0
VERTEX
  8
Image
 10
575.196807526352
 20
979.999995445
 42
0.0
  0
VERTEX
  8
Image
 10
598.256764617723
 20
966.843988405378
 42
0.0
  0
VERTEX
  8
Image
 10
587.319034368984
 20
932.333550125637
 42
0.0
  0
VERTEX
  8
Image
 10
605.0000029
 20
945.623943301515
 42
0.0
  0
VERTEX
  8
Image
 10
605.0000029
 20
979.999995445
 42
0.0
  0
SEQEND
  0
POLYLINE
  8
Image
 66
     1
 10
0.0
 20
0.0
 30
0.0
 70
     1
  0
VERTEX
  8
Image
 10
605.0000029
 20
174.161732139065
 42
0.0
  0
VERTEX
  8
Image
 10
568.838026136421
 20
173.220019857202
 42
0.0
  0
VERTEX
  8
Image
 10
598.256764617723
 20
156.436244890785
 42
0.0
  0
VERTEX
  8
Image
 10
587.319034368984
 20
121.925806611043
 42
0.0
  0
VERTEX
  8
Image
 10
605.0000029
 20
135.216199786922
 42
0.0
  0
SEQEND
  0
POLYLINE
  8
Image
 66
     1
 10
0.0
 20
0.0
 30
0.0
 70
     1
  0
VERTEX
  8
Image
 10
605.0000029
 20
336.243280841984
 42
0.0
  0
VERTEX
  8
Image
 10
568.838026136421
 20
335.301568560121
 42
0.0
  0
VERTEX
  8
Image
 10
598.256764617723
 20
318.517793593704
 42
0.0
  0
VERTEX
  8
Image
 10
587.319034368984
 20
284.007355313962
 42
0.0
  0
VERTEX
  8
Image
 10
605.0000029
 20
297.297748489841
 42
0.0
  0
SEQEND
  0
POLYLINE
  8
Image
 66
     1
 10
0.0
 20
0.0
 30
0.0
 70
     1
  0
VERTEX
  8
Image
 10
605.0000029
 20
498.324829544903
 42
0.0
  0
VERTEX
  8
Image
 10
568.838026136421
 20
497.383117263039
 42
0.0
  0
VERTEX
  8
Image
 10
598.256764617723
 20
480.599342296622
 42
0.0
  0
VERTEX
  8
Image
 10
587.319034368984
 20
446.088904016881
 42
0.0
  0
VERTEX
  8
Image
 10
605.0000029
 20
459.379297192759
 42
0.0
  0
SEQEND
  0
POLYLINE
  8
Image
 66
     1
 10
0.0
 20
0.0
 30
0.0
 70
     1
  0
VERTEX
  8
Image
 10
605.0000029
 20
-474.164462672609
 42
0.0
  0
VERTEX
  8
Image
 10
568.838026136421
 20
-475.106174954473
 42
0.0
  0
VERTEX
  8
Image
 10
598.256764617723
 20
-491.889949920889
 42
0.0
  0
VERTEX
  8
Image
 10
587.319034368984
 20
-526.400388200631
 42
0.0
  0
VERTEX
  8
Image
 10
605.0000029
 20
-513.109995024753
 42
0.0
  0
SEQEND
  0
POLYLINE
  8
Image
 66
     1
 10
0.0
 20
0.0
 30
0.0
 70
     1
  0
VERTEX
  8
Image
 10
605.0000029
 20
-312.08291396969
 42
0.0
  0
VERTEX
  8
Image
 10
568.838026136421
 20
-313.024626251554
 42
0.0
  0
VERTEX
  8
Image
 10
598.256764617723
 20
-329.808401217971
 42
0.0
  0
VERTEX
  8
Image
 10
587.319034368984
 20
-364.318839497713
 42
0.0
  0
VERTEX
  8
Image
 10
605.0000029
 20
-351.028446321834
 42
0.0
  0
SEQEND
  0
POLYLINE
  8
Image
 66
     1
 10
0.0
 20
0.0
 30
0.0
 70
     1
  0
VERTEX
  8
Image
 10
605.0000029
 20
-150.001365266772
 42
0.0
  0
VERTEX
  8
Image
 10
568.838026136421
 20
-150.943077548635
 42
0.0
  0
VERTEX
  8
Image
 10
598.256764617723
 20
-167.726852515052
 42
0.0
  0
VERTEX
  8
Image
 10
587.319034368984
 20
-202.237290794794
 42
0.0
  0
VERTEX
  8
Image
 10
605.0000029
 20
-188.946897618915
 42
0.0
  0
SEQEND
  0
POLYLINE
  8
Image
 66
     1
 10
0.0
 20
0.0
 30
0.0
 70
     1
  0
VERTEX
  8
Image
 10
605.0000029
 20
12.0801834361468
 42
0.0
  0
VERTEX
  8
Image
 10
568.838026136421
 20
11.1384711542834
 42
0.0
  0
VERTEX
  8
Image
 10
598.256764617723
 20
-5.6453038121335
 42
0.0
  0
VERTEX
  8
Image
 10
587.319034368984
 20
-40.1557420918753
 42
0.0
  0
VERTEX
  8
Image
 10
605.0000029
 20
-26.8653489159967
 42
0.0
  0
SEQEND
  0
POLYLINE
  8
Image
 66
     1
 10
0.0
 20
0.0
 30
0.0
 70
     1
  0
VERTEX
  8
Image
 10
605.0000029
 20
-960.409108781365
 42
0.0
  0
VERTEX
  8
Image
 10
568.838026136421
 20
-961.350821063229
 42
0.0
  0
VERTEX
  8
Image
 10
598.256764617723
 20
-978.134596029645
 42
0.0
  0
VERTEX
  8
Image
 10
597.66554536267
 20
-979.999995445
 42
0.0
  0
VERTEX
  8
Image
 10
605.0000029
 20
-979.999995445
 42
0.0
  0
SEQEND
  0
POLYLINE
  8
Image
 66
     1
 10
0.0
 20
0.0
 30
0.0
 70
     1
  0
VERTEX
  8
Image
 10
605.0000029
 20
-798.327560078446
 42
0.0
  0
VERTEX
  8
Image
 10
568.838026136421
 20
-799.26927236031
 42
0.0
  0
VERTEX
  8
Image
 10
598.256764617723
 20
-816.053047326727
 42
0.0
  0
VERTEX
  8
Image
 10
587.319034368984
 20
-850.563485606468
 42
0.0
  0
VERTEX
  8
Image
 10
605.0000029
 20
-837.27309243059
 42
0.0
  0
SEQEND
  0
POLYLINE
  8
Image
 66
     1
 10
0.0
 20
0.0
 30
0.0
 70
     1
  0
VERTEX
  8
Image
 10
605.0000029
 20
-636.246011375528
 42
0.0
  0
VERTEX
  8
Image
 10
568.838026136421
 20
-637.187723657391
 42
0.0
  0
VERTEX
  8
Image
 10
598.256764617723
 20
-653.971498623808
 42
0.0
  0
VERTEX
  8
Image
 10
587.319034368984
 20
-688.48193690355
 42
0.0
  0
VERTEX
  8
Image
 10
605.0000029
 20
-675.191543727671
 42
0.0
  0
SEQEND
  0
POLYLINE
  8
Image
 66
     1
 10
0.0
 20
0.0
 30
0.0
 70
     1
  0
VERTEX
  8
Image
 10
395.00000174
 20
-511.700821566653
 42
0.0
  0
VERTEX
  8
Image
 10
414.555674144533
 20
-526.400388200631
 42
0.0
  0
VERTEX
  8
Image
 10
403.617943895794
 20
-491.889949920889
 42
0.0
  0
VERTEX
  8
Image
 10
433.036682377096
 20
-475.106174954473
 42
0.0
  0
VERTEX
  8
Image
 10
396.828996563828
 20
-474.163272340184
 42
0.0
  0
VERTEX
  8
Image
 10
395.00000174
 20
-467.780451306355
 42
0.0
  0
SEQEND
  0
POLYLINE
  8
Image
 66
     1
 10
0.0
 20
0.0
 30
0.0
 70
     1
  0
VERTEX
  8
Image
 10
693.419869257144
 20
935.402516594163
 42
0.0
  0
VERTEX
  8
Image
 10
684.367958504363
 20
903.813183701307
 42
0.0
  0
VERTEX
  8
Image
 10
648.160272691094
 20
902.870281087019
 42
0.0
  0
VERTEX
  8
Image
 10
677.579011172396
 20
886.086506120602
 42
0.0
  0
VERTEX
  8
Image
 10
666.641280923657
 20
851.57606784086
 42
0.0
  0
VERTEX
  8
Image
 10
693.419869257145
 20
871.704940703381
 42
0.0
  0
VERTEX
  8
Image
 10
720.19845759063
 20
851.57606784086
 42
0.0
  0
VERTEX
  8
Image
 10
709.260727341892
 20
886.086506120602
 42
0.0
  0
VERTEX
  8
Image
 10
738.679465823194
 20
902.870281087019
 42
0.0
  0
VERTEX
  8
Image
 10
702.471780009925
 20
903.813183701307
 42
0.0
  0
SEQEND
  0
POLYLINE
  8
Image
 66
     1
 10
0.0
 20
0.0
 30
0.0
 70
     1
  0
VERTEX
  8
Image
 10
806.580137702857
 20
935.402516594163
 42
0.0
  0
VERTEX
  8
Image
 10
797.528226950075
 20
903.813183701307
 42
0.0
  0
VERTEX
  8
Image
 10
761.320541136806
 20
902.870281087019
 42
0.0
  0
VERTEX
  8
Image
 10
790.739279618109
 20
886.086506120602
 42
0.0
  0
VERTEX
  8
Image
 10
779.80154936937
 20
851.57606784086
 42
0.0
  0
VERTEX
  8
Image
 10
806.580137702857
 20
871.704940703381
 42
0.0
  0
VERTEX
  8
Image
 10
833.358726036343
 20
851.57606784086
 42
0.0
  0
VERTEX
  8
Image
 10
822.420995787604
 20
886.086506120602
 42
0.0
  0
VERTEX
  8
Image
 10
851.839734268906
 20
902.870281087019
 42
0.0
  0
VERTEX
  8
Image
 10
815.632048455638
 20
903.813183701307
 42
0.0
  0
SEQEND
  0
POLYLINE
  8
Image
 66
     1
 10
0.0
 20
0.0
 30
0.0
 70
     1
  0
VERTEX
  8
Image
 10
693.419869257144
 20
773.320967891244
 42
0.0
  0
VERTEX
  8
Image
 10
684.367958504363
 20
741.731634998389
 42
0.0
  0
VERTEX
  8
Image
 10
648.160272691094
 20
740.788732384101
 42
0.0
  0
VERTEX
  8
Image
 10
677.579011172396
 20
724.004957417684
 42
0.0
  0
VERTEX
  8
Image
 10
666.641280923657
 20
689.494519137942
 42
0.0
  0
VERTEX
  8
Image
 10
693.419869257145
 20
709.623392000463
 42
0.0
  0
VERTEX
  8
Image
 10
720.19845759063
 20
689.494519137942
 42
0.0
  0
VERTEX
  8
Image
 10
709.260727341892
 20
724.004957417684
 42
0.0
  0
VERTEX
  8
Image
 10
738.679465823194
 20
740.788732384101
 42
0.0
  0
VERTEX
  8
Image
 10
702.471780009925
 20
741.731634998389
 42
0.0
  0
SEQEND
  0
POLYLINE
  8
Image
 66
     1
 10
0.0
 20
0.0
 30
0.0
 70
     1
  0
VERTEX
  8
Image
 10
806.580137702857
 20
773.320967891244
 42
0.0
  0
VERTEX
  8
Image
 10
797.528226950075
 20
741.731634998389
 42
0.0
  0
VERTEX
  8
Image
 10
761.320541136806
 20
740.788732384101
 42
0.0
  0
VERTEX
  8
Image
 10
790.739279618109
 20
724.004957417684
 42
0.0
  0
VERTEX
  8
Image
 10
779.80154936937
 20
689.494519137942
 42
0.0
  0
VERTEX
  8
Image
 10
806.580137702857
 20
709.623392000463
 42
0.0
  0
VERTEX
  8
Image
 10
833.358726036343
 20
689.494519137942
 42
0.0
  0
VERTEX
  8
Image
 10
822.420995787604
 20
724.004957417684
 42
0.0
  0
VERTEX
  8
Image
 10
851.839734268906
 20
740.788732384101
 42
0.0
  0
VERTEX
  8
Image
 10
815.632048455638
 20
741.731634998389
 42
0.0
  0
SEQEND
  0
POLYLINE
  8
Image
 66
     1
 10
0.0
 20
0.0
 30
0.0
 70
     1
  0
VERTEX
  8
Image
 10
750.937355416759
 20
854.07845017602
 42
0.0
  0
VERTEX
  8
Image
 10
741.885444663978
 20
822.489117283165
 42
0.0
  0
VERTEX
  8
Image
 10
705.677758850709
 20
821.546214668876
 42
0.0
  0
VERTEX
  8
Image
 10
735.096497332011
 20
804.76243970246
 42
0.0
  0
VERTEX
  8
Image
 10
724.158767083273
 20
770.252001422718
 42
0.0
  0
VERTEX
  8
Image
 10
750.93735541676
 20
790.380874285239
 42
0.0
  0
VERTEX
  8
Image
 10
777.715943750245
 20
770.252001422718
 42
0.0
  0
VERTEX
  8
Image
 10
766.778213501507
 20
804.76243970246
 42
0.0
  0
VERTEX
  8
Image
 10
796.196951982809
 20
821.546214668876
 42
0.0
  0
VERTEX
  8
Image
 10
759.98926616954
 20
822.489117283165
 42
0.0
  0
SEQEND
  0
POLYLINE
  8
Image
 66
     1
 10
0.0
 20
0.0
 30
0.0
 70
     1
  0
VERTEX
  8
Image
 10
693.419869257144
 20
611.239419188326
 42
0.0
  0
VERTEX
  8
Image
 10
684.367958504363
 20
579.65008629547
 42
0.0
  0
VERTEX
  8
Image
 10
648.160272691094
 20
578.707183681182
 42
0.0
  0
VERTEX
  8
Image
 10
677.579011172396
 20
561.923408714765
 42
0.0
  0
VERTEX
  8
Image
 10
666.641280923657
 20
527.412970435023
 42
0.0
  0
VERTEX
  8
Image
 10
693.419869257145
 20
547.541843297544
 42
0.0
  0
VERTEX
  8
Image
 10
720.19845759063
 20
527.412970435023
 42
0.0
  0
VERTEX
  8
Image
 10
709.260727341892
 20
561.923408714765
 42
0.0
  0
VERTEX
  8
Image
 10
738.679465823194
 20
578.707183681182
 42
0.0
  0
VERTEX
  8
Image
 10
702.471780009925
 20
579.65008629547
 42
0.0
  0
SEQEND
  0
POLYLINE
  8
Image
 66
     1
 10
0.0
 20
0.0
 30
0.0
 70
     1
  0
VERTEX
  8
Image
 10
806.580137702857
 20
611.239419188326
 42
0.0
  0
VERTEX
  8
Image
 10
797.528226950075
 20
579.65008629547
 42
0.0
  0
VERTEX
  8
Image
 10
761.320541136806
 20
578.707183681182
 42
0.0
  0
VERTEX
  8
Image
 10
790.739279618109
 20
561.923408714765
 42
0.0
  0
VERTEX
  8
Image
 10
779.80154936937
 20
527.412970435023
 42
0.0
  0
VERTEX
  8
Image
 10
806.580137702857
 20
547.541843297544
 42
0.0
  0
VERTEX
  8
Image
 10
833.358726036343
 20
527.412970435023
 42
0.0
  0
VERTEX
  8
Image
 10
822.420995787604
 20
561.923408714765
 42
0.0
  0
VERTEX
  8
Image
 10
851.839734268906
 20
578.707183681182
 42
0.0
  0
VERTEX
  8
Image
 10
815.632048455638
 20
579.65008629547
 42
0.0
  0
SEQEND
  0
POLYLINE
  8
Image
 66
     1
 10
0.0
 20
0.0
 30
0.0
 70
     1
  0
VERTEX
  8
Image
 10
750.937355416759
 20
691.996901473102
 42
0.0
  0
VERTEX
  8
Image
 10
741.885444663978
 20
660.407568580246
 42
0.0
  0
VERTEX
  8
Image
 10
705.677758850709
 20
659.464665965958
 42
0.0
  0
VERTEX
  8
Image
 10
735.096497332011
 20
642.680890999541
 42
0.0
  0
VERTEX
  8
Image
 10
724.158767083273
 20
608.170452719799
 42
0.0
  0
VERTEX
  8
Image
 10
750.93735541676
 20
628.29932558232
 42
0.0
  0
VERTEX
  8
Image
 10
777.715943750245
 20
608.170452719799
 42
0.0
  0
VERTEX
  8
Image
 10
766.778213501507
 20
642.680890999541
 42
0.0
  0
VERTEX
  8
Image
 10
796.196951982809
 20
659.464665965958
 42
0.0
  0
VERTEX
  8
Image
 10
759.98926616954
 20
660.407568580246
 42
0.0
  0
SEQEND
  0
POLYLINE
  8
Image
 66
     1
 10
0.0
 20
0.0
 30
0.0
 70
     1
  0
VERTEX
  8
Image
 10
693.419869257144
 20
449.157870485407
 42
0.0
  0
VERTEX
  8
Image
 10
684.367958504363
 20
417.568537592551
 42
0.0
  0
VERTEX
  8
Image
 10
648.160272691094
 20
416.625634978263
 42
0.0
  0
VERTEX
  8
Image
 10
677.579011172396
 20
399.841860011846
 42
0.0
  0
VERTEX
  8
Image
 10
666.641280923657
 20
365.331421732105
 42
0.0
  0
VERTEX
  8
Image
 10
693.419869257145
 20
385.460294594625
 42
0.0
  0
VERTEX
  8
Image
 10
720.19845759063
 20
365.331421732105
 42
0.0
  0
VERTEX
  8
Image
 10
709.260727341892
 20
399.841860011846
 42
0.0
  0
VERTEX
  8
Image
 10
738.679465823194
 20
416.625634978263
 42
0.0
  0
VERTEX
  8
Image
 10
702.471780009925
 20
417.568537592551
 42
0.0
  0
SEQEND
  0
POLYLINE
  8
Image
 66
     1
 10
0.0
 20
0.0
 30
0.0
 70
     1
  0
VERTEX
  8
Image
 10
806.580137702857
 20
449.157870485407
 42
0.0
  0
VERTEX
  8
Image
 10
797.528226950075
 20
417.568537592551
 42
0.0
  0
VERTEX
  8
Image
 10
761.320541136806
 20
416.625634978263
 42
0.0
  0
VERTEX
  8
Image
 10
790.739279618109
 20
399.841860011846
 42
0.0
  0
VERTEX
  8
Image
 10
779.80154936937
 20
365.331421732105
 42
0.0
  0
VERTEX
  8
Image
 10
806.580137702857
 20
385.460294594625
 42
0.0
  0
VERTEX
  8
Image
 10
833.358726036343
 20
365.331421732105
 42
0.0
  0
VERTEX
  8
Image
 10
822.420995787604
 20
399.841860011846
 42
0.0
  0
VERTEX
  8
Image
 10
851.839734268906
 20
416.625634978263
 42
0.0
  0
VERTEX
  8
Image
 10
815.632048455638
 20
417.568537592551
 42
0.0
  0
SEQEND
  0
POLYLINE
  8
Image
 66
     1
 10
0.0
 20
0.0
 30
0.0
 70
     1
  0
VERTEX
  8
Image
 10
750.937355416759
 20
529.915352770183
 42
0.0
  0
VERTEX
  8
Image
 10
741.885444663978
 20
498.326019877327
 42
0.0
  0
VERTEX
  8
Image
 10
705.677758850709
 20
497.383117263039
 42
0.0
  0
VERTEX
  8
Image
 10
735.096497332011
 20
480.599342296622
 42
0.0
  0
VERTEX
  8
Image
 10
724.158767083273
 20
446.088904016881
 42
0.0
  0
VERTEX
  8
Image
 10
750.93735541676
 20
466.217776879401
 42
0.0
  0
VERTEX
  8
Image
 10
777.715943750245
 20
446.088904016881
 42
0.0
  0
VERTEX
  8
Image
 10
766.778213501507
 20
480.599342296622
 42
0.0
  0
VERTEX
  8
Image
 10
796.196951982809
 20
497.383117263039
 42
0.0
  0
VERTEX
  8
Image
 10
759.98926616954
 20
498.326019877327
 42
0.0
  0
SEQEND
  0
POLYLINE
  8
Image
 66
     1
 10
0.0
 20
0.0
 30
0.0
 70
     1
  0
VERTEX
  8
Image
 10
693.419869257144
 20
287.076321782488
 42
0.0
  0
VERTEX
  8
Image
 10
684.367958504363
 20
255.486988889633
 42
0.0
  0
VERTEX
  8
Image
 10
648.160272691094
 20
254.544086275345
 42
0.0
  0
VERTEX
  8
Image
 10
677.579011172396
 20
237.760311308928
 42
0.0
  0
VERTEX
  8
Image
 10
666.641280923657
 20
203.249873029186
 42
0.0
  0
VERTEX
  8
Image
 10
693.419869257145
 20
223.378745891707
 42
0.0
  0
VERTEX
  8
Image
 10
720.19845759063
 20
203.249873029186
 42
0.0
  0
VERTEX
  8
Image
 10
709.260727341892
 20
237.760311308928
 42
0.0
  0
VERTEX
  8
Image
 10
738.679465823194
 20
254.544086275345
 42
0.0
  0
VERTEX
  8
Image
 10
702.471780009925
 20
255.486988889633
 42
0.0
  0
SEQEND
  0
POLYLINE
  8
Image
 66
     1
 10
0.0
 20
0.0
 30
0.0
 70
     1
  0
VERTEX
  8
Image
 10
806.580137702857
 20
287.076321782488
 42
0.0
  0
VERTEX
  8
Image
 10
797.528226950075
 20
255.486988889633
 42
0.0
  0
VERTEX
  8
Image
 10
761.320541136806
 20
254.544086275345
 42
0.0
  0
VERTEX
  8
Image
 10
790.739279618109
 20
237.760311308928
 42
0.0
  0
VERTEX
  8
Image
 10
779.80154936937
 20
203.249873029186
 42
0.0
  0
VERTEX
  8
Image
 10
806.580137702857
 20
223.378745891707
 42
0.0
  0
VERTEX
  8
Image
 10
833.358726036343
 20
203.249873029186
 42
0.0
  0
VERTEX
  8
Image
 10
822.420995787604
 20
237.760311308928
 42
0.0
  0
VERTEX
  8
Image
 10
851.839734268906
 20
254.544086275345
 42
0.0
  0
VERTEX
  8
Image
 10
815.632048455638
 20
255.486988889633
 42
0.0
  0
SEQEND
  0
POLYLINE
  8
Image
 66
     1
 10
0.0
 20
0.0
 30
0.0
 70
     1
  0
VERTEX
  8
Image
 10
750.937355416759
 20
367.833804067265
 42
0.0
  0
VERTEX
  8
Image
 10
741.885444663978
 20
336.244471174409
 42
0.0
  0
VERTEX
  8
Image
 10
705.677758850709
 20
335.301568560121
 42
0.0
  0
VERTEX
  8
Image
 10
735.096497332011
 20
318.517793593704
 42
0.0
  0
VERTEX
  8
Image
 10
724.158767083273
 20
284.007355313962
 42
0.0
  0
VERTEX
  8
Image
 10
750.93735541676
 20
304.136228176483
 42
0.0
  0
VERTEX
  8
Image
 10
777.715943750245
 20
284.007355313962
 42
0.0
  0
VERTEX
  8
Image
 10
766.778213501507
 20
318.517793593704
 42
0.0
  0
VERTEX
  8
Image
 10
796.196951982809
 20
335.301568560121
 42
0.0
  0
VERTEX
  8
Image
 10
759.98926616954
 20
336.244471174409
 42
0.0
  0
SEQEND
  0
POLYLINE
  8
Image
 66
     1
 10
0.0
 20
0.0
 30
0.0
 70
     1
  0
VERTEX
  8
Image
 10
693.419869257144
 20
124.99477307957
 42
0.0
  0
VERTEX
  8
Image
 10
684.367958504363
 20
93.4054401867141
 42
0.0
  0
VERTEX
  8
Image
 10
648.160272691094
 20
92.462537572426
 42
0.0
  0
VERTEX
  8
Image
 10
677.579011172396
 20
75.6787626060092
 42
0.0
  0
VERTEX
  8
Image
 10
666.641280923657
 20
41.1683243262674
 42
0.0
  0
VERTEX
  8
Image
 10
693.419869257145
 20
61.2971971887881
 42
0.0
  0
VERTEX
  8
Image
 10
720.19845759063
 20
41.1683243262674
 42
0.0
  0
VERTEX
  8
Image
 10
709.260727341892
 20
75.6787626060092
 42
0.0
  0
VERTEX
  8
Image
 10
738.679465823194
 20
92.462537572426
 42
0.0
  0
VERTEX
  8
Image
 10
702.471780009925
 20
93.4054401867141
 42
0.0
  0
SEQEND
  0
POLYLINE
  8
Image
 66
     1
 10
0.0
 20
0.0
 30
0.0
 70
     1
  0
VERTEX
  8
Image
 10
806.580137702857
 20
124.99477307957
 42
0.0
  0
VERTEX
  8
Image
 10
797.528226950075
 20
93.4054401867141
 42
0.0
  0
VERTEX
  8
Image
 10
761.320541136806
 20
92.462537572426
 42
0.0
  0
VERTEX
  8
Image
 10
790.739279618109
 20
75.6787626060092
 42
0.0
  0
VERTEX
  8
Image
 10
779.80154936937
 20
41.1683243262674
 42
0.0
  0
VERTEX
  8
Image
 10
806.580137702857
 20
61.2971971887881
 42
0.0
  0
VERTEX
  8
Image
 10
833.358726036343
 20
41.1683243262674
 42
0.0
  0
VERTEX
  8
Image
 10
822.420995787604
 20
75.6787626060092
 42
0.0
  0
VERTEX
  8
Image
 10
851.839734268906
 20
92.462537572426
 42
0.0
  0
VERTEX
  8
Image
 10
815.632048455638
 20
93.4054401867141
 42
0.0
  0
SEQEND
  0
POLYLINE
  8
Image
 66
     1
 10
0.0
 20
0.0
 30
0.0
 70
     1
  0
VERTEX
  8
Image
 10
750.937355416759
 20
205.752255364346
 42
0.0
  0
VERTEX
  8
Image
 10
741.885444663978
 20
174.16292247149
 42
0.0
  0
VERTEX
  8
Image
 10
705.677758850709
 20
173.220019857202
 42
0.0
  0
VERTEX
  8
Image
 10
735.096497332011
 20
156.436244890785
 42
0.0
  0
VERTEX
  8
Image
 10
724.158767083273
 20
121.925806611043
 42
0.0
  0
VERTEX
  8
Image
 10
750.93735541676
 20
142.054679473564
 42
0.0
  0
VERTEX
  8
Image
 10
777.715943750245
 20
121.925806611043
 42
0.0
  0
VERTEX
  8
Image
 10
766.778213501507
 20
156.436244890785
 42
0.0
  0
VERTEX
  8
Image
 10
796.196951982809
 20
173.220019857202
 42
0.0
  0
VERTEX
  8
Image
 10
759.98926616954
 20
174.16292247149
 42
0.0
  0
SEQEND
  0
POLYLINE
  8
Image
 66
     1
 10
0.0
 20
0.0
 30
0.0
 70
     1
  0
VERTEX
  8
Image
 10
693.419869257144
 20
-37.0867756233488
 42
0.0
  0
VERTEX
  8
Image
 10
684.367958504363
 20
-68.6761085162045
 42
0.0
  0
VERTEX
  8
Image
 10
648.160272691094
 20
-69.6190111304926
 42
0.0
  0
VERTEX
  8
Image
 10
677.579011172396
 20
-86.4027860969095
 42
0.0
  0
VERTEX
  8
Image
 10
666.641280923657
 20
-120.913224376651
 42
0.0
  0
VERTEX
  8
Image
 10
693.419869257145
 20
-100.784351514131
 42
0.0
  0
VERTEX
  8
Image
 10
720.19845759063
 20
-120.913224376651
 42
0.0
  0
VERTEX
  8
Image
 10
709.260727341892
 20
-86.4027860969095
 42
0.0
  0
VERTEX
  8
Image
 10
738.679465823194
 20
-69.6190111304926
 42
0.0
  0
VERTEX
  8
Image
 10
702.471780009925
 20
-68.6761085162045
 42
0.0
  0
SEQEND
  0
POLYLINE
  8
Image
 66
     1
 10
0.0
 20
0.0
 30
0.0
 70
     1
  0
VERTEX
  8
Image
 10
806.580137702857
 20
-37.0867756233488
 42
0.0
  0
VERTEX
  8
Image
 10
797.528226950075
 20
-68.6761085162045
 42
0.0
  0
VERTEX
  8
Image
 10
761.320541136806
 20
-69.6190111304926
 42
0.0
  0
VERTEX
  8
Image
 10
790.739279618109
 20
-86.4027860969095
 42
0.0
  0
VERTEX
  8
Image
 10
779.80154936937
 20
-120.913224376651
 42
0.0
  0
VERTEX
  8
Image
 10
806.580137702857
 20
-100.784351514131
 42
0.0
  0
VERTEX
  8
Image
 10
833.358726036343
 20
-120.913224376651
 42
0.0
  0
VERTEX
  8
Image
 10
822.420995787604
 20
-86.4027860969095
 42
0.0
  0
VERTEX
  8
Image
 10
851.839734268906
 20
-69.6190111304926
 42
0.0
  0
VERTEX
  8
Image
 10
815.632048455638
 20
-68.6761085162045
 42
0.0
  0
SEQEND
  0
POLYLINE
  8
Image
 66
     1
 10
0.0
 20
0.0
 30
0.0
 70
     1
  0
VERTEX
  8
Image
 10
750.937355416759
 20
43.6707066614272
 42
0.0
  0
VERTEX
  8
Image
 10
741.885444663978
 20
12.0813737685715
 42
0.0
  0
VERTEX
  8
Image
 10
705.677758850709
 20
11.1384711542834
 42
0.0
  0
VERTEX
  8
Image
 10
735.096497332011
 20
-5.6453038121335
 42
0.0
  0
VERTEX
  8
Image
 10
724.158767083273
 20
-40.1557420918753
 42
0.0
  0
VERTEX
  8
Image
 10
750.93735541676
 20
-20.0268692293546
 42
0.0
  0
VERTEX
  8
Image
 10
777.715943750245
 20
-40.1557420918753
 42
0.0
  0
VERTEX
  8
Image
 10
766.778213501507
 20
-5.6453038121335
 42
0.0
  0
VERTEX
  8
Image
 10
796.196951982809
 20
11.1384711542834
 42
0.0
  0
VERTEX
  8
Image
 10
759.98926616954
 20
12.0813737685715
 42
0.0
  0
SEQEND
  0
POLYLINE
  8
Image
 66
     1
 10
0.0
 20
0.0
 30
0.0
 70
     1
  0
VERTEX
  8
Image
 10
693.419869257144
 20
-199.168324326267
 42
0.0
  0
VERTEX
  8
Image
 10
684.367958504363
 20
-230.757657219123
 42
0.0
  0
VERTEX
  8
Image
 10
648.160272691094
 20
-231.700559833411
 42
0.0
  0
VERTEX
  8
Image
 10
677.579011172396
 20
-248.484334799828
 42
0.0
  0
VERTEX
  8
Image
 10
666.641280923657
 20
-282.99477307957
 42
0.0
  0
VERTEX
  8
Image
 10
693.419869257145
 20
-262.865900217049
 42
0.0
  0
VERTEX
  8
Image
 10
720.19845759063
 20
-282.99477307957
 42
0.0
  0
VERTEX
  8
Image
 10
709.260727341892
 20
-248.484334799828
 42
0.0
  0
VERTEX
  8
Image
 10
738.679465823194
 20
-231.700559833411
 42
0.0
  0
VERTEX
  8
Image
 10
702.471780009925
 20
-230.757657219123
 42
0.0
  0
SEQEND
  0
POLYLINE
  8
Image
 66
     1
 10
0.0
 20
0.0
 30
0.0
 70
     1
  0
VERTEX
  8
Image
 10
806.580137702857
 20
-199.168324326267
 42
0.0
  0
VERTEX
  8
Image
 10
797.528226950075
 20
-230.757657219123
 42
0.0
  0
VERTEX
  8
Image
 10
761.320541136806
 20
-231.700559833411
 42
0.0
  0
VERTEX
  8
Image
 10
790.739279618109
 20
-248.484334799828
 42
0.0
  0
VERTEX
  8
Image
 10
779.80154936937
 20
-282.99477307957
 42
0.0
  0
VERTEX
  8
Image
 10
806.580137702857
 20
-262.865900217049
 42
0.0
  0
VERTEX
  8
Image
 10
833.358726036343
 20
-282.99477307957
 42
0.0
  0
VERTEX
  8
Image
 10
822.420995787604
 20
-248.484334799828
 42
0.0
  0
VERTEX
  8
Image
 10
851.839734268906
 20
-231.700559833411
 42
0.0
  0
VERTEX
  8
Image
 10
815.632048455638
 20
-230.757657219123
 42
0.0
  0
SEQEND
  0
POLYLINE
  8
Image
 66
     1
 10
0.0
 20
0.0
 30
0.0
 70
     1
  0
VERTEX
  8
Image
 10
750.937355416759
 20
-118.410842041491
 42
0.0
  0
VERTEX
  8
Image
 10
741.885444663978
 20
-150.000174934347
 42
0.0
  0
VERTEX
  8
Image
 10
705.677758850709
 20
-150.943077548635
 42
0.0
  0
VERTEX
  8
Image
 10
735.096497332011
 20
-167.726852515052
 42
0.0
  0
VERTEX
  8
Image
 10
724.158767083273
 20
-202.237290794794
 42
0.0
  0
VERTEX
  8
Image
 10
750.93735541676
 20
-182.108417932273
 42
0.0
  0
VERTEX
  8
Image
 10
777.715943750245
 20
-202.237290794794
 42
0.0
  0
VERTEX
  8
Image
 10
766.778213501507
 20
-167.726852515052
 42
0.0
  0
VERTEX
  8
Image
 10
796.196951982809
 20
-150.943077548635
 42
0.0
  0
VERTEX
  8
Image
 10
759.98926616954
 20
-150.000174934347
 42
0.0
  0
SEQEND
  0
POLYLINE
  8
Image
 66
     1
 10
0.0
 20
0.0
 30
0.0
 70
     1
  0
VERTEX
  8
Image
 10
693.419869257144
 20
-361.249873029186
 42
0.0
  0
VERTEX
  8
Image
 10
684.367958504363
 20
-392.839205922042
 42
0.0
  0
VERTEX
  8
Image
 10
648.160272691094
 20
-393.78210853633
 42
0.0
  0
VERTEX
  8
Image
 10
677.579011172396
 20
-410.565883502747
 42
0.0
  0
VERTEX
  8
Image
 10
666.641280923657
 20
-445.076321782488
 42
0.0
  0
VERTEX
  8
Image
 10
693.419869257145
 20
-424.947448919968
 42
0.0
  0
VERTEX
  8
Image
 10
720.19845759063
 20
-445.076321782488
 42
0.0
  0
VERTEX
  8
Image
 10
709.260727341892
 20
-410.565883502747
 42
0.0
  0
VERTEX
  8
Image
 10
738.679465823194
 20
-393.78210853633
 42
0.0
  0
VERTEX
  8
Image
 10
702.471780009925
 20
-392.839205922042
 42
0.0
  0
SEQEND
  0
POLYLINE
  8
Image
 66
     1
 10
0.0
 20
0.0
 30
0.0
 70
     1
  0
VERTEX
  8
Image
 10
806.580137702857
 20
-361.249873029186
 42
0.0
  0
VERTEX
  8
Image
 10
797.528226950075
 20
-392.839205922042
 42
0.0
  0
VERTEX
  8
Image
 10
761.320541136806
 20
-393.78210853633
 42
0.0
  0
VERTEX
  8
Image
 10
790.739279618109
 20
-410.565883502747
 42
0.0
  0
VERTEX
  8
Image
 10
779.80154936937
 20
-445.076321782488
 42
0.0
  0
VERTEX
  8
Image
 10
806.580137702857
 20
-424.947448919968
 42
0.0
  0
VERTEX
  8
Image
 10
833.358726036343
 20
-445.076321782488
 42
0.0
  0
VERTEX
  8
Image
 10
822.420995787604
 20
-410.565883502747
 42
0.0
  0
VERTEX
  8
Image
 10
851.839734268906
 20
-393.78210853633
 42
0.0
  0
VERTEX
  8
Image
 10
815.632048455638
 20
-392.839205922042
 42
0.0
  0
SEQEND
  0
POLYLINE
  8
Image
 66
     1
 10
0.0
 20
0.0
 30
0.0
 70
     1
  0
VERTEX
  8
Image
 10
750.937355416759
 20
-280.49239074441
 42
0.0
  0
VERTEX
  8
Image
 10
741.885444663978
 20
-312.081723637266
 42
0.0
  0
VERTEX
  8
Image
 10
705.677758850709
 20
-313.024626251554
 42
0.0
  0
VERTEX
  8
Image
 10
735.096497332011
 20
-329.808401217971
 42
0.0
  0
VERTEX
  8
Image
 10
724.158767083273
 20
-364.318839497713
 42
0.0
  0
VERTEX
  8
Image
 10
750.93735541676
 20
-344.189966635192
 42
0.0
  0
VERTEX
  8
Image
 10
777.715943750245
 20
-364.318839497713
 42
0.0
  0
VERTEX
  8
Image
 10
766.778213501507
 20
-329.808401217971
 42
0.0
  0
VERTEX
  8
Image
 10
796.196951982809
 20
-313.024626251554
 42
0.0
  0
VERTEX
  8
Image
 10
759.98926616954
 20
-312.081723637266
 42
0.0
  0
SEQEND
  0
POLYLINE
  8
Image
 66
     1
 10
0.0
 20
0.0
 30
0.0
 70
     1
  0
VERTEX
  8
Image
 10
693.419869257144
 20
-523.331421732105
 42
0.0
  0
VERTEX
  8
Image
 10
684.367958504363
 20
-554.92075462496
 42
0.0
  0
VERTEX
  8
Image
 10
648.160272691094
 20
-555.863657239249
 42
0.0
  0
VERTEX
  8
Image
 10
677.579011172396
 20
-572.647432205665
 42
0.0
  0
VERTEX
  8
Image
 10
666.641280923657
 20
-607.157870485407
 42
0.0
  0
VERTEX
  8
Image
 10
693.419869257145
 20
-587.028997622886
 42
0.0
  0
VERTEX
  8
Image
 10
720.19845759063
 20
-607.157870485407
 42
0.0
  0
VERTEX
  8
Image
 10
709.260727341892
 20
-572.647432205665
 42
0.0
  0
VERTEX
  8
Image
 10
738.679465823194
 20
-555.863657239249
 42
0.0
  0
VERTEX
  8
Image
 10
702.471780009925
 20
-554.92075462496
 42
0.0
  0
SEQEND
  0
POLYLINE
  8
Image
 66
     1
 10
0.0
 20
0.0
 30
0.0
 70
     1
  0
VERTEX
  8
Image
 10
806.580137702857
 20
-523.331421732105
 42
0.0
  0
VERTEX
  8
Image
 10
797.528226950075
 20
-554.92075462496
 42
0.0
  0
VERTEX
  8
Image
 10
761.320541136806
 20
-555.863657239249
 42
0.0
  0
VERTEX
  8
Image
 10
790.739279618109
 20
-572.647432205665
 42
0.0
  0
VERTEX
  8
Image
 10
779.80154936937
 20
-607.157870485407
 42
0.0
  0
VERTEX
  8
Image
 10
806.580137702857
 20
-587.028997622886
 42
0.0
  0
VERTEX
  8
Image
 10
833.358726036343
 20
-607.157870485407
 42
0.0
  0
VERTEX
  8
Image
 10
822.420995787604
 20
-572.647432205665
 42
0.0
  0
VERTEX
  8
Image
 10
851.839734268906
 20
-555.863657239249
 42
0.0
  0
VERTEX
  8
Image
 10
815.632048455638
 20
-554.92075462496
 42
0.0
  0
SEQEND
  0
POLYLINE
  8
Image
 66
     1
 10
0.0
 20
0.0
 30
0.0
 70
     1
  0
VERTEX
  8
Image
 10
750.937355416759
 20
-442.573939447329
 42
0.0
  0
VERTEX
  8
Image
 10
741.885444663978
 20
-474.163272340184
 42
0.0
  0
VERTEX
  8
Image
 10
705.677758850709
 20
-475.106174954473
 42
0.0
  0
VERTEX
  8
Image
 10
735.096497332011
 20
-491.889949920889
 42
0.0
  0
VERTEX
  8
Image
 10
724.158767083273
 20
-526.400388200631
 42
0.0
  0
VERTEX
  8
Image
 10
750.93735541676
 20
-506.271515338111
 42
0.0
  0
VERTEX
  8
Image
 10
777.715943750245
 20
-526.400388200631
 42
0.0
  0
VERTEX
  8
Image
 10
766.778213501507
 20
-491.889949920889
 42
0.0
  0
VERTEX
  8
Image
 10
796.196951982809
 20
-475.106174954473
 42
0.0
  0
VERTEX
  8
Image
 10
759.98926616954
 20
-474.163272340184
 42
0.0
  0
SEQEND
  0
POLYLINE
  8
Image
 66
     1
 10
0.0
 20
0.0
 30
0.0
 70
     1
  0
VERTEX
  8
Image
 10
693.419869257144
 20
-685.412970435023
 42
0.0
  0
VERTEX
  8
Image
 10
684.367958504363
 20
-717.002303327879
 42
0.0
  0
VERTEX
  8
Image
 10
648.160272691094
 20
-717.945205942167
 42
0.0
  0
VERTEX
  8
Image
 10
677.579011172396
 20
-734.728980908584
 42
0.0
  0
VERTEX
  8
Image
 10
666.641280923657
 20
-769.239419188326
 42
0.0
  0
VERTEX
  8
Image
 10
693.419869257145
 20
-749.110546325805
 42
0.0
  0
VERTEX
  8
Image
 10
720.19845759063
 20
-769.239419188326
 42
0.0
  0
VERTEX
  8
Image
 10
709.260727341892
 20
-734.728980908584
 42
0.0
  0
VERTEX
  8
Image
 10
738.679465823194
 20
-717.945205942167
 42
0.0
  0
VERTEX
  8
Image
 10
702.471780009925
 20
-717.002303327879
 42
0.0
  0
SEQEND
  0
POLYLINE
  8
Image
 66
     1
 10
0.0
 20
0.0
 30
0.0
 70
     1
  0
VERTEX
  8
Image
 10
806.580137702857
 20
-685.412970435023
 42
0.0
  0
VERTEX
  8
Image
 10
797.528226950075
 20
-717.002303327879
 42
0.0
  0
VERTEX
  8
Image
 10
761.320541136806
 20
-717.945205942167
 42
0.0
  0
VERTEX
  8
Image
 10
790.739279618109
 20
-734.728980908584
 42
0.0
  0
VERTEX
  8
Image
 10
779.80154936937
 20
-769.239419188326
 42
0.0
  0
VERTEX
  8
Image
 10
806.580137702857
 20
-749.110546325805
 42
0.0
  0
VERTEX
  8
Image
 10
833.358726036343
 20
-769.239419188326
 42
0.0
  0
VERTEX
  8
Image
 10
822.420995787604
 20
-734.728980908584
 42
0.0
  0
VERTEX
  8
Image
 10
851.839734268906
 20
-717.945205942167
 42
0.0
  0
VERTEX
  8
Image
 10
815.632048455638
 20
-717.002303327879
 42
0.0
  0
SEQEND
  0
POLYLINE
  8
Image
 66
     1
 10
0.0
 20
0.0
 30
0.0
 70
     1
  0
VERTEX
  8
Image
 10
750.937355416759
 20
-604.655488150247
 42
0.0
  0
VERTEX
  8
Image
 10
741.885444663978
 20
-636.244821043103
 42
0.0
  0
VERTEX
  8
Image
 10
705.677758850709
 20
-637.187723657391
 42
0.0
  0
VERTEX
  8
Image
 10
735.096497332011
 20
-653.971498623808
 42
0.0
  0
VERTEX
  8
Image
 10
724.158767083273
 20
-688.48193690355
 42
0.0
  0
VERTEX
  8
Image
 10
750.93735541676
 20
-668.353064041029
 42
0.0
  0
VERTEX
  8
Image
 10
777.715943750245
 20
-688.48193690355
 42
0.0
  0
VERTEX
  8
Image
 10
766.778213501507
 20
-653.971498623808
 42
0.0
  0
VERTEX
  8
Image
 10
796.196951982809
 20
-637.187723657391
 42
0.0
  0
VERTEX
  8
Image
 10
759.98926616954
 20
-636.244821043103
 42
0.0
  0
SEQEND
  0
POLYLINE
  8
Image
 66
     1
 10
0.0
 20
0.0
 30
0.0
 70
     1
  0
VERTEX
  8
Image
 10
693.419869257144
 20
-847.494519137942
 42
0.0
  0
VERTEX
  8
Image
 10
684.367958504363
 20
-879.083852030798
 42
0.0
  0
VERTEX
  8
Image
 10
648.160272691094
 20
-880.026754645086
 42
0.0
  0
VERTEX
  8
Image
 10
677.579011172396
 20
-896.810529611503
 42
0.0
  0
VERTEX
  8
Image
 10
666.641280923657
 20
-931.320967891245
 42
0.0
  0
VERTEX
  8
Image
 10
693.419869257145
 20
-911.192095028724
 42
0.0
  0
VERTEX
  8
Image
 10
720.19845759063
 20
-931.320967891245
 42
0.0
  0
VERTEX
  8
Image
 10
709.260727341892
 20
-896.810529611503
 42
0.0
  0
VERTEX
  8
Image
 10
738.679465823194
 20
-880.026754645086
 42
0.0
  0
VERTEX
  8
Image
 10
702.471780009925
 20
-879.083852030798
 42
0.0
  0
SEQEND
  0
POLYLINE
  8
Image
 66
     1
 10
0.0
 20
0.0
 30
0.0
 70
     1
  0
VERTEX
  8
Image
 10
806.580137702857
 20
-847.494519137942
 42
0.0
  0
VERTEX
  8
Image
 10
797.528226950075
 20
-879.083852030798
 42
0.0
  0
VERTEX
  8
Image
 10
761.320541136806
 20
-880.026754645086
 42
0.0
  0
VERTEX
  8
Image
 10
790.739279618109
 20
-896.810529611503
 42
0.0
  0
VERTEX
  8
Image
 10
779.80154936937
 20
-931.320967891245
 42
0.0
  0
VERTEX
  8
Image
 10
806.580137702857
 20
-911.192095028724
 42
0.0
  0
VERTEX
  8
Image
 10
833.358726036343
 20
-931.320967891245
 42
0.0
  0
VERTEX
  8
Image
 10
822.420995787604
 20
-896.810529611503
 42
0.0
  0
VERTEX
  8
Image
 10
851.839734268906
 20
-880.026754645086
 42
0.0
  0
VERTEX
  8
Image
 10
815.632048455638
 20
-879.083852030798
 42
0.0
  0
SEQEND
  0
POLYLINE
  8
Image
 66
     1
 10
0.0
 20
0.0
 30
0.0
 70
     1
  0
VERTEX
  8
Image
 10
750.937355416759
 20
-766.737036853166
 42
0.0
  0
VERTEX
  8
Image
 10
741.885444663978
 20
-798.326369746022
 42
0.0
  0
VERTEX
  8
Image
 10
705.677758850709
 20
-799.26927236031
 42
0.0
  0
VERTEX
  8
Image
 10
735.096497332011
 20
-816.053047326727
 42
0.0
  0
VERTEX
  8
Image
 10
724.158767083273
 20
-850.563485606468
 42
0.0
  0
VERTEX
  8
Image
 10
750.93735541676
 20
-830.434612743948
 42
0.0
  0
VERTEX
  8
Image
 10
777.715943750245
 20
-850.563485606468
 42
0.0
  0
VERTEX
  8
Image
 10
766.778213501507
 20
-816.053047326727
 42
0.0
  0
VERTEX
  8
Image
 10
796.196951982809
 20
-799.26927236031
 42
0.0
  0
VERTEX
  8
Image
 10
759.98926616954
 20
-798.326369746022
 42
0.0
  0
SEQEND
  0
POLYLINE
  8
Image
 66
     1
 10
0.0
 20
0.0
 30
0.0
 70
     1
  0
VERTEX
  8
Image
 10
645.0000029
 20
-349.619272863734
 42
0.0
  0
VERTEX
  8
Image
 10
664.555675304533
 20
-364.318839497713
 42
0.0
  0
VERTEX
  8
Image
 10
653.617945055794
 20
-329.808401217971
 42
0.0
  0
VERTEX
  8
Image
 10
683.036683537096
 20
-313.024626251554
 42
0.0
  0
VERTEX
  8
Image
 10
646.828997723828
 20
-312.081723637266
 42
0.0
  0
VERTEX
  8
Image
 10
645.0000029
 20
-305.698902603437
 42
0.0
  0
SEQEND
  0
POLYLINE
  8
Image
 66
     1
 10
0.0
 20
0.0
 30
0.0
 70
     1
  0
VERTEX
  8
Image
 10
645.0000029
 20
-187.537724160816
 42
0.0
  0
VERTEX
  8
Image
 10
664.555675304533
 20
-202.237290794794
 42
0.0
  0
VERTEX
  8
Image
 10
653.617945055794
 20
-167.726852515052
 42
0.0
  0
VERTEX
  8
Image
 10
683.036683537096
 20
-150.943077548635
 42
0.0
  0
VERTEX
  8
Image
 10
646.828997723828
 20
-150.000174934347
 42
0.0
  0
VERTEX
  8
Image
 10
645.0000029
 20
-143.617353900517
 42
0.0
  0
SEQEND
  0
POLYLINE
  8
Image
 66
     1
 10
0.0
 20
0.0
 30
0.0
 70
     1
  0
VERTEX
  8
Image
 10
645.0000029
 20
-25.4561754578972
 42
0.0
  0
VERTEX
  8
Image
 10
664.555675304533
 20
-40.1557420918753
 42
0.0
  0
VERTEX
  8
Image
 10
653.617945055794
 20
-5.6453038121335
 42
0.0
  0
VERTEX
  8
Image
 10
683.036683537096
 20
11.1384711542834
 42
0.0
  0
VERTEX
  8
Image
 10
646.828997723828
 20
12.0813737685715
 42
0.0
  0
VERTEX
  8
Image
 10
645.0000029
 20
18.4641948024013
 42
0.0
  0
SEQEND
  0
POLYLINE
  8
Image
 66
     1
 10
0.0
 20
0.0
 30
0.0
 70
     1
  0
VERTEX
  8
Image
 10
767.36943275656
 20
-979.999995445
 42
0.0
  0
VERTEX
  8
Image
 10
766.778213501507
 20
-978.134596029645
 42
0.0
  0
VERTEX
  8
Image
 10
796.196951982809
 20
-961.350821063229
 42
0.0
  0
VERTEX
  8
Image
 10
759.98926616954
 20
-960.40791844894
 42
0.0
  0
VERTEX
  8
Image
 10
750.937355416759
 20
-928.818585556085
 42
0.0
  0
VERTEX
  8
Image
 10
741.885444663978
 20
-960.40791844894
 42
0.0
  0
VERTEX
  8
Image
 10
705.677758850709
 20
-961.350821063229
 42
0.0
  0
VERTEX
  8
Image
 10
735.096497332011
 20
-978.134596029645
 42
0.0
  0
VERTEX
  8
Image
 10
734.505278076958
 20
-979.999995445
 42
0.0
  0
SEQEND
  0
POLYLINE
  8
Image
 66
     1
 10
0.0
 20
0.0
 30
0.0
 70
     1
  0
VERTEX
  8
Image
 10
654.209164310847
 20
-979.999995445
 42
0.0
  0
VERTEX
  8
Image
 10
653.617945055794
 20
-978.134596029645
 42
0.0
  0
VERTEX
  8
Image
 10
683.036683537096
 20
-961.350821063229
 42
0.0
  0
VERTEX
  8
Image
 10
646.828997723828
 20
-960.40791844894
 42
0.0
  0
VERTEX
  8
Image
 10
645.0000029
 20
-954.025097415111
 42
0.0
  0
VERTEX
  8
Image
 10
645.0000029
 20
-979.999995445
 42
0.0
  0
SEQEND
  0
POLYLINE
  8
Image
 66
     1
 10
0.0
 20
0.0
 30
0.0
 70
     1
  0
VERTEX
  8
Image
 10
645.0000029
 20
-835.863918972491
 42
0.0
  0
VERTEX
  8
Image
 10
664.555675304533
 20
-850.563485606468
 42
0.0
  0
VERTEX
  8
Image
 10
653.617945055794
 20
-816.053047326727
 42
0.0
  0
VERTEX
  8
Image
 10
683.036683537096
 20
-799.26927236031
 42
0.0
  0
VERTEX
  8
Image
 10
646.828997723828
 20
-798.326369746022
 42
0.0
  0
VERTEX
  8
Image
 10
645.0000029
 20
-791.943548712193
 42
0.0
  0
SEQEND
  0
POLYLINE
  8
Image
 66
     1
 10
0.0
 20
0.0
 30
0.0
 70
     1
  0
VERTEX
  8
Image
 10
645.0000029
 20
-673.782370269572
 42
0.0
  0
VERTEX
  8
Image
 10
664.555675304533
 20
-688.48193690355
 42
0.0
  0
VERTEX
  8
Image
 10
653.617945055794
 20
-653.971498623808
 42
0.0
  0
VERTEX
  8
Image
 10
683.036683537096
 20
-637.187723657391
 42
0.0
  0
VERTEX
  8
Image
 10
646.828997723828
 20
-636.244821043103
 42
0.0
  0
VERTEX
  8
Image
 10
645.0000029
 20
-629.862000009273
 42
0.0
  0
SEQEND
  0
POLYLINE
  8
Image
 66
     1
 10
0.0
 20
0.0
 30
0.0
 70
     1
  0
VERTEX
  8
Image
 10
645.0000029
 20
622.870019353777
 42
0.0
  0
VERTEX
  8
Image
 10
664.555675304533
 20
608.170452719799
 42
0.0
  0
VERTEX
  8
Image
 10
653.617945055794
 20
642.680890999541
 42
0.0
  0
VERTEX
  8
Image
 10
683.036683537096
 20
659.464665965958
 42
0.0
  0
VERTEX
  8
Image
 10
646.828997723828
 20
660.407568580246
 42
0.0
  0
VERTEX
  8
Image
 10
645.0000029
 20
666.790389614075
 42
0.0
  0
SEQEND
  0
POLYLINE
  8
Image
 66
     1
 10
0.0
 20
0.0
 30
0.0
 70
     1
  0
VERTEX
  8
Image
 10
645.0000029
 20
784.951568056696
 42
0.0
  0
VERTEX
  8
Image
 10
664.555675304533
 20
770.252001422718
 42
0.0
  0
VERTEX
  8
Image
 10
653.617945055794
 20
804.76243970246
 42
0.0
  0
VERTEX
  8
Image
 10
683.036683537096
 20
821.546214668876
 42
0.0
  0
VERTEX
  8
Image
 10
646.828997723828
 20
822.489117283165
 42
0.0
  0
VERTEX
  8
Image
 10
645.0000029
 20
828.871938316994
 42
0.0
  0
SEQEND
  0
POLYLINE
  8
Image
 66
     1
 10
0.0
 20
0.0
 30
0.0
 70
     1
  0
VERTEX
  8
Image
 10
645.0000029
 20
947.033116759615
 42
0.0
  0
VERTEX
  8
Image
 10
664.555675304533
 20
932.333550125637
 42
0.0
  0
VERTEX
  8
Image
 10
653.617945055794
 20
966.843988405378
 42
0.0
  0
VERTEX
  8
Image
 10
676.677902147165
 20
979.999995445
 42
0.0
  0
VERTEX
  8
Image
 10
645.0000029
 20
979.999995445
 42
0.0
  0
SEQEND
  0
POLYLINE
  8
Image
 66
     1
 10
0.0
 20
0.0
 30
0.0
 70
     1
  0
VERTEX
  8
Image
 10
645.0000029
 20
136.625373245022
 42
0.0
  0
VERTEX
  8
Image
 10
664.555675304533
 20
121.925806611043
 42
0.0
  0
VERTEX
  8
Image
 10
653.617945055794
 20
156.436244890785
 42
0.0
  0
VERTEX
  8
Image
 10
683.036683537096
 20
173.220019857202
 42
0.0
  0
VERTEX
  8
Image
 10
646.828997723828
 20
174.16292247149
 42
0.0
  0
VERTEX
  8
Image
 10
645.0000029
 20
180.54574350532
 42
0.0
  0
SEQEND
  0
POLYLINE
  8
Image
 66
     1
 10
0.0
 20
0.0
 30
0.0
 70
     1
  0
VERTEX
  8
Image
 10
645.0000029
 20
298.70692194794
 42
0.0
  0
VERTEX
  8
Image
 10
664.555675304533
 20
284.007355313962
 42
0.0
  0
VERTEX
  8
Image
 10
653.617945055794
 20
318.517793593704
 42
0.0
  0
VERTEX
  8
Image
 10
683.036683537096
 20
335.301568560121
 42
0.0
  0
VERTEX
  8
Image
 10
646.828997723828
 20
336.244471174409
 42
0.0
  0
VERTEX
  8
Image
 10
645.0000029
 20
342.627292208239
 42
0.0
  0
SEQEND
  0
POLYLINE
  8
Image
 66
     1
 10
0.0
 20
0.0
 30
0.0
 70
     1
  0
VERTEX
  8
Image
 10
645.0000029
 20
460.788470650859
 42
0.0
  0
VERTEX
  8
Image
 10
664.555675304533
 20
446.088904016881
 42
0.0
  0
VERTEX
  8
Image
 10
653.617945055794
 20
480.599342296622
 42
0.0
  0
VERTEX
  8
Image
 10
683.036683537096
 20
497.383117263039
 42
0.0
  0
VERTEX
  8
Image
 10
646.828997723828
 20
498.326019877327
 42
0.0
  0
VERTEX
  8
Image
 10
645.0000029
 20
504.708840911157
 42
0.0
  0
SEQEND
  0
POLYLINE
  8
Image
 66
     1
 10
0.0
 20
0.0
 30
0.0
 70
     1
  0
VERTEX
  8
Image
 10
712.03654024064
 20
979.999995445
 42
0.0
  0
VERTEX
  8
Image
 10
735.096497332011
 20
966.843988405378
 42
0.0
  0
VERTEX
  8
Image
 10
724.158767083273
 20
932.333550125637
 42
0.0
  0
VERTEX
  8
Image
 10
750.93735541676
 20
952.462422988157
 42
0.0
  0
VERTEX
  8
Image
 10
777.715943750245
 20
932.333550125637
 42
0.0
  0
VERTEX
  8
Image
 10
766.778213501507
 20
966.843988405378
 42
0.0
  0
VERTEX
  8
Image
 10
789.838170592878
 20
979.999995445
 42
0.0
  0
SEQEND
  0
POLYLINE
  8
Image
 66
     1
 10
0.0
 20
0.0
 30
0.0
 70
     1
  0
VERTEX
  8
Image
 10
855.00000406
 20
660.406378247821
 42
0.0
  0
VERTEX
  8
Image
 10
818.838027296421
 20
659.464665965958
 42
0.0
  0
VERTEX
  8
Image
 10
848.256765777723
 20
642.680890999541
 42
0.0
  0
VERTEX
  8
Image
 10
837.319035528985
 20
608.170452719799
 42
0.0
  0
VERTEX
  8
Image
 10
855.00000406
 20
621.460845895678
 42
0.0
  0
SEQEND
  0
POLYLINE
  8
Image
 66
     1
 10
0.0
 20
0.0
 30
0.0
 70
     1
  0
VERTEX
  8
Image
 10
855.00000406
 20
822.48792695074
 42
0.0
  0
VERTEX
  8
Image
 10
818.838027296421
 20
821.546214668876
 42
0.0
  0
VERTEX
  8
Image
 10
848.256765777723
 20
804.76243970246
 42
0.0
  0
VERTEX
  8
Image
 10
837.319035528985
 20
770.252001422718
 42
0.0
  0
VERTEX
  8
Image
 10
855.00000406
 20
783.542394598596
 42
0.0
  0
SEQEND
  0
POLYLINE
  8
Image
 66
     1
 10
0.0
 20
0.0
 30
0.0
 70
     1
  0
VERTEX
  8
Image
 10
825.196808686352
 20
979.999995445
 42
0.0
  0
VERTEX
  8
Image
 10
848.256765777723
 20
966.843988405378
 42
0.0
  0
VERTEX
  8
Image
 10
837.319035528985
 20
932.333550125637
 42
0.0
  0
VERTEX
  8
Image
 10
855.00000406
 20
945.623943301515
 42
0.0
  0
VERTEX
  8
Image
 10
855.00000406
 20
979.999995445
 42
0.0
  0
SEQEND
  0
POLYLINE
  8
Image
 66
     1
 10
0.0
 20
0.0
 30
0.0
 70
     1
  0
VERTEX
  8
Image
 10
855.00000406
 20
174.161732139065
 42
0.0
  0
VERTEX
  8
Image
 10
818.838027296421
 20
173.220019857202
 42
0.0
  0
VERTEX
  8
Image
 10
848.256765777723
 20
156.436244890785
 42
0.0
  0
VERTEX
  8
Image
 10
837.319035528985
 20
121.925806611043
 42
0.0
  0
VERTEX
  8
Image
 10
855.00000406
 20
135.216199786922
 42
0.0
  0
SEQEND
  0
POLYLINE
  8
Image
 66
     1
 10
0.0
 20
0.0
 30
0.0
 70
     1
  0
VERTEX
  8
Image
 10
855.00000406
 20
336.243280841984
 42
0.0
  0
VERTEX
  8
Image
 10
818.838027296421
 20
335.301568560121
 42
0.0
  0
VERTEX
  8
Image
 10
848.256765777723
 20
318.517793593704
 42
0.0
  0
VERTEX
  8
Image
 10
837.319035528985
 20
284.007355313962
 42
0.0
  0
VERTEX
  8
Image
 10
855.00000406
 20
297.297748489841
 42
0.0
  0
SEQEND
  0
POLYLINE
  8
Image
 66
     1
 10
0.0
 20
0.0
 30
0.0
 70
     1
  0
VERTEX
  8
Image
 10
855.00000406
 20
498.324829544903
 42
0.0
  0
VERTEX
  8
Image
 10
818.838027296421
 20
497.383117263039
 42
0.0
  0
VERTEX
  8
Image
 10
848.256765777723
 20
480.599342296622
 42
0.0
  0
VERTEX
  8
Image
 10
837.319035528985
 20
446.088904016881
 42
0.0
  0
VERTEX
  8
Image
 10
855.00000406
 20
459.379297192759
 42
0.0
  0
SEQEND
  0
POLYLINE
  8
Image
 66
     1
 10
0.0
 20
0.0
 30
0.0
 70
     1
  0
VERTEX
  8
Image
 10
855.00000406
 20
-474.164462672609
 42
0.0
  0
VERTEX
  8
Image
 10
818.838027296421
 20
-475.106174954473
 42
0.0
  0
VERTEX
  8
Image
 10
848.256765777723
 20
-491.889949920889
 42
0.0
  0
VERTEX
  8
Image
 10
837.319035528985
 20
-526.400388200631
 42
0.0
  0
VERTEX
  8
Image
 10
855.00000406
 20
-513.109995024753
 42
0.0
  0
SEQEND
  0
POLYLINE
  8
Image
 66
     1
 10
0.0
 20
0.0
 30
0.0
 70
     1
  0
VERTEX
  8
Image
 10
855.00000406
 20
-312.08291396969
 42
0.0
  0
VERTEX
  8
Image
 10
818.838027296421
 20
-313.024626251554
 42
0.0
  0
VERTEX
  8
Image
 10
848.256765777723
 20
-329.808401217971
 42
0.0
  0
VERTEX
  8
Image
 10
837.319035528985
 20
-364.318839497713
 42
0.0
  0
VERTEX
  8
Image
 10
855.00000406
 20
-351.028446321834
 42
0.0
  0
SEQEND
  0
POLYLINE
  8
Image
 66
     1
 10
0.0
 20
0.0
 30
0.0
 70
     1
  0
VERTEX
  8
Image
 10
855.00000406
 20
-150.001365266772
 42
0.0
  0
VERTEX
  8
Image
 10
818.838027296421
 20
-150.943077548635
 42
0.0
  0
VERTEX
  8
Image
 10
848.256765777723
 20
-167.726852515052
 42
0.0
  0
VERTEX
  8
Image
 10
837.319035528985
 20
-202.237290794794
 42
0.0
  0
VERTEX
  8
Image
 10
855.00000406
 20
-188.946897618915
 42
0.0
  0
SEQEND
  0
POLYLINE
  8
Image
 66
     1
 10
0.0
 20
0.0
 30
0.0
 70
     1
  0
VERTEX
  8
Image
 10
855.00000406
 20
12.0801834361468
 42
0.0
  0
VERTEX
  8
Image
 10
818.838027296421
 20
11.1384711542834
 42
0.0
  0
VERTEX
  8
Image
 10
848.256765777723
 20
-5.6453038121335
 42
0.0
  0
VERTEX
  8
Image
 10
837.319035528985
 20
-40.1557420918753
 42
0.0
  0
VERTEX
  8
Image
 10
855.00000406
 20
-26.8653489159967
 42
0.0
  0
SEQEND
  0
POLYLINE
  8
Image
 66
     1
 10
0.0
 20
0.0
 30
0.0
 70
     1
  0
VERTEX
  8
Image
 10
855.00000406
 20
-960.409108781365
 42
0.0
  0
VERTEX
  8
Image
 10
818.838027296421
 20
-961.350821063229
 42
0.0
  0
VERTEX
  8
Image
 10
848.256765777723
 20
-978.134596029645
 42
0.0
  0
VERTEX
  8
Image
 10
847.66554652267
 20
-979.999995445
 42
0.0
  0
VERTEX
  8
Image
 10
855.00000406
 20
-979.999995445
 42
0.0
  0
SEQEND
  0
POLYLINE
  8
Image
 66
     1
 10
0.0
 20
0.0
 30
0.0
 70
     1
  0
VERTEX
  8
Image
 10
855.00000406
 20
-798.327560078446
 42
0.0
  0
VERTEX
  8
Image
 10
818.838027296421
 20
-799.26927236031
 42
0.0
  0
VERTEX
  8
Image
 10
848.256765777723
 20
-816.053047326727
 42
0.0
  0
VERTEX
  8
Image
 10
837.319035528985
 20
-850.563485606468
 42
0.0
  0
VERTEX
  8
Image
 10
855.00000406
 20
-837.27309243059
 42
0.0
  0
SEQEND
  0
POLYLINE
  8
Image
 66
     1
 10
0.0
 20
0.0
 30
0.0
 70
     1
  0
VERTEX
  8
Image
 10
855.00000406
 20
-636.246011375528
 42
0.0
  0
VERTEX
  8
Image
 10
818.838027296421
 20
-637.187723657391
 42
0.0
  0
VERTEX
  8
Image
 10
848.256765777723
 20
-653.971498623808
 42
0.0
  0
VERTEX
  8
Image
 10
837.319035528985
 20
-688.48193690355
 42
0.0
  0
VERTEX
  8
Image
 10
855.00000406
 20
-675.191543727671
 42
0.0
  0
SEQEND
  0
POLYLINE
  8
Image
 66
     1
 10
0.0
 20
0.0
 30
0.0
 70
     1
  0
VERTEX
  8
Image
 10
645.0000029
 20
-511.700821566653
 42
0.0
  0
VERTEX
  8
Image
 10
664.555675304533
 20
-526.400388200631
 42
0.0
  0
VERTEX
  8
Image
 10
653.617945055794
 20
-491.889949920889
 42
0.0
  0
VERTEX
  8
Image
 10
683.036683537096
 20
-475.106174954473
 42
0.0
  0
VERTEX
  8
Image
 10
646.828997723828
 20
-474.163272340184
 42
0.0
  0
VERTEX
  8
Image
 10
645.0000029
 20
-467.780451306355
 42
0.0
  0
SEQEND
  0
LINE
  8
Image
 10
125.00000058
 20
999.999995445
 30
0.0
 11
125.00000058
 21
-999.999995445
 31
0.0
  0
LINE
  8
Image
 10
375.00000174
 20
999.999995445
 30
0.0
 11
375.00000174
 21
-999.999995445
 31
0.0
  0
LINE
  8
Image
 10
625.0000029
 20
999.999995445
 30
0.0
 11
625.0000029
 21
-999.999995445
 31
0.0
  0
POLYLINE
  8
Image
 66
     1
 10
0.0
 20
0.0
 30
0.0
 70
     1
  0
VERTEX
  8
Image
 10
125.00000058
 20
999.999995445
 42
0.0
  0
VERTEX
  8
Image
 10
-125.00000058
 20
999.999995445
 42
0.0
  0
VERTEX
  8
Image
 10
-125.00000058
 20
-999.999995445
 42
0.0
  0
VERTEX
  8
Image
 10
125.00000058
 20
-999.999995445
 42
0.0
  0
VERTEX
  8
Image
 10
375.00000174
 20
-999.999995445
 42
0.0
  0
VERTEX
  8
Image
 10
625.0000029
 20
-999.999995445
 42
0.0
  0
VERTEX
  8
Image
 10
875.00000406
 20
-999.999995445
 42
0.0
  0
VERTEX
  8
Image
 10
875.00000406
 20
999.999995445
 42
0.0
  0
VERTEX
  8
Image
 10
625.0000029
 20
999.999995445
 42
0.0
  0
VERTEX
  8
Image
 10
375.00000174
 20
999.999995445
 42
0.0
  0
SEQEND
  0
ENDSEC
  0
EOF
