  0
SECTION
  2
HEADER
  9
$ACADVER
  1
AC1009
  9
$EXTMAX
 10
500.0
 20
1000.0
 30
0.0
  9
$EXTMIN
 10
-500.0
 20
-1000.0
 30
0.0
  9
$INSUNITS
 70
     4
  9
$LUNITS
 70
     2
  9
$LUPREC
 70
     4
  9
$MEASUREMENT
 70
     1
  0
ENDSEC
  0
SECTION
  2
TABLES
  0
TABLE
  2
LAYER
 70
     1
  0
LAYER
  2
0
 70
     0
 62
     7
  6
Continuous
  0
LAYER
  2
Default
 70
     0
 62
    70
  6
Continuous
  0
ENDTAB
  0
TABLE
  2
APPID
 70
     1
  0
APPID
  2
ACAD
 70
     0
  0
ENDTAB
  0
ENDSEC
  0
SECTION
  2
ENTITIES
  0
POLYLINE
  8
Default
 66
     1
 10
0.0
 20
0.0
 30
0.0
 70
     1
  0
VERTEX
  8
Default
 10
499.9999998
 20
-999.99999955
 42
0.0
  0
VERTEX
  8
Default
 10
499.9999998
 20
999.99999955
 42
0.0
  0
VERTEX
  8
Default
 10
-499.9999998
 20
999.99999955
 42
0.0
  0
VERTEX
  8
Default
 10
-499.9999998
 20
-999.99999955
 42
0.0
  0
SEQEND
  0
CIRCLE
  8
Default
 10
-463.383208939501
 20
-961.68026083276
 30
0.0
 40
11.0000000595364
  0
CIRCLE
  8
Default
 10
-463.383208939501
 20
-924.68026083276
 30
0.0
 40
11.0000000595364
  0
CIRCLE
  8
Default
 10
-463.383208939501
 20
-887.68026083276
 30
0.0
 40
11.0000000595364
  0
CIRCLE
  8
Default
 10
-463.383208939501
 20
-850.68026083276
 30
0.0
 40
11.0000000595364
  0
CIRCLE
  8
Default
 10
-463.383208939501
 20
-813.68026083276
 30
0.0
 40
11.0000000595364
  0
CIRCLE
  8
Default
 10
-463.383208939501
 20
-776.68026083276
 30
0.0
 40
11.0000000595364
  0
CIRCLE
  8
Default
 10
-463.383208939501
 20
-739.68026083276
 30
0.0
 40
11.0000000595364
  0
CIRCLE
  8
Default
 10
-463.383208939501
 20
-702.68026083276
 30
0.0
 40
11.0000000595364
  0
CIRCLE
  8
Default
 10
-463.383208939501
 20
-665.68026083276
 30
0.0
 40
11.0000000595364
  0
CIRCLE
  8
Default
 10
-463.383208939501
 20
-628.68026083276
 30
0.0
 40
11.0000000595364
  0
CIRCLE
  8
Default
 10
-463.383208939501
 20
-591.68026083276
 30
0.0
 40
11.0000000595364
  0
CIRCLE
  8
Default
 10
-463.383208939501
 20
-554.68026083276
 30
0.0
 40
11.0000000595364
  0
CIRCLE
  8
Default
 10
-463.383208939501
 20
-517.68026083276
 30
0.0
 40
11.0000000595364
  0
CIRCLE
  8
Default
 10
-463.383208939501
 20
-480.68026083276
 30
0.0
 40
11.0000000595364
  0
CIRCLE
  8
Default
 10
-463.383208939501
 20
-443.68026083276
 30
0.0
 40
11.0000000595364
  0
CIRCLE
  8
Default
 10
-463.383208939501
 20
-406.68026083276
 30
0.0
 40
11.0000000595364
  0
CIRCLE
  8
Default
 10
-463.383208939501
 20
-369.68026083276
 30
0.0
 40
11.0000000595364
  0
CIRCLE
  8
Default
 10
-463.383208939501
 20
-332.68026083276
 30
0.0
 40
11.0000000595364
  0
CIRCLE
  8
Default
 10
-463.383208939501
 20
-295.68026083276
 30
0.0
 40
11.0000000595364
  0
CIRCLE
  8
Default
 10
-463.383208939501
 20
-258.68026083276
 30
0.0
 40
11.0000000595364
  0
CIRCLE
  8
Default
 10
-463.383208939501
 20
-221.68026083276
 30
0.0
 40
11.0000000595364
  0
CIRCLE
  8
Default
 10
-463.383208939501
 20
-184.68026083276
 30
0.0
 40
11.0000000595364
  0
CIRCLE
  8
Default
 10
-463.383208939501
 20
-147.68026083276
 30
0.0
 40
11.0000000595364
  0
CIRCLE
  8
Default
 10
-463.383208939501
 20
-110.68026083276
 30
0.0
 40
11.0000000595364
  0
CIRCLE
  8
Default
 10
-463.383208939501
 20
-73.6802608327599
 30
0.0
 40
11.0000000595364
  0
CIRCLE
  8
Default
 10
-463.383208939501
 20
-36.6802608327599
 30
0.0
 40
11.0000000595364
  0
CIRCLE
  8
Default
 10
-463.383208939501
 20
0.3197391672401
 30
0.0
 40
11.0000000595364
  0
CIRCLE
  8
Default
 10
-463.383208939501
 20
37.31973916724
 30
0.0
 40
11.0000000595364
  0
CIRCLE
  8
Default
 10
-463.383208939501
 20
74.31973916724
 30
0.0
 40
11.0000000595364
  0
CIRCLE
  8
Default
 10
-463.383208939501
 20
111.31973916724
 30
0.0
 40
11.0000000595364
  0
CIRCLE
  8
Default
 10
-463.383208939501
 20
148.31973916724
 30
0.0
 40
11.0000000595364
  0
CIRCLE
  8
Default
 10
-463.383208939501
 20
185.31973916724
 30
0.0
 40
11.0000000595364
  0
CIRCLE
  8
Default
 10
-463.383208939501
 20
222.31973916724
 30
0.0
 40
11.0000000595364
  0
CIRCLE
  8
Default
 10
-463.383208939501
 20
259.31973916724
 30
0.0
 40
11.0000000595364
  0
CIRCLE
  8
Default
 10
-463.383208939501
 20
296.31973916724
 30
0.0
 40
11.0000000595364
  0
CIRCLE
  8
Default
 10
-463.383208939501
 20
333.31973916724
 30
0.0
 40
11.0000000595364
  0
CIRCLE
  8
Default
 10
-463.383208939501
 20
370.31973916724
 30
0.0
 40
11.0000000595364
  0
CIRCLE
  8
Default
 10
-463.383208939501
 20
407.31973916724
 30
0.0
 40
11.0000000595364
  0
CIRCLE
  8
Default
 10
-463.383208939501
 20
444.31973916724
 30
0.0
 40
11.0000000595364
  0
CIRCLE
  8
Default
 10
-463.383208939501
 20
481.31973916724
 30
0.0
 40
11.0000000595364
  0
CIRCLE
  8
Default
 10
-463.383208939501
 20
518.31973916724
 30
0.0
 40
11.0000000595364
  0
CIRCLE
  8
Default
 10
-463.383208939501
 20
555.31973916724
 30
0.0
 40
11.0000000595364
  0
CIRCLE
  8
Default
 10
-463.383208939501
 20
592.31973916724
 30
0.0
 40
11.0000000595364
  0
CIRCLE
  8
Default
 10
-463.383208939501
 20
629.31973916724
 30
0.0
 40
11.0000000595364
  0
CIRCLE
  8
Default
 10
-463.383208939501
 20
666.31973916724
 30
0.0
 40
11.0000000595364
  0
CIRCLE
  8
Default
 10
-463.383208939501
 20
703.31973916724
 30
0.0
 40
11.0000000595364
  0
CIRCLE
  8
Default
 10
-463.383208939501
 20
740.31973916724
 30
0.0
 40
11.0000000595364
  0
CIRCLE
  8
Default
 10
-463.383208939501
 20
777.31973916724
 30
0.0
 40
11.0000000595364
  0
CIRCLE
  8
Default
 10
-463.383208939501
 20
814.31973916724
 30
0.0
 40
11.0000000595364
  0
CIRCLE
  8
Default
 10
-463.383208939501
 20
851.31973916724
 30
0.0
 40
11.0000000595364
  0
CIRCLE
  8
Default
 10
-463.383208939501
 20
888.31973916724
 30
0.0
 40
11.0000000595364
  0
CIRCLE
  8
Default
 10
-463.383208939501
 20
925.31973916724
 30
0.0
 40
11.0000000595364
  0
CIRCLE
  8
Default
 10
-463.383208939501
 20
962.31973916724
 30
0.0
 40
11.0000000595364
  0
CIRCLE
  8
Default
 10
-427.383208939501
 20
-942.68026083276
 30
0.0
 40
11.0000000595364
  0
CIRCLE
  8
Default
 10
-427.383208939501
 20
-905.68026083276
 30
0.0
 40
11.0000000595364
  0
CIRCLE
  8
Default
 10
-427.383208939501
 20
-868.68026083276
 30
0.0
 40
11.0000000595364
  0
CIRCLE
  8
Default
 10
-427.383208939501
 20
-831.68026083276
 30
0.0
 40
11.0000000595364
  0
CIRCLE
  8
Default
 10
-427.383208939501
 20
-794.68026083276
 30
0.0
 40
11.0000000595364
  0
CIRCLE
  8
Default
 10
-427.383208939501
 20
-757.68026083276
 30
0.0
 40
11.0000000595364
  0
CIRCLE
  8
Default
 10
-427.383208939501
 20
-720.68026083276
 30
0.0
 40
11.0000000595364
  0
CIRCLE
  8
Default
 10
-427.383208939501
 20
-683.68026083276
 30
0.0
 40
11.0000000595364
  0
CIRCLE
  8
Default
 10
-427.383208939501
 20
-646.68026083276
 30
0.0
 40
11.0000000595364
  0
CIRCLE
  8
Default
 10
-427.383208939501
 20
-609.68026083276
 30
0.0
 40
11.0000000595364
  0
CIRCLE
  8
Default
 10
-427.383208939501
 20
-572.68026083276
 30
0.0
 40
11.0000000595364
  0
CIRCLE
  8
Default
 10
-427.383208939501
 20
-535.68026083276
 30
0.0
 40
11.0000000595364
  0
CIRCLE
  8
Default
 10
-427.383208939501
 20
-498.68026083276
 30
0.0
 40
11.0000000595364
  0
CIRCLE
  8
Default
 10
-427.383208939501
 20
-461.68026083276
 30
0.0
 40
11.0000000595364
  0
CIRCLE
  8
Default
 10
-427.383208939501
 20
-424.68026083276
 30
0.0
 40
11.0000000595364
  0
CIRCLE
  8
Default
 10
-427.383208939501
 20
-387.68026083276
 30
0.0
 40
11.0000000595364
  0
CIRCLE
  8
Default
 10
-427.383208939501
 20
-350.68026083276
 30
0.0
 40
11.0000000595364
  0
CIRCLE
  8
Default
 10
-427.383208939501
 20
-313.68026083276
 30
0.0
 40
11.0000000595364
  0
CIRCLE
  8
Default
 10
-427.383208939501
 20
-276.68026083276
 30
0.0
 40
11.0000000595364
  0
CIRCLE
  8
Default
 10
-427.383208939501
 20
-239.68026083276
 30
0.0
 40
11.0000000595364
  0
CIRCLE
  8
Default
 10
-427.383208939501
 20
-202.68026083276
 30
0.0
 40
11.0000000595364
  0
CIRCLE
  8
Default
 10
-427.383208939501
 20
-165.68026083276
 30
0.0
 40
11.0000000595364
  0
CIRCLE
  8
Default
 10
-427.383208939501
 20
-128.68026083276
 30
0.0
 40
11.0000000595364
  0
CIRCLE
  8
Default
 10
-427.383208939501
 20
-91.6802608327599
 30
0.0
 40
11.0000000595364
  0
CIRCLE
  8
Default
 10
-427.383208939501
 20
-54.6802608327599
 30
0.0
 40
11.0000000595364
  0
CIRCLE
  8
Default
 10
-427.383208939501
 20
-17.6802608327599
 30
0.0
 40
11.0000000595364
  0
CIRCLE
  8
Default
 10
-427.383208939501
 20
19.3197391672401
 30
0.0
 40
11.0000000595364
  0
CIRCLE
  8
Default
 10
-427.383208939501
 20
56.31973916724
 30
0.0
 40
11.0000000595364
  0
CIRCLE
  8
Default
 10
-427.383208939501
 20
93.31973916724
 30
0.0
 40
11.0000000595364
  0
CIRCLE
  8
Default
 10
-427.383208939501
 20
130.31973916724
 30
0.0
 40
11.0000000595364
  0
CIRCLE
  8
Default
 10
-427.383208939501
 20
167.31973916724
 30
0.0
 40
11.0000000595364
  0
CIRCLE
  8
Default
 10
-427.383208939501
 20
204.31973916724
 30
0.0
 40
11.0000000595364
  0
CIRCLE
  8
Default
 10
-427.383208939501
 20
241.31973916724
 30
0.0
 40
11.0000000595364
  0
CIRCLE
  8
Default
 10
-427.383208939501
 20
278.31973916724
 30
0.0
 40
11.0000000595364
  0
CIRCLE
  8
Default
 10
-427.383208939501
 20
315.31973916724
 30
0.0
 40
11.0000000595364
  0
CIRCLE
  8
Default
 10
-427.383208939501
 20
352.31973916724
 30
0.0
 40
11.0000000595364
  0
CIRCLE
  8
Default
 10
-427.383208939501
 20
389.31973916724
 30
0.0
 40
11.0000000595364
  0
CIRCLE
  8
Default
 10
-427.383208939501
 20
426.31973916724
 30
0.0
 40
11.0000000595364
  0
CIRCLE
  8
Default
 10
-427.383208939501
 20
463.31973916724
 30
0.0
 40
11.0000000595364
  0
CIRCLE
  8
Default
 10
-427.383208939501
 20
500.31973916724
 30
0.0
 40
11.0000000595364
  0
CIRCLE
  8
Default
 10
-427.383208939501
 20
537.31973916724
 30
0.0
 40
11.0000000595364
  0
CIRCLE
  8
Default
 10
-427.383208939501
 20
574.31973916724
 30
0.0
 40
11.0000000595364
  0
CIRCLE
  8
Default
 10
-427.383208939501
 20
611.31973916724
 30
0.0
 40
11.0000000595364
  0
CIRCLE
  8
Default
 10
-427.383208939501
 20
648.31973916724
 30
0.0
 40
11.0000000595364
  0
CIRCLE
  8
Default
 10
-427.383208939501
 20
685.31973916724
 30
0.0
 40
11.0000000595364
  0
CIRCLE
  8
Default
 10
-427.383208939501
 20
722.31973916724
 30
0.0
 40
11.0000000595364
  0
CIRCLE
  8
Default
 10
-427.383208939501
 20
759.31973916724
 30
0.0
 40
11.0000000595364
  0
CIRCLE
  8
Default
 10
-427.383208939501
 20
796.31973916724
 30
0.0
 40
11.0000000595364
  0
CIRCLE
  8
Default
 10
-427.383208939501
 20
833.31973916724
 30
0.0
 40
11.0000000595364
  0
CIRCLE
  8
Default
 10
-427.383208939501
 20
870.31973916724
 30
0.0
 40
11.0000000595364
  0
CIRCLE
  8
Default
 10
-427.383208939501
 20
907.31973916724
 30
0.0
 40
11.0000000595364
  0
CIRCLE
  8
Default
 10
-427.383208939501
 20
944.31973916724
 30
0.0
 40
11.0000000595364
  0
CIRCLE
  8
Default
 10
-392.383208939501
 20
-961.68026083276
 30
0.0
 40
11.0000000595364
  0
CIRCLE
  8
Default
 10
-392.383208939501
 20
-924.68026083276
 30
0.0
 40
11.0000000595364
  0
CIRCLE
  8
Default
 10
-392.383208939501
 20
-887.68026083276
 30
0.0
 40
11.0000000595364
  0
CIRCLE
  8
Default
 10
-392.383208939501
 20
-850.68026083276
 30
0.0
 40
11.0000000595364
  0
CIRCLE
  8
Default
 10
-392.383208939501
 20
-813.68026083276
 30
0.0
 40
11.0000000595364
  0
CIRCLE
  8
Default
 10
-392.383208939501
 20
-776.68026083276
 30
0.0
 40
11.0000000595364
  0
CIRCLE
  8
Default
 10
-392.383208939501
 20
-739.68026083276
 30
0.0
 40
11.0000000595364
  0
CIRCLE
  8
Default
 10
-392.383208939501
 20
-702.68026083276
 30
0.0
 40
11.0000000595364
  0
CIRCLE
  8
Default
 10
-392.383208939501
 20
-665.68026083276
 30
0.0
 40
11.0000000595364
  0
CIRCLE
  8
Default
 10
-392.383208939501
 20
-628.68026083276
 30
0.0
 40
11.0000000595364
  0
CIRCLE
  8
Default
 10
-392.383208939501
 20
-591.68026083276
 30
0.0
 40
11.0000000595364
  0
CIRCLE
  8
Default
 10
-392.383208939501
 20
-554.68026083276
 30
0.0
 40
11.0000000595364
  0
CIRCLE
  8
Default
 10
-392.383208939501
 20
-517.68026083276
 30
0.0
 40
11.0000000595364
  0
CIRCLE
  8
Default
 10
-392.383208939501
 20
-480.68026083276
 30
0.0
 40
11.0000000595364
  0
CIRCLE
  8
Default
 10
-392.383208939501
 20
-443.68026083276
 30
0.0
 40
11.0000000595364
  0
CIRCLE
  8
Default
 10
-392.383208939501
 20
-406.68026083276
 30
0.0
 40
11.0000000595364
  0
CIRCLE
  8
Default
 10
-392.383208939501
 20
-369.68026083276
 30
0.0
 40
11.0000000595364
  0
CIRCLE
  8
Default
 10
-392.383208939501
 20
-332.68026083276
 30
0.0
 40
11.0000000595364
  0
CIRCLE
  8
Default
 10
-392.383208939501
 20
-295.68026083276
 30
0.0
 40
11.0000000595364
  0
CIRCLE
  8
Default
 10
-392.383208939501
 20
-258.68026083276
 30
0.0
 40
11.0000000595364
  0
CIRCLE
  8
Default
 10
-392.383208939501
 20
-221.68026083276
 30
0.0
 40
11.0000000595364
  0
CIRCLE
  8
Default
 10
-392.383208939501
 20
-184.68026083276
 30
0.0
 40
11.0000000595364
  0
CIRCLE
  8
Default
 10
-392.383208939501
 20
-147.68026083276
 30
0.0
 40
11.0000000595364
  0
CIRCLE
  8
Default
 10
-392.383208939501
 20
-110.68026083276
 30
0.0
 40
11.0000000595364
  0
CIRCLE
  8
Default
 10
-392.383208939501
 20
-73.6802608327599
 30
0.0
 40
11.0000000595364
  0
CIRCLE
  8
Default
 10
-392.383208939501
 20
-36.6802608327599
 30
0.0
 40
11.0000000595364
  0
CIRCLE
  8
Default
 10
-392.383208939501
 20
0.3197391672401
 30
0.0
 40
11.0000000595364
  0
CIRCLE
  8
Default
 10
-392.383208939501
 20
37.31973916724
 30
0.0
 40
11.0000000595364
  0
CIRCLE
  8
Default
 10
-392.383208939501
 20
74.31973916724
 30
0.0
 40
11.0000000595364
  0
CIRCLE
  8
Default
 10
-392.383208939501
 20
111.31973916724
 30
0.0
 40
11.0000000595364
  0
CIRCLE
  8
Default
 10
-392.383208939501
 20
148.31973916724
 30
0.0
 40
11.0000000595364
  0
CIRCLE
  8
Default
 10
-392.383208939501
 20
185.31973916724
 30
0.0
 40
11.0000000595364
  0
CIRCLE
  8
Default
 10
-392.383208939501
 20
222.31973916724
 30
0.0
 40
11.0000000595364
  0
CIRCLE
  8
Default
 10
-392.383208939501
 20
259.31973916724
 30
0.0
 40
11.0000000595364
  0
CIRCLE
  8
Default
 10
-392.383208939501
 20
296.31973916724
 30
0.0
 40
11.0000000595364
  0
CIRCLE
  8
Default
 10
-392.383208939501
 20
333.31973916724
 30
0.0
 40
11.0000000595364
  0
CIRCLE
  8
Default
 10
-392.383208939501
 20
370.31973916724
 30
0.0
 40
11.0000000595364
  0
CIRCLE
  8
Default
 10
-392.383208939501
 20
407.31973916724
 30
0.0
 40
11.0000000595364
  0
CIRCLE
  8
Default
 10
-392.383208939501
 20
444.31973916724
 30
0.0
 40
11.0000000595364
  0
CIRCLE
  8
Default
 10
-392.383208939501
 20
481.31973916724
 30
0.0
 40
11.0000000595364
  0
CIRCLE
  8
Default
 10
-392.383208939501
 20
518.31973916724
 30
0.0
 40
11.0000000595364
  0
CIRCLE
  8
Default
 10
-392.383208939501
 20
555.31973916724
 30
0.0
 40
11.0000000595364
  0
CIRCLE
  8
Default
 10
-392.383208939501
 20
592.31973916724
 30
0.0
 40
11.0000000595364
  0
CIRCLE
  8
Default
 10
-392.383208939501
 20
629.31973916724
 30
0.0
 40
11.0000000595364
  0
CIRCLE
  8
Default
 10
-392.383208939501
 20
666.31973916724
 30
0.0
 40
11.0000000595364
  0
CIRCLE
  8
Default
 10
-392.383208939501
 20
703.31973916724
 30
0.0
 40
11.0000000595364
  0
CIRCLE
  8
Default
 10
-392.383208939501
 20
740.31973916724
 30
0.0
 40
11.0000000595364
  0
CIRCLE
  8
Default
 10
-392.383208939501
 20
777.31973916724
 30
0.0
 40
11.0000000595364
  0
CIRCLE
  8
Default
 10
-392.383208939501
 20
814.31973916724
 30
0.0
 40
11.0000000595364
  0
CIRCLE
  8
Default
 10
-392.383208939501
 20
851.31973916724
 30
0.0
 40
11.0000000595364
  0
CIRCLE
  8
Default
 10
-392.383208939501
 20
888.31973916724
 30
0.0
 40
11.0000000595364
  0
CIRCLE
  8
Default
 10
-392.383208939501
 20
925.31973916724
 30
0.0
 40
11.0000000595364
  0
CIRCLE
  8
Default
 10
-392.383208939501
 20
962.31973916724
 30
0.0
 40
11.0000000595364
  0
CIRCLE
  8
Default
 10
-356.383208939501
 20
-942.68026083276
 30
0.0
 40
11.0000000595364
  0
CIRCLE
  8
Default
 10
-356.383208939501
 20
-905.68026083276
 30
0.0
 40
11.0000000595364
  0
CIRCLE
  8
Default
 10
-356.383208939501
 20
-868.68026083276
 30
0.0
 40
11.0000000595364
  0
CIRCLE
  8
Default
 10
-356.383208939501
 20
-831.68026083276
 30
0.0
 40
11.0000000595364
  0
CIRCLE
  8
Default
 10
-356.383208939501
 20
-794.68026083276
 30
0.0
 40
11.0000000595364
  0
CIRCLE
  8
Default
 10
-356.383208939501
 20
-757.68026083276
 30
0.0
 40
11.0000000595364
  0
CIRCLE
  8
Default
 10
-356.383208939501
 20
-720.68026083276
 30
0.0
 40
11.0000000595364
  0
CIRCLE
  8
Default
 10
-356.383208939501
 20
-683.68026083276
 30
0.0
 40
11.0000000595364
  0
CIRCLE
  8
Default
 10
-356.383208939501
 20
-646.68026083276
 30
0.0
 40
11.0000000595364
  0
CIRCLE
  8
Default
 10
-356.383208939501
 20
-609.68026083276
 30
0.0
 40
11.0000000595364
  0
CIRCLE
  8
Default
 10
-356.383208939501
 20
-572.68026083276
 30
0.0
 40
11.0000000595364
  0
CIRCLE
  8
Default
 10
-356.383208939501
 20
-535.68026083276
 30
0.0
 40
11.0000000595364
  0
CIRCLE
  8
Default
 10
-356.383208939501
 20
-498.68026083276
 30
0.0
 40
11.0000000595364
  0
CIRCLE
  8
Default
 10
-356.383208939501
 20
-461.68026083276
 30
0.0
 40
11.0000000595364
  0
CIRCLE
  8
Default
 10
-356.383208939501
 20
-424.68026083276
 30
0.0
 40
11.0000000595364
  0
CIRCLE
  8
Default
 10
-356.383208939501
 20
-387.68026083276
 30
0.0
 40
11.0000000595364
  0
CIRCLE
  8
Default
 10
-356.383208939501
 20
-350.68026083276
 30
0.0
 40
11.0000000595364
  0
CIRCLE
  8
Default
 10
-356.383208939501
 20
-313.68026083276
 30
0.0
 40
11.0000000595364
  0
CIRCLE
  8
Default
 10
-356.383208939501
 20
-276.68026083276
 30
0.0
 40
11.0000000595364
  0
CIRCLE
  8
Default
 10
-356.383208939501
 20
-239.68026083276
 30
0.0
 40
11.0000000595364
  0
CIRCLE
  8
Default
 10
-356.383208939501
 20
-202.68026083276
 30
0.0
 40
11.0000000595364
  0
CIRCLE
  8
Default
 10
-356.383208939501
 20
-165.68026083276
 30
0.0
 40
11.0000000595364
  0
CIRCLE
  8
Default
 10
-356.383208939501
 20
-128.68026083276
 30
0.0
 40
11.0000000595364
  0
CIRCLE
  8
Default
 10
-356.383208939501
 20
-91.6802608327599
 30
0.0
 40
11.0000000595364
  0
CIRCLE
  8
Default
 10
-356.383208939501
 20
-54.6802608327599
 30
0.0
 40
11.0000000595364
  0
CIRCLE
  8
Default
 10
-356.383208939501
 20
-17.6802608327599
 30
0.0
 40
11.0000000595364
  0
CIRCLE
  8
Default
 10
-356.383208939501
 20
19.3197391672401
 30
0.0
 40
11.0000000595364
  0
CIRCLE
  8
Default
 10
-356.383208939501
 20
56.31973916724
 30
0.0
 40
11.0000000595364
  0
CIRCLE
  8
Default
 10
-356.383208939501
 20
93.31973916724
 30
0.0
 40
11.0000000595364
  0
CIRCLE
  8
Default
 10
-356.383208939501
 20
130.31973916724
 30
0.0
 40
11.0000000595364
  0
CIRCLE
  8
Default
 10
-356.383208939501
 20
167.31973916724
 30
0.0
 40
11.0000000595364
  0
CIRCLE
  8
Default
 10
-356.383208939501
 20
204.31973916724
 30
0.0
 40
11.0000000595364
  0
CIRCLE
  8
Default
 10
-356.383208939501
 20
241.31973916724
 30
0.0
 40
11.0000000595364
  0
CIRCLE
  8
Default
 10
-356.383208939501
 20
278.31973916724
 30
0.0
 40
11.0000000595364
  0
CIRCLE
  8
Default
 10
-356.383208939501
 20
315.31973916724
 30
0.0
 40
11.0000000595364
  0
CIRCLE
  8
Default
 10
-356.383208939501
 20
352.31973916724
 30
0.0
 40
11.0000000595364
  0
CIRCLE
  8
Default
 10
-356.383208939501
 20
389.31973916724
 30
0.0
 40
11.0000000595364
  0
CIRCLE
  8
Default
 10
-356.383208939501
 20
426.31973916724
 30
0.0
 40
11.0000000595364
  0
CIRCLE
  8
Default
 10
-356.383208939501
 20
463.31973916724
 30
0.0
 40
11.0000000595364
  0
CIRCLE
  8
Default
 10
-356.383208939501
 20
500.31973916724
 30
0.0
 40
11.0000000595364
  0
CIRCLE
  8
Default
 10
-356.383208939501
 20
537.31973916724
 30
0.0
 40
11.0000000595364
  0
CIRCLE
  8
Default
 10
-356.383208939501
 20
574.31973916724
 30
0.0
 40
11.0000000595364
  0
CIRCLE
  8
Default
 10
-356.383208939501
 20
611.31973916724
 30
0.0
 40
11.0000000595364
  0
CIRCLE
  8
Default
 10
-356.383208939501
 20
648.31973916724
 30
0.0
 40
11.0000000595364
  0
CIRCLE
  8
Default
 10
-356.383208939501
 20
685.31973916724
 30
0.0
 40
11.0000000595364
  0
CIRCLE
  8
Default
 10
-356.383208939501
 20
722.31973916724
 30
0.0
 40
11.0000000595364
  0
CIRCLE
  8
Default
 10
-356.383208939501
 20
759.31973916724
 30
0.0
 40
11.0000000595364
  0
CIRCLE
  8
Default
 10
-356.383208939501
 20
796.31973916724
 30
0.0
 40
11.0000000595364
  0
CIRCLE
  8
Default
 10
-356.383208939501
 20
833.31973916724
 30
0.0
 40
11.0000000595364
  0
CIRCLE
  8
Default
 10
-356.383208939501
 20
870.31973916724
 30
0.0
 40
11.0000000595364
  0
CIRCLE
  8
Default
 10
-356.383208939501
 20
907.31973916724
 30
0.0
 40
11.0000000595364
  0
CIRCLE
  8
Default
 10
-356.383208939501
 20
944.31973916724
 30
0.0
 40
11.0000000595364
  0
CIRCLE
  8
Default
 10
-320.383208939501
 20
-961.68026083276
 30
0.0
 40
11.0000000595364
  0
CIRCLE
  8
Default
 10
-320.383208939501
 20
-924.68026083276
 30
0.0
 40
11.0000000595364
  0
CIRCLE
  8
Default
 10
-320.383208939501
 20
-887.68026083276
 30
0.0
 40
11.0000000595364
  0
CIRCLE
  8
Default
 10
-320.383208939501
 20
-850.68026083276
 30
0.0
 40
11.0000000595364
  0
CIRCLE
  8
Default
 10
-320.383208939501
 20
-813.68026083276
 30
0.0
 40
11.0000000595364
  0
CIRCLE
  8
Default
 10
-320.383208939501
 20
-776.68026083276
 30
0.0
 40
11.0000000595364
  0
CIRCLE
  8
Default
 10
-320.383208939501
 20
-739.68026083276
 30
0.0
 40
11.0000000595364
  0
CIRCLE
  8
Default
 10
-320.383208939501
 20
-702.68026083276
 30
0.0
 40
11.0000000595364
  0
CIRCLE
  8
Default
 10
-320.383208939501
 20
-665.68026083276
 30
0.0
 40
11.0000000595364
  0
CIRCLE
  8
Default
 10
-320.383208939501
 20
-628.68026083276
 30
0.0
 40
11.0000000595364
  0
CIRCLE
  8
Default
 10
-320.383208939501
 20
-591.68026083276
 30
0.0
 40
11.0000000595364
  0
CIRCLE
  8
Default
 10
-320.383208939501
 20
-554.68026083276
 30
0.0
 40
11.0000000595364
  0
CIRCLE
  8
Default
 10
-320.383208939501
 20
-517.68026083276
 30
0.0
 40
11.0000000595364
  0
CIRCLE
  8
Default
 10
-320.383208939501
 20
-480.68026083276
 30
0.0
 40
11.0000000595364
  0
CIRCLE
  8
Default
 10
-320.383208939501
 20
-443.68026083276
 30
0.0
 40
11.0000000595364
  0
CIRCLE
  8
Default
 10
-320.383208939501
 20
-406.68026083276
 30
0.0
 40
11.0000000595364
  0
CIRCLE
  8
Default
 10
-320.383208939501
 20
-369.68026083276
 30
0.0
 40
11.0000000595364
  0
CIRCLE
  8
Default
 10
-320.383208939501
 20
-332.68026083276
 30
0.0
 40
11.0000000595364
  0
CIRCLE
  8
Default
 10
-320.383208939501
 20
-295.68026083276
 30
0.0
 40
11.0000000595364
  0
CIRCLE
  8
Default
 10
-320.383208939501
 20
-258.68026083276
 30
0.0
 40
11.0000000595364
  0
CIRCLE
  8
Default
 10
-320.383208939501
 20
-221.68026083276
 30
0.0
 40
11.0000000595364
  0
CIRCLE
  8
Default
 10
-320.383208939501
 20
-184.68026083276
 30
0.0
 40
11.0000000595364
  0
CIRCLE
  8
Default
 10
-320.383208939501
 20
-147.68026083276
 30
0.0
 40
11.0000000595364
  0
CIRCLE
  8
Default
 10
-320.383208939501
 20
-110.68026083276
 30
0.0
 40
11.0000000595364
  0
CIRCLE
  8
Default
 10
-320.383208939501
 20
-73.6802608327599
 30
0.0
 40
11.0000000595364
  0
CIRCLE
  8
Default
 10
-320.383208939501
 20
-36.6802608327599
 30
0.0
 40
11.0000000595364
  0
CIRCLE
  8
Default
 10
-320.383208939501
 20
0.3197391672401
 30
0.0
 40
11.0000000595364
  0
CIRCLE
  8
Default
 10
-320.383208939501
 20
37.31973916724
 30
0.0
 40
11.0000000595364
  0
CIRCLE
  8
Default
 10
-320.383208939501
 20
74.31973916724
 30
0.0
 40
11.0000000595364
  0
CIRCLE
  8
Default
 10
-320.383208939501
 20
111.31973916724
 30
0.0
 40
11.0000000595364
  0
CIRCLE
  8
Default
 10
-320.383208939501
 20
148.31973916724
 30
0.0
 40
11.0000000595364
  0
CIRCLE
  8
Default
 10
-320.383208939501
 20
185.31973916724
 30
0.0
 40
11.0000000595364
  0
CIRCLE
  8
Default
 10
-320.383208939501
 20
222.31973916724
 30
0.0
 40
11.0000000595364
  0
CIRCLE
  8
Default
 10
-320.383208939501
 20
259.31973916724
 30
0.0
 40
11.0000000595364
  0
CIRCLE
  8
Default
 10
-320.383208939501
 20
296.31973916724
 30
0.0
 40
11.0000000595364
  0
CIRCLE
  8
Default
 10
-320.383208939501
 20
333.31973916724
 30
0.0
 40
11.0000000595364
  0
CIRCLE
  8
Default
 10
-320.383208939501
 20
370.31973916724
 30
0.0
 40
11.0000000595364
  0
CIRCLE
  8
Default
 10
-320.383208939501
 20
407.31973916724
 30
0.0
 40
11.0000000595364
  0
CIRCLE
  8
Default
 10
-320.383208939501
 20
444.31973916724
 30
0.0
 40
11.0000000595364
  0
CIRCLE
  8
Default
 10
-320.383208939501
 20
481.31973916724
 30
0.0
 40
11.0000000595364
  0
CIRCLE
  8
Default
 10
-320.383208939501
 20
518.31973916724
 30
0.0
 40
11.0000000595364
  0
CIRCLE
  8
Default
 10
-320.383208939501
 20
555.31973916724
 30
0.0
 40
11.0000000595364
  0
CIRCLE
  8
Default
 10
-320.383208939501
 20
592.31973916724
 30
0.0
 40
11.0000000595364
  0
CIRCLE
  8
Default
 10
-320.383208939501
 20
629.31973916724
 30
0.0
 40
11.0000000595364
  0
CIRCLE
  8
Default
 10
-320.383208939501
 20
666.31973916724
 30
0.0
 40
11.0000000595364
  0
CIRCLE
  8
Default
 10
-320.383208939501
 20
703.31973916724
 30
0.0
 40
11.0000000595364
  0
CIRCLE
  8
Default
 10
-320.383208939501
 20
740.31973916724
 30
0.0
 40
11.0000000595364
  0
CIRCLE
  8
Default
 10
-320.383208939501
 20
777.31973916724
 30
0.0
 40
11.0000000595364
  0
CIRCLE
  8
Default
 10
-320.383208939501
 20
814.31973916724
 30
0.0
 40
11.0000000595364
  0
CIRCLE
  8
Default
 10
-320.383208939501
 20
851.31973916724
 30
0.0
 40
11.0000000595364
  0
CIRCLE
  8
Default
 10
-320.383208939501
 20
888.31973916724
 30
0.0
 40
11.0000000595364
  0
CIRCLE
  8
Default
 10
-320.383208939501
 20
925.31973916724
 30
0.0
 40
11.0000000595364
  0
CIRCLE
  8
Default
 10
-320.383208939501
 20
962.31973916724
 30
0.0
 40
11.0000000595364
  0
CIRCLE
  8
Default
 10
-284.383208939501
 20
-942.68026083276
 30
0.0
 40
11.0000000595364
  0
CIRCLE
  8
Default
 10
-284.383208939501
 20
-905.68026083276
 30
0.0
 40
11.0000000595364
  0
CIRCLE
  8
Default
 10
-284.383208939501
 20
-868.68026083276
 30
0.0
 40
11.0000000595364
  0
CIRCLE
  8
Default
 10
-284.383208939501
 20
-831.68026083276
 30
0.0
 40
11.0000000595364
  0
CIRCLE
  8
Default
 10
-284.383208939501
 20
-794.68026083276
 30
0.0
 40
11.0000000595364
  0
CIRCLE
  8
Default
 10
-284.383208939501
 20
-757.68026083276
 30
0.0
 40
11.0000000595364
  0
CIRCLE
  8
Default
 10
-284.383208939501
 20
-720.68026083276
 30
0.0
 40
11.0000000595364
  0
CIRCLE
  8
Default
 10
-284.383208939501
 20
-683.68026083276
 30
0.0
 40
11.0000000595364
  0
CIRCLE
  8
Default
 10
-284.383208939501
 20
-646.68026083276
 30
0.0
 40
11.0000000595364
  0
CIRCLE
  8
Default
 10
-284.383208939501
 20
-609.68026083276
 30
0.0
 40
11.0000000595364
  0
CIRCLE
  8
Default
 10
-284.383208939501
 20
-572.68026083276
 30
0.0
 40
11.0000000595364
  0
CIRCLE
  8
Default
 10
-284.383208939501
 20
-535.68026083276
 30
0.0
 40
11.0000000595364
  0
CIRCLE
  8
Default
 10
-284.383208939501
 20
-498.68026083276
 30
0.0
 40
11.0000000595364
  0
CIRCLE
  8
Default
 10
-284.383208939501
 20
-461.68026083276
 30
0.0
 40
11.0000000595364
  0
CIRCLE
  8
Default
 10
-284.383208939501
 20
-424.68026083276
 30
0.0
 40
11.0000000595364
  0
CIRCLE
  8
Default
 10
-284.383208939501
 20
-387.68026083276
 30
0.0
 40
11.0000000595364
  0
CIRCLE
  8
Default
 10
-284.383208939501
 20
-350.68026083276
 30
0.0
 40
11.0000000595364
  0
CIRCLE
  8
Default
 10
-284.383208939501
 20
-313.68026083276
 30
0.0
 40
11.0000000595364
  0
CIRCLE
  8
Default
 10
-284.383208939501
 20
-276.68026083276
 30
0.0
 40
11.0000000595364
  0
CIRCLE
  8
Default
 10
-284.383208939501
 20
-239.68026083276
 30
0.0
 40
11.0000000595364
  0
CIRCLE
  8
Default
 10
-284.383208939501
 20
-202.68026083276
 30
0.0
 40
11.0000000595364
  0
CIRCLE
  8
Default
 10
-284.383208939501
 20
-165.68026083276
 30
0.0
 40
11.0000000595364
  0
CIRCLE
  8
Default
 10
-284.383208939501
 20
-128.68026083276
 30
0.0
 40
11.0000000595364
  0
CIRCLE
  8
Default
 10
-284.383208939501
 20
-91.6802608327599
 30
0.0
 40
11.0000000595364
  0
CIRCLE
  8
Default
 10
-284.383208939501
 20
-54.6802608327599
 30
0.0
 40
11.0000000595364
  0
CIRCLE
  8
Default
 10
-284.383208939501
 20
-17.6802608327599
 30
0.0
 40
11.0000000595364
  0
CIRCLE
  8
Default
 10
-284.383208939501
 20
19.3197391672401
 30
0.0
 40
11.0000000595364
  0
CIRCLE
  8
Default
 10
-284.383208939501
 20
56.31973916724
 30
0.0
 40
11.0000000595364
  0
CIRCLE
  8
Default
 10
-284.383208939501
 20
93.31973916724
 30
0.0
 40
11.0000000595364
  0
CIRCLE
  8
Default
 10
-284.383208939501
 20
130.31973916724
 30
0.0
 40
11.0000000595364
  0
CIRCLE
  8
Default
 10
-284.383208939501
 20
167.31973916724
 30
0.0
 40
11.0000000595364
  0
CIRCLE
  8
Default
 10
-284.383208939501
 20
204.31973916724
 30
0.0
 40
11.0000000595364
  0
CIRCLE
  8
Default
 10
-284.383208939501
 20
241.31973916724
 30
0.0
 40
11.0000000595364
  0
CIRCLE
  8
Default
 10
-284.383208939501
 20
278.31973916724
 30
0.0
 40
11.0000000595364
  0
CIRCLE
  8
Default
 10
-284.383208939501
 20
315.31973916724
 30
0.0
 40
11.0000000595364
  0
CIRCLE
  8
Default
 10
-284.383208939501
 20
352.31973916724
 30
0.0
 40
11.0000000595364
  0
CIRCLE
  8
Default
 10
-284.383208939501
 20
389.31973916724
 30
0.0
 40
11.0000000595364
  0
CIRCLE
  8
Default
 10
-284.383208939501
 20
426.31973916724
 30
0.0
 40
11.0000000595364
  0
CIRCLE
  8
Default
 10
-284.383208939501
 20
463.31973916724
 30
0.0
 40
11.0000000595364
  0
CIRCLE
  8
Default
 10
-284.383208939501
 20
500.31973916724
 30
0.0
 40
11.0000000595364
  0
CIRCLE
  8
Default
 10
-284.383208939501
 20
537.31973916724
 30
0.0
 40
11.0000000595364
  0
CIRCLE
  8
Default
 10
-284.383208939501
 20
574.31973916724
 30
0.0
 40
11.0000000595364
  0
CIRCLE
  8
Default
 10
-284.383208939501
 20
611.31973916724
 30
0.0
 40
11.0000000595364
  0
CIRCLE
  8
Default
 10
-284.383208939501
 20
648.31973916724
 30
0.0
 40
11.0000000595364
  0
CIRCLE
  8
Default
 10
-284.383208939501
 20
685.31973916724
 30
0.0
 40
11.0000000595364
  0
CIRCLE
  8
Default
 10
-284.383208939501
 20
722.31973916724
 30
0.0
 40
11.0000000595364
  0
CIRCLE
  8
Default
 10
-284.383208939501
 20
759.31973916724
 30
0.0
 40
11.0000000595364
  0
CIRCLE
  8
Default
 10
-284.383208939501
 20
796.31973916724
 30
0.0
 40
11.0000000595364
  0
CIRCLE
  8
Default
 10
-284.383208939501
 20
833.31973916724
 30
0.0
 40
11.0000000595364
  0
CIRCLE
  8
Default
 10
-284.383208939501
 20
870.31973916724
 30
0.0
 40
11.0000000595364
  0
CIRCLE
  8
Default
 10
-284.383208939501
 20
907.31973916724
 30
0.0
 40
11.0000000595364
  0
CIRCLE
  8
Default
 10
-284.383208939501
 20
944.31973916724
 30
0.0
 40
11.0000000595364
  0
CIRCLE
  8
Default
 10
-249.383208939501
 20
-961.68026083276
 30
0.0
 40
11.0000000595364
  0
CIRCLE
  8
Default
 10
-249.383208939501
 20
-924.68026083276
 30
0.0
 40
11.0000000595364
  0
CIRCLE
  8
Default
 10
-249.383208939501
 20
-887.68026083276
 30
0.0
 40
11.0000000595364
  0
CIRCLE
  8
Default
 10
-249.383208939501
 20
-850.68026083276
 30
0.0
 40
11.0000000595364
  0
CIRCLE
  8
Default
 10
-249.383208939501
 20
-813.68026083276
 30
0.0
 40
11.0000000595364
  0
CIRCLE
  8
Default
 10
-249.383208939501
 20
-776.68026083276
 30
0.0
 40
11.0000000595364
  0
CIRCLE
  8
Default
 10
-249.383208939501
 20
-739.68026083276
 30
0.0
 40
11.0000000595364
  0
CIRCLE
  8
Default
 10
-249.383208939501
 20
-702.68026083276
 30
0.0
 40
11.0000000595364
  0
CIRCLE
  8
Default
 10
-249.383208939501
 20
-665.68026083276
 30
0.0
 40
11.0000000595364
  0
CIRCLE
  8
Default
 10
-249.383208939501
 20
-628.68026083276
 30
0.0
 40
11.0000000595364
  0
CIRCLE
  8
Default
 10
-249.383208939501
 20
-591.68026083276
 30
0.0
 40
11.0000000595364
  0
CIRCLE
  8
Default
 10
-249.383208939501
 20
-554.68026083276
 30
0.0
 40
11.0000000595364
  0
CIRCLE
  8
Default
 10
-249.383208939501
 20
-517.68026083276
 30
0.0
 40
11.0000000595364
  0
CIRCLE
  8
Default
 10
-249.383208939501
 20
-480.68026083276
 30
0.0
 40
11.0000000595364
  0
CIRCLE
  8
Default
 10
-249.383208939501
 20
-443.68026083276
 30
0.0
 40
11.0000000595364
  0
CIRCLE
  8
Default
 10
-249.383208939501
 20
-406.68026083276
 30
0.0
 40
11.0000000595364
  0
CIRCLE
  8
Default
 10
-249.383208939501
 20
-369.68026083276
 30
0.0
 40
11.0000000595364
  0
CIRCLE
  8
Default
 10
-249.383208939501
 20
-332.68026083276
 30
0.0
 40
11.0000000595364
  0
CIRCLE
  8
Default
 10
-249.383208939501
 20
-295.68026083276
 30
0.0
 40
11.0000000595364
  0
CIRCLE
  8
Default
 10
-249.383208939501
 20
-258.68026083276
 30
0.0
 40
11.0000000595364
  0
CIRCLE
  8
Default
 10
-249.383208939501
 20
-221.68026083276
 30
0.0
 40
11.0000000595364
  0
CIRCLE
  8
Default
 10
-249.383208939501
 20
-184.68026083276
 30
0.0
 40
11.0000000595364
  0
CIRCLE
  8
Default
 10
-249.383208939501
 20
-147.68026083276
 30
0.0
 40
11.0000000595364
  0
CIRCLE
  8
Default
 10
-249.383208939501
 20
-110.68026083276
 30
0.0
 40
11.0000000595364
  0
CIRCLE
  8
Default
 10
-249.383208939501
 20
-73.6802608327599
 30
0.0
 40
11.0000000595364
  0
CIRCLE
  8
Default
 10
-249.383208939501
 20
-36.6802608327599
 30
0.0
 40
11.0000000595364
  0
CIRCLE
  8
Default
 10
-249.383208939501
 20
0.3197391672401
 30
0.0
 40
11.0000000595364
  0
CIRCLE
  8
Default
 10
-249.383208939501
 20
37.31973916724
 30
0.0
 40
11.0000000595364
  0
CIRCLE
  8
Default
 10
-249.383208939501
 20
74.31973916724
 30
0.0
 40
11.0000000595364
  0
CIRCLE
  8
Default
 10
-249.383208939501
 20
111.31973916724
 30
0.0
 40
11.0000000595364
  0
CIRCLE
  8
Default
 10
-249.383208939501
 20
148.31973916724
 30
0.0
 40
11.0000000595364
  0
CIRCLE
  8
Default
 10
-249.383208939501
 20
185.31973916724
 30
0.0
 40
11.0000000595364
  0
CIRCLE
  8
Default
 10
-249.383208939501
 20
222.31973916724
 30
0.0
 40
11.0000000595364
  0
CIRCLE
  8
Default
 10
-249.383208939501
 20
259.31973916724
 30
0.0
 40
11.0000000595364
  0
CIRCLE
  8
Default
 10
-249.383208939501
 20
296.31973916724
 30
0.0
 40
11.0000000595364
  0
CIRCLE
  8
Default
 10
-249.383208939501
 20
333.31973916724
 30
0.0
 40
11.0000000595364
  0
CIRCLE
  8
Default
 10
-249.383208939501
 20
370.31973916724
 30
0.0
 40
11.0000000595364
  0
CIRCLE
  8
Default
 10
-249.383208939501
 20
407.31973916724
 30
0.0
 40
11.0000000595364
  0
CIRCLE
  8
Default
 10
-249.383208939501
 20
444.31973916724
 30
0.0
 40
11.0000000595364
  0
CIRCLE
  8
Default
 10
-249.383208939501
 20
481.31973916724
 30
0.0
 40
11.0000000595364
  0
CIRCLE
  8
Default
 10
-249.383208939501
 20
518.31973916724
 30
0.0
 40
11.0000000595364
  0
CIRCLE
  8
Default
 10
-249.383208939501
 20
555.31973916724
 30
0.0
 40
11.0000000595364
  0
CIRCLE
  8
Default
 10
-249.383208939501
 20
592.31973916724
 30
0.0
 40
11.0000000595364
  0
CIRCLE
  8
Default
 10
-249.383208939501
 20
629.31973916724
 30
0.0
 40
11.0000000595364
  0
CIRCLE
  8
Default
 10
-249.383208939501
 20
666.31973916724
 30
0.0
 40
11.0000000595364
  0
CIRCLE
  8
Default
 10
-249.383208939501
 20
703.31973916724
 30
0.0
 40
11.0000000595364
  0
CIRCLE
  8
Default
 10
-249.383208939501
 20
740.31973916724
 30
0.0
 40
11.0000000595364
  0
CIRCLE
  8
Default
 10
-249.383208939501
 20
777.31973916724
 30
0.0
 40
11.0000000595364
  0
CIRCLE
  8
Default
 10
-249.383208939501
 20
814.31973916724
 30
0.0
 40
11.0000000595364
  0
CIRCLE
  8
Default
 10
-249.383208939501
 20
851.31973916724
 30
0.0
 40
11.0000000595364
  0
CIRCLE
  8
Default
 10
-249.383208939501
 20
888.31973916724
 30
0.0
 40
11.0000000595364
  0
CIRCLE
  8
Default
 10
-249.383208939501
 20
925.31973916724
 30
0.0
 40
11.0000000595364
  0
CIRCLE
  8
Default
 10
-249.383208939501
 20
962.31973916724
 30
0.0
 40
11.0000000595364
  0
CIRCLE
  8
Default
 10
-213.383208939501
 20
-942.68026083276
 30
0.0
 40
11.0000000595364
  0
CIRCLE
  8
Default
 10
-213.383208939501
 20
-905.68026083276
 30
0.0
 40
11.0000000595364
  0
CIRCLE
  8
Default
 10
-213.383208939501
 20
-868.68026083276
 30
0.0
 40
11.0000000595364
  0
CIRCLE
  8
Default
 10
-213.383208939501
 20
-831.68026083276
 30
0.0
 40
11.0000000595364
  0
CIRCLE
  8
Default
 10
-213.383208939501
 20
-794.68026083276
 30
0.0
 40
11.0000000595364
  0
CIRCLE
  8
Default
 10
-213.383208939501
 20
-757.68026083276
 30
0.0
 40
11.0000000595364
  0
CIRCLE
  8
Default
 10
-213.383208939501
 20
-720.68026083276
 30
0.0
 40
11.0000000595364
  0
CIRCLE
  8
Default
 10
-213.383208939501
 20
-683.68026083276
 30
0.0
 40
11.0000000595364
  0
CIRCLE
  8
Default
 10
-213.383208939501
 20
-646.68026083276
 30
0.0
 40
11.0000000595364
  0
CIRCLE
  8
Default
 10
-213.383208939501
 20
-609.68026083276
 30
0.0
 40
11.0000000595364
  0
CIRCLE
  8
Default
 10
-213.383208939501
 20
-572.68026083276
 30
0.0
 40
11.0000000595364
  0
CIRCLE
  8
Default
 10
-213.383208939501
 20
-535.68026083276
 30
0.0
 40
11.0000000595364
  0
CIRCLE
  8
Default
 10
-213.383208939501
 20
-498.68026083276
 30
0.0
 40
11.0000000595364
  0
CIRCLE
  8
Default
 10
-213.383208939501
 20
-461.68026083276
 30
0.0
 40
11.0000000595364
  0
CIRCLE
  8
Default
 10
-213.383208939501
 20
-424.68026083276
 30
0.0
 40
11.0000000595364
  0
CIRCLE
  8
Default
 10
-213.383208939501
 20
-387.68026083276
 30
0.0
 40
11.0000000595364
  0
CIRCLE
  8
Default
 10
-213.383208939501
 20
-350.68026083276
 30
0.0
 40
11.0000000595364
  0
CIRCLE
  8
Default
 10
-213.383208939501
 20
-313.68026083276
 30
0.0
 40
11.0000000595364
  0
CIRCLE
  8
Default
 10
-213.383208939501
 20
-276.68026083276
 30
0.0
 40
11.0000000595364
  0
CIRCLE
  8
Default
 10
-213.383208939501
 20
-239.68026083276
 30
0.0
 40
11.0000000595364
  0
CIRCLE
  8
Default
 10
-213.383208939501
 20
-202.68026083276
 30
0.0
 40
11.0000000595364
  0
CIRCLE
  8
Default
 10
-213.383208939501
 20
-165.68026083276
 30
0.0
 40
11.0000000595364
  0
CIRCLE
  8
Default
 10
-213.383208939501
 20
-128.68026083276
 30
0.0
 40
11.0000000595364
  0
CIRCLE
  8
Default
 10
-213.383208939501
 20
-91.6802608327599
 30
0.0
 40
11.0000000595364
  0
CIRCLE
  8
Default
 10
-213.383208939501
 20
-54.6802608327599
 30
0.0
 40
11.0000000595364
  0
CIRCLE
  8
Default
 10
-213.383208939501
 20
-17.6802608327599
 30
0.0
 40
11.0000000595364
  0
CIRCLE
  8
Default
 10
-213.383208939501
 20
19.3197391672401
 30
0.0
 40
11.0000000595364
  0
CIRCLE
  8
Default
 10
-213.383208939501
 20
56.31973916724
 30
0.0
 40
11.0000000595364
  0
CIRCLE
  8
Default
 10
-213.383208939501
 20
93.31973916724
 30
0.0
 40
11.0000000595364
  0
CIRCLE
  8
Default
 10
-213.383208939501
 20
130.31973916724
 30
0.0
 40
11.0000000595364
  0
CIRCLE
  8
Default
 10
-213.383208939501
 20
167.31973916724
 30
0.0
 40
11.0000000595364
  0
CIRCLE
  8
Default
 10
-213.383208939501
 20
204.31973916724
 30
0.0
 40
11.0000000595364
  0
CIRCLE
  8
Default
 10
-213.383208939501
 20
241.31973916724
 30
0.0
 40
11.0000000595364
  0
CIRCLE
  8
Default
 10
-213.383208939501
 20
278.31973916724
 30
0.0
 40
11.0000000595364
  0
CIRCLE
  8
Default
 10
-213.383208939501
 20
315.31973916724
 30
0.0
 40
11.0000000595364
  0
CIRCLE
  8
Default
 10
-213.383208939501
 20
352.31973916724
 30
0.0
 40
11.0000000595364
  0
CIRCLE
  8
Default
 10
-213.383208939501
 20
389.31973916724
 30
0.0
 40
11.0000000595364
  0
CIRCLE
  8
Default
 10
-213.383208939501
 20
426.31973916724
 30
0.0
 40
11.0000000595364
  0
CIRCLE
  8
Default
 10
-213.383208939501
 20
463.31973916724
 30
0.0
 40
11.0000000595364
  0
CIRCLE
  8
Default
 10
-213.383208939501
 20
500.31973916724
 30
0.0
 40
11.0000000595364
  0
CIRCLE
  8
Default
 10
-213.383208939501
 20
537.31973916724
 30
0.0
 40
11.0000000595364
  0
CIRCLE
  8
Default
 10
-213.383208939501
 20
574.31973916724
 30
0.0
 40
11.0000000595364
  0
CIRCLE
  8
Default
 10
-213.383208939501
 20
611.31973916724
 30
0.0
 40
11.0000000595364
  0
CIRCLE
  8
Default
 10
-213.383208939501
 20
648.31973916724
 30
0.0
 40
11.0000000595364
  0
CIRCLE
  8
Default
 10
-213.383208939501
 20
685.31973916724
 30
0.0
 40
11.0000000595364
  0
CIRCLE
  8
Default
 10
-213.383208939501
 20
722.31973916724
 30
0.0
 40
11.0000000595364
  0
CIRCLE
  8
Default
 10
-213.383208939501
 20
759.31973916724
 30
0.0
 40
11.0000000595364
  0
CIRCLE
  8
Default
 10
-213.383208939501
 20
796.31973916724
 30
0.0
 40
11.0000000595364
  0
CIRCLE
  8
Default
 10
-213.383208939501
 20
833.31973916724
 30
0.0
 40
11.0000000595364
  0
CIRCLE
  8
Default
 10
-213.383208939501
 20
870.31973916724
 30
0.0
 40
11.0000000595364
  0
CIRCLE
  8
Default
 10
-213.383208939501
 20
907.31973916724
 30
0.0
 40
11.0000000595364
  0
CIRCLE
  8
Default
 10
-213.383208939501
 20
944.31973916724
 30
0.0
 40
11.0000000595364
  0
CIRCLE
  8
Default
 10
-177.383208939501
 20
-961.68026083276
 30
0.0
 40
11.0000000595364
  0
CIRCLE
  8
Default
 10
-177.383208939501
 20
-924.68026083276
 30
0.0
 40
11.0000000595364
  0
CIRCLE
  8
Default
 10
-177.383208939501
 20
-887.68026083276
 30
0.0
 40
11.0000000595364
  0
CIRCLE
  8
Default
 10
-177.383208939501
 20
-850.68026083276
 30
0.0
 40
11.0000000595364
  0
CIRCLE
  8
Default
 10
-177.383208939501
 20
-813.68026083276
 30
0.0
 40
11.0000000595364
  0
CIRCLE
  8
Default
 10
-177.383208939501
 20
-776.68026083276
 30
0.0
 40
11.0000000595364
  0
CIRCLE
  8
Default
 10
-177.383208939501
 20
-739.68026083276
 30
0.0
 40
11.0000000595364
  0
CIRCLE
  8
Default
 10
-177.383208939501
 20
-702.68026083276
 30
0.0
 40
11.0000000595364
  0
CIRCLE
  8
Default
 10
-177.383208939501
 20
-665.68026083276
 30
0.0
 40
11.0000000595364
  0
CIRCLE
  8
Default
 10
-177.383208939501
 20
-628.68026083276
 30
0.0
 40
11.0000000595364
  0
CIRCLE
  8
Default
 10
-177.383208939501
 20
-591.68026083276
 30
0.0
 40
11.0000000595364
  0
CIRCLE
  8
Default
 10
-177.383208939501
 20
-554.68026083276
 30
0.0
 40
11.0000000595364
  0
CIRCLE
  8
Default
 10
-177.383208939501
 20
-517.68026083276
 30
0.0
 40
11.0000000595364
  0
CIRCLE
  8
Default
 10
-177.383208939501
 20
-480.68026083276
 30
0.0
 40
11.0000000595364
  0
CIRCLE
  8
Default
 10
-177.383208939501
 20
-443.68026083276
 30
0.0
 40
11.0000000595364
  0
CIRCLE
  8
Default
 10
-177.383208939501
 20
-406.68026083276
 30
0.0
 40
11.0000000595364
  0
CIRCLE
  8
Default
 10
-177.383208939501
 20
-369.68026083276
 30
0.0
 40
11.0000000595364
  0
CIRCLE
  8
Default
 10
-177.383208939501
 20
-332.68026083276
 30
0.0
 40
11.0000000595364
  0
CIRCLE
  8
Default
 10
-177.383208939501
 20
-295.68026083276
 30
0.0
 40
11.0000000595364
  0
CIRCLE
  8
Default
 10
-177.383208939501
 20
-258.68026083276
 30
0.0
 40
11.0000000595364
  0
CIRCLE
  8
Default
 10
-177.383208939501
 20
-221.68026083276
 30
0.0
 40
11.0000000595364
  0
CIRCLE
  8
Default
 10
-177.383208939501
 20
-184.68026083276
 30
0.0
 40
11.0000000595364
  0
CIRCLE
  8
Default
 10
-177.383208939501
 20
-147.68026083276
 30
0.0
 40
11.0000000595364
  0
CIRCLE
  8
Default
 10
-177.383208939501
 20
-110.68026083276
 30
0.0
 40
11.0000000595364
  0
CIRCLE
  8
Default
 10
-177.383208939501
 20
-73.6802608327599
 30
0.0
 40
11.0000000595364
  0
CIRCLE
  8
Default
 10
-177.383208939501
 20
-36.6802608327599
 30
0.0
 40
11.0000000595364
  0
CIRCLE
  8
Default
 10
-177.383208939501
 20
0.3197391672401
 30
0.0
 40
11.0000000595364
  0
CIRCLE
  8
Default
 10
-177.383208939501
 20
37.31973916724
 30
0.0
 40
11.0000000595364
  0
CIRCLE
  8
Default
 10
-177.383208939501
 20
74.31973916724
 30
0.0
 40
11.0000000595364
  0
CIRCLE
  8
Default
 10
-177.383208939501
 20
111.31973916724
 30
0.0
 40
11.0000000595364
  0
CIRCLE
  8
Default
 10
-177.383208939501
 20
148.31973916724
 30
0.0
 40
11.0000000595364
  0
CIRCLE
  8
Default
 10
-177.383208939501
 20
185.31973916724
 30
0.0
 40
11.0000000595364
  0
CIRCLE
  8
Default
 10
-177.383208939501
 20
222.31973916724
 30
0.0
 40
11.0000000595364
  0
CIRCLE
  8
Default
 10
-177.383208939501
 20
259.31973916724
 30
0.0
 40
11.0000000595364
  0
CIRCLE
  8
Default
 10
-177.383208939501
 20
296.31973916724
 30
0.0
 40
11.0000000595364
  0
CIRCLE
  8
Default
 10
-177.383208939501
 20
333.31973916724
 30
0.0
 40
11.0000000595364
  0
CIRCLE
  8
Default
 10
-177.383208939501
 20
370.31973916724
 30
0.0
 40
11.0000000595364
  0
CIRCLE
  8
Default
 10
-177.383208939501
 20
407.31973916724
 30
0.0
 40
11.0000000595364
  0
CIRCLE
  8
Default
 10
-177.383208939501
 20
444.31973916724
 30
0.0
 40
11.0000000595364
  0
CIRCLE
  8
Default
 10
-177.383208939501
 20
481.31973916724
 30
0.0
 40
11.0000000595364
  0
CIRCLE
  8
Default
 10
-177.383208939501
 20
518.31973916724
 30
0.0
 40
11.0000000595364
  0
CIRCLE
  8
Default
 10
-177.383208939501
 20
555.31973916724
 30
0.0
 40
11.0000000595364
  0
CIRCLE
  8
Default
 10
-177.383208939501
 20
592.31973916724
 30
0.0
 40
11.0000000595364
  0
CIRCLE
  8
Default
 10
-177.383208939501
 20
629.31973916724
 30
0.0
 40
11.0000000595364
  0
CIRCLE
  8
Default
 10
-177.383208939501
 20
666.31973916724
 30
0.0
 40
11.0000000595364
  0
CIRCLE
  8
Default
 10
-177.383208939501
 20
703.31973916724
 30
0.0
 40
11.0000000595364
  0
CIRCLE
  8
Default
 10
-177.383208939501
 20
740.31973916724
 30
0.0
 40
11.0000000595364
  0
CIRCLE
  8
Default
 10
-177.383208939501
 20
777.31973916724
 30
0.0
 40
11.0000000595364
  0
CIRCLE
  8
Default
 10
-177.383208939501
 20
814.31973916724
 30
0.0
 40
11.0000000595364
  0
CIRCLE
  8
Default
 10
-177.383208939501
 20
851.31973916724
 30
0.0
 40
11.0000000595364
  0
CIRCLE
  8
Default
 10
-177.383208939501
 20
888.31973916724
 30
0.0
 40
11.0000000595364
  0
CIRCLE
  8
Default
 10
-177.383208939501
 20
925.31973916724
 30
0.0
 40
11.0000000595364
  0
CIRCLE
  8
Default
 10
-177.383208939501
 20
962.31973916724
 30
0.0
 40
11.0000000595364
  0
CIRCLE
  8
Default
 10
-141.383208939501
 20
-942.68026083276
 30
0.0
 40
11.0000000595364
  0
CIRCLE
  8
Default
 10
-141.383208939501
 20
-905.68026083276
 30
0.0
 40
11.0000000595364
  0
CIRCLE
  8
Default
 10
-141.383208939501
 20
-868.68026083276
 30
0.0
 40
11.0000000595364
  0
CIRCLE
  8
Default
 10
-141.383208939501
 20
-831.68026083276
 30
0.0
 40
11.0000000595364
  0
CIRCLE
  8
Default
 10
-141.383208939501
 20
-794.68026083276
 30
0.0
 40
11.0000000595364
  0
CIRCLE
  8
Default
 10
-141.383208939501
 20
-757.68026083276
 30
0.0
 40
11.0000000595364
  0
CIRCLE
  8
Default
 10
-141.383208939501
 20
-720.68026083276
 30
0.0
 40
11.0000000595364
  0
CIRCLE
  8
Default
 10
-141.383208939501
 20
-683.68026083276
 30
0.0
 40
11.0000000595364
  0
CIRCLE
  8
Default
 10
-141.383208939501
 20
-646.68026083276
 30
0.0
 40
11.0000000595364
  0
CIRCLE
  8
Default
 10
-141.383208939501
 20
-609.68026083276
 30
0.0
 40
11.0000000595364
  0
CIRCLE
  8
Default
 10
-141.383208939501
 20
-572.68026083276
 30
0.0
 40
11.0000000595364
  0
CIRCLE
  8
Default
 10
-141.383208939501
 20
-535.68026083276
 30
0.0
 40
11.0000000595364
  0
CIRCLE
  8
Default
 10
-141.383208939501
 20
-498.68026083276
 30
0.0
 40
11.0000000595364
  0
CIRCLE
  8
Default
 10
-141.383208939501
 20
-461.68026083276
 30
0.0
 40
11.0000000595364
  0
CIRCLE
  8
Default
 10
-141.383208939501
 20
-424.68026083276
 30
0.0
 40
11.0000000595364
  0
CIRCLE
  8
Default
 10
-141.383208939501
 20
-387.68026083276
 30
0.0
 40
11.0000000595364
  0
CIRCLE
  8
Default
 10
-141.383208939501
 20
-350.68026083276
 30
0.0
 40
11.0000000595364
  0
CIRCLE
  8
Default
 10
-141.383208939501
 20
-313.68026083276
 30
0.0
 40
11.0000000595364
  0
CIRCLE
  8
Default
 10
-141.383208939501
 20
-276.68026083276
 30
0.0
 40
11.0000000595364
  0
CIRCLE
  8
Default
 10
-141.383208939501
 20
-239.68026083276
 30
0.0
 40
11.0000000595364
  0
CIRCLE
  8
Default
 10
-141.383208939501
 20
-202.68026083276
 30
0.0
 40
11.0000000595364
  0
CIRCLE
  8
Default
 10
-141.383208939501
 20
-165.68026083276
 30
0.0
 40
11.0000000595364
  0
CIRCLE
  8
Default
 10
-141.383208939501
 20
-128.68026083276
 30
0.0
 40
11.0000000595364
  0
CIRCLE
  8
Default
 10
-141.383208939501
 20
-91.6802608327599
 30
0.0
 40
11.0000000595364
  0
CIRCLE
  8
Default
 10
-141.383208939501
 20
-54.6802608327599
 30
0.0
 40
11.0000000595364
  0
CIRCLE
  8
Default
 10
-141.383208939501
 20
-17.6802608327599
 30
0.0
 40
11.0000000595364
  0
CIRCLE
  8
Default
 10
-141.383208939501
 20
19.3197391672401
 30
0.0
 40
11.0000000595364
  0
CIRCLE
  8
Default
 10
-141.383208939501
 20
56.31973916724
 30
0.0
 40
11.0000000595364
  0
CIRCLE
  8
Default
 10
-141.383208939501
 20
93.31973916724
 30
0.0
 40
11.0000000595364
  0
CIRCLE
  8
Default
 10
-141.383208939501
 20
130.31973916724
 30
0.0
 40
11.0000000595364
  0
CIRCLE
  8
Default
 10
-141.383208939501
 20
167.31973916724
 30
0.0
 40
11.0000000595364
  0
CIRCLE
  8
Default
 10
-141.383208939501
 20
204.31973916724
 30
0.0
 40
11.0000000595364
  0
CIRCLE
  8
Default
 10
-141.383208939501
 20
241.31973916724
 30
0.0
 40
11.0000000595364
  0
CIRCLE
  8
Default
 10
-141.383208939501
 20
278.31973916724
 30
0.0
 40
11.0000000595364
  0
CIRCLE
  8
Default
 10
-141.383208939501
 20
315.31973916724
 30
0.0
 40
11.0000000595364
  0
CIRCLE
  8
Default
 10
-141.383208939501
 20
352.31973916724
 30
0.0
 40
11.0000000595364
  0
CIRCLE
  8
Default
 10
-141.383208939501
 20
389.31973916724
 30
0.0
 40
11.0000000595364
  0
CIRCLE
  8
Default
 10
-141.383208939501
 20
426.31973916724
 30
0.0
 40
11.0000000595364
  0
CIRCLE
  8
Default
 10
-141.383208939501
 20
463.31973916724
 30
0.0
 40
11.0000000595364
  0
CIRCLE
  8
Default
 10
-141.383208939501
 20
500.31973916724
 30
0.0
 40
11.0000000595364
  0
CIRCLE
  8
Default
 10
-141.383208939501
 20
537.31973916724
 30
0.0
 40
11.0000000595364
  0
CIRCLE
  8
Default
 10
-141.383208939501
 20
574.31973916724
 30
0.0
 40
11.0000000595364
  0
CIRCLE
  8
Default
 10
-141.383208939501
 20
611.31973916724
 30
0.0
 40
11.0000000595364
  0
CIRCLE
  8
Default
 10
-141.383208939501
 20
648.31973916724
 30
0.0
 40
11.0000000595364
  0
CIRCLE
  8
Default
 10
-141.383208939501
 20
685.31973916724
 30
0.0
 40
11.0000000595364
  0
CIRCLE
  8
Default
 10
-141.383208939501
 20
722.31973916724
 30
0.0
 40
11.0000000595364
  0
CIRCLE
  8
Default
 10
-141.383208939501
 20
759.31973916724
 30
0.0
 40
11.0000000595364
  0
CIRCLE
  8
Default
 10
-141.383208939501
 20
796.31973916724
 30
0.0
 40
11.0000000595364
  0
CIRCLE
  8
Default
 10
-141.383208939501
 20
833.31973916724
 30
0.0
 40
11.0000000595364
  0
CIRCLE
  8
Default
 10
-141.383208939501
 20
870.31973916724
 30
0.0
 40
11.0000000595364
  0
CIRCLE
  8
Default
 10
-141.383208939501
 20
907.31973916724
 30
0.0
 40
11.0000000595364
  0
CIRCLE
  8
Default
 10
-141.383208939501
 20
944.31973916724
 30
0.0
 40
11.0000000595364
  0
CIRCLE
  8
Default
 10
-106.383208939501
 20
-961.68026083276
 30
0.0
 40
11.0000000595364
  0
CIRCLE
  8
Default
 10
-106.383208939501
 20
-924.68026083276
 30
0.0
 40
11.0000000595364
  0
CIRCLE
  8
Default
 10
-106.383208939501
 20
-887.68026083276
 30
0.0
 40
11.0000000595364
  0
CIRCLE
  8
Default
 10
-106.383208939501
 20
-850.68026083276
 30
0.0
 40
11.0000000595364
  0
CIRCLE
  8
Default
 10
-106.383208939501
 20
-813.68026083276
 30
0.0
 40
11.0000000595364
  0
CIRCLE
  8
Default
 10
-106.383208939501
 20
-776.68026083276
 30
0.0
 40
11.0000000595364
  0
CIRCLE
  8
Default
 10
-106.383208939501
 20
-739.68026083276
 30
0.0
 40
11.0000000595364
  0
CIRCLE
  8
Default
 10
-106.383208939501
 20
-702.68026083276
 30
0.0
 40
11.0000000595364
  0
CIRCLE
  8
Default
 10
-106.383208939501
 20
-665.68026083276
 30
0.0
 40
11.0000000595364
  0
CIRCLE
  8
Default
 10
-106.383208939501
 20
-628.68026083276
 30
0.0
 40
11.0000000595364
  0
CIRCLE
  8
Default
 10
-106.383208939501
 20
-591.68026083276
 30
0.0
 40
11.0000000595364
  0
CIRCLE
  8
Default
 10
-106.383208939501
 20
-554.68026083276
 30
0.0
 40
11.0000000595364
  0
CIRCLE
  8
Default
 10
-106.383208939501
 20
-517.68026083276
 30
0.0
 40
11.0000000595364
  0
CIRCLE
  8
Default
 10
-106.383208939501
 20
-480.68026083276
 30
0.0
 40
11.0000000595364
  0
CIRCLE
  8
Default
 10
-106.383208939501
 20
-443.68026083276
 30
0.0
 40
11.0000000595364
  0
CIRCLE
  8
Default
 10
-106.383208939501
 20
-406.68026083276
 30
0.0
 40
11.0000000595364
  0
CIRCLE
  8
Default
 10
-106.383208939501
 20
-369.68026083276
 30
0.0
 40
11.0000000595364
  0
CIRCLE
  8
Default
 10
-106.383208939501
 20
-332.68026083276
 30
0.0
 40
11.0000000595364
  0
CIRCLE
  8
Default
 10
-106.383208939501
 20
-295.68026083276
 30
0.0
 40
11.0000000595364
  0
CIRCLE
  8
Default
 10
-106.383208939501
 20
-258.68026083276
 30
0.0
 40
11.0000000595364
  0
CIRCLE
  8
Default
 10
-106.383208939501
 20
-221.68026083276
 30
0.0
 40
11.0000000595364
  0
CIRCLE
  8
Default
 10
-106.383208939501
 20
-184.68026083276
 30
0.0
 40
11.0000000595364
  0
CIRCLE
  8
Default
 10
-106.383208939501
 20
-147.68026083276
 30
0.0
 40
11.0000000595364
  0
CIRCLE
  8
Default
 10
-106.383208939501
 20
-110.68026083276
 30
0.0
 40
11.0000000595364
  0
CIRCLE
  8
Default
 10
-106.383208939501
 20
-73.6802608327599
 30
0.0
 40
11.0000000595364
  0
CIRCLE
  8
Default
 10
-106.383208939501
 20
-36.6802608327599
 30
0.0
 40
11.0000000595364
  0
CIRCLE
  8
Default
 10
-106.383208939501
 20
0.3197391672401
 30
0.0
 40
11.0000000595364
  0
CIRCLE
  8
Default
 10
-106.383208939501
 20
37.31973916724
 30
0.0
 40
11.0000000595364
  0
CIRCLE
  8
Default
 10
-106.383208939501
 20
74.31973916724
 30
0.0
 40
11.0000000595364
  0
CIRCLE
  8
Default
 10
-106.383208939501
 20
111.31973916724
 30
0.0
 40
11.0000000595364
  0
CIRCLE
  8
Default
 10
-106.383208939501
 20
148.31973916724
 30
0.0
 40
11.0000000595364
  0
CIRCLE
  8
Default
 10
-106.383208939501
 20
185.31973916724
 30
0.0
 40
11.0000000595364
  0
CIRCLE
  8
Default
 10
-106.383208939501
 20
222.31973916724
 30
0.0
 40
11.0000000595364
  0
CIRCLE
  8
Default
 10
-106.383208939501
 20
259.31973916724
 30
0.0
 40
11.0000000595364
  0
CIRCLE
  8
Default
 10
-106.383208939501
 20
296.31973916724
 30
0.0
 40
11.0000000595364
  0
CIRCLE
  8
Default
 10
-106.383208939501
 20
333.31973916724
 30
0.0
 40
11.0000000595364
  0
CIRCLE
  8
Default
 10
-106.383208939501
 20
370.31973916724
 30
0.0
 40
11.0000000595364
  0
CIRCLE
  8
Default
 10
-106.383208939501
 20
407.31973916724
 30
0.0
 40
11.0000000595364
  0
CIRCLE
  8
Default
 10
-106.383208939501
 20
444.31973916724
 30
0.0
 40
11.0000000595364
  0
CIRCLE
  8
Default
 10
-106.383208939501
 20
481.31973916724
 30
0.0
 40
11.0000000595364
  0
CIRCLE
  8
Default
 10
-106.383208939501
 20
518.31973916724
 30
0.0
 40
11.0000000595364
  0
CIRCLE
  8
Default
 10
-106.383208939501
 20
555.31973916724
 30
0.0
 40
11.0000000595364
  0
CIRCLE
  8
Default
 10
-106.383208939501
 20
592.31973916724
 30
0.0
 40
11.0000000595364
  0
CIRCLE
  8
Default
 10
-106.383208939501
 20
629.31973916724
 30
0.0
 40
11.0000000595364
  0
CIRCLE
  8
Default
 10
-106.383208939501
 20
666.31973916724
 30
0.0
 40
11.0000000595364
  0
CIRCLE
  8
Default
 10
-106.383208939501
 20
703.31973916724
 30
0.0
 40
11.0000000595364
  0
CIRCLE
  8
Default
 10
-106.383208939501
 20
740.31973916724
 30
0.0
 40
11.0000000595364
  0
CIRCLE
  8
Default
 10
-106.383208939501
 20
777.31973916724
 30
0.0
 40
11.0000000595364
  0
CIRCLE
  8
Default
 10
-106.383208939501
 20
814.31973916724
 30
0.0
 40
11.0000000595364
  0
CIRCLE
  8
Default
 10
-106.383208939501
 20
851.31973916724
 30
0.0
 40
11.0000000595364
  0
CIRCLE
  8
Default
 10
-106.383208939501
 20
888.31973916724
 30
0.0
 40
11.0000000595364
  0
CIRCLE
  8
Default
 10
-106.383208939501
 20
925.31973916724
 30
0.0
 40
11.0000000595364
  0
CIRCLE
  8
Default
 10
-106.383208939501
 20
962.31973916724
 30
0.0
 40
11.0000000595364
  0
CIRCLE
  8
Default
 10
-70.383208939501
 20
-942.68026083276
 30
0.0
 40
11.0000000595364
  0
CIRCLE
  8
Default
 10
-70.383208939501
 20
-905.68026083276
 30
0.0
 40
11.0000000595364
  0
CIRCLE
  8
Default
 10
-70.383208939501
 20
-868.68026083276
 30
0.0
 40
11.0000000595364
  0
CIRCLE
  8
Default
 10
-70.383208939501
 20
-831.68026083276
 30
0.0
 40
11.0000000595364
  0
CIRCLE
  8
Default
 10
-70.383208939501
 20
-794.68026083276
 30
0.0
 40
11.0000000595364
  0
CIRCLE
  8
Default
 10
-70.383208939501
 20
-757.68026083276
 30
0.0
 40
11.0000000595364
  0
CIRCLE
  8
Default
 10
-70.383208939501
 20
-720.68026083276
 30
0.0
 40
11.0000000595364
  0
CIRCLE
  8
Default
 10
-70.383208939501
 20
-683.68026083276
 30
0.0
 40
11.0000000595364
  0
CIRCLE
  8
Default
 10
-70.383208939501
 20
-646.68026083276
 30
0.0
 40
11.0000000595364
  0
CIRCLE
  8
Default
 10
-70.383208939501
 20
-609.68026083276
 30
0.0
 40
11.0000000595364
  0
CIRCLE
  8
Default
 10
-70.383208939501
 20
-572.68026083276
 30
0.0
 40
11.0000000595364
  0
CIRCLE
  8
Default
 10
-70.383208939501
 20
-535.68026083276
 30
0.0
 40
11.0000000595364
  0
CIRCLE
  8
Default
 10
-70.383208939501
 20
-498.68026083276
 30
0.0
 40
11.0000000595364
  0
CIRCLE
  8
Default
 10
-70.383208939501
 20
-461.68026083276
 30
0.0
 40
11.0000000595364
  0
CIRCLE
  8
Default
 10
-70.383208939501
 20
-424.68026083276
 30
0.0
 40
11.0000000595364
  0
CIRCLE
  8
Default
 10
-70.383208939501
 20
-387.68026083276
 30
0.0
 40
11.0000000595364
  0
CIRCLE
  8
Default
 10
-70.383208939501
 20
-350.68026083276
 30
0.0
 40
11.0000000595364
  0
CIRCLE
  8
Default
 10
-70.383208939501
 20
-313.68026083276
 30
0.0
 40
11.0000000595364
  0
CIRCLE
  8
Default
 10
-70.383208939501
 20
-276.68026083276
 30
0.0
 40
11.0000000595364
  0
CIRCLE
  8
Default
 10
-70.383208939501
 20
-239.68026083276
 30
0.0
 40
11.0000000595364
  0
CIRCLE
  8
Default
 10
-70.383208939501
 20
-202.68026083276
 30
0.0
 40
11.0000000595364
  0
CIRCLE
  8
Default
 10
-70.383208939501
 20
-165.68026083276
 30
0.0
 40
11.0000000595364
  0
CIRCLE
  8
Default
 10
-70.383208939501
 20
-128.68026083276
 30
0.0
 40
11.0000000595364
  0
CIRCLE
  8
Default
 10
-70.383208939501
 20
-91.6802608327599
 30
0.0
 40
11.0000000595364
  0
CIRCLE
  8
Default
 10
-70.383208939501
 20
-54.6802608327599
 30
0.0
 40
11.0000000595364
  0
CIRCLE
  8
Default
 10
-70.383208939501
 20
-17.6802608327599
 30
0.0
 40
11.0000000595364
  0
CIRCLE
  8
Default
 10
-70.383208939501
 20
19.3197391672401
 30
0.0
 40
11.0000000595364
  0
CIRCLE
  8
Default
 10
-70.383208939501
 20
56.31973916724
 30
0.0
 40
11.0000000595364
  0
CIRCLE
  8
Default
 10
-70.383208939501
 20
93.31973916724
 30
0.0
 40
11.0000000595364
  0
CIRCLE
  8
Default
 10
-70.383208939501
 20
130.31973916724
 30
0.0
 40
11.0000000595364
  0
CIRCLE
  8
Default
 10
-70.383208939501
 20
167.31973916724
 30
0.0
 40
11.0000000595364
  0
CIRCLE
  8
Default
 10
-70.383208939501
 20
204.31973916724
 30
0.0
 40
11.0000000595364
  0
CIRCLE
  8
Default
 10
-70.383208939501
 20
241.31973916724
 30
0.0
 40
11.0000000595364
  0
CIRCLE
  8
Default
 10
-70.383208939501
 20
278.31973916724
 30
0.0
 40
11.0000000595364
  0
CIRCLE
  8
Default
 10
-70.383208939501
 20
315.31973916724
 30
0.0
 40
11.0000000595364
  0
CIRCLE
  8
Default
 10
-70.383208939501
 20
352.31973916724
 30
0.0
 40
11.0000000595364
  0
CIRCLE
  8
Default
 10
-70.383208939501
 20
389.31973916724
 30
0.0
 40
11.0000000595364
  0
CIRCLE
  8
Default
 10
-70.383208939501
 20
426.31973916724
 30
0.0
 40
11.0000000595364
  0
CIRCLE
  8
Default
 10
-70.383208939501
 20
463.31973916724
 30
0.0
 40
11.0000000595364
  0
CIRCLE
  8
Default
 10
-70.383208939501
 20
500.31973916724
 30
0.0
 40
11.0000000595364
  0
CIRCLE
  8
Default
 10
-70.383208939501
 20
537.31973916724
 30
0.0
 40
11.0000000595364
  0
CIRCLE
  8
Default
 10
-70.383208939501
 20
574.31973916724
 30
0.0
 40
11.0000000595364
  0
CIRCLE
  8
Default
 10
-70.383208939501
 20
611.31973916724
 30
0.0
 40
11.0000000595364
  0
CIRCLE
  8
Default
 10
-70.383208939501
 20
648.31973916724
 30
0.0
 40
11.0000000595364
  0
CIRCLE
  8
Default
 10
-70.383208939501
 20
685.31973916724
 30
0.0
 40
11.0000000595364
  0
CIRCLE
  8
Default
 10
-70.383208939501
 20
722.31973916724
 30
0.0
 40
11.0000000595364
  0
CIRCLE
  8
Default
 10
-70.383208939501
 20
759.31973916724
 30
0.0
 40
11.0000000595364
  0
CIRCLE
  8
Default
 10
-70.383208939501
 20
796.31973916724
 30
0.0
 40
11.0000000595364
  0
CIRCLE
  8
Default
 10
-70.383208939501
 20
833.31973916724
 30
0.0
 40
11.0000000595364
  0
CIRCLE
  8
Default
 10
-70.383208939501
 20
870.31973916724
 30
0.0
 40
11.0000000595364
  0
CIRCLE
  8
Default
 10
-70.383208939501
 20
907.31973916724
 30
0.0
 40
11.0000000595364
  0
CIRCLE
  8
Default
 10
-70.383208939501
 20
944.31973916724
 30
0.0
 40
11.0000000595364
  0
CIRCLE
  8
Default
 10
-34.383208939501
 20
-961.68026083276
 30
0.0
 40
11.0000000595364
  0
CIRCLE
  8
Default
 10
-34.383208939501
 20
-924.68026083276
 30
0.0
 40
11.0000000595364
  0
CIRCLE
  8
Default
 10
-34.383208939501
 20
-887.68026083276
 30
0.0
 40
11.0000000595364
  0
CIRCLE
  8
Default
 10
-34.383208939501
 20
-850.68026083276
 30
0.0
 40
11.0000000595364
  0
CIRCLE
  8
Default
 10
-34.383208939501
 20
-813.68026083276
 30
0.0
 40
11.0000000595364
  0
CIRCLE
  8
Default
 10
-34.383208939501
 20
-776.68026083276
 30
0.0
 40
11.0000000595364
  0
CIRCLE
  8
Default
 10
-34.383208939501
 20
-739.68026083276
 30
0.0
 40
11.0000000595364
  0
CIRCLE
  8
Default
 10
-34.383208939501
 20
-702.68026083276
 30
0.0
 40
11.0000000595364
  0
CIRCLE
  8
Default
 10
-34.383208939501
 20
-665.68026083276
 30
0.0
 40
11.0000000595364
  0
CIRCLE
  8
Default
 10
-34.383208939501
 20
-628.68026083276
 30
0.0
 40
11.0000000595364
  0
CIRCLE
  8
Default
 10
-34.383208939501
 20
-591.68026083276
 30
0.0
 40
11.0000000595364
  0
CIRCLE
  8
Default
 10
-34.383208939501
 20
-554.68026083276
 30
0.0
 40
11.0000000595364
  0
CIRCLE
  8
Default
 10
-34.383208939501
 20
-517.68026083276
 30
0.0
 40
11.0000000595364
  0
CIRCLE
  8
Default
 10
-34.383208939501
 20
-480.68026083276
 30
0.0
 40
11.0000000595364
  0
CIRCLE
  8
Default
 10
-34.383208939501
 20
-443.68026083276
 30
0.0
 40
11.0000000595364
  0
CIRCLE
  8
Default
 10
-34.383208939501
 20
-406.68026083276
 30
0.0
 40
11.0000000595364
  0
CIRCLE
  8
Default
 10
-34.383208939501
 20
-369.68026083276
 30
0.0
 40
11.0000000595364
  0
CIRCLE
  8
Default
 10
-34.383208939501
 20
-332.68026083276
 30
0.0
 40
11.0000000595364
  0
CIRCLE
  8
Default
 10
-34.383208939501
 20
-295.68026083276
 30
0.0
 40
11.0000000595364
  0
CIRCLE
  8
Default
 10
-34.383208939501
 20
-258.68026083276
 30
0.0
 40
11.0000000595364
  0
CIRCLE
  8
Default
 10
-34.383208939501
 20
-221.68026083276
 30
0.0
 40
11.0000000595364
  0
CIRCLE
  8
Default
 10
-34.383208939501
 20
-184.68026083276
 30
0.0
 40
11.0000000595364
  0
CIRCLE
  8
Default
 10
-34.383208939501
 20
-147.68026083276
 30
0.0
 40
11.0000000595364
  0
CIRCLE
  8
Default
 10
-34.383208939501
 20
-110.68026083276
 30
0.0
 40
11.0000000595364
  0
CIRCLE
  8
Default
 10
-34.383208939501
 20
-73.6802608327599
 30
0.0
 40
11.0000000595364
  0
CIRCLE
  8
Default
 10
-34.383208939501
 20
-36.6802608327599
 30
0.0
 40
11.0000000595364
  0
CIRCLE
  8
Default
 10
-34.383208939501
 20
0.3197391672401
 30
0.0
 40
11.0000000595364
  0
CIRCLE
  8
Default
 10
-34.383208939501
 20
37.31973916724
 30
0.0
 40
11.0000000595364
  0
CIRCLE
  8
Default
 10
-34.383208939501
 20
74.31973916724
 30
0.0
 40
11.0000000595364
  0
CIRCLE
  8
Default
 10
-34.383208939501
 20
111.31973916724
 30
0.0
 40
11.0000000595364
  0
CIRCLE
  8
Default
 10
-34.383208939501
 20
148.31973916724
 30
0.0
 40
11.0000000595364
  0
CIRCLE
  8
Default
 10
-34.383208939501
 20
185.31973916724
 30
0.0
 40
11.0000000595364
  0
CIRCLE
  8
Default
 10
-34.383208939501
 20
222.31973916724
 30
0.0
 40
11.0000000595364
  0
CIRCLE
  8
Default
 10
-34.383208939501
 20
259.31973916724
 30
0.0
 40
11.0000000595364
  0
CIRCLE
  8
Default
 10
-34.383208939501
 20
296.31973916724
 30
0.0
 40
11.0000000595364
  0
CIRCLE
  8
Default
 10
-34.383208939501
 20
333.31973916724
 30
0.0
 40
11.0000000595364
  0
CIRCLE
  8
Default
 10
-34.383208939501
 20
370.31973916724
 30
0.0
 40
11.0000000595364
  0
CIRCLE
  8
Default
 10
-34.383208939501
 20
407.31973916724
 30
0.0
 40
11.0000000595364
  0
CIRCLE
  8
Default
 10
-34.383208939501
 20
444.31973916724
 30
0.0
 40
11.0000000595364
  0
CIRCLE
  8
Default
 10
-34.383208939501
 20
481.31973916724
 30
0.0
 40
11.0000000595364
  0
CIRCLE
  8
Default
 10
-34.383208939501
 20
518.31973916724
 30
0.0
 40
11.0000000595364
  0
CIRCLE
  8
Default
 10
-34.383208939501
 20
555.31973916724
 30
0.0
 40
11.0000000595364
  0
CIRCLE
  8
Default
 10
-34.383208939501
 20
592.31973916724
 30
0.0
 40
11.0000000595364
  0
CIRCLE
  8
Default
 10
-34.383208939501
 20
629.31973916724
 30
0.0
 40
11.0000000595364
  0
CIRCLE
  8
Default
 10
-34.383208939501
 20
666.31973916724
 30
0.0
 40
11.0000000595364
  0
CIRCLE
  8
Default
 10
-34.383208939501
 20
703.31973916724
 30
0.0
 40
11.0000000595364
  0
CIRCLE
  8
Default
 10
-34.383208939501
 20
740.31973916724
 30
0.0
 40
11.0000000595364
  0
CIRCLE
  8
Default
 10
-34.383208939501
 20
777.31973916724
 30
0.0
 40
11.0000000595364
  0
CIRCLE
  8
Default
 10
-34.383208939501
 20
814.31973916724
 30
0.0
 40
11.0000000595364
  0
CIRCLE
  8
Default
 10
-34.383208939501
 20
851.31973916724
 30
0.0
 40
11.0000000595364
  0
CIRCLE
  8
Default
 10
-34.383208939501
 20
888.31973916724
 30
0.0
 40
11.0000000595364
  0
CIRCLE
  8
Default
 10
-34.383208939501
 20
925.31973916724
 30
0.0
 40
11.0000000595364
  0
CIRCLE
  8
Default
 10
-34.383208939501
 20
962.31973916724
 30
0.0
 40
11.0000000595364
  0
CIRCLE
  8
Default
 10
36.616791060499
 20
-961.68026083276
 30
0.0
 40
11.0000000595364
  0
CIRCLE
  8
Default
 10
36.616791060499
 20
-924.68026083276
 30
0.0
 40
11.0000000595364
  0
CIRCLE
  8
Default
 10
36.616791060499
 20
-887.68026083276
 30
0.0
 40
11.0000000595364
  0
CIRCLE
  8
Default
 10
36.616791060499
 20
-850.68026083276
 30
0.0
 40
11.0000000595364
  0
CIRCLE
  8
Default
 10
36.616791060499
 20
-813.68026083276
 30
0.0
 40
11.0000000595364
  0
CIRCLE
  8
Default
 10
36.616791060499
 20
-776.68026083276
 30
0.0
 40
11.0000000595364
  0
CIRCLE
  8
Default
 10
36.616791060499
 20
-739.68026083276
 30
0.0
 40
11.0000000595364
  0
CIRCLE
  8
Default
 10
36.616791060499
 20
-702.68026083276
 30
0.0
 40
11.0000000595364
  0
CIRCLE
  8
Default
 10
36.616791060499
 20
-665.68026083276
 30
0.0
 40
11.0000000595364
  0
CIRCLE
  8
Default
 10
36.616791060499
 20
-628.68026083276
 30
0.0
 40
11.0000000595364
  0
CIRCLE
  8
Default
 10
36.616791060499
 20
-591.68026083276
 30
0.0
 40
11.0000000595364
  0
CIRCLE
  8
Default
 10
36.616791060499
 20
-554.68026083276
 30
0.0
 40
11.0000000595364
  0
CIRCLE
  8
Default
 10
36.616791060499
 20
-517.68026083276
 30
0.0
 40
11.0000000595364
  0
CIRCLE
  8
Default
 10
36.616791060499
 20
-480.68026083276
 30
0.0
 40
11.0000000595364
  0
CIRCLE
  8
Default
 10
36.616791060499
 20
-443.68026083276
 30
0.0
 40
11.0000000595364
  0
CIRCLE
  8
Default
 10
36.616791060499
 20
-406.68026083276
 30
0.0
 40
11.0000000595364
  0
CIRCLE
  8
Default
 10
36.616791060499
 20
-369.68026083276
 30
0.0
 40
11.0000000595364
  0
CIRCLE
  8
Default
 10
36.616791060499
 20
-332.68026083276
 30
0.0
 40
11.0000000595364
  0
CIRCLE
  8
Default
 10
36.616791060499
 20
-295.68026083276
 30
0.0
 40
11.0000000595364
  0
CIRCLE
  8
Default
 10
36.616791060499
 20
-258.68026083276
 30
0.0
 40
11.0000000595364
  0
CIRCLE
  8
Default
 10
36.616791060499
 20
-221.68026083276
 30
0.0
 40
11.0000000595364
  0
CIRCLE
  8
Default
 10
36.616791060499
 20
-184.68026083276
 30
0.0
 40
11.0000000595364
  0
CIRCLE
  8
Default
 10
36.616791060499
 20
-147.68026083276
 30
0.0
 40
11.0000000595364
  0
CIRCLE
  8
Default
 10
36.616791060499
 20
-110.68026083276
 30
0.0
 40
11.0000000595364
  0
CIRCLE
  8
Default
 10
36.616791060499
 20
-73.6802608327599
 30
0.0
 40
11.0000000595364
  0
CIRCLE
  8
Default
 10
36.616791060499
 20
-36.6802608327599
 30
0.0
 40
11.0000000595364
  0
CIRCLE
  8
Default
 10
36.616791060499
 20
0.3197391672401
 30
0.0
 40
11.0000000595364
  0
CIRCLE
  8
Default
 10
36.616791060499
 20
37.31973916724
 30
0.0
 40
11.0000000595364
  0
CIRCLE
  8
Default
 10
36.616791060499
 20
74.31973916724
 30
0.0
 40
11.0000000595364
  0
CIRCLE
  8
Default
 10
36.616791060499
 20
111.31973916724
 30
0.0
 40
11.0000000595364
  0
CIRCLE
  8
Default
 10
36.616791060499
 20
148.31973916724
 30
0.0
 40
11.0000000595364
  0
CIRCLE
  8
Default
 10
36.616791060499
 20
185.31973916724
 30
0.0
 40
11.0000000595364
  0
CIRCLE
  8
Default
 10
36.616791060499
 20
222.31973916724
 30
0.0
 40
11.0000000595364
  0
CIRCLE
  8
Default
 10
36.616791060499
 20
259.31973916724
 30
0.0
 40
11.0000000595364
  0
CIRCLE
  8
Default
 10
36.616791060499
 20
296.31973916724
 30
0.0
 40
11.0000000595364
  0
CIRCLE
  8
Default
 10
36.616791060499
 20
333.31973916724
 30
0.0
 40
11.0000000595364
  0
CIRCLE
  8
Default
 10
36.616791060499
 20
370.31973916724
 30
0.0
 40
11.0000000595364
  0
CIRCLE
  8
Default
 10
36.616791060499
 20
407.31973916724
 30
0.0
 40
11.0000000595364
  0
CIRCLE
  8
Default
 10
36.616791060499
 20
444.31973916724
 30
0.0
 40
11.0000000595364
  0
CIRCLE
  8
Default
 10
36.616791060499
 20
481.31973916724
 30
0.0
 40
11.0000000595364
  0
CIRCLE
  8
Default
 10
36.616791060499
 20
518.31973916724
 30
0.0
 40
11.0000000595364
  0
CIRCLE
  8
Default
 10
36.616791060499
 20
555.31973916724
 30
0.0
 40
11.0000000595364
  0
CIRCLE
  8
Default
 10
36.616791060499
 20
592.31973916724
 30
0.0
 40
11.0000000595364
  0
CIRCLE
  8
Default
 10
36.616791060499
 20
629.31973916724
 30
0.0
 40
11.0000000595364
  0
CIRCLE
  8
Default
 10
36.616791060499
 20
666.31973916724
 30
0.0
 40
11.0000000595364
  0
CIRCLE
  8
Default
 10
36.616791060499
 20
703.31973916724
 30
0.0
 40
11.0000000595364
  0
CIRCLE
  8
Default
 10
36.616791060499
 20
740.31973916724
 30
0.0
 40
11.0000000595364
  0
CIRCLE
  8
Default
 10
36.616791060499
 20
777.31973916724
 30
0.0
 40
11.0000000595364
  0
CIRCLE
  8
Default
 10
36.616791060499
 20
814.31973916724
 30
0.0
 40
11.0000000595364
  0
CIRCLE
  8
Default
 10
36.616791060499
 20
851.31973916724
 30
0.0
 40
11.0000000595364
  0
CIRCLE
  8
Default
 10
36.616791060499
 20
888.31973916724
 30
0.0
 40
11.0000000595364
  0
CIRCLE
  8
Default
 10
36.616791060499
 20
925.31973916724
 30
0.0
 40
11.0000000595364
  0
CIRCLE
  8
Default
 10
36.616791060499
 20
962.31973916724
 30
0.0
 40
11.0000000595364
  0
CIRCLE
  8
Default
 10
72.616791060499
 20
-942.68026083276
 30
0.0
 40
11.0000000595364
  0
CIRCLE
  8
Default
 10
72.616791060499
 20
-905.68026083276
 30
0.0
 40
11.0000000595364
  0
CIRCLE
  8
Default
 10
72.616791060499
 20
-868.68026083276
 30
0.0
 40
11.0000000595364
  0
CIRCLE
  8
Default
 10
72.616791060499
 20
-831.68026083276
 30
0.0
 40
11.0000000595364
  0
CIRCLE
  8
Default
 10
72.616791060499
 20
-794.68026083276
 30
0.0
 40
11.0000000595364
  0
CIRCLE
  8
Default
 10
72.616791060499
 20
-757.68026083276
 30
0.0
 40
11.0000000595364
  0
CIRCLE
  8
Default
 10
72.616791060499
 20
-720.68026083276
 30
0.0
 40
11.0000000595364
  0
CIRCLE
  8
Default
 10
72.616791060499
 20
-683.68026083276
 30
0.0
 40
11.0000000595364
  0
CIRCLE
  8
Default
 10
72.616791060499
 20
-646.68026083276
 30
0.0
 40
11.0000000595364
  0
CIRCLE
  8
Default
 10
72.616791060499
 20
-609.68026083276
 30
0.0
 40
11.0000000595364
  0
CIRCLE
  8
Default
 10
72.616791060499
 20
-572.68026083276
 30
0.0
 40
11.0000000595364
  0
CIRCLE
  8
Default
 10
72.616791060499
 20
-535.68026083276
 30
0.0
 40
11.0000000595364
  0
CIRCLE
  8
Default
 10
72.616791060499
 20
-498.68026083276
 30
0.0
 40
11.0000000595364
  0
CIRCLE
  8
Default
 10
72.616791060499
 20
-461.68026083276
 30
0.0
 40
11.0000000595364
  0
CIRCLE
  8
Default
 10
72.616791060499
 20
-424.68026083276
 30
0.0
 40
11.0000000595364
  0
CIRCLE
  8
Default
 10
72.616791060499
 20
-387.68026083276
 30
0.0
 40
11.0000000595364
  0
CIRCLE
  8
Default
 10
72.616791060499
 20
-350.68026083276
 30
0.0
 40
11.0000000595364
  0
CIRCLE
  8
Default
 10
72.616791060499
 20
-313.68026083276
 30
0.0
 40
11.0000000595364
  0
CIRCLE
  8
Default
 10
72.616791060499
 20
-276.68026083276
 30
0.0
 40
11.0000000595364
  0
CIRCLE
  8
Default
 10
72.616791060499
 20
-239.68026083276
 30
0.0
 40
11.0000000595364
  0
CIRCLE
  8
Default
 10
72.616791060499
 20
-202.68026083276
 30
0.0
 40
11.0000000595364
  0
CIRCLE
  8
Default
 10
72.616791060499
 20
-165.68026083276
 30
0.0
 40
11.0000000595364
  0
CIRCLE
  8
Default
 10
72.616791060499
 20
-128.68026083276
 30
0.0
 40
11.0000000595364
  0
CIRCLE
  8
Default
 10
72.616791060499
 20
-91.6802608327599
 30
0.0
 40
11.0000000595364
  0
CIRCLE
  8
Default
 10
72.616791060499
 20
-54.6802608327599
 30
0.0
 40
11.0000000595364
  0
CIRCLE
  8
Default
 10
72.616791060499
 20
-17.6802608327599
 30
0.0
 40
11.0000000595364
  0
CIRCLE
  8
Default
 10
72.616791060499
 20
19.3197391672401
 30
0.0
 40
11.0000000595364
  0
CIRCLE
  8
Default
 10
72.616791060499
 20
56.31973916724
 30
0.0
 40
11.0000000595364
  0
CIRCLE
  8
Default
 10
72.616791060499
 20
93.31973916724
 30
0.0
 40
11.0000000595364
  0
CIRCLE
  8
Default
 10
72.616791060499
 20
130.31973916724
 30
0.0
 40
11.0000000595364
  0
CIRCLE
  8
Default
 10
72.616791060499
 20
167.31973916724
 30
0.0
 40
11.0000000595364
  0
CIRCLE
  8
Default
 10
72.616791060499
 20
204.31973916724
 30
0.0
 40
11.0000000595364
  0
CIRCLE
  8
Default
 10
72.616791060499
 20
241.31973916724
 30
0.0
 40
11.0000000595364
  0
CIRCLE
  8
Default
 10
72.616791060499
 20
278.31973916724
 30
0.0
 40
11.0000000595364
  0
CIRCLE
  8
Default
 10
72.616791060499
 20
315.31973916724
 30
0.0
 40
11.0000000595364
  0
CIRCLE
  8
Default
 10
72.616791060499
 20
352.31973916724
 30
0.0
 40
11.0000000595364
  0
CIRCLE
  8
Default
 10
72.616791060499
 20
389.31973916724
 30
0.0
 40
11.0000000595364
  0
CIRCLE
  8
Default
 10
72.616791060499
 20
426.31973916724
 30
0.0
 40
11.0000000595364
  0
CIRCLE
  8
Default
 10
72.616791060499
 20
463.31973916724
 30
0.0
 40
11.0000000595364
  0
CIRCLE
  8
Default
 10
72.616791060499
 20
500.31973916724
 30
0.0
 40
11.0000000595364
  0
CIRCLE
  8
Default
 10
72.616791060499
 20
537.31973916724
 30
0.0
 40
11.0000000595364
  0
CIRCLE
  8
Default
 10
72.616791060499
 20
574.31973916724
 30
0.0
 40
11.0000000595364
  0
CIRCLE
  8
Default
 10
72.616791060499
 20
611.31973916724
 30
0.0
 40
11.0000000595364
  0
CIRCLE
  8
Default
 10
72.616791060499
 20
648.31973916724
 30
0.0
 40
11.0000000595364
  0
CIRCLE
  8
Default
 10
72.616791060499
 20
685.31973916724
 30
0.0
 40
11.0000000595364
  0
CIRCLE
  8
Default
 10
72.616791060499
 20
722.31973916724
 30
0.0
 40
11.0000000595364
  0
CIRCLE
  8
Default
 10
72.616791060499
 20
759.31973916724
 30
0.0
 40
11.0000000595364
  0
CIRCLE
  8
Default
 10
72.616791060499
 20
796.31973916724
 30
0.0
 40
11.0000000595364
  0
CIRCLE
  8
Default
 10
72.616791060499
 20
833.31973916724
 30
0.0
 40
11.0000000595364
  0
CIRCLE
  8
Default
 10
72.616791060499
 20
870.31973916724
 30
0.0
 40
11.0000000595364
  0
CIRCLE
  8
Default
 10
72.616791060499
 20
907.31973916724
 30
0.0
 40
11.0000000595364
  0
CIRCLE
  8
Default
 10
72.616791060499
 20
944.31973916724
 30
0.0
 40
11.0000000595364
  0
CIRCLE
  8
Default
 10
108.616791060499
 20
-961.68026083276
 30
0.0
 40
11.0000000595364
  0
CIRCLE
  8
Default
 10
108.616791060499
 20
-924.68026083276
 30
0.0
 40
11.0000000595364
  0
CIRCLE
  8
Default
 10
108.616791060499
 20
-887.68026083276
 30
0.0
 40
11.0000000595364
  0
CIRCLE
  8
Default
 10
108.616791060499
 20
-850.68026083276
 30
0.0
 40
11.0000000595364
  0
CIRCLE
  8
Default
 10
108.616791060499
 20
-813.68026083276
 30
0.0
 40
11.0000000595364
  0
CIRCLE
  8
Default
 10
108.616791060499
 20
-776.68026083276
 30
0.0
 40
11.0000000595364
  0
CIRCLE
  8
Default
 10
108.616791060499
 20
-739.68026083276
 30
0.0
 40
11.0000000595364
  0
CIRCLE
  8
Default
 10
108.616791060499
 20
-702.68026083276
 30
0.0
 40
11.0000000595364
  0
CIRCLE
  8
Default
 10
108.616791060499
 20
-665.68026083276
 30
0.0
 40
11.0000000595364
  0
CIRCLE
  8
Default
 10
108.616791060499
 20
-628.68026083276
 30
0.0
 40
11.0000000595364
  0
CIRCLE
  8
Default
 10
108.616791060499
 20
-591.68026083276
 30
0.0
 40
11.0000000595364
  0
CIRCLE
  8
Default
 10
108.616791060499
 20
-554.68026083276
 30
0.0
 40
11.0000000595364
  0
CIRCLE
  8
Default
 10
108.616791060499
 20
-517.68026083276
 30
0.0
 40
11.0000000595364
  0
CIRCLE
  8
Default
 10
108.616791060499
 20
-480.68026083276
 30
0.0
 40
11.0000000595364
  0
CIRCLE
  8
Default
 10
108.616791060499
 20
-443.68026083276
 30
0.0
 40
11.0000000595364
  0
CIRCLE
  8
Default
 10
108.616791060499
 20
-406.68026083276
 30
0.0
 40
11.0000000595364
  0
CIRCLE
  8
Default
 10
108.616791060499
 20
-369.68026083276
 30
0.0
 40
11.0000000595364
  0
CIRCLE
  8
Default
 10
108.616791060499
 20
-332.68026083276
 30
0.0
 40
11.0000000595364
  0
CIRCLE
  8
Default
 10
108.616791060499
 20
-295.68026083276
 30
0.0
 40
11.0000000595364
  0
CIRCLE
  8
Default
 10
108.616791060499
 20
-258.68026083276
 30
0.0
 40
11.0000000595364
  0
CIRCLE
  8
Default
 10
108.616791060499
 20
-221.68026083276
 30
0.0
 40
11.0000000595364
  0
CIRCLE
  8
Default
 10
108.616791060499
 20
-184.68026083276
 30
0.0
 40
11.0000000595364
  0
CIRCLE
  8
Default
 10
108.616791060499
 20
-147.68026083276
 30
0.0
 40
11.0000000595364
  0
CIRCLE
  8
Default
 10
108.616791060499
 20
-110.68026083276
 30
0.0
 40
11.0000000595364
  0
CIRCLE
  8
Default
 10
108.616791060499
 20
-73.6802608327599
 30
0.0
 40
11.0000000595364
  0
CIRCLE
  8
Default
 10
108.616791060499
 20
-36.6802608327599
 30
0.0
 40
11.0000000595364
  0
CIRCLE
  8
Default
 10
108.616791060499
 20
0.3197391672401
 30
0.0
 40
11.0000000595364
  0
CIRCLE
  8
Default
 10
108.616791060499
 20
37.31973916724
 30
0.0
 40
11.0000000595364
  0
CIRCLE
  8
Default
 10
108.616791060499
 20
74.31973916724
 30
0.0
 40
11.0000000595364
  0
CIRCLE
  8
Default
 10
108.616791060499
 20
111.31973916724
 30
0.0
 40
11.0000000595364
  0
CIRCLE
  8
Default
 10
108.616791060499
 20
148.31973916724
 30
0.0
 40
11.0000000595364
  0
CIRCLE
  8
Default
 10
108.616791060499
 20
185.31973916724
 30
0.0
 40
11.0000000595364
  0
CIRCLE
  8
Default
 10
108.616791060499
 20
222.31973916724
 30
0.0
 40
11.0000000595364
  0
CIRCLE
  8
Default
 10
108.616791060499
 20
259.31973916724
 30
0.0
 40
11.0000000595364
  0
CIRCLE
  8
Default
 10
108.616791060499
 20
296.31973916724
 30
0.0
 40
11.0000000595364
  0
CIRCLE
  8
Default
 10
108.616791060499
 20
333.31973916724
 30
0.0
 40
11.0000000595364
  0
CIRCLE
  8
Default
 10
108.616791060499
 20
370.31973916724
 30
0.0
 40
11.0000000595364
  0
CIRCLE
  8
Default
 10
108.616791060499
 20
407.31973916724
 30
0.0
 40
11.0000000595364
  0
CIRCLE
  8
Default
 10
108.616791060499
 20
444.31973916724
 30
0.0
 40
11.0000000595364
  0
CIRCLE
  8
Default
 10
108.616791060499
 20
481.31973916724
 30
0.0
 40
11.0000000595364
  0
CIRCLE
  8
Default
 10
108.616791060499
 20
518.31973916724
 30
0.0
 40
11.0000000595364
  0
CIRCLE
  8
Default
 10
108.616791060499
 20
555.31973916724
 30
0.0
 40
11.0000000595364
  0
CIRCLE
  8
Default
 10
108.616791060499
 20
592.31973916724
 30
0.0
 40
11.0000000595364
  0
CIRCLE
  8
Default
 10
108.616791060499
 20
629.31973916724
 30
0.0
 40
11.0000000595364
  0
CIRCLE
  8
Default
 10
108.616791060499
 20
666.31973916724
 30
0.0
 40
11.0000000595364
  0
CIRCLE
  8
Default
 10
108.616791060499
 20
703.31973916724
 30
0.0
 40
11.0000000595364
  0
CIRCLE
  8
Default
 10
108.616791060499
 20
740.31973916724
 30
0.0
 40
11.0000000595364
  0
CIRCLE
  8
Default
 10
108.616791060499
 20
777.31973916724
 30
0.0
 40
11.0000000595364
  0
CIRCLE
  8
Default
 10
108.616791060499
 20
814.31973916724
 30
0.0
 40
11.0000000595364
  0
CIRCLE
  8
Default
 10
108.616791060499
 20
851.31973916724
 30
0.0
 40
11.0000000595364
  0
CIRCLE
  8
Default
 10
108.616791060499
 20
888.31973916724
 30
0.0
 40
11.0000000595364
  0
CIRCLE
  8
Default
 10
108.616791060499
 20
925.31973916724
 30
0.0
 40
11.0000000595364
  0
CIRCLE
  8
Default
 10
108.616791060499
 20
962.31973916724
 30
0.0
 40
11.0000000595364
  0
CIRCLE
  8
Default
 10
144.616791060499
 20
-942.68026083276
 30
0.0
 40
11.0000000595364
  0
CIRCLE
  8
Default
 10
144.616791060499
 20
-905.68026083276
 30
0.0
 40
11.0000000595364
  0
CIRCLE
  8
Default
 10
144.616791060499
 20
-868.68026083276
 30
0.0
 40
11.0000000595364
  0
CIRCLE
  8
Default
 10
144.616791060499
 20
-831.68026083276
 30
0.0
 40
11.0000000595364
  0
CIRCLE
  8
Default
 10
144.616791060499
 20
-794.68026083276
 30
0.0
 40
11.0000000595364
  0
CIRCLE
  8
Default
 10
144.616791060499
 20
-757.68026083276
 30
0.0
 40
11.0000000595364
  0
CIRCLE
  8
Default
 10
144.616791060499
 20
-720.68026083276
 30
0.0
 40
11.0000000595364
  0
CIRCLE
  8
Default
 10
144.616791060499
 20
-683.68026083276
 30
0.0
 40
11.0000000595364
  0
CIRCLE
  8
Default
 10
144.616791060499
 20
-646.68026083276
 30
0.0
 40
11.0000000595364
  0
CIRCLE
  8
Default
 10
144.616791060499
 20
-609.68026083276
 30
0.0
 40
11.0000000595364
  0
CIRCLE
  8
Default
 10
144.616791060499
 20
-572.68026083276
 30
0.0
 40
11.0000000595364
  0
CIRCLE
  8
Default
 10
144.616791060499
 20
-535.68026083276
 30
0.0
 40
11.0000000595364
  0
CIRCLE
  8
Default
 10
144.616791060499
 20
-498.68026083276
 30
0.0
 40
11.0000000595364
  0
CIRCLE
  8
Default
 10
144.616791060499
 20
-461.68026083276
 30
0.0
 40
11.0000000595364
  0
CIRCLE
  8
Default
 10
144.616791060499
 20
-424.68026083276
 30
0.0
 40
11.0000000595364
  0
CIRCLE
  8
Default
 10
144.616791060499
 20
-387.68026083276
 30
0.0
 40
11.0000000595364
  0
CIRCLE
  8
Default
 10
144.616791060499
 20
-350.68026083276
 30
0.0
 40
11.0000000595364
  0
CIRCLE
  8
Default
 10
144.616791060499
 20
-313.68026083276
 30
0.0
 40
11.0000000595364
  0
CIRCLE
  8
Default
 10
144.616791060499
 20
-276.68026083276
 30
0.0
 40
11.0000000595364
  0
CIRCLE
  8
Default
 10
144.616791060499
 20
-239.68026083276
 30
0.0
 40
11.0000000595364
  0
CIRCLE
  8
Default
 10
144.616791060499
 20
-202.68026083276
 30
0.0
 40
11.0000000595364
  0
CIRCLE
  8
Default
 10
144.616791060499
 20
-165.68026083276
 30
0.0
 40
11.0000000595364
  0
CIRCLE
  8
Default
 10
144.616791060499
 20
-128.68026083276
 30
0.0
 40
11.0000000595364
  0
CIRCLE
  8
Default
 10
144.616791060499
 20
-91.6802608327599
 30
0.0
 40
11.0000000595364
  0
CIRCLE
  8
Default
 10
144.616791060499
 20
-54.6802608327599
 30
0.0
 40
11.0000000595364
  0
CIRCLE
  8
Default
 10
144.616791060499
 20
-17.6802608327599
 30
0.0
 40
11.0000000595364
  0
CIRCLE
  8
Default
 10
144.616791060499
 20
19.3197391672401
 30
0.0
 40
11.0000000595364
  0
CIRCLE
  8
Default
 10
144.616791060499
 20
56.31973916724
 30
0.0
 40
11.0000000595364
  0
CIRCLE
  8
Default
 10
144.616791060499
 20
93.31973916724
 30
0.0
 40
11.0000000595364
  0
CIRCLE
  8
Default
 10
144.616791060499
 20
130.31973916724
 30
0.0
 40
11.0000000595364
  0
CIRCLE
  8
Default
 10
144.616791060499
 20
167.31973916724
 30
0.0
 40
11.0000000595364
  0
CIRCLE
  8
Default
 10
144.616791060499
 20
204.31973916724
 30
0.0
 40
11.0000000595364
  0
CIRCLE
  8
Default
 10
144.616791060499
 20
241.31973916724
 30
0.0
 40
11.0000000595364
  0
CIRCLE
  8
Default
 10
144.616791060499
 20
278.31973916724
 30
0.0
 40
11.0000000595364
  0
CIRCLE
  8
Default
 10
144.616791060499
 20
315.31973916724
 30
0.0
 40
11.0000000595364
  0
CIRCLE
  8
Default
 10
144.616791060499
 20
352.31973916724
 30
0.0
 40
11.0000000595364
  0
CIRCLE
  8
Default
 10
144.616791060499
 20
389.31973916724
 30
0.0
 40
11.0000000595364
  0
CIRCLE
  8
Default
 10
144.616791060499
 20
426.31973916724
 30
0.0
 40
11.0000000595364
  0
CIRCLE
  8
Default
 10
144.616791060499
 20
463.31973916724
 30
0.0
 40
11.0000000595364
  0
CIRCLE
  8
Default
 10
144.616791060499
 20
500.31973916724
 30
0.0
 40
11.0000000595364
  0
CIRCLE
  8
Default
 10
144.616791060499
 20
537.31973916724
 30
0.0
 40
11.0000000595364
  0
CIRCLE
  8
Default
 10
144.616791060499
 20
574.31973916724
 30
0.0
 40
11.0000000595364
  0
CIRCLE
  8
Default
 10
144.616791060499
 20
611.31973916724
 30
0.0
 40
11.0000000595364
  0
CIRCLE
  8
Default
 10
144.616791060499
 20
648.31973916724
 30
0.0
 40
11.0000000595364
  0
CIRCLE
  8
Default
 10
144.616791060499
 20
685.31973916724
 30
0.0
 40
11.0000000595364
  0
CIRCLE
  8
Default
 10
144.616791060499
 20
722.31973916724
 30
0.0
 40
11.0000000595364
  0
CIRCLE
  8
Default
 10
144.616791060499
 20
759.31973916724
 30
0.0
 40
11.0000000595364
  0
CIRCLE
  8
Default
 10
144.616791060499
 20
796.31973916724
 30
0.0
 40
11.0000000595364
  0
CIRCLE
  8
Default
 10
144.616791060499
 20
833.31973916724
 30
0.0
 40
11.0000000595364
  0
CIRCLE
  8
Default
 10
144.616791060499
 20
870.31973916724
 30
0.0
 40
11.0000000595364
  0
CIRCLE
  8
Default
 10
144.616791060499
 20
907.31973916724
 30
0.0
 40
11.0000000595364
  0
CIRCLE
  8
Default
 10
144.616791060499
 20
944.31973916724
 30
0.0
 40
11.0000000595364
  0
CIRCLE
  8
Default
 10
179.616791060499
 20
-961.68026083276
 30
0.0
 40
11.0000000595364
  0
CIRCLE
  8
Default
 10
179.616791060499
 20
-924.68026083276
 30
0.0
 40
11.0000000595364
  0
CIRCLE
  8
Default
 10
179.616791060499
 20
-887.68026083276
 30
0.0
 40
11.0000000595364
  0
CIRCLE
  8
Default
 10
179.616791060499
 20
-850.68026083276
 30
0.0
 40
11.0000000595364
  0
CIRCLE
  8
Default
 10
179.616791060499
 20
-813.68026083276
 30
0.0
 40
11.0000000595364
  0
CIRCLE
  8
Default
 10
179.616791060499
 20
-776.68026083276
 30
0.0
 40
11.0000000595364
  0
CIRCLE
  8
Default
 10
179.616791060499
 20
-739.68026083276
 30
0.0
 40
11.0000000595364
  0
CIRCLE
  8
Default
 10
179.616791060499
 20
-702.68026083276
 30
0.0
 40
11.0000000595364
  0
CIRCLE
  8
Default
 10
179.616791060499
 20
-665.68026083276
 30
0.0
 40
11.0000000595364
  0
CIRCLE
  8
Default
 10
179.616791060499
 20
-628.68026083276
 30
0.0
 40
11.0000000595364
  0
CIRCLE
  8
Default
 10
179.616791060499
 20
-591.68026083276
 30
0.0
 40
11.0000000595364
  0
CIRCLE
  8
Default
 10
179.616791060499
 20
-554.68026083276
 30
0.0
 40
11.0000000595364
  0
CIRCLE
  8
Default
 10
179.616791060499
 20
-517.68026083276
 30
0.0
 40
11.0000000595364
  0
CIRCLE
  8
Default
 10
179.616791060499
 20
-480.68026083276
 30
0.0
 40
11.0000000595364
  0
CIRCLE
  8
Default
 10
179.616791060499
 20
-443.68026083276
 30
0.0
 40
11.0000000595364
  0
CIRCLE
  8
Default
 10
179.616791060499
 20
-406.68026083276
 30
0.0
 40
11.0000000595364
  0
CIRCLE
  8
Default
 10
179.616791060499
 20
-369.68026083276
 30
0.0
 40
11.0000000595364
  0
CIRCLE
  8
Default
 10
179.616791060499
 20
-332.68026083276
 30
0.0
 40
11.0000000595364
  0
CIRCLE
  8
Default
 10
179.616791060499
 20
-295.68026083276
 30
0.0
 40
11.0000000595364
  0
CIRCLE
  8
Default
 10
179.616791060499
 20
-258.68026083276
 30
0.0
 40
11.0000000595364
  0
CIRCLE
  8
Default
 10
179.616791060499
 20
-221.68026083276
 30
0.0
 40
11.0000000595364
  0
CIRCLE
  8
Default
 10
179.616791060499
 20
-184.68026083276
 30
0.0
 40
11.0000000595364
  0
CIRCLE
  8
Default
 10
179.616791060499
 20
-147.68026083276
 30
0.0
 40
11.0000000595364
  0
CIRCLE
  8
Default
 10
179.616791060499
 20
-110.68026083276
 30
0.0
 40
11.0000000595364
  0
CIRCLE
  8
Default
 10
179.616791060499
 20
-73.6802608327599
 30
0.0
 40
11.0000000595364
  0
CIRCLE
  8
Default
 10
179.616791060499
 20
-36.6802608327599
 30
0.0
 40
11.0000000595364
  0
CIRCLE
  8
Default
 10
179.616791060499
 20
0.3197391672401
 30
0.0
 40
11.0000000595364
  0
CIRCLE
  8
Default
 10
179.616791060499
 20
37.31973916724
 30
0.0
 40
11.0000000595364
  0
CIRCLE
  8
Default
 10
179.616791060499
 20
74.31973916724
 30
0.0
 40
11.0000000595364
  0
CIRCLE
  8
Default
 10
179.616791060499
 20
111.31973916724
 30
0.0
 40
11.0000000595364
  0
CIRCLE
  8
Default
 10
179.616791060499
 20
148.31973916724
 30
0.0
 40
11.0000000595364
  0
CIRCLE
  8
Default
 10
179.616791060499
 20
185.31973916724
 30
0.0
 40
11.0000000595364
  0
CIRCLE
  8
Default
 10
179.616791060499
 20
222.31973916724
 30
0.0
 40
11.0000000595364
  0
CIRCLE
  8
Default
 10
179.616791060499
 20
259.31973916724
 30
0.0
 40
11.0000000595364
  0
CIRCLE
  8
Default
 10
179.616791060499
 20
296.31973916724
 30
0.0
 40
11.0000000595364
  0
CIRCLE
  8
Default
 10
179.616791060499
 20
333.31973916724
 30
0.0
 40
11.0000000595364
  0
CIRCLE
  8
Default
 10
179.616791060499
 20
370.31973916724
 30
0.0
 40
11.0000000595364
  0
CIRCLE
  8
Default
 10
179.616791060499
 20
407.31973916724
 30
0.0
 40
11.0000000595364
  0
CIRCLE
  8
Default
 10
179.616791060499
 20
444.31973916724
 30
0.0
 40
11.0000000595364
  0
CIRCLE
  8
Default
 10
179.616791060499
 20
481.31973916724
 30
0.0
 40
11.0000000595364
  0
CIRCLE
  8
Default
 10
179.616791060499
 20
518.31973916724
 30
0.0
 40
11.0000000595364
  0
CIRCLE
  8
Default
 10
179.616791060499
 20
555.31973916724
 30
0.0
 40
11.0000000595364
  0
CIRCLE
  8
Default
 10
179.616791060499
 20
592.31973916724
 30
0.0
 40
11.0000000595364
  0
CIRCLE
  8
Default
 10
179.616791060499
 20
629.31973916724
 30
0.0
 40
11.0000000595364
  0
CIRCLE
  8
Default
 10
179.616791060499
 20
666.31973916724
 30
0.0
 40
11.0000000595364
  0
CIRCLE
  8
Default
 10
179.616791060499
 20
703.31973916724
 30
0.0
 40
11.0000000595364
  0
CIRCLE
  8
Default
 10
179.616791060499
 20
740.31973916724
 30
0.0
 40
11.0000000595364
  0
CIRCLE
  8
Default
 10
179.616791060499
 20
777.31973916724
 30
0.0
 40
11.0000000595364
  0
CIRCLE
  8
Default
 10
179.616791060499
 20
814.31973916724
 30
0.0
 40
11.0000000595364
  0
CIRCLE
  8
Default
 10
179.616791060499
 20
851.31973916724
 30
0.0
 40
11.0000000595364
  0
CIRCLE
  8
Default
 10
179.616791060499
 20
888.31973916724
 30
0.0
 40
11.0000000595364
  0
CIRCLE
  8
Default
 10
179.616791060499
 20
925.31973916724
 30
0.0
 40
11.0000000595364
  0
CIRCLE
  8
Default
 10
179.616791060499
 20
962.31973916724
 30
0.0
 40
11.0000000595364
  0
CIRCLE
  8
Default
 10
215.616791060499
 20
-942.68026083276
 30
0.0
 40
11.0000000595364
  0
CIRCLE
  8
Default
 10
215.616791060499
 20
-905.68026083276
 30
0.0
 40
11.0000000595364
  0
CIRCLE
  8
Default
 10
215.616791060499
 20
-868.68026083276
 30
0.0
 40
11.0000000595364
  0
CIRCLE
  8
Default
 10
215.616791060499
 20
-831.68026083276
 30
0.0
 40
11.0000000595364
  0
CIRCLE
  8
Default
 10
215.616791060499
 20
-794.68026083276
 30
0.0
 40
11.0000000595364
  0
CIRCLE
  8
Default
 10
215.616791060499
 20
-757.68026083276
 30
0.0
 40
11.0000000595364
  0
CIRCLE
  8
Default
 10
215.616791060499
 20
-720.68026083276
 30
0.0
 40
11.0000000595364
  0
CIRCLE
  8
Default
 10
215.616791060499
 20
-683.68026083276
 30
0.0
 40
11.0000000595364
  0
CIRCLE
  8
Default
 10
215.616791060499
 20
-646.68026083276
 30
0.0
 40
11.0000000595364
  0
CIRCLE
  8
Default
 10
215.616791060499
 20
-609.68026083276
 30
0.0
 40
11.0000000595364
  0
CIRCLE
  8
Default
 10
215.616791060499
 20
-572.68026083276
 30
0.0
 40
11.0000000595364
  0
CIRCLE
  8
Default
 10
215.616791060499
 20
-535.68026083276
 30
0.0
 40
11.0000000595364
  0
CIRCLE
  8
Default
 10
215.616791060499
 20
-498.68026083276
 30
0.0
 40
11.0000000595364
  0
CIRCLE
  8
Default
 10
215.616791060499
 20
-461.68026083276
 30
0.0
 40
11.0000000595364
  0
CIRCLE
  8
Default
 10
215.616791060499
 20
-424.68026083276
 30
0.0
 40
11.0000000595364
  0
CIRCLE
  8
Default
 10
215.616791060499
 20
-387.68026083276
 30
0.0
 40
11.0000000595364
  0
CIRCLE
  8
Default
 10
215.616791060499
 20
-350.68026083276
 30
0.0
 40
11.0000000595364
  0
CIRCLE
  8
Default
 10
215.616791060499
 20
-313.68026083276
 30
0.0
 40
11.0000000595364
  0
CIRCLE
  8
Default
 10
215.616791060499
 20
-276.68026083276
 30
0.0
 40
11.0000000595364
  0
CIRCLE
  8
Default
 10
215.616791060499
 20
-239.68026083276
 30
0.0
 40
11.0000000595364
  0
CIRCLE
  8
Default
 10
215.616791060499
 20
-202.68026083276
 30
0.0
 40
11.0000000595364
  0
CIRCLE
  8
Default
 10
215.616791060499
 20
-165.68026083276
 30
0.0
 40
11.0000000595364
  0
CIRCLE
  8
Default
 10
215.616791060499
 20
-128.68026083276
 30
0.0
 40
11.0000000595364
  0
CIRCLE
  8
Default
 10
215.616791060499
 20
-91.6802608327599
 30
0.0
 40
11.0000000595364
  0
CIRCLE
  8
Default
 10
215.616791060499
 20
-54.6802608327599
 30
0.0
 40
11.0000000595364
  0
CIRCLE
  8
Default
 10
215.616791060499
 20
-17.6802608327599
 30
0.0
 40
11.0000000595364
  0
CIRCLE
  8
Default
 10
215.616791060499
 20
19.3197391672401
 30
0.0
 40
11.0000000595364
  0
CIRCLE
  8
Default
 10
215.616791060499
 20
56.31973916724
 30
0.0
 40
11.0000000595364
  0
CIRCLE
  8
Default
 10
215.616791060499
 20
93.31973916724
 30
0.0
 40
11.0000000595364
  0
CIRCLE
  8
Default
 10
215.616791060499
 20
130.31973916724
 30
0.0
 40
11.0000000595364
  0
CIRCLE
  8
Default
 10
215.616791060499
 20
167.31973916724
 30
0.0
 40
11.0000000595364
  0
CIRCLE
  8
Default
 10
215.616791060499
 20
204.31973916724
 30
0.0
 40
11.0000000595364
  0
CIRCLE
  8
Default
 10
215.616791060499
 20
241.31973916724
 30
0.0
 40
11.0000000595364
  0
CIRCLE
  8
Default
 10
215.616791060499
 20
278.31973916724
 30
0.0
 40
11.0000000595364
  0
CIRCLE
  8
Default
 10
215.616791060499
 20
315.31973916724
 30
0.0
 40
11.0000000595364
  0
CIRCLE
  8
Default
 10
215.616791060499
 20
352.31973916724
 30
0.0
 40
11.0000000595364
  0
CIRCLE
  8
Default
 10
215.616791060499
 20
389.31973916724
 30
0.0
 40
11.0000000595364
  0
CIRCLE
  8
Default
 10
215.616791060499
 20
426.31973916724
 30
0.0
 40
11.0000000595364
  0
CIRCLE
  8
Default
 10
215.616791060499
 20
463.31973916724
 30
0.0
 40
11.0000000595364
  0
CIRCLE
  8
Default
 10
215.616791060499
 20
500.31973916724
 30
0.0
 40
11.0000000595364
  0
CIRCLE
  8
Default
 10
215.616791060499
 20
537.31973916724
 30
0.0
 40
11.0000000595364
  0
CIRCLE
  8
Default
 10
215.616791060499
 20
574.31973916724
 30
0.0
 40
11.0000000595364
  0
CIRCLE
  8
Default
 10
215.616791060499
 20
611.31973916724
 30
0.0
 40
11.0000000595364
  0
CIRCLE
  8
Default
 10
215.616791060499
 20
648.31973916724
 30
0.0
 40
11.0000000595364
  0
CIRCLE
  8
Default
 10
215.616791060499
 20
685.31973916724
 30
0.0
 40
11.0000000595364
  0
CIRCLE
  8
Default
 10
215.616791060499
 20
722.31973916724
 30
0.0
 40
11.0000000595364
  0
CIRCLE
  8
Default
 10
215.616791060499
 20
759.31973916724
 30
0.0
 40
11.0000000595364
  0
CIRCLE
  8
Default
 10
215.616791060499
 20
796.31973916724
 30
0.0
 40
11.0000000595364
  0
CIRCLE
  8
Default
 10
215.616791060499
 20
833.31973916724
 30
0.0
 40
11.0000000595364
  0
CIRCLE
  8
Default
 10
215.616791060499
 20
870.31973916724
 30
0.0
 40
11.0000000595364
  0
CIRCLE
  8
Default
 10
215.616791060499
 20
907.31973916724
 30
0.0
 40
11.0000000595364
  0
CIRCLE
  8
Default
 10
215.616791060499
 20
944.31973916724
 30
0.0
 40
11.0000000595364
  0
CIRCLE
  8
Default
 10
251.616791060499
 20
-961.68026083276
 30
0.0
 40
11.0000000595364
  0
CIRCLE
  8
Default
 10
251.616791060499
 20
-924.68026083276
 30
0.0
 40
11.0000000595364
  0
CIRCLE
  8
Default
 10
251.616791060499
 20
-887.68026083276
 30
0.0
 40
11.0000000595364
  0
CIRCLE
  8
Default
 10
251.616791060499
 20
-850.68026083276
 30
0.0
 40
11.0000000595364
  0
CIRCLE
  8
Default
 10
251.616791060499
 20
-813.68026083276
 30
0.0
 40
11.0000000595364
  0
CIRCLE
  8
Default
 10
251.616791060499
 20
-776.68026083276
 30
0.0
 40
11.0000000595364
  0
CIRCLE
  8
Default
 10
251.616791060499
 20
-739.68026083276
 30
0.0
 40
11.0000000595364
  0
CIRCLE
  8
Default
 10
251.616791060499
 20
-702.68026083276
 30
0.0
 40
11.0000000595364
  0
CIRCLE
  8
Default
 10
251.616791060499
 20
-665.68026083276
 30
0.0
 40
11.0000000595364
  0
CIRCLE
  8
Default
 10
251.616791060499
 20
-628.68026083276
 30
0.0
 40
11.0000000595364
  0
CIRCLE
  8
Default
 10
251.616791060499
 20
-591.68026083276
 30
0.0
 40
11.0000000595364
  0
CIRCLE
  8
Default
 10
251.616791060499
 20
-554.68026083276
 30
0.0
 40
11.0000000595364
  0
CIRCLE
  8
Default
 10
251.616791060499
 20
-517.68026083276
 30
0.0
 40
11.0000000595364
  0
CIRCLE
  8
Default
 10
251.616791060499
 20
-480.68026083276
 30
0.0
 40
11.0000000595364
  0
CIRCLE
  8
Default
 10
251.616791060499
 20
-443.68026083276
 30
0.0
 40
11.0000000595364
  0
CIRCLE
  8
Default
 10
251.616791060499
 20
-406.68026083276
 30
0.0
 40
11.0000000595364
  0
CIRCLE
  8
Default
 10
251.616791060499
 20
-369.68026083276
 30
0.0
 40
11.0000000595364
  0
CIRCLE
  8
Default
 10
251.616791060499
 20
-332.68026083276
 30
0.0
 40
11.0000000595364
  0
CIRCLE
  8
Default
 10
251.616791060499
 20
-295.68026083276
 30
0.0
 40
11.0000000595364
  0
CIRCLE
  8
Default
 10
251.616791060499
 20
-258.68026083276
 30
0.0
 40
11.0000000595364
  0
CIRCLE
  8
Default
 10
251.616791060499
 20
-221.68026083276
 30
0.0
 40
11.0000000595364
  0
CIRCLE
  8
Default
 10
251.616791060499
 20
-184.68026083276
 30
0.0
 40
11.0000000595364
  0
CIRCLE
  8
Default
 10
251.616791060499
 20
-147.68026083276
 30
0.0
 40
11.0000000595364
  0
CIRCLE
  8
Default
 10
251.616791060499
 20
-110.68026083276
 30
0.0
 40
11.0000000595364
  0
CIRCLE
  8
Default
 10
251.616791060499
 20
-73.6802608327599
 30
0.0
 40
11.0000000595364
  0
CIRCLE
  8
Default
 10
251.616791060499
 20
-36.6802608327599
 30
0.0
 40
11.0000000595364
  0
CIRCLE
  8
Default
 10
251.616791060499
 20
0.3197391672401
 30
0.0
 40
11.0000000595364
  0
CIRCLE
  8
Default
 10
251.616791060499
 20
37.31973916724
 30
0.0
 40
11.0000000595364
  0
CIRCLE
  8
Default
 10
251.616791060499
 20
74.31973916724
 30
0.0
 40
11.0000000595364
  0
CIRCLE
  8
Default
 10
251.616791060499
 20
111.31973916724
 30
0.0
 40
11.0000000595364
  0
CIRCLE
  8
Default
 10
251.616791060499
 20
148.31973916724
 30
0.0
 40
11.0000000595364
  0
CIRCLE
  8
Default
 10
251.616791060499
 20
185.31973916724
 30
0.0
 40
11.0000000595364
  0
CIRCLE
  8
Default
 10
251.616791060499
 20
222.31973916724
 30
0.0
 40
11.0000000595364
  0
CIRCLE
  8
Default
 10
251.616791060499
 20
259.31973916724
 30
0.0
 40
11.0000000595364
  0
CIRCLE
  8
Default
 10
251.616791060499
 20
296.31973916724
 30
0.0
 40
11.0000000595364
  0
CIRCLE
  8
Default
 10
251.616791060499
 20
333.31973916724
 30
0.0
 40
11.0000000595364
  0
CIRCLE
  8
Default
 10
251.616791060499
 20
370.31973916724
 30
0.0
 40
11.0000000595364
  0
CIRCLE
  8
Default
 10
251.616791060499
 20
407.31973916724
 30
0.0
 40
11.0000000595364
  0
CIRCLE
  8
Default
 10
251.616791060499
 20
444.31973916724
 30
0.0
 40
11.0000000595364
  0
CIRCLE
  8
Default
 10
251.616791060499
 20
481.31973916724
 30
0.0
 40
11.0000000595364
  0
CIRCLE
  8
Default
 10
251.616791060499
 20
518.31973916724
 30
0.0
 40
11.0000000595364
  0
CIRCLE
  8
Default
 10
251.616791060499
 20
555.31973916724
 30
0.0
 40
11.0000000595364
  0
CIRCLE
  8
Default
 10
251.616791060499
 20
592.31973916724
 30
0.0
 40
11.0000000595364
  0
CIRCLE
  8
Default
 10
251.616791060499
 20
629.31973916724
 30
0.0
 40
11.0000000595364
  0
CIRCLE
  8
Default
 10
251.616791060499
 20
666.31973916724
 30
0.0
 40
11.0000000595364
  0
CIRCLE
  8
Default
 10
251.616791060499
 20
703.31973916724
 30
0.0
 40
11.0000000595364
  0
CIRCLE
  8
Default
 10
251.616791060499
 20
740.31973916724
 30
0.0
 40
11.0000000595364
  0
CIRCLE
  8
Default
 10
251.616791060499
 20
777.31973916724
 30
0.0
 40
11.0000000595364
  0
CIRCLE
  8
Default
 10
251.616791060499
 20
814.31973916724
 30
0.0
 40
11.0000000595364
  0
CIRCLE
  8
Default
 10
251.616791060499
 20
851.31973916724
 30
0.0
 40
11.0000000595364
  0
CIRCLE
  8
Default
 10
251.616791060499
 20
888.31973916724
 30
0.0
 40
11.0000000595364
  0
CIRCLE
  8
Default
 10
251.616791060499
 20
925.31973916724
 30
0.0
 40
11.0000000595364
  0
CIRCLE
  8
Default
 10
251.616791060499
 20
962.31973916724
 30
0.0
 40
11.0000000595364
  0
CIRCLE
  8
Default
 10
287.616791060499
 20
-942.68026083276
 30
0.0
 40
11.0000000595364
  0
CIRCLE
  8
Default
 10
287.616791060499
 20
-905.68026083276
 30
0.0
 40
11.0000000595364
  0
CIRCLE
  8
Default
 10
287.616791060499
 20
-868.68026083276
 30
0.0
 40
11.0000000595364
  0
CIRCLE
  8
Default
 10
287.616791060499
 20
-831.68026083276
 30
0.0
 40
11.0000000595364
  0
CIRCLE
  8
Default
 10
287.616791060499
 20
-794.68026083276
 30
0.0
 40
11.0000000595364
  0
CIRCLE
  8
Default
 10
287.616791060499
 20
-757.68026083276
 30
0.0
 40
11.0000000595364
  0
CIRCLE
  8
Default
 10
287.616791060499
 20
-720.68026083276
 30
0.0
 40
11.0000000595364
  0
CIRCLE
  8
Default
 10
287.616791060499
 20
-683.68026083276
 30
0.0
 40
11.0000000595364
  0
CIRCLE
  8
Default
 10
287.616791060499
 20
-646.68026083276
 30
0.0
 40
11.0000000595364
  0
CIRCLE
  8
Default
 10
287.616791060499
 20
-609.68026083276
 30
0.0
 40
11.0000000595364
  0
CIRCLE
  8
Default
 10
287.616791060499
 20
-572.68026083276
 30
0.0
 40
11.0000000595364
  0
CIRCLE
  8
Default
 10
287.616791060499
 20
-535.68026083276
 30
0.0
 40
11.0000000595364
  0
CIRCLE
  8
Default
 10
287.616791060499
 20
-498.68026083276
 30
0.0
 40
11.0000000595364
  0
CIRCLE
  8
Default
 10
287.616791060499
 20
-461.68026083276
 30
0.0
 40
11.0000000595364
  0
CIRCLE
  8
Default
 10
287.616791060499
 20
-424.68026083276
 30
0.0
 40
11.0000000595364
  0
CIRCLE
  8
Default
 10
287.616791060499
 20
-387.68026083276
 30
0.0
 40
11.0000000595364
  0
CIRCLE
  8
Default
 10
287.616791060499
 20
-350.68026083276
 30
0.0
 40
11.0000000595364
  0
CIRCLE
  8
Default
 10
287.616791060499
 20
-313.68026083276
 30
0.0
 40
11.0000000595364
  0
CIRCLE
  8
Default
 10
287.616791060499
 20
-276.68026083276
 30
0.0
 40
11.0000000595364
  0
CIRCLE
  8
Default
 10
287.616791060499
 20
-239.68026083276
 30
0.0
 40
11.0000000595364
  0
CIRCLE
  8
Default
 10
287.616791060499
 20
-202.68026083276
 30
0.0
 40
11.0000000595364
  0
CIRCLE
  8
Default
 10
287.616791060499
 20
-165.68026083276
 30
0.0
 40
11.0000000595364
  0
CIRCLE
  8
Default
 10
287.616791060499
 20
-128.68026083276
 30
0.0
 40
11.0000000595364
  0
CIRCLE
  8
Default
 10
287.616791060499
 20
-91.6802608327599
 30
0.0
 40
11.0000000595364
  0
CIRCLE
  8
Default
 10
287.616791060499
 20
-54.6802608327599
 30
0.0
 40
11.0000000595364
  0
CIRCLE
  8
Default
 10
287.616791060499
 20
-17.6802608327599
 30
0.0
 40
11.0000000595364
  0
CIRCLE
  8
Default
 10
287.616791060499
 20
19.3197391672401
 30
0.0
 40
11.0000000595364
  0
CIRCLE
  8
Default
 10
287.616791060499
 20
56.31973916724
 30
0.0
 40
11.0000000595364
  0
CIRCLE
  8
Default
 10
287.616791060499
 20
93.31973916724
 30
0.0
 40
11.0000000595364
  0
CIRCLE
  8
Default
 10
287.616791060499
 20
130.31973916724
 30
0.0
 40
11.0000000595364
  0
CIRCLE
  8
Default
 10
287.616791060499
 20
167.31973916724
 30
0.0
 40
11.0000000595364
  0
CIRCLE
  8
Default
 10
287.616791060499
 20
204.31973916724
 30
0.0
 40
11.0000000595364
  0
CIRCLE
  8
Default
 10
287.616791060499
 20
241.31973916724
 30
0.0
 40
11.0000000595364
  0
CIRCLE
  8
Default
 10
287.616791060499
 20
278.31973916724
 30
0.0
 40
11.0000000595364
  0
CIRCLE
  8
Default
 10
287.616791060499
 20
315.31973916724
 30
0.0
 40
11.0000000595364
  0
CIRCLE
  8
Default
 10
287.616791060499
 20
352.31973916724
 30
0.0
 40
11.0000000595364
  0
CIRCLE
  8
Default
 10
287.616791060499
 20
389.31973916724
 30
0.0
 40
11.0000000595364
  0
CIRCLE
  8
Default
 10
287.616791060499
 20
426.31973916724
 30
0.0
 40
11.0000000595364
  0
CIRCLE
  8
Default
 10
287.616791060499
 20
463.31973916724
 30
0.0
 40
11.0000000595364
  0
CIRCLE
  8
Default
 10
287.616791060499
 20
500.31973916724
 30
0.0
 40
11.0000000595364
  0
CIRCLE
  8
Default
 10
287.616791060499
 20
537.31973916724
 30
0.0
 40
11.0000000595364
  0
CIRCLE
  8
Default
 10
287.616791060499
 20
574.31973916724
 30
0.0
 40
11.0000000595364
  0
CIRCLE
  8
Default
 10
287.616791060499
 20
611.31973916724
 30
0.0
 40
11.0000000595364
  0
CIRCLE
  8
Default
 10
287.616791060499
 20
648.31973916724
 30
0.0
 40
11.0000000595364
  0
CIRCLE
  8
Default
 10
287.616791060499
 20
685.31973916724
 30
0.0
 40
11.0000000595364
  0
CIRCLE
  8
Default
 10
287.616791060499
 20
722.31973916724
 30
0.0
 40
11.0000000595364
  0
CIRCLE
  8
Default
 10
287.616791060499
 20
759.31973916724
 30
0.0
 40
11.0000000595364
  0
CIRCLE
  8
Default
 10
287.616791060499
 20
796.31973916724
 30
0.0
 40
11.0000000595364
  0
CIRCLE
  8
Default
 10
287.616791060499
 20
833.31973916724
 30
0.0
 40
11.0000000595364
  0
CIRCLE
  8
Default
 10
287.616791060499
 20
870.31973916724
 30
0.0
 40
11.0000000595364
  0
CIRCLE
  8
Default
 10
287.616791060499
 20
907.31973916724
 30
0.0
 40
11.0000000595364
  0
CIRCLE
  8
Default
 10
287.616791060499
 20
944.31973916724
 30
0.0
 40
11.0000000595364
  0
CIRCLE
  8
Default
 10
322.616791060499
 20
-961.68026083276
 30
0.0
 40
11.0000000595364
  0
CIRCLE
  8
Default
 10
322.616791060499
 20
-924.68026083276
 30
0.0
 40
11.0000000595364
  0
CIRCLE
  8
Default
 10
322.616791060499
 20
-887.68026083276
 30
0.0
 40
11.0000000595364
  0
CIRCLE
  8
Default
 10
322.616791060499
 20
-850.68026083276
 30
0.0
 40
11.0000000595364
  0
CIRCLE
  8
Default
 10
322.616791060499
 20
-813.68026083276
 30
0.0
 40
11.0000000595364
  0
CIRCLE
  8
Default
 10
322.616791060499
 20
-776.68026083276
 30
0.0
 40
11.0000000595364
  0
CIRCLE
  8
Default
 10
322.616791060499
 20
-739.68026083276
 30
0.0
 40
11.0000000595364
  0
CIRCLE
  8
Default
 10
322.616791060499
 20
-702.68026083276
 30
0.0
 40
11.0000000595364
  0
CIRCLE
  8
Default
 10
322.616791060499
 20
-665.68026083276
 30
0.0
 40
11.0000000595364
  0
CIRCLE
  8
Default
 10
322.616791060499
 20
-628.68026083276
 30
0.0
 40
11.0000000595364
  0
CIRCLE
  8
Default
 10
322.616791060499
 20
-591.68026083276
 30
0.0
 40
11.0000000595364
  0
CIRCLE
  8
Default
 10
322.616791060499
 20
-554.68026083276
 30
0.0
 40
11.0000000595364
  0
CIRCLE
  8
Default
 10
322.616791060499
 20
-517.68026083276
 30
0.0
 40
11.0000000595364
  0
CIRCLE
  8
Default
 10
322.616791060499
 20
-480.68026083276
 30
0.0
 40
11.0000000595364
  0
CIRCLE
  8
Default
 10
322.616791060499
 20
-443.68026083276
 30
0.0
 40
11.0000000595364
  0
CIRCLE
  8
Default
 10
322.616791060499
 20
-406.68026083276
 30
0.0
 40
11.0000000595364
  0
CIRCLE
  8
Default
 10
322.616791060499
 20
-369.68026083276
 30
0.0
 40
11.0000000595364
  0
CIRCLE
  8
Default
 10
322.616791060499
 20
-332.68026083276
 30
0.0
 40
11.0000000595364
  0
CIRCLE
  8
Default
 10
322.616791060499
 20
-295.68026083276
 30
0.0
 40
11.0000000595364
  0
CIRCLE
  8
Default
 10
322.616791060499
 20
-258.68026083276
 30
0.0
 40
11.0000000595364
  0
CIRCLE
  8
Default
 10
322.616791060499
 20
-221.68026083276
 30
0.0
 40
11.0000000595364
  0
CIRCLE
  8
Default
 10
322.616791060499
 20
-184.68026083276
 30
0.0
 40
11.0000000595364
  0
CIRCLE
  8
Default
 10
322.616791060499
 20
-147.68026083276
 30
0.0
 40
11.0000000595364
  0
CIRCLE
  8
Default
 10
322.616791060499
 20
-110.68026083276
 30
0.0
 40
11.0000000595364
  0
CIRCLE
  8
Default
 10
322.616791060499
 20
-73.6802608327599
 30
0.0
 40
11.0000000595364
  0
CIRCLE
  8
Default
 10
322.616791060499
 20
-36.6802608327599
 30
0.0
 40
11.0000000595364
  0
CIRCLE
  8
Default
 10
322.616791060499
 20
0.3197391672401
 30
0.0
 40
11.0000000595364
  0
CIRCLE
  8
Default
 10
322.616791060499
 20
37.31973916724
 30
0.0
 40
11.0000000595364
  0
CIRCLE
  8
Default
 10
322.616791060499
 20
74.31973916724
 30
0.0
 40
11.0000000595364
  0
CIRCLE
  8
Default
 10
322.616791060499
 20
111.31973916724
 30
0.0
 40
11.0000000595364
  0
CIRCLE
  8
Default
 10
322.616791060499
 20
148.31973916724
 30
0.0
 40
11.0000000595364
  0
CIRCLE
  8
Default
 10
322.616791060499
 20
185.31973916724
 30
0.0
 40
11.0000000595364
  0
CIRCLE
  8
Default
 10
322.616791060499
 20
222.31973916724
 30
0.0
 40
11.0000000595364
  0
CIRCLE
  8
Default
 10
322.616791060499
 20
259.31973916724
 30
0.0
 40
11.0000000595364
  0
CIRCLE
  8
Default
 10
322.616791060499
 20
296.31973916724
 30
0.0
 40
11.0000000595364
  0
CIRCLE
  8
Default
 10
322.616791060499
 20
333.31973916724
 30
0.0
 40
11.0000000595364
  0
CIRCLE
  8
Default
 10
322.616791060499
 20
370.31973916724
 30
0.0
 40
11.0000000595364
  0
CIRCLE
  8
Default
 10
322.616791060499
 20
407.31973916724
 30
0.0
 40
11.0000000595364
  0
CIRCLE
  8
Default
 10
322.616791060499
 20
444.31973916724
 30
0.0
 40
11.0000000595364
  0
CIRCLE
  8
Default
 10
322.616791060499
 20
481.31973916724
 30
0.0
 40
11.0000000595364
  0
CIRCLE
  8
Default
 10
322.616791060499
 20
518.31973916724
 30
0.0
 40
11.0000000595364
  0
CIRCLE
  8
Default
 10
322.616791060499
 20
555.31973916724
 30
0.0
 40
11.0000000595364
  0
CIRCLE
  8
Default
 10
322.616791060499
 20
592.31973916724
 30
0.0
 40
11.0000000595364
  0
CIRCLE
  8
Default
 10
322.616791060499
 20
629.31973916724
 30
0.0
 40
11.0000000595364
  0
CIRCLE
  8
Default
 10
322.616791060499
 20
666.31973916724
 30
0.0
 40
11.0000000595364
  0
CIRCLE
  8
Default
 10
322.616791060499
 20
703.31973916724
 30
0.0
 40
11.0000000595364
  0
CIRCLE
  8
Default
 10
322.616791060499
 20
740.31973916724
 30
0.0
 40
11.0000000595364
  0
CIRCLE
  8
Default
 10
322.616791060499
 20
777.31973916724
 30
0.0
 40
11.0000000595364
  0
CIRCLE
  8
Default
 10
322.616791060499
 20
814.31973916724
 30
0.0
 40
11.0000000595364
  0
CIRCLE
  8
Default
 10
322.616791060499
 20
851.31973916724
 30
0.0
 40
11.0000000595364
  0
CIRCLE
  8
Default
 10
322.616791060499
 20
888.31973916724
 30
0.0
 40
11.0000000595364
  0
CIRCLE
  8
Default
 10
322.616791060499
 20
925.31973916724
 30
0.0
 40
11.0000000595364
  0
CIRCLE
  8
Default
 10
322.616791060499
 20
962.31973916724
 30
0.0
 40
11.0000000595364
  0
CIRCLE
  8
Default
 10
358.616791060499
 20
-942.68026083276
 30
0.0
 40
11.0000000595364
  0
CIRCLE
  8
Default
 10
358.616791060499
 20
-905.68026083276
 30
0.0
 40
11.0000000595364
  0
CIRCLE
  8
Default
 10
358.616791060499
 20
-868.68026083276
 30
0.0
 40
11.0000000595364
  0
CIRCLE
  8
Default
 10
358.616791060499
 20
-831.68026083276
 30
0.0
 40
11.0000000595364
  0
CIRCLE
  8
Default
 10
358.616791060499
 20
-794.68026083276
 30
0.0
 40
11.0000000595364
  0
CIRCLE
  8
Default
 10
358.616791060499
 20
-757.68026083276
 30
0.0
 40
11.0000000595364
  0
CIRCLE
  8
Default
 10
358.616791060499
 20
-720.68026083276
 30
0.0
 40
11.0000000595364
  0
CIRCLE
  8
Default
 10
358.616791060499
 20
-683.68026083276
 30
0.0
 40
11.0000000595364
  0
CIRCLE
  8
Default
 10
358.616791060499
 20
-646.68026083276
 30
0.0
 40
11.0000000595364
  0
CIRCLE
  8
Default
 10
358.616791060499
 20
-609.68026083276
 30
0.0
 40
11.0000000595364
  0
CIRCLE
  8
Default
 10
358.616791060499
 20
-572.68026083276
 30
0.0
 40
11.0000000595364
  0
CIRCLE
  8
Default
 10
358.616791060499
 20
-535.68026083276
 30
0.0
 40
11.0000000595364
  0
CIRCLE
  8
Default
 10
358.616791060499
 20
-498.68026083276
 30
0.0
 40
11.0000000595364
  0
CIRCLE
  8
Default
 10
358.616791060499
 20
-461.68026083276
 30
0.0
 40
11.0000000595364
  0
CIRCLE
  8
Default
 10
358.616791060499
 20
-424.68026083276
 30
0.0
 40
11.0000000595364
  0
CIRCLE
  8
Default
 10
358.616791060499
 20
-387.68026083276
 30
0.0
 40
11.0000000595364
  0
CIRCLE
  8
Default
 10
358.616791060499
 20
-350.68026083276
 30
0.0
 40
11.0000000595364
  0
CIRCLE
  8
Default
 10
358.616791060499
 20
-313.68026083276
 30
0.0
 40
11.0000000595364
  0
CIRCLE
  8
Default
 10
358.616791060499
 20
-276.68026083276
 30
0.0
 40
11.0000000595364
  0
CIRCLE
  8
Default
 10
358.616791060499
 20
-239.68026083276
 30
0.0
 40
11.0000000595364
  0
CIRCLE
  8
Default
 10
358.616791060499
 20
-202.68026083276
 30
0.0
 40
11.0000000595364
  0
CIRCLE
  8
Default
 10
358.616791060499
 20
-165.68026083276
 30
0.0
 40
11.0000000595364
  0
CIRCLE
  8
Default
 10
358.616791060499
 20
-128.68026083276
 30
0.0
 40
11.0000000595364
  0
CIRCLE
  8
Default
 10
358.616791060499
 20
-91.6802608327599
 30
0.0
 40
11.0000000595364
  0
CIRCLE
  8
Default
 10
358.616791060499
 20
-54.6802608327599
 30
0.0
 40
11.0000000595364
  0
CIRCLE
  8
Default
 10
358.616791060499
 20
-17.6802608327599
 30
0.0
 40
11.0000000595364
  0
CIRCLE
  8
Default
 10
358.616791060499
 20
19.3197391672401
 30
0.0
 40
11.0000000595364
  0
CIRCLE
  8
Default
 10
358.616791060499
 20
56.31973916724
 30
0.0
 40
11.0000000595364
  0
CIRCLE
  8
Default
 10
358.616791060499
 20
93.31973916724
 30
0.0
 40
11.0000000595364
  0
CIRCLE
  8
Default
 10
358.616791060499
 20
130.31973916724
 30
0.0
 40
11.0000000595364
  0
CIRCLE
  8
Default
 10
358.616791060499
 20
167.31973916724
 30
0.0
 40
11.0000000595364
  0
CIRCLE
  8
Default
 10
358.616791060499
 20
204.31973916724
 30
0.0
 40
11.0000000595364
  0
CIRCLE
  8
Default
 10
358.616791060499
 20
241.31973916724
 30
0.0
 40
11.0000000595364
  0
CIRCLE
  8
Default
 10
358.616791060499
 20
278.31973916724
 30
0.0
 40
11.0000000595364
  0
CIRCLE
  8
Default
 10
358.616791060499
 20
315.31973916724
 30
0.0
 40
11.0000000595364
  0
CIRCLE
  8
Default
 10
358.616791060499
 20
352.31973916724
 30
0.0
 40
11.0000000595364
  0
CIRCLE
  8
Default
 10
358.616791060499
 20
389.31973916724
 30
0.0
 40
11.0000000595364
  0
CIRCLE
  8
Default
 10
358.616791060499
 20
426.31973916724
 30
0.0
 40
11.0000000595364
  0
CIRCLE
  8
Default
 10
358.616791060499
 20
463.31973916724
 30
0.0
 40
11.0000000595364
  0
CIRCLE
  8
Default
 10
358.616791060499
 20
500.31973916724
 30
0.0
 40
11.0000000595364
  0
CIRCLE
  8
Default
 10
358.616791060499
 20
537.31973916724
 30
0.0
 40
11.0000000595364
  0
CIRCLE
  8
Default
 10
358.616791060499
 20
574.31973916724
 30
0.0
 40
11.0000000595364
  0
CIRCLE
  8
Default
 10
358.616791060499
 20
611.31973916724
 30
0.0
 40
11.0000000595364
  0
CIRCLE
  8
Default
 10
358.616791060499
 20
648.31973916724
 30
0.0
 40
11.0000000595364
  0
CIRCLE
  8
Default
 10
358.616791060499
 20
685.31973916724
 30
0.0
 40
11.0000000595364
  0
CIRCLE
  8
Default
 10
358.616791060499
 20
722.31973916724
 30
0.0
 40
11.0000000595364
  0
CIRCLE
  8
Default
 10
358.616791060499
 20
759.31973916724
 30
0.0
 40
11.0000000595364
  0
CIRCLE
  8
Default
 10
358.616791060499
 20
796.31973916724
 30
0.0
 40
11.0000000595364
  0
CIRCLE
  8
Default
 10
358.616791060499
 20
833.31973916724
 30
0.0
 40
11.0000000595364
  0
CIRCLE
  8
Default
 10
358.616791060499
 20
870.31973916724
 30
0.0
 40
11.0000000595364
  0
CIRCLE
  8
Default
 10
358.616791060499
 20
907.31973916724
 30
0.0
 40
11.0000000595364
  0
CIRCLE
  8
Default
 10
358.616791060499
 20
944.31973916724
 30
0.0
 40
11.0000000595364
  0
CIRCLE
  8
Default
 10
391.616791060499
 20
-961.68026083276
 30
0.0
 40
11.0000000595364
  0
CIRCLE
  8
Default
 10
391.616791060499
 20
-924.68026083276
 30
0.0
 40
11.0000000595364
  0
CIRCLE
  8
Default
 10
391.616791060499
 20
-887.68026083276
 30
0.0
 40
11.0000000595364
  0
CIRCLE
  8
Default
 10
391.616791060499
 20
-850.68026083276
 30
0.0
 40
11.0000000595364
  0
CIRCLE
  8
Default
 10
391.616791060499
 20
-813.68026083276
 30
0.0
 40
11.0000000595364
  0
CIRCLE
  8
Default
 10
391.616791060499
 20
-776.68026083276
 30
0.0
 40
11.0000000595364
  0
CIRCLE
  8
Default
 10
391.616791060499
 20
-739.68026083276
 30
0.0
 40
11.0000000595364
  0
CIRCLE
  8
Default
 10
391.616791060499
 20
-702.68026083276
 30
0.0
 40
11.0000000595364
  0
CIRCLE
  8
Default
 10
391.616791060499
 20
-665.68026083276
 30
0.0
 40
11.0000000595364
  0
CIRCLE
  8
Default
 10
391.616791060499
 20
-628.68026083276
 30
0.0
 40
11.0000000595364
  0
CIRCLE
  8
Default
 10
391.616791060499
 20
-591.68026083276
 30
0.0
 40
11.0000000595364
  0
CIRCLE
  8
Default
 10
391.616791060499
 20
-554.68026083276
 30
0.0
 40
11.0000000595364
  0
CIRCLE
  8
Default
 10
391.616791060499
 20
-517.68026083276
 30
0.0
 40
11.0000000595364
  0
CIRCLE
  8
Default
 10
391.616791060499
 20
-480.68026083276
 30
0.0
 40
11.0000000595364
  0
CIRCLE
  8
Default
 10
391.616791060499
 20
-443.68026083276
 30
0.0
 40
11.0000000595364
  0
CIRCLE
  8
Default
 10
391.616791060499
 20
-406.68026083276
 30
0.0
 40
11.0000000595364
  0
CIRCLE
  8
Default
 10
391.616791060499
 20
-369.68026083276
 30
0.0
 40
11.0000000595364
  0
CIRCLE
  8
Default
 10
391.616791060499
 20
-332.68026083276
 30
0.0
 40
11.0000000595364
  0
CIRCLE
  8
Default
 10
391.616791060499
 20
-295.68026083276
 30
0.0
 40
11.0000000595364
  0
CIRCLE
  8
Default
 10
391.616791060499
 20
-258.68026083276
 30
0.0
 40
11.0000000595364
  0
CIRCLE
  8
Default
 10
391.616791060499
 20
-221.68026083276
 30
0.0
 40
11.0000000595364
  0
CIRCLE
  8
Default
 10
391.616791060499
 20
-184.68026083276
 30
0.0
 40
11.0000000595364
  0
CIRCLE
  8
Default
 10
391.616791060499
 20
-147.68026083276
 30
0.0
 40
11.0000000595364
  0
CIRCLE
  8
Default
 10
391.616791060499
 20
-110.68026083276
 30
0.0
 40
11.0000000595364
  0
CIRCLE
  8
Default
 10
391.616791060499
 20
-73.6802608327599
 30
0.0
 40
11.0000000595364
  0
CIRCLE
  8
Default
 10
391.616791060499
 20
-36.6802608327599
 30
0.0
 40
11.0000000595364
  0
CIRCLE
  8
Default
 10
391.616791060499
 20
0.3197391672401
 30
0.0
 40
11.0000000595364
  0
CIRCLE
  8
Default
 10
391.616791060499
 20
37.31973916724
 30
0.0
 40
11.0000000595364
  0
CIRCLE
  8
Default
 10
391.616791060499
 20
74.31973916724
 30
0.0
 40
11.0000000595364
  0
CIRCLE
  8
Default
 10
391.616791060499
 20
111.31973916724
 30
0.0
 40
11.0000000595364
  0
CIRCLE
  8
Default
 10
391.616791060499
 20
148.31973916724
 30
0.0
 40
11.0000000595364
  0
CIRCLE
  8
Default
 10
391.616791060499
 20
185.31973916724
 30
0.0
 40
11.0000000595364
  0
CIRCLE
  8
Default
 10
391.616791060499
 20
222.31973916724
 30
0.0
 40
11.0000000595364
  0
CIRCLE
  8
Default
 10
391.616791060499
 20
259.31973916724
 30
0.0
 40
11.0000000595364
  0
CIRCLE
  8
Default
 10
391.616791060499
 20
296.31973916724
 30
0.0
 40
11.0000000595364
  0
CIRCLE
  8
Default
 10
391.616791060499
 20
333.31973916724
 30
0.0
 40
11.0000000595364
  0
CIRCLE
  8
Default
 10
391.616791060499
 20
370.31973916724
 30
0.0
 40
11.0000000595364
  0
CIRCLE
  8
Default
 10
391.616791060499
 20
407.31973916724
 30
0.0
 40
11.0000000595364
  0
CIRCLE
  8
Default
 10
391.616791060499
 20
444.31973916724
 30
0.0
 40
11.0000000595364
  0
CIRCLE
  8
Default
 10
391.616791060499
 20
481.31973916724
 30
0.0
 40
11.0000000595364
  0
CIRCLE
  8
Default
 10
391.616791060499
 20
518.31973916724
 30
0.0
 40
11.0000000595364
  0
CIRCLE
  8
Default
 10
391.616791060499
 20
555.31973916724
 30
0.0
 40
11.0000000595364
  0
CIRCLE
  8
Default
 10
391.616791060499
 20
592.31973916724
 30
0.0
 40
11.0000000595364
  0
CIRCLE
  8
Default
 10
391.616791060499
 20
629.31973916724
 30
0.0
 40
11.0000000595364
  0
CIRCLE
  8
Default
 10
391.616791060499
 20
666.31973916724
 30
0.0
 40
11.0000000595364
  0
CIRCLE
  8
Default
 10
391.616791060499
 20
703.31973916724
 30
0.0
 40
11.0000000595364
  0
CIRCLE
  8
Default
 10
391.616791060499
 20
740.31973916724
 30
0.0
 40
11.0000000595364
  0
CIRCLE
  8
Default
 10
391.616791060499
 20
777.31973916724
 30
0.0
 40
11.0000000595364
  0
CIRCLE
  8
Default
 10
391.616791060499
 20
814.31973916724
 30
0.0
 40
11.0000000595364
  0
CIRCLE
  8
Default
 10
391.616791060499
 20
851.31973916724
 30
0.0
 40
11.0000000595364
  0
CIRCLE
  8
Default
 10
391.616791060499
 20
888.31973916724
 30
0.0
 40
11.0000000595364
  0
CIRCLE
  8
Default
 10
391.616791060499
 20
925.31973916724
 30
0.0
 40
11.0000000595364
  0
CIRCLE
  8
Default
 10
391.616791060499
 20
962.31973916724
 30
0.0
 40
11.0000000595364
  0
CIRCLE
  8
Default
 10
427.616791060499
 20
-942.68026083276
 30
0.0
 40
11.0000000595364
  0
CIRCLE
  8
Default
 10
427.616791060499
 20
-905.68026083276
 30
0.0
 40
11.0000000595364
  0
CIRCLE
  8
Default
 10
427.616791060499
 20
-868.68026083276
 30
0.0
 40
11.0000000595364
  0
CIRCLE
  8
Default
 10
427.616791060499
 20
-831.68026083276
 30
0.0
 40
11.0000000595364
  0
CIRCLE
  8
Default
 10
427.616791060499
 20
-794.68026083276
 30
0.0
 40
11.0000000595364
  0
CIRCLE
  8
Default
 10
427.616791060499
 20
-757.68026083276
 30
0.0
 40
11.0000000595364
  0
CIRCLE
  8
Default
 10
427.616791060499
 20
-720.68026083276
 30
0.0
 40
11.0000000595364
  0
CIRCLE
  8
Default
 10
427.616791060499
 20
-683.68026083276
 30
0.0
 40
11.0000000595364
  0
CIRCLE
  8
Default
 10
427.616791060499
 20
-646.68026083276
 30
0.0
 40
11.0000000595364
  0
CIRCLE
  8
Default
 10
427.616791060499
 20
-609.68026083276
 30
0.0
 40
11.0000000595364
  0
CIRCLE
  8
Default
 10
427.616791060499
 20
-572.68026083276
 30
0.0
 40
11.0000000595364
  0
CIRCLE
  8
Default
 10
427.616791060499
 20
-535.68026083276
 30
0.0
 40
11.0000000595364
  0
CIRCLE
  8
Default
 10
427.616791060499
 20
-498.68026083276
 30
0.0
 40
11.0000000595364
  0
CIRCLE
  8
Default
 10
427.616791060499
 20
-461.68026083276
 30
0.0
 40
11.0000000595364
  0
CIRCLE
  8
Default
 10
427.616791060499
 20
-424.68026083276
 30
0.0
 40
11.0000000595364
  0
CIRCLE
  8
Default
 10
427.616791060499
 20
-387.68026083276
 30
0.0
 40
11.0000000595364
  0
CIRCLE
  8
Default
 10
427.616791060499
 20
-350.68026083276
 30
0.0
 40
11.0000000595364
  0
CIRCLE
  8
Default
 10
427.616791060499
 20
-313.68026083276
 30
0.0
 40
11.0000000595364
  0
CIRCLE
  8
Default
 10
427.616791060499
 20
-276.68026083276
 30
0.0
 40
11.0000000595364
  0
CIRCLE
  8
Default
 10
427.616791060499
 20
-239.68026083276
 30
0.0
 40
11.0000000595364
  0
CIRCLE
  8
Default
 10
427.616791060499
 20
-202.68026083276
 30
0.0
 40
11.0000000595364
  0
CIRCLE
  8
Default
 10
427.616791060499
 20
-165.68026083276
 30
0.0
 40
11.0000000595364
  0
CIRCLE
  8
Default
 10
427.616791060499
 20
-128.68026083276
 30
0.0
 40
11.0000000595364
  0
CIRCLE
  8
Default
 10
427.616791060499
 20
-91.6802608327599
 30
0.0
 40
11.0000000595364
  0
CIRCLE
  8
Default
 10
427.616791060499
 20
-54.6802608327599
 30
0.0
 40
11.0000000595364
  0
CIRCLE
  8
Default
 10
427.616791060499
 20
-17.6802608327599
 30
0.0
 40
11.0000000595364
  0
CIRCLE
  8
Default
 10
427.616791060499
 20
19.3197391672401
 30
0.0
 40
11.0000000595364
  0
CIRCLE
  8
Default
 10
427.616791060499
 20
56.31973916724
 30
0.0
 40
11.0000000595364
  0
CIRCLE
  8
Default
 10
427.616791060499
 20
93.31973916724
 30
0.0
 40
11.0000000595364
  0
CIRCLE
  8
Default
 10
427.616791060499
 20
130.31973916724
 30
0.0
 40
11.0000000595364
  0
CIRCLE
  8
Default
 10
427.616791060499
 20
167.31973916724
 30
0.0
 40
11.0000000595364
  0
CIRCLE
  8
Default
 10
427.616791060499
 20
204.31973916724
 30
0.0
 40
11.0000000595364
  0
CIRCLE
  8
Default
 10
427.616791060499
 20
241.31973916724
 30
0.0
 40
11.0000000595364
  0
CIRCLE
  8
Default
 10
427.616791060499
 20
278.31973916724
 30
0.0
 40
11.0000000595364
  0
CIRCLE
  8
Default
 10
427.616791060499
 20
315.31973916724
 30
0.0
 40
11.0000000595364
  0
CIRCLE
  8
Default
 10
427.616791060499
 20
352.31973916724
 30
0.0
 40
11.0000000595364
  0
CIRCLE
  8
Default
 10
427.616791060499
 20
389.31973916724
 30
0.0
 40
11.0000000595364
  0
CIRCLE
  8
Default
 10
427.616791060499
 20
426.31973916724
 30
0.0
 40
11.0000000595364
  0
CIRCLE
  8
Default
 10
427.616791060499
 20
463.31973916724
 30
0.0
 40
11.0000000595364
  0
CIRCLE
  8
Default
 10
427.616791060499
 20
500.31973916724
 30
0.0
 40
11.0000000595364
  0
CIRCLE
  8
Default
 10
427.616791060499
 20
537.31973916724
 30
0.0
 40
11.0000000595364
  0
CIRCLE
  8
Default
 10
427.616791060499
 20
574.31973916724
 30
0.0
 40
11.0000000595364
  0
CIRCLE
  8
Default
 10
427.616791060499
 20
611.31973916724
 30
0.0
 40
11.0000000595364
  0
CIRCLE
  8
Default
 10
427.616791060499
 20
648.31973916724
 30
0.0
 40
11.0000000595364
  0
CIRCLE
  8
Default
 10
427.616791060499
 20
685.31973916724
 30
0.0
 40
11.0000000595364
  0
CIRCLE
  8
Default
 10
427.616791060499
 20
722.31973916724
 30
0.0
 40
11.0000000595364
  0
CIRCLE
  8
Default
 10
427.616791060499
 20
759.31973916724
 30
0.0
 40
11.0000000595364
  0
CIRCLE
  8
Default
 10
427.616791060499
 20
796.31973916724
 30
0.0
 40
11.0000000595364
  0
CIRCLE
  8
Default
 10
427.616791060499
 20
833.31973916724
 30
0.0
 40
11.0000000595364
  0
CIRCLE
  8
Default
 10
427.616791060499
 20
870.31973916724
 30
0.0
 40
11.0000000595364
  0
CIRCLE
  8
Default
 10
427.616791060499
 20
907.31973916724
 30
0.0
 40
11.0000000595364
  0
CIRCLE
  8
Default
 10
427.616791060499
 20
944.31973916724
 30
0.0
 40
11.0000000595364
  0
CIRCLE
  8
Default
 10
462.616791060499
 20
-961.68026083276
 30
0.0
 40
11.0000000595364
  0
CIRCLE
  8
Default
 10
462.616791060499
 20
-924.68026083276
 30
0.0
 40
11.0000000595364
  0
CIRCLE
  8
Default
 10
462.616791060499
 20
-887.68026083276
 30
0.0
 40
11.0000000595364
  0
CIRCLE
  8
Default
 10
462.616791060499
 20
-850.68026083276
 30
0.0
 40
11.0000000595364
  0
CIRCLE
  8
Default
 10
462.616791060499
 20
-813.68026083276
 30
0.0
 40
11.0000000595364
  0
CIRCLE
  8
Default
 10
462.616791060499
 20
-776.68026083276
 30
0.0
 40
11.0000000595364
  0
CIRCLE
  8
Default
 10
462.616791060499
 20
-739.68026083276
 30
0.0
 40
11.0000000595364
  0
CIRCLE
  8
Default
 10
462.616791060499
 20
-702.68026083276
 30
0.0
 40
11.0000000595364
  0
CIRCLE
  8
Default
 10
462.616791060499
 20
-665.68026083276
 30
0.0
 40
11.0000000595364
  0
CIRCLE
  8
Default
 10
462.616791060499
 20
-628.68026083276
 30
0.0
 40
11.0000000595364
  0
CIRCLE
  8
Default
 10
462.616791060499
 20
-591.68026083276
 30
0.0
 40
11.0000000595364
  0
CIRCLE
  8
Default
 10
462.616791060499
 20
-554.68026083276
 30
0.0
 40
11.0000000595364
  0
CIRCLE
  8
Default
 10
462.616791060499
 20
-517.68026083276
 30
0.0
 40
11.0000000595364
  0
CIRCLE
  8
Default
 10
462.616791060499
 20
-480.68026083276
 30
0.0
 40
11.0000000595364
  0
CIRCLE
  8
Default
 10
462.616791060499
 20
-443.68026083276
 30
0.0
 40
11.0000000595364
  0
CIRCLE
  8
Default
 10
462.616791060499
 20
-406.68026083276
 30
0.0
 40
11.0000000595364
  0
CIRCLE
  8
Default
 10
462.616791060499
 20
-369.68026083276
 30
0.0
 40
11.0000000595364
  0
CIRCLE
  8
Default
 10
462.616791060499
 20
-332.68026083276
 30
0.0
 40
11.0000000595364
  0
CIRCLE
  8
Default
 10
462.616791060499
 20
-295.68026083276
 30
0.0
 40
11.0000000595364
  0
CIRCLE
  8
Default
 10
462.616791060499
 20
-258.68026083276
 30
0.0
 40
11.0000000595364
  0
CIRCLE
  8
Default
 10
462.616791060499
 20
-221.68026083276
 30
0.0
 40
11.0000000595364
  0
CIRCLE
  8
Default
 10
462.616791060499
 20
-184.68026083276
 30
0.0
 40
11.0000000595364
  0
CIRCLE
  8
Default
 10
462.616791060499
 20
-147.68026083276
 30
0.0
 40
11.0000000595364
  0
CIRCLE
  8
Default
 10
462.616791060499
 20
-110.68026083276
 30
0.0
 40
11.0000000595364
  0
CIRCLE
  8
Default
 10
462.616791060499
 20
-73.6802608327599
 30
0.0
 40
11.0000000595364
  0
CIRCLE
  8
Default
 10
462.616791060499
 20
-36.6802608327599
 30
0.0
 40
11.0000000595364
  0
CIRCLE
  8
Default
 10
462.616791060499
 20
0.3197391672401
 30
0.0
 40
11.0000000595364
  0
CIRCLE
  8
Default
 10
462.616791060499
 20
37.31973916724
 30
0.0
 40
11.0000000595364
  0
CIRCLE
  8
Default
 10
462.616791060499
 20
74.31973916724
 30
0.0
 40
11.0000000595364
  0
CIRCLE
  8
Default
 10
462.616791060499
 20
111.31973916724
 30
0.0
 40
11.0000000595364
  0
CIRCLE
  8
Default
 10
462.616791060499
 20
148.31973916724
 30
0.0
 40
11.0000000595364
  0
CIRCLE
  8
Default
 10
462.616791060499
 20
185.31973916724
 30
0.0
 40
11.0000000595364
  0
CIRCLE
  8
Default
 10
462.616791060499
 20
222.31973916724
 30
0.0
 40
11.0000000595364
  0
CIRCLE
  8
Default
 10
462.616791060499
 20
259.31973916724
 30
0.0
 40
11.0000000595364
  0
CIRCLE
  8
Default
 10
462.616791060499
 20
296.31973916724
 30
0.0
 40
11.0000000595364
  0
CIRCLE
  8
Default
 10
462.616791060499
 20
333.31973916724
 30
0.0
 40
11.0000000595364
  0
CIRCLE
  8
Default
 10
462.616791060499
 20
370.31973916724
 30
0.0
 40
11.0000000595364
  0
CIRCLE
  8
Default
 10
462.616791060499
 20
407.31973916724
 30
0.0
 40
11.0000000595364
  0
CIRCLE
  8
Default
 10
462.616791060499
 20
444.31973916724
 30
0.0
 40
11.0000000595364
  0
CIRCLE
  8
Default
 10
462.616791060499
 20
481.31973916724
 30
0.0
 40
11.0000000595364
  0
CIRCLE
  8
Default
 10
462.616791060499
 20
518.31973916724
 30
0.0
 40
11.0000000595364
  0
CIRCLE
  8
Default
 10
462.616791060499
 20
555.31973916724
 30
0.0
 40
11.0000000595364
  0
CIRCLE
  8
Default
 10
462.616791060499
 20
592.31973916724
 30
0.0
 40
11.0000000595364
  0
CIRCLE
  8
Default
 10
462.616791060499
 20
629.31973916724
 30
0.0
 40
11.0000000595364
  0
CIRCLE
  8
Default
 10
462.616791060499
 20
666.31973916724
 30
0.0
 40
11.0000000595364
  0
CIRCLE
  8
Default
 10
462.616791060499
 20
703.31973916724
 30
0.0
 40
11.0000000595364
  0
CIRCLE
  8
Default
 10
462.616791060499
 20
740.31973916724
 30
0.0
 40
11.0000000595364
  0
CIRCLE
  8
Default
 10
462.616791060499
 20
777.31973916724
 30
0.0
 40
11.0000000595364
  0
CIRCLE
  8
Default
 10
462.616791060499
 20
814.31973916724
 30
0.0
 40
11.0000000595364
  0
CIRCLE
  8
Default
 10
462.616791060499
 20
851.31973916724
 30
0.0
 40
11.0000000595364
  0
CIRCLE
  8
Default
 10
462.616791060499
 20
888.31973916724
 30
0.0
 40
11.0000000595364
  0
CIRCLE
  8
Default
 10
462.616791060499
 20
925.31973916724
 30
0.0
 40
11.0000000595364
  0
CIRCLE
  8
Default
 10
462.616791060499
 20
962.31973916724
 30
0.0
 40
11.0000000595364
  0
POLYLINE
  8
Default
 66
     1
 10
0.0
 20
0.0
 30
0.0
 70
     0
  0
VERTEX
  8
Default
 10
0.0
 20
999.999995596496
 42
0.0
  0
VERTEX
  8
Default
 10
0.0
 20
-999.999995596496
 42
0.0
  0
SEQEND
  0
ENDSEC
  0
EOF
