  0
SECTION
  2
HEADER
  9
$ACADVER
  1
AC1009
  9
$EXTMAX
 10
500.0
 20
1000.0
 30
0.0
  9
$EXTMIN
 10
-500.0
 20
-1000.0
 30
0.0
  9
$INSUNITS
 70
     4
  9
$LUNITS
 70
     2
  9
$LUPREC
 70
     4
  9
$MEASUREMENT
 70
     1
  0
ENDSEC
  0
SECTION
  2
TABLES
  0
TABLE
  2
LAYER
 70
     1
  0
LAYER
  2
0
 70
     0
 62
    70
  6
Continuous
  0
LAYER
  2
Image_1
 70
     0
 62
    70
  6
Continuous
  0
LAYER
  2
Image
 70
     0
 62
    70
  6
Continuous
  0
ENDTAB
  0
TABLE
  2
APPID
 70
     1
  0
APPID
  2
ACAD
 70
     0
  0
ENDTAB
  0
ENDSEC
  0
SECTION
  2
ENTITIES
  0
POLYLINE
  8
Image
 66
     1
 10
0.0
 20
0.0
 30
0.0
 70
     1
  0
VERTEX
  8
Image
 10
-350.950852447896
 20
537.193043488387
 42
0.0
  0
VERTEX
  8
Image
 10
-351.529067562446
 20
582.481109953992
 42
0.0
  0
VERTEX
  8
Image
 10
-399.084812489402
 20
624.470581059672
 42
0.0
  0
VERTEX
  8
Image
 10
-416.764299993064
 20
624.803033069049
 42
0.0
  0
VERTEX
  8
Image
 10
-401.359265559765
 20
526.304940047453
 42
0.0
  0
SEQEND
  0
POLYLINE
  8
Image
 66
     1
 10
0.0
 20
0.0
 30
0.0
 70
     1
  0
VERTEX
  8
Image
 10
-293.181054901836
 20
485.005257975787
 42
0.0
  0
VERTEX
  8
Image
 10
-187.59963872342
 20
486.820954347324
 42
0.0
  0
VERTEX
  8
Image
 10
-231.605916496334
 20
406.311799099957
 42
0.0
  0
VERTEX
  8
Image
 10
-294.992044060789
 20
432.444871262077
 42
0.0
  0
SEQEND
  0
POLYLINE
  8
Image
 66
     1
 10
0.0
 20
0.0
 30
0.0
 70
     1
  0
VERTEX
  8
Image
 10
-359.004637751
 20
340.955295684548
 42
0.0
  0
VERTEX
  8
Image
 10
-318.667712849594
 20
297.07435558163
 42
0.0
  0
VERTEX
  8
Image
 10
-349.468638122246
 20
284.04155353446
 42
0.0
  0
VERTEX
  8
Image
 10
-420.736744626599
 20
295.77726345518
 42
0.0
  0
SEQEND
  0
POLYLINE
  8
Image
 66
     1
 10
0.0
 20
0.0
 30
0.0
 70
     1
  0
VERTEX
  8
Image
 10
-107.93392543487
 20
508.793589164218
 42
0.0
  0
VERTEX
  8
Image
 10
-30.6451476356751
 20
527.419671988705
 42
0.0
  0
VERTEX
  8
Image
 10
-26.0179393330814
 20
484.188153751171
 42
0.0
  0
VERTEX
  8
Image
 10
-64.03535837754
 20
427.36480588027
 42
0.0
  0
SEQEND
  0
POLYLINE
  8
Image
 66
     1
 10
0.0
 20
0.0
 30
0.0
 70
     1
  0
VERTEX
  8
Image
 10
-83.2088877965352
 20
250.807593253184
 42
0.0
  0
VERTEX
  8
Image
 10
-43.6257494243143
 20
211.727103809681
 42
0.0
  0
VERTEX
  8
Image
 10
-95.2649778816203
 20
106.737030087635
 42
0.0
  0
VERTEX
  8
Image
 10
-128.207130885106
 20
180.106719092206
 42
0.0
  0
SEQEND
  0
POLYLINE
  8
Image
 66
     1
 10
0.0
 20
0.0
 30
0.0
 70
     1
  0
VERTEX
  8
Image
 10
-153.505454831685
 20
169.682785689243
 42
0.0
  0
VERTEX
  8
Image
 10
-117.76205798156
 20
107.590166006293
 42
0.0
  0
VERTEX
  8
Image
 10
-125.796729445835
 20
61.5208263987722
 42
0.0
  0
VERTEX
  8
Image
 10
-173.545845100088
 20
114.54598039965
 42
0.0
  0
SEQEND
  0
POLYLINE
  8
Image
 66
     1
 10
0.0
 20
0.0
 30
0.0
 70
     1
  0
VERTEX
  8
Image
 10
-286.601986912499
 20
108.114212230885
 42
0.0
  0
VERTEX
  8
Image
 10
-252.465419436371
 20
45.1280854892449
 42
0.0
  0
VERTEX
  8
Image
 10
-301.377652770376
 20
-5.1982786205203
 42
0.0
  0
VERTEX
  8
Image
 10
-327.078457275325
 20
40.7699906738777
 42
0.0
  0
SEQEND
  0
POLYLINE
  8
Image
 66
     1
 10
0.0
 20
0.0
 30
0.0
 70
     1
  0
VERTEX
  8
Image
 10
-407.764711476593
 20
96.0594197695102
 42
0.0
  0
VERTEX
  8
Image
 10
-399.866988930084
 20
51.1910324272058
 42
0.0
  0
VERTEX
  8
Image
 10
-358.847118712117
 20
59.3417568899782
 42
0.0
  0
VERTEX
  8
Image
 10
-374.619250930347
 20
83.7376853872168
 42
0.0
  0
SEQEND
  0
POLYLINE
  8
Image
 66
     1
 10
0.0
 20
0.0
 30
0.0
 70
     1
  0
VERTEX
  8
Image
 10
-345.709392633525
 20
253.834323368217
 42
0.0
  0
VERTEX
  8
Image
 10
-365.936131884169
 20
182.830260430477
 42
0.0
  0
VERTEX
  8
Image
 10
-309.962635667644
 20
207.391498021247
 42
0.0
  0
VERTEX
  8
Image
 10
-303.082201530883
 20
246.640144728598
 42
0.0
  0
SEQEND
  0
POLYLINE
  8
Image
 66
     1
 10
0.0
 20
0.0
 30
0.0
 70
     1
  0
VERTEX
  8
Image
 10
-395.989932865888
 20
153.491143921541
 42
0.0
  0
VERTEX
  8
Image
 10
-430.519119707865
 20
145.030286881395
 42
0.0
  0
VERTEX
  8
Image
 10
-381.470018980282
 20
118.921106124736
 42
0.0
  0
VERTEX
  8
Image
 10
-366.682496520659
 20
158.602552297788
 42
0.0
  0
SEQEND
  0
POLYLINE
  8
Image
 66
     1
 10
0.0
 20
0.0
 30
0.0
 70
     1
  0
VERTEX
  8
Image
 10
-298.728901343729
 20
156.293944695085
 42
0.0
  0
VERTEX
  8
Image
 10
-321.327919075853
 20
99.7701595514444
 42
0.0
  0
VERTEX
  8
Image
 10
-356.925379209055
 20
108.290256333842
 42
0.0
  0
VERTEX
  8
Image
 10
-338.608817318301
 20
152.746798436822
 42
0.0
  0
SEQEND
  0
POLYLINE
  8
Image
 66
     1
 10
0.0
 20
0.0
 30
0.0
 70
     1
  0
VERTEX
  8
Image
 10
-274.686420762101
 20
165.076625139789
 42
0.0
  0
VERTEX
  8
Image
 10
-246.709061389224
 20
195.276770489148
 42
0.0
  0
VERTEX
  8
Image
 10
-285.000623450603
 20
225.52101704677
 42
0.0
  0
VERTEX
  8
Image
 10
-301.710264707171
 20
178.594845292133
 42
0.0
  0
SEQEND
  0
POLYLINE
  8
Image
 66
     1
 10
0.0
 20
0.0
 30
0.0
 70
     1
  0
VERTEX
  8
Image
 10
-270.06119163788
 20
525.421423384863
 42
0.0
  0
VERTEX
  8
Image
 10
-154.749754124326
 20
595.551645536691
 42
0.0
  0
VERTEX
  8
Image
 10
-186.785077369854
 20
508.657576837026
 42
0.0
  0
SEQEND
  0
POLYLINE
  8
Image
 66
     1
 10
0.0
 20
0.0
 30
0.0
 70
     1
  0
VERTEX
  8
Image
 10
-255.280810765602
 20
110.254561502083
 42
0.0
  0
VERTEX
  8
Image
 10
-209.70353578964
 20
53.8157912062564
 42
0.0
  0
VERTEX
  8
Image
 10
-204.871329649309
 20
137.205058978716
 42
0.0
  0
SEQEND
  0
POLYLINE
  8
Image
 66
     1
 10
0.0
 20
0.0
 30
0.0
 70
     1
  0
VERTEX
  8
Image
 10
-413.408181855496
 20
403.881508079918
 42
0.0
  0
VERTEX
  8
Image
 10
-357.228647947983
 20
366.164687061318
 42
0.0
  0
VERTEX
  8
Image
 10
-322.681476655436
 20
418.030036432556
 42
0.0
  0
SEQEND
  0
POLYLINE
  8
Image
 66
     1
 10
0.0
 20
0.0
 30
0.0
 70
     1
  0
VERTEX
  8
Image
 10
-150.604725445123
 20
493.026269252198
 42
0.0
  0
VERTEX
  8
Image
 10
-182.904057188097
 20
421.594491122636
 42
0.0
  0
VERTEX
  8
Image
 10
-100.558268221288
 20
383.509776106043
 42
0.0
  0
VERTEX
  8
Image
 10
-95.459597562879
 20
424.703281191713
 42
0.0
  0
SEQEND
  0
POLYLINE
  8
Image
 66
     1
 10
0.0
 20
0.0
 30
0.0
 70
     1
  0
VERTEX
  8
Image
 10
-277.669384439432
 20
134.819333058444
 42
0.0
  0
VERTEX
  8
Image
 10
-194.894904038521
 20
215.085291757176
 42
0.0
  0
VERTEX
  8
Image
 10
-138.652203788652
 20
197.169437465362
 42
0.0
  0
VERTEX
  8
Image
 10
-209.586320620691
 20
155.907498663679
 42
0.0
  0
SEQEND
  0
POLYLINE
  8
Image
 66
     1
 10
0.0
 20
0.0
 30
0.0
 70
     1
  0
VERTEX
  8
Image
 10
-211.313891520977
 20
315.022827486313
 42
0.0
  0
VERTEX
  8
Image
 10
-251.658754665077
 20
258.372084197549
 42
0.0
  0
VERTEX
  8
Image
 10
-226.789542449464
 20
222.906037891656
 42
0.0
  0
VERTEX
  8
Image
 10
-201.749932548992
 20
236.784859284102
 42
0.0
  0
SEQEND
  0
POLYLINE
  8
Image
 66
     1
 10
0.0
 20
0.0
 30
0.0
 70
     1
  0
VERTEX
  8
Image
 10
-377.016898895922
 20
966.464767127421
 42
0.0
  0
VERTEX
  8
Image
 10
-322.84121302008
 20
912.4579343465
 42
0.0
  0
VERTEX
  8
Image
 10
-353.642138292733
 20
899.42513229933
 42
0.0
  0
VERTEX
  8
Image
 10
-417.721217098026
 20
925.969047202031
 42
0.0
  0
SEQEND
  0
POLYLINE
  8
Image
 66
     1
 10
0.0
 20
0.0
 30
0.0
 70
     1
  0
VERTEX
  8
Image
 10
-87.3823879670142
 20
866.191172018044
 42
0.0
  0
VERTEX
  8
Image
 10
-47.7992495948035
 20
827.110682574551
 42
0.0
  0
VERTEX
  8
Image
 10
-97.9406282139955
 20
753.246585932734
 42
0.0
  0
VERTEX
  8
Image
 10
-125.669443359146
 20
820.515112689285
 42
0.0
  0
SEQEND
  0
POLYLINE
  8
Image
 66
     1
 10
0.0
 20
0.0
 30
0.0
 70
     1
  0
VERTEX
  8
Image
 10
-157.678955002175
 20
785.066364454114
 42
0.0
  0
VERTEX
  8
Image
 10
-111.019199570896
 20
724.163863250756
 42
0.0
  0
VERTEX
  8
Image
 10
-132.110426164265
 20
692.286046197742
 42
0.0
  0
VERTEX
  8
Image
 10
-177.719345270577
 20
729.929559164511
 42
0.0
  0
SEQEND
  0
POLYLINE
  8
Image
 66
     1
 10
0.0
 20
0.0
 30
0.0
 70
     1
  0
VERTEX
  8
Image
 10
-135.786108704601
 20
671.619276727152
 42
0.0
  0
VERTEX
  8
Image
 10
-86.7522073652992
 20
666.496382327016
 42
0.0
  0
VERTEX
  8
Image
 10
-85.9538365004958
 20
640.220716923664
 42
0.0
  0
VERTEX
  8
Image
 10
-137.761173215666
 20
590.452112365646
 42
0.0
  0
SEQEND
  0
POLYLINE
  8
Image
 66
     1
 10
0.0
 20
0.0
 30
0.0
 70
     1
  0
VERTEX
  8
Image
 10
-210.906049447046
 20
603.168200676007
 42
0.0
  0
VERTEX
  8
Image
 10
-238.893811004347
 20
650.367234841734
 42
0.0
  0
VERTEX
  8
Image
 10
-172.578477934472
 20
679.503473527406
 42
0.0
  0
VERTEX
  8
Image
 10
-174.690288479631
 20
605.332625644287
 42
0.0
  0
SEQEND
  0
POLYLINE
  8
Image
 66
     1
 10
0.0
 20
0.0
 30
0.0
 70
     1
  0
VERTEX
  8
Image
 10
-290.775487082986
 20
723.497790995755
 42
0.0
  0
VERTEX
  8
Image
 10
-256.638919606857
 20
660.511664254106
 42
0.0
  0
VERTEX
  8
Image
 10
-312.721308797156
 20
592.755541372049
 42
0.0
  0
VERTEX
  8
Image
 10
-331.251957445812
 20
656.153569438745
 42
0.0
  0
SEQEND
  0
POLYLINE
  8
Image
 66
     1
 10
0.0
 20
0.0
 30
0.0
 70
     1
  0
VERTEX
  8
Image
 10
-422.75503930403
 20
689.496057989753
 42
0.0
  0
VERTEX
  8
Image
 10
-393.730319312452
 20
655.418478287326
 42
0.0
  0
VERTEX
  8
Image
 10
-352.710449094485
 20
663.569202750107
 42
0.0
  0
VERTEX
  8
Image
 10
-368.482581312715
 20
687.965131247339
 42
0.0
  0
SEQEND
  0
POLYLINE
  8
Image
 66
     1
 10
0.0
 20
0.0
 30
0.0
 70
     1
  0
VERTEX
  8
Image
 10
-349.882892804012
 20
869.217902133078
 42
0.0
  0
VERTEX
  8
Image
 10
-370.109632054656
 20
798.213839195339
 42
0.0
  0
VERTEX
  8
Image
 10
-314.136135838131
 20
822.775076786111
 42
0.0
  0
VERTEX
  8
Image
 10
-307.25570170137
 20
862.023723493459
 42
0.0
  0
SEQEND
  0
POLYLINE
  8
Image
 66
     1
 10
0.0
 20
0.0
 30
0.0
 70
     1
  0
VERTEX
  8
Image
 10
-404.757080831822
 20
789.101904225315
 42
0.0
  0
VERTEX
  8
Image
 10
-427.728345176641
 20
737.122208705188
 42
0.0
  0
VERTEX
  8
Image
 10
-384.425632066544
 20
741.305758544461
 42
0.0
  0
VERTEX
  8
Image
 10
-370.855996691146
 20
773.986131062656
 42
0.0
  0
SEQEND
  0
POLYLINE
  8
Image
 66
     1
 10
0.0
 20
0.0
 30
0.0
 70
     1
  0
VERTEX
  8
Image
 10
-302.902401514216
 20
771.677523459949
 42
0.0
  0
VERTEX
  8
Image
 10
-325.50141924634
 20
715.153738316311
 42
0.0
  0
VERTEX
  8
Image
 10
-361.098879379543
 20
723.673835098709
 42
0.0
  0
VERTEX
  8
Image
 10
-342.782317488787
 20
768.130377201685
 42
0.0
  0
SEQEND
  0
POLYLINE
  8
Image
 66
     1
 10
0.0
 20
0.0
 30
0.0
 70
     1
  0
VERTEX
  8
Image
 10
-278.859920932588
 20
780.460203904659
 42
0.0
  0
VERTEX
  8
Image
 10
-250.882561559713
 20
810.660349254009
 42
0.0
  0
VERTEX
  8
Image
 10
-289.17412362109
 20
840.904595811641
 42
0.0
  0
VERTEX
  8
Image
 10
-305.883764877659
 20
793.978424056995
 42
0.0
  0
SEQEND
  0
POLYLINE
  8
Image
 66
     1
 10
0.0
 20
0.0
 30
0.0
 70
     1
  0
VERTEX
  8
Image
 10
-281.996213696588
 20
733.006602628739
 42
0.0
  0
VERTEX
  8
Image
 10
-212.825334917083
 20
678.062536137356
 42
0.0
  0
VERTEX
  8
Image
 10
-198.394616326814
 20
739.791520245382
 42
0.0
  0
SEQEND
  0
POLYLINE
  8
Image
 66
     1
 10
0.0
 20
0.0
 30
0.0
 70
     1
  0
VERTEX
  8
Image
 10
-281.84288460992
 20
750.202911823314
 42
0.0
  0
VERTEX
  8
Image
 10
-195.793813999121
 20
830.041454300005
 42
0.0
  0
VERTEX
  8
Image
 10
-156.157664596324
 20
811.311206305562
 42
0.0
  0
VERTEX
  8
Image
 10
-213.759820791181
 20
771.291077428541
 42
0.0
  0
SEQEND
  0
POLYLINE
  8
Image
 66
     1
 10
0.0
 20
0.0
 30
0.0
 70
     1
  0
VERTEX
  8
Image
 10
-215.487391691466
 20
930.406406251175
 42
0.0
  0
VERTEX
  8
Image
 10
-255.832254835564
 20
873.755662962419
 42
0.0
  0
VERTEX
  8
Image
 10
-230.963042619953
 20
838.289616656516
 42
0.0
  0
VERTEX
  8
Image
 10
-205.923432719471
 20
852.168438048973
 42
0.0
  0
SEQEND
  0
POLYLINE
  8
Image
 66
     1
 10
0.0
 20
0.0
 30
0.0
 70
     1
  0
VERTEX
  8
Image
 10
-338.075090705045
 20
563.91150215895
 42
0.0
  0
VERTEX
  8
Image
 10
-270.315478146216
 20
541.054829321433
 42
0.0
  0
VERTEX
  8
Image
 10
-235.768306853674
 20
592.920178692661
 42
0.0
  0
SEQEND
  0
POLYLINE
  8
Image
 66
     1
 10
0.0
 20
0.0
 30
0.0
 70
     1
  0
VERTEX
  8
Image
 10
-56.7187656796193
 20
95.5650202632414
 42
0.0
  0
VERTEX
  8
Image
 10
-26.2700536029174
 20
30.6942325111698
 42
0.0
  0
VERTEX
  8
Image
 10
-153.957097106177
 20
-5.1141582500272
 42
0.0
  0
VERTEX
  8
Image
 10
-112.941255103009
 20
40.1924284323273
 42
0.0
  0
SEQEND
  0
POLYLINE
  8
Image
 66
     1
 10
0.0
 20
0.0
 30
0.0
 70
     1
  0
VERTEX
  8
Image
 10
-425.382238674261
 20
316.073338210338
 42
0.0
  0
VERTEX
  8
Image
 10
-418.820337427045
 20
363.468358809432
 42
0.0
  0
VERTEX
  8
Image
 10
-438.578169814897
 20
361.239298490754
 42
0.0
  0
VERTEX
  8
Image
 10
-462.341901292001
 20
309.248218751307
 42
0.0
  0
SEQEND
  0
POLYLINE
  8
Image
 66
     1
 10
0.0
 20
0.0
 30
0.0
 70
     1
  0
VERTEX
  8
Image
 10
-428.944338572686
 20
824.182931631382
 42
0.0
  0
VERTEX
  8
Image
 10
-438.512738614606
 20
763.622838382726
 42
0.0
  0
VERTEX
  8
Image
 10
-475.00000150689
 20
763.097877403898
 42
0.0
  0
VERTEX
  8
Image
 10
-466.947090236495
 20
810.863212242218
 42
0.0
  0
SEQEND
  0
POLYLINE
  8
Image
 66
     1
 10
0.0
 20
0.0
 30
0.0
 70
     1
  0
VERTEX
  8
Image
 10
-246.534428394736
 20
-1.4260279421096
 42
0.0
  0
VERTEX
  8
Image
 10
-158.923254294816
 20
65.0388603131784
 42
0.0
  0
VERTEX
  8
Image
 10
-190.958577540343
 20
-21.8552083864835
 42
0.0
  0
SEQEND
  0
POLYLINE
  8
Image
 66
     1
 10
0.0
 20
0.0
 30
0.0
 70
     1
  0
VERTEX
  8
Image
 10
-183.443921523461
 20
-51.3560620372169
 42
0.0
  0
VERTEX
  8
Image
 10
-176.815060719338
 20
-89.0158167887995
 42
0.0
  0
VERTEX
  8
Image
 10
-142.106308881223
 20
-82.1191232796294
 42
0.0
  0
VERTEX
  8
Image
 10
-155.208915463471
 20
-61.8523483829213
 42
0.0
  0
SEQEND
  0
POLYLINE
  8
Image
 66
     1
 10
0.0
 20
0.0
 30
0.0
 70
     1
  0
VERTEX
  8
Image
 10
-26.5158047813384
 20
149.778089142049
 42
0.0
  0
VERTEX
  8
Image
 10
-57.3974770287796
 20
152.14160484089
 42
0.0
  0
VERTEX
  8
Image
 10
-54.2020874588497
 20
113.758476304871
 42
0.0
  0
VERTEX
  8
Image
 10
-26.5158047813384
 20
107.684106105263
 42
0.0
  0
SEQEND
  0
POLYLINE
  8
Image
 66
     1
 10
0.0
 20
0.0
 30
0.0
 70
     1
  0
VERTEX
  8
Image
 10
-26.5158047813381
 20
787.950370678594
 42
0.0
  0
VERTEX
  8
Image
 10
-53.2446049591808
 20
789.996048073439
 42
0.0
  0
VERTEX
  8
Image
 10
-50.049215389251
 20
751.612919537422
 42
0.0
  0
VERTEX
  8
Image
 10
-26.5158047813381
 20
746.44968943691
 42
0.0
  0
SEQEND
  0
POLYLINE
  8
Image
 66
     1
 10
0.0
 20
0.0
 30
0.0
 70
     1
  0
VERTEX
  8
Image
 10
-26.5158047813381
 20
704.54224136728
 42
0.0
  0
VERTEX
  8
Image
 10
-26.5158047813381
 20
673.431760247227
 42
0.0
  0
VERTEX
  8
Image
 10
-50.639455743659
 20
651.517318665198
 42
0.0
  0
VERTEX
  8
Image
 10
-87.1733037701088
 20
702.215830881477
 42
0.0
  0
VERTEX
  8
Image
 10
-51.9163127492513
 20
728.516167112452
 42
0.0
  0
SEQEND
  0
POLYLINE
  8
Image
 66
     1
 10
0.0
 20
0.0
 30
0.0
 70
     1
  0
VERTEX
  8
Image
 10
-26.5158047813384
 20
433.169809636285
 42
0.0
  0
VERTEX
  8
Image
 10
-26.5158047813384
 20
353.906195808296
 42
0.0
  0
VERTEX
  8
Image
 10
-62.7182841490153
 20
400.201592996684
 42
0.0
  0
SEQEND
  0
POLYLINE
  8
Image
 66
     1
 10
0.0
 20
0.0
 30
0.0
 70
     1
  0
VERTEX
  8
Image
 10
-26.5158047813384
 20
325.785508732506
 42
0.0
  0
VERTEX
  8
Image
 10
-26.5158047813384
 20
218.382843695008
 42
0.0
  0
VERTEX
  8
Image
 10
-70.7839029292529
 20
272.21279624584
 42
0.0
  0
VERTEX
  8
Image
 10
-64.3397648813288
 20
350.681283329037
 42
0.0
  0
SEQEND
  0
POLYLINE
  8
Image
 66
     1
 10
0.0
 20
0.0
 30
0.0
 70
     1
  0
VERTEX
  8
Image
 10
-29.7705672551335
 20
-45.0697692170464
 42
0.0
  0
VERTEX
  8
Image
 10
-117.734607601237
 20
-51.5549588316713
 42
0.0
  0
VERTEX
  8
Image
 10
-146.239186657463
 20
-26.0426556580093
 42
0.0
  0
VERTEX
  8
Image
 10
-33.8007098461933
 20
-7.4165728335165
 42
0.0
  0
SEQEND
  0
POLYLINE
  8
Image
 66
     1
 10
0.0
 20
0.0
 30
0.0
 70
     1
  0
VERTEX
  8
Image
 10
-474.408508058663
 20
49.490653747285
 42
0.0
  0
VERTEX
  8
Image
 10
-474.408508058663
 20
69.4311297857171
 42
0.0
  0
VERTEX
  8
Image
 10
-457.326275261216
 20
61.3588406906405
 42
0.0
  0
SEQEND
  0
POLYLINE
  8
Image
 66
     1
 10
0.0
 20
0.0
 30
0.0
 70
     1
  0
VERTEX
  8
Image
 10
-474.408508058662
 20
239.372302622726
 42
0.0
  0
VERTEX
  8
Image
 10
-474.408508058662
 20
299.399748788259
 42
0.0
  0
VERTEX
  8
Image
 10
-457.82145006048
 20
259.160490496022
 42
0.0
  0
SEQEND
  0
POLYLINE
  8
Image
 66
     1
 10
0.0
 20
0.0
 30
0.0
 70
     1
  0
VERTEX
  8
Image
 10
-472.843573186209
 20
369.30503477147
 42
0.0
  0
VERTEX
  8
Image
 10
-474.408508058662
 20
454.296383583014
 42
0.0
  0
VERTEX
  8
Image
 10
-431.575224128474
 20
486.253933768766
 42
0.0
  0
VERTEX
  8
Image
 10
-435.670680210488
 20
424.893146736182
 42
0.0
  0
SEQEND
  0
POLYLINE
  8
Image
 66
     1
 10
0.0
 20
0.0
 30
0.0
 70
     1
  0
VERTEX
  8
Image
 10
-474.408508058662
 20
493.16584728908
 42
0.0
  0
VERTEX
  8
Image
 10
-474.408508058662
 20
542.862780624429
 42
0.0
  0
VERTEX
  8
Image
 10
-436.29022842675
 20
590.999635151444
 42
0.0
  0
VERTEX
  8
Image
 10
-447.132322211335
 20
499.558835588191
 42
0.0
  0
SEQEND
  0
POLYLINE
  8
Image
 66
     1
 10
0.0
 20
0.0
 30
0.0
 70
     1
  0
VERTEX
  8
Image
 10
-474.408508058662
 20
661.079028448333
 42
0.0
  0
VERTEX
  8
Image
 10
-474.408508058662
 20
720.759949370715
 42
0.0
  0
VERTEX
  8
Image
 10
-458.429936838189
 20
723.192621797582
 42
0.0
  0
VERTEX
  8
Image
 10
-435.386920526454
 20
661.739699882863
 42
0.0
  0
SEQEND
  0
POLYLINE
  8
Image
 66
     1
 10
0.0
 20
0.0
 30
0.0
 70
     1
  0
VERTEX
  8
Image
 10
-202.681677914206
 20
975.266695646081
 42
0.0
  0
VERTEX
  8
Image
 10
-133.118113552204
 20
975.266695646081
 42
0.0
  0
VERTEX
  8
Image
 10
-133.363855240664
 20
971.061364066268
 42
0.0
  0
VERTEX
  8
Image
 10
-161.401762359253
 20
955.638772266681
 42
0.0
  0
VERTEX
  8
Image
 10
-213.398924444238
 20
959.241360966932
 42
0.0
  0
SEQEND
  0
POLYLINE
  8
Image
 66
     1
 10
0.0
 20
0.0
 30
0.0
 70
     1
  0
VERTEX
  8
Image
 10
-26.5158047813381
 20
938.422084823708
 42
0.0
  0
VERTEX
  8
Image
 10
-68.6829399549451
 20
977.1577635
 42
0.0
  0
VERTEX
  8
Image
 10
-74.9574030997321
 20
887.596375010701
 42
0.0
  0
VERTEX
  8
Image
 10
-28.8592232134097
 20
831.541045331315
 42
0.0
  0
VERTEX
  8
Image
 10
-26.5158047813381
 20
849.857531402056
 42
0.0
  0
SEQEND
  0
POLYLINE
  8
Image
 66
     1
 10
0.0
 20
0.0
 30
0.0
 70
     1
  0
VERTEX
  8
Image
 10
-474.408508058662
 20
869.808576922649
 42
0.0
  0
VERTEX
  8
Image
 10
-459.929469374539
 20
862.565683094365
 42
0.0
  0
VERTEX
  8
Image
 10
-431.952110001664
 20
892.765828443722
 42
0.0
  0
VERTEX
  8
Image
 10
-470.243672063041
 20
923.010075001348
 42
0.0
  0
VERTEX
  8
Image
 10
-474.408508058662
 20
911.313844887276
 42
0.0
  0
SEQEND
  0
POLYLINE
  8
Image
 66
     1
 10
0.0
 20
0.0
 30
0.0
 70
     1
  0
VERTEX
  8
Image
 10
-474.408508058663
 20
114.069687351626
 42
0.0
  0
VERTEX
  8
Image
 10
-466.870773228095
 20
103.32010468593
 42
0.0
  0
VERTEX
  8
Image
 10
-441.831163327618
 20
117.198926078383
 42
0.0
  0
VERTEX
  8
Image
 10
-451.395122299608
 20
195.436894280589
 42
0.0
  0
VERTEX
  8
Image
 10
-474.408508058662
 20
163.122361345257
 42
0.0
  0
SEQEND
  0
POLYLINE
  8
Image
 66
     1
 10
0.0
 20
0.0
 30
0.0
 70
     1
  0
VERTEX
  8
Image
 10
-349.932914487924
 20
-397.876106199426
 42
0.0
  0
VERTEX
  8
Image
 10
-350.511129602475
 20
-352.588039733822
 42
0.0
  0
VERTEX
  8
Image
 10
-398.066874529431
 20
-310.598568628141
 42
0.0
  0
VERTEX
  8
Image
 10
-415.746362033093
 20
-310.266116618764
 42
0.0
  0
VERTEX
  8
Image
 10
-400.341327599793
 20
-408.764209640361
 42
0.0
  0
SEQEND
  0
POLYLINE
  8
Image
 66
     1
 10
0.0
 20
0.0
 30
0.0
 70
     1
  0
VERTEX
  8
Image
 10
-292.163116941864
 20
-450.063891712027
 42
0.0
  0
VERTEX
  8
Image
 10
-186.581700763448
 20
-448.24819534049
 42
0.0
  0
VERTEX
  8
Image
 10
-230.587978536363
 20
-528.757350587857
 42
0.0
  0
VERTEX
  8
Image
 10
-293.974106100818
 20
-502.624278425736
 42
0.0
  0
SEQEND
  0
POLYLINE
  8
Image
 66
     1
 10
0.0
 20
0.0
 30
0.0
 70
     1
  0
VERTEX
  8
Image
 10
-357.986699791029
 20
-594.113854003266
 42
0.0
  0
VERTEX
  8
Image
 10
-317.649774889622
 20
-637.994794106183
 42
0.0
  0
VERTEX
  8
Image
 10
-348.450700162275
 20
-651.027596153354
 42
0.0
  0
VERTEX
  8
Image
 10
-419.718806666628
 20
-639.291886232633
 42
0.0
  0
SEQEND
  0
POLYLINE
  8
Image
 66
     1
 10
0.0
 20
0.0
 30
0.0
 70
     1
  0
VERTEX
  8
Image
 10
-106.915987474899
 20
-426.275560523595
 42
0.0
  0
VERTEX
  8
Image
 10
-29.6272096757039
 20
-407.649477699108
 42
0.0
  0
VERTEX
  8
Image
 10
-25.0000013731101
 20
-450.880995936642
 42
0.0
  0
VERTEX
  8
Image
 10
-63.0174204175685
 20
-507.704343807543
 42
0.0
  0
SEQEND
  0
POLYLINE
  8
Image
 66
     1
 10
0.0
 20
0.0
 30
0.0
 70
     1
  0
VERTEX
  8
Image
 10
-82.1909498365635
 20
-684.26155643463
 42
0.0
  0
VERTEX
  8
Image
 10
-42.6078114643428
 20
-723.342045878132
 42
0.0
  0
VERTEX
  8
Image
 10
-94.247039921649
 20
-828.332119600178
 42
0.0
  0
VERTEX
  8
Image
 10
-127.189192925135
 20
-754.962430595608
 42
0.0
  0
SEQEND
  0
POLYLINE
  8
Image
 66
     1
 10
0.0
 20
0.0
 30
0.0
 70
     1
  0
VERTEX
  8
Image
 10
-152.487516871714
 20
-765.38636399857
 42
0.0
  0
VERTEX
  8
Image
 10
-116.744120021589
 20
-827.478983681521
 42
0.0
  0
VERTEX
  8
Image
 10
-124.778791485864
 20
-873.548323289041
 42
0.0
  0
VERTEX
  8
Image
 10
-172.527907140116
 20
-820.523169288163
 42
0.0
  0
SEQEND
  0
POLYLINE
  8
Image
 66
     1
 10
0.0
 20
0.0
 30
0.0
 70
     1
  0
VERTEX
  8
Image
 10
-285.584048952528
 20
-826.954937456928
 42
0.0
  0
VERTEX
  8
Image
 10
-251.4474814764
 20
-889.941064198568
 42
0.0
  0
VERTEX
  8
Image
 10
-300.359714810404
 20
-940.267428308334
 42
0.0
  0
VERTEX
  8
Image
 10
-326.060519315353
 20
-894.299159013936
 42
0.0
  0
SEQEND
  0
POLYLINE
  8
Image
 66
     1
 10
0.0
 20
0.0
 30
0.0
 70
     1
  0
VERTEX
  8
Image
 10
-406.746773516622
 20
-839.009729918303
 42
0.0
  0
VERTEX
  8
Image
 10
-398.849050970113
 20
-883.878117260608
 42
0.0
  0
VERTEX
  8
Image
 10
-357.829180752146
 20
-875.727392797835
 42
0.0
  0
VERTEX
  8
Image
 10
-373.601312970376
 20
-851.331464300597
 42
0.0
  0
SEQEND
  0
POLYLINE
  8
Image
 66
     1
 10
0.0
 20
0.0
 30
0.0
 70
     1
  0
VERTEX
  8
Image
 10
-344.691454673553
 20
-681.234826319596
 42
0.0
  0
VERTEX
  8
Image
 10
-364.918193924197
 20
-752.238889257336
 42
0.0
  0
VERTEX
  8
Image
 10
-308.944697707673
 20
-727.677651666566
 42
0.0
  0
VERTEX
  8
Image
 10
-302.064263570911
 20
-688.429004959215
 42
0.0
  0
SEQEND
  0
POLYLINE
  8
Image
 66
     1
 10
0.0
 20
0.0
 30
0.0
 70
     1
  0
VERTEX
  8
Image
 10
-394.971994905917
 20
-781.578005766273
 42
0.0
  0
VERTEX
  8
Image
 10
-429.501181747894
 20
-790.038862806419
 42
0.0
  0
VERTEX
  8
Image
 10
-380.452081020311
 20
-816.148043563077
 42
0.0
  0
VERTEX
  8
Image
 10
-365.664558560688
 20
-776.466597390025
 42
0.0
  0
SEQEND
  0
POLYLINE
  8
Image
 66
     1
 10
0.0
 20
0.0
 30
0.0
 70
     1
  0
VERTEX
  8
Image
 10
-297.710963383758
 20
-778.775204992728
 42
0.0
  0
VERTEX
  8
Image
 10
-320.309981115882
 20
-835.298990136369
 42
0.0
  0
VERTEX
  8
Image
 10
-355.907441249084
 20
-826.778893353971
 42
0.0
  0
VERTEX
  8
Image
 10
-337.59087935833
 20
-782.322351250991
 42
0.0
  0
SEQEND
  0
POLYLINE
  8
Image
 66
     1
 10
0.0
 20
0.0
 30
0.0
 70
     1
  0
VERTEX
  8
Image
 10
-273.668482802129
 20
-769.992524548024
 42
0.0
  0
VERTEX
  8
Image
 10
-245.691123429253
 20
-739.792379198666
 42
0.0
  0
VERTEX
  8
Image
 10
-283.982685490631
 20
-709.548132641043
 42
0.0
  0
VERTEX
  8
Image
 10
-300.6923267472
 20
-756.47430439568
 42
0.0
  0
SEQEND
  0
POLYLINE
  8
Image
 66
     1
 10
0.0
 20
0.0
 30
0.0
 70
     1
  0
VERTEX
  8
Image
 10
-269.043253677909
 20
-409.64772630295
 42
0.0
  0
VERTEX
  8
Image
 10
-153.731816164355
 20
-339.517504151123
 42
0.0
  0
VERTEX
  8
Image
 10
-185.767139409882
 20
-426.411572850788
 42
0.0
  0
SEQEND
  0
POLYLINE
  8
Image
 66
     1
 10
0.0
 20
0.0
 30
0.0
 70
     1
  0
VERTEX
  8
Image
 10
-254.262872805631
 20
-824.814588185731
 42
0.0
  0
VERTEX
  8
Image
 10
-208.685597829669
 20
-881.253358481557
 42
0.0
  0
VERTEX
  8
Image
 10
-203.853391689338
 20
-797.864090709097
 42
0.0
  0
SEQEND
  0
POLYLINE
  8
Image
 66
     1
 10
0.0
 20
0.0
 30
0.0
 70
     1
  0
VERTEX
  8
Image
 10
-412.390243895524
 20
-531.187641607895
 42
0.0
  0
VERTEX
  8
Image
 10
-356.210709988012
 20
-568.904462626495
 42
0.0
  0
VERTEX
  8
Image
 10
-321.663538695465
 20
-517.039113255257
 42
0.0
  0
SEQEND
  0
POLYLINE
  8
Image
 66
     1
 10
0.0
 20
0.0
 30
0.0
 70
     1
  0
VERTEX
  8
Image
 10
-149.586787485151
 20
-442.042880435615
 42
0.0
  0
VERTEX
  8
Image
 10
-181.886119228126
 20
-513.474658565177
 42
0.0
  0
VERTEX
  8
Image
 10
-99.5403302613165
 20
-551.55937358177
 42
0.0
  0
VERTEX
  8
Image
 10
-94.4416596029077
 20
-510.365868496101
 42
0.0
  0
SEQEND
  0
POLYLINE
  8
Image
 66
     1
 10
0.0
 20
0.0
 30
0.0
 70
     1
  0
VERTEX
  8
Image
 10
-276.651446479461
 20
-800.249816629369
 42
0.0
  0
VERTEX
  8
Image
 10
-193.87696607855
 20
-719.983857930637
 42
0.0
  0
VERTEX
  8
Image
 10
-137.634265828681
 20
-737.899712222451
 42
0.0
  0
VERTEX
  8
Image
 10
-208.56838266072
 20
-779.161651024134
 42
0.0
  0
SEQEND
  0
POLYLINE
  8
Image
 66
     1
 10
0.0
 20
0.0
 30
0.0
 70
     1
  0
VERTEX
  8
Image
 10
-210.295953561005
 20
-620.0463222015
 42
0.0
  0
VERTEX
  8
Image
 10
-250.640816705106
 20
-676.697065490264
 42
0.0
  0
VERTEX
  8
Image
 10
-225.771604489492
 20
-712.163111796157
 42
0.0
  0
VERTEX
  8
Image
 10
-200.73199458902
 20
-698.284290403712
 42
0.0
  0
SEQEND
  0
POLYLINE
  8
Image
 66
     1
 10
0.0
 20
0.0
 30
0.0
 70
     1
  0
VERTEX
  8
Image
 10
-377.016898895922
 20
35.7190770383207
 42
0.0
  0
VERTEX
  8
Image
 10
-322.84121302008
 20
-18.2877557426
 42
0.0
  0
VERTEX
  8
Image
 10
-353.642138292733
 20
-31.3205577897707
 42
0.0
  0
VERTEX
  8
Image
 10
-389.524042913704
 20
-26.6950661390722
 42
0.0
  0
SEQEND
  0
POLYLINE
  8
Image
 66
     1
 10
0.0
 20
0.0
 30
0.0
 70
     1
  0
VERTEX
  8
Image
 10
-86.3644500070427
 20
-68.8779776697694
 42
0.0
  0
VERTEX
  8
Image
 10
-46.7813116348323
 20
-107.958467113262
 42
0.0
  0
VERTEX
  8
Image
 10
-96.922690254024
 20
-181.822563755079
 42
0.0
  0
VERTEX
  8
Image
 10
-124.651505399175
 20
-114.554036998528
 42
0.0
  0
SEQEND
  0
POLYLINE
  8
Image
 66
     1
 10
0.0
 20
0.0
 30
0.0
 70
     1
  0
VERTEX
  8
Image
 10
-156.661017042204
 20
-150.002785233699
 42
0.0
  0
VERTEX
  8
Image
 10
-110.001261610925
 20
-210.905286437057
 42
0.0
  0
VERTEX
  8
Image
 10
-131.092488204293
 20
-242.783103490071
 42
0.0
  0
VERTEX
  8
Image
 10
-176.701407310606
 20
-205.139590523303
 42
0.0
  0
SEQEND
  0
POLYLINE
  8
Image
 66
     1
 10
0.0
 20
0.0
 30
0.0
 70
     1
  0
VERTEX
  8
Image
 10
-134.76817074463
 20
-263.449872960661
 42
0.0
  0
VERTEX
  8
Image
 10
-85.734269405328
 20
-268.572767360797
 42
0.0
  0
VERTEX
  8
Image
 10
-84.9358985405242
 20
-294.84843276415
 42
0.0
  0
VERTEX
  8
Image
 10
-136.743235255694
 20
-344.617037322167
 42
0.0
  0
SEQEND
  0
POLYLINE
  8
Image
 66
     1
 10
0.0
 20
0.0
 30
0.0
 70
     1
  0
VERTEX
  8
Image
 10
-209.888111487075
 20
-331.900949011806
 42
0.0
  0
VERTEX
  8
Image
 10
-237.875873044376
 20
-284.70191484608
 42
0.0
  0
VERTEX
  8
Image
 10
-171.5605399745
 20
-255.565676160408
 42
0.0
  0
VERTEX
  8
Image
 10
-173.67235051966
 20
-329.736524043526
 42
0.0
  0
SEQEND
  0
POLYLINE
  8
Image
 66
     1
 10
0.0
 20
0.0
 30
0.0
 70
     1
  0
VERTEX
  8
Image
 10
-289.757549123014
 20
-211.571358692058
 42
0.0
  0
VERTEX
  8
Image
 10
-255.620981646886
 20
-274.557485433707
 42
0.0
  0
VERTEX
  8
Image
 10
-311.703370837185
 20
-342.313608315764
 42
0.0
  0
VERTEX
  8
Image
 10
-330.234019485841
 20
-278.915580249069
 42
0.0
  0
SEQEND
  0
POLYLINE
  8
Image
 66
     1
 10
0.0
 20
0.0
 30
0.0
 70
     1
  0
VERTEX
  8
Image
 10
-421.737101344059
 20
-245.57309169806
 42
0.0
  0
VERTEX
  8
Image
 10
-392.712381352481
 20
-279.650671400487
 42
0.0
  0
VERTEX
  8
Image
 10
-351.692511134514
 20
-271.499946937706
 42
0.0
  0
VERTEX
  8
Image
 10
-367.464643352744
 20
-247.104018440474
 42
0.0
  0
SEQEND
  0
POLYLINE
  8
Image
 66
     1
 10
0.0
 20
0.0
 30
0.0
 70
     1
  0
VERTEX
  8
Image
 10
-348.864954844041
 20
-65.8512475547357
 42
0.0
  0
VERTEX
  8
Image
 10
-369.091694094685
 20
-136.855310492474
 42
0.0
  0
VERTEX
  8
Image
 10
-313.11819787816
 20
-112.294072901703
 42
0.0
  0
VERTEX
  8
Image
 10
-306.237763741399
 20
-73.0454261943549
 42
0.0
  0
SEQEND
  0
POLYLINE
  8
Image
 66
     1
 10
0.0
 20
0.0
 30
0.0
 70
     1
  0
VERTEX
  8
Image
 10
-403.739142871851
 20
-145.967245462498
 42
0.0
  0
VERTEX
  8
Image
 10
-426.71040721667
 20
-197.946940982626
 42
0.0
  0
VERTEX
  8
Image
 10
-383.407694106573
 20
-193.763391143353
 42
0.0
  0
VERTEX
  8
Image
 10
-369.838058731174
 20
-161.083018625157
 42
0.0
  0
SEQEND
  0
POLYLINE
  8
Image
 66
     1
 10
0.0
 20
0.0
 30
0.0
 70
     1
  0
VERTEX
  8
Image
 10
-301.884463554244
 20
-163.391626227865
 42
0.0
  0
VERTEX
  8
Image
 10
-324.483481286368
 20
-219.915411371502
 42
0.0
  0
VERTEX
  8
Image
 10
-360.080941419571
 20
-211.395314589105
 42
0.0
  0
VERTEX
  8
Image
 10
-341.764379528816
 20
-166.938772486129
 42
0.0
  0
SEQEND
  0
POLYLINE
  8
Image
 66
     1
 10
0.0
 20
0.0
 30
0.0
 70
     1
  0
VERTEX
  8
Image
 10
-277.841982972617
 20
-154.608945783154
 42
0.0
  0
VERTEX
  8
Image
 10
-249.864623599742
 20
-124.408800433804
 42
0.0
  0
VERTEX
  8
Image
 10
-288.156185661119
 20
-94.1645538761729
 42
0.0
  0
VERTEX
  8
Image
 10
-304.865826917687
 20
-141.090725630818
 42
0.0
  0
SEQEND
  0
POLYLINE
  8
Image
 66
     1
 10
0.0
 20
0.0
 30
0.0
 70
     1
  0
VERTEX
  8
Image
 10
-280.978275736617
 20
-202.062547059075
 42
0.0
  0
VERTEX
  8
Image
 10
-211.807396957111
 20
-257.006613550458
 42
0.0
  0
VERTEX
  8
Image
 10
-197.376678366843
 20
-195.277629442431
 42
0.0
  0
SEQEND
  0
POLYLINE
  8
Image
 66
     1
 10
0.0
 20
0.0
 30
0.0
 70
     1
  0
VERTEX
  8
Image
 10
-280.824946649948
 20
-184.866237864499
 42
0.0
  0
VERTEX
  8
Image
 10
-194.775876039149
 20
-105.027695387808
 42
0.0
  0
VERTEX
  8
Image
 10
-155.139726636352
 20
-123.757943382252
 42
0.0
  0
VERTEX
  8
Image
 10
-212.74188283121
 20
-163.778072259273
 42
0.0
  0
SEQEND
  0
POLYLINE
  8
Image
 66
     1
 10
0.0
 20
0.0
 30
0.0
 70
     1
  0
VERTEX
  8
Image
 10
-234.797472997993
 20
-34.2611204368198
 42
0.0
  0
VERTEX
  8
Image
 10
-292.819936716384
 20
-33.1802555371415
 42
0.0
  0
VERTEX
  8
Image
 10
-237.070670379784
 20
-112.99250652647
 42
0.0
  0
VERTEX
  8
Image
 10
-212.031060479302
 20
-99.1136851340136
 42
0.0
  0
SEQEND
  0
POLYLINE
  8
Image
 66
     1
 10
0.0
 20
0.0
 30
0.0
 70
     1
  0
VERTEX
  8
Image
 10
-337.057152745074
 20
-371.157647528863
 42
0.0
  0
VERTEX
  8
Image
 10
-269.297540186245
 20
-394.01432036638
 42
0.0
  0
VERTEX
  8
Image
 10
-234.750368893703
 20
-342.148970995152
 42
0.0
  0
SEQEND
  0
POLYLINE
  8
Image
 66
     1
 10
0.0
 20
0.0
 30
0.0
 70
     1
  0
VERTEX
  8
Image
 10
-55.700827719648
 20
-839.504129424572
 42
0.0
  0
VERTEX
  8
Image
 10
-25.2521156429459
 20
-904.374917176644
 42
0.0
  0
VERTEX
  8
Image
 10
-152.939159146206
 20
-940.18330793784
 42
0.0
  0
VERTEX
  8
Image
 10
-111.923317143037
 20
-894.876721255486
 42
0.0
  0
SEQEND
  0
POLYLINE
  8
Image
 66
     1
 10
0.0
 20
0.0
 30
0.0
 70
     1
  0
VERTEX
  8
Image
 10
-424.364300714289
 20
-618.995811477476
 42
0.0
  0
VERTEX
  8
Image
 10
-417.802399467074
 20
-571.600790878382
 42
0.0
  0
VERTEX
  8
Image
 10
-437.560231854925
 20
-573.829851197059
 42
0.0
  0
VERTEX
  8
Image
 10
-461.32396333203
 20
-625.820930936507
 42
0.0
  0
SEQEND
  0
POLYLINE
  8
Image
 66
     1
 10
0.0
 20
0.0
 30
0.0
 70
     1
  0
VERTEX
  8
Image
 10
-427.926400612715
 20
-110.886218056431
 42
0.0
  0
VERTEX
  8
Image
 10
-437.494800654634
 20
-171.446311305087
 42
0.0
  0
VERTEX
  8
Image
 10
-473.982063546919
 20
-171.971272283915
 42
0.0
  0
VERTEX
  8
Image
 10
-465.929152276524
 20
-124.205937445596
 42
0.0
  0
SEQEND
  0
POLYLINE
  8
Image
 66
     1
 10
0.0
 20
0.0
 30
0.0
 70
     1
  0
VERTEX
  8
Image
 10
-245.516490434765
 20
-936.495177629923
 42
0.0
  0
VERTEX
  8
Image
 10
-157.905316334844
 20
-870.030289374635
 42
0.0
  0
VERTEX
  8
Image
 10
-189.940639580372
 20
-956.924358074297
 42
0.0
  0
SEQEND
  0
POLYLINE
  8
Image
 66
     1
 10
0.0
 20
0.0
 30
0.0
 70
     1
  0
VERTEX
  8
Image
 10
-378.888009838044
 20
-898.875154851095
 42
0.0
  0
VERTEX
  8
Image
 10
-372.259149033921
 20
-936.534909602677
 42
0.0
  0
VERTEX
  8
Image
 10
-337.550397195806
 20
-929.638216093507
 42
0.0
  0
VERTEX
  8
Image
 10
-350.653003778054
 20
-909.371441196799
 42
0.0
  0
SEQEND
  0
POLYLINE
  8
Image
 66
     1
 10
0.0
 20
0.0
 30
0.0
 70
     1
  0
VERTEX
  8
Image
 10
-25.4978668213671
 20
-785.291060545765
 42
0.0
  0
VERTEX
  8
Image
 10
-56.3795390688078
 20
-782.927544846924
 42
0.0
  0
VERTEX
  8
Image
 10
-53.1841494988785
 20
-821.310673382943
 42
0.0
  0
VERTEX
  8
Image
 10
-25.4978668213671
 20
-827.38504358255
 42
0.0
  0
SEQEND
  0
POLYLINE
  8
Image
 66
     1
 10
0.0
 20
0.0
 30
0.0
 70
     1
  0
VERTEX
  8
Image
 10
-25.4978668213669
 20
-147.11877900922
 42
0.0
  0
VERTEX
  8
Image
 10
-52.2266669992096
 20
-145.073101614374
 42
0.0
  0
VERTEX
  8
Image
 10
-49.0312774292795
 20
-183.456230150392
 42
0.0
  0
VERTEX
  8
Image
 10
-25.4978668213669
 20
-188.619460250903
 42
0.0
  0
SEQEND
  0
POLYLINE
  8
Image
 66
     1
 10
0.0
 20
0.0
 30
0.0
 70
     1
  0
VERTEX
  8
Image
 10
-25.4978668213669
 20
-230.526908320533
 42
0.0
  0
VERTEX
  8
Image
 10
-25.4978668213669
 20
-261.637389440587
 42
0.0
  0
VERTEX
  8
Image
 10
-49.6215177836878
 20
-283.551831022615
 42
0.0
  0
VERTEX
  8
Image
 10
-86.1553658101375
 20
-232.853318806337
 42
0.0
  0
VERTEX
  8
Image
 10
-50.8983747892801
 20
-206.552982575361
 42
0.0
  0
SEQEND
  0
POLYLINE
  8
Image
 66
     1
 10
0.0
 20
0.0
 30
0.0
 70
     1
  0
VERTEX
  8
Image
 10
-25.4978668213669
 20
-501.899340051529
 42
0.0
  0
VERTEX
  8
Image
 10
-25.4978668213669
 20
-581.162953879518
 42
0.0
  0
VERTEX
  8
Image
 10
-61.7003461890438
 20
-534.867556691129
 42
0.0
  0
SEQEND
  0
POLYLINE
  8
Image
 66
     1
 10
0.0
 20
0.0
 30
0.0
 70
     1
  0
VERTEX
  8
Image
 10
-25.4978668213669
 20
-609.283640955307
 42
0.0
  0
VERTEX
  8
Image
 10
-25.4978668213671
 20
-716.686305992805
 42
0.0
  0
VERTEX
  8
Image
 10
-69.7659649692814
 20
-662.856353441974
 42
0.0
  0
VERTEX
  8
Image
 10
-63.3218269213573
 20
-584.387866358776
 42
0.0
  0
SEQEND
  0
POLYLINE
  8
Image
 66
     1
 10
0.0
 20
0.0
 30
0.0
 70
     1
  0
VERTEX
  8
Image
 10
-473.390570098691
 20
-890.578495940528
 42
0.0
  0
VERTEX
  8
Image
 10
-473.390570098691
 20
-870.638019902096
 42
0.0
  0
VERTEX
  8
Image
 10
-456.308337301245
 20
-878.710308997173
 42
0.0
  0
SEQEND
  0
POLYLINE
  8
Image
 66
     1
 10
0.0
 20
0.0
 30
0.0
 70
     1
  0
VERTEX
  8
Image
 10
-473.390570098691
 20
-695.696847065087
 42
0.0
  0
VERTEX
  8
Image
 10
-473.390570098691
 20
-635.669400899554
 42
0.0
  0
VERTEX
  8
Image
 10
-456.803512100509
 20
-675.908659191791
 42
0.0
  0
SEQEND
  0
POLYLINE
  8
Image
 66
     1
 10
0.0
 20
0.0
 30
0.0
 70
     1
  0
VERTEX
  8
Image
 10
-471.825635226238
 20
-565.764114916343
 42
0.0
  0
VERTEX
  8
Image
 10
-473.390570098691
 20
-480.772766104799
 42
0.0
  0
VERTEX
  8
Image
 10
-430.557286168502
 20
-448.815215919048
 42
0.0
  0
VERTEX
  8
Image
 10
-434.652742250517
 20
-510.176002951632
 42
0.0
  0
SEQEND
  0
POLYLINE
  8
Image
 66
     1
 10
0.0
 20
0.0
 30
0.0
 70
     1
  0
VERTEX
  8
Image
 10
-473.390570098691
 20
-441.903302398733
 42
0.0
  0
VERTEX
  8
Image
 10
-473.390570098691
 20
-392.206369063385
 42
0.0
  0
VERTEX
  8
Image
 10
-435.272290466778
 20
-344.06951453637
 42
0.0
  0
VERTEX
  8
Image
 10
-446.114384251364
 20
-435.510314099623
 42
0.0
  0
SEQEND
  0
POLYLINE
  8
Image
 66
     1
 10
0.0
 20
0.0
 30
0.0
 70
     1
  0
VERTEX
  8
Image
 10
-473.390570098691
 20
-273.990121239481
 42
0.0
  0
VERTEX
  8
Image
 10
-473.390570098691
 20
-214.309200317098
 42
0.0
  0
VERTEX
  8
Image
 10
-457.411998878217
 20
-211.876527890231
 42
0.0
  0
VERTEX
  8
Image
 10
-434.368982566482
 20
-273.329449804951
 42
0.0
  0
SEQEND
  0
POLYLINE
  8
Image
 66
     1
 10
0.0
 20
0.0
 30
0.0
 70
     1
  0
VERTEX
  8
Image
 10
-473.390570098691
 20
-99.8482495548676
 42
0.0
  0
VERTEX
  8
Image
 10
-458.911531414568
 20
-107.091143383152
 42
0.0
  0
VERTEX
  8
Image
 10
-430.934172041693
 20
-76.8909980337945
 42
0.0
  0
VERTEX
  8
Image
 10
-469.22573410307
 20
-46.6467514761686
 42
0.0
  0
VERTEX
  8
Image
 10
-473.390570098691
 20
-58.3429815902408
 42
0.0
  0
SEQEND
  0
POLYLINE
  8
Image
 66
     1
 10
0.0
 20
0.0
 30
0.0
 70
     1
  0
VERTEX
  8
Image
 10
-473.390570098691
 20
-820.999462336188
 42
0.0
  0
VERTEX
  8
Image
 10
-465.852835268124
 20
-831.749045001884
 42
0.0
  0
VERTEX
  8
Image
 10
-440.813225367647
 20
-817.87022360943
 42
0.0
  0
VERTEX
  8
Image
 10
-450.377184339637
 20
-739.632255407224
 42
0.0
  0
VERTEX
  8
Image
 10
-473.390570098691
 20
-771.946788342556
 42
0.0
  0
SEQEND
  0
POLYLINE
  8
Image
 66
     1
 10
0.0
 20
0.0
 30
0.0
 70
     1
  0
VERTEX
  8
Image
 10
-444.449374750788
 20
-888.89417015384
 42
0.0
  0
VERTEX
  8
Image
 10
-464.676114001432
 20
-959.89823309158
 42
0.0
  0
VERTEX
  8
Image
 10
-408.702617784907
 20
-935.33699550081
 42
0.0
  0
VERTEX
  8
Image
 10
-401.822183648147
 20
-896.088348793459
 42
0.0
  0
SEQEND
  0
POLYLINE
  8
Image
 66
     1
 10
0.0
 20
0.0
 30
0.0
 70
     1
  0
VERTEX
  8
Image
 10
-420.292789721614
 20
-974.999995855
 42
0.0
  0
VERTEX
  8
Image
 10
-389.163172767404
 20
-974.999995855
 42
0.0
  0
VERTEX
  8
Image
 10
-413.459469539535
 20
-955.809783953071
 42
0.0
  0
SEQEND
  0
POLYLINE
  8
Image
 66
     1
 10
0.0
 20
0.0
 30
0.0
 70
     1
  0
VERTEX
  8
Image
 10
-351.613324098528
 20
-974.999995855
 42
0.0
  0
VERTEX
  8
Image
 10
-305.062727273804
 20
-974.999995855
 42
0.0
  0
VERTEX
  8
Image
 10
-302.064263570912
 20
-957.895603864552
 42
0.0
  0
VERTEX
  8
Image
 10
-344.691454673553
 20
-950.701425224933
 42
0.0
  0
SEQEND
  0
POLYLINE
  8
Image
 66
     1
 10
0.0
 20
0.0
 30
0.0
 70
     1
  0
VERTEX
  8
Image
 10
-283.317330517111
 20
-974.999995855
 42
0.0
  0
VERTEX
  8
Image
 10
-235.338317043787
 20
-974.999995855
 42
0.0
  0
VERTEX
  8
Image
 10
-272.785367930942
 20
-945.422778867311
 42
0.0
  0
SEQEND
  0
POLYLINE
  8
Image
 66
     1
 10
0.0
 20
0.0
 30
0.0
 70
     1
  0
VERTEX
  8
Image
 10
-47.2421159146238
 20
-974.999995855
 42
0.0
  0
VERTEX
  8
Image
 10
-104.152006554705
 20
-974.999995855
 42
0.0
  0
VERTEX
  8
Image
 10
-82.1909498365637
 20
-940.494961860333
 42
0.0
  0
SEQEND
  0
POLYLINE
  8
Image
 66
     1
 10
0.0
 20
0.0
 30
0.0
 70
     1
  0
VERTEX
  8
Image
 10
-473.390570098691
 20
-333.757160142411
 42
0.0
  0
VERTEX
  8
Image
 10
-473.390570098691
 20
-313.816684103978
 42
0.0
  0
VERTEX
  8
Image
 10
-456.308337301245
 20
-321.888973199055
 42
0.0
  0
SEQEND
  0
POLYLINE
  8
Image
 66
     1
 10
0.0
 20
0.0
 30
0.0
 70
     1
  0
VERTEX
  8
Image
 10
-473.390570098691
 20
588.841344083561
 42
0.0
  0
VERTEX
  8
Image
 10
-473.390570098691
 20
608.781820121993
 42
0.0
  0
VERTEX
  8
Image
 10
-456.308337301245
 20
600.709531026916
 42
0.0
  0
SEQEND
  0
POLYLINE
  8
Image
 66
     1
 10
0.0
 20
0.0
 30
0.0
 70
     1
  0
VERTEX
  8
Image
 10
-21.5914948213381
 20
-90.5093462527151
 42
0.0
  0
VERTEX
  8
Image
 10
-21.5914948213381
 20
-70.5688702142829
 42
0.0
  0
VERTEX
  8
Image
 10
-38.6737276187844
 20
-78.6411593093595
 42
0.0
  0
SEQEND
  0
POLYLINE
  8
Image
 66
     1
 10
0.0
 20
0.0
 30
0.0
 70
     1
  0
VERTEX
  8
Image
 10
149.049150432105
 20
537.193043488387
 42
0.0
  0
VERTEX
  8
Image
 10
148.470935317554
 20
582.481109953992
 42
0.0
  0
VERTEX
  8
Image
 10
100.915190390598
 20
624.470581059672
 42
0.0
  0
VERTEX
  8
Image
 10
83.235702886936
 20
624.803033069049
 42
0.0
  0
VERTEX
  8
Image
 10
98.640737320236
 20
526.304940047453
 42
0.0
  0
SEQEND
  0
POLYLINE
  8
Image
 66
     1
 10
0.0
 20
0.0
 30
0.0
 70
     1
  0
VERTEX
  8
Image
 10
206.818947978164
 20
485.005257975787
 42
0.0
  0
VERTEX
  8
Image
 10
312.400364156581
 20
486.820954347324
 42
0.0
  0
VERTEX
  8
Image
 10
268.394086383666
 20
406.311799099957
 42
0.0
  0
VERTEX
  8
Image
 10
205.007958819211
 20
432.444871262077
 42
0.0
  0
SEQEND
  0
POLYLINE
  8
Image
 66
     1
 10
0.0
 20
0.0
 30
0.0
 70
     1
  0
VERTEX
  8
Image
 10
140.995365129
 20
340.955295684548
 42
0.0
  0
VERTEX
  8
Image
 10
181.332290030407
 20
297.07435558163
 42
0.0
  0
VERTEX
  8
Image
 10
150.531364757754
 20
284.04155353446
 42
0.0
  0
VERTEX
  8
Image
 10
79.2632582534011
 20
295.77726345518
 42
0.0
  0
SEQEND
  0
POLYLINE
  8
Image
 66
     1
 10
0.0
 20
0.0
 30
0.0
 70
     1
  0
VERTEX
  8
Image
 10
392.06607744513
 20
508.793589164218
 42
0.0
  0
VERTEX
  8
Image
 10
469.354855244325
 20
527.419671988705
 42
0.0
  0
VERTEX
  8
Image
 10
473.982063546919
 20
484.188153751171
 42
0.0
  0
VERTEX
  8
Image
 10
435.96464450246
 20
427.36480588027
 42
0.0
  0
SEQEND
  0
POLYLINE
  8
Image
 66
     1
 10
0.0
 20
0.0
 30
0.0
 70
     1
  0
VERTEX
  8
Image
 10
416.791115083465
 20
250.807593253184
 42
0.0
  0
VERTEX
  8
Image
 10
456.374253455686
 20
211.727103809681
 42
0.0
  0
VERTEX
  8
Image
 10
404.73502499838
 20
106.737030087635
 42
0.0
  0
VERTEX
  8
Image
 10
371.792871994895
 20
180.106719092206
 42
0.0
  0
SEQEND
  0
POLYLINE
  8
Image
 66
     1
 10
0.0
 20
0.0
 30
0.0
 70
     1
  0
VERTEX
  8
Image
 10
346.494548048315
 20
169.682785689243
 42
0.0
  0
VERTEX
  8
Image
 10
382.237944898441
 20
107.590166006293
 42
0.0
  0
VERTEX
  8
Image
 10
374.203273434165
 20
61.5208263987722
 42
0.0
  0
VERTEX
  8
Image
 10
326.454157779913
 20
114.54598039965
 42
0.0
  0
SEQEND
  0
POLYLINE
  8
Image
 66
     1
 10
0.0
 20
0.0
 30
0.0
 70
     1
  0
VERTEX
  8
Image
 10
213.398015967501
 20
108.114212230885
 42
0.0
  0
VERTEX
  8
Image
 10
247.53458344363
 20
45.1280854892449
 42
0.0
  0
VERTEX
  8
Image
 10
198.622350109625
 20
-5.1982786205203
 42
0.0
  0
VERTEX
  8
Image
 10
172.921545604676
 20
40.7699906738777
 42
0.0
  0
SEQEND
  0
POLYLINE
  8
Image
 66
     1
 10
0.0
 20
0.0
 30
0.0
 70
     1
  0
VERTEX
  8
Image
 10
92.2352914034072
 20
96.0594197695102
 42
0.0
  0
VERTEX
  8
Image
 10
100.133013949916
 20
51.1910324272058
 42
0.0
  0
VERTEX
  8
Image
 10
141.152884167883
 20
59.3417568899782
 42
0.0
  0
VERTEX
  8
Image
 10
125.380751949653
 20
83.7376853872168
 42
0.0
  0
SEQEND
  0
POLYLINE
  8
Image
 66
     1
 10
0.0
 20
0.0
 30
0.0
 70
     1
  0
VERTEX
  8
Image
 10
154.290610246476
 20
253.834323368217
 42
0.0
  0
VERTEX
  8
Image
 10
134.063870995832
 20
182.830260430477
 42
0.0
  0
VERTEX
  8
Image
 10
190.037367212356
 20
207.391498021247
 42
0.0
  0
VERTEX
  8
Image
 10
196.917801349118
 20
246.640144728598
 42
0.0
  0
SEQEND
  0
POLYLINE
  8
Image
 66
     1
 10
0.0
 20
0.0
 30
0.0
 70
     1
  0
VERTEX
  8
Image
 10
104.010070014112
 20
153.491143921541
 42
0.0
  0
VERTEX
  8
Image
 10
69.480883172135
 20
145.030286881395
 42
0.0
  0
VERTEX
  8
Image
 10
118.529983899719
 20
118.921106124736
 42
0.0
  0
VERTEX
  8
Image
 10
133.317506359341
 20
158.602552297788
 42
0.0
  0
SEQEND
  0
POLYLINE
  8
Image
 66
     1
 10
0.0
 20
0.0
 30
0.0
 70
     1
  0
VERTEX
  8
Image
 10
201.271101536271
 20
156.293944695085
 42
0.0
  0
VERTEX
  8
Image
 10
178.672083804147
 20
99.7701595514444
 42
0.0
  0
VERTEX
  8
Image
 10
143.074623670945
 20
108.290256333842
 42
0.0
  0
VERTEX
  8
Image
 10
161.3911855617
 20
152.746798436822
 42
0.0
  0
SEQEND
  0
POLYLINE
  8
Image
 66
     1
 10
0.0
 20
0.0
 30
0.0
 70
     1
  0
VERTEX
  8
Image
 10
225.3135821179
 20
165.076625139789
 42
0.0
  0
VERTEX
  8
Image
 10
253.290941490777
 20
195.276770489148
 42
0.0
  0
VERTEX
  8
Image
 10
214.999379429398
 20
225.52101704677
 42
0.0
  0
VERTEX
  8
Image
 10
198.289738172829
 20
178.594845292133
 42
0.0
  0
SEQEND
  0
POLYLINE
  8
Image
 66
     1
 10
0.0
 20
0.0
 30
0.0
 70
     1
  0
VERTEX
  8
Image
 10
229.93881124212
 20
525.421423384863
 42
0.0
  0
VERTEX
  8
Image
 10
345.250248755675
 20
595.551645536691
 42
0.0
  0
VERTEX
  8
Image
 10
313.214925510147
 20
508.657576837026
 42
0.0
  0
SEQEND
  0
POLYLINE
  8
Image
 66
     1
 10
0.0
 20
0.0
 30
0.0
 70
     1
  0
VERTEX
  8
Image
 10
244.719192114398
 20
110.254561502083
 42
0.0
  0
VERTEX
  8
Image
 10
290.29646709036
 20
53.8157912062564
 42
0.0
  0
VERTEX
  8
Image
 10
295.128673230691
 20
137.205058978716
 42
0.0
  0
SEQEND
  0
POLYLINE
  8
Image
 66
     1
 10
0.0
 20
0.0
 30
0.0
 70
     1
  0
VERTEX
  8
Image
 10
86.5918210245045
 20
403.881508079918
 42
0.0
  0
VERTEX
  8
Image
 10
142.771354932017
 20
366.164687061318
 42
0.0
  0
VERTEX
  8
Image
 10
177.318526224564
 20
418.030036432556
 42
0.0
  0
SEQEND
  0
POLYLINE
  8
Image
 66
     1
 10
0.0
 20
0.0
 30
0.0
 70
     1
  0
VERTEX
  8
Image
 10
349.395277434878
 20
493.026269252198
 42
0.0
  0
VERTEX
  8
Image
 10
317.095945691903
 20
421.594491122636
 42
0.0
  0
VERTEX
  8
Image
 10
399.441734658712
 20
383.509776106043
 42
0.0
  0
VERTEX
  8
Image
 10
404.540405317121
 20
424.703281191713
 42
0.0
  0
SEQEND
  0
POLYLINE
  8
Image
 66
     1
 10
0.0
 20
0.0
 30
0.0
 70
     1
  0
VERTEX
  8
Image
 10
222.330618440568
 20
134.819333058444
 42
0.0
  0
VERTEX
  8
Image
 10
305.105098841479
 20
215.085291757176
 42
0.0
  0
VERTEX
  8
Image
 10
361.347799091348
 20
197.169437465362
 42
0.0
  0
VERTEX
  8
Image
 10
290.413682259309
 20
155.907498663679
 42
0.0
  0
SEQEND
  0
POLYLINE
  8
Image
 66
     1
 10
0.0
 20
0.0
 30
0.0
 70
     1
  0
VERTEX
  8
Image
 10
288.686111359024
 20
315.022827486313
 42
0.0
  0
VERTEX
  8
Image
 10
248.341248214923
 20
258.372084197549
 42
0.0
  0
VERTEX
  8
Image
 10
273.210460430537
 20
222.906037891656
 42
0.0
  0
VERTEX
  8
Image
 10
298.250070331009
 20
236.784859284102
 42
0.0
  0
SEQEND
  0
POLYLINE
  8
Image
 66
     1
 10
0.0
 20
0.0
 30
0.0
 70
     1
  0
VERTEX
  8
Image
 10
122.983103984079
 20
966.464767127421
 42
0.0
  0
VERTEX
  8
Image
 10
177.15878985992
 20
912.4579343465
 42
0.0
  0
VERTEX
  8
Image
 10
146.357864587268
 20
899.42513229933
 42
0.0
  0
VERTEX
  8
Image
 10
82.2787857819744
 20
925.969047202031
 42
0.0
  0
SEQEND
  0
POLYLINE
  8
Image
 66
     1
 10
0.0
 20
0.0
 30
0.0
 70
     1
  0
VERTEX
  8
Image
 10
412.617614912986
 20
866.191172018044
 42
0.0
  0
VERTEX
  8
Image
 10
452.200753285197
 20
827.110682574551
 42
0.0
  0
VERTEX
  8
Image
 10
402.059374666005
 20
753.246585932734
 42
0.0
  0
VERTEX
  8
Image
 10
374.330559520854
 20
820.515112689285
 42
0.0
  0
SEQEND
  0
POLYLINE
  8
Image
 66
     1
 10
0.0
 20
0.0
 30
0.0
 70
     1
  0
VERTEX
  8
Image
 10
342.321047877826
 20
785.066364454114
 42
0.0
  0
VERTEX
  8
Image
 10
388.980803309104
 20
724.163863250756
 42
0.0
  0
VERTEX
  8
Image
 10
367.889576715736
 20
692.286046197742
 42
0.0
  0
VERTEX
  8
Image
 10
322.280657609424
 20
729.929559164511
 42
0.0
  0
SEQEND
  0
POLYLINE
  8
Image
 66
     1
 10
0.0
 20
0.0
 30
0.0
 70
     1
  0
VERTEX
  8
Image
 10
364.213894175399
 20
671.619276727152
 42
0.0
  0
VERTEX
  8
Image
 10
413.247795514701
 20
666.496382327016
 42
0.0
  0
VERTEX
  8
Image
 10
414.046166379505
 20
640.220716923664
 42
0.0
  0
VERTEX
  8
Image
 10
362.238829664335
 20
590.452112365646
 42
0.0
  0
SEQEND
  0
POLYLINE
  8
Image
 66
     1
 10
0.0
 20
0.0
 30
0.0
 70
     1
  0
VERTEX
  8
Image
 10
289.093953432954
 20
603.168200676007
 42
0.0
  0
VERTEX
  8
Image
 10
261.106191875654
 20
650.367234841734
 42
0.0
  0
VERTEX
  8
Image
 10
327.421524945529
 20
679.503473527406
 42
0.0
  0
VERTEX
  8
Image
 10
325.309714400369
 20
605.332625644287
 42
0.0
  0
SEQEND
  0
POLYLINE
  8
Image
 66
     1
 10
0.0
 20
0.0
 30
0.0
 70
     1
  0
VERTEX
  8
Image
 10
209.224515797015
 20
723.497790995755
 42
0.0
  0
VERTEX
  8
Image
 10
243.361083273143
 20
660.511664254106
 42
0.0
  0
VERTEX
  8
Image
 10
187.278694082844
 20
592.755541372049
 42
0.0
  0
VERTEX
  8
Image
 10
168.748045434188
 20
656.153569438745
 42
0.0
  0
SEQEND
  0
POLYLINE
  8
Image
 66
     1
 10
0.0
 20
0.0
 30
0.0
 70
     1
  0
VERTEX
  8
Image
 10
77.2449635759704
 20
689.496057989753
 42
0.0
  0
VERTEX
  8
Image
 10
106.269683567549
 20
655.418478287326
 42
0.0
  0
VERTEX
  8
Image
 10
147.289553785515
 20
663.569202750107
 42
0.0
  0
VERTEX
  8
Image
 10
131.517421567285
 20
687.965131247339
 42
0.0
  0
SEQEND
  0
POLYLINE
  8
Image
 66
     1
 10
0.0
 20
0.0
 30
0.0
 70
     1
  0
VERTEX
  8
Image
 10
150.117110075988
 20
869.217902133078
 42
0.0
  0
VERTEX
  8
Image
 10
129.890370825344
 20
798.213839195339
 42
0.0
  0
VERTEX
  8
Image
 10
185.863867041869
 20
822.775076786111
 42
0.0
  0
VERTEX
  8
Image
 10
192.74430117863
 20
862.023723493459
 42
0.0
  0
SEQEND
  0
POLYLINE
  8
Image
 66
     1
 10
0.0
 20
0.0
 30
0.0
 70
     1
  0
VERTEX
  8
Image
 10
95.2429220481781
 20
789.101904225315
 42
0.0
  0
VERTEX
  8
Image
 10
72.2716577033593
 20
737.122208705188
 42
0.0
  0
VERTEX
  8
Image
 10
115.574370813456
 20
741.305758544461
 42
0.0
  0
VERTEX
  8
Image
 10
129.144006188855
 20
773.986131062656
 42
0.0
  0
SEQEND
  0
POLYLINE
  8
Image
 66
     1
 10
0.0
 20
0.0
 30
0.0
 70
     1
  0
VERTEX
  8
Image
 10
197.097601365785
 20
771.677523459949
 42
0.0
  0
VERTEX
  8
Image
 10
174.498583633661
 20
715.153738316311
 42
0.0
  0
VERTEX
  8
Image
 10
138.901123500458
 20
723.673835098709
 42
0.0
  0
VERTEX
  8
Image
 10
157.217685391213
 20
768.130377201685
 42
0.0
  0
SEQEND
  0
POLYLINE
  8
Image
 66
     1
 10
0.0
 20
0.0
 30
0.0
 70
     1
  0
VERTEX
  8
Image
 10
221.140081947413
 20
780.460203904659
 42
0.0
  0
VERTEX
  8
Image
 10
249.117441320287
 20
810.660349254009
 42
0.0
  0
VERTEX
  8
Image
 10
210.82587925891
 20
840.904595811641
 42
0.0
  0
VERTEX
  8
Image
 10
194.116238002342
 20
793.978424056995
 42
0.0
  0
SEQEND
  0
POLYLINE
  8
Image
 66
     1
 10
0.0
 20
0.0
 30
0.0
 70
     1
  0
VERTEX
  8
Image
 10
218.003789183412
 20
733.006602628739
 42
0.0
  0
VERTEX
  8
Image
 10
287.174667962918
 20
678.062536137356
 42
0.0
  0
VERTEX
  8
Image
 10
301.605386553186
 20
739.791520245382
 42
0.0
  0
SEQEND
  0
POLYLINE
  8
Image
 66
     1
 10
0.0
 20
0.0
 30
0.0
 70
     1
  0
VERTEX
  8
Image
 10
218.157118270081
 20
750.202911823314
 42
0.0
  0
VERTEX
  8
Image
 10
304.20618888088
 20
830.041454300005
 42
0.0
  0
VERTEX
  8
Image
 10
343.842338283677
 20
811.311206305562
 42
0.0
  0
VERTEX
  8
Image
 10
286.24018208882
 20
771.291077428541
 42
0.0
  0
SEQEND
  0
POLYLINE
  8
Image
 66
     1
 10
0.0
 20
0.0
 30
0.0
 70
     1
  0
VERTEX
  8
Image
 10
284.512611188535
 20
930.406406251175
 42
0.0
  0
VERTEX
  8
Image
 10
244.167748044437
 20
873.755662962419
 42
0.0
  0
VERTEX
  8
Image
 10
269.036960260047
 20
838.289616656516
 42
0.0
  0
VERTEX
  8
Image
 10
294.07657016053
 20
852.168438048973
 42
0.0
  0
SEQEND
  0
POLYLINE
  8
Image
 66
     1
 10
0.0
 20
0.0
 30
0.0
 70
     1
  0
VERTEX
  8
Image
 10
161.924912174955
 20
563.91150215895
 42
0.0
  0
VERTEX
  8
Image
 10
229.684524733784
 20
541.054829321433
 42
0.0
  0
VERTEX
  8
Image
 10
264.231696026326
 20
592.920178692661
 42
0.0
  0
SEQEND
  0
POLYLINE
  8
Image
 66
     1
 10
0.0
 20
0.0
 30
0.0
 70
     1
  0
VERTEX
  8
Image
 10
443.281237200381
 20
95.5650202632414
 42
0.0
  0
VERTEX
  8
Image
 10
473.729949277083
 20
30.6942325111698
 42
0.0
  0
VERTEX
  8
Image
 10
346.042905773824
 20
-5.1141582500272
 42
0.0
  0
VERTEX
  8
Image
 10
387.058747776992
 20
40.1924284323273
 42
0.0
  0
SEQEND
  0
POLYLINE
  8
Image
 66
     1
 10
0.0
 20
0.0
 30
0.0
 70
     1
  0
VERTEX
  8
Image
 10
74.6177642057401
 20
316.073338210338
 42
0.0
  0
VERTEX
  8
Image
 10
81.1796654529558
 20
363.468358809432
 42
0.0
  0
VERTEX
  8
Image
 10
61.4218330651038
 20
361.239298490754
 42
0.0
  0
VERTEX
  8
Image
 10
37.658101587999
 20
309.248218751307
 42
0.0
  0
SEQEND
  0
POLYLINE
  8
Image
 66
     1
 10
0.0
 20
0.0
 30
0.0
 70
     1
  0
VERTEX
  8
Image
 10
71.0556643073141
 20
824.182931631382
 42
0.0
  0
VERTEX
  8
Image
 10
61.487264265395
 20
763.622838382726
 42
0.0
  0
VERTEX
  8
Image
 10
25.0000013731103
 20
763.097877403898
 42
0.0
  0
VERTEX
  8
Image
 10
33.0529126435056
 20
810.863212242218
 42
0.0
  0
SEQEND
  0
POLYLINE
  8
Image
 66
     1
 10
0.0
 20
0.0
 30
0.0
 70
     1
  0
VERTEX
  8
Image
 10
253.465574485264
 20
-1.4260279421096
 42
0.0
  0
VERTEX
  8
Image
 10
341.076748585185
 20
65.0388603131784
 42
0.0
  0
VERTEX
  8
Image
 10
309.041425339657
 20
-21.8552083864835
 42
0.0
  0
SEQEND
  0
POLYLINE
  8
Image
 66
     1
 10
0.0
 20
0.0
 30
0.0
 70
     1
  0
VERTEX
  8
Image
 10
316.556081356539
 20
-51.3560620372169
 42
0.0
  0
VERTEX
  8
Image
 10
323.184942160662
 20
-89.0158167887995
 42
0.0
  0
VERTEX
  8
Image
 10
357.893693998778
 20
-82.1191232796294
 42
0.0
  0
VERTEX
  8
Image
 10
344.791087416529
 20
-61.8523483829213
 42
0.0
  0
SEQEND
  0
POLYLINE
  8
Image
 66
     1
 10
0.0
 20
0.0
 30
0.0
 70
     1
  0
VERTEX
  8
Image
 10
473.484198098662
 20
149.778089142049
 42
0.0
  0
VERTEX
  8
Image
 10
442.602525851221
 20
152.14160484089
 42
0.0
  0
VERTEX
  8
Image
 10
445.797915421151
 20
113.758476304871
 42
0.0
  0
VERTEX
  8
Image
 10
473.484198098662
 20
107.684106105263
 42
0.0
  0
SEQEND
  0
POLYLINE
  8
Image
 66
     1
 10
0.0
 20
0.0
 30
0.0
 70
     1
  0
VERTEX
  8
Image
 10
473.484198098662
 20
787.950370678594
 42
0.0
  0
VERTEX
  8
Image
 10
446.75539792082
 20
789.996048073439
 42
0.0
  0
VERTEX
  8
Image
 10
449.950787490749
 20
751.612919537422
 42
0.0
  0
VERTEX
  8
Image
 10
473.484198098662
 20
746.44968943691
 42
0.0
  0
SEQEND
  0
POLYLINE
  8
Image
 66
     1
 10
0.0
 20
0.0
 30
0.0
 70
     1
  0
VERTEX
  8
Image
 10
473.484198098662
 20
704.54224136728
 42
0.0
  0
VERTEX
  8
Image
 10
473.484198098662
 20
673.431760247227
 42
0.0
  0
VERTEX
  8
Image
 10
449.360547136341
 20
651.517318665198
 42
0.0
  0
VERTEX
  8
Image
 10
412.826699109892
 20
702.215830881477
 42
0.0
  0
VERTEX
  8
Image
 10
448.083690130749
 20
728.516167112452
 42
0.0
  0
SEQEND
  0
POLYLINE
  8
Image
 66
     1
 10
0.0
 20
0.0
 30
0.0
 70
     1
  0
VERTEX
  8
Image
 10
473.484198098662
 20
433.169809636285
 42
0.0
  0
VERTEX
  8
Image
 10
473.484198098662
 20
353.906195808296
 42
0.0
  0
VERTEX
  8
Image
 10
437.281718730985
 20
400.201592996684
 42
0.0
  0
SEQEND
  0
POLYLINE
  8
Image
 66
     1
 10
0.0
 20
0.0
 30
0.0
 70
     1
  0
VERTEX
  8
Image
 10
473.484198098662
 20
325.785508732506
 42
0.0
  0
VERTEX
  8
Image
 10
473.484198098662
 20
218.382843695008
 42
0.0
  0
VERTEX
  8
Image
 10
429.216099950748
 20
272.21279624584
 42
0.0
  0
VERTEX
  8
Image
 10
435.660237998672
 20
350.681283329037
 42
0.0
  0
SEQEND
  0
POLYLINE
  8
Image
 66
     1
 10
0.0
 20
0.0
 30
0.0
 70
     1
  0
VERTEX
  8
Image
 10
470.229435624867
 20
-45.0697692170464
 42
0.0
  0
VERTEX
  8
Image
 10
382.265395278763
 20
-51.5549588316713
 42
0.0
  0
VERTEX
  8
Image
 10
353.760816222538
 20
-26.0426556580093
 42
0.0
  0
VERTEX
  8
Image
 10
466.199293033807
 20
-7.4165728335165
 42
0.0
  0
SEQEND
  0
POLYLINE
  8
Image
 66
     1
 10
0.0
 20
0.0
 30
0.0
 70
     1
  0
VERTEX
  8
Image
 10
25.5914948213381
 20
49.490653747285
 42
0.0
  0
VERTEX
  8
Image
 10
25.5914948213381
 20
69.4311297857171
 42
0.0
  0
VERTEX
  8
Image
 10
42.6737276187841
 20
61.3588406906405
 42
0.0
  0
SEQEND
  0
POLYLINE
  8
Image
 66
     1
 10
0.0
 20
0.0
 30
0.0
 70
     1
  0
VERTEX
  8
Image
 10
25.5914948213381
 20
239.372302622726
 42
0.0
  0
VERTEX
  8
Image
 10
25.5914948213381
 20
299.399748788259
 42
0.0
  0
VERTEX
  8
Image
 10
42.1785528195205
 20
259.160490496022
 42
0.0
  0
SEQEND
  0
POLYLINE
  8
Image
 66
     1
 10
0.0
 20
0.0
 30
0.0
 70
     1
  0
VERTEX
  8
Image
 10
27.1564296937909
 20
369.30503477147
 42
0.0
  0
VERTEX
  8
Image
 10
25.5914948213381
 20
454.296383583014
 42
0.0
  0
VERTEX
  8
Image
 10
68.4247787515267
 20
486.253933768766
 42
0.0
  0
VERTEX
  8
Image
 10
64.3293226695121
 20
424.893146736182
 42
0.0
  0
SEQEND
  0
POLYLINE
  8
Image
 66
     1
 10
0.0
 20
0.0
 30
0.0
 70
     1
  0
VERTEX
  8
Image
 10
25.5914948213381
 20
493.16584728908
 42
0.0
  0
VERTEX
  8
Image
 10
25.5914948213381
 20
542.862780624429
 42
0.0
  0
VERTEX
  8
Image
 10
63.7097744532507
 20
590.999635151444
 42
0.0
  0
VERTEX
  8
Image
 10
52.8676806686649
 20
499.558835588191
 42
0.0
  0
SEQEND
  0
POLYLINE
  8
Image
 66
     1
 10
0.0
 20
0.0
 30
0.0
 70
     1
  0
VERTEX
  8
Image
 10
25.5914948213381
 20
661.079028448333
 42
0.0
  0
VERTEX
  8
Image
 10
25.5914948213381
 20
720.759949370715
 42
0.0
  0
VERTEX
  8
Image
 10
41.570066041812
 20
723.192621797582
 42
0.0
  0
VERTEX
  8
Image
 10
64.6130823535468
 20
661.739699882863
 42
0.0
  0
SEQEND
  0
POLYLINE
  8
Image
 66
     1
 10
0.0
 20
0.0
 30
0.0
 70
     1
  0
VERTEX
  8
Image
 10
297.318324965794
 20
975.266695646081
 42
0.0
  0
VERTEX
  8
Image
 10
366.881889327797
 20
975.266695646081
 42
0.0
  0
VERTEX
  8
Image
 10
366.636147639337
 20
971.061364066268
 42
0.0
  0
VERTEX
  8
Image
 10
338.598240520747
 20
955.638772266681
 42
0.0
  0
VERTEX
  8
Image
 10
286.601078435762
 20
959.241360966932
 42
0.0
  0
SEQEND
  0
POLYLINE
  8
Image
 66
     1
 10
0.0
 20
0.0
 30
0.0
 70
     1
  0
VERTEX
  8
Image
 10
473.484198098662
 20
938.422084823708
 42
0.0
  0
VERTEX
  8
Image
 10
431.317062925055
 20
977.1577635
 42
0.0
  0
VERTEX
  8
Image
 10
425.042599780268
 20
887.596375010701
 42
0.0
  0
VERTEX
  8
Image
 10
471.140779666591
 20
831.541045331315
 42
0.0
  0
VERTEX
  8
Image
 10
473.484198098662
 20
849.857531402056
 42
0.0
  0
SEQEND
  0
POLYLINE
  8
Image
 66
     1
 10
0.0
 20
0.0
 30
0.0
 70
     1
  0
VERTEX
  8
Image
 10
25.5914948213381
 20
869.808576922649
 42
0.0
  0
VERTEX
  8
Image
 10
40.0705335054615
 20
862.565683094365
 42
0.0
  0
VERTEX
  8
Image
 10
68.0478928783361
 20
892.765828443722
 42
0.0
  0
VERTEX
  8
Image
 10
29.7563308169592
 20
923.010075001348
 42
0.0
  0
VERTEX
  8
Image
 10
25.5914948213381
 20
911.313844887276
 42
0.0
  0
SEQEND
  0
POLYLINE
  8
Image
 66
     1
 10
0.0
 20
0.0
 30
0.0
 70
     1
  0
VERTEX
  8
Image
 10
25.5914948213381
 20
114.069687351626
 42
0.0
  0
VERTEX
  8
Image
 10
33.1292296519055
 20
103.32010468593
 42
0.0
  0
VERTEX
  8
Image
 10
58.1688395523827
 20
117.198926078383
 42
0.0
  0
VERTEX
  8
Image
 10
48.6048805803921
 20
195.436894280589
 42
0.0
  0
VERTEX
  8
Image
 10
25.5914948213381
 20
163.122361345257
 42
0.0
  0
SEQEND
  0
POLYLINE
  8
Image
 66
     1
 10
0.0
 20
0.0
 30
0.0
 70
     1
  0
VERTEX
  8
Image
 10
150.067088392076
 20
-397.876106199426
 42
0.0
  0
VERTEX
  8
Image
 10
149.488873277525
 20
-352.588039733822
 42
0.0
  0
VERTEX
  8
Image
 10
101.93312835057
 20
-310.598568628141
 42
0.0
  0
VERTEX
  8
Image
 10
84.2536408469075
 20
-310.266116618764
 42
0.0
  0
VERTEX
  8
Image
 10
99.6586752802073
 20
-408.764209640361
 42
0.0
  0
SEQEND
  0
POLYLINE
  8
Image
 66
     1
 10
0.0
 20
0.0
 30
0.0
 70
     1
  0
VERTEX
  8
Image
 10
207.836885938136
 20
-450.063891712027
 42
0.0
  0
VERTEX
  8
Image
 10
313.418302116552
 20
-448.24819534049
 42
0.0
  0
VERTEX
  8
Image
 10
269.412024343638
 20
-528.757350587857
 42
0.0
  0
VERTEX
  8
Image
 10
206.025896779183
 20
-502.624278425736
 42
0.0
  0
SEQEND
  0
POLYLINE
  8
Image
 66
     1
 10
0.0
 20
0.0
 30
0.0
 70
     1
  0
VERTEX
  8
Image
 10
142.013303088971
 20
-594.113854003266
 42
0.0
  0
VERTEX
  8
Image
 10
182.350227990378
 20
-637.994794106183
 42
0.0
  0
VERTEX
  8
Image
 10
151.549302717726
 20
-651.027596153354
 42
0.0
  0
VERTEX
  8
Image
 10
80.2811962133724
 20
-639.291886232633
 42
0.0
  0
SEQEND
  0
POLYLINE
  8
Image
 66
     1
 10
0.0
 20
0.0
 30
0.0
 70
     1
  0
VERTEX
  8
Image
 10
393.084015405102
 20
-426.275560523595
 42
0.0
  0
VERTEX
  8
Image
 10
470.372793204297
 20
-407.649477699108
 42
0.0
  0
VERTEX
  8
Image
 10
475.00000150689
 20
-450.880995936642
 42
0.0
  0
VERTEX
  8
Image
 10
436.982582462432
 20
-507.704343807543
 42
0.0
  0
SEQEND
  0
POLYLINE
  8
Image
 66
     1
 10
0.0
 20
0.0
 30
0.0
 70
     1
  0
VERTEX
  8
Image
 10
417.809053043437
 20
-684.26155643463
 42
0.0
  0
VERTEX
  8
Image
 10
457.392191415658
 20
-723.342045878132
 42
0.0
  0
VERTEX
  8
Image
 10
405.752962958351
 20
-828.332119600178
 42
0.0
  0
VERTEX
  8
Image
 10
372.810809954866
 20
-754.962430595608
 42
0.0
  0
SEQEND
  0
POLYLINE
  8
Image
 66
     1
 10
0.0
 20
0.0
 30
0.0
 70
     1
  0
VERTEX
  8
Image
 10
347.512486008286
 20
-765.38636399857
 42
0.0
  0
VERTEX
  8
Image
 10
383.255882858412
 20
-827.478983681521
 42
0.0
  0
VERTEX
  8
Image
 10
375.221211394136
 20
-873.548323289041
 42
0.0
  0
VERTEX
  8
Image
 10
327.472095739884
 20
-820.523169288163
 42
0.0
  0
SEQEND
  0
POLYLINE
  8
Image
 66
     1
 10
0.0
 20
0.0
 30
0.0
 70
     1
  0
VERTEX
  8
Image
 10
214.415953927473
 20
-826.954937456928
 42
0.0
  0
VERTEX
  8
Image
 10
248.552521403601
 20
-889.941064198568
 42
0.0
  0
VERTEX
  8
Image
 10
199.640288069596
 20
-940.267428308334
 42
0.0
  0
VERTEX
  8
Image
 10
173.939483564647
 20
-894.299159013936
 42
0.0
  0
SEQEND
  0
POLYLINE
  8
Image
 66
     1
 10
0.0
 20
0.0
 30
0.0
 70
     1
  0
VERTEX
  8
Image
 10
93.253229363379
 20
-839.009729918303
 42
0.0
  0
VERTEX
  8
Image
 10
101.150951909888
 20
-883.878117260608
 42
0.0
  0
VERTEX
  8
Image
 10
142.170822127855
 20
-875.727392797835
 42
0.0
  0
VERTEX
  8
Image
 10
126.398689909624
 20
-851.331464300597
 42
0.0
  0
SEQEND
  0
POLYLINE
  8
Image
 66
     1
 10
0.0
 20
0.0
 30
0.0
 70
     1
  0
VERTEX
  8
Image
 10
155.308548206447
 20
-681.234826319596
 42
0.0
  0
VERTEX
  8
Image
 10
135.081808955803
 20
-752.238889257336
 42
0.0
  0
VERTEX
  8
Image
 10
191.055305172328
 20
-727.677651666566
 42
0.0
  0
VERTEX
  8
Image
 10
197.935739309089
 20
-688.429004959215
 42
0.0
  0
SEQEND
  0
POLYLINE
  8
Image
 66
     1
 10
0.0
 20
0.0
 30
0.0
 70
     1
  0
VERTEX
  8
Image
 10
105.028007974083
 20
-781.578005766273
 42
0.0
  0
VERTEX
  8
Image
 10
70.4988211321065
 20
-790.038862806419
 42
0.0
  0
VERTEX
  8
Image
 10
119.54792185969
 20
-816.148043563077
 42
0.0
  0
VERTEX
  8
Image
 10
134.335444319313
 20
-776.466597390025
 42
0.0
  0
SEQEND
  0
POLYLINE
  8
Image
 66
     1
 10
0.0
 20
0.0
 30
0.0
 70
     1
  0
VERTEX
  8
Image
 10
202.289039496242
 20
-778.775204992728
 42
0.0
  0
VERTEX
  8
Image
 10
179.690021764118
 20
-835.298990136369
 42
0.0
  0
VERTEX
  8
Image
 10
144.092561630917
 20
-826.778893353971
 42
0.0
  0
VERTEX
  8
Image
 10
162.409123521671
 20
-782.322351250991
 42
0.0
  0
SEQEND
  0
POLYLINE
  8
Image
 66
     1
 10
0.0
 20
0.0
 30
0.0
 70
     1
  0
VERTEX
  8
Image
 10
226.331520077871
 20
-769.992524548024
 42
0.0
  0
VERTEX
  8
Image
 10
254.308879450748
 20
-739.792379198666
 42
0.0
  0
VERTEX
  8
Image
 10
216.017317389369
 20
-709.548132641043
 42
0.0
  0
VERTEX
  8
Image
 10
199.3076761328
 20
-756.47430439568
 42
0.0
  0
SEQEND
  0
POLYLINE
  8
Image
 66
     1
 10
0.0
 20
0.0
 30
0.0
 70
     1
  0
VERTEX
  8
Image
 10
230.956749202092
 20
-409.64772630295
 42
0.0
  0
VERTEX
  8
Image
 10
346.268186715646
 20
-339.517504151123
 42
0.0
  0
VERTEX
  8
Image
 10
314.232863470118
 20
-426.411572850788
 42
0.0
  0
SEQEND
  0
POLYLINE
  8
Image
 66
     1
 10
0.0
 20
0.0
 30
0.0
 70
     1
  0
VERTEX
  8
Image
 10
245.73713007437
 20
-824.814588185731
 42
0.0
  0
VERTEX
  8
Image
 10
291.314405050332
 20
-881.253358481557
 42
0.0
  0
VERTEX
  8
Image
 10
296.146611190663
 20
-797.864090709097
 42
0.0
  0
SEQEND
  0
POLYLINE
  8
Image
 66
     1
 10
0.0
 20
0.0
 30
0.0
 70
     1
  0
VERTEX
  8
Image
 10
87.609758984476
 20
-531.187641607895
 42
0.0
  0
VERTEX
  8
Image
 10
143.789292891989
 20
-568.904462626495
 42
0.0
  0
VERTEX
  8
Image
 10
178.336464184536
 20
-517.039113255257
 42
0.0
  0
SEQEND
  0
POLYLINE
  8
Image
 66
     1
 10
0.0
 20
0.0
 30
0.0
 70
     1
  0
VERTEX
  8
Image
 10
350.413215394849
 20
-442.042880435615
 42
0.0
  0
VERTEX
  8
Image
 10
318.113883651875
 20
-513.474658565177
 42
0.0
  0
VERTEX
  8
Image
 10
400.459672618684
 20
-551.55937358177
 42
0.0
  0
VERTEX
  8
Image
 10
405.558343277093
 20
-510.365868496101
 42
0.0
  0
SEQEND
  0
POLYLINE
  8
Image
 66
     1
 10
0.0
 20
0.0
 30
0.0
 70
     1
  0
VERTEX
  8
Image
 10
223.34855640054
 20
-800.249816629369
 42
0.0
  0
VERTEX
  8
Image
 10
306.123036801451
 20
-719.983857930637
 42
0.0
  0
VERTEX
  8
Image
 10
362.36573705132
 20
-737.899712222451
 42
0.0
  0
VERTEX
  8
Image
 10
291.43162021928
 20
-779.161651024134
 42
0.0
  0
SEQEND
  0
POLYLINE
  8
Image
 66
     1
 10
0.0
 20
0.0
 30
0.0
 70
     1
  0
VERTEX
  8
Image
 10
289.704049318996
 20
-620.0463222015
 42
0.0
  0
VERTEX
  8
Image
 10
249.359186174894
 20
-676.697065490264
 42
0.0
  0
VERTEX
  8
Image
 10
274.228398390508
 20
-712.163111796157
 42
0.0
  0
VERTEX
  8
Image
 10
299.26800829098
 20
-698.284290403712
 42
0.0
  0
SEQEND
  0
POLYLINE
  8
Image
 66
     1
 10
0.0
 20
0.0
 30
0.0
 70
     1
  0
VERTEX
  8
Image
 10
122.983103984078
 20
35.7190770383207
 42
0.0
  0
VERTEX
  8
Image
 10
177.15878985992
 20
-18.2877557426
 42
0.0
  0
VERTEX
  8
Image
 10
146.357864587267
 20
-31.3205577897707
 42
0.0
  0
VERTEX
  8
Image
 10
110.475959966297
 20
-26.6950661390722
 42
0.0
  0
SEQEND
  0
POLYLINE
  8
Image
 66
     1
 10
0.0
 20
0.0
 30
0.0
 70
     1
  0
VERTEX
  8
Image
 10
413.635552872958
 20
-68.8779776697694
 42
0.0
  0
VERTEX
  8
Image
 10
453.218691245168
 20
-107.958467113262
 42
0.0
  0
VERTEX
  8
Image
 10
403.077312625976
 20
-181.822563755079
 42
0.0
  0
VERTEX
  8
Image
 10
375.348497480825
 20
-114.554036998528
 42
0.0
  0
SEQEND
  0
POLYLINE
  8
Image
 66
     1
 10
0.0
 20
0.0
 30
0.0
 70
     1
  0
VERTEX
  8
Image
 10
343.338985837797
 20
-150.002785233699
 42
0.0
  0
VERTEX
  8
Image
 10
389.998741269075
 20
-210.905286437057
 42
0.0
  0
VERTEX
  8
Image
 10
368.907514675707
 20
-242.783103490071
 42
0.0
  0
VERTEX
  8
Image
 10
323.298595569395
 20
-205.139590523303
 42
0.0
  0
SEQEND
  0
POLYLINE
  8
Image
 66
     1
 10
0.0
 20
0.0
 30
0.0
 70
     1
  0
VERTEX
  8
Image
 10
365.231832135371
 20
-263.449872960661
 42
0.0
  0
VERTEX
  8
Image
 10
414.265733474673
 20
-268.572767360797
 42
0.0
  0
VERTEX
  8
Image
 10
415.064104339476
 20
-294.84843276415
 42
0.0
  0
VERTEX
  8
Image
 10
363.256767624306
 20
-344.617037322167
 42
0.0
  0
SEQEND
  0
POLYLINE
  8
Image
 66
     1
 10
0.0
 20
0.0
 30
0.0
 70
     1
  0
VERTEX
  8
Image
 10
290.111891392925
 20
-331.900949011806
 42
0.0
  0
VERTEX
  8
Image
 10
262.124129835625
 20
-284.70191484608
 42
0.0
  0
VERTEX
  8
Image
 10
328.4394629055
 20
-255.565676160408
 42
0.0
  0
VERTEX
  8
Image
 10
326.32765236034
 20
-329.736524043526
 42
0.0
  0
SEQEND
  0
POLYLINE
  8
Image
 66
     1
 10
0.0
 20
0.0
 30
0.0
 70
     1
  0
VERTEX
  8
Image
 10
210.242453756986
 20
-211.571358692058
 42
0.0
  0
VERTEX
  8
Image
 10
244.379021233114
 20
-274.557485433707
 42
0.0
  0
VERTEX
  8
Image
 10
188.296632042816
 20
-342.313608315764
 42
0.0
  0
VERTEX
  8
Image
 10
169.76598339416
 20
-278.915580249069
 42
0.0
  0
SEQEND
  0
POLYLINE
  8
Image
 66
     1
 10
0.0
 20
0.0
 30
0.0
 70
     1
  0
VERTEX
  8
Image
 10
78.2629015359416
 20
-245.57309169806
 42
0.0
  0
VERTEX
  8
Image
 10
107.28762152752
 20
-279.650671400487
 42
0.0
  0
VERTEX
  8
Image
 10
148.307491745486
 20
-271.499946937706
 42
0.0
  0
VERTEX
  8
Image
 10
132.535359527257
 20
-247.104018440474
 42
0.0
  0
SEQEND
  0
POLYLINE
  8
Image
 66
     1
 10
0.0
 20
0.0
 30
0.0
 70
     1
  0
VERTEX
  8
Image
 10
151.13504803596
 20
-65.8512475547357
 42
0.0
  0
VERTEX
  8
Image
 10
130.908308785316
 20
-136.855310492474
 42
0.0
  0
VERTEX
  8
Image
 10
186.88180500184
 20
-112.294072901703
 42
0.0
  0
VERTEX
  8
Image
 10
193.762239138602
 20
-73.0454261943549
 42
0.0
  0
SEQEND
  0
POLYLINE
  8
Image
 66
     1
 10
0.0
 20
0.0
 30
0.0
 70
     1
  0
VERTEX
  8
Image
 10
96.2608600081494
 20
-145.967245462498
 42
0.0
  0
VERTEX
  8
Image
 10
73.2895956633308
 20
-197.946940982626
 42
0.0
  0
VERTEX
  8
Image
 10
116.592308773428
 20
-193.763391143353
 42
0.0
  0
VERTEX
  8
Image
 10
130.161944148826
 20
-161.083018625157
 42
0.0
  0
SEQEND
  0
POLYLINE
  8
Image
 66
     1
 10
0.0
 20
0.0
 30
0.0
 70
     1
  0
VERTEX
  8
Image
 10
198.115539325756
 20
-163.391626227865
 42
0.0
  0
VERTEX
  8
Image
 10
175.516521593632
 20
-219.915411371502
 42
0.0
  0
VERTEX
  8
Image
 10
139.919061460429
 20
-211.395314589105
 42
0.0
  0
VERTEX
  8
Image
 10
158.235623351185
 20
-166.938772486129
 42
0.0
  0
SEQEND
  0
POLYLINE
  8
Image
 66
     1
 10
0.0
 20
0.0
 30
0.0
 70
     1
  0
VERTEX
  8
Image
 10
222.158019907384
 20
-154.608945783154
 42
0.0
  0
VERTEX
  8
Image
 10
250.135379280258
 20
-124.408800433804
 42
0.0
  0
VERTEX
  8
Image
 10
211.843817218882
 20
-94.1645538761729
 42
0.0
  0
VERTEX
  8
Image
 10
195.134175962313
 20
-141.090725630818
 42
0.0
  0
SEQEND
  0
POLYLINE
  8
Image
 66
     1
 10
0.0
 20
0.0
 30
0.0
 70
     1
  0
VERTEX
  8
Image
 10
219.021727143383
 20
-202.062547059075
 42
0.0
  0
VERTEX
  8
Image
 10
288.192605922889
 20
-257.006613550458
 42
0.0
  0
VERTEX
  8
Image
 10
302.623324513157
 20
-195.277629442431
 42
0.0
  0
SEQEND
  0
POLYLINE
  8
Image
 66
     1
 10
0.0
 20
0.0
 30
0.0
 70
     1
  0
VERTEX
  8
Image
 10
219.175056230052
 20
-184.866237864499
 42
0.0
  0
VERTEX
  8
Image
 10
305.224126840851
 20
-105.027695387808
 42
0.0
  0
VERTEX
  8
Image
 10
344.860276243648
 20
-123.757943382252
 42
0.0
  0
VERTEX
  8
Image
 10
287.258120048791
 20
-163.778072259273
 42
0.0
  0
SEQEND
  0
POLYLINE
  8
Image
 66
     1
 10
0.0
 20
0.0
 30
0.0
 70
     1
  0
VERTEX
  8
Image
 10
265.202529882008
 20
-34.2611204368198
 42
0.0
  0
VERTEX
  8
Image
 10
207.180066163616
 20
-33.1802555371415
 42
0.0
  0
VERTEX
  8
Image
 10
262.929332500216
 20
-112.99250652647
 42
0.0
  0
VERTEX
  8
Image
 10
287.968942400698
 20
-99.1136851340136
 42
0.0
  0
SEQEND
  0
POLYLINE
  8
Image
 66
     1
 10
0.0
 20
0.0
 30
0.0
 70
     1
  0
VERTEX
  8
Image
 10
162.942850134926
 20
-371.157647528863
 42
0.0
  0
VERTEX
  8
Image
 10
230.702462693756
 20
-394.01432036638
 42
0.0
  0
VERTEX
  8
Image
 10
265.249633986297
 20
-342.148970995152
 42
0.0
  0
SEQEND
  0
POLYLINE
  8
Image
 66
     1
 10
0.0
 20
0.0
 30
0.0
 70
     1
  0
VERTEX
  8
Image
 10
444.299175160352
 20
-839.504129424572
 42
0.0
  0
VERTEX
  8
Image
 10
474.747887237055
 20
-904.374917176644
 42
0.0
  0
VERTEX
  8
Image
 10
347.060843733795
 20
-940.18330793784
 42
0.0
  0
VERTEX
  8
Image
 10
388.076685736963
 20
-894.876721255486
 42
0.0
  0
SEQEND
  0
POLYLINE
  8
Image
 66
     1
 10
0.0
 20
0.0
 30
0.0
 70
     1
  0
VERTEX
  8
Image
 10
75.6357021657113
 20
-618.995811477476
 42
0.0
  0
VERTEX
  8
Image
 10
82.197603412927
 20
-571.600790878382
 42
0.0
  0
VERTEX
  8
Image
 10
62.4397710250751
 20
-573.829851197059
 42
0.0
  0
VERTEX
  8
Image
 10
38.6760395479705
 20
-625.820930936507
 42
0.0
  0
SEQEND
  0
POLYLINE
  8
Image
 66
     1
 10
0.0
 20
0.0
 30
0.0
 70
     1
  0
VERTEX
  8
Image
 10
72.0736022672854
 20
-110.886218056431
 42
0.0
  0
VERTEX
  8
Image
 10
62.5052022253665
 20
-171.446311305087
 42
0.0
  0
VERTEX
  8
Image
 10
26.0179393330818
 20
-171.971272283915
 42
0.0
  0
VERTEX
  8
Image
 10
34.0708506034769
 20
-124.205937445596
 42
0.0
  0
SEQEND
  0
POLYLINE
  8
Image
 66
     1
 10
0.0
 20
0.0
 30
0.0
 70
     1
  0
VERTEX
  8
Image
 10
254.483512445235
 20
-936.495177629923
 42
0.0
  0
VERTEX
  8
Image
 10
342.094686545156
 20
-870.030289374635
 42
0.0
  0
VERTEX
  8
Image
 10
310.059363299629
 20
-956.924358074297
 42
0.0
  0
SEQEND
  0
POLYLINE
  8
Image
 66
     1
 10
0.0
 20
0.0
 30
0.0
 70
     1
  0
VERTEX
  8
Image
 10
121.111993041957
 20
-898.875154851095
 42
0.0
  0
VERTEX
  8
Image
 10
127.74085384608
 20
-936.534909602677
 42
0.0
  0
VERTEX
  8
Image
 10
162.449605684194
 20
-929.638216093507
 42
0.0
  0
VERTEX
  8
Image
 10
149.346999101946
 20
-909.371441196799
 42
0.0
  0
SEQEND
  0
POLYLINE
  8
Image
 66
     1
 10
0.0
 20
0.0
 30
0.0
 70
     1
  0
VERTEX
  8
Image
 10
474.502136058633
 20
-785.291060545765
 42
0.0
  0
VERTEX
  8
Image
 10
443.620463811193
 20
-782.927544846924
 42
0.0
  0
VERTEX
  8
Image
 10
446.815853381122
 20
-821.310673382943
 42
0.0
  0
VERTEX
  8
Image
 10
474.502136058633
 20
-827.38504358255
 42
0.0
  0
SEQEND
  0
POLYLINE
  8
Image
 66
     1
 10
0.0
 20
0.0
 30
0.0
 70
     1
  0
VERTEX
  8
Image
 10
474.502136058634
 20
-147.11877900922
 42
0.0
  0
VERTEX
  8
Image
 10
447.773335880791
 20
-145.073101614374
 42
0.0
  0
VERTEX
  8
Image
 10
450.968725450721
 20
-183.456230150392
 42
0.0
  0
VERTEX
  8
Image
 10
474.502136058634
 20
-188.619460250903
 42
0.0
  0
SEQEND
  0
POLYLINE
  8
Image
 66
     1
 10
0.0
 20
0.0
 30
0.0
 70
     1
  0
VERTEX
  8
Image
 10
474.502136058634
 20
-230.526908320533
 42
0.0
  0
VERTEX
  8
Image
 10
474.502136058634
 20
-261.637389440587
 42
0.0
  0
VERTEX
  8
Image
 10
450.378485096313
 20
-283.551831022615
 42
0.0
  0
VERTEX
  8
Image
 10
413.844637069863
 20
-232.853318806337
 42
0.0
  0
VERTEX
  8
Image
 10
449.10162809072
 20
-206.552982575361
 42
0.0
  0
SEQEND
  0
POLYLINE
  8
Image
 66
     1
 10
0.0
 20
0.0
 30
0.0
 70
     1
  0
VERTEX
  8
Image
 10
474.502136058634
 20
-501.899340051529
 42
0.0
  0
VERTEX
  8
Image
 10
474.502136058634
 20
-581.162953879518
 42
0.0
  0
VERTEX
  8
Image
 10
438.299656690957
 20
-534.867556691129
 42
0.0
  0
SEQEND
  0
POLYLINE
  8
Image
 66
     1
 10
0.0
 20
0.0
 30
0.0
 70
     1
  0
VERTEX
  8
Image
 10
474.502136058634
 20
-609.283640955307
 42
0.0
  0
VERTEX
  8
Image
 10
474.502136058633
 20
-716.686305992805
 42
0.0
  0
VERTEX
  8
Image
 10
430.234037910719
 20
-662.856353441974
 42
0.0
  0
VERTEX
  8
Image
 10
436.678175958643
 20
-584.387866358776
 42
0.0
  0
SEQEND
  0
POLYLINE
  8
Image
 66
     1
 10
0.0
 20
0.0
 30
0.0
 70
     1
  0
VERTEX
  8
Image
 10
26.6094327813094
 20
-890.578495940528
 42
0.0
  0
VERTEX
  8
Image
 10
26.6094327813094
 20
-870.638019902096
 42
0.0
  0
VERTEX
  8
Image
 10
43.6916655787556
 20
-878.710308997173
 42
0.0
  0
SEQEND
  0
POLYLINE
  8
Image
 66
     1
 10
0.0
 20
0.0
 30
0.0
 70
     1
  0
VERTEX
  8
Image
 10
26.6094327813094
 20
-695.696847065087
 42
0.0
  0
VERTEX
  8
Image
 10
26.6094327813094
 20
-635.669400899554
 42
0.0
  0
VERTEX
  8
Image
 10
43.1964907794918
 20
-675.908659191791
 42
0.0
  0
SEQEND
  0
POLYLINE
  8
Image
 66
     1
 10
0.0
 20
0.0
 30
0.0
 70
     1
  0
VERTEX
  8
Image
 10
28.1743676537621
 20
-565.764114916343
 42
0.0
  0
VERTEX
  8
Image
 10
26.6094327813094
 20
-480.772766104799
 42
0.0
  0
VERTEX
  8
Image
 10
69.4427167114982
 20
-448.815215919048
 42
0.0
  0
VERTEX
  8
Image
 10
65.3472606294836
 20
-510.176002951632
 42
0.0
  0
SEQEND
  0
POLYLINE
  8
Image
 66
     1
 10
0.0
 20
0.0
 30
0.0
 70
     1
  0
VERTEX
  8
Image
 10
26.6094327813094
 20
-441.903302398733
 42
0.0
  0
VERTEX
  8
Image
 10
26.6094327813094
 20
-392.206369063385
 42
0.0
  0
VERTEX
  8
Image
 10
64.727712413222
 20
-344.06951453637
 42
0.0
  0
VERTEX
  8
Image
 10
53.8856186286364
 20
-435.510314099623
 42
0.0
  0
SEQEND
  0
POLYLINE
  8
Image
 66
     1
 10
0.0
 20
0.0
 30
0.0
 70
     1
  0
VERTEX
  8
Image
 10
26.6094327813094
 20
-273.990121239481
 42
0.0
  0
VERTEX
  8
Image
 10
26.6094327813094
 20
-214.309200317098
 42
0.0
  0
VERTEX
  8
Image
 10
42.5880040017832
 20
-211.876527890231
 42
0.0
  0
VERTEX
  8
Image
 10
65.6310203135181
 20
-273.329449804951
 42
0.0
  0
SEQEND
  0
POLYLINE
  8
Image
 66
     1
 10
0.0
 20
0.0
 30
0.0
 70
     1
  0
VERTEX
  8
Image
 10
26.6094327813094
 20
-99.8482495548676
 42
0.0
  0
VERTEX
  8
Image
 10
41.088471465433
 20
-107.091143383152
 42
0.0
  0
VERTEX
  8
Image
 10
69.0658308383074
 20
-76.8909980337945
 42
0.0
  0
VERTEX
  8
Image
 10
30.7742687769305
 20
-46.6467514761686
 42
0.0
  0
VERTEX
  8
Image
 10
26.6094327813094
 20
-58.3429815902408
 42
0.0
  0
SEQEND
  0
POLYLINE
  8
Image
 66
     1
 10
0.0
 20
0.0
 30
0.0
 70
     1
  0
VERTEX
  8
Image
 10
26.6094327813094
 20
-820.999462336188
 42
0.0
  0
VERTEX
  8
Image
 10
34.1471676118767
 20
-831.749045001884
 42
0.0
  0
VERTEX
  8
Image
 10
59.186777512354
 20
-817.87022360943
 42
0.0
  0
VERTEX
  8
Image
 10
49.6228185403634
 20
-739.632255407224
 42
0.0
  0
VERTEX
  8
Image
 10
26.6094327813094
 20
-771.946788342556
 42
0.0
  0
SEQEND
  0
POLYLINE
  8
Image
 66
     1
 10
0.0
 20
0.0
 30
0.0
 70
     1
  0
VERTEX
  8
Image
 10
55.5506281292123
 20
-888.89417015384
 42
0.0
  0
VERTEX
  8
Image
 10
35.3238888785684
 20
-959.89823309158
 42
0.0
  0
VERTEX
  8
Image
 10
91.297385095093
 20
-935.33699550081
 42
0.0
  0
VERTEX
  8
Image
 10
98.1778192318538
 20
-896.088348793459
 42
0.0
  0
SEQEND
  0
POLYLINE
  8
Image
 66
     1
 10
0.0
 20
0.0
 30
0.0
 70
     1
  0
VERTEX
  8
Image
 10
79.7072131583864
 20
-974.999995855
 42
0.0
  0
VERTEX
  8
Image
 10
110.836830112596
 20
-974.999995855
 42
0.0
  0
VERTEX
  8
Image
 10
86.540533340466
 20
-955.809783953071
 42
0.0
  0
SEQEND
  0
POLYLINE
  8
Image
 66
     1
 10
0.0
 20
0.0
 30
0.0
 70
     1
  0
VERTEX
  8
Image
 10
148.386678781472
 20
-974.999995855
 42
0.0
  0
VERTEX
  8
Image
 10
194.937275606197
 20
-974.999995855
 42
0.0
  0
VERTEX
  8
Image
 10
197.935739309089
 20
-957.895603864552
 42
0.0
  0
VERTEX
  8
Image
 10
155.308548206447
 20
-950.701425224933
 42
0.0
  0
SEQEND
  0
POLYLINE
  8
Image
 66
     1
 10
0.0
 20
0.0
 30
0.0
 70
     1
  0
VERTEX
  8
Image
 10
216.68267236289
 20
-974.999995855
 42
0.0
  0
VERTEX
  8
Image
 10
264.661685836214
 20
-974.999995855
 42
0.0
  0
VERTEX
  8
Image
 10
227.214634949059
 20
-945.422778867311
 42
0.0
  0
SEQEND
  0
POLYLINE
  8
Image
 66
     1
 10
0.0
 20
0.0
 30
0.0
 70
     1
  0
VERTEX
  8
Image
 10
452.757886965377
 20
-974.999995855
 42
0.0
  0
VERTEX
  8
Image
 10
395.847996325295
 20
-974.999995855
 42
0.0
  0
VERTEX
  8
Image
 10
417.809053043437
 20
-940.494961860333
 42
0.0
  0
SEQEND
  0
POLYLINE
  8
Image
 66
     1
 10
0.0
 20
0.0
 30
0.0
 70
     1
  0
VERTEX
  8
Image
 10
26.6094327813094
 20
-333.757160142411
 42
0.0
  0
VERTEX
  8
Image
 10
26.6094327813094
 20
-313.816684103978
 42
0.0
  0
VERTEX
  8
Image
 10
43.6916655787559
 20
-321.888973199055
 42
0.0
  0
SEQEND
  0
POLYLINE
  8
Image
 66
     1
 10
0.0
 20
0.0
 30
0.0
 70
     1
  0
VERTEX
  8
Image
 10
26.6094327813094
 20
588.841344083561
 42
0.0
  0
VERTEX
  8
Image
 10
26.6094327813094
 20
608.781820121993
 42
0.0
  0
VERTEX
  8
Image
 10
43.6916655787559
 20
600.709531026916
 42
0.0
  0
SEQEND
  0
POLYLINE
  8
Image
 66
     1
 10
0.0
 20
0.0
 30
0.0
 70
     1
  0
VERTEX
  8
Image
 10
478.408508058662
 20
-90.5093462527151
 42
0.0
  0
VERTEX
  8
Image
 10
478.408508058662
 20
-70.5688702142829
 42
0.0
  0
VERTEX
  8
Image
 10
461.326275261216
 20
-78.6411593093595
 42
0.0
  0
SEQEND
  0
LINE
  8
Image
 10
0.0
 20
999.999995855
 30
0.0
 11
0.0
 21
-999.999995855
 31
0.0
  0
POLYLINE
  8
Image
 66
     1
 10
0.0
 20
0.0
 30
0.0
 70
     1
  0
VERTEX
  8
Image
 10
-304.866808284308
 20
512.094850113322
 42
0.0
  0
VERTEX
  8
Image
 10
-336.075997498708
 20
447.228037349453
 42
0.0
  0
VERTEX
  8
Image
 10
-415.759033790794
 20
464.854888643983
 42
0.0
  0
SEQEND
  0
POLYLINE
  8
Image
 66
     1
 10
0.0
 20
0.0
 30
0.0
 70
     1
  0
VERTEX
  8
Image
 10
-173.443182740281
 20
397.362420220555
 42
0.0
  0
VERTEX
  8
Image
 10
-128.395921250519
 20
369.272782759189
 42
0.0
  0
VERTEX
  8
Image
 10
-157.228262188764
 20
340.255193501819
 42
0.0
  0
VERTEX
  8
Image
 10
-290.838123507136
 20
368.28206794082
 42
0.0
  0
SEQEND
  0
POLYLINE
  8
Image
 66
     1
 10
0.0
 20
0.0
 30
0.0
 70
     1
  0
VERTEX
  8
Image
 10
-357.784171565308
 20
265.692781055382
 42
0.0
  0
VERTEX
  8
Image
 10
-426.53498276456
 20
176.053429361931
 42
0.0
  0
VERTEX
  8
Image
 10
-407.517880228108
 20
274.980363247964
 42
0.0
  0
SEQEND
  0
POLYLINE
  8
Image
 66
     1
 10
0.0
 20
0.0
 30
0.0
 70
     1
  0
VERTEX
  8
Image
 10
-239.697257246295
 20
329.741401729938
 42
0.0
  0
VERTEX
  8
Image
 10
-260.895442023136
 20
283.011356551438
 42
0.003077334066
  0
VERTEX
  8
Image
 10
-295.468601457213
 20
265.530211440661
 42
0.0006556321706
  0
VERTEX
  8
Image
 10
-311.383230403056
 20
353.51864183157
 42
0.0
  0
SEQEND
  0
POLYLINE
  8
Image
 66
     1
 10
0.0
 20
0.0
 30
0.0
 70
     1
  0
VERTEX
  8
Image
 10
-171.654610070072
 20
296.895797117464
 42
-0.0098913973756
  0
VERTEX
  8
Image
 10
-95.8361900507655
 20
353.638941097132
 42
0.0
  0
VERTEX
  8
Image
 10
-93.4288659070871
 20
271.244719011333
 42
0.0
  0
VERTEX
  8
Image
 10
-150.658569351134
 20
232.529698003451
 42
-0.0201095443783
  0
VERTEX
  8
Image
 10
-168.915886544949
 20
283.425946766405
 42
-0.1031758877636
  0
VERTEX
  8
Image
 10
-171.787466671052
 20
296.548352750803
 42
-0.1036257476569
  0
SEQEND
  0
POLYLINE
  8
Image
 66
     1
 10
0.0
 20
0.0
 30
0.0
 70
     1
  0
VERTEX
  8
Image
 10
-361.957671735796
 20
881.076359820244
 42
0.0
  0
VERTEX
  8
Image
 10
-408.642824929694
 20
811.018200310815
 42
0.0
  0
VERTEX
  8
Image
 10
-411.691380398595
 20
890.363942012826
 42
0.0
  0
SEQEND
  0
POLYLINE
  8
Image
 66
     1
 10
0.0
 20
0.0
 30
0.0
 70
     1
  0
VERTEX
  8
Image
 10
-175.828110240561
 20
912.279375882334
 42
-0.0098913973756
  0
VERTEX
  8
Image
 10
-100.009690221252
 20
969.022519861997
 42
0.0
  0
VERTEX
  8
Image
 10
-129.640003217537
 20
898.806072390216
 42
0.0
  0
VERTEX
  8
Image
 10
-154.832069521623
 20
847.91327676832
 42
-0.0201095443782
  0
VERTEX
  8
Image
 10
-173.089386715438
 20
898.809525531267
 42
-0.1031758877631
  0
VERTEX
  8
Image
 10
-175.960966841531
 20
911.931931515674
 42
-0.1036257469562
  0
SEQEND
  0
POLYLINE
  8
Image
 66
     1
 10
0.0
 20
0.0
 30
0.0
 70
     1
  0
VERTEX
  8
Image
 10
-26.5158047813384
 20
570.622204674493
 42
0.0
  0
VERTEX
  8
Image
 10
-26.5158047813384
 20
559.967688552707
 42
0.0
  0
VERTEX
  8
Image
 10
-149.783596935687
 20
525.398626973487
 42
0.0
  0
VERTEX
  8
Image
 10
-52.5452655091294
 20
626.077805486755
 42
0.0
  0
SEQEND
  0
POLYLINE
  8
Image
 66
     1
 10
0.0
 20
0.0
 30
0.0
 70
     1
  0
VERTEX
  8
Image
 10
-474.408508058662
 20
-29.4679812060675
 42
-0.251523954682
  0
VERTEX
  8
Image
 10
-474.136615149116
 20
-26.0469609671633
 42
-0.0234127028195
  0
VERTEX
  8
Image
 10
-473.948577979313
 20
-25.7835543103278
 42
-0.0062569348518
  0
VERTEX
  8
Image
 10
-443.077429886603
 20
63.9604794314257
 42
0.0
  0
VERTEX
  8
Image
 10
-396.778527962248
 20
-2.2100336806587
 42
0.0
  0
VERTEX
  8
Image
 10
-404.470282588055
 20
-21.7676157673761
 42
0.0
  0
VERTEX
  8
Image
 10
-473.469901193199
 20
-30.6830443197906
 42
-0.1221206305423
  0
SEQEND
  0
POLYLINE
  8
Image
 66
     1
 10
0.0
 20
0.0
 30
0.0
 70
     1
  0
VERTEX
  8
Image
 10
-334.657446437723
 20
975.266695646081
 42
0.0
  0
VERTEX
  8
Image
 10
-246.758001490993
 20
975.266695646079
 42
-0.0059214577014
  0
VERTEX
  8
Image
 10
-284.793244697193
 20
891.402988613282
 42
-0.0090340853638
  0
VERTEX
  8
Image
 10
-287.022707040201
 20
886.857171728378
 42
0.0025606472803
  0
SEQEND
  0
POLYLINE
  8
Image
 66
     1
 10
0.0
 20
0.0
 30
0.0
 70
     1
  0
VERTEX
  8
Image
 10
-465.372767897259
 20
974.216297660953
 42
0.0
  0
VERTEX
  8
Image
 10
-424.634906007098
 20
974.216297660736
 42
-0.0015780405438
  0
VERTEX
  8
Image
 10
-443.197052120779
 20
933.15516593554
 42
-0.0005161440969
  0
SEQEND
  0
POLYLINE
  8
Image
 66
     1
 10
0.0
 20
0.0
 30
0.0
 70
     1
  0
VERTEX
  8
Image
 10
-303.848870324337
 20
-422.974299574492
 42
0.0
  0
VERTEX
  8
Image
 10
-335.058059538736
 20
-487.84111233836
 42
0.0
  0
VERTEX
  8
Image
 10
-414.741095830822
 20
-470.214261043831
 42
0.0
  0
SEQEND
  0
POLYLINE
  8
Image
 66
     1
 10
0.0
 20
0.0
 30
0.0
 70
     1
  0
VERTEX
  8
Image
 10
-172.425244780309
 20
-537.706729467258
 42
0.0
  0
VERTEX
  8
Image
 10
-127.377983290547
 20
-565.796366928625
 42
0.0
  0
VERTEX
  8
Image
 10
-156.210324228792
 20
-594.813956185994
 42
0.0
  0
VERTEX
  8
Image
 10
-289.820185547164
 20
-566.787081746993
 42
0.0
  0
SEQEND
  0
POLYLINE
  8
Image
 66
     1
 10
0.0
 20
0.0
 30
0.0
 70
     1
  0
VERTEX
  8
Image
 10
-356.766233605337
 20
-669.376368632431
 42
0.0
  0
VERTEX
  8
Image
 10
-425.517044804589
 20
-759.015720325883
 42
0.0
  0
VERTEX
  8
Image
 10
-406.499942268136
 20
-660.088786439849
 42
0.0
  0
SEQEND
  0
POLYLINE
  8
Image
 66
     1
 10
0.0
 20
0.0
 30
0.0
 70
     1
  0
VERTEX
  8
Image
 10
-238.679319286323
 20
-605.327747957876
 42
0.0
  0
VERTEX
  8
Image
 10
-259.877504063163
 20
-652.057793136374
 42
0.003077334066
  0
VERTEX
  8
Image
 10
-294.45066349724
 20
-669.538938247151
 42
0.0006556321707
  0
VERTEX
  8
Image
 10
-310.365292443085
 20
-581.550507856241
 42
0.0
  0
SEQEND
  0
POLYLINE
  8
Image
 66
     1
 10
0.0
 20
0.0
 30
0.0
 70
     1
  0
VERTEX
  8
Image
 10
-170.6366721101
 20
-638.17335257035
 42
-0.0098913973756
  0
VERTEX
  8
Image
 10
-94.8182520907935
 20
-581.430208590681
 42
0.0
  0
VERTEX
  8
Image
 10
-92.4109279471159
 20
-663.82443067648
 42
0.0
  0
VERTEX
  8
Image
 10
-149.640631391162
 20
-702.539451684363
 42
-0.0201095443783
  0
VERTEX
  8
Image
 10
-167.897948584978
 20
-651.643202921408
 42
-0.1031758877636
  0
VERTEX
  8
Image
 10
-170.76952871108
 20
-638.520796937011
 42
-0.1036257478247
  0
SEQEND
  0
POLYLINE
  8
Image
 66
     1
 10
0.0
 20
0.0
 30
0.0
 70
     1
  0
VERTEX
  8
Image
 10
-360.939733775824
 20
-53.9927898675699
 42
0.0
  0
VERTEX
  8
Image
 10
-407.624886969723
 20
-124.050949376999
 42
0.0
  0
VERTEX
  8
Image
 10
-410.673442438624
 20
-44.7052076749874
 42
0.0
  0
SEQEND
  0
POLYLINE
  8
Image
 66
     1
 10
0.0
 20
0.0
 30
0.0
 70
     1
  0
VERTEX
  8
Image
 10
-25.4978668213669
 20
-364.44694501332
 42
0.0
  0
VERTEX
  8
Image
 10
-25.4978668213669
 20
-375.101461135107
 42
0.0
  0
VERTEX
  8
Image
 10
-148.765658975716
 20
-409.670522714327
 42
0.0
  0
VERTEX
  8
Image
 10
-51.5273275491581
 20
-308.991344201059
 42
0.0
  0
SEQEND
  0
POLYLINE
  8
Image
 66
     1
 10
0.0
 20
0.0
 30
0.0
 70
     1
  0
VERTEX
  8
Image
 10
195.133194595693
 20
512.094850113322
 42
0.0
  0
VERTEX
  8
Image
 10
163.924005381293
 20
447.228037349453
 42
0.0
  0
VERTEX
  8
Image
 10
84.2409690892068
 20
464.854888643983
 42
0.0
  0
SEQEND
  0
POLYLINE
  8
Image
 66
     1
 10
0.0
 20
0.0
 30
0.0
 70
     1
  0
VERTEX
  8
Image
 10
326.55682013972
 20
397.362420220555
 42
0.0
  0
VERTEX
  8
Image
 10
371.604081629482
 20
369.272782759189
 42
0.0
  0
VERTEX
  8
Image
 10
342.771740691237
 20
340.255193501819
 42
0.0
  0
VERTEX
  8
Image
 10
209.161879372865
 20
368.28206794082
 42
0.0
  0
SEQEND
  0
POLYLINE
  8
Image
 66
     1
 10
0.0
 20
0.0
 30
0.0
 70
     1
  0
VERTEX
  8
Image
 10
142.215831314692
 20
265.692781055382
 42
0.0
  0
VERTEX
  8
Image
 10
73.4650201154402
 20
176.053429361931
 42
0.0
  0
VERTEX
  8
Image
 10
92.482122651893
 20
274.980363247964
 42
0.0
  0
SEQEND
  0
POLYLINE
  8
Image
 66
     1
 10
0.0
 20
0.0
 30
0.0
 70
     1
  0
VERTEX
  8
Image
 10
260.302745633706
 20
329.741401729938
 42
0.0
  0
VERTEX
  8
Image
 10
239.104560856864
 20
283.011356551438
 42
0.003077334066
  0
VERTEX
  8
Image
 10
204.531401422787
 20
265.530211440661
 42
0.0006556321706
  0
VERTEX
  8
Image
 10
188.616772476944
 20
353.51864183157
 42
0.0
  0
SEQEND
  0
POLYLINE
  8
Image
 66
     1
 10
0.0
 20
0.0
 30
0.0
 70
     1
  0
VERTEX
  8
Image
 10
328.345392809929
 20
296.895797117464
 42
-0.0098913973756
  0
VERTEX
  8
Image
 10
404.163812829235
 20
353.638941097132
 42
0.0
  0
VERTEX
  8
Image
 10
406.571136972913
 20
271.244719011333
 42
0.0
  0
VERTEX
  8
Image
 10
349.341433528867
 20
232.529698003451
 42
-0.0201095443783
  0
VERTEX
  8
Image
 10
331.084116335051
 20
283.425946766405
 42
-0.1031758877635
  0
VERTEX
  8
Image
 10
328.212536208949
 20
296.548352750803
 42
-0.1036257476569
  0
SEQEND
  0
POLYLINE
  8
Image
 66
     1
 10
0.0
 20
0.0
 30
0.0
 70
     1
  0
VERTEX
  8
Image
 10
138.042331144205
 20
881.076359820244
 42
0.0
  0
VERTEX
  8
Image
 10
91.3571779503066
 20
811.018200310815
 42
0.0
  0
VERTEX
  8
Image
 10
88.3086224814056
 20
890.363942012826
 42
0.0
  0
SEQEND
  0
POLYLINE
  8
Image
 66
     1
 10
0.0
 20
0.0
 30
0.0
 70
     1
  0
VERTEX
  8
Image
 10
324.17189263944
 20
912.279375882334
 42
-0.0098913973756
  0
VERTEX
  8
Image
 10
399.990312658748
 20
969.022519861997
 42
0.0
  0
VERTEX
  8
Image
 10
370.359999662463
 20
898.806072390216
 42
0.0
  0
VERTEX
  8
Image
 10
345.167933358377
 20
847.91327676832
 42
-0.0201095443782
  0
VERTEX
  8
Image
 10
326.910616164562
 20
898.809525531267
 42
-0.1031758877632
  0
VERTEX
  8
Image
 10
324.03903603847
 20
911.931931515674
 42
-0.1036257469562
  0
SEQEND
  0
POLYLINE
  8
Image
 66
     1
 10
0.0
 20
0.0
 30
0.0
 70
     1
  0
VERTEX
  8
Image
 10
473.484198098662
 20
570.622204674493
 42
0.0
  0
VERTEX
  8
Image
 10
473.484198098662
 20
559.967688552707
 42
0.0
  0
VERTEX
  8
Image
 10
350.216405944313
 20
525.398626973487
 42
0.0
  0
VERTEX
  8
Image
 10
447.454737370871
 20
626.077805486755
 42
0.0
  0
SEQEND
  0
POLYLINE
  8
Image
 66
     1
 10
0.0
 20
0.0
 30
0.0
 70
     1
  0
VERTEX
  8
Image
 10
25.5914948213381
 20
-29.4679812060675
 42
-0.2515239546823
  0
VERTEX
  8
Image
 10
25.8633877308847
 20
-26.0469609671633
 42
-0.0234127028212
  0
VERTEX
  8
Image
 10
26.0514249006874
 20
-25.7835543103278
 42
-0.0062569348518
  0
VERTEX
  8
Image
 10
56.9225729933975
 20
63.9604794314257
 42
0.0
  0
VERTEX
  8
Image
 10
103.221474917753
 20
-2.2100336806587
 42
0.0
  0
VERTEX
  8
Image
 10
95.5297202919451
 20
-21.7676157673761
 42
0.0
  0
VERTEX
  8
Image
 10
26.5301016868017
 20
-30.6830443197906
 42
-0.1221206305419
  0
SEQEND
  0
POLYLINE
  8
Image
 66
     1
 10
0.0
 20
0.0
 30
0.0
 70
     1
  0
VERTEX
  8
Image
 10
165.342556442278
 20
975.266695646081
 42
0.0
  0
VERTEX
  8
Image
 10
253.242001389008
 20
975.266695646079
 42
-0.0059214577014
  0
VERTEX
  8
Image
 10
215.206758182807
 20
891.402988613282
 42
-0.0090340853638
  0
VERTEX
  8
Image
 10
212.977295839799
 20
886.857171728378
 42
0.0025606472803
  0
SEQEND
  0
POLYLINE
  8
Image
 66
     1
 10
0.0
 20
0.0
 30
0.0
 70
     1
  0
VERTEX
  8
Image
 10
34.6272349827416
 20
974.216297660953
 42
0.0
  0
VERTEX
  8
Image
 10
75.3650968729023
 20
974.216297660736
 42
-0.0015780405438
  0
VERTEX
  8
Image
 10
56.8029507592219
 20
933.15516593554
 42
-0.0005161440965
  0
SEQEND
  0
POLYLINE
  8
Image
 66
     1
 10
0.0
 20
0.0
 30
0.0
 70
     1
  0
VERTEX
  8
Image
 10
196.151132555664
 20
-422.974299574492
 42
0.0
  0
VERTEX
  8
Image
 10
164.941943341264
 20
-487.84111233836
 42
0.0
  0
VERTEX
  8
Image
 10
85.2589070491781
 20
-470.214261043831
 42
0.0
  0
SEQEND
  0
POLYLINE
  8
Image
 66
     1
 10
0.0
 20
0.0
 30
0.0
 70
     1
  0
VERTEX
  8
Image
 10
327.574758099691
 20
-537.706729467258
 42
0.0
  0
VERTEX
  8
Image
 10
372.622019589453
 20
-565.796366928625
 42
0.0
  0
VERTEX
  8
Image
 10
343.789678651208
 20
-594.813956185994
 42
0.0
  0
VERTEX
  8
Image
 10
210.179817332836
 20
-566.787081746993
 42
0.0
  0
SEQEND
  0
POLYLINE
  8
Image
 66
     1
 10
0.0
 20
0.0
 30
0.0
 70
     1
  0
VERTEX
  8
Image
 10
143.233769274664
 20
-669.376368632431
 42
0.0
  0
VERTEX
  8
Image
 10
74.4829580754115
 20
-759.015720325883
 42
0.0
  0
VERTEX
  8
Image
 10
93.5000606118642
 20
-660.088786439849
 42
0.0
  0
SEQEND
  0
POLYLINE
  8
Image
 66
     1
 10
0.0
 20
0.0
 30
0.0
 70
     1
  0
VERTEX
  8
Image
 10
261.320683593677
 20
-605.327747957876
 42
0.0
  0
VERTEX
  8
Image
 10
240.122498816837
 20
-652.057793136374
 42
0.0030773340661
  0
VERTEX
  8
Image
 10
205.54933938276
 20
-669.538938247151
 42
0.0006556321707
  0
VERTEX
  8
Image
 10
189.634710436916
 20
-581.550507856241
 42
0.0
  0
SEQEND
  0
POLYLINE
  8
Image
 66
     1
 10
0.0
 20
0.0
 30
0.0
 70
     1
  0
VERTEX
  8
Image
 10
329.3633307699
 20
-638.17335257035
 42
-0.0098913973756
  0
VERTEX
  8
Image
 10
405.181750789207
 20
-581.430208590681
 42
0.0
  0
VERTEX
  8
Image
 10
407.589074932885
 20
-663.82443067648
 42
0.0
  0
VERTEX
  8
Image
 10
350.359371488838
 20
-702.539451684363
 42
-0.0201095443783
  0
VERTEX
  8
Image
 10
332.102054295023
 20
-651.643202921408
 42
-0.1031758877635
  0
VERTEX
  8
Image
 10
329.23047416892
 20
-638.520796937011
 42
-0.1036257478247
  0
SEQEND
  0
POLYLINE
  8
Image
 66
     1
 10
0.0
 20
0.0
 30
0.0
 70
     1
  0
VERTEX
  8
Image
 10
139.060269104176
 20
-53.9927898675699
 42
0.0
  0
VERTEX
  8
Image
 10
92.3751159102778
 20
-124.050949376999
 42
0.0
  0
VERTEX
  8
Image
 10
89.3265604413768
 20
-44.7052076749874
 42
0.0
  0
SEQEND
  0
POLYLINE
  8
Image
 66
     1
 10
0.0
 20
0.0
 30
0.0
 70
     1
  0
VERTEX
  8
Image
 10
474.502136058634
 20
-364.44694501332
 42
0.0
  0
VERTEX
  8
Image
 10
474.502136058634
 20
-375.101461135107
 42
0.0
  0
VERTEX
  8
Image
 10
351.234343904285
 20
-409.670522714327
 42
0.0
  0
VERTEX
  8
Image
 10
448.472675330842
 20
-308.991344201059
 42
0.0
  0
SEQEND
  0
POLYLINE
  8
Image
 66
     1
 10
0.0
 20
0.0
 30
0.0
 70
     1
  0
VERTEX
  8
Image
 10
0.0
 20
999.999995855
 42
0.0
  0
VERTEX
  8
Image
 10
-500.00000288
 20
999.999995855
 42
0.0
  0
VERTEX
  8
Image
 10
-500.00000288
 20
-999.999995855
 42
0.0
  0
VERTEX
  8
Image
 10
500.00000288
 20
-999.999995855
 42
0.0
  0
VERTEX
  8
Image
 10
500.00000288
 20
999.999995855
 42
0.0
  0
SEQEND
  0
ENDSEC
  0
EOF
