  0
SECTION
  2
HEADER
  9
$ACADVER
  1
AC1009
  9
$EXTMAX
 10
1919.0
 20
1217.0
 30
0.0
  9
$EXTMIN
 10
919.0
 20
-783.0
 30
0.0
  9
$INSUNITS
 70
     4
  9
$LUNITS
 70
     2
  9
$LUPREC
 70
     4
  9
$MEASUREMENT
 70
     1
  0
ENDSEC
  0
SECTION
  2
TABLES
  0
TABLE
  2
LAYER
 70
     1
  0
LAYER
  2
0
 70
     0
 62
    70
  6
Continuous
  0
LAYER
  2
Image_1
 70
     0
 62
    70
  6
Continuous
  0
LAYER
  2
Image
 70
     0
 62
    70
  6
Continuous
  0
ENDTAB
  0
TABLE
  2
APPID
 70
     1
  0
APPID
  2
ACAD
 70
     0
  0
ENDTAB
  0
ENDSEC
  0
SECTION
  2
ENTITIES
  0
POLYLINE
  8
Image
 66
     1
 10
0.0
 20
0.0
 30
0.0
 70
     1
  0
VERTEX
  8
Image
 10
1068.0491489921
 20
754.193043488387
 42
0.0
  0
VERTEX
  8
Image
 10
1067.47093387755
 20
799.481109953991
 42
0.0
  0
VERTEX
  8
Image
 10
1019.9151889506
 20
841.470581059672
 42
0.0
  0
VERTEX
  8
Image
 10
1002.23570144694
 20
841.803033069049
 42
0.0
  0
VERTEX
  8
Image
 10
1017.64073588024
 20
743.304940047453
 42
0.0
  0
SEQEND
  0
POLYLINE
  8
Image
 66
     1
 10
0.0
 20
0.0
 30
0.0
 70
     1
  0
VERTEX
  8
Image
 10
1114.13319315569
 20
729.094850113321
 42
0.0
  0
VERTEX
  8
Image
 10
1082.92400394129
 20
664.228037349453
 42
0.0
  0
VERTEX
  8
Image
 10
1003.24096764921
 20
681.854888643982
 42
0.0
  0
VERTEX
  8
Image
 10
1003.24096764921
 20
681.854888643982
 42
0.0
  0
SEQEND
  0
POLYLINE
  8
Image
 66
     1
 10
0.0
 20
0.0
 30
0.0
 70
     1
  0
VERTEX
  8
Image
 10
1125.81894653816
 20
702.005257975787
 42
0.0
  0
VERTEX
  8
Image
 10
1231.40036271658
 20
703.820954347323
 42
0.0
  0
VERTEX
  8
Image
 10
1187.39408494367
 20
623.311799099956
 42
0.0
  0
VERTEX
  8
Image
 10
1124.00795737921
 20
649.444871262077
 42
0.0
  0
SEQEND
  0
POLYLINE
  8
Image
 66
     1
 10
0.0
 20
0.0
 30
0.0
 70
     1
  0
VERTEX
  8
Image
 10
1059.995363689
 20
557.955295684548
 42
0.0
  0
VERTEX
  8
Image
 10
1100.33228859041
 20
514.07435558163
 42
0.0
  0
VERTEX
  8
Image
 10
1069.53136331775
 20
501.041553534459
 42
0.0
  0
VERTEX
  8
Image
 10
998.263256813401
 20
512.77726345518
 42
0.0
  0
SEQEND
  0
POLYLINE
  8
Image
 66
     1
 10
0.0
 20
0.0
 30
0.0
 70
     1
  0
VERTEX
  8
Image
 10
1311.06607600513
 20
725.793589164218
 42
0.0
  0
VERTEX
  8
Image
 10
1388.35485380433
 20
744.419671988705
 42
0.0
  0
VERTEX
  8
Image
 10
1392.98206210692
 20
701.188153751171
 42
0.0
  0
VERTEX
  8
Image
 10
1354.96464306246
 20
644.36480588027
 42
0.0
  0
SEQEND
  0
POLYLINE
  8
Image
 66
     1
 10
0.0
 20
0.0
 30
0.0
 70
     1
  0
VERTEX
  8
Image
 10
1245.55681869972
 20
614.362420220555
 42
0.0
  0
VERTEX
  8
Image
 10
1290.60408018948
 20
586.272782759189
 42
0.0
  0
VERTEX
  8
Image
 10
1261.77173925124
 20
557.255193501819
 42
0.0
  0
VERTEX
  8
Image
 10
1261.77173925124
 20
557.255193501819
 42
0.0
  0
VERTEX
  8
Image
 10
1128.16187793286
 20
585.28206794082
 42
0.0
  0
SEQEND
  0
POLYLINE
  8
Image
 66
     1
 10
0.0
 20
0.0
 30
0.0
 70
     1
  0
VERTEX
  8
Image
 10
1335.79111364347
 20
467.807593253183
 42
0.0
  0
VERTEX
  8
Image
 10
1375.37425201569
 20
428.727103809681
 42
0.0
  0
VERTEX
  8
Image
 10
1323.73502355838
 20
323.737030087635
 42
0.0
  0
VERTEX
  8
Image
 10
1290.79287055489
 20
397.106719092206
 42
0.0
  0
SEQEND
  0
POLYLINE
  8
Image
 66
     1
 10
0.0
 20
0.0
 30
0.0
 70
     1
  0
VERTEX
  8
Image
 10
1265.49454660831
 20
386.682785689243
 42
0.0
  0
VERTEX
  8
Image
 10
1301.23794345844
 20
324.590166006293
 42
0.0
  0
VERTEX
  8
Image
 10
1293.20327199416
 20
278.520826398772
 42
0.0
  0
VERTEX
  8
Image
 10
1245.45415633991
 20
331.54598039965
 42
0.0
  0
SEQEND
  0
POLYLINE
  8
Image
 66
     1
 10
0.0
 20
0.0
 30
0.0
 70
     1
  0
VERTEX
  8
Image
 10
1132.3980145275
 20
325.114212230885
 42
0.0
  0
VERTEX
  8
Image
 10
1166.53458200363
 20
262.128085489245
 42
0.0
  0
VERTEX
  8
Image
 10
1117.62234866962
 20
211.80172137948
 42
0.0
  0
VERTEX
  8
Image
 10
1091.92154416468
 20
257.769990673877
 42
0.0
  0
SEQEND
  0
POLYLINE
  8
Image
 66
     1
 10
0.0
 20
0.0
 30
0.0
 70
     1
  0
VERTEX
  8
Image
 10
1011.23528996341
 20
313.05941976951
 42
0.0
  0
VERTEX
  8
Image
 10
1019.13301250992
 20
268.191032427206
 42
0.0
  0
VERTEX
  8
Image
 10
1060.15288272788
 20
276.341756889978
 42
0.0
  0
VERTEX
  8
Image
 10
1044.38075050965
 20
300.737685387217
 42
0.0
  0
SEQEND
  0
POLYLINE
  8
Image
 66
     1
 10
0.0
 20
0.0
 30
0.0
 70
     1
  0
VERTEX
  8
Image
 10
1073.29060880648
 20
470.834323368217
 42
0.0
  0
VERTEX
  8
Image
 10
1053.06386955583
 20
399.830260430477
 42
0.0
  0
VERTEX
  8
Image
 10
1109.03736577236
 20
424.391498021247
 42
0.0
  0
VERTEX
  8
Image
 10
1115.91779990912
 20
463.640144728598
 42
0.0
  0
SEQEND
  0
POLYLINE
  8
Image
 66
     1
 10
0.0
 20
0.0
 30
0.0
 70
     1
  0
VERTEX
  8
Image
 10
1061.21582987469
 20
482.692781055382
 42
0.0
  0
VERTEX
  8
Image
 10
992.46501867544
 20
393.053429361931
 42
0.0
  0
VERTEX
  8
Image
 10
992.46501867544
 20
393.053429361931
 42
0.0
  0
VERTEX
  8
Image
 10
1011.48212121189
 20
491.980363247964
 42
0.0
  0
SEQEND
  0
POLYLINE
  8
Image
 66
     1
 10
0.0
 20
0.0
 30
0.0
 70
     1
  0
VERTEX
  8
Image
 10
1023.01006857411
 20
370.491143921541
 42
0.0
  0
VERTEX
  8
Image
 10
988.480881732135
 20
362.030286881395
 42
0.0
  0
VERTEX
  8
Image
 10
1037.52998245972
 20
335.921106124736
 42
0.0
  0
VERTEX
  8
Image
 10
1052.31750491934
 20
375.602552297788
 42
0.0
  0
SEQEND
  0
POLYLINE
  8
Image
 66
     1
 10
0.0
 20
0.0
 30
0.0
 70
     1
  0
VERTEX
  8
Image
 10
1120.27110009627
 20
373.293944695085
 42
0.0
  0
VERTEX
  8
Image
 10
1097.67208236415
 20
316.770159551444
 42
0.0
  0
VERTEX
  8
Image
 10
1062.07462223095
 20
325.290256333842
 42
0.0
  0
VERTEX
  8
Image
 10
1080.3911841217
 20
369.746798436822
 42
0.0
  0
SEQEND
  0
POLYLINE
  8
Image
 66
     1
 10
0.0
 20
0.0
 30
0.0
 70
     1
  0
VERTEX
  8
Image
 10
1144.3135806779
 20
382.076625139789
 42
0.0
  0
VERTEX
  8
Image
 10
1172.29094005078
 20
412.276770489147
 42
0.0
  0
VERTEX
  8
Image
 10
1133.9993779894
 20
442.52101704677
 42
0.0
  0
VERTEX
  8
Image
 10
1117.28973673283
 20
395.594845292133
 42
0.0
  0
SEQEND
  0
POLYLINE
  8
Image
 66
     1
 10
0.0
 20
0.0
 30
0.0
 70
     1
  0
VERTEX
  8
Image
 10
1148.93880980212
 20
742.421423384863
 42
0.0
  0
VERTEX
  8
Image
 10
1264.25024731567
 20
812.551645536691
 42
0.0
  0
VERTEX
  8
Image
 10
1232.21492407015
 20
725.657576837026
 42
0.0
  0
SEQEND
  0
POLYLINE
  8
Image
 66
     1
 10
0.0
 20
0.0
 30
0.0
 70
     1
  0
VERTEX
  8
Image
 10
1163.7191906744
 20
327.254561502082
 42
0.0
  0
VERTEX
  8
Image
 10
1209.29646565036
 20
270.815791206256
 42
0.0
  0
VERTEX
  8
Image
 10
1214.12867179069
 20
354.205058978716
 42
0.0
  0
SEQEND
  0
POLYLINE
  8
Image
 66
     1
 10
0.0
 20
0.0
 30
0.0
 70
     1
  0
VERTEX
  8
Image
 10
1005.5918195845
 20
620.881508079918
 42
0.0
  0
VERTEX
  8
Image
 10
1061.77135349202
 20
583.164687061318
 42
0.0
  0
VERTEX
  8
Image
 10
1096.31852478456
 20
635.030036432556
 42
0.0
  0
SEQEND
  0
POLYLINE
  8
Image
 66
     1
 10
0.0
 20
0.0
 30
0.0
 70
     1
  0
VERTEX
  8
Image
 10
127.230323905306
 20
1010.18655906256
 42
0.0
  0
VERTEX
  8
Image
 10
170.46426109062
 20
989.361925724957
 42
-0.0028417366102
  0
VERTEX
  8
Image
 10
170.46426109062
 20
989.361925724957
 42
-0.0020777122606
  0
VERTEX
  8
Image
 10
170.46426109062
 20
989.361925724957
 42
-0.0093539177085
  0
VERTEX
  8
Image
 10
170.46426109062
 20
989.361925724957
 42
0.0029672300867
  0
VERTEX
  8
Image
 10
186.637554455944
 20
955.398009657778
 42
0.0006933504526
  0
VERTEX
  8
Image
 10
105.231977850482
 20
939.763826071298
 42
0.0
  0
SEQEND
  0
POLYLINE
  8
Image
 66
     1
 10
0.0
 20
0.0
 30
0.0
 70
     1
  0
VERTEX
  8
Image
 10
1247.34539136993
 20
513.895797117464
 42
-0.0157086602381
  0
VERTEX
  8
Image
 10
1249.54758729595
 20
515.698932520549
 42
-0.0017386301508
  0
VERTEX
  8
Image
 10
1258.99764861429
 20
522.923962183082
 42
-0.002060774801
  0
VERTEX
  8
Image
 10
1323.16381138923
 20
570.638941097132
 42
0.0
  0
VERTEX
  8
Image
 10
1325.57113553291
 20
488.244719011333
 42
0.0
  0
VERTEX
  8
Image
 10
1268.34143208887
 20
449.529698003451
 42
-0.0105229963675
  0
VERTEX
  8
Image
 10
1253.59889094237
 20
489.554626401764
 42
-0.0078796967383
  0
VERTEX
  8
Image
 10
1250.08411489505
 20
500.425946766405
 42
-0.0113423340674
  0
VERTEX
  8
Image
 10
1247.90098440507
 20
508.300905339659
 42
-0.009317143569
  0
VERTEX
  8
Image
 10
1247.30487453046
 20
511.387030765386
 42
-0.0578204494698
  0
VERTEX
  8
Image
 10
1247.21253476895
 20
513.548352750802
 42
-0.1036257476568
  0
SEQEND
  0
POLYLINE
  8
Image
 66
     1
 10
0.0
 20
0.0
 30
0.0
 70
     1
  0
VERTEX
  8
Image
 10
1268.39527599488
 20
710.026269252198
 42
0.0
  0
VERTEX
  8
Image
 10
1236.0959442519
 20
638.594491122636
 42
0.0
  0
VERTEX
  8
Image
 10
1318.44173321871
 20
600.509776106043
 42
0.0
  0
VERTEX
  8
Image
 10
1323.54040387712
 20
641.703281191713
 42
0.0
  0
SEQEND
  0
POLYLINE
  8
Image
 66
     1
 10
0.0
 20
0.0
 30
0.0
 70
     1
  0
VERTEX
  8
Image
 10
1141.33061700057
 20
351.819333058444
 42
0.0
  0
VERTEX
  8
Image
 10
1224.10509740148
 20
432.085291757176
 42
0.0
  0
VERTEX
  8
Image
 10
1280.34779765135
 20
414.169437465362
 42
0.0
  0
VERTEX
  8
Image
 10
1209.41368081931
 20
372.907498663679
 42
0.0
  0
SEQEND
  0
POLYLINE
  8
Image
 66
     1
 10
0.0
 20
0.0
 30
0.0
 70
     1
  0
VERTEX
  8
Image
 10
1207.68610991902
 20
532.022827486313
 42
0.0
  0
VERTEX
  8
Image
 10
1167.34124677492
 20
475.372084197549
 42
0.0
  0
VERTEX
  8
Image
 10
1192.21045899054
 20
439.906037891656
 42
0.0
  0
VERTEX
  8
Image
 10
1217.25006889101
 20
453.784859284102
 42
0.0
  0
SEQEND
  0
POLYLINE
  8
Image
 66
     1
 10
0.0
 20
0.0
 30
0.0
 70
     1
  0
VERTEX
  8
Image
 10
1041.98310254408
 20
1183.46476712742
 42
0.0
  0
VERTEX
  8
Image
 10
1096.15878841992
 20
1129.4579343465
 42
0.0
  0
VERTEX
  8
Image
 10
1065.35786314727
 20
1116.42513229933
 42
0.0
  0
VERTEX
  8
Image
 10
1001.27878434197
 20
1142.96904720203
 42
0.0
  0
SEQEND
  0
POLYLINE
  8
Image
 66
     1
 10
0.0
 20
0.0
 30
0.0
 70
     1
  0
VERTEX
  8
Image
 10
1331.61761347299
 20
1083.19117201804
 42
0.0
  0
VERTEX
  8
Image
 10
1371.2007518452
 20
1044.11068257455
 42
0.0
  0
VERTEX
  8
Image
 10
1321.059373226
 20
970.246585932734
 42
0.0
  0
VERTEX
  8
Image
 10
1293.33055808085
 20
1037.51511268928
 42
0.0
  0
SEQEND
  0
POLYLINE
  8
Image
 66
     1
 10
0.0
 20
0.0
 30
0.0
 70
     1
  0
VERTEX
  8
Image
 10
1261.32104643783
 20
1002.06636445411
 42
0.0
  0
VERTEX
  8
Image
 10
1307.9808018691
 20
941.163863250756
 42
0.0
  0
VERTEX
  8
Image
 10
1286.88957527574
 20
909.286046197742
 42
0.0
  0
VERTEX
  8
Image
 10
1241.28065616942
 20
946.92955916451
 42
0.0
  0
SEQEND
  0
POLYLINE
  8
Image
 66
     1
 10
0.0
 20
0.0
 30
0.0
 70
     1
  0
VERTEX
  8
Image
 10
1283.2138927354
 20
888.619276727152
 42
0.0
  0
VERTEX
  8
Image
 10
1332.2477940747
 20
883.496382327016
 42
0.0
  0
VERTEX
  8
Image
 10
1333.0461649395
 20
857.220716923664
 42
0.0
  0
VERTEX
  8
Image
 10
1281.23882822433
 20
807.452112365646
 42
0.0
  0
SEQEND
  0
POLYLINE
  8
Image
 66
     1
 10
0.0
 20
0.0
 30
0.0
 70
     1
  0
VERTEX
  8
Image
 10
1208.09395199295
 20
820.168200676007
 42
0.0
  0
VERTEX
  8
Image
 10
1180.10619043565
 20
867.367234841734
 42
0.0
  0
VERTEX
  8
Image
 10
1246.42152350553
 20
896.503473527405
 42
0.0
  0
VERTEX
  8
Image
 10
1244.30971296037
 20
822.332625644287
 42
0.0
  0
SEQEND
  0
POLYLINE
  8
Image
 66
     1
 10
0.0
 20
0.0
 30
0.0
 70
     1
  0
VERTEX
  8
Image
 10
1128.22451435701
 20
940.497790995755
 42
0.0
  0
VERTEX
  8
Image
 10
1162.36108183314
 20
877.511664254106
 42
0.0
  0
VERTEX
  8
Image
 10
1106.27869264284
 20
809.755541372049
 42
0.0
  0
VERTEX
  8
Image
 10
1087.74804399419
 20
873.153569438744
 42
0.0
  0
SEQEND
  0
POLYLINE
  8
Image
 66
     1
 10
0.0
 20
0.0
 30
0.0
 70
     1
  0
VERTEX
  8
Image
 10
996.24496213597
 20
906.496057989753
 42
0.0
  0
VERTEX
  8
Image
 10
1025.26968212755
 20
872.418478287326
 42
0.0
  0
VERTEX
  8
Image
 10
1066.28955234551
 20
880.569202750107
 42
0.0
  0
VERTEX
  8
Image
 10
1050.51742012729
 20
904.965131247339
 42
0.0
  0
SEQEND
  0
POLYLINE
  8
Image
 66
     1
 10
0.0
 20
0.0
 30
0.0
 70
     1
  0
VERTEX
  8
Image
 10
1069.11710863599
 20
1086.21790213308
 42
0.0
  0
VERTEX
  8
Image
 10
1048.89036938534
 20
1015.21383919534
 42
0.0
  0
VERTEX
  8
Image
 10
1104.86386560187
 20
1039.77507678611
 42
0.0
  0
VERTEX
  8
Image
 10
1111.74429973863
 20
1079.02372349346
 42
0.0
  0
SEQEND
  0
POLYLINE
  8
Image
 66
     1
 10
0.0
 20
0.0
 30
0.0
 70
     1
  0
VERTEX
  8
Image
 10
1057.0423297042
 20
1098.07635982024
 42
0.0
  0
VERTEX
  8
Image
 10
1010.35717651031
 20
1028.01820031081
 42
0.0
  0
VERTEX
  8
Image
 10
1010.35717651031
 20
1028.01820031081
 42
0.0
  0
VERTEX
  8
Image
 10
1007.30862104141
 20
1107.36394201283
 42
0.0
  0
SEQEND
  0
POLYLINE
  8
Image
 66
     1
 10
0.0
 20
0.0
 30
0.0
 70
     1
  0
VERTEX
  8
Image
 10
1014.24292060818
 20
1006.10190422532
 42
0.0
  0
VERTEX
  8
Image
 10
991.271656263359
 20
954.122208705187
 42
0.0
  0
VERTEX
  8
Image
 10
1034.57436937346
 20
958.30575854446
 42
0.0
  0
VERTEX
  8
Image
 10
1048.14400474885
 20
990.986131062656
 42
0.0
  0
SEQEND
  0
POLYLINE
  8
Image
 66
     1
 10
0.0
 20
0.0
 30
0.0
 70
     1
  0
VERTEX
  8
Image
 10
1116.09759992578
 20
988.677523459948
 42
0.0
  0
VERTEX
  8
Image
 10
1093.49858219366
 20
932.153738316311
 42
0.0
  0
VERTEX
  8
Image
 10
1057.90112206046
 20
940.673835098709
 42
0.0
  0
VERTEX
  8
Image
 10
1076.21768395121
 20
985.130377201684
 42
0.0
  0
SEQEND
  0
POLYLINE
  8
Image
 66
     1
 10
0.0
 20
0.0
 30
0.0
 70
     1
  0
VERTEX
  8
Image
 10
1140.14008050741
 20
997.460203904659
 42
0.0
  0
VERTEX
  8
Image
 10
1168.11743988029
 20
1027.66034925401
 42
0.0
  0
VERTEX
  8
Image
 10
1129.82587781891
 20
1057.90459581164
 42
0.0
  0
VERTEX
  8
Image
 10
1113.11623656234
 20
1010.97842405699
 42
0.0
  0
SEQEND
  0
POLYLINE
  8
Image
 66
     1
 10
0.0
 20
0.0
 30
0.0
 70
     1
  0
VERTEX
  8
Image
 10
1137.00378774341
 20
950.006602628739
 42
0.0
  0
VERTEX
  8
Image
 10
1206.17466652292
 20
895.062536137355
 42
0.0
  0
VERTEX
  8
Image
 10
1220.60538511319
 20
956.791520245382
 42
0.0
  0
SEQEND
  0
POLYLINE
  8
Image
 66
     1
 10
0.0
 20
0.0
 30
0.0
 70
     1
  0
VERTEX
  8
Image
 10
1243.17189119944
 20
1129.27937588233
 42
-0.0157086602382
  0
VERTEX
  8
Image
 10
1245.37408712547
 20
1131.08251128542
 42
-0.0017386301508
  0
VERTEX
  8
Image
 10
1254.8241484438
 20
1138.30754094795
 42
-0.0020607748009
  0
VERTEX
  8
Image
 10
1318.99031121875
 20
1186.022519862
 42
0.0
  0
VERTEX
  8
Image
 10
1289.35999822246
 20
1115.80607239022
 42
0.0
  0
VERTEX
  8
Image
 10
1264.16793191838
 20
1064.91327676832
 42
-0.0105229963675
  0
VERTEX
  8
Image
 10
1249.42539077188
 20
1104.93820516663
 42
-0.0078796967385
  0
VERTEX
  8
Image
 10
1245.91061472456
 20
1115.80952553127
 42
-0.0113423340661
  0
VERTEX
  8
Image
 10
1243.72748423458
 20
1123.68448410453
 42
-0.0093171435684
  0
VERTEX
  8
Image
 10
1243.13137435998
 20
1126.77060953025
 42
-0.0578204494674
  0
VERTEX
  8
Image
 10
1243.03903459847
 20
1128.93193151567
 42
-0.1036257469562
  0
SEQEND
  0
POLYLINE
  8
Image
 66
     1
 10
0.0
 20
0.0
 30
0.0
 70
     1
  0
VERTEX
  8
Image
 10
1137.15711683008
 20
967.202911823314
 42
0.0
  0
VERTEX
  8
Image
 10
1223.20618744088
 20
1047.04145430001
 42
0.0
  0
VERTEX
  8
Image
 10
1262.84233684368
 20
1028.31120630556
 42
0.0
  0
VERTEX
  8
Image
 10
1205.24018064882
 20
988.29107742854
 42
0.0
  0
SEQEND
  0
POLYLINE
  8
Image
 66
     1
 10
0.0
 20
0.0
 30
0.0
 70
     1
  0
VERTEX
  8
Image
 10
1203.51260974853
 20
1147.40640625117
 42
0.0
  0
VERTEX
  8
Image
 10
1163.16774660444
 20
1090.75566296242
 42
0.0
  0
VERTEX
  8
Image
 10
1188.03695882005
 20
1055.28961665652
 42
0.0
  0
VERTEX
  8
Image
 10
1213.07656872053
 20
1069.16843804897
 42
0.0
  0
SEQEND
  0
POLYLINE
  8
Image
 66
     1
 10
0.0
 20
0.0
 30
0.0
 70
     1
  0
VERTEX
  8
Image
 10
1080.92491073495
 20
780.91150215895
 42
0.0
  0
VERTEX
  8
Image
 10
1148.68452329378
 20
758.054829321433
 42
0.0
  0
VERTEX
  8
Image
 10
1183.23169458633
 20
809.920178692661
 42
0.0
  0
SEQEND
  0
POLYLINE
  8
Image
 66
     1
 10
0.0
 20
0.0
 30
0.0
 70
     1
  0
VERTEX
  8
Image
 10
1362.28123576038
 20
312.565020263241
 42
0.0
  0
VERTEX
  8
Image
 10
1392.72994783708
 20
247.69423251117
 42
0.0
  0
VERTEX
  8
Image
 10
1265.04290433382
 20
211.885841749973
 42
0.0
  0
VERTEX
  8
Image
 10
1306.05874633699
 20
257.192428432327
 42
0.0
  0
SEQEND
  0
POLYLINE
  8
Image
 66
     1
 10
0.0
 20
0.0
 30
0.0
 70
     1
  0
VERTEX
  8
Image
 10
993.61776276574
 20
533.073338210337
 42
0.0
  0
VERTEX
  8
Image
 10
1000.17966401296
 20
580.468358809431
 42
0.0
  0
VERTEX
  8
Image
 10
980.421831625104
 20
578.239298490754
 42
0.0
  0
VERTEX
  8
Image
 10
956.658100147999
 20
526.248218751306
 42
0.0
  0
SEQEND
  0
POLYLINE
  8
Image
 66
     1
 10
0.0
 20
0.0
 30
0.0
 70
     1
  0
VERTEX
  8
Image
 10
990.055662867314
 20
1041.18293163138
 42
0.0
  0
VERTEX
  8
Image
 10
980.487262825395
 20
980.622838382726
 42
0.0
  0
VERTEX
  8
Image
 10
943.99999993311
 20
980.097877403898
 42
0.0
  0
VERTEX
  8
Image
 10
952.052911203505
 20
1027.86321224222
 42
0.0
  0
SEQEND
  0
POLYLINE
  8
Image
 66
     1
 10
0.0
 20
0.0
 30
0.0
 70
     1
  0
VERTEX
  8
Image
 10
1172.46557304526
 20
215.57397205789
 42
0.0
  0
VERTEX
  8
Image
 10
1260.07674714518
 20
282.038860313178
 42
0.0
  0
VERTEX
  8
Image
 10
1228.04142389966
 20
195.144791613516
 42
0.0
  0
SEQEND
  0
POLYLINE
  8
Image
 66
     1
 10
0.0
 20
0.0
 30
0.0
 70
     1
  0
VERTEX
  8
Image
 10
1235.55607991654
 20
165.643937962783
 42
0.0
  0
VERTEX
  8
Image
 10
1242.18494072066
 20
127.9841832112
 42
0.0
  0
VERTEX
  8
Image
 10
1276.89369255878
 20
134.88087672037
 42
0.0
  0
VERTEX
  8
Image
 10
1263.79108597653
 20
155.147651617079
 42
0.0
  0
SEQEND
  0
POLYLINE
  8
Image
 66
     1
 10
0.0
 20
0.0
 30
0.0
 70
     1
  0
VERTEX
  8
Image
 10
1392.48419665866
 20
366.778089142049
 42
0.0
  0
VERTEX
  8
Image
 10
1361.60252441122
 20
369.14160484089
 42
0.0
  0
VERTEX
  8
Image
 10
1364.79791398115
 20
330.758476304871
 42
0.0
  0
VERTEX
  8
Image
 10
1392.48419665866
 20
324.684106105263
 42
0.0
  0
SEQEND
  0
POLYLINE
  8
Image
 66
     1
 10
0.0
 20
0.0
 30
0.0
 70
     1
  0
VERTEX
  8
Image
 10
1392.48419665866
 20
1004.95037067859
 42
0.0
  0
VERTEX
  8
Image
 10
1365.75539648082
 20
1006.99604807344
 42
0.0
  0
VERTEX
  8
Image
 10
1368.95078605075
 20
968.612919537422
 42
0.0
  0
VERTEX
  8
Image
 10
1392.48419665866
 20
963.44968943691
 42
0.0
  0
SEQEND
  0
POLYLINE
  8
Image
 66
     1
 10
0.0
 20
0.0
 30
0.0
 70
     1
  0
VERTEX
  8
Image
 10
1392.48419665866
 20
921.54224136728
 42
0.0
  0
VERTEX
  8
Image
 10
1392.48419665866
 20
890.431760247226
 42
0.0
  0
VERTEX
  8
Image
 10
1368.36054569634
 20
868.517318665198
 42
0.0
  0
VERTEX
  8
Image
 10
1331.82669766989
 20
919.215830881476
 42
0.0
  0
VERTEX
  8
Image
 10
1367.08368869075
 20
945.516167112452
 42
0.0
  0
SEQEND
  0
POLYLINE
  8
Image
 66
     1
 10
0.0
 20
0.0
 30
0.0
 70
     1
  0
VERTEX
  8
Image
 10
1392.48419665866
 20
787.622204674493
 42
0.0
  0
VERTEX
  8
Image
 10
1392.48419665866
 20
776.967688552707
 42
0.0
  0
VERTEX
  8
Image
 10
1269.21640450431
 20
742.398626973486
 42
0.0
  0
VERTEX
  8
Image
 10
1269.21640450431
 20
742.398626973486
 42
0.0
  0
VERTEX
  8
Image
 10
1366.45473593087
 20
843.077805486755
 42
0.0
  0
SEQEND
  0
POLYLINE
  8
Image
 66
     1
 10
0.0
 20
0.0
 30
0.0
 70
     1
  0
VERTEX
  8
Image
 10
1392.48419665866
 20
650.169809636284
 42
0.0
  0
VERTEX
  8
Image
 10
1392.48419665866
 20
570.906195808296
 42
0.0
  0
VERTEX
  8
Image
 10
1356.28171729098
 20
617.201592996684
 42
0.0
  0
SEQEND
  0
POLYLINE
  8
Image
 66
     1
 10
0.0
 20
0.0
 30
0.0
 70
     1
  0
VERTEX
  8
Image
 10
1392.48419665866
 20
542.785508732506
 42
0.0
  0
VERTEX
  8
Image
 10
1392.48419665866
 20
435.382843695008
 42
0.0
  0
VERTEX
  8
Image
 10
1348.21609851075
 20
489.21279624584
 42
0.0
  0
VERTEX
  8
Image
 10
1354.66023655867
 20
567.681283329037
 42
0.0
  0
SEQEND
  0
POLYLINE
  8
Image
 66
     1
 10
0.0
 20
0.0
 30
0.0
 70
     1
  0
VERTEX
  8
Image
 10
1389.22943418487
 20
171.930230782953
 42
0.0
  0
VERTEX
  8
Image
 10
1301.26539383876
 20
165.445041168329
 42
0.0
  0
VERTEX
  8
Image
 10
1272.76081478254
 20
190.957344341991
 42
0.0
  0
VERTEX
  8
Image
 10
1385.19929159381
 20
209.583427166483
 42
0.0
  0
SEQEND
  0
POLYLINE
  8
Image
 66
     1
 10
0.0
 20
0.0
 30
0.0
 70
     1
  0
VERTEX
  8
Image
 10
459.565459446246
 20
779.61135699536
 42
0.0
  0
VERTEX
  8
Image
 10
458.466121171997
 20
779.324826628
 42
-0.0137419307041
  0
VERTEX
  8
Image
 10
456.156682922153
 20
780.063182251353
 42
-0.001708642373
  0
VERTEX
  8
Image
 10
445.36726579328
 20
783.865138339171
 42
-0.0020217769385
  0
VERTEX
  8
Image
 10
373.126848417885
 20
810.390323301841
 42
0.0
  0
VERTEX
  8
Image
 10
434.346815068467
 20
855.873352469589
 42
0.0
  0
VERTEX
  8
Image
 10
452.441196792344
 20
848.317140865082
 42
0.0
  0
VERTEX
  8
Image
 10
460.689617621874
 20
780.533423862274
 42
-0.0005371956832
  0
VERTEX
  8
Image
 10
460.689617621874
 20
780.533423862274
 42
-0.0119434727646
  0
VERTEX
  8
Image
 10
460.689617621874
 20
780.533423862274
 42
-0.0098512307768
  0
VERTEX
  8
Image
 10
460.689617621874
 20
780.533423862274
 42
-0.0445152632899
  0
SEQEND
  0
POLYLINE
  8
Image
 66
     1
 10
0.0
 20
0.0
 30
0.0
 70
     1
  0
VERTEX
  8
Image
 10
944.591493381338
 20
266.490653747285
 42
0.0
  0
VERTEX
  8
Image
 10
944.591493381338
 20
286.431129785717
 42
0.0
  0
VERTEX
  8
Image
 10
961.673726178784
 20
278.35884069064
 42
0.0
  0
SEQEND
  0
POLYLINE
  8
Image
 66
     1
 10
0.0
 20
0.0
 30
0.0
 70
     1
  0
VERTEX
  8
Image
 10
944.591493381338
 20
456.372302622726
 42
0.0
  0
VERTEX
  8
Image
 10
944.591493381338
 20
516.399748788259
 42
0.0
  0
VERTEX
  8
Image
 10
961.17855137952
 20
476.160490496022
 42
0.0
  0
SEQEND
  0
POLYLINE
  8
Image
 66
     1
 10
0.0
 20
0.0
 30
0.0
 70
     1
  0
VERTEX
  8
Image
 10
946.156428253791
 20
586.30503477147
 42
0.0
  0
VERTEX
  8
Image
 10
944.591493381338
 20
671.296383583014
 42
0.0
  0
VERTEX
  8
Image
 10
987.424777311526
 20
703.253933768765
 42
0.0
  0
VERTEX
  8
Image
 10
983.329321229512
 20
641.893146736181
 42
0.0
  0
SEQEND
  0
POLYLINE
  8
Image
 66
     1
 10
0.0
 20
0.0
 30
0.0
 70
     1
  0
VERTEX
  8
Image
 10
944.591493381338
 20
710.16584728908
 42
0.0
  0
VERTEX
  8
Image
 10
944.591493381338
 20
759.862780624429
 42
0.0
  0
VERTEX
  8
Image
 10
982.70977301325
 20
807.999635151444
 42
0.0
  0
VERTEX
  8
Image
 10
971.867679228665
 20
716.55883558819
 42
0.0
  0
SEQEND
  0
POLYLINE
  8
Image
 66
     1
 10
0.0
 20
0.0
 30
0.0
 70
     1
  0
VERTEX
  8
Image
 10
944.591493381338
 20
878.079028448333
 42
0.0
  0
VERTEX
  8
Image
 10
944.591493381338
 20
937.759949370715
 42
0.0
  0
VERTEX
  8
Image
 10
960.570064601812
 20
940.192621797582
 42
0.0
  0
VERTEX
  8
Image
 10
983.613080913547
 20
878.739699882863
 42
0.0
  0
SEQEND
  0
POLYLINE
  8
Image
 66
     1
 10
0.0
 20
0.0
 30
0.0
 70
     1
  0
VERTEX
  8
Image
 10
1084.34255500228
 20
1192.26669564608
 42
0.0
  0
VERTEX
  8
Image
 10
1172.24199994901
 20
1192.26669564608
 42
-0.002470409604
  0
VERTEX
  8
Image
 10
1143.21511749118
 20
1127.79476280804
 42
-0.0020013749858
  0
VERTEX
  8
Image
 10
1134.20675674281
 20
1108.40298861328
 42
-0.0090340853638
  0
VERTEX
  8
Image
 10
1131.9772943998
 20
1103.85717172838
 42
0.0028742693904
  0
VERTEX
  8
Image
 10
1118.67296688025
 20
1128.76902289382
 42
0.0006479237117
  0
SEQEND
  0
POLYLINE
  8
Image
 66
     1
 10
0.0
 20
0.0
 30
0.0
 70
     1
  0
VERTEX
  8
Image
 10
1216.31832352579
 20
1192.26669564608
 42
0.0
  0
VERTEX
  8
Image
 10
1285.8818878878
 20
1192.26669564608
 42
0.0
  0
VERTEX
  8
Image
 10
1285.63614619934
 20
1188.06136406627
 42
0.0
  0
VERTEX
  8
Image
 10
1257.59823908075
 20
1172.63877226668
 42
0.0
  0
VERTEX
  8
Image
 10
1205.60107699576
 20
1176.24136096693
 42
0.0
  0
SEQEND
  0
POLYLINE
  8
Image
 66
     1
 10
0.0
 20
0.0
 30
0.0
 70
     1
  0
VERTEX
  8
Image
 10
1392.48419665866
 20
1155.42208482371
 42
0.0
  0
VERTEX
  8
Image
 10
1350.31706148506
 20
1194.1577635
 42
0.0
  0
VERTEX
  8
Image
 10
1344.04259834027
 20
1104.5963750107
 42
0.0
  0
VERTEX
  8
Image
 10
1390.14077822659
 20
1048.54104533132
 42
0.0
  0
VERTEX
  8
Image
 10
1392.48419665866
 20
1066.85753140206
 42
0.0
  0
SEQEND
  0
POLYLINE
  8
Image
 66
     1
 10
0.0
 20
0.0
 30
0.0
 70
     1
  0
VERTEX
  8
Image
 10
944.591493381338
 20
1086.80857692265
 42
0.0
  0
VERTEX
  8
Image
 10
959.070532065461
 20
1079.56568309436
 42
0.0
  0
VERTEX
  8
Image
 10
987.047891438336
 20
1109.76582844372
 42
0.0
  0
VERTEX
  8
Image
 10
948.756329376959
 20
1140.01007500135
 42
0.0
  0
VERTEX
  8
Image
 10
944.591493381338
 20
1128.31384488728
 42
0.0
  0
SEQEND
  0
POLYLINE
  8
Image
 66
     1
 10
0.0
 20
0.0
 30
0.0
 70
     1
  0
VERTEX
  8
Image
 10
944.591493381338
 20
331.069687351625
 42
0.0
  0
VERTEX
  8
Image
 10
952.129228211905
 20
320.32010468593
 42
0.0
  0
VERTEX
  8
Image
 10
977.168838112382
 20
334.198926078383
 42
0.0
  0
VERTEX
  8
Image
 10
967.604879140392
 20
412.436894280589
 42
0.0
  0
VERTEX
  8
Image
 10
944.591493381338
 20
380.122361345257
 42
0.0
  0
SEQEND
  0
POLYLINE
  8
Image
 66
     1
 10
0.0
 20
0.0
 30
0.0
 70
     1
  0
VERTEX
  8
Image
 10
953.627233542741
 20
1191.21629766095
 42
0.0
  0
VERTEX
  8
Image
 10
994.365095432902
 20
1191.21629766074
 42
-0.0015780405438
  0
VERTEX
  8
Image
 10
975.802949319222
 20
1150.15516593554
 42
0.0
  0
VERTEX
  8
Image
 10
975.68121413779
 20
1150.3800215475
 42
0.0004163182455
  0
SEQEND
  0
POLYLINE
  8
Image
 66
     1
 10
0.0
 20
0.0
 30
0.0
 70
     1
  0
VERTEX
  8
Image
 10
1069.06708695208
 20
-180.876106199426
 42
0.0
  0
VERTEX
  8
Image
 10
1068.48887183753
 20
-135.588039733822
 42
0.0
  0
VERTEX
  8
Image
 10
1020.93312691057
 20
-93.5985686281416
 42
0.0
  0
VERTEX
  8
Image
 10
1003.25363940691
 20
-93.2661166187644
 42
0.0
  0
VERTEX
  8
Image
 10
1018.65867384021
 20
-191.764209640361
 42
0.0
  0
SEQEND
  0
POLYLINE
  8
Image
 66
     1
 10
0.0
 20
0.0
 30
0.0
 70
     1
  0
VERTEX
  8
Image
 10
1115.15113111566
 20
-205.974299574492
 42
0.0
  0
VERTEX
  8
Image
 10
1083.94194190126
 20
-270.84111233836
 42
0.0
  0
VERTEX
  8
Image
 10
1004.25890560918
 20
-253.214261043831
 42
0.0
  0
VERTEX
  8
Image
 10
1004.25890560918
 20
-253.214261043831
 42
0.0
  0
SEQEND
  0
POLYLINE
  8
Image
 66
     1
 10
0.0
 20
0.0
 30
0.0
 70
     1
  0
VERTEX
  8
Image
 10
1126.83688449814
 20
-233.063891712027
 42
0.0
  0
VERTEX
  8
Image
 10
1232.41830067655
 20
-231.24819534049
 42
0.0
  0
VERTEX
  8
Image
 10
1188.41202290364
 20
-311.757350587857
 42
0.0
  0
VERTEX
  8
Image
 10
1125.02589533918
 20
-285.624278425737
 42
0.0
  0
SEQEND
  0
POLYLINE
  8
Image
 66
     1
 10
0.0
 20
0.0
 30
0.0
 70
     1
  0
VERTEX
  8
Image
 10
1061.01330164897
 20
-377.113854003266
 42
0.0
  0
VERTEX
  8
Image
 10
1101.35022655038
 20
-420.994794106183
 42
0.0
  0
VERTEX
  8
Image
 10
1070.54930127773
 20
-434.027596153354
 42
0.0
  0
VERTEX
  8
Image
 10
999.281194773372
 20
-422.291886232634
 42
0.0
  0
SEQEND
  0
POLYLINE
  8
Image
 66
     1
 10
0.0
 20
0.0
 30
0.0
 70
     1
  0
VERTEX
  8
Image
 10
1312.0840139651
 20
-209.275560523595
 42
0.0
  0
VERTEX
  8
Image
 10
1389.3727917643
 20
-190.649477699108
 42
0.0
  0
VERTEX
  8
Image
 10
1394.00000006689
 20
-233.880995936643
 42
0.0
  0
VERTEX
  8
Image
 10
1355.98258102243
 20
-290.704343807544
 42
0.0
  0
SEQEND
  0
POLYLINE
  8
Image
 66
     1
 10
0.0
 20
0.0
 30
0.0
 70
     1
  0
VERTEX
  8
Image
 10
1246.57475665969
 20
-320.706729467258
 42
0.0
  0
VERTEX
  8
Image
 10
1291.62201814945
 20
-348.796366928625
 42
0.0
  0
VERTEX
  8
Image
 10
1262.78967721121
 20
-377.813956185994
 42
0.0
  0
VERTEX
  8
Image
 10
1262.78967721121
 20
-377.813956185994
 42
0.0
  0
VERTEX
  8
Image
 10
1129.17981589284
 20
-349.787081746993
 42
0.0
  0
SEQEND
  0
POLYLINE
  8
Image
 66
     1
 10
0.0
 20
0.0
 30
0.0
 70
     1
  0
VERTEX
  8
Image
 10
1336.80905160344
 20
-467.26155643463
 42
0.0
  0
VERTEX
  8
Image
 10
1376.39218997566
 20
-506.342045878132
 42
0.0
  0
VERTEX
  8
Image
 10
1324.75296151835
 20
-611.332119600178
 42
0.0
  0
VERTEX
  8
Image
 10
1291.81080851487
 20
-537.962430595608
 42
0.0
  0
SEQEND
  0
POLYLINE
  8
Image
 66
     1
 10
0.0
 20
0.0
 30
0.0
 70
     1
  0
VERTEX
  8
Image
 10
1266.51248456829
 20
-548.386363998571
 42
0.0
  0
VERTEX
  8
Image
 10
1302.25588141841
 20
-610.478983681521
 42
0.0
  0
VERTEX
  8
Image
 10
1294.22120995414
 20
-656.548323289041
 42
0.0
  0
VERTEX
  8
Image
 10
1246.47209429988
 20
-603.523169288163
 42
0.0
  0
SEQEND
  0
POLYLINE
  8
Image
 66
     1
 10
0.0
 20
0.0
 30
0.0
 70
     1
  0
VERTEX
  8
Image
 10
1133.41595248747
 20
-609.954937456928
 42
0.0
  0
VERTEX
  8
Image
 10
1167.5525199636
 20
-672.941064198569
 42
0.0
  0
VERTEX
  8
Image
 10
1118.6402866296
 20
-723.267428308334
 42
0.0
  0
VERTEX
  8
Image
 10
1092.93948212465
 20
-677.299159013936
 42
0.0
  0
SEQEND
  0
POLYLINE
  8
Image
 66
     1
 10
0.0
 20
0.0
 30
0.0
 70
     1
  0
VERTEX
  8
Image
 10
1012.25322792338
 20
-622.009729918303
 42
0.0
  0
VERTEX
  8
Image
 10
1020.15095046989
 20
-666.878117260608
 42
0.0
  0
VERTEX
  8
Image
 10
1061.17082068785
 20
-658.727392797835
 42
0.0
  0
VERTEX
  8
Image
 10
1045.39868846962
 20
-634.331464300597
 42
0.0
  0
SEQEND
  0
POLYLINE
  8
Image
 66
     1
 10
0.0
 20
0.0
 30
0.0
 70
     1
  0
VERTEX
  8
Image
 10
1074.30854676645
 20
-464.234826319596
 42
0.0
  0
VERTEX
  8
Image
 10
1054.0818075158
 20
-535.238889257336
 42
0.0
  0
VERTEX
  8
Image
 10
1110.05530373233
 20
-510.677651666566
 42
0.0
  0
VERTEX
  8
Image
 10
1116.93573786909
 20
-471.429004959215
 42
0.0
  0
SEQEND
  0
POLYLINE
  8
Image
 66
     1
 10
0.0
 20
0.0
 30
0.0
 70
     1
  0
VERTEX
  8
Image
 10
1062.23376783466
 20
-452.376368632432
 42
0.0
  0
VERTEX
  8
Image
 10
993.482956635411
 20
-542.015720325883
 42
0.0
  0
VERTEX
  8
Image
 10
993.482956635411
 20
-542.015720325883
 42
0.0
  0
VERTEX
  8
Image
 10
1012.50005917186
 20
-443.088786439849
 42
0.0
  0
SEQEND
  0
POLYLINE
  8
Image
 66
     1
 10
0.0
 20
0.0
 30
0.0
 70
     1
  0
VERTEX
  8
Image
 10
1024.02800653408
 20
-564.578005766273
 42
0.0
  0
VERTEX
  8
Image
 10
989.498819692106
 20
-573.038862806419
 42
0.0
  0
VERTEX
  8
Image
 10
1038.54792041969
 20
-599.148043563077
 42
0.0
  0
VERTEX
  8
Image
 10
1053.33544287931
 20
-559.466597390025
 42
0.0
  0
SEQEND
  0
POLYLINE
  8
Image
 66
     1
 10
0.0
 20
0.0
 30
0.0
 70
     1
  0
VERTEX
  8
Image
 10
1121.28903805624
 20
-561.775204992728
 42
0.0
  0
VERTEX
  8
Image
 10
1098.69002032412
 20
-618.298990136369
 42
0.0
  0
VERTEX
  8
Image
 10
1063.09256019092
 20
-609.778893353972
 42
0.0
  0
VERTEX
  8
Image
 10
1081.40912208167
 20
-565.322351250991
 42
0.0
  0
SEQEND
  0
POLYLINE
  8
Image
 66
     1
 10
0.0
 20
0.0
 30
0.0
 70
     1
  0
VERTEX
  8
Image
 10
1145.33151863787
 20
-552.992524548024
 42
0.0
  0
VERTEX
  8
Image
 10
1173.30887801075
 20
-522.792379198666
 42
0.0
  0
VERTEX
  8
Image
 10
1135.01731594937
 20
-492.548132641043
 42
0.0
  0
VERTEX
  8
Image
 10
1118.3076746928
 20
-539.47430439568
 42
0.0
  0
SEQEND
  0
POLYLINE
  8
Image
 66
     1
 10
0.0
 20
0.0
 30
0.0
 70
     1
  0
VERTEX
  8
Image
 10
1149.95674776209
 20
-192.64772630295
 42
0.0
  0
VERTEX
  8
Image
 10
1265.26818527565
 20
-122.517504151123
 42
0.0
  0
VERTEX
  8
Image
 10
1233.23286203012
 20
-209.411572850788
 42
0.0
  0
SEQEND
  0
POLYLINE
  8
Image
 66
     1
 10
0.0
 20
0.0
 30
0.0
 70
     1
  0
VERTEX
  8
Image
 10
1164.73712863437
 20
-607.814588185731
 42
0.0
  0
VERTEX
  8
Image
 10
1210.31440361033
 20
-664.253358481557
 42
0.0
  0
VERTEX
  8
Image
 10
1215.14660975066
 20
-580.864090709097
 42
0.0
  0
SEQEND
  0
POLYLINE
  8
Image
 66
     1
 10
0.0
 20
0.0
 30
0.0
 70
     1
  0
VERTEX
  8
Image
 10
1006.60975754448
 20
-314.187641607896
 42
0.0
  0
VERTEX
  8
Image
 10
1062.78929145199
 20
-351.904462626495
 42
0.0
  0
VERTEX
  8
Image
 10
1097.33646274454
 20
-300.039113255257
 42
0.0
  0
SEQEND
  0
POLYLINE
  8
Image
 66
     1
 10
0.0
 20
0.0
 30
0.0
 70
     1
  0
VERTEX
  8
Image
 10
992.342281899492
 20
1011.18655906256
 42
0.0
  0
VERTEX
  8
Image
 10
1035.57621908481
 20
990.361925724957
 42
-0.0028417366102
  0
VERTEX
  8
Image
 10
1035.57621908481
 20
990.361925724957
 42
-0.0020777122606
  0
VERTEX
  8
Image
 10
1035.57621908481
 20
990.361925724957
 42
-0.0093539177085
  0
VERTEX
  8
Image
 10
1035.57621908481
 20
990.361925724957
 42
0.0029672300867
  0
VERTEX
  8
Image
 10
1051.74951245013
 20
956.398009657778
 42
0.0006933504526
  0
VERTEX
  8
Image
 10
970.343935844668
 20
940.763826071298
 42
0.0
  0
SEQEND
  0
POLYLINE
  8
Image
 66
     1
 10
0.0
 20
0.0
 30
0.0
 70
     1
  0
VERTEX
  8
Image
 10
1248.3633293299
 20
-421.17335257035
 42
-0.0157086602376
  0
VERTEX
  8
Image
 10
1250.56552525593
 20
-419.370217167265
 42
-0.0017386301508
  0
VERTEX
  8
Image
 10
1260.01558657426
 20
-412.145187504732
 42
-0.002060774801
  0
VERTEX
  8
Image
 10
1324.18174934921
 20
-364.430208590681
 42
0.0
  0
VERTEX
  8
Image
 10
1326.58907349288
 20
-446.82443067648
 42
0.0
  0
VERTEX
  8
Image
 10
1269.35937004884
 20
-485.539451684363
 42
-0.0105229963675
  0
VERTEX
  8
Image
 10
1254.61682890235
 20
-445.514523286049
 42
-0.0078796967383
  0
VERTEX
  8
Image
 10
1251.10205285502
 20
-434.643202921408
 42
-0.0113423340711
  0
VERTEX
  8
Image
 10
1248.91892236504
 20
-426.768244348154
 42
-0.0093171435672
  0
VERTEX
  8
Image
 10
1248.32281249043
 20
-423.682118922428
 42
-0.0578204494674
  0
VERTEX
  8
Image
 10
1248.23047272892
 20
-421.520796937011
 42
-0.1036257478248
  0
SEQEND
  0
POLYLINE
  8
Image
 66
     1
 10
0.0
 20
0.0
 30
0.0
 70
     1
  0
VERTEX
  8
Image
 10
1269.41321395485
 20
-225.042880435615
 42
0.0
  0
VERTEX
  8
Image
 10
1237.11388221187
 20
-296.474658565177
 42
0.0
  0
VERTEX
  8
Image
 10
1319.45967117868
 20
-334.55937358177
 42
0.0
  0
VERTEX
  8
Image
 10
1324.55834183709
 20
-293.365868496101
 42
0.0
  0
SEQEND
  0
POLYLINE
  8
Image
 66
     1
 10
0.0
 20
0.0
 30
0.0
 70
     1
  0
VERTEX
  8
Image
 10
1142.34855496054
 20
-583.249816629369
 42
0.0
  0
VERTEX
  8
Image
 10
1225.12303536145
 20
-502.983857930637
 42
0.0
  0
VERTEX
  8
Image
 10
1281.36573561132
 20
-520.899712222451
 42
0.0
  0
VERTEX
  8
Image
 10
1210.43161877928
 20
-562.161651024135
 42
0.0
  0
SEQEND
  0
POLYLINE
  8
Image
 66
     1
 10
0.0
 20
0.0
 30
0.0
 70
     1
  0
VERTEX
  8
Image
 10
1208.704047879
 20
-403.0463222015
 42
0.0
  0
VERTEX
  8
Image
 10
1168.35918473489
 20
-459.697065490264
 42
0.0
  0
VERTEX
  8
Image
 10
1193.22839695051
 20
-495.163111796158
 42
0.0
  0
VERTEX
  8
Image
 10
1218.26800685098
 20
-481.284290403712
 42
0.0
  0
SEQEND
  0
POLYLINE
  8
Image
 66
     1
 10
0.0
 20
0.0
 30
0.0
 70
     1
  0
VERTEX
  8
Image
 10
1041.98310254408
 20
252.719077038321
 42
0.0
  0
VERTEX
  8
Image
 10
1096.15878841992
 20
198.7122442574
 42
0.0
  0
VERTEX
  8
Image
 10
1065.35786314727
 20
185.679442210229
 42
0.0
  0
VERTEX
  8
Image
 10
1029.4759585263
 20
190.304933860928
 42
0.0
  0
SEQEND
  0
POLYLINE
  8
Image
 66
     1
 10
0.0
 20
0.0
 30
0.0
 70
     1
  0
VERTEX
  8
Image
 10
1332.63555143296
 20
148.12202233023
 42
0.0
  0
VERTEX
  8
Image
 10
1372.21868980517
 20
109.041532886738
 42
0.0
  0
VERTEX
  8
Image
 10
1322.07731118598
 20
35.1774362449205
 42
0.0
  0
VERTEX
  8
Image
 10
1294.34849604083
 20
102.445963001472
 42
0.0
  0
SEQEND
  0
POLYLINE
  8
Image
 66
     1
 10
0.0
 20
0.0
 30
0.0
 70
     1
  0
VERTEX
  8
Image
 10
1262.3389843978
 20
66.9972147663006
 42
0.0
  0
VERTEX
  8
Image
 10
1308.99873982908
 20
6.0947135629426
 42
0.0
  0
VERTEX
  8
Image
 10
1287.90751323571
 20
-25.7831034900716
 42
0.0
  0
VERTEX
  8
Image
 10
1242.29859412939
 20
11.8604094766971
 42
0.0
  0
SEQEND
  0
POLYLINE
  8
Image
 66
     1
 10
0.0
 20
0.0
 30
0.0
 70
     1
  0
VERTEX
  8
Image
 10
1284.23183069537
 20
-46.4498729606613
 42
0.0
  0
VERTEX
  8
Image
 10
1333.26573203467
 20
-51.5727673607971
 42
0.0
  0
VERTEX
  8
Image
 10
1334.06410289948
 20
-77.8484327641497
 42
0.0
  0
VERTEX
  8
Image
 10
1282.25676618431
 20
-127.617037322167
 42
0.0
  0
SEQEND
  0
POLYLINE
  8
Image
 66
     1
 10
0.0
 20
0.0
 30
0.0
 70
     1
  0
VERTEX
  8
Image
 10
1209.11188995293
 20
-114.900949011806
 42
0.0
  0
VERTEX
  8
Image
 10
1181.12412839562
 20
-67.7019148460797
 42
0.0
  0
VERTEX
  8
Image
 10
1247.4394614655
 20
-38.5656761604081
 42
0.0
  0
VERTEX
  8
Image
 10
1245.32765092034
 20
-112.736524043526
 42
0.0
  0
SEQEND
  0
POLYLINE
  8
Image
 66
     1
 10
0.0
 20
0.0
 30
0.0
 70
     1
  0
VERTEX
  8
Image
 10
1129.24245231699
 20
5.4286413079419
 42
0.0
  0
VERTEX
  8
Image
 10
1163.37901979311
 20
-57.5574854337071
 42
0.0
  0
VERTEX
  8
Image
 10
1107.29663060282
 20
-125.313608315764
 42
0.0
  0
VERTEX
  8
Image
 10
1088.76598195416
 20
-61.9155802490691
 42
0.0
  0
SEQEND
  0
POLYLINE
  8
Image
 66
     1
 10
0.0
 20
0.0
 30
0.0
 70
     1
  0
VERTEX
  8
Image
 10
997.262900095942
 20
-28.5730916980602
 42
0.0
  0
VERTEX
  8
Image
 10
1026.28762008752
 20
-62.6506714004875
 42
0.0
  0
VERTEX
  8
Image
 10
1067.30749030549
 20
-54.4999469377067
 42
0.0
  0
VERTEX
  8
Image
 10
1051.53535808726
 20
-30.1040184404745
 42
0.0
  0
SEQEND
  0
POLYLINE
  8
Image
 66
     1
 10
0.0
 20
0.0
 30
0.0
 70
     1
  0
VERTEX
  8
Image
 10
1070.13504659596
 20
151.148752445264
 42
0.0
  0
VERTEX
  8
Image
 10
1049.90830734532
 20
80.1446895075254
 42
0.0
  0
VERTEX
  8
Image
 10
1105.88180356184
 20
104.705927098297
 42
0.0
  0
VERTEX
  8
Image
 10
1112.7622376986
 20
143.954573805645
 42
0.0
  0
SEQEND
  0
POLYLINE
  8
Image
 66
     1
 10
0.0
 20
0.0
 30
0.0
 70
     1
  0
VERTEX
  8
Image
 10
1058.06026766418
 20
163.00721013243
 42
0.0
  0
VERTEX
  8
Image
 10
1011.37511447028
 20
92.949050623001
 42
0.0
  0
VERTEX
  8
Image
 10
1011.37511447028
 20
92.949050623001
 42
0.0
  0
VERTEX
  8
Image
 10
1008.32655900138
 20
172.294792325012
 42
0.0
  0
SEQEND
  0
POLYLINE
  8
Image
 66
     1
 10
0.0
 20
0.0
 30
0.0
 70
     1
  0
VERTEX
  8
Image
 10
1015.26085856815
 20
71.0327545375018
 42
0.0
  0
VERTEX
  8
Image
 10
992.289594223331
 20
19.0530590173741
 42
0.0
  0
VERTEX
  8
Image
 10
1035.59230733343
 20
23.2366088566469
 42
0.0
  0
VERTEX
  8
Image
 10
1049.16194270883
 20
55.9169813748425
 42
0.0
  0
SEQEND
  0
POLYLINE
  8
Image
 66
     1
 10
0.0
 20
0.0
 30
0.0
 70
     1
  0
VERTEX
  8
Image
 10
1117.11553788576
 20
53.608373772135
 42
0.0
  0
VERTEX
  8
Image
 10
1094.51652015363
 20
-2.9154113715023
 42
0.0
  0
VERTEX
  8
Image
 10
1058.91906002043
 20
5.6046854108953
 42
0.0
  0
VERTEX
  8
Image
 10
1077.23562191118
 20
50.061227513871
 42
0.0
  0
SEQEND
  0
POLYLINE
  8
Image
 66
     1
 10
0.0
 20
0.0
 30
0.0
 70
     1
  0
VERTEX
  8
Image
 10
1141.15801846738
 20
62.3910542168461
 42
0.0
  0
VERTEX
  8
Image
 10
1169.13537784026
 20
92.5911995661957
 42
0.0
  0
VERTEX
  8
Image
 10
1130.84381577888
 20
122.835446123827
 42
0.0
  0
VERTEX
  8
Image
 10
1114.13417452231
 20
75.9092743691814
 42
0.0
  0
SEQEND
  0
POLYLINE
  8
Image
 66
     1
 10
0.0
 20
0.0
 30
0.0
 70
     1
  0
VERTEX
  8
Image
 10
1138.02172570338
 20
14.937452940925
 42
0.0
  0
VERTEX
  8
Image
 10
1207.19260448289
 20
-40.0066135504579
 42
0.0
  0
VERTEX
  8
Image
 10
1221.62332307316
 20
21.7223705575684
 42
0.0
  0
SEQEND
  0
POLYLINE
  8
Image
 66
     1
 10
0.0
 20
0.0
 30
0.0
 70
     1
  0
VERTEX
  8
Image
 10
1138.17505479005
 20
32.1337621355009
 42
0.0
  0
VERTEX
  8
Image
 10
1224.22412540085
 20
111.972304612192
 42
0.0
  0
VERTEX
  8
Image
 10
1263.86027480365
 20
93.2420566177478
 42
0.0
  0
VERTEX
  8
Image
 10
1206.25811860879
 20
53.221927740727
 42
0.0
  0
SEQEND
  0
POLYLINE
  8
Image
 66
     1
 10
0.0
 20
0.0
 30
0.0
 70
     1
  0
VERTEX
  8
Image
 10
1184.20252844201
 20
182.73887956318
 42
0.0
  0
VERTEX
  8
Image
 10
1126.18006472362
 20
183.819744462858
 42
0.0
  0
VERTEX
  8
Image
 10
1181.92933106022
 20
104.00749347353
 42
0.0
  0
VERTEX
  8
Image
 10
1206.9689409607
 20
117.886314865986
 42
0.0
  0
SEQEND
  0
POLYLINE
  8
Image
 66
     1
 10
0.0
 20
0.0
 30
0.0
 70
     1
  0
VERTEX
  8
Image
 10
1081.94284869493
 20
-154.157647528864
 42
0.0
  0
VERTEX
  8
Image
 10
1149.70246125376
 20
-177.014320366381
 42
0.0
  0
VERTEX
  8
Image
 10
1184.2496325463
 20
-125.148970995152
 42
0.0
  0
SEQEND
  0
POLYLINE
  8
Image
 66
     1
 10
0.0
 20
0.0
 30
0.0
 70
     1
  0
VERTEX
  8
Image
 10
1363.29917372035
 20
-622.504129424572
 42
0.0
  0
VERTEX
  8
Image
 10
1393.74788579705
 20
-687.374917176644
 42
0.0
  0
VERTEX
  8
Image
 10
1266.06084229379
 20
-723.183307937841
 42
0.0
  0
VERTEX
  8
Image
 10
1307.07668429696
 20
-677.876721255486
 42
0.0
  0
SEQEND
  0
POLYLINE
  8
Image
 66
     1
 10
0.0
 20
0.0
 30
0.0
 70
     1
  0
VERTEX
  8
Image
 10
994.635700725711
 20
-401.995811477476
 42
0.0
  0
VERTEX
  8
Image
 10
1001.19760197293
 20
-354.600790878382
 42
0.0
  0
VERTEX
  8
Image
 10
981.439769585075
 20
-356.82985119706
 42
0.0
  0
VERTEX
  8
Image
 10
957.67603810797
 20
-408.820930936507
 42
0.0
  0
SEQEND
  0
POLYLINE
  8
Image
 66
     1
 10
0.0
 20
0.0
 30
0.0
 70
     1
  0
VERTEX
  8
Image
 10
991.073600827285
 20
106.113781943569
 42
0.0
  0
VERTEX
  8
Image
 10
981.505200785366
 20
45.5536886949125
 42
0.0
  0
VERTEX
  8
Image
 10
945.017937893081
 20
45.0287277160846
 42
0.0
  0
VERTEX
  8
Image
 10
953.070849163477
 20
92.7940625544041
 42
0.0
  0
SEQEND
  0
POLYLINE
  8
Image
 66
     1
 10
0.0
 20
0.0
 30
0.0
 70
     1
  0
VERTEX
  8
Image
 10
1173.48351100524
 20
-719.495177629923
 42
0.0
  0
VERTEX
  8
Image
 10
1261.09468510516
 20
-653.030289374635
 42
0.0
  0
VERTEX
  8
Image
 10
1229.05936185963
 20
-739.924358074297
 42
0.0
  0
SEQEND
  0
POLYLINE
  8
Image
 66
     1
 10
0.0
 20
0.0
 30
0.0
 70
     1
  0
VERTEX
  8
Image
 10
1040.11199160196
 20
-681.875154851095
 42
0.0
  0
VERTEX
  8
Image
 10
1046.74085240608
 20
-719.534909602677
 42
0.0
  0
VERTEX
  8
Image
 10
1081.44960424419
 20
-712.638216093507
 42
0.0
  0
VERTEX
  8
Image
 10
1068.34699766195
 20
-692.371441196799
 42
0.0
  0
SEQEND
  0
POLYLINE
  8
Image
 66
     1
 10
0.0
 20
0.0
 30
0.0
 70
     1
  0
VERTEX
  8
Image
 10
1393.50213461863
 20
-568.291060545765
 42
0.0
  0
VERTEX
  8
Image
 10
1362.62046237119
 20
-565.927544846924
 42
0.0
  0
VERTEX
  8
Image
 10
1365.81585194112
 20
-604.310673382943
 42
0.0
  0
VERTEX
  8
Image
 10
1393.50213461863
 20
-610.38504358255
 42
0.0
  0
SEQEND
  0
POLYLINE
  8
Image
 66
     1
 10
0.0
 20
0.0
 30
0.0
 70
     1
  0
VERTEX
  8
Image
 10
1393.50213461863
 20
69.8812209907803
 42
0.0
  0
VERTEX
  8
Image
 10
1366.77333444079
 20
71.9268983856259
 42
0.0
  0
VERTEX
  8
Image
 10
1369.96872401072
 20
33.5437698496081
 42
0.0
  0
VERTEX
  8
Image
 10
1393.50213461863
 20
28.3805397490965
 42
0.0
  0
SEQEND
  0
POLYLINE
  8
Image
 66
     1
 10
0.0
 20
0.0
 30
0.0
 70
     1
  0
VERTEX
  8
Image
 10
1393.50213461863
 20
-13.5269083205331
 42
0.0
  0
VERTEX
  8
Image
 10
1393.50213461863
 20
-44.637389440587
 42
0.0
  0
VERTEX
  8
Image
 10
1369.37848365631
 20
-66.5518310226154
 42
0.0
  0
VERTEX
  8
Image
 10
1332.84463562986
 20
-15.8533188063371
 42
0.0
  0
VERTEX
  8
Image
 10
1368.10162665072
 20
10.4470174246386
 42
0.0
  0
SEQEND
  0
POLYLINE
  8
Image
 66
     1
 10
0.0
 20
0.0
 30
0.0
 70
     1
  0
VERTEX
  8
Image
 10
1393.50213461863
 20
-147.446945013321
 42
0.0
  0
VERTEX
  8
Image
 10
1393.50213461863
 20
-158.101461135107
 42
0.0
  0
VERTEX
  8
Image
 10
1270.23434246428
 20
-192.670522714327
 42
0.0
  0
VERTEX
  8
Image
 10
1270.23434246428
 20
-192.670522714327
 42
0.0
  0
VERTEX
  8
Image
 10
1367.47267389084
 20
-91.9913442010586
 42
0.0
  0
SEQEND
  0
POLYLINE
  8
Image
 66
     1
 10
0.0
 20
0.0
 30
0.0
 70
     1
  0
VERTEX
  8
Image
 10
1393.50213461863
 20
-284.899340051529
 42
0.0
  0
VERTEX
  8
Image
 10
1393.50213461863
 20
-364.162953879518
 42
0.0
  0
VERTEX
  8
Image
 10
1357.29965525096
 20
-317.86755669113
 42
0.0
  0
SEQEND
  0
POLYLINE
  8
Image
 66
     1
 10
0.0
 20
0.0
 30
0.0
 70
     1
  0
VERTEX
  8
Image
 10
1393.50213461863
 20
-392.283640955308
 42
0.0
  0
VERTEX
  8
Image
 10
1393.50213461863
 20
-499.686305992805
 42
0.0
  0
VERTEX
  8
Image
 10
1349.23403647072
 20
-445.856353441974
 42
0.0
  0
VERTEX
  8
Image
 10
1355.67817451864
 20
-367.387866358776
 42
0.0
  0
SEQEND
  0
POLYLINE
  8
Image
 66
     1
 10
0.0
 20
0.0
 30
0.0
 70
     1
  0
VERTEX
  8
Image
 10
945.609431341309
 20
-673.578495940529
 42
0.0
  0
VERTEX
  8
Image
 10
945.609431341309
 20
-653.638019902096
 42
0.0
  0
VERTEX
  8
Image
 10
962.691664138755
 20
-661.710308997173
 42
0.0
  0
SEQEND
  0
POLYLINE
  8
Image
 66
     1
 10
0.0
 20
0.0
 30
0.0
 70
     1
  0
VERTEX
  8
Image
 10
945.609431341309
 20
-478.696847065088
 42
0.0
  0
VERTEX
  8
Image
 10
945.609431341309
 20
-418.669400899554
 42
0.0
  0
VERTEX
  8
Image
 10
962.196489339492
 20
-458.908659191791
 42
0.0
  0
SEQEND
  0
POLYLINE
  8
Image
 66
     1
 10
0.0
 20
0.0
 30
0.0
 70
     1
  0
VERTEX
  8
Image
 10
947.174366213762
 20
-348.764114916343
 42
0.0
  0
VERTEX
  8
Image
 10
945.609431341309
 20
-263.772766104799
 42
0.0
  0
VERTEX
  8
Image
 10
988.442715271498
 20
-231.815215919048
 42
0.0
  0
VERTEX
  8
Image
 10
984.347259189483
 20
-293.176002951632
 42
0.0
  0
SEQEND
  0
POLYLINE
  8
Image
 66
     1
 10
0.0
 20
0.0
 30
0.0
 70
     1
  0
VERTEX
  8
Image
 10
945.609431341309
 20
-224.903302398734
 42
0.0
  0
VERTEX
  8
Image
 10
945.609431341309
 20
-175.206369063385
 42
0.0
  0
VERTEX
  8
Image
 10
983.727710973222
 20
-127.06951453637
 42
0.0
  0
VERTEX
  8
Image
 10
972.885617188636
 20
-218.510314099623
 42
0.0
  0
SEQEND
  0
POLYLINE
  8
Image
 66
     1
 10
0.0
 20
0.0
 30
0.0
 70
     1
  0
VERTEX
  8
Image
 10
945.609431341309
 20
-56.9901212394809
 42
0.0
  0
VERTEX
  8
Image
 10
945.609431341309
 20
2.6907996829017
 42
0.0
  0
VERTEX
  8
Image
 10
961.588002561783
 20
5.1234721097684
 42
0.0
  0
VERTEX
  8
Image
 10
984.631018873518
 20
-56.3294498049508
 42
0.0
  0
SEQEND
  0
POLYLINE
  8
Image
 66
     1
 10
0.0
 20
0.0
 30
0.0
 70
     1
  0
VERTEX
  8
Image
 10
945.609431341309
 20
117.151750445132
 42
0.0
  0
VERTEX
  8
Image
 10
960.088470025433
 20
109.908856616848
 42
0.0
  0
VERTEX
  8
Image
 10
988.065829398307
 20
140.109001966205
 42
0.0
  0
VERTEX
  8
Image
 10
949.77426733693
 20
170.353248523831
 42
0.0
  0
VERTEX
  8
Image
 10
945.609431341309
 20
158.657018409759
 42
0.0
  0
SEQEND
  0
POLYLINE
  8
Image
 66
     1
 10
0.0
 20
0.0
 30
0.0
 70
     1
  0
VERTEX
  8
Image
 10
945.609431341309
 20
-603.999462336188
 42
0.0
  0
VERTEX
  8
Image
 10
953.147166171877
 20
-614.749045001884
 42
0.0
  0
VERTEX
  8
Image
 10
978.186776072354
 20
-600.87022360943
 42
0.0
  0
VERTEX
  8
Image
 10
968.622817100363
 20
-522.632255407225
 42
0.0
  0
VERTEX
  8
Image
 10
945.609431341309
 20
-554.946788342556
 42
0.0
  0
SEQEND
  0
POLYLINE
  8
Image
 66
     1
 10
0.0
 20
0.0
 30
0.0
 70
     1
  0
VERTEX
  8
Image
 10
974.550626689212
 20
-671.89417015384
 42
0.0
  0
VERTEX
  8
Image
 10
954.323887438568
 20
-742.89823309158
 42
0.0
  0
VERTEX
  8
Image
 10
1010.29738365509
 20
-718.336995500811
 42
0.0
  0
VERTEX
  8
Image
 10
1017.17781779185
 20
-679.088348793459
 42
0.0
  0
SEQEND
  0
POLYLINE
  8
Image
 66
     1
 10
0.0
 20
0.0
 30
0.0
 70
     1
  0
VERTEX
  8
Image
 10
998.707211718386
 20
-757.999995855
 42
0.0
  0
VERTEX
  8
Image
 10
1029.8368286726
 20
-757.999995855
 42
0.0
  0
VERTEX
  8
Image
 10
1005.54053190047
 20
-738.809783953071
 42
0.0
  0
SEQEND
  0
POLYLINE
  8
Image
 66
     1
 10
0.0
 20
0.0
 30
0.0
 70
     1
  0
VERTEX
  8
Image
 10
1067.38667734147
 20
-757.999995855
 42
0.0
  0
VERTEX
  8
Image
 10
1113.9372741662
 20
-757.999995855
 42
0.0
  0
VERTEX
  8
Image
 10
1116.93573786909
 20
-740.895603864552
 42
0.0
  0
VERTEX
  8
Image
 10
1074.30854676645
 20
-733.701425224933
 42
0.0
  0
SEQEND
  0
POLYLINE
  8
Image
 66
     1
 10
0.0
 20
0.0
 30
0.0
 70
     1
  0
VERTEX
  8
Image
 10
1135.68267092289
 20
-757.999995855
 42
0.0
  0
VERTEX
  8
Image
 10
1183.66168439621
 20
-757.999995855
 42
0.0
  0
VERTEX
  8
Image
 10
1146.21463350906
 20
-728.422778867311
 42
0.0
  0
SEQEND
  0
POLYLINE
  8
Image
 66
     1
 10
0.0
 20
0.0
 30
0.0
 70
     1
  0
VERTEX
  8
Image
 10
1371.75788552538
 20
-757.999995855
 42
0.0
  0
VERTEX
  8
Image
 10
1314.84799488529
 20
-757.999995855
 42
0.0
  0
VERTEX
  8
Image
 10
1336.80905160344
 20
-723.494961860333
 42
0.0
  0
SEQEND
  0
POLYLINE
  8
Image
 66
     1
 10
0.0
 20
0.0
 30
0.0
 70
     1
  0
VERTEX
  8
Image
 10
945.609431341309
 20
-116.757160142411
 42
0.0
  0
VERTEX
  8
Image
 10
945.609431341309
 20
-96.8166841039786
 42
0.0
  0
VERTEX
  8
Image
 10
962.691664138756
 20
-104.888973199055
 42
0.0
  0
SEQEND
  0
POLYLINE
  8
Image
 66
     1
 10
0.0
 20
0.0
 30
0.0
 70
     1
  0
VERTEX
  8
Image
 10
945.609431341309
 20
805.841344083561
 42
0.0
  0
VERTEX
  8
Image
 10
945.609431341309
 20
825.781820121993
 42
0.0
  0
VERTEX
  8
Image
 10
962.691664138756
 20
817.709531026916
 42
0.0
  0
SEQEND
  0
POLYLINE
  8
Image
 66
     1
 10
0.0
 20
0.0
 30
0.0
 70
     1
  0
VERTEX
  8
Image
 10
1397.40850661866
 20
126.490653747285
 42
0.0
  0
VERTEX
  8
Image
 10
1397.40850661866
 20
146.431129785717
 42
0.0
  0
VERTEX
  8
Image
 10
1380.32627382122
 20
138.35884069064
 42
0.0
  0
SEQEND
  0
POLYLINE
  8
Image
 66
     1
 10
0.0
 20
0.0
 30
0.0
 70
     1
  0
VERTEX
  8
Image
 10
1568.04915187211
 20
754.193043488387
 42
0.0
  0
VERTEX
  8
Image
 10
1567.47093675755
 20
799.481109953991
 42
0.0
  0
VERTEX
  8
Image
 10
1519.9151918306
 20
841.470581059672
 42
0.0
  0
VERTEX
  8
Image
 10
1502.23570432694
 20
841.803033069049
 42
0.0
  0
VERTEX
  8
Image
 10
1517.64073876024
 20
743.304940047453
 42
0.0
  0
SEQEND
  0
POLYLINE
  8
Image
 66
     1
 10
0.0
 20
0.0
 30
0.0
 70
     1
  0
VERTEX
  8
Image
 10
1614.13319603569
 20
729.094850113321
 42
0.0
  0
VERTEX
  8
Image
 10
1582.92400682129
 20
664.228037349453
 42
0.0
  0
VERTEX
  8
Image
 10
1503.24097052921
 20
681.854888643982
 42
0.0
  0
VERTEX
  8
Image
 10
1503.24097052921
 20
681.854888643982
 42
0.0
  0
SEQEND
  0
POLYLINE
  8
Image
 66
     1
 10
0.0
 20
0.0
 30
0.0
 70
     1
  0
VERTEX
  8
Image
 10
1625.81894941816
 20
702.005257975787
 42
0.0
  0
VERTEX
  8
Image
 10
1731.40036559658
 20
703.820954347323
 42
0.0
  0
VERTEX
  8
Image
 10
1687.39408782367
 20
623.311799099956
 42
0.0
  0
VERTEX
  8
Image
 10
1624.00796025921
 20
649.444871262077
 42
0.0
  0
SEQEND
  0
POLYLINE
  8
Image
 66
     1
 10
0.0
 20
0.0
 30
0.0
 70
     1
  0
VERTEX
  8
Image
 10
1559.995366569
 20
557.955295684548
 42
0.0
  0
VERTEX
  8
Image
 10
1600.33229147041
 20
514.07435558163
 42
0.0
  0
VERTEX
  8
Image
 10
1569.53136619775
 20
501.041553534459
 42
0.0
  0
VERTEX
  8
Image
 10
1498.2632596934
 20
512.77726345518
 42
0.0
  0
SEQEND
  0
POLYLINE
  8
Image
 66
     1
 10
0.0
 20
0.0
 30
0.0
 70
     1
  0
VERTEX
  8
Image
 10
1811.06607888513
 20
725.793589164218
 42
0.0
  0
VERTEX
  8
Image
 10
1888.35485668433
 20
744.419671988705
 42
0.0
  0
VERTEX
  8
Image
 10
1892.98206498692
 20
701.188153751171
 42
0.0
  0
VERTEX
  8
Image
 10
1854.96464594246
 20
644.36480588027
 42
0.0
  0
SEQEND
  0
POLYLINE
  8
Image
 66
     1
 10
0.0
 20
0.0
 30
0.0
 70
     1
  0
VERTEX
  8
Image
 10
1745.55682157972
 20
614.362420220555
 42
0.0
  0
VERTEX
  8
Image
 10
1790.60408306948
 20
586.272782759189
 42
0.0
  0
VERTEX
  8
Image
 10
1761.77174213124
 20
557.255193501819
 42
0.0
  0
VERTEX
  8
Image
 10
1761.77174213124
 20
557.255193501819
 42
0.0
  0
VERTEX
  8
Image
 10
1628.16188081287
 20
585.28206794082
 42
0.0
  0
SEQEND
  0
POLYLINE
  8
Image
 66
     1
 10
0.0
 20
0.0
 30
0.0
 70
     1
  0
VERTEX
  8
Image
 10
1835.79111652347
 20
467.807593253183
 42
0.0
  0
VERTEX
  8
Image
 10
1875.37425489569
 20
428.727103809681
 42
0.0
  0
VERTEX
  8
Image
 10
1823.73502643838
 20
323.737030087635
 42
0.0
  0
VERTEX
  8
Image
 10
1790.79287343489
 20
397.106719092206
 42
0.0
  0
SEQEND
  0
POLYLINE
  8
Image
 66
     1
 10
0.0
 20
0.0
 30
0.0
 70
     1
  0
VERTEX
  8
Image
 10
1765.49454948832
 20
386.682785689243
 42
0.0
  0
VERTEX
  8
Image
 10
1801.23794633844
 20
324.590166006293
 42
0.0
  0
VERTEX
  8
Image
 10
1793.20327487417
 20
278.520826398772
 42
0.0
  0
VERTEX
  8
Image
 10
1745.45415921991
 20
331.54598039965
 42
0.0
  0
SEQEND
  0
POLYLINE
  8
Image
 66
     1
 10
0.0
 20
0.0
 30
0.0
 70
     1
  0
VERTEX
  8
Image
 10
1632.3980174075
 20
325.114212230885
 42
0.0
  0
VERTEX
  8
Image
 10
1666.53458488363
 20
262.128085489245
 42
0.0
  0
VERTEX
  8
Image
 10
1617.62235154963
 20
211.80172137948
 42
0.0
  0
VERTEX
  8
Image
 10
1591.92154704468
 20
257.769990673877
 42
0.0
  0
SEQEND
  0
POLYLINE
  8
Image
 66
     1
 10
0.0
 20
0.0
 30
0.0
 70
     1
  0
VERTEX
  8
Image
 10
1511.23529284341
 20
313.05941976951
 42
0.0
  0
VERTEX
  8
Image
 10
1519.13301538992
 20
268.191032427206
 42
0.0
  0
VERTEX
  8
Image
 10
1560.15288560788
 20
276.341756889978
 42
0.0
  0
VERTEX
  8
Image
 10
1544.38075338965
 20
300.737685387217
 42
0.0
  0
SEQEND
  0
POLYLINE
  8
Image
 66
     1
 10
0.0
 20
0.0
 30
0.0
 70
     1
  0
VERTEX
  8
Image
 10
1573.29061168648
 20
470.834323368217
 42
0.0
  0
VERTEX
  8
Image
 10
1553.06387243583
 20
399.830260430477
 42
0.0
  0
VERTEX
  8
Image
 10
1609.03736865236
 20
424.391498021247
 42
0.0
  0
VERTEX
  8
Image
 10
1615.91780278912
 20
463.640144728598
 42
0.0
  0
SEQEND
  0
POLYLINE
  8
Image
 66
     1
 10
0.0
 20
0.0
 30
0.0
 70
     1
  0
VERTEX
  8
Image
 10
1561.21583275469
 20
482.692781055382
 42
0.0
  0
VERTEX
  8
Image
 10
1492.46502155544
 20
393.053429361931
 42
0.0
  0
VERTEX
  8
Image
 10
1492.46502155544
 20
393.053429361931
 42
0.0
  0
VERTEX
  8
Image
 10
1511.48212409189
 20
491.980363247964
 42
0.0
  0
SEQEND
  0
POLYLINE
  8
Image
 66
     1
 10
0.0
 20
0.0
 30
0.0
 70
     1
  0
VERTEX
  8
Image
 10
1523.01007145411
 20
370.491143921541
 42
0.0
  0
VERTEX
  8
Image
 10
1488.48088461214
 20
362.030286881395
 42
0.0
  0
VERTEX
  8
Image
 10
1537.52998533972
 20
335.921106124736
 42
0.0
  0
VERTEX
  8
Image
 10
1552.31750779934
 20
375.602552297788
 42
0.0
  0
SEQEND
  0
POLYLINE
  8
Image
 66
     1
 10
0.0
 20
0.0
 30
0.0
 70
     1
  0
VERTEX
  8
Image
 10
1620.27110297627
 20
373.293944695085
 42
0.0
  0
VERTEX
  8
Image
 10
1597.67208524415
 20
316.770159551444
 42
0.0
  0
VERTEX
  8
Image
 10
1562.07462511095
 20
325.290256333842
 42
0.0
  0
VERTEX
  8
Image
 10
1580.3911870017
 20
369.746798436822
 42
0.0
  0
SEQEND
  0
POLYLINE
  8
Image
 66
     1
 10
0.0
 20
0.0
 30
0.0
 70
     1
  0
VERTEX
  8
Image
 10
1644.3135835579
 20
382.076625139789
 42
0.0
  0
VERTEX
  8
Image
 10
1672.29094293078
 20
412.276770489147
 42
0.0
  0
VERTEX
  8
Image
 10
1633.9993808694
 20
442.52101704677
 42
0.0
  0
VERTEX
  8
Image
 10
1617.28973961283
 20
395.594845292133
 42
0.0
  0
SEQEND
  0
POLYLINE
  8
Image
 66
     1
 10
0.0
 20
0.0
 30
0.0
 70
     1
  0
VERTEX
  8
Image
 10
1648.93881268212
 20
742.421423384863
 42
0.0
  0
VERTEX
  8
Image
 10
1764.25025019567
 20
812.551645536691
 42
0.0
  0
VERTEX
  8
Image
 10
1732.21492695015
 20
725.657576837026
 42
0.0
  0
SEQEND
  0
POLYLINE
  8
Image
 66
     1
 10
0.0
 20
0.0
 30
0.0
 70
     1
  0
VERTEX
  8
Image
 10
1663.7191935544
 20
327.254561502082
 42
0.0
  0
VERTEX
  8
Image
 10
1709.29646853036
 20
270.815791206256
 42
0.0
  0
VERTEX
  8
Image
 10
1714.12867467069
 20
354.205058978716
 42
0.0
  0
SEQEND
  0
POLYLINE
  8
Image
 66
     1
 10
0.0
 20
0.0
 30
0.0
 70
     1
  0
VERTEX
  8
Image
 10
1505.5918224645
 20
620.881508079918
 42
0.0
  0
VERTEX
  8
Image
 10
1561.77135637202
 20
583.164687061318
 42
0.0
  0
VERTEX
  8
Image
 10
1596.31852766456
 20
635.030036432556
 42
0.0
  0
SEQEND
  0
POLYLINE
  8
Image
 66
     1
 10
0.0
 20
0.0
 30
0.0
 70
     1
  0
VERTEX
  8
Image
 10
127.230323905306
 20
1010.18655906256
 42
0.0
  0
VERTEX
  8
Image
 10
170.46426109062
 20
989.361925724957
 42
-0.0028417366102
  0
VERTEX
  8
Image
 10
170.46426109062
 20
989.361925724957
 42
-0.0020777122606
  0
VERTEX
  8
Image
 10
170.46426109062
 20
989.361925724957
 42
-0.0093539177085
  0
VERTEX
  8
Image
 10
170.46426109062
 20
989.361925724957
 42
0.0029672300867
  0
VERTEX
  8
Image
 10
186.637554455944
 20
955.398009657778
 42
0.0006933504526
  0
VERTEX
  8
Image
 10
105.231977850482
 20
939.763826071298
 42
0.0
  0
SEQEND
  0
POLYLINE
  8
Image
 66
     1
 10
0.0
 20
0.0
 30
0.0
 70
     1
  0
VERTEX
  8
Image
 10
1747.34539424993
 20
513.895797117464
 42
-0.0157086602381
  0
VERTEX
  8
Image
 10
1749.54759017595
 20
515.698932520549
 42
-0.0017386301508
  0
VERTEX
  8
Image
 10
1758.99765149429
 20
522.923962183082
 42
-0.002060774801
  0
VERTEX
  8
Image
 10
1823.16381426924
 20
570.638941097132
 42
0.0
  0
VERTEX
  8
Image
 10
1825.57113841291
 20
488.244719011333
 42
0.0
  0
VERTEX
  8
Image
 10
1768.34143496887
 20
449.529698003451
 42
-0.0105229963675
  0
VERTEX
  8
Image
 10
1753.59889382237
 20
489.554626401764
 42
-0.0078796967383
  0
VERTEX
  8
Image
 10
1750.08411777505
 20
500.425946766405
 42
-0.0113423340674
  0
VERTEX
  8
Image
 10
1747.90098728507
 20
508.300905339659
 42
-0.009317143569
  0
VERTEX
  8
Image
 10
1747.30487741046
 20
511.387030765386
 42
-0.0578204494698
  0
VERTEX
  8
Image
 10
1747.21253764895
 20
513.548352750802
 42
-0.1036257476568
  0
SEQEND
  0
POLYLINE
  8
Image
 66
     1
 10
0.0
 20
0.0
 30
0.0
 70
     1
  0
VERTEX
  8
Image
 10
1768.39527887488
 20
710.026269252198
 42
0.0
  0
VERTEX
  8
Image
 10
1736.0959471319
 20
638.594491122636
 42
0.0
  0
VERTEX
  8
Image
 10
1818.44173609871
 20
600.509776106043
 42
0.0
  0
VERTEX
  8
Image
 10
1823.54040675712
 20
641.703281191713
 42
0.0
  0
SEQEND
  0
POLYLINE
  8
Image
 66
     1
 10
0.0
 20
0.0
 30
0.0
 70
     1
  0
VERTEX
  8
Image
 10
1641.33061988057
 20
351.819333058444
 42
0.0
  0
VERTEX
  8
Image
 10
1724.10510028148
 20
432.085291757176
 42
0.0
  0
VERTEX
  8
Image
 10
1780.34780053135
 20
414.169437465362
 42
0.0
  0
VERTEX
  8
Image
 10
1709.41368369931
 20
372.907498663679
 42
0.0
  0
SEQEND
  0
POLYLINE
  8
Image
 66
     1
 10
0.0
 20
0.0
 30
0.0
 70
     1
  0
VERTEX
  8
Image
 10
1707.68611279902
 20
532.022827486313
 42
0.0
  0
VERTEX
  8
Image
 10
1667.34124965492
 20
475.372084197549
 42
0.0
  0
VERTEX
  8
Image
 10
1692.21046187054
 20
439.906037891656
 42
0.0
  0
VERTEX
  8
Image
 10
1717.25007177101
 20
453.784859284102
 42
0.0
  0
SEQEND
  0
POLYLINE
  8
Image
 66
     1
 10
0.0
 20
0.0
 30
0.0
 70
     1
  0
VERTEX
  8
Image
 10
1541.98310542408
 20
1183.46476712742
 42
0.0
  0
VERTEX
  8
Image
 10
1596.15879129992
 20
1129.4579343465
 42
0.0
  0
VERTEX
  8
Image
 10
1565.35786602727
 20
1116.42513229933
 42
0.0
  0
VERTEX
  8
Image
 10
1501.27878722197
 20
1142.96904720203
 42
0.0
  0
SEQEND
  0
POLYLINE
  8
Image
 66
     1
 10
0.0
 20
0.0
 30
0.0
 70
     1
  0
VERTEX
  8
Image
 10
1831.61761635299
 20
1083.19117201804
 42
0.0
  0
VERTEX
  8
Image
 10
1871.2007547252
 20
1044.11068257455
 42
0.0
  0
VERTEX
  8
Image
 10
1821.05937610601
 20
970.246585932734
 42
0.0
  0
VERTEX
  8
Image
 10
1793.33056096085
 20
1037.51511268928
 42
0.0
  0
SEQEND
  0
POLYLINE
  8
Image
 66
     1
 10
0.0
 20
0.0
 30
0.0
 70
     1
  0
VERTEX
  8
Image
 10
1761.32104931783
 20
1002.06636445411
 42
0.0
  0
VERTEX
  8
Image
 10
1807.9808047491
 20
941.163863250756
 42
0.0
  0
VERTEX
  8
Image
 10
1786.88957815574
 20
909.286046197742
 42
0.0
  0
VERTEX
  8
Image
 10
1741.28065904942
 20
946.92955916451
 42
0.0
  0
SEQEND
  0
POLYLINE
  8
Image
 66
     1
 10
0.0
 20
0.0
 30
0.0
 70
     1
  0
VERTEX
  8
Image
 10
1783.2138956154
 20
888.619276727152
 42
0.0
  0
VERTEX
  8
Image
 10
1832.2477969547
 20
883.496382327016
 42
0.0
  0
VERTEX
  8
Image
 10
1833.0461678195
 20
857.220716923664
 42
0.0
  0
VERTEX
  8
Image
 10
1781.23883110433
 20
807.452112365646
 42
0.0
  0
SEQEND
  0
POLYLINE
  8
Image
 66
     1
 10
0.0
 20
0.0
 30
0.0
 70
     1
  0
VERTEX
  8
Image
 10
1708.09395487295
 20
820.168200676007
 42
0.0
  0
VERTEX
  8
Image
 10
1680.10619331565
 20
867.367234841734
 42
0.0
  0
VERTEX
  8
Image
 10
1746.42152638553
 20
896.503473527405
 42
0.0
  0
VERTEX
  8
Image
 10
1744.30971584037
 20
822.332625644287
 42
0.0
  0
SEQEND
  0
POLYLINE
  8
Image
 66
     1
 10
0.0
 20
0.0
 30
0.0
 70
     1
  0
VERTEX
  8
Image
 10
1628.22451723702
 20
940.497790995755
 42
0.0
  0
VERTEX
  8
Image
 10
1662.36108471314
 20
877.511664254106
 42
0.0
  0
VERTEX
  8
Image
 10
1606.27869552284
 20
809.755541372049
 42
0.0
  0
VERTEX
  8
Image
 10
1587.74804687419
 20
873.153569438744
 42
0.0
  0
SEQEND
  0
POLYLINE
  8
Image
 66
     1
 10
0.0
 20
0.0
 30
0.0
 70
     1
  0
VERTEX
  8
Image
 10
1496.24496501597
 20
906.496057989753
 42
0.0
  0
VERTEX
  8
Image
 10
1525.26968500755
 20
872.418478287326
 42
0.0
  0
VERTEX
  8
Image
 10
1566.28955522552
 20
880.569202750107
 42
0.0
  0
VERTEX
  8
Image
 10
1550.51742300729
 20
904.965131247339
 42
0.0
  0
SEQEND
  0
POLYLINE
  8
Image
 66
     1
 10
0.0
 20
0.0
 30
0.0
 70
     1
  0
VERTEX
  8
Image
 10
1569.11711151599
 20
1086.21790213308
 42
0.0
  0
VERTEX
  8
Image
 10
1548.89037226534
 20
1015.21383919534
 42
0.0
  0
VERTEX
  8
Image
 10
1604.86386848187
 20
1039.77507678611
 42
0.0
  0
VERTEX
  8
Image
 10
1611.74430261863
 20
1079.02372349346
 42
0.0
  0
SEQEND
  0
POLYLINE
  8
Image
 66
     1
 10
0.0
 20
0.0
 30
0.0
 70
     1
  0
VERTEX
  8
Image
 10
1557.04233258421
 20
1098.07635982024
 42
0.0
  0
VERTEX
  8
Image
 10
1510.35717939031
 20
1028.01820031081
 42
0.0
  0
VERTEX
  8
Image
 10
1510.35717939031
 20
1028.01820031081
 42
0.0
  0
VERTEX
  8
Image
 10
1507.30862392141
 20
1107.36394201283
 42
0.0
  0
SEQEND
  0
POLYLINE
  8
Image
 66
     1
 10
0.0
 20
0.0
 30
0.0
 70
     1
  0
VERTEX
  8
Image
 10
1514.24292348818
 20
1006.10190422532
 42
0.0
  0
VERTEX
  8
Image
 10
1491.27165914336
 20
954.122208705187
 42
0.0
  0
VERTEX
  8
Image
 10
1534.57437225346
 20
958.30575854446
 42
0.0
  0
VERTEX
  8
Image
 10
1548.14400762885
 20
990.986131062656
 42
0.0
  0
SEQEND
  0
POLYLINE
  8
Image
 66
     1
 10
0.0
 20
0.0
 30
0.0
 70
     1
  0
VERTEX
  8
Image
 10
1616.09760280578
 20
988.677523459948
 42
0.0
  0
VERTEX
  8
Image
 10
1593.49858507366
 20
932.153738316311
 42
0.0
  0
VERTEX
  8
Image
 10
1557.90112494046
 20
940.673835098709
 42
0.0
  0
VERTEX
  8
Image
 10
1576.21768683121
 20
985.130377201684
 42
0.0
  0
SEQEND
  0
POLYLINE
  8
Image
 66
     1
 10
0.0
 20
0.0
 30
0.0
 70
     1
  0
VERTEX
  8
Image
 10
1640.14008338741
 20
997.460203904659
 42
0.0
  0
VERTEX
  8
Image
 10
1668.11744276029
 20
1027.66034925401
 42
0.0
  0
VERTEX
  8
Image
 10
1629.82588069891
 20
1057.90459581164
 42
0.0
  0
VERTEX
  8
Image
 10
1613.11623944234
 20
1010.97842405699
 42
0.0
  0
SEQEND
  0
POLYLINE
  8
Image
 66
     1
 10
0.0
 20
0.0
 30
0.0
 70
     1
  0
VERTEX
  8
Image
 10
1637.00379062341
 20
950.006602628739
 42
0.0
  0
VERTEX
  8
Image
 10
1706.17466940292
 20
895.062536137355
 42
0.0
  0
VERTEX
  8
Image
 10
1720.60538799319
 20
956.791520245382
 42
0.0
  0
SEQEND
  0
POLYLINE
  8
Image
 66
     1
 10
0.0
 20
0.0
 30
0.0
 70
     1
  0
VERTEX
  8
Image
 10
1743.17189407944
 20
1129.27937588233
 42
-0.0157086602382
  0
VERTEX
  8
Image
 10
1745.37409000548
 20
1131.08251128542
 42
-0.0017386301508
  0
VERTEX
  8
Image
 10
1754.8241513238
 20
1138.30754094795
 42
-0.0020607748009
  0
VERTEX
  8
Image
 10
1818.99031409875
 20
1186.022519862
 42
0.0
  0
VERTEX
  8
Image
 10
1789.36000110246
 20
1115.80607239022
 42
0.0
  0
VERTEX
  8
Image
 10
1764.16793479838
 20
1064.91327676832
 42
-0.0105229963675
  0
VERTEX
  8
Image
 10
1749.42539365188
 20
1104.93820516663
 42
-0.0078796967385
  0
VERTEX
  8
Image
 10
1745.91061760456
 20
1115.80952553127
 42
-0.0113423340661
  0
VERTEX
  8
Image
 10
1743.72748711458
 20
1123.68448410453
 42
-0.0093171435684
  0
VERTEX
  8
Image
 10
1743.13137723998
 20
1126.77060953025
 42
-0.0578204494674
  0
VERTEX
  8
Image
 10
1743.03903747847
 20
1128.93193151567
 42
-0.1036257469562
  0
SEQEND
  0
POLYLINE
  8
Image
 66
     1
 10
0.0
 20
0.0
 30
0.0
 70
     1
  0
VERTEX
  8
Image
 10
1637.15711971008
 20
967.202911823314
 42
0.0
  0
VERTEX
  8
Image
 10
1723.20619032088
 20
1047.04145430001
 42
0.0
  0
VERTEX
  8
Image
 10
1762.84233972368
 20
1028.31120630556
 42
0.0
  0
VERTEX
  8
Image
 10
1705.24018352882
 20
988.29107742854
 42
0.0
  0
SEQEND
  0
POLYLINE
  8
Image
 66
     1
 10
0.0
 20
0.0
 30
0.0
 70
     1
  0
VERTEX
  8
Image
 10
1703.51261262854
 20
1147.40640625117
 42
0.0
  0
VERTEX
  8
Image
 10
1663.16774948444
 20
1090.75566296242
 42
0.0
  0
VERTEX
  8
Image
 10
1688.03696170005
 20
1055.28961665652
 42
0.0
  0
VERTEX
  8
Image
 10
1713.07657160053
 20
1069.16843804897
 42
0.0
  0
SEQEND
  0
POLYLINE
  8
Image
 66
     1
 10
0.0
 20
0.0
 30
0.0
 70
     1
  0
VERTEX
  8
Image
 10
1580.92491361496
 20
780.91150215895
 42
0.0
  0
VERTEX
  8
Image
 10
1648.68452617378
 20
758.054829321433
 42
0.0
  0
VERTEX
  8
Image
 10
1683.23169746633
 20
809.920178692661
 42
0.0
  0
SEQEND
  0
POLYLINE
  8
Image
 66
     1
 10
0.0
 20
0.0
 30
0.0
 70
     1
  0
VERTEX
  8
Image
 10
1862.28123864038
 20
312.565020263241
 42
0.0
  0
VERTEX
  8
Image
 10
1892.72995071708
 20
247.69423251117
 42
0.0
  0
VERTEX
  8
Image
 10
1765.04290721382
 20
211.885841749973
 42
0.0
  0
VERTEX
  8
Image
 10
1806.05874921699
 20
257.192428432327
 42
0.0
  0
SEQEND
  0
POLYLINE
  8
Image
 66
     1
 10
0.0
 20
0.0
 30
0.0
 70
     1
  0
VERTEX
  8
Image
 10
1493.61776564574
 20
533.073338210337
 42
0.0
  0
VERTEX
  8
Image
 10
1500.17966689296
 20
580.468358809431
 42
0.0
  0
VERTEX
  8
Image
 10
1480.4218345051
 20
578.239298490754
 42
0.0
  0
VERTEX
  8
Image
 10
1456.658103028
 20
526.248218751306
 42
0.0
  0
SEQEND
  0
POLYLINE
  8
Image
 66
     1
 10
0.0
 20
0.0
 30
0.0
 70
     1
  0
VERTEX
  8
Image
 10
1490.05566574731
 20
1041.18293163138
 42
0.0
  0
VERTEX
  8
Image
 10
1480.4872657054
 20
980.622838382726
 42
0.0
  0
VERTEX
  8
Image
 10
1444.00000281311
 20
980.097877403898
 42
0.0
  0
VERTEX
  8
Image
 10
1452.05291408351
 20
1027.86321224222
 42
0.0
  0
SEQEND
  0
POLYLINE
  8
Image
 66
     1
 10
0.0
 20
0.0
 30
0.0
 70
     1
  0
VERTEX
  8
Image
 10
1672.46557592526
 20
215.57397205789
 42
0.0
  0
VERTEX
  8
Image
 10
1760.07675002518
 20
282.038860313178
 42
0.0
  0
VERTEX
  8
Image
 10
1728.04142677966
 20
195.144791613516
 42
0.0
  0
SEQEND
  0
POLYLINE
  8
Image
 66
     1
 10
0.0
 20
0.0
 30
0.0
 70
     1
  0
VERTEX
  8
Image
 10
1735.55608279654
 20
165.643937962783
 42
0.0
  0
VERTEX
  8
Image
 10
1742.18494360066
 20
127.9841832112
 42
0.0
  0
VERTEX
  8
Image
 10
1776.89369543878
 20
134.88087672037
 42
0.0
  0
VERTEX
  8
Image
 10
1763.79108885653
 20
155.147651617079
 42
0.0
  0
SEQEND
  0
POLYLINE
  8
Image
 66
     1
 10
0.0
 20
0.0
 30
0.0
 70
     1
  0
VERTEX
  8
Image
 10
1892.48419953866
 20
366.778089142049
 42
0.0
  0
VERTEX
  8
Image
 10
1861.60252729122
 20
369.14160484089
 42
0.0
  0
VERTEX
  8
Image
 10
1864.79791686115
 20
330.758476304871
 42
0.0
  0
VERTEX
  8
Image
 10
1892.48419953866
 20
324.684106105263
 42
0.0
  0
SEQEND
  0
POLYLINE
  8
Image
 66
     1
 10
0.0
 20
0.0
 30
0.0
 70
     1
  0
VERTEX
  8
Image
 10
1892.48419953866
 20
1004.95037067859
 42
0.0
  0
VERTEX
  8
Image
 10
1865.75539936082
 20
1006.99604807344
 42
0.0
  0
VERTEX
  8
Image
 10
1868.95078893075
 20
968.612919537422
 42
0.0
  0
VERTEX
  8
Image
 10
1892.48419953866
 20
963.44968943691
 42
0.0
  0
SEQEND
  0
POLYLINE
  8
Image
 66
     1
 10
0.0
 20
0.0
 30
0.0
 70
     1
  0
VERTEX
  8
Image
 10
1892.48419953866
 20
921.54224136728
 42
0.0
  0
VERTEX
  8
Image
 10
1892.48419953866
 20
890.431760247226
 42
0.0
  0
VERTEX
  8
Image
 10
1868.36054857634
 20
868.517318665198
 42
0.0
  0
VERTEX
  8
Image
 10
1831.82670054989
 20
919.215830881476
 42
0.0
  0
VERTEX
  8
Image
 10
1867.08369157075
 20
945.516167112452
 42
0.0
  0
SEQEND
  0
POLYLINE
  8
Image
 66
     1
 10
0.0
 20
0.0
 30
0.0
 70
     1
  0
VERTEX
  8
Image
 10
1892.48419953866
 20
787.622204674493
 42
0.0
  0
VERTEX
  8
Image
 10
1892.48419953866
 20
776.967688552707
 42
0.0
  0
VERTEX
  8
Image
 10
1769.21640738431
 20
742.398626973486
 42
0.0
  0
VERTEX
  8
Image
 10
1769.21640738431
 20
742.398626973486
 42
0.0
  0
VERTEX
  8
Image
 10
1866.45473881087
 20
843.077805486755
 42
0.0
  0
SEQEND
  0
POLYLINE
  8
Image
 66
     1
 10
0.0
 20
0.0
 30
0.0
 70
     1
  0
VERTEX
  8
Image
 10
1892.48419953866
 20
650.169809636284
 42
0.0
  0
VERTEX
  8
Image
 10
1892.48419953866
 20
570.906195808296
 42
0.0
  0
VERTEX
  8
Image
 10
1856.28172017099
 20
617.201592996684
 42
0.0
  0
SEQEND
  0
POLYLINE
  8
Image
 66
     1
 10
0.0
 20
0.0
 30
0.0
 70
     1
  0
VERTEX
  8
Image
 10
1892.48419953866
 20
542.785508732506
 42
0.0
  0
VERTEX
  8
Image
 10
1892.48419953866
 20
435.382843695008
 42
0.0
  0
VERTEX
  8
Image
 10
1848.21610139075
 20
489.21279624584
 42
0.0
  0
VERTEX
  8
Image
 10
1854.66023943867
 20
567.681283329037
 42
0.0
  0
SEQEND
  0
POLYLINE
  8
Image
 66
     1
 10
0.0
 20
0.0
 30
0.0
 70
     1
  0
VERTEX
  8
Image
 10
1889.22943706487
 20
171.930230782953
 42
0.0
  0
VERTEX
  8
Image
 10
1801.26539671876
 20
165.445041168329
 42
0.0
  0
VERTEX
  8
Image
 10
1772.76081766254
 20
190.957344341991
 42
0.0
  0
VERTEX
  8
Image
 10
1885.19929447381
 20
209.583427166483
 42
0.0
  0
SEQEND
  0
POLYLINE
  8
Image
 66
     1
 10
0.0
 20
0.0
 30
0.0
 70
     1
  0
VERTEX
  8
Image
 10
459.565459446246
 20
779.61135699536
 42
0.0
  0
VERTEX
  8
Image
 10
458.466121171997
 20
779.324826628
 42
-0.0137419307041
  0
VERTEX
  8
Image
 10
456.156682922153
 20
780.063182251353
 42
-0.001708642373
  0
VERTEX
  8
Image
 10
445.36726579328
 20
783.865138339171
 42
-0.0020217769385
  0
VERTEX
  8
Image
 10
373.126848417885
 20
810.390323301841
 42
0.0
  0
VERTEX
  8
Image
 10
434.346815068467
 20
855.873352469589
 42
0.0
  0
VERTEX
  8
Image
 10
452.441196792344
 20
848.317140865082
 42
0.0
  0
VERTEX
  8
Image
 10
460.689617621874
 20
780.533423862274
 42
-0.0005371956832
  0
VERTEX
  8
Image
 10
460.689617621874
 20
780.533423862274
 42
-0.0119434727646
  0
VERTEX
  8
Image
 10
460.689617621874
 20
780.533423862274
 42
-0.0098512307768
  0
VERTEX
  8
Image
 10
460.689617621874
 20
780.533423862274
 42
-0.0445152632899
  0
SEQEND
  0
POLYLINE
  8
Image
 66
     1
 10
0.0
 20
0.0
 30
0.0
 70
     1
  0
VERTEX
  8
Image
 10
1444.59149626134
 20
266.490653747285
 42
0.0
  0
VERTEX
  8
Image
 10
1444.59149626134
 20
286.431129785717
 42
0.0
  0
VERTEX
  8
Image
 10
1461.67372905878
 20
278.35884069064
 42
0.0
  0
SEQEND
  0
POLYLINE
  8
Image
 66
     1
 10
0.0
 20
0.0
 30
0.0
 70
     1
  0
VERTEX
  8
Image
 10
1444.59149626134
 20
456.372302622726
 42
0.0
  0
VERTEX
  8
Image
 10
1444.59149626134
 20
516.399748788259
 42
0.0
  0
VERTEX
  8
Image
 10
1461.17855425952
 20
476.160490496022
 42
0.0
  0
SEQEND
  0
POLYLINE
  8
Image
 66
     1
 10
0.0
 20
0.0
 30
0.0
 70
     1
  0
VERTEX
  8
Image
 10
1446.15643113379
 20
586.30503477147
 42
0.0
  0
VERTEX
  8
Image
 10
1444.59149626134
 20
671.296383583014
 42
0.0
  0
VERTEX
  8
Image
 10
1487.42478019153
 20
703.253933768765
 42
0.0
  0
VERTEX
  8
Image
 10
1483.32932410951
 20
641.893146736181
 42
0.0
  0
SEQEND
  0
POLYLINE
  8
Image
 66
     1
 10
0.0
 20
0.0
 30
0.0
 70
     1
  0
VERTEX
  8
Image
 10
1444.59149626134
 20
710.16584728908
 42
0.0
  0
VERTEX
  8
Image
 10
1444.59149626134
 20
759.862780624429
 42
0.0
  0
VERTEX
  8
Image
 10
1482.70977589325
 20
807.999635151444
 42
0.0
  0
VERTEX
  8
Image
 10
1471.86768210867
 20
716.55883558819
 42
0.0
  0
SEQEND
  0
POLYLINE
  8
Image
 66
     1
 10
0.0
 20
0.0
 30
0.0
 70
     1
  0
VERTEX
  8
Image
 10
1444.59149626134
 20
878.079028448333
 42
0.0
  0
VERTEX
  8
Image
 10
1444.59149626134
 20
937.759949370715
 42
0.0
  0
VERTEX
  8
Image
 10
1460.57006748181
 20
940.192621797582
 42
0.0
  0
VERTEX
  8
Image
 10
1483.61308379355
 20
878.739699882863
 42
0.0
  0
SEQEND
  0
POLYLINE
  8
Image
 66
     1
 10
0.0
 20
0.0
 30
0.0
 70
     1
  0
VERTEX
  8
Image
 10
1584.34255788228
 20
1192.26669564608
 42
0.0
  0
VERTEX
  8
Image
 10
1672.24200282901
 20
1192.26669564608
 42
-0.002470409604
  0
VERTEX
  8
Image
 10
1643.21512037118
 20
1127.79476280804
 42
-0.0020013749858
  0
VERTEX
  8
Image
 10
1634.20675962281
 20
1108.40298861328
 42
-0.0090340853638
  0
VERTEX
  8
Image
 10
1631.9772972798
 20
1103.85717172838
 42
0.0028742693904
  0
VERTEX
  8
Image
 10
1618.67296976025
 20
1128.76902289382
 42
0.0006479237117
  0
SEQEND
  0
POLYLINE
  8
Image
 66
     1
 10
0.0
 20
0.0
 30
0.0
 70
     1
  0
VERTEX
  8
Image
 10
1716.31832640579
 20
1192.26669564608
 42
0.0
  0
VERTEX
  8
Image
 10
1785.8818907678
 20
1192.26669564608
 42
0.0
  0
VERTEX
  8
Image
 10
1785.63614907934
 20
1188.06136406627
 42
0.0
  0
VERTEX
  8
Image
 10
1757.59824196075
 20
1172.63877226668
 42
0.0
  0
VERTEX
  8
Image
 10
1705.60107987576
 20
1176.24136096693
 42
0.0
  0
SEQEND
  0
POLYLINE
  8
Image
 66
     1
 10
0.0
 20
0.0
 30
0.0
 70
     1
  0
VERTEX
  8
Image
 10
1892.48419953866
 20
1155.42208482371
 42
0.0
  0
VERTEX
  8
Image
 10
1850.31706436506
 20
1194.1577635
 42
0.0
  0
VERTEX
  8
Image
 10
1844.04260122027
 20
1104.5963750107
 42
0.0
  0
VERTEX
  8
Image
 10
1890.14078110659
 20
1048.54104533132
 42
0.0
  0
VERTEX
  8
Image
 10
1892.48419953866
 20
1066.85753140206
 42
0.0
  0
SEQEND
  0
POLYLINE
  8
Image
 66
     1
 10
0.0
 20
0.0
 30
0.0
 70
     1
  0
VERTEX
  8
Image
 10
1444.59149626134
 20
1086.80857692265
 42
0.0
  0
VERTEX
  8
Image
 10
1459.07053494546
 20
1079.56568309436
 42
0.0
  0
VERTEX
  8
Image
 10
1487.04789431834
 20
1109.76582844372
 42
0.0
  0
VERTEX
  8
Image
 10
1448.75633225696
 20
1140.01007500135
 42
0.0
  0
VERTEX
  8
Image
 10
1444.59149626134
 20
1128.31384488728
 42
0.0
  0
SEQEND
  0
POLYLINE
  8
Image
 66
     1
 10
0.0
 20
0.0
 30
0.0
 70
     1
  0
VERTEX
  8
Image
 10
1444.59149626134
 20
331.069687351625
 42
0.0
  0
VERTEX
  8
Image
 10
1452.12923109191
 20
320.32010468593
 42
0.0
  0
VERTEX
  8
Image
 10
1477.16884099238
 20
334.198926078383
 42
0.0
  0
VERTEX
  8
Image
 10
1467.60488202039
 20
412.436894280589
 42
0.0
  0
VERTEX
  8
Image
 10
1444.59149626134
 20
380.122361345257
 42
0.0
  0
SEQEND
  0
POLYLINE
  8
Image
 66
     1
 10
0.0
 20
0.0
 30
0.0
 70
     1
  0
VERTEX
  8
Image
 10
1453.62723642274
 20
1191.21629766095
 42
0.0
  0
VERTEX
  8
Image
 10
1494.3650983129
 20
1191.21629766074
 42
-0.0015780405438
  0
VERTEX
  8
Image
 10
1475.80295219922
 20
1150.15516593554
 42
0.0
  0
VERTEX
  8
Image
 10
1475.68121701779
 20
1150.3800215475
 42
0.0004163182455
  0
SEQEND
  0
POLYLINE
  8
Image
 66
     1
 10
0.0
 20
0.0
 30
0.0
 70
     1
  0
VERTEX
  8
Image
 10
1569.06708983208
 20
-180.876106199426
 42
0.0
  0
VERTEX
  8
Image
 10
1568.48887471753
 20
-135.588039733822
 42
0.0
  0
VERTEX
  8
Image
 10
1520.93312979057
 20
-93.5985686281416
 42
0.0
  0
VERTEX
  8
Image
 10
1503.25364228691
 20
-93.2661166187644
 42
0.0
  0
VERTEX
  8
Image
 10
1518.65867672021
 20
-191.764209640361
 42
0.0
  0
SEQEND
  0
POLYLINE
  8
Image
 66
     1
 10
0.0
 20
0.0
 30
0.0
 70
     1
  0
VERTEX
  8
Image
 10
1615.15113399566
 20
-205.974299574492
 42
0.0
  0
VERTEX
  8
Image
 10
1583.94194478126
 20
-270.84111233836
 42
0.0
  0
VERTEX
  8
Image
 10
1504.25890848918
 20
-253.214261043831
 42
0.0
  0
VERTEX
  8
Image
 10
1504.25890848918
 20
-253.214261043831
 42
0.0
  0
SEQEND
  0
POLYLINE
  8
Image
 66
     1
 10
0.0
 20
0.0
 30
0.0
 70
     1
  0
VERTEX
  8
Image
 10
1626.83688737814
 20
-233.063891712027
 42
0.0
  0
VERTEX
  8
Image
 10
1732.41830355655
 20
-231.24819534049
 42
0.0
  0
VERTEX
  8
Image
 10
1688.41202578364
 20
-311.757350587857
 42
0.0
  0
VERTEX
  8
Image
 10
1625.02589821918
 20
-285.624278425737
 42
0.0
  0
SEQEND
  0
POLYLINE
  8
Image
 66
     1
 10
0.0
 20
0.0
 30
0.0
 70
     1
  0
VERTEX
  8
Image
 10
1561.01330452897
 20
-377.113854003266
 42
0.0
  0
VERTEX
  8
Image
 10
1601.35022943038
 20
-420.994794106183
 42
0.0
  0
VERTEX
  8
Image
 10
1570.54930415773
 20
-434.027596153354
 42
0.0
  0
VERTEX
  8
Image
 10
1499.28119765337
 20
-422.291886232634
 42
0.0
  0
SEQEND
  0
POLYLINE
  8
Image
 66
     1
 10
0.0
 20
0.0
 30
0.0
 70
     1
  0
VERTEX
  8
Image
 10
1812.0840168451
 20
-209.275560523595
 42
0.0
  0
VERTEX
  8
Image
 10
1889.3727946443
 20
-190.649477699108
 42
0.0
  0
VERTEX
  8
Image
 10
1894.00000294689
 20
-233.880995936643
 42
0.0
  0
VERTEX
  8
Image
 10
1855.98258390243
 20
-290.704343807544
 42
0.0
  0
SEQEND
  0
POLYLINE
  8
Image
 66
     1
 10
0.0
 20
0.0
 30
0.0
 70
     1
  0
VERTEX
  8
Image
 10
1746.57475953969
 20
-320.706729467258
 42
0.0
  0
VERTEX
  8
Image
 10
1791.62202102945
 20
-348.796366928625
 42
0.0
  0
VERTEX
  8
Image
 10
1762.78968009121
 20
-377.813956185994
 42
0.0
  0
VERTEX
  8
Image
 10
1762.78968009121
 20
-377.813956185994
 42
0.0
  0
VERTEX
  8
Image
 10
1629.17981877284
 20
-349.787081746993
 42
0.0
  0
SEQEND
  0
POLYLINE
  8
Image
 66
     1
 10
0.0
 20
0.0
 30
0.0
 70
     1
  0
VERTEX
  8
Image
 10
1836.80905448344
 20
-467.26155643463
 42
0.0
  0
VERTEX
  8
Image
 10
1876.39219285566
 20
-506.342045878132
 42
0.0
  0
VERTEX
  8
Image
 10
1824.75296439835
 20
-611.332119600178
 42
0.0
  0
VERTEX
  8
Image
 10
1791.81081139487
 20
-537.962430595608
 42
0.0
  0
SEQEND
  0
POLYLINE
  8
Image
 66
     1
 10
0.0
 20
0.0
 30
0.0
 70
     1
  0
VERTEX
  8
Image
 10
1766.51248744829
 20
-548.386363998571
 42
0.0
  0
VERTEX
  8
Image
 10
1802.25588429841
 20
-610.478983681521
 42
0.0
  0
VERTEX
  8
Image
 10
1794.22121283414
 20
-656.548323289041
 42
0.0
  0
VERTEX
  8
Image
 10
1746.47209717988
 20
-603.523169288163
 42
0.0
  0
SEQEND
  0
POLYLINE
  8
Image
 66
     1
 10
0.0
 20
0.0
 30
0.0
 70
     1
  0
VERTEX
  8
Image
 10
1633.41595536747
 20
-609.954937456928
 42
0.0
  0
VERTEX
  8
Image
 10
1667.5525228436
 20
-672.941064198569
 42
0.0
  0
VERTEX
  8
Image
 10
1618.6402895096
 20
-723.267428308334
 42
0.0
  0
VERTEX
  8
Image
 10
1592.93948500465
 20
-677.299159013936
 42
0.0
  0
SEQEND
  0
POLYLINE
  8
Image
 66
     1
 10
0.0
 20
0.0
 30
0.0
 70
     1
  0
VERTEX
  8
Image
 10
1512.25323080338
 20
-622.009729918303
 42
0.0
  0
VERTEX
  8
Image
 10
1520.15095334989
 20
-666.878117260608
 42
0.0
  0
VERTEX
  8
Image
 10
1561.17082356785
 20
-658.727392797835
 42
0.0
  0
VERTEX
  8
Image
 10
1545.39869134962
 20
-634.331464300597
 42
0.0
  0
SEQEND
  0
POLYLINE
  8
Image
 66
     1
 10
0.0
 20
0.0
 30
0.0
 70
     1
  0
VERTEX
  8
Image
 10
1574.30854964645
 20
-464.234826319596
 42
0.0
  0
VERTEX
  8
Image
 10
1554.0818103958
 20
-535.238889257336
 42
0.0
  0
VERTEX
  8
Image
 10
1610.05530661233
 20
-510.677651666566
 42
0.0
  0
VERTEX
  8
Image
 10
1616.93574074909
 20
-471.429004959215
 42
0.0
  0
SEQEND
  0
POLYLINE
  8
Image
 66
     1
 10
0.0
 20
0.0
 30
0.0
 70
     1
  0
VERTEX
  8
Image
 10
1562.23377071466
 20
-452.376368632432
 42
0.0
  0
VERTEX
  8
Image
 10
1493.48295951541
 20
-542.015720325883
 42
0.0
  0
VERTEX
  8
Image
 10
1493.48295951541
 20
-542.015720325883
 42
0.0
  0
VERTEX
  8
Image
 10
1512.50006205186
 20
-443.088786439849
 42
0.0
  0
SEQEND
  0
POLYLINE
  8
Image
 66
     1
 10
0.0
 20
0.0
 30
0.0
 70
     1
  0
VERTEX
  8
Image
 10
1524.02800941408
 20
-564.578005766273
 42
0.0
  0
VERTEX
  8
Image
 10
1489.49882257211
 20
-573.038862806419
 42
0.0
  0
VERTEX
  8
Image
 10
1538.54792329969
 20
-599.148043563077
 42
0.0
  0
VERTEX
  8
Image
 10
1553.33544575931
 20
-559.466597390025
 42
0.0
  0
SEQEND
  0
POLYLINE
  8
Image
 66
     1
 10
0.0
 20
0.0
 30
0.0
 70
     1
  0
VERTEX
  8
Image
 10
1621.28904093624
 20
-561.775204992728
 42
0.0
  0
VERTEX
  8
Image
 10
1598.69002320412
 20
-618.298990136369
 42
0.0
  0
VERTEX
  8
Image
 10
1563.09256307092
 20
-609.778893353972
 42
0.0
  0
VERTEX
  8
Image
 10
1581.40912496167
 20
-565.322351250991
 42
0.0
  0
SEQEND
  0
POLYLINE
  8
Image
 66
     1
 10
0.0
 20
0.0
 30
0.0
 70
     1
  0
VERTEX
  8
Image
 10
1645.33152151787
 20
-552.992524548024
 42
0.0
  0
VERTEX
  8
Image
 10
1673.30888089075
 20
-522.792379198666
 42
0.0
  0
VERTEX
  8
Image
 10
1635.01731882937
 20
-492.548132641043
 42
0.0
  0
VERTEX
  8
Image
 10
1618.3076775728
 20
-539.47430439568
 42
0.0
  0
SEQEND
  0
POLYLINE
  8
Image
 66
     1
 10
0.0
 20
0.0
 30
0.0
 70
     1
  0
VERTEX
  8
Image
 10
1649.95675064209
 20
-192.64772630295
 42
0.0
  0
VERTEX
  8
Image
 10
1765.26818815565
 20
-122.517504151123
 42
0.0
  0
VERTEX
  8
Image
 10
1733.23286491012
 20
-209.411572850788
 42
0.0
  0
SEQEND
  0
POLYLINE
  8
Image
 66
     1
 10
0.0
 20
0.0
 30
0.0
 70
     1
  0
VERTEX
  8
Image
 10
1664.73713151437
 20
-607.814588185731
 42
0.0
  0
VERTEX
  8
Image
 10
1710.31440649033
 20
-664.253358481557
 42
0.0
  0
VERTEX
  8
Image
 10
1715.14661263066
 20
-580.864090709097
 42
0.0
  0
SEQEND
  0
POLYLINE
  8
Image
 66
     1
 10
0.0
 20
0.0
 30
0.0
 70
     1
  0
VERTEX
  8
Image
 10
1506.60976042448
 20
-314.187641607896
 42
0.0
  0
VERTEX
  8
Image
 10
1562.78929433199
 20
-351.904462626495
 42
0.0
  0
VERTEX
  8
Image
 10
1597.33646562454
 20
-300.039113255257
 42
0.0
  0
SEQEND
  0
POLYLINE
  8
Image
 66
     1
 10
0.0
 20
0.0
 30
0.0
 70
     1
  0
VERTEX
  8
Image
 10
992.342281899492
 20
1011.18655906256
 42
0.0
  0
VERTEX
  8
Image
 10
1035.57621908481
 20
990.361925724957
 42
-0.0028417366102
  0
VERTEX
  8
Image
 10
1035.57621908481
 20
990.361925724957
 42
-0.0020777122606
  0
VERTEX
  8
Image
 10
1035.57621908481
 20
990.361925724957
 42
-0.0093539177085
  0
VERTEX
  8
Image
 10
1035.57621908481
 20
990.361925724957
 42
0.0029672300867
  0
VERTEX
  8
Image
 10
1051.74951245013
 20
956.398009657778
 42
0.0006933504526
  0
VERTEX
  8
Image
 10
970.343935844668
 20
940.763826071298
 42
0.0
  0
SEQEND
  0
POLYLINE
  8
Image
 66
     1
 10
0.0
 20
0.0
 30
0.0
 70
     1
  0
VERTEX
  8
Image
 10
1748.3633322099
 20
-421.17335257035
 42
-0.0157086602376
  0
VERTEX
  8
Image
 10
1750.56552813593
 20
-419.370217167265
 42
-0.0017386301508
  0
VERTEX
  8
Image
 10
1760.01558945426
 20
-412.145187504732
 42
-0.002060774801
  0
VERTEX
  8
Image
 10
1824.18175222921
 20
-364.430208590681
 42
0.0
  0
VERTEX
  8
Image
 10
1826.58907637288
 20
-446.82443067648
 42
0.0
  0
VERTEX
  8
Image
 10
1769.35937292884
 20
-485.539451684363
 42
-0.0105229963675
  0
VERTEX
  8
Image
 10
1754.61683178235
 20
-445.514523286049
 42
-0.0078796967383
  0
VERTEX
  8
Image
 10
1751.10205573502
 20
-434.643202921408
 42
-0.0113423340711
  0
VERTEX
  8
Image
 10
1748.91892524504
 20
-426.768244348154
 42
-0.0093171435672
  0
VERTEX
  8
Image
 10
1748.32281537043
 20
-423.682118922428
 42
-0.0578204494674
  0
VERTEX
  8
Image
 10
1748.23047560892
 20
-421.520796937011
 42
-0.1036257478248
  0
SEQEND
  0
POLYLINE
  8
Image
 66
     1
 10
0.0
 20
0.0
 30
0.0
 70
     1
  0
VERTEX
  8
Image
 10
1769.41321683485
 20
-225.042880435615
 42
0.0
  0
VERTEX
  8
Image
 10
1737.11388509187
 20
-296.474658565177
 42
0.0
  0
VERTEX
  8
Image
 10
1819.45967405868
 20
-334.55937358177
 42
0.0
  0
VERTEX
  8
Image
 10
1824.55834471709
 20
-293.365868496101
 42
0.0
  0
SEQEND
  0
POLYLINE
  8
Image
 66
     1
 10
0.0
 20
0.0
 30
0.0
 70
     1
  0
VERTEX
  8
Image
 10
1642.34855784054
 20
-583.249816629369
 42
0.0
  0
VERTEX
  8
Image
 10
1725.12303824145
 20
-502.983857930637
 42
0.0
  0
VERTEX
  8
Image
 10
1781.36573849132
 20
-520.899712222451
 42
0.0
  0
VERTEX
  8
Image
 10
1710.43162165928
 20
-562.161651024135
 42
0.0
  0
SEQEND
  0
POLYLINE
  8
Image
 66
     1
 10
0.0
 20
0.0
 30
0.0
 70
     1
  0
VERTEX
  8
Image
 10
1708.704050759
 20
-403.0463222015
 42
0.0
  0
VERTEX
  8
Image
 10
1668.35918761489
 20
-459.697065490264
 42
0.0
  0
VERTEX
  8
Image
 10
1693.22839983051
 20
-495.163111796158
 42
0.0
  0
VERTEX
  8
Image
 10
1718.26800973098
 20
-481.284290403712
 42
0.0
  0
SEQEND
  0
POLYLINE
  8
Image
 66
     1
 10
0.0
 20
0.0
 30
0.0
 70
     1
  0
VERTEX
  8
Image
 10
1541.98310542408
 20
252.719077038321
 42
0.0
  0
VERTEX
  8
Image
 10
1596.15879129992
 20
198.7122442574
 42
0.0
  0
VERTEX
  8
Image
 10
1565.35786602727
 20
185.679442210229
 42
0.0
  0
VERTEX
  8
Image
 10
1529.4759614063
 20
190.304933860928
 42
0.0
  0
SEQEND
  0
POLYLINE
  8
Image
 66
     1
 10
0.0
 20
0.0
 30
0.0
 70
     1
  0
VERTEX
  8
Image
 10
1832.63555431296
 20
148.12202233023
 42
0.0
  0
VERTEX
  8
Image
 10
1872.21869268517
 20
109.041532886738
 42
0.0
  0
VERTEX
  8
Image
 10
1822.07731406598
 20
35.1774362449205
 42
0.0
  0
VERTEX
  8
Image
 10
1794.34849892083
 20
102.445963001472
 42
0.0
  0
SEQEND
  0
POLYLINE
  8
Image
 66
     1
 10
0.0
 20
0.0
 30
0.0
 70
     1
  0
VERTEX
  8
Image
 10
1762.3389872778
 20
66.9972147663006
 42
0.0
  0
VERTEX
  8
Image
 10
1808.99874270908
 20
6.0947135629426
 42
0.0
  0
VERTEX
  8
Image
 10
1787.90751611571
 20
-25.7831034900716
 42
0.0
  0
VERTEX
  8
Image
 10
1742.2985970094
 20
11.8604094766971
 42
0.0
  0
SEQEND
  0
POLYLINE
  8
Image
 66
     1
 10
0.0
 20
0.0
 30
0.0
 70
     1
  0
VERTEX
  8
Image
 10
1784.23183357537
 20
-46.4498729606613
 42
0.0
  0
VERTEX
  8
Image
 10
1833.26573491467
 20
-51.5727673607971
 42
0.0
  0
VERTEX
  8
Image
 10
1834.06410577948
 20
-77.8484327641497
 42
0.0
  0
VERTEX
  8
Image
 10
1782.25676906431
 20
-127.617037322167
 42
0.0
  0
SEQEND
  0
POLYLINE
  8
Image
 66
     1
 10
0.0
 20
0.0
 30
0.0
 70
     1
  0
VERTEX
  8
Image
 10
1709.11189283293
 20
-114.900949011806
 42
0.0
  0
VERTEX
  8
Image
 10
1681.12413127563
 20
-67.7019148460797
 42
0.0
  0
VERTEX
  8
Image
 10
1747.4394643455
 20
-38.5656761604081
 42
0.0
  0
VERTEX
  8
Image
 10
1745.32765380034
 20
-112.736524043526
 42
0.0
  0
SEQEND
  0
POLYLINE
  8
Image
 66
     1
 10
0.0
 20
0.0
 30
0.0
 70
     1
  0
VERTEX
  8
Image
 10
1629.24245519699
 20
5.4286413079419
 42
0.0
  0
VERTEX
  8
Image
 10
1663.37902267311
 20
-57.5574854337071
 42
0.0
  0
VERTEX
  8
Image
 10
1607.29663348282
 20
-125.313608315764
 42
0.0
  0
VERTEX
  8
Image
 10
1588.76598483416
 20
-61.9155802490691
 42
0.0
  0
SEQEND
  0
POLYLINE
  8
Image
 66
     1
 10
0.0
 20
0.0
 30
0.0
 70
     1
  0
VERTEX
  8
Image
 10
1497.26290297594
 20
-28.5730916980602
 42
0.0
  0
VERTEX
  8
Image
 10
1526.28762296752
 20
-62.6506714004875
 42
0.0
  0
VERTEX
  8
Image
 10
1567.30749318549
 20
-54.4999469377067
 42
0.0
  0
VERTEX
  8
Image
 10
1551.53536096726
 20
-30.1040184404745
 42
0.0
  0
SEQEND
  0
POLYLINE
  8
Image
 66
     1
 10
0.0
 20
0.0
 30
0.0
 70
     1
  0
VERTEX
  8
Image
 10
1570.13504947596
 20
151.148752445264
 42
0.0
  0
VERTEX
  8
Image
 10
1549.90831022532
 20
80.1446895075254
 42
0.0
  0
VERTEX
  8
Image
 10
1605.88180644184
 20
104.705927098297
 42
0.0
  0
VERTEX
  8
Image
 10
1612.7622405786
 20
143.954573805645
 42
0.0
  0
SEQEND
  0
POLYLINE
  8
Image
 66
     1
 10
0.0
 20
0.0
 30
0.0
 70
     1
  0
VERTEX
  8
Image
 10
1558.06027054418
 20
163.00721013243
 42
0.0
  0
VERTEX
  8
Image
 10
1511.37511735028
 20
92.949050623001
 42
0.0
  0
VERTEX
  8
Image
 10
1511.37511735028
 20
92.949050623001
 42
0.0
  0
VERTEX
  8
Image
 10
1508.32656188138
 20
172.294792325012
 42
0.0
  0
SEQEND
  0
POLYLINE
  8
Image
 66
     1
 10
0.0
 20
0.0
 30
0.0
 70
     1
  0
VERTEX
  8
Image
 10
1515.26086144815
 20
71.0327545375018
 42
0.0
  0
VERTEX
  8
Image
 10
1492.28959710333
 20
19.0530590173741
 42
0.0
  0
VERTEX
  8
Image
 10
1535.59231021343
 20
23.2366088566469
 42
0.0
  0
VERTEX
  8
Image
 10
1549.16194558883
 20
55.9169813748425
 42
0.0
  0
SEQEND
  0
POLYLINE
  8
Image
 66
     1
 10
0.0
 20
0.0
 30
0.0
 70
     1
  0
VERTEX
  8
Image
 10
1617.11554076576
 20
53.608373772135
 42
0.0
  0
VERTEX
  8
Image
 10
1594.51652303363
 20
-2.9154113715023
 42
0.0
  0
VERTEX
  8
Image
 10
1558.91906290043
 20
5.6046854108953
 42
0.0
  0
VERTEX
  8
Image
 10
1577.23562479118
 20
50.061227513871
 42
0.0
  0
SEQEND
  0
POLYLINE
  8
Image
 66
     1
 10
0.0
 20
0.0
 30
0.0
 70
     1
  0
VERTEX
  8
Image
 10
1641.15802134738
 20
62.3910542168461
 42
0.0
  0
VERTEX
  8
Image
 10
1669.13538072026
 20
92.5911995661957
 42
0.0
  0
VERTEX
  8
Image
 10
1630.84381865888
 20
122.835446123827
 42
0.0
  0
VERTEX
  8
Image
 10
1614.13417740231
 20
75.9092743691814
 42
0.0
  0
SEQEND
  0
POLYLINE
  8
Image
 66
     1
 10
0.0
 20
0.0
 30
0.0
 70
     1
  0
VERTEX
  8
Image
 10
1638.02172858338
 20
14.937452940925
 42
0.0
  0
VERTEX
  8
Image
 10
1707.19260736289
 20
-40.0066135504579
 42
0.0
  0
VERTEX
  8
Image
 10
1721.62332595316
 20
21.7223705575684
 42
0.0
  0
SEQEND
  0
POLYLINE
  8
Image
 66
     1
 10
0.0
 20
0.0
 30
0.0
 70
     1
  0
VERTEX
  8
Image
 10
1638.17505767005
 20
32.1337621355009
 42
0.0
  0
VERTEX
  8
Image
 10
1724.22412828085
 20
111.972304612192
 42
0.0
  0
VERTEX
  8
Image
 10
1763.86027768365
 20
93.2420566177478
 42
0.0
  0
VERTEX
  8
Image
 10
1706.25812148879
 20
53.221927740727
 42
0.0
  0
SEQEND
  0
POLYLINE
  8
Image
 66
     1
 10
0.0
 20
0.0
 30
0.0
 70
     1
  0
VERTEX
  8
Image
 10
1684.20253132201
 20
182.73887956318
 42
0.0
  0
VERTEX
  8
Image
 10
1626.18006760362
 20
183.819744462858
 42
0.0
  0
VERTEX
  8
Image
 10
1681.92933394022
 20
104.00749347353
 42
0.0
  0
VERTEX
  8
Image
 10
1706.9689438407
 20
117.886314865986
 42
0.0
  0
SEQEND
  0
POLYLINE
  8
Image
 66
     1
 10
0.0
 20
0.0
 30
0.0
 70
     1
  0
VERTEX
  8
Image
 10
1581.94285157493
 20
-154.157647528864
 42
0.0
  0
VERTEX
  8
Image
 10
1649.70246413376
 20
-177.014320366381
 42
0.0
  0
VERTEX
  8
Image
 10
1684.2496354263
 20
-125.148970995152
 42
0.0
  0
SEQEND
  0
POLYLINE
  8
Image
 66
     1
 10
0.0
 20
0.0
 30
0.0
 70
     1
  0
VERTEX
  8
Image
 10
1863.29917660035
 20
-622.504129424572
 42
0.0
  0
VERTEX
  8
Image
 10
1893.74788867705
 20
-687.374917176644
 42
0.0
  0
VERTEX
  8
Image
 10
1766.0608451738
 20
-723.183307937841
 42
0.0
  0
VERTEX
  8
Image
 10
1807.07668717696
 20
-677.876721255486
 42
0.0
  0
SEQEND
  0
POLYLINE
  8
Image
 66
     1
 10
0.0
 20
0.0
 30
0.0
 70
     1
  0
VERTEX
  8
Image
 10
1494.63570360571
 20
-401.995811477476
 42
0.0
  0
VERTEX
  8
Image
 10
1501.19760485293
 20
-354.600790878382
 42
0.0
  0
VERTEX
  8
Image
 10
1481.43977246508
 20
-356.82985119706
 42
0.0
  0
VERTEX
  8
Image
 10
1457.67604098797
 20
-408.820930936507
 42
0.0
  0
SEQEND
  0
POLYLINE
  8
Image
 66
     1
 10
0.0
 20
0.0
 30
0.0
 70
     1
  0
VERTEX
  8
Image
 10
1491.07360370729
 20
106.113781943569
 42
0.0
  0
VERTEX
  8
Image
 10
1481.50520366537
 20
45.5536886949125
 42
0.0
  0
VERTEX
  8
Image
 10
1445.01794077308
 20
45.0287277160846
 42
0.0
  0
VERTEX
  8
Image
 10
1453.07085204348
 20
92.7940625544041
 42
0.0
  0
SEQEND
  0
POLYLINE
  8
Image
 66
     1
 10
0.0
 20
0.0
 30
0.0
 70
     1
  0
VERTEX
  8
Image
 10
1673.48351388524
 20
-719.495177629923
 42
0.0
  0
VERTEX
  8
Image
 10
1761.09468798516
 20
-653.030289374635
 42
0.0
  0
VERTEX
  8
Image
 10
1729.05936473963
 20
-739.924358074297
 42
0.0
  0
SEQEND
  0
POLYLINE
  8
Image
 66
     1
 10
0.0
 20
0.0
 30
0.0
 70
     1
  0
VERTEX
  8
Image
 10
1540.11199448196
 20
-681.875154851095
 42
0.0
  0
VERTEX
  8
Image
 10
1546.74085528608
 20
-719.534909602677
 42
0.0
  0
VERTEX
  8
Image
 10
1581.44960712419
 20
-712.638216093507
 42
0.0
  0
VERTEX
  8
Image
 10
1568.34700054195
 20
-692.371441196799
 42
0.0
  0
SEQEND
  0
POLYLINE
  8
Image
 66
     1
 10
0.0
 20
0.0
 30
0.0
 70
     1
  0
VERTEX
  8
Image
 10
1893.50213749863
 20
-568.291060545765
 42
0.0
  0
VERTEX
  8
Image
 10
1862.62046525119
 20
-565.927544846924
 42
0.0
  0
VERTEX
  8
Image
 10
1865.81585482112
 20
-604.310673382943
 42
0.0
  0
VERTEX
  8
Image
 10
1893.50213749863
 20
-610.38504358255
 42
0.0
  0
SEQEND
  0
POLYLINE
  8
Image
 66
     1
 10
0.0
 20
0.0
 30
0.0
 70
     1
  0
VERTEX
  8
Image
 10
1893.50213749863
 20
69.8812209907803
 42
0.0
  0
VERTEX
  8
Image
 10
1866.77333732079
 20
71.9268983856259
 42
0.0
  0
VERTEX
  8
Image
 10
1869.96872689072
 20
33.5437698496081
 42
0.0
  0
VERTEX
  8
Image
 10
1893.50213749863
 20
28.3805397490965
 42
0.0
  0
SEQEND
  0
POLYLINE
  8
Image
 66
     1
 10
0.0
 20
0.0
 30
0.0
 70
     1
  0
VERTEX
  8
Image
 10
1893.50213749863
 20
-13.5269083205331
 42
0.0
  0
VERTEX
  8
Image
 10
1893.50213749863
 20
-44.637389440587
 42
0.0
  0
VERTEX
  8
Image
 10
1869.37848653631
 20
-66.5518310226154
 42
0.0
  0
VERTEX
  8
Image
 10
1832.84463850986
 20
-15.8533188063371
 42
0.0
  0
VERTEX
  8
Image
 10
1868.10162953072
 20
10.4470174246386
 42
0.0
  0
SEQEND
  0
POLYLINE
  8
Image
 66
     1
 10
0.0
 20
0.0
 30
0.0
 70
     1
  0
VERTEX
  8
Image
 10
1893.50213749863
 20
-147.446945013321
 42
0.0
  0
VERTEX
  8
Image
 10
1893.50213749863
 20
-158.101461135107
 42
0.0
  0
VERTEX
  8
Image
 10
1770.23434534428
 20
-192.670522714327
 42
0.0
  0
VERTEX
  8
Image
 10
1770.23434534428
 20
-192.670522714327
 42
0.0
  0
VERTEX
  8
Image
 10
1867.47267677084
 20
-91.9913442010586
 42
0.0
  0
SEQEND
  0
POLYLINE
  8
Image
 66
     1
 10
0.0
 20
0.0
 30
0.0
 70
     1
  0
VERTEX
  8
Image
 10
1893.50213749863
 20
-284.899340051529
 42
0.0
  0
VERTEX
  8
Image
 10
1893.50213749863
 20
-364.162953879518
 42
0.0
  0
VERTEX
  8
Image
 10
1857.29965813096
 20
-317.86755669113
 42
0.0
  0
SEQEND
  0
POLYLINE
  8
Image
 66
     1
 10
0.0
 20
0.0
 30
0.0
 70
     1
  0
VERTEX
  8
Image
 10
1893.50213749863
 20
-392.283640955308
 42
0.0
  0
VERTEX
  8
Image
 10
1893.50213749863
 20
-499.686305992805
 42
0.0
  0
VERTEX
  8
Image
 10
1849.23403935072
 20
-445.856353441974
 42
0.0
  0
VERTEX
  8
Image
 10
1855.67817739864
 20
-367.387866358776
 42
0.0
  0
SEQEND
  0
POLYLINE
  8
Image
 66
     1
 10
0.0
 20
0.0
 30
0.0
 70
     1
  0
VERTEX
  8
Image
 10
1445.60943422131
 20
-673.578495940529
 42
0.0
  0
VERTEX
  8
Image
 10
1445.60943422131
 20
-653.638019902096
 42
0.0
  0
VERTEX
  8
Image
 10
1462.69166701876
 20
-661.710308997173
 42
0.0
  0
SEQEND
  0
POLYLINE
  8
Image
 66
     1
 10
0.0
 20
0.0
 30
0.0
 70
     1
  0
VERTEX
  8
Image
 10
1445.60943422131
 20
-478.696847065088
 42
0.0
  0
VERTEX
  8
Image
 10
1445.60943422131
 20
-418.669400899554
 42
0.0
  0
VERTEX
  8
Image
 10
1462.19649221949
 20
-458.908659191791
 42
0.0
  0
SEQEND
  0
POLYLINE
  8
Image
 66
     1
 10
0.0
 20
0.0
 30
0.0
 70
     1
  0
VERTEX
  8
Image
 10
1447.17436909376
 20
-348.764114916343
 42
0.0
  0
VERTEX
  8
Image
 10
1445.60943422131
 20
-263.772766104799
 42
0.0
  0
VERTEX
  8
Image
 10
1488.4427181515
 20
-231.815215919048
 42
0.0
  0
VERTEX
  8
Image
 10
1484.34726206948
 20
-293.176002951632
 42
0.0
  0
SEQEND
  0
POLYLINE
  8
Image
 66
     1
 10
0.0
 20
0.0
 30
0.0
 70
     1
  0
VERTEX
  8
Image
 10
1445.60943422131
 20
-224.903302398734
 42
0.0
  0
VERTEX
  8
Image
 10
1445.60943422131
 20
-175.206369063385
 42
0.0
  0
VERTEX
  8
Image
 10
1483.72771385322
 20
-127.06951453637
 42
0.0
  0
VERTEX
  8
Image
 10
1472.88562006864
 20
-218.510314099623
 42
0.0
  0
SEQEND
  0
POLYLINE
  8
Image
 66
     1
 10
0.0
 20
0.0
 30
0.0
 70
     1
  0
VERTEX
  8
Image
 10
1445.60943422131
 20
-56.9901212394809
 42
0.0
  0
VERTEX
  8
Image
 10
1445.60943422131
 20
2.6907996829017
 42
0.0
  0
VERTEX
  8
Image
 10
1461.58800544178
 20
5.1234721097684
 42
0.0
  0
VERTEX
  8
Image
 10
1484.63102175352
 20
-56.3294498049508
 42
0.0
  0
SEQEND
  0
POLYLINE
  8
Image
 66
     1
 10
0.0
 20
0.0
 30
0.0
 70
     1
  0
VERTEX
  8
Image
 10
1445.60943422131
 20
117.151750445132
 42
0.0
  0
VERTEX
  8
Image
 10
1460.08847290543
 20
109.908856616848
 42
0.0
  0
VERTEX
  8
Image
 10
1488.06583227831
 20
140.109001966205
 42
0.0
  0
VERTEX
  8
Image
 10
1449.77427021693
 20
170.353248523831
 42
0.0
  0
VERTEX
  8
Image
 10
1445.60943422131
 20
158.657018409759
 42
0.0
  0
SEQEND
  0
POLYLINE
  8
Image
 66
     1
 10
0.0
 20
0.0
 30
0.0
 70
     1
  0
VERTEX
  8
Image
 10
1445.60943422131
 20
-603.999462336188
 42
0.0
  0
VERTEX
  8
Image
 10
1453.14716905188
 20
-614.749045001884
 42
0.0
  0
VERTEX
  8
Image
 10
1478.18677895235
 20
-600.87022360943
 42
0.0
  0
VERTEX
  8
Image
 10
1468.62281998036
 20
-522.632255407225
 42
0.0
  0
VERTEX
  8
Image
 10
1445.60943422131
 20
-554.946788342556
 42
0.0
  0
SEQEND
  0
POLYLINE
  8
Image
 66
     1
 10
0.0
 20
0.0
 30
0.0
 70
     1
  0
VERTEX
  8
Image
 10
1474.55062956921
 20
-671.89417015384
 42
0.0
  0
VERTEX
  8
Image
 10
1454.32389031857
 20
-742.89823309158
 42
0.0
  0
VERTEX
  8
Image
 10
1510.29738653509
 20
-718.336995500811
 42
0.0
  0
VERTEX
  8
Image
 10
1517.17782067185
 20
-679.088348793459
 42
0.0
  0
SEQEND
  0
POLYLINE
  8
Image
 66
     1
 10
0.0
 20
0.0
 30
0.0
 70
     1
  0
VERTEX
  8
Image
 10
1498.70721459839
 20
-757.999995855
 42
0.0
  0
VERTEX
  8
Image
 10
1529.8368315526
 20
-757.999995855
 42
0.0
  0
VERTEX
  8
Image
 10
1505.54053478047
 20
-738.809783953071
 42
0.0
  0
SEQEND
  0
POLYLINE
  8
Image
 66
     1
 10
0.0
 20
0.0
 30
0.0
 70
     1
  0
VERTEX
  8
Image
 10
1567.38668022147
 20
-757.999995855
 42
0.0
  0
VERTEX
  8
Image
 10
1613.9372770462
 20
-757.999995855
 42
0.0
  0
VERTEX
  8
Image
 10
1616.93574074909
 20
-740.895603864552
 42
0.0
  0
VERTEX
  8
Image
 10
1574.30854964645
 20
-733.701425224933
 42
0.0
  0
SEQEND
  0
POLYLINE
  8
Image
 66
     1
 10
0.0
 20
0.0
 30
0.0
 70
     1
  0
VERTEX
  8
Image
 10
1635.68267380289
 20
-757.999995855
 42
0.0
  0
VERTEX
  8
Image
 10
1683.66168727621
 20
-757.999995855
 42
0.0
  0
VERTEX
  8
Image
 10
1646.21463638906
 20
-728.422778867311
 42
0.0
  0
SEQEND
  0
POLYLINE
  8
Image
 66
     1
 10
0.0
 20
0.0
 30
0.0
 70
     1
  0
VERTEX
  8
Image
 10
1871.75788840538
 20
-757.999995855
 42
0.0
  0
VERTEX
  8
Image
 10
1814.8479977653
 20
-757.999995855
 42
0.0
  0
VERTEX
  8
Image
 10
1836.80905448344
 20
-723.494961860333
 42
0.0
  0
SEQEND
  0
POLYLINE
  8
Image
 66
     1
 10
0.0
 20
0.0
 30
0.0
 70
     1
  0
VERTEX
  8
Image
 10
1445.60943422131
 20
-116.757160142411
 42
0.0
  0
VERTEX
  8
Image
 10
1445.60943422131
 20
-96.8166841039786
 42
0.0
  0
VERTEX
  8
Image
 10
1462.69166701876
 20
-104.888973199055
 42
0.0
  0
SEQEND
  0
POLYLINE
  8
Image
 66
     1
 10
0.0
 20
0.0
 30
0.0
 70
     1
  0
VERTEX
  8
Image
 10
1445.60943422131
 20
805.841344083561
 42
0.0
  0
VERTEX
  8
Image
 10
1445.60943422131
 20
825.781820121993
 42
0.0
  0
VERTEX
  8
Image
 10
1462.69166701876
 20
817.709531026916
 42
0.0
  0
SEQEND
  0
POLYLINE
  8
Image
 66
     1
 10
0.0
 20
0.0
 30
0.0
 70
     1
  0
VERTEX
  8
Image
 10
1897.40850949866
 20
126.490653747285
 42
0.0
  0
VERTEX
  8
Image
 10
1897.40850949866
 20
146.431129785717
 42
0.0
  0
VERTEX
  8
Image
 10
1880.32627670122
 20
138.35884069064
 42
0.0
  0
SEQEND
  0
LINE
  8
Image
 10
1419.00000144
 20
1216.999995855
 30
0.0
 11
1419.00000144
 21
-782.999995855
 31
0.0
  0
POLYLINE
  8
Image
 66
     1
 10
0.0
 20
0.0
 30
0.0
 70
     1
  0
VERTEX
  8
Image
 10
1419.00000144
 20
1216.999995855
 42
0.0
  0
VERTEX
  8
Image
 10
918.99999856
 20
1216.999995855
 42
0.0
  0
VERTEX
  8
Image
 10
918.99999856
 20
-782.999995855
 42
0.0
  0
VERTEX
  8
Image
 10
1419.00000144
 20
-782.999995855
 42
0.0
  0
VERTEX
  8
Image
 10
1919.00000432
 20
-782.999995855
 42
0.0
  0
VERTEX
  8
Image
 10
1919.00000432
 20
1216.999995855
 42
0.0
  0
SEQEND
  0
ENDSEC
  0
EOF
