  0
SECTION
  2
HEADER
  9
$ACADVER
  1
AC1009
  9
$EXTMAX
 10
500.0
 20
1000.0
 30
0.0
  9
$EXTMIN
 10
-500.0
 20
-1000.0
 30
0.0
  9
$INSUNITS
 70
     4
  9
$LUNITS
 70
     2
  9
$LUPREC
 70
     4
  9
$MEASUREMENT
 70
     1
  0
ENDSEC
  0
SECTION
  2
TABLES
  0
TABLE
  2
LAYER
 70
     1
  0
LAYER
  2
0
 70
     0
 62
    70
  6
Continuous
  0
LAYER
  2
Image
 70
     0
 62
    70
  6
Continuous
  0
ENDTAB
  0
TABLE
  2
APPID
 70
     1
  0
APPID
  2
ACAD
 70
     0
  0
ENDTAB
  0
ENDSEC
  0
SECTION
  2
ENTITIES
  0
POLYLINE
  8
Image
 66
     1
 10
0.0
 20
0.0
 30
0.0
 70
     1
  0
VERTEX
  8
Image
 10
-434.563206291816
 20
-883.584117744346
 42
0.0
  0
VERTEX
  8
Image
 10
-434.169261006758
 20
-883.571611965291
 42
0.0
  0
VERTEX
  8
Image
 10
-432.459035169511
 20
-860.656276306313
 42
0.0
  0
VERTEX
  8
Image
 10
-404.755584684649
 20
-832.268666484098
 42
0.0
  0
VERTEX
  8
Image
 10
-383.208188186878
 20
-831.584748655335
 42
0.0
  0
VERTEX
  8
Image
 10
-382.524373861797
 20
-867.15478947558
 42
0.0
  0
VERTEX
  8
Image
 10
-405.09749184719
 20
-888.017992134771
 42
0.0
  0
VERTEX
  8
Image
 10
-405.09749184719
 20
-906.487051127951
 42
0.0
  0
VERTEX
  8
Image
 10
-423.224781682738
 20
-906.487051127951
 42
0.0
  0
VERTEX
  8
Image
 10
-451.27013933014
 20
-933.164573117828
 42
0.0
  0
VERTEX
  8
Image
 10
-479.315841989815
 20
-933.506480280368
 42
0.0
  0
VERTEX
  8
Image
 10
-480.000001327169
 20
-912.301266954956
 42
0.0
  0
VERTEX
  8
Image
 10
-455.716657504529
 20
-884.255633297736
 42
0.0
  0
SEQEND
  0
POLYLINE
  8
Image
 66
     1
 10
0.0
 20
0.0
 30
0.0
 70
     1
  0
VERTEX
  8
Image
 10
-315.436796108184
 20
-763.961291776281
 42
0.0
  0
VERTEX
  8
Image
 10
-315.830741393242
 20
-763.973797555335
 42
0.0
  0
VERTEX
  8
Image
 10
-317.540967230489
 20
-786.889133214313
 42
0.0
  0
VERTEX
  8
Image
 10
-345.244417715351
 20
-815.276743036529
 42
0.0
  0
VERTEX
  8
Image
 10
-366.791814213123
 20
-815.960660865291
 42
0.0
  0
VERTEX
  8
Image
 10
-367.475628538202
 20
-780.390620045046
 42
0.0
  0
VERTEX
  8
Image
 10
-344.90251055281
 20
-759.527417385856
 42
0.0
  0
VERTEX
  8
Image
 10
-344.90251055281
 20
-741.058358392675
 42
0.0
  0
VERTEX
  8
Image
 10
-326.775220717261
 20
-741.058358392675
 42
0.0
  0
VERTEX
  8
Image
 10
-298.729863069859
 20
-714.380836402799
 42
0.0
  0
VERTEX
  8
Image
 10
-270.684160410184
 20
-714.038929240258
 42
0.0
  0
VERTEX
  8
Image
 10
-270.00000107283
 20
-735.244142565671
 42
0.0
  0
VERTEX
  8
Image
 10
-294.28334489547
 20
-763.289776222891
 42
0.0
  0
SEQEND
  0
POLYLINE
  8
Image
 66
     1
 10
0.0
 20
0.0
 30
0.0
 70
     1
  0
VERTEX
  8
Image
 10
-434.563206291816
 20
-763.961291776281
 42
0.0
  0
VERTEX
  8
Image
 10
-434.169261006758
 20
-763.973797555336
 42
0.0
  0
VERTEX
  8
Image
 10
-432.459035169511
 20
-786.889133214314
 42
0.0
  0
VERTEX
  8
Image
 10
-404.755584684649
 20
-815.276743036529
 42
0.0
  0
VERTEX
  8
Image
 10
-383.208188186878
 20
-815.960660865291
 42
0.0
  0
VERTEX
  8
Image
 10
-382.524373861797
 20
-780.390620045046
 42
0.0
  0
VERTEX
  8
Image
 10
-405.09749184719
 20
-759.527417385856
 42
0.0
  0
VERTEX
  8
Image
 10
-405.09749184719
 20
-741.058358392675
 42
0.0
  0
VERTEX
  8
Image
 10
-423.224781682738
 20
-741.058358392675
 42
0.0
  0
VERTEX
  8
Image
 10
-451.27013933014
 20
-714.380836402799
 42
0.0
  0
VERTEX
  8
Image
 10
-479.315841989815
 20
-714.038929240259
 42
0.0
  0
VERTEX
  8
Image
 10
-480.000001327169
 20
-735.244142565671
 42
0.0
  0
VERTEX
  8
Image
 10
-455.716657504529
 20
-763.289776222891
 42
0.0
  0
SEQEND
  0
POLYLINE
  8
Image
 66
     1
 10
0.0
 20
0.0
 30
0.0
 70
     1
  0
VERTEX
  8
Image
 10
-434.563206291816
 20
-648.947757109637
 42
0.0
  0
VERTEX
  8
Image
 10
-434.169261006758
 20
-648.935251330583
 42
0.0
  0
VERTEX
  8
Image
 10
-432.459035169511
 20
-626.019915671605
 42
0.0
  0
VERTEX
  8
Image
 10
-404.755584684649
 20
-597.632305849389
 42
0.0
  0
VERTEX
  8
Image
 10
-383.208188186878
 20
-596.948388020627
 42
0.0
  0
VERTEX
  8
Image
 10
-382.524373861797
 20
-632.518428840872
 42
0.0
  0
VERTEX
  8
Image
 10
-405.09749184719
 20
-653.381631500063
 42
0.0
  0
VERTEX
  8
Image
 10
-405.09749184719
 20
-671.850690493243
 42
0.0
  0
VERTEX
  8
Image
 10
-423.224781682738
 20
-671.850690493243
 42
0.0
  0
VERTEX
  8
Image
 10
-451.27013933014
 20
-698.52821248312
 42
0.0
  0
VERTEX
  8
Image
 10
-479.315841989815
 20
-698.87011964566
 42
0.0
  0
VERTEX
  8
Image
 10
-480.000001327169
 20
-677.664906320247
 42
0.0
  0
VERTEX
  8
Image
 10
-455.716657504529
 20
-649.619272663027
 42
0.0
  0
SEQEND
  0
POLYLINE
  8
Image
 66
     1
 10
0.0
 20
0.0
 30
0.0
 70
     1
  0
VERTEX
  8
Image
 10
-315.436796108184
 20
-648.947757109638
 42
0.0
  0
VERTEX
  8
Image
 10
-315.830741393242
 20
-648.935251330583
 42
0.0
  0
VERTEX
  8
Image
 10
-317.540967230489
 20
-626.019915671605
 42
0.0
  0
VERTEX
  8
Image
 10
-345.244417715351
 20
-597.63230584939
 42
0.0
  0
VERTEX
  8
Image
 10
-366.791814213123
 20
-596.948388020628
 42
0.0
  0
VERTEX
  8
Image
 10
-367.475628538202
 20
-632.518428840872
 42
0.0
  0
VERTEX
  8
Image
 10
-344.90251055281
 20
-653.381631500063
 42
0.0
  0
VERTEX
  8
Image
 10
-344.90251055281
 20
-671.850690493243
 42
0.0
  0
VERTEX
  8
Image
 10
-326.775220717261
 20
-671.850690493243
 42
0.0
  0
VERTEX
  8
Image
 10
-298.729863069859
 20
-698.52821248312
 42
0.0
  0
VERTEX
  8
Image
 10
-270.684160410184
 20
-698.87011964566
 42
0.0
  0
VERTEX
  8
Image
 10
-270.00000107283
 20
-677.664906320248
 42
0.0
  0
VERTEX
  8
Image
 10
-294.28334489547
 20
-649.619272663027
 42
0.0
  0
SEQEND
  0
POLYLINE
  8
Image
 66
     1
 10
0.0
 20
0.0
 30
0.0
 70
     1
  0
VERTEX
  8
Image
 10
-315.436796108184
 20
-529.324931141572
 42
0.0
  0
VERTEX
  8
Image
 10
-315.830741393242
 20
-529.337436920627
 42
0.0
  0
VERTEX
  8
Image
 10
-317.540967230489
 20
-552.252772579605
 42
0.0
  0
VERTEX
  8
Image
 10
-345.244417715351
 20
-580.64038240182
 42
0.0
  0
VERTEX
  8
Image
 10
-366.791814213123
 20
-581.324300230583
 42
0.0
  0
VERTEX
  8
Image
 10
-367.475628538202
 20
-545.754259410337
 42
0.0
  0
VERTEX
  8
Image
 10
-344.90251055281
 20
-524.891056751147
 42
0.0
  0
VERTEX
  8
Image
 10
-344.90251055281
 20
-506.421997757966
 42
0.0
  0
VERTEX
  8
Image
 10
-326.775220717261
 20
-506.421997757966
 42
0.0
  0
VERTEX
  8
Image
 10
-298.729863069859
 20
-479.74447576809
 42
0.0
  0
VERTEX
  8
Image
 10
-270.684160410184
 20
-479.40256860555
 42
0.0
  0
VERTEX
  8
Image
 10
-270.00000107283
 20
-500.607781930962
 42
0.0
  0
VERTEX
  8
Image
 10
-294.28334489547
 20
-528.653415588182
 42
0.0
  0
SEQEND
  0
POLYLINE
  8
Image
 66
     1
 10
0.0
 20
0.0
 30
0.0
 70
     1
  0
VERTEX
  8
Image
 10
-434.563206291816
 20
-529.324931141573
 42
0.0
  0
VERTEX
  8
Image
 10
-434.169261006758
 20
-529.337436920627
 42
0.0
  0
VERTEX
  8
Image
 10
-432.459035169511
 20
-552.252772579605
 42
0.0
  0
VERTEX
  8
Image
 10
-404.755584684649
 20
-580.640382401821
 42
0.0
  0
VERTEX
  8
Image
 10
-383.208188186878
 20
-581.324300230583
 42
0.0
  0
VERTEX
  8
Image
 10
-382.524373861797
 20
-545.754259410338
 42
0.0
  0
VERTEX
  8
Image
 10
-405.09749184719
 20
-524.891056751148
 42
0.0
  0
VERTEX
  8
Image
 10
-405.09749184719
 20
-506.421997757967
 42
0.0
  0
VERTEX
  8
Image
 10
-423.224781682738
 20
-506.421997757967
 42
0.0
  0
VERTEX
  8
Image
 10
-451.27013933014
 20
-479.744475768091
 42
0.0
  0
VERTEX
  8
Image
 10
-479.315841989815
 20
-479.40256860555
 42
0.0
  0
VERTEX
  8
Image
 10
-480.000001327169
 20
-500.607781930963
 42
0.0
  0
VERTEX
  8
Image
 10
-455.716657504529
 20
-528.653415588183
 42
0.0
  0
SEQEND
  0
POLYLINE
  8
Image
 66
     1
 10
0.0
 20
0.0
 30
0.0
 70
     1
  0
VERTEX
  8
Image
 10
-434.563206291816
 20
-414.311396474929
 42
0.0
  0
VERTEX
  8
Image
 10
-434.169261006758
 20
-414.298890695874
 42
0.0
  0
VERTEX
  8
Image
 10
-432.459035169511
 20
-391.383555036896
 42
0.0
  0
VERTEX
  8
Image
 10
-404.755584684649
 20
-362.995945214681
 42
0.0
  0
VERTEX
  8
Image
 10
-383.208188186878
 20
-362.312027385919
 42
0.0
  0
VERTEX
  8
Image
 10
-382.524373861797
 20
-397.882068206163
 42
0.0
  0
VERTEX
  8
Image
 10
-405.09749184719
 20
-418.745270865354
 42
0.0
  0
VERTEX
  8
Image
 10
-405.09749184719
 20
-437.214329858534
 42
0.0
  0
VERTEX
  8
Image
 10
-423.224781682738
 20
-437.214329858534
 42
0.0
  0
VERTEX
  8
Image
 10
-451.27013933014
 20
-463.891851848411
 42
0.0
  0
VERTEX
  8
Image
 10
-479.315841989815
 20
-464.233759010951
 42
0.0
  0
VERTEX
  8
Image
 10
-480.000001327169
 20
-443.028545685539
 42
0.0
  0
VERTEX
  8
Image
 10
-455.716657504529
 20
-414.982912028319
 42
0.0
  0
SEQEND
  0
POLYLINE
  8
Image
 66
     1
 10
0.0
 20
0.0
 30
0.0
 70
     1
  0
VERTEX
  8
Image
 10
-315.436796108184
 20
-414.311396474929
 42
0.0
  0
VERTEX
  8
Image
 10
-315.830741393242
 20
-414.298890695875
 42
0.0
  0
VERTEX
  8
Image
 10
-317.540967230489
 20
-391.383555036897
 42
0.0
  0
VERTEX
  8
Image
 10
-345.244417715351
 20
-362.995945214681
 42
0.0
  0
VERTEX
  8
Image
 10
-366.791814213123
 20
-362.312027385919
 42
0.0
  0
VERTEX
  8
Image
 10
-367.475628538202
 20
-397.882068206164
 42
0.0
  0
VERTEX
  8
Image
 10
-344.90251055281
 20
-418.745270865355
 42
0.0
  0
VERTEX
  8
Image
 10
-344.90251055281
 20
-437.214329858535
 42
0.0
  0
VERTEX
  8
Image
 10
-326.775220717261
 20
-437.214329858535
 42
0.0
  0
VERTEX
  8
Image
 10
-298.729863069859
 20
-463.891851848412
 42
0.0
  0
VERTEX
  8
Image
 10
-270.684160410184
 20
-464.233759010952
 42
0.0
  0
VERTEX
  8
Image
 10
-270.00000107283
 20
-443.028545685539
 42
0.0
  0
VERTEX
  8
Image
 10
-294.28334489547
 20
-414.982912028319
 42
0.0
  0
SEQEND
  0
POLYLINE
  8
Image
 66
     1
 10
0.0
 20
0.0
 30
0.0
 70
     1
  0
VERTEX
  8
Image
 10
-315.436796108184
 20
-294.688570506863
 42
0.0
  0
VERTEX
  8
Image
 10
-315.830741393242
 20
-294.701076285918
 42
0.0
  0
VERTEX
  8
Image
 10
-317.540967230489
 20
-317.616411944896
 42
0.0
  0
VERTEX
  8
Image
 10
-345.244417715351
 20
-346.004021767112
 42
0.0
  0
VERTEX
  8
Image
 10
-366.791814213123
 20
-346.687939595874
 42
0.0
  0
VERTEX
  8
Image
 10
-367.475628538202
 20
-311.117898775629
 42
0.0
  0
VERTEX
  8
Image
 10
-344.90251055281
 20
-290.254696116438
 42
0.0
  0
VERTEX
  8
Image
 10
-344.90251055281
 20
-271.785637123258
 42
0.0
  0
VERTEX
  8
Image
 10
-326.775220717261
 20
-271.785637123258
 42
0.0
  0
VERTEX
  8
Image
 10
-298.729863069859
 20
-245.108115133381
 42
0.0
  0
VERTEX
  8
Image
 10
-270.684160410184
 20
-244.766207970841
 42
0.0
  0
VERTEX
  8
Image
 10
-270.00000107283
 20
-265.971421296254
 42
0.0
  0
VERTEX
  8
Image
 10
-294.28334489547
 20
-294.017054953474
 42
0.0
  0
SEQEND
  0
POLYLINE
  8
Image
 66
     1
 10
0.0
 20
0.0
 30
0.0
 70
     1
  0
VERTEX
  8
Image
 10
-434.563206291816
 20
-294.688570506864
 42
0.0
  0
VERTEX
  8
Image
 10
-434.169261006758
 20
-294.701076285919
 42
0.0
  0
VERTEX
  8
Image
 10
-432.459035169511
 20
-317.616411944897
 42
0.0
  0
VERTEX
  8
Image
 10
-404.755584684649
 20
-346.004021767112
 42
0.0
  0
VERTEX
  8
Image
 10
-383.208188186878
 20
-346.687939595874
 42
0.0
  0
VERTEX
  8
Image
 10
-382.524373861797
 20
-311.117898775629
 42
0.0
  0
VERTEX
  8
Image
 10
-405.09749184719
 20
-290.254696116439
 42
0.0
  0
VERTEX
  8
Image
 10
-405.09749184719
 20
-271.785637123258
 42
0.0
  0
VERTEX
  8
Image
 10
-423.224781682738
 20
-271.785637123258
 42
0.0
  0
VERTEX
  8
Image
 10
-451.27013933014
 20
-245.108115133382
 42
0.0
  0
VERTEX
  8
Image
 10
-479.315841989815
 20
-244.766207970842
 42
0.0
  0
VERTEX
  8
Image
 10
-480.000001327169
 20
-265.971421296254
 42
0.0
  0
VERTEX
  8
Image
 10
-455.716657504529
 20
-294.017054953474
 42
0.0
  0
SEQEND
  0
POLYLINE
  8
Image
 66
     1
 10
0.0
 20
0.0
 30
0.0
 70
     1
  0
VERTEX
  8
Image
 10
-434.563206291816
 20
-179.675035840221
 42
0.0
  0
VERTEX
  8
Image
 10
-434.169261006758
 20
-179.662530061166
 42
0.0
  0
VERTEX
  8
Image
 10
-432.459035169511
 20
-156.747194402188
 42
0.0
  0
VERTEX
  8
Image
 10
-404.755584684649
 20
-128.359584579972
 42
0.0
  0
VERTEX
  8
Image
 10
-383.208188186878
 20
-127.67566675121
 42
0.0
  0
VERTEX
  8
Image
 10
-382.524373861797
 20
-163.245707571455
 42
0.0
  0
VERTEX
  8
Image
 10
-405.09749184719
 20
-184.108910230646
 42
0.0
  0
VERTEX
  8
Image
 10
-405.09749184719
 20
-202.577969223826
 42
0.0
  0
VERTEX
  8
Image
 10
-423.224781682738
 20
-202.577969223826
 42
0.0
  0
VERTEX
  8
Image
 10
-451.27013933014
 20
-229.255491213702
 42
0.0
  0
VERTEX
  8
Image
 10
-479.315841989815
 20
-229.597398376243
 42
0.0
  0
VERTEX
  8
Image
 10
-480.000001327169
 20
-208.39218505083
 42
0.0
  0
VERTEX
  8
Image
 10
-455.716657504529
 20
-180.34655139361
 42
0.0
  0
SEQEND
  0
POLYLINE
  8
Image
 66
     1
 10
0.0
 20
0.0
 30
0.0
 70
     1
  0
VERTEX
  8
Image
 10
-315.436796108184
 20
-179.675035840221
 42
0.0
  0
VERTEX
  8
Image
 10
-315.830741393242
 20
-179.662530061166
 42
0.0
  0
VERTEX
  8
Image
 10
-317.540967230489
 20
-156.747194402188
 42
0.0
  0
VERTEX
  8
Image
 10
-345.244417715351
 20
-128.359584579973
 42
0.0
  0
VERTEX
  8
Image
 10
-366.791814213123
 20
-127.67566675121
 42
0.0
  0
VERTEX
  8
Image
 10
-367.475628538202
 20
-163.245707571455
 42
0.0
  0
VERTEX
  8
Image
 10
-344.90251055281
 20
-184.108910230646
 42
0.0
  0
VERTEX
  8
Image
 10
-344.90251055281
 20
-202.577969223826
 42
0.0
  0
VERTEX
  8
Image
 10
-326.775220717261
 20
-202.577969223826
 42
0.0
  0
VERTEX
  8
Image
 10
-298.729863069859
 20
-229.255491213703
 42
0.0
  0
VERTEX
  8
Image
 10
-270.684160410184
 20
-229.597398376243
 42
0.0
  0
VERTEX
  8
Image
 10
-270.00000107283
 20
-208.392185050831
 42
0.0
  0
VERTEX
  8
Image
 10
-294.28334489547
 20
-180.346551393611
 42
0.0
  0
SEQEND
  0
POLYLINE
  8
Image
 66
     1
 10
0.0
 20
0.0
 30
0.0
 70
     1
  0
VERTEX
  8
Image
 10
-315.436796108184
 20
-60.0522098721549
 42
0.0
  0
VERTEX
  8
Image
 10
-315.830741393242
 20
-60.0647156512096
 42
0.0
  0
VERTEX
  8
Image
 10
-317.540967230489
 20
-82.9800513101877
 42
0.0
  0
VERTEX
  8
Image
 10
-345.244417715351
 20
-111.367661132403
 42
0.0
  0
VERTEX
  8
Image
 10
-366.791814213123
 20
-112.051578961165
 42
0.0
  0
VERTEX
  8
Image
 10
-367.475628538202
 20
-76.4815381409203
 42
0.0
  0
VERTEX
  8
Image
 10
-344.90251055281
 20
-55.6183354817299
 42
0.0
  0
VERTEX
  8
Image
 10
-344.90251055281
 20
-37.1492764885493
 42
0.0
  0
VERTEX
  8
Image
 10
-326.775220717261
 20
-37.1492764885493
 42
0.0
  0
VERTEX
  8
Image
 10
-298.729863069859
 20
-10.4717544986729
 42
0.0
  0
VERTEX
  8
Image
 10
-270.684160410184
 20
-10.1298473361326
 42
0.0
  0
VERTEX
  8
Image
 10
-270.00000107283
 20
-31.335060661545
 42
0.0
  0
VERTEX
  8
Image
 10
-294.28334489547
 20
-59.3806943187651
 42
0.0
  0
SEQEND
  0
POLYLINE
  8
Image
 66
     1
 10
0.0
 20
0.0
 30
0.0
 70
     1
  0
VERTEX
  8
Image
 10
-434.563206291816
 20
-60.0522098721553
 42
0.0
  0
VERTEX
  8
Image
 10
-434.169261006758
 20
-60.06471565121
 42
0.0
  0
VERTEX
  8
Image
 10
-432.459035169511
 20
-82.9800513101882
 42
0.0
  0
VERTEX
  8
Image
 10
-404.755584684649
 20
-111.367661132404
 42
0.0
  0
VERTEX
  8
Image
 10
-383.208188186878
 20
-112.051578961166
 42
0.0
  0
VERTEX
  8
Image
 10
-382.524373861797
 20
-76.4815381409207
 42
0.0
  0
VERTEX
  8
Image
 10
-405.09749184719
 20
-55.6183354817304
 42
0.0
  0
VERTEX
  8
Image
 10
-405.09749184719
 20
-37.1492764885497
 42
0.0
  0
VERTEX
  8
Image
 10
-423.224781682738
 20
-37.1492764885497
 42
0.0
  0
VERTEX
  8
Image
 10
-451.27013933014
 20
-10.4717544986734
 42
0.0
  0
VERTEX
  8
Image
 10
-479.315841989815
 20
-10.129847336133
 42
0.0
  0
VERTEX
  8
Image
 10
-480.000001327169
 20
-31.3350606615454
 42
0.0
  0
VERTEX
  8
Image
 10
-455.716657504529
 20
-59.3806943187656
 42
0.0
  0
SEQEND
  0
POLYLINE
  8
Image
 66
     1
 10
0.0
 20
0.0
 30
0.0
 70
     1
  0
VERTEX
  8
Image
 10
-434.563206291816
 20
54.9613247944881
 42
0.0
  0
VERTEX
  8
Image
 10
-434.169261006758
 20
54.9738305735427
 42
0.0
  0
VERTEX
  8
Image
 10
-432.459035169511
 20
77.8891662325209
 42
0.0
  0
VERTEX
  8
Image
 10
-404.755584684649
 20
106.276776054736
 42
0.0
  0
VERTEX
  8
Image
 10
-383.208188186878
 20
106.960693883499
 42
0.0
  0
VERTEX
  8
Image
 10
-382.524373861797
 20
71.3906530632535
 42
0.0
  0
VERTEX
  8
Image
 10
-405.09749184719
 20
50.5274504040631
 42
0.0
  0
VERTEX
  8
Image
 10
-405.09749184719
 20
32.0583914108825
 42
0.0
  0
VERTEX
  8
Image
 10
-423.224781682738
 20
32.0583914108825
 42
0.0
  0
VERTEX
  8
Image
 10
-451.27013933014
 20
5.3808694210061
 42
0.0
  0
VERTEX
  8
Image
 10
-479.315841989815
 20
5.0389622584657
 42
0.0
  0
VERTEX
  8
Image
 10
-480.000001327169
 20
26.2441755838781
 42
0.0
  0
VERTEX
  8
Image
 10
-455.716657504529
 20
54.2898092410983
 42
0.0
  0
SEQEND
  0
POLYLINE
  8
Image
 66
     1
 10
0.0
 20
0.0
 30
0.0
 70
     1
  0
VERTEX
  8
Image
 10
-315.436796108184
 20
174.584150762553
 42
0.0
  0
VERTEX
  8
Image
 10
-315.830741393242
 20
174.571644983499
 42
0.0
  0
VERTEX
  8
Image
 10
-317.540967230489
 20
151.656309324521
 42
0.0
  0
VERTEX
  8
Image
 10
-345.244417715351
 20
123.268699502305
 42
0.0
  0
VERTEX
  8
Image
 10
-366.791814213123
 20
122.584781673543
 42
0.0
  0
VERTEX
  8
Image
 10
-367.475628538202
 20
158.154822493788
 42
0.0
  0
VERTEX
  8
Image
 10
-344.90251055281
 20
179.018025152979
 42
0.0
  0
VERTEX
  8
Image
 10
-344.90251055281
 20
197.487084146159
 42
0.0
  0
VERTEX
  8
Image
 10
-326.775220717261
 20
197.487084146159
 42
0.0
  0
VERTEX
  8
Image
 10
-298.729863069859
 20
224.164606136036
 42
0.0
  0
VERTEX
  8
Image
 10
-270.684160410184
 20
224.506513298576
 42
0.0
  0
VERTEX
  8
Image
 10
-270.00000107283
 20
203.301299973164
 42
0.0
  0
VERTEX
  8
Image
 10
-294.28334489547
 20
175.255666315943
 42
0.0
  0
SEQEND
  0
POLYLINE
  8
Image
 66
     1
 10
0.0
 20
0.0
 30
0.0
 70
     1
  0
VERTEX
  8
Image
 10
-434.563206291816
 20
174.584150762553
 42
0.0
  0
VERTEX
  8
Image
 10
-434.169261006758
 20
174.571644983499
 42
0.0
  0
VERTEX
  8
Image
 10
-432.459035169511
 20
151.65630932452
 42
0.0
  0
VERTEX
  8
Image
 10
-404.755584684649
 20
123.268699502305
 42
0.0
  0
VERTEX
  8
Image
 10
-383.208188186878
 20
122.584781673543
 42
0.0
  0
VERTEX
  8
Image
 10
-382.524373861797
 20
158.154822493788
 42
0.0
  0
VERTEX
  8
Image
 10
-405.09749184719
 20
179.018025152978
 42
0.0
  0
VERTEX
  8
Image
 10
-405.09749184719
 20
197.487084146159
 42
0.0
  0
VERTEX
  8
Image
 10
-423.224781682738
 20
197.487084146159
 42
0.0
  0
VERTEX
  8
Image
 10
-451.27013933014
 20
224.164606136035
 42
0.0
  0
VERTEX
  8
Image
 10
-479.315841989815
 20
224.506513298576
 42
0.0
  0
VERTEX
  8
Image
 10
-480.000001327169
 20
203.301299973163
 42
0.0
  0
VERTEX
  8
Image
 10
-455.716657504529
 20
175.255666315943
 42
0.0
  0
SEQEND
  0
POLYLINE
  8
Image
 66
     1
 10
0.0
 20
0.0
 30
0.0
 70
     1
  0
VERTEX
  8
Image
 10
-434.563206291816
 20
289.597685429197
 42
0.0
  0
VERTEX
  8
Image
 10
-434.169261006758
 20
289.610191208251
 42
0.0
  0
VERTEX
  8
Image
 10
-432.459035169511
 20
312.525526867229
 42
0.0
  0
VERTEX
  8
Image
 10
-404.755584684649
 20
340.913136689445
 42
0.0
  0
VERTEX
  8
Image
 10
-383.208188186878
 20
341.597054518207
 42
0.0
  0
VERTEX
  8
Image
 10
-382.524373861797
 20
306.027013697962
 42
0.0
  0
VERTEX
  8
Image
 10
-405.09749184719
 20
285.163811038772
 42
0.0
  0
VERTEX
  8
Image
 10
-405.09749184719
 20
266.694752045591
 42
0.0
  0
VERTEX
  8
Image
 10
-423.224781682738
 20
266.694752045591
 42
0.0
  0
VERTEX
  8
Image
 10
-451.27013933014
 20
240.017230055715
 42
0.0
  0
VERTEX
  8
Image
 10
-479.315841989815
 20
239.675322893174
 42
0.0
  0
VERTEX
  8
Image
 10
-480.000001327169
 20
260.880536218587
 42
0.0
  0
VERTEX
  8
Image
 10
-455.716657504529
 20
288.926169875807
 42
0.0
  0
SEQEND
  0
POLYLINE
  8
Image
 66
     1
 10
0.0
 20
0.0
 30
0.0
 70
     1
  0
VERTEX
  8
Image
 10
-315.436796108184
 20
289.597685429196
 42
0.0
  0
VERTEX
  8
Image
 10
-315.830741393242
 20
289.610191208251
 42
0.0
  0
VERTEX
  8
Image
 10
-317.540967230489
 20
312.525526867229
 42
0.0
  0
VERTEX
  8
Image
 10
-345.244417715351
 20
340.913136689444
 42
0.0
  0
VERTEX
  8
Image
 10
-366.791814213123
 20
341.597054518207
 42
0.0
  0
VERTEX
  8
Image
 10
-367.475628538202
 20
306.027013697962
 42
0.0
  0
VERTEX
  8
Image
 10
-344.90251055281
 20
285.163811038771
 42
0.0
  0
VERTEX
  8
Image
 10
-344.90251055281
 20
266.694752045591
 42
0.0
  0
VERTEX
  8
Image
 10
-326.775220717261
 20
266.694752045591
 42
0.0
  0
VERTEX
  8
Image
 10
-298.729863069859
 20
240.017230055714
 42
0.0
  0
VERTEX
  8
Image
 10
-270.684160410184
 20
239.675322893174
 42
0.0
  0
VERTEX
  8
Image
 10
-270.00000107283
 20
260.880536218586
 42
0.0
  0
VERTEX
  8
Image
 10
-294.28334489547
 20
288.926169875806
 42
0.0
  0
SEQEND
  0
POLYLINE
  8
Image
 66
     1
 10
0.0
 20
0.0
 30
0.0
 70
     1
  0
VERTEX
  8
Image
 10
-315.436796108184
 20
409.220511397262
 42
0.0
  0
VERTEX
  8
Image
 10
-315.830741393242
 20
409.208005618208
 42
0.0
  0
VERTEX
  8
Image
 10
-317.540967230489
 20
386.292669959229
 42
0.0
  0
VERTEX
  8
Image
 10
-345.244417715351
 20
357.905060137014
 42
0.0
  0
VERTEX
  8
Image
 10
-366.791814213123
 20
357.221142308252
 42
0.0
  0
VERTEX
  8
Image
 10
-367.475628538202
 20
392.791183128496
 42
0.0
  0
VERTEX
  8
Image
 10
-344.90251055281
 20
413.654385787687
 42
0.0
  0
VERTEX
  8
Image
 10
-344.90251055281
 20
432.123444780867
 42
0.0
  0
VERTEX
  8
Image
 10
-326.775220717261
 20
432.123444780867
 42
0.0
  0
VERTEX
  8
Image
 10
-298.729863069859
 20
458.800966770744
 42
0.0
  0
VERTEX
  8
Image
 10
-270.684160410184
 20
459.142873933285
 42
0.0
  0
VERTEX
  8
Image
 10
-270.00000107283
 20
437.937660607872
 42
0.0
  0
VERTEX
  8
Image
 10
-294.28334489547
 20
409.892026950652
 42
0.0
  0
SEQEND
  0
POLYLINE
  8
Image
 66
     1
 10
0.0
 20
0.0
 30
0.0
 70
     1
  0
VERTEX
  8
Image
 10
-434.563206291816
 20
409.220511397261
 42
0.0
  0
VERTEX
  8
Image
 10
-434.169261006758
 20
409.208005618207
 42
0.0
  0
VERTEX
  8
Image
 10
-432.459035169511
 20
386.292669959229
 42
0.0
  0
VERTEX
  8
Image
 10
-404.755584684649
 20
357.905060137014
 42
0.0
  0
VERTEX
  8
Image
 10
-383.208188186878
 20
357.221142308251
 42
0.0
  0
VERTEX
  8
Image
 10
-382.524373861797
 20
392.791183128496
 42
0.0
  0
VERTEX
  8
Image
 10
-405.09749184719
 20
413.654385787687
 42
0.0
  0
VERTEX
  8
Image
 10
-405.09749184719
 20
432.123444780867
 42
0.0
  0
VERTEX
  8
Image
 10
-423.224781682738
 20
432.123444780867
 42
0.0
  0
VERTEX
  8
Image
 10
-451.27013933014
 20
458.800966770744
 42
0.0
  0
VERTEX
  8
Image
 10
-479.315841989815
 20
459.142873933284
 42
0.0
  0
VERTEX
  8
Image
 10
-480.000001327169
 20
437.937660607872
 42
0.0
  0
VERTEX
  8
Image
 10
-455.716657504529
 20
409.892026950652
 42
0.0
  0
SEQEND
  0
POLYLINE
  8
Image
 66
     1
 10
0.0
 20
0.0
 30
0.0
 70
     1
  0
VERTEX
  8
Image
 10
-434.563206291816
 20
524.234046063905
 42
0.0
  0
VERTEX
  8
Image
 10
-434.169261006758
 20
524.24655184296
 42
0.0
  0
VERTEX
  8
Image
 10
-432.459035169511
 20
547.161887501938
 42
0.0
  0
VERTEX
  8
Image
 10
-404.755584684649
 20
575.549497324153
 42
0.0
  0
VERTEX
  8
Image
 10
-383.208188186878
 20
576.233415152916
 42
0.0
  0
VERTEX
  8
Image
 10
-382.524373861797
 20
540.663374332671
 42
0.0
  0
VERTEX
  8
Image
 10
-405.09749184719
 20
519.80017167348
 42
0.0
  0
VERTEX
  8
Image
 10
-405.09749184719
 20
501.3311126803
 42
0.0
  0
VERTEX
  8
Image
 10
-423.224781682738
 20
501.3311126803
 42
0.0
  0
VERTEX
  8
Image
 10
-451.27013933014
 20
474.653590690423
 42
0.0
  0
VERTEX
  8
Image
 10
-479.315841989815
 20
474.311683527883
 42
0.0
  0
VERTEX
  8
Image
 10
-480.000001327169
 20
495.516896853295
 42
0.0
  0
VERTEX
  8
Image
 10
-455.716657504529
 20
523.562530510515
 42
0.0
  0
SEQEND
  0
POLYLINE
  8
Image
 66
     1
 10
0.0
 20
0.0
 30
0.0
 70
     1
  0
VERTEX
  8
Image
 10
-315.436796108184
 20
643.85687203197
 42
0.0
  0
VERTEX
  8
Image
 10
-315.830741393242
 20
643.844366252916
 42
0.0
  0
VERTEX
  8
Image
 10
-317.540967230489
 20
620.929030593938
 42
0.0
  0
VERTEX
  8
Image
 10
-345.244417715351
 20
592.541420771723
 42
0.0
  0
VERTEX
  8
Image
 10
-366.791814213123
 20
591.85750294296
 42
0.0
  0
VERTEX
  8
Image
 10
-367.475628538202
 20
627.427543763205
 42
0.0
  0
VERTEX
  8
Image
 10
-344.90251055281
 20
648.290746422395
 42
0.0
  0
VERTEX
  8
Image
 10
-344.90251055281
 20
666.759805415576
 42
0.0
  0
VERTEX
  8
Image
 10
-326.775220717261
 20
666.759805415576
 42
0.0
  0
VERTEX
  8
Image
 10
-298.729863069859
 20
693.437327405453
 42
0.0
  0
VERTEX
  8
Image
 10
-270.684160410184
 20
693.779234567993
 42
0.0
  0
VERTEX
  8
Image
 10
-270.00000107283
 20
672.57402124258
 42
0.0
  0
VERTEX
  8
Image
 10
-294.28334489547
 20
644.52838758536
 42
0.0
  0
SEQEND
  0
POLYLINE
  8
Image
 66
     1
 10
0.0
 20
0.0
 30
0.0
 70
     1
  0
VERTEX
  8
Image
 10
-434.563206291816
 20
643.85687203197
 42
0.0
  0
VERTEX
  8
Image
 10
-434.169261006758
 20
643.844366252916
 42
0.0
  0
VERTEX
  8
Image
 10
-432.459035169511
 20
620.929030593938
 42
0.0
  0
VERTEX
  8
Image
 10
-404.755584684649
 20
592.541420771722
 42
0.0
  0
VERTEX
  8
Image
 10
-383.208188186878
 20
591.85750294296
 42
0.0
  0
VERTEX
  8
Image
 10
-382.524373861797
 20
627.427543763205
 42
0.0
  0
VERTEX
  8
Image
 10
-405.09749184719
 20
648.290746422395
 42
0.0
  0
VERTEX
  8
Image
 10
-405.09749184719
 20
666.759805415576
 42
0.0
  0
VERTEX
  8
Image
 10
-423.224781682738
 20
666.759805415576
 42
0.0
  0
VERTEX
  8
Image
 10
-451.27013933014
 20
693.437327405452
 42
0.0
  0
VERTEX
  8
Image
 10
-479.315841989815
 20
693.779234567993
 42
0.0
  0
VERTEX
  8
Image
 10
-480.000001327169
 20
672.57402124258
 42
0.0
  0
VERTEX
  8
Image
 10
-455.716657504529
 20
644.52838758536
 42
0.0
  0
SEQEND
  0
POLYLINE
  8
Image
 66
     1
 10
0.0
 20
0.0
 30
0.0
 70
     1
  0
VERTEX
  8
Image
 10
-434.563206291816
 20
758.870406698614
 42
0.0
  0
VERTEX
  8
Image
 10
-434.169261006758
 20
758.882912477668
 42
0.0
  0
VERTEX
  8
Image
 10
-432.459035169511
 20
781.798248136647
 42
0.0
  0
VERTEX
  8
Image
 10
-404.755584684649
 20
810.185857958862
 42
0.0
  0
VERTEX
  8
Image
 10
-383.208188186878
 20
810.869775787624
 42
0.0
  0
VERTEX
  8
Image
 10
-382.524373861797
 20
775.299734967379
 42
0.0
  0
VERTEX
  8
Image
 10
-405.09749184719
 20
754.436532308189
 42
0.0
  0
VERTEX
  8
Image
 10
-405.09749184719
 20
735.967473315008
 42
0.0
  0
VERTEX
  8
Image
 10
-423.224781682738
 20
735.967473315008
 42
0.0
  0
VERTEX
  8
Image
 10
-451.27013933014
 20
709.289951325132
 42
0.0
  0
VERTEX
  8
Image
 10
-479.315841989815
 20
708.948044162591
 42
0.0
  0
VERTEX
  8
Image
 10
-480.000001327169
 20
730.153257488004
 42
0.0
  0
VERTEX
  8
Image
 10
-455.716657504529
 20
758.198891145224
 42
0.0
  0
SEQEND
  0
POLYLINE
  8
Image
 66
     1
 10
0.0
 20
0.0
 30
0.0
 70
     1
  0
VERTEX
  8
Image
 10
-315.436796108184
 20
878.493232666679
 42
0.0
  0
VERTEX
  8
Image
 10
-315.830741393242
 20
878.480726887624
 42
0.0
  0
VERTEX
  8
Image
 10
-317.540967230489
 20
855.565391228647
 42
0.0
  0
VERTEX
  8
Image
 10
-345.244417715351
 20
827.177781406431
 42
0.0
  0
VERTEX
  8
Image
 10
-366.791814213123
 20
826.493863577669
 42
0.0
  0
VERTEX
  8
Image
 10
-367.475628538202
 20
862.063904397913
 42
0.0
  0
VERTEX
  8
Image
 10
-344.90251055281
 20
882.927107057104
 42
0.0
  0
VERTEX
  8
Image
 10
-344.90251055281
 20
901.396166050285
 42
0.0
  0
VERTEX
  8
Image
 10
-326.775220717261
 20
901.396166050285
 42
0.0
  0
VERTEX
  8
Image
 10
-298.729863069859
 20
928.073688040161
 42
0.0
  0
VERTEX
  8
Image
 10
-270.684160410184
 20
928.415595202701
 42
0.0
  0
VERTEX
  8
Image
 10
-270.00000107283
 20
907.210381877288
 42
0.0
  0
VERTEX
  8
Image
 10
-294.28334489547
 20
879.164748220069
 42
0.0
  0
SEQEND
  0
POLYLINE
  8
Image
 66
     1
 10
0.0
 20
0.0
 30
0.0
 70
     1
  0
VERTEX
  8
Image
 10
-434.563206291816
 20
878.493232666678
 42
0.0
  0
VERTEX
  8
Image
 10
-434.169261006758
 20
878.480726887624
 42
0.0
  0
VERTEX
  8
Image
 10
-432.459035169511
 20
855.565391228646
 42
0.0
  0
VERTEX
  8
Image
 10
-404.755584684649
 20
827.177781406431
 42
0.0
  0
VERTEX
  8
Image
 10
-383.208188186878
 20
826.493863577668
 42
0.0
  0
VERTEX
  8
Image
 10
-382.524373861797
 20
862.063904397913
 42
0.0
  0
VERTEX
  8
Image
 10
-405.09749184719
 20
882.927107057104
 42
0.0
  0
VERTEX
  8
Image
 10
-405.09749184719
 20
901.396166050285
 42
0.0
  0
VERTEX
  8
Image
 10
-423.224781682738
 20
901.396166050285
 42
0.0
  0
VERTEX
  8
Image
 10
-451.27013933014
 20
928.073688040161
 42
0.0
  0
VERTEX
  8
Image
 10
-479.315841989815
 20
928.415595202701
 42
0.0
  0
VERTEX
  8
Image
 10
-480.000001327169
 20
907.210381877288
 42
0.0
  0
VERTEX
  8
Image
 10
-455.716657504529
 20
879.164748220068
 42
0.0
  0
SEQEND
  0
POLYLINE
  8
Image
 66
     1
 10
0.0
 20
0.0
 30
0.0
 70
     1
  0
VERTEX
  8
Image
 10
-405.09749184719
 20
980.000003575
 42
0.0
  0
VERTEX
  8
Image
 10
-405.09749184719
 20
970.603833949716
 42
0.0
  0
VERTEX
  8
Image
 10
-423.224781682738
 20
970.603833949716
 42
0.0
  0
VERTEX
  8
Image
 10
-451.27013933014
 20
943.92631195984
 42
0.0
  0
VERTEX
  8
Image
 10
-479.315841989815
 20
943.5844047973
 42
0.0
  0
VERTEX
  8
Image
 10
-480.000001327169
 20
964.789618122712
 42
0.0
  0
VERTEX
  8
Image
 10
-466.83007177139
 20
980.000003575
 42
0.0
  0
SEQEND
  0
POLYLINE
  8
Image
 66
     1
 10
0.0
 20
0.0
 30
0.0
 70
     1
  0
VERTEX
  8
Image
 10
-283.16993062861
 20
980.000003575
 42
0.0
  0
VERTEX
  8
Image
 10
-344.90251055281
 20
980.000003575
 42
0.0
  0
VERTEX
  8
Image
 10
-344.90251055281
 20
970.603833949716
 42
0.0
  0
VERTEX
  8
Image
 10
-326.775220717261
 20
970.603833949716
 42
0.0
  0
VERTEX
  8
Image
 10
-298.729863069859
 20
943.92631195984
 42
0.0
  0
VERTEX
  8
Image
 10
-270.684160410184
 20
943.5844047973
 42
0.0
  0
VERTEX
  8
Image
 10
-270.00000107283
 20
964.789618122712
 42
0.0
  0
SEQEND
  0
POLYLINE
  8
Image
 66
     1
 10
0.0
 20
0.0
 30
0.0
 70
     1
  0
VERTEX
  8
Image
 10
-405.09749184719
 20
-980.000003574999
 42
0.0
  0
VERTEX
  8
Image
 10
-405.09749184719
 20
-975.694719027384
 42
0.0
  0
VERTEX
  8
Image
 10
-423.224781682738
 20
-975.694719027384
 42
0.0
  0
VERTEX
  8
Image
 10
-451.27013933014
 20
-949.017197037507
 42
0.0
  0
VERTEX
  8
Image
 10
-479.315841989815
 20
-948.675289874967
 42
0.0
  0
VERTEX
  8
Image
 10
-480.000001327169
 20
-969.88050320038
 42
0.0
  0
VERTEX
  8
Image
 10
-471.238020410151
 20
-980.000003575
 42
0.0
  0
SEQEND
  0
POLYLINE
  8
Image
 66
     1
 10
0.0
 20
0.0
 30
0.0
 70
     1
  0
VERTEX
  8
Image
 10
-278.761981989849
 20
-980.000003575
 42
0.0
  0
VERTEX
  8
Image
 10
-344.902510552811
 20
-980.000003574999
 42
0.0
  0
VERTEX
  8
Image
 10
-344.90251055281
 20
-975.694719027384
 42
0.0
  0
VERTEX
  8
Image
 10
-326.775220717261
 20
-975.694719027384
 42
0.0
  0
VERTEX
  8
Image
 10
-298.729863069859
 20
-949.017197037507
 42
0.0
  0
VERTEX
  8
Image
 10
-270.684160410184
 20
-948.675289874967
 42
0.0
  0
VERTEX
  8
Image
 10
-270.00000107283
 20
-969.880503200379
 42
0.0
  0
SEQEND
  0
POLYLINE
  8
Image
 66
     1
 10
0.0
 20
0.0
 30
0.0
 70
     1
  0
VERTEX
  8
Image
 10
-315.436796108184
 20
758.870406698613
 42
0.0
  0
VERTEX
  8
Image
 10
-315.830741393242
 20
758.882912477668
 42
0.0
  0
VERTEX
  8
Image
 10
-317.540967230489
 20
781.798248136646
 42
0.0
  0
VERTEX
  8
Image
 10
-345.244417715351
 20
810.185857958862
 42
0.0
  0
VERTEX
  8
Image
 10
-366.791814213123
 20
810.869775787624
 42
0.0
  0
VERTEX
  8
Image
 10
-367.475628538202
 20
775.299734967379
 42
0.0
  0
VERTEX
  8
Image
 10
-344.90251055281
 20
754.436532308188
 42
0.0
  0
VERTEX
  8
Image
 10
-344.90251055281
 20
735.967473315008
 42
0.0
  0
VERTEX
  8
Image
 10
-326.775220717261
 20
735.967473315008
 42
0.0
  0
VERTEX
  8
Image
 10
-298.729863069859
 20
709.289951325131
 42
0.0
  0
VERTEX
  8
Image
 10
-270.684160410184
 20
708.948044162591
 42
0.0
  0
VERTEX
  8
Image
 10
-270.00000107283
 20
730.153257488003
 42
0.0
  0
VERTEX
  8
Image
 10
-294.28334489547
 20
758.198891145224
 42
0.0
  0
SEQEND
  0
POLYLINE
  8
Image
 66
     1
 10
0.0
 20
0.0
 30
0.0
 70
     1
  0
VERTEX
  8
Image
 10
-270.00000107283
 20
773.723140115929
 42
0.0
  0
VERTEX
  8
Image
 10
-270.00000107283
 20
810.935080518474
 42
0.0
  0
VERTEX
  8
Image
 10
-283.315841989815
 20
811.097414885347
 42
0.0
  0
VERTEX
  8
Image
 10
-284.000001327169
 20
789.892201559934
 42
0.0
  0
SEQEND
  0
POLYLINE
  8
Image
 66
     1
 10
0.0
 20
0.0
 30
0.0
 70
     1
  0
VERTEX
  8
Image
 10
-270.00000107283
 20
826.428558846818
 42
0.0
  0
VERTEX
  8
Image
 10
-283.315841989815
 20
826.266224479945
 42
0.0
  0
VERTEX
  8
Image
 10
-284.000001327169
 20
847.471437805358
 42
0.0
  0
VERTEX
  8
Image
 10
-270.00000107283
 20
863.640499249363
 42
0.0
  0
SEQEND
  0
POLYLINE
  8
Image
 66
     1
 10
0.0
 20
0.0
 30
0.0
 70
     1
  0
VERTEX
  8
Image
 10
-270.00000107283
 20
539.086779481221
 42
0.0
  0
VERTEX
  8
Image
 10
-270.00000107283
 20
576.298719883766
 42
0.0
  0
VERTEX
  8
Image
 10
-283.315841989815
 20
576.461054250639
 42
0.0
  0
VERTEX
  8
Image
 10
-284.000001327169
 20
555.255840925226
 42
0.0
  0
SEQEND
  0
POLYLINE
  8
Image
 66
     1
 10
0.0
 20
0.0
 30
0.0
 70
     1
  0
VERTEX
  8
Image
 10
-270.00000107283
 20
591.79219821211
 42
0.0
  0
VERTEX
  8
Image
 10
-283.315841989815
 20
591.629863845237
 42
0.0
  0
VERTEX
  8
Image
 10
-284.000001327169
 20
612.83507717065
 42
0.0
  0
VERTEX
  8
Image
 10
-270.00000107283
 20
629.004138614654
 42
0.0
  0
SEQEND
  0
POLYLINE
  8
Image
 66
     1
 10
0.0
 20
0.0
 30
0.0
 70
     1
  0
VERTEX
  8
Image
 10
-315.436796108184
 20
524.234046063905
 42
0.0
  0
VERTEX
  8
Image
 10
-315.830741393242
 20
524.246551842959
 42
0.0
  0
VERTEX
  8
Image
 10
-317.540967230489
 20
547.161887501938
 42
0.0
  0
VERTEX
  8
Image
 10
-345.244417715351
 20
575.549497324153
 42
0.0
  0
VERTEX
  8
Image
 10
-366.791814213123
 20
576.233415152915
 42
0.0
  0
VERTEX
  8
Image
 10
-367.475628538202
 20
540.66337433267
 42
0.0
  0
VERTEX
  8
Image
 10
-344.90251055281
 20
519.80017167348
 42
0.0
  0
VERTEX
  8
Image
 10
-344.90251055281
 20
501.331112680299
 42
0.0
  0
VERTEX
  8
Image
 10
-326.775220717261
 20
501.331112680299
 42
0.0
  0
VERTEX
  8
Image
 10
-298.729863069859
 20
474.653590690423
 42
0.0
  0
VERTEX
  8
Image
 10
-270.684160410184
 20
474.311683527882
 42
0.0
  0
VERTEX
  8
Image
 10
-270.00000107283
 20
495.516896853295
 42
0.0
  0
VERTEX
  8
Image
 10
-294.28334489547
 20
523.562530510515
 42
0.0
  0
SEQEND
  0
POLYLINE
  8
Image
 66
     1
 10
0.0
 20
0.0
 30
0.0
 70
     1
  0
VERTEX
  8
Image
 10
-270.00000107283
 20
304.450418846513
 42
0.0
  0
VERTEX
  8
Image
 10
-270.00000107283
 20
341.662359249058
 42
0.0
  0
VERTEX
  8
Image
 10
-283.315841989815
 20
341.824693615931
 42
0.0
  0
VERTEX
  8
Image
 10
-284.000001327169
 20
320.619480290517
 42
0.0
  0
SEQEND
  0
POLYLINE
  8
Image
 66
     1
 10
0.0
 20
0.0
 30
0.0
 70
     1
  0
VERTEX
  8
Image
 10
-270.00000107283
 20
357.155837577402
 42
0.0
  0
VERTEX
  8
Image
 10
-283.315841989815
 20
356.993503210529
 42
0.0
  0
VERTEX
  8
Image
 10
-284.000001327169
 20
378.198716535941
 42
0.0
  0
VERTEX
  8
Image
 10
-270.00000107283
 20
394.367777979946
 42
0.0
  0
SEQEND
  0
POLYLINE
  8
Image
 66
     1
 10
0.0
 20
0.0
 30
0.0
 70
     1
  0
VERTEX
  8
Image
 10
-270.00000107283
 20
69.814058211804
 42
0.0
  0
VERTEX
  8
Image
 10
-270.00000107283
 20
107.025998614349
 42
0.0
  0
VERTEX
  8
Image
 10
-283.315841989815
 20
107.188332981222
 42
0.0
  0
VERTEX
  8
Image
 10
-284.000001327169
 20
85.9831196558089
 42
0.0
  0
SEQEND
  0
POLYLINE
  8
Image
 66
     1
 10
0.0
 20
0.0
 30
0.0
 70
     1
  0
VERTEX
  8
Image
 10
-270.00000107283
 20
122.519476942693
 42
0.0
  0
VERTEX
  8
Image
 10
-283.315841989815
 20
122.35714257582
 42
0.0
  0
VERTEX
  8
Image
 10
-284.000001327169
 20
143.562355901233
 42
0.0
  0
VERTEX
  8
Image
 10
-270.00000107283
 20
159.731417345238
 42
0.0
  0
SEQEND
  0
POLYLINE
  8
Image
 66
     1
 10
0.0
 20
0.0
 30
0.0
 70
     1
  0
VERTEX
  8
Image
 10
-315.436796108184
 20
54.9613247944881
 42
0.0
  0
VERTEX
  8
Image
 10
-315.830741393242
 20
54.9738305735427
 42
0.0
  0
VERTEX
  8
Image
 10
-317.540967230489
 20
77.8891662325209
 42
0.0
  0
VERTEX
  8
Image
 10
-345.244417715351
 20
106.276776054736
 42
0.0
  0
VERTEX
  8
Image
 10
-366.791814213123
 20
106.960693883499
 42
0.0
  0
VERTEX
  8
Image
 10
-367.475628538202
 20
71.3906530632535
 42
0.0
  0
VERTEX
  8
Image
 10
-344.90251055281
 20
50.5274504040631
 42
0.0
  0
VERTEX
  8
Image
 10
-344.90251055281
 20
32.0583914108825
 42
0.0
  0
VERTEX
  8
Image
 10
-326.775220717261
 20
32.0583914108825
 42
0.0
  0
VERTEX
  8
Image
 10
-298.729863069859
 20
5.3808694210061
 42
0.0
  0
VERTEX
  8
Image
 10
-270.684160410184
 20
5.0389622584657
 42
0.0
  0
VERTEX
  8
Image
 10
-270.00000107283
 20
26.2441755838781
 42
0.0
  0
VERTEX
  8
Image
 10
-294.28334489547
 20
54.2898092410983
 42
0.0
  0
SEQEND
  0
POLYLINE
  8
Image
 66
     1
 10
0.0
 20
0.0
 30
0.0
 70
     1
  0
VERTEX
  8
Image
 10
-270.00000107283
 20
-164.822302422905
 42
0.0
  0
VERTEX
  8
Image
 10
-270.00000107283
 20
-127.61036202036
 42
0.0
  0
VERTEX
  8
Image
 10
-283.315841989815
 20
-127.448027653487
 42
0.0
  0
VERTEX
  8
Image
 10
-284.000001327169
 20
-148.6532409789
 42
0.0
  0
SEQEND
  0
POLYLINE
  8
Image
 66
     1
 10
0.0
 20
0.0
 30
0.0
 70
     1
  0
VERTEX
  8
Image
 10
-270.00000107283
 20
-112.116883692016
 42
0.0
  0
VERTEX
  8
Image
 10
-283.315841989815
 20
-112.279218058889
 42
0.0
  0
VERTEX
  8
Image
 10
-284.000001327169
 20
-91.0740047334762
 42
0.0
  0
VERTEX
  8
Image
 10
-270.00000107283
 20
-74.9049432894712
 42
0.0
  0
SEQEND
  0
POLYLINE
  8
Image
 66
     1
 10
0.0
 20
0.0
 30
0.0
 70
     1
  0
VERTEX
  8
Image
 10
-270.00000107283
 20
-399.458663057614
 42
0.0
  0
VERTEX
  8
Image
 10
-270.00000107283
 20
-362.246722655069
 42
0.0
  0
VERTEX
  8
Image
 10
-283.315841989815
 20
-362.084388288195
 42
0.0
  0
VERTEX
  8
Image
 10
-284.000001327169
 20
-383.289601613609
 42
0.0
  0
SEQEND
  0
POLYLINE
  8
Image
 66
     1
 10
0.0
 20
0.0
 30
0.0
 70
     1
  0
VERTEX
  8
Image
 10
-270.00000107283
 20
-346.753244326724
 42
0.0
  0
VERTEX
  8
Image
 10
-283.315841989815
 20
-346.915578693598
 42
0.0
  0
VERTEX
  8
Image
 10
-284.000001327169
 20
-325.710365368185
 42
0.0
  0
VERTEX
  8
Image
 10
-270.00000107283
 20
-309.54130392418
 42
0.0
  0
SEQEND
  0
POLYLINE
  8
Image
 66
     1
 10
0.0
 20
0.0
 30
0.0
 70
     1
  0
VERTEX
  8
Image
 10
-270.00000107283
 20
-634.095023692322
 42
0.0
  0
VERTEX
  8
Image
 10
-270.00000107283
 20
-596.883083289777
 42
0.0
  0
VERTEX
  8
Image
 10
-283.315841989815
 20
-596.720748922904
 42
0.0
  0
VERTEX
  8
Image
 10
-284.000001327169
 20
-617.925962248317
 42
0.0
  0
SEQEND
  0
POLYLINE
  8
Image
 66
     1
 10
0.0
 20
0.0
 30
0.0
 70
     1
  0
VERTEX
  8
Image
 10
-270.00000107283
 20
-581.389604961433
 42
0.0
  0
VERTEX
  8
Image
 10
-283.315841989815
 20
-581.551939328306
 42
0.0
  0
VERTEX
  8
Image
 10
-284.000001327169
 20
-560.346726002893
 42
0.0
  0
VERTEX
  8
Image
 10
-270.00000107283
 20
-544.177664558888
 42
0.0
  0
SEQEND
  0
POLYLINE
  8
Image
 66
     1
 10
0.0
 20
0.0
 30
0.0
 70
     1
  0
VERTEX
  8
Image
 10
-270.00000107283
 20
-868.73138432703
 42
0.0
  0
VERTEX
  8
Image
 10
-270.00000107283
 20
-831.519443924485
 42
0.0
  0
VERTEX
  8
Image
 10
-283.315841989815
 20
-831.357109557612
 42
0.0
  0
VERTEX
  8
Image
 10
-284.000001327169
 20
-852.562322883025
 42
0.0
  0
SEQEND
  0
POLYLINE
  8
Image
 66
     1
 10
0.0
 20
0.0
 30
0.0
 70
     1
  0
VERTEX
  8
Image
 10
-270.00000107283
 20
-816.025965596141
 42
0.0
  0
VERTEX
  8
Image
 10
-283.315841989815
 20
-816.188299963014
 42
0.0
  0
VERTEX
  8
Image
 10
-284.000001327169
 20
-794.983086637601
 42
0.0
  0
VERTEX
  8
Image
 10
-270.00000107283
 20
-778.814025193597
 42
0.0
  0
SEQEND
  0
POLYLINE
  8
Image
 66
     1
 10
0.0
 20
0.0
 30
0.0
 70
     1
  0
VERTEX
  8
Image
 10
-315.436796108184
 20
-883.584117744346
 42
0.0
  0
VERTEX
  8
Image
 10
-315.830741393242
 20
-883.571611965292
 42
0.0
  0
VERTEX
  8
Image
 10
-317.540967230489
 20
-860.656276306313
 42
0.0
  0
VERTEX
  8
Image
 10
-345.244417715351
 20
-832.268666484098
 42
0.0
  0
VERTEX
  8
Image
 10
-366.791814213123
 20
-831.584748655336
 42
0.0
  0
VERTEX
  8
Image
 10
-367.475628538202
 20
-867.154789475581
 42
0.0
  0
VERTEX
  8
Image
 10
-344.90251055281
 20
-888.017992134771
 42
0.0
  0
VERTEX
  8
Image
 10
-344.90251055281
 20
-906.487051127952
 42
0.0
  0
VERTEX
  8
Image
 10
-326.775220717261
 20
-906.487051127952
 42
0.0
  0
VERTEX
  8
Image
 10
-298.729863069859
 20
-933.164573117828
 42
0.0
  0
VERTEX
  8
Image
 10
-270.684160410184
 20
-933.506480280369
 42
0.0
  0
VERTEX
  8
Image
 10
-270.00000107283
 20
-912.301266954956
 42
0.0
  0
VERTEX
  8
Image
 10
-294.28334489547
 20
-884.255633297736
 42
0.0
  0
SEQEND
  0
POLYLINE
  8
Image
 66
     1
 10
0.0
 20
0.0
 30
0.0
 70
     1
  0
VERTEX
  8
Image
 10
-480.56668871811
 20
773.723140115929
 42
0.0
  0
VERTEX
  8
Image
 10
-480.56668871811
 20
810.935080518474
 42
0.0
  0
VERTEX
  8
Image
 10
-467.250847801125
 20
811.097414885347
 42
0.0
  0
VERTEX
  8
Image
 10
-466.566688463772
 20
789.892201559934
 42
0.0
  0
SEQEND
  0
POLYLINE
  8
Image
 66
     1
 10
0.0
 20
0.0
 30
0.0
 70
     1
  0
VERTEX
  8
Image
 10
-480.56668871811
 20
826.428558846818
 42
0.0
  0
VERTEX
  8
Image
 10
-467.250847801125
 20
826.266224479945
 42
0.0
  0
VERTEX
  8
Image
 10
-466.566688463772
 20
847.471437805358
 42
0.0
  0
VERTEX
  8
Image
 10
-480.56668871811
 20
863.640499249363
 42
0.0
  0
SEQEND
  0
POLYLINE
  8
Image
 66
     1
 10
0.0
 20
0.0
 30
0.0
 70
     1
  0
VERTEX
  8
Image
 10
-480.56668871811
 20
539.086779481221
 42
0.0
  0
VERTEX
  8
Image
 10
-480.56668871811
 20
576.298719883766
 42
0.0
  0
VERTEX
  8
Image
 10
-467.250847801125
 20
576.461054250639
 42
0.0
  0
VERTEX
  8
Image
 10
-466.566688463772
 20
555.255840925226
 42
0.0
  0
SEQEND
  0
POLYLINE
  8
Image
 66
     1
 10
0.0
 20
0.0
 30
0.0
 70
     1
  0
VERTEX
  8
Image
 10
-480.56668871811
 20
591.79219821211
 42
0.0
  0
VERTEX
  8
Image
 10
-467.250847801125
 20
591.629863845237
 42
0.0
  0
VERTEX
  8
Image
 10
-466.566688463772
 20
612.83507717065
 42
0.0
  0
VERTEX
  8
Image
 10
-480.56668871811
 20
629.004138614654
 42
0.0
  0
SEQEND
  0
POLYLINE
  8
Image
 66
     1
 10
0.0
 20
0.0
 30
0.0
 70
     1
  0
VERTEX
  8
Image
 10
-480.56668871811
 20
304.450418846513
 42
0.0
  0
VERTEX
  8
Image
 10
-480.56668871811
 20
341.662359249058
 42
0.0
  0
VERTEX
  8
Image
 10
-467.250847801125
 20
341.824693615931
 42
0.0
  0
VERTEX
  8
Image
 10
-466.566688463772
 20
320.619480290517
 42
0.0
  0
SEQEND
  0
POLYLINE
  8
Image
 66
     1
 10
0.0
 20
0.0
 30
0.0
 70
     1
  0
VERTEX
  8
Image
 10
-480.56668871811
 20
357.155837577402
 42
0.0
  0
VERTEX
  8
Image
 10
-467.250847801125
 20
356.993503210529
 42
0.0
  0
VERTEX
  8
Image
 10
-466.566688463772
 20
378.198716535941
 42
0.0
  0
VERTEX
  8
Image
 10
-480.56668871811
 20
394.367777979946
 42
0.0
  0
SEQEND
  0
POLYLINE
  8
Image
 66
     1
 10
0.0
 20
0.0
 30
0.0
 70
     1
  0
VERTEX
  8
Image
 10
-480.56668871811
 20
69.814058211804
 42
0.0
  0
VERTEX
  8
Image
 10
-480.56668871811
 20
107.025998614349
 42
0.0
  0
VERTEX
  8
Image
 10
-467.250847801125
 20
107.188332981222
 42
0.0
  0
VERTEX
  8
Image
 10
-466.566688463772
 20
85.9831196558089
 42
0.0
  0
SEQEND
  0
POLYLINE
  8
Image
 66
     1
 10
0.0
 20
0.0
 30
0.0
 70
     1
  0
VERTEX
  8
Image
 10
-480.56668871811
 20
122.519476942693
 42
0.0
  0
VERTEX
  8
Image
 10
-467.250847801125
 20
122.35714257582
 42
0.0
  0
VERTEX
  8
Image
 10
-466.566688463772
 20
143.562355901233
 42
0.0
  0
VERTEX
  8
Image
 10
-480.56668871811
 20
159.731417345238
 42
0.0
  0
SEQEND
  0
POLYLINE
  8
Image
 66
     1
 10
0.0
 20
0.0
 30
0.0
 70
     1
  0
VERTEX
  8
Image
 10
-480.56668871811
 20
-164.822302422905
 42
0.0
  0
VERTEX
  8
Image
 10
-480.56668871811
 20
-127.61036202036
 42
0.0
  0
VERTEX
  8
Image
 10
-467.250847801125
 20
-127.448027653487
 42
0.0
  0
VERTEX
  8
Image
 10
-466.566688463772
 20
-148.6532409789
 42
0.0
  0
SEQEND
  0
POLYLINE
  8
Image
 66
     1
 10
0.0
 20
0.0
 30
0.0
 70
     1
  0
VERTEX
  8
Image
 10
-480.56668871811
 20
-112.116883692016
 42
0.0
  0
VERTEX
  8
Image
 10
-467.250847801125
 20
-112.279218058889
 42
0.0
  0
VERTEX
  8
Image
 10
-466.566688463772
 20
-91.0740047334762
 42
0.0
  0
VERTEX
  8
Image
 10
-480.56668871811
 20
-74.9049432894712
 42
0.0
  0
SEQEND
  0
POLYLINE
  8
Image
 66
     1
 10
0.0
 20
0.0
 30
0.0
 70
     1
  0
VERTEX
  8
Image
 10
-480.56668871811
 20
-399.458663057614
 42
0.0
  0
VERTEX
  8
Image
 10
-480.56668871811
 20
-362.246722655069
 42
0.0
  0
VERTEX
  8
Image
 10
-467.250847801125
 20
-362.084388288195
 42
0.0
  0
VERTEX
  8
Image
 10
-466.566688463772
 20
-383.289601613609
 42
0.0
  0
SEQEND
  0
POLYLINE
  8
Image
 66
     1
 10
0.0
 20
0.0
 30
0.0
 70
     1
  0
VERTEX
  8
Image
 10
-480.56668871811
 20
-346.753244326724
 42
0.0
  0
VERTEX
  8
Image
 10
-467.250847801125
 20
-346.915578693598
 42
0.0
  0
VERTEX
  8
Image
 10
-466.566688463772
 20
-325.710365368185
 42
0.0
  0
VERTEX
  8
Image
 10
-480.56668871811
 20
-309.54130392418
 42
0.0
  0
SEQEND
  0
POLYLINE
  8
Image
 66
     1
 10
0.0
 20
0.0
 30
0.0
 70
     1
  0
VERTEX
  8
Image
 10
-480.56668871811
 20
-634.095023692322
 42
0.0
  0
VERTEX
  8
Image
 10
-480.56668871811
 20
-596.883083289777
 42
0.0
  0
VERTEX
  8
Image
 10
-467.250847801125
 20
-596.720748922904
 42
0.0
  0
VERTEX
  8
Image
 10
-466.566688463772
 20
-617.925962248317
 42
0.0
  0
SEQEND
  0
POLYLINE
  8
Image
 66
     1
 10
0.0
 20
0.0
 30
0.0
 70
     1
  0
VERTEX
  8
Image
 10
-480.56668871811
 20
-581.389604961433
 42
0.0
  0
VERTEX
  8
Image
 10
-467.250847801125
 20
-581.551939328306
 42
0.0
  0
VERTEX
  8
Image
 10
-466.566688463772
 20
-560.346726002893
 42
0.0
  0
VERTEX
  8
Image
 10
-480.56668871811
 20
-544.177664558888
 42
0.0
  0
SEQEND
  0
POLYLINE
  8
Image
 66
     1
 10
0.0
 20
0.0
 30
0.0
 70
     1
  0
VERTEX
  8
Image
 10
-480.56668871811
 20
-868.73138432703
 42
0.0
  0
VERTEX
  8
Image
 10
-480.56668871811
 20
-831.519443924485
 42
0.0
  0
VERTEX
  8
Image
 10
-467.250847801125
 20
-831.357109557612
 42
0.0
  0
VERTEX
  8
Image
 10
-466.566688463772
 20
-852.562322883025
 42
0.0
  0
SEQEND
  0
POLYLINE
  8
Image
 66
     1
 10
0.0
 20
0.0
 30
0.0
 70
     1
  0
VERTEX
  8
Image
 10
-480.56668871811
 20
-816.025965596141
 42
0.0
  0
VERTEX
  8
Image
 10
-467.250847801125
 20
-816.188299963014
 42
0.0
  0
VERTEX
  8
Image
 10
-466.566688463772
 20
-794.983086637601
 42
0.0
  0
VERTEX
  8
Image
 10
-480.56668871811
 20
-778.814025193597
 42
0.0
  0
SEQEND
  0
POLYLINE
  8
Image
 66
     1
 10
0.0
 20
0.0
 30
0.0
 70
     1
  0
VERTEX
  8
Image
 10
-184.563205491816
 20
-883.584117744346
 42
0.0
  0
VERTEX
  8
Image
 10
-184.169260206758
 20
-883.571611965291
 42
0.0
  0
VERTEX
  8
Image
 10
-182.459034369511
 20
-860.656276306313
 42
0.0
  0
VERTEX
  8
Image
 10
-154.755583884649
 20
-832.268666484098
 42
0.0
  0
VERTEX
  8
Image
 10
-133.208187386878
 20
-831.584748655335
 42
0.0
  0
VERTEX
  8
Image
 10
-132.524373061798
 20
-867.15478947558
 42
0.0
  0
VERTEX
  8
Image
 10
-155.09749104719
 20
-888.017992134771
 42
0.0
  0
VERTEX
  8
Image
 10
-155.09749104719
 20
-906.487051127951
 42
0.0
  0
VERTEX
  8
Image
 10
-173.224780882739
 20
-906.487051127951
 42
0.0
  0
VERTEX
  8
Image
 10
-201.27013853014
 20
-933.164573117828
 42
0.0
  0
VERTEX
  8
Image
 10
-229.315841189816
 20
-933.506480280368
 42
0.0
  0
VERTEX
  8
Image
 10
-230.00000052717
 20
-912.301266954956
 42
0.0
  0
VERTEX
  8
Image
 10
-205.716656704529
 20
-884.255633297736
 42
0.0
  0
SEQEND
  0
POLYLINE
  8
Image
 66
     1
 10
0.0
 20
0.0
 30
0.0
 70
     1
  0
VERTEX
  8
Image
 10
-65.4367953081842
 20
-763.961291776281
 42
0.0
  0
VERTEX
  8
Image
 10
-65.8307405932424
 20
-763.973797555335
 42
0.0
  0
VERTEX
  8
Image
 10
-67.5409664304893
 20
-786.889133214313
 42
0.0
  0
VERTEX
  8
Image
 10
-95.2444169153514
 20
-815.276743036529
 42
0.0
  0
VERTEX
  8
Image
 10
-116.791813413123
 20
-815.960660865291
 42
0.0
  0
VERTEX
  8
Image
 10
-117.475627738203
 20
-780.390620045046
 42
0.0
  0
VERTEX
  8
Image
 10
-94.9025097528106
 20
-759.527417385856
 42
0.0
  0
VERTEX
  8
Image
 10
-94.9025097528106
 20
-741.058358392675
 42
0.0
  0
VERTEX
  8
Image
 10
-76.7752199172614
 20
-741.058358392675
 42
0.0
  0
VERTEX
  8
Image
 10
-48.7298622698595
 20
-714.380836402799
 42
0.0
  0
VERTEX
  8
Image
 10
-20.6841596101845
 20
-714.038929240258
 42
0.0
  0
VERTEX
  8
Image
 10
-20.0000002728307
 20
-735.244142565671
 42
0.0
  0
VERTEX
  8
Image
 10
-44.2833440954705
 20
-763.289776222891
 42
0.0
  0
SEQEND
  0
POLYLINE
  8
Image
 66
     1
 10
0.0
 20
0.0
 30
0.0
 70
     1
  0
VERTEX
  8
Image
 10
-184.563205491816
 20
-763.961291776281
 42
0.0
  0
VERTEX
  8
Image
 10
-184.169260206758
 20
-763.973797555336
 42
0.0
  0
VERTEX
  8
Image
 10
-182.459034369511
 20
-786.889133214314
 42
0.0
  0
VERTEX
  8
Image
 10
-154.755583884649
 20
-815.276743036529
 42
0.0
  0
VERTEX
  8
Image
 10
-133.208187386878
 20
-815.960660865291
 42
0.0
  0
VERTEX
  8
Image
 10
-132.524373061798
 20
-780.390620045046
 42
0.0
  0
VERTEX
  8
Image
 10
-155.09749104719
 20
-759.527417385856
 42
0.0
  0
VERTEX
  8
Image
 10
-155.09749104719
 20
-741.058358392675
 42
0.0
  0
VERTEX
  8
Image
 10
-173.224780882739
 20
-741.058358392675
 42
0.0
  0
VERTEX
  8
Image
 10
-201.27013853014
 20
-714.380836402799
 42
0.0
  0
VERTEX
  8
Image
 10
-229.315841189816
 20
-714.038929240259
 42
0.0
  0
VERTEX
  8
Image
 10
-230.00000052717
 20
-735.244142565671
 42
0.0
  0
VERTEX
  8
Image
 10
-205.716656704529
 20
-763.289776222891
 42
0.0
  0
SEQEND
  0
POLYLINE
  8
Image
 66
     1
 10
0.0
 20
0.0
 30
0.0
 70
     1
  0
VERTEX
  8
Image
 10
-184.563205491816
 20
-648.947757109637
 42
0.0
  0
VERTEX
  8
Image
 10
-184.169260206758
 20
-648.935251330583
 42
0.0
  0
VERTEX
  8
Image
 10
-182.459034369511
 20
-626.019915671605
 42
0.0
  0
VERTEX
  8
Image
 10
-154.755583884649
 20
-597.632305849389
 42
0.0
  0
VERTEX
  8
Image
 10
-133.208187386878
 20
-596.948388020627
 42
0.0
  0
VERTEX
  8
Image
 10
-132.524373061798
 20
-632.518428840872
 42
0.0
  0
VERTEX
  8
Image
 10
-155.09749104719
 20
-653.381631500063
 42
0.0
  0
VERTEX
  8
Image
 10
-155.09749104719
 20
-671.850690493243
 42
0.0
  0
VERTEX
  8
Image
 10
-173.224780882739
 20
-671.850690493243
 42
0.0
  0
VERTEX
  8
Image
 10
-201.27013853014
 20
-698.52821248312
 42
0.0
  0
VERTEX
  8
Image
 10
-229.315841189816
 20
-698.87011964566
 42
0.0
  0
VERTEX
  8
Image
 10
-230.00000052717
 20
-677.664906320247
 42
0.0
  0
VERTEX
  8
Image
 10
-205.716656704529
 20
-649.619272663027
 42
0.0
  0
SEQEND
  0
POLYLINE
  8
Image
 66
     1
 10
0.0
 20
0.0
 30
0.0
 70
     1
  0
VERTEX
  8
Image
 10
-65.4367953081842
 20
-648.947757109638
 42
0.0
  0
VERTEX
  8
Image
 10
-65.8307405932424
 20
-648.935251330583
 42
0.0
  0
VERTEX
  8
Image
 10
-67.5409664304893
 20
-626.019915671605
 42
0.0
  0
VERTEX
  8
Image
 10
-95.2444169153514
 20
-597.63230584939
 42
0.0
  0
VERTEX
  8
Image
 10
-116.791813413123
 20
-596.948388020628
 42
0.0
  0
VERTEX
  8
Image
 10
-117.475627738203
 20
-632.518428840872
 42
0.0
  0
VERTEX
  8
Image
 10
-94.9025097528106
 20
-653.381631500063
 42
0.0
  0
VERTEX
  8
Image
 10
-94.9025097528106
 20
-671.850690493243
 42
0.0
  0
VERTEX
  8
Image
 10
-76.7752199172614
 20
-671.850690493243
 42
0.0
  0
VERTEX
  8
Image
 10
-48.7298622698595
 20
-698.52821248312
 42
0.0
  0
VERTEX
  8
Image
 10
-20.6841596101845
 20
-698.87011964566
 42
0.0
  0
VERTEX
  8
Image
 10
-20.0000002728307
 20
-677.664906320248
 42
0.0
  0
VERTEX
  8
Image
 10
-44.2833440954705
 20
-649.619272663027
 42
0.0
  0
SEQEND
  0
POLYLINE
  8
Image
 66
     1
 10
0.0
 20
0.0
 30
0.0
 70
     1
  0
VERTEX
  8
Image
 10
-65.4367953081842
 20
-529.324931141572
 42
0.0
  0
VERTEX
  8
Image
 10
-65.8307405932424
 20
-529.337436920627
 42
0.0
  0
VERTEX
  8
Image
 10
-67.5409664304893
 20
-552.252772579605
 42
0.0
  0
VERTEX
  8
Image
 10
-95.2444169153514
 20
-580.64038240182
 42
0.0
  0
VERTEX
  8
Image
 10
-116.791813413123
 20
-581.324300230583
 42
0.0
  0
VERTEX
  8
Image
 10
-117.475627738203
 20
-545.754259410337
 42
0.0
  0
VERTEX
  8
Image
 10
-94.9025097528106
 20
-524.891056751147
 42
0.0
  0
VERTEX
  8
Image
 10
-94.9025097528106
 20
-506.421997757966
 42
0.0
  0
VERTEX
  8
Image
 10
-76.7752199172614
 20
-506.421997757966
 42
0.0
  0
VERTEX
  8
Image
 10
-48.7298622698595
 20
-479.74447576809
 42
0.0
  0
VERTEX
  8
Image
 10
-20.6841596101845
 20
-479.40256860555
 42
0.0
  0
VERTEX
  8
Image
 10
-20.0000002728307
 20
-500.607781930962
 42
0.0
  0
VERTEX
  8
Image
 10
-44.2833440954705
 20
-528.653415588182
 42
0.0
  0
SEQEND
  0
POLYLINE
  8
Image
 66
     1
 10
0.0
 20
0.0
 30
0.0
 70
     1
  0
VERTEX
  8
Image
 10
-184.563205491816
 20
-529.324931141573
 42
0.0
  0
VERTEX
  8
Image
 10
-184.169260206758
 20
-529.337436920627
 42
0.0
  0
VERTEX
  8
Image
 10
-182.459034369511
 20
-552.252772579605
 42
0.0
  0
VERTEX
  8
Image
 10
-154.755583884649
 20
-580.640382401821
 42
0.0
  0
VERTEX
  8
Image
 10
-133.208187386878
 20
-581.324300230583
 42
0.0
  0
VERTEX
  8
Image
 10
-132.524373061798
 20
-545.754259410338
 42
0.0
  0
VERTEX
  8
Image
 10
-155.09749104719
 20
-524.891056751148
 42
0.0
  0
VERTEX
  8
Image
 10
-155.09749104719
 20
-506.421997757967
 42
0.0
  0
VERTEX
  8
Image
 10
-173.224780882739
 20
-506.421997757967
 42
0.0
  0
VERTEX
  8
Image
 10
-201.27013853014
 20
-479.744475768091
 42
0.0
  0
VERTEX
  8
Image
 10
-229.315841189816
 20
-479.40256860555
 42
0.0
  0
VERTEX
  8
Image
 10
-230.00000052717
 20
-500.607781930963
 42
0.0
  0
VERTEX
  8
Image
 10
-205.716656704529
 20
-528.653415588183
 42
0.0
  0
SEQEND
  0
POLYLINE
  8
Image
 66
     1
 10
0.0
 20
0.0
 30
0.0
 70
     1
  0
VERTEX
  8
Image
 10
-184.563205491816
 20
-414.311396474929
 42
0.0
  0
VERTEX
  8
Image
 10
-184.169260206758
 20
-414.298890695874
 42
0.0
  0
VERTEX
  8
Image
 10
-182.459034369511
 20
-391.383555036896
 42
0.0
  0
VERTEX
  8
Image
 10
-154.755583884649
 20
-362.995945214681
 42
0.0
  0
VERTEX
  8
Image
 10
-133.208187386878
 20
-362.312027385919
 42
0.0
  0
VERTEX
  8
Image
 10
-132.524373061798
 20
-397.882068206163
 42
0.0
  0
VERTEX
  8
Image
 10
-155.09749104719
 20
-418.745270865354
 42
0.0
  0
VERTEX
  8
Image
 10
-155.09749104719
 20
-437.214329858534
 42
0.0
  0
VERTEX
  8
Image
 10
-173.224780882739
 20
-437.214329858534
 42
0.0
  0
VERTEX
  8
Image
 10
-201.27013853014
 20
-463.891851848411
 42
0.0
  0
VERTEX
  8
Image
 10
-229.315841189816
 20
-464.233759010951
 42
0.0
  0
VERTEX
  8
Image
 10
-230.00000052717
 20
-443.028545685539
 42
0.0
  0
VERTEX
  8
Image
 10
-205.716656704529
 20
-414.982912028319
 42
0.0
  0
SEQEND
  0
POLYLINE
  8
Image
 66
     1
 10
0.0
 20
0.0
 30
0.0
 70
     1
  0
VERTEX
  8
Image
 10
-65.4367953081842
 20
-414.311396474929
 42
0.0
  0
VERTEX
  8
Image
 10
-65.8307405932424
 20
-414.298890695875
 42
0.0
  0
VERTEX
  8
Image
 10
-67.5409664304893
 20
-391.383555036897
 42
0.0
  0
VERTEX
  8
Image
 10
-95.2444169153514
 20
-362.995945214681
 42
0.0
  0
VERTEX
  8
Image
 10
-116.791813413123
 20
-362.312027385919
 42
0.0
  0
VERTEX
  8
Image
 10
-117.475627738203
 20
-397.882068206164
 42
0.0
  0
VERTEX
  8
Image
 10
-94.9025097528106
 20
-418.745270865355
 42
0.0
  0
VERTEX
  8
Image
 10
-94.9025097528106
 20
-437.214329858535
 42
0.0
  0
VERTEX
  8
Image
 10
-76.7752199172614
 20
-437.214329858535
 42
0.0
  0
VERTEX
  8
Image
 10
-48.7298622698595
 20
-463.891851848412
 42
0.0
  0
VERTEX
  8
Image
 10
-20.6841596101845
 20
-464.233759010952
 42
0.0
  0
VERTEX
  8
Image
 10
-20.0000002728307
 20
-443.028545685539
 42
0.0
  0
VERTEX
  8
Image
 10
-44.2833440954705
 20
-414.982912028319
 42
0.0
  0
SEQEND
  0
POLYLINE
  8
Image
 66
     1
 10
0.0
 20
0.0
 30
0.0
 70
     1
  0
VERTEX
  8
Image
 10
-65.4367953081842
 20
-294.688570506863
 42
0.0
  0
VERTEX
  8
Image
 10
-65.8307405932424
 20
-294.701076285918
 42
0.0
  0
VERTEX
  8
Image
 10
-67.5409664304893
 20
-317.616411944896
 42
0.0
  0
VERTEX
  8
Image
 10
-95.2444169153514
 20
-346.004021767112
 42
0.0
  0
VERTEX
  8
Image
 10
-116.791813413123
 20
-346.687939595874
 42
0.0
  0
VERTEX
  8
Image
 10
-117.475627738203
 20
-311.117898775629
 42
0.0
  0
VERTEX
  8
Image
 10
-94.9025097528106
 20
-290.254696116438
 42
0.0
  0
VERTEX
  8
Image
 10
-94.9025097528106
 20
-271.785637123258
 42
0.0
  0
VERTEX
  8
Image
 10
-76.7752199172614
 20
-271.785637123258
 42
0.0
  0
VERTEX
  8
Image
 10
-48.7298622698595
 20
-245.108115133381
 42
0.0
  0
VERTEX
  8
Image
 10
-20.6841596101845
 20
-244.766207970841
 42
0.0
  0
VERTEX
  8
Image
 10
-20.0000002728307
 20
-265.971421296254
 42
0.0
  0
VERTEX
  8
Image
 10
-44.2833440954705
 20
-294.017054953474
 42
0.0
  0
SEQEND
  0
POLYLINE
  8
Image
 66
     1
 10
0.0
 20
0.0
 30
0.0
 70
     1
  0
VERTEX
  8
Image
 10
-184.563205491816
 20
-294.688570506864
 42
0.0
  0
VERTEX
  8
Image
 10
-184.169260206758
 20
-294.701076285919
 42
0.0
  0
VERTEX
  8
Image
 10
-182.459034369511
 20
-317.616411944897
 42
0.0
  0
VERTEX
  8
Image
 10
-154.755583884649
 20
-346.004021767112
 42
0.0
  0
VERTEX
  8
Image
 10
-133.208187386878
 20
-346.687939595874
 42
0.0
  0
VERTEX
  8
Image
 10
-132.524373061798
 20
-311.117898775629
 42
0.0
  0
VERTEX
  8
Image
 10
-155.09749104719
 20
-290.254696116439
 42
0.0
  0
VERTEX
  8
Image
 10
-155.09749104719
 20
-271.785637123258
 42
0.0
  0
VERTEX
  8
Image
 10
-173.224780882739
 20
-271.785637123258
 42
0.0
  0
VERTEX
  8
Image
 10
-201.27013853014
 20
-245.108115133382
 42
0.0
  0
VERTEX
  8
Image
 10
-229.315841189816
 20
-244.766207970842
 42
0.0
  0
VERTEX
  8
Image
 10
-230.00000052717
 20
-265.971421296254
 42
0.0
  0
VERTEX
  8
Image
 10
-205.716656704529
 20
-294.017054953474
 42
0.0
  0
SEQEND
  0
POLYLINE
  8
Image
 66
     1
 10
0.0
 20
0.0
 30
0.0
 70
     1
  0
VERTEX
  8
Image
 10
-184.563205491816
 20
-179.675035840221
 42
0.0
  0
VERTEX
  8
Image
 10
-184.169260206758
 20
-179.662530061166
 42
0.0
  0
VERTEX
  8
Image
 10
-182.459034369511
 20
-156.747194402188
 42
0.0
  0
VERTEX
  8
Image
 10
-154.755583884649
 20
-128.359584579972
 42
0.0
  0
VERTEX
  8
Image
 10
-133.208187386878
 20
-127.67566675121
 42
0.0
  0
VERTEX
  8
Image
 10
-132.524373061798
 20
-163.245707571455
 42
0.0
  0
VERTEX
  8
Image
 10
-155.09749104719
 20
-184.108910230646
 42
0.0
  0
VERTEX
  8
Image
 10
-155.09749104719
 20
-202.577969223826
 42
0.0
  0
VERTEX
  8
Image
 10
-173.224780882739
 20
-202.577969223826
 42
0.0
  0
VERTEX
  8
Image
 10
-201.27013853014
 20
-229.255491213702
 42
0.0
  0
VERTEX
  8
Image
 10
-229.315841189816
 20
-229.597398376243
 42
0.0
  0
VERTEX
  8
Image
 10
-230.00000052717
 20
-208.39218505083
 42
0.0
  0
VERTEX
  8
Image
 10
-205.716656704529
 20
-180.34655139361
 42
0.0
  0
SEQEND
  0
POLYLINE
  8
Image
 66
     1
 10
0.0
 20
0.0
 30
0.0
 70
     1
  0
VERTEX
  8
Image
 10
-65.4367953081842
 20
-179.675035840221
 42
0.0
  0
VERTEX
  8
Image
 10
-65.8307405932424
 20
-179.662530061166
 42
0.0
  0
VERTEX
  8
Image
 10
-67.5409664304893
 20
-156.747194402188
 42
0.0
  0
VERTEX
  8
Image
 10
-95.2444169153514
 20
-128.359584579973
 42
0.0
  0
VERTEX
  8
Image
 10
-116.791813413123
 20
-127.67566675121
 42
0.0
  0
VERTEX
  8
Image
 10
-117.475627738203
 20
-163.245707571455
 42
0.0
  0
VERTEX
  8
Image
 10
-94.9025097528106
 20
-184.108910230646
 42
0.0
  0
VERTEX
  8
Image
 10
-94.9025097528106
 20
-202.577969223826
 42
0.0
  0
VERTEX
  8
Image
 10
-76.7752199172614
 20
-202.577969223826
 42
0.0
  0
VERTEX
  8
Image
 10
-48.7298622698595
 20
-229.255491213703
 42
0.0
  0
VERTEX
  8
Image
 10
-20.6841596101845
 20
-229.597398376243
 42
0.0
  0
VERTEX
  8
Image
 10
-20.0000002728307
 20
-208.392185050831
 42
0.0
  0
VERTEX
  8
Image
 10
-44.2833440954705
 20
-180.346551393611
 42
0.0
  0
SEQEND
  0
POLYLINE
  8
Image
 66
     1
 10
0.0
 20
0.0
 30
0.0
 70
     1
  0
VERTEX
  8
Image
 10
-65.4367953081842
 20
-60.0522098721549
 42
0.0
  0
VERTEX
  8
Image
 10
-65.8307405932424
 20
-60.0647156512096
 42
0.0
  0
VERTEX
  8
Image
 10
-67.5409664304893
 20
-82.9800513101877
 42
0.0
  0
VERTEX
  8
Image
 10
-95.2444169153514
 20
-111.367661132403
 42
0.0
  0
VERTEX
  8
Image
 10
-116.791813413123
 20
-112.051578961165
 42
0.0
  0
VERTEX
  8
Image
 10
-117.475627738203
 20
-76.4815381409203
 42
0.0
  0
VERTEX
  8
Image
 10
-94.9025097528106
 20
-55.6183354817299
 42
0.0
  0
VERTEX
  8
Image
 10
-94.9025097528106
 20
-37.1492764885493
 42
0.0
  0
VERTEX
  8
Image
 10
-76.7752199172614
 20
-37.1492764885493
 42
0.0
  0
VERTEX
  8
Image
 10
-48.7298622698595
 20
-10.4717544986729
 42
0.0
  0
VERTEX
  8
Image
 10
-20.6841596101845
 20
-10.1298473361326
 42
0.0
  0
VERTEX
  8
Image
 10
-20.0000002728307
 20
-31.335060661545
 42
0.0
  0
VERTEX
  8
Image
 10
-44.2833440954705
 20
-59.3806943187651
 42
0.0
  0
SEQEND
  0
POLYLINE
  8
Image
 66
     1
 10
0.0
 20
0.0
 30
0.0
 70
     1
  0
VERTEX
  8
Image
 10
-184.563205491816
 20
-60.0522098721553
 42
0.0
  0
VERTEX
  8
Image
 10
-184.169260206758
 20
-60.06471565121
 42
0.0
  0
VERTEX
  8
Image
 10
-182.459034369511
 20
-82.9800513101882
 42
0.0
  0
VERTEX
  8
Image
 10
-154.755583884649
 20
-111.367661132404
 42
0.0
  0
VERTEX
  8
Image
 10
-133.208187386878
 20
-112.051578961166
 42
0.0
  0
VERTEX
  8
Image
 10
-132.524373061798
 20
-76.4815381409207
 42
0.0
  0
VERTEX
  8
Image
 10
-155.09749104719
 20
-55.6183354817304
 42
0.0
  0
VERTEX
  8
Image
 10
-155.09749104719
 20
-37.1492764885497
 42
0.0
  0
VERTEX
  8
Image
 10
-173.224780882739
 20
-37.1492764885497
 42
0.0
  0
VERTEX
  8
Image
 10
-201.27013853014
 20
-10.4717544986734
 42
0.0
  0
VERTEX
  8
Image
 10
-229.315841189816
 20
-10.129847336133
 42
0.0
  0
VERTEX
  8
Image
 10
-230.00000052717
 20
-31.3350606615454
 42
0.0
  0
VERTEX
  8
Image
 10
-205.716656704529
 20
-59.3806943187656
 42
0.0
  0
SEQEND
  0
POLYLINE
  8
Image
 66
     1
 10
0.0
 20
0.0
 30
0.0
 70
     1
  0
VERTEX
  8
Image
 10
-184.563205491816
 20
54.9613247944881
 42
0.0
  0
VERTEX
  8
Image
 10
-184.169260206758
 20
54.9738305735427
 42
0.0
  0
VERTEX
  8
Image
 10
-182.459034369511
 20
77.8891662325209
 42
0.0
  0
VERTEX
  8
Image
 10
-154.755583884649
 20
106.276776054736
 42
0.0
  0
VERTEX
  8
Image
 10
-133.208187386878
 20
106.960693883499
 42
0.0
  0
VERTEX
  8
Image
 10
-132.524373061798
 20
71.3906530632535
 42
0.0
  0
VERTEX
  8
Image
 10
-155.09749104719
 20
50.5274504040631
 42
0.0
  0
VERTEX
  8
Image
 10
-155.09749104719
 20
32.0583914108825
 42
0.0
  0
VERTEX
  8
Image
 10
-173.224780882739
 20
32.0583914108825
 42
0.0
  0
VERTEX
  8
Image
 10
-201.27013853014
 20
5.3808694210061
 42
0.0
  0
VERTEX
  8
Image
 10
-229.315841189816
 20
5.0389622584657
 42
0.0
  0
VERTEX
  8
Image
 10
-230.00000052717
 20
26.2441755838781
 42
0.0
  0
VERTEX
  8
Image
 10
-205.716656704529
 20
54.2898092410983
 42
0.0
  0
SEQEND
  0
POLYLINE
  8
Image
 66
     1
 10
0.0
 20
0.0
 30
0.0
 70
     1
  0
VERTEX
  8
Image
 10
-65.4367953081842
 20
174.584150762553
 42
0.0
  0
VERTEX
  8
Image
 10
-65.8307405932424
 20
174.571644983499
 42
0.0
  0
VERTEX
  8
Image
 10
-67.5409664304893
 20
151.656309324521
 42
0.0
  0
VERTEX
  8
Image
 10
-95.2444169153514
 20
123.268699502305
 42
0.0
  0
VERTEX
  8
Image
 10
-116.791813413123
 20
122.584781673543
 42
0.0
  0
VERTEX
  8
Image
 10
-117.475627738203
 20
158.154822493788
 42
0.0
  0
VERTEX
  8
Image
 10
-94.9025097528106
 20
179.018025152979
 42
0.0
  0
VERTEX
  8
Image
 10
-94.9025097528106
 20
197.487084146159
 42
0.0
  0
VERTEX
  8
Image
 10
-76.7752199172614
 20
197.487084146159
 42
0.0
  0
VERTEX
  8
Image
 10
-48.7298622698595
 20
224.164606136036
 42
0.0
  0
VERTEX
  8
Image
 10
-20.6841596101845
 20
224.506513298576
 42
0.0
  0
VERTEX
  8
Image
 10
-20.0000002728307
 20
203.301299973164
 42
0.0
  0
VERTEX
  8
Image
 10
-44.2833440954705
 20
175.255666315943
 42
0.0
  0
SEQEND
  0
POLYLINE
  8
Image
 66
     1
 10
0.0
 20
0.0
 30
0.0
 70
     1
  0
VERTEX
  8
Image
 10
-184.563205491816
 20
174.584150762553
 42
0.0
  0
VERTEX
  8
Image
 10
-184.169260206758
 20
174.571644983499
 42
0.0
  0
VERTEX
  8
Image
 10
-182.459034369511
 20
151.65630932452
 42
0.0
  0
VERTEX
  8
Image
 10
-154.755583884649
 20
123.268699502305
 42
0.0
  0
VERTEX
  8
Image
 10
-133.208187386878
 20
122.584781673543
 42
0.0
  0
VERTEX
  8
Image
 10
-132.524373061798
 20
158.154822493788
 42
0.0
  0
VERTEX
  8
Image
 10
-155.09749104719
 20
179.018025152978
 42
0.0
  0
VERTEX
  8
Image
 10
-155.09749104719
 20
197.487084146159
 42
0.0
  0
VERTEX
  8
Image
 10
-173.224780882739
 20
197.487084146159
 42
0.0
  0
VERTEX
  8
Image
 10
-201.27013853014
 20
224.164606136035
 42
0.0
  0
VERTEX
  8
Image
 10
-229.315841189816
 20
224.506513298576
 42
0.0
  0
VERTEX
  8
Image
 10
-230.00000052717
 20
203.301299973163
 42
0.0
  0
VERTEX
  8
Image
 10
-205.716656704529
 20
175.255666315943
 42
0.0
  0
SEQEND
  0
POLYLINE
  8
Image
 66
     1
 10
0.0
 20
0.0
 30
0.0
 70
     1
  0
VERTEX
  8
Image
 10
-184.563205491816
 20
289.597685429197
 42
0.0
  0
VERTEX
  8
Image
 10
-184.169260206758
 20
289.610191208251
 42
0.0
  0
VERTEX
  8
Image
 10
-182.459034369511
 20
312.525526867229
 42
0.0
  0
VERTEX
  8
Image
 10
-154.755583884649
 20
340.913136689445
 42
0.0
  0
VERTEX
  8
Image
 10
-133.208187386878
 20
341.597054518207
 42
0.0
  0
VERTEX
  8
Image
 10
-132.524373061798
 20
306.027013697962
 42
0.0
  0
VERTEX
  8
Image
 10
-155.09749104719
 20
285.163811038772
 42
0.0
  0
VERTEX
  8
Image
 10
-155.09749104719
 20
266.694752045591
 42
0.0
  0
VERTEX
  8
Image
 10
-173.224780882739
 20
266.694752045591
 42
0.0
  0
VERTEX
  8
Image
 10
-201.27013853014
 20
240.017230055715
 42
0.0
  0
VERTEX
  8
Image
 10
-229.315841189816
 20
239.675322893174
 42
0.0
  0
VERTEX
  8
Image
 10
-230.00000052717
 20
260.880536218587
 42
0.0
  0
VERTEX
  8
Image
 10
-205.716656704529
 20
288.926169875807
 42
0.0
  0
SEQEND
  0
POLYLINE
  8
Image
 66
     1
 10
0.0
 20
0.0
 30
0.0
 70
     1
  0
VERTEX
  8
Image
 10
-65.4367953081842
 20
289.597685429196
 42
0.0
  0
VERTEX
  8
Image
 10
-65.8307405932424
 20
289.610191208251
 42
0.0
  0
VERTEX
  8
Image
 10
-67.5409664304893
 20
312.525526867229
 42
0.0
  0
VERTEX
  8
Image
 10
-95.2444169153514
 20
340.913136689444
 42
0.0
  0
VERTEX
  8
Image
 10
-116.791813413123
 20
341.597054518207
 42
0.0
  0
VERTEX
  8
Image
 10
-117.475627738203
 20
306.027013697962
 42
0.0
  0
VERTEX
  8
Image
 10
-94.9025097528106
 20
285.163811038771
 42
0.0
  0
VERTEX
  8
Image
 10
-94.9025097528106
 20
266.694752045591
 42
0.0
  0
VERTEX
  8
Image
 10
-76.7752199172614
 20
266.694752045591
 42
0.0
  0
VERTEX
  8
Image
 10
-48.7298622698595
 20
240.017230055714
 42
0.0
  0
VERTEX
  8
Image
 10
-20.6841596101845
 20
239.675322893174
 42
0.0
  0
VERTEX
  8
Image
 10
-20.0000002728307
 20
260.880536218586
 42
0.0
  0
VERTEX
  8
Image
 10
-44.2833440954705
 20
288.926169875806
 42
0.0
  0
SEQEND
  0
POLYLINE
  8
Image
 66
     1
 10
0.0
 20
0.0
 30
0.0
 70
     1
  0
VERTEX
  8
Image
 10
-65.4367953081842
 20
409.220511397262
 42
0.0
  0
VERTEX
  8
Image
 10
-65.8307405932424
 20
409.208005618208
 42
0.0
  0
VERTEX
  8
Image
 10
-67.5409664304893
 20
386.292669959229
 42
0.0
  0
VERTEX
  8
Image
 10
-95.2444169153514
 20
357.905060137014
 42
0.0
  0
VERTEX
  8
Image
 10
-116.791813413123
 20
357.221142308252
 42
0.0
  0
VERTEX
  8
Image
 10
-117.475627738203
 20
392.791183128496
 42
0.0
  0
VERTEX
  8
Image
 10
-94.9025097528106
 20
413.654385787687
 42
0.0
  0
VERTEX
  8
Image
 10
-94.9025097528106
 20
432.123444780867
 42
0.0
  0
VERTEX
  8
Image
 10
-76.7752199172614
 20
432.123444780867
 42
0.0
  0
VERTEX
  8
Image
 10
-48.7298622698595
 20
458.800966770744
 42
0.0
  0
VERTEX
  8
Image
 10
-20.6841596101845
 20
459.142873933285
 42
0.0
  0
VERTEX
  8
Image
 10
-20.0000002728307
 20
437.937660607872
 42
0.0
  0
VERTEX
  8
Image
 10
-44.2833440954705
 20
409.892026950652
 42
0.0
  0
SEQEND
  0
POLYLINE
  8
Image
 66
     1
 10
0.0
 20
0.0
 30
0.0
 70
     1
  0
VERTEX
  8
Image
 10
-184.563205491816
 20
409.220511397261
 42
0.0
  0
VERTEX
  8
Image
 10
-184.169260206758
 20
409.208005618207
 42
0.0
  0
VERTEX
  8
Image
 10
-182.459034369511
 20
386.292669959229
 42
0.0
  0
VERTEX
  8
Image
 10
-154.755583884649
 20
357.905060137014
 42
0.0
  0
VERTEX
  8
Image
 10
-133.208187386878
 20
357.221142308251
 42
0.0
  0
VERTEX
  8
Image
 10
-132.524373061798
 20
392.791183128496
 42
0.0
  0
VERTEX
  8
Image
 10
-155.09749104719
 20
413.654385787687
 42
0.0
  0
VERTEX
  8
Image
 10
-155.09749104719
 20
432.123444780867
 42
0.0
  0
VERTEX
  8
Image
 10
-173.224780882739
 20
432.123444780867
 42
0.0
  0
VERTEX
  8
Image
 10
-201.27013853014
 20
458.800966770744
 42
0.0
  0
VERTEX
  8
Image
 10
-229.315841189816
 20
459.142873933284
 42
0.0
  0
VERTEX
  8
Image
 10
-230.00000052717
 20
437.937660607872
 42
0.0
  0
VERTEX
  8
Image
 10
-205.716656704529
 20
409.892026950652
 42
0.0
  0
SEQEND
  0
POLYLINE
  8
Image
 66
     1
 10
0.0
 20
0.0
 30
0.0
 70
     1
  0
VERTEX
  8
Image
 10
-184.563205491816
 20
524.234046063905
 42
0.0
  0
VERTEX
  8
Image
 10
-184.169260206758
 20
524.24655184296
 42
0.0
  0
VERTEX
  8
Image
 10
-182.459034369511
 20
547.161887501938
 42
0.0
  0
VERTEX
  8
Image
 10
-154.755583884649
 20
575.549497324153
 42
0.0
  0
VERTEX
  8
Image
 10
-133.208187386878
 20
576.233415152916
 42
0.0
  0
VERTEX
  8
Image
 10
-132.524373061798
 20
540.663374332671
 42
0.0
  0
VERTEX
  8
Image
 10
-155.09749104719
 20
519.80017167348
 42
0.0
  0
VERTEX
  8
Image
 10
-155.09749104719
 20
501.3311126803
 42
0.0
  0
VERTEX
  8
Image
 10
-173.224780882739
 20
501.3311126803
 42
0.0
  0
VERTEX
  8
Image
 10
-201.27013853014
 20
474.653590690423
 42
0.0
  0
VERTEX
  8
Image
 10
-229.315841189816
 20
474.311683527883
 42
0.0
  0
VERTEX
  8
Image
 10
-230.00000052717
 20
495.516896853295
 42
0.0
  0
VERTEX
  8
Image
 10
-205.716656704529
 20
523.562530510515
 42
0.0
  0
SEQEND
  0
POLYLINE
  8
Image
 66
     1
 10
0.0
 20
0.0
 30
0.0
 70
     1
  0
VERTEX
  8
Image
 10
-65.4367953081842
 20
643.85687203197
 42
0.0
  0
VERTEX
  8
Image
 10
-65.8307405932424
 20
643.844366252916
 42
0.0
  0
VERTEX
  8
Image
 10
-67.5409664304893
 20
620.929030593938
 42
0.0
  0
VERTEX
  8
Image
 10
-95.2444169153514
 20
592.541420771723
 42
0.0
  0
VERTEX
  8
Image
 10
-116.791813413123
 20
591.85750294296
 42
0.0
  0
VERTEX
  8
Image
 10
-117.475627738203
 20
627.427543763205
 42
0.0
  0
VERTEX
  8
Image
 10
-94.9025097528106
 20
648.290746422395
 42
0.0
  0
VERTEX
  8
Image
 10
-94.9025097528106
 20
666.759805415576
 42
0.0
  0
VERTEX
  8
Image
 10
-76.7752199172614
 20
666.759805415576
 42
0.0
  0
VERTEX
  8
Image
 10
-48.7298622698595
 20
693.437327405453
 42
0.0
  0
VERTEX
  8
Image
 10
-20.6841596101845
 20
693.779234567993
 42
0.0
  0
VERTEX
  8
Image
 10
-20.0000002728307
 20
672.57402124258
 42
0.0
  0
VERTEX
  8
Image
 10
-44.2833440954705
 20
644.52838758536
 42
0.0
  0
SEQEND
  0
POLYLINE
  8
Image
 66
     1
 10
0.0
 20
0.0
 30
0.0
 70
     1
  0
VERTEX
  8
Image
 10
-184.563205491816
 20
643.85687203197
 42
0.0
  0
VERTEX
  8
Image
 10
-184.169260206758
 20
643.844366252916
 42
0.0
  0
VERTEX
  8
Image
 10
-182.459034369511
 20
620.929030593938
 42
0.0
  0
VERTEX
  8
Image
 10
-154.755583884649
 20
592.541420771722
 42
0.0
  0
VERTEX
  8
Image
 10
-133.208187386878
 20
591.85750294296
 42
0.0
  0
VERTEX
  8
Image
 10
-132.524373061798
 20
627.427543763205
 42
0.0
  0
VERTEX
  8
Image
 10
-155.09749104719
 20
648.290746422395
 42
0.0
  0
VERTEX
  8
Image
 10
-155.09749104719
 20
666.759805415576
 42
0.0
  0
VERTEX
  8
Image
 10
-173.224780882739
 20
666.759805415576
 42
0.0
  0
VERTEX
  8
Image
 10
-201.27013853014
 20
693.437327405452
 42
0.0
  0
VERTEX
  8
Image
 10
-229.315841189816
 20
693.779234567993
 42
0.0
  0
VERTEX
  8
Image
 10
-230.00000052717
 20
672.57402124258
 42
0.0
  0
VERTEX
  8
Image
 10
-205.716656704529
 20
644.52838758536
 42
0.0
  0
SEQEND
  0
POLYLINE
  8
Image
 66
     1
 10
0.0
 20
0.0
 30
0.0
 70
     1
  0
VERTEX
  8
Image
 10
-184.563205491816
 20
758.870406698614
 42
0.0
  0
VERTEX
  8
Image
 10
-184.169260206758
 20
758.882912477668
 42
0.0
  0
VERTEX
  8
Image
 10
-182.459034369511
 20
781.798248136647
 42
0.0
  0
VERTEX
  8
Image
 10
-154.755583884649
 20
810.185857958862
 42
0.0
  0
VERTEX
  8
Image
 10
-133.208187386878
 20
810.869775787624
 42
0.0
  0
VERTEX
  8
Image
 10
-132.524373061798
 20
775.299734967379
 42
0.0
  0
VERTEX
  8
Image
 10
-155.09749104719
 20
754.436532308189
 42
0.0
  0
VERTEX
  8
Image
 10
-155.09749104719
 20
735.967473315008
 42
0.0
  0
VERTEX
  8
Image
 10
-173.224780882739
 20
735.967473315008
 42
0.0
  0
VERTEX
  8
Image
 10
-201.27013853014
 20
709.289951325132
 42
0.0
  0
VERTEX
  8
Image
 10
-229.315841189816
 20
708.948044162591
 42
0.0
  0
VERTEX
  8
Image
 10
-230.00000052717
 20
730.153257488004
 42
0.0
  0
VERTEX
  8
Image
 10
-205.716656704529
 20
758.198891145224
 42
0.0
  0
SEQEND
  0
POLYLINE
  8
Image
 66
     1
 10
0.0
 20
0.0
 30
0.0
 70
     1
  0
VERTEX
  8
Image
 10
-65.4367953081842
 20
878.493232666679
 42
0.0
  0
VERTEX
  8
Image
 10
-65.8307405932424
 20
878.480726887624
 42
0.0
  0
VERTEX
  8
Image
 10
-67.5409664304893
 20
855.565391228647
 42
0.0
  0
VERTEX
  8
Image
 10
-95.2444169153514
 20
827.177781406431
 42
0.0
  0
VERTEX
  8
Image
 10
-116.791813413123
 20
826.493863577669
 42
0.0
  0
VERTEX
  8
Image
 10
-117.475627738203
 20
862.063904397913
 42
0.0
  0
VERTEX
  8
Image
 10
-94.9025097528106
 20
882.927107057104
 42
0.0
  0
VERTEX
  8
Image
 10
-94.9025097528106
 20
901.396166050285
 42
0.0
  0
VERTEX
  8
Image
 10
-76.7752199172614
 20
901.396166050285
 42
0.0
  0
VERTEX
  8
Image
 10
-48.7298622698595
 20
928.073688040161
 42
0.0
  0
VERTEX
  8
Image
 10
-20.6841596101845
 20
928.415595202701
 42
0.0
  0
VERTEX
  8
Image
 10
-20.0000002728307
 20
907.210381877288
 42
0.0
  0
VERTEX
  8
Image
 10
-44.2833440954705
 20
879.164748220069
 42
0.0
  0
SEQEND
  0
POLYLINE
  8
Image
 66
     1
 10
0.0
 20
0.0
 30
0.0
 70
     1
  0
VERTEX
  8
Image
 10
-184.563205491816
 20
878.493232666678
 42
0.0
  0
VERTEX
  8
Image
 10
-184.169260206758
 20
878.480726887624
 42
0.0
  0
VERTEX
  8
Image
 10
-182.459034369511
 20
855.565391228646
 42
0.0
  0
VERTEX
  8
Image
 10
-154.755583884649
 20
827.177781406431
 42
0.0
  0
VERTEX
  8
Image
 10
-133.208187386878
 20
826.493863577668
 42
0.0
  0
VERTEX
  8
Image
 10
-132.524373061798
 20
862.063904397913
 42
0.0
  0
VERTEX
  8
Image
 10
-155.09749104719
 20
882.927107057104
 42
0.0
  0
VERTEX
  8
Image
 10
-155.09749104719
 20
901.396166050285
 42
0.0
  0
VERTEX
  8
Image
 10
-173.224780882739
 20
901.396166050285
 42
0.0
  0
VERTEX
  8
Image
 10
-201.27013853014
 20
928.073688040161
 42
0.0
  0
VERTEX
  8
Image
 10
-229.315841189816
 20
928.415595202701
 42
0.0
  0
VERTEX
  8
Image
 10
-230.00000052717
 20
907.210381877288
 42
0.0
  0
VERTEX
  8
Image
 10
-205.716656704529
 20
879.164748220068
 42
0.0
  0
SEQEND
  0
POLYLINE
  8
Image
 66
     1
 10
0.0
 20
0.0
 30
0.0
 70
     1
  0
VERTEX
  8
Image
 10
-155.09749104719
 20
980.000003575
 42
0.0
  0
VERTEX
  8
Image
 10
-155.09749104719
 20
970.603833949716
 42
0.0
  0
VERTEX
  8
Image
 10
-173.224780882739
 20
970.603833949716
 42
0.0
  0
VERTEX
  8
Image
 10
-201.27013853014
 20
943.92631195984
 42
0.0
  0
VERTEX
  8
Image
 10
-229.315841189816
 20
943.5844047973
 42
0.0
  0
VERTEX
  8
Image
 10
-230.00000052717
 20
964.789618122712
 42
0.0
  0
VERTEX
  8
Image
 10
-216.83007097139
 20
980.000003575
 42
0.0
  0
SEQEND
  0
POLYLINE
  8
Image
 66
     1
 10
0.0
 20
0.0
 30
0.0
 70
     1
  0
VERTEX
  8
Image
 10
-33.1699298286103
 20
980.000003575
 42
0.0
  0
VERTEX
  8
Image
 10
-94.9025097528106
 20
980.000003575
 42
0.0
  0
VERTEX
  8
Image
 10
-94.9025097528106
 20
970.603833949716
 42
0.0
  0
VERTEX
  8
Image
 10
-76.7752199172614
 20
970.603833949716
 42
0.0
  0
VERTEX
  8
Image
 10
-48.7298622698595
 20
943.92631195984
 42
0.0
  0
VERTEX
  8
Image
 10
-20.6841596101845
 20
943.5844047973
 42
0.0
  0
VERTEX
  8
Image
 10
-20.0000002728307
 20
964.789618122712
 42
0.0
  0
SEQEND
  0
POLYLINE
  8
Image
 66
     1
 10
0.0
 20
0.0
 30
0.0
 70
     1
  0
VERTEX
  8
Image
 10
-155.09749104719
 20
-980.000003574999
 42
0.0
  0
VERTEX
  8
Image
 10
-155.09749104719
 20
-975.694719027384
 42
0.0
  0
VERTEX
  8
Image
 10
-173.224780882739
 20
-975.694719027384
 42
0.0
  0
VERTEX
  8
Image
 10
-201.27013853014
 20
-949.017197037507
 42
0.0
  0
VERTEX
  8
Image
 10
-229.315841189816
 20
-948.675289874967
 42
0.0
  0
VERTEX
  8
Image
 10
-230.00000052717
 20
-969.88050320038
 42
0.0
  0
VERTEX
  8
Image
 10
-221.238019610151
 20
-980.000003575
 42
0.0
  0
SEQEND
  0
POLYLINE
  8
Image
 66
     1
 10
0.0
 20
0.0
 30
0.0
 70
     1
  0
VERTEX
  8
Image
 10
-28.7619811898494
 20
-980.000003575
 42
0.0
  0
VERTEX
  8
Image
 10
-94.9025097528111
 20
-980.000003574999
 42
0.0
  0
VERTEX
  8
Image
 10
-94.9025097528106
 20
-975.694719027384
 42
0.0
  0
VERTEX
  8
Image
 10
-76.7752199172614
 20
-975.694719027384
 42
0.0
  0
VERTEX
  8
Image
 10
-48.7298622698595
 20
-949.017197037507
 42
0.0
  0
VERTEX
  8
Image
 10
-20.6841596101845
 20
-948.675289874967
 42
0.0
  0
VERTEX
  8
Image
 10
-20.0000002728307
 20
-969.880503200379
 42
0.0
  0
SEQEND
  0
POLYLINE
  8
Image
 66
     1
 10
0.0
 20
0.0
 30
0.0
 70
     1
  0
VERTEX
  8
Image
 10
-65.4367953081842
 20
758.870406698613
 42
0.0
  0
VERTEX
  8
Image
 10
-65.8307405932424
 20
758.882912477668
 42
0.0
  0
VERTEX
  8
Image
 10
-67.5409664304893
 20
781.798248136646
 42
0.0
  0
VERTEX
  8
Image
 10
-95.2444169153509
 20
810.185857958862
 42
0.0
  0
VERTEX
  8
Image
 10
-116.791813413123
 20
810.869775787624
 42
0.0
  0
VERTEX
  8
Image
 10
-117.475627738203
 20
775.299734967379
 42
0.0
  0
VERTEX
  8
Image
 10
-94.9025097528106
 20
754.436532308188
 42
0.0
  0
VERTEX
  8
Image
 10
-94.9025097528106
 20
735.967473315008
 42
0.0
  0
VERTEX
  8
Image
 10
-76.7752199172614
 20
735.967473315008
 42
0.0
  0
VERTEX
  8
Image
 10
-48.7298622698595
 20
709.289951325131
 42
0.0
  0
VERTEX
  8
Image
 10
-20.6841596101845
 20
708.948044162591
 42
0.0
  0
VERTEX
  8
Image
 10
-20.0000002728307
 20
730.153257488003
 42
0.0
  0
VERTEX
  8
Image
 10
-44.2833440954705
 20
758.198891145224
 42
0.0
  0
SEQEND
  0
POLYLINE
  8
Image
 66
     1
 10
0.0
 20
0.0
 30
0.0
 70
     1
  0
VERTEX
  8
Image
 10
-20.0000002728307
 20
773.723140115929
 42
0.0
  0
VERTEX
  8
Image
 10
-20.0000002728307
 20
810.935080518474
 42
0.0
  0
VERTEX
  8
Image
 10
-33.3158411898153
 20
811.097414885347
 42
0.0
  0
VERTEX
  8
Image
 10
-34.0000005271691
 20
789.892201559934
 42
0.0
  0
SEQEND
  0
POLYLINE
  8
Image
 66
     1
 10
0.0
 20
0.0
 30
0.0
 70
     1
  0
VERTEX
  8
Image
 10
-20.0000002728307
 20
826.428558846818
 42
0.0
  0
VERTEX
  8
Image
 10
-33.3158411898153
 20
826.266224479945
 42
0.0
  0
VERTEX
  8
Image
 10
-34.0000005271691
 20
847.471437805358
 42
0.0
  0
VERTEX
  8
Image
 10
-20.0000002728307
 20
863.640499249363
 42
0.0
  0
SEQEND
  0
POLYLINE
  8
Image
 66
     1
 10
0.0
 20
0.0
 30
0.0
 70
     1
  0
VERTEX
  8
Image
 10
-20.0000002728307
 20
539.086779481221
 42
0.0
  0
VERTEX
  8
Image
 10
-20.0000002728307
 20
576.298719883766
 42
0.0
  0
VERTEX
  8
Image
 10
-33.3158411898153
 20
576.461054250639
 42
0.0
  0
VERTEX
  8
Image
 10
-34.0000005271691
 20
555.255840925226
 42
0.0
  0
SEQEND
  0
POLYLINE
  8
Image
 66
     1
 10
0.0
 20
0.0
 30
0.0
 70
     1
  0
VERTEX
  8
Image
 10
-20.0000002728307
 20
591.79219821211
 42
0.0
  0
VERTEX
  8
Image
 10
-33.3158411898153
 20
591.629863845237
 42
0.0
  0
VERTEX
  8
Image
 10
-34.0000005271691
 20
612.83507717065
 42
0.0
  0
VERTEX
  8
Image
 10
-20.0000002728307
 20
629.004138614654
 42
0.0
  0
SEQEND
  0
POLYLINE
  8
Image
 66
     1
 10
0.0
 20
0.0
 30
0.0
 70
     1
  0
VERTEX
  8
Image
 10
-65.4367953081842
 20
524.234046063905
 42
0.0
  0
VERTEX
  8
Image
 10
-65.8307405932424
 20
524.246551842959
 42
0.0
  0
VERTEX
  8
Image
 10
-67.5409664304893
 20
547.161887501938
 42
0.0
  0
VERTEX
  8
Image
 10
-95.2444169153509
 20
575.549497324153
 42
0.0
  0
VERTEX
  8
Image
 10
-116.791813413123
 20
576.233415152915
 42
0.0
  0
VERTEX
  8
Image
 10
-117.475627738203
 20
540.66337433267
 42
0.0
  0
VERTEX
  8
Image
 10
-94.9025097528106
 20
519.80017167348
 42
0.0
  0
VERTEX
  8
Image
 10
-94.9025097528106
 20
501.331112680299
 42
0.0
  0
VERTEX
  8
Image
 10
-76.7752199172614
 20
501.331112680299
 42
0.0
  0
VERTEX
  8
Image
 10
-48.7298622698595
 20
474.653590690423
 42
0.0
  0
VERTEX
  8
Image
 10
-20.6841596101845
 20
474.311683527882
 42
0.0
  0
VERTEX
  8
Image
 10
-20.0000002728307
 20
495.516896853295
 42
0.0
  0
VERTEX
  8
Image
 10
-44.2833440954705
 20
523.562530510515
 42
0.0
  0
SEQEND
  0
POLYLINE
  8
Image
 66
     1
 10
0.0
 20
0.0
 30
0.0
 70
     1
  0
VERTEX
  8
Image
 10
-20.0000002728307
 20
304.450418846513
 42
0.0
  0
VERTEX
  8
Image
 10
-20.0000002728307
 20
341.662359249058
 42
0.0
  0
VERTEX
  8
Image
 10
-33.3158411898153
 20
341.824693615931
 42
0.0
  0
VERTEX
  8
Image
 10
-34.0000005271691
 20
320.619480290517
 42
0.0
  0
SEQEND
  0
POLYLINE
  8
Image
 66
     1
 10
0.0
 20
0.0
 30
0.0
 70
     1
  0
VERTEX
  8
Image
 10
-20.0000002728307
 20
357.155837577402
 42
0.0
  0
VERTEX
  8
Image
 10
-33.3158411898153
 20
356.993503210529
 42
0.0
  0
VERTEX
  8
Image
 10
-34.0000005271691
 20
378.198716535941
 42
0.0
  0
VERTEX
  8
Image
 10
-20.0000002728307
 20
394.367777979946
 42
0.0
  0
SEQEND
  0
POLYLINE
  8
Image
 66
     1
 10
0.0
 20
0.0
 30
0.0
 70
     1
  0
VERTEX
  8
Image
 10
-20.0000002728307
 20
69.814058211804
 42
0.0
  0
VERTEX
  8
Image
 10
-20.0000002728307
 20
107.025998614349
 42
0.0
  0
VERTEX
  8
Image
 10
-33.3158411898153
 20
107.188332981222
 42
0.0
  0
VERTEX
  8
Image
 10
-34.0000005271691
 20
85.9831196558089
 42
0.0
  0
SEQEND
  0
POLYLINE
  8
Image
 66
     1
 10
0.0
 20
0.0
 30
0.0
 70
     1
  0
VERTEX
  8
Image
 10
-20.0000002728307
 20
122.519476942693
 42
0.0
  0
VERTEX
  8
Image
 10
-33.3158411898153
 20
122.35714257582
 42
0.0
  0
VERTEX
  8
Image
 10
-34.0000005271691
 20
143.562355901233
 42
0.0
  0
VERTEX
  8
Image
 10
-20.0000002728307
 20
159.731417345238
 42
0.0
  0
SEQEND
  0
POLYLINE
  8
Image
 66
     1
 10
0.0
 20
0.0
 30
0.0
 70
     1
  0
VERTEX
  8
Image
 10
-65.4367953081842
 20
54.9613247944881
 42
0.0
  0
VERTEX
  8
Image
 10
-65.8307405932424
 20
54.9738305735427
 42
0.0
  0
VERTEX
  8
Image
 10
-67.5409664304893
 20
77.8891662325209
 42
0.0
  0
VERTEX
  8
Image
 10
-95.2444169153509
 20
106.276776054736
 42
0.0
  0
VERTEX
  8
Image
 10
-116.791813413123
 20
106.960693883499
 42
0.0
  0
VERTEX
  8
Image
 10
-117.475627738203
 20
71.3906530632535
 42
0.0
  0
VERTEX
  8
Image
 10
-94.9025097528106
 20
50.5274504040631
 42
0.0
  0
VERTEX
  8
Image
 10
-94.9025097528106
 20
32.0583914108825
 42
0.0
  0
VERTEX
  8
Image
 10
-76.7752199172614
 20
32.0583914108825
 42
0.0
  0
VERTEX
  8
Image
 10
-48.7298622698595
 20
5.3808694210061
 42
0.0
  0
VERTEX
  8
Image
 10
-20.6841596101845
 20
5.0389622584657
 42
0.0
  0
VERTEX
  8
Image
 10
-20.0000002728307
 20
26.2441755838781
 42
0.0
  0
VERTEX
  8
Image
 10
-44.2833440954705
 20
54.2898092410983
 42
0.0
  0
SEQEND
  0
POLYLINE
  8
Image
 66
     1
 10
0.0
 20
0.0
 30
0.0
 70
     1
  0
VERTEX
  8
Image
 10
-20.0000002728307
 20
-164.822302422905
 42
0.0
  0
VERTEX
  8
Image
 10
-20.0000002728307
 20
-127.61036202036
 42
0.0
  0
VERTEX
  8
Image
 10
-33.3158411898153
 20
-127.448027653487
 42
0.0
  0
VERTEX
  8
Image
 10
-34.0000005271691
 20
-148.6532409789
 42
0.0
  0
SEQEND
  0
POLYLINE
  8
Image
 66
     1
 10
0.0
 20
0.0
 30
0.0
 70
     1
  0
VERTEX
  8
Image
 10
-20.0000002728307
 20
-112.116883692016
 42
0.0
  0
VERTEX
  8
Image
 10
-33.3158411898153
 20
-112.279218058889
 42
0.0
  0
VERTEX
  8
Image
 10
-34.0000005271691
 20
-91.0740047334762
 42
0.0
  0
VERTEX
  8
Image
 10
-20.0000002728307
 20
-74.9049432894712
 42
0.0
  0
SEQEND
  0
POLYLINE
  8
Image
 66
     1
 10
0.0
 20
0.0
 30
0.0
 70
     1
  0
VERTEX
  8
Image
 10
-20.0000002728307
 20
-399.458663057614
 42
0.0
  0
VERTEX
  8
Image
 10
-20.0000002728307
 20
-362.246722655069
 42
0.0
  0
VERTEX
  8
Image
 10
-33.3158411898153
 20
-362.084388288195
 42
0.0
  0
VERTEX
  8
Image
 10
-34.0000005271691
 20
-383.289601613609
 42
0.0
  0
SEQEND
  0
POLYLINE
  8
Image
 66
     1
 10
0.0
 20
0.0
 30
0.0
 70
     1
  0
VERTEX
  8
Image
 10
-20.0000002728307
 20
-346.753244326724
 42
0.0
  0
VERTEX
  8
Image
 10
-33.3158411898153
 20
-346.915578693598
 42
0.0
  0
VERTEX
  8
Image
 10
-34.0000005271691
 20
-325.710365368185
 42
0.0
  0
VERTEX
  8
Image
 10
-20.0000002728307
 20
-309.54130392418
 42
0.0
  0
SEQEND
  0
POLYLINE
  8
Image
 66
     1
 10
0.0
 20
0.0
 30
0.0
 70
     1
  0
VERTEX
  8
Image
 10
-20.0000002728307
 20
-634.095023692322
 42
0.0
  0
VERTEX
  8
Image
 10
-20.0000002728307
 20
-596.883083289777
 42
0.0
  0
VERTEX
  8
Image
 10
-33.3158411898153
 20
-596.720748922904
 42
0.0
  0
VERTEX
  8
Image
 10
-34.0000005271691
 20
-617.925962248317
 42
0.0
  0
SEQEND
  0
POLYLINE
  8
Image
 66
     1
 10
0.0
 20
0.0
 30
0.0
 70
     1
  0
VERTEX
  8
Image
 10
-20.0000002728307
 20
-581.389604961433
 42
0.0
  0
VERTEX
  8
Image
 10
-33.3158411898153
 20
-581.551939328306
 42
0.0
  0
VERTEX
  8
Image
 10
-34.0000005271691
 20
-560.346726002893
 42
0.0
  0
VERTEX
  8
Image
 10
-20.0000002728307
 20
-544.177664558888
 42
0.0
  0
SEQEND
  0
POLYLINE
  8
Image
 66
     1
 10
0.0
 20
0.0
 30
0.0
 70
     1
  0
VERTEX
  8
Image
 10
-20.0000002728307
 20
-868.73138432703
 42
0.0
  0
VERTEX
  8
Image
 10
-20.0000002728307
 20
-831.519443924485
 42
0.0
  0
VERTEX
  8
Image
 10
-33.3158411898153
 20
-831.357109557612
 42
0.0
  0
VERTEX
  8
Image
 10
-34.0000005271691
 20
-852.562322883025
 42
0.0
  0
SEQEND
  0
POLYLINE
  8
Image
 66
     1
 10
0.0
 20
0.0
 30
0.0
 70
     1
  0
VERTEX
  8
Image
 10
-20.0000002728307
 20
-816.025965596141
 42
0.0
  0
VERTEX
  8
Image
 10
-33.3158411898153
 20
-816.188299963014
 42
0.0
  0
VERTEX
  8
Image
 10
-34.0000005271691
 20
-794.983086637601
 42
0.0
  0
VERTEX
  8
Image
 10
-20.0000002728307
 20
-778.814025193597
 42
0.0
  0
SEQEND
  0
POLYLINE
  8
Image
 66
     1
 10
0.0
 20
0.0
 30
0.0
 70
     1
  0
VERTEX
  8
Image
 10
-65.4367953081842
 20
-883.584117744346
 42
0.0
  0
VERTEX
  8
Image
 10
-65.8307405932424
 20
-883.571611965292
 42
0.0
  0
VERTEX
  8
Image
 10
-67.5409664304893
 20
-860.656276306313
 42
0.0
  0
VERTEX
  8
Image
 10
-95.2444169153509
 20
-832.268666484098
 42
0.0
  0
VERTEX
  8
Image
 10
-116.791813413123
 20
-831.584748655336
 42
0.0
  0
VERTEX
  8
Image
 10
-117.475627738203
 20
-867.154789475581
 42
0.0
  0
VERTEX
  8
Image
 10
-94.9025097528106
 20
-888.017992134771
 42
0.0
  0
VERTEX
  8
Image
 10
-94.9025097528106
 20
-906.487051127952
 42
0.0
  0
VERTEX
  8
Image
 10
-76.7752199172614
 20
-906.487051127952
 42
0.0
  0
VERTEX
  8
Image
 10
-48.7298622698595
 20
-933.164573117828
 42
0.0
  0
VERTEX
  8
Image
 10
-20.6841596101845
 20
-933.506480280369
 42
0.0
  0
VERTEX
  8
Image
 10
-20.0000002728307
 20
-912.301266954956
 42
0.0
  0
VERTEX
  8
Image
 10
-44.2833440954705
 20
-884.255633297736
 42
0.0
  0
SEQEND
  0
POLYLINE
  8
Image
 66
     1
 10
0.0
 20
0.0
 30
0.0
 70
     1
  0
VERTEX
  8
Image
 10
-230.56668791811
 20
773.723140115929
 42
0.0
  0
VERTEX
  8
Image
 10
-230.56668791811
 20
810.935080518474
 42
0.0
  0
VERTEX
  8
Image
 10
-217.250847001126
 20
811.097414885347
 42
0.0
  0
VERTEX
  8
Image
 10
-216.566687663772
 20
789.892201559934
 42
0.0
  0
SEQEND
  0
POLYLINE
  8
Image
 66
     1
 10
0.0
 20
0.0
 30
0.0
 70
     1
  0
VERTEX
  8
Image
 10
-230.56668791811
 20
826.428558846818
 42
0.0
  0
VERTEX
  8
Image
 10
-217.250847001126
 20
826.266224479945
 42
0.0
  0
VERTEX
  8
Image
 10
-216.566687663772
 20
847.471437805358
 42
0.0
  0
VERTEX
  8
Image
 10
-230.56668791811
 20
863.640499249363
 42
0.0
  0
SEQEND
  0
POLYLINE
  8
Image
 66
     1
 10
0.0
 20
0.0
 30
0.0
 70
     1
  0
VERTEX
  8
Image
 10
-230.56668791811
 20
539.086779481221
 42
0.0
  0
VERTEX
  8
Image
 10
-230.56668791811
 20
576.298719883766
 42
0.0
  0
VERTEX
  8
Image
 10
-217.250847001126
 20
576.461054250639
 42
0.0
  0
VERTEX
  8
Image
 10
-216.566687663772
 20
555.255840925226
 42
0.0
  0
SEQEND
  0
POLYLINE
  8
Image
 66
     1
 10
0.0
 20
0.0
 30
0.0
 70
     1
  0
VERTEX
  8
Image
 10
-230.56668791811
 20
591.79219821211
 42
0.0
  0
VERTEX
  8
Image
 10
-217.250847001126
 20
591.629863845237
 42
0.0
  0
VERTEX
  8
Image
 10
-216.566687663772
 20
612.83507717065
 42
0.0
  0
VERTEX
  8
Image
 10
-230.56668791811
 20
629.004138614654
 42
0.0
  0
SEQEND
  0
POLYLINE
  8
Image
 66
     1
 10
0.0
 20
0.0
 30
0.0
 70
     1
  0
VERTEX
  8
Image
 10
-230.56668791811
 20
304.450418846513
 42
0.0
  0
VERTEX
  8
Image
 10
-230.56668791811
 20
341.662359249058
 42
0.0
  0
VERTEX
  8
Image
 10
-217.250847001126
 20
341.824693615931
 42
0.0
  0
VERTEX
  8
Image
 10
-216.566687663772
 20
320.619480290517
 42
0.0
  0
SEQEND
  0
POLYLINE
  8
Image
 66
     1
 10
0.0
 20
0.0
 30
0.0
 70
     1
  0
VERTEX
  8
Image
 10
-230.56668791811
 20
357.155837577402
 42
0.0
  0
VERTEX
  8
Image
 10
-217.250847001126
 20
356.993503210529
 42
0.0
  0
VERTEX
  8
Image
 10
-216.566687663772
 20
378.198716535941
 42
0.0
  0
VERTEX
  8
Image
 10
-230.56668791811
 20
394.367777979946
 42
0.0
  0
SEQEND
  0
POLYLINE
  8
Image
 66
     1
 10
0.0
 20
0.0
 30
0.0
 70
     1
  0
VERTEX
  8
Image
 10
-230.56668791811
 20
69.814058211804
 42
0.0
  0
VERTEX
  8
Image
 10
-230.56668791811
 20
107.025998614349
 42
0.0
  0
VERTEX
  8
Image
 10
-217.250847001126
 20
107.188332981222
 42
0.0
  0
VERTEX
  8
Image
 10
-216.566687663772
 20
85.9831196558089
 42
0.0
  0
SEQEND
  0
POLYLINE
  8
Image
 66
     1
 10
0.0
 20
0.0
 30
0.0
 70
     1
  0
VERTEX
  8
Image
 10
-230.56668791811
 20
122.519476942693
 42
0.0
  0
VERTEX
  8
Image
 10
-217.250847001126
 20
122.35714257582
 42
0.0
  0
VERTEX
  8
Image
 10
-216.566687663772
 20
143.562355901233
 42
0.0
  0
VERTEX
  8
Image
 10
-230.56668791811
 20
159.731417345238
 42
0.0
  0
SEQEND
  0
POLYLINE
  8
Image
 66
     1
 10
0.0
 20
0.0
 30
0.0
 70
     1
  0
VERTEX
  8
Image
 10
-230.56668791811
 20
-164.822302422905
 42
0.0
  0
VERTEX
  8
Image
 10
-230.56668791811
 20
-127.61036202036
 42
0.0
  0
VERTEX
  8
Image
 10
-217.250847001126
 20
-127.448027653487
 42
0.0
  0
VERTEX
  8
Image
 10
-216.566687663772
 20
-148.6532409789
 42
0.0
  0
SEQEND
  0
POLYLINE
  8
Image
 66
     1
 10
0.0
 20
0.0
 30
0.0
 70
     1
  0
VERTEX
  8
Image
 10
-230.56668791811
 20
-112.116883692016
 42
0.0
  0
VERTEX
  8
Image
 10
-217.250847001126
 20
-112.279218058889
 42
0.0
  0
VERTEX
  8
Image
 10
-216.566687663772
 20
-91.0740047334762
 42
0.0
  0
VERTEX
  8
Image
 10
-230.56668791811
 20
-74.9049432894712
 42
0.0
  0
SEQEND
  0
POLYLINE
  8
Image
 66
     1
 10
0.0
 20
0.0
 30
0.0
 70
     1
  0
VERTEX
  8
Image
 10
-230.56668791811
 20
-399.458663057614
 42
0.0
  0
VERTEX
  8
Image
 10
-230.56668791811
 20
-362.246722655069
 42
0.0
  0
VERTEX
  8
Image
 10
-217.250847001126
 20
-362.084388288195
 42
0.0
  0
VERTEX
  8
Image
 10
-216.566687663772
 20
-383.289601613609
 42
0.0
  0
SEQEND
  0
POLYLINE
  8
Image
 66
     1
 10
0.0
 20
0.0
 30
0.0
 70
     1
  0
VERTEX
  8
Image
 10
-230.56668791811
 20
-346.753244326724
 42
0.0
  0
VERTEX
  8
Image
 10
-217.250847001126
 20
-346.915578693598
 42
0.0
  0
VERTEX
  8
Image
 10
-216.566687663772
 20
-325.710365368185
 42
0.0
  0
VERTEX
  8
Image
 10
-230.56668791811
 20
-309.54130392418
 42
0.0
  0
SEQEND
  0
POLYLINE
  8
Image
 66
     1
 10
0.0
 20
0.0
 30
0.0
 70
     1
  0
VERTEX
  8
Image
 10
-230.56668791811
 20
-634.095023692322
 42
0.0
  0
VERTEX
  8
Image
 10
-230.56668791811
 20
-596.883083289777
 42
0.0
  0
VERTEX
  8
Image
 10
-217.250847001126
 20
-596.720748922904
 42
0.0
  0
VERTEX
  8
Image
 10
-216.566687663772
 20
-617.925962248317
 42
0.0
  0
SEQEND
  0
POLYLINE
  8
Image
 66
     1
 10
0.0
 20
0.0
 30
0.0
 70
     1
  0
VERTEX
  8
Image
 10
-230.56668791811
 20
-581.389604961433
 42
0.0
  0
VERTEX
  8
Image
 10
-217.250847001126
 20
-581.551939328306
 42
0.0
  0
VERTEX
  8
Image
 10
-216.566687663772
 20
-560.346726002893
 42
0.0
  0
VERTEX
  8
Image
 10
-230.56668791811
 20
-544.177664558888
 42
0.0
  0
SEQEND
  0
POLYLINE
  8
Image
 66
     1
 10
0.0
 20
0.0
 30
0.0
 70
     1
  0
VERTEX
  8
Image
 10
-230.56668791811
 20
-868.73138432703
 42
0.0
  0
VERTEX
  8
Image
 10
-230.56668791811
 20
-831.519443924485
 42
0.0
  0
VERTEX
  8
Image
 10
-217.250847001126
 20
-831.357109557612
 42
0.0
  0
VERTEX
  8
Image
 10
-216.566687663772
 20
-852.562322883025
 42
0.0
  0
SEQEND
  0
POLYLINE
  8
Image
 66
     1
 10
0.0
 20
0.0
 30
0.0
 70
     1
  0
VERTEX
  8
Image
 10
-230.56668791811
 20
-816.025965596141
 42
0.0
  0
VERTEX
  8
Image
 10
-217.250847001126
 20
-816.188299963014
 42
0.0
  0
VERTEX
  8
Image
 10
-216.566687663772
 20
-794.983086637601
 42
0.0
  0
VERTEX
  8
Image
 10
-230.56668791811
 20
-778.814025193597
 42
0.0
  0
SEQEND
  0
POLYLINE
  8
Image
 66
     1
 10
0.0
 20
0.0
 30
0.0
 70
     1
  0
VERTEX
  8
Image
 10
65.4367953081833
 20
-883.584117744346
 42
0.0
  0
VERTEX
  8
Image
 10
65.8307405932419
 20
-883.571611965291
 42
0.0
  0
VERTEX
  8
Image
 10
67.5409664304889
 20
-860.656276306313
 42
0.0
  0
VERTEX
  8
Image
 10
95.2444169153505
 20
-832.268666484098
 42
0.0
  0
VERTEX
  8
Image
 10
116.791813413122
 20
-831.584748655335
 42
0.0
  0
VERTEX
  8
Image
 10
117.475627738202
 20
-867.15478947558
 42
0.0
  0
VERTEX
  8
Image
 10
94.9025097528097
 20
-888.017992134771
 42
0.0
  0
VERTEX
  8
Image
 10
94.9025097528097
 20
-906.487051127951
 42
0.0
  0
VERTEX
  8
Image
 10
76.775219917261
 20
-906.487051127951
 42
0.0
  0
VERTEX
  8
Image
 10
48.7298622698595
 20
-933.164573117828
 42
0.0
  0
VERTEX
  8
Image
 10
20.684159610184
 20
-933.506480280368
 42
0.0
  0
VERTEX
  8
Image
 10
20.0000002728302
 20
-912.301266954956
 42
0.0
  0
VERTEX
  8
Image
 10
44.2833440954705
 20
-884.255633297736
 42
0.0
  0
SEQEND
  0
POLYLINE
  8
Image
 66
     1
 10
0.0
 20
0.0
 30
0.0
 70
     1
  0
VERTEX
  8
Image
 10
184.563205491816
 20
-763.961291776281
 42
0.0
  0
VERTEX
  8
Image
 10
184.169260206757
 20
-763.973797555335
 42
0.0
  0
VERTEX
  8
Image
 10
182.45903436951
 20
-786.889133214313
 42
0.0
  0
VERTEX
  8
Image
 10
154.755583884648
 20
-815.276743036529
 42
0.0
  0
VERTEX
  8
Image
 10
133.208187386877
 20
-815.960660865291
 42
0.0
  0
VERTEX
  8
Image
 10
132.524373061797
 20
-780.390620045046
 42
0.0
  0
VERTEX
  8
Image
 10
155.097491047189
 20
-759.527417385856
 42
0.0
  0
VERTEX
  8
Image
 10
155.097491047189
 20
-741.058358392675
 42
0.0
  0
VERTEX
  8
Image
 10
173.224780882738
 20
-741.058358392675
 42
0.0
  0
VERTEX
  8
Image
 10
201.27013853014
 20
-714.380836402799
 42
0.0
  0
VERTEX
  8
Image
 10
229.315841189815
 20
-714.038929240258
 42
0.0
  0
VERTEX
  8
Image
 10
230.000000527169
 20
-735.244142565671
 42
0.0
  0
VERTEX
  8
Image
 10
205.716656704529
 20
-763.289776222891
 42
0.0
  0
SEQEND
  0
POLYLINE
  8
Image
 66
     1
 10
0.0
 20
0.0
 30
0.0
 70
     1
  0
VERTEX
  8
Image
 10
65.4367953081833
 20
-763.961291776281
 42
0.0
  0
VERTEX
  8
Image
 10
65.8307405932419
 20
-763.973797555336
 42
0.0
  0
VERTEX
  8
Image
 10
67.5409664304889
 20
-786.889133214314
 42
0.0
  0
VERTEX
  8
Image
 10
95.2444169153505
 20
-815.276743036529
 42
0.0
  0
VERTEX
  8
Image
 10
116.791813413122
 20
-815.960660865291
 42
0.0
  0
VERTEX
  8
Image
 10
117.475627738202
 20
-780.390620045046
 42
0.0
  0
VERTEX
  8
Image
 10
94.9025097528097
 20
-759.527417385856
 42
0.0
  0
VERTEX
  8
Image
 10
94.9025097528097
 20
-741.058358392675
 42
0.0
  0
VERTEX
  8
Image
 10
76.775219917261
 20
-741.058358392675
 42
0.0
  0
VERTEX
  8
Image
 10
48.7298622698595
 20
-714.380836402799
 42
0.0
  0
VERTEX
  8
Image
 10
20.684159610184
 20
-714.038929240259
 42
0.0
  0
VERTEX
  8
Image
 10
20.0000002728302
 20
-735.244142565671
 42
0.0
  0
VERTEX
  8
Image
 10
44.2833440954705
 20
-763.289776222891
 42
0.0
  0
SEQEND
  0
POLYLINE
  8
Image
 66
     1
 10
0.0
 20
0.0
 30
0.0
 70
     1
  0
VERTEX
  8
Image
 10
65.4367953081833
 20
-648.947757109637
 42
0.0
  0
VERTEX
  8
Image
 10
65.8307405932419
 20
-648.935251330583
 42
0.0
  0
VERTEX
  8
Image
 10
67.5409664304889
 20
-626.019915671605
 42
0.0
  0
VERTEX
  8
Image
 10
95.2444169153505
 20
-597.632305849389
 42
0.0
  0
VERTEX
  8
Image
 10
116.791813413122
 20
-596.948388020627
 42
0.0
  0
VERTEX
  8
Image
 10
117.475627738202
 20
-632.518428840872
 42
0.0
  0
VERTEX
  8
Image
 10
94.9025097528097
 20
-653.381631500063
 42
0.0
  0
VERTEX
  8
Image
 10
94.9025097528097
 20
-671.850690493243
 42
0.0
  0
VERTEX
  8
Image
 10
76.775219917261
 20
-671.850690493243
 42
0.0
  0
VERTEX
  8
Image
 10
48.7298622698595
 20
-698.52821248312
 42
0.0
  0
VERTEX
  8
Image
 10
20.684159610184
 20
-698.87011964566
 42
0.0
  0
VERTEX
  8
Image
 10
20.0000002728302
 20
-677.664906320247
 42
0.0
  0
VERTEX
  8
Image
 10
44.2833440954705
 20
-649.619272663027
 42
0.0
  0
SEQEND
  0
POLYLINE
  8
Image
 66
     1
 10
0.0
 20
0.0
 30
0.0
 70
     1
  0
VERTEX
  8
Image
 10
184.563205491816
 20
-648.947757109638
 42
0.0
  0
VERTEX
  8
Image
 10
184.169260206757
 20
-648.935251330583
 42
0.0
  0
VERTEX
  8
Image
 10
182.45903436951
 20
-626.019915671605
 42
0.0
  0
VERTEX
  8
Image
 10
154.755583884648
 20
-597.63230584939
 42
0.0
  0
VERTEX
  8
Image
 10
133.208187386877
 20
-596.948388020628
 42
0.0
  0
VERTEX
  8
Image
 10
132.524373061797
 20
-632.518428840872
 42
0.0
  0
VERTEX
  8
Image
 10
155.097491047189
 20
-653.381631500063
 42
0.0
  0
VERTEX
  8
Image
 10
155.097491047189
 20
-671.850690493243
 42
0.0
  0
VERTEX
  8
Image
 10
173.224780882738
 20
-671.850690493243
 42
0.0
  0
VERTEX
  8
Image
 10
201.27013853014
 20
-698.52821248312
 42
0.0
  0
VERTEX
  8
Image
 10
229.315841189815
 20
-698.87011964566
 42
0.0
  0
VERTEX
  8
Image
 10
230.000000527169
 20
-677.664906320248
 42
0.0
  0
VERTEX
  8
Image
 10
205.716656704529
 20
-649.619272663027
 42
0.0
  0
SEQEND
  0
POLYLINE
  8
Image
 66
     1
 10
0.0
 20
0.0
 30
0.0
 70
     1
  0
VERTEX
  8
Image
 10
184.563205491816
 20
-529.324931141572
 42
0.0
  0
VERTEX
  8
Image
 10
184.169260206757
 20
-529.337436920627
 42
0.0
  0
VERTEX
  8
Image
 10
182.45903436951
 20
-552.252772579605
 42
0.0
  0
VERTEX
  8
Image
 10
154.755583884648
 20
-580.64038240182
 42
0.0
  0
VERTEX
  8
Image
 10
133.208187386877
 20
-581.324300230583
 42
0.0
  0
VERTEX
  8
Image
 10
132.524373061797
 20
-545.754259410337
 42
0.0
  0
VERTEX
  8
Image
 10
155.097491047189
 20
-524.891056751147
 42
0.0
  0
VERTEX
  8
Image
 10
155.097491047189
 20
-506.421997757966
 42
0.0
  0
VERTEX
  8
Image
 10
173.224780882738
 20
-506.421997757966
 42
0.0
  0
VERTEX
  8
Image
 10
201.27013853014
 20
-479.74447576809
 42
0.0
  0
VERTEX
  8
Image
 10
229.315841189815
 20
-479.40256860555
 42
0.0
  0
VERTEX
  8
Image
 10
230.000000527169
 20
-500.607781930962
 42
0.0
  0
VERTEX
  8
Image
 10
205.716656704529
 20
-528.653415588182
 42
0.0
  0
SEQEND
  0
POLYLINE
  8
Image
 66
     1
 10
0.0
 20
0.0
 30
0.0
 70
     1
  0
VERTEX
  8
Image
 10
65.4367953081833
 20
-529.324931141573
 42
0.0
  0
VERTEX
  8
Image
 10
65.8307405932419
 20
-529.337436920627
 42
0.0
  0
VERTEX
  8
Image
 10
67.5409664304889
 20
-552.252772579605
 42
0.0
  0
VERTEX
  8
Image
 10
95.2444169153505
 20
-580.640382401821
 42
0.0
  0
VERTEX
  8
Image
 10
116.791813413122
 20
-581.324300230583
 42
0.0
  0
VERTEX
  8
Image
 10
117.475627738202
 20
-545.754259410338
 42
0.0
  0
VERTEX
  8
Image
 10
94.9025097528097
 20
-524.891056751148
 42
0.0
  0
VERTEX
  8
Image
 10
94.9025097528097
 20
-506.421997757967
 42
0.0
  0
VERTEX
  8
Image
 10
76.775219917261
 20
-506.421997757967
 42
0.0
  0
VERTEX
  8
Image
 10
48.7298622698595
 20
-479.744475768091
 42
0.0
  0
VERTEX
  8
Image
 10
20.684159610184
 20
-479.40256860555
 42
0.0
  0
VERTEX
  8
Image
 10
20.0000002728302
 20
-500.607781930963
 42
0.0
  0
VERTEX
  8
Image
 10
44.2833440954705
 20
-528.653415588183
 42
0.0
  0
SEQEND
  0
POLYLINE
  8
Image
 66
     1
 10
0.0
 20
0.0
 30
0.0
 70
     1
  0
VERTEX
  8
Image
 10
65.4367953081833
 20
-414.311396474929
 42
0.0
  0
VERTEX
  8
Image
 10
65.8307405932419
 20
-414.298890695874
 42
0.0
  0
VERTEX
  8
Image
 10
67.5409664304889
 20
-391.383555036896
 42
0.0
  0
VERTEX
  8
Image
 10
95.2444169153505
 20
-362.995945214681
 42
0.0
  0
VERTEX
  8
Image
 10
116.791813413122
 20
-362.312027385919
 42
0.0
  0
VERTEX
  8
Image
 10
117.475627738202
 20
-397.882068206163
 42
0.0
  0
VERTEX
  8
Image
 10
94.9025097528097
 20
-418.745270865354
 42
0.0
  0
VERTEX
  8
Image
 10
94.9025097528097
 20
-437.214329858534
 42
0.0
  0
VERTEX
  8
Image
 10
76.775219917261
 20
-437.214329858534
 42
0.0
  0
VERTEX
  8
Image
 10
48.7298622698595
 20
-463.891851848411
 42
0.0
  0
VERTEX
  8
Image
 10
20.684159610184
 20
-464.233759010951
 42
0.0
  0
VERTEX
  8
Image
 10
20.0000002728302
 20
-443.028545685539
 42
0.0
  0
VERTEX
  8
Image
 10
44.2833440954705
 20
-414.982912028319
 42
0.0
  0
SEQEND
  0
POLYLINE
  8
Image
 66
     1
 10
0.0
 20
0.0
 30
0.0
 70
     1
  0
VERTEX
  8
Image
 10
184.563205491816
 20
-414.311396474929
 42
0.0
  0
VERTEX
  8
Image
 10
184.169260206757
 20
-414.298890695875
 42
0.0
  0
VERTEX
  8
Image
 10
182.45903436951
 20
-391.383555036897
 42
0.0
  0
VERTEX
  8
Image
 10
154.755583884648
 20
-362.995945214681
 42
0.0
  0
VERTEX
  8
Image
 10
133.208187386877
 20
-362.312027385919
 42
0.0
  0
VERTEX
  8
Image
 10
132.524373061797
 20
-397.882068206164
 42
0.0
  0
VERTEX
  8
Image
 10
155.097491047189
 20
-418.745270865355
 42
0.0
  0
VERTEX
  8
Image
 10
155.097491047189
 20
-437.214329858535
 42
0.0
  0
VERTEX
  8
Image
 10
173.224780882738
 20
-437.214329858535
 42
0.0
  0
VERTEX
  8
Image
 10
201.27013853014
 20
-463.891851848412
 42
0.0
  0
VERTEX
  8
Image
 10
229.315841189815
 20
-464.233759010952
 42
0.0
  0
VERTEX
  8
Image
 10
230.000000527169
 20
-443.028545685539
 42
0.0
  0
VERTEX
  8
Image
 10
205.716656704529
 20
-414.982912028319
 42
0.0
  0
SEQEND
  0
POLYLINE
  8
Image
 66
     1
 10
0.0
 20
0.0
 30
0.0
 70
     1
  0
VERTEX
  8
Image
 10
184.563205491816
 20
-294.688570506863
 42
0.0
  0
VERTEX
  8
Image
 10
184.169260206757
 20
-294.701076285918
 42
0.0
  0
VERTEX
  8
Image
 10
182.45903436951
 20
-317.616411944896
 42
0.0
  0
VERTEX
  8
Image
 10
154.755583884648
 20
-346.004021767112
 42
0.0
  0
VERTEX
  8
Image
 10
133.208187386877
 20
-346.687939595874
 42
0.0
  0
VERTEX
  8
Image
 10
132.524373061797
 20
-311.117898775629
 42
0.0
  0
VERTEX
  8
Image
 10
155.097491047189
 20
-290.254696116438
 42
0.0
  0
VERTEX
  8
Image
 10
155.097491047189
 20
-271.785637123258
 42
0.0
  0
VERTEX
  8
Image
 10
173.224780882738
 20
-271.785637123258
 42
0.0
  0
VERTEX
  8
Image
 10
201.27013853014
 20
-245.108115133381
 42
0.0
  0
VERTEX
  8
Image
 10
229.315841189815
 20
-244.766207970841
 42
0.0
  0
VERTEX
  8
Image
 10
230.000000527169
 20
-265.971421296254
 42
0.0
  0
VERTEX
  8
Image
 10
205.716656704529
 20
-294.017054953474
 42
0.0
  0
SEQEND
  0
POLYLINE
  8
Image
 66
     1
 10
0.0
 20
0.0
 30
0.0
 70
     1
  0
VERTEX
  8
Image
 10
65.4367953081833
 20
-294.688570506864
 42
0.0
  0
VERTEX
  8
Image
 10
65.8307405932419
 20
-294.701076285919
 42
0.0
  0
VERTEX
  8
Image
 10
67.5409664304889
 20
-317.616411944897
 42
0.0
  0
VERTEX
  8
Image
 10
95.2444169153505
 20
-346.004021767112
 42
0.0
  0
VERTEX
  8
Image
 10
116.791813413122
 20
-346.687939595874
 42
0.0
  0
VERTEX
  8
Image
 10
117.475627738202
 20
-311.117898775629
 42
0.0
  0
VERTEX
  8
Image
 10
94.9025097528097
 20
-290.254696116439
 42
0.0
  0
VERTEX
  8
Image
 10
94.9025097528097
 20
-271.785637123258
 42
0.0
  0
VERTEX
  8
Image
 10
76.775219917261
 20
-271.785637123258
 42
0.0
  0
VERTEX
  8
Image
 10
48.7298622698595
 20
-245.108115133382
 42
0.0
  0
VERTEX
  8
Image
 10
20.684159610184
 20
-244.766207970842
 42
0.0
  0
VERTEX
  8
Image
 10
20.0000002728302
 20
-265.971421296254
 42
0.0
  0
VERTEX
  8
Image
 10
44.2833440954705
 20
-294.017054953474
 42
0.0
  0
SEQEND
  0
POLYLINE
  8
Image
 66
     1
 10
0.0
 20
0.0
 30
0.0
 70
     1
  0
VERTEX
  8
Image
 10
65.4367953081833
 20
-179.675035840221
 42
0.0
  0
VERTEX
  8
Image
 10
65.8307405932419
 20
-179.662530061166
 42
0.0
  0
VERTEX
  8
Image
 10
67.5409664304889
 20
-156.747194402188
 42
0.0
  0
VERTEX
  8
Image
 10
95.2444169153505
 20
-128.359584579972
 42
0.0
  0
VERTEX
  8
Image
 10
116.791813413122
 20
-127.67566675121
 42
0.0
  0
VERTEX
  8
Image
 10
117.475627738202
 20
-163.245707571455
 42
0.0
  0
VERTEX
  8
Image
 10
94.9025097528097
 20
-184.108910230646
 42
0.0
  0
VERTEX
  8
Image
 10
94.9025097528097
 20
-202.577969223826
 42
0.0
  0
VERTEX
  8
Image
 10
76.775219917261
 20
-202.577969223826
 42
0.0
  0
VERTEX
  8
Image
 10
48.7298622698595
 20
-229.255491213702
 42
0.0
  0
VERTEX
  8
Image
 10
20.684159610184
 20
-229.597398376243
 42
0.0
  0
VERTEX
  8
Image
 10
20.0000002728302
 20
-208.39218505083
 42
0.0
  0
VERTEX
  8
Image
 10
44.2833440954705
 20
-180.34655139361
 42
0.0
  0
SEQEND
  0
POLYLINE
  8
Image
 66
     1
 10
0.0
 20
0.0
 30
0.0
 70
     1
  0
VERTEX
  8
Image
 10
184.563205491816
 20
-179.675035840221
 42
0.0
  0
VERTEX
  8
Image
 10
184.169260206757
 20
-179.662530061166
 42
0.0
  0
VERTEX
  8
Image
 10
182.45903436951
 20
-156.747194402188
 42
0.0
  0
VERTEX
  8
Image
 10
154.755583884648
 20
-128.359584579973
 42
0.0
  0
VERTEX
  8
Image
 10
133.208187386877
 20
-127.67566675121
 42
0.0
  0
VERTEX
  8
Image
 10
132.524373061797
 20
-163.245707571455
 42
0.0
  0
VERTEX
  8
Image
 10
155.097491047189
 20
-184.108910230646
 42
0.0
  0
VERTEX
  8
Image
 10
155.097491047189
 20
-202.577969223826
 42
0.0
  0
VERTEX
  8
Image
 10
173.224780882738
 20
-202.577969223826
 42
0.0
  0
VERTEX
  8
Image
 10
201.27013853014
 20
-229.255491213703
 42
0.0
  0
VERTEX
  8
Image
 10
229.315841189815
 20
-229.597398376243
 42
0.0
  0
VERTEX
  8
Image
 10
230.000000527169
 20
-208.392185050831
 42
0.0
  0
VERTEX
  8
Image
 10
205.716656704529
 20
-180.346551393611
 42
0.0
  0
SEQEND
  0
POLYLINE
  8
Image
 66
     1
 10
0.0
 20
0.0
 30
0.0
 70
     1
  0
VERTEX
  8
Image
 10
184.563205491816
 20
-60.0522098721549
 42
0.0
  0
VERTEX
  8
Image
 10
184.169260206757
 20
-60.0647156512096
 42
0.0
  0
VERTEX
  8
Image
 10
182.45903436951
 20
-82.9800513101877
 42
0.0
  0
VERTEX
  8
Image
 10
154.755583884648
 20
-111.367661132403
 42
0.0
  0
VERTEX
  8
Image
 10
133.208187386877
 20
-112.051578961165
 42
0.0
  0
VERTEX
  8
Image
 10
132.524373061797
 20
-76.4815381409203
 42
0.0
  0
VERTEX
  8
Image
 10
155.097491047189
 20
-55.6183354817299
 42
0.0
  0
VERTEX
  8
Image
 10
155.097491047189
 20
-37.1492764885493
 42
0.0
  0
VERTEX
  8
Image
 10
173.224780882738
 20
-37.1492764885493
 42
0.0
  0
VERTEX
  8
Image
 10
201.27013853014
 20
-10.4717544986729
 42
0.0
  0
VERTEX
  8
Image
 10
229.315841189815
 20
-10.1298473361326
 42
0.0
  0
VERTEX
  8
Image
 10
230.000000527169
 20
-31.335060661545
 42
0.0
  0
VERTEX
  8
Image
 10
205.716656704529
 20
-59.3806943187651
 42
0.0
  0
SEQEND
  0
POLYLINE
  8
Image
 66
     1
 10
0.0
 20
0.0
 30
0.0
 70
     1
  0
VERTEX
  8
Image
 10
65.4367953081833
 20
-60.0522098721553
 42
0.0
  0
VERTEX
  8
Image
 10
65.8307405932419
 20
-60.06471565121
 42
0.0
  0
VERTEX
  8
Image
 10
67.5409664304889
 20
-82.9800513101882
 42
0.0
  0
VERTEX
  8
Image
 10
95.2444169153505
 20
-111.367661132404
 42
0.0
  0
VERTEX
  8
Image
 10
116.791813413122
 20
-112.051578961166
 42
0.0
  0
VERTEX
  8
Image
 10
117.475627738202
 20
-76.4815381409207
 42
0.0
  0
VERTEX
  8
Image
 10
94.9025097528097
 20
-55.6183354817304
 42
0.0
  0
VERTEX
  8
Image
 10
94.9025097528097
 20
-37.1492764885497
 42
0.0
  0
VERTEX
  8
Image
 10
76.775219917261
 20
-37.1492764885497
 42
0.0
  0
VERTEX
  8
Image
 10
48.7298622698595
 20
-10.4717544986734
 42
0.0
  0
VERTEX
  8
Image
 10
20.684159610184
 20
-10.129847336133
 42
0.0
  0
VERTEX
  8
Image
 10
20.0000002728302
 20
-31.3350606615454
 42
0.0
  0
VERTEX
  8
Image
 10
44.2833440954705
 20
-59.3806943187656
 42
0.0
  0
SEQEND
  0
POLYLINE
  8
Image
 66
     1
 10
0.0
 20
0.0
 30
0.0
 70
     1
  0
VERTEX
  8
Image
 10
65.4367953081833
 20
54.9613247944881
 42
0.0
  0
VERTEX
  8
Image
 10
65.8307405932419
 20
54.9738305735427
 42
0.0
  0
VERTEX
  8
Image
 10
67.5409664304889
 20
77.8891662325209
 42
0.0
  0
VERTEX
  8
Image
 10
95.2444169153505
 20
106.276776054736
 42
0.0
  0
VERTEX
  8
Image
 10
116.791813413122
 20
106.960693883499
 42
0.0
  0
VERTEX
  8
Image
 10
117.475627738202
 20
71.3906530632535
 42
0.0
  0
VERTEX
  8
Image
 10
94.9025097528097
 20
50.5274504040631
 42
0.0
  0
VERTEX
  8
Image
 10
94.9025097528097
 20
32.0583914108825
 42
0.0
  0
VERTEX
  8
Image
 10
76.775219917261
 20
32.0583914108825
 42
0.0
  0
VERTEX
  8
Image
 10
48.7298622698595
 20
5.3808694210061
 42
0.0
  0
VERTEX
  8
Image
 10
20.684159610184
 20
5.0389622584657
 42
0.0
  0
VERTEX
  8
Image
 10
20.0000002728302
 20
26.2441755838781
 42
0.0
  0
VERTEX
  8
Image
 10
44.2833440954705
 20
54.2898092410983
 42
0.0
  0
SEQEND
  0
POLYLINE
  8
Image
 66
     1
 10
0.0
 20
0.0
 30
0.0
 70
     1
  0
VERTEX
  8
Image
 10
184.563205491816
 20
174.584150762553
 42
0.0
  0
VERTEX
  8
Image
 10
184.169260206757
 20
174.571644983499
 42
0.0
  0
VERTEX
  8
Image
 10
182.45903436951
 20
151.656309324521
 42
0.0
  0
VERTEX
  8
Image
 10
154.755583884648
 20
123.268699502305
 42
0.0
  0
VERTEX
  8
Image
 10
133.208187386877
 20
122.584781673543
 42
0.0
  0
VERTEX
  8
Image
 10
132.524373061797
 20
158.154822493788
 42
0.0
  0
VERTEX
  8
Image
 10
155.097491047189
 20
179.018025152979
 42
0.0
  0
VERTEX
  8
Image
 10
155.097491047189
 20
197.487084146159
 42
0.0
  0
VERTEX
  8
Image
 10
173.224780882738
 20
197.487084146159
 42
0.0
  0
VERTEX
  8
Image
 10
201.27013853014
 20
224.164606136036
 42
0.0
  0
VERTEX
  8
Image
 10
229.315841189815
 20
224.506513298576
 42
0.0
  0
VERTEX
  8
Image
 10
230.000000527169
 20
203.301299973164
 42
0.0
  0
VERTEX
  8
Image
 10
205.716656704529
 20
175.255666315943
 42
0.0
  0
SEQEND
  0
POLYLINE
  8
Image
 66
     1
 10
0.0
 20
0.0
 30
0.0
 70
     1
  0
VERTEX
  8
Image
 10
65.4367953081833
 20
174.584150762553
 42
0.0
  0
VERTEX
  8
Image
 10
65.8307405932419
 20
174.571644983499
 42
0.0
  0
VERTEX
  8
Image
 10
67.5409664304889
 20
151.65630932452
 42
0.0
  0
VERTEX
  8
Image
 10
95.2444169153505
 20
123.268699502305
 42
0.0
  0
VERTEX
  8
Image
 10
116.791813413122
 20
122.584781673543
 42
0.0
  0
VERTEX
  8
Image
 10
117.475627738202
 20
158.154822493788
 42
0.0
  0
VERTEX
  8
Image
 10
94.9025097528097
 20
179.018025152978
 42
0.0
  0
VERTEX
  8
Image
 10
94.9025097528097
 20
197.487084146159
 42
0.0
  0
VERTEX
  8
Image
 10
76.775219917261
 20
197.487084146159
 42
0.0
  0
VERTEX
  8
Image
 10
48.7298622698595
 20
224.164606136035
 42
0.0
  0
VERTEX
  8
Image
 10
20.684159610184
 20
224.506513298576
 42
0.0
  0
VERTEX
  8
Image
 10
20.0000002728302
 20
203.301299973163
 42
0.0
  0
VERTEX
  8
Image
 10
44.2833440954705
 20
175.255666315943
 42
0.0
  0
SEQEND
  0
POLYLINE
  8
Image
 66
     1
 10
0.0
 20
0.0
 30
0.0
 70
     1
  0
VERTEX
  8
Image
 10
65.4367953081833
 20
289.597685429197
 42
0.0
  0
VERTEX
  8
Image
 10
65.8307405932419
 20
289.610191208251
 42
0.0
  0
VERTEX
  8
Image
 10
67.5409664304889
 20
312.525526867229
 42
0.0
  0
VERTEX
  8
Image
 10
95.2444169153505
 20
340.913136689445
 42
0.0
  0
VERTEX
  8
Image
 10
116.791813413122
 20
341.597054518207
 42
0.0
  0
VERTEX
  8
Image
 10
117.475627738202
 20
306.027013697962
 42
0.0
  0
VERTEX
  8
Image
 10
94.9025097528097
 20
285.163811038772
 42
0.0
  0
VERTEX
  8
Image
 10
94.9025097528097
 20
266.694752045591
 42
0.0
  0
VERTEX
  8
Image
 10
76.775219917261
 20
266.694752045591
 42
0.0
  0
VERTEX
  8
Image
 10
48.7298622698595
 20
240.017230055715
 42
0.0
  0
VERTEX
  8
Image
 10
20.684159610184
 20
239.675322893174
 42
0.0
  0
VERTEX
  8
Image
 10
20.0000002728302
 20
260.880536218587
 42
0.0
  0
VERTEX
  8
Image
 10
44.2833440954705
 20
288.926169875807
 42
0.0
  0
SEQEND
  0
POLYLINE
  8
Image
 66
     1
 10
0.0
 20
0.0
 30
0.0
 70
     1
  0
VERTEX
  8
Image
 10
184.563205491816
 20
289.597685429196
 42
0.0
  0
VERTEX
  8
Image
 10
184.169260206757
 20
289.610191208251
 42
0.0
  0
VERTEX
  8
Image
 10
182.45903436951
 20
312.525526867229
 42
0.0
  0
VERTEX
  8
Image
 10
154.755583884648
 20
340.913136689444
 42
0.0
  0
VERTEX
  8
Image
 10
133.208187386877
 20
341.597054518207
 42
0.0
  0
VERTEX
  8
Image
 10
132.524373061797
 20
306.027013697962
 42
0.0
  0
VERTEX
  8
Image
 10
155.097491047189
 20
285.163811038771
 42
0.0
  0
VERTEX
  8
Image
 10
155.097491047189
 20
266.694752045591
 42
0.0
  0
VERTEX
  8
Image
 10
173.224780882738
 20
266.694752045591
 42
0.0
  0
VERTEX
  8
Image
 10
201.27013853014
 20
240.017230055714
 42
0.0
  0
VERTEX
  8
Image
 10
229.315841189815
 20
239.675322893174
 42
0.0
  0
VERTEX
  8
Image
 10
230.000000527169
 20
260.880536218586
 42
0.0
  0
VERTEX
  8
Image
 10
205.716656704529
 20
288.926169875806
 42
0.0
  0
SEQEND
  0
POLYLINE
  8
Image
 66
     1
 10
0.0
 20
0.0
 30
0.0
 70
     1
  0
VERTEX
  8
Image
 10
184.563205491816
 20
409.220511397262
 42
0.0
  0
VERTEX
  8
Image
 10
184.169260206757
 20
409.208005618208
 42
0.0
  0
VERTEX
  8
Image
 10
182.45903436951
 20
386.292669959229
 42
0.0
  0
VERTEX
  8
Image
 10
154.755583884648
 20
357.905060137014
 42
0.0
  0
VERTEX
  8
Image
 10
133.208187386877
 20
357.221142308252
 42
0.0
  0
VERTEX
  8
Image
 10
132.524373061797
 20
392.791183128496
 42
0.0
  0
VERTEX
  8
Image
 10
155.097491047189
 20
413.654385787687
 42
0.0
  0
VERTEX
  8
Image
 10
155.097491047189
 20
432.123444780867
 42
0.0
  0
VERTEX
  8
Image
 10
173.224780882738
 20
432.123444780867
 42
0.0
  0
VERTEX
  8
Image
 10
201.27013853014
 20
458.800966770744
 42
0.0
  0
VERTEX
  8
Image
 10
229.315841189815
 20
459.142873933285
 42
0.0
  0
VERTEX
  8
Image
 10
230.000000527169
 20
437.937660607872
 42
0.0
  0
VERTEX
  8
Image
 10
205.716656704529
 20
409.892026950652
 42
0.0
  0
SEQEND
  0
POLYLINE
  8
Image
 66
     1
 10
0.0
 20
0.0
 30
0.0
 70
     1
  0
VERTEX
  8
Image
 10
65.4367953081833
 20
409.220511397261
 42
0.0
  0
VERTEX
  8
Image
 10
65.8307405932419
 20
409.208005618207
 42
0.0
  0
VERTEX
  8
Image
 10
67.5409664304889
 20
386.292669959229
 42
0.0
  0
VERTEX
  8
Image
 10
95.2444169153505
 20
357.905060137014
 42
0.0
  0
VERTEX
  8
Image
 10
116.791813413122
 20
357.221142308251
 42
0.0
  0
VERTEX
  8
Image
 10
117.475627738202
 20
392.791183128496
 42
0.0
  0
VERTEX
  8
Image
 10
94.9025097528097
 20
413.654385787687
 42
0.0
  0
VERTEX
  8
Image
 10
94.9025097528097
 20
432.123444780867
 42
0.0
  0
VERTEX
  8
Image
 10
76.775219917261
 20
432.123444780867
 42
0.0
  0
VERTEX
  8
Image
 10
48.7298622698595
 20
458.800966770744
 42
0.0
  0
VERTEX
  8
Image
 10
20.684159610184
 20
459.142873933284
 42
0.0
  0
VERTEX
  8
Image
 10
20.0000002728302
 20
437.937660607872
 42
0.0
  0
VERTEX
  8
Image
 10
44.2833440954705
 20
409.892026950652
 42
0.0
  0
SEQEND
  0
POLYLINE
  8
Image
 66
     1
 10
0.0
 20
0.0
 30
0.0
 70
     1
  0
VERTEX
  8
Image
 10
65.4367953081833
 20
524.234046063905
 42
0.0
  0
VERTEX
  8
Image
 10
65.8307405932419
 20
524.24655184296
 42
0.0
  0
VERTEX
  8
Image
 10
67.5409664304889
 20
547.161887501938
 42
0.0
  0
VERTEX
  8
Image
 10
95.2444169153505
 20
575.549497324153
 42
0.0
  0
VERTEX
  8
Image
 10
116.791813413122
 20
576.233415152916
 42
0.0
  0
VERTEX
  8
Image
 10
117.475627738202
 20
540.663374332671
 42
0.0
  0
VERTEX
  8
Image
 10
94.9025097528097
 20
519.80017167348
 42
0.0
  0
VERTEX
  8
Image
 10
94.9025097528097
 20
501.3311126803
 42
0.0
  0
VERTEX
  8
Image
 10
76.775219917261
 20
501.3311126803
 42
0.0
  0
VERTEX
  8
Image
 10
48.7298622698595
 20
474.653590690423
 42
0.0
  0
VERTEX
  8
Image
 10
20.684159610184
 20
474.311683527883
 42
0.0
  0
VERTEX
  8
Image
 10
20.0000002728302
 20
495.516896853295
 42
0.0
  0
VERTEX
  8
Image
 10
44.2833440954705
 20
523.562530510515
 42
0.0
  0
SEQEND
  0
POLYLINE
  8
Image
 66
     1
 10
0.0
 20
0.0
 30
0.0
 70
     1
  0
VERTEX
  8
Image
 10
184.563205491816
 20
643.85687203197
 42
0.0
  0
VERTEX
  8
Image
 10
184.169260206757
 20
643.844366252916
 42
0.0
  0
VERTEX
  8
Image
 10
182.45903436951
 20
620.929030593938
 42
0.0
  0
VERTEX
  8
Image
 10
154.755583884648
 20
592.541420771723
 42
0.0
  0
VERTEX
  8
Image
 10
133.208187386877
 20
591.85750294296
 42
0.0
  0
VERTEX
  8
Image
 10
132.524373061797
 20
627.427543763205
 42
0.0
  0
VERTEX
  8
Image
 10
155.097491047189
 20
648.290746422395
 42
0.0
  0
VERTEX
  8
Image
 10
155.097491047189
 20
666.759805415576
 42
0.0
  0
VERTEX
  8
Image
 10
173.224780882738
 20
666.759805415576
 42
0.0
  0
VERTEX
  8
Image
 10
201.27013853014
 20
693.437327405453
 42
0.0
  0
VERTEX
  8
Image
 10
229.315841189815
 20
693.779234567993
 42
0.0
  0
VERTEX
  8
Image
 10
230.000000527169
 20
672.57402124258
 42
0.0
  0
VERTEX
  8
Image
 10
205.716656704529
 20
644.52838758536
 42
0.0
  0
SEQEND
  0
POLYLINE
  8
Image
 66
     1
 10
0.0
 20
0.0
 30
0.0
 70
     1
  0
VERTEX
  8
Image
 10
65.4367953081833
 20
643.85687203197
 42
0.0
  0
VERTEX
  8
Image
 10
65.8307405932419
 20
643.844366252916
 42
0.0
  0
VERTEX
  8
Image
 10
67.5409664304889
 20
620.929030593938
 42
0.0
  0
VERTEX
  8
Image
 10
95.2444169153505
 20
592.541420771722
 42
0.0
  0
VERTEX
  8
Image
 10
116.791813413122
 20
591.85750294296
 42
0.0
  0
VERTEX
  8
Image
 10
117.475627738202
 20
627.427543763205
 42
0.0
  0
VERTEX
  8
Image
 10
94.9025097528097
 20
648.290746422395
 42
0.0
  0
VERTEX
  8
Image
 10
94.9025097528097
 20
666.759805415576
 42
0.0
  0
VERTEX
  8
Image
 10
76.775219917261
 20
666.759805415576
 42
0.0
  0
VERTEX
  8
Image
 10
48.7298622698595
 20
693.437327405452
 42
0.0
  0
VERTEX
  8
Image
 10
20.684159610184
 20
693.779234567993
 42
0.0
  0
VERTEX
  8
Image
 10
20.0000002728302
 20
672.57402124258
 42
0.0
  0
VERTEX
  8
Image
 10
44.2833440954705
 20
644.52838758536
 42
0.0
  0
SEQEND
  0
POLYLINE
  8
Image
 66
     1
 10
0.0
 20
0.0
 30
0.0
 70
     1
  0
VERTEX
  8
Image
 10
65.4367953081833
 20
758.870406698614
 42
0.0
  0
VERTEX
  8
Image
 10
65.8307405932419
 20
758.882912477668
 42
0.0
  0
VERTEX
  8
Image
 10
67.5409664304889
 20
781.798248136647
 42
0.0
  0
VERTEX
  8
Image
 10
95.2444169153505
 20
810.185857958862
 42
0.0
  0
VERTEX
  8
Image
 10
116.791813413122
 20
810.869775787624
 42
0.0
  0
VERTEX
  8
Image
 10
117.475627738202
 20
775.299734967379
 42
0.0
  0
VERTEX
  8
Image
 10
94.9025097528097
 20
754.436532308189
 42
0.0
  0
VERTEX
  8
Image
 10
94.9025097528097
 20
735.967473315008
 42
0.0
  0
VERTEX
  8
Image
 10
76.775219917261
 20
735.967473315008
 42
0.0
  0
VERTEX
  8
Image
 10
48.7298622698595
 20
709.289951325132
 42
0.0
  0
VERTEX
  8
Image
 10
20.684159610184
 20
708.948044162591
 42
0.0
  0
VERTEX
  8
Image
 10
20.0000002728302
 20
730.153257488004
 42
0.0
  0
VERTEX
  8
Image
 10
44.2833440954705
 20
758.198891145224
 42
0.0
  0
SEQEND
  0
POLYLINE
  8
Image
 66
     1
 10
0.0
 20
0.0
 30
0.0
 70
     1
  0
VERTEX
  8
Image
 10
184.563205491816
 20
878.493232666679
 42
0.0
  0
VERTEX
  8
Image
 10
184.169260206757
 20
878.480726887624
 42
0.0
  0
VERTEX
  8
Image
 10
182.45903436951
 20
855.565391228647
 42
0.0
  0
VERTEX
  8
Image
 10
154.755583884648
 20
827.177781406431
 42
0.0
  0
VERTEX
  8
Image
 10
133.208187386877
 20
826.493863577669
 42
0.0
  0
VERTEX
  8
Image
 10
132.524373061797
 20
862.063904397913
 42
0.0
  0
VERTEX
  8
Image
 10
155.097491047189
 20
882.927107057104
 42
0.0
  0
VERTEX
  8
Image
 10
155.097491047189
 20
901.396166050285
 42
0.0
  0
VERTEX
  8
Image
 10
173.224780882738
 20
901.396166050285
 42
0.0
  0
VERTEX
  8
Image
 10
201.27013853014
 20
928.073688040161
 42
0.0
  0
VERTEX
  8
Image
 10
229.315841189815
 20
928.415595202701
 42
0.0
  0
VERTEX
  8
Image
 10
230.000000527169
 20
907.210381877288
 42
0.0
  0
VERTEX
  8
Image
 10
205.716656704529
 20
879.164748220069
 42
0.0
  0
SEQEND
  0
POLYLINE
  8
Image
 66
     1
 10
0.0
 20
0.0
 30
0.0
 70
     1
  0
VERTEX
  8
Image
 10
65.4367953081833
 20
878.493232666678
 42
0.0
  0
VERTEX
  8
Image
 10
65.8307405932419
 20
878.480726887624
 42
0.0
  0
VERTEX
  8
Image
 10
67.5409664304889
 20
855.565391228646
 42
0.0
  0
VERTEX
  8
Image
 10
95.2444169153505
 20
827.177781406431
 42
0.0
  0
VERTEX
  8
Image
 10
116.791813413122
 20
826.493863577668
 42
0.0
  0
VERTEX
  8
Image
 10
117.475627738202
 20
862.063904397913
 42
0.0
  0
VERTEX
  8
Image
 10
94.9025097528097
 20
882.927107057104
 42
0.0
  0
VERTEX
  8
Image
 10
94.9025097528097
 20
901.396166050285
 42
0.0
  0
VERTEX
  8
Image
 10
76.775219917261
 20
901.396166050285
 42
0.0
  0
VERTEX
  8
Image
 10
48.7298622698595
 20
928.073688040161
 42
0.0
  0
VERTEX
  8
Image
 10
20.684159610184
 20
928.415595202701
 42
0.0
  0
VERTEX
  8
Image
 10
20.0000002728302
 20
907.210381877288
 42
0.0
  0
VERTEX
  8
Image
 10
44.2833440954705
 20
879.164748220068
 42
0.0
  0
SEQEND
  0
POLYLINE
  8
Image
 66
     1
 10
0.0
 20
0.0
 30
0.0
 70
     1
  0
VERTEX
  8
Image
 10
94.9025097528097
 20
980.000003575
 42
0.0
  0
VERTEX
  8
Image
 10
94.9025097528097
 20
970.603833949716
 42
0.0
  0
VERTEX
  8
Image
 10
76.775219917261
 20
970.603833949716
 42
0.0
  0
VERTEX
  8
Image
 10
48.7298622698595
 20
943.92631195984
 42
0.0
  0
VERTEX
  8
Image
 10
20.684159610184
 20
943.5844047973
 42
0.0
  0
VERTEX
  8
Image
 10
20.0000002728302
 20
964.789618122712
 42
0.0
  0
VERTEX
  8
Image
 10
33.1699298286094
 20
980.000003575
 42
0.0
  0
SEQEND
  0
POLYLINE
  8
Image
 66
     1
 10
0.0
 20
0.0
 30
0.0
 70
     1
  0
VERTEX
  8
Image
 10
216.830070971389
 20
980.000003575
 42
0.0
  0
VERTEX
  8
Image
 10
155.097491047189
 20
980.000003575
 42
0.0
  0
VERTEX
  8
Image
 10
155.097491047189
 20
970.603833949716
 42
0.0
  0
VERTEX
  8
Image
 10
173.224780882738
 20
970.603833949716
 42
0.0
  0
VERTEX
  8
Image
 10
201.27013853014
 20
943.92631195984
 42
0.0
  0
VERTEX
  8
Image
 10
229.315841189815
 20
943.5844047973
 42
0.0
  0
VERTEX
  8
Image
 10
230.000000527169
 20
964.789618122712
 42
0.0
  0
SEQEND
  0
POLYLINE
  8
Image
 66
     1
 10
0.0
 20
0.0
 30
0.0
 70
     1
  0
VERTEX
  8
Image
 10
94.9025097528092
 20
-980.000003574999
 42
0.0
  0
VERTEX
  8
Image
 10
94.9025097528097
 20
-975.694719027384
 42
0.0
  0
VERTEX
  8
Image
 10
76.775219917261
 20
-975.694719027384
 42
0.0
  0
VERTEX
  8
Image
 10
48.7298622698595
 20
-949.017197037507
 42
0.0
  0
VERTEX
  8
Image
 10
20.684159610184
 20
-948.675289874967
 42
0.0
  0
VERTEX
  8
Image
 10
20.0000002728302
 20
-969.88050320038
 42
0.0
  0
VERTEX
  8
Image
 10
28.7619811898489
 20
-980.000003575
 42
0.0
  0
SEQEND
  0
POLYLINE
  8
Image
 66
     1
 10
0.0
 20
0.0
 30
0.0
 70
     1
  0
VERTEX
  8
Image
 10
221.23801961015
 20
-980.000003575
 42
0.0
  0
VERTEX
  8
Image
 10
155.097491047189
 20
-980.000003574999
 42
0.0
  0
VERTEX
  8
Image
 10
155.097491047189
 20
-975.694719027384
 42
0.0
  0
VERTEX
  8
Image
 10
173.224780882738
 20
-975.694719027384
 42
0.0
  0
VERTEX
  8
Image
 10
201.27013853014
 20
-949.017197037507
 42
0.0
  0
VERTEX
  8
Image
 10
229.315841189815
 20
-948.675289874967
 42
0.0
  0
VERTEX
  8
Image
 10
230.000000527169
 20
-969.880503200379
 42
0.0
  0
SEQEND
  0
POLYLINE
  8
Image
 66
     1
 10
0.0
 20
0.0
 30
0.0
 70
     1
  0
VERTEX
  8
Image
 10
184.563205491816
 20
758.870406698613
 42
0.0
  0
VERTEX
  8
Image
 10
184.169260206757
 20
758.882912477668
 42
0.0
  0
VERTEX
  8
Image
 10
182.45903436951
 20
781.798248136646
 42
0.0
  0
VERTEX
  8
Image
 10
154.755583884649
 20
810.185857958862
 42
0.0
  0
VERTEX
  8
Image
 10
133.208187386877
 20
810.869775787624
 42
0.0
  0
VERTEX
  8
Image
 10
132.524373061797
 20
775.299734967379
 42
0.0
  0
VERTEX
  8
Image
 10
155.097491047189
 20
754.436532308188
 42
0.0
  0
VERTEX
  8
Image
 10
155.097491047189
 20
735.967473315008
 42
0.0
  0
VERTEX
  8
Image
 10
173.224780882738
 20
735.967473315008
 42
0.0
  0
VERTEX
  8
Image
 10
201.27013853014
 20
709.289951325131
 42
0.0
  0
VERTEX
  8
Image
 10
229.315841189815
 20
708.948044162591
 42
0.0
  0
VERTEX
  8
Image
 10
230.000000527169
 20
730.153257488003
 42
0.0
  0
VERTEX
  8
Image
 10
205.716656704529
 20
758.198891145224
 42
0.0
  0
SEQEND
  0
POLYLINE
  8
Image
 66
     1
 10
0.0
 20
0.0
 30
0.0
 70
     1
  0
VERTEX
  8
Image
 10
230.000000527169
 20
773.723140115929
 42
0.0
  0
VERTEX
  8
Image
 10
230.000000527169
 20
810.935080518474
 42
0.0
  0
VERTEX
  8
Image
 10
216.684159610184
 20
811.097414885347
 42
0.0
  0
VERTEX
  8
Image
 10
216.000000272831
 20
789.892201559934
 42
0.0
  0
SEQEND
  0
POLYLINE
  8
Image
 66
     1
 10
0.0
 20
0.0
 30
0.0
 70
     1
  0
VERTEX
  8
Image
 10
230.000000527169
 20
826.428558846818
 42
0.0
  0
VERTEX
  8
Image
 10
216.684159610184
 20
826.266224479945
 42
0.0
  0
VERTEX
  8
Image
 10
216.000000272831
 20
847.471437805358
 42
0.0
  0
VERTEX
  8
Image
 10
230.000000527169
 20
863.640499249363
 42
0.0
  0
SEQEND
  0
POLYLINE
  8
Image
 66
     1
 10
0.0
 20
0.0
 30
0.0
 70
     1
  0
VERTEX
  8
Image
 10
230.000000527169
 20
539.086779481221
 42
0.0
  0
VERTEX
  8
Image
 10
230.000000527169
 20
576.298719883766
 42
0.0
  0
VERTEX
  8
Image
 10
216.684159610184
 20
576.461054250639
 42
0.0
  0
VERTEX
  8
Image
 10
216.000000272831
 20
555.255840925226
 42
0.0
  0
SEQEND
  0
POLYLINE
  8
Image
 66
     1
 10
0.0
 20
0.0
 30
0.0
 70
     1
  0
VERTEX
  8
Image
 10
230.000000527169
 20
591.79219821211
 42
0.0
  0
VERTEX
  8
Image
 10
216.684159610184
 20
591.629863845237
 42
0.0
  0
VERTEX
  8
Image
 10
216.000000272831
 20
612.83507717065
 42
0.0
  0
VERTEX
  8
Image
 10
230.000000527169
 20
629.004138614654
 42
0.0
  0
SEQEND
  0
POLYLINE
  8
Image
 66
     1
 10
0.0
 20
0.0
 30
0.0
 70
     1
  0
VERTEX
  8
Image
 10
184.563205491816
 20
524.234046063905
 42
0.0
  0
VERTEX
  8
Image
 10
184.169260206757
 20
524.246551842959
 42
0.0
  0
VERTEX
  8
Image
 10
182.45903436951
 20
547.161887501938
 42
0.0
  0
VERTEX
  8
Image
 10
154.755583884649
 20
575.549497324153
 42
0.0
  0
VERTEX
  8
Image
 10
133.208187386877
 20
576.233415152915
 42
0.0
  0
VERTEX
  8
Image
 10
132.524373061797
 20
540.66337433267
 42
0.0
  0
VERTEX
  8
Image
 10
155.097491047189
 20
519.80017167348
 42
0.0
  0
VERTEX
  8
Image
 10
155.097491047189
 20
501.331112680299
 42
0.0
  0
VERTEX
  8
Image
 10
173.224780882738
 20
501.331112680299
 42
0.0
  0
VERTEX
  8
Image
 10
201.27013853014
 20
474.653590690423
 42
0.0
  0
VERTEX
  8
Image
 10
229.315841189815
 20
474.311683527882
 42
0.0
  0
VERTEX
  8
Image
 10
230.000000527169
 20
495.516896853295
 42
0.0
  0
VERTEX
  8
Image
 10
205.716656704529
 20
523.562530510515
 42
0.0
  0
SEQEND
  0
POLYLINE
  8
Image
 66
     1
 10
0.0
 20
0.0
 30
0.0
 70
     1
  0
VERTEX
  8
Image
 10
230.000000527169
 20
304.450418846513
 42
0.0
  0
VERTEX
  8
Image
 10
230.000000527169
 20
341.662359249058
 42
0.0
  0
VERTEX
  8
Image
 10
216.684159610184
 20
341.824693615931
 42
0.0
  0
VERTEX
  8
Image
 10
216.000000272831
 20
320.619480290517
 42
0.0
  0
SEQEND
  0
POLYLINE
  8
Image
 66
     1
 10
0.0
 20
0.0
 30
0.0
 70
     1
  0
VERTEX
  8
Image
 10
230.000000527169
 20
357.155837577402
 42
0.0
  0
VERTEX
  8
Image
 10
216.684159610184
 20
356.993503210529
 42
0.0
  0
VERTEX
  8
Image
 10
216.000000272831
 20
378.198716535941
 42
0.0
  0
VERTEX
  8
Image
 10
230.000000527169
 20
394.367777979946
 42
0.0
  0
SEQEND
  0
POLYLINE
  8
Image
 66
     1
 10
0.0
 20
0.0
 30
0.0
 70
     1
  0
VERTEX
  8
Image
 10
230.000000527169
 20
69.814058211804
 42
0.0
  0
VERTEX
  8
Image
 10
230.000000527169
 20
107.025998614349
 42
0.0
  0
VERTEX
  8
Image
 10
216.684159610184
 20
107.188332981222
 42
0.0
  0
VERTEX
  8
Image
 10
216.000000272831
 20
85.9831196558089
 42
0.0
  0
SEQEND
  0
POLYLINE
  8
Image
 66
     1
 10
0.0
 20
0.0
 30
0.0
 70
     1
  0
VERTEX
  8
Image
 10
230.000000527169
 20
122.519476942693
 42
0.0
  0
VERTEX
  8
Image
 10
216.684159610184
 20
122.35714257582
 42
0.0
  0
VERTEX
  8
Image
 10
216.000000272831
 20
143.562355901233
 42
0.0
  0
VERTEX
  8
Image
 10
230.000000527169
 20
159.731417345238
 42
0.0
  0
SEQEND
  0
POLYLINE
  8
Image
 66
     1
 10
0.0
 20
0.0
 30
0.0
 70
     1
  0
VERTEX
  8
Image
 10
184.563205491816
 20
54.9613247944881
 42
0.0
  0
VERTEX
  8
Image
 10
184.169260206757
 20
54.9738305735427
 42
0.0
  0
VERTEX
  8
Image
 10
182.45903436951
 20
77.8891662325209
 42
0.0
  0
VERTEX
  8
Image
 10
154.755583884649
 20
106.276776054736
 42
0.0
  0
VERTEX
  8
Image
 10
133.208187386877
 20
106.960693883499
 42
0.0
  0
VERTEX
  8
Image
 10
132.524373061797
 20
71.3906530632535
 42
0.0
  0
VERTEX
  8
Image
 10
155.097491047189
 20
50.5274504040631
 42
0.0
  0
VERTEX
  8
Image
 10
155.097491047189
 20
32.0583914108825
 42
0.0
  0
VERTEX
  8
Image
 10
173.224780882738
 20
32.0583914108825
 42
0.0
  0
VERTEX
  8
Image
 10
201.27013853014
 20
5.3808694210061
 42
0.0
  0
VERTEX
  8
Image
 10
229.315841189815
 20
5.0389622584657
 42
0.0
  0
VERTEX
  8
Image
 10
230.000000527169
 20
26.2441755838781
 42
0.0
  0
VERTEX
  8
Image
 10
205.716656704529
 20
54.2898092410983
 42
0.0
  0
SEQEND
  0
POLYLINE
  8
Image
 66
     1
 10
0.0
 20
0.0
 30
0.0
 70
     1
  0
VERTEX
  8
Image
 10
230.000000527169
 20
-164.822302422905
 42
0.0
  0
VERTEX
  8
Image
 10
230.000000527169
 20
-127.61036202036
 42
0.0
  0
VERTEX
  8
Image
 10
216.684159610184
 20
-127.448027653487
 42
0.0
  0
VERTEX
  8
Image
 10
216.000000272831
 20
-148.6532409789
 42
0.0
  0
SEQEND
  0
POLYLINE
  8
Image
 66
     1
 10
0.0
 20
0.0
 30
0.0
 70
     1
  0
VERTEX
  8
Image
 10
230.000000527169
 20
-112.116883692016
 42
0.0
  0
VERTEX
  8
Image
 10
216.684159610184
 20
-112.279218058889
 42
0.0
  0
VERTEX
  8
Image
 10
216.000000272831
 20
-91.0740047334762
 42
0.0
  0
VERTEX
  8
Image
 10
230.000000527169
 20
-74.9049432894712
 42
0.0
  0
SEQEND
  0
POLYLINE
  8
Image
 66
     1
 10
0.0
 20
0.0
 30
0.0
 70
     1
  0
VERTEX
  8
Image
 10
230.000000527169
 20
-399.458663057614
 42
0.0
  0
VERTEX
  8
Image
 10
230.000000527169
 20
-362.246722655069
 42
0.0
  0
VERTEX
  8
Image
 10
216.684159610184
 20
-362.084388288195
 42
0.0
  0
VERTEX
  8
Image
 10
216.000000272831
 20
-383.289601613609
 42
0.0
  0
SEQEND
  0
POLYLINE
  8
Image
 66
     1
 10
0.0
 20
0.0
 30
0.0
 70
     1
  0
VERTEX
  8
Image
 10
230.000000527169
 20
-346.753244326724
 42
0.0
  0
VERTEX
  8
Image
 10
216.684159610184
 20
-346.915578693598
 42
0.0
  0
VERTEX
  8
Image
 10
216.000000272831
 20
-325.710365368185
 42
0.0
  0
VERTEX
  8
Image
 10
230.000000527169
 20
-309.54130392418
 42
0.0
  0
SEQEND
  0
POLYLINE
  8
Image
 66
     1
 10
0.0
 20
0.0
 30
0.0
 70
     1
  0
VERTEX
  8
Image
 10
230.000000527169
 20
-634.095023692322
 42
0.0
  0
VERTEX
  8
Image
 10
230.000000527169
 20
-596.883083289777
 42
0.0
  0
VERTEX
  8
Image
 10
216.684159610184
 20
-596.720748922904
 42
0.0
  0
VERTEX
  8
Image
 10
216.000000272831
 20
-617.925962248317
 42
0.0
  0
SEQEND
  0
POLYLINE
  8
Image
 66
     1
 10
0.0
 20
0.0
 30
0.0
 70
     1
  0
VERTEX
  8
Image
 10
230.000000527169
 20
-581.389604961433
 42
0.0
  0
VERTEX
  8
Image
 10
216.684159610184
 20
-581.551939328306
 42
0.0
  0
VERTEX
  8
Image
 10
216.000000272831
 20
-560.346726002893
 42
0.0
  0
VERTEX
  8
Image
 10
230.000000527169
 20
-544.177664558888
 42
0.0
  0
SEQEND
  0
POLYLINE
  8
Image
 66
     1
 10
0.0
 20
0.0
 30
0.0
 70
     1
  0
VERTEX
  8
Image
 10
230.000000527169
 20
-868.73138432703
 42
0.0
  0
VERTEX
  8
Image
 10
230.000000527169
 20
-831.519443924485
 42
0.0
  0
VERTEX
  8
Image
 10
216.684159610184
 20
-831.357109557612
 42
0.0
  0
VERTEX
  8
Image
 10
216.000000272831
 20
-852.562322883025
 42
0.0
  0
SEQEND
  0
POLYLINE
  8
Image
 66
     1
 10
0.0
 20
0.0
 30
0.0
 70
     1
  0
VERTEX
  8
Image
 10
230.000000527169
 20
-816.025965596141
 42
0.0
  0
VERTEX
  8
Image
 10
216.684159610184
 20
-816.188299963014
 42
0.0
  0
VERTEX
  8
Image
 10
216.000000272831
 20
-794.983086637601
 42
0.0
  0
VERTEX
  8
Image
 10
230.000000527169
 20
-778.814025193597
 42
0.0
  0
SEQEND
  0
POLYLINE
  8
Image
 66
     1
 10
0.0
 20
0.0
 30
0.0
 70
     1
  0
VERTEX
  8
Image
 10
184.563205491816
 20
-883.584117744346
 42
0.0
  0
VERTEX
  8
Image
 10
184.169260206757
 20
-883.571611965292
 42
0.0
  0
VERTEX
  8
Image
 10
182.45903436951
 20
-860.656276306313
 42
0.0
  0
VERTEX
  8
Image
 10
154.755583884649
 20
-832.268666484098
 42
0.0
  0
VERTEX
  8
Image
 10
133.208187386877
 20
-831.584748655336
 42
0.0
  0
VERTEX
  8
Image
 10
132.524373061797
 20
-867.154789475581
 42
0.0
  0
VERTEX
  8
Image
 10
155.097491047189
 20
-888.017992134771
 42
0.0
  0
VERTEX
  8
Image
 10
155.097491047189
 20
-906.487051127952
 42
0.0
  0
VERTEX
  8
Image
 10
173.224780882738
 20
-906.487051127952
 42
0.0
  0
VERTEX
  8
Image
 10
201.27013853014
 20
-933.164573117828
 42
0.0
  0
VERTEX
  8
Image
 10
229.315841189815
 20
-933.506480280369
 42
0.0
  0
VERTEX
  8
Image
 10
230.000000527169
 20
-912.301266954956
 42
0.0
  0
VERTEX
  8
Image
 10
205.716656704529
 20
-884.255633297736
 42
0.0
  0
SEQEND
  0
POLYLINE
  8
Image
 66
     1
 10
0.0
 20
0.0
 30
0.0
 70
     1
  0
VERTEX
  8
Image
 10
19.4333128818894
 20
773.723140115929
 42
0.0
  0
VERTEX
  8
Image
 10
19.4333128818894
 20
810.935080518474
 42
0.0
  0
VERTEX
  8
Image
 10
32.749153798874
 20
811.097414885347
 42
0.0
  0
VERTEX
  8
Image
 10
33.4333131362278
 20
789.892201559934
 42
0.0
  0
SEQEND
  0
POLYLINE
  8
Image
 66
     1
 10
0.0
 20
0.0
 30
0.0
 70
     1
  0
VERTEX
  8
Image
 10
19.4333128818894
 20
826.428558846818
 42
0.0
  0
VERTEX
  8
Image
 10
32.749153798874
 20
826.266224479945
 42
0.0
  0
VERTEX
  8
Image
 10
33.4333131362278
 20
847.471437805358
 42
0.0
  0
VERTEX
  8
Image
 10
19.4333128818894
 20
863.640499249363
 42
0.0
  0
SEQEND
  0
POLYLINE
  8
Image
 66
     1
 10
0.0
 20
0.0
 30
0.0
 70
     1
  0
VERTEX
  8
Image
 10
19.4333128818894
 20
539.086779481221
 42
0.0
  0
VERTEX
  8
Image
 10
19.4333128818894
 20
576.298719883766
 42
0.0
  0
VERTEX
  8
Image
 10
32.749153798874
 20
576.461054250639
 42
0.0
  0
VERTEX
  8
Image
 10
33.4333131362278
 20
555.255840925226
 42
0.0
  0
SEQEND
  0
POLYLINE
  8
Image
 66
     1
 10
0.0
 20
0.0
 30
0.0
 70
     1
  0
VERTEX
  8
Image
 10
19.4333128818894
 20
591.79219821211
 42
0.0
  0
VERTEX
  8
Image
 10
32.749153798874
 20
591.629863845237
 42
0.0
  0
VERTEX
  8
Image
 10
33.4333131362278
 20
612.83507717065
 42
0.0
  0
VERTEX
  8
Image
 10
19.4333128818894
 20
629.004138614654
 42
0.0
  0
SEQEND
  0
POLYLINE
  8
Image
 66
     1
 10
0.0
 20
0.0
 30
0.0
 70
     1
  0
VERTEX
  8
Image
 10
19.4333128818894
 20
304.450418846513
 42
0.0
  0
VERTEX
  8
Image
 10
19.4333128818894
 20
341.662359249058
 42
0.0
  0
VERTEX
  8
Image
 10
32.749153798874
 20
341.824693615931
 42
0.0
  0
VERTEX
  8
Image
 10
33.4333131362278
 20
320.619480290517
 42
0.0
  0
SEQEND
  0
POLYLINE
  8
Image
 66
     1
 10
0.0
 20
0.0
 30
0.0
 70
     1
  0
VERTEX
  8
Image
 10
19.4333128818894
 20
357.155837577402
 42
0.0
  0
VERTEX
  8
Image
 10
32.749153798874
 20
356.993503210529
 42
0.0
  0
VERTEX
  8
Image
 10
33.4333131362278
 20
378.198716535941
 42
0.0
  0
VERTEX
  8
Image
 10
19.4333128818894
 20
394.367777979946
 42
0.0
  0
SEQEND
  0
POLYLINE
  8
Image
 66
     1
 10
0.0
 20
0.0
 30
0.0
 70
     1
  0
VERTEX
  8
Image
 10
19.4333128818894
 20
69.814058211804
 42
0.0
  0
VERTEX
  8
Image
 10
19.4333128818894
 20
107.025998614349
 42
0.0
  0
VERTEX
  8
Image
 10
32.749153798874
 20
107.188332981222
 42
0.0
  0
VERTEX
  8
Image
 10
33.4333131362278
 20
85.9831196558089
 42
0.0
  0
SEQEND
  0
POLYLINE
  8
Image
 66
     1
 10
0.0
 20
0.0
 30
0.0
 70
     1
  0
VERTEX
  8
Image
 10
19.4333128818894
 20
122.519476942693
 42
0.0
  0
VERTEX
  8
Image
 10
32.749153798874
 20
122.35714257582
 42
0.0
  0
VERTEX
  8
Image
 10
33.4333131362278
 20
143.562355901233
 42
0.0
  0
VERTEX
  8
Image
 10
19.4333128818894
 20
159.731417345238
 42
0.0
  0
SEQEND
  0
POLYLINE
  8
Image
 66
     1
 10
0.0
 20
0.0
 30
0.0
 70
     1
  0
VERTEX
  8
Image
 10
19.4333128818894
 20
-164.822302422905
 42
0.0
  0
VERTEX
  8
Image
 10
19.4333128818894
 20
-127.61036202036
 42
0.0
  0
VERTEX
  8
Image
 10
32.749153798874
 20
-127.448027653487
 42
0.0
  0
VERTEX
  8
Image
 10
33.4333131362278
 20
-148.6532409789
 42
0.0
  0
SEQEND
  0
POLYLINE
  8
Image
 66
     1
 10
0.0
 20
0.0
 30
0.0
 70
     1
  0
VERTEX
  8
Image
 10
19.4333128818894
 20
-112.116883692016
 42
0.0
  0
VERTEX
  8
Image
 10
32.749153798874
 20
-112.279218058889
 42
0.0
  0
VERTEX
  8
Image
 10
33.4333131362278
 20
-91.0740047334762
 42
0.0
  0
VERTEX
  8
Image
 10
19.4333128818894
 20
-74.9049432894712
 42
0.0
  0
SEQEND
  0
POLYLINE
  8
Image
 66
     1
 10
0.0
 20
0.0
 30
0.0
 70
     1
  0
VERTEX
  8
Image
 10
19.4333128818894
 20
-399.458663057614
 42
0.0
  0
VERTEX
  8
Image
 10
19.4333128818894
 20
-362.246722655069
 42
0.0
  0
VERTEX
  8
Image
 10
32.749153798874
 20
-362.084388288195
 42
0.0
  0
VERTEX
  8
Image
 10
33.4333131362278
 20
-383.289601613609
 42
0.0
  0
SEQEND
  0
POLYLINE
  8
Image
 66
     1
 10
0.0
 20
0.0
 30
0.0
 70
     1
  0
VERTEX
  8
Image
 10
19.4333128818894
 20
-346.753244326724
 42
0.0
  0
VERTEX
  8
Image
 10
32.749153798874
 20
-346.915578693598
 42
0.0
  0
VERTEX
  8
Image
 10
33.4333131362278
 20
-325.710365368185
 42
0.0
  0
VERTEX
  8
Image
 10
19.4333128818894
 20
-309.54130392418
 42
0.0
  0
SEQEND
  0
POLYLINE
  8
Image
 66
     1
 10
0.0
 20
0.0
 30
0.0
 70
     1
  0
VERTEX
  8
Image
 10
19.4333128818894
 20
-634.095023692322
 42
0.0
  0
VERTEX
  8
Image
 10
19.4333128818894
 20
-596.883083289777
 42
0.0
  0
VERTEX
  8
Image
 10
32.749153798874
 20
-596.720748922904
 42
0.0
  0
VERTEX
  8
Image
 10
33.4333131362278
 20
-617.925962248317
 42
0.0
  0
SEQEND
  0
POLYLINE
  8
Image
 66
     1
 10
0.0
 20
0.0
 30
0.0
 70
     1
  0
VERTEX
  8
Image
 10
19.4333128818894
 20
-581.389604961433
 42
0.0
  0
VERTEX
  8
Image
 10
32.749153798874
 20
-581.551939328306
 42
0.0
  0
VERTEX
  8
Image
 10
33.4333131362278
 20
-560.346726002893
 42
0.0
  0
VERTEX
  8
Image
 10
19.4333128818894
 20
-544.177664558888
 42
0.0
  0
SEQEND
  0
POLYLINE
  8
Image
 66
     1
 10
0.0
 20
0.0
 30
0.0
 70
     1
  0
VERTEX
  8
Image
 10
19.4333128818894
 20
-868.73138432703
 42
0.0
  0
VERTEX
  8
Image
 10
19.4333128818894
 20
-831.519443924485
 42
0.0
  0
VERTEX
  8
Image
 10
32.749153798874
 20
-831.357109557612
 42
0.0
  0
VERTEX
  8
Image
 10
33.4333131362278
 20
-852.562322883025
 42
0.0
  0
SEQEND
  0
POLYLINE
  8
Image
 66
     1
 10
0.0
 20
0.0
 30
0.0
 70
     1
  0
VERTEX
  8
Image
 10
19.4333128818894
 20
-816.025965596141
 42
0.0
  0
VERTEX
  8
Image
 10
32.749153798874
 20
-816.188299963014
 42
0.0
  0
VERTEX
  8
Image
 10
33.4333131362278
 20
-794.983086637601
 42
0.0
  0
VERTEX
  8
Image
 10
19.4333128818894
 20
-778.814025193597
 42
0.0
  0
SEQEND
  0
POLYLINE
  8
Image
 66
     1
 10
0.0
 20
0.0
 30
0.0
 70
     1
  0
VERTEX
  8
Image
 10
315.436796108183
 20
-883.584117744346
 42
0.0
  0
VERTEX
  8
Image
 10
315.830741393242
 20
-883.571611965291
 42
0.0
  0
VERTEX
  8
Image
 10
317.540967230489
 20
-860.656276306313
 42
0.0
  0
VERTEX
  8
Image
 10
345.24441771535
 20
-832.268666484098
 42
0.0
  0
VERTEX
  8
Image
 10
366.791814213122
 20
-831.584748655335
 42
0.0
  0
VERTEX
  8
Image
 10
367.475628538202
 20
-867.15478947558
 42
0.0
  0
VERTEX
  8
Image
 10
344.902510552809
 20
-888.017992134771
 42
0.0
  0
VERTEX
  8
Image
 10
344.902510552809
 20
-906.487051127951
 42
0.0
  0
VERTEX
  8
Image
 10
326.775220717261
 20
-906.487051127951
 42
0.0
  0
VERTEX
  8
Image
 10
298.729863069859
 20
-933.164573117828
 42
0.0
  0
VERTEX
  8
Image
 10
270.684160410184
 20
-933.506480280368
 42
0.0
  0
VERTEX
  8
Image
 10
270.00000107283
 20
-912.301266954956
 42
0.0
  0
VERTEX
  8
Image
 10
294.28334489547
 20
-884.255633297736
 42
0.0
  0
SEQEND
  0
POLYLINE
  8
Image
 66
     1
 10
0.0
 20
0.0
 30
0.0
 70
     1
  0
VERTEX
  8
Image
 10
434.563206291815
 20
-763.961291776281
 42
0.0
  0
VERTEX
  8
Image
 10
434.169261006757
 20
-763.973797555335
 42
0.0
  0
VERTEX
  8
Image
 10
432.45903516951
 20
-786.889133214313
 42
0.0
  0
VERTEX
  8
Image
 10
404.755584684648
 20
-815.276743036529
 42
0.0
  0
VERTEX
  8
Image
 10
383.208188186877
 20
-815.960660865291
 42
0.0
  0
VERTEX
  8
Image
 10
382.524373861797
 20
-780.390620045046
 42
0.0
  0
VERTEX
  8
Image
 10
405.097491847189
 20
-759.527417385856
 42
0.0
  0
VERTEX
  8
Image
 10
405.097491847189
 20
-741.058358392675
 42
0.0
  0
VERTEX
  8
Image
 10
423.224781682738
 20
-741.058358392675
 42
0.0
  0
VERTEX
  8
Image
 10
451.27013933014
 20
-714.380836402799
 42
0.0
  0
VERTEX
  8
Image
 10
479.315841989815
 20
-714.038929240258
 42
0.0
  0
VERTEX
  8
Image
 10
480.000001327169
 20
-735.244142565671
 42
0.0
  0
VERTEX
  8
Image
 10
455.716657504529
 20
-763.289776222891
 42
0.0
  0
SEQEND
  0
POLYLINE
  8
Image
 66
     1
 10
0.0
 20
0.0
 30
0.0
 70
     1
  0
VERTEX
  8
Image
 10
315.436796108183
 20
-763.961291776281
 42
0.0
  0
VERTEX
  8
Image
 10
315.830741393242
 20
-763.973797555336
 42
0.0
  0
VERTEX
  8
Image
 10
317.540967230489
 20
-786.889133214314
 42
0.0
  0
VERTEX
  8
Image
 10
345.24441771535
 20
-815.276743036529
 42
0.0
  0
VERTEX
  8
Image
 10
366.791814213122
 20
-815.960660865291
 42
0.0
  0
VERTEX
  8
Image
 10
367.475628538202
 20
-780.390620045046
 42
0.0
  0
VERTEX
  8
Image
 10
344.902510552809
 20
-759.527417385856
 42
0.0
  0
VERTEX
  8
Image
 10
344.902510552809
 20
-741.058358392675
 42
0.0
  0
VERTEX
  8
Image
 10
326.775220717261
 20
-741.058358392675
 42
0.0
  0
VERTEX
  8
Image
 10
298.729863069859
 20
-714.380836402799
 42
0.0
  0
VERTEX
  8
Image
 10
270.684160410184
 20
-714.038929240259
 42
0.0
  0
VERTEX
  8
Image
 10
270.00000107283
 20
-735.244142565671
 42
0.0
  0
VERTEX
  8
Image
 10
294.28334489547
 20
-763.289776222891
 42
0.0
  0
SEQEND
  0
POLYLINE
  8
Image
 66
     1
 10
0.0
 20
0.0
 30
0.0
 70
     1
  0
VERTEX
  8
Image
 10
315.436796108183
 20
-648.947757109637
 42
0.0
  0
VERTEX
  8
Image
 10
315.830741393242
 20
-648.935251330583
 42
0.0
  0
VERTEX
  8
Image
 10
317.540967230489
 20
-626.019915671605
 42
0.0
  0
VERTEX
  8
Image
 10
345.24441771535
 20
-597.632305849389
 42
0.0
  0
VERTEX
  8
Image
 10
366.791814213122
 20
-596.948388020627
 42
0.0
  0
VERTEX
  8
Image
 10
367.475628538202
 20
-632.518428840872
 42
0.0
  0
VERTEX
  8
Image
 10
344.902510552809
 20
-653.381631500063
 42
0.0
  0
VERTEX
  8
Image
 10
344.902510552809
 20
-671.850690493243
 42
0.0
  0
VERTEX
  8
Image
 10
326.775220717261
 20
-671.850690493243
 42
0.0
  0
VERTEX
  8
Image
 10
298.729863069859
 20
-698.52821248312
 42
0.0
  0
VERTEX
  8
Image
 10
270.684160410184
 20
-698.87011964566
 42
0.0
  0
VERTEX
  8
Image
 10
270.00000107283
 20
-677.664906320247
 42
0.0
  0
VERTEX
  8
Image
 10
294.28334489547
 20
-649.619272663027
 42
0.0
  0
SEQEND
  0
POLYLINE
  8
Image
 66
     1
 10
0.0
 20
0.0
 30
0.0
 70
     1
  0
VERTEX
  8
Image
 10
434.563206291815
 20
-648.947757109638
 42
0.0
  0
VERTEX
  8
Image
 10
434.169261006757
 20
-648.935251330583
 42
0.0
  0
VERTEX
  8
Image
 10
432.45903516951
 20
-626.019915671605
 42
0.0
  0
VERTEX
  8
Image
 10
404.755584684648
 20
-597.63230584939
 42
0.0
  0
VERTEX
  8
Image
 10
383.208188186877
 20
-596.948388020628
 42
0.0
  0
VERTEX
  8
Image
 10
382.524373861797
 20
-632.518428840872
 42
0.0
  0
VERTEX
  8
Image
 10
405.097491847189
 20
-653.381631500063
 42
0.0
  0
VERTEX
  8
Image
 10
405.097491847189
 20
-671.850690493243
 42
0.0
  0
VERTEX
  8
Image
 10
423.224781682738
 20
-671.850690493243
 42
0.0
  0
VERTEX
  8
Image
 10
451.27013933014
 20
-698.52821248312
 42
0.0
  0
VERTEX
  8
Image
 10
479.315841989815
 20
-698.87011964566
 42
0.0
  0
VERTEX
  8
Image
 10
480.000001327169
 20
-677.664906320248
 42
0.0
  0
VERTEX
  8
Image
 10
455.716657504529
 20
-649.619272663027
 42
0.0
  0
SEQEND
  0
POLYLINE
  8
Image
 66
     1
 10
0.0
 20
0.0
 30
0.0
 70
     1
  0
VERTEX
  8
Image
 10
434.563206291815
 20
-529.324931141572
 42
0.0
  0
VERTEX
  8
Image
 10
434.169261006757
 20
-529.337436920627
 42
0.0
  0
VERTEX
  8
Image
 10
432.45903516951
 20
-552.252772579605
 42
0.0
  0
VERTEX
  8
Image
 10
404.755584684648
 20
-580.64038240182
 42
0.0
  0
VERTEX
  8
Image
 10
383.208188186877
 20
-581.324300230583
 42
0.0
  0
VERTEX
  8
Image
 10
382.524373861797
 20
-545.754259410337
 42
0.0
  0
VERTEX
  8
Image
 10
405.097491847189
 20
-524.891056751147
 42
0.0
  0
VERTEX
  8
Image
 10
405.097491847189
 20
-506.421997757966
 42
0.0
  0
VERTEX
  8
Image
 10
423.224781682738
 20
-506.421997757966
 42
0.0
  0
VERTEX
  8
Image
 10
451.27013933014
 20
-479.74447576809
 42
0.0
  0
VERTEX
  8
Image
 10
479.315841989815
 20
-479.40256860555
 42
0.0
  0
VERTEX
  8
Image
 10
480.000001327169
 20
-500.607781930962
 42
0.0
  0
VERTEX
  8
Image
 10
455.716657504529
 20
-528.653415588182
 42
0.0
  0
SEQEND
  0
POLYLINE
  8
Image
 66
     1
 10
0.0
 20
0.0
 30
0.0
 70
     1
  0
VERTEX
  8
Image
 10
315.436796108183
 20
-529.324931141573
 42
0.0
  0
VERTEX
  8
Image
 10
315.830741393242
 20
-529.337436920627
 42
0.0
  0
VERTEX
  8
Image
 10
317.540967230489
 20
-552.252772579605
 42
0.0
  0
VERTEX
  8
Image
 10
345.24441771535
 20
-580.640382401821
 42
0.0
  0
VERTEX
  8
Image
 10
366.791814213122
 20
-581.324300230583
 42
0.0
  0
VERTEX
  8
Image
 10
367.475628538202
 20
-545.754259410338
 42
0.0
  0
VERTEX
  8
Image
 10
344.902510552809
 20
-524.891056751148
 42
0.0
  0
VERTEX
  8
Image
 10
344.902510552809
 20
-506.421997757967
 42
0.0
  0
VERTEX
  8
Image
 10
326.775220717261
 20
-506.421997757967
 42
0.0
  0
VERTEX
  8
Image
 10
298.729863069859
 20
-479.744475768091
 42
0.0
  0
VERTEX
  8
Image
 10
270.684160410184
 20
-479.40256860555
 42
0.0
  0
VERTEX
  8
Image
 10
270.00000107283
 20
-500.607781930963
 42
0.0
  0
VERTEX
  8
Image
 10
294.28334489547
 20
-528.653415588183
 42
0.0
  0
SEQEND
  0
POLYLINE
  8
Image
 66
     1
 10
0.0
 20
0.0
 30
0.0
 70
     1
  0
VERTEX
  8
Image
 10
315.436796108183
 20
-414.311396474929
 42
0.0
  0
VERTEX
  8
Image
 10
315.830741393242
 20
-414.298890695874
 42
0.0
  0
VERTEX
  8
Image
 10
317.540967230489
 20
-391.383555036896
 42
0.0
  0
VERTEX
  8
Image
 10
345.24441771535
 20
-362.995945214681
 42
0.0
  0
VERTEX
  8
Image
 10
366.791814213122
 20
-362.312027385919
 42
0.0
  0
VERTEX
  8
Image
 10
367.475628538202
 20
-397.882068206163
 42
0.0
  0
VERTEX
  8
Image
 10
344.902510552809
 20
-418.745270865354
 42
0.0
  0
VERTEX
  8
Image
 10
344.902510552809
 20
-437.214329858534
 42
0.0
  0
VERTEX
  8
Image
 10
326.775220717261
 20
-437.214329858534
 42
0.0
  0
VERTEX
  8
Image
 10
298.729863069859
 20
-463.891851848411
 42
0.0
  0
VERTEX
  8
Image
 10
270.684160410184
 20
-464.233759010951
 42
0.0
  0
VERTEX
  8
Image
 10
270.00000107283
 20
-443.028545685539
 42
0.0
  0
VERTEX
  8
Image
 10
294.28334489547
 20
-414.982912028319
 42
0.0
  0
SEQEND
  0
POLYLINE
  8
Image
 66
     1
 10
0.0
 20
0.0
 30
0.0
 70
     1
  0
VERTEX
  8
Image
 10
434.563206291815
 20
-414.311396474929
 42
0.0
  0
VERTEX
  8
Image
 10
434.169261006757
 20
-414.298890695875
 42
0.0
  0
VERTEX
  8
Image
 10
432.45903516951
 20
-391.383555036897
 42
0.0
  0
VERTEX
  8
Image
 10
404.755584684648
 20
-362.995945214681
 42
0.0
  0
VERTEX
  8
Image
 10
383.208188186877
 20
-362.312027385919
 42
0.0
  0
VERTEX
  8
Image
 10
382.524373861797
 20
-397.882068206164
 42
0.0
  0
VERTEX
  8
Image
 10
405.097491847189
 20
-418.745270865355
 42
0.0
  0
VERTEX
  8
Image
 10
405.097491847189
 20
-437.214329858535
 42
0.0
  0
VERTEX
  8
Image
 10
423.224781682738
 20
-437.214329858535
 42
0.0
  0
VERTEX
  8
Image
 10
451.27013933014
 20
-463.891851848412
 42
0.0
  0
VERTEX
  8
Image
 10
479.315841989815
 20
-464.233759010952
 42
0.0
  0
VERTEX
  8
Image
 10
480.000001327169
 20
-443.028545685539
 42
0.0
  0
VERTEX
  8
Image
 10
455.716657504529
 20
-414.982912028319
 42
0.0
  0
SEQEND
  0
POLYLINE
  8
Image
 66
     1
 10
0.0
 20
0.0
 30
0.0
 70
     1
  0
VERTEX
  8
Image
 10
434.563206291815
 20
-294.688570506863
 42
0.0
  0
VERTEX
  8
Image
 10
434.169261006757
 20
-294.701076285918
 42
0.0
  0
VERTEX
  8
Image
 10
432.45903516951
 20
-317.616411944896
 42
0.0
  0
VERTEX
  8
Image
 10
404.755584684648
 20
-346.004021767112
 42
0.0
  0
VERTEX
  8
Image
 10
383.208188186877
 20
-346.687939595874
 42
0.0
  0
VERTEX
  8
Image
 10
382.524373861797
 20
-311.117898775629
 42
0.0
  0
VERTEX
  8
Image
 10
405.097491847189
 20
-290.254696116438
 42
0.0
  0
VERTEX
  8
Image
 10
405.097491847189
 20
-271.785637123258
 42
0.0
  0
VERTEX
  8
Image
 10
423.224781682738
 20
-271.785637123258
 42
0.0
  0
VERTEX
  8
Image
 10
451.27013933014
 20
-245.108115133381
 42
0.0
  0
VERTEX
  8
Image
 10
479.315841989815
 20
-244.766207970841
 42
0.0
  0
VERTEX
  8
Image
 10
480.000001327169
 20
-265.971421296254
 42
0.0
  0
VERTEX
  8
Image
 10
455.716657504529
 20
-294.017054953474
 42
0.0
  0
SEQEND
  0
POLYLINE
  8
Image
 66
     1
 10
0.0
 20
0.0
 30
0.0
 70
     1
  0
VERTEX
  8
Image
 10
315.436796108183
 20
-294.688570506864
 42
0.0
  0
VERTEX
  8
Image
 10
315.830741393242
 20
-294.701076285919
 42
0.0
  0
VERTEX
  8
Image
 10
317.540967230489
 20
-317.616411944897
 42
0.0
  0
VERTEX
  8
Image
 10
345.24441771535
 20
-346.004021767112
 42
0.0
  0
VERTEX
  8
Image
 10
366.791814213122
 20
-346.687939595874
 42
0.0
  0
VERTEX
  8
Image
 10
367.475628538202
 20
-311.117898775629
 42
0.0
  0
VERTEX
  8
Image
 10
344.902510552809
 20
-290.254696116439
 42
0.0
  0
VERTEX
  8
Image
 10
344.902510552809
 20
-271.785637123258
 42
0.0
  0
VERTEX
  8
Image
 10
326.775220717261
 20
-271.785637123258
 42
0.0
  0
VERTEX
  8
Image
 10
298.729863069859
 20
-245.108115133382
 42
0.0
  0
VERTEX
  8
Image
 10
270.684160410184
 20
-244.766207970842
 42
0.0
  0
VERTEX
  8
Image
 10
270.00000107283
 20
-265.971421296254
 42
0.0
  0
VERTEX
  8
Image
 10
294.28334489547
 20
-294.017054953474
 42
0.0
  0
SEQEND
  0
POLYLINE
  8
Image
 66
     1
 10
0.0
 20
0.0
 30
0.0
 70
     1
  0
VERTEX
  8
Image
 10
315.436796108183
 20
-179.675035840221
 42
0.0
  0
VERTEX
  8
Image
 10
315.830741393242
 20
-179.662530061166
 42
0.0
  0
VERTEX
  8
Image
 10
317.540967230489
 20
-156.747194402188
 42
0.0
  0
VERTEX
  8
Image
 10
345.24441771535
 20
-128.359584579972
 42
0.0
  0
VERTEX
  8
Image
 10
366.791814213122
 20
-127.67566675121
 42
0.0
  0
VERTEX
  8
Image
 10
367.475628538202
 20
-163.245707571455
 42
0.0
  0
VERTEX
  8
Image
 10
344.902510552809
 20
-184.108910230646
 42
0.0
  0
VERTEX
  8
Image
 10
344.902510552809
 20
-202.577969223826
 42
0.0
  0
VERTEX
  8
Image
 10
326.775220717261
 20
-202.577969223826
 42
0.0
  0
VERTEX
  8
Image
 10
298.729863069859
 20
-229.255491213702
 42
0.0
  0
VERTEX
  8
Image
 10
270.684160410184
 20
-229.597398376243
 42
0.0
  0
VERTEX
  8
Image
 10
270.00000107283
 20
-208.39218505083
 42
0.0
  0
VERTEX
  8
Image
 10
294.28334489547
 20
-180.34655139361
 42
0.0
  0
SEQEND
  0
POLYLINE
  8
Image
 66
     1
 10
0.0
 20
0.0
 30
0.0
 70
     1
  0
VERTEX
  8
Image
 10
434.563206291815
 20
-179.675035840221
 42
0.0
  0
VERTEX
  8
Image
 10
434.169261006757
 20
-179.662530061166
 42
0.0
  0
VERTEX
  8
Image
 10
432.45903516951
 20
-156.747194402188
 42
0.0
  0
VERTEX
  8
Image
 10
404.755584684648
 20
-128.359584579973
 42
0.0
  0
VERTEX
  8
Image
 10
383.208188186877
 20
-127.67566675121
 42
0.0
  0
VERTEX
  8
Image
 10
382.524373861797
 20
-163.245707571455
 42
0.0
  0
VERTEX
  8
Image
 10
405.097491847189
 20
-184.108910230646
 42
0.0
  0
VERTEX
  8
Image
 10
405.097491847189
 20
-202.577969223826
 42
0.0
  0
VERTEX
  8
Image
 10
423.224781682738
 20
-202.577969223826
 42
0.0
  0
VERTEX
  8
Image
 10
451.27013933014
 20
-229.255491213703
 42
0.0
  0
VERTEX
  8
Image
 10
479.315841989815
 20
-229.597398376243
 42
0.0
  0
VERTEX
  8
Image
 10
480.000001327169
 20
-208.392185050831
 42
0.0
  0
VERTEX
  8
Image
 10
455.716657504529
 20
-180.346551393611
 42
0.0
  0
SEQEND
  0
POLYLINE
  8
Image
 66
     1
 10
0.0
 20
0.0
 30
0.0
 70
     1
  0
VERTEX
  8
Image
 10
434.563206291815
 20
-60.0522098721549
 42
0.0
  0
VERTEX
  8
Image
 10
434.169261006757
 20
-60.0647156512096
 42
0.0
  0
VERTEX
  8
Image
 10
432.45903516951
 20
-82.9800513101877
 42
0.0
  0
VERTEX
  8
Image
 10
404.755584684648
 20
-111.367661132403
 42
0.0
  0
VERTEX
  8
Image
 10
383.208188186877
 20
-112.051578961165
 42
0.0
  0
VERTEX
  8
Image
 10
382.524373861797
 20
-76.4815381409203
 42
0.0
  0
VERTEX
  8
Image
 10
405.097491847189
 20
-55.6183354817299
 42
0.0
  0
VERTEX
  8
Image
 10
405.097491847189
 20
-37.1492764885493
 42
0.0
  0
VERTEX
  8
Image
 10
423.224781682738
 20
-37.1492764885493
 42
0.0
  0
VERTEX
  8
Image
 10
451.27013933014
 20
-10.4717544986729
 42
0.0
  0
VERTEX
  8
Image
 10
479.315841989815
 20
-10.1298473361326
 42
0.0
  0
VERTEX
  8
Image
 10
480.000001327169
 20
-31.335060661545
 42
0.0
  0
VERTEX
  8
Image
 10
455.716657504529
 20
-59.3806943187651
 42
0.0
  0
SEQEND
  0
POLYLINE
  8
Image
 66
     1
 10
0.0
 20
0.0
 30
0.0
 70
     1
  0
VERTEX
  8
Image
 10
315.436796108183
 20
-60.0522098721553
 42
0.0
  0
VERTEX
  8
Image
 10
315.830741393242
 20
-60.06471565121
 42
0.0
  0
VERTEX
  8
Image
 10
317.540967230489
 20
-82.9800513101882
 42
0.0
  0
VERTEX
  8
Image
 10
345.24441771535
 20
-111.367661132404
 42
0.0
  0
VERTEX
  8
Image
 10
366.791814213122
 20
-112.051578961166
 42
0.0
  0
VERTEX
  8
Image
 10
367.475628538202
 20
-76.4815381409207
 42
0.0
  0
VERTEX
  8
Image
 10
344.902510552809
 20
-55.6183354817304
 42
0.0
  0
VERTEX
  8
Image
 10
344.902510552809
 20
-37.1492764885497
 42
0.0
  0
VERTEX
  8
Image
 10
326.775220717261
 20
-37.1492764885497
 42
0.0
  0
VERTEX
  8
Image
 10
298.729863069859
 20
-10.4717544986734
 42
0.0
  0
VERTEX
  8
Image
 10
270.684160410184
 20
-10.129847336133
 42
0.0
  0
VERTEX
  8
Image
 10
270.00000107283
 20
-31.3350606615454
 42
0.0
  0
VERTEX
  8
Image
 10
294.28334489547
 20
-59.3806943187656
 42
0.0
  0
SEQEND
  0
POLYLINE
  8
Image
 66
     1
 10
0.0
 20
0.0
 30
0.0
 70
     1
  0
VERTEX
  8
Image
 10
315.436796108183
 20
54.9613247944881
 42
0.0
  0
VERTEX
  8
Image
 10
315.830741393242
 20
54.9738305735427
 42
0.0
  0
VERTEX
  8
Image
 10
317.540967230489
 20
77.8891662325209
 42
0.0
  0
VERTEX
  8
Image
 10
345.24441771535
 20
106.276776054736
 42
0.0
  0
VERTEX
  8
Image
 10
366.791814213122
 20
106.960693883499
 42
0.0
  0
VERTEX
  8
Image
 10
367.475628538202
 20
71.3906530632535
 42
0.0
  0
VERTEX
  8
Image
 10
344.902510552809
 20
50.5274504040631
 42
0.0
  0
VERTEX
  8
Image
 10
344.902510552809
 20
32.0583914108825
 42
0.0
  0
VERTEX
  8
Image
 10
326.775220717261
 20
32.0583914108825
 42
0.0
  0
VERTEX
  8
Image
 10
298.729863069859
 20
5.3808694210061
 42
0.0
  0
VERTEX
  8
Image
 10
270.684160410184
 20
5.0389622584657
 42
0.0
  0
VERTEX
  8
Image
 10
270.00000107283
 20
26.2441755838781
 42
0.0
  0
VERTEX
  8
Image
 10
294.28334489547
 20
54.2898092410983
 42
0.0
  0
SEQEND
  0
POLYLINE
  8
Image
 66
     1
 10
0.0
 20
0.0
 30
0.0
 70
     1
  0
VERTEX
  8
Image
 10
434.563206291815
 20
174.584150762553
 42
0.0
  0
VERTEX
  8
Image
 10
434.169261006757
 20
174.571644983499
 42
0.0
  0
VERTEX
  8
Image
 10
432.45903516951
 20
151.656309324521
 42
0.0
  0
VERTEX
  8
Image
 10
404.755584684648
 20
123.268699502305
 42
0.0
  0
VERTEX
  8
Image
 10
383.208188186877
 20
122.584781673543
 42
0.0
  0
VERTEX
  8
Image
 10
382.524373861797
 20
158.154822493788
 42
0.0
  0
VERTEX
  8
Image
 10
405.097491847189
 20
179.018025152979
 42
0.0
  0
VERTEX
  8
Image
 10
405.097491847189
 20
197.487084146159
 42
0.0
  0
VERTEX
  8
Image
 10
423.224781682738
 20
197.487084146159
 42
0.0
  0
VERTEX
  8
Image
 10
451.27013933014
 20
224.164606136036
 42
0.0
  0
VERTEX
  8
Image
 10
479.315841989815
 20
224.506513298576
 42
0.0
  0
VERTEX
  8
Image
 10
480.000001327169
 20
203.301299973164
 42
0.0
  0
VERTEX
  8
Image
 10
455.716657504529
 20
175.255666315943
 42
0.0
  0
SEQEND
  0
POLYLINE
  8
Image
 66
     1
 10
0.0
 20
0.0
 30
0.0
 70
     1
  0
VERTEX
  8
Image
 10
315.436796108183
 20
174.584150762553
 42
0.0
  0
VERTEX
  8
Image
 10
315.830741393242
 20
174.571644983499
 42
0.0
  0
VERTEX
  8
Image
 10
317.540967230489
 20
151.65630932452
 42
0.0
  0
VERTEX
  8
Image
 10
345.24441771535
 20
123.268699502305
 42
0.0
  0
VERTEX
  8
Image
 10
366.791814213122
 20
122.584781673543
 42
0.0
  0
VERTEX
  8
Image
 10
367.475628538202
 20
158.154822493788
 42
0.0
  0
VERTEX
  8
Image
 10
344.902510552809
 20
179.018025152978
 42
0.0
  0
VERTEX
  8
Image
 10
344.902510552809
 20
197.487084146159
 42
0.0
  0
VERTEX
  8
Image
 10
326.775220717261
 20
197.487084146159
 42
0.0
  0
VERTEX
  8
Image
 10
298.729863069859
 20
224.164606136035
 42
0.0
  0
VERTEX
  8
Image
 10
270.684160410184
 20
224.506513298576
 42
0.0
  0
VERTEX
  8
Image
 10
270.00000107283
 20
203.301299973163
 42
0.0
  0
VERTEX
  8
Image
 10
294.28334489547
 20
175.255666315943
 42
0.0
  0
SEQEND
  0
POLYLINE
  8
Image
 66
     1
 10
0.0
 20
0.0
 30
0.0
 70
     1
  0
VERTEX
  8
Image
 10
315.436796108183
 20
289.597685429197
 42
0.0
  0
VERTEX
  8
Image
 10
315.830741393242
 20
289.610191208251
 42
0.0
  0
VERTEX
  8
Image
 10
317.540967230489
 20
312.525526867229
 42
0.0
  0
VERTEX
  8
Image
 10
345.24441771535
 20
340.913136689445
 42
0.0
  0
VERTEX
  8
Image
 10
366.791814213122
 20
341.597054518207
 42
0.0
  0
VERTEX
  8
Image
 10
367.475628538202
 20
306.027013697962
 42
0.0
  0
VERTEX
  8
Image
 10
344.902510552809
 20
285.163811038772
 42
0.0
  0
VERTEX
  8
Image
 10
344.902510552809
 20
266.694752045591
 42
0.0
  0
VERTEX
  8
Image
 10
326.775220717261
 20
266.694752045591
 42
0.0
  0
VERTEX
  8
Image
 10
298.729863069859
 20
240.017230055715
 42
0.0
  0
VERTEX
  8
Image
 10
270.684160410184
 20
239.675322893174
 42
0.0
  0
VERTEX
  8
Image
 10
270.00000107283
 20
260.880536218587
 42
0.0
  0
VERTEX
  8
Image
 10
294.28334489547
 20
288.926169875807
 42
0.0
  0
SEQEND
  0
POLYLINE
  8
Image
 66
     1
 10
0.0
 20
0.0
 30
0.0
 70
     1
  0
VERTEX
  8
Image
 10
434.563206291815
 20
289.597685429196
 42
0.0
  0
VERTEX
  8
Image
 10
434.169261006757
 20
289.610191208251
 42
0.0
  0
VERTEX
  8
Image
 10
432.45903516951
 20
312.525526867229
 42
0.0
  0
VERTEX
  8
Image
 10
404.755584684648
 20
340.913136689444
 42
0.0
  0
VERTEX
  8
Image
 10
383.208188186877
 20
341.597054518207
 42
0.0
  0
VERTEX
  8
Image
 10
382.524373861797
 20
306.027013697962
 42
0.0
  0
VERTEX
  8
Image
 10
405.097491847189
 20
285.163811038771
 42
0.0
  0
VERTEX
  8
Image
 10
405.097491847189
 20
266.694752045591
 42
0.0
  0
VERTEX
  8
Image
 10
423.224781682738
 20
266.694752045591
 42
0.0
  0
VERTEX
  8
Image
 10
451.27013933014
 20
240.017230055714
 42
0.0
  0
VERTEX
  8
Image
 10
479.315841989815
 20
239.675322893174
 42
0.0
  0
VERTEX
  8
Image
 10
480.000001327169
 20
260.880536218586
 42
0.0
  0
VERTEX
  8
Image
 10
455.716657504529
 20
288.926169875806
 42
0.0
  0
SEQEND
  0
POLYLINE
  8
Image
 66
     1
 10
0.0
 20
0.0
 30
0.0
 70
     1
  0
VERTEX
  8
Image
 10
434.563206291815
 20
409.220511397262
 42
0.0
  0
VERTEX
  8
Image
 10
434.169261006757
 20
409.208005618208
 42
0.0
  0
VERTEX
  8
Image
 10
432.45903516951
 20
386.292669959229
 42
0.0
  0
VERTEX
  8
Image
 10
404.755584684648
 20
357.905060137014
 42
0.0
  0
VERTEX
  8
Image
 10
383.208188186877
 20
357.221142308252
 42
0.0
  0
VERTEX
  8
Image
 10
382.524373861797
 20
392.791183128496
 42
0.0
  0
VERTEX
  8
Image
 10
405.097491847189
 20
413.654385787687
 42
0.0
  0
VERTEX
  8
Image
 10
405.097491847189
 20
432.123444780867
 42
0.0
  0
VERTEX
  8
Image
 10
423.224781682738
 20
432.123444780867
 42
0.0
  0
VERTEX
  8
Image
 10
451.27013933014
 20
458.800966770744
 42
0.0
  0
VERTEX
  8
Image
 10
479.315841989815
 20
459.142873933285
 42
0.0
  0
VERTEX
  8
Image
 10
480.000001327169
 20
437.937660607872
 42
0.0
  0
VERTEX
  8
Image
 10
455.716657504529
 20
409.892026950652
 42
0.0
  0
SEQEND
  0
POLYLINE
  8
Image
 66
     1
 10
0.0
 20
0.0
 30
0.0
 70
     1
  0
VERTEX
  8
Image
 10
315.436796108183
 20
409.220511397261
 42
0.0
  0
VERTEX
  8
Image
 10
315.830741393242
 20
409.208005618207
 42
0.0
  0
VERTEX
  8
Image
 10
317.540967230489
 20
386.292669959229
 42
0.0
  0
VERTEX
  8
Image
 10
345.24441771535
 20
357.905060137014
 42
0.0
  0
VERTEX
  8
Image
 10
366.791814213122
 20
357.221142308251
 42
0.0
  0
VERTEX
  8
Image
 10
367.475628538202
 20
392.791183128496
 42
0.0
  0
VERTEX
  8
Image
 10
344.902510552809
 20
413.654385787687
 42
0.0
  0
VERTEX
  8
Image
 10
344.902510552809
 20
432.123444780867
 42
0.0
  0
VERTEX
  8
Image
 10
326.775220717261
 20
432.123444780867
 42
0.0
  0
VERTEX
  8
Image
 10
298.729863069859
 20
458.800966770744
 42
0.0
  0
VERTEX
  8
Image
 10
270.684160410184
 20
459.142873933284
 42
0.0
  0
VERTEX
  8
Image
 10
270.00000107283
 20
437.937660607872
 42
0.0
  0
VERTEX
  8
Image
 10
294.28334489547
 20
409.892026950652
 42
0.0
  0
SEQEND
  0
POLYLINE
  8
Image
 66
     1
 10
0.0
 20
0.0
 30
0.0
 70
     1
  0
VERTEX
  8
Image
 10
315.436796108183
 20
524.234046063905
 42
0.0
  0
VERTEX
  8
Image
 10
315.830741393242
 20
524.24655184296
 42
0.0
  0
VERTEX
  8
Image
 10
317.540967230489
 20
547.161887501938
 42
0.0
  0
VERTEX
  8
Image
 10
345.24441771535
 20
575.549497324153
 42
0.0
  0
VERTEX
  8
Image
 10
366.791814213122
 20
576.233415152916
 42
0.0
  0
VERTEX
  8
Image
 10
367.475628538202
 20
540.663374332671
 42
0.0
  0
VERTEX
  8
Image
 10
344.902510552809
 20
519.80017167348
 42
0.0
  0
VERTEX
  8
Image
 10
344.902510552809
 20
501.3311126803
 42
0.0
  0
VERTEX
  8
Image
 10
326.775220717261
 20
501.3311126803
 42
0.0
  0
VERTEX
  8
Image
 10
298.729863069859
 20
474.653590690423
 42
0.0
  0
VERTEX
  8
Image
 10
270.684160410184
 20
474.311683527883
 42
0.0
  0
VERTEX
  8
Image
 10
270.00000107283
 20
495.516896853295
 42
0.0
  0
VERTEX
  8
Image
 10
294.28334489547
 20
523.562530510515
 42
0.0
  0
SEQEND
  0
POLYLINE
  8
Image
 66
     1
 10
0.0
 20
0.0
 30
0.0
 70
     1
  0
VERTEX
  8
Image
 10
434.563206291815
 20
643.85687203197
 42
0.0
  0
VERTEX
  8
Image
 10
434.169261006757
 20
643.844366252916
 42
0.0
  0
VERTEX
  8
Image
 10
432.45903516951
 20
620.929030593938
 42
0.0
  0
VERTEX
  8
Image
 10
404.755584684648
 20
592.541420771723
 42
0.0
  0
VERTEX
  8
Image
 10
383.208188186877
 20
591.85750294296
 42
0.0
  0
VERTEX
  8
Image
 10
382.524373861797
 20
627.427543763205
 42
0.0
  0
VERTEX
  8
Image
 10
405.097491847189
 20
648.290746422395
 42
0.0
  0
VERTEX
  8
Image
 10
405.097491847189
 20
666.759805415576
 42
0.0
  0
VERTEX
  8
Image
 10
423.224781682738
 20
666.759805415576
 42
0.0
  0
VERTEX
  8
Image
 10
451.27013933014
 20
693.437327405453
 42
0.0
  0
VERTEX
  8
Image
 10
479.315841989815
 20
693.779234567993
 42
0.0
  0
VERTEX
  8
Image
 10
480.000001327169
 20
672.57402124258
 42
0.0
  0
VERTEX
  8
Image
 10
455.716657504529
 20
644.52838758536
 42
0.0
  0
SEQEND
  0
POLYLINE
  8
Image
 66
     1
 10
0.0
 20
0.0
 30
0.0
 70
     1
  0
VERTEX
  8
Image
 10
315.436796108183
 20
643.85687203197
 42
0.0
  0
VERTEX
  8
Image
 10
315.830741393242
 20
643.844366252916
 42
0.0
  0
VERTEX
  8
Image
 10
317.540967230489
 20
620.929030593938
 42
0.0
  0
VERTEX
  8
Image
 10
345.24441771535
 20
592.541420771722
 42
0.0
  0
VERTEX
  8
Image
 10
366.791814213122
 20
591.85750294296
 42
0.0
  0
VERTEX
  8
Image
 10
367.475628538202
 20
627.427543763205
 42
0.0
  0
VERTEX
  8
Image
 10
344.902510552809
 20
648.290746422395
 42
0.0
  0
VERTEX
  8
Image
 10
344.902510552809
 20
666.759805415576
 42
0.0
  0
VERTEX
  8
Image
 10
326.775220717261
 20
666.759805415576
 42
0.0
  0
VERTEX
  8
Image
 10
298.729863069859
 20
693.437327405452
 42
0.0
  0
VERTEX
  8
Image
 10
270.684160410184
 20
693.779234567993
 42
0.0
  0
VERTEX
  8
Image
 10
270.00000107283
 20
672.57402124258
 42
0.0
  0
VERTEX
  8
Image
 10
294.28334489547
 20
644.52838758536
 42
0.0
  0
SEQEND
  0
POLYLINE
  8
Image
 66
     1
 10
0.0
 20
0.0
 30
0.0
 70
     1
  0
VERTEX
  8
Image
 10
315.436796108183
 20
758.870406698614
 42
0.0
  0
VERTEX
  8
Image
 10
315.830741393242
 20
758.882912477668
 42
0.0
  0
VERTEX
  8
Image
 10
317.540967230489
 20
781.798248136647
 42
0.0
  0
VERTEX
  8
Image
 10
345.24441771535
 20
810.185857958862
 42
0.0
  0
VERTEX
  8
Image
 10
366.791814213122
 20
810.869775787624
 42
0.0
  0
VERTEX
  8
Image
 10
367.475628538202
 20
775.299734967379
 42
0.0
  0
VERTEX
  8
Image
 10
344.902510552809
 20
754.436532308189
 42
0.0
  0
VERTEX
  8
Image
 10
344.902510552809
 20
735.967473315008
 42
0.0
  0
VERTEX
  8
Image
 10
326.775220717261
 20
735.967473315008
 42
0.0
  0
VERTEX
  8
Image
 10
298.729863069859
 20
709.289951325132
 42
0.0
  0
VERTEX
  8
Image
 10
270.684160410184
 20
708.948044162591
 42
0.0
  0
VERTEX
  8
Image
 10
270.00000107283
 20
730.153257488004
 42
0.0
  0
VERTEX
  8
Image
 10
294.28334489547
 20
758.198891145224
 42
0.0
  0
SEQEND
  0
POLYLINE
  8
Image
 66
     1
 10
0.0
 20
0.0
 30
0.0
 70
     1
  0
VERTEX
  8
Image
 10
434.563206291815
 20
878.493232666679
 42
0.0
  0
VERTEX
  8
Image
 10
434.169261006757
 20
878.480726887624
 42
0.0
  0
VERTEX
  8
Image
 10
432.45903516951
 20
855.565391228647
 42
0.0
  0
VERTEX
  8
Image
 10
404.755584684648
 20
827.177781406431
 42
0.0
  0
VERTEX
  8
Image
 10
383.208188186877
 20
826.493863577669
 42
0.0
  0
VERTEX
  8
Image
 10
382.524373861797
 20
862.063904397913
 42
0.0
  0
VERTEX
  8
Image
 10
405.097491847189
 20
882.927107057104
 42
0.0
  0
VERTEX
  8
Image
 10
405.097491847189
 20
901.396166050285
 42
0.0
  0
VERTEX
  8
Image
 10
423.224781682738
 20
901.396166050285
 42
0.0
  0
VERTEX
  8
Image
 10
451.27013933014
 20
928.073688040161
 42
0.0
  0
VERTEX
  8
Image
 10
479.315841989815
 20
928.415595202701
 42
0.0
  0
VERTEX
  8
Image
 10
480.000001327169
 20
907.210381877288
 42
0.0
  0
VERTEX
  8
Image
 10
455.716657504529
 20
879.164748220069
 42
0.0
  0
SEQEND
  0
POLYLINE
  8
Image
 66
     1
 10
0.0
 20
0.0
 30
0.0
 70
     1
  0
VERTEX
  8
Image
 10
315.436796108183
 20
878.493232666678
 42
0.0
  0
VERTEX
  8
Image
 10
315.830741393242
 20
878.480726887624
 42
0.0
  0
VERTEX
  8
Image
 10
317.540967230489
 20
855.565391228646
 42
0.0
  0
VERTEX
  8
Image
 10
345.24441771535
 20
827.177781406431
 42
0.0
  0
VERTEX
  8
Image
 10
366.791814213122
 20
826.493863577668
 42
0.0
  0
VERTEX
  8
Image
 10
367.475628538202
 20
862.063904397913
 42
0.0
  0
VERTEX
  8
Image
 10
344.902510552809
 20
882.927107057104
 42
0.0
  0
VERTEX
  8
Image
 10
344.902510552809
 20
901.396166050285
 42
0.0
  0
VERTEX
  8
Image
 10
326.775220717261
 20
901.396166050285
 42
0.0
  0
VERTEX
  8
Image
 10
298.729863069859
 20
928.073688040161
 42
0.0
  0
VERTEX
  8
Image
 10
270.684160410184
 20
928.415595202701
 42
0.0
  0
VERTEX
  8
Image
 10
270.00000107283
 20
907.210381877288
 42
0.0
  0
VERTEX
  8
Image
 10
294.28334489547
 20
879.164748220068
 42
0.0
  0
SEQEND
  0
POLYLINE
  8
Image
 66
     1
 10
0.0
 20
0.0
 30
0.0
 70
     1
  0
VERTEX
  8
Image
 10
344.902510552809
 20
980.000003575
 42
0.0
  0
VERTEX
  8
Image
 10
344.902510552809
 20
970.603833949716
 42
0.0
  0
VERTEX
  8
Image
 10
326.775220717261
 20
970.603833949716
 42
0.0
  0
VERTEX
  8
Image
 10
298.729863069859
 20
943.92631195984
 42
0.0
  0
VERTEX
  8
Image
 10
270.684160410184
 20
943.5844047973
 42
0.0
  0
VERTEX
  8
Image
 10
270.00000107283
 20
964.789618122712
 42
0.0
  0
VERTEX
  8
Image
 10
283.169930628609
 20
980.000003575
 42
0.0
  0
SEQEND
  0
POLYLINE
  8
Image
 66
     1
 10
0.0
 20
0.0
 30
0.0
 70
     1
  0
VERTEX
  8
Image
 10
466.830071771389
 20
980.000003575
 42
0.0
  0
VERTEX
  8
Image
 10
405.097491847189
 20
980.000003575
 42
0.0
  0
VERTEX
  8
Image
 10
405.097491847189
 20
970.603833949716
 42
0.0
  0
VERTEX
  8
Image
 10
423.224781682738
 20
970.603833949716
 42
0.0
  0
VERTEX
  8
Image
 10
451.27013933014
 20
943.92631195984
 42
0.0
  0
VERTEX
  8
Image
 10
479.315841989815
 20
943.5844047973
 42
0.0
  0
VERTEX
  8
Image
 10
480.000001327169
 20
964.789618122712
 42
0.0
  0
SEQEND
  0
POLYLINE
  8
Image
 66
     1
 10
0.0
 20
0.0
 30
0.0
 70
     1
  0
VERTEX
  8
Image
 10
344.902510552809
 20
-980.000003574999
 42
0.0
  0
VERTEX
  8
Image
 10
344.902510552809
 20
-975.694719027384
 42
0.0
  0
VERTEX
  8
Image
 10
326.775220717261
 20
-975.694719027384
 42
0.0
  0
VERTEX
  8
Image
 10
298.729863069859
 20
-949.017197037507
 42
0.0
  0
VERTEX
  8
Image
 10
270.684160410184
 20
-948.675289874967
 42
0.0
  0
VERTEX
  8
Image
 10
270.00000107283
 20
-969.88050320038
 42
0.0
  0
VERTEX
  8
Image
 10
278.761981989849
 20
-980.000003575
 42
0.0
  0
SEQEND
  0
POLYLINE
  8
Image
 66
     1
 10
0.0
 20
0.0
 30
0.0
 70
     1
  0
VERTEX
  8
Image
 10
471.23802041015
 20
-980.000003575
 42
0.0
  0
VERTEX
  8
Image
 10
405.097491847188
 20
-980.000003574999
 42
0.0
  0
VERTEX
  8
Image
 10
405.097491847189
 20
-975.694719027384
 42
0.0
  0
VERTEX
  8
Image
 10
423.224781682738
 20
-975.694719027384
 42
0.0
  0
VERTEX
  8
Image
 10
451.27013933014
 20
-949.017197037507
 42
0.0
  0
VERTEX
  8
Image
 10
479.315841989815
 20
-948.675289874967
 42
0.0
  0
VERTEX
  8
Image
 10
480.000001327169
 20
-969.880503200379
 42
0.0
  0
SEQEND
  0
POLYLINE
  8
Image
 66
     1
 10
0.0
 20
0.0
 30
0.0
 70
     1
  0
VERTEX
  8
Image
 10
434.563206291815
 20
758.870406698613
 42
0.0
  0
VERTEX
  8
Image
 10
434.169261006757
 20
758.882912477668
 42
0.0
  0
VERTEX
  8
Image
 10
432.45903516951
 20
781.798248136646
 42
0.0
  0
VERTEX
  8
Image
 10
404.755584684649
 20
810.185857958862
 42
0.0
  0
VERTEX
  8
Image
 10
383.208188186877
 20
810.869775787624
 42
0.0
  0
VERTEX
  8
Image
 10
382.524373861797
 20
775.299734967379
 42
0.0
  0
VERTEX
  8
Image
 10
405.097491847189
 20
754.436532308188
 42
0.0
  0
VERTEX
  8
Image
 10
405.097491847189
 20
735.967473315008
 42
0.0
  0
VERTEX
  8
Image
 10
423.224781682738
 20
735.967473315008
 42
0.0
  0
VERTEX
  8
Image
 10
451.27013933014
 20
709.289951325131
 42
0.0
  0
VERTEX
  8
Image
 10
479.315841989815
 20
708.948044162591
 42
0.0
  0
VERTEX
  8
Image
 10
480.000001327169
 20
730.153257488003
 42
0.0
  0
VERTEX
  8
Image
 10
455.716657504529
 20
758.198891145224
 42
0.0
  0
SEQEND
  0
POLYLINE
  8
Image
 66
     1
 10
0.0
 20
0.0
 30
0.0
 70
     1
  0
VERTEX
  8
Image
 10
480.000001327169
 20
773.723140115929
 42
0.0
  0
VERTEX
  8
Image
 10
480.000001327169
 20
810.935080518474
 42
0.0
  0
VERTEX
  8
Image
 10
466.684160410184
 20
811.097414885347
 42
0.0
  0
VERTEX
  8
Image
 10
466.00000107283
 20
789.892201559934
 42
0.0
  0
SEQEND
  0
POLYLINE
  8
Image
 66
     1
 10
0.0
 20
0.0
 30
0.0
 70
     1
  0
VERTEX
  8
Image
 10
480.000001327169
 20
826.428558846818
 42
0.0
  0
VERTEX
  8
Image
 10
466.684160410184
 20
826.266224479945
 42
0.0
  0
VERTEX
  8
Image
 10
466.00000107283
 20
847.471437805358
 42
0.0
  0
VERTEX
  8
Image
 10
480.000001327169
 20
863.640499249363
 42
0.0
  0
SEQEND
  0
POLYLINE
  8
Image
 66
     1
 10
0.0
 20
0.0
 30
0.0
 70
     1
  0
VERTEX
  8
Image
 10
480.000001327169
 20
539.086779481221
 42
0.0
  0
VERTEX
  8
Image
 10
480.000001327169
 20
576.298719883766
 42
0.0
  0
VERTEX
  8
Image
 10
466.684160410184
 20
576.461054250639
 42
0.0
  0
VERTEX
  8
Image
 10
466.00000107283
 20
555.255840925226
 42
0.0
  0
SEQEND
  0
POLYLINE
  8
Image
 66
     1
 10
0.0
 20
0.0
 30
0.0
 70
     1
  0
VERTEX
  8
Image
 10
480.000001327169
 20
591.79219821211
 42
0.0
  0
VERTEX
  8
Image
 10
466.684160410184
 20
591.629863845237
 42
0.0
  0
VERTEX
  8
Image
 10
466.00000107283
 20
612.83507717065
 42
0.0
  0
VERTEX
  8
Image
 10
480.000001327169
 20
629.004138614654
 42
0.0
  0
SEQEND
  0
POLYLINE
  8
Image
 66
     1
 10
0.0
 20
0.0
 30
0.0
 70
     1
  0
VERTEX
  8
Image
 10
434.563206291815
 20
524.234046063905
 42
0.0
  0
VERTEX
  8
Image
 10
434.169261006757
 20
524.246551842959
 42
0.0
  0
VERTEX
  8
Image
 10
432.45903516951
 20
547.161887501938
 42
0.0
  0
VERTEX
  8
Image
 10
404.755584684649
 20
575.549497324153
 42
0.0
  0
VERTEX
  8
Image
 10
383.208188186877
 20
576.233415152915
 42
0.0
  0
VERTEX
  8
Image
 10
382.524373861797
 20
540.66337433267
 42
0.0
  0
VERTEX
  8
Image
 10
405.097491847189
 20
519.80017167348
 42
0.0
  0
VERTEX
  8
Image
 10
405.097491847189
 20
501.331112680299
 42
0.0
  0
VERTEX
  8
Image
 10
423.224781682738
 20
501.331112680299
 42
0.0
  0
VERTEX
  8
Image
 10
451.27013933014
 20
474.653590690423
 42
0.0
  0
VERTEX
  8
Image
 10
479.315841989815
 20
474.311683527882
 42
0.0
  0
VERTEX
  8
Image
 10
480.000001327169
 20
495.516896853295
 42
0.0
  0
VERTEX
  8
Image
 10
455.716657504529
 20
523.562530510515
 42
0.0
  0
SEQEND
  0
POLYLINE
  8
Image
 66
     1
 10
0.0
 20
0.0
 30
0.0
 70
     1
  0
VERTEX
  8
Image
 10
480.000001327169
 20
304.450418846513
 42
0.0
  0
VERTEX
  8
Image
 10
480.000001327169
 20
341.662359249058
 42
0.0
  0
VERTEX
  8
Image
 10
466.684160410184
 20
341.824693615931
 42
0.0
  0
VERTEX
  8
Image
 10
466.00000107283
 20
320.619480290517
 42
0.0
  0
SEQEND
  0
POLYLINE
  8
Image
 66
     1
 10
0.0
 20
0.0
 30
0.0
 70
     1
  0
VERTEX
  8
Image
 10
480.000001327169
 20
357.155837577402
 42
0.0
  0
VERTEX
  8
Image
 10
466.684160410184
 20
356.993503210529
 42
0.0
  0
VERTEX
  8
Image
 10
466.00000107283
 20
378.198716535941
 42
0.0
  0
VERTEX
  8
Image
 10
480.000001327169
 20
394.367777979946
 42
0.0
  0
SEQEND
  0
POLYLINE
  8
Image
 66
     1
 10
0.0
 20
0.0
 30
0.0
 70
     1
  0
VERTEX
  8
Image
 10
480.000001327169
 20
69.814058211804
 42
0.0
  0
VERTEX
  8
Image
 10
480.000001327169
 20
107.025998614349
 42
0.0
  0
VERTEX
  8
Image
 10
466.684160410184
 20
107.188332981222
 42
0.0
  0
VERTEX
  8
Image
 10
466.00000107283
 20
85.9831196558089
 42
0.0
  0
SEQEND
  0
POLYLINE
  8
Image
 66
     1
 10
0.0
 20
0.0
 30
0.0
 70
     1
  0
VERTEX
  8
Image
 10
480.000001327169
 20
122.519476942693
 42
0.0
  0
VERTEX
  8
Image
 10
466.684160410184
 20
122.35714257582
 42
0.0
  0
VERTEX
  8
Image
 10
466.00000107283
 20
143.562355901233
 42
0.0
  0
VERTEX
  8
Image
 10
480.000001327169
 20
159.731417345238
 42
0.0
  0
SEQEND
  0
POLYLINE
  8
Image
 66
     1
 10
0.0
 20
0.0
 30
0.0
 70
     1
  0
VERTEX
  8
Image
 10
434.563206291815
 20
54.9613247944881
 42
0.0
  0
VERTEX
  8
Image
 10
434.169261006757
 20
54.9738305735427
 42
0.0
  0
VERTEX
  8
Image
 10
432.45903516951
 20
77.8891662325209
 42
0.0
  0
VERTEX
  8
Image
 10
404.755584684649
 20
106.276776054736
 42
0.0
  0
VERTEX
  8
Image
 10
383.208188186877
 20
106.960693883499
 42
0.0
  0
VERTEX
  8
Image
 10
382.524373861797
 20
71.3906530632535
 42
0.0
  0
VERTEX
  8
Image
 10
405.097491847189
 20
50.5274504040631
 42
0.0
  0
VERTEX
  8
Image
 10
405.097491847189
 20
32.0583914108825
 42
0.0
  0
VERTEX
  8
Image
 10
423.224781682738
 20
32.0583914108825
 42
0.0
  0
VERTEX
  8
Image
 10
451.27013933014
 20
5.3808694210061
 42
0.0
  0
VERTEX
  8
Image
 10
479.315841989815
 20
5.0389622584657
 42
0.0
  0
VERTEX
  8
Image
 10
480.000001327169
 20
26.2441755838781
 42
0.0
  0
VERTEX
  8
Image
 10
455.716657504529
 20
54.2898092410983
 42
0.0
  0
SEQEND
  0
POLYLINE
  8
Image
 66
     1
 10
0.0
 20
0.0
 30
0.0
 70
     1
  0
VERTEX
  8
Image
 10
480.000001327169
 20
-164.822302422905
 42
0.0
  0
VERTEX
  8
Image
 10
480.000001327169
 20
-127.61036202036
 42
0.0
  0
VERTEX
  8
Image
 10
466.684160410184
 20
-127.448027653487
 42
0.0
  0
VERTEX
  8
Image
 10
466.00000107283
 20
-148.6532409789
 42
0.0
  0
SEQEND
  0
POLYLINE
  8
Image
 66
     1
 10
0.0
 20
0.0
 30
0.0
 70
     1
  0
VERTEX
  8
Image
 10
480.000001327169
 20
-112.116883692016
 42
0.0
  0
VERTEX
  8
Image
 10
466.684160410184
 20
-112.279218058889
 42
0.0
  0
VERTEX
  8
Image
 10
466.00000107283
 20
-91.0740047334762
 42
0.0
  0
VERTEX
  8
Image
 10
480.000001327169
 20
-74.9049432894712
 42
0.0
  0
SEQEND
  0
POLYLINE
  8
Image
 66
     1
 10
0.0
 20
0.0
 30
0.0
 70
     1
  0
VERTEX
  8
Image
 10
480.000001327169
 20
-399.458663057614
 42
0.0
  0
VERTEX
  8
Image
 10
480.000001327169
 20
-362.246722655069
 42
0.0
  0
VERTEX
  8
Image
 10
466.684160410184
 20
-362.084388288195
 42
0.0
  0
VERTEX
  8
Image
 10
466.00000107283
 20
-383.289601613609
 42
0.0
  0
SEQEND
  0
POLYLINE
  8
Image
 66
     1
 10
0.0
 20
0.0
 30
0.0
 70
     1
  0
VERTEX
  8
Image
 10
480.000001327169
 20
-346.753244326724
 42
0.0
  0
VERTEX
  8
Image
 10
466.684160410184
 20
-346.915578693598
 42
0.0
  0
VERTEX
  8
Image
 10
466.00000107283
 20
-325.710365368185
 42
0.0
  0
VERTEX
  8
Image
 10
480.000001327169
 20
-309.54130392418
 42
0.0
  0
SEQEND
  0
POLYLINE
  8
Image
 66
     1
 10
0.0
 20
0.0
 30
0.0
 70
     1
  0
VERTEX
  8
Image
 10
480.000001327169
 20
-634.095023692322
 42
0.0
  0
VERTEX
  8
Image
 10
480.000001327169
 20
-596.883083289777
 42
0.0
  0
VERTEX
  8
Image
 10
466.684160410184
 20
-596.720748922904
 42
0.0
  0
VERTEX
  8
Image
 10
466.00000107283
 20
-617.925962248317
 42
0.0
  0
SEQEND
  0
POLYLINE
  8
Image
 66
     1
 10
0.0
 20
0.0
 30
0.0
 70
     1
  0
VERTEX
  8
Image
 10
480.000001327169
 20
-581.389604961433
 42
0.0
  0
VERTEX
  8
Image
 10
466.684160410184
 20
-581.551939328306
 42
0.0
  0
VERTEX
  8
Image
 10
466.00000107283
 20
-560.346726002893
 42
0.0
  0
VERTEX
  8
Image
 10
480.000001327169
 20
-544.177664558888
 42
0.0
  0
SEQEND
  0
POLYLINE
  8
Image
 66
     1
 10
0.0
 20
0.0
 30
0.0
 70
     1
  0
VERTEX
  8
Image
 10
480.000001327169
 20
-868.73138432703
 42
0.0
  0
VERTEX
  8
Image
 10
480.000001327169
 20
-831.519443924485
 42
0.0
  0
VERTEX
  8
Image
 10
466.684160410184
 20
-831.357109557612
 42
0.0
  0
VERTEX
  8
Image
 10
466.00000107283
 20
-852.562322883025
 42
0.0
  0
SEQEND
  0
POLYLINE
  8
Image
 66
     1
 10
0.0
 20
0.0
 30
0.0
 70
     1
  0
VERTEX
  8
Image
 10
480.000001327169
 20
-816.025965596141
 42
0.0
  0
VERTEX
  8
Image
 10
466.684160410184
 20
-816.188299963014
 42
0.0
  0
VERTEX
  8
Image
 10
466.00000107283
 20
-794.983086637601
 42
0.0
  0
VERTEX
  8
Image
 10
480.000001327169
 20
-778.814025193597
 42
0.0
  0
SEQEND
  0
POLYLINE
  8
Image
 66
     1
 10
0.0
 20
0.0
 30
0.0
 70
     1
  0
VERTEX
  8
Image
 10
434.563206291815
 20
-883.584117744346
 42
0.0
  0
VERTEX
  8
Image
 10
434.169261006757
 20
-883.571611965292
 42
0.0
  0
VERTEX
  8
Image
 10
432.45903516951
 20
-860.656276306313
 42
0.0
  0
VERTEX
  8
Image
 10
404.755584684649
 20
-832.268666484098
 42
0.0
  0
VERTEX
  8
Image
 10
383.208188186877
 20
-831.584748655336
 42
0.0
  0
VERTEX
  8
Image
 10
382.524373861797
 20
-867.154789475581
 42
0.0
  0
VERTEX
  8
Image
 10
405.097491847189
 20
-888.017992134771
 42
0.0
  0
VERTEX
  8
Image
 10
405.097491847189
 20
-906.487051127952
 42
0.0
  0
VERTEX
  8
Image
 10
423.224781682738
 20
-906.487051127952
 42
0.0
  0
VERTEX
  8
Image
 10
451.27013933014
 20
-933.164573117828
 42
0.0
  0
VERTEX
  8
Image
 10
479.315841989815
 20
-933.506480280369
 42
0.0
  0
VERTEX
  8
Image
 10
480.000001327169
 20
-912.301266954956
 42
0.0
  0
VERTEX
  8
Image
 10
455.716657504529
 20
-884.255633297736
 42
0.0
  0
SEQEND
  0
POLYLINE
  8
Image
 66
     1
 10
0.0
 20
0.0
 30
0.0
 70
     1
  0
VERTEX
  8
Image
 10
269.433313681889
 20
773.723140115929
 42
0.0
  0
VERTEX
  8
Image
 10
269.433313681889
 20
810.935080518474
 42
0.0
  0
VERTEX
  8
Image
 10
282.749154598874
 20
811.097414885347
 42
0.0
  0
VERTEX
  8
Image
 10
283.433313936227
 20
789.892201559934
 42
0.0
  0
SEQEND
  0
POLYLINE
  8
Image
 66
     1
 10
0.0
 20
0.0
 30
0.0
 70
     1
  0
VERTEX
  8
Image
 10
269.433313681889
 20
826.428558846818
 42
0.0
  0
VERTEX
  8
Image
 10
282.749154598874
 20
826.266224479945
 42
0.0
  0
VERTEX
  8
Image
 10
283.433313936227
 20
847.471437805358
 42
0.0
  0
VERTEX
  8
Image
 10
269.433313681889
 20
863.640499249363
 42
0.0
  0
SEQEND
  0
POLYLINE
  8
Image
 66
     1
 10
0.0
 20
0.0
 30
0.0
 70
     1
  0
VERTEX
  8
Image
 10
269.433313681889
 20
539.086779481221
 42
0.0
  0
VERTEX
  8
Image
 10
269.433313681889
 20
576.298719883766
 42
0.0
  0
VERTEX
  8
Image
 10
282.749154598874
 20
576.461054250639
 42
0.0
  0
VERTEX
  8
Image
 10
283.433313936227
 20
555.255840925226
 42
0.0
  0
SEQEND
  0
POLYLINE
  8
Image
 66
     1
 10
0.0
 20
0.0
 30
0.0
 70
     1
  0
VERTEX
  8
Image
 10
269.433313681889
 20
591.79219821211
 42
0.0
  0
VERTEX
  8
Image
 10
282.749154598874
 20
591.629863845237
 42
0.0
  0
VERTEX
  8
Image
 10
283.433313936227
 20
612.83507717065
 42
0.0
  0
VERTEX
  8
Image
 10
269.433313681889
 20
629.004138614654
 42
0.0
  0
SEQEND
  0
POLYLINE
  8
Image
 66
     1
 10
0.0
 20
0.0
 30
0.0
 70
     1
  0
VERTEX
  8
Image
 10
269.433313681889
 20
304.450418846513
 42
0.0
  0
VERTEX
  8
Image
 10
269.433313681889
 20
341.662359249058
 42
0.0
  0
VERTEX
  8
Image
 10
282.749154598874
 20
341.824693615931
 42
0.0
  0
VERTEX
  8
Image
 10
283.433313936227
 20
320.619480290517
 42
0.0
  0
SEQEND
  0
POLYLINE
  8
Image
 66
     1
 10
0.0
 20
0.0
 30
0.0
 70
     1
  0
VERTEX
  8
Image
 10
269.433313681889
 20
357.155837577402
 42
0.0
  0
VERTEX
  8
Image
 10
282.749154598874
 20
356.993503210529
 42
0.0
  0
VERTEX
  8
Image
 10
283.433313936227
 20
378.198716535941
 42
0.0
  0
VERTEX
  8
Image
 10
269.433313681889
 20
394.367777979946
 42
0.0
  0
SEQEND
  0
POLYLINE
  8
Image
 66
     1
 10
0.0
 20
0.0
 30
0.0
 70
     1
  0
VERTEX
  8
Image
 10
269.433313681889
 20
69.814058211804
 42
0.0
  0
VERTEX
  8
Image
 10
269.433313681889
 20
107.025998614349
 42
0.0
  0
VERTEX
  8
Image
 10
282.749154598874
 20
107.188332981222
 42
0.0
  0
VERTEX
  8
Image
 10
283.433313936227
 20
85.9831196558089
 42
0.0
  0
SEQEND
  0
POLYLINE
  8
Image
 66
     1
 10
0.0
 20
0.0
 30
0.0
 70
     1
  0
VERTEX
  8
Image
 10
269.433313681889
 20
122.519476942693
 42
0.0
  0
VERTEX
  8
Image
 10
282.749154598874
 20
122.35714257582
 42
0.0
  0
VERTEX
  8
Image
 10
283.433313936227
 20
143.562355901233
 42
0.0
  0
VERTEX
  8
Image
 10
269.433313681889
 20
159.731417345238
 42
0.0
  0
SEQEND
  0
POLYLINE
  8
Image
 66
     1
 10
0.0
 20
0.0
 30
0.0
 70
     1
  0
VERTEX
  8
Image
 10
269.433313681889
 20
-164.822302422905
 42
0.0
  0
VERTEX
  8
Image
 10
269.433313681889
 20
-127.61036202036
 42
0.0
  0
VERTEX
  8
Image
 10
282.749154598874
 20
-127.448027653487
 42
0.0
  0
VERTEX
  8
Image
 10
283.433313936227
 20
-148.6532409789
 42
0.0
  0
SEQEND
  0
POLYLINE
  8
Image
 66
     1
 10
0.0
 20
0.0
 30
0.0
 70
     1
  0
VERTEX
  8
Image
 10
269.433313681889
 20
-112.116883692016
 42
0.0
  0
VERTEX
  8
Image
 10
282.749154598874
 20
-112.279218058889
 42
0.0
  0
VERTEX
  8
Image
 10
283.433313936227
 20
-91.0740047334762
 42
0.0
  0
VERTEX
  8
Image
 10
269.433313681889
 20
-74.9049432894712
 42
0.0
  0
SEQEND
  0
POLYLINE
  8
Image
 66
     1
 10
0.0
 20
0.0
 30
0.0
 70
     1
  0
VERTEX
  8
Image
 10
269.433313681889
 20
-399.458663057614
 42
0.0
  0
VERTEX
  8
Image
 10
269.433313681889
 20
-362.246722655069
 42
0.0
  0
VERTEX
  8
Image
 10
282.749154598874
 20
-362.084388288195
 42
0.0
  0
VERTEX
  8
Image
 10
283.433313936227
 20
-383.289601613609
 42
0.0
  0
SEQEND
  0
POLYLINE
  8
Image
 66
     1
 10
0.0
 20
0.0
 30
0.0
 70
     1
  0
VERTEX
  8
Image
 10
269.433313681889
 20
-346.753244326724
 42
0.0
  0
VERTEX
  8
Image
 10
282.749154598874
 20
-346.915578693598
 42
0.0
  0
VERTEX
  8
Image
 10
283.433313936227
 20
-325.710365368185
 42
0.0
  0
VERTEX
  8
Image
 10
269.433313681889
 20
-309.54130392418
 42
0.0
  0
SEQEND
  0
POLYLINE
  8
Image
 66
     1
 10
0.0
 20
0.0
 30
0.0
 70
     1
  0
VERTEX
  8
Image
 10
269.433313681889
 20
-634.095023692322
 42
0.0
  0
VERTEX
  8
Image
 10
269.433313681889
 20
-596.883083289777
 42
0.0
  0
VERTEX
  8
Image
 10
282.749154598874
 20
-596.720748922904
 42
0.0
  0
VERTEX
  8
Image
 10
283.433313936227
 20
-617.925962248317
 42
0.0
  0
SEQEND
  0
POLYLINE
  8
Image
 66
     1
 10
0.0
 20
0.0
 30
0.0
 70
     1
  0
VERTEX
  8
Image
 10
269.433313681889
 20
-581.389604961433
 42
0.0
  0
VERTEX
  8
Image
 10
282.749154598874
 20
-581.551939328306
 42
0.0
  0
VERTEX
  8
Image
 10
283.433313936227
 20
-560.346726002893
 42
0.0
  0
VERTEX
  8
Image
 10
269.433313681889
 20
-544.177664558888
 42
0.0
  0
SEQEND
  0
POLYLINE
  8
Image
 66
     1
 10
0.0
 20
0.0
 30
0.0
 70
     1
  0
VERTEX
  8
Image
 10
269.433313681889
 20
-868.73138432703
 42
0.0
  0
VERTEX
  8
Image
 10
269.433313681889
 20
-831.519443924485
 42
0.0
  0
VERTEX
  8
Image
 10
282.749154598874
 20
-831.357109557612
 42
0.0
  0
VERTEX
  8
Image
 10
283.433313936227
 20
-852.562322883025
 42
0.0
  0
SEQEND
  0
POLYLINE
  8
Image
 66
     1
 10
0.0
 20
0.0
 30
0.0
 70
     1
  0
VERTEX
  8
Image
 10
269.433313681889
 20
-816.025965596141
 42
0.0
  0
VERTEX
  8
Image
 10
282.749154598874
 20
-816.188299963014
 42
0.0
  0
VERTEX
  8
Image
 10
283.433313936227
 20
-794.983086637601
 42
0.0
  0
VERTEX
  8
Image
 10
269.433313681889
 20
-778.814025193597
 42
0.0
  0
SEQEND
  0
POLYLINE
  8
Image
 66
     1
 10
0.0
 20
0.0
 30
0.0
 70
     1
  0
VERTEX
  8
Image
 10
250.0000008
 20
1000.000003575
 42
0.0
  0
VERTEX
  8
Image
 10
-500.000001599999
 20
1000.000003575
 42
0.0
  0
VERTEX
  8
Image
 10
-500.000001599999
 20
-1000.000003575
 42
0.0
  0
VERTEX
  8
Image
 10
500.000001599999
 20
-1000.000003575
 42
0.0
  0
VERTEX
  8
Image
 10
500.000001599999
 20
1000.000003575
 42
0.0
  0
SEQEND
  0
POLYLINE
  8
Image
 66
     1
 10
0.0
 20
0.0
 30
0.0
 70
     0
  0
VERTEX
  8
Image
 10
-250.0000008
 20
1000.000003575
 42
0.0
  0
VERTEX
  8
Image
 10
-250.0000008
 20
-1000.000003575
 42
0.0
  0
SEQEND
  0
POLYLINE
  8
Image
 66
     1
 10
0.0
 20
0.0
 30
0.0
 70
     0
  0
VERTEX
  8
Image
 10
0.0
 20
1000.000003575
 42
0.0
  0
VERTEX
  8
Image
 10
0.0
 20
-1000.000003575
 42
0.0
  0
SEQEND
  0
POLYLINE
  8
Image
 66
     1
 10
0.0
 20
0.0
 30
0.0
 70
     0
  0
VERTEX
  8
Image
 10
250.0000008
 20
1000.000003575
 42
0.0
  0
VERTEX
  8
Image
 10
250.0000008
 20
-1000.000003575
 42
0.0
  0
SEQEND
  0
ENDSEC
  0
EOF
