  0
SECTION
  2
HEADER
  9
$ACADVER
  1
AC1009
  9
$EXTMAX
 10
4776.0
 20
1232.0
 30
0.0
  9
$EXTMIN
 10
1032.0
 20
-755.0
 30
0.0
  9
$INSUNITS
 70
     4
  9
$LUNITS
 70
     2
  9
$LUPREC
 70
     4
  9
$MEASUREMENT
 70
     1
  0
ENDSEC
  0
SECTION
  2
TABLES
  0
TABLE
  2
LAYER
 70
     1
  0
LAYER
  2
0
 70
     0
 62
     7
  6
Continuous
  0
LAYER
  2
Default
 70
     0
 62
    70
  6
Continuous
  0
ENDTAB
  0
TABLE
  2
APPID
 70
     1
  0
APPID
  2
ACAD
 70
     0
  0
ENDTAB
  0
ENDSEC
  0
SECTION
  2
ENTITIES
  0
POLYLINE
  8
Default
 66
     1
 10
0.0
 20
0.0
 30
0.0
 70
     1
  0
VERTEX
  8
Default
 10
3591.8787843
 20
-744.781053120001
 42
0.0
  0
VERTEX
  8
Default
 10
3651.8787837
 20
-744.781053120001
 42
0.0
  0
VERTEX
  8
Default
 10
3651.8787837
 20
105.21893956
 42
0.0
  0
VERTEX
  8
Default
 10
3591.8787843
 20
105.21893956
 42
0.0
  0
SEQEND
  0
POLYLINE
  8
Default
 66
     1
 10
0.0
 20
0.0
 30
0.0
 70
     1
  0
VERTEX
  8
Default
 10
1147.99999972857
 20
-528.503300294086
 42
0.0
  0
VERTEX
  8
Default
 10
1228.0
 20
-528.503300294086
 42
0.0
  0
VERTEX
  8
Default
 10
1228.0
 20
-438.503300331586
 42
0.0
  0
VERTEX
  8
Default
 10
1147.99999972857
 20
-438.503300331586
 42
0.0
  0
SEQEND
  0
CIRCLE
  8
Default
 10
1208.01926043926
 20
-448.479238312788
 30
0.0
 40
3.9999999911648
  0
CIRCLE
  8
Default
 10
1167.98073928932
 20
-448.527366512825
 30
0.0
 40
3.9999999911648
  0
POLYLINE
  8
Default
 66
     1
 10
0.0
 20
0.0
 30
0.0
 70
     1
  0
VERTEX
  8
Default
 10
4776.0
 20
1064.99999526119
 42
0.0
  0
VERTEX
  8
Default
 10
4376.00000071259
 20
1064.99999526119
 42
0.0
  0
VERTEX
  8
Default
 10
4376.00000071259
 20
934.999994760001
 42
0.0
  0
VERTEX
  8
Default
 10
4246.0000025537
 20
934.999994760001
 42
0.0
  0
VERTEX
  8
Default
 10
4246.0000025537
 20
1009.9999941757
 42
0.0
  0
VERTEX
  8
Default
 10
3776.00000046749
 20
1009.9999941757
 42
0.0
  0
VERTEX
  8
Default
 10
3776.00000046749
 20
934.999994760001
 42
0.0
  0
VERTEX
  8
Default
 10
3973.99999963067
 20
934.999994760001
 42
0.0
  0
VERTEX
  8
Default
 10
3973.99999963067
 20
424.999996700728
 42
0.0
  0
VERTEX
  8
Default
 10
3776.00000046749
 20
424.999996700728
 42
0.0
  0
VERTEX
  8
Default
 10
3776.00000046749
 20
-625.000007339586
 42
0.0
  0
VERTEX
  8
Default
 10
3776.00000046749
 20
-700.000006755283
 42
0.0
  0
VERTEX
  8
Default
 10
4246.0000025537
 20
-700.000006755283
 42
0.0
  0
VERTEX
  8
Default
 10
4246.0000025537
 20
-625.000007339586
 42
0.0
  0
VERTEX
  8
Default
 10
4376.00000071259
 20
-624.999994760001
 42
0.0
  0
VERTEX
  8
Default
 10
4376.00000071259
 20
-754.999995261191
 42
0.0
  0
VERTEX
  8
Default
 10
4776.0
 20
-754.99999526119
 42
0.0
  0
SEQEND
  0
POLYLINE
  8
Default
 66
     1
 10
0.0
 20
0.0
 30
0.0
 70
     1
  0
VERTEX
  8
Default
 10
2265.0
 20
990.999994760001
 42
0.0
  0
VERTEX
  8
Default
 10
3066.99999875451
 20
990.999994760001
 42
0.0
  0
VERTEX
  8
Default
 10
3066.99999875451
 20
480.999996700728
 42
0.0
  0
VERTEX
  8
Default
 10
3264.9999979177
 20
480.999996700728
 42
0.0
  0
VERTEX
  8
Default
 10
3264.9999979177
 20
-569.000007339586
 42
0.0
  0
VERTEX
  8
Default
 10
2265.0
 20
-569.000007339586
 42
0.0
  0
SEQEND
  0
POLYLINE
  8
Default
 66
     1
 10
0.0
 20
0.0
 30
0.0
 70
     1
  0
VERTEX
  8
Default
 10
1808.99999775
 20
-658.000020195
 42
0.0
  0
VERTEX
  8
Default
 10
2109.00000225
 20
-658.000020195
 42
0.0
  0
VERTEX
  8
Default
 10
2109.00000225
 20
1232.000020195
 42
0.0
  0
VERTEX
  8
Default
 10
1808.99999775
 20
1232.000020195
 42
0.0
  0
SEQEND
  0
CIRCLE
  8
Default
 10
1875.60536475
 20
-513.926913535
 30
0.0
 40
32.5000001608648
  0
POLYLINE
  8
Default
 66
     1
 10
0.0
 20
0.0
 30
0.0
 70
     1
  0
VERTEX
  8
Default
 10
1840.60536475
 20
-558.92691354
 42
0.4142135623731
  0
VERTEX
  8
Default
 10
1845.60536475
 20
-553.92691354
 42
0.4142135623731
  0
VERTEX
  8
Default
 10
1840.60536475
 20
-548.92691353
 42
0.0
  0
VERTEX
  8
Default
 10
1830.60536475
 20
-548.92691353
 42
0.4142135623731
  0
VERTEX
  8
Default
 10
1825.60536475
 20
-553.92691353
 42
0.4142135623731
  0
VERTEX
  8
Default
 10
1830.60536475
 20
-558.92691354
 42
0.0
  0
SEQEND
  0
POLYLINE
  8
Default
 66
     1
 10
0.0
 20
0.0
 30
0.0
 70
     1
  0
VERTEX
  8
Default
 10
1840.60536475
 20
-478.92691354
 42
0.4142135623731
  0
VERTEX
  8
Default
 10
1845.60536475
 20
-473.92691354
 42
0.4142135623731
  0
VERTEX
  8
Default
 10
1840.60536475
 20
-468.92691353
 42
0.0
  0
VERTEX
  8
Default
 10
1830.60536475
 20
-468.92691353
 42
0.4142135623731
  0
VERTEX
  8
Default
 10
1825.60536475
 20
-473.92691353
 42
0.4142135623731
  0
VERTEX
  8
Default
 10
1830.60536475
 20
-478.92691354
 42
0.0
  0
SEQEND
  0
POLYLINE
  8
Default
 66
     1
 10
0.0
 20
0.0
 30
0.0
 70
     1
  0
VERTEX
  8
Default
 10
1910.60536475
 20
-558.92691354
 42
-0.4142135623731
  0
VERTEX
  8
Default
 10
1905.60536475
 20
-553.92691354
 42
-0.4142135623731
  0
VERTEX
  8
Default
 10
1910.60536475
 20
-548.92691353
 42
0.0
  0
VERTEX
  8
Default
 10
1920.60536475
 20
-548.92691353
 42
-0.4142135623731
  0
VERTEX
  8
Default
 10
1925.60536475
 20
-553.92691353
 42
-0.4142135623731
  0
VERTEX
  8
Default
 10
1920.60536475
 20
-558.92691354
 42
0.0
  0
SEQEND
  0
POLYLINE
  8
Default
 66
     1
 10
0.0
 20
0.0
 30
0.0
 70
     1
  0
VERTEX
  8
Default
 10
1910.60536475
 20
-478.92691354
 42
-0.4142135623731
  0
VERTEX
  8
Default
 10
1905.60536475
 20
-473.92691354
 42
-0.4142135623731
  0
VERTEX
  8
Default
 10
1910.60536475
 20
-468.92691353
 42
0.0
  0
VERTEX
  8
Default
 10
1920.60536475
 20
-468.92691353
 42
-0.4142135623731
  0
VERTEX
  8
Default
 10
1925.60536475
 20
-473.92691353
 42
-0.4142135623731
  0
VERTEX
  8
Default
 10
1920.60536475
 20
-478.92691354
 42
0.0
  0
SEQEND
  0
CIRCLE
  8
Default
 10
1875.60536475
 20
-313.926913535
 30
0.0
 40
32.5000001608648
  0
POLYLINE
  8
Default
 66
     1
 10
0.0
 20
0.0
 30
0.0
 70
     1
  0
VERTEX
  8
Default
 10
1840.60536475
 20
-358.92691354
 42
0.4142135623731
  0
VERTEX
  8
Default
 10
1845.60536475
 20
-353.92691354
 42
0.4142135623731
  0
VERTEX
  8
Default
 10
1840.60536475
 20
-348.92691353
 42
0.0
  0
VERTEX
  8
Default
 10
1830.60536475
 20
-348.92691353
 42
0.4142135623731
  0
VERTEX
  8
Default
 10
1825.60536475
 20
-353.92691353
 42
0.4142135623731
  0
VERTEX
  8
Default
 10
1830.60536475
 20
-358.92691354
 42
0.0
  0
SEQEND
  0
POLYLINE
  8
Default
 66
     1
 10
0.0
 20
0.0
 30
0.0
 70
     1
  0
VERTEX
  8
Default
 10
1840.60536475
 20
-278.92691354
 42
0.4142135623731
  0
VERTEX
  8
Default
 10
1845.60536475
 20
-273.92691354
 42
0.4142135623731
  0
VERTEX
  8
Default
 10
1840.60536475
 20
-268.92691353
 42
0.0
  0
VERTEX
  8
Default
 10
1830.60536475
 20
-268.92691353
 42
0.4142135623731
  0
VERTEX
  8
Default
 10
1825.60536475
 20
-273.92691353
 42
0.4142135623731
  0
VERTEX
  8
Default
 10
1830.60536475
 20
-278.92691354
 42
0.0
  0
SEQEND
  0
POLYLINE
  8
Default
 66
     1
 10
0.0
 20
0.0
 30
0.0
 70
     1
  0
VERTEX
  8
Default
 10
1910.60536475
 20
-358.92691354
 42
-0.4142135623731
  0
VERTEX
  8
Default
 10
1905.60536475
 20
-353.92691354
 42
-0.4142135623731
  0
VERTEX
  8
Default
 10
1910.60536475
 20
-348.92691353
 42
0.0
  0
VERTEX
  8
Default
 10
1920.60536475
 20
-348.92691353
 42
-0.4142135623731
  0
VERTEX
  8
Default
 10
1925.60536475
 20
-353.92691353
 42
-0.4142135623731
  0
VERTEX
  8
Default
 10
1920.60536475
 20
-358.92691354
 42
0.0
  0
SEQEND
  0
POLYLINE
  8
Default
 66
     1
 10
0.0
 20
0.0
 30
0.0
 70
     1
  0
VERTEX
  8
Default
 10
1910.60536475
 20
-278.92691354
 42
-0.4142135623731
  0
VERTEX
  8
Default
 10
1905.60536475
 20
-273.92691354
 42
-0.4142135623731
  0
VERTEX
  8
Default
 10
1910.60536475
 20
-268.92691353
 42
0.0
  0
VERTEX
  8
Default
 10
1920.60536475
 20
-268.92691353
 42
-0.4142135623731
  0
VERTEX
  8
Default
 10
1925.60536475
 20
-273.92691353
 42
-0.4142135623731
  0
VERTEX
  8
Default
 10
1920.60536475
 20
-278.92691354
 42
0.0
  0
SEQEND
  0
CIRCLE
  8
Default
 10
1875.60536475
 20
-113.926913535
 30
0.0
 40
32.5000001608648
  0
POLYLINE
  8
Default
 66
     1
 10
0.0
 20
0.0
 30
0.0
 70
     1
  0
VERTEX
  8
Default
 10
1840.60536475
 20
-158.92691354
 42
0.4142135623731
  0
VERTEX
  8
Default
 10
1845.60536475
 20
-153.92691354
 42
0.4142135623731
  0
VERTEX
  8
Default
 10
1840.60536475
 20
-148.92691353
 42
0.0
  0
VERTEX
  8
Default
 10
1830.60536475
 20
-148.92691353
 42
0.4142135623731
  0
VERTEX
  8
Default
 10
1825.60536475
 20
-153.92691353
 42
0.4142135623731
  0
VERTEX
  8
Default
 10
1830.60536475
 20
-158.92691354
 42
0.0
  0
SEQEND
  0
POLYLINE
  8
Default
 66
     1
 10
0.0
 20
0.0
 30
0.0
 70
     1
  0
VERTEX
  8
Default
 10
1840.60536475
 20
-78.92691354
 42
0.4142135623731
  0
VERTEX
  8
Default
 10
1845.60536475
 20
-73.92691354
 42
0.4142135623731
  0
VERTEX
  8
Default
 10
1840.60536475
 20
-68.9269135300001
 42
0.0
  0
VERTEX
  8
Default
 10
1830.60536475
 20
-68.9269135300001
 42
0.4142135623731
  0
VERTEX
  8
Default
 10
1825.60536475
 20
-73.9269135300001
 42
0.4142135623731
  0
VERTEX
  8
Default
 10
1830.60536475
 20
-78.92691354
 42
0.0
  0
SEQEND
  0
POLYLINE
  8
Default
 66
     1
 10
0.0
 20
0.0
 30
0.0
 70
     1
  0
VERTEX
  8
Default
 10
1910.60536475
 20
-158.92691354
 42
-0.4142135623731
  0
VERTEX
  8
Default
 10
1905.60536475
 20
-153.92691354
 42
-0.4142135623731
  0
VERTEX
  8
Default
 10
1910.60536475
 20
-148.92691353
 42
0.0
  0
VERTEX
  8
Default
 10
1920.60536475
 20
-148.92691353
 42
-0.4142135623731
  0
VERTEX
  8
Default
 10
1925.60536475
 20
-153.92691353
 42
-0.4142135623731
  0
VERTEX
  8
Default
 10
1920.60536475
 20
-158.92691354
 42
0.0
  0
SEQEND
  0
POLYLINE
  8
Default
 66
     1
 10
0.0
 20
0.0
 30
0.0
 70
     1
  0
VERTEX
  8
Default
 10
1910.60536475
 20
-78.92691354
 42
-0.4142135623731
  0
VERTEX
  8
Default
 10
1905.60536475
 20
-73.92691354
 42
-0.4142135623731
  0
VERTEX
  8
Default
 10
1910.60536475
 20
-68.9269135300001
 42
0.0
  0
VERTEX
  8
Default
 10
1920.60536475
 20
-68.9269135300001
 42
-0.4142135623731
  0
VERTEX
  8
Default
 10
1925.60536475
 20
-73.9269135300001
 42
-0.4142135623731
  0
VERTEX
  8
Default
 10
1920.60536475
 20
-78.92691354
 42
0.0
  0
SEQEND
  0
CIRCLE
  8
Default
 10
1875.60536475
 20
86.073086465
 30
0.0
 40
32.5000001608648
  0
POLYLINE
  8
Default
 66
     1
 10
0.0
 20
0.0
 30
0.0
 70
     1
  0
VERTEX
  8
Default
 10
1840.60536475
 20
41.07308646
 42
0.4142135623731
  0
VERTEX
  8
Default
 10
1845.60536475
 20
46.07308646
 42
0.4142135623731
  0
VERTEX
  8
Default
 10
1840.60536475
 20
51.0730864699999
 42
0.0
  0
VERTEX
  8
Default
 10
1830.60536475
 20
51.0730864699999
 42
0.4142135623731
  0
VERTEX
  8
Default
 10
1825.60536475
 20
46.0730864699999
 42
0.4142135623731
  0
VERTEX
  8
Default
 10
1830.60536475
 20
41.07308646
 42
0.0
  0
SEQEND
  0
POLYLINE
  8
Default
 66
     1
 10
0.0
 20
0.0
 30
0.0
 70
     1
  0
VERTEX
  8
Default
 10
1840.60536475
 20
121.07308646
 42
0.4142135623731
  0
VERTEX
  8
Default
 10
1845.60536475
 20
126.07308646
 42
0.4142135623731
  0
VERTEX
  8
Default
 10
1840.60536475
 20
131.07308647
 42
0.0
  0
VERTEX
  8
Default
 10
1830.60536475
 20
131.07308647
 42
0.4142135623731
  0
VERTEX
  8
Default
 10
1825.60536475
 20
126.07308647
 42
0.4142135623731
  0
VERTEX
  8
Default
 10
1830.60536475
 20
121.07308646
 42
0.0
  0
SEQEND
  0
POLYLINE
  8
Default
 66
     1
 10
0.0
 20
0.0
 30
0.0
 70
     1
  0
VERTEX
  8
Default
 10
1910.60536475
 20
41.07308646
 42
-0.4142135623731
  0
VERTEX
  8
Default
 10
1905.60536475
 20
46.07308646
 42
-0.4142135623731
  0
VERTEX
  8
Default
 10
1910.60536475
 20
51.0730864699999
 42
0.0
  0
VERTEX
  8
Default
 10
1920.60536475
 20
51.0730864699999
 42
-0.4142135623731
  0
VERTEX
  8
Default
 10
1925.60536475
 20
46.0730864699999
 42
-0.4142135623731
  0
VERTEX
  8
Default
 10
1920.60536475
 20
41.07308646
 42
0.0
  0
SEQEND
  0
POLYLINE
  8
Default
 66
     1
 10
0.0
 20
0.0
 30
0.0
 70
     1
  0
VERTEX
  8
Default
 10
1910.60536475
 20
121.07308646
 42
-0.4142135623731
  0
VERTEX
  8
Default
 10
1905.60536475
 20
126.07308646
 42
-0.4142135623731
  0
VERTEX
  8
Default
 10
1910.60536475
 20
131.07308647
 42
0.0
  0
VERTEX
  8
Default
 10
1920.60536475
 20
131.07308647
 42
-0.4142135623731
  0
VERTEX
  8
Default
 10
1925.60536475
 20
126.07308647
 42
-0.4142135623731
  0
VERTEX
  8
Default
 10
1920.60536475
 20
121.07308646
 42
0.0
  0
SEQEND
  0
CIRCLE
  8
Default
 10
1875.60536475
 20
487.926913535
 30
0.0
 40
32.5000001608648
  0
POLYLINE
  8
Default
 66
     1
 10
0.0
 20
0.0
 30
0.0
 70
     1
  0
VERTEX
  8
Default
 10
1840.60536475
 20
442.92691353
 42
0.4142135623731
  0
VERTEX
  8
Default
 10
1845.60536475
 20
447.92691353
 42
0.4142135623731
  0
VERTEX
  8
Default
 10
1840.60536475
 20
452.92691354
 42
0.0
  0
VERTEX
  8
Default
 10
1830.60536475
 20
452.92691354
 42
0.4142135623731
  0
VERTEX
  8
Default
 10
1825.60536475
 20
447.92691354
 42
0.4142135623731
  0
VERTEX
  8
Default
 10
1830.60536475
 20
442.92691353
 42
0.0
  0
SEQEND
  0
POLYLINE
  8
Default
 66
     1
 10
0.0
 20
0.0
 30
0.0
 70
     1
  0
VERTEX
  8
Default
 10
1840.60536475
 20
522.92691353
 42
0.4142135623731
  0
VERTEX
  8
Default
 10
1845.60536475
 20
527.92691353
 42
0.4142135623731
  0
VERTEX
  8
Default
 10
1840.60536475
 20
532.92691354
 42
0.0
  0
VERTEX
  8
Default
 10
1830.60536475
 20
532.92691354
 42
0.4142135623731
  0
VERTEX
  8
Default
 10
1825.60536475
 20
527.92691354
 42
0.4142135623731
  0
VERTEX
  8
Default
 10
1830.60536475
 20
522.92691353
 42
0.0
  0
SEQEND
  0
POLYLINE
  8
Default
 66
     1
 10
0.0
 20
0.0
 30
0.0
 70
     1
  0
VERTEX
  8
Default
 10
1910.60536475
 20
442.92691353
 42
-0.4142135623731
  0
VERTEX
  8
Default
 10
1905.60536475
 20
447.92691353
 42
-0.4142135623731
  0
VERTEX
  8
Default
 10
1910.60536475
 20
452.92691354
 42
0.0
  0
VERTEX
  8
Default
 10
1920.60536475
 20
452.92691354
 42
-0.4142135623731
  0
VERTEX
  8
Default
 10
1925.60536475
 20
447.92691354
 42
-0.4142135623731
  0
VERTEX
  8
Default
 10
1920.60536475
 20
442.92691353
 42
0.0
  0
SEQEND
  0
POLYLINE
  8
Default
 66
     1
 10
0.0
 20
0.0
 30
0.0
 70
     1
  0
VERTEX
  8
Default
 10
1910.60536475
 20
522.92691353
 42
-0.4142135623731
  0
VERTEX
  8
Default
 10
1905.60536475
 20
527.92691353
 42
-0.4142135623731
  0
VERTEX
  8
Default
 10
1910.60536475
 20
532.92691354
 42
0.0
  0
VERTEX
  8
Default
 10
1920.60536475
 20
532.92691354
 42
-0.4142135623731
  0
VERTEX
  8
Default
 10
1925.60536475
 20
527.92691354
 42
-0.4142135623731
  0
VERTEX
  8
Default
 10
1920.60536475
 20
522.92691353
 42
0.0
  0
SEQEND
  0
CIRCLE
  8
Default
 10
1875.60536475
 20
687.926913535
 30
0.0
 40
32.5000001608648
  0
POLYLINE
  8
Default
 66
     1
 10
0.0
 20
0.0
 30
0.0
 70
     1
  0
VERTEX
  8
Default
 10
1840.60536475
 20
642.92691353
 42
0.4142135623731
  0
VERTEX
  8
Default
 10
1845.60536475
 20
647.92691353
 42
0.4142135623731
  0
VERTEX
  8
Default
 10
1840.60536475
 20
652.92691354
 42
0.0
  0
VERTEX
  8
Default
 10
1830.60536475
 20
652.92691354
 42
0.4142135623731
  0
VERTEX
  8
Default
 10
1825.60536475
 20
647.92691354
 42
0.4142135623731
  0
VERTEX
  8
Default
 10
1830.60536475
 20
642.92691353
 42
0.0
  0
SEQEND
  0
POLYLINE
  8
Default
 66
     1
 10
0.0
 20
0.0
 30
0.0
 70
     1
  0
VERTEX
  8
Default
 10
1840.60536475
 20
722.92691353
 42
0.4142135623731
  0
VERTEX
  8
Default
 10
1845.60536475
 20
727.92691353
 42
0.4142135623731
  0
VERTEX
  8
Default
 10
1840.60536475
 20
732.92691354
 42
0.0
  0
VERTEX
  8
Default
 10
1830.60536475
 20
732.92691354
 42
0.4142135623731
  0
VERTEX
  8
Default
 10
1825.60536475
 20
727.92691354
 42
0.4142135623731
  0
VERTEX
  8
Default
 10
1830.60536475
 20
722.92691353
 42
0.0
  0
SEQEND
  0
POLYLINE
  8
Default
 66
     1
 10
0.0
 20
0.0
 30
0.0
 70
     1
  0
VERTEX
  8
Default
 10
1910.60536475
 20
642.92691353
 42
-0.4142135623731
  0
VERTEX
  8
Default
 10
1905.60536475
 20
647.92691353
 42
-0.4142135623731
  0
VERTEX
  8
Default
 10
1910.60536475
 20
652.92691354
 42
0.0
  0
VERTEX
  8
Default
 10
1920.60536475
 20
652.92691354
 42
-0.4142135623731
  0
VERTEX
  8
Default
 10
1925.60536475
 20
647.92691354
 42
-0.4142135623731
  0
VERTEX
  8
Default
 10
1920.60536475
 20
642.92691353
 42
0.0
  0
SEQEND
  0
POLYLINE
  8
Default
 66
     1
 10
0.0
 20
0.0
 30
0.0
 70
     1
  0
VERTEX
  8
Default
 10
1910.60536475
 20
722.92691353
 42
-0.4142135623731
  0
VERTEX
  8
Default
 10
1905.60536475
 20
727.92691353
 42
-0.4142135623731
  0
VERTEX
  8
Default
 10
1910.60536475
 20
732.92691354
 42
0.0
  0
VERTEX
  8
Default
 10
1920.60536475
 20
732.92691354
 42
-0.4142135623731
  0
VERTEX
  8
Default
 10
1925.60536475
 20
727.92691354
 42
-0.4142135623731
  0
VERTEX
  8
Default
 10
1920.60536475
 20
722.92691353
 42
0.0
  0
SEQEND
  0
CIRCLE
  8
Default
 10
1875.60536475
 20
887.926913535
 30
0.0
 40
32.5000001608648
  0
POLYLINE
  8
Default
 66
     1
 10
0.0
 20
0.0
 30
0.0
 70
     1
  0
VERTEX
  8
Default
 10
1840.60536475
 20
842.92691353
 42
0.4142135623731
  0
VERTEX
  8
Default
 10
1845.60536475
 20
847.92691353
 42
0.4142135623731
  0
VERTEX
  8
Default
 10
1840.60536475
 20
852.92691354
 42
0.0
  0
VERTEX
  8
Default
 10
1830.60536475
 20
852.92691354
 42
0.4142135623731
  0
VERTEX
  8
Default
 10
1825.60536475
 20
847.92691354
 42
0.4142135623731
  0
VERTEX
  8
Default
 10
1830.60536475
 20
842.92691353
 42
0.0
  0
SEQEND
  0
POLYLINE
  8
Default
 66
     1
 10
0.0
 20
0.0
 30
0.0
 70
     1
  0
VERTEX
  8
Default
 10
1840.60536475
 20
922.92691353
 42
0.4142135623731
  0
VERTEX
  8
Default
 10
1845.60536475
 20
927.92691353
 42
0.4142135623731
  0
VERTEX
  8
Default
 10
1840.60536475
 20
932.92691354
 42
0.0
  0
VERTEX
  8
Default
 10
1830.60536475
 20
932.92691354
 42
0.4142135623731
  0
VERTEX
  8
Default
 10
1825.60536475
 20
927.92691354
 42
0.4142135623731
  0
VERTEX
  8
Default
 10
1830.60536475
 20
922.92691353
 42
0.0
  0
SEQEND
  0
POLYLINE
  8
Default
 66
     1
 10
0.0
 20
0.0
 30
0.0
 70
     1
  0
VERTEX
  8
Default
 10
1910.60536475
 20
842.92691353
 42
-0.4142135623731
  0
VERTEX
  8
Default
 10
1905.60536475
 20
847.92691353
 42
-0.4142135623731
  0
VERTEX
  8
Default
 10
1910.60536475
 20
852.92691354
 42
0.0
  0
VERTEX
  8
Default
 10
1920.60536475
 20
852.92691354
 42
-0.4142135623731
  0
VERTEX
  8
Default
 10
1925.60536475
 20
847.92691354
 42
-0.4142135623731
  0
VERTEX
  8
Default
 10
1920.60536475
 20
842.92691353
 42
0.0
  0
SEQEND
  0
POLYLINE
  8
Default
 66
     1
 10
0.0
 20
0.0
 30
0.0
 70
     1
  0
VERTEX
  8
Default
 10
1910.60536475
 20
922.92691353
 42
-0.4142135623731
  0
VERTEX
  8
Default
 10
1905.60536475
 20
927.92691353
 42
-0.4142135623731
  0
VERTEX
  8
Default
 10
1910.60536475
 20
932.92691354
 42
0.0
  0
VERTEX
  8
Default
 10
1920.60536475
 20
932.92691354
 42
-0.4142135623731
  0
VERTEX
  8
Default
 10
1925.60536475
 20
927.92691354
 42
-0.4142135623731
  0
VERTEX
  8
Default
 10
1920.60536475
 20
922.92691353
 42
0.0
  0
SEQEND
  0
CIRCLE
  8
Default
 10
1875.60536475
 20
1087.926913535
 30
0.0
 40
32.5000001608648
  0
POLYLINE
  8
Default
 66
     1
 10
0.0
 20
0.0
 30
0.0
 70
     1
  0
VERTEX
  8
Default
 10
1840.60536475
 20
1042.92691353
 42
0.4142135623731
  0
VERTEX
  8
Default
 10
1845.60536475
 20
1047.92691353
 42
0.4142135623731
  0
VERTEX
  8
Default
 10
1840.60536475
 20
1052.92691354
 42
0.0
  0
VERTEX
  8
Default
 10
1830.60536475
 20
1052.92691354
 42
0.4142135623731
  0
VERTEX
  8
Default
 10
1825.60536475
 20
1047.92691354
 42
0.4142135623731
  0
VERTEX
  8
Default
 10
1830.60536475
 20
1042.92691353
 42
0.0
  0
SEQEND
  0
POLYLINE
  8
Default
 66
     1
 10
0.0
 20
0.0
 30
0.0
 70
     1
  0
VERTEX
  8
Default
 10
1840.60536475
 20
1122.92691353
 42
0.4142135623731
  0
VERTEX
  8
Default
 10
1845.60536475
 20
1127.92691353
 42
0.4142135623731
  0
VERTEX
  8
Default
 10
1840.60536475
 20
1132.92691354
 42
0.0
  0
VERTEX
  8
Default
 10
1830.60536475
 20
1132.92691354
 42
0.4142135623731
  0
VERTEX
  8
Default
 10
1825.60536475
 20
1127.92691354
 42
0.4142135623731
  0
VERTEX
  8
Default
 10
1830.60536475
 20
1122.92691353
 42
0.0
  0
SEQEND
  0
POLYLINE
  8
Default
 66
     1
 10
0.0
 20
0.0
 30
0.0
 70
     1
  0
VERTEX
  8
Default
 10
1910.60536475
 20
1042.92691353
 42
-0.4142135623731
  0
VERTEX
  8
Default
 10
1905.60536475
 20
1047.92691353
 42
-0.4142135623731
  0
VERTEX
  8
Default
 10
1910.60536475
 20
1052.92691354
 42
0.0
  0
VERTEX
  8
Default
 10
1920.60536475
 20
1052.92691354
 42
-0.4142135623731
  0
VERTEX
  8
Default
 10
1925.60536475
 20
1047.92691354
 42
-0.4142135623731
  0
VERTEX
  8
Default
 10
1920.60536475
 20
1042.92691353
 42
0.0
  0
SEQEND
  0
POLYLINE
  8
Default
 66
     1
 10
0.0
 20
0.0
 30
0.0
 70
     1
  0
VERTEX
  8
Default
 10
1910.60536475
 20
1122.92691353
 42
-0.4142135623731
  0
VERTEX
  8
Default
 10
1905.60536475
 20
1127.92691353
 42
-0.4142135623731
  0
VERTEX
  8
Default
 10
1910.60536475
 20
1132.92691354
 42
0.0
  0
VERTEX
  8
Default
 10
1920.60536475
 20
1132.92691354
 42
-0.4142135623731
  0
VERTEX
  8
Default
 10
1925.60536475
 20
1127.92691354
 42
-0.4142135623731
  0
VERTEX
  8
Default
 10
1920.60536475
 20
1122.92691353
 42
0.0
  0
SEQEND
  0
POLYLINE
  8
Default
 66
     1
 10
0.0
 20
0.0
 30
0.0
 70
     1
  0
VERTEX
  8
Default
 10
1054.499994675
 20
-628.503302034086
 42
0.0
  0
VERTEX
  8
Default
 10
1659.500005325
 20
-628.503302034086
 42
0.0
  0
VERTEX
  8
Default
 10
1659.500005325
 20
-338.503298554086
 42
0.0
  0
VERTEX
  8
Default
 10
1054.499994675
 20
-338.503298554086
 42
0.0
  0
SEQEND
  0
POLYLINE
  8
Default
 66
     1
 10
0.0
 20
0.0
 30
0.0
 70
     0
  0
VERTEX
  8
Default
 10
1144.499994675
 20
-428.503298554086
 42
0.0
  0
VERTEX
  8
Default
 10
1144.499994675
 20
-538.503302034086
 42
0.0
  0
SEQEND
  0
POLYLINE
  8
Default
 66
     1
 10
0.0
 20
0.0
 30
0.0
 70
     0
  0
VERTEX
  8
Default
 10
1569.500005325
 20
-538.503302034086
 42
0.0
  0
VERTEX
  8
Default
 10
1569.500005325
 20
-428.503298554086
 42
0.0
  0
SEQEND
  0
POLYLINE
  8
Default
 66
     1
 10
0.0
 20
0.0
 30
0.0
 70
     1
  0
VERTEX
  8
Default
 10
1070.50000532
 20
-363.503298544086
 42
0.4142135623731
  0
VERTEX
  8
Default
 10
1075.50000532
 20
-368.503298544086
 42
0.4142135623731
  0
VERTEX
  8
Default
 10
1080.50000533
 20
-363.503298544086
 42
0.0
  0
VERTEX
  8
Default
 10
1080.50000533
 20
-353.503298564086
 42
0.4142135623731
  0
VERTEX
  8
Default
 10
1075.50000533
 20
-348.503298564086
 42
0.4142135623731
  0
VERTEX
  8
Default
 10
1070.50000532
 20
-353.503298564086
 42
0.0
  0
SEQEND
  0
POLYLINE
  8
Default
 66
     1
 10
0.0
 20
0.0
 30
0.0
 70
     1
  0
VERTEX
  8
Default
 10
1211.50000532
 20
-363.503298544086
 42
0.4142135623731
  0
VERTEX
  8
Default
 10
1216.50000532
 20
-368.503298544086
 42
0.4142135623731
  0
VERTEX
  8
Default
 10
1221.50000533
 20
-363.503298544086
 42
0.0
  0
VERTEX
  8
Default
 10
1221.50000533
 20
-353.503298564086
 42
0.4142135623731
  0
VERTEX
  8
Default
 10
1216.50000533
 20
-348.503298564086
 42
0.4142135623731
  0
VERTEX
  8
Default
 10
1211.50000532
 20
-353.503298564086
 42
0.0
  0
SEQEND
  0
POLYLINE
  8
Default
 66
     1
 10
0.0
 20
0.0
 30
0.0
 70
     1
  0
VERTEX
  8
Default
 10
1352.50000532
 20
-363.503298544086
 42
0.4142135623731
  0
VERTEX
  8
Default
 10
1357.50000532
 20
-368.503298544086
 42
0.4142135623731
  0
VERTEX
  8
Default
 10
1362.50000533
 20
-363.503298544086
 42
0.0
  0
VERTEX
  8
Default
 10
1362.50000533
 20
-353.503298564086
 42
0.4142135623731
  0
VERTEX
  8
Default
 10
1357.50000533
 20
-348.503298564086
 42
0.4142135623731
  0
VERTEX
  8
Default
 10
1352.50000532
 20
-353.503298564086
 42
0.0
  0
SEQEND
  0
POLYLINE
  8
Default
 66
     1
 10
0.0
 20
0.0
 30
0.0
 70
     1
  0
VERTEX
  8
Default
 10
1493.50000532
 20
-363.503298544086
 42
0.4142135623731
  0
VERTEX
  8
Default
 10
1498.50000532
 20
-368.503298544086
 42
0.4142135623731
  0
VERTEX
  8
Default
 10
1503.50000533
 20
-363.503298544086
 42
0.0
  0
VERTEX
  8
Default
 10
1503.50000533
 20
-353.503298564086
 42
0.4142135623731
  0
VERTEX
  8
Default
 10
1498.50000533
 20
-348.503298564086
 42
0.4142135623731
  0
VERTEX
  8
Default
 10
1493.50000532
 20
-353.503298564086
 42
0.0
  0
SEQEND
  0
POLYLINE
  8
Default
 66
     1
 10
0.0
 20
0.0
 30
0.0
 70
     1
  0
VERTEX
  8
Default
 10
1634.50000532
 20
-363.503298544086
 42
0.4142135623731
  0
VERTEX
  8
Default
 10
1639.50000532
 20
-368.503298544086
 42
0.4142135623731
  0
VERTEX
  8
Default
 10
1644.50000533
 20
-363.503298544086
 42
0.0
  0
VERTEX
  8
Default
 10
1644.50000533
 20
-353.503298564086
 42
0.4142135623731
  0
VERTEX
  8
Default
 10
1639.50000533
 20
-348.503298564086
 42
0.4142135623731
  0
VERTEX
  8
Default
 10
1634.50000532
 20
-353.503298564086
 42
0.0
  0
SEQEND
  0
POLYLINE
  8
Default
 66
     1
 10
0.0
 20
0.0
 30
0.0
 70
     1
  0
VERTEX
  8
Default
 10
1070.50000532
 20
-613.503302024086
 42
0.4142135623731
  0
VERTEX
  8
Default
 10
1075.50000532
 20
-618.503302024086
 42
0.4142135623731
  0
VERTEX
  8
Default
 10
1080.50000533
 20
-613.503302024086
 42
0.0
  0
VERTEX
  8
Default
 10
1080.50000533
 20
-603.503302044086
 42
0.4142135623731
  0
VERTEX
  8
Default
 10
1075.50000533
 20
-598.503302044086
 42
0.4142135623731
  0
VERTEX
  8
Default
 10
1070.50000532
 20
-603.503302044086
 42
0.0
  0
SEQEND
  0
POLYLINE
  8
Default
 66
     1
 10
0.0
 20
0.0
 30
0.0
 70
     1
  0
VERTEX
  8
Default
 10
1211.50000532
 20
-613.503302024086
 42
0.4142135623731
  0
VERTEX
  8
Default
 10
1216.50000532
 20
-618.503302024086
 42
0.4142135623731
  0
VERTEX
  8
Default
 10
1221.50000533
 20
-613.503302024086
 42
0.0
  0
VERTEX
  8
Default
 10
1221.50000533
 20
-603.503302044086
 42
0.4142135623731
  0
VERTEX
  8
Default
 10
1216.50000533
 20
-598.503302044086
 42
0.4142135623731
  0
VERTEX
  8
Default
 10
1211.50000532
 20
-603.503302044086
 42
0.0
  0
SEQEND
  0
POLYLINE
  8
Default
 66
     1
 10
0.0
 20
0.0
 30
0.0
 70
     1
  0
VERTEX
  8
Default
 10
1352.50000532
 20
-613.503302024086
 42
0.4142135623731
  0
VERTEX
  8
Default
 10
1357.50000532
 20
-618.503302024086
 42
0.4142135623731
  0
VERTEX
  8
Default
 10
1362.50000533
 20
-613.503302024086
 42
0.0
  0
VERTEX
  8
Default
 10
1362.50000533
 20
-603.503302044086
 42
0.4142135623731
  0
VERTEX
  8
Default
 10
1357.50000533
 20
-598.503302044086
 42
0.4142135623731
  0
VERTEX
  8
Default
 10
1352.50000532
 20
-603.503302044086
 42
0.0
  0
SEQEND
  0
POLYLINE
  8
Default
 66
     1
 10
0.0
 20
0.0
 30
0.0
 70
     1
  0
VERTEX
  8
Default
 10
1493.50000532
 20
-613.503302024086
 42
0.4142135623731
  0
VERTEX
  8
Default
 10
1498.50000532
 20
-618.503302024086
 42
0.4142135623731
  0
VERTEX
  8
Default
 10
1503.50000533
 20
-613.503302024086
 42
0.0
  0
VERTEX
  8
Default
 10
1503.50000533
 20
-603.503302044086
 42
0.4142135623731
  0
VERTEX
  8
Default
 10
1498.50000533
 20
-598.503302044086
 42
0.4142135623731
  0
VERTEX
  8
Default
 10
1493.50000532
 20
-603.503302044086
 42
0.0
  0
SEQEND
  0
POLYLINE
  8
Default
 66
     1
 10
0.0
 20
0.0
 30
0.0
 70
     1
  0
VERTEX
  8
Default
 10
1634.50000532
 20
-613.503302024086
 42
0.4142135623731
  0
VERTEX
  8
Default
 10
1639.50000532
 20
-618.503302024086
 42
0.4142135623731
  0
VERTEX
  8
Default
 10
1644.50000533
 20
-613.503302024086
 42
0.0
  0
VERTEX
  8
Default
 10
1644.50000533
 20
-603.503302044086
 42
0.4142135623731
  0
VERTEX
  8
Default
 10
1639.50000533
 20
-598.503302044086
 42
0.4142135623731
  0
VERTEX
  8
Default
 10
1634.50000532
 20
-603.503302044086
 42
0.0
  0
SEQEND
  0
POLYLINE
  8
Default
 66
     1
 10
0.0
 20
0.0
 30
0.0
 70
     1
  0
VERTEX
  8
Default
 10
1070.50000532
 20
-613.503302024086
 42
0.4142135623731
  0
VERTEX
  8
Default
 10
1075.50000532
 20
-618.503302024086
 42
0.4142135623731
  0
VERTEX
  8
Default
 10
1080.50000533
 20
-613.503302024086
 42
0.0
  0
VERTEX
  8
Default
 10
1080.50000533
 20
-603.503302044086
 42
0.4142135623731
  0
VERTEX
  8
Default
 10
1075.50000533
 20
-598.503302044086
 42
0.4142135623731
  0
VERTEX
  8
Default
 10
1070.50000532
 20
-603.503302044086
 42
0.0
  0
SEQEND
  0
POLYLINE
  8
Default
 66
     1
 10
0.0
 20
0.0
 30
0.0
 70
     1
  0
VERTEX
  8
Default
 10
1634.50000532
 20
-613.503302024086
 42
0.4142135623731
  0
VERTEX
  8
Default
 10
1639.50000532
 20
-618.503302024086
 42
0.4142135623731
  0
VERTEX
  8
Default
 10
1644.50000533
 20
-613.503302024086
 42
0.0
  0
VERTEX
  8
Default
 10
1644.50000533
 20
-603.503302044086
 42
0.4142135623731
  0
VERTEX
  8
Default
 10
1639.50000533
 20
-598.503302044086
 42
0.4142135623731
  0
VERTEX
  8
Default
 10
1634.50000532
 20
-603.503302044086
 42
0.0
  0
SEQEND
  0
POLYLINE
  8
Default
 66
     1
 10
0.0
 20
0.0
 30
0.0
 70
     1
  0
VERTEX
  8
Default
 10
1069.999999995
 20
-488.503300284086
 42
0.4142135623731
  0
VERTEX
  8
Default
 10
1074.999999995
 20
-493.503300284086
 42
0.4142135623731
  0
VERTEX
  8
Default
 10
1080.000000005
 20
-488.503300284086
 42
0.0
  0
VERTEX
  8
Default
 10
1080.000000005
 20
-478.503300304086
 42
0.4142135623731
  0
VERTEX
  8
Default
 10
1075.000000005
 20
-473.503300304086
 42
0.4142135623731
  0
VERTEX
  8
Default
 10
1069.999999995
 20
-478.503300304086
 42
0.0
  0
SEQEND
  0
POLYLINE
  8
Default
 66
     1
 10
0.0
 20
0.0
 30
0.0
 70
     1
  0
VERTEX
  8
Default
 10
1633.999999995
 20
-488.503300284086
 42
0.4142135623731
  0
VERTEX
  8
Default
 10
1638.999999995
 20
-493.503300284086
 42
0.4142135623731
  0
VERTEX
  8
Default
 10
1644.000000005
 20
-488.503300284086
 42
0.0
  0
VERTEX
  8
Default
 10
1644.000000005
 20
-478.503300304086
 42
0.4142135623731
  0
VERTEX
  8
Default
 10
1639.000000005
 20
-473.503300304086
 42
0.4142135623731
  0
VERTEX
  8
Default
 10
1633.999999995
 20
-478.503300304086
 42
0.0
  0
SEQEND
  0
POLYLINE
  8
Default
 66
     1
 10
0.0
 20
0.0
 30
0.0
 70
     0
  0
VERTEX
  8
Default
 10
1104.499994675
 20
-578.503302093201
 42
0.0
  0
VERTEX
  8
Default
 10
1104.499994675
 20
-538.503302034086
 42
0.0
  0
VERTEX
  8
Default
 10
1609.500005325
 20
-538.503302034086
 42
0.0
  0
VERTEX
  8
Default
 10
1609.500005325
 20
-578.503302093201
 42
0.0
  0
SEQEND
  0
POLYLINE
  8
Default
 66
     1
 10
0.0
 20
0.0
 30
0.0
 70
     0
  0
VERTEX
  8
Default
 10
1104.499994675
 20
-388.503298494971
 42
0.0
  0
VERTEX
  8
Default
 10
1104.499994675
 20
-428.503298554086
 42
0.0
  0
VERTEX
  8
Default
 10
1609.500005325
 20
-428.503298554086
 42
0.0
  0
VERTEX
  8
Default
 10
1609.500005325
 20
-388.503298494971
 42
0.0
  0
SEQEND
  0
CIRCLE
  8
Default
 10
1208.01926043926
 20
-518.527362312884
 30
0.0
 40
3.9999999911648
  0
CIRCLE
  8
Default
 10
1167.98073928932
 20
-518.479234112847
 30
0.0
 40
3.9999999911648
  0
POLYLINE
  8
Default
 66
     1
 10
0.0
 20
0.0
 30
0.0
 70
     1
  0
VERTEX
  8
Default
 10
1231.09632937074
 20
-528.503300294086
 42
0.0
  0
VERTEX
  8
Default
 10
1311.09632964217
 20
-528.503300294086
 42
0.0
  0
VERTEX
  8
Default
 10
1311.09632964217
 20
-438.503300331586
 42
0.0
  0
VERTEX
  8
Default
 10
1231.09632937074
 20
-438.503300331586
 42
0.0
  0
SEQEND
  0
CIRCLE
  8
Default
 10
1291.11559008143
 20
-448.479238312788
 30
0.0
 40
3.9999999911648
  0
CIRCLE
  8
Default
 10
1251.07706893149
 20
-448.527366512825
 30
0.0
 40
3.9999999911648
  0
CIRCLE
  8
Default
 10
1291.11559008143
 20
-518.527362312884
 30
0.0
 40
3.9999999911648
  0
CIRCLE
  8
Default
 10
1251.07706893149
 20
-518.479234112847
 30
0.0
 40
3.9999999911648
  0
POLYLINE
  8
Default
 66
     1
 10
0.0
 20
0.0
 30
0.0
 70
     1
  0
VERTEX
  8
Default
 10
1313.24527197562
 20
-528.503300294086
 42
0.0
  0
VERTEX
  8
Default
 10
1393.24527224704
 20
-528.503300294086
 42
0.0
  0
VERTEX
  8
Default
 10
1393.24527224704
 20
-438.503300331586
 42
0.0
  0
VERTEX
  8
Default
 10
1313.24527197562
 20
-438.503300331586
 42
0.0
  0
SEQEND
  0
CIRCLE
  8
Default
 10
1373.2645326863
 20
-448.479238312788
 30
0.0
 40
3.9999999911648
  0
CIRCLE
  8
Default
 10
1333.22601153636
 20
-448.527366512825
 30
0.0
 40
3.9999999911648
  0
CIRCLE
  8
Default
 10
1373.2645326863
 20
-518.527362312884
 30
0.0
 40
3.9999999911648
  0
CIRCLE
  8
Default
 10
1333.22601153636
 20
-518.479234112847
 30
0.0
 40
3.9999999911648
  0
POLYLINE
  8
Default
 66
     1
 10
0.0
 20
0.0
 30
0.0
 70
     1
  0
VERTEX
  8
Default
 10
1396.34160161779
 20
-528.503300294086
 42
0.0
  0
VERTEX
  8
Default
 10
1476.34160188921
 20
-528.503300294086
 42
0.0
  0
VERTEX
  8
Default
 10
1476.34160188921
 20
-438.503300331586
 42
0.0
  0
VERTEX
  8
Default
 10
1396.34160161779
 20
-438.503300331586
 42
0.0
  0
SEQEND
  0
CIRCLE
  8
Default
 10
1456.36086232847
 20
-448.479238312788
 30
0.0
 40
3.9999999911648
  0
CIRCLE
  8
Default
 10
1416.32234117853
 20
-448.527366512825
 30
0.0
 40
3.9999999911648
  0
CIRCLE
  8
Default
 10
1456.36086232847
 20
-518.527362312884
 30
0.0
 40
3.9999999911648
  0
CIRCLE
  8
Default
 10
1416.32234117853
 20
-518.479234112847
 30
0.0
 40
3.9999999911648
  0
POLYLINE
  8
Default
 66
     1
 10
0.0
 20
0.0
 30
0.0
 70
     1
  0
VERTEX
  8
Default
 10
1479.34160161779
 20
-528.503300294086
 42
0.0
  0
VERTEX
  8
Default
 10
1559.34160188921
 20
-528.503300294086
 42
0.0
  0
VERTEX
  8
Default
 10
1559.34160188921
 20
-438.503300331586
 42
0.0
  0
VERTEX
  8
Default
 10
1479.34160161779
 20
-438.503300331586
 42
0.0
  0
SEQEND
  0
CIRCLE
  8
Default
 10
1539.36086232847
 20
-448.479238312788
 30
0.0
 40
3.9999999911648
  0
CIRCLE
  8
Default
 10
1499.32234117853
 20
-448.527366512825
 30
0.0
 40
3.9999999911648
  0
CIRCLE
  8
Default
 10
1539.36086232847
 20
-518.527362312884
 30
0.0
 40
3.9999999911648
  0
CIRCLE
  8
Default
 10
1499.32234117853
 20
-518.479234112847
 30
0.0
 40
3.9999999911648
  0
POLYLINE
  8
Default
 66
     1
 10
0.0
 20
0.0
 30
0.0
 70
     1
  0
VERTEX
  8
Default
 10
1147.99999972857
 20
-225.496699705914
 42
0.0
  0
VERTEX
  8
Default
 10
1228.0
 20
-225.496699705914
 42
0.0
  0
VERTEX
  8
Default
 10
1228.0
 20
-135.496699743414
 42
0.0
  0
VERTEX
  8
Default
 10
1147.99999972857
 20
-135.496699743414
 42
0.0
  0
SEQEND
  0
CIRCLE
  8
Default
 10
1208.01926043926
 20
-145.472637724616
 30
0.0
 40
3.9999999911648
  0
CIRCLE
  8
Default
 10
1167.98073928932
 20
-145.520765924652
 30
0.0
 40
3.9999999911648
  0
POLYLINE
  8
Default
 66
     1
 10
0.0
 20
0.0
 30
0.0
 70
     1
  0
VERTEX
  8
Default
 10
1054.499994675
 20
-325.496701445914
 42
0.0
  0
VERTEX
  8
Default
 10
1659.500005325
 20
-325.496701445914
 42
0.0
  0
VERTEX
  8
Default
 10
1659.500005325
 20
-35.496697965914
 42
0.0
  0
VERTEX
  8
Default
 10
1054.499994675
 20
-35.496697965914
 42
0.0
  0
SEQEND
  0
POLYLINE
  8
Default
 66
     1
 10
0.0
 20
0.0
 30
0.0
 70
     0
  0
VERTEX
  8
Default
 10
1144.499994675
 20
-125.496697965914
 42
0.0
  0
VERTEX
  8
Default
 10
1144.499994675
 20
-235.496701445914
 42
0.0
  0
SEQEND
  0
POLYLINE
  8
Default
 66
     1
 10
0.0
 20
0.0
 30
0.0
 70
     0
  0
VERTEX
  8
Default
 10
1569.500005325
 20
-235.496701445914
 42
0.0
  0
VERTEX
  8
Default
 10
1569.500005325
 20
-125.496697965914
 42
0.0
  0
SEQEND
  0
POLYLINE
  8
Default
 66
     1
 10
0.0
 20
0.0
 30
0.0
 70
     1
  0
VERTEX
  8
Default
 10
1070.50000532
 20
-60.4966979559139
 42
0.4142135623731
  0
VERTEX
  8
Default
 10
1075.50000532
 20
-65.4966979559139
 42
0.4142135623731
  0
VERTEX
  8
Default
 10
1080.50000533
 20
-60.4966979559139
 42
0.0
  0
VERTEX
  8
Default
 10
1080.50000533
 20
-50.4966979759139
 42
0.4142135623731
  0
VERTEX
  8
Default
 10
1075.50000533
 20
-45.4966979759139
 42
0.4142135623731
  0
VERTEX
  8
Default
 10
1070.50000532
 20
-50.4966979759139
 42
0.0
  0
SEQEND
  0
POLYLINE
  8
Default
 66
     1
 10
0.0
 20
0.0
 30
0.0
 70
     1
  0
VERTEX
  8
Default
 10
1211.50000532
 20
-60.4966979559139
 42
0.4142135623731
  0
VERTEX
  8
Default
 10
1216.50000532
 20
-65.4966979559139
 42
0.4142135623731
  0
VERTEX
  8
Default
 10
1221.50000533
 20
-60.4966979559139
 42
0.0
  0
VERTEX
  8
Default
 10
1221.50000533
 20
-50.4966979759139
 42
0.4142135623731
  0
VERTEX
  8
Default
 10
1216.50000533
 20
-45.4966979759139
 42
0.4142135623731
  0
VERTEX
  8
Default
 10
1211.50000532
 20
-50.4966979759139
 42
0.0
  0
SEQEND
  0
POLYLINE
  8
Default
 66
     1
 10
0.0
 20
0.0
 30
0.0
 70
     1
  0
VERTEX
  8
Default
 10
1352.50000532
 20
-60.4966979559139
 42
0.4142135623731
  0
VERTEX
  8
Default
 10
1357.50000532
 20
-65.4966979559139
 42
0.4142135623731
  0
VERTEX
  8
Default
 10
1362.50000533
 20
-60.4966979559139
 42
0.0
  0
VERTEX
  8
Default
 10
1362.50000533
 20
-50.4966979759139
 42
0.4142135623731
  0
VERTEX
  8
Default
 10
1357.50000533
 20
-45.4966979759139
 42
0.4142135623731
  0
VERTEX
  8
Default
 10
1352.50000532
 20
-50.4966979759139
 42
0.0
  0
SEQEND
  0
POLYLINE
  8
Default
 66
     1
 10
0.0
 20
0.0
 30
0.0
 70
     1
  0
VERTEX
  8
Default
 10
1493.50000532
 20
-60.4966979559139
 42
0.4142135623731
  0
VERTEX
  8
Default
 10
1498.50000532
 20
-65.4966979559139
 42
0.4142135623731
  0
VERTEX
  8
Default
 10
1503.50000533
 20
-60.4966979559139
 42
0.0
  0
VERTEX
  8
Default
 10
1503.50000533
 20
-50.4966979759139
 42
0.4142135623731
  0
VERTEX
  8
Default
 10
1498.50000533
 20
-45.4966979759139
 42
0.4142135623731
  0
VERTEX
  8
Default
 10
1493.50000532
 20
-50.4966979759139
 42
0.0
  0
SEQEND
  0
POLYLINE
  8
Default
 66
     1
 10
0.0
 20
0.0
 30
0.0
 70
     1
  0
VERTEX
  8
Default
 10
1634.50000532
 20
-60.4966979559139
 42
0.4142135623731
  0
VERTEX
  8
Default
 10
1639.50000532
 20
-65.4966979559139
 42
0.4142135623731
  0
VERTEX
  8
Default
 10
1644.50000533
 20
-60.4966979559139
 42
0.0
  0
VERTEX
  8
Default
 10
1644.50000533
 20
-50.4966979759139
 42
0.4142135623731
  0
VERTEX
  8
Default
 10
1639.50000533
 20
-45.4966979759139
 42
0.4142135623731
  0
VERTEX
  8
Default
 10
1634.50000532
 20
-50.4966979759139
 42
0.0
  0
SEQEND
  0
POLYLINE
  8
Default
 66
     1
 10
0.0
 20
0.0
 30
0.0
 70
     1
  0
VERTEX
  8
Default
 10
1070.50000532
 20
-310.496701435914
 42
0.4142135623731
  0
VERTEX
  8
Default
 10
1075.50000532
 20
-315.496701435914
 42
0.4142135623731
  0
VERTEX
  8
Default
 10
1080.50000533
 20
-310.496701435914
 42
0.0
  0
VERTEX
  8
Default
 10
1080.50000533
 20
-300.496701455914
 42
0.4142135623731
  0
VERTEX
  8
Default
 10
1075.50000533
 20
-295.496701455914
 42
0.4142135623731
  0
VERTEX
  8
Default
 10
1070.50000532
 20
-300.496701455914
 42
0.0
  0
SEQEND
  0
POLYLINE
  8
Default
 66
     1
 10
0.0
 20
0.0
 30
0.0
 70
     1
  0
VERTEX
  8
Default
 10
1211.50000532
 20
-310.496701435914
 42
0.4142135623731
  0
VERTEX
  8
Default
 10
1216.50000532
 20
-315.496701435914
 42
0.4142135623731
  0
VERTEX
  8
Default
 10
1221.50000533
 20
-310.496701435914
 42
0.0
  0
VERTEX
  8
Default
 10
1221.50000533
 20
-300.496701455914
 42
0.4142135623731
  0
VERTEX
  8
Default
 10
1216.50000533
 20
-295.496701455914
 42
0.4142135623731
  0
VERTEX
  8
Default
 10
1211.50000532
 20
-300.496701455914
 42
0.0
  0
SEQEND
  0
POLYLINE
  8
Default
 66
     1
 10
0.0
 20
0.0
 30
0.0
 70
     1
  0
VERTEX
  8
Default
 10
1352.50000532
 20
-310.496701435914
 42
0.4142135623731
  0
VERTEX
  8
Default
 10
1357.50000532
 20
-315.496701435914
 42
0.4142135623731
  0
VERTEX
  8
Default
 10
1362.50000533
 20
-310.496701435914
 42
0.0
  0
VERTEX
  8
Default
 10
1362.50000533
 20
-300.496701455914
 42
0.4142135623731
  0
VERTEX
  8
Default
 10
1357.50000533
 20
-295.496701455914
 42
0.4142135623731
  0
VERTEX
  8
Default
 10
1352.50000532
 20
-300.496701455914
 42
0.0
  0
SEQEND
  0
POLYLINE
  8
Default
 66
     1
 10
0.0
 20
0.0
 30
0.0
 70
     1
  0
VERTEX
  8
Default
 10
1493.50000532
 20
-310.496701435914
 42
0.4142135623731
  0
VERTEX
  8
Default
 10
1498.50000532
 20
-315.496701435914
 42
0.4142135623731
  0
VERTEX
  8
Default
 10
1503.50000533
 20
-310.496701435914
 42
0.0
  0
VERTEX
  8
Default
 10
1503.50000533
 20
-300.496701455914
 42
0.4142135623731
  0
VERTEX
  8
Default
 10
1498.50000533
 20
-295.496701455914
 42
0.4142135623731
  0
VERTEX
  8
Default
 10
1493.50000532
 20
-300.496701455914
 42
0.0
  0
SEQEND
  0
POLYLINE
  8
Default
 66
     1
 10
0.0
 20
0.0
 30
0.0
 70
     1
  0
VERTEX
  8
Default
 10
1634.50000532
 20
-310.496701435914
 42
0.4142135623731
  0
VERTEX
  8
Default
 10
1639.50000532
 20
-315.496701435914
 42
0.4142135623731
  0
VERTEX
  8
Default
 10
1644.50000533
 20
-310.496701435914
 42
0.0
  0
VERTEX
  8
Default
 10
1644.50000533
 20
-300.496701455914
 42
0.4142135623731
  0
VERTEX
  8
Default
 10
1639.50000533
 20
-295.496701455914
 42
0.4142135623731
  0
VERTEX
  8
Default
 10
1634.50000532
 20
-300.496701455914
 42
0.0
  0
SEQEND
  0
POLYLINE
  8
Default
 66
     1
 10
0.0
 20
0.0
 30
0.0
 70
     1
  0
VERTEX
  8
Default
 10
1070.50000532
 20
-310.496701435914
 42
0.4142135623731
  0
VERTEX
  8
Default
 10
1075.50000532
 20
-315.496701435914
 42
0.4142135623731
  0
VERTEX
  8
Default
 10
1080.50000533
 20
-310.496701435914
 42
0.0
  0
VERTEX
  8
Default
 10
1080.50000533
 20
-300.496701455914
 42
0.4142135623731
  0
VERTEX
  8
Default
 10
1075.50000533
 20
-295.496701455914
 42
0.4142135623731
  0
VERTEX
  8
Default
 10
1070.50000532
 20
-300.496701455914
 42
0.0
  0
SEQEND
  0
POLYLINE
  8
Default
 66
     1
 10
0.0
 20
0.0
 30
0.0
 70
     1
  0
VERTEX
  8
Default
 10
1634.50000532
 20
-310.496701435914
 42
0.4142135623731
  0
VERTEX
  8
Default
 10
1639.50000532
 20
-315.496701435914
 42
0.4142135623731
  0
VERTEX
  8
Default
 10
1644.50000533
 20
-310.496701435914
 42
0.0
  0
VERTEX
  8
Default
 10
1644.50000533
 20
-300.496701455914
 42
0.4142135623731
  0
VERTEX
  8
Default
 10
1639.50000533
 20
-295.496701455914
 42
0.4142135623731
  0
VERTEX
  8
Default
 10
1634.50000532
 20
-300.496701455914
 42
0.0
  0
SEQEND
  0
POLYLINE
  8
Default
 66
     1
 10
0.0
 20
0.0
 30
0.0
 70
     1
  0
VERTEX
  8
Default
 10
1069.999999995
 20
-185.496699695914
 42
0.4142135623731
  0
VERTEX
  8
Default
 10
1074.999999995
 20
-190.496699695914
 42
0.4142135623731
  0
VERTEX
  8
Default
 10
1080.000000005
 20
-185.496699695914
 42
0.0
  0
VERTEX
  8
Default
 10
1080.000000005
 20
-175.496699715914
 42
0.4142135623731
  0
VERTEX
  8
Default
 10
1075.000000005
 20
-170.496699715914
 42
0.4142135623731
  0
VERTEX
  8
Default
 10
1069.999999995
 20
-175.496699715914
 42
0.0
  0
SEQEND
  0
POLYLINE
  8
Default
 66
     1
 10
0.0
 20
0.0
 30
0.0
 70
     1
  0
VERTEX
  8
Default
 10
1633.999999995
 20
-185.496699695914
 42
0.4142135623731
  0
VERTEX
  8
Default
 10
1638.999999995
 20
-190.496699695914
 42
0.4142135623731
  0
VERTEX
  8
Default
 10
1644.000000005
 20
-185.496699695914
 42
0.0
  0
VERTEX
  8
Default
 10
1644.000000005
 20
-175.496699715914
 42
0.4142135623731
  0
VERTEX
  8
Default
 10
1639.000000005
 20
-170.496699715914
 42
0.4142135623731
  0
VERTEX
  8
Default
 10
1633.999999995
 20
-175.496699715914
 42
0.0
  0
SEQEND
  0
POLYLINE
  8
Default
 66
     1
 10
0.0
 20
0.0
 30
0.0
 70
     0
  0
VERTEX
  8
Default
 10
1104.499994675
 20
-275.496701505029
 42
0.0
  0
VERTEX
  8
Default
 10
1104.499994675
 20
-235.496701445914
 42
0.0
  0
VERTEX
  8
Default
 10
1609.500005325
 20
-235.496701445914
 42
0.0
  0
VERTEX
  8
Default
 10
1609.500005325
 20
-275.496701505029
 42
0.0
  0
SEQEND
  0
POLYLINE
  8
Default
 66
     1
 10
0.0
 20
0.0
 30
0.0
 70
     0
  0
VERTEX
  8
Default
 10
1104.499994675
 20
-85.4966979067988
 42
0.0
  0
VERTEX
  8
Default
 10
1104.499994675
 20
-125.496697965914
 42
0.0
  0
VERTEX
  8
Default
 10
1609.500005325
 20
-125.496697965914
 42
0.0
  0
VERTEX
  8
Default
 10
1609.500005325
 20
-85.4966979067988
 42
0.0
  0
SEQEND
  0
CIRCLE
  8
Default
 10
1208.01926043926
 20
-215.520761724712
 30
0.0
 40
3.9999999911648
  0
CIRCLE
  8
Default
 10
1167.98073928932
 20
-215.472633524675
 30
0.0
 40
3.9999999911648
  0
POLYLINE
  8
Default
 66
     1
 10
0.0
 20
0.0
 30
0.0
 70
     1
  0
VERTEX
  8
Default
 10
1231.09632937074
 20
-225.496699705914
 42
0.0
  0
VERTEX
  8
Default
 10
1311.09632964217
 20
-225.496699705914
 42
0.0
  0
VERTEX
  8
Default
 10
1311.09632964217
 20
-135.496699743414
 42
0.0
  0
VERTEX
  8
Default
 10
1231.09632937074
 20
-135.496699743414
 42
0.0
  0
SEQEND
  0
CIRCLE
  8
Default
 10
1291.11559008143
 20
-145.472637724616
 30
0.0
 40
3.9999999911648
  0
CIRCLE
  8
Default
 10
1251.07706893149
 20
-145.520765924653
 30
0.0
 40
3.9999999911648
  0
CIRCLE
  8
Default
 10
1291.11559008143
 20
-215.520761724712
 30
0.0
 40
3.9999999911648
  0
CIRCLE
  8
Default
 10
1251.07706893149
 20
-215.472633524675
 30
0.0
 40
3.9999999911648
  0
POLYLINE
  8
Default
 66
     1
 10
0.0
 20
0.0
 30
0.0
 70
     1
  0
VERTEX
  8
Default
 10
1313.24527197562
 20
-225.496699705914
 42
0.0
  0
VERTEX
  8
Default
 10
1393.24527224704
 20
-225.496699705914
 42
0.0
  0
VERTEX
  8
Default
 10
1393.24527224704
 20
-135.496699743414
 42
0.0
  0
VERTEX
  8
Default
 10
1313.24527197562
 20
-135.496699743414
 42
0.0
  0
SEQEND
  0
CIRCLE
  8
Default
 10
1373.2645326863
 20
-145.472637724616
 30
0.0
 40
3.9999999911648
  0
CIRCLE
  8
Default
 10
1333.22601153636
 20
-145.520765924653
 30
0.0
 40
3.9999999911648
  0
CIRCLE
  8
Default
 10
1373.2645326863
 20
-215.520761724712
 30
0.0
 40
3.9999999911648
  0
CIRCLE
  8
Default
 10
1333.22601153636
 20
-215.472633524675
 30
0.0
 40
3.9999999911648
  0
POLYLINE
  8
Default
 66
     1
 10
0.0
 20
0.0
 30
0.0
 70
     1
  0
VERTEX
  8
Default
 10
1396.34160161779
 20
-225.496699705914
 42
0.0
  0
VERTEX
  8
Default
 10
1476.34160188921
 20
-225.496699705914
 42
0.0
  0
VERTEX
  8
Default
 10
1476.34160188921
 20
-135.496699743414
 42
0.0
  0
VERTEX
  8
Default
 10
1396.34160161779
 20
-135.496699743414
 42
0.0
  0
SEQEND
  0
CIRCLE
  8
Default
 10
1456.36086232847
 20
-145.472637724616
 30
0.0
 40
3.9999999911648
  0
CIRCLE
  8
Default
 10
1416.32234117853
 20
-145.520765924653
 30
0.0
 40
3.9999999911648
  0
CIRCLE
  8
Default
 10
1456.36086232847
 20
-215.520761724712
 30
0.0
 40
3.9999999911648
  0
CIRCLE
  8
Default
 10
1416.32234117853
 20
-215.472633524675
 30
0.0
 40
3.9999999911648
  0
POLYLINE
  8
Default
 66
     1
 10
0.0
 20
0.0
 30
0.0
 70
     1
  0
VERTEX
  8
Default
 10
1479.34160161779
 20
-225.496699705914
 42
0.0
  0
VERTEX
  8
Default
 10
1559.34160188921
 20
-225.496699705914
 42
0.0
  0
VERTEX
  8
Default
 10
1559.34160188921
 20
-135.496699743414
 42
0.0
  0
VERTEX
  8
Default
 10
1479.34160161779
 20
-135.496699743414
 42
0.0
  0
SEQEND
  0
CIRCLE
  8
Default
 10
1539.36086232847
 20
-145.472637724616
 30
0.0
 40
3.9999999911648
  0
CIRCLE
  8
Default
 10
1499.32234117853
 20
-145.520765924653
 30
0.0
 40
3.9999999911648
  0
CIRCLE
  8
Default
 10
1539.36086232847
 20
-215.520761724712
 30
0.0
 40
3.9999999911648
  0
CIRCLE
  8
Default
 10
1499.32234117853
 20
-215.472633524675
 30
0.0
 40
3.9999999911648
  0
POLYLINE
  8
Default
 66
     1
 10
0.0
 20
0.0
 30
0.0
 70
     1
  0
VERTEX
  8
Default
 10
3672.38344255032
 20
-744.781053120001
 42
0.0
  0
VERTEX
  8
Default
 10
3732.38344195031
 20
-744.781053120001
 42
0.0
  0
VERTEX
  8
Default
 10
3732.38344195031
 20
105.21893956
 42
0.0
  0
VERTEX
  8
Default
 10
3672.38344255032
 20
105.21893956
 42
0.0
  0
SEQEND
  0
POLYLINE
  8
Default
 66
     1
 10
0.0
 20
0.0
 30
0.0
 70
     1
  0
VERTEX
  8
Default
 10
3591.8787843
 20
128.594581987826
 42
0.0
  0
VERTEX
  8
Default
 10
3651.8787837
 20
128.594581987826
 42
0.0
  0
VERTEX
  8
Default
 10
3651.8787837
 20
978.594574667827
 42
0.0
  0
VERTEX
  8
Default
 10
3591.8787843
 20
978.594574667827
 42
0.0
  0
SEQEND
  0
POLYLINE
  8
Default
 66
     1
 10
0.0
 20
0.0
 30
0.0
 70
     1
  0
VERTEX
  8
Default
 10
3672.38344255032
 20
128.594581987826
 42
0.0
  0
VERTEX
  8
Default
 10
3732.38344195031
 20
128.594581987826
 42
0.0
  0
VERTEX
  8
Default
 10
3732.38344195031
 20
978.594574667827
 42
0.0
  0
VERTEX
  8
Default
 10
3672.38344255032
 20
978.594574667827
 42
0.0
  0
SEQEND
  0
POLYLINE
  8
Default
 66
     1
 10
0.0
 20
0.0
 30
0.0
 70
     1
  0
VERTEX
  8
Default
 10
3742.99999972857
 20
433.006600588172
 42
0.0
  0
VERTEX
  8
Default
 10
3823.0
 20
433.006600588172
 42
0.0
  0
VERTEX
  8
Default
 10
3823.0
 20
523.006600550672
 42
0.0
  0
VERTEX
  8
Default
 10
3742.99999972857
 20
523.006600550672
 42
0.0
  0
SEQEND
  0
CIRCLE
  8
Default
 10
3803.01926043926
 20
513.03066256947
 30
0.0
 40
3.9999999911648
  0
CIRCLE
  8
Default
 10
3762.98073928932
 20
512.982534369434
 30
0.0
 40
3.9999999911648
  0
CIRCLE
  8
Default
 10
3803.01926043926
 20
442.982538569375
 30
0.0
 40
3.9999999911648
  0
CIRCLE
  8
Default
 10
3762.98073928932
 20
443.030666769411
 30
0.0
 40
3.9999999911648
  0
POLYLINE
  8
Default
 66
     1
 10
0.0
 20
0.0
 30
0.0
 70
     1
  0
VERTEX
  8
Default
 10
3828.21150129966
 20
433.006600588172
 42
0.0
  0
VERTEX
  8
Default
 10
3908.21150157109
 20
433.006600588172
 42
0.0
  0
VERTEX
  8
Default
 10
3908.21150157109
 20
523.006600550672
 42
0.0
  0
VERTEX
  8
Default
 10
3828.21150129966
 20
523.006600550672
 42
0.0
  0
SEQEND
  0
CIRCLE
  8
Default
 10
3888.23076201035
 20
513.03066256947
 30
0.0
 40
3.9999999911648
  0
CIRCLE
  8
Default
 10
3848.19224086041
 20
512.982534369434
 30
0.0
 40
3.9999999911648
  0
CIRCLE
  8
Default
 10
3888.23076201035
 20
442.982538569375
 30
0.0
 40
3.9999999911648
  0
CIRCLE
  8
Default
 10
3848.19224086041
 20
443.030666769411
 30
0.0
 40
3.9999999911648
  0
POLYLINE
  8
Default
 66
     1
 10
0.0
 20
0.0
 30
0.0
 70
     1
  0
VERTEX
  8
Default
 10
3742.99999972857
 20
527.01191958662
 42
0.0
  0
VERTEX
  8
Default
 10
3823.0
 20
527.01191958662
 42
0.0
  0
VERTEX
  8
Default
 10
3823.0
 20
617.011919549121
 42
0.0
  0
VERTEX
  8
Default
 10
3742.99999972857
 20
617.011919549121
 42
0.0
  0
SEQEND
  0
CIRCLE
  8
Default
 10
3803.01926043926
 20
607.035981567918
 30
0.0
 40
3.9999999911648
  0
CIRCLE
  8
Default
 10
3762.98073928932
 20
606.987853367882
 30
0.0
 40
3.9999999911648
  0
CIRCLE
  8
Default
 10
3803.01926043926
 20
536.987857567823
 30
0.0
 40
3.9999999911648
  0
CIRCLE
  8
Default
 10
3762.98073928932
 20
537.035985767859
 30
0.0
 40
3.9999999911648
  0
POLYLINE
  8
Default
 66
     1
 10
0.0
 20
0.0
 30
0.0
 70
     1
  0
VERTEX
  8
Default
 10
3828.21150129966
 20
527.01191958662
 42
0.0
  0
VERTEX
  8
Default
 10
3908.21150157109
 20
527.01191958662
 42
0.0
  0
VERTEX
  8
Default
 10
3908.21150157109
 20
617.011919549121
 42
0.0
  0
VERTEX
  8
Default
 10
3828.21150129966
 20
617.011919549121
 42
0.0
  0
SEQEND
  0
CIRCLE
  8
Default
 10
3888.23076201035
 20
607.035981567918
 30
0.0
 40
3.9999999911648
  0
CIRCLE
  8
Default
 10
3848.19224086041
 20
606.987853367882
 30
0.0
 40
3.9999999911648
  0
CIRCLE
  8
Default
 10
3888.23076201035
 20
536.987857567823
 30
0.0
 40
3.9999999911648
  0
CIRCLE
  8
Default
 10
3848.19224086041
 20
537.035985767859
 30
0.0
 40
3.9999999911648
  0
POLYLINE
  8
Default
 66
     1
 10
0.0
 20
0.0
 30
0.0
 70
     1
  0
VERTEX
  8
Default
 10
3742.99999972857
 20
621.017238585068
 42
0.0
  0
VERTEX
  8
Default
 10
3823.0
 20
621.017238585068
 42
0.0
  0
VERTEX
  8
Default
 10
3823.0
 20
711.017238547569
 42
0.0
  0
VERTEX
  8
Default
 10
3742.99999972857
 20
711.017238547569
 42
0.0
  0
SEQEND
  0
CIRCLE
  8
Default
 10
3803.01926043926
 20
701.041300566366
 30
0.0
 40
3.9999999911648
  0
CIRCLE
  8
Default
 10
3762.98073928932
 20
700.99317236633
 30
0.0
 40
3.9999999911648
  0
CIRCLE
  8
Default
 10
3803.01926043926
 20
630.993176566271
 30
0.0
 40
3.9999999911648
  0
CIRCLE
  8
Default
 10
3762.98073928932
 20
631.041304766307
 30
0.0
 40
3.9999999911648
  0
POLYLINE
  8
Default
 66
     1
 10
0.0
 20
0.0
 30
0.0
 70
     1
  0
VERTEX
  8
Default
 10
3828.21150129966
 20
621.017238585068
 42
0.0
  0
VERTEX
  8
Default
 10
3908.21150157109
 20
621.017238585068
 42
0.0
  0
VERTEX
  8
Default
 10
3908.21150157109
 20
711.017238547569
 42
0.0
  0
VERTEX
  8
Default
 10
3828.21150129966
 20
711.017238547569
 42
0.0
  0
SEQEND
  0
CIRCLE
  8
Default
 10
3888.23076201035
 20
701.041300566366
 30
0.0
 40
3.9999999911648
  0
CIRCLE
  8
Default
 10
3848.19224086041
 20
700.99317236633
 30
0.0
 40
3.9999999911648
  0
CIRCLE
  8
Default
 10
3888.23076201035
 20
630.993176566271
 30
0.0
 40
3.9999999911648
  0
CIRCLE
  8
Default
 10
3848.19224086041
 20
631.041304766307
 30
0.0
 40
3.9999999911648
  0
POLYLINE
  8
Default
 66
     1
 10
0.0
 20
0.0
 30
0.0
 70
     1
  0
VERTEX
  8
Default
 10
3742.99999972857
 20
715.022557583516
 42
0.0
  0
VERTEX
  8
Default
 10
3823.0
 20
715.022557583516
 42
0.0
  0
VERTEX
  8
Default
 10
3823.0
 20
805.022557546017
 42
0.0
  0
VERTEX
  8
Default
 10
3742.99999972857
 20
805.022557546017
 42
0.0
  0
SEQEND
  0
CIRCLE
  8
Default
 10
3803.01926043926
 20
795.046619564814
 30
0.0
 40
3.9999999911648
  0
CIRCLE
  8
Default
 10
3762.98073928932
 20
794.998491364778
 30
0.0
 40
3.9999999911648
  0
CIRCLE
  8
Default
 10
3803.01926043926
 20
724.998495564719
 30
0.0
 40
3.9999999911648
  0
CIRCLE
  8
Default
 10
3762.98073928932
 20
725.046623764756
 30
0.0
 40
3.9999999911648
  0
POLYLINE
  8
Default
 66
     1
 10
0.0
 20
0.0
 30
0.0
 70
     1
  0
VERTEX
  8
Default
 10
3828.21150129966
 20
715.022557583516
 42
0.0
  0
VERTEX
  8
Default
 10
3908.21150157109
 20
715.022557583516
 42
0.0
  0
VERTEX
  8
Default
 10
3908.21150157109
 20
805.022557546017
 42
0.0
  0
VERTEX
  8
Default
 10
3828.21150129966
 20
805.022557546017
 42
0.0
  0
SEQEND
  0
CIRCLE
  8
Default
 10
3888.23076201035
 20
795.046619564814
 30
0.0
 40
3.9999999911648
  0
CIRCLE
  8
Default
 10
3848.19224086041
 20
794.998491364778
 30
0.0
 40
3.9999999911648
  0
CIRCLE
  8
Default
 10
3888.23076201035
 20
724.998495564719
 30
0.0
 40
3.9999999911648
  0
CIRCLE
  8
Default
 10
3848.19224086041
 20
725.046623764756
 30
0.0
 40
3.9999999911648
  0
POLYLINE
  8
Default
 66
     1
 10
0.0
 20
0.0
 30
0.0
 70
     1
  0
VERTEX
  8
Default
 10
3742.99999972857
 20
811.532329850826
 42
0.0
  0
VERTEX
  8
Default
 10
3823.0
 20
811.532329850826
 42
0.0
  0
VERTEX
  8
Default
 10
3823.0
 20
901.532329813326
 42
0.0
  0
VERTEX
  8
Default
 10
3742.99999972857
 20
901.532329813326
 42
0.0
  0
SEQEND
  0
CIRCLE
  8
Default
 10
3803.01926043926
 20
891.556391832124
 30
0.0
 40
3.9999999911648
  0
CIRCLE
  8
Default
 10
3762.98073928932
 20
891.508263632088
 30
0.0
 40
3.9999999911648
  0
CIRCLE
  8
Default
 10
3803.01926043926
 20
821.508267832029
 30
0.0
 40
3.9999999911648
  0
CIRCLE
  8
Default
 10
3762.98073928932
 20
821.556396032065
 30
0.0
 40
3.9999999911648
  0
POLYLINE
  8
Default
 66
     1
 10
0.0
 20
0.0
 30
0.0
 70
     1
  0
VERTEX
  8
Default
 10
3828.21150129966
 20
811.532329850826
 42
0.0
  0
VERTEX
  8
Default
 10
3908.21150157109
 20
811.532329850826
 42
0.0
  0
VERTEX
  8
Default
 10
3908.21150157109
 20
901.532329813326
 42
0.0
  0
VERTEX
  8
Default
 10
3828.21150129966
 20
901.532329813326
 42
0.0
  0
SEQEND
  0
CIRCLE
  8
Default
 10
3888.23076201035
 20
891.556391832124
 30
0.0
 40
3.9999999911648
  0
CIRCLE
  8
Default
 10
3848.19224086041
 20
891.508263632088
 30
0.0
 40
3.9999999911648
  0
CIRCLE
  8
Default
 10
3888.23076201035
 20
821.508267832029
 30
0.0
 40
3.9999999911648
  0
CIRCLE
  8
Default
 10
3848.19224086041
 20
821.556396032065
 30
0.0
 40
3.9999999911648
  0
POLYLINE
  8
Default
 66
     1
 10
0.0
 20
0.0
 30
0.0
 70
     1
  0
VERTEX
  8
Default
 10
3915.59458198783
 20
1139.1212163
 42
0.0
  0
VERTEX
  8
Default
 10
4765.59457466783
 20
1139.1212163
 42
0.0
  0
VERTEX
  8
Default
 10
4765.59457466783
 20
1199.1212157
 42
0.0
  0
VERTEX
  8
Default
 10
3915.59458198783
 20
1199.1212157
 42
0.0
  0
SEQEND
  0
POLYLINE
  8
Default
 66
     1
 10
0.0
 20
0.0
 30
0.0
 70
     1
  0
VERTEX
  8
Default
 10
3915.59458198783
 20
1072.61655804968
 42
0.0
  0
VERTEX
  8
Default
 10
4765.59457466783
 20
1072.61655804968
 42
0.0
  0
VERTEX
  8
Default
 10
4765.59457466783
 20
1132.61655744968
 42
0.0
  0
VERTEX
  8
Default
 10
3915.59458198783
 20
1132.61655744968
 42
0.0
  0
SEQEND
  0
POLYLINE
  8
Default
 66
     1
 10
0.0
 20
0.0
 30
0.0
 70
     1
  0
VERTEX
  8
Default
 10
3610.01723858507
 20
1115.0
 42
0.0
  0
VERTEX
  8
Default
 10
3700.01723854757
 20
1115.0
 42
0.0
  0
VERTEX
  8
Default
 10
3700.01723854757
 20
1195.00000027143
 42
0.0
  0
VERTEX
  8
Default
 10
3610.01723858507
 20
1195.00000027143
 42
0.0
  0
SEQEND
  0
CIRCLE
  8
Default
 10
3690.04130056637
 20
1134.98073956074
 30
0.0
 40
3.9999999911648
  0
CIRCLE
  8
Default
 10
3689.99317236633
 20
1175.01926071068
 30
0.0
 40
3.9999999911648
  0
CIRCLE
  8
Default
 10
3619.99317656627
 20
1134.98073956074
 30
0.0
 40
3.9999999911648
  0
CIRCLE
  8
Default
 10
3620.04130476631
 20
1175.01926071068
 30
0.0
 40
3.9999999911648
  0
POLYLINE
  8
Default
 66
     1
 10
0.0
 20
0.0
 30
0.0
 70
     1
  0
VERTEX
  8
Default
 10
3610.01723858507
 20
1029.78849842891
 42
0.0
  0
VERTEX
  8
Default
 10
3700.01723854757
 20
1029.78849842891
 42
0.0
  0
VERTEX
  8
Default
 10
3700.01723854757
 20
1109.78849870034
 42
0.0
  0
VERTEX
  8
Default
 10
3610.01723858507
 20
1109.78849870034
 42
0.0
  0
SEQEND
  0
CIRCLE
  8
Default
 10
3690.04130056637
 20
1049.76923798965
 30
0.0
 40
3.9999999911648
  0
CIRCLE
  8
Default
 10
3689.99317236633
 20
1089.80775913959
 30
0.0
 40
3.9999999911648
  0
CIRCLE
  8
Default
 10
3619.99317656627
 20
1049.76923798965
 30
0.0
 40
3.9999999911648
  0
CIRCLE
  8
Default
 10
3620.04130476631
 20
1089.80775913959
 30
0.0
 40
3.9999999911648
  0
POLYLINE
  8
Default
 66
     1
 10
0.0
 20
0.0
 30
0.0
 70
     1
  0
VERTEX
  8
Default
 10
3704.02255758352
 20
1115.0
 42
0.0
  0
VERTEX
  8
Default
 10
3794.02255754602
 20
1115.0
 42
0.0
  0
VERTEX
  8
Default
 10
3794.02255754602
 20
1195.00000027143
 42
0.0
  0
VERTEX
  8
Default
 10
3704.02255758352
 20
1195.00000027143
 42
0.0
  0
SEQEND
  0
CIRCLE
  8
Default
 10
3784.04661956482
 20
1134.98073956074
 30
0.0
 40
3.9999999911648
  0
CIRCLE
  8
Default
 10
3783.99849136478
 20
1175.01926071068
 30
0.0
 40
3.9999999911648
  0
CIRCLE
  8
Default
 10
3713.99849556472
 20
1134.98073956074
 30
0.0
 40
3.9999999911648
  0
CIRCLE
  8
Default
 10
3714.04662376476
 20
1175.01926071068
 30
0.0
 40
3.9999999911648
  0
POLYLINE
  8
Default
 66
     1
 10
0.0
 20
0.0
 30
0.0
 70
     1
  0
VERTEX
  8
Default
 10
3704.02255758352
 20
1029.78849842891
 42
0.0
  0
VERTEX
  8
Default
 10
3794.02255754602
 20
1029.78849842891
 42
0.0
  0
VERTEX
  8
Default
 10
3794.02255754602
 20
1109.78849870034
 42
0.0
  0
VERTEX
  8
Default
 10
3704.02255758352
 20
1109.78849870034
 42
0.0
  0
SEQEND
  0
CIRCLE
  8
Default
 10
3784.04661956482
 20
1049.76923798965
 30
0.0
 40
3.9999999911648
  0
CIRCLE
  8
Default
 10
3783.99849136478
 20
1089.80775913959
 30
0.0
 40
3.9999999911648
  0
CIRCLE
  8
Default
 10
3713.99849556472
 20
1049.76923798965
 30
0.0
 40
3.9999999911648
  0
CIRCLE
  8
Default
 10
3714.04662376476
 20
1089.80775913959
 30
0.0
 40
3.9999999911648
  0
POLYLINE
  8
Default
 66
     1
 10
0.0
 20
0.0
 30
0.0
 70
     1
  0
VERTEX
  8
Default
 10
3800.53232985083
 20
1115.0
 42
0.0
  0
VERTEX
  8
Default
 10
3890.53232981333
 20
1115.0
 42
0.0
  0
VERTEX
  8
Default
 10
3890.53232981333
 20
1195.00000027143
 42
0.0
  0
VERTEX
  8
Default
 10
3800.53232985083
 20
1195.00000027143
 42
0.0
  0
SEQEND
  0
CIRCLE
  8
Default
 10
3880.55639183212
 20
1134.98073956074
 30
0.0
 40
3.9999999911648
  0
CIRCLE
  8
Default
 10
3880.50826363209
 20
1175.01926071068
 30
0.0
 40
3.9999999911648
  0
CIRCLE
  8
Default
 10
3810.50826783203
 20
1134.98073956074
 30
0.0
 40
3.9999999911648
  0
CIRCLE
  8
Default
 10
3810.55639603207
 20
1175.01926071068
 30
0.0
 40
3.9999999911648
  0
POLYLINE
  8
Default
 66
     1
 10
0.0
 20
0.0
 30
0.0
 70
     1
  0
VERTEX
  8
Default
 10
3800.53232985083
 20
1029.78849842891
 42
0.0
  0
VERTEX
  8
Default
 10
3890.53232981333
 20
1029.78849842891
 42
0.0
  0
VERTEX
  8
Default
 10
3890.53232981333
 20
1109.78849870034
 42
0.0
  0
VERTEX
  8
Default
 10
3800.53232985083
 20
1109.78849870034
 42
0.0
  0
SEQEND
  0
CIRCLE
  8
Default
 10
3880.55639183212
 20
1049.76923798965
 30
0.0
 40
3.9999999911648
  0
CIRCLE
  8
Default
 10
3880.50826363209
 20
1089.80775913959
 30
0.0
 40
3.9999999911648
  0
CIRCLE
  8
Default
 10
3810.50826783203
 20
1049.76923798965
 30
0.0
 40
3.9999999911648
  0
CIRCLE
  8
Default
 10
3810.55639603207
 20
1089.80775913959
 30
0.0
 40
3.9999999911648
  0
POLYLINE
  8
Default
 66
     1
 10
0.0
 20
0.0
 30
0.0
 70
     1
  0
VERTEX
  8
Default
 10
3082.00660058817
 20
825.0
 42
0.0
  0
VERTEX
  8
Default
 10
3172.00660055067
 20
825.0
 42
0.0
  0
VERTEX
  8
Default
 10
3172.00660055067
 20
905.000000271428
 42
0.0
  0
VERTEX
  8
Default
 10
3082.00660058817
 20
905.000000271428
 42
0.0
  0
SEQEND
  0
CIRCLE
  8
Default
 10
3162.03066256947
 20
844.98073956074
 30
0.0
 40
3.9999999911648
  0
CIRCLE
  8
Default
 10
3161.98253436943
 20
885.019260710683
 30
0.0
 40
3.9999999911648
  0
CIRCLE
  8
Default
 10
3091.98253856937
 20
844.98073956074
 30
0.0
 40
3.9999999911648
  0
CIRCLE
  8
Default
 10
3092.03066676941
 20
885.019260710683
 30
0.0
 40
3.9999999911648
  0
POLYLINE
  8
Default
 66
     1
 10
0.0
 20
0.0
 30
0.0
 70
     1
  0
VERTEX
  8
Default
 10
3082.00660058817
 20
741.903670357831
 42
0.0
  0
VERTEX
  8
Default
 10
3172.00660055067
 20
741.903670357831
 42
0.0
  0
VERTEX
  8
Default
 10
3172.00660055067
 20
821.903670629259
 42
0.0
  0
VERTEX
  8
Default
 10
3082.00660058817
 20
821.903670629259
 42
0.0
  0
SEQEND
  0
CIRCLE
  8
Default
 10
3162.03066256947
 20
761.884409918572
 30
0.0
 40
3.9999999911648
  0
CIRCLE
  8
Default
 10
3161.98253436943
 20
801.922931068514
 30
0.0
 40
3.9999999911648
  0
CIRCLE
  8
Default
 10
3091.98253856937
 20
761.884409918572
 30
0.0
 40
3.9999999911648
  0
CIRCLE
  8
Default
 10
3092.03066676941
 20
801.922931068514
 30
0.0
 40
3.9999999911648
  0
POLYLINE
  8
Default
 66
     1
 10
0.0
 20
0.0
 30
0.0
 70
     1
  0
VERTEX
  8
Default
 10
3082.00660058817
 20
659.754727752955
 42
0.0
  0
VERTEX
  8
Default
 10
3172.00660055067
 20
659.754727752955
 42
0.0
  0
VERTEX
  8
Default
 10
3172.00660055067
 20
739.754728024383
 42
0.0
  0
VERTEX
  8
Default
 10
3082.00660058817
 20
739.754728024383
 42
0.0
  0
SEQEND
  0
CIRCLE
  8
Default
 10
3162.03066256947
 20
679.735467313696
 30
0.0
 40
3.9999999911648
  0
CIRCLE
  8
Default
 10
3161.98253436943
 20
719.773988463638
 30
0.0
 40
3.9999999911648
  0
CIRCLE
  8
Default
 10
3091.98253856937
 20
679.735467313696
 30
0.0
 40
3.9999999911648
  0
CIRCLE
  8
Default
 10
3092.03066676941
 20
719.773988463638
 30
0.0
 40
3.9999999911648
  0
POLYLINE
  8
Default
 66
     1
 10
0.0
 20
0.0
 30
0.0
 70
     1
  0
VERTEX
  8
Default
 10
3082.00660058817
 20
576.658398110786
 42
0.0
  0
VERTEX
  8
Default
 10
3172.00660055067
 20
576.658398110786
 42
0.0
  0
VERTEX
  8
Default
 10
3172.00660055067
 20
656.658398382214
 42
0.0
  0
VERTEX
  8
Default
 10
3082.00660058817
 20
656.658398382214
 42
0.0
  0
SEQEND
  0
CIRCLE
  8
Default
 10
3162.03066256947
 20
596.639137671527
 30
0.0
 40
3.9999999911648
  0
CIRCLE
  8
Default
 10
3161.98253436943
 20
636.677658821469
 30
0.0
 40
3.9999999911648
  0
CIRCLE
  8
Default
 10
3091.98253856937
 20
596.639137671527
 30
0.0
 40
3.9999999911648
  0
CIRCLE
  8
Default
 10
3092.03066676941
 20
636.677658821469
 30
0.0
 40
3.9999999911648
  0
POLYLINE
  8
Default
 66
     1
 10
0.0
 20
0.0
 30
0.0
 70
     1
  0
VERTEX
  8
Default
 10
3082.00660058817
 20
493.658398110786
 42
0.0
  0
VERTEX
  8
Default
 10
3172.00660055067
 20
493.658398110786
 42
0.0
  0
VERTEX
  8
Default
 10
3172.00660055067
 20
573.658398382214
 42
0.0
  0
VERTEX
  8
Default
 10
3082.00660058817
 20
573.658398382214
 42
0.0
  0
SEQEND
  0
CIRCLE
  8
Default
 10
3162.03066256947
 20
513.639137671527
 30
0.0
 40
3.9999999911648
  0
CIRCLE
  8
Default
 10
3161.98253436943
 20
553.677658821469
 30
0.0
 40
3.9999999911648
  0
CIRCLE
  8
Default
 10
3091.98253856937
 20
513.639137671527
 30
0.0
 40
3.9999999911648
  0
CIRCLE
  8
Default
 10
3092.03066676941
 20
553.677658821469
 30
0.0
 40
3.9999999911648
  0
POLYLINE
  8
Default
 66
     1
 10
0.0
 20
0.0
 30
0.0
 70
     1
  0
VERTEX
  8
Default
 10
3183.0115509619
 20
825.0
 42
0.0
  0
VERTEX
  8
Default
 10
3273.0115509244
 20
825.0
 42
0.0
  0
VERTEX
  8
Default
 10
3273.0115509244
 20
905.000000271428
 42
0.0
  0
VERTEX
  8
Default
 10
3183.0115509619
 20
905.000000271428
 42
0.0
  0
SEQEND
  0
CIRCLE
  8
Default
 10
3263.0356129432
 20
844.98073956074
 30
0.0
 40
3.9999999911648
  0
CIRCLE
  8
Default
 10
3262.98748474317
 20
885.019260710683
 30
0.0
 40
3.9999999911648
  0
CIRCLE
  8
Default
 10
3192.98748894311
 20
844.98073956074
 30
0.0
 40
3.9999999911648
  0
CIRCLE
  8
Default
 10
3193.03561714314
 20
885.019260710683
 30
0.0
 40
3.9999999911648
  0
POLYLINE
  8
Default
 66
     1
 10
0.0
 20
0.0
 30
0.0
 70
     1
  0
VERTEX
  8
Default
 10
3183.0115509619
 20
741.903670357831
 42
0.0
  0
VERTEX
  8
Default
 10
3273.0115509244
 20
741.903670357831
 42
0.0
  0
VERTEX
  8
Default
 10
3273.0115509244
 20
821.903670629259
 42
0.0
  0
VERTEX
  8
Default
 10
3183.0115509619
 20
821.903670629259
 42
0.0
  0
SEQEND
  0
CIRCLE
  8
Default
 10
3263.0356129432
 20
761.884409918572
 30
0.0
 40
3.9999999911648
  0
CIRCLE
  8
Default
 10
3262.98748474317
 20
801.922931068514
 30
0.0
 40
3.9999999911648
  0
CIRCLE
  8
Default
 10
3192.98748894311
 20
761.884409918572
 30
0.0
 40
3.9999999911648
  0
CIRCLE
  8
Default
 10
3193.03561714314
 20
801.922931068514
 30
0.0
 40
3.9999999911648
  0
POLYLINE
  8
Default
 66
     1
 10
0.0
 20
0.0
 30
0.0
 70
     1
  0
VERTEX
  8
Default
 10
3183.0115509619
 20
659.754727752955
 42
0.0
  0
VERTEX
  8
Default
 10
3273.0115509244
 20
659.754727752955
 42
0.0
  0
VERTEX
  8
Default
 10
3273.0115509244
 20
739.754728024383
 42
0.0
  0
VERTEX
  8
Default
 10
3183.0115509619
 20
739.754728024383
 42
0.0
  0
SEQEND
  0
CIRCLE
  8
Default
 10
3263.0356129432
 20
679.735467313696
 30
0.0
 40
3.9999999911648
  0
CIRCLE
  8
Default
 10
3262.98748474317
 20
719.773988463638
 30
0.0
 40
3.9999999911648
  0
CIRCLE
  8
Default
 10
3192.98748894311
 20
679.735467313696
 30
0.0
 40
3.9999999911648
  0
CIRCLE
  8
Default
 10
3193.03561714314
 20
719.773988463638
 30
0.0
 40
3.9999999911648
  0
POLYLINE
  8
Default
 66
     1
 10
0.0
 20
0.0
 30
0.0
 70
     1
  0
VERTEX
  8
Default
 10
3183.0115509619
 20
576.658398110786
 42
0.0
  0
VERTEX
  8
Default
 10
3273.0115509244
 20
576.658398110786
 42
0.0
  0
VERTEX
  8
Default
 10
3273.0115509244
 20
656.658398382214
 42
0.0
  0
VERTEX
  8
Default
 10
3183.0115509619
 20
656.658398382214
 42
0.0
  0
SEQEND
  0
CIRCLE
  8
Default
 10
3263.0356129432
 20
596.639137671527
 30
0.0
 40
3.9999999911648
  0
CIRCLE
  8
Default
 10
3262.98748474317
 20
636.677658821469
 30
0.0
 40
3.9999999911648
  0
CIRCLE
  8
Default
 10
3192.98748894311
 20
596.639137671527
 30
0.0
 40
3.9999999911648
  0
CIRCLE
  8
Default
 10
3193.03561714314
 20
636.677658821469
 30
0.0
 40
3.9999999911648
  0
POLYLINE
  8
Default
 66
     1
 10
0.0
 20
0.0
 30
0.0
 70
     1
  0
VERTEX
  8
Default
 10
3183.0115509619
 20
493.658398110786
 42
0.0
  0
VERTEX
  8
Default
 10
3273.0115509244
 20
493.658398110786
 42
0.0
  0
VERTEX
  8
Default
 10
3273.0115509244
 20
573.658398382214
 42
0.0
  0
VERTEX
  8
Default
 10
3183.0115509619
 20
573.658398382214
 42
0.0
  0
SEQEND
  0
CIRCLE
  8
Default
 10
3263.0356129432
 20
513.639137671527
 30
0.0
 40
3.9999999911648
  0
CIRCLE
  8
Default
 10
3262.98748474317
 20
553.677658821469
 30
0.0
 40
3.9999999911648
  0
CIRCLE
  8
Default
 10
3192.98748894311
 20
513.639137671527
 30
0.0
 40
3.9999999911648
  0
CIRCLE
  8
Default
 10
3193.03561714314
 20
553.677658821469
 30
0.0
 40
3.9999999911648
  0
POLYLINE
  8
Default
 66
     1
 10
0.0
 20
0.0
 30
0.0
 70
     1
  0
VERTEX
  8
Default
 10
3128.96327785869
 20
999.246191197649
 42
0.0
  0
VERTEX
  8
Default
 10
3208.96327813012
 20
999.246191197649
 42
0.0
  0
VERTEX
  8
Default
 10
3208.96327813012
 20
1089.24619116015
 42
0.0
  0
VERTEX
  8
Default
 10
3128.96327785869
 20
1089.24619116015
 42
0.0
  0
SEQEND
  0
CIRCLE
  8
Default
 10
3188.98253856937
 20
1079.27025317895
 30
0.0
 40
3.9999999911648
  0
CIRCLE
  8
Default
 10
3148.94401741943
 20
1079.22212497891
 30
0.0
 40
3.9999999911648
  0
CIRCLE
  8
Default
 10
3188.98253856937
 20
1009.22212917885
 30
0.0
 40
3.9999999911648
  0
CIRCLE
  8
Default
 10
3148.94401741943
 20
1009.27025737889
 30
0.0
 40
3.9999999911648
  0
POLYLINE
  8
Default
 66
     1
 10
0.0
 20
0.0
 30
0.0
 70
     1
  0
VERTEX
  8
Default
 10
3082.00660058817
 20
913.092447013234
 42
0.0
  0
VERTEX
  8
Default
 10
3172.00660055067
 20
913.092447013234
 42
0.0
  0
VERTEX
  8
Default
 10
3172.00660055067
 20
993.092447284662
 42
0.0
  0
VERTEX
  8
Default
 10
3082.00660058817
 20
993.092447284662
 42
0.0
  0
SEQEND
  0
CIRCLE
  8
Default
 10
3162.03066256947
 20
933.073186573975
 30
0.0
 40
3.9999999911648
  0
CIRCLE
  8
Default
 10
3161.98253436943
 20
973.111707723917
 30
0.0
 40
3.9999999911648
  0
CIRCLE
  8
Default
 10
3091.98253856937
 20
933.073186573975
 30
0.0
 40
3.9999999911648
  0
CIRCLE
  8
Default
 10
3092.03066676941
 20
973.111707723917
 30
0.0
 40
3.9999999911648
  0
POLYLINE
  8
Default
 66
     1
 10
0.0
 20
0.0
 30
0.0
 70
     1
  0
VERTEX
  8
Default
 10
3183.0115509619
 20
913.092447013234
 42
0.0
  0
VERTEX
  8
Default
 10
3273.0115509244
 20
913.092447013234
 42
0.0
  0
VERTEX
  8
Default
 10
3273.0115509244
 20
993.092447284662
 42
0.0
  0
VERTEX
  8
Default
 10
3183.0115509619
 20
993.092447284662
 42
0.0
  0
SEQEND
  0
CIRCLE
  8
Default
 10
3263.0356129432
 20
933.073186573975
 30
0.0
 40
3.9999999911648
  0
CIRCLE
  8
Default
 10
3262.98748474317
 20
973.111707723917
 30
0.0
 40
3.9999999911648
  0
CIRCLE
  8
Default
 10
3192.98748894311
 20
933.073186573975
 30
0.0
 40
3.9999999911648
  0
CIRCLE
  8
Default
 10
3193.03561714314
 20
973.111707723917
 30
0.0
 40
3.9999999911648
  0
POLYLINE
  8
Default
 66
     1
 10
0.0
 20
0.0
 30
0.0
 70
     1
  0
VERTEX
  8
Default
 10
2271.59458198783
 20
1001.61655804968
 42
0.0
  0
VERTEX
  8
Default
 10
3121.59457466783
 20
1001.61655804968
 42
0.0
  0
VERTEX
  8
Default
 10
3121.59457466783
 20
1061.61655744968
 42
0.0
  0
VERTEX
  8
Default
 10
2271.59458198783
 20
1061.61655744968
 42
0.0
  0
SEQEND
  0
POLYLINE
  8
Default
 66
     1
 10
0.0
 20
0.0
 30
0.0
 70
     1
  0
VERTEX
  8
Default
 10
3219.96327785869
 20
999.246191197649
 42
0.0
  0
VERTEX
  8
Default
 10
3299.96327813012
 20
999.246191197649
 42
0.0
  0
VERTEX
  8
Default
 10
3299.96327813012
 20
1089.24619116015
 42
0.0
  0
VERTEX
  8
Default
 10
3219.96327785869
 20
1089.24619116015
 42
0.0
  0
SEQEND
  0
CIRCLE
  8
Default
 10
3279.98253856937
 20
1079.27025317895
 30
0.0
 40
3.9999999911648
  0
CIRCLE
  8
Default
 10
3239.94401741943
 20
1079.22212497891
 30
0.0
 40
3.9999999911648
  0
CIRCLE
  8
Default
 10
3279.98253856937
 20
1009.22212917885
 30
0.0
 40
3.9999999911648
  0
CIRCLE
  8
Default
 10
3239.94401741943
 20
1009.27025737889
 30
0.0
 40
3.9999999911648
  0
POLYLINE
  8
Default
 66
     1
 10
0.0
 20
0.0
 30
0.0
 70
     1
  0
VERTEX
  8
Default
 10
1031.9999953
 20
-641.999997899999
 42
0.0
  0
VERTEX
  8
Default
 10
1682.0000047
 20
-641.999997899999
 42
0.0
  0
VERTEX
  8
Default
 10
1682.0000047
 20
1037.9999979
 42
0.0
  0
VERTEX
  8
Default
 10
1031.9999953
 20
1037.9999979
 42
0.0
  0
SEQEND
  0
ENDSEC
  0
EOF
