  0
SECTION
  2
HEADER
  9
$ACADVER
  1
AC1009
  9
$EXTMAX
 10
755.0
 20
1223.0
 30
0.0
  9
$EXTMIN
 10
-245.0
 20
-777.0
 30
0.0
  9
$INSUNITS
 70
     4
  9
$LUNITS
 70
     2
  9
$LUPREC
 70
     4
  9
$MEASUREMENT
 70
     1
  0
ENDSEC
  0
SECTION
  2
TABLES
  0
TABLE
  2
LAYER
 70
     1
  0
LAYER
  2
0
 70
     0
 62
     7
  6
Continuous
  0
LAYER
  2
Default
 70
     0
 62
    70
  6
Continuous
  0
ENDTAB
  0
TABLE
  2
APPID
 70
     1
  0
APPID
  2
ACAD
 70
     0
  0
ENDTAB
  0
ENDSEC
  0
SECTION
  2
ENTITIES
  0
POLYLINE
  8
Default
 66
     1
 10
0.0
 20
0.0
 30
0.0
 70
     1
  0
VERTEX
  8
Default
 10
-244.999998729653
 20
-777.000002505
 42
0.0
  0
VERTEX
  8
Default
 10
754.999998729653
 20
-777.000002505
 42
0.0
  0
VERTEX
  8
Default
 10
754.999998729653
 20
1223.000002505
 42
0.0
  0
VERTEX
  8
Default
 10
-244.999998729653
 20
1223.000002505
 42
0.0
  0
SEQEND
  0
POLYLINE
  8
Default
 66
     1
 10
0.0
 20
0.0
 30
0.0
 70
     1
  0
VERTEX
  8
Default
 10
441.147672584939
 20
-591.883648570268
 42
-0.3428685188402
  0
VERTEX
  8
Default
 10
335.644929340323
 20
-697.386391814863
 42
-0.4893490851415
  0
VERTEX
  8
Default
 10
333.411560931695
 20
-695.153023406235
 42
-0.3428685188402
  0
VERTEX
  8
Default
 10
438.914304176311
 20
-589.65028016164
 42
-0.4893490851415
  0
SEQEND
  0
POLYLINE
  8
Default
 66
     1
 10
0.0
 20
0.0
 30
0.0
 70
     1
  0
VERTEX
  8
Default
 10
439.230533796541
 20
-564.169712102752
 42
-0.34286851922
  0
VERTEX
  8
Default
 10
333.727789367175
 20
-458.666967673372
 42
-0.4893490847203
  0
VERTEX
  8
Default
 10
335.961157774624
 20
-456.433599265924
 42
-0.34286851922
  0
VERTEX
  8
Default
 10
441.46390220399
 20
-561.936343695303
 42
-0.4893490847203
  0
SEQEND
  0
POLYLINE
  8
Default
 66
     1
 10
0.0
 20
0.0
 30
0.0
 70
     1
  0
VERTEX
  8
Default
 10
441.145456528286
 20
-325.169200616527
 42
-0.3428659263387
  0
VERTEX
  8
Default
 10
335.927025623444
 20
-430.954235655765
 42
-0.4893519604395
  0
VERTEX
  8
Default
 10
333.687659987386
 20
-428.726864474568
 42
-0.3428659263387
  0
VERTEX
  8
Default
 10
438.906090892227
 20
-322.94182943533
 42
-0.4893519604395
  0
SEQEND
  0
POLYLINE
  8
Default
 66
     1
 10
0.0
 20
0.0
 30
0.0
 70
     1
  0
VERTEX
  8
Default
 10
307.930991613352
 20
-458.666967598681
 42
-0.3428685188402
  0
VERTEX
  8
Default
 10
202.428248368737
 20
-564.169710843275
 42
-0.4893490851415
  0
VERTEX
  8
Default
 10
200.194879960109
 20
-561.936342434647
 42
-0.3428685188402
  0
VERTEX
  8
Default
 10
305.697623204724
 20
-456.433599190052
 42
-0.4893490851415
  0
SEQEND
  0
POLYLINE
  8
Default
 66
     1
 10
0.0
 20
0.0
 30
0.0
 70
     1
  0
VERTEX
  8
Default
 10
319.061874159806
 20
-513.30403318647
 42
-0.1503352477099
  0
VERTEX
  8
Default
 10
257.065313956545
 20
-575.300593389746
 42
0.6020382746623
  0
VERTEX
  8
Default
 10
257.065313958107
 20
-578.835626528427
 42
-0.1503352481617
  0
VERTEX
  8
Default
 10
319.061874941488
 20
-640.832187511812
 42
0.6020382746624
  0
VERTEX
  8
Default
 10
322.596908080169
 20
-640.832187513374
 42
-0.1503352477099
  0
VERTEX
  8
Default
 10
384.593468283431
 20
-578.835627310098
 42
0.6020382746623
  0
VERTEX
  8
Default
 10
384.593468281869
 20
-575.300594171417
 42
-0.1503352481617
  0
VERTEX
  8
Default
 10
322.596907298487
 20
-513.304033188032
 42
0.6020382746624
  0
SEQEND
  0
POLYLINE
  8
Default
 66
     1
 10
0.0
 20
0.0
 30
0.0
 70
     1
  0
VERTEX
  8
Default
 10
305.721006722862
 20
-431.018758749217
 42
-0.34286851922
  0
VERTEX
  8
Default
 10
200.218262293497
 20
-325.516014319858
 42
-0.4893490847203
  0
VERTEX
  8
Default
 10
202.451630700945
 20
-323.282645912409
 42
-0.34286851922
  0
VERTEX
  8
Default
 10
307.954375130311
 20
-428.785390341769
 42
-0.4893490847203
  0
SEQEND
  0
POLYLINE
  8
Default
 66
     1
 10
0.0
 20
0.0
 30
0.0
 70
     1
  0
VERTEX
  8
Default
 10
574.891146078899
 20
-458.447824404664
 42
-0.3428685188402
  0
VERTEX
  8
Default
 10
469.388402834283
 20
-563.950567649258
 42
-0.4893490851415
  0
VERTEX
  8
Default
 10
467.155034425655
 20
-561.71719924063
 42
-0.3428685188402
  0
VERTEX
  8
Default
 10
572.657777670271
 20
-456.214455996035
 42
-0.4893490851415
  0
SEQEND
  0
POLYLINE
  8
Default
 66
     1
 10
0.0
 20
0.0
 30
0.0
 70
     1
  0
VERTEX
  8
Default
 10
572.657778930901
 20
-697.483478239903
 42
-0.34286851922
  0
VERTEX
  8
Default
 10
467.155034501536
 20
-591.980733810543
 42
-0.4893490847203
  0
VERTEX
  8
Default
 10
469.388402908984
 20
-589.747365403095
 42
-0.34286851922
  0
VERTEX
  8
Default
 10
574.89114733835
 20
-695.250109832455
 42
-0.4893490847203
  0
SEQEND
  0
POLYLINE
  8
Default
 66
     1
 10
0.0
 20
0.0
 30
0.0
 70
     1
  0
VERTEX
  8
Default
 10
572.974007290502
 20
-430.733887937147
 42
-0.34286851922
  0
VERTEX
  8
Default
 10
467.471262861135
 20
-325.231143507768
 42
-0.4893490847203
  0
VERTEX
  8
Default
 10
469.704631268584
 20
-322.99777510032
 42
-0.34286851922
  0
VERTEX
  8
Default
 10
575.20737569795
 20
-428.500519529699
 42
-0.4893490847203
  0
SEQEND
  0
POLYLINE
  8
Default
 66
     1
 10
0.0
 20
0.0
 30
0.0
 70
     1
  0
VERTEX
  8
Default
 10
586.022028625353
 20
-513.084889992452
 42
-0.1503352477099
  0
VERTEX
  8
Default
 10
524.025468422074
 20
-575.08145019573
 42
0.6020382746623
  0
VERTEX
  8
Default
 10
524.025468423636
 20
-578.616483334411
 42
-0.1503352481617
  0
VERTEX
  8
Default
 10
586.022029407016
 20
-640.613044317796
 42
0.6020382746624
  0
VERTEX
  8
Default
 10
589.557062545697
 20
-640.613044319358
 42
-0.1503352477099
  0
VERTEX
  8
Default
 10
651.553622748977
 20
-578.61648411608
 42
0.6020382746623
  0
VERTEX
  8
Default
 10
651.553622747415
 20
-575.081450977399
 42
-0.1503352481617
  0
VERTEX
  8
Default
 10
589.557061764035
 20
-513.084889994014
 42
0.6020382746624
  0
SEQEND
  0
POLYLINE
  8
Default
 66
     1
 10
0.0
 20
0.0
 30
0.0
 70
     1
  0
VERTEX
  8
Default
 10
452.805347653767
 20
-379.868209020866
 42
-0.1503352477099
  0
VERTEX
  8
Default
 10
390.808787450505
 20
-441.864769224142
 42
0.6020382746623
  0
VERTEX
  8
Default
 10
390.808787452067
 20
-445.399802362823
 42
-0.1503352481617
  0
VERTEX
  8
Default
 10
452.805348435448
 20
-507.396363346208
 42
0.6020382746624
  0
VERTEX
  8
Default
 10
456.340381574129
 20
-507.39636334777
 42
-0.1503352477099
  0
VERTEX
  8
Default
 10
518.336941777391
 20
-445.399803144494
 42
0.6020382746623
  0
VERTEX
  8
Default
 10
518.336941775829
 20
-441.864770005813
 42
-0.1503352481617
  0
VERTEX
  8
Default
 10
456.340380792448
 20
-379.868209022428
 42
0.6020382746624
  0
SEQEND
  0
POLYLINE
  8
Default
 66
     1
 10
0.0
 20
0.0
 30
0.0
 70
     1
  0
VERTEX
  8
Default
 10
708.607643258985
 20
-591.694598456161
 42
-0.3428685188402
  0
VERTEX
  8
Default
 10
603.104900014368
 20
-697.197341700774
 42
-0.4893490851415
  0
VERTEX
  8
Default
 10
600.87153160574
 20
-694.963973292146
 42
-0.3428685188402
  0
VERTEX
  8
Default
 10
706.374274850357
 20
-589.461230047533
 42
-0.4893490851415
  0
SEQEND
  0
POLYLINE
  8
Default
 66
     1
 10
0.0
 20
0.0
 30
0.0
 70
     1
  0
VERTEX
  8
Default
 10
708.631025516493
 20
-325.010735771459
 42
-0.3428685188402
  0
VERTEX
  8
Default
 10
603.128282271877
 20
-430.513479016053
 42
-0.4893490851415
  0
VERTEX
  8
Default
 10
600.894913863249
 20
-428.280110607424
 42
-0.3428685188402
  0
VERTEX
  8
Default
 10
706.397657107865
 20
-322.77736736283
 42
-0.4893490851415
  0
SEQEND
  0
POLYLINE
  8
Default
 66
     1
 10
0.0
 20
0.0
 30
0.0
 70
     1
  0
VERTEX
  8
Default
 10
706.397658368495
 20
-564.046389606698
 42
-0.34286851922
  0
VERTEX
  8
Default
 10
600.894913939129
 20
-458.543645177338
 42
-0.4893490847203
  0
VERTEX
  8
Default
 10
603.128282346578
 20
-456.310276769889
 42
-0.34286851922
  0
VERTEX
  8
Default
 10
708.631026775944
 20
-561.813021199249
 42
-0.4893490847203
  0
SEQEND
  0
POLYLINE
  8
Default
 66
     1
 10
0.0
 20
0.0
 30
0.0
 70
     1
  0
VERTEX
  8
Default
 10
305.697624465352
 20
-697.70262143394
 42
-0.34286851922
  0
VERTEX
  8
Default
 10
200.194880035986
 20
-592.199877004579
 42
-0.4893490847203
  0
VERTEX
  8
Default
 10
202.428248443434
 20
-589.966508597131
 42
-0.34286851922
  0
VERTEX
  8
Default
 10
307.9309928728
 20
-695.469253026491
 42
-0.4893490847203
  0
SEQEND
  0
POLYLINE
  8
Default
 66
     1
 10
0.0
 20
0.0
 30
0.0
 70
     1
  0
VERTEX
  8
Default
 10
38.5269058370313
 20
-697.824679462392
 42
-0.34286851922
  0
VERTEX
  8
Default
 10
-66.9758385923346
 20
-592.321935033013
 42
-0.4893490847203
  0
VERTEX
  8
Default
 10
-64.7424701848859
 20
-590.088566625565
 42
-0.34286851922
  0
VERTEX
  8
Default
 10
40.7602742444801
 20
-695.591311054944
 42
-0.4893490847203
  0
SEQEND
  0
POLYLINE
  8
Default
 66
     1
 10
0.0
 20
0.0
 30
0.0
 70
     1
  0
VERTEX
  8
Default
 10
40.4418285687757
 20
-458.824167976168
 42
-0.3428659263387
  0
VERTEX
  8
Default
 10
-64.7766023360653
 20
-564.609203015405
 42
-0.4893519604395
  0
VERTEX
  8
Default
 10
-67.0159679721239
 20
-562.381831834208
 42
-0.3428659263387
  0
VERTEX
  8
Default
 10
38.202462932717
 20
-456.59679679497
 42
-0.4893519604395
  0
SEQEND
  0
POLYLINE
  8
Default
 66
     1
 10
0.0
 20
0.0
 30
0.0
 70
     1
  0
VERTEX
  8
Default
 10
174.187518119389
 20
-592.102791764304
 42
-0.3428685188402
  0
VERTEX
  8
Default
 10
68.6847748747732
 20
-697.605535008899
 42
-0.4893490851415
  0
VERTEX
  8
Default
 10
66.4514064661453
 20
-695.37216660027
 42
-0.3428685188402
  0
VERTEX
  8
Default
 10
171.954149710761
 20
-589.869423355676
 42
-0.4893490851415
  0
SEQEND
  0
POLYLINE
  8
Default
 66
     1
 10
0.0
 20
0.0
 30
0.0
 70
     1
  0
VERTEX
  8
Default
 10
172.270379330992
 20
-564.388855296788
 42
-0.34286851922
  0
VERTEX
  8
Default
 10
66.7676349016256
 20
-458.886110867409
 42
-0.4893490847203
  0
VERTEX
  8
Default
 10
69.0010033090743
 20
-456.652742459961
 42
-0.34286851922
  0
VERTEX
  8
Default
 10
174.50374773844
 20
-562.155486889339
 42
-0.4893490847203
  0
SEQEND
  0
POLYLINE
  8
Default
 66
     1
 10
0.0
 20
0.0
 30
0.0
 70
     1
  0
VERTEX
  8
Default
 10
174.185302062736
 20
-325.388343810563
 42
-0.3428659263387
  0
VERTEX
  8
Default
 10
68.9668711578947
 20
-431.173378849801
 42
-0.4893519604395
  0
VERTEX
  8
Default
 10
66.7275055218361
 20
-428.946007668604
 42
-0.3428659263387
  0
VERTEX
  8
Default
 10
171.945936426677
 20
-323.160972629366
 42
-0.4893519604395
  0
SEQEND
  0
POLYLINE
  8
Default
 66
     1
 10
0.0
 20
0.0
 30
0.0
 70
     1
  0
VERTEX
  8
Default
 10
123.793968235909
 20
-445.604526173281
 42
-0.1497301625618
  0
VERTEX
  8
Default
 10
185.551964025125
 20
-507.362521962504
 42
0.6003174625359
  0
VERTEX
  8
Default
 10
189.082250880664
 20
-507.367268247239
 42
-0.1503383009655
  0
VERTEX
  8
Default
 10
251.319999412491
 20
-445.610421997716
 42
0.6037723159667
  0
VERTEX
  8
Default
 10
251.324745694102
 20
-442.070642575893
 42
-0.1509502365585
  0
VERTEX
  8
Default
 10
189.085847622513
 20
-379.83174450429
 42
0.6037723159668
  0
VERTEX
  8
Default
 10
185.54606820069
 20
-379.836490785901
 42
-0.1503383009655
  0
VERTEX
  8
Default
 10
123.789221951174
 20
-442.074239317743
 42
0.6003174625358
  0
SEQEND
  0
POLYLINE
  8
Default
 66
     1
 10
0.0
 20
0.0
 30
0.0
 70
     1
  0
VERTEX
  8
Default
 10
52.1017196942571
 20
-513.523176380507
 42
-0.1503352477099
  0
VERTEX
  8
Default
 10
-9.894840509005
 20
-575.519736583783
 42
0.6020382746623
  0
VERTEX
  8
Default
 10
-9.8948405074427
 20
-579.054769722464
 42
-0.1503352481617
  0
VERTEX
  8
Default
 10
52.1017204759382
 20
-641.051330705849
 42
0.6020382746624
  0
VERTEX
  8
Default
 10
55.6367536146192
 20
-641.051330707411
 42
-0.1503352477099
  0
VERTEX
  8
Default
 10
117.633313817882
 20
-579.054770504134
 42
0.6020382746623
  0
VERTEX
  8
Default
 10
117.63331381632
 20
-575.519737365453
 42
-0.1503352481617
  0
VERTEX
  8
Default
 10
55.6367528329381
 20
-513.523176382068
 42
0.6020382746624
  0
SEQEND
  0
POLYLINE
  8
Default
 66
     1
 10
0.0
 20
0.0
 30
0.0
 70
     1
  0
VERTEX
  8
Default
 10
-92.7726363461586
 20
-592.321934958321
 42
-0.3428685188402
  0
VERTEX
  8
Default
 10
-198.275379590774
 20
-697.824678202916
 42
-0.4893490851415
  0
VERTEX
  8
Default
 10
-200.508747999402
 20
-695.591309794287
 42
-0.3428685188402
  0
VERTEX
  8
Default
 10
-95.0060047547865
 20
-590.088566549693
 42
-0.4893490851415
  0
SEQEND
  0
POLYLINE
  8
Default
 66
     1
 10
0.0
 20
0.0
 30
0.0
 70
     1
  0
VERTEX
  8
Default
 10
-94.6897751345559
 20
-564.607998490805
 42
-0.34286851922
  0
VERTEX
  8
Default
 10
-200.192519563922
 20
-459.105254061426
 42
-0.4893490847203
  0
VERTEX
  8
Default
 10
-197.959151156473
 20
-456.871885653978
 42
-0.34286851922
  0
VERTEX
  8
Default
 10
-92.4564067271072
 20
-562.374630083357
 42
-0.4893490847203
  0
SEQEND
  0
POLYLINE
  8
Default
 66
     1
 10
0.0
 20
0.0
 30
0.0
 70
     1
  0
VERTEX
  8
Default
 10
-143.166186229639
 20
-445.823669367298
 42
-0.1497301625618
  0
VERTEX
  8
Default
 10
-81.4081904404227
 20
-507.581665156522
 42
0.6003174625359
  0
VERTEX
  8
Default
 10
-77.8779035848838
 20
-507.586411441256
 42
-0.1503383009655
  0
VERTEX
  8
Default
 10
-15.640155053057
 20
-445.829565191733
 42
0.6037723159667
  0
VERTEX
  8
Default
 10
-15.6354087714458
 20
-442.28978576991
 42
-0.1509502365585
  0
VERTEX
  8
Default
 10
-77.8743068430344
 20
-380.050887698307
 42
0.6037723159668
  0
VERTEX
  8
Default
 10
-81.4140862648574
 20
-380.055633979917
 42
-0.1503383009655
  0
VERTEX
  8
Default
 10
-143.170932514374
 20
-442.29338251176
 42
0.6003174625358
  0
SEQEND
  0
POLYLINE
  8
Default
 66
     1
 10
0.0
 20
0.0
 30
0.0
 70
     1
  0
VERTEX
  8
Default
 10
-93.0812372635623
 20
-325.303431732598
 42
-0.3428659263387
  0
VERTEX
  8
Default
 10
-198.299668168404
 20
-431.088466771835
 42
-0.4893519604395
  0
VERTEX
  8
Default
 10
-200.539033804463
 20
-428.861095590638
 42
-0.3428659263387
  0
VERTEX
  8
Default
 10
-95.320602899621
 20
-323.076060551401
 42
-0.4893519604395
  0
SEQEND
  0
POLYLINE
  8
Default
 66
     1
 10
0.0
 20
0.0
 30
0.0
 70
     1
  0
VERTEX
  8
Default
 10
38.7473134986535
 20
-430.868119053218
 42
-0.34286851922
  0
VERTEX
  8
Default
 10
-66.7554309307129
 20
-325.365374623839
 42
-0.4893490847203
  0
VERTEX
  8
Default
 10
-64.5220625232641
 20
-323.132006216391
 42
-0.34286851922
  0
VERTEX
  8
Default
 10
40.9806819061023
 20
-428.63475064577
 42
-0.4893490847203
  0
SEQEND
  0
POLYLINE
  8
Default
 66
     1
 10
0.0
 20
0.0
 30
0.0
 70
     1
  0
VERTEX
  8
Default
 10
575.414344544926
 20
-191.794054799872
 42
-0.3428685188402
  0
VERTEX
  8
Default
 10
469.911601300309
 20
-297.296798044485
 42
-0.4893490851415
  0
VERTEX
  8
Default
 10
467.678232891681
 20
-295.063429635857
 42
-0.3428685188402
  0
VERTEX
  8
Default
 10
573.180976136297
 20
-189.560686391244
 42
-0.4893490851415
  0
SEQEND
  0
POLYLINE
  8
Default
 66
     1
 10
0.0
 20
0.0
 30
0.0
 70
     1
  0
VERTEX
  8
Default
 10
439.671450323247
 20
-297.678755281596
 42
-0.34286851922
  0
VERTEX
  8
Default
 10
334.168705893881
 20
-192.176010852236
 42
-0.4893490847203
  0
VERTEX
  8
Default
 10
336.40207430133
 20
-189.942642444787
 42
-0.34286851922
  0
VERTEX
  8
Default
 10
441.904818730695
 20
-295.445386874148
 42
-0.4893490847203
  0
SEQEND
  0
POLYLINE
  8
Default
 66
     1
 10
0.0
 20
0.0
 30
0.0
 70
     1
  0
VERTEX
  8
Default
 10
575.437726802434
 20
74.8898078848313
 42
-0.3428685188402
  0
VERTEX
  8
Default
 10
469.934983557818
 20
-30.6129353597635
 42
-0.4893490851415
  0
VERTEX
  8
Default
 10
467.70161514919
 20
-28.3795669511351
 42
-0.3428685188402
  0
VERTEX
  8
Default
 10
573.204358393806
 20
77.1231762934597
 42
-0.4893490851415
  0
SEQEND
  0
POLYLINE
  8
Default
 66
     1
 10
0.0
 20
0.0
 30
0.0
 70
     1
  0
VERTEX
  8
Default
 10
573.204359654436
 20
-164.145845950408
 42
-0.34286851922
  0
VERTEX
  8
Default
 10
467.701615225071
 20
-58.6431015210483
 42
-0.4893490847203
  0
VERTEX
  8
Default
 10
469.934983632519
 20
-56.4097331135997
 42
-0.34286851922
  0
VERTEX
  8
Default
 10
575.437728061885
 20
-161.91247754296
 42
-0.4893490847203
  0
SEQEND
  0
POLYLINE
  8
Default
 66
     1
 10
0.0
 20
0.0
 30
0.0
 70
     1
  0
VERTEX
  8
Default
 10
518.567294139762
 20
-175.276728019091
 42
-0.1503352481617
  0
VERTEX
  8
Default
 10
456.570733156383
 20
-113.280167035708
 42
0.6020382746624
  0
VERTEX
  8
Default
 10
453.035700017702
 20
-113.280167034146
 42
-0.1503352477099
  0
VERTEX
  8
Default
 10
391.039139814439
 20
-175.276727237422
 42
0.6020382746623
  0
VERTEX
  8
Default
 10
391.039139816001
 20
-178.811760376103
 42
-0.1503352481617
  0
VERTEX
  8
Default
 10
453.035700799365
 20
-240.808321359471
 42
0.6020382746623
  0
VERTEX
  8
Default
 10
456.570733938046
 20
-240.808321361033
 42
-0.1503352477099
  0
VERTEX
  8
Default
 10
518.567294141324
 20
-178.811761157773
 42
0.6020382746624
  0
SEQEND
  0
POLYLINE
  8
Default
 66
     1
 10
0.0
 20
0.0
 30
0.0
 70
     1
  0
VERTEX
  8
Default
 10
573.520588014037
 20
102.603744352348
 42
-0.34286851922
  0
VERTEX
  8
Default
 10
468.017843584671
 20
208.106488781727
 42
-0.4893490847203
  0
VERTEX
  8
Default
 10
470.251211992119
 20
210.339857189175
 42
-0.34286851922
  0
VERTEX
  8
Default
 10
575.753956421485
 20
104.837112759796
 42
-0.4893490847203
  0
SEQEND
  0
POLYLINE
  8
Default
 66
     1
 10
0.0
 20
0.0
 30
0.0
 70
     1
  0
VERTEX
  8
Default
 10
575.435510745781
 20
341.604255838573
 42
-0.3428659263387
  0
VERTEX
  8
Default
 10
470.21707984094
 20
235.819220799335
 42
-0.4893519604395
  0
VERTEX
  8
Default
 10
467.977714204881
 20
238.046591980532
 42
-0.3428659263387
  0
VERTEX
  8
Default
 10
573.196145109722
 20
343.83162701977
 42
-0.4893519604395
  0
SEQEND
  0
POLYLINE
  8
Default
 66
     1
 10
0.0
 20
0.0
 30
0.0
 70
     1
  0
VERTEX
  8
Default
 10
442.221045830847
 20
208.106488856419
 42
-0.3428685188402
  0
VERTEX
  8
Default
 10
336.718302586232
 20
102.603745611824
 42
-0.4893490851415
  0
VERTEX
  8
Default
 10
334.484934177604
 20
104.837114020452
 42
-0.3428685188402
  0
VERTEX
  8
Default
 10
439.987677422219
 20
210.339857265047
 42
-0.4893490851415
  0
SEQEND
  0
POLYLINE
  8
Default
 66
     1
 10
0.0
 20
0.0
 30
0.0
 70
     1
  0
VERTEX
  8
Default
 10
453.351928377302
 20
153.469423268629
 42
-0.1503352477099
  0
VERTEX
  8
Default
 10
391.35536817404
 20
91.4728630653532
 42
0.6020382746623
  0
VERTEX
  8
Default
 10
391.355368175602
 20
87.9378299266722
 42
-0.1503352481617
  0
VERTEX
  8
Default
 10
453.351929158983
 20
25.9412689432873
 42
0.6020382746624
  0
VERTEX
  8
Default
 10
456.886962297664
 20
25.9412689417255
 42
-0.1503352477099
  0
VERTEX
  8
Default
 10
518.883522500926
 20
87.9378291450011
 42
0.6020382746623
  0
VERTEX
  8
Default
 10
518.883522499364
 20
91.472862283682
 42
-0.1503352481617
  0
VERTEX
  8
Default
 10
456.886961515983
 20
153.469423267067
 42
0.6020382746624
  0
SEQEND
  0
POLYLINE
  8
Default
 66
     1
 10
0.0
 20
0.0
 30
0.0
 70
     1
  0
VERTEX
  8
Default
 10
440.011060940358
 20
235.754697705882
 42
-0.34286851922
  0
VERTEX
  8
Default
 10
334.508316510992
 20
341.257442135241
 42
-0.4893490847203
  0
VERTEX
  8
Default
 10
336.74168491844
 20
343.49081054269
 42
-0.34286851922
  0
VERTEX
  8
Default
 10
442.244429347806
 20
237.98806611333
 42
-0.4893490847203
  0
SEQEND
  0
POLYLINE
  8
Default
 66
     1
 10
0.0
 20
0.0
 30
0.0
 70
     1
  0
VERTEX
  8
Default
 10
586.568609348889
 20
20.2527422970427
 42
-0.1503352477099
  0
VERTEX
  8
Default
 10
524.572049145609
 20
-41.7438179062349
 42
0.6020382746623
  0
VERTEX
  8
Default
 10
524.572049147171
 20
-45.2788510449159
 42
-0.1503352481617
  0
VERTEX
  8
Default
 10
586.568610130551
 20
-107.275412028301
 42
0.6020382746624
  0
VERTEX
  8
Default
 10
590.103643269233
 20
-107.275412029863
 42
-0.1503352477099
  0
VERTEX
  8
Default
 10
652.100203472512
 20
-45.2788518265859
 42
0.6020382746623
  0
VERTEX
  8
Default
 10
652.10020347095
 20
-41.7438186879048
 42
-0.1503352481617
  0
VERTEX
  8
Default
 10
590.10364248757
 20
20.2527422954807
 42
0.6020382746624
  0
SEQEND
  0
POLYLINE
  8
Default
 66
     1
 10
0.0
 20
0.0
 30
0.0
 70
     1
  0
VERTEX
  8
Default
 10
652.07682121344
 20
-308.427681372607
 42
-0.1503352481617
  0
VERTEX
  8
Default
 10
590.08026023006
 20
-246.431120389223
 42
0.6020382746624
  0
VERTEX
  8
Default
 10
586.545227091378
 20
-246.431120387661
 42
-0.1503352477099
  0
VERTEX
  8
Default
 10
524.548666888114
 20
-308.427680590938
 42
0.6020382746623
  0
VERTEX
  8
Default
 10
524.548666889675
 20
-311.962713729619
 42
-0.1503352481617
  0
VERTEX
  8
Default
 10
586.545227873043
 20
-373.959274713003
 42
0.6020382746624
  0
VERTEX
  8
Default
 10
590.080261011724
 20
-373.959274714565
 42
-0.1503352477099
  0
VERTEX
  8
Default
 10
652.076821215001
 20
-311.962714511288
 42
0.6020382746623
  0
SEQEND
  0
POLYLINE
  8
Default
 66
     1
 10
0.0
 20
0.0
 30
0.0
 70
     1
  0
VERTEX
  8
Default
 10
709.157818038886
 20
-58.3582306342674
 42
-0.3428685188402
  0
VERTEX
  8
Default
 10
603.65507479427
 20
-163.86097387888
 42
-0.4893490851415
  0
VERTEX
  8
Default
 10
601.421706385641
 20
-161.627605470252
 42
-0.3428685188402
  0
VERTEX
  8
Default
 10
706.924449630258
 20
-56.1248622256392
 42
-0.4893490851415
  0
SEQEND
  0
POLYLINE
  8
Default
 66
     1
 10
0.0
 20
0.0
 30
0.0
 70
     1
  0
VERTEX
  8
Default
 10
706.924450890886
 20
-297.393884469522
 42
-0.34286851922
  0
VERTEX
  8
Default
 10
601.42170646152
 20
-191.891140040146
 42
-0.4893490847203
  0
VERTEX
  8
Default
 10
603.655074868969
 20
-189.657771632698
 42
-0.34286851922
  0
VERTEX
  8
Default
 10
709.157819298335
 20
-295.160516062073
 42
-0.4893490847203
  0
SEQEND
  0
POLYLINE
  8
Default
 66
     1
 10
0.0
 20
0.0
 30
0.0
 70
     1
  0
VERTEX
  8
Default
 10
709.181200296394
 20
208.325632050436
 42
-0.3428685188402
  0
VERTEX
  8
Default
 10
603.678457051778
 20
102.822888805841
 42
-0.4893490851415
  0
VERTEX
  8
Default
 10
601.44508864315
 20
105.056257214469
 42
-0.3428685188402
  0
VERTEX
  8
Default
 10
706.947831887766
 20
210.559000459064
 42
-0.4893490851415
  0
SEQEND
  0
POLYLINE
  8
Default
 66
     1
 10
0.0
 20
0.0
 30
0.0
 70
     1
  0
VERTEX
  8
Default
 10
706.947833148396
 20
-30.710021784804
 42
-0.34286851922
  0
VERTEX
  8
Default
 10
601.445088719031
 20
74.792722644556
 42
-0.4893490847203
  0
VERTEX
  8
Default
 10
603.678457126479
 20
77.0260910520046
 42
-0.34286851922
  0
VERTEX
  8
Default
 10
709.181201555845
 20
-28.4766533773553
 42
-0.4893490847203
  0
SEQEND
  0
POLYLINE
  8
Default
 66
     1
 10
0.0
 20
0.0
 30
0.0
 70
     1
  0
VERTEX
  8
Default
 10
707.264061507997
 20
236.039568517952
 42
-0.34286851922
  0
VERTEX
  8
Default
 10
601.761317078631
 20
341.542312947331
 42
-0.4893490847203
  0
VERTEX
  8
Default
 10
603.99468548608
 20
343.77568135478
 42
-0.34286851922
  0
VERTEX
  8
Default
 10
709.497429915446
 20
238.2729369254
 42
-0.4893490847203
  0
SEQEND
  0
POLYLINE
  8
Default
 66
     1
 10
0.0
 20
0.0
 30
0.0
 70
     1
  0
VERTEX
  8
Default
 10
587.095401871262
 20
286.905247434233
 42
-0.1503352477099
  0
VERTEX
  8
Default
 10
525.098841668
 20
224.908687230957
 42
0.6020382746623
  0
VERTEX
  8
Default
 10
525.098841669562
 20
221.373654092277
 42
-0.1503352481617
  0
VERTEX
  8
Default
 10
587.095402652943
 20
159.377093108892
 42
0.6020382746624
  0
VERTEX
  8
Default
 10
590.630435791625
 20
159.37709310733
 42
-0.1503352477099
  0
VERTEX
  8
Default
 10
652.626995994886
 20
221.373653310605
 42
0.6020382746623
  0
VERTEX
  8
Default
 10
652.626995993324
 20
224.908686449286
 42
-0.1503352481617
  0
VERTEX
  8
Default
 10
590.630435009944
 20
286.905247432671
 42
0.6020382746624
  0
SEQEND
  0
POLYLINE
  8
Default
 66
     1
 10
0.0
 20
0.0
 30
0.0
 70
     1
  0
VERTEX
  8
Default
 10
439.987678682847
 20
-30.92916497884
 42
-0.34286851922
  0
VERTEX
  8
Default
 10
334.484934253481
 20
74.57357945052
 42
-0.4893490847203
  0
VERTEX
  8
Default
 10
336.71830266093
 20
76.8069478579686
 42
-0.34286851922
  0
VERTEX
  8
Default
 10
442.221047090296
 20
-28.6957965713914
 42
-0.4893490847203
  0
SEQEND
  0
POLYLINE
  8
Default
 66
     1
 10
0.0
 20
0.0
 30
0.0
 70
     1
  0
VERTEX
  8
Default
 10
442.197663573337
 20
-58.5773738283035
 42
-0.3428685188402
  0
VERTEX
  8
Default
 10
336.69492032872
 20
-164.080117072917
 42
-0.4893490851415
  0
VERTEX
  8
Default
 10
334.461551920092
 20
-161.846748664289
 42
-0.3428685188402
  0
VERTEX
  8
Default
 10
439.964295164709
 20
-56.3440054196753
 42
-0.4893490851415
  0
SEQEND
  0
POLYLINE
  8
Default
 66
     1
 10
0.0
 20
0.0
 30
0.0
 70
     1
  0
VERTEX
  8
Default
 10
52.1251019517849
 20
-246.839313695803
 42
-0.1503352477099
  0
VERTEX
  8
Default
 10
-9.8714582514949
 20
-308.835873899081
 42
0.6020382746623
  0
VERTEX
  8
Default
 10
-9.8714582499329
 20
-312.370907037762
 42
-0.1503352481617
  0
VERTEX
  8
Default
 10
52.1251027334474
 20
-374.367468021147
 42
0.6020382746624
  0
VERTEX
  8
Default
 10
55.6601358721286
 20
-374.367468022709
 42
-0.1503352477099
  0
VERTEX
  8
Default
 10
117.656696075408
 20
-312.370907819432
 42
0.6020382746623
  0
VERTEX
  8
Default
 10
117.656696073846
 20
-308.835874680751
 42
-0.1503352481617
  0
VERTEX
  8
Default
 10
55.6601350904662
 20
-246.839313697365
 42
0.6020382746624
  0
SEQEND
  0
POLYLINE
  8
Default
 66
     1
 10
0.0
 20
0.0
 30
0.0
 70
     1
  0
VERTEX
  8
Default
 10
174.734098842924
 20
-58.7651594748091
 42
-0.3428685188402
  0
VERTEX
  8
Default
 10
69.2313555983085
 20
-164.267902719404
 42
-0.4893490851415
  0
VERTEX
  8
Default
 10
66.9979871896805
 20
-162.034534310775
 42
-0.3428685188402
  0
VERTEX
  8
Default
 10
172.500730434296
 20
-56.5317910661807
 42
-0.4893490851415
  0
SEQEND
  0
POLYLINE
  8
Default
 66
     1
 10
0.0
 20
0.0
 30
0.0
 70
     1
  0
VERTEX
  8
Default
 10
172.500731694927
 20
-297.800813310049
 42
-0.34286851922
  0
VERTEX
  8
Default
 10
66.9979872655611
 20
-192.298068880689
 42
-0.4893490847203
  0
VERTEX
  8
Default
 10
69.2313556730094
 20
-190.064700473241
 42
-0.34286851922
  0
VERTEX
  8
Default
 10
174.734100102375
 20
-295.5674449026
 42
-0.4893490847203
  0
SEQEND
  0
POLYLINE
  8
Default
 66
     1
 10
0.0
 20
0.0
 30
0.0
 70
     1
  0
VERTEX
  8
Default
 10
172.816960054527
 20
-31.0512230072927
 42
-0.34286851922
  0
VERTEX
  8
Default
 10
67.3142156251606
 20
74.4515214220859
 42
-0.4893490847203
  0
VERTEX
  8
Default
 10
69.5475840326094
 20
76.6848898295343
 42
-0.34286851922
  0
VERTEX
  8
Default
 10
175.050328461976
 20
-28.8178545998443
 42
-0.4893490847203
  0
SEQEND
  0
POLYLINE
  8
Default
 66
     1
 10
0.0
 20
0.0
 30
0.0
 70
     1
  0
VERTEX
  8
Default
 10
174.731882786271
 20
207.949288478932
 42
-0.3428659263387
  0
VERTEX
  8
Default
 10
69.51345188143
 20
102.164253439694
 42
-0.4893519604395
  0
VERTEX
  8
Default
 10
67.2740862453713
 20
104.391624620891
 42
-0.3428659263387
  0
VERTEX
  8
Default
 10
172.492517150213
 20
210.176659660129
 42
-0.4893519604395
  0
SEQEND
  0
POLYLINE
  8
Default
 66
     1
 10
0.0
 20
0.0
 30
0.0
 70
     1
  0
VERTEX
  8
Default
 10
185.864981389379
 20
-113.402225062598
 42
-0.1503352477099
  0
VERTEX
  8
Default
 10
123.868421186099
 20
-175.398785265876
 42
0.6020382746623
  0
VERTEX
  8
Default
 10
123.868421187661
 20
-178.933818404557
 42
-0.1503352481617
  0
VERTEX
  8
Default
 10
185.864982171041
 20
-240.930379387942
 42
0.6020382746624
  0
VERTEX
  8
Default
 10
189.400015309723
 20
-240.930379389504
 42
-0.1503352477099
  0
VERTEX
  8
Default
 10
251.396575513003
 20
-178.933819186226
 42
0.6020382746623
  0
VERTEX
  8
Default
 10
251.39657551144
 20
-175.398786047545
 42
-0.1503352481617
  0
VERTEX
  8
Default
 10
189.40001452806
 20
-113.40222506416
 42
0.6020382746624
  0
SEQEND
  0
POLYLINE
  8
Default
 66
     1
 10
0.0
 20
0.0
 30
0.0
 70
     1
  0
VERTEX
  8
Default
 10
308.454190079376
 20
-192.013197993908
 42
-0.3428685188402
  0
VERTEX
  8
Default
 10
202.95144683476
 20
-297.515941238521
 42
-0.4893490851415
  0
VERTEX
  8
Default
 10
200.718078426132
 20
-295.282572829893
 42
-0.3428685188402
  0
VERTEX
  8
Default
 10
306.220821670748
 20
-189.77982958528
 42
-0.4893490851415
  0
SEQEND
  0
POLYLINE
  8
Default
 66
     1
 10
0.0
 20
0.0
 30
0.0
 70
     1
  0
VERTEX
  8
Default
 10
308.477572336885
 20
74.6706646907953
 42
-0.3428685188402
  0
VERTEX
  8
Default
 10
202.974829092269
 20
-30.8320785537996
 42
-0.4893490851415
  0
VERTEX
  8
Default
 10
200.741460683641
 20
-28.5987101451712
 42
-0.3428685188402
  0
VERTEX
  8
Default
 10
306.244203928257
 20
76.9040330994237
 42
-0.4893490851415
  0
SEQEND
  0
POLYLINE
  8
Default
 66
     1
 10
0.0
 20
0.0
 30
0.0
 70
     1
  0
VERTEX
  8
Default
 10
306.244205188887
 20
-164.364989144444
 42
-0.34286851922
  0
VERTEX
  8
Default
 10
200.741460759521
 20
-58.862244715085
 42
-0.4893490847203
  0
VERTEX
  8
Default
 10
202.97482916697
 20
-56.6288763076363
 42
-0.34286851922
  0
VERTEX
  8
Default
 10
308.477573596335
 20
-162.131620736996
 42
-0.4893490847203
  0
SEQEND
  0
POLYLINE
  8
Default
 66
     1
 10
0.0
 20
0.0
 30
0.0
 70
     1
  0
VERTEX
  8
Default
 10
306.560433548487
 20
102.384601158312
 42
-0.34286851922
  0
VERTEX
  8
Default
 10
201.057689119121
 20
207.88734558769
 42
-0.4893490847203
  0
VERTEX
  8
Default
 10
203.29105752657
 20
210.120713995139
 42
-0.34286851922
  0
VERTEX
  8
Default
 10
308.793801955936
 20
104.61796956576
 42
-0.4893490847203
  0
SEQEND
  0
POLYLINE
  8
Default
 66
     1
 10
0.0
 20
0.0
 30
0.0
 70
     1
  0
VERTEX
  8
Default
 10
308.475356280232
 20
341.385112644536
 42
-0.3428659263387
  0
VERTEX
  8
Default
 10
203.25692537539
 20
235.600077605299
 42
-0.4893519604395
  0
VERTEX
  8
Default
 10
201.017559739332
 20
237.827448786496
 42
-0.3428659263387
  0
VERTEX
  8
Default
 10
306.235990644173
 20
343.612483825733
 42
-0.4893519604395
  0
SEQEND
  0
POLYLINE
  8
Default
 66
     1
 10
0.0
 20
0.0
 30
0.0
 70
     1
  0
VERTEX
  8
Default
 10
319.608454883339
 20
20.0335991030066
 42
-0.1503352477099
  0
VERTEX
  8
Default
 10
257.61189468006
 20
-41.9629611002714
 42
0.6020382746623
  0
VERTEX
  8
Default
 10
257.611894681622
 20
-45.4979942389525
 42
-0.1503352481617
  0
VERTEX
  8
Default
 10
319.608455665002
 20
-107.494555222338
 42
0.6020382746624
  0
VERTEX
  8
Default
 10
323.143488803683
 20
-107.4945552239
 42
-0.1503352477099
  0
VERTEX
  8
Default
 10
385.140049006963
 20
-45.4979950206219
 42
0.6020382746623
  0
VERTEX
  8
Default
 10
385.140049005401
 20
-41.9629618819409
 42
-0.1503352481617
  0
VERTEX
  8
Default
 10
323.143488022021
 20
20.0335991014445
 42
0.6020382746624
  0
SEQEND
  0
POLYLINE
  8
Default
 66
     1
 10
0.0
 20
0.0
 30
0.0
 70
     1
  0
VERTEX
  8
Default
 10
258.084022453404
 20
221.168930281818
 42
-0.1497301625618
  0
VERTEX
  8
Default
 10
319.842018242621
 20
159.410934492595
 42
0.6003174625359
  0
VERTEX
  8
Default
 10
323.372305098159
 20
159.40618820786
 42
-0.1503383009655
  0
VERTEX
  8
Default
 10
385.610053629986
 20
221.163034457384
 42
0.6037723159667
  0
VERTEX
  8
Default
 10
385.614799911597
 20
224.702813879206
 42
-0.1509502365585
  0
VERTEX
  8
Default
 10
323.375901840008
 20
286.94171195081
 42
0.6037723159668
  0
VERTEX
  8
Default
 10
319.836122418185
 20
286.936965669199
 42
-0.1503383009655
  0
VERTEX
  8
Default
 10
258.079276168669
 20
224.699217137356
 42
0.6003174625358
  0
SEQEND
  0
POLYLINE
  8
Default
 66
     1
 10
0.0
 20
0.0
 30
0.0
 70
     1
  0
VERTEX
  8
Default
 10
385.11666674789
 20
-308.646824566644
 42
-0.1503352481617
  0
VERTEX
  8
Default
 10
323.12010576451
 20
-246.650263583259
 42
0.6020382746624
  0
VERTEX
  8
Default
 10
319.585072625829
 20
-246.650263581697
 42
-0.1503352477099
  0
VERTEX
  8
Default
 10
257.588512422564
 20
-308.646823784974
 42
0.6020382746623
  0
VERTEX
  8
Default
 10
257.588512424126
 20
-312.181856923655
 42
-0.1503352481617
  0
VERTEX
  8
Default
 10
319.585073407493
 20
-374.178417907039
 42
0.6020382746624
  0
VERTEX
  8
Default
 10
323.120106546175
 20
-374.178417908601
 42
-0.1503352477099
  0
VERTEX
  8
Default
 10
385.116666749452
 20
-312.181857705325
 42
0.6020382746623
  0
SEQEND
  0
POLYLINE
  8
Default
 66
     1
 10
0.0
 20
0.0
 30
0.0
 70
     1
  0
VERTEX
  8
Default
 10
186.391773911753
 20
153.250280074593
 42
-0.1503352477099
  0
VERTEX
  8
Default
 10
124.39521370849
 20
91.2537198713165
 42
0.6020382746623
  0
VERTEX
  8
Default
 10
124.395213710053
 20
87.7186867326356
 42
-0.1503352481617
  0
VERTEX
  8
Default
 10
186.391774693434
 20
25.7221257492507
 42
0.6020382746624
  0
VERTEX
  8
Default
 10
189.926807832115
 20
25.7221257476888
 42
-0.1503352477099
  0
VERTEX
  8
Default
 10
251.923368035377
 20
87.718685950965
 42
0.6020382746623
  0
VERTEX
  8
Default
 10
251.923368033815
 20
91.253719089646
 42
-0.1503352481617
  0
VERTEX
  8
Default
 10
189.926807050434
 20
153.250280073031
 42
0.6020382746624
  0
SEQEND
  0
POLYLINE
  8
Default
 66
     1
 10
0.0
 20
0.0
 30
0.0
 70
     1
  0
VERTEX
  8
Default
 10
41.4940356138291
 20
-192.232341187925
 42
-0.3428685188402
  0
VERTEX
  8
Default
 10
-64.0087076307882
 20
-297.735084432538
 42
-0.4893490851415
  0
VERTEX
  8
Default
 10
-66.2420760394161
 20
-295.50171602391
 42
-0.3428685188402
  0
VERTEX
  8
Default
 10
39.2606672052011
 20
-189.998972779296
 42
-0.4893490851415
  0
SEQEND
  0
POLYLINE
  8
Default
 66
     1
 10
0.0
 20
0.0
 30
0.0
 70
     1
  0
VERTEX
  8
Default
 10
-94.2488586078505
 20
-298.11704166965
 42
-0.34286851922
  0
VERTEX
  8
Default
 10
-199.751603037216
 20
-192.614297240289
 42
-0.4893490847203
  0
VERTEX
  8
Default
 10
-197.518234629768
 20
-190.38092883284
 42
-0.34286851922
  0
VERTEX
  8
Default
 10
-92.0154902004022
 20
-295.883673262201
 42
-0.4893490847203
  0
SEQEND
  0
POLYLINE
  8
Default
 66
     1
 10
0.0
 20
0.0
 30
0.0
 70
     1
  0
VERTEX
  8
Default
 10
41.5174178713366
 20
74.4515214967778
 42
-0.3428685188402
  0
VERTEX
  8
Default
 10
-63.9853253732792
 20
-31.0512217478164
 42
-0.4893490851415
  0
VERTEX
  8
Default
 10
-66.2186937819072
 20
-28.817853339188
 42
-0.3428685188402
  0
VERTEX
  8
Default
 10
39.2840494627087
 20
76.6848899054062
 42
-0.4893490851415
  0
SEQEND
  0
POLYLINE
  8
Default
 66
     1
 10
0.0
 20
0.0
 30
0.0
 70
     1
  0
VERTEX
  8
Default
 10
39.2840507233393
 20
-164.584132338462
 42
-0.34286851922
  0
VERTEX
  8
Default
 10
-66.2186937060264
 20
-59.0813879091018
 42
-0.4893490847203
  0
VERTEX
  8
Default
 10
-63.9853252985781
 20
-56.8480195016531
 42
-0.34286851922
  0
VERTEX
  8
Default
 10
41.5174191307876
 20
-162.350763931013
 42
-0.4893490847203
  0
SEQEND
  0
POLYLINE
  8
Default
 66
     1
 10
0.0
 20
0.0
 30
0.0
 70
     1
  0
VERTEX
  8
Default
 10
-15.3530147913355
 20
-175.715014407145
 42
-0.1503352481617
  0
VERTEX
  8
Default
 10
-77.3495757747137
 20
-113.718453423761
 42
0.6020382746624
  0
VERTEX
  8
Default
 10
-80.8846089133949
 20
-113.718453422199
 42
-0.1503352477099
  0
VERTEX
  8
Default
 10
-142.881169116658
 20
-175.715013625475
 42
0.6020382746623
  0
VERTEX
  8
Default
 10
-142.881169115096
 20
-179.250046764156
 42
-0.1503352481617
  0
VERTEX
  8
Default
 10
-80.8846081317322
 20
-241.246607747524
 42
0.6020382746623
  0
VERTEX
  8
Default
 10
-77.3495749930514
 20
-241.246607749087
 42
-0.1503352477099
  0
VERTEX
  8
Default
 10
-15.3530147897736
 20
-179.250047545826
 42
0.6020382746624
  0
SEQEND
  0
POLYLINE
  8
Default
 66
     1
 10
0.0
 20
0.0
 30
0.0
 70
     1
  0
VERTEX
  8
Default
 10
39.6002790829393
 20
102.165457964294
 42
-0.34286851922
  0
VERTEX
  8
Default
 10
-65.9024653464267
 20
207.668202393673
 42
-0.4893490847203
  0
VERTEX
  8
Default
 10
-63.6690969389779
 20
209.901570801122
 42
-0.34286851922
  0
VERTEX
  8
Default
 10
41.8336474903881
 20
104.398826371743
 42
-0.4893490847203
  0
SEQEND
  0
POLYLINE
  8
Default
 66
     1
 10
0.0
 20
0.0
 30
0.0
 70
     1
  0
VERTEX
  8
Default
 10
-91.6992631002502
 20
207.668202468365
 42
-0.3428685188402
  0
VERTEX
  8
Default
 10
-197.202006344865
 20
102.165459223771
 42
-0.4893490851415
  0
VERTEX
  8
Default
 10
-199.435374753493
 20
104.398827632399
 42
-0.3428685188402
  0
VERTEX
  8
Default
 10
-93.9326315088781
 20
209.901570876994
 42
-0.4893490851415
  0
SEQEND
  0
POLYLINE
  8
Default
 66
     1
 10
0.0
 20
0.0
 30
0.0
 70
     1
  0
VERTEX
  8
Default
 10
-80.5683805537949
 20
153.031136880576
 42
-0.1503352477099
  0
VERTEX
  8
Default
 10
-142.564940757057
 20
91.0345766772997
 42
0.6020382746623
  0
VERTEX
  8
Default
 10
-142.564940755495
 20
87.4995435386188
 42
-0.1503352481617
  0
VERTEX
  8
Default
 10
-80.568379772114
 20
25.5029825552338
 42
0.6020382746624
  0
VERTEX
  8
Default
 10
-77.033346633433
 20
25.5029825536719
 42
-0.1503352477099
  0
VERTEX
  8
Default
 10
-15.0367864301707
 20
87.4995427569482
 42
0.6020382746623
  0
VERTEX
  8
Default
 10
-15.0367864317329
 20
91.0345758956292
 42
-0.1503352481617
  0
VERTEX
  8
Default
 10
-77.0333474151139
 20
153.031136879014
 42
0.6020382746624
  0
SEQEND
  0
POLYLINE
  8
Default
 66
     1
 10
0.0
 20
0.0
 30
0.0
 70
     1
  0
VERTEX
  8
Default
 10
-93.9092479907395
 20
235.316411317829
 42
-0.34286851922
  0
VERTEX
  8
Default
 10
-199.411992420105
 20
340.819155747189
 42
-0.4893490847203
  0
VERTEX
  8
Default
 10
-197.178624012657
 20
343.052524154637
 42
-0.34286851922
  0
VERTEX
  8
Default
 10
-91.6758795832911
 20
237.549779725277
 42
-0.4893490847203
  0
SEQEND
  0
POLYLINE
  8
Default
 66
     1
 10
0.0
 20
0.0
 30
0.0
 70
     1
  0
VERTEX
  8
Default
 10
-93.9326302482498
 20
-31.3674513668935
 42
-0.34286851922
  0
VERTEX
  8
Default
 10
-199.435374677616
 20
74.1352930624665
 42
-0.4893490847203
  0
VERTEX
  8
Default
 10
-197.202006270167
 20
76.3686614699151
 42
-0.34286851922
  0
VERTEX
  8
Default
 10
-91.6992618408015
 20
-29.1340829594449
 42
-0.4893490847203
  0
SEQEND
  0
POLYLINE
  8
Default
 66
     1
 10
0.0
 20
0.0
 30
0.0
 70
     1
  0
VERTEX
  8
Default
 10
-91.7226453577607
 20
-59.015660216357
 42
-0.3428685188402
  0
VERTEX
  8
Default
 10
-197.225388602378
 20
-164.51840346097
 42
-0.4893490851415
  0
VERTEX
  8
Default
 10
-199.458757011005
 20
-162.285035052342
 42
-0.3428685188402
  0
VERTEX
  8
Default
 10
-93.9560137663887
 20
-56.7822918077288
 42
-0.4893490851415
  0
SEQEND
  0
POLYLINE
  8
Default
 66
     1
 10
0.0
 20
0.0
 30
0.0
 70
     1
  0
VERTEX
  8
Default
 10
52.6483004177917
 20
19.8144559089898
 42
-0.1503352477099
  0
VERTEX
  8
Default
 10
-9.3482597854879
 20
-42.1821042942883
 42
0.6020382746623
  0
VERTEX
  8
Default
 10
-9.3482597839259
 20
-45.7171374329694
 42
-0.1503352481617
  0
VERTEX
  8
Default
 10
52.6483011994544
 20
-107.713698416354
 42
0.6020382746624
  0
VERTEX
  8
Default
 10
56.1833343381356
 20
-107.713698417916
 42
-0.1503352477099
  0
VERTEX
  8
Default
 10
118.179894541415
 20
-45.7171382146388
 42
0.6020382746623
  0
VERTEX
  8
Default
 10
118.179894539853
 20
-42.1821050759577
 42
-0.1503352481617
  0
VERTEX
  8
Default
 10
56.1833335564729
 20
19.8144559074278
 42
0.6020382746624
  0
SEQEND
  0
POLYLINE
  8
Default
 66
     1
 10
0.0
 20
0.0
 30
0.0
 70
     1
  0
VERTEX
  8
Default
 10
-8.8761320121434
 20
220.949787087801
 42
-0.1497301625618
  0
VERTEX
  8
Default
 10
52.8818637770726
 20
159.191791298578
 42
0.6003174625359
  0
VERTEX
  8
Default
 10
56.4121506326114
 20
159.187045013843
 42
-0.1503383009655
  0
VERTEX
  8
Default
 10
118.649899164439
 20
220.943891263367
 42
0.6037723159667
  0
VERTEX
  8
Default
 10
118.65464544605
 20
224.483670685189
 42
-0.1509502365585
  0
VERTEX
  8
Default
 10
56.415747374461
 20
286.722568756793
 42
0.6037723159668
  0
VERTEX
  8
Default
 10
52.8759679526381
 20
286.717822475182
 42
-0.1503383009655
  0
VERTEX
  8
Default
 10
-8.8808782968783
 20
224.48007394334
 42
0.6003174625358
  0
SEQEND
  0
POLYLINE
  8
Default
 66
     1
 10
0.0
 20
0.0
 30
0.0
 70
     1
  0
VERTEX
  8
Default
 10
41.2088169539331
 20
341.470024722502
 42
-0.3428659263387
  0
VERTEX
  8
Default
 10
-64.0096139509083
 20
235.684989683264
 42
-0.4893519604395
  0
VERTEX
  8
Default
 10
-66.2489795869669
 20
237.912360864461
 42
-0.3428659263387
  0
VERTEX
  8
Default
 10
38.9694513178745
 20
343.697395903699
 42
-0.4893519604395
  0
SEQEND
  0
POLYLINE
  8
Default
 66
     1
 10
0.0
 20
0.0
 30
0.0
 70
     1
  0
VERTEX
  8
Default
 10
173.037367716149
 20
235.905337401882
 42
-0.34286851922
  0
VERTEX
  8
Default
 10
67.5346232867823
 20
341.40808183126
 42
-0.4893490847203
  0
VERTEX
  8
Default
 10
69.7679916942311
 20
343.641450238709
 42
-0.34286851922
  0
VERTEX
  8
Default
 10
175.270736123597
 20
238.13870580933
 42
-0.4893490847203
  0
SEQEND
  0
POLYLINE
  8
Default
 66
     1
 10
0.0
 20
0.0
 30
0.0
 70
     1
  0
VERTEX
  8
Default
 10
306.583815806017
 20
369.068463843033
 42
-0.34286851922
  0
VERTEX
  8
Default
 10
201.081071376651
 20
474.571208272412
 42
-0.4893490847203
  0
VERTEX
  8
Default
 10
203.314439784099
 20
476.80457667986
 42
-0.34286851922
  0
VERTEX
  8
Default
 10
308.817184213465
 20
371.301832250482
 42
-0.4893490847203
  0
SEQEND
  0
POLYLINE
  8
Default
 66
     1
 10
0.0
 20
0.0
 30
0.0
 70
     1
  0
VERTEX
  8
Default
 10
308.498738537761
 20
608.068975329257
 42
-0.3428659263387
  0
VERTEX
  8
Default
 10
203.28030763292
 20
502.28394029002
 42
-0.4893519604395
  0
VERTEX
  8
Default
 10
201.040941996861
 20
504.511311471217
 42
-0.3428659263387
  0
VERTEX
  8
Default
 10
306.259372901703
 20
610.296346510454
 42
-0.4893519604395
  0
SEQEND
  0
POLYLINE
  8
Default
 66
     1
 10
0.0
 20
0.0
 30
0.0
 70
     1
  0
VERTEX
  8
Default
 10
175.284273622827
 20
474.571208347104
 42
-0.3428685188402
  0
VERTEX
  8
Default
 10
69.7815303782127
 20
369.06846510251
 42
-0.4893490851415
  0
VERTEX
  8
Default
 10
67.5481619695847
 20
371.301833511138
 42
-0.3428685188402
  0
VERTEX
  8
Default
 10
173.050905214199
 20
476.804576755732
 42
-0.4893490851415
  0
SEQEND
  0
POLYLINE
  8
Default
 66
     1
 10
0.0
 20
0.0
 30
0.0
 70
     1
  0
VERTEX
  8
Default
 10
186.415156169282
 20
419.934142759315
 42
-0.1503352477099
  0
VERTEX
  8
Default
 10
124.41859596602
 20
357.937582556038
 42
0.6020382746623
  0
VERTEX
  8
Default
 10
124.418595967582
 20
354.402549417357
 42
-0.1503352481617
  0
VERTEX
  8
Default
 10
186.415156950963
 20
292.405988433972
 42
0.6020382746624
  0
VERTEX
  8
Default
 10
189.950190089644
 20
292.40598843241
 42
-0.1503352477099
  0
VERTEX
  8
Default
 10
251.946750292907
 20
354.402548635687
 42
0.6020382746623
  0
VERTEX
  8
Default
 10
251.946750291345
 20
357.937581774368
 42
-0.1503352481617
  0
VERTEX
  8
Default
 10
189.950189307963
 20
419.934142757753
 42
0.6020382746624
  0
SEQEND
  0
POLYLINE
  8
Default
 66
     1
 10
0.0
 20
0.0
 30
0.0
 70
     1
  0
VERTEX
  8
Default
 10
173.074288732338
 20
502.219417196568
 42
-0.34286851922
  0
VERTEX
  8
Default
 10
67.5715443029724
 20
607.722161625926
 42
-0.4893490847203
  0
VERTEX
  8
Default
 10
69.8049127104207
 20
609.955530033375
 42
-0.34286851922
  0
VERTEX
  8
Default
 10
175.307657139786
 20
504.452785604016
 42
-0.4893490847203
  0
SEQEND
  0
POLYLINE
  8
Default
 66
     1
 10
0.0
 20
0.0
 30
0.0
 70
     1
  0
VERTEX
  8
Default
 10
442.244428088375
 20
474.790351541121
 42
-0.3428685188402
  0
VERTEX
  8
Default
 10
336.741684843759
 20
369.287608296526
 42
-0.4893490851415
  0
VERTEX
  8
Default
 10
334.508316435131
 20
371.520976705155
 42
-0.3428685188402
  0
VERTEX
  8
Default
 10
440.011059679747
 20
477.023719949749
 42
-0.4893490851415
  0
SEQEND
  0
POLYLINE
  8
Default
 66
     1
 10
0.0
 20
0.0
 30
0.0
 70
     1
  0
VERTEX
  8
Default
 10
440.327289299977
 20
502.504288008637
 42
-0.34286851922
  0
VERTEX
  8
Default
 10
334.824544870611
 20
608.007032438016
 42
-0.4893490847203
  0
VERTEX
  8
Default
 10
337.05791327806
 20
610.240400845465
 42
-0.34286851922
  0
VERTEX
  8
Default
 10
442.560657707426
 20
504.737656416086
 42
-0.4893490847203
  0
SEQEND
  0
POLYLINE
  8
Default
 66
     1
 10
0.0
 20
0.0
 30
0.0
 70
     1
  0
VERTEX
  8
Default
 10
453.375310634829
 20
420.153285953333
 42
-0.1503352477099
  0
VERTEX
  8
Default
 10
391.37875043155
 20
358.156725750054
 42
0.6020382746623
  0
VERTEX
  8
Default
 10
391.378750433112
 20
354.621692611373
 42
-0.1503352481617
  0
VERTEX
  8
Default
 10
453.375311416492
 20
292.625131627988
 42
0.6020382746624
  0
VERTEX
  8
Default
 10
456.910344555173
 20
292.625131626426
 42
-0.1503352477099
  0
VERTEX
  8
Default
 10
518.906904758453
 20
354.621691829704
 42
0.6020382746623
  0
VERTEX
  8
Default
 10
518.906904756891
 20
358.156724968385
 42
-0.1503352481617
  0
VERTEX
  8
Default
 10
456.910343773511
 20
420.15328595177
 42
0.6020382746624
  0
SEQEND
  0
POLYLINE
  8
Default
 66
     1
 10
0.0
 20
0.0
 30
0.0
 70
     1
  0
VERTEX
  8
Default
 10
320.158629663243
 20
553.369966924919
 42
-0.1503352477099
  0
VERTEX
  8
Default
 10
258.16206945998
 20
491.373406721642
 42
0.6020382746623
  0
VERTEX
  8
Default
 10
258.162069461543
 20
487.838373582961
 42
-0.1503352481617
  0
VERTEX
  8
Default
 10
320.158630444924
 20
425.841812599576
 42
0.6020382746624
  0
VERTEX
  8
Default
 10
323.693663583605
 20
425.841812598015
 42
-0.1503352477099
  0
VERTEX
  8
Default
 10
385.690223786867
 20
487.838372801291
 42
0.6020382746623
  0
VERTEX
  8
Default
 10
385.690223785305
 20
491.373405939972
 42
-0.1503352481617
  0
VERTEX
  8
Default
 10
323.693662801924
 20
553.369966923357
 42
0.6020382746624
  0
SEQEND
  0
POLYLINE
  8
Default
 66
     1
 10
0.0
 20
0.0
 30
0.0
 70
     1
  0
VERTEX
  8
Default
 10
575.984307525969
 20
608.227440174326
 42
-0.3428685188402
  0
VERTEX
  8
Default
 10
470.481564281353
 20
502.724696929731
 42
-0.4893490851415
  0
VERTEX
  8
Default
 10
468.248195872725
 20
504.95806533836
 42
-0.3428685188402
  0
VERTEX
  8
Default
 10
573.750939117341
 20
610.460808582954
 42
-0.4893490851415
  0
SEQEND
  0
POLYLINE
  8
Default
 66
     1
 10
0.0
 20
0.0
 30
0.0
 70
     1
  0
VERTEX
  8
Default
 10
573.750940377971
 20
369.191786339087
 42
-0.34286851922
  0
VERTEX
  8
Default
 10
468.248195948605
 20
474.694530768447
 42
-0.4893490847203
  0
VERTEX
  8
Default
 10
470.481564356054
 20
476.927899175895
 42
-0.34286851922
  0
VERTEX
  8
Default
 10
575.98430878542
 20
371.425154746535
 42
-0.4893490847203
  0
SEQEND
  0
POLYLINE
  8
Default
 66
     1
 10
0.0
 20
0.0
 30
0.0
 70
     1
  0
VERTEX
  8
Default
 10
587.115190072424
 20
553.590374586538
 42
-0.1503352477099
  0
VERTEX
  8
Default
 10
525.118629869144
 20
491.59381438326
 42
0.6020382746623
  0
VERTEX
  8
Default
 10
525.118629870706
 20
488.058781244579
 42
-0.1503352481617
  0
VERTEX
  8
Default
 10
587.115190854086
 20
426.062220261194
 42
0.6020382746624
  0
VERTEX
  8
Default
 10
590.650223992768
 20
426.062220259632
 42
-0.1503352477099
  0
VERTEX
  8
Default
 10
652.646784196048
 20
488.05878046291
 42
0.6020382746623
  0
VERTEX
  8
Default
 10
652.646784194486
 20
491.593813601591
 42
-0.1503352481617
  0
VERTEX
  8
Default
 10
590.650223211106
 20
553.590374584976
 42
0.6020382746624
  0
SEQEND
  0
POLYLINE
  8
Default
 66
     1
 10
0.0
 20
0.0
 30
0.0
 70
     1
  0
VERTEX
  8
Default
 10
709.704398762422
 20
474.979401655228
 42
-0.3428685188402
  0
VERTEX
  8
Default
 10
604.201655517804
 20
369.476658410615
 42
-0.4893490851415
  0
VERTEX
  8
Default
 10
601.968287109176
 20
371.710026819243
 42
-0.3428685188402
  0
VERTEX
  8
Default
 10
707.471030353793
 20
477.212770063856
 42
-0.4893490851415
  0
SEQEND
  0
POLYLINE
  8
Default
 66
     1
 10
0.0
 20
0.0
 30
0.0
 70
     1
  0
VERTEX
  8
Default
 10
707.494413871931
 20
502.62761050469
 42
-0.34286851922
  0
VERTEX
  8
Default
 10
601.991669442566
 20
608.130354934052
 42
-0.4893490847203
  0
VERTEX
  8
Default
 10
604.225037850014
 20
610.3637233415
 42
-0.34286851922
  0
VERTEX
  8
Default
 10
709.72778227938
 20
504.860978912139
 42
-0.4893490847203
  0
SEQEND
  0
POLYLINE
  8
Default
 66
     1
 10
0.0
 20
0.0
 30
0.0
 70
     1
  0
VERTEX
  8
Default
 10
-92.2048894217482
 20
474.414007969618
 42
-0.3428659263387
  0
VERTEX
  8
Default
 10
-197.423320326589
 20
368.628972930379
 42
-0.4893519604395
  0
VERTEX
  8
Default
 10
-199.662685962648
 20
370.856344111576
 42
-0.3428659263387
  0
VERTEX
  8
Default
 10
-94.4442550578069
 20
476.641379150815
 42
-0.4893519604395
  0
SEQEND
  0
POLYLINE
  8
Default
 66
     1
 10
0.0
 20
0.0
 30
0.0
 70
     1
  0
VERTEX
  8
Default
 10
39.6236613404674
 20
368.849320648997
 42
-0.34286851922
  0
VERTEX
  8
Default
 10
-65.8790830888984
 20
474.352065078376
 42
-0.4893490847203
  0
VERTEX
  8
Default
 10
-63.6457146814496
 20
476.585433485825
 42
-0.34286851922
  0
VERTEX
  8
Default
 10
41.8570297479162
 20
371.082689056445
 42
-0.4893490847203
  0
SEQEND
  0
POLYLINE
  8
Default
 66
     1
 10
0.0
 20
0.0
 30
0.0
 70
     1
  0
VERTEX
  8
Default
 10
41.5385840722124
 20
607.849832135221
 42
-0.3428659263387
  0
VERTEX
  8
Default
 10
-63.6798468326292
 20
502.064797095984
 42
-0.4893519604395
  0
VERTEX
  8
Default
 10
-65.9192124686879
 20
504.292168277181
 42
-0.3428659263387
  0
VERTEX
  8
Default
 10
39.2992184361538
 20
610.077203316418
 42
-0.4893519604395
  0
SEQEND
  0
POLYLINE
  8
Default
 66
     1
 10
0.0
 20
0.0
 30
0.0
 70
     1
  0
VERTEX
  8
Default
 10
-8.8527497546152
 20
487.633649772504
 42
-0.1497301625618
  0
VERTEX
  8
Default
 10
52.9052460346006
 20
425.875653983281
 42
0.6003174625359
  0
VERTEX
  8
Default
 10
56.4355328901395
 20
425.870907698546
 42
-0.1503383009655
  0
VERTEX
  8
Default
 10
118.673281421967
 20
487.627753948069
 42
0.6037723159667
  0
VERTEX
  8
Default
 10
118.678027703578
 20
491.167533369892
 42
-0.1509502365585
  0
VERTEX
  8
Default
 10
56.4391296319891
 20
553.406431441495
 42
0.6037723159668
  0
VERTEX
  8
Default
 10
52.8993502101662
 20
553.401685159884
 42
-0.1503383009655
  0
VERTEX
  8
Default
 10
-8.8574960393501
 20
491.163936628043
 42
0.6003174625358
  0
SEQEND
  0
POLYLINE
  8
Default
 66
     1
 10
0.0
 20
0.0
 30
0.0
 70
     1
  0
VERTEX
  8
Default
 10
-80.5449982962671
 20
419.714999565278
 42
-0.1503352477099
  0
VERTEX
  8
Default
 10
-142.541558499529
 20
357.718439362002
 42
0.6020382746623
  0
VERTEX
  8
Default
 10
-142.541558497967
 20
354.183406223321
 42
-0.1503352481617
  0
VERTEX
  8
Default
 10
-80.5449975145859
 20
292.186845239936
 42
0.6020382746624
  0
VERTEX
  8
Default
 10
-77.0099643759049
 20
292.186845238374
 42
-0.1503352477099
  0
VERTEX
  8
Default
 10
-15.0134041726426
 20
354.18340544165
 42
0.6020382746623
  0
VERTEX
  8
Default
 10
-15.0134041742049
 20
357.718438580331
 42
-0.1503352481617
  0
VERTEX
  8
Default
 10
-77.0099651575861
 20
419.714999563716
 42
0.6020382746624
  0
SEQEND
  0
POLYLINE
  8
Default
 66
     1
 10
0.0
 20
0.0
 30
0.0
 70
     1
  0
VERTEX
  8
Default
 10
-93.8994044918709
 20
502.370056892566
 42
-0.34286851922
  0
VERTEX
  8
Default
 10
-199.402148921237
 20
607.872801321946
 42
-0.4893490847203
  0
VERTEX
  8
Default
 10
-197.168780513788
 20
610.106169729395
 42
-0.34286851922
  0
VERTEX
  8
Default
 10
-91.6660360844221
 20
504.603425300015
 42
-0.4893490847203
  0
SEQEND
  0
POLYLINE
  8
Default
 66
     1
 10
0.0
 20
0.0
 30
0.0
 70
     1
  0
VERTEX
  8
Default
 10
442.767626554401
 20
741.444121145913
 42
-0.3428685188402
  0
VERTEX
  8
Default
 10
337.264883309785
 20
635.941377901299
 42
-0.4893490851415
  0
VERTEX
  8
Default
 10
335.031514901157
 20
638.174746309927
 42
-0.3428685188402
  0
VERTEX
  8
Default
 10
440.534258145773
 20
743.677489554541
 42
-0.4893490851415
  0
SEQEND
  0
POLYLINE
  8
Default
 66
     1
 10
0.0
 20
0.0
 30
0.0
 70
     1
  0
VERTEX
  8
Default
 10
307.024732332722
 20
635.559420664189
 42
-0.34286851922
  0
VERTEX
  8
Default
 10
201.521987903357
 20
741.062165093549
 42
-0.4893490847203
  0
VERTEX
  8
Default
 10
203.755356310805
 20
743.295533500998
 42
-0.34286851922
  0
VERTEX
  8
Default
 10
309.25810074017
 20
637.792789071637
 42
-0.4893490847203
  0
SEQEND
  0
POLYLINE
  8
Default
 66
     1
 10
0.0
 20
0.0
 30
0.0
 70
     1
  0
VERTEX
  8
Default
 10
442.79100881191
 20
1008.12798383062
 42
-0.3428685188402
  0
VERTEX
  8
Default
 10
337.288265567294
 20
902.625240586021
 42
-0.4893490851415
  0
VERTEX
  8
Default
 10
335.054897158666
 20
904.858608994649
 42
-0.3428685188402
  0
VERTEX
  8
Default
 10
440.557640403282
 20
1010.36135223924
 42
-0.4893490851415
  0
SEQEND
  0
POLYLINE
  8
Default
 66
     1
 10
0.0
 20
0.0
 30
0.0
 70
     1
  0
VERTEX
  8
Default
 10
440.557641663912
 20
769.092329995377
 42
-0.34286851922
  0
VERTEX
  8
Default
 10
335.054897234547
 20
874.595074424736
 42
-0.4893490847203
  0
VERTEX
  8
Default
 10
337.288265641995
 20
876.828442832185
 42
-0.34286851922
  0
VERTEX
  8
Default
 10
442.791010071361
 20
771.325698402825
 42
-0.4893490847203
  0
SEQEND
  0
POLYLINE
  8
Default
 66
     1
 10
0.0
 20
0.0
 30
0.0
 70
     1
  0
VERTEX
  8
Default
 10
385.920576149238
 20
757.961447926693
 42
-0.1503352481617
  0
VERTEX
  8
Default
 10
323.924015165859
 20
819.958008910077
 42
0.6020382746624
  0
VERTEX
  8
Default
 10
320.388982027178
 20
819.958008911639
 42
-0.1503352477099
  0
VERTEX
  8
Default
 10
258.392421823915
 20
757.961448708363
 42
0.6020382746623
  0
VERTEX
  8
Default
 10
258.392421825477
 20
754.426415569682
 42
-0.1503352481617
  0
VERTEX
  8
Default
 10
320.38898280884
 20
692.429854586313
 42
0.6020382746623
  0
VERTEX
  8
Default
 10
323.924015947521
 20
692.429854584751
 42
-0.1503352477099
  0
VERTEX
  8
Default
 10
385.920576150799
 20
754.426414788012
 42
0.6020382746624
  0
SEQEND
  0
POLYLINE
  8
Default
 66
     1
 10
0.0
 20
0.0
 30
0.0
 70
     1
  0
VERTEX
  8
Default
 10
440.873870023512
 20
1035.84192029813
 42
-0.34286851922
  0
VERTEX
  8
Default
 10
335.371125594146
 20
1141.34466472751
 42
-0.4893490847203
  0
VERTEX
  8
Default
 10
337.604494001595
 20
1143.57803313496
 42
-0.34286851922
  0
VERTEX
  8
Default
 10
443.107238430961
 20
1038.07528870558
 42
-0.4893490847203
  0
SEQEND
  0
POLYLINE
  8
Default
 66
     1
 10
0.0
 20
0.0
 30
0.0
 70
     1
  0
VERTEX
  8
Default
 10
309.574327840323
 20
1141.3446648022
 42
-0.3428685188402
  0
VERTEX
  8
Default
 10
204.071584595708
 20
1035.84192155761
 42
-0.4893490851415
  0
VERTEX
  8
Default
 10
201.83821618708
 20
1038.07528996624
 42
-0.3428685188402
  0
VERTEX
  8
Default
 10
307.340959431695
 20
1143.57803321083
 42
-0.4893490851415
  0
SEQEND
  0
POLYLINE
  8
Default
 66
     1
 10
0.0
 20
0.0
 30
0.0
 70
     1
  0
VERTEX
  8
Default
 10
320.705210386778
 20
1086.70759921441
 42
-0.1503352477099
  0
VERTEX
  8
Default
 10
258.708650183516
 20
1024.71103901114
 42
0.6020382746623
  0
VERTEX
  8
Default
 10
258.708650185078
 20
1021.17600587246
 42
-0.1503352481617
  0
VERTEX
  8
Default
 10
320.705211168459
 20
959.179444889072
 42
0.6020382746624
  0
VERTEX
  8
Default
 10
324.24024430714
 20
959.17944488751
 42
-0.1503352477099
  0
VERTEX
  8
Default
 10
386.236804510402
 20
1021.17600509079
 42
0.6020382746623
  0
VERTEX
  8
Default
 10
386.23680450884
 20
1024.71103822947
 42
-0.1503352481617
  0
VERTEX
  8
Default
 10
324.240243525459
 20
1086.70759921285
 42
0.6020382746624
  0
SEQEND
  0
POLYLINE
  8
Default
 66
     1
 10
0.0
 20
0.0
 30
0.0
 70
     1
  0
VERTEX
  8
Default
 10
453.921891358365
 20
953.490918242828
 42
-0.1503352477099
  0
VERTEX
  8
Default
 10
391.925331155085
 20
891.494358039549
 42
0.6020382746623
  0
VERTEX
  8
Default
 10
391.925331156647
 20
887.959324900868
 42
-0.1503352481617
  0
VERTEX
  8
Default
 10
453.921892140027
 20
825.962763917483
 42
0.6020382746624
  0
VERTEX
  8
Default
 10
457.456925278708
 20
825.962763915921
 42
-0.1503352477099
  0
VERTEX
  8
Default
 10
519.453485481988
 20
887.959324119199
 42
0.6020382746623
  0
VERTEX
  8
Default
 10
519.453485480426
 20
891.49435725788
 42
-0.1503352481617
  0
VERTEX
  8
Default
 10
457.456924497046
 20
953.490918241266
 42
0.6020382746624
  0
SEQEND
  0
POLYLINE
  8
Default
 66
     1
 10
0.0
 20
0.0
 30
0.0
 70
     1
  0
VERTEX
  8
Default
 10
519.430103222916
 20
624.810494573177
 42
-0.1503352481617
  0
VERTEX
  8
Default
 10
457.433542239535
 20
686.807055556562
 42
0.6020382746624
  0
VERTEX
  8
Default
 10
453.898509100854
 20
686.807055558124
 42
-0.1503352477099
  0
VERTEX
  8
Default
 10
391.901948897589
 20
624.810495354847
 42
0.6020382746623
  0
VERTEX
  8
Default
 10
391.901948899151
 20
621.275462216166
 42
-0.1503352481617
  0
VERTEX
  8
Default
 10
453.898509882519
 20
559.278901232782
 42
0.6020382746624
  0
VERTEX
  8
Default
 10
457.4335430212
 20
559.27890123122
 42
-0.1503352477099
  0
VERTEX
  8
Default
 10
519.430103224478
 20
621.275461434496
 42
0.6020382746623
  0
SEQEND
  0
POLYLINE
  8
Default
 66
     1
 10
0.0
 20
0.0
 30
0.0
 70
     1
  0
VERTEX
  8
Default
 10
576.511100048362
 20
874.879945311517
 42
-0.3428685188402
  0
VERTEX
  8
Default
 10
471.008356803745
 20
769.377202066904
 42
-0.4893490851415
  0
VERTEX
  8
Default
 10
468.774988395117
 20
771.610570475532
 42
-0.3428685188402
  0
VERTEX
  8
Default
 10
574.277731639734
 20
877.113313720145
 42
-0.4893490851415
  0
SEQEND
  0
POLYLINE
  8
Default
 66
     1
 10
0.0
 20
0.0
 30
0.0
 70
     1
  0
VERTEX
  8
Default
 10
574.277732900362
 20
635.844291476262
 42
-0.34286851922
  0
VERTEX
  8
Default
 10
468.774988470996
 20
741.347035905638
 42
-0.4893490847203
  0
VERTEX
  8
Default
 10
471.008356878445
 20
743.580404313087
 42
-0.34286851922
  0
VERTEX
  8
Default
 10
576.51110130781
 20
638.077659883711
 42
-0.4893490847203
  0
SEQEND
  0
POLYLINE
  8
Default
 66
     1
 10
0.0
 20
0.0
 30
0.0
 70
     1
  0
VERTEX
  8
Default
 10
576.53448230587
 20
1141.56380799622
 42
-0.3428685188402
  0
VERTEX
  8
Default
 10
471.031739061254
 20
1036.06106475163
 42
-0.4893490851415
  0
VERTEX
  8
Default
 10
468.798370652626
 20
1038.29443316025
 42
-0.3428685188402
  0
VERTEX
  8
Default
 10
574.301113897242
 20
1143.79717640485
 42
-0.4893490851415
  0
SEQEND
  0
POLYLINE
  8
Default
 66
     1
 10
0.0
 20
0.0
 30
0.0
 70
     1
  0
VERTEX
  8
Default
 10
574.301115157873
 20
902.528154160981
 42
-0.34286851922
  0
VERTEX
  8
Default
 10
468.798370728507
 20
1008.03089859034
 42
-0.4893490847203
  0
VERTEX
  8
Default
 10
471.031739135955
 20
1010.26426699779
 42
-0.34286851922
  0
VERTEX
  8
Default
 10
576.534483565321
 20
904.76152256843
 42
-0.4893490847203
  0
SEQEND
  0
POLYLINE
  8
Default
 66
     1
 10
0.0
 20
0.0
 30
0.0
 70
     1
  0
VERTEX
  8
Default
 10
587.665364852325
 20
1086.92674240843
 42
-0.1503352477099
  0
VERTEX
  8
Default
 10
525.668804649045
 20
1024.93018220515
 42
0.6020382746623
  0
VERTEX
  8
Default
 10
525.668804650607
 20
1021.39514906647
 42
-0.1503352481617
  0
VERTEX
  8
Default
 10
587.665365633987
 20
959.398588083087
 42
0.6020382746624
  0
VERTEX
  8
Default
 10
591.200398772668
 20
959.398588081525
 42
-0.1503352477099
  0
VERTEX
  8
Default
 10
653.196958975948
 20
1021.3951482848
 42
0.6020382746623
  0
VERTEX
  8
Default
 10
653.196958974387
 20
1024.93018142349
 42
-0.1503352481617
  0
VERTEX
  8
Default
 10
591.200397991006
 20
1086.92674240687
 42
0.6020382746624
  0
SEQEND
  0
POLYLINE
  8
Default
 66
     1
 10
0.0
 20
0.0
 30
0.0
 70
     1
  0
VERTEX
  8
Default
 10
653.173576716876
 20
758.246318738782
 42
-0.1503352481617
  0
VERTEX
  8
Default
 10
591.177015733496
 20
820.242879722166
 42
0.6020382746624
  0
VERTEX
  8
Default
 10
587.641982594815
 20
820.242879723728
 42
-0.1503352477099
  0
VERTEX
  8
Default
 10
525.64542239155
 20
758.246319520451
 42
0.6020382746623
  0
VERTEX
  8
Default
 10
525.645422393112
 20
754.71128638177
 42
-0.1503352481617
  0
VERTEX
  8
Default
 10
587.641983376479
 20
692.714725398386
 42
0.6020382746624
  0
VERTEX
  8
Default
 10
591.17701651516
 20
692.714725396824
 42
-0.1503352477099
  0
VERTEX
  8
Default
 10
653.173576718438
 20
754.711285600101
 42
0.6020382746623
  0
SEQEND
  0
POLYLINE
  8
Default
 66
     1
 10
0.0
 20
0.0
 30
0.0
 70
     1
  0
VERTEX
  8
Default
 10
709.616306710101
 20
741.53230129291
 42
-0.3428659263387
  0
VERTEX
  8
Default
 10
604.397875805259
 20
635.747266253672
 42
-0.4893519604395
  0
VERTEX
  8
Default
 10
602.1585101692
 20
637.974637434869
 42
-0.3428659263387
  0
VERTEX
  8
Default
 10
707.376941074042
 20
743.759672474107
 42
-0.4893519604395
  0
SEQEND
  0
POLYLINE
  8
Default
 66
     1
 10
0.0
 20
0.0
 30
0.0
 70
     1
  0
VERTEX
  8
Default
 10
710.250979485957
 20
1008.31703394472
 42
-0.3428685188402
  0
VERTEX
  8
Default
 10
604.748236241339
 20
902.814290700109
 42
-0.4893490851415
  0
VERTEX
  8
Default
 10
602.514867832711
 20
905.047659108737
 42
-0.3428685188402
  0
VERTEX
  8
Default
 10
708.017611077328
 20
1010.55040235335
 42
-0.4893490851415
  0
SEQEND
  0
POLYLINE
  8
Default
 66
     1
 10
0.0
 20
0.0
 30
0.0
 70
     1
  0
VERTEX
  8
Default
 10
708.017612337957
 20
769.281380109468
 42
-0.34286851922
  0
VERTEX
  8
Default
 10
602.51486790859
 20
874.784124538844
 42
-0.4893490847203
  0
VERTEX
  8
Default
 10
604.748236316038
 20
877.017492946292
 42
-0.34286851922
  0
VERTEX
  8
Default
 10
710.250980745405
 20
771.514748516916
 42
-0.4893490847203
  0
SEQEND
  0
POLYLINE
  8
Default
 66
     1
 10
0.0
 20
0.0
 30
0.0
 70
     1
  0
VERTEX
  8
Default
 10
708.040994595467
 20
1035.96524279419
 42
-0.34286851922
  0
VERTEX
  8
Default
 10
602.538250166101
 20
1141.46798722355
 42
-0.4893490847203
  0
VERTEX
  8
Default
 10
604.771618573549
 20
1143.70135563099
 42
-0.34286851922
  0
VERTEX
  8
Default
 10
710.274363002915
 20
1038.19861120163
 42
-0.4893490847203
  0
SEQEND
  0
POLYLINE
  8
Default
 66
     1
 10
0.0
 20
0.0
 30
0.0
 70
     1
  0
VERTEX
  8
Default
 10
307.340960692323
 20
902.309010966945
 42
-0.34286851922
  0
VERTEX
  8
Default
 10
201.838216262957
 20
1007.8117553963
 42
-0.4893490847203
  0
VERTEX
  8
Default
 10
204.071584670406
 20
1010.04512380375
 42
-0.34286851922
  0
VERTEX
  8
Default
 10
309.574329099771
 20
904.542379374393
 42
-0.4893490847203
  0
SEQEND
  0
POLYLINE
  8
Default
 66
     1
 10
0.0
 20
0.0
 30
0.0
 70
     1
  0
VERTEX
  8
Default
 10
309.550945582812
 20
874.660802117481
 42
-0.3428685188402
  0
VERTEX
  8
Default
 10
204.048202338196
 20
769.158058872867
 42
-0.4893490851415
  0
VERTEX
  8
Default
 10
201.814833929568
 20
771.391427281495
 42
-0.3428685188402
  0
VERTEX
  8
Default
 10
307.317577174184
 20
876.894170526109
 42
-0.4893490851415
  0
SEQEND
  0
POLYLINE
  8
Default
 66
     1
 10
0.0
 20
0.0
 30
0.0
 70
     1
  0
VERTEX
  8
Default
 10
-80.5216160387395
 20
686.398862249981
 42
-0.1503352477099
  0
VERTEX
  8
Default
 10
-142.518176242019
 20
624.402302046704
 42
0.6020382746623
  0
VERTEX
  8
Default
 10
-142.518176240457
 20
620.867268908023
 42
-0.1503352481617
  0
VERTEX
  8
Default
 10
-80.521615257077
 20
558.870707924638
 42
0.6020382746624
  0
VERTEX
  8
Default
 10
-76.9865821183957
 20
558.870707923076
 42
-0.1503352477099
  0
VERTEX
  8
Default
 10
-14.9900219151159
 20
620.867268126353
 42
0.6020382746623
  0
VERTEX
  8
Default
 10
-14.990021916678
 20
624.402301265034
 42
-0.1503352481617
  0
VERTEX
  8
Default
 10
-76.9865829000582
 20
686.398862248419
 42
0.6020382746624
  0
SEQEND
  0
POLYLINE
  8
Default
 66
     1
 10
0.0
 20
0.0
 30
0.0
 70
     1
  0
VERTEX
  8
Default
 10
42.0873808524
 20
874.473016470975
 42
-0.3428685188402
  0
VERTEX
  8
Default
 10
-63.4153623922161
 20
768.970273226381
 42
-0.4893490851415
  0
VERTEX
  8
Default
 10
-65.6487308008441
 20
771.203641635009
 42
-0.3428685188402
  0
VERTEX
  8
Default
 10
39.854012443772
 20
876.706384879604
 42
-0.4893490851415
  0
SEQEND
  0
POLYLINE
  8
Default
 66
     1
 10
0.0
 20
0.0
 30
0.0
 70
     1
  0
VERTEX
  8
Default
 10
39.8540137044026
 20
635.437362635735
 42
-0.34286851922
  0
VERTEX
  8
Default
 10
-65.6487307249633
 20
740.940107065096
 42
-0.4893490847203
  0
VERTEX
  8
Default
 10
-63.415362317515
 20
743.173475472545
 42
-0.34286851922
  0
VERTEX
  8
Default
 10
42.087382111851
 20
637.670731043184
 42
-0.4893490847203
  0
SEQEND
  0
POLYLINE
  8
Default
 66
     1
 10
0.0
 20
0.0
 30
0.0
 70
     1
  0
VERTEX
  8
Default
 10
40.1702420640024
 20
902.186952938492
 42
-0.34286851922
  0
VERTEX
  8
Default
 10
-65.3325023653636
 20
1007.68969736787
 42
-0.4893490847203
  0
VERTEX
  8
Default
 10
-63.0991339579148
 20
1009.92306577532
 42
-0.34286851922
  0
VERTEX
  8
Default
 10
42.4036104714512
 20
904.420321345941
 42
-0.4893490847203
  0
SEQEND
  0
POLYLINE
  8
Default
 66
     1
 10
0.0
 20
0.0
 30
0.0
 70
     1
  0
VERTEX
  8
Default
 10
42.085164795747
 20
1141.18746442472
 42
-0.3428659263387
  0
VERTEX
  8
Default
 10
-63.1332661090939
 20
1035.40242938548
 42
-0.4893519604395
  0
VERTEX
  8
Default
 10
-65.3726317451526
 20
1037.62980056668
 42
-0.3428659263387
  0
VERTEX
  8
Default
 10
39.8457991596883
 20
1143.41483560591
 42
-0.4893519604395
  0
SEQEND
  0
POLYLINE
  8
Default
 66
     1
 10
0.0
 20
0.0
 30
0.0
 70
     1
  0
VERTEX
  8
Default
 10
53.218263398855
 20
819.835950883187
 42
-0.1503352477099
  0
VERTEX
  8
Default
 10
-8.7782968044246
 20
757.839390679909
 42
0.6020382746623
  0
VERTEX
  8
Default
 10
-8.7782968028625
 20
754.304357541228
 42
-0.1503352481617
  0
VERTEX
  8
Default
 10
53.2182641805177
 20
692.307796557843
 42
0.6020382746624
  0
VERTEX
  8
Default
 10
56.753297319199
 20
692.307796556281
 42
-0.1503352477099
  0
VERTEX
  8
Default
 10
118.749857522478
 20
754.304356759559
 42
0.6020382746623
  0
VERTEX
  8
Default
 10
118.749857520916
 20
757.83938989824
 42
-0.1503352481617
  0
VERTEX
  8
Default
 10
56.7532965375362
 20
819.835950881625
 42
0.6020382746624
  0
SEQEND
  0
POLYLINE
  8
Default
 66
     1
 10
0.0
 20
0.0
 30
0.0
 70
     1
  0
VERTEX
  8
Default
 10
175.807472088852
 20
741.224977951877
 42
-0.3428685188402
  0
VERTEX
  8
Default
 10
70.3047288442351
 20
635.722234707264
 42
-0.4893490851415
  0
VERTEX
  8
Default
 10
68.0713604356072
 20
637.955603115892
 42
-0.3428685188402
  0
VERTEX
  8
Default
 10
173.574103680224
 20
743.458346360505
 42
-0.4893490851415
  0
SEQEND
  0
POLYLINE
  8
Default
 66
     1
 10
0.0
 20
0.0
 30
0.0
 70
     1
  0
VERTEX
  8
Default
 10
175.83085434636
 20
1007.90884063658
 42
-0.3428685188402
  0
VERTEX
  8
Default
 10
70.3281111017445
 20
902.406097391985
 42
-0.4893490851415
  0
VERTEX
  8
Default
 10
68.0947426931166
 20
904.639465800614
 42
-0.3428685188402
  0
VERTEX
  8
Default
 10
173.597485937732
 20
1010.14220904521
 42
-0.4893490851415
  0
SEQEND
  0
POLYLINE
  8
Default
 66
     1
 10
0.0
 20
0.0
 30
0.0
 70
     1
  0
VERTEX
  8
Default
 10
173.597487198363
 20
768.87318680134
 42
-0.34286851922
  0
VERTEX
  8
Default
 10
68.0947427689971
 20
874.3759312307
 42
-0.4893490847203
  0
VERTEX
  8
Default
 10
70.3281111764454
 20
876.609299638149
 42
-0.34286851922
  0
VERTEX
  8
Default
 10
175.830855605811
 20
771.106555208789
 42
-0.4893490847203
  0
SEQEND
  0
POLYLINE
  8
Default
 66
     1
 10
0.0
 20
0.0
 30
0.0
 70
     1
  0
VERTEX
  8
Default
 10
173.913715557963
 20
1035.6227771041
 42
-0.34286851922
  0
VERTEX
  8
Default
 10
68.4109711285967
 20
1141.12552153348
 42
-0.4893490847203
  0
VERTEX
  8
Default
 10
70.6443395360454
 20
1143.35888994092
 42
-0.34286851922
  0
VERTEX
  8
Default
 10
176.147083965412
 20
1037.85614551154
 42
-0.4893490847203
  0
SEQEND
  0
POLYLINE
  8
Default
 66
     1
 10
0.0
 20
0.0
 30
0.0
 70
     1
  0
VERTEX
  8
Default
 10
186.961736892815
 20
953.271775048792
 42
-0.1503352477099
  0
VERTEX
  8
Default
 10
124.965176689535
 20
891.275214845514
 42
0.6020382746623
  0
VERTEX
  8
Default
 10
124.965176691097
 20
887.740181706833
 42
-0.1503352481617
  0
VERTEX
  8
Default
 10
186.961737674478
 20
825.743620723448
 42
0.6020382746624
  0
VERTEX
  8
Default
 10
190.496770813159
 20
825.743620721886
 42
-0.1503352477099
  0
VERTEX
  8
Default
 10
252.493331016439
 20
887.740180925162
 42
0.6020382746623
  0
VERTEX
  8
Default
 10
252.493331014877
 20
891.275214063843
 42
-0.1503352481617
  0
VERTEX
  8
Default
 10
190.496770031496
 20
953.271775047229
 42
0.6020382746624
  0
SEQEND
  0
POLYLINE
  8
Default
 66
     1
 10
0.0
 20
0.0
 30
0.0
 70
     1
  0
VERTEX
  8
Default
 10
252.469948757366
 20
624.59135137914
 42
-0.1503352481617
  0
VERTEX
  8
Default
 10
190.473387773986
 20
686.587912362525
 42
0.6020382746624
  0
VERTEX
  8
Default
 10
186.938354635305
 20
686.587912364087
 42
-0.1503352477099
  0
VERTEX
  8
Default
 10
124.941794432041
 20
624.591352160811
 42
0.6020382746623
  0
VERTEX
  8
Default
 10
124.941794433602
 20
621.05631902213
 42
-0.1503352481617
  0
VERTEX
  8
Default
 10
186.93835541697
 20
559.059758038746
 42
0.6020382746624
  0
VERTEX
  8
Default
 10
190.473388555651
 20
559.059758037184
 42
-0.1503352477099
  0
VERTEX
  8
Default
 10
252.469948758928
 20
621.056318240459
 42
0.6020382746623
  0
SEQEND
  0
POLYLINE
  8
Default
 66
     1
 10
0.0
 20
0.0
 30
0.0
 70
     1
  0
VERTEX
  8
Default
 10
53.7450559212282
 20
1086.48845602038
 42
-0.1503352477099
  0
VERTEX
  8
Default
 10
-8.2515042820337
 20
1024.4918958171
 42
0.6020382746623
  0
VERTEX
  8
Default
 10
-8.2515042804714
 20
1020.95686267842
 42
-0.1503352481617
  0
VERTEX
  8
Default
 10
53.7450567029096
 20
958.960301695035
 42
0.6020382746624
  0
VERTEX
  8
Default
 10
57.2800898415906
 20
958.960301693473
 42
-0.1503352477099
  0
VERTEX
  8
Default
 10
119.276650044853
 20
1020.95686189675
 42
0.6020382746623
  0
VERTEX
  8
Default
 10
119.27665004329
 20
1024.49189503543
 42
-0.1503352481617
  0
VERTEX
  8
Default
 10
57.2800890599092
 20
1086.48845601882
 42
0.6020382746624
  0
SEQEND
  0
POLYLINE
  8
Default
 66
     1
 10
0.0
 20
0.0
 30
0.0
 70
     1
  0
VERTEX
  8
Default
 10
-91.1526823766956
 20
741.00583475786
 42
-0.3428685188402
  0
VERTEX
  8
Default
 10
-196.655425621313
 20
635.503091513247
 42
-0.4893490851415
  0
VERTEX
  8
Default
 10
-198.888794029941
 20
637.736459921875
 42
-0.3428685188402
  0
VERTEX
  8
Default
 10
-93.3860507853235
 20
743.239203166488
 42
-0.4893490851415
  0
SEQEND
  0
POLYLINE
  8
Default
 66
     1
 10
0.0
 20
0.0
 30
0.0
 70
     1
  0
VERTEX
  8
Default
 10
-91.1293001191873
 20
1007.68969744256
 42
-0.3428685188402
  0
VERTEX
  8
Default
 10
-196.632043363803
 20
902.186954197968
 42
-0.4893490851415
  0
VERTEX
  8
Default
 10
-198.865411772431
 20
904.420322606597
 42
-0.3428685188402
  0
VERTEX
  8
Default
 10
-93.3626685278152
 20
1009.92306585119
 42
-0.4893490851415
  0
SEQEND
  0
POLYLINE
  8
Default
 66
     1
 10
0.0
 20
0.0
 30
0.0
 70
     1
  0
VERTEX
  8
Default
 10
-93.3626672671849
 20
768.654043607323
 42
-0.34286851922
  0
VERTEX
  8
Default
 10
-198.865411696551
 20
874.156788036684
 42
-0.4893490847203
  0
VERTEX
  8
Default
 10
-196.632043289103
 20
876.390156444132
 42
-0.34286851922
  0
VERTEX
  8
Default
 10
-91.1292988597365
 20
770.887412014771
 42
-0.4893490847203
  0
SEQEND
  0
POLYLINE
  8
Default
 66
     1
 10
0.0
 20
0.0
 30
0.0
 70
     1
  0
VERTEX
  8
Default
 10
-93.0464389075846
 20
1035.40363391008
 42
-0.34286851922
  0
VERTEX
  8
Default
 10
-198.549183336951
 20
1140.90637833946
 42
-0.4893490847203
  0
VERTEX
  8
Default
 10
-196.315814929502
 20
1143.13974674691
 42
-0.34286851922
  0
VERTEX
  8
Default
 10
-90.8130705001358
 20
1037.63700231753
 42
-0.4893490847203
  0
SEQEND
  0
POLYLINE
  8
Default
 66
     1
 10
0.0
 20
0.0
 30
0.0
 70
     1
  0
VERTEX
  8
Default
 10
-79.9984175727323
 20
953.052631854774
 42
-0.1503352477099
  0
VERTEX
  8
Default
 10
-141.994977776012
 20
891.056071651497
 42
0.6020382746623
  0
VERTEX
  8
Default
 10
-141.99497777445
 20
887.521038512816
 42
-0.1503352481617
  0
VERTEX
  8
Default
 10
-79.9984167910698
 20
825.52447752943
 42
0.6020382746624
  0
VERTEX
  8
Default
 10
-76.4633836523885
 20
825.524477527868
 42
-0.1503352477099
  0
VERTEX
  8
Default
 10
-14.4668234491089
 20
887.521037731146
 42
0.6020382746623
  0
VERTEX
  8
Default
 10
-14.466823450671
 20
891.056070869827
 42
-0.1503352481617
  0
VERTEX
  8
Default
 10
-76.463384434051
 20
953.052631853212
 42
0.6020382746624
  0
SEQEND
  0
POLYLINE
  8
Default
 66
     1
 10
0.0
 20
0.0
 30
0.0
 70
     1
  0
VERTEX
  8
Default
 10
-96.0357181038137
 20
1195.26028833368
 42
-0.0998862457907
  0
VERTEX
  8
Default
 10
-141.527596287403
 20
1157.71824988912
 42
0.6003174625358
  0
VERTEX
  8
Default
 10
-141.522850002668
 20
1154.18796303359
 42
-0.1497301625618
  0
VERTEX
  8
Default
 10
-79.7648542134516
 20
1092.42996724436
 42
0.6003174625359
  0
VERTEX
  8
Default
 10
-76.2345673579127
 20
1092.42522095963
 42
-0.1503383009655
  0
VERTEX
  8
Default
 10
-13.9968188260857
 20
1154.18206720915
 42
0.6037723159667
  0
VERTEX
  8
Default
 10
-13.9920725444745
 20
1157.72184663097
 42
-0.100395052738
  0
VERTEX
  8
Default
 10
-59.8641572746506
 20
1195.26503461212
 42
0.2251946939109
  0
VERTEX
  8
Default
 10
-61.4132517740138
 20
1196.000002505
 42
0.0
  0
VERTEX
  8
Default
 10
-94.482759756007
 20
1196.000002505
 42
0.2259986504228
  0
SEQEND
  0
POLYLINE
  8
Default
 66
     1
 10
0.0
 20
0.0
 30
0.0
 70
     1
  0
VERTEX
  8
Default
 10
170.748611736589
 20
1195.26318903605
 42
-0.099414286527
  0
VERTEX
  8
Default
 10
125.432558178145
 20
1157.93739308314
 42
0.6003174625358
  0
VERTEX
  8
Default
 10
125.43730446288
 20
1154.4071062276
 42
-0.1497301625618
  0
VERTEX
  8
Default
 10
187.195300252096
 20
1092.64911043838
 42
0.6003174625359
  0
VERTEX
  8
Default
 10
190.725587107635
 20
1092.64436415365
 42
-0.1503383009655
  0
VERTEX
  8
Default
 10
252.963335639462
 20
1154.40121040317
 42
0.6037723159667
  0
VERTEX
  8
Default
 10
252.968081921073
 20
1157.94098982499
 42
-0.0999218655606
  0
VERTEX
  8
Default
 10
207.272924599583
 20
1195.26793531446
 42
0.2247025001267
  0
VERTEX
  8
Default
 10
205.726203425391
 20
1196.000002505
 42
0.0
  0
VERTEX
  8
Default
 10
172.299211552071
 20
1196.000002505
 42
0.2255075150741
  0
SEQEND
  0
POLYLINE
  8
Default
 66
     1
 10
0.0
 20
0.0
 30
0.0
 70
     1
  0
VERTEX
  8
Default
 10
437.889919046055
 20
1195.26955094782
 42
-0.0993543653369
  0
VERTEX
  8
Default
 10
392.452123677476
 20
1158.14686317674
 42
0.6020382746623
  0
VERTEX
  8
Default
 10
392.452123679038
 20
1154.61183003806
 42
-0.1503352481617
  0
VERTEX
  8
Default
 10
454.448684662419
 20
1092.61526905468
 42
0.6020382746624
  0
VERTEX
  8
Default
 10
457.9837178011
 20
1092.61526905311
 42
-0.1503352477099
  0
VERTEX
  8
Default
 10
519.980278004362
 20
1154.61182925639
 42
0.6020382746623
  0
VERTEX
  8
Default
 10
519.9802780028
 20
1158.14686239507
 42
-0.0993543663375
  0
VERTEX
  8
Default
 10
474.542481785099
 20
1195.26955094306
 42
0.2244280758133
  0
VERTEX
  8
Default
 10
472.997086442985
 20
1196.000002505
 42
0.0
  0
VERTEX
  8
Default
 10
439.43531438426
 20
1196.000002505
 42
0.2244280750047
  0
SEQEND
  0
POLYLINE
  8
Default
 66
     1
 10
0.0
 20
0.0
 30
0.0
 70
     1
  0
VERTEX
  8
Default
 10
704.71537365338
 20
1195.27555378994
 42
-0.0983722167225
  0
VERTEX
  8
Default
 10
659.646663142161
 20
1158.60036782149
 42
0.6020382746623
  0
VERTEX
  8
Default
 10
659.646663143723
 20
1155.06533468281
 42
-0.1503352481617
  0
VERTEX
  8
Default
 10
721.643224127104
 20
1093.06877369942
 42
0.6020382746624
  0
VERTEX
  8
Default
 10
725.178257265785
 20
1093.06877369786
 42
-0.0088607551568
  0
VERTEX
  8
Default
 10
727.733242425344
 20
1097.69402217759
 42
0.13134880444
  0
VERTEX
  8
Default
 10
727.999998729653
 20
1098.69195318289
 42
0.0
  0
VERTEX
  8
Default
 10
727.999998729653
 20
1194.000002505
 42
0.4142135623731
  0
VERTEX
  8
Default
 10
725.999998729653
 20
1196.000002505
 42
0.0
  0
VERTEX
  8
Default
 10
706.255818043638
 20
1196.000002505
 42
0.2234066656659
  0
SEQEND
  0
POLYLINE
  8
Default
 66
     1
 10
0.0
 20
0.0
 30
0.0
 70
     1
  0
VERTEX
  8
Default
 10
727.725959993893
 20
681.700251998108
 42
-0.0106739096571
  0
VERTEX
  8
Default
 10
724.62808170422
 20
687.26056020131
 42
0.6020382746624
  0
VERTEX
  8
Default
 10
721.093048565539
 20
687.260560202872
 42
-0.1503352477099
  0
VERTEX
  8
Default
 10
659.096488362274
 20
625.263999999595
 42
0.6020382746623
  0
VERTEX
  8
Default
 10
659.096488363836
 20
621.728966860914
 42
-0.1503352481617
  0
VERTEX
  8
Default
 10
721.093049347204
 20
559.732405877529
 42
0.6020382746624
  0
VERTEX
  8
Default
 10
724.628082485885
 20
559.732405875967
 42
-0.0106739071765
  0
VERTEX
  8
Default
 10
727.725960003025
 20
565.292712745886
 42
0.1331935027354
  0
VERTEX
  8
Default
 10
727.999998729653
 20
566.303186735072
 42
0.0
  0
VERTEX
  8
Default
 10
727.999998729653
 20
680.689777993324
 42
0.1331935050349
  0
SEQEND
  0
POLYLINE
  8
Default
 66
     1
 10
0.0
 20
0.0
 30
0.0
 70
     1
  0
VERTEX
  8
Default
 10
727.726269494579
 20
948.423538437598
 42
-0.0105973078068
  0
VERTEX
  8
Default
 10
724.651463961731
 20
953.944422886014
 42
0.6020382746624
  0
VERTEX
  8
Default
 10
721.11643082305
 20
953.944422887576
 42
-0.1503352477099
  0
VERTEX
  8
Default
 10
659.11987061977
 20
891.947862684297
 42
0.6020382746623
  0
VERTEX
  8
Default
 10
659.119870621332
 20
888.412829545616
 42
-0.1503352481617
  0
VERTEX
  8
Default
 10
721.116431604712
 20
826.416268562231
 42
0.6020382746624
  0
VERTEX
  8
Default
 10
724.651464743393
 20
826.416268560669
 42
-0.0105973053243
  0
VERTEX
  8
Default
 10
727.726269503714
 20
831.937151674993
 42
0.1331155515401
  0
VERTEX
  8
Default
 10
727.999998729653
 20
832.947096829257
 42
0.0
  0
VERTEX
  8
Default
 10
727.999998729653
 20
947.41359326772
 42
0.1331155538414
  0
SEQEND
  0
POLYLINE
  8
Default
 66
     1
 10
0.0
 20
0.0
 30
0.0
 70
     1
  0
VERTEX
  8
Default
 10
727.719034645277
 20
414.171502085477
 42
-0.0123776274343
  0
VERTEX
  8
Default
 10
724.104883238196
 20
420.606790596518
 42
0.6020382746624
  0
VERTEX
  8
Default
 10
720.569850099515
 20
420.60679059808
 42
-0.1503352477099
  0
VERTEX
  8
Default
 10
658.573289896235
 20
358.610230394802
 42
0.6020382746623
  0
VERTEX
  8
Default
 10
658.573289897797
 20
355.075197256121
 42
-0.1503352481617
  0
VERTEX
  8
Default
 10
720.569850881177
 20
293.078636272736
 42
0.6020382746624
  0
VERTEX
  8
Default
 10
724.104884019859
 20
293.078636271174
 42
-0.0123776249958
  0
VERTEX
  8
Default
 10
727.719034654343
 20
299.513923466722
 42
0.134927609781
  0
VERTEX
  8
Default
 10
727.999998729653
 20
300.536134545523
 42
0.0
  0
VERTEX
  8
Default
 10
727.999998729653
 20
413.14929099143
 42
0.1349276120385
  0
SEQEND
  0
POLYLINE
  8
Default
 66
     1
 10
0.0
 20
0.0
 30
0.0
 70
     1
  0
VERTEX
  8
Default
 10
727.71872514459
 20
147.448851681965
 42
-0.0124533137663
  0
VERTEX
  8
Default
 10
724.081500980668
 20
153.922927911815
 42
0.6020382746624
  0
VERTEX
  8
Default
 10
720.546467841987
 20
153.922927913377
 42
-0.1503352477099
  0
VERTEX
  8
Default
 10
658.549907638725
 20
91.9263677101009
 42
0.6020382746623
  0
VERTEX
  8
Default
 10
658.549907640287
 20
88.39133457142
 42
-0.1503352481617
  0
VERTEX
  8
Default
 10
720.546468623668
 20
26.3947735880352
 42
0.6020382746624
  0
VERTEX
  8
Default
 10
724.081501762349
 20
26.3947735864733
 42
-0.0124533113296
  0
VERTEX
  8
Default
 10
727.718725153653
 20
32.8688485015798
 42
0.135004662929
  0
VERTEX
  8
Default
 10
727.999998729653
 20
33.8915798834404
 42
0.0
  0
VERTEX
  8
Default
 10
727.999998729653
 20
146.426120284873
 42
0.1350046651848
  0
SEQEND
  0
POLYLINE
  8
Default
 66
     1
 10
0.0
 20
0.0
 30
0.0
 70
     1
  0
VERTEX
  8
Default
 10
727.714539368495
 20
-119.822708909322
 42
-0.0134731788901
  0
VERTEX
  8
Default
 10
723.765272621069
 20
-112.82666239096
 42
0.6020382746624
  0
VERTEX
  8
Default
 10
720.230239482387
 20
-112.826662389398
 42
-0.1503352477099
  0
VERTEX
  8
Default
 10
658.233679279124
 20
-174.823222592674
 42
0.6020382746623
  0
VERTEX
  8
Default
 10
658.233679280686
 20
-178.358255731355
 42
-0.1503352481617
  0
VERTEX
  8
Default
 10
720.230240264049
 20
-240.354816714723
 42
0.6020382746623
  0
VERTEX
  8
Default
 10
723.765273402731
 20
-240.354816716285
 42
-0.0134731764781
  0
VERTEX
  8
Default
 10
727.714539377517
 20
-233.358771502264
 42
0.1360430851484
  0
VERTEX
  8
Default
 10
727.999998729653
 20
-232.329038349054
 42
0.0
  0
VERTEX
  8
Default
 10
727.999998729653
 20
-120.852442077555
 42
0.1360430873794
  0
SEQEND
  0
POLYLINE
  8
Default
 66
     1
 10
0.0
 20
0.0
 30
0.0
 70
     1
  0
VERTEX
  8
Default
 10
727.711490295288
 20
-386.787955309251
 42
-0.0142117636974
  0
VERTEX
  8
Default
 10
723.534920257133
 20
-379.41470437768
 42
0.6020382746624
  0
VERTEX
  8
Default
 10
719.999887118452
 20
-379.414704376118
 42
-0.1503352477099
  0
VERTEX
  8
Default
 10
658.00332691519
 20
-441.411264579394
 42
0.6020382746623
  0
VERTEX
  8
Default
 10
658.003326916752
 20
-444.946297718075
 42
-0.1503352481617
  0
VERTEX
  8
Default
 10
719.999887900133
 20
-506.94285870146
 42
0.6020382746624
  0
VERTEX
  8
Default
 10
723.534921038814
 20
-506.942858703022
 42
-0.0142117613032
  0
VERTEX
  8
Default
 10
727.711490304282
 20
-499.56960906842
 42
0.1367952710477
  0
VERTEX
  8
Default
 10
727.999998729653
 20
-498.534816050482
 42
0.0
  0
VERTEX
  8
Default
 10
727.999998729653
 20
-387.822748342065
 42
0.1367952732612
  0
SEQEND
  0
POLYLINE
  8
Default
 66
     1
 10
0.0
 20
0.0
 30
0.0
 70
     1
  0
VERTEX
  8
Default
 10
727.704517373726
 20
-654.293743325167
 42
-0.0158874890232
  0
VERTEX
  8
Default
 10
723.008127734759
 20
-646.067209514871
 42
0.6020382746624
  0
VERTEX
  8
Default
 10
719.473094596078
 20
-646.067209513309
 42
-0.1503352477099
  0
VERTEX
  8
Default
 10
657.476534392799
 20
-708.063769716586
 42
0.6020382746623
  0
VERTEX
  8
Default
 10
657.47653439436
 20
-711.598802855267
 42
-0.100537371676
  0
VERTEX
  8
Default
 10
703.356486360518
 20
-749.262296519312
 42
0.2256587009479
  0
VERTEX
  8
Default
 10
704.9078128321
 20
-750.000002504999
 42
0.0
  0
VERTEX
  8
Default
 10
725.999998729653
 20
-750.000002504999
 42
0.4142135623731
  0
VERTEX
  8
Default
 10
727.999998729653
 20
-748.000002504999
 42
0.0
  0
VERTEX
  8
Default
 10
727.999998729653
 20
-655.339982395365
 42
0.1385023622217
  0
SEQEND
  0
POLYLINE
  8
Default
 66
     1
 10
0.0
 20
0.0
 30
0.0
 70
     1
  0
VERTEX
  8
Default
 10
472.295768079916
 20
-749.268299366131
 42
-0.0995587696346
  0
VERTEX
  8
Default
 10
517.810149255017
 20
-712.052308281685
 42
0.6020382746623
  0
VERTEX
  8
Default
 10
517.810149253455
 20
-708.517275143004
 42
-0.1503352481617
  0
VERTEX
  8
Default
 10
455.813588270075
 20
-646.520714159619
 42
0.6020382746624
  0
VERTEX
  8
Default
 10
452.278555131393
 20
-646.520714158057
 42
-0.1503352477099
  0
VERTEX
  8
Default
 10
390.281994928114
 20
-708.517274361334
 42
0.6020382746623
  0
VERTEX
  8
Default
 10
390.281994929676
 20
-712.052307500015
 42
-0.0995587706328
  0
VERTEX
  8
Default
 10
435.796376953415
 20
-749.268299361383
 42
0.2246406822716
  0
VERTEX
  8
Default
 10
437.342799626583
 20
-750.000002505
 42
0.0
  0
VERTEX
  8
Default
 10
470.749345410641
 20
-750.000002505
 42
0.2246406814654
  0
SEQEND
  0
POLYLINE
  8
Default
 66
     1
 10
0.0
 20
0.0
 30
0.0
 70
     1
  0
VERTEX
  8
Default
 10
-61.2684776637975
 20
-749.274100770868
 42
-0.0986102230171
  0
VERTEX
  8
Default
 10
-16.1101596760802
 20
-712.490594669738
 42
0.6020382746623
  0
VERTEX
  8
Default
 10
-16.1101596776423
 20
-708.955561531057
 42
-0.1503352481617
  0
VERTEX
  8
Default
 10
-78.1067206610223
 20
-646.959000547672
 42
0.6020382746624
  0
VERTEX
  8
Default
 10
-81.6417537997036
 20
-646.959000546109
 42
-0.1503352477099
  0
VERTEX
  8
Default
 10
-143.638314002983
 20
-708.955560749387
 42
0.6020382746623
  0
VERTEX
  8
Default
 10
-143.638314001421
 20
-712.490593888068
 42
-0.0986102240266
  0
VERTEX
  8
Default
 10
-98.4799951628675
 20
-749.274100766065
 42
0.2236541641083
  0
VERTEX
  8
Default
 10
-96.9383487633486
 20
-750.000002504999
 42
0.0
  0
VERTEX
  8
Default
 10
-62.8101240593471
 20
-750.000002505
 42
0.2236541632905
  0
SEQEND
  0
POLYLINE
  8
Default
 66
     1
 10
0.0
 20
0.0
 30
0.0
 70
     1
  0
VERTEX
  8
Default
 10
205.513304406958
 20
-749.2712000685
 42
-0.0990848410302
  0
VERTEX
  8
Default
 10
250.849994789467
 20
-712.271451475721
 42
0.6020382746623
  0
VERTEX
  8
Default
 10
250.849994787905
 20
-708.73641833704
 42
-0.1503352481617
  0
VERTEX
  8
Default
 10
188.853433804525
 20
-646.739857353655
 42
0.6020382746624
  0
VERTEX
  8
Default
 10
185.318400665844
 20
-646.739857352093
 42
-0.1503352477099
  0
VERTEX
  8
Default
 10
123.321840462565
 20
-708.736417555371
 42
0.6020382746623
  0
VERTEX
  8
Default
 10
123.321840464127
 20
-712.271450694052
 42
-0.099084842034
  0
VERTEX
  8
Default
 10
168.658531696368
 20
-749.271200063725
 42
0.2241477527205
  0
VERTEX
  8
Default
 10
170.202570804257
 20
-750.000002505
 42
0.0
  0
VERTEX
  8
Default
 10
203.969265302999
 20
-750.000002505
 42
0.2241477519085
  0
SEQEND
  0
POLYLINE
  8
Default
 66
     1
 10
0.0
 20
0.0
 30
0.0
 70
     1
  0
VERTEX
  8
Default
 10
-217.707256945206
 20
966.633981498818
 42
-0.0152313034376
  0
VERTEX
  8
Default
 10
-213.215097762639
 20
958.741158501018
 42
0.6020382746624
  0
VERTEX
  8
Default
 10
-209.680064623957
 20
958.741158499456
 42
-0.1503352477099
  0
VERTEX
  8
Default
 10
-147.683504420695
 20
1020.73771870273
 42
0.6020382746623
  0
VERTEX
  8
Default
 10
-147.683504422257
 20
1024.27275184141
 42
-0.1503352481617
  0
VERTEX
  8
Default
 10
-209.680065405638
 20
1086.2693128248
 42
0.6020382746624
  0
VERTEX
  8
Default
 10
-213.215098544319
 20
1086.26931282636
 42
-0.0152313010675
  0
VERTEX
  8
Default
 10
-217.707256954159
 20
1078.37649111547
 42
0.137833809442
  0
VERTEX
  8
Default
 10
-217.999998729653
 20
1077.33472849623
 42
0.0
  0
VERTEX
  8
Default
 10
-217.999998729653
 20
967.675744132736
 42
0.1378338116314
  0
SEQEND
  0
POLYLINE
  8
Default
 66
     1
 10
0.0
 20
0.0
 30
0.0
 70
     1
  0
VERTEX
  8
Default
 10
-217.711442721301
 20
699.370684644715
 42
-0.0142232591833
  0
VERTEX
  8
Default
 10
-213.531326122257
 20
691.991568198261
 42
0.6020382746623
  0
VERTEX
  8
Default
 10
-209.996292983576
 20
691.991568196698
 42
-0.1503352477099
  0
VERTEX
  8
Default
 10
-147.999732780298
 20
753.988128399959
 42
0.6020382746624
  0
VERTEX
  8
Default
 10
-147.999732781859
 20
757.52316153864
 42
-0.1503352481617
  0
VERTEX
  8
Default
 10
-209.996293765238
 20
819.519722522024
 42
0.6020382746624
  0
VERTEX
  8
Default
 10
-213.531326903919
 20
819.519722523586
 42
-0.0142232567893
  0
VERTEX
  8
Default
 10
-217.711442730295
 20
812.140607373956
 42
0.1368069792999
  0
VERTEX
  8
Default
 10
-217.999998729653
 20
811.105735675305
 42
0.0
  0
VERTEX
  8
Default
 10
-217.999998729653
 20
700.405556358239
 42
0.1368069815131
  0
SEQEND
  0
POLYLINE
  8
Default
 66
     1
 10
0.0
 20
0.0
 30
0.0
 70
     1
  0
VERTEX
  8
Default
 10
-217.717278939984
 20
432.15557784513
 42
-0.0125105364762
  0
VERTEX
  8
Default
 10
-214.054908430947
 20
425.656510789263
 42
0.6003174625359
  0
VERTEX
  8
Default
 10
-210.524621575408
 20
425.651764504529
 42
-0.1503383009655
  0
VERTEX
  8
Default
 10
-148.286873043581
 20
487.408610754051
 42
0.6037723159667
  0
VERTEX
  8
Default
 10
-148.28212676197
 20
490.948390175874
 42
-0.1509502365585
  0
VERTEX
  8
Default
 10
-210.521024833559
 20
553.187288247478
 42
0.6037723159668
  0
VERTEX
  8
Default
 10
-214.060804255382
 20
553.182541965867
 42
-0.0126155450178
  0
VERTEX
  8
Default
 10
-217.722025232187
 20
546.611078284413
 42
0.1341811266276
  0
VERTEX
  8
Default
 10
-217.999998729653
 20
545.593913241476
 42
0.0
  0
VERTEX
  8
Default
 10
-217.999998729653
 20
433.180735725265
 42
0.135364214292
  0
SEQEND
  0
POLYLINE
  8
Default
 66
     1
 10
0.0
 20
0.0
 30
0.0
 70
     1
  0
VERTEX
  8
Default
 10
-217.722083717445
 20
-368.564972208048
 42
-0.0116299337161
  0
VERTEX
  8
Default
 10
-214.335235523604
 20
-374.616704295092
 42
0.6020382746624
  0
VERTEX
  8
Default
 10
-210.800202384922
 20
-374.616704296654
 42
-0.1503352477099
  0
VERTEX
  8
Default
 10
-148.803642181645
 20
-312.620144093378
 42
0.6020382746623
  0
VERTEX
  8
Default
 10
-148.803642183207
 20
-309.085110954697
 42
-0.1503352481617
  0
VERTEX
  8
Default
 10
-210.800203166587
 20
-247.088549971312
 42
0.6020382746624
  0
VERTEX
  8
Default
 10
-214.335236305268
 20
-247.08854996975
 42
-0.0116299312592
  0
VERTEX
  8
Default
 10
-217.72208372654
 20
-253.14028073356
 42
0.1341664902851
  0
VERTEX
  8
Default
 10
-217.999998729653
 20
-254.157346741003
 42
0.0
  0
VERTEX
  8
Default
 10
-217.999998729653
 20
-367.547906185205
 42
0.134166492561
  0
SEQEND
  0
POLYLINE
  8
Default
 66
     1
 10
0.0
 20
0.0
 30
0.0
 70
     1
  0
VERTEX
  8
Default
 10
-217.717588440672
 20
165.433051861749
 42
-0.0124350292881
  0
VERTEX
  8
Default
 10
-214.078290688477
 20
158.972648104542
 42
0.6003174625359
  0
VERTEX
  8
Default
 10
-210.548003832938
 20
158.967901819807
 42
-0.1503383009655
  0
VERTEX
  8
Default
 10
-148.310255301111
 20
220.72474806933
 42
0.6037723159667
  0
VERTEX
  8
Default
 10
-148.3055090195
 20
224.264527491153
 42
-0.1509502365585
  0
VERTEX
  8
Default
 10
-210.544407091088
 20
286.503425562756
 42
0.6037723159668
  0
VERTEX
  8
Default
 10
-214.084186512911
 20
286.498679281145
 42
-0.0125394439394
  0
VERTEX
  8
Default
 10
-217.722334732877
 20
279.966290585861
 42
0.1341036684258
  0
VERTEX
  8
Default
 10
-217.999998729653
 20
278.949649699412
 42
0.0
  0
VERTEX
  8
Default
 10
-217.999998729653
 20
166.457691107827
 42
0.1352873362958
  0
SEQEND
  0
POLYLINE
  8
Default
 66
     1
 10
0.0
 20
0.0
 30
0.0
 70
     1
  0
VERTEX
  8
Default
 10
-217.721774216758
 20
-101.842056553753
 42
-0.0117060013253
  0
VERTEX
  8
Default
 10
-214.311853266095
 20
-107.93284161039
 42
0.6020382746624
  0
VERTEX
  8
Default
 10
-210.776820127414
 20
-107.932841611953
 42
-0.1503352477099
  0
VERTEX
  8
Default
 10
-148.780259924134
 20
-45.9362814086754
 42
0.6020382746623
  0
VERTEX
  8
Default
 10
-148.780259925696
 20
-42.4012482699944
 42
-0.1503352481617
  0
VERTEX
  8
Default
 10
-210.776820909076
 20
19.5953127133912
 42
0.6020382746624
  0
VERTEX
  8
Default
 10
-214.311854047758
 20
19.5953127149533
 42
-0.0117059988703
  0
VERTEX
  8
Default
 10
-217.72177422585
 20
13.5045289807554
 42
0.1342439174117
  0
VERTEX
  8
Default
 10
-217.999998729653
 20
12.4869391121463
 42
0.0
  0
VERTEX
  8
Default
 10
-217.999998729653
 20
-100.82446666976
 42
0.1342439196857
  0
SEQEND
  0
POLYLINE
  8
Default
 66
     1
 10
0.0
 20
0.0
 30
0.0
 70
     1
  0
VERTEX
  8
Default
 10
-191.716547361632
 20
1196.000002505
 42
0.0
  0
VERTEX
  8
Default
 10
-140.168618923863
 20
1196.000002505
 42
-0.7199805173622
  0
VERTEX
  8
Default
 10
-138.965340397298
 20
1192.40246665642
 42
-0.1302488276846
  0
VERTEX
  8
Default
 10
-196.656331941433
 20
1168.92316562905
 42
-0.4893519604395
  0
VERTEX
  8
Default
 10
-198.895697577491
 20
1171.15053681025
 42
-0.0496074950512
  0
VERTEX
  8
Default
 10
-193.614785348237
 20
1194.62983783761
 42
-0.323203981751
  0
SEQEND
  0
POLYLINE
  8
Default
 66
     1
 10
0.0
 20
0.0
 30
0.0
 70
     1
  0
VERTEX
  8
Default
 10
-16.0730217978801
 20
1196.000002505
 42
0.0
  0
VERTEX
  8
Default
 10
35.4527378806952
 20
1196.000002505
 42
-0.3229677705537
  0
VERTEX
  8
Default
 10
37.3504363235188
 20
1194.6314616249
 42
-0.0491501082479
  0
VERTEX
  8
Default
 10
42.6240181330736
 20
1171.37688175511
 42
-0.4893490847203
  0
VERTEX
  8
Default
 10
40.3906497256248
 20
1169.14351334767
 42
-0.1300064149524
  0
VERTEX
  8
Default
 10
-17.2704718529828
 20
1192.39809321745
 42
-0.7213644429047
  0
SEQEND
  0
POLYLINE
  8
Default
 66
     1
 10
0.0
 20
0.0
 30
0.0
 70
     1
  0
VERTEX
  8
Default
 10
75.5782010600392
 20
1196.000002505
 42
0.0
  0
VERTEX
  8
Default
 10
127.210515924945
 20
1196.000002505
 42
-0.7195329467015
  0
VERTEX
  8
Default
 10
128.415677637342
 20
1192.40388683032
 42
-0.1305486736429
  0
VERTEX
  8
Default
 10
70.610207384866
 20
1168.83825355108
 42
-0.4893519604395
  0
VERTEX
  8
Default
 10
68.3708417488074
 20
1171.06562473228
 42
-0.049795018814
  0
VERTEX
  8
Default
 10
73.6804348769974
 20
1194.63125801151
 42
-0.3229973919438
  0
SEQEND
  0
POLYLINE
  8
Default
 66
     1
 10
0.0
 20
0.0
 30
0.0
 70
     1
  0
VERTEX
  8
Default
 10
250.69959144552
 20
1196.000002505
 42
0.0
  0
VERTEX
  8
Default
 10
302.376194629198
 20
1196.000002505
 42
-0.3226011944732
  0
VERTEX
  8
Default
 10
304.2730528555
 20
1194.6339811082
 42
-0.0494829021483
  0
VERTEX
  8
Default
 10
309.597711357282
 20
1171.22624205912
 42
-0.4893490847203
  0
VERTEX
  8
Default
 10
307.364342949834
 20
1168.99287365167
 42
-0.1305406017364
  0
VERTEX
  8
Default
 10
249.498778281845
 20
1192.40061270075
 42
-0.7205661388599
  0
SEQEND
  0
POLYLINE
  8
Default
 66
     1
 10
0.0
 20
0.0
 30
0.0
 70
     1
  0
VERTEX
  8
Default
 10
342.465696629935
 20
1196.000002505
 42
0.0
  0
VERTEX
  8
Default
 10
393.879515772268
 20
1196.000002505
 42
-0.7206898705238
  0
VERTEX
  8
Default
 10
395.079807857173
 20
1192.40022161034
 42
-0.1297739106267
  0
VERTEX
  8
Default
 10
337.570361850416
 20
1169.05739674512
 42
-0.4893519604395
  0
VERTEX
  8
Default
 10
335.330996214357
 20
1171.28476792632
 42
-0.0493111548248
  0
VERTEX
  8
Default
 10
340.566715210268
 20
1194.62759279154
 42
-0.3235305104376
  0
SEQEND
  0
POLYLINE
  8
Default
 66
     1
 10
0.0
 20
0.0
 30
0.0
 70
     1
  0
VERTEX
  8
Default
 10
518.333593871854
 20
1196.000002505
 42
0.0
  0
VERTEX
  8
Default
 10
569.724008916947
 20
1196.000002505
 42
-0.3232943467202
  0
VERTEX
  8
Default
 10
571.622452924358
 20
1194.62921657885
 42
-0.0488536972715
  0
VERTEX
  8
Default
 10
576.850711924922
 20
1171.51111287119
 42
-0.4893490847203
  0
VERTEX
  8
Default
 10
574.617343517473
 20
1169.27774446374
 42
-0.1295292085479
  0
VERTEX
  8
Default
 10
517.139153051223
 20
1192.3958481714
 42
-0.7220781979454
  0
SEQEND
  0
POLYLINE
  8
Default
 66
     1
 10
0.0
 20
0.0
 30
0.0
 70
     1
  0
VERTEX
  8
Default
 10
609.592138876499
 20
1196.000002505
 42
0.0
  0
VERTEX
  8
Default
 10
660.758397299664
 20
1196.000002505
 42
-0.7232551664049
  0
VERTEX
  8
Default
 10
661.947871226411
 20
1192.39216178603
 42
-0.1287431363719
  0
VERTEX
  8
Default
 10
604.771618498848
 20
1169.49815338483
 42
-0.4893490851415
  0
VERTEX
  8
Default
 10
602.53825009022
 20
1171.73152179346
 42
-0.0483672580577
  0
VERTEX
  8
Default
 10
607.692477035677
 20
1194.62553019465
 42
-0.3238304455504
  0
SEQEND
  0
POLYLINE
  8
Default
 66
     1
 10
0.0
 20
0.0
 30
0.0
 70
     1
  0
VERTEX
  8
Default
 10
659.767965611306
 20
-750.000002505
 42
0.0
  0
VERTEX
  8
Default
 10
608.092625353795
 20
-750.000002505
 42
-0.3226042751071
  0
VERTEX
  8
Default
 10
606.195760051787
 20
-748.633959937353
 42
-0.0494801050707
  0
VERTEX
  8
Default
 10
600.871531681619
 20
-725.227507862041
 42
-0.4893490847203
  0
VERTEX
  8
Default
 10
603.104900089068
 20
-722.994139454592
 42
-0.1305361189715
  0
VERTEX
  8
Default
 10
660.968750576546
 20
-746.400591529905
 42
-0.7205728350626
  0
SEQEND
  0
POLYLINE
  8
Default
 66
     1
 10
0.0
 20
0.0
 30
0.0
 70
     1
  0
VERTEX
  8
Default
 10
567.614600525704
 20
-750.000002505
 42
0.0
  0
VERTEX
  8
Default
 10
515.84387680025
 20
-750.000002505
 42
-0.7200664975278
  0
VERTEX
  8
Default
 10
514.640960141571
 20
-746.40219415846
 42
-0.1308751807614
  0
VERTEX
  8
Default
 10
572.634395412762
 20
-722.898318680739
 42
-0.4893490851415
  0
VERTEX
  8
Default
 10
574.867763821391
 20
-725.131687089367
 42
-0.0496918749872
  0
VERTEX
  8
Default
 10
569.51092945484
 20
-748.635562567088
 42
-0.3223710547281
  0
SEQEND
  0
POLYLINE
  8
Default
 66
     1
 10
0.0
 20
0.0
 30
0.0
 70
     1
  0
VERTEX
  8
Default
 10
392.055492704275
 20
-750.000002505
 42
0.0
  0
VERTEX
  8
Default
 10
340.569646702432
 20
-750.000002505
 42
-0.3230643072556
  0
VERTEX
  8
Default
 10
338.671727577623
 20
-748.630798031048
 42
-0.0490624816571
  0
VERTEX
  8
Default
 10
333.411561007575
 20
-725.416557976148
 42
-0.4893490847203
  0
VERTEX
  8
Default
 10
335.644929415024
 20
-723.183189568699
 42
-0.1298654804955
  0
VERTEX
  8
Default
 10
393.252054512039
 20
-746.397429623599
 42
-0.7215751784575
  0
SEQEND
  0
POLYLINE
  8
Default
 66
     1
 10
0.0
 20
0.0
 30
0.0
 70
     1
  0
VERTEX
  8
Default
 10
300.727657112016
 20
-750.000002505
 42
0.0
  0
VERTEX
  8
Default
 10
249.175732179278
 20
-750.000002505
 42
-0.721226180114
  0
VERTEX
  8
Default
 10
247.977699451948
 20
-746.398528938485
 42
-0.1300988994105
  0
VERTEX
  8
Default
 10
305.674240947214
 20
-723.117461874775
 42
-0.4893490851415
  0
VERTEX
  8
Default
 10
307.907609355841
 20
-725.350830283403
 42
-0.0492076505084
  0
VERTEX
  8
Default
 10
302.625210512717
 20
-748.631897347113
 42
-0.3229043804675
  0
SEQEND
  0
POLYLINE
  8
Default
 66
     1
 10
0.0
 20
0.0
 30
0.0
 70
     1
  0
VERTEX
  8
Default
 10
124.800894981578
 20
-750.000002505
 42
0.0
  0
VERTEX
  8
Default
 10
73.5368922702842
 20
-750.000002505
 42
-0.3235974038142
  0
VERTEX
  8
Default
 10
71.6377588944636
 20
-748.627132811112
 42
-0.048578691305
  0
VERTEX
  8
Default
 10
66.4514065420258
 20
-725.635701170184
 42
-0.4893490847203
  0
VERTEX
  8
Default
 10
68.6847749494741
 20
-723.402332762735
 42
-0.1290852564686
  0
VERTEX
  8
Default
 10
125.992532158665
 20
-746.393764403663
 42
-0.7227427271647
  0
SEQEND
  0
POLYLINE
  8
Default
 66
     1
 10
0.0
 20
0.0
 30
0.0
 70
     1
  0
VERTEX
  8
Default
 10
33.3264534015557
 20
-750.000002505
 42
0.0
  0
VERTEX
  8
Default
 10
-18.0361211575087
 20
-750.000002505
 42
-0.7222247222148
  0
VERTEX
  8
Default
 10
-19.2299439542876
 20
-746.395388180656
 42
-0.1294312915159
  0
VERTEX
  8
Default
 10
38.2106762168007
 20
-723.30524752128
 42
-0.4893490851415
  0
VERTEX
  8
Default
 10
40.4440446254287
 20
-725.538615929908
 42
-0.048792980596
  0
VERTEX
  8
Default
 10
35.2250498045587
 20
-748.628756589284
 42
-0.3233612511001
  0
SEQEND
  0
POLYLINE
  8
Default
 66
     1
 10
0.0
 20
0.0
 30
0.0
 70
     1
  0
VERTEX
  8
Default
 10
-142.455601484352
 20
-750.000002505
 42
0.0
  0
VERTEX
  8
Default
 10
-193.495393108503
 20
-750.000002505
 42
-0.3241303271213
  0
VERTEX
  8
Default
 10
-195.39573289031
 20
-748.623467591176
 42
-0.0480952318409
  0
VERTEX
  8
Default
 10
-200.508747923522
 20
-725.854844364201
 42
-0.4893490847203
  0
VERTEX
  8
Default
 10
-198.275379516074
 20
-723.621475956753
 42
-0.1283019464269
  0
VERTEX
  8
Default
 10
-141.268920694857
 20
-746.390099183727
 42
-0.7239164304551
  0
SEQEND
  0
POLYLINE
  8
Default
 66
     1
 10
0.0
 20
0.0
 30
0.0
 70
     1
  0
VERTEX
  8
Default
 10
-217.999998729653
 20
-519.918273828137
 42
0.0
  0
VERTEX
  8
Default
 10
-217.999998729653
 20
-635.094518289112
 42
0.1324238428183
  0
VERTEX
  8
Default
 10
-217.729009066059
 20
-636.099766147403
 42
-0.0099175073853
  0
VERTEX
  8
Default
 10
-214.858433989609
 20
-641.270473899866
 42
0.6020382746624
  0
VERTEX
  8
Default
 10
-211.323400850928
 20
-641.270473901427
 42
-0.1503352477099
  0
VERTEX
  8
Default
 10
-149.326840647666
 20
-579.273913698151
 42
0.6020382746623
  0
VERTEX
  8
Default
 10
-149.326840649229
 20
-575.73888055947
 42
-0.1503352481617
  0
VERTEX
  8
Default
 10
-211.323401632609
 20
-513.742319576085
 42
0.6020382746624
  0
VERTEX
  8
Default
 10
-214.85843477129
 20
-513.742319574523
 42
-0.0099175048856
  0
VERTEX
  8
Default
 10
-217.729009075221
 20
-518.913025985604
 42
0.1324238404999
  0
SEQEND
  0
ENDSEC
  0
EOF
