  0
SECTION
  2
HEADER
  9
$ACADVER
  1
AC1009
  9
$EXTMAX
 10
294.37255859375
 20
1858.546875
 30
0.0
  9
$EXTMIN
 10
44.3725547790527
 20
858.546875
 30
0.0
  9
$INSUNITS
 70
     4
  9
$LUNITS
 70
     2
  9
$LUPREC
 70
     4
  9
$MEASUREMENT
 70
     1
  0
ENDSEC
  0
SECTION
  2
TABLES
  0
TABLE
  2
LAYER
 70
     1
  0
LAYER
  2
0
 70
     0
 62
    70
  6
Continuous
  0
LAYER
  2
Image
 70
     0
 62
    70
  6
Continuous
  0
ENDTAB
  0
TABLE
  2
APPID
 70
     1
  0
APPID
  2
ACAD
 70
     0
  0
ENDTAB
  0
ENDSEC
  0
SECTION
  2
ENTITIES
  0
POLYLINE
  8
Image
 66
     1
 10
0.0
 20
0.0
 30
0.0
 70
     1
  0
VERTEX
  8
Image
 10
241.878677661085
 20
975.589242873507
 42
0.0
  0
VERTEX
  8
Image
 10
241.891334417689
 20
975.60114302667
 42
0.0
  0
SEQEND
  0
POLYLINE
  8
Image
 66
     1
 10
0.0
 20
0.0
 30
0.0
 70
     1
  0
VERTEX
  8
Image
 10
155.638704410135
 20
927.42815630821
 42
0.0044811176353
  0
VERTEX
  8
Image
 10
155.635550352835
 20
927.430219728268
 42
0.0052506877122
  0
SEQEND
  0
POLYLINE
  8
Image
 66
     1
 10
0.0
 20
0.0
 30
0.0
 70
     1
  0
VERTEX
  8
Image
 10
110.107060255175
 20
1001.79050511674
 42
0.001558645125
  0
VERTEX
  8
Image
 10
110.083254749812
 20
1001.75499728801
 42
0.0
  0
SEQEND
  0
POLYLINE
  8
Image
 66
     1
 10
0.0
 20
0.0
 30
0.0
 70
     1
  0
VERTEX
  8
Image
 10
74.2415525314773
 20
993.559308763164
 42
0.0115200335902
  0
VERTEX
  8
Image
 10
74.1683376968549
 20
993.559107043992
 42
0.0
  0
SEQEND
  0
POLYLINE
  8
Image
 66
     1
 10
0.0
 20
0.0
 30
0.0
 70
     1
  0
VERTEX
  8
Image
 10
120.158250414036
 20
1253.85264100217
 42
-0.0003403380547
  0
VERTEX
  8
Image
 10
120.124744178715
 20
1253.83002490293
 42
0.0
  0
SEQEND
  0
POLYLINE
  8
Image
 66
     1
 10
0.0
 20
0.0
 30
0.0
 70
     1
  0
VERTEX
  8
Image
 10
148.802260956481
 20
1343.69027791533
 42
0.0
  0
VERTEX
  8
Image
 10
148.799781661914
 20
1343.68794932194
 42
0.0
  0
SEQEND
  0
POLYLINE
  8
Image
 66
     1
 10
0.0
 20
0.0
 30
0.0
 70
     1
  0
VERTEX
  8
Image
 10
150.546965454863
 20
1303.69873219416
 42
0.0003405362396
  0
VERTEX
  8
Image
 10
150.552398488744
 20
1303.78910212509
 42
0.0
  0
SEQEND
  0
POLYLINE
  8
Image
 66
     1
 10
0.0
 20
0.0
 30
0.0
 70
     1
  0
VERTEX
  8
Image
 10
184.548850771704
 20
1345.77442389001
 42
-0.0014246314358
  0
VERTEX
  8
Image
 10
184.575208192378
 20
1345.7781705494
 42
0.0
  0
SEQEND
  0
POLYLINE
  8
Image
 66
     1
 10
0.0
 20
0.0
 30
0.0
 70
     1
  0
VERTEX
  8
Image
 10
184.574410936125
 20
1345.78190195135
 42
0.0
  0
VERTEX
  8
Image
 10
184.424092188219
 20
1346.48543942358
 42
0.0
  0
SEQEND
  0
POLYLINE
  8
Image
 66
     1
 10
0.0
 20
0.0
 30
0.0
 70
     1
  0
VERTEX
  8
Image
 10
194.389699140504
 20
1342.49256090188
 42
0.003719221769
  0
VERTEX
  8
Image
 10
194.395041792664
 20
1342.50357235237
 42
0.0
  0
SEQEND
  0
POLYLINE
  8
Image
 66
     1
 10
0.0
 20
0.0
 30
0.0
 70
     1
  0
VERTEX
  8
Image
 10
195.270843246241
 20
1344.1256502857
 42
0.0
  0
VERTEX
  8
Image
 10
195.303601234122
 20
1344.18680107144
 42
0.0
  0
SEQEND
  0
POLYLINE
  8
Image
 66
     1
 10
0.0
 20
0.0
 30
0.0
 70
     1
  0
VERTEX
  8
Image
 10
195.268442543078
 20
1344.18484870869
 42
0.0
  0
VERTEX
  8
Image
 10
194.477832752504
 20
1344.14094613417
 42
0.0
  0
SEQEND
  0
POLYLINE
  8
Image
 66
     1
 10
0.0
 20
0.0
 30
0.0
 70
     1
  0
VERTEX
  8
Image
 10
249.660562925159
 20
1303.91746502461
 42
-0.0015673805161
  0
VERTEX
  8
Image
 10
249.61122652708
 20
1303.87293956626
 42
0.0
  0
SEQEND
  0
POLYLINE
  8
Image
 66
     1
 10
0.0
 20
0.0
 30
0.0
 70
     1
  0
VERTEX
  8
Image
 10
271.300690420087
 20
1289.13734241688
 42
-0.0059240750693
  0
VERTEX
  8
Image
 10
271.40753561062
 20
1289.00296703812
 42
0.0
  0
VERTEX
  8
Image
 10
271.300690420087
 20
1290.0032141349
 42
0.0
  0
SEQEND
  0
POLYLINE
  8
Image
 66
     1
 10
0.0
 20
0.0
 30
0.0
 70
     1
  0
VERTEX
  8
Image
 10
148.754322550265
 20
1343.65142659282
 42
0.0041938974721
  0
VERTEX
  8
Image
 10
148.748669342188
 20
1343.64615893284
 42
0.0048559245315
  0
SEQEND
  0
POLYLINE
  8
Image
 66
     1
 10
0.0
 20
0.0
 30
0.0
 70
     1
  0
VERTEX
  8
Image
 10
150.546965454863
 20
1303.69873219416
 42
0.0
  0
VERTEX
  8
Image
 10
150.552398488744
 20
1303.78910212509
 42
0.0
  0
SEQEND
  0
POLYLINE
  8
Image
 66
     1
 10
0.0
 20
0.0
 30
0.0
 70
     1
  0
VERTEX
  8
Image
 10
241.878677661085
 20
1742.69942381192
 42
0.0
  0
VERTEX
  8
Image
 10
241.891334417689
 20
1742.68752365876
 42
0.0
  0
SEQEND
  0
POLYLINE
  8
Image
 66
     1
 10
0.0
 20
0.0
 30
0.0
 70
     1
  0
VERTEX
  8
Image
 10
155.638704410135
 20
1790.86051037722
 42
-0.0044813449948
  0
VERTEX
  8
Image
 10
155.635550352835
 20
1790.85844695716
 42
-0.0052520696543
  0
SEQEND
  0
POLYLINE
  8
Image
 66
     1
 10
0.0
 20
0.0
 30
0.0
 70
     1
  0
VERTEX
  8
Image
 10
110.107060255175
 20
1716.49816156869
 42
-0.0015586452346
  0
VERTEX
  8
Image
 10
110.083254749812
 20
1716.53366939742
 42
0.0
  0
SEQEND
  0
POLYLINE
  8
Image
 66
     1
 10
0.0
 20
0.0
 30
0.0
 70
     1
  0
VERTEX
  8
Image
 10
74.2415525314773
 20
1724.72935792226
 42
-0.0115199965606
  0
VERTEX
  8
Image
 10
74.1683376968549
 20
1724.72955964143
 42
0.0
  0
SEQEND
  0
POLYLINE
  8
Image
 66
     1
 10
0.0
 20
0.0
 30
0.0
 70
     1
  0
VERTEX
  8
Image
 10
120.158250414036
 20
1464.43602568326
 42
0.000340338027
  0
VERTEX
  8
Image
 10
120.124744178715
 20
1464.4586417825
 42
0.0
  0
SEQEND
  0
POLYLINE
  8
Image
 66
     1
 10
0.0
 20
0.0
 30
0.0
 70
     1
  0
VERTEX
  8
Image
 10
148.802260956481
 20
1374.59838877009
 42
0.0
  0
VERTEX
  8
Image
 10
148.799781661914
 20
1374.60071736349
 42
0.0
  0
SEQEND
  0
POLYLINE
  8
Image
 66
     1
 10
0.0
 20
0.0
 30
0.0
 70
     1
  0
VERTEX
  8
Image
 10
150.546965454863
 20
1414.58993449126
 42
-0.0003405362591
  0
VERTEX
  8
Image
 10
150.552398488744
 20
1414.49956456034
 42
0.0
  0
SEQEND
  0
POLYLINE
  8
Image
 66
     1
 10
0.0
 20
0.0
 30
0.0
 70
     1
  0
VERTEX
  8
Image
 10
184.548850771704
 20
1372.51424279542
 42
0.0014246313198
  0
VERTEX
  8
Image
 10
184.575208192378
 20
1372.51049613603
 42
0.0
  0
SEQEND
  0
POLYLINE
  8
Image
 66
     1
 10
0.0
 20
0.0
 30
0.0
 70
     1
  0
VERTEX
  8
Image
 10
184.574410936125
 20
1372.50676473408
 42
0.0
  0
VERTEX
  8
Image
 10
184.424092188219
 20
1371.80322726185
 42
0.0
  0
SEQEND
  0
POLYLINE
  8
Image
 66
     1
 10
0.0
 20
0.0
 30
0.0
 70
     1
  0
VERTEX
  8
Image
 10
194.389699140504
 20
1375.79610578355
 42
-0.003719198337
  0
VERTEX
  8
Image
 10
194.395041792664
 20
1375.78509433305
 42
0.0
  0
SEQEND
  0
POLYLINE
  8
Image
 66
     1
 10
0.0
 20
0.0
 30
0.0
 70
     1
  0
VERTEX
  8
Image
 10
195.270843246241
 20
1374.16301639973
 42
0.0
  0
VERTEX
  8
Image
 10
195.303601234122
 20
1374.10186561399
 42
0.0
  0
SEQEND
  0
POLYLINE
  8
Image
 66
     1
 10
0.0
 20
0.0
 30
0.0
 70
     1
  0
VERTEX
  8
Image
 10
195.268442543078
 20
1374.10381797673
 42
0.0
  0
VERTEX
  8
Image
 10
194.477832752504
 20
1374.14772055126
 42
0.0
  0
SEQEND
  0
POLYLINE
  8
Image
 66
     1
 10
0.0
 20
0.0
 30
0.0
 70
     1
  0
VERTEX
  8
Image
 10
249.660562925159
 20
1414.37120166081
 42
0.0015673802602
  0
VERTEX
  8
Image
 10
249.61122652708
 20
1414.41572711916
 42
0.0
  0
SEQEND
  0
POLYLINE
  8
Image
 66
     1
 10
0.0
 20
0.0
 30
0.0
 70
     1
  0
VERTEX
  8
Image
 10
148.754322550265
 20
1374.6372400926
 42
-0.0041938816188
  0
VERTEX
  8
Image
 10
148.748669342188
 20
1374.64250775258
 42
-0.0048559512992
  0
SEQEND
  0
POLYLINE
  8
Image
 66
     1
 10
0.0
 20
0.0
 30
0.0
 70
     1
  0
VERTEX
  8
Image
 10
150.546965454863
 20
1414.58993449126
 42
0.0
  0
VERTEX
  8
Image
 10
150.552398488744
 20
1414.49956456034
 42
0.0
  0
SEQEND
  0
POLYLINE
  8
Image
 66
     1
 10
0.0
 20
0.0
 30
0.0
 70
     1
  0
VERTEX
  8
Image
 10
44.3725564502868
 20
858.54684456
 42
0.0
  0
VERTEX
  8
Image
 10
294.37255516348
 20
858.54684456
 42
0.0
  0
VERTEX
  8
Image
 10
294.37255516348
 20
1858.5468398
 42
0.0
  0
VERTEX
  8
Image
 10
44.3725564502868
 20
1858.5468398
 42
0.0
  0
SEQEND
  0
POLYLINE
  8
Image
 66
     1
 10
0.0
 20
0.0
 30
0.0
 70
     1
  0
VERTEX
  8
Image
 10
269.484198173138
 20
888.549827951708
 42
0.0
  0
VERTEX
  8
Image
 10
269.69798776051
 20
954.065098594604
 42
-0.0334279414125
  0
VERTEX
  8
Image
 10
240.232180174117
 20
909.66264072309
 42
-0.0394119392547
  0
VERTEX
  8
Image
 10
219.693669742025
 20
888.799885372587
 42
0.0
  0
VERTEX
  8
Image
 10
219.907360123092
 20
888.299770530828
 42
0.0
  0
SEQEND
  0
POLYLINE
  8
Image
 66
     1
 10
0.0
 20
0.0
 30
0.0
 70
     1
  0
VERTEX
  8
Image
 10
113.707332992999
 20
889.411135917445
 42
-0.041027322483
  0
VERTEX
  8
Image
 10
96.9620956518961
 20
904.340461902779
 42
-0.0386484825957
  0
VERTEX
  8
Image
 10
82.6050154889083
 20
922.034114442733
 42
-0.0098389273503
  0
VERTEX
  8
Image
 10
68.9357076249614
 20
942.806595119094
 42
0.0
  0
VERTEX
  8
Image
 10
68.7849345422558
 20
887.819775146115
 42
0.0
  0
VERTEX
  8
Image
 10
115.218369026714
 20
887.819775146115
 42
0.0400985197947
  0
SEQEND
  0
POLYLINE
  8
Image
 66
     1
 10
0.0
 20
0.0
 30
0.0
 70
     1
  0
VERTEX
  8
Image
 10
269.344639703516
 20
1217.93881365418
 42
-0.0525849866887
  0
VERTEX
  8
Image
 10
250.085348486296
 20
1182.08988624638
 42
-1.0422367441183
  0
VERTEX
  8
Image
 10
241.050882721387
 20
1185.60448005008
 42
0.147885259703
  0
VERTEX
  8
Image
 10
243.506685161793
 20
1194.05129034516
 42
0.3256363683144
  0
VERTEX
  8
Image
 10
241.985915006528
 20
1195.70244304942
 42
0.2594076290274
  0
VERTEX
  8
Image
 10
236.064024557979
 20
1192.97785268535
 42
-0.0552901947923
  0
VERTEX
  8
Image
 10
234.213008516874
 20
1191.54860072611
 42
0.0
  0
VERTEX
  8
Image
 10
234.137363709277
 20
1192.12341268023
 42
-0.6988594068497
  0
VERTEX
  8
Image
 10
231.840704834541
 20
1197.95775947109
 42
-0.0182931778908
  0
VERTEX
  8
Image
 10
235.827615933056
 20
1203.10796290264
 42
-0.3549912475475
  0
VERTEX
  8
Image
 10
221.179738664312
 20
1231.47727514849
 42
-0.4522976593461
  0
VERTEX
  8
Image
 10
231.421393766593
 20
1237.2252201669
 42
-0.0085027185939
  0
VERTEX
  8
Image
 10
247.702324064761
 20
1230.59990812414
 42
0.5192548224825
  0
VERTEX
  8
Image
 10
259.014554158094
 20
1236.22793966522
 42
0.2203898993044
  0
VERTEX
  8
Image
 10
255.919293526076
 20
1248.06023526628
 42
0.1826159020837
  0
VERTEX
  8
Image
 10
229.940077459797
 20
1263.85044952639
 42
0.2343256071921
  0
VERTEX
  8
Image
 10
206.164603192758
 20
1256.48650910501
 42
0.2045192222555
  0
VERTEX
  8
Image
 10
196.148975592
 20
1236.37152588204
 42
0.9088489547875
  0
VERTEX
  8
Image
 10
197.149012118991
 20
1235.61554370542
 42
-0.0931495949526
  0
VERTEX
  8
Image
 10
209.32953745083
 20
1241.86699373846
 42
0.0102296159448
  0
VERTEX
  8
Image
 10
199.756516813502
 20
1223.55691042618
 42
0.1185154206082
  0
VERTEX
  8
Image
 10
196.418878515437
 20
1201.58682693618
 42
0.0183872474042
  0
VERTEX
  8
Image
 10
197.576392881125
 20
1188.97965042098
 42
0.0
  0
VERTEX
  8
Image
 10
197.683238071658
 20
1189.85487025843
 42
-0.1113338560934
  0
VERTEX
  8
Image
 10
208.67684113727
 20
1184.33363663253
 42
-0.2651679993111
  0
VERTEX
  8
Image
 10
207.880408701385
 20
1167.72903551316
 42
-0.0294999882582
  0
VERTEX
  8
Image
 10
202.170711272484
 20
1159.59780914578
 42
0.0
  0
VERTEX
  8
Image
 10
203.025572003056
 20
1159.34775462711
 42
0.0
  0
VERTEX
  8
Image
 10
213.069168722651
 20
1154.34657718741
 42
0.0
  0
VERTEX
  8
Image
 10
213.710264667427
 20
1154.34657718741
 42
0.2162311626497
  0
VERTEX
  8
Image
 10
218.656049134648
 20
1147.09445779494
 42
0.2198971585432
  0
VERTEX
  8
Image
 10
224.215950757126
 20
1148.50254908798
 42
-0.2311625227937
  0
VERTEX
  8
Image
 10
234.449878264573
 20
1150.80757150856
 42
-0.434296660348
  0
VERTEX
  8
Image
 10
237.176535718995
 20
1137.98864449114
 42
0.1478190756527
  0
VERTEX
  8
Image
 10
232.728981399707
 20
1129.34074803313
 42
0.0
  0
VERTEX
  8
Image
 10
232.51529101864
 20
1129.34074803313
 42
-0.1423048082115
  0
VERTEX
  8
Image
 10
260.897866112721
 20
1082.34142335096
 42
0.0105570471027
  0
VERTEX
  8
Image
 10
269.008807444574
 20
1049.88521898258
 42
0.0159348337492
  0
VERTEX
  8
Image
 10
269.484272577866
 20
1048.57191957457
 42
0.0
  0
VERTEX
  8
Image
 10
269.056891815733
 20
1048.82197409324
 42
0.0
  0
VERTEX
  8
Image
 10
269.056891815733
 20
1216.61111006551
 42
0.0
  0
SEQEND
  0
POLYLINE
  8
Image
 66
     1
 10
0.0
 20
0.0
 30
0.0
 70
     1
  0
VERTEX
  8
Image
 10
68.882360245698
 20
1072.69598312
 42
-0.0363895327686
  0
VERTEX
  8
Image
 10
87.1676096688273
 20
1098.9340331686
 42
-0.0228226085137
  0
VERTEX
  8
Image
 10
104.966665596522
 20
1117.21589539373
 42
0.0
  0
VERTEX
  8
Image
 10
107.152713343076
 20
1119.5884766945
 42
-0.0755791636812
  0
VERTEX
  8
Image
 10
75.6072894535976
 20
1154.91366041447
 42
0.0143092128477
  0
VERTEX
  8
Image
 10
68.882360245698
 20
1164.47418536
 42
0.0
  0
SEQEND
  0
POLYLINE
  8
Image
 66
     1
 10
0.0
 20
0.0
 30
0.0
 70
     1
  0
VERTEX
  8
Image
 10
225.19926888643
 20
1009.04579225755
 42
0.4463299660826
  0
VERTEX
  8
Image
 10
232.602440599899
 20
1003.70733383034
 42
0.2006699730479
  0
VERTEX
  8
Image
 10
245.132295218174
 20
1010.81890732031
 42
0.1382831777468
  0
VERTEX
  8
Image
 10
253.90287266603
 20
1028.5050105399
 42
0.3748849267399
  0
VERTEX
  8
Image
 10
235.900234948349
 20
1056.03254689009
 42
0.2643155890697
  0
VERTEX
  8
Image
 10
227.977986904794
 20
1052.92773082164
 42
-0.09485110945
  0
VERTEX
  8
Image
 10
221.271756954203
 20
1049.2244781614
 42
0.3029840592827
  0
VERTEX
  8
Image
 10
219.596105178555
 20
1044.53423890284
 42
-0.0985278257077
  0
VERTEX
  8
Image
 10
218.271423351325
 20
1038.82226022605
 42
0.0
  0
VERTEX
  8
Image
 10
219.026953768971
 20
1038.64545751856
 42
0.2273751334106
  0
VERTEX
  8
Image
 10
185.647990555017
 20
1025.38157445595
 42
0.1399731790911
  0
VERTEX
  8
Image
 10
179.531425574196
 20
1014.46221746204
 42
-0.0742892170556
  0
VERTEX
  8
Image
 10
141.165013731765
 20
992.164075187934
 42
0.1936437737256
  0
VERTEX
  8
Image
 10
141.570779728497
 20
1019.31975323498
 42
0.0005673089752
  0
VERTEX
  8
Image
 10
141.208288012924
 20
1020.4332085509
 42
0.0
  0
VERTEX
  8
Image
 10
141.359404017084
 20
1020.34480139273
 42
0.0
  0
VERTEX
  8
Image
 10
135.995195095423
 20
1029.00887992799
 42
0.0
  0
VERTEX
  8
Image
 10
135.84410389284
 20
1028.92045825876
 42
-0.1418855472088
  0
VERTEX
  8
Image
 10
114.021511750067
 20
1005.30165424962
 42
0.1809152374932
  0
VERTEX
  8
Image
 10
107.852336194626
 20
997.141181098176
 42
-0.3447443819682
  0
VERTEX
  8
Image
 10
98.5851225220622
 20
991.579632146781
 42
0.2227795454183
  0
VERTEX
  8
Image
 10
87.7987257132968
 20
988.961312650713
 42
-0.2975559896994
  0
VERTEX
  8
Image
 10
79.9024621284511
 20
990.162469316768
 42
0.0499873703393
  0
VERTEX
  8
Image
 10
74.6872320764794
 20
993.486536346286
 42
0.0709739414861
  0
VERTEX
  8
Image
 10
73.3625096825515
 20
993.556886852409
 42
-0.0869680091868
  0
VERTEX
  8
Image
 10
75.3131526870009
 20
1045.89270834734
 42
-0.1916690004862
  0
VERTEX
  8
Image
 10
114.381164245924
 20
1095.23734500186
 42
0.2252751805673
  0
VERTEX
  8
Image
 10
122.755947865426
 20
1105.78969795288
 42
-0.1805594121976
  0
VERTEX
  8
Image
 10
130.642942415677
 20
1113.72442041285
 42
0.1209157162659
  0
VERTEX
  8
Image
 10
158.965512205202
 20
1139.33598865334
 42
0.0390610961767
  0
VERTEX
  8
Image
 10
161.829286219072
 20
1144.83010102711
 42
0.1225094950143
  0
VERTEX
  8
Image
 10
184.1954263456
 20
1179.55586472161
 42
0.107889024067
  0
VERTEX
  8
Image
 10
212.34367339639
 20
1132.9430508914
 42
-0.0532824332864
  0
VERTEX
  8
Image
 10
241.632890801948
 20
1098.73093646909
 42
-0.1197473370396
  0
VERTEX
  8
Image
 10
260.630452875783
 20
1029.02589609248
 42
-0.1611432798004
  0
VERTEX
  8
Image
 10
250.199112134786
 20
995.132034061661
 42
-0.0035085885873
  0
VERTEX
  8
Image
 10
246.832546550113
 20
989.933261381289
 42
0.2485645954416
  0
VERTEX
  8
Image
 10
238.972703818743
 20
993.910524191711
 42
-0.1721359990875
  0
VERTEX
  8
Image
 10
222.270106904624
 20
982.031054757697
 42
-0.4292303897792
  0
VERTEX
  8
Image
 10
203.772741040427
 20
995.671084417643
 42
-0.1516675400313
  0
VERTEX
  8
Image
 10
205.514939079301
 20
1015.70512354036
 42
-0.1551596013698
  0
VERTEX
  8
Image
 10
209.427429272333
 20
1020.62336723442
 42
-0.3405376010341
  0
VERTEX
  8
Image
 10
214.459707412862
 20
1019.85014433547
 42
-0.1628653735414
  0
VERTEX
  8
Image
 10
213.870532453227
 20
1013.87634141797
 42
0.2030230986479
  0
VERTEX
  8
Image
 10
220.762146448935
 20
1017.25212965979
 42
0.0
  0
VERTEX
  8
Image
 10
220.388188282068
 20
1016.93955570703
 42
-0.0953285914574
  0
VERTEX
  8
Image
 10
226.189519577722
 20
1039.39860137091
 42
-0.1703907173486
  0
VERTEX
  8
Image
 10
229.498697350819
 20
1043.00385596894
 42
-0.4464051075474
  0
VERTEX
  8
Image
 10
233.45540738715
 20
1040.12442934659
 42
-0.1760213921493
  0
VERTEX
  8
Image
 10
225.254902655807
 20
1011.71543878825
 42
-0.0489556840537
  0
VERTEX
  8
Image
 10
224.617799494506
 20
1011.06186114146
 42
-0.4773475691064
  0
SEQEND
  0
POLYLINE
  8
Image
 66
     1
 10
0.0
 20
0.0
 30
0.0
 70
     1
  0
VERTEX
  8
Image
 10
155.579098669589
 20
927.481691982145
 42
0.4286721180237
  0
VERTEX
  8
Image
 10
149.141115023107
 20
928.749304095926
 42
0.1957050695038
  0
VERTEX
  8
Image
 10
143.694582343141
 20
925.28077053391
 42
-0.5990452252088
  0
VERTEX
  8
Image
 10
139.466931306164
 20
926.300959271235
 42
-0.543685479224
  0
VERTEX
  8
Image
 10
143.117567621608
 20
936.171934745807
 42
-0.0631562596238
  0
VERTEX
  8
Image
 10
153.341764754595
 20
938.171195322144
 42
-0.2546865206592
  0
VERTEX
  8
Image
 10
141.893388263893
 20
949.270802453613
 42
0.2941466356709
  0
VERTEX
  8
Image
 10
130.948408603509
 20
958.299913306963
 42
0.4509808120153
  0
VERTEX
  8
Image
 10
124.987960029066
 20
952.545739471159
 42
0.1783753703488
  0
VERTEX
  8
Image
 10
137.893763041692
 20
914.565494735403
 42
0.0517438866936
  0
VERTEX
  8
Image
 10
156.440374486368
 20
895.661291564284
 42
0.0
  0
VERTEX
  8
Image
 10
156.62092996155
 20
895.24612734713
 42
-0.0767551680737
  0
VERTEX
  8
Image
 10
123.313486485517
 20
903.955482977862
 42
-0.1016573992349
  0
VERTEX
  8
Image
 10
101.337877988564
 20
921.466149653985
 42
-0.1282602514116
  0
VERTEX
  8
Image
 10
73.2113936783915
 20
974.991006349872
 42
0.0
  0
VERTEX
  8
Image
 10
73.0603024758084
 20
974.991006349872
 42
-0.2667448509656
  0
VERTEX
  8
Image
 10
82.0678145981224
 20
974.242343798288
 42
0.1980968774142
  0
VERTEX
  8
Image
 10
92.586792422625
 20
974.66182629295
 42
0.162853936714
  0
VERTEX
  8
Image
 10
103.545424312907
 20
979.124390251786
 42
-0.254871080646
  0
VERTEX
  8
Image
 10
110.458549716963
 20
980.089251146019
 42
-0.5117406822967
  0
VERTEX
  8
Image
 10
108.657644687069
 20
968.426013727319
 42
-0.0360825433122
  0
VERTEX
  8
Image
 10
104.187768778227
 20
966.326927814618
 42
0.1195816819934
  0
VERTEX
  8
Image
 10
112.055094247838
 20
963.776318306014
 42
0.208506958946
  0
VERTEX
  8
Image
 10
119.690535632127
 20
969.913919198329
 42
-0.128055903676
  0
VERTEX
  8
Image
 10
127.595403184509
 20
976.327665216291
 42
0.062059308015
  0
VERTEX
  8
Image
 10
133.600002093736
 20
980.381644359582
 42
0.1537167199284
  0
VERTEX
  8
Image
 10
178.505813721341
 20
1003.64718977374
 42
0.1583491771433
  0
VERTEX
  8
Image
 10
185.601228180769
 20
980.590184343231
 42
0.122291828232
  0
VERTEX
  8
Image
 10
209.809596760942
 20
962.083297156263
 42
-0.1371181042079
  0
VERTEX
  8
Image
 10
220.991313013589
 20
952.181495188981
 42
-0.0813438577444
  0
VERTEX
  8
Image
 10
254.509696276192
 20
986.369360166886
 42
-0.0477912250463
  0
VERTEX
  8
Image
 10
258.616246661772
 20
988.429167199117
 42
0.0
  0
VERTEX
  8
Image
 10
257.731128008161
 20
987.807766048286
 42
-0.0478244916115
  0
VERTEX
  8
Image
 10
236.366726429377
 20
937.395421591056
 42
-0.1199817543709
  0
VERTEX
  8
Image
 10
206.718605731249
 20
904.514191641886
 42
-0.2876536915879
  0
VERTEX
  8
Image
 10
185.460622209625
 20
900.94294262565
 42
-0.076352242262
  0
VERTEX
  8
Image
 10
175.962819331055
 20
908.354738461772
 42
0.0097584007712
  0
SEQEND
  0
POLYLINE
  8
Image
 66
     1
 10
0.0
 20
0.0
 30
0.0
 70
     1
  0
VERTEX
  8
Image
 10
148.741436817188
 20
1343.6409834469
 42
0.1983620459601
  0
VERTEX
  8
Image
 10
126.99290411884
 20
1307.68476665612
 42
0.2209018789644
  0
VERTEX
  8
Image
 10
129.855579905846
 20
1291.13078415577
 42
0.6250363160361
  0
VERTEX
  8
Image
 10
149.39829223944
 20
1296.01654317088
 42
0.0552525349229
  0
VERTEX
  8
Image
 10
150.670634991261
 20
1305.88190824723
 42
-0.06898348835
  0
VERTEX
  8
Image
 10
144.888619758816
 20
1304.40757291965
 42
-0.369496900016
  0
VERTEX
  8
Image
 10
141.56203929797
 20
1308.04513229919
 42
-0.1498429621655
  0
VERTEX
  8
Image
 10
143.019289097931
 20
1322.13718512467
 42
-0.5508144719219
  0
VERTEX
  8
Image
 10
145.328301059863
 20
1323.76106753102
 42
0.2584207295315
  0
VERTEX
  8
Image
 10
154.607815574905
 20
1315.90772894622
 42
0.4718833092619
  0
VERTEX
  8
Image
 10
159.651738449888
 20
1321.47945557251
 42
0.1717934965211
  0
VERTEX
  8
Image
 10
156.119838914768
 20
1331.01285172719
 42
0.0
  0
VERTEX
  8
Image
 10
157.37643557762
 20
1331.10226885486
 42
-0.1789208618728
  0
VERTEX
  8
Image
 10
184.548850771734
 20
1345.77442388999
 42
0.2491369838007
  0
VERTEX
  8
Image
 10
188.263709161822
 20
1337.88582559954
 42
0.3915015250334
  0
VERTEX
  8
Image
 10
193.971225236513
 20
1341.74832898005
 42
0.0065423704404
  0
VERTEX
  8
Image
 10
195.270843246252
 20
1344.1256502857
 42
-0.2355998255468
  0
VERTEX
  8
Image
 10
243.148621644597
 20
1319.93071715027
 42
-0.0177879419312
  0
VERTEX
  8
Image
 10
251.320317369853
 20
1307.88237341869
 42
0.0
  0
VERTEX
  8
Image
 10
250.038175083453
 20
1308.00740067803
 42
-0.5812032877899
  0
VERTEX
  8
Image
 10
249.918773227455
 20
1304.1599072076
 42
0.137794259306
  0
VERTEX
  8
Image
 10
241.592211156779
 20
1294.89360058379
 42
0.347368594358
  0
VERTEX
  8
Image
 10
244.955444234824
 20
1283.00935676509
 42
0.2689926764716
  0
VERTEX
  8
Image
 10
250.241419048311
 20
1283.66960210677
 42
0.1726805291525
  0
VERTEX
  8
Image
 10
261.684474462625
 20
1295.87958238994
 42
0.0
  0
VERTEX
  8
Image
 10
261.684474462625
 20
1296.12963690861
 42
-0.1525483470496
  0
VERTEX
  8
Image
 10
271.300690420087
 20
1289.13734241688
 42
0.0
  0
VERTEX
  8
Image
 10
271.300690420087
 20
1247.7433619935
 42
0.0
  0
VERTEX
  8
Image
 10
270.125368522643
 20
1247.11822569683
 42
0.1620054905849
  0
VERTEX
  8
Image
 10
247.792804675858
 20
1272.68623798697
 42
0.1890716420526
  0
VERTEX
  8
Image
 10
217.128805847267
 20
1282.27731250197
 42
0.1743258659424
  0
VERTEX
  8
Image
 10
195.350209924369
 20
1271.0112689996
 42
0.0382801246392
  0
VERTEX
  8
Image
 10
186.345773653526
 20
1260.24310252241
 42
-0.0778932200072
  0
VERTEX
  8
Image
 10
144.557358476455
 20
1243.51200892471
 42
0.1704384629783
  0
VERTEX
  8
Image
 10
139.951841968204
 20
1259.4376547282
 42
0.1249193614565
  0
VERTEX
  8
Image
 10
129.728655226227
 20
1265.62252127729
 42
0.0
  0
VERTEX
  8
Image
 10
129.728655226227
 20
1267.12287741141
 42
-0.2397621425486
  0
VERTEX
  8
Image
 10
115.037574662939
 20
1251.6873297381
 42
-0.2171552584768
  0
VERTEX
  8
Image
 10
108.917093226792
 20
1253.61814753818
 42
0.2803376580348
  0
VERTEX
  8
Image
 10
94.7610817521595
 20
1257.46497320212
 42
-0.2124921570027
  0
VERTEX
  8
Image
 10
86.161193456124
 20
1260.40977600948
 42
0.0690598060882
  0
VERTEX
  8
Image
 10
76.4361576558345
 20
1265.56994775187
 42
-0.0913772950137
  0
VERTEX
  8
Image
 10
106.631824858261
 20
1328.5251611217
 42
-0.2415053720043
  0
VERTEX
  8
Image
 10
142.478319709011
 20
1350.24509222576
 42
-0.0169767783241
  0
VERTEX
  8
Image
 10
157.722541574345
 20
1351.14247265688
 42
0.0
  0
VERTEX
  8
Image
 10
157.754213187231
 20
1350.99428575201
 42
0.0152198804271
  0
SEQEND
  0
POLYLINE
  8
Image
 66
     1
 10
0.0
 20
0.0
 30
0.0
 70
     1
  0
VERTEX
  8
Image
 10
132.506654981672
 20
1219.19503578052
 42
0.1500346850729
  0
VERTEX
  8
Image
 10
140.772213833075
 20
1228.98859606232
 42
0.0270257434353
  0
VERTEX
  8
Image
 10
142.291253014137
 20
1232.33616843079
 42
0.1690948689731
  0
VERTEX
  8
Image
 10
178.347571686938
 20
1246.25375317483
 42
0.091692340303
  0
VERTEX
  8
Image
 10
174.602370369857
 20
1228.01743864443
 42
0.0
  0
VERTEX
  8
Image
 10
175.508942386933
 20
1227.75220556109
 42
-0.1206005920975
  0
VERTEX
  8
Image
 10
187.219527451774
 20
1237.74242919759
 42
0.0
  0
VERTEX
  8
Image
 10
187.672825861101
 20
1237.03516032341
 42
0.0916465885298
  0
VERTEX
  8
Image
 10
181.22423533957
 20
1199.48525567859
 42
-0.0570772128286
  0
VERTEX
  8
Image
 10
166.939445770282
 20
1174.52764976086
 42
-0.0484919568721
  0
VERTEX
  8
Image
 10
166.435090177558
 20
1191.13081256638
 42
0.3818915309196
  0
VERTEX
  8
Image
 10
166.744933391384
 20
1193.53800847282
 42
0.3260213263417
  0
VERTEX
  8
Image
 10
175.489130441478
 20
1200.53255769218
 42
0.2452384967897
  0
VERTEX
  8
Image
 10
176.460230812957
 20
1207.20922421477
 42
-0.1192623938999
  0
VERTEX
  8
Image
 10
172.029910058754
 20
1210.9848613757
 42
0.2786960714859
  0
VERTEX
  8
Image
 10
160.952503061988
 20
1213.58591653297
 42
-0.145777828423
  0
VERTEX
  8
Image
 10
151.496421503386
 20
1213.25720782411
 42
0.2946898177599
  0
VERTEX
  8
Image
 10
143.654417876416
 20
1210.77641756358
 42
0.3134547449325
  0
VERTEX
  8
Image
 10
145.94139151802
 20
1203.41785070065
 42
-0.2365928652142
  0
VERTEX
  8
Image
 10
153.089682121468
 20
1187.90827352137
 42
-0.2604103855802
  0
VERTEX
  8
Image
 10
128.878053588806
 20
1134.73280647529
 42
-0.2893124060559
  0
VERTEX
  8
Image
 10
115.56001309304
 20
1133.74831314744
 42
-0.1039609125275
  0
VERTEX
  8
Image
 10
101.130347856447
 20
1146.60109573224
 42
-0.1261718683658
  0
VERTEX
  8
Image
 10
75.3663196174145
 20
1199.02551224237
 42
-0.028885830118
  0
VERTEX
  8
Image
 10
73.099860989945
 20
1226.86349044147
 42
0.0
  0
VERTEX
  8
Image
 10
73.3135513710115
 20
1226.6134359228
 42
0.140733188361
  0
VERTEX
  8
Image
 10
101.307412917553
 20
1220.36198588976
 42
0.0
  0
VERTEX
  8
Image
 10
100.666341774352
 20
1220.61204040842
 42
0.0612582220383
  0
VERTEX
  8
Image
 10
87.6605318175559
 20
1229.56929770512
 42
-0.0572975943944
  0
VERTEX
  8
Image
 10
77.8011237781423
 20
1238.36617243288
 42
0.0
  0
VERTEX
  8
Image
 10
78.1978993951695
 20
1238.62644273504
 42
-0.3287839401361
  0
VERTEX
  8
Image
 10
82.8720243456562
 20
1245.62541907281
 42
-0.3912641400762
  0
VERTEX
  8
Image
 10
100.560020683501
 20
1239.08913367889
 42
0.2972427901887
  0
VERTEX
  8
Image
 10
108.141636065792
 20
1236.00365641179
 42
-0.4746128020278
  0
VERTEX
  8
Image
 10
112.914872529336
 20
1231.5859664692
 42
-0.2848001037174
  0
VERTEX
  8
Image
 10
108.69979531458
 20
1219.651389153
 42
0.1497049357085
  0
VERTEX
  8
Image
 10
104.213159280041
 20
1214.85243891739
 42
0.2054331555995
  0
VERTEX
  8
Image
 10
109.188099419032
 20
1211.42928479307
 42
0.3429007743253
  0
VERTEX
  8
Image
 10
119.018939256553
 20
1213.29503133922
 42
-0.2265157853512
  0
VERTEX
  8
Image
 10
130.012429435649
 20
1218.70468546153
 42
0.0785694103673
  0
SEQEND
  0
POLYLINE
  8
Image
 66
     1
 10
0.0
 20
0.0
 30
0.0
 70
     1
  0
VERTEX
  8
Image
 10
269.484198173138
 20
1830.69486167372
 42
0.0
  0
VERTEX
  8
Image
 10
269.69798776051
 20
1765.17959103082
 42
0.0334279414125
  0
VERTEX
  8
Image
 10
240.232180174117
 20
1809.58204890234
 42
0.0394119392547
  0
VERTEX
  8
Image
 10
219.693669742025
 20
1830.44480425284
 42
0.0
  0
VERTEX
  8
Image
 10
219.907360123092
 20
1830.9449190946
 42
0.0
  0
VERTEX
  8
Image
 10
270.33905890371
 20
1830.9449190946
 42
0.0
  0
SEQEND
  0
POLYLINE
  8
Image
 66
     1
 10
0.0
 20
0.0
 30
0.0
 70
     1
  0
VERTEX
  8
Image
 10
113.707332992999
 20
1828.87753076798
 42
0.0844338092491
  0
VERTEX
  8
Image
 10
82.6050154889083
 20
1796.25455224269
 42
0.0102507054158
  0
VERTEX
  8
Image
 10
68.3760783705025
 20
1774.59442991094
 42
0.0
  0
VERTEX
  8
Image
 10
68.2249623663427
 20
1774.7712500317
 42
0.0
  0
VERTEX
  8
Image
 10
68.7849345422558
 20
1830.46889153931
 42
0.0
  0
VERTEX
  8
Image
 10
115.218369026714
 20
1830.46889153931
 42
-0.0220968901796
  0
SEQEND
  0
POLYLINE
  8
Image
 66
     1
 10
0.0
 20
0.0
 30
0.0
 70
     1
  0
VERTEX
  8
Image
 10
269.344639703516
 20
1500.34985303124
 42
0.0525849866887
  0
VERTEX
  8
Image
 10
250.085348486296
 20
1536.19878043904
 42
1.0422367441204
  0
VERTEX
  8
Image
 10
241.050882721387
 20
1532.68418663534
 42
-0.1478852597024
  0
VERTEX
  8
Image
 10
243.506685161793
 20
1524.23737634026
 42
-0.3256363682797
  0
VERTEX
  8
Image
 10
241.985915006528
 20
1522.586223636
 42
-0.2594076290274
  0
VERTEX
  8
Image
 10
236.064024557979
 20
1525.31081400007
 42
0.0552901947918
  0
VERTEX
  8
Image
 10
234.213008516874
 20
1526.74006595932
 42
0.0
  0
VERTEX
  8
Image
 10
234.137363709277
 20
1526.16525400519
 42
0.69885940686
  0
VERTEX
  8
Image
 10
231.840704834541
 20
1520.33090721434
 42
0.0182931778908
  0
VERTEX
  8
Image
 10
235.827615933056
 20
1515.18070378279
 42
0.3549912475475
  0
VERTEX
  8
Image
 10
221.179738664312
 20
1486.81139153694
 42
0.4522976593467
  0
VERTEX
  8
Image
 10
231.421393766594
 20
1481.06344651852
 42
0.0085027185939
  0
VERTEX
  8
Image
 10
247.702324064761
 20
1487.68875856128
 42
-0.5192548224833
  0
VERTEX
  8
Image
 10
259.014554158094
 20
1482.06072702021
 42
-0.2203898993046
  0
VERTEX
  8
Image
 10
255.919293526076
 20
1470.22843141914
 42
-0.1826159020837
  0
VERTEX
  8
Image
 10
229.940077459797
 20
1454.43821715903
 42
-0.234325607192
  0
VERTEX
  8
Image
 10
206.164603192758
 20
1461.80215758041
 42
-0.2045192222555
  0
VERTEX
  8
Image
 10
196.148975592
 20
1481.91714080339
 42
-0.9088489543948
  0
VERTEX
  8
Image
 10
197.149012118991
 20
1482.67312298001
 42
0.0931495949525
  0
VERTEX
  8
Image
 10
209.32953745083
 20
1476.42167294697
 42
-0.0102296159448
  0
VERTEX
  8
Image
 10
199.756516813502
 20
1494.73175625924
 42
-0.1185154206082
  0
VERTEX
  8
Image
 10
196.418878515437
 20
1516.70183974924
 42
-0.0183872474042
  0
VERTEX
  8
Image
 10
197.576392881125
 20
1529.30901626444
 42
0.0
  0
VERTEX
  8
Image
 10
197.683238071658
 20
1528.43379642699
 42
0.1113338560937
  0
VERTEX
  8
Image
 10
208.67684113727
 20
1533.95503005289
 42
0.2651679993116
  0
VERTEX
  8
Image
 10
207.880408701385
 20
1550.55963117227
 42
0.0294999882582
  0
VERTEX
  8
Image
 10
202.170711272484
 20
1558.69085753965
 42
0.0
  0
VERTEX
  8
Image
 10
203.025572003056
 20
1558.94091205831
 42
0.0
  0
VERTEX
  8
Image
 10
213.069168722651
 20
1563.94208949802
 42
0.0
  0
VERTEX
  8
Image
 10
213.710264667427
 20
1563.94208949802
 42
-0.216231162651
  0
VERTEX
  8
Image
 10
218.656049134648
 20
1571.19420889049
 42
-0.2198971585424
  0
VERTEX
  8
Image
 10
224.215950757126
 20
1569.78611759744
 42
0.2311625227947
  0
VERTEX
  8
Image
 10
234.449878264573
 20
1567.48109517687
 42
0.4342966603485
  0
VERTEX
  8
Image
 10
237.176535718995
 20
1580.30002219429
 42
-0.1478190756528
  0
VERTEX
  8
Image
 10
232.728981399707
 20
1588.9479186523
 42
0.0
  0
VERTEX
  8
Image
 10
232.51529101864
 20
1588.9479186523
 42
0.1423048082115
  0
VERTEX
  8
Image
 10
260.897866112721
 20
1635.94724333447
 42
-0.0105570471027
  0
VERTEX
  8
Image
 10
269.008807444574
 20
1668.40344770285
 42
-0.0159348337409
  0
VERTEX
  8
Image
 10
269.484272577866
 20
1669.71674711086
 42
0.0
  0
VERTEX
  8
Image
 10
269.056891815733
 20
1669.46669259219
 42
0.0
  0
VERTEX
  8
Image
 10
269.056891815733
 20
1501.67755661992
 42
0.0
  0
SEQEND
  0
POLYLINE
  8
Image
 66
     1
 10
0.0
 20
0.0
 30
0.0
 70
     1
  0
VERTEX
  8
Image
 10
68.882360245698
 20
1644.39770124
 42
-0.0531058458642
  0
VERTEX
  8
Image
 10
76.5163947753058
 20
1632.86385239034
 42
0.0521561025412
  0
VERTEX
  8
Image
 10
104.149672136675
 20
1601.07277129169
 42
0.0
  0
VERTEX
  8
Image
 10
106.335719883229
 20
1598.70018999092
 42
0.0756334464088
  0
VERTEX
  8
Image
 10
74.7963239384005
 20
1563.38401306948
 42
-0.0486093172074
  0
VERTEX
  8
Image
 10
68.882360245698
 20
1555.48756782
 42
0.0
  0
SEQEND
  0
POLYLINE
  8
Image
 66
     1
 10
0.0
 20
0.0
 30
0.0
 70
     1
  0
VERTEX
  8
Image
 10
225.19926888643
 20
1709.24287442787
 42
-0.4463299660841
  0
VERTEX
  8
Image
 10
232.602440599899
 20
1714.58133285508
 42
-0.2006699730476
  0
VERTEX
  8
Image
 10
245.132295218174
 20
1707.46975936511
 42
-0.1382831777469
  0
VERTEX
  8
Image
 10
253.90287266603
 20
1689.78365614552
 42
-0.37488492674
  0
VERTEX
  8
Image
 10
235.900234948349
 20
1662.25611979534
 42
-0.2643155890693
  0
VERTEX
  8
Image
 10
227.977986904794
 20
1665.36093586378
 42
0.0948511094496
  0
VERTEX
  8
Image
 10
221.271756954203
 20
1669.06418852403
 42
-0.3029840592754
  0
VERTEX
  8
Image
 10
219.596105178555
 20
1673.75442778259
 42
0.0985278257077
  0
VERTEX
  8
Image
 10
218.271423351325
 20
1679.46640645938
 42
0.0
  0
VERTEX
  8
Image
 10
219.026953768971
 20
1679.64320916687
 42
-0.2273751334106
  0
VERTEX
  8
Image
 10
185.647990555017
 20
1692.90709222948
 42
-0.1399731790911
  0
VERTEX
  8
Image
 10
179.531425574196
 20
1703.82644922339
 42
0.0742892170556
  0
VERTEX
  8
Image
 10
141.165013731765
 20
1726.12459149749
 42
-0.1936437737255
  0
VERTEX
  8
Image
 10
141.570779728497
 20
1698.96891345045
 42
-0.0005673089747
  0
VERTEX
  8
Image
 10
141.208288012924
 20
1697.85545813453
 42
0.0
  0
VERTEX
  8
Image
 10
141.359404017084
 20
1697.94386529269
 42
0.0
  0
VERTEX
  8
Image
 10
135.995195095423
 20
1689.27978675744
 42
0.0
  0
VERTEX
  8
Image
 10
135.84410389284
 20
1689.36820842666
 42
0.1418855472088
  0
VERTEX
  8
Image
 10
114.021511750067
 20
1712.98701243581
 42
-0.1809152374938
  0
VERTEX
  8
Image
 10
107.852336194626
 20
1721.14748558725
 42
0.3447443819686
  0
VERTEX
  8
Image
 10
98.5851225220622
 20
1726.70903453864
 42
-0.2227795454187
  0
VERTEX
  8
Image
 10
87.7987257132968
 20
1729.32735403471
 42
0.2975559897019
  0
VERTEX
  8
Image
 10
79.9024621284511
 20
1728.12619736866
 42
-0.0499873703396
  0
VERTEX
  8
Image
 10
74.6872320764794
 20
1724.80213033914
 42
-0.0709739415723
  0
VERTEX
  8
Image
 10
73.3625096825515
 20
1724.73177983302
 42
0.0869680091868
  0
VERTEX
  8
Image
 10
75.3131526870009
 20
1672.39595833808
 42
0.1916690004862
  0
VERTEX
  8
Image
 10
114.381164245924
 20
1623.05132168357
 42
-0.2252751805676
  0
VERTEX
  8
Image
 10
122.755947865426
 20
1612.49896873254
 42
0.180559412197
  0
VERTEX
  8
Image
 10
130.642942415677
 20
1604.56424627258
 42
-0.1209157162659
  0
VERTEX
  8
Image
 10
158.965512205202
 20
1578.95267803209
 42
-0.0390610961759
  0
VERTEX
  8
Image
 10
161.829286219072
 20
1573.45856565832
 42
-0.1225094950143
  0
VERTEX
  8
Image
 10
184.1954263456
 20
1538.73280196381
 42
-0.107889024067
  0
VERTEX
  8
Image
 10
212.34367339639
 20
1585.34561579402
 42
0.0532824332864
  0
VERTEX
  8
Image
 10
241.632890801948
 20
1619.55773021634
 42
0.1197473370396
  0
VERTEX
  8
Image
 10
260.630452875783
 20
1689.26277059295
 42
0.1611432798004
  0
VERTEX
  8
Image
 10
250.199112134786
 20
1723.15663262376
 42
0.0035085885873
  0
VERTEX
  8
Image
 10
246.832546550113
 20
1728.35540530414
 42
-0.2485645954426
  0
VERTEX
  8
Image
 10
238.972703818743
 20
1724.37814249372
 42
0.1721359990876
  0
VERTEX
  8
Image
 10
222.270106904624
 20
1736.25761192773
 42
0.4292303897789
  0
VERTEX
  8
Image
 10
203.772741040427
 20
1722.61758226778
 42
0.1516675400313
  0
VERTEX
  8
Image
 10
205.514939079301
 20
1702.58354314506
 42
0.1551596013707
  0
VERTEX
  8
Image
 10
209.427429272333
 20
1697.66529945101
 42
0.3405376010413
  0
VERTEX
  8
Image
 10
214.459707412862
 20
1698.43852234995
 42
0.1628653735416
  0
VERTEX
  8
Image
 10
213.870532453227
 20
1704.41232526746
 42
-0.2030230986473
  0
VERTEX
  8
Image
 10
220.762146448935
 20
1701.03653702564
 42
0.0
  0
VERTEX
  8
Image
 10
220.388188282068
 20
1701.34911097839
 42
0.0953285914573
  0
VERTEX
  8
Image
 10
226.189519577722
 20
1678.89006531452
 42
0.1703907173476
  0
VERTEX
  8
Image
 10
229.498697350819
 20
1675.28481071648
 42
0.4464051075425
  0
VERTEX
  8
Image
 10
233.45540738715
 20
1678.16423733884
 42
0.1760213921493
  0
VERTEX
  8
Image
 10
225.254902655807
 20
1706.57322789718
 42
0.0489556841626
  0
VERTEX
  8
Image
 10
224.617799494506
 20
1707.22680554396
 42
0.4773475692775
  0
SEQEND
  0
POLYLINE
  8
Image
 66
     1
 10
0.0
 20
0.0
 30
0.0
 70
     1
  0
VERTEX
  8
Image
 10
155.579098669589
 20
1790.80697470328
 42
-0.4286721180194
  0
VERTEX
  8
Image
 10
149.141115023107
 20
1789.5393625895
 42
-0.195705069504
  0
VERTEX
  8
Image
 10
143.694582343141
 20
1793.00789615152
 42
0.599045225225
  0
VERTEX
  8
Image
 10
139.466931306164
 20
1791.98770741419
 42
0.5436854792218
  0
VERTEX
  8
Image
 10
143.117567621608
 20
1782.11673193962
 42
0.0631562596238
  0
VERTEX
  8
Image
 10
153.341764754595
 20
1780.11747136328
 42
0.2546865206604
  0
VERTEX
  8
Image
 10
141.893388263893
 20
1769.01786423181
 42
-0.2941466356712
  0
VERTEX
  8
Image
 10
130.948408603509
 20
1759.98875337846
 42
-0.4509808120125
  0
VERTEX
  8
Image
 10
124.987960029066
 20
1765.74292721427
 42
-0.1783753703488
  0
VERTEX
  8
Image
 10
137.893763041692
 20
1803.72317195002
 42
-0.0517438866936
  0
VERTEX
  8
Image
 10
156.440374486368
 20
1822.62737512114
 42
0.0
  0
VERTEX
  8
Image
 10
156.62092996155
 20
1823.0425393383
 42
0.0767551680737
  0
VERTEX
  8
Image
 10
123.313486485517
 20
1814.33318370756
 42
0.1016573992349
  0
VERTEX
  8
Image
 10
101.337877988564
 20
1796.82251703144
 42
0.1282602514116
  0
VERTEX
  8
Image
 10
73.2113936783915
 20
1743.29766033555
 42
0.0
  0
VERTEX
  8
Image
 10
73.0603024758084
 20
1743.29766033555
 42
0.2667448509671
  0
VERTEX
  8
Image
 10
82.0678145981224
 20
1744.04632288714
 42
-0.1980968774149
  0
VERTEX
  8
Image
 10
92.586792422625
 20
1743.62684039248
 42
-0.1628539367135
  0
VERTEX
  8
Image
 10
103.545424312907
 20
1739.16427643364
 42
0.2548710806438
  0
VERTEX
  8
Image
 10
110.458549716963
 20
1738.19941553941
 42
0.5117406822945
  0
VERTEX
  8
Image
 10
108.657644687069
 20
1749.86265295811
 42
0.0360825433122
  0
VERTEX
  8
Image
 10
104.187768778227
 20
1751.96173887081
 42
-0.1195816819911
  0
VERTEX
  8
Image
 10
112.055094247838
 20
1754.51234837941
 42
-0.2085069589446
  0
VERTEX
  8
Image
 10
119.690535632127
 20
1748.3747474871
 42
0.1280559036761
  0
VERTEX
  8
Image
 10
127.595403184509
 20
1741.96100146914
 42
-0.0620593080151
  0
VERTEX
  8
Image
 10
133.600002093736
 20
1737.90702232584
 42
-0.1537167199284
  0
VERTEX
  8
Image
 10
178.505813721341
 20
1714.64147691169
 42
-0.1583491771433
  0
VERTEX
  8
Image
 10
185.601228180769
 20
1737.69848234219
 42
-0.122291828232
  0
VERTEX
  8
Image
 10
209.809596760942
 20
1756.20536952916
 42
0.1371181042079
  0
VERTEX
  8
Image
 10
220.991313013589
 20
1766.10717149645
 42
0.0813438577444
  0
VERTEX
  8
Image
 10
254.509696276192
 20
1731.91930651854
 42
0.0477912250347
  0
VERTEX
  8
Image
 10
258.616246661772
 20
1729.85949948631
 42
0.0
  0
VERTEX
  8
Image
 10
257.731128008161
 20
1730.48090063714
 42
0.0478244916115
  0
VERTEX
  8
Image
 10
236.366726429377
 20
1780.89324509437
 42
0.1199817543709
  0
VERTEX
  8
Image
 10
206.718605731249
 20
1813.77447504354
 42
0.287653691588
  0
VERTEX
  8
Image
 10
185.460622209625
 20
1817.34572405978
 42
0.076352242262
  0
VERTEX
  8
Image
 10
175.962819331055
 20
1809.93392822365
 42
-0.0097584007712
  0
SEQEND
  0
POLYLINE
  8
Image
 66
     1
 10
0.0
 20
0.0
 30
0.0
 70
     1
  0
VERTEX
  8
Image
 10
148.741436817188
 20
1374.64768323853
 42
-0.0921195204318
  0
VERTEX
  8
Image
 10
135.732100372286
 20
1388.04717685121
 42
-0.0685238022517
  0
VERTEX
  8
Image
 10
128.828294665692
 20
1402.48786319916
 42
-0.1638704504105
  0
VERTEX
  8
Image
 10
127.439281342157
 20
1422.29708697893
 42
-0.1254517306113
  0
VERTEX
  8
Image
 10
130.849219424937
 20
1428.03392384529
 42
-0.1459696728327
  0
VERTEX
  8
Image
 10
136.236930660691
 20
1431.04818430249
 42
-0.2122558156048
  0
VERTEX
  8
Image
 10
144.61141507666
 20
1429.20401720423
 42
-0.1476714377719
  0
VERTEX
  8
Image
 10
149.261606538082
 20
1422.68210613646
 42
-0.0553431155981
  0
VERTEX
  8
Image
 10
149.927812651074
 20
1419.75028693767
 42
-0.028632257087
  0
VERTEX
  8
Image
 10
150.670634991261
 20
1412.40675843819
 42
0.2026327159152
  0
VERTEX
  8
Image
 10
143.957096313109
 20
1413.74038253776
 42
0.1934473668295
  0
VERTEX
  8
Image
 10
141.402316240431
 20
1409.51874924323
 42
0.0366645958522
  0
VERTEX
  8
Image
 10
141.303749279954
 20
1408.44747482628
 42
0.1409739969714
  0
VERTEX
  8
Image
 10
142.696643076037
 20
1396.87252657509
 42
0.0
  0
VERTEX
  8
Image
 10
143.019289097931
 20
1396.15148156076
 42
0.2718953924514
  0
VERTEX
  8
Image
 10
144.015790376739
 20
1394.54271372428
 42
0.2362757642486
  0
VERTEX
  8
Image
 10
145.328301059863
 20
1394.5275991544
 42
-0.1285020183251
  0
VERTEX
  8
Image
 10
149.148468092728
 20
1399.91698670261
 42
-0.1447043037901
  0
VERTEX
  8
Image
 10
154.607815574905
 20
1402.3809377392
 42
-0.2328210888281
  0
VERTEX
  8
Image
 10
158.071465012306
 20
1401.16988627748
 42
-0.2205397181213
  0
VERTEX
  8
Image
 10
159.580711351129
 20
1396.69219219755
 42
-0.1360654746185
  0
VERTEX
  8
Image
 10
156.822086008172
 20
1388.24448864565
 42
-0.0198691322624
  0
VERTEX
  8
Image
 10
156.119838914768
 20
1387.27581495824
 42
-0.3061815072682
  0
VERTEX
  8
Image
 10
158.148673778907
 20
1386.54977282996
 42
-0.0522835315024
  0
VERTEX
  8
Image
 10
158.406617354489
 20
1386.11713625474
 42
0.0847319950614
  0
VERTEX
  8
Image
 10
170.882059270222
 20
1376.80422792214
 42
0.0802913106041
  0
VERTEX
  8
Image
 10
183.543092112904
 20
1372.67751603167
 42
0.6885724427448
  0
VERTEX
  8
Image
 10
184.663682588689
 20
1372.71694606396
 42
0.1666214584123
  0
VERTEX
  8
Image
 10
184.679753857188
 20
1373.26027665193
 42
-0.1534246803556
  0
VERTEX
  8
Image
 10
186.154913610683
 20
1378.30017833184
 42
-0.1137442195539
  0
VERTEX
  8
Image
 10
188.448732092275
 20
1380.50322445653
 42
-0.2654528780019
  0
VERTEX
  8
Image
 10
192.192626213003
 20
1379.27779036766
 42
-0.0615908601699
  0
VERTEX
  8
Image
 10
192.888230817587
 20
1378.29416740576
 42
-0.019539569885
  0
VERTEX
  8
Image
 10
195.270843246252
 20
1374.16301639973
 42
0.118210239763
  0
VERTEX
  8
Image
 10
221.389235238026
 20
1380.37941050245
 42
0.0882222326329
  0
VERTEX
  8
Image
 10
239.804265067954
 20
1394.46575905743
 42
0.0454153499691
  0
VERTEX
  8
Image
 10
247.925929579657
 20
1405.16420886914
 42
0.0043136386522
  0
VERTEX
  8
Image
 10
251.320317369853
 20
1410.40629326673
 42
0.0
  0
VERTEX
  8
Image
 10
250.038175083453
 20
1410.2812660074
 42
0.4490139583038
  0
VERTEX
  8
Image
 10
250.391987337001
 20
1413.63988620248
 42
-0.0889075458759
  0
VERTEX
  8
Image
 10
242.643040769229
 20
1421.32739707603
 42
-0.2639855688828
  0
VERTEX
  8
Image
 10
241.822290006396
 20
1431.60840935495
 42
-0.1437190942969
  0
VERTEX
  8
Image
 10
244.886765019032
 20
1435.22201581116
 42
0.0
  0
VERTEX
  8
Image
 10
245.123221914189
 20
1435.37041764579
 42
-0.1886228935681
  0
VERTEX
  8
Image
 10
251.96141331463
 20
1433.53665548678
 42
-0.1116694773074
  0
VERTEX
  8
Image
 10
259.813533612012
 20
1425.81690764362
 42
-0.0348322724863
  0
VERTEX
  8
Image
 10
261.684474462625
 20
1422.40908429548
 42
0.0
  0
VERTEX
  8
Image
 10
261.684474462625
 20
1422.15902977682
 42
0.0865794104166
  0
VERTEX
  8
Image
 10
269.045757908222
 20
1426.42447092
 42
0.0
  0
VERTEX
  8
Image
 10
269.137742468247
 20
1469.18923134134
 42
-0.0398597701778
  0
VERTEX
  8
Image
 10
264.740555322616
 20
1461.50777939618
 42
-0.083200237701
  0
VERTEX
  8
Image
 10
254.086479078296
 20
1450.27847072251
 42
0.0
  0
VERTEX
  8
Image
 10
253.991447133188
 20
1450.20718890823
 42
-0.0850486375097
  0
VERTEX
  8
Image
 10
238.486260272551
 20
1439.95093368673
 42
-0.0680790565245
  0
VERTEX
  8
Image
 10
225.351802143957
 20
1436.16275033082
 42
-0.140657880499
  0
VERTEX
  8
Image
 10
205.681011479448
 20
1439.82036191204
 42
-0.0938001213234
  0
VERTEX
  8
Image
 10
193.28901653342
 20
1449.42437483603
 42
-0.0293128089747
  0
VERTEX
  8
Image
 10
186.345773653526
 20
1458.04556416302
 42
0.0656293689206
  0
VERTEX
  8
Image
 10
151.220736767448
 20
1473.08211129389
 42
0.0121194627474
  0
VERTEX
  8
Image
 10
144.557358476455
 20
1474.77665776072
 42
-0.1386126041202
  0
VERTEX
  8
Image
 10
142.642395290469
 20
1463.01134009605
 42
-0.1080687259025
  0
VERTEX
  8
Image
 10
137.940625850781
 20
1456.7132419081
 42
-0.0815818303816
  0
VERTEX
  8
Image
 10
135.42901186067
 20
1455.02361367263
 42
-0.0443107937319
  0
VERTEX
  8
Image
 10
129.728655226227
 20
1452.66614540814
 42
0.0
  0
VERTEX
  8
Image
 10
129.728655226227
 20
1451.16578927402
 42
0.093377088226
  0
VERTEX
  8
Image
 10
123.853607290423
 20
1460.53644554965
 42
0.0899373774142
  0
VERTEX
  8
Image
 10
116.652639137004
 20
1466.03652600336
 42
0.243710555609
  0
VERTEX
  8
Image
 10
109.256143107584
 20
1464.92689055715
 42
0.0791874309257
  0
VERTEX
  8
Image
 10
108.366521742473
 20
1464.09739173618
 42
-0.1318852896199
  0
VERTEX
  8
Image
 10
102.494031721566
 20
1460.64558201274
 42
-0.0556334806186
  0
VERTEX
  8
Image
 10
99.8343924170681
 20
1460.22373377419
 42
0.071690597935
  0
VERTEX
  8
Image
 10
92.1898574523996
 20
1460.91806061264
 42
0.0756004069658
  0
VERTEX
  8
Image
 10
84.2831645434721
 20
1456.54207751383
 42
-0.040159912606
  0
VERTEX
  8
Image
 10
76.4361576558345
 20
1452.71871893355
 42
0.0534099229624
  0
VERTEX
  8
Image
 10
91.7838944429418
 20
1413.61066438217
 42
0.0352930535064
  0
VERTEX
  8
Image
 10
105.34146507741
 20
1391.50100325951
 42
0.0764541910795
  0
VERTEX
  8
Image
 10
116.209359626391
 20
1378.8306900601
 42
0.0564702705824
  0
VERTEX
  8
Image
 10
125.340664910346
 20
1372.59868248224
 42
0.0787422023095
  0
VERTEX
  8
Image
 10
149.498843093391
 20
1367.46343566624
 42
0.0046639525514
  0
VERTEX
  8
Image
 10
157.722541574345
 20
1367.14619402855
 42
0.0
  0
VERTEX
  8
Image
 10
157.754213187231
 20
1367.29438093341
 42
-0.0057011210613
  0
SEQEND
  0
POLYLINE
  8
Image
 66
     1
 10
0.0
 20
0.0
 30
0.0
 70
     1
  0
VERTEX
  8
Image
 10
132.506654981672
 20
1499.0936309049
 42
-0.1500346850734
  0
VERTEX
  8
Image
 10
140.772213833075
 20
1489.30007062311
 42
-0.0270257434373
  0
VERTEX
  8
Image
 10
142.291253014137
 20
1485.95249825463
 42
-0.1690948689731
  0
VERTEX
  8
Image
 10
178.347571686938
 20
1472.0349135106
 42
-0.0916923403031
  0
VERTEX
  8
Image
 10
174.602370369857
 20
1490.27122804099
 42
0.0
  0
VERTEX
  8
Image
 10
175.508942386933
 20
1490.53646112434
 42
0.1206005920977
  0
VERTEX
  8
Image
 10
187.219527451774
 20
1480.54623748783
 42
0.0
  0
VERTEX
  8
Image
 10
187.672825861101
 20
1481.25350636201
 42
-0.0916465885298
  0
VERTEX
  8
Image
 10
181.22423533957
 20
1518.80341100684
 42
0.0570772128285
  0
VERTEX
  8
Image
 10
166.939445770282
 20
1543.76101692456
 42
0.048491956872
  0
VERTEX
  8
Image
 10
166.435090177558
 20
1527.15785411905
 42
-0.3818915308147
  0
VERTEX
  8
Image
 10
166.744933391384
 20
1524.75065821261
 42
-0.3260213263417
  0
VERTEX
  8
Image
 10
175.489130441478
 20
1517.75610899324
 42
-0.2452384967907
  0
VERTEX
  8
Image
 10
176.460230812957
 20
1511.07944247066
 42
0.1192623939003
  0
VERTEX
  8
Image
 10
172.029910058754
 20
1507.30380530972
 42
-0.2786960714856
  0
VERTEX
  8
Image
 10
160.952503061988
 20
1504.70275015245
 42
0.1457778284232
  0
VERTEX
  8
Image
 10
151.496421503386
 20
1505.03145886132
 42
-0.29468981776
  0
VERTEX
  8
Image
 10
143.654417876416
 20
1507.51224912185
 42
-0.3134547449303
  0
VERTEX
  8
Image
 10
145.94139151802
 20
1514.87081598477
 42
0.236592865214
  0
VERTEX
  8
Image
 10
153.089682121468
 20
1530.38039316405
 42
0.2604103855802
  0
VERTEX
  8
Image
 10
128.878053588806
 20
1583.55586021013
 42
0.2893124060561
  0
VERTEX
  8
Image
 10
115.56001309304
 20
1584.54035353798
 42
0.1039609125275
  0
VERTEX
  8
Image
 10
101.130347856447
 20
1571.68757095318
 42
0.1261718683658
  0
VERTEX
  8
Image
 10
75.3663196174145
 20
1519.26315444305
 42
0.028885830118
  0
VERTEX
  8
Image
 10
73.099860989945
 20
1491.42517624396
 42
0.0
  0
VERTEX
  8
Image
 10
73.3135513710115
 20
1491.67523076263
 42
-0.1407331883621
  0
VERTEX
  8
Image
 10
101.307412917553
 20
1497.92668079567
 42
0.0
  0
VERTEX
  8
Image
 10
100.666341774352
 20
1497.676626277
 42
-0.0612582220383
  0
VERTEX
  8
Image
 10
87.6605318175559
 20
1488.7193689803
 42
0.0572975943942
  0
VERTEX
  8
Image
 10
77.8011237781423
 20
1479.92249425255
 42
0.0
  0
VERTEX
  8
Image
 10
78.1978993951695
 20
1479.66222395039
 42
0.3287839401365
  0
VERTEX
  8
Image
 10
82.8720243456562
 20
1472.66324761262
 42
0.3912641400764
  0
VERTEX
  8
Image
 10
100.560020683501
 20
1479.19953300654
 42
-0.2972427901865
  0
VERTEX
  8
Image
 10
108.141636065792
 20
1482.28501027363
 42
0.4746128020285
  0
VERTEX
  8
Image
 10
112.914872529336
 20
1486.70270021622
 42
0.2848001037172
  0
VERTEX
  8
Image
 10
108.69979531458
 20
1498.63727753242
 42
-0.1497049357062
  0
VERTEX
  8
Image
 10
104.213159280041
 20
1503.43622776804
 42
-0.205433155585
  0
VERTEX
  8
Image
 10
109.188099419032
 20
1506.85938189235
 42
-0.342900774325
  0
VERTEX
  8
Image
 10
119.018939256553
 20
1504.9936353462
 42
0.2265157853513
  0
VERTEX
  8
Image
 10
130.012429435649
 20
1499.5839812239
 42
-0.0785694103671
  0
SEQEND
  0
POLYLINE
  8
Image
 66
     1
 10
0.0
 20
0.0
 30
0.0
 70
     1
  0
VERTEX
  8
Image
 10
268.589134087446
 20
1359.14433334271
 42
0.0
  0
VERTEX
  8
Image
 10
268.589134087446
 20
1313.24368624861
 42
0.0
  0
VERTEX
  8
Image
 10
268.891341294189
 20
1312.18275391523
 42
0.0849043780154
  0
VERTEX
  8
Image
 10
246.997620099424
 20
1342.00249470676
 42
0.0079014284212
  0
VERTEX
  8
Image
 10
229.604982151598
 20
1359.14433334271
 42
0.0486224035111
  0
VERTEX
  8
Image
 10
260.882837914709
 20
1392.01945017433
 42
0.0428693709403
  0
VERTEX
  8
Image
 10
268.891341294189
 20
1406.10591277019
 42
0.0
  0
VERTEX
  8
Image
 10
268.589134087446
 20
1405.04498043681
 42
0.0
  0
SEQEND
  0
POLYLINE
  8
Image
 66
     1
 10
0.0
 20
0.0
 30
0.0
 70
     1
  0
VERTEX
  8
Image
 10
69.2155916615945
 20
1436.66242403647
 42
0.1264427943043
  0
VERTEX
  8
Image
 10
111.006295921794
 20
1363.36080632088
 42
0.0013136262926
  0
VERTEX
  8
Image
 10
114.946027654015
 20
1359.14433334271
 42
0.1284661949913
  0
VERTEX
  8
Image
 10
69.2155916615945
 20
1281.62624264895
 42
0.0
  0
SEQEND
  0
ENDSEC
  0
EOF
