  0
SECTION
  2
HEADER
  9
$ACADVER
  1
AC1009
  9
$EXTMAX
 10
-2546.0
 20
2697.0
 30
0.0
  9
$EXTMIN
 10
-3711.0
 20
349.0
 30
0.0
  9
$INSUNITS
 70
     4
  9
$LUNITS
 70
     2
  9
$LUPREC
 70
     4
  9
$MEASUREMENT
 70
     1
  0
ENDSEC
  0
SECTION
  2
TABLES
  0
TABLE
  2
LAYER
 70
     1
  0
LAYER
  2
0
 70
     0
 62
     7
  6
Continuous
  0
LAYER
  2
Default
 70
     0
 62
    70
  6
Continuous
  0
ENDTAB
  0
TABLE
  2
APPID
 70
     1
  0
APPID
  2
ACAD
 70
     0
  0
ENDTAB
  0
ENDSEC
  0
SECTION
  2
ENTITIES
  0
POLYLINE
  8
Default
 66
     1
 10
0.0
 20
0.0
 30
0.0
 70
     1
  0
VERTEX
  8
Default
 10
-3645.99999856
 20
2626.99999680928
 42
0.0
  0
VERTEX
  8
Default
 10
-3645.99999856
 20
2106.99999692
 42
0.0
  0
VERTEX
  8
Default
 10
-2585.99999848
 20
2106.99999692
 42
0.0
  0
VERTEX
  8
Default
 10
-2585.99999848
 20
2626.99999680928
 42
0.0
  0
VERTEX
  8
Default
 10
-2545.99999852
 20
2626.99999680928
 42
0.0
  0
VERTEX
  8
Default
 10
-2545.99999852
 20
2696.99999712
 42
0.0
  0
VERTEX
  8
Default
 10
-3685.99999852
 20
2696.99999712
 42
0.0
  0
VERTEX
  8
Default
 10
-3685.99999852
 20
2626.99999680928
 42
0.0
  0
SEQEND
  0
POLYLINE
  8
Default
 66
     1
 10
0.0
 20
0.0
 30
0.0
 70
     1
  0
VERTEX
  8
Default
 10
-3660.99999992
 20
1499.99999692
 42
0.0
  0
VERTEX
  8
Default
 10
-2585.99999844
 20
1499.99999692
 42
0.0
  0
VERTEX
  8
Default
 10
-2585.99999844
 20
2029.99999692
 42
0.0
  0
VERTEX
  8
Default
 10
-2545.99999848
 20
2029.99999692
 42
0.0
  0
VERTEX
  8
Default
 10
-2545.99999848
 20
2099.99999692
 42
0.0
  0
VERTEX
  8
Default
 10
-3700.99999988
 20
2099.99999692
 42
0.0
  0
VERTEX
  8
Default
 10
-3700.99999988
 20
2029.99999692
 42
0.0
  0
VERTEX
  8
Default
 10
-3660.99999992
 20
2029.99999692
 42
0.0
  0
SEQEND
  0
POLYLINE
  8
Default
 66
     1
 10
0.0
 20
0.0
 30
0.0
 70
     1
  0
VERTEX
  8
Default
 10
-3660.99999996
 20
1424.99999660928
 42
0.0
  0
VERTEX
  8
Default
 10
-3660.99999996
 20
909.9999994
 42
0.0
  0
VERTEX
  8
Default
 10
-2591.00000259
 20
909.9999994
 42
0.0
  0
VERTEX
  8
Default
 10
-2591.00000259
 20
1424.99999660928
 42
0.0
  0
VERTEX
  8
Default
 10
-2551.00000263
 20
1424.99999660928
 42
0.0
  0
VERTEX
  8
Default
 10
-2551.00000263
 20
1494.99999692
 42
0.0
  0
VERTEX
  8
Default
 10
-3700.99999992
 20
1494.99999692
 42
0.0
  0
VERTEX
  8
Default
 10
-3700.99999992
 20
1424.99999660928
 42
0.0
  0
SEQEND
  0
POLYLINE
  8
Default
 66
     1
 10
0.0
 20
0.0
 30
0.0
 70
     1
  0
VERTEX
  8
Default
 10
-3671.0
 20
349.0
 42
0.0
  0
VERTEX
  8
Default
 10
-2611.00000517
 20
349.0
 42
0.0
  0
VERTEX
  8
Default
 10
-2611.00000517
 20
833.999999089284
 42
0.0
  0
VERTEX
  8
Default
 10
-2571.00000521
 20
833.999999089283
 42
0.0
  0
VERTEX
  8
Default
 10
-2571.00000521
 20
903.9999994
 42
0.0
  0
VERTEX
  8
Default
 10
-3710.99999996
 20
903.9999994
 42
0.0
  0
VERTEX
  8
Default
 10
-3710.99999996
 20
833.999999089284
 42
0.0
  0
VERTEX
  8
Default
 10
-3671.0
 20
833.999999089284
 42
0.0
  0
SEQEND
  0
ENDSEC
  0
EOF
