  0
SECTION
  2
HEADER
  9
$ACADVER
  1
AC1009
  9
$EXTMAX
 10
-1159.0
 20
2769.0
 30
0.0
  9
$EXTMIN
 10
-2309.0
 20
390.0
 30
0.0
  9
$INSUNITS
 70
     4
  9
$LUNITS
 70
     2
  9
$LUPREC
 70
     4
  9
$MEASUREMENT
 70
     1
  0
ENDSEC
  0
SECTION
  2
TABLES
  0
TABLE
  2
LAYER
 70
     1
  0
LAYER
  2
0
 70
     0
 62
     7
  6
Continuous
  0
LAYER
  2
Default
 70
     0
 62
    70
  6
Continuous
  0
ENDTAB
  0
TABLE
  2
APPID
 70
     1
  0
APPID
  2
ACAD
 70
     0
  0
ENDTAB
  0
ENDSEC
  0
SECTION
  2
ENTITIES
  0
POLYLINE
  8
Default
 66
     1
 10
0.0
 20
0.0
 30
0.0
 70
     1
  0
VERTEX
  8
Default
 10
-1161.99999864
 20
2243.99999523928
 42
0.0
  0
VERTEX
  8
Default
 10
-1201.9999986
 20
2243.99999523928
 42
0.0
  0
VERTEX
  8
Default
 10
-1201.9999986
 20
1783.9999968
 42
0.0
  0
VERTEX
  8
Default
 10
-2266.99999988
 20
1783.9999968
 42
0.0
  0
VERTEX
  8
Default
 10
-2266.99999988
 20
2243.99999523928
 42
0.0
  0
VERTEX
  8
Default
 10
-2306.99999984
 20
2243.99999523928
 42
0.0
  0
VERTEX
  8
Default
 10
-2306.99999984
 20
2313.99999555
 42
0.0
  0
VERTEX
  8
Default
 10
-1161.99999864
 20
2313.99999555
 42
0.0
  0
SEQEND
  0
POLYLINE
  8
Default
 66
     1
 10
0.0
 20
0.0
 30
0.0
 70
     1
  0
VERTEX
  8
Default
 10
-2266.99999992
 20
1311.0000015
 42
0.0
  0
VERTEX
  8
Default
 10
-1207.00000806
 20
1311.0000015
 42
0.0
  0
VERTEX
  8
Default
 10
-1207.00000806
 20
1710.99999648928
 42
0.0
  0
VERTEX
  8
Default
 10
-1167.0000081
 20
1710.99999648928
 42
0.0
  0
VERTEX
  8
Default
 10
-1167.0000081
 20
1780.9999968
 42
0.0
  0
VERTEX
  8
Default
 10
-2306.99999988
 20
1780.9999968
 42
0.0
  0
VERTEX
  8
Default
 10
-2306.99999988
 20
1710.99999648928
 42
0.0
  0
VERTEX
  8
Default
 10
-2266.99999992
 20
1710.99999648928
 42
0.0
  0
SEQEND
  0
POLYLINE
  8
Default
 66
     1
 10
0.0
 20
0.0
 30
0.0
 70
     1
  0
VERTEX
  8
Default
 10
-2267.0
 20
390.0
 42
0.0
  0
VERTEX
  8
Default
 10
-1201.99999685
 20
390.0
 42
0.0
  0
VERTEX
  8
Default
 10
-1201.99999685
 20
779.999998789284
 42
0.0
  0
VERTEX
  8
Default
 10
-1161.99999689
 20
779.999998789283
 42
0.0
  0
VERTEX
  8
Default
 10
-1161.99999689
 20
849.9999991
 42
0.0
  0
VERTEX
  8
Default
 10
-2306.99999996
 20
849.9999991
 42
0.0
  0
VERTEX
  8
Default
 10
-2306.99999996
 20
779.999998789284
 42
0.0
  0
VERTEX
  8
Default
 10
-2267.0
 20
779.999998789284
 42
0.0
  0
SEQEND
  0
POLYLINE
  8
Default
 66
     1
 10
0.0
 20
0.0
 30
0.0
 70
     1
  0
VERTEX
  8
Default
 10
-2268.99999996
 20
855.9999991
 42
0.0
  0
VERTEX
  8
Default
 10
-1199.00000622
 20
855.9999991
 42
0.0
  0
VERTEX
  8
Default
 10
-1199.00000622
 20
1236.00000118928
 42
0.0
  0
VERTEX
  8
Default
 10
-1159.00000626
 20
1236.00000118928
 42
0.0
  0
VERTEX
  8
Default
 10
-1159.00000626
 20
1306.0000015
 42
0.0
  0
VERTEX
  8
Default
 10
-2308.99999992
 20
1306.0000015
 42
0.0
  0
VERTEX
  8
Default
 10
-2308.99999992
 20
1236.00000118928
 42
0.0
  0
VERTEX
  8
Default
 10
-2268.99999996
 20
1236.00000118928
 42
0.0
  0
SEQEND
  0
POLYLINE
  8
Default
 66
     1
 10
0.0
 20
0.0
 30
0.0
 70
     1
  0
VERTEX
  8
Default
 10
-2264.99999984
 20
2318.99999555
 42
0.0
  0
VERTEX
  8
Default
 10
-1204.99999728
 20
2318.99999555
 42
0.0
  0
VERTEX
  8
Default
 10
-1204.99999728
 20
2698.99999775928
 42
0.0
  0
VERTEX
  8
Default
 10
-1164.99999732
 20
2698.99999775928
 42
0.0
  0
VERTEX
  8
Default
 10
-1164.99999732
 20
2768.99999807
 42
0.0
  0
VERTEX
  8
Default
 10
-2304.9999998
 20
2768.99999807
 42
0.0
  0
VERTEX
  8
Default
 10
-2304.9999998
 20
2698.99999775928
 42
0.0
  0
VERTEX
  8
Default
 10
-2264.99999984
 20
2698.99999775928
 42
0.0
  0
SEQEND
  0
ENDSEC
  0
EOF
