  0
SECTION
  2
HEADER
  9
$ACADVER
  1
AC1009
  9
$EXTMAX
 10
1042.0
 20
2229.0
 30
0.0
  9
$EXTMIN
 10
-128.0
 20
-207.0
 30
0.0
  9
$INSUNITS
 70
     4
  9
$LUNITS
 70
     2
  9
$LUPREC
 70
     4
  9
$MEASUREMENT
 70
     1
  0
ENDSEC
  0
SECTION
  2
TABLES
  0
TABLE
  2
LAYER
 70
     1
  0
LAYER
  2
0
 70
     0
 62
     7
  6
Continuous
  0
LAYER
  2
Default
 70
     0
 62
    70
  6
Continuous
  0
ENDTAB
  0
TABLE
  2
APPID
 70
     1
  0
APPID
  2
ACAD
 70
     0
  0
ENDTAB
  0
ENDSEC
  0
SECTION
  2
ENTITIES
  0
POLYLINE
  8
Default
 66
     1
 10
0.0
 20
0.0
 30
0.0
 70
     1
  0
VERTEX
  8
Default
 10
-87.9999997999998
 20
1783.9999994
 42
0.0
  0
VERTEX
  8
Default
 10
981.99999724
 20
1783.9999994
 42
0.0
  0
VERTEX
  8
Default
 10
981.99999724
 20
2158.99999901928
 42
0.0
  0
VERTEX
  8
Default
 10
1021.9999972
 20
2158.99999901928
 42
0.0
  0
VERTEX
  8
Default
 10
1021.9999972
 20
2228.99999933
 42
0.0
  0
VERTEX
  8
Default
 10
-127.99999976
 20
2228.99999933
 42
0.0
  0
VERTEX
  8
Default
 10
-127.99999976
 20
2158.99999901928
 42
0.0
  0
VERTEX
  8
Default
 10
-87.9999997999998
 20
2158.99999901928
 42
0.0
  0
SEQEND
  0
POLYLINE
  8
Default
 66
     1
 10
0.0
 20
0.0
 30
0.0
 70
     1
  0
VERTEX
  8
Default
 10
-77.9999998399994
 20
1382.0000009
 42
0.0
  0
VERTEX
  8
Default
 10
996.99999894
 20
1382.0000009
 42
0.0
  0
VERTEX
  8
Default
 10
996.99999894
 20
1711.99999908928
 42
0.0
  0
VERTEX
  8
Default
 10
1036.9999989
 20
1711.99999908928
 42
0.0
  0
VERTEX
  8
Default
 10
1036.9999989
 20
1781.9999994
 42
0.0
  0
VERTEX
  8
Default
 10
-117.9999998
 20
1781.9999994
 42
0.0
  0
VERTEX
  8
Default
 10
-117.9999998
 20
1711.99999908928
 42
0.0
  0
VERTEX
  8
Default
 10
-77.9999998399994
 20
1711.99999908928
 42
0.0
  0
SEQEND
  0
POLYLINE
  8
Default
 66
     1
 10
0.0
 20
0.0
 30
0.0
 70
     1
  0
VERTEX
  8
Default
 10
-77.9999998799999
 20
984.99999891
 42
0.0
  0
VERTEX
  8
Default
 10
1002.0000051
 20
984.999998909999
 42
0.0
  0
VERTEX
  8
Default
 10
1002.0000051
 20
1310.00000058928
 42
0.0
  0
VERTEX
  8
Default
 10
1042.00000506
 20
1310.00000058928
 42
0.0
  0
VERTEX
  8
Default
 10
1042.00000506
 20
1380.0000009
 42
0.0
  0
VERTEX
  8
Default
 10
-117.999999839999
 20
1380.0000009
 42
0.0
  0
VERTEX
  8
Default
 10
-117.999999839999
 20
1310.00000058928
 42
0.0
  0
VERTEX
  8
Default
 10
-77.9999998799999
 20
1310.00000058928
 42
0.0
  0
SEQEND
  0
POLYLINE
  8
Default
 66
     1
 10
0.0
 20
0.0
 30
0.0
 70
     1
  0
VERTEX
  8
Default
 10
-77.9999999199999
 20
572.00000019
 42
0.0
  0
VERTEX
  8
Default
 10
962.00000524
 20
572.00000019
 42
0.0
  0
VERTEX
  8
Default
 10
962.00000524
 20
911.999998599284
 42
0.0
  0
VERTEX
  8
Default
 10
1002.0000052
 20
911.999998599283
 42
0.0
  0
VERTEX
  8
Default
 10
1002.0000052
 20
981.99999891
 42
0.0
  0
VERTEX
  8
Default
 10
-117.99999988
 20
981.99999891
 42
0.0
  0
VERTEX
  8
Default
 10
-117.99999988
 20
911.999998599284
 42
0.0
  0
VERTEX
  8
Default
 10
-77.9999999199999
 20
911.999998599284
 42
0.0
  0
SEQEND
  0
POLYLINE
  8
Default
 66
     1
 10
0.0
 20
0.0
 30
0.0
 70
     1
  0
VERTEX
  8
Default
 10
-73.0
 20
-207.0
 42
0.0
  0
VERTEX
  8
Default
 10
967.00000717
 20
-207.0
 42
0.0
  0
VERTEX
  8
Default
 10
967.00000717
 20
102.999999689284
 42
0.0
  0
VERTEX
  8
Default
 10
1007.00000713
 20
102.999999689285
 42
0.0
  0
VERTEX
  8
Default
 10
1007.00000713
 20
173.0
 42
0.0
  0
VERTEX
  8
Default
 10
-112.99999996
 20
173.0
 42
0.0
  0
VERTEX
  8
Default
 10
-112.99999996
 20
102.999999689283
 42
0.0
  0
VERTEX
  8
Default
 10
-72.9999999999999
 20
102.999999689284
 42
0.0
  0
SEQEND
  0
POLYLINE
  8
Default
 66
     1
 10
0.0
 20
0.0
 30
0.0
 70
     1
  0
VERTEX
  8
Default
 10
-79.99999996
 20
175.0
 42
0.0
  0
VERTEX
  8
Default
 10
974.99999532
 20
175.0
 42
0.0
  0
VERTEX
  8
Default
 10
974.99999532
 20
499.999999879284
 42
0.0
  0
VERTEX
  8
Default
 10
1014.99999528
 20
499.999999879285
 42
0.0
  0
VERTEX
  8
Default
 10
1014.99999528
 20
570.00000019
 42
0.0
  0
VERTEX
  8
Default
 10
-119.99999992
 20
570.00000019
 42
0.0
  0
VERTEX
  8
Default
 10
-119.99999992
 20
499.999999879285
 42
0.0
  0
VERTEX
  8
Default
 10
-79.99999996
 20
499.999999879284
 42
0.0
  0
SEQEND
  0
ENDSEC
  0
EOF
