  0
SECTION
  2
HEADER
  9
$ACADVER
  1
AC1009
  9
$EXTMAX
 10
1452.93347167969
 20
1452.93347167969
 30
0.0
  9
$EXTMIN
 10
-1452.93347167969
 20
-1452.93347167969
 30
0.0
  9
$INSUNITS
 70
     4
  9
$LUNITS
 70
     2
  9
$LUPREC
 70
     4
  9
$MEASUREMENT
 70
     1
  0
ENDSEC
  0
SECTION
  2
TABLES
  0
TABLE
  2
LAYER
 70
     1
  0
LAYER
  2
0
 70
     0
 62
     7
  6
Continuous
  0
LAYER
  2
Image
 70
     0
 62
    70
  6
Continuous
  0
ENDTAB
  0
TABLE
  2
APPID
 70
     1
  0
APPID
  2
ACAD
 70
     0
  0
ENDTAB
  0
ENDSEC
  0
SECTION
  2
ENTITIES
  0
POLYLINE
  8
Image
 66
     1
 10
0.0
 20
0.0
 30
0.0
 70
     0
  0
VERTEX
  8
Image
 10
297.931806179436
 20
-326.337140782349
 42
0.0
  0
VERTEX
  8
Image
 10
285.74018047851
 20
-313.426574070736
 42
0.0
  0
SEQEND
  0
POLYLINE
  8
Image
 66
     1
 10
0.0
 20
0.0
 30
0.0
 70
     1
  0
VERTEX
  8
Image
 10
417.054527667413
 20
-23.1379827866867
 42
0.0
  0
VERTEX
  8
Image
 10
417.054746160331
 20
-23.0791432786061
 42
0.0
  0
SEQEND
  0
POLYLINE
  8
Image
 66
     1
 10
0.0
 20
0.0
 30
0.0
 70
     1
  0
VERTEX
  8
Image
 10
275.600410688549
 20
-179.069857726017
 42
0.0
  0
VERTEX
  8
Image
 10
290.51087284789
 20
-188.356190175373
 42
-0.046158673877
  0
VERTEX
  8
Image
 10
254.949024287952
 20
-234.873846393864
 42
0.0
  0
VERTEX
  8
Image
 10
241.037033695113
 20
-223.693014717399
 42
0.0408444154293
  0
VERTEX
  8
Image
 10
272.482968804944
 20
-183.855811184249
 42
0.0046139290098
  0
SEQEND
  0
POLYLINE
  8
Image
 66
     1
 10
0.0
 20
0.0
 30
0.0
 70
     1
  0
VERTEX
  8
Image
 10
313.813821302465
 20
-202.869417470865
 42
0.0
  0
VERTEX
  8
Image
 10
332.607923676025
 20
-214.574506210767
 42
-0.0444162879736
  0
VERTEX
  8
Image
 10
293.560703195589
 20
-265.905400054789
 42
0.0
  0
VERTEX
  8
Image
 10
275.907974770078
 20
-251.718200614217
 42
0.0402202380546
  0
VERTEX
  8
Image
 10
311.8319336759
 20
-205.897768870463
 42
0.0025080925165
  0
SEQEND
  0
POLYLINE
  8
Image
 66
     1
 10
0.0
 20
0.0
 30
0.0
 70
     1
  0
VERTEX
  8
Image
 10
12.1512556512939
 20
-371.789759679506
 42
0.0
  0
VERTEX
  8
Image
 10
12.330737665276
 20
-387.83543690586
 42
0.0473246432586
  0
VERTEX
  8
Image
 10
84.2870451907697
 20
-381.495810474891
 42
0.0
  0
VERTEX
  8
Image
 10
80.8116961335777
 20
-363.122589276458
 42
-0.0453276542809
  0
SEQEND
  0
POLYLINE
  8
Image
 66
     1
 10
0.0
 20
0.0
 30
0.0
 70
     1
  0
VERTEX
  8
Image
 10
10.8717187757456
 20
-325.826674665458
 42
0.0
  0
VERTEX
  8
Image
 10
11.2052239506538
 20
-340.000749617628
 42
0.0483015790841
  0
VERTEX
  8
Image
 10
75.3223858336032
 20
-334.1021050867
 42
0.0
  0
VERTEX
  8
Image
 10
72.4133609472474
 20
-318.722885092065
 42
-0.0472799293
  0
SEQEND
  0
POLYLINE
  8
Image
 66
     1
 10
0.0
 20
0.0
 30
0.0
 70
     1
  0
VERTEX
  8
Image
 10
323.473513174435
 20
-25.0343955644641
 42
0.0
  0
VERTEX
  8
Image
 10
338.048939891064
 20
-24.6382179003533
 42
-0.0436229200216
  0
VERTEX
  8
Image
 10
333.216783753413
 20
-78.0482068347283
 42
0.0
  0
VERTEX
  8
Image
 10
317.536645204883
 20
-75.6482157036842
 42
0.0422216950485
  0
SEQEND
  0
POLYLINE
  8
Image
 66
     1
 10
0.0
 20
0.0
 30
0.0
 70
     1
  0
VERTEX
  8
Image
 10
370.748145969743
 20
-23.9420207728979
 42
0.0
  0
VERTEX
  8
Image
 10
387.238109655948
 20
-23.301196984525
 42
-0.0443776704609
  0
VERTEX
  8
Image
 10
382.137289391746
 20
-85.5359454981857
 42
0.0
  0
VERTEX
  8
Image
 10
363.454218577861
 20
-82.6763276373347
 42
0.0420779778321
  0
SEQEND
  0
POLYLINE
  8
Image
 66
     1
 10
0.0
 20
0.0
 30
0.0
 70
     1
  0
VERTEX
  8
Image
 10
177.221230810225
 20
-276.368575352073
 42
0.0
  0
VERTEX
  8
Image
 10
187.204812643683
 20
-290.683357563294
 42
0.0391100153474
  0
VERTEX
  8
Image
 10
228.067413924601
 20
-260.812406735669
 42
0.0045087676651
  0
VERTEX
  8
Image
 10
232.443161626684
 20
-256.986626331494
 42
0.0
  0
VERTEX
  8
Image
 10
220.239289506078
 20
-244.063091027989
 42
-0.0422059736346
  0
SEQEND
  0
POLYLINE
  8
Image
 66
     1
 10
0.0
 20
0.0
 30
0.0
 70
     1
  0
VERTEX
  8
Image
 10
202.687182561527
 20
-312.882479800647
 42
0.0
  0
VERTEX
  8
Image
 10
215.276197730665
 20
-330.933016512428
 42
0.0392377465498
  0
VERTEX
  8
Image
 10
262.112470330571
 20
-296.513722049645
 42
0.0037745508839
  0
VERTEX
  8
Image
 10
266.30145067965
 20
-292.841541031372
 42
0.0
  0
VERTEX
  8
Image
 10
250.809379572495
 20
-276.435901419677
 42
-0.0406494122865
  0
SEQEND
  0
POLYLINE
  8
Image
 66
     1
 10
0.0
 20
0.0
 30
0.0
 70
     1
  0
VERTEX
  8
Image
 10
102.116327799805
 20
-310.932247988034
 42
0.0
  0
VERTEX
  8
Image
 10
107.168108409494
 20
-326.394325912315
 42
0.0440862101362
  0
VERTEX
  8
Image
 10
161.239500222734
 20
-305.138301209662
 42
0.0
  0
VERTEX
  8
Image
 10
153.790654476996
 20
-289.715978908002
 42
-0.0430516092915
  0
SEQEND
  0
POLYLINE
  8
Image
 66
     1
 10
0.0
 20
0.0
 30
0.0
 70
     1
  0
VERTEX
  8
Image
 10
116.052857009485
 20
-353.588039536229
 42
0.0
  0
VERTEX
  8
Image
 10
122.221885342524
 20
-372.469698137871
 42
0.0428177721579
  0
VERTEX
  8
Image
 10
182.469988714389
 20
-349.094566021182
 42
0.0
  0
VERTEX
  8
Image
 10
173.170331397477
 20
-329.840265780311
 42
-0.040920004122
  0
SEQEND
  0
POLYLINE
  8
Image
 66
     1
 10
0.0
 20
0.0
 30
0.0
 70
     1
  0
VERTEX
  8
Image
 10
310.824774710754
 20
-102.330645921358
 42
0.0
  0
VERTEX
  8
Image
 10
326.523158558883
 20
-107.178896846126
 42
-0.0480891905374
  0
VERTEX
  8
Image
 10
304.870534976082
 20
-162.890989813896
 42
0.0
  0
VERTEX
  8
Image
 10
288.877375629747
 20
-156.158701215082
 42
0.0477361005193
  0
SEQEND
  0
POLYLINE
  8
Image
 66
     1
 10
0.0
 20
0.0
 30
0.0
 70
     1
  0
VERTEX
  8
Image
 10
354.753601816236
 20
-115.897518708942
 42
0.0
  0
VERTEX
  8
Image
 10
373.905335084396
 20
-121.812293721866
 42
-0.0454568412276
  0
VERTEX
  8
Image
 10
350.704218698974
 20
-182.184587763322
 42
0.0
  0
VERTEX
  8
Image
 10
330.761759820401
 20
-173.789849385923
 42
0.0441329274994
  0
SEQEND
  0
POLYLINE
  8
Image
 66
     1
 10
0.0
 20
0.0
 30
0.0
 70
     1
  0
VERTEX
  8
Image
 10
-275.600410688548
 20
-179.069857726017
 42
0.0
  0
VERTEX
  8
Image
 10
-290.51087284789
 20
-188.356190175373
 42
0.0461586738768
  0
VERTEX
  8
Image
 10
-254.949024287951
 20
-234.873846393863
 42
0.0
  0
VERTEX
  8
Image
 10
-241.037033695113
 20
-223.693014717399
 42
-0.0408444154297
  0
VERTEX
  8
Image
 10
-272.482968804944
 20
-183.855811184249
 42
-0.0046139290103
  0
SEQEND
  0
POLYLINE
  8
Image
 66
     1
 10
0.0
 20
0.0
 30
0.0
 70
     1
  0
VERTEX
  8
Image
 10
-313.813821302464
 20
-202.869417470865
 42
0.0
  0
VERTEX
  8
Image
 10
-332.607923676024
 20
-214.574506210767
 42
0.0444162879738
  0
VERTEX
  8
Image
 10
-293.560703195589
 20
-265.905400054789
 42
0.0
  0
VERTEX
  8
Image
 10
-275.907974770078
 20
-251.718200614217
 42
-0.0402202380544
  0
VERTEX
  8
Image
 10
-311.8319336759
 20
-205.897768870463
 42
-0.0025080925167
  0
SEQEND
  0
POLYLINE
  8
Image
 66
     1
 10
0.0
 20
0.0
 30
0.0
 70
     1
  0
VERTEX
  8
Image
 10
-12.1512556512939
 20
-371.789759679506
 42
0.0
  0
VERTEX
  8
Image
 10
-12.330737665276
 20
-387.83543690586
 42
-0.0473246432588
  0
VERTEX
  8
Image
 10
-84.2870451907697
 20
-381.495810474891
 42
0.0
  0
VERTEX
  8
Image
 10
-80.8116961335772
 20
-363.122589276458
 42
0.0453276542808
  0
SEQEND
  0
POLYLINE
  8
Image
 66
     1
 10
0.0
 20
0.0
 30
0.0
 70
     1
  0
VERTEX
  8
Image
 10
-10.8717187757452
 20
-325.826674665458
 42
0.0
  0
VERTEX
  8
Image
 10
-11.2052239506538
 20
-340.000749617628
 42
-0.0483015790839
  0
VERTEX
  8
Image
 10
-75.3223858336028
 20
-334.1021050867
 42
0.0
  0
VERTEX
  8
Image
 10
-72.4133609472474
 20
-318.722885092065
 42
0.0472799293002
  0
SEQEND
  0
POLYLINE
  8
Image
 66
     1
 10
0.0
 20
0.0
 30
0.0
 70
     1
  0
VERTEX
  8
Image
 10
-323.473513174434
 20
-25.0343955644641
 42
0.0
  0
VERTEX
  8
Image
 10
-338.048939891063
 20
-24.6382179003533
 42
0.043622920023
  0
VERTEX
  8
Image
 10
-333.216783753412
 20
-78.0482068347283
 42
0.0
  0
VERTEX
  8
Image
 10
-317.536645204883
 20
-75.6482157036842
 42
-0.0422216950487
  0
SEQEND
  0
POLYLINE
  8
Image
 66
     1
 10
0.0
 20
0.0
 30
0.0
 70
     1
  0
VERTEX
  8
Image
 10
-370.748145969742
 20
-23.9420207728979
 42
0.0
  0
VERTEX
  8
Image
 10
-387.238109655948
 20
-23.301196984525
 42
0.0443776704604
  0
VERTEX
  8
Image
 10
-382.137289391746
 20
-85.5359454981856
 42
0.0
  0
VERTEX
  8
Image
 10
-363.454218577861
 20
-82.6763276373345
 42
-0.0420779778322
  0
SEQEND
  0
POLYLINE
  8
Image
 66
     1
 10
0.0
 20
0.0
 30
0.0
 70
     1
  0
VERTEX
  8
Image
 10
-177.221230810225
 20
-276.368575352073
 42
0.0
  0
VERTEX
  8
Image
 10
-187.204812643683
 20
-290.683357563294
 42
-0.0391100153476
  0
VERTEX
  8
Image
 10
-228.067413924601
 20
-260.812406735669
 42
-0.0045087676645
  0
VERTEX
  8
Image
 10
-232.443161626684
 20
-256.986626331494
 42
0.0
  0
VERTEX
  8
Image
 10
-220.239289506078
 20
-244.063091027989
 42
0.0422059736344
  0
SEQEND
  0
POLYLINE
  8
Image
 66
     1
 10
0.0
 20
0.0
 30
0.0
 70
     1
  0
VERTEX
  8
Image
 10
-202.687182561527
 20
-312.882479800647
 42
0.0
  0
VERTEX
  8
Image
 10
-215.276197730665
 20
-330.933016512428
 42
-0.0392377465497
  0
VERTEX
  8
Image
 10
-262.112470330572
 20
-296.513722049644
 42
-0.0037745508838
  0
VERTEX
  8
Image
 10
-266.30145067965
 20
-292.841541031372
 42
0.0
  0
VERTEX
  8
Image
 10
-250.809379572495
 20
-276.435901419677
 42
0.0406494122886
  0
SEQEND
  0
POLYLINE
  8
Image
 66
     1
 10
0.0
 20
0.0
 30
0.0
 70
     1
  0
VERTEX
  8
Image
 10
-102.116327799805
 20
-310.932247988034
 42
0.0
  0
VERTEX
  8
Image
 10
-107.168108409494
 20
-326.394325912315
 42
-0.0440862101359
  0
VERTEX
  8
Image
 10
-161.239500222734
 20
-305.138301209662
 42
0.0
  0
VERTEX
  8
Image
 10
-153.790654476995
 20
-289.715978908002
 42
0.0430516092912
  0
SEQEND
  0
POLYLINE
  8
Image
 66
     1
 10
0.0
 20
0.0
 30
0.0
 70
     1
  0
VERTEX
  8
Image
 10
-116.052857009484
 20
-353.588039536229
 42
0.0
  0
VERTEX
  8
Image
 10
-122.221885342524
 20
-372.469698137871
 42
-0.0428177721576
  0
VERTEX
  8
Image
 10
-182.469988714389
 20
-349.094566021182
 42
0.0
  0
VERTEX
  8
Image
 10
-173.170331397477
 20
-329.840265780311
 42
0.040920004122
  0
SEQEND
  0
POLYLINE
  8
Image
 66
     1
 10
0.0
 20
0.0
 30
0.0
 70
     1
  0
VERTEX
  8
Image
 10
-310.824774710754
 20
-102.330645921358
 42
0.0
  0
VERTEX
  8
Image
 10
-326.523158558883
 20
-107.178896846126
 42
0.0480891905376
  0
VERTEX
  8
Image
 10
-304.870534976082
 20
-162.890989813896
 42
0.0
  0
VERTEX
  8
Image
 10
-288.877375629747
 20
-156.158701215082
 42
-0.0477361005195
  0
SEQEND
  0
POLYLINE
  8
Image
 66
     1
 10
0.0
 20
0.0
 30
0.0
 70
     1
  0
VERTEX
  8
Image
 10
-354.753601816236
 20
-115.897518708942
 42
0.0
  0
VERTEX
  8
Image
 10
-373.905335084396
 20
-121.812293721867
 42
0.0454568412274
  0
VERTEX
  8
Image
 10
-350.704218698974
 20
-182.184587763322
 42
0.0
  0
VERTEX
  8
Image
 10
-330.761759820401
 20
-173.789849385923
 42
-0.0441329274996
  0
SEQEND
  0
POLYLINE
  8
Image
 66
     1
 10
0.0
 20
0.0
 30
0.0
 70
     0
  0
VERTEX
  8
Image
 10
297.931806179436
 20
326.337140782349
 42
0.0
  0
VERTEX
  8
Image
 10
285.740180478511
 20
313.426574070736
 42
0.0
  0
SEQEND
  0
POLYLINE
  8
Image
 66
     1
 10
0.0
 20
0.0
 30
0.0
 70
     1
  0
VERTEX
  8
Image
 10
417.054527667413
 20
23.1379827866867
 42
0.0
  0
VERTEX
  8
Image
 10
417.054746160331
 20
23.0791432786061
 42
0.0
  0
SEQEND
  0
POLYLINE
  8
Image
 66
     1
 10
0.0
 20
0.0
 30
0.0
 70
     1
  0
VERTEX
  8
Image
 10
275.600410688549
 20
179.069857726017
 42
0.0
  0
VERTEX
  8
Image
 10
290.51087284789
 20
188.356190175373
 42
0.046158673877
  0
VERTEX
  8
Image
 10
254.949024287952
 20
234.873846393863
 42
0.0
  0
VERTEX
  8
Image
 10
241.037033695113
 20
223.693014717399
 42
-0.0408444154298
  0
VERTEX
  8
Image
 10
272.482968804944
 20
183.855811184249
 42
-0.0046139290043
  0
SEQEND
  0
POLYLINE
  8
Image
 66
     1
 10
0.0
 20
0.0
 30
0.0
 70
     1
  0
VERTEX
  8
Image
 10
313.813821302465
 20
202.869417470865
 42
0.0
  0
VERTEX
  8
Image
 10
332.607923676025
 20
214.574506210766
 42
0.0444162879737
  0
VERTEX
  8
Image
 10
293.560703195589
 20
265.905400054789
 42
0.0
  0
VERTEX
  8
Image
 10
275.907974770078
 20
251.718200614217
 42
-0.0402202380547
  0
VERTEX
  8
Image
 10
311.8319336759
 20
205.897768870463
 42
-0.0025080925171
  0
SEQEND
  0
POLYLINE
  8
Image
 66
     1
 10
0.0
 20
0.0
 30
0.0
 70
     1
  0
VERTEX
  8
Image
 10
12.1512556512944
 20
371.789759679506
 42
0.0
  0
VERTEX
  8
Image
 10
12.3307376652765
 20
387.83543690586
 42
-0.0473246432581
  0
VERTEX
  8
Image
 10
84.2870451907702
 20
381.495810474891
 42
0.0
  0
VERTEX
  8
Image
 10
80.8116961335777
 20
363.122589276458
 42
0.0453276542808
  0
SEQEND
  0
POLYLINE
  8
Image
 66
     1
 10
0.0
 20
0.0
 30
0.0
 70
     1
  0
VERTEX
  8
Image
 10
10.8717187757461
 20
325.826674665458
 42
0.0
  0
VERTEX
  8
Image
 10
11.2052239506543
 20
340.000749617628
 42
-0.0483015790843
  0
VERTEX
  8
Image
 10
75.3223858336037
 20
334.1021050867
 42
0.0
  0
VERTEX
  8
Image
 10
72.4133609472478
 20
318.722885092065
 42
0.0472799293005
  0
SEQEND
  0
POLYLINE
  8
Image
 66
     1
 10
0.0
 20
0.0
 30
0.0
 70
     1
  0
VERTEX
  8
Image
 10
323.473513174435
 20
25.0343955644641
 42
0.0
  0
VERTEX
  8
Image
 10
338.048939891064
 20
24.6382179003533
 42
0.043622920023
  0
VERTEX
  8
Image
 10
333.216783753413
 20
78.0482068347283
 42
0.0
  0
VERTEX
  8
Image
 10
317.536645204883
 20
75.6482157036842
 42
-0.0422216950486
  0
SEQEND
  0
POLYLINE
  8
Image
 66
     1
 10
0.0
 20
0.0
 30
0.0
 70
     1
  0
VERTEX
  8
Image
 10
370.748145969743
 20
23.9420207728979
 42
0.0
  0
VERTEX
  8
Image
 10
387.238109655948
 20
23.3011969845247
 42
0.0443776704606
  0
VERTEX
  8
Image
 10
382.137289391746
 20
85.5359454981856
 42
0.0
  0
VERTEX
  8
Image
 10
363.454218577861
 20
82.6763276373345
 42
-0.0420779778322
  0
SEQEND
  0
POLYLINE
  8
Image
 66
     1
 10
0.0
 20
0.0
 30
0.0
 70
     1
  0
VERTEX
  8
Image
 10
177.221230810225
 20
276.368575352073
 42
0.0
  0
VERTEX
  8
Image
 10
187.204812643683
 20
290.683357563294
 42
-0.0391100153472
  0
VERTEX
  8
Image
 10
228.067413924602
 20
260.81240673567
 42
-0.004508767668
  0
VERTEX
  8
Image
 10
232.443161626684
 20
256.986626331494
 42
0.0
  0
VERTEX
  8
Image
 10
220.239289506078
 20
244.063091027989
 42
0.0422059736343
  0
SEQEND
  0
POLYLINE
  8
Image
 66
     1
 10
0.0
 20
0.0
 30
0.0
 70
     1
  0
VERTEX
  8
Image
 10
202.687182561527
 20
312.882479800646
 42
0.0
  0
VERTEX
  8
Image
 10
215.276197730666
 20
330.933016512428
 42
-0.0392377465496
  0
VERTEX
  8
Image
 10
262.112470330571
 20
296.513722049645
 42
-0.0037745508838
  0
VERTEX
  8
Image
 10
266.301450679651
 20
292.841541031372
 42
0.0
  0
VERTEX
  8
Image
 10
250.809379572495
 20
276.435901419677
 42
0.0406494122872
  0
SEQEND
  0
POLYLINE
  8
Image
 66
     1
 10
0.0
 20
0.0
 30
0.0
 70
     1
  0
VERTEX
  8
Image
 10
102.116327799805
 20
310.932247988034
 42
0.0
  0
VERTEX
  8
Image
 10
107.168108409494
 20
326.394325912315
 42
-0.0440862101361
  0
VERTEX
  8
Image
 10
161.239500222734
 20
305.138301209662
 42
0.0
  0
VERTEX
  8
Image
 10
153.790654476996
 20
289.715978908002
 42
0.0430516092914
  0
SEQEND
  0
POLYLINE
  8
Image
 66
     1
 10
0.0
 20
0.0
 30
0.0
 70
     1
  0
VERTEX
  8
Image
 10
116.052857009485
 20
353.588039536229
 42
0.0
  0
VERTEX
  8
Image
 10
122.221885342524
 20
372.469698137872
 42
-0.0428177721577
  0
VERTEX
  8
Image
 10
182.469988714389
 20
349.094566021182
 42
0.0
  0
VERTEX
  8
Image
 10
173.170331397478
 20
329.840265780311
 42
0.0409200041219
  0
SEQEND
  0
POLYLINE
  8
Image
 66
     1
 10
0.0
 20
0.0
 30
0.0
 70
     1
  0
VERTEX
  8
Image
 10
310.824774710754
 20
102.330645921358
 42
0.0
  0
VERTEX
  8
Image
 10
326.523158558883
 20
107.178896846126
 42
0.0480891905374
  0
VERTEX
  8
Image
 10
304.870534976082
 20
162.890989813896
 42
0.0
  0
VERTEX
  8
Image
 10
288.877375629747
 20
156.158701215082
 42
-0.0477361005197
  0
SEQEND
  0
POLYLINE
  8
Image
 66
     1
 10
0.0
 20
0.0
 30
0.0
 70
     1
  0
VERTEX
  8
Image
 10
354.753601816236
 20
115.897518708942
 42
0.0
  0
VERTEX
  8
Image
 10
373.905335084396
 20
121.812293721866
 42
0.0454568412279
  0
VERTEX
  8
Image
 10
350.704218698974
 20
182.184587763322
 42
0.0
  0
VERTEX
  8
Image
 10
330.761759820401
 20
173.789849385923
 42
-0.0441329274993
  0
SEQEND
  0
POLYLINE
  8
Image
 66
     1
 10
0.0
 20
0.0
 30
0.0
 70
     1
  0
VERTEX
  8
Image
 10
-275.600410688548
 20
179.069857726017
 42
0.0
  0
VERTEX
  8
Image
 10
-290.51087284789
 20
188.356190175373
 42
-0.046158673877
  0
VERTEX
  8
Image
 10
-254.949024287951
 20
234.873846393864
 42
0.0
  0
VERTEX
  8
Image
 10
-241.037033695113
 20
223.6930147174
 42
0.0408444154298
  0
VERTEX
  8
Image
 10
-272.482968804944
 20
183.855811184249
 42
0.0046139290159
  0
SEQEND
  0
POLYLINE
  8
Image
 66
     1
 10
0.0
 20
0.0
 30
0.0
 70
     1
  0
VERTEX
  8
Image
 10
-313.813821302464
 20
202.869417470866
 42
0.0
  0
VERTEX
  8
Image
 10
-332.607923676024
 20
214.574506210767
 42
-0.0444162879737
  0
VERTEX
  8
Image
 10
-293.560703195589
 20
265.905400054789
 42
0.0
  0
VERTEX
  8
Image
 10
-275.907974770078
 20
251.718200614217
 42
0.0402202380544
  0
VERTEX
  8
Image
 10
-311.8319336759
 20
205.897768870463
 42
0.0025080925167
  0
SEQEND
  0
POLYLINE
  8
Image
 66
     1
 10
0.0
 20
0.0
 30
0.0
 70
     1
  0
VERTEX
  8
Image
 10
-12.1512556512935
 20
371.789759679506
 42
0.0
  0
VERTEX
  8
Image
 10
-12.3307376652756
 20
387.83543690586
 42
0.0473246432589
  0
VERTEX
  8
Image
 10
-84.2870451907693
 20
381.495810474891
 42
0.0
  0
VERTEX
  8
Image
 10
-80.8116961335768
 20
363.122589276458
 42
-0.0453276542806
  0
SEQEND
  0
POLYLINE
  8
Image
 66
     1
 10
0.0
 20
0.0
 30
0.0
 70
     1
  0
VERTEX
  8
Image
 10
-10.8717187757452
 20
325.826674665458
 42
0.0
  0
VERTEX
  8
Image
 10
-11.2052239506534
 20
340.000749617628
 42
0.0483015790844
  0
VERTEX
  8
Image
 10
-75.3223858336028
 20
334.1021050867
 42
0.0
  0
VERTEX
  8
Image
 10
-72.4133609472469
 20
318.722885092065
 42
-0.0472799293003
  0
SEQEND
  0
POLYLINE
  8
Image
 66
     1
 10
0.0
 20
0.0
 30
0.0
 70
     1
  0
VERTEX
  8
Image
 10
-323.473513174434
 20
25.0343955644644
 42
0.0
  0
VERTEX
  8
Image
 10
-338.048939891063
 20
24.6382179003538
 42
-0.0436229200244
  0
VERTEX
  8
Image
 10
-333.216783753412
 20
78.0482068347285
 42
0.0
  0
VERTEX
  8
Image
 10
-317.536645204883
 20
75.6482157036846
 42
0.0422216950484
  0
SEQEND
  0
POLYLINE
  8
Image
 66
     1
 10
0.0
 20
0.0
 30
0.0
 70
     1
  0
VERTEX
  8
Image
 10
-370.748145969742
 20
23.9420207728983
 42
0.0
  0
VERTEX
  8
Image
 10
-387.238109655948
 20
23.3011969845254
 42
-0.0443776704606
  0
VERTEX
  8
Image
 10
-382.137289391746
 20
85.5359454981858
 42
0.0
  0
VERTEX
  8
Image
 10
-363.454218577861
 20
82.6763276373349
 42
0.0420779778321
  0
SEQEND
  0
POLYLINE
  8
Image
 66
     1
 10
0.0
 20
0.0
 30
0.0
 70
     1
  0
VERTEX
  8
Image
 10
-177.221230810225
 20
276.368575352073
 42
0.0
  0
VERTEX
  8
Image
 10
-187.204812643683
 20
290.683357563294
 42
0.0391100153476
  0
VERTEX
  8
Image
 10
-228.067413924601
 20
260.81240673567
 42
0.0045087676636
  0
VERTEX
  8
Image
 10
-232.443161626684
 20
256.986626331495
 42
0.0
  0
VERTEX
  8
Image
 10
-220.239289506078
 20
244.063091027989
 42
-0.0422059736346
  0
SEQEND
  0
POLYLINE
  8
Image
 66
     1
 10
0.0
 20
0.0
 30
0.0
 70
     1
  0
VERTEX
  8
Image
 10
-202.687182561527
 20
312.882479800647
 42
0.0
  0
VERTEX
  8
Image
 10
-215.276197730665
 20
330.933016512429
 42
0.03923774655
  0
VERTEX
  8
Image
 10
-262.112470330571
 20
296.513722049644
 42
0.0037745508838
  0
VERTEX
  8
Image
 10
-266.30145067965
 20
292.841541031372
 42
0.0
  0
VERTEX
  8
Image
 10
-250.809379572495
 20
276.435901419677
 42
-0.0406494122862
  0
SEQEND
  0
POLYLINE
  8
Image
 66
     1
 10
0.0
 20
0.0
 30
0.0
 70
     1
  0
VERTEX
  8
Image
 10
-102.116327799804
 20
310.932247988034
 42
0.0
  0
VERTEX
  8
Image
 10
-107.168108409493
 20
326.394325912316
 42
0.0440862101363
  0
VERTEX
  8
Image
 10
-161.239500222734
 20
305.138301209662
 42
0.0
  0
VERTEX
  8
Image
 10
-153.790654476995
 20
289.715978908002
 42
-0.0430516092914
  0
SEQEND
  0
POLYLINE
  8
Image
 66
     1
 10
0.0
 20
0.0
 30
0.0
 70
     1
  0
VERTEX
  8
Image
 10
-116.052857009484
 20
353.588039536229
 42
0.0
  0
VERTEX
  8
Image
 10
-122.221885342523
 20
372.469698137872
 42
0.0428177721574
  0
VERTEX
  8
Image
 10
-182.469988714388
 20
349.094566021182
 42
0.0
  0
VERTEX
  8
Image
 10
-173.170331397477
 20
329.840265780312
 42
-0.0409200041219
  0
SEQEND
  0
POLYLINE
  8
Image
 66
     1
 10
0.0
 20
0.0
 30
0.0
 70
     1
  0
VERTEX
  8
Image
 10
-310.824774710754
 20
102.330645921358
 42
0.0
  0
VERTEX
  8
Image
 10
-326.523158558883
 20
107.178896846127
 42
-0.0480891905372
  0
VERTEX
  8
Image
 10
-304.870534976082
 20
162.890989813897
 42
0.0
  0
VERTEX
  8
Image
 10
-288.877375629747
 20
156.158701215082
 42
0.0477361005192
  0
SEQEND
  0
POLYLINE
  8
Image
 66
     1
 10
0.0
 20
0.0
 30
0.0
 70
     1
  0
VERTEX
  8
Image
 10
-354.753601816236
 20
115.897518708942
 42
0.0
  0
VERTEX
  8
Image
 10
-373.905335084396
 20
121.812293721867
 42
-0.0454568412275
  0
VERTEX
  8
Image
 10
-350.704218698974
 20
182.184587763323
 42
0.0
  0
VERTEX
  8
Image
 10
-330.761759820401
 20
173.789849385923
 42
0.0441329274996
  0
SEQEND
  0
POLYLINE
  8
Image
 66
     1
 10
0.0
 20
0.0
 30
0.0
 70
     1
  0
VERTEX
  8
Image
 10
0.000000000005
 20
499.233662153666
 42
0.0
  0
VERTEX
  8
Image
 10
12.0771349728666
 20
500.000001493574
 42
0.0
  0
VERTEX
  8
Image
 10
23.5260122126247
 20
485.49123505418
 42
0.0
  0
VERTEX
  8
Image
 10
22.9762004229601
 20
464.828858909999
 42
0.0
  0
VERTEX
  8
Image
 10
50.2916000002733
 20
464.42234210921
 42
0.0
  0
VERTEX
  8
Image
 10
48.8295693202294
 20
435.609614532368
 42
0.0
  0
VERTEX
  8
Image
 10
22.6032621610384
 20
436.175468978302
 42
0.0
  0
VERTEX
  8
Image
 10
21.0235359837116
 20
419.323483627767
 42
-0.0437894689226
  0
VERTEX
  8
Image
 10
89.9758032016425
 20
411.570720234419
 42
0.0
  0
VERTEX
  8
Image
 10
93.2370171221323
 20
428.811867454579
 42
0.0
  0
VERTEX
  8
Image
 10
67.7839137476767
 20
434.984293283629
 42
0.0
  0
VERTEX
  8
Image
 10
74.1802977379698
 20
463.153649443558
 42
0.0
  0
VERTEX
  8
Image
 10
100.640845859028
 20
456.548526523562
 42
0.0
  0
VERTEX
  8
Image
 10
105.708896768401
 20
476.621786785352
 42
0.0
  0
VERTEX
  8
Image
 10
120.684436776677
 20
487.685174732968
 42
0.0
  0
VERTEX
  8
Image
 10
132.12727309242
 20
483.852156478465
 42
0.0
  0
VERTEX
  8
Image
 10
143.985386335374
 20
481.497670536815
 42
0.0
  0
VERTEX
  8
Image
 10
151.09867051154
 20
464.568655011016
 42
0.0
  0
VERTEX
  8
Image
 10
144.969843449004
 20
444.777080990482
 42
0.0
  0
VERTEX
  8
Image
 10
171.210101368189
 20
437.387647264054
 42
0.0
  0
VERTEX
  8
Image
 10
161.992957056385
 20
409.967336385808
 42
0.0
  0
VERTEX
  8
Image
 10
136.846488462788
 20
417.231490172846
 42
0.0
  0
VERTEX
  8
Image
 10
131.58527297525
 20
401.128391061865
 42
-0.0436700801416
  0
VERTEX
  8
Image
 10
195.031428211812
 20
375.614126093704
 42
0.0
  0
VERTEX
  8
Image
 10
202.898599095894
 20
391.390597410838
 42
0.0
  0
VERTEX
  8
Image
 10
180.135681284091
 20
404.068616494401
 42
0.0
  0
VERTEX
  8
Image
 10
194.178705908136
 20
429.480165694398
 42
0.0
  0
VERTEX
  8
Image
 10
217.789834602529
 20
416.119073390815
 42
0.0
  0
VERTEX
  8
Image
 10
228.287550038872
 20
434.092107585654
 42
0.0
  0
VERTEX
  8
Image
 10
245.79536234465
 20
440.77264783039
 42
0.0
  0
VERTEX
  8
Image
 10
255.732479904711
 20
434.054918637609
 42
0.0
  0
VERTEX
  8
Image
 10
266.483219987071
 20
428.649911311848
 42
0.0
  0
VERTEX
  8
Image
 10
268.587074109954
 20
410.477264493609
 42
0.0
  0
VERTEX
  8
Image
 10
257.147543577542
 20
393.056118099632
 42
0.0
  0
VERTEX
  8
Image
 10
280.327073360604
 20
378.998671758201
 42
0.0
  0
VERTEX
  8
Image
 10
263.779623419995
 20
355.054673658363
 42
0.0
  0
VERTEX
  8
Image
 10
241.617473306753
 20
368.701988543465
 42
0.0
  0
VERTEX
  8
Image
 10
231.863209219604
 20
354.716009526362
 42
-0.0444311106605
  0
VERTEX
  8
Image
 10
285.941316421069
 20
313.241921888747
 42
0.0
  0
VERTEX
  8
Image
 10
297.931806179436
 20
326.337140782349
 42
0.0
  0
VERTEX
  8
Image
 10
279.582895516144
 20
344.566226112812
 42
0.0
  0
VERTEX
  8
Image
 10
300.21556931751
 20
365.295738384347
 42
0.0
  0
VERTEX
  8
Image
 10
319.189181455091
 20
346.18470193492
 42
0.0
  0
VERTEX
  8
Image
 10
334.32621913445
 20
360.696440000486
 42
0.0
  0
VERTEX
  8
Image
 10
353.043651022142
 20
362.485718100317
 42
0.0
  0
VERTEX
  8
Image
 10
360.722287472461
 20
353.38944674272
 42
0.0
  0
VERTEX
  8
Image
 10
369.551621133195
 20
345.340667770243
 42
0.0
  0
VERTEX
  8
Image
 10
366.483407682136
 20
327.298232200569
 42
0.0
  0
VERTEX
  8
Image
 10
350.594844362724
 20
313.567022863632
 42
0.0
  0
VERTEX
  8
Image
 10
368.958050999381
 20
293.900327542117
 42
0.0
  0
VERTEX
  8
Image
 10
346.326959624489
 20
275.246356336388
 42
0.0
  0
VERTEX
  8
Image
 10
328.82770798107
 20
294.248895660838
 42
0.0
  0
VERTEX
  8
Image
 10
315.429641042324
 20
283.481095737999
 42
-0.0451851661421
  0
VERTEX
  8
Image
 10
355.944142384403
 20
229.15202622673
 42
0.0
  0
VERTEX
  8
Image
 10
371.148667839587
 20
238.577931411385
 42
0.0
  0
VERTEX
  8
Image
 10
358.597770437778
 20
260.976203206601
 42
0.0
  0
VERTEX
  8
Image
 10
384.255793141537
 20
275.45989851686
 42
0.0
  0
VERTEX
  8
Image
 10
397.160814095465
 20
252.047606690053
 42
0.0
  0
VERTEX
  8
Image
 10
415.789670218544
 20
262.003448902971
 42
0.0
  0
VERTEX
  8
Image
 10
434.300945550602
 20
258.769607703359
 42
0.0
  0
VERTEX
  8
Image
 10
439.142209308162
 20
247.984076710984
 42
0.0
  0
VERTEX
  8
Image
 10
445.384024123202
 20
237.901808465657
 42
0.0
  0
VERTEX
  8
Image
 10
437.37928087027
 20
221.353402280173
 42
0.0
  0
VERTEX
  8
Image
 10
418.245867393258
 20
212.347567007728
 42
0.0
  0
VERTEX
  8
Image
 10
430.407943928729
 20
188.562218354583
 42
0.0
  0
VERTEX
  8
Image
 10
403.408228767374
 20
176.604731683962
 42
0.0
  0
VERTEX
  8
Image
 10
391.891479035351
 20
199.522283035053
 42
0.0
  0
VERTEX
  8
Image
 10
375.943089020687
 20
192.80883999731
 42
-0.0457709171011
  0
VERTEX
  8
Image
 10
400.858577529645
 20
130.13646797285
 42
0.0
  0
VERTEX
  8
Image
 10
418.043810777333
 20
135.443913872473
 42
0.0
  0
VERTEX
  8
Image
 10
411.803196096814
 20
160.218757214857
 42
0.0
  0
VERTEX
  8
Image
 10
440.417971425822
 20
167.838545723754
 42
0.0
  0
VERTEX
  8
Image
 10
446.734152134268
 20
141.995339302474
 42
0.0
  0
VERTEX
  8
Image
 10
467.362423366402
 20
146.986313787497
 42
0.0
  0
VERTEX
  8
Image
 10
484.406999572168
 20
139.255706988083
 42
0.0
  0
VERTEX
  8
Image
 10
486.249654953331
 20
127.62485753602
 42
0.0
  0
VERTEX
  8
Image
 10
489.631280198109
 20
116.325508210053
 42
0.0
  0
VERTEX
  8
Image
 10
477.539215302918
 20
102.318754991314
 42
0.0
  0
VERTEX
  8
Image
 10
456.67310860011
 20
98.3716782234096
 42
0.0
  0
VERTEX
  8
Image
 10
462.172918449216
 20
72.3526223269657
 42
0.0
  0
VERTEX
  8
Image
 10
432.925703508209
 20
67.5087118875222
 42
0.0
  0
VERTEX
  8
Image
 10
427.821443043289
 20
92.5283303711651
 42
0.0
  0
VERTEX
  8
Image
 10
410.650515355379
 20
89.9001600884064
 42
-0.0459480729679
  0
VERTEX
  8
Image
 10
417.054527667413
 20
23.1379827866897
 42
0.0
  0
VERTEX
  8
Image
 10
435.076826499643
 20
23.6600903745118
 42
0.0
  0
VERTEX
  8
Image
 10
436.009751528062
 20
49.1510788725552
 42
0.0
  0
VERTEX
  8
Image
 10
465.677142285732
 20
48.9070897983286
 42
0.0
  0
VERTEX
  8
Image
 10
464.517752365623
 20
22.3680983964107
 42
0.0
  0
VERTEX
  8
Image
 10
485.764245883189
 20
21.7090797798132
 42
0.0
  0
VERTEX
  8
Image
 10
500.000000354606
 20
9.7579441344726
 42
0.0
  0
VERTEX
  8
Image
 10
498.760146768598
 20
0.0000000000002
 42
0.0
  0
VERTEX
  8
Image
 10
500.000000354606
 20
-9.7579441344728
 42
0.0
  0
VERTEX
  8
Image
 10
485.764245883189
 20
-21.7090797798135
 42
0.0
  0
VERTEX
  8
Image
 10
464.517752365623
 20
-22.3680983964109
 42
0.0
  0
VERTEX
  8
Image
 10
465.677142285732
 20
-48.9070897983287
 42
0.0
  0
VERTEX
  8
Image
 10
436.009751528062
 20
-49.1510788725553
 42
0.0
  0
VERTEX
  8
Image
 10
435.076826499643
 20
-23.660090374512
 42
0.0
  0
VERTEX
  8
Image
 10
417.054527667413
 20
-23.1379827866899
 42
-0.0459127582198
  0
VERTEX
  8
Image
 10
410.650515355379
 20
-89.9001600884066
 42
0.0
  0
VERTEX
  8
Image
 10
427.821443043289
 20
-92.5283303711651
 42
0.0
  0
VERTEX
  8
Image
 10
432.925703508209
 20
-67.5087118875223
 42
0.0
  0
VERTEX
  8
Image
 10
462.172918449216
 20
-72.3526223269657
 42
0.0
  0
VERTEX
  8
Image
 10
456.67310860011
 20
-98.3716782234097
 42
0.0
  0
VERTEX
  8
Image
 10
477.539215302918
 20
-102.318754991314
 42
0.0
  0
VERTEX
  8
Image
 10
489.631280198109
 20
-116.325508210053
 42
0.0
  0
VERTEX
  8
Image
 10
486.249654953331
 20
-127.62485753602
 42
0.0
  0
VERTEX
  8
Image
 10
484.406999572168
 20
-139.255706988083
 42
0.0
  0
VERTEX
  8
Image
 10
467.362423366402
 20
-146.986313787497
 42
0.0
  0
VERTEX
  8
Image
 10
446.734152134268
 20
-141.995339302474
 42
0.0
  0
VERTEX
  8
Image
 10
440.417971425822
 20
-167.838545723754
 42
0.0
  0
VERTEX
  8
Image
 10
411.803196096814
 20
-160.218757214857
 42
0.0
  0
VERTEX
  8
Image
 10
418.043810777333
 20
-135.443913872473
 42
0.0
  0
VERTEX
  8
Image
 10
400.858577529645
 20
-130.13646797285
 42
-0.045644308096
  0
VERTEX
  8
Image
 10
375.943089020687
 20
-192.80883999731
 42
0.0
  0
VERTEX
  8
Image
 10
391.891479035351
 20
-199.522283035053
 42
0.0
  0
VERTEX
  8
Image
 10
403.408228767374
 20
-176.604731683962
 42
0.0
  0
VERTEX
  8
Image
 10
430.407943928729
 20
-188.562218354583
 42
0.0
  0
VERTEX
  8
Image
 10
418.245867393258
 20
-212.347567007728
 42
0.0
  0
VERTEX
  8
Image
 10
437.37928087027
 20
-221.353402280173
 42
0.0
  0
VERTEX
  8
Image
 10
445.384024123202
 20
-237.901808465657
 42
0.0
  0
VERTEX
  8
Image
 10
439.142209308162
 20
-247.984076710984
 42
0.0
  0
VERTEX
  8
Image
 10
434.300945550602
 20
-258.769607703359
 42
0.0
  0
VERTEX
  8
Image
 10
415.789670218544
 20
-262.003448902971
 42
0.0
  0
VERTEX
  8
Image
 10
397.160814095465
 20
-252.047606690053
 42
0.0
  0
VERTEX
  8
Image
 10
384.255793141537
 20
-275.45989851686
 42
0.0
  0
VERTEX
  8
Image
 10
358.597770437778
 20
-260.976203206601
 42
0.0
  0
VERTEX
  8
Image
 10
371.148667839587
 20
-238.577931411385
 42
0.0
  0
VERTEX
  8
Image
 10
355.944142384403
 20
-229.15202622673
 42
-0.0450104987979
  0
VERTEX
  8
Image
 10
315.429641042324
 20
-283.481095737999
 42
0.0
  0
VERTEX
  8
Image
 10
328.82770798107
 20
-294.248895660838
 42
0.0
  0
VERTEX
  8
Image
 10
346.326959624489
 20
-275.246356336388
 42
0.0
  0
VERTEX
  8
Image
 10
368.958050999381
 20
-293.900327542117
 42
0.0
  0
VERTEX
  8
Image
 10
350.594844362724
 20
-313.567022863633
 42
0.0
  0
VERTEX
  8
Image
 10
366.483407682136
 20
-327.298232200569
 42
0.0
  0
VERTEX
  8
Image
 10
369.551621133195
 20
-345.340667770243
 42
0.0
  0
VERTEX
  8
Image
 10
360.722287472461
 20
-353.38944674272
 42
0.0
  0
VERTEX
  8
Image
 10
353.043651022142
 20
-362.485718100317
 42
0.0
  0
VERTEX
  8
Image
 10
334.32621913445
 20
-360.696440000487
 42
0.0
  0
VERTEX
  8
Image
 10
319.189181455091
 20
-346.18470193492
 42
0.0
  0
VERTEX
  8
Image
 10
300.21556931751
 20
-365.295738384348
 42
0.0
  0
VERTEX
  8
Image
 10
279.582895516143
 20
-344.566226112812
 42
0.0
  0
VERTEX
  8
Image
 10
297.931806179436
 20
-326.337140782349
 42
0.0
  0
VERTEX
  8
Image
 10
285.941316421069
 20
-313.241921888747
 42
-0.0442369491806
  0
VERTEX
  8
Image
 10
231.863209219604
 20
-354.716009526362
 42
0.0
  0
VERTEX
  8
Image
 10
241.617473306753
 20
-368.701988543465
 42
0.0
  0
VERTEX
  8
Image
 10
263.779623419995
 20
-355.054673658363
 42
0.0
  0
VERTEX
  8
Image
 10
280.327073360604
 20
-378.998671758201
 42
0.0
  0
VERTEX
  8
Image
 10
257.147543577541
 20
-393.056118099632
 42
0.0
  0
VERTEX
  8
Image
 10
268.587074109953
 20
-410.477264493609
 42
0.0
  0
VERTEX
  8
Image
 10
266.48321998707
 20
-428.649911311848
 42
0.0
  0
VERTEX
  8
Image
 10
255.732479904711
 20
-434.054918637609
 42
0.0
  0
VERTEX
  8
Image
 10
245.795362344649
 20
-440.77264783039
 42
0.0
  0
VERTEX
  8
Image
 10
228.287550038872
 20
-434.092107585654
 42
0.0
  0
VERTEX
  8
Image
 10
217.789834602529
 20
-416.119073390815
 42
0.0
  0
VERTEX
  8
Image
 10
194.178705908135
 20
-429.480165694398
 42
0.0
  0
VERTEX
  8
Image
 10
180.13568128409
 20
-404.0686164944
 42
0.0
  0
VERTEX
  8
Image
 10
202.898599095894
 20
-391.390597410838
 42
0.0
  0
VERTEX
  8
Image
 10
195.031428211811
 20
-375.614126093704
 42
-0.0435472676022
  0
VERTEX
  8
Image
 10
131.585272975249
 20
-401.128391061865
 42
0.0
  0
VERTEX
  8
Image
 10
136.846488462788
 20
-417.231490172847
 42
0.0
  0
VERTEX
  8
Image
 10
161.992957056385
 20
-409.967336385808
 42
0.0
  0
VERTEX
  8
Image
 10
171.210101368189
 20
-437.387647264054
 42
0.0
  0
VERTEX
  8
Image
 10
144.969843449003
 20
-444.777080990482
 42
0.0
  0
VERTEX
  8
Image
 10
151.098670511539
 20
-464.568655011016
 42
0.0
  0
VERTEX
  8
Image
 10
143.985386335373
 20
-481.497670536815
 42
0.0
  0
VERTEX
  8
Image
 10
132.127273092419
 20
-483.852156478465
 42
0.0
  0
VERTEX
  8
Image
 10
120.684436776676
 20
-487.685174732968
 42
0.0
  0
VERTEX
  8
Image
 10
105.708896768401
 20
-476.621786785352
 42
0.0
  0
VERTEX
  8
Image
 10
100.640845859028
 20
-456.548526523562
 42
0.0
  0
VERTEX
  8
Image
 10
74.1802977379698
 20
-463.153649443558
 42
0.0
  0
VERTEX
  8
Image
 10
67.7839137476763
 20
-434.984293283629
 42
0.0
  0
VERTEX
  8
Image
 10
93.2370171221319
 20
-428.811867454579
 42
0.0
  0
VERTEX
  8
Image
 10
89.9758032016421
 20
-411.570720234419
 42
-0.0437504609015
  0
VERTEX
  8
Image
 10
21.0235359837111
 20
-419.323483627767
 42
0.0
  0
VERTEX
  8
Image
 10
22.6032621610379
 20
-436.175468978302
 42
0.0
  0
VERTEX
  8
Image
 10
48.829569320229
 20
-435.609614532368
 42
0.0
  0
VERTEX
  8
Image
 10
50.2916000002729
 20
-464.42234210921
 42
0.0
  0
VERTEX
  8
Image
 10
22.9762004229597
 20
-464.828858909999
 42
0.0
  0
VERTEX
  8
Image
 10
23.5260122126242
 20
-485.49123505418
 42
0.0
  0
VERTEX
  8
Image
 10
12.0771349728661
 20
-500.000001493574
 42
0.0
  0
VERTEX
  8
Image
 10
-0.0000000000045
 20
-499.233662153665
 42
0.0
  0
VERTEX
  8
Image
 10
-12.0771349728661
 20
-500.000001493574
 42
0.0
  0
VERTEX
  8
Image
 10
-23.5260122126238
 20
-485.49123505418
 42
0.0
  0
VERTEX
  8
Image
 10
-22.9762004229597
 20
-464.828858909999
 42
0.0
  0
VERTEX
  8
Image
 10
-50.2916000002729
 20
-464.42234210921
 42
0.0
  0
VERTEX
  8
Image
 10
-48.8295693202285
 20
-435.609614532368
 42
0.0
  0
VERTEX
  8
Image
 10
-22.6032621610379
 20
-436.175468978302
 42
0.0
  0
VERTEX
  8
Image
 10
-21.0235359837106
 20
-419.323483627767
 42
-0.0437894689227
  0
VERTEX
  8
Image
 10
-89.9758032016421
 20
-411.570720234419
 42
0.0
  0
VERTEX
  8
Image
 10
-93.2370171221319
 20
-428.811867454579
 42
0.0
  0
VERTEX
  8
Image
 10
-67.7839137476763
 20
-434.984293283629
 42
0.0
  0
VERTEX
  8
Image
 10
-74.1802977379693
 20
-463.153649443558
 42
0.0
  0
VERTEX
  8
Image
 10
-100.640845859028
 20
-456.548526523562
 42
0.0
  0
VERTEX
  8
Image
 10
-105.7088967684
 20
-476.621786785352
 42
0.0
  0
VERTEX
  8
Image
 10
-120.684436776676
 20
-487.685174732968
 42
0.0
  0
VERTEX
  8
Image
 10
-132.127273092419
 20
-483.852156478465
 42
0.0
  0
VERTEX
  8
Image
 10
-143.985386335373
 20
-481.497670536815
 42
0.0
  0
VERTEX
  8
Image
 10
-151.098670511539
 20
-464.568655011016
 42
0.0
  0
VERTEX
  8
Image
 10
-144.969843449003
 20
-444.777080990482
 42
0.0
  0
VERTEX
  8
Image
 10
-171.210101368189
 20
-437.387647264054
 42
0.0
  0
VERTEX
  8
Image
 10
-161.992957056385
 20
-409.967336385808
 42
0.0
  0
VERTEX
  8
Image
 10
-136.846488462787
 20
-417.231490172847
 42
0.0
  0
VERTEX
  8
Image
 10
-131.585272975249
 20
-401.128391061865
 42
-0.0436700801416
  0
VERTEX
  8
Image
 10
-195.031428211811
 20
-375.614126093704
 42
0.0
  0
VERTEX
  8
Image
 10
-202.898599095894
 20
-391.390597410838
 42
0.0
  0
VERTEX
  8
Image
 10
-180.13568128409
 20
-404.0686164944
 42
0.0
  0
VERTEX
  8
Image
 10
-194.178705908135
 20
-429.480165694398
 42
0.0
  0
VERTEX
  8
Image
 10
-217.789834602529
 20
-416.119073390815
 42
0.0
  0
VERTEX
  8
Image
 10
-228.287550038872
 20
-434.092107585654
 42
0.0
  0
VERTEX
  8
Image
 10
-245.795362344649
 20
-440.77264783039
 42
0.0
  0
VERTEX
  8
Image
 10
-255.732479904711
 20
-434.054918637609
 42
0.0
  0
VERTEX
  8
Image
 10
-266.48321998707
 20
-428.649911311848
 42
0.0
  0
VERTEX
  8
Image
 10
-268.587074109953
 20
-410.477264493609
 42
0.0
  0
VERTEX
  8
Image
 10
-257.147543577541
 20
-393.056118099632
 42
0.0
  0
VERTEX
  8
Image
 10
-280.327073360604
 20
-378.998671758201
 42
0.0
  0
VERTEX
  8
Image
 10
-263.779623419994
 20
-355.054673658363
 42
0.0
  0
VERTEX
  8
Image
 10
-241.617473306753
 20
-368.701988543465
 42
0.0
  0
VERTEX
  8
Image
 10
-231.863209219604
 20
-354.716009526362
 42
-0.0444311106599
  0
VERTEX
  8
Image
 10
-285.941316421068
 20
-313.241921888747
 42
0.0
  0
VERTEX
  8
Image
 10
-297.931806179436
 20
-326.337140782349
 42
0.0
  0
VERTEX
  8
Image
 10
-279.582895516143
 20
-344.566226112812
 42
0.0
  0
VERTEX
  8
Image
 10
-300.21556931751
 20
-365.295738384348
 42
0.0
  0
VERTEX
  8
Image
 10
-319.18918145509
 20
-346.18470193492
 42
0.0
  0
VERTEX
  8
Image
 10
-334.32621913445
 20
-360.696440000487
 42
0.0
  0
VERTEX
  8
Image
 10
-353.043651022142
 20
-362.485718100317
 42
0.0
  0
VERTEX
  8
Image
 10
-360.722287472461
 20
-353.38944674272
 42
0.0
  0
VERTEX
  8
Image
 10
-369.551621133194
 20
-345.340667770243
 42
0.0
  0
VERTEX
  8
Image
 10
-366.483407682136
 20
-327.298232200569
 42
0.0
  0
VERTEX
  8
Image
 10
-350.594844362724
 20
-313.567022863633
 42
0.0
  0
VERTEX
  8
Image
 10
-368.958050999381
 20
-293.900327542117
 42
0.0
  0
VERTEX
  8
Image
 10
-346.326959624489
 20
-275.246356336388
 42
0.0
  0
VERTEX
  8
Image
 10
-328.827707981069
 20
-294.248895660838
 42
0.0
  0
VERTEX
  8
Image
 10
-315.429641042324
 20
-283.481095737999
 42
-0.0451851661421
  0
VERTEX
  8
Image
 10
-355.944142384403
 20
-229.15202622673
 42
0.0
  0
VERTEX
  8
Image
 10
-371.148667839587
 20
-238.577931411385
 42
0.0
  0
VERTEX
  8
Image
 10
-358.597770437778
 20
-260.976203206601
 42
0.0
  0
VERTEX
  8
Image
 10
-384.255793141536
 20
-275.45989851686
 42
0.0
  0
VERTEX
  8
Image
 10
-397.160814095465
 20
-252.047606690053
 42
0.0
  0
VERTEX
  8
Image
 10
-415.789670218544
 20
-262.003448902971
 42
0.0
  0
VERTEX
  8
Image
 10
-434.300945550601
 20
-258.769607703359
 42
0.0
  0
VERTEX
  8
Image
 10
-439.142209308162
 20
-247.984076710984
 42
0.0
  0
VERTEX
  8
Image
 10
-445.384024123202
 20
-237.901808465657
 42
0.0
  0
VERTEX
  8
Image
 10
-437.37928087027
 20
-221.353402280173
 42
0.0
  0
VERTEX
  8
Image
 10
-418.245867393258
 20
-212.347567007728
 42
0.0
  0
VERTEX
  8
Image
 10
-430.407943928729
 20
-188.562218354583
 42
0.0
  0
VERTEX
  8
Image
 10
-403.408228767373
 20
-176.604731683962
 42
0.0
  0
VERTEX
  8
Image
 10
-391.891479035351
 20
-199.522283035053
 42
0.0
  0
VERTEX
  8
Image
 10
-375.943089020687
 20
-192.80883999731
 42
-0.0457709171012
  0
VERTEX
  8
Image
 10
-400.858577529644
 20
-130.13646797285
 42
0.0
  0
VERTEX
  8
Image
 10
-418.043810777333
 20
-135.443913872473
 42
0.0
  0
VERTEX
  8
Image
 10
-411.803196096814
 20
-160.218757214857
 42
0.0
  0
VERTEX
  8
Image
 10
-440.417971425822
 20
-167.838545723754
 42
0.0
  0
VERTEX
  8
Image
 10
-446.734152134267
 20
-141.995339302474
 42
0.0
  0
VERTEX
  8
Image
 10
-467.362423366402
 20
-146.986313787497
 42
0.0
  0
VERTEX
  8
Image
 10
-484.406999572168
 20
-139.255706988083
 42
0.0
  0
VERTEX
  8
Image
 10
-486.249654953331
 20
-127.62485753602
 42
0.0
  0
VERTEX
  8
Image
 10
-489.631280198109
 20
-116.325508210053
 42
0.0
  0
VERTEX
  8
Image
 10
-477.539215302918
 20
-102.318754991314
 42
0.0
  0
VERTEX
  8
Image
 10
-456.67310860011
 20
-98.3716782234097
 42
0.0
  0
VERTEX
  8
Image
 10
-462.172918449216
 20
-72.3526223269657
 42
0.0
  0
VERTEX
  8
Image
 10
-432.925703508208
 20
-67.5087118875223
 42
0.0
  0
VERTEX
  8
Image
 10
-427.821443043289
 20
-92.5283303711651
 42
0.0
  0
VERTEX
  8
Image
 10
-410.650515355379
 20
-89.9001600884066
 42
-0.0459480729679
  0
VERTEX
  8
Image
 10
-417.054527667413
 20
-23.1379827866899
 42
0.0
  0
VERTEX
  8
Image
 10
-435.076826499643
 20
-23.660090374512
 42
0.0
  0
VERTEX
  8
Image
 10
-436.009751528062
 20
-49.1510788725553
 42
0.0
  0
VERTEX
  8
Image
 10
-465.677142285732
 20
-48.9070897983287
 42
0.0
  0
VERTEX
  8
Image
 10
-464.517752365623
 20
-22.3680983964109
 42
0.0
  0
VERTEX
  8
Image
 10
-485.764245883188
 20
-21.7090797798135
 42
0.0
  0
VERTEX
  8
Image
 10
-500.000000354606
 20
-9.7579441344728
 42
0.0
  0
VERTEX
  8
Image
 10
-498.760146768597
 20
0.0000000000002
 42
0.0
  0
VERTEX
  8
Image
 10
-500.000000354606
 20
9.7579441344733
 42
0.0
  0
VERTEX
  8
Image
 10
-485.764245883188
 20
21.7090797798139
 42
0.0
  0
VERTEX
  8
Image
 10
-464.517752365623
 20
22.3680983964114
 42
0.0
  0
VERTEX
  8
Image
 10
-465.677142285732
 20
48.907089798329
 42
0.0
  0
VERTEX
  8
Image
 10
-436.009751528062
 20
49.1510788725557
 42
0.0
  0
VERTEX
  8
Image
 10
-435.076826499643
 20
23.6600903745123
 42
0.0
  0
VERTEX
  8
Image
 10
-417.054527667413
 20
23.1379827866901
 42
-0.0459127582198
  0
VERTEX
  8
Image
 10
-410.650515355379
 20
89.9001600884069
 42
0.0
  0
VERTEX
  8
Image
 10
-427.821443043289
 20
92.5283303711656
 42
0.0
  0
VERTEX
  8
Image
 10
-432.925703508208
 20
67.5087118875226
 42
0.0
  0
VERTEX
  8
Image
 10
-462.172918449216
 20
72.3526223269662
 42
0.0
  0
VERTEX
  8
Image
 10
-456.67310860011
 20
98.3716782234101
 42
0.0
  0
VERTEX
  8
Image
 10
-477.539215302918
 20
102.318754991315
 42
0.0
  0
VERTEX
  8
Image
 10
-489.631280198109
 20
116.325508210053
 42
0.0
  0
VERTEX
  8
Image
 10
-486.249654953331
 20
127.62485753602
 42
0.0
  0
VERTEX
  8
Image
 10
-484.406999572168
 20
139.255706988083
 42
0.0
  0
VERTEX
  8
Image
 10
-467.362423366402
 20
146.986313787498
 42
0.0
  0
VERTEX
  8
Image
 10
-446.734152134267
 20
141.995339302475
 42
0.0
  0
VERTEX
  8
Image
 10
-440.417971425822
 20
167.838545723754
 42
0.0
  0
VERTEX
  8
Image
 10
-411.803196096814
 20
160.218757214858
 42
0.0
  0
VERTEX
  8
Image
 10
-418.043810777333
 20
135.443913872474
 42
0.0
  0
VERTEX
  8
Image
 10
-400.858577529644
 20
130.13646797285
 42
-0.0456443080961
  0
VERTEX
  8
Image
 10
-375.943089020687
 20
192.808839997311
 42
0.0
  0
VERTEX
  8
Image
 10
-391.891479035351
 20
199.522283035054
 42
0.0
  0
VERTEX
  8
Image
 10
-403.408228767373
 20
176.604731683962
 42
0.0
  0
VERTEX
  8
Image
 10
-430.407943928729
 20
188.562218354584
 42
0.0
  0
VERTEX
  8
Image
 10
-418.245867393258
 20
212.347567007728
 42
0.0
  0
VERTEX
  8
Image
 10
-437.37928087027
 20
221.353402280173
 42
0.0
  0
VERTEX
  8
Image
 10
-445.384024123202
 20
237.901808465657
 42
0.0
  0
VERTEX
  8
Image
 10
-439.142209308162
 20
247.984076710984
 42
0.0
  0
VERTEX
  8
Image
 10
-434.300945550601
 20
258.769607703359
 42
0.0
  0
VERTEX
  8
Image
 10
-415.789670218544
 20
262.003448902971
 42
0.0
  0
VERTEX
  8
Image
 10
-397.160814095465
 20
252.047606690054
 42
0.0
  0
VERTEX
  8
Image
 10
-384.255793141536
 20
275.459898516861
 42
0.0
  0
VERTEX
  8
Image
 10
-358.597770437778
 20
260.976203206602
 42
0.0
  0
VERTEX
  8
Image
 10
-371.148667839587
 20
238.577931411385
 42
0.0
  0
VERTEX
  8
Image
 10
-355.944142384403
 20
229.15202622673
 42
-0.0450104987979
  0
VERTEX
  8
Image
 10
-315.429641042324
 20
283.481095737999
 42
0.0
  0
VERTEX
  8
Image
 10
-328.827707981069
 20
294.248895660838
 42
0.0
  0
VERTEX
  8
Image
 10
-346.326959624489
 20
275.246356336389
 42
0.0
  0
VERTEX
  8
Image
 10
-368.95805099938
 20
293.900327542118
 42
0.0
  0
VERTEX
  8
Image
 10
-350.594844362724
 20
313.567022863633
 42
0.0
  0
VERTEX
  8
Image
 10
-366.483407682136
 20
327.298232200569
 42
0.0
  0
VERTEX
  8
Image
 10
-369.551621133194
 20
345.340667770244
 42
0.0
  0
VERTEX
  8
Image
 10
-360.72228747246
 20
353.389446742721
 42
0.0
  0
VERTEX
  8
Image
 10
-353.043651022141
 20
362.485718100317
 42
0.0
  0
VERTEX
  8
Image
 10
-334.326219134449
 20
360.696440000487
 42
0.0
  0
VERTEX
  8
Image
 10
-319.18918145509
 20
346.18470193492
 42
0.0
  0
VERTEX
  8
Image
 10
-300.215569317509
 20
365.295738384348
 42
0.0
  0
VERTEX
  8
Image
 10
-279.582895516143
 20
344.566226112812
 42
0.0
  0
VERTEX
  8
Image
 10
-297.931806179435
 20
326.337140782349
 42
0.0
  0
VERTEX
  8
Image
 10
-285.941316421068
 20
313.241921888747
 42
-0.0442369491806
  0
VERTEX
  8
Image
 10
-231.863209219603
 20
354.716009526362
 42
0.0
  0
VERTEX
  8
Image
 10
-241.617473306752
 20
368.701988543465
 42
0.0
  0
VERTEX
  8
Image
 10
-263.779623419994
 20
355.054673658364
 42
0.0
  0
VERTEX
  8
Image
 10
-280.327073360604
 20
378.998671758202
 42
0.0
  0
VERTEX
  8
Image
 10
-257.147543577541
 20
393.056118099632
 42
0.0
  0
VERTEX
  8
Image
 10
-268.587074109953
 20
410.477264493609
 42
0.0
  0
VERTEX
  8
Image
 10
-266.48321998707
 20
428.649911311848
 42
0.0
  0
VERTEX
  8
Image
 10
-255.73247990471
 20
434.054918637609
 42
0.0
  0
VERTEX
  8
Image
 10
-245.795362344649
 20
440.77264783039
 42
0.0
  0
VERTEX
  8
Image
 10
-228.287550038871
 20
434.092107585654
 42
0.0
  0
VERTEX
  8
Image
 10
-217.789834602529
 20
416.119073390815
 42
0.0
  0
VERTEX
  8
Image
 10
-194.178705908135
 20
429.480165694398
 42
0.0
  0
VERTEX
  8
Image
 10
-180.13568128409
 20
404.068616494401
 42
0.0
  0
VERTEX
  8
Image
 10
-202.898599095894
 20
391.390597410838
 42
0.0
  0
VERTEX
  8
Image
 10
-195.031428211811
 20
375.614126093704
 42
-0.0435472676021
  0
VERTEX
  8
Image
 10
-131.585272975249
 20
401.128391061865
 42
0.0
  0
VERTEX
  8
Image
 10
-136.846488462787
 20
417.231490172847
 42
0.0
  0
VERTEX
  8
Image
 10
-161.992957056385
 20
409.967336385809
 42
0.0
  0
VERTEX
  8
Image
 10
-171.210101368188
 20
437.387647264054
 42
0.0
  0
VERTEX
  8
Image
 10
-144.969843449003
 20
444.777080990483
 42
0.0
  0
VERTEX
  8
Image
 10
-151.098670511539
 20
464.568655011017
 42
0.0
  0
VERTEX
  8
Image
 10
-143.985386335373
 20
481.497670536815
 42
0.0
  0
VERTEX
  8
Image
 10
-132.127273092419
 20
483.852156478465
 42
0.0
  0
VERTEX
  8
Image
 10
-120.684436776676
 20
487.685174732968
 42
0.0
  0
VERTEX
  8
Image
 10
-105.7088967684
 20
476.621786785352
 42
0.0
  0
VERTEX
  8
Image
 10
-100.640845859028
 20
456.548526523562
 42
0.0
  0
VERTEX
  8
Image
 10
-74.1802977379689
 20
463.153649443558
 42
0.0
  0
VERTEX
  8
Image
 10
-67.7839137476758
 20
434.984293283629
 42
0.0
  0
VERTEX
  8
Image
 10
-93.2370171221314
 20
428.811867454579
 42
0.0
  0
VERTEX
  8
Image
 10
-89.9758032016416
 20
411.570720234419
 42
-0.0437504609016
  0
VERTEX
  8
Image
 10
-21.0235359837106
 20
419.323483627767
 42
0.0
  0
VERTEX
  8
Image
 10
-22.6032621610375
 20
436.175468978302
 42
0.0
  0
VERTEX
  8
Image
 10
-48.8295693202285
 20
435.609614532368
 42
0.0
  0
VERTEX
  8
Image
 10
-50.2916000002724
 20
464.42234210921
 42
0.0
  0
VERTEX
  8
Image
 10
-22.9762004229592
 20
464.828858909999
 42
0.0
  0
VERTEX
  8
Image
 10
-23.5260122126238
 20
485.49123505418
 42
0.0
  0
VERTEX
  8
Image
 10
-12.0771349728657
 20
500.000001493574
 42
0.0
  0
SEQEND
  0
POLYLINE
  8
Image
 66
     1
 10
0.0
 20
0.0
 30
0.0
 70
     1
  0
VERTEX
  8
Image
 10
124.999999875
 20
-124.999999875
 42
0.0
  0
VERTEX
  8
Image
 10
1452.93348365
 20
-124.999999875
 42
0.0
  0
VERTEX
  8
Image
 10
1452.93348365
 20
124.999999875
 42
0.0
  0
VERTEX
  8
Image
 10
124.999999875
 20
124.999999875
 42
0.0
  0
VERTEX
  8
Image
 10
124.999999875
 20
1452.93348365
 42
0.0
  0
VERTEX
  8
Image
 10
-124.999999875
 20
1452.93348365
 42
0.0
  0
VERTEX
  8
Image
 10
-124.999999875
 20
124.999999875
 42
0.0
  0
VERTEX
  8
Image
 10
-1452.93348365
 20
124.999999875
 42
0.0
  0
VERTEX
  8
Image
 10
-1452.93348365
 20
-124.999999875
 42
0.0
  0
VERTEX
  8
Image
 10
-124.999999875
 20
-124.999999875
 42
0.0
  0
VERTEX
  8
Image
 10
-124.999999875
 20
-1452.93348365
 42
0.0
  0
VERTEX
  8
Image
 10
124.999999875
 20
-1452.93348365
 42
0.0
  0
SEQEND
  0
ENDSEC
  0
EOF
