  0
SECTION
  2
HEADER
  9
$ACADVER
  1
AC1009
  9
$EXTMAX
 10
1116.0
 20
1355.0
 30
0.0
  9
$EXTMIN
 10
1016.0
 20
-645.0
 30
0.0
  9
$INSUNITS
 70
     4
  9
$LUNITS
 70
     2
  9
$LUPREC
 70
     4
  9
$MEASUREMENT
 70
     1
  0
ENDSEC
  0
SECTION
  2
TABLES
  0
TABLE
  2
LAYER
 70
     1
  0
LAYER
  2
0
 70
     0
 62
     7
  6
Continuous
  0
LAYER
  2
Default
 70
     0
 62
    70
  6
Continuous
  0
ENDTAB
  0
TABLE
  2
APPID
 70
     1
  0
APPID
  2
ACAD
 70
     0
  0
ENDTAB
  0
ENDSEC
  0
SECTION
  2
ENTITIES
  0
POLYLINE
  8
Default
 66
     1
 10
0.0
 20
0.0
 30
0.0
 70
     1
  0
VERTEX
  8
Default
 10
1026.00000000649
 20
-555.590208107196
 42
0.0
  0
VERTEX
  8
Default
 10
1026.0000000065
 20
-490.974842127091
 42
0.0
  0
VERTEX
  8
Default
 10
1052.48463354143
 20
-523.282525122721
 42
0.0
  0
SEQEND
  0
POLYLINE
  8
Default
 66
     1
 10
0.0
 20
0.0
 30
0.0
 70
     1
  0
VERTEX
  8
Default
 10
1105.99999999351
 20
-555.590208107194
 42
0.0
  0
VERTEX
  8
Default
 10
1105.99999999351
 20
-490.974842127086
 42
0.0
  0
VERTEX
  8
Default
 10
1079.51536645857
 20
-523.282525122722
 42
0.0
  0
SEQEND
  0
POLYLINE
  8
Default
 66
     1
 10
0.0
 20
0.0
 30
0.0
 70
     1
  0
VERTEX
  8
Default
 10
1026.0000000065
 20
-452.262852210375
 42
0.0
  0
VERTEX
  8
Default
 10
1026.0000000065
 20
-387.647486230261
 42
0.0
  0
VERTEX
  8
Default
 10
1052.48463354143
 20
-419.955169225904
 42
0.0
  0
SEQEND
  0
POLYLINE
  8
Default
 66
     1
 10
0.0
 20
0.0
 30
0.0
 70
     1
  0
VERTEX
  8
Default
 10
1105.9999999935
 20
-452.262852210381
 42
0.0
  0
VERTEX
  8
Default
 10
1105.99999999351
 20
-387.647486230266
 42
0.0
  0
VERTEX
  8
Default
 10
1079.51536645857
 20
-419.955169225903
 42
0.0
  0
SEQEND
  0
POLYLINE
  8
Default
 66
     1
 10
0.0
 20
0.0
 30
0.0
 70
     1
  0
VERTEX
  8
Default
 10
1026.0000000065
 20
-348.935496313547
 42
0.0
  0
VERTEX
  8
Default
 10
1026.00000000649
 20
-284.32013033344
 42
0.0
  0
VERTEX
  8
Default
 10
1052.48463354143
 20
-316.627813329083
 42
0.0
  0
SEQEND
  0
POLYLINE
  8
Default
 66
     1
 10
0.0
 20
0.0
 30
0.0
 70
     1
  0
VERTEX
  8
Default
 10
1105.99999999351
 20
-348.93549631356
 42
0.0
  0
VERTEX
  8
Default
 10
1105.9999999935
 20
-284.320130333453
 42
0.0
  0
VERTEX
  8
Default
 10
1079.51536645857
 20
-316.627813329081
 42
0.0
  0
SEQEND
  0
POLYLINE
  8
Default
 66
     1
 10
0.0
 20
0.0
 30
0.0
 70
     1
  0
VERTEX
  8
Default
 10
1026.0000000065
 20
-245.608140416731
 42
0.0
  0
VERTEX
  8
Default
 10
1026.00000000649
 20
-180.99277443663
 42
0.0
  0
VERTEX
  8
Default
 10
1052.48463354143
 20
-213.300457432257
 42
0.0
  0
SEQEND
  0
POLYLINE
  8
Default
 66
     1
 10
0.0
 20
0.0
 30
0.0
 70
     1
  0
VERTEX
  8
Default
 10
1105.99999999351
 20
-245.608140416739
 42
0.0
  0
VERTEX
  8
Default
 10
1105.99999999351
 20
-180.992774436628
 42
0.0
  0
VERTEX
  8
Default
 10
1079.51536645857
 20
-213.300457432258
 42
0.0
  0
SEQEND
  0
POLYLINE
  8
Default
 66
     1
 10
0.0
 20
0.0
 30
0.0
 70
     1
  0
VERTEX
  8
Default
 10
1026.00000000649
 20
-142.280784519904
 42
0.0
  0
VERTEX
  8
Default
 10
1026.00000000649
 20
-77.6654185398011
 42
0.0
  0
VERTEX
  8
Default
 10
1052.48463354143
 20
-109.973101535437
 42
0.0
  0
SEQEND
  0
POLYLINE
  8
Default
 66
     1
 10
0.0
 20
0.0
 30
0.0
 70
     1
  0
VERTEX
  8
Default
 10
1105.99999999351
 20
-142.28078451991
 42
0.0
  0
VERTEX
  8
Default
 10
1105.9999999935
 20
-77.6654185398038
 42
0.0
  0
VERTEX
  8
Default
 10
1079.51536645857
 20
-109.973101535435
 42
0.0
  0
SEQEND
  0
POLYLINE
  8
Default
 66
     1
 10
0.0
 20
0.0
 30
0.0
 70
     1
  0
VERTEX
  8
Default
 10
1026.0000000065
 20
-38.9534286230837
 42
0.0
  0
VERTEX
  8
Default
 10
1026.00000000649
 20
25.661937357022
 42
0.0
  0
VERTEX
  8
Default
 10
1052.48463354143
 20
-6.6457456386197
 42
0.0
  0
SEQEND
  0
POLYLINE
  8
Default
 66
     1
 10
0.0
 20
0.0
 30
0.0
 70
     1
  0
VERTEX
  8
Default
 10
1105.99999999351
 20
-38.953428623101
 42
0.0
  0
VERTEX
  8
Default
 10
1105.99999999351
 20
25.6619373570156
 42
0.0
  0
VERTEX
  8
Default
 10
1079.51536645857
 20
-6.6457456386124
 42
0.0
  0
SEQEND
  0
POLYLINE
  8
Default
 66
     1
 10
0.0
 20
0.0
 30
0.0
 70
     1
  0
VERTEX
  8
Default
 10
1026.0000000065
 20
64.3739272737366
 42
0.0
  0
VERTEX
  8
Default
 10
1026.0000000065
 20
128.989293253845
 42
0.0
  0
VERTEX
  8
Default
 10
1052.48463354143
 20
96.6816102582034
 42
0.0
  0
SEQEND
  0
POLYLINE
  8
Default
 66
     1
 10
0.0
 20
0.0
 30
0.0
 70
     1
  0
VERTEX
  8
Default
 10
1105.99999999351
 20
64.3739272737257
 42
0.0
  0
VERTEX
  8
Default
 10
1105.99999999351
 20
128.989293253834
 42
0.0
  0
VERTEX
  8
Default
 10
1079.51536645858
 20
96.6816102582052
 42
0.0
  0
SEQEND
  0
POLYLINE
  8
Default
 66
     1
 10
0.0
 20
0.0
 30
0.0
 70
     1
  0
VERTEX
  8
Default
 10
1026.00000000649
 20
167.701283170547
 42
0.0
  0
VERTEX
  8
Default
 10
1026.0000000065
 20
232.316649150664
 42
0.0
  0
VERTEX
  8
Default
 10
1052.48463354143
 20
200.008966155026
 42
0.0
  0
SEQEND
  0
POLYLINE
  8
Default
 66
     1
 10
0.0
 20
0.0
 30
0.0
 70
     1
  0
VERTEX
  8
Default
 10
1105.99999999351
 20
167.701283170547
 42
0.0
  0
VERTEX
  8
Default
 10
1105.99999999351
 20
232.316649150664
 42
0.0
  0
VERTEX
  8
Default
 10
1079.51536645858
 20
200.008966155024
 42
0.0
  0
SEQEND
  0
POLYLINE
  8
Default
 66
     1
 10
0.0
 20
0.0
 30
0.0
 70
     1
  0
VERTEX
  8
Default
 10
1026.00000000649
 20
271.028639067382
 42
0.0
  0
VERTEX
  8
Default
 10
1026.00000000649
 20
335.644005047498
 42
0.0
  0
VERTEX
  8
Default
 10
1052.48463354143
 20
303.336322051851
 42
0.0
  0
SEQEND
  0
POLYLINE
  8
Default
 66
     1
 10
0.0
 20
0.0
 30
0.0
 70
     1
  0
VERTEX
  8
Default
 10
1105.99999999351
 20
271.028639067369
 42
0.0
  0
VERTEX
  8
Default
 10
1105.99999999351
 20
335.644005047484
 42
0.0
  0
VERTEX
  8
Default
 10
1079.51536645857
 20
303.336322051841
 42
0.0
  0
SEQEND
  0
POLYLINE
  8
Default
 66
     1
 10
0.0
 20
0.0
 30
0.0
 70
     1
  0
VERTEX
  8
Default
 10
1026.00000000649
 20
374.355994964195
 42
0.0
  0
VERTEX
  8
Default
 10
1026.00000000649
 20
438.97136094431
 42
0.0
  0
VERTEX
  8
Default
 10
1052.48463354143
 20
406.663677948669
 42
0.0
  0
SEQEND
  0
POLYLINE
  8
Default
 66
     1
 10
0.0
 20
0.0
 30
0.0
 70
     1
  0
VERTEX
  8
Default
 10
1105.9999999935
 20
374.355994964189
 42
0.0
  0
VERTEX
  8
Default
 10
1105.99999999351
 20
438.97136094431
 42
0.0
  0
VERTEX
  8
Default
 10
1079.51536645857
 20
406.663677948669
 42
0.0
  0
SEQEND
  0
POLYLINE
  8
Default
 66
     1
 10
0.0
 20
0.0
 30
0.0
 70
     1
  0
VERTEX
  8
Default
 10
1026.00000000649
 20
477.683350861022
 42
0.0
  0
VERTEX
  8
Default
 10
1026.0000000065
 20
542.298716841126
 42
0.0
  0
VERTEX
  8
Default
 10
1052.48463354143
 20
509.991033845496
 42
0.0
  0
SEQEND
  0
POLYLINE
  8
Default
 66
     1
 10
0.0
 20
0.0
 30
0.0
 70
     1
  0
VERTEX
  8
Default
 10
1105.9999999935
 20
477.683350861009
 42
0.0
  0
VERTEX
  8
Default
 10
1105.99999999351
 20
542.298716841126
 42
0.0
  0
VERTEX
  8
Default
 10
1079.51536645857
 20
509.991033845496
 42
0.0
  0
SEQEND
  0
POLYLINE
  8
Default
 66
     1
 10
0.0
 20
0.0
 30
0.0
 70
     1
  0
VERTEX
  8
Default
 10
1026.0000000065
 20
581.010706757841
 42
0.0
  0
VERTEX
  8
Default
 10
1026.00000000649
 20
645.626072737947
 42
0.0
  0
VERTEX
  8
Default
 10
1052.48463354143
 20
613.31838974231
 42
0.0
  0
SEQEND
  0
POLYLINE
  8
Default
 66
     1
 10
0.0
 20
0.0
 30
0.0
 70
     1
  0
VERTEX
  8
Default
 10
1105.9999999935
 20
581.010706757836
 42
0.0
  0
VERTEX
  8
Default
 10
1105.99999999351
 20
645.626072737943
 42
0.0
  0
VERTEX
  8
Default
 10
1079.51536645857
 20
613.318389742319
 42
0.0
  0
SEQEND
  0
POLYLINE
  8
Default
 66
     1
 10
0.0
 20
0.0
 30
0.0
 70
     1
  0
VERTEX
  8
Default
 10
1026.00000000649
 20
684.338062654662
 42
0.0
  0
VERTEX
  8
Default
 10
1026.00000000649
 20
748.953428634773
 42
0.0
  0
VERTEX
  8
Default
 10
1052.48463354142
 20
716.645745639138
 42
0.0
  0
SEQEND
  0
POLYLINE
  8
Default
 66
     1
 10
0.0
 20
0.0
 30
0.0
 70
     1
  0
VERTEX
  8
Default
 10
1105.9999999935
 20
684.33806265466
 42
0.0
  0
VERTEX
  8
Default
 10
1105.99999999351
 20
748.953428634764
 42
0.0
  0
VERTEX
  8
Default
 10
1079.51536645857
 20
716.645745639138
 42
0.0
  0
SEQEND
  0
POLYLINE
  8
Default
 66
     1
 10
0.0
 20
0.0
 30
0.0
 70
     1
  0
VERTEX
  8
Default
 10
1026.00000000649
 20
787.665418551482
 42
0.0
  0
VERTEX
  8
Default
 10
1026.00000000649
 20
852.280784531593
 42
0.0
  0
VERTEX
  8
Default
 10
1052.48463354143
 20
819.973101535959
 42
0.0
  0
SEQEND
  0
POLYLINE
  8
Default
 66
     1
 10
0.0
 20
0.0
 30
0.0
 70
     1
  0
VERTEX
  8
Default
 10
1105.99999999351
 20
787.665418551478
 42
0.0
  0
VERTEX
  8
Default
 10
1105.99999999351
 20
852.280784531593
 42
0.0
  0
VERTEX
  8
Default
 10
1079.51536645857
 20
819.973101535958
 42
0.0
  0
SEQEND
  0
POLYLINE
  8
Default
 66
     1
 10
0.0
 20
0.0
 30
0.0
 70
     1
  0
VERTEX
  8
Default
 10
1026.00000000649
 20
890.992774448301
 42
0.0
  0
VERTEX
  8
Default
 10
1026.00000000649
 20
955.60814042841
 42
0.0
  0
VERTEX
  8
Default
 10
1052.48463354143
 20
923.300457432773
 42
0.0
  0
SEQEND
  0
POLYLINE
  8
Default
 66
     1
 10
0.0
 20
0.0
 30
0.0
 70
     1
  0
VERTEX
  8
Default
 10
1105.99999999351
 20
890.992774448296
 42
0.0
  0
VERTEX
  8
Default
 10
1105.99999999351
 20
955.608140428412
 42
0.0
  0
VERTEX
  8
Default
 10
1079.51536645858
 20
923.300457432773
 42
0.0
  0
SEQEND
  0
POLYLINE
  8
Default
 66
     1
 10
0.0
 20
0.0
 30
0.0
 70
     1
  0
VERTEX
  8
Default
 10
1026.00000000649
 20
994.320130345126
 42
0.0
  0
VERTEX
  8
Default
 10
1026.00000000649
 20
1058.93549632523
 42
0.0
  0
VERTEX
  8
Default
 10
1052.48463354143
 20
1026.6278133296
 42
0.0
  0
SEQEND
  0
POLYLINE
  8
Default
 66
     1
 10
0.0
 20
0.0
 30
0.0
 70
     1
  0
VERTEX
  8
Default
 10
1105.9999999935
 20
994.320130345117
 42
0.0
  0
VERTEX
  8
Default
 10
1105.99999999351
 20
1058.93549632523
 42
0.0
  0
VERTEX
  8
Default
 10
1079.51536645857
 20
1026.6278133296
 42
0.0
  0
SEQEND
  0
POLYLINE
  8
Default
 66
     1
 10
0.0
 20
0.0
 30
0.0
 70
     1
  0
VERTEX
  8
Default
 10
1026.00000000649
 20
1097.64748624195
 42
0.0
  0
VERTEX
  8
Default
 10
1026.0000000065
 20
1162.26285222205
 42
0.0
  0
VERTEX
  8
Default
 10
1052.48463354143
 20
1129.95516922642
 42
0.0
  0
SEQEND
  0
POLYLINE
  8
Default
 66
     1
 10
0.0
 20
0.0
 30
0.0
 70
     1
  0
VERTEX
  8
Default
 10
1105.99999999351
 20
1097.64748624195
 42
0.0
  0
VERTEX
  8
Default
 10
1105.99999999351
 20
1162.26285222205
 42
0.0
  0
VERTEX
  8
Default
 10
1079.51536645857
 20
1129.95516922642
 42
0.0
  0
SEQEND
  0
POLYLINE
  8
Default
 66
     1
 10
0.0
 20
0.0
 30
0.0
 70
     1
  0
VERTEX
  8
Default
 10
1026.0000000065
 20
1200.97484213877
 42
0.0
  0
VERTEX
  8
Default
 10
1026.0000000065
 20
1265.59020811888
 42
0.0
  0
VERTEX
  8
Default
 10
1052.48463354143
 20
1233.28252512324
 42
0.0
  0
SEQEND
  0
POLYLINE
  8
Default
 66
     1
 10
0.0
 20
0.0
 30
0.0
 70
     1
  0
VERTEX
  8
Default
 10
1105.9999999935
 20
1200.97484213876
 42
0.0
  0
VERTEX
  8
Default
 10
1105.99999999351
 20
1265.59020811888
 42
0.0
  0
VERTEX
  8
Default
 10
1079.51536645857
 20
1233.28252512324
 42
0.0
  0
SEQEND
  0
POLYLINE
  8
Default
 66
     1
 10
0.0
 20
0.0
 30
0.0
 70
     1
  0
VERTEX
  8
Default
 10
1016.00000010705
 20
-644.99999945
 42
0.0
  0
VERTEX
  8
Default
 10
1115.99999989295
 20
-644.99999945
 42
0.0
  0
VERTEX
  8
Default
 10
1115.99999989295
 20
1354.99999945
 42
0.0
  0
VERTEX
  8
Default
 10
1016.00000010705
 20
1354.99999945
 42
0.0
  0
SEQEND
  0
POLYLINE
  8
Default
 66
     1
 10
0.0
 20
0.0
 30
0.0
 70
     1
  0
VERTEX
  8
Default
 10
1045.60672738017
 20
1344.99999945
 42
0.0
  0
VERTEX
  8
Default
 10
1052.48463354143
 20
1336.60988102006
 42
0.0
  0
VERTEX
  8
Default
 10
1026.0000000065
 20
1304.3021980356
 42
0.0
  0
VERTEX
  8
Default
 10
1026.00000000649
 20
1344.99999945
 42
0.0
  0
SEQEND
  0
POLYLINE
  8
Default
 66
     1
 10
0.0
 20
0.0
 30
0.0
 70
     1
  0
VERTEX
  8
Default
 10
1105.9999999935
 20
1344.99999945
 42
0.0
  0
VERTEX
  8
Default
 10
1105.99999999351
 20
1304.30219803558
 42
0.0
  0
VERTEX
  8
Default
 10
1079.51536645857
 20
1336.60988102006
 42
0.0
  0
VERTEX
  8
Default
 10
1086.39327261983
 20
1344.99999945
 42
0.0
  0
SEQEND
  0
POLYLINE
  8
Default
 66
     1
 10
0.0
 20
0.0
 30
0.0
 70
     1
  0
VERTEX
  8
Default
 10
1105.9999999935
 20
-634.99999945
 42
0.0
  0
VERTEX
  8
Default
 10
1105.99999999351
 20
-594.302198023914
 42
0.0
  0
VERTEX
  8
Default
 10
1079.51536645857
 20
-626.609881019541
 42
0.0
  0
VERTEX
  8
Default
 10
1086.39327262263
 20
-634.99999945
 42
0.0
  0
SEQEND
  0
POLYLINE
  8
Default
 66
     1
 10
0.0
 20
0.0
 30
0.0
 70
     1
  0
VERTEX
  8
Default
 10
1045.60672737737
 20
-634.99999945
 42
0.0
  0
VERTEX
  8
Default
 10
1026.00000000649
 20
-634.99999945
 42
0.0
  0
VERTEX
  8
Default
 10
1026.00000000649
 20
-594.302198023907
 42
0.0
  0
VERTEX
  8
Default
 10
1052.48463354143
 20
-626.609881019542
 42
0.0
  0
SEQEND
  0
POLYLINE
  8
Default
 66
     1
 10
0.0
 20
0.0
 30
0.0
 70
     1
  0
VERTEX
  8
Default
 10
1039.74953536617
 20
-574.946203077646
 42
0.0
  0
VERTEX
  8
Default
 10
1065.99999999942
 20
-606.968231566231
 42
0.0
  0
VERTEX
  8
Default
 10
1092.25046463383
 20
-574.946203065161
 42
0.0
  0
VERTEX
  8
Default
 10
1066.00000000058
 20
-542.924174576551
 42
0.0
  0
SEQEND
  0
POLYLINE
  8
Default
 66
     1
 10
0.0
 20
0.0
 30
0.0
 70
     1
  0
VERTEX
  8
Default
 10
1039.74953536617
 20
-471.618847180819
 42
0.0
  0
VERTEX
  8
Default
 10
1065.99999999942
 20
-503.640875669411
 42
0.0
  0
VERTEX
  8
Default
 10
1092.25046463383
 20
-471.618847168347
 42
0.0
  0
VERTEX
  8
Default
 10
1066.00000000058
 20
-439.596818679731
 42
0.0
  0
SEQEND
  0
POLYLINE
  8
Default
 66
     1
 10
0.0
 20
0.0
 30
0.0
 70
     1
  0
VERTEX
  8
Default
 10
1039.74953536617
 20
-368.291491284003
 42
0.0
  0
VERTEX
  8
Default
 10
1065.99999999942
 20
-400.31351977259
 42
0.0
  0
VERTEX
  8
Default
 10
1092.25046463383
 20
-368.29149127152
 42
0.0
  0
VERTEX
  8
Default
 10
1066.00000000058
 20
-336.269462782906
 42
0.0
  0
SEQEND
  0
POLYLINE
  8
Default
 66
     1
 10
0.0
 20
0.0
 30
0.0
 70
     1
  0
VERTEX
  8
Default
 10
1039.74953536617
 20
-264.964135387184
 42
0.0
  0
VERTEX
  8
Default
 10
1065.99999999941
 20
-296.98616387577
 42
0.0
  0
VERTEX
  8
Default
 10
1092.25046463383
 20
-264.964135374699
 42
0.0
  0
VERTEX
  8
Default
 10
1066.00000000058
 20
-232.942106886084
 42
0.0
  0
SEQEND
  0
POLYLINE
  8
Default
 66
     1
 10
0.0
 20
0.0
 30
0.0
 70
     1
  0
VERTEX
  8
Default
 10
1039.74953536617
 20
-161.636779490359
 42
0.0
  0
VERTEX
  8
Default
 10
1065.99999999942
 20
-193.658807978939
 42
0.0
  0
VERTEX
  8
Default
 10
1092.25046463383
 20
-161.636779477876
 42
0.0
  0
VERTEX
  8
Default
 10
1066.00000000058
 20
-129.614750989269
 42
0.0
  0
SEQEND
  0
POLYLINE
  8
Default
 66
     1
 10
0.0
 20
0.0
 30
0.0
 70
     1
  0
VERTEX
  8
Default
 10
1039.74953536617
 20
-58.309423593539
 42
0.0
  0
VERTEX
  8
Default
 10
1065.99999999942
 20
-90.3314520821236
 42
0.0
  0
VERTEX
  8
Default
 10
1092.25046463383
 20
-58.3094235810598
 42
0.0
  0
VERTEX
  8
Default
 10
1066.00000000058
 20
-26.2873950924472
 42
0.0
  0
SEQEND
  0
POLYLINE
  8
Default
 66
     1
 10
0.0
 20
0.0
 30
0.0
 70
     1
  0
VERTEX
  8
Default
 10
1039.74953536617
 20
45.0179323032847
 42
0.0
  0
VERTEX
  8
Default
 10
1065.99999999942
 20
12.9959038146968
 42
0.0
  0
VERTEX
  8
Default
 10
1092.25046463383
 20
45.0179323157641
 42
0.0
  0
VERTEX
  8
Default
 10
1066.00000000058
 20
77.0399608043751
 42
0.0
  0
SEQEND
  0
POLYLINE
  8
Default
 66
     1
 10
0.0
 20
0.0
 30
0.0
 70
     1
  0
VERTEX
  8
Default
 10
1039.74953536616
 20
148.345288200101
 42
0.0
  0
VERTEX
  8
Default
 10
1065.99999999942
 20
116.323259711517
 42
0.0
  0
VERTEX
  8
Default
 10
1092.25046463383
 20
148.345288212585
 42
0.0
  0
VERTEX
  8
Default
 10
1066.00000000058
 20
180.367316701197
 42
0.0
  0
SEQEND
  0
POLYLINE
  8
Default
 66
     1
 10
0.0
 20
0.0
 30
0.0
 70
     1
  0
VERTEX
  8
Default
 10
1039.74953536617
 20
251.672644096927
 42
0.0
  0
VERTEX
  8
Default
 10
1065.99999999942
 20
219.650615608336
 42
0.0
  0
VERTEX
  8
Default
 10
1092.25046463383
 20
251.672644109409
 42
0.0
  0
VERTEX
  8
Default
 10
1066.00000000058
 20
283.69467259802
 42
0.0
  0
SEQEND
  0
POLYLINE
  8
Default
 66
     1
 10
0.0
 20
0.0
 30
0.0
 70
     1
  0
VERTEX
  8
Default
 10
1039.74953536617
 20
354.999999993748
 42
0.0
  0
VERTEX
  8
Default
 10
1065.99999999942
 20
322.977971505164
 42
0.0
  0
VERTEX
  8
Default
 10
1092.25046463383
 20
355.000000006233
 42
0.0
  0
VERTEX
  8
Default
 10
1066.00000000058
 20
387.022028494842
 42
0.0
  0
SEQEND
  0
POLYLINE
  8
Default
 66
     1
 10
0.0
 20
0.0
 30
0.0
 70
     1
  0
VERTEX
  8
Default
 10
1039.74953536617
 20
458.327355890571
 42
0.0
  0
VERTEX
  8
Default
 10
1065.99999999942
 20
426.305327401985
 42
0.0
  0
VERTEX
  8
Default
 10
1092.25046463383
 20
458.327355903049
 42
0.0
  0
VERTEX
  8
Default
 10
1066.00000000058
 20
490.34938439166
 42
0.0
  0
SEQEND
  0
POLYLINE
  8
Default
 66
     1
 10
0.0
 20
0.0
 30
0.0
 70
     1
  0
VERTEX
  8
Default
 10
1039.74953536617
 20
561.654711787383
 42
0.0
  0
VERTEX
  8
Default
 10
1065.99999999942
 20
529.632683298806
 42
0.0
  0
VERTEX
  8
Default
 10
1092.25046463383
 20
561.654711799869
 42
0.0
  0
VERTEX
  8
Default
 10
1066.00000000058
 20
593.676740288479
 42
0.0
  0
SEQEND
  0
POLYLINE
  8
Default
 66
     1
 10
0.0
 20
0.0
 30
0.0
 70
     1
  0
VERTEX
  8
Default
 10
1039.74953536617
 20
664.982067684208
 42
0.0
  0
VERTEX
  8
Default
 10
1065.99999999942
 20
632.960039195627
 42
0.0
  0
VERTEX
  8
Default
 10
1092.25046463383
 20
664.982067696692
 42
0.0
  0
VERTEX
  8
Default
 10
1066.00000000058
 20
697.004096185302
 42
0.0
  0
SEQEND
  0
POLYLINE
  8
Default
 66
     1
 10
0.0
 20
0.0
 30
0.0
 70
     1
  0
VERTEX
  8
Default
 10
1039.74953536617
 20
768.309423581033
 42
0.0
  0
VERTEX
  8
Default
 10
1065.99999999942
 20
736.287395092447
 42
0.0
  0
VERTEX
  8
Default
 10
1092.25046463383
 20
768.309423593515
 42
0.0
  0
VERTEX
  8
Default
 10
1066.00000000058
 20
800.331452082125
 42
0.0
  0
SEQEND
  0
POLYLINE
  8
Default
 66
     1
 10
0.0
 20
0.0
 30
0.0
 70
     1
  0
VERTEX
  8
Default
 10
1039.74953536617
 20
871.636779477854
 42
0.0
  0
VERTEX
  8
Default
 10
1065.99999999942
 20
839.614750989266
 42
0.0
  0
VERTEX
  8
Default
 10
1092.25046463383
 20
871.636779490338
 42
0.0
  0
VERTEX
  8
Default
 10
1066.00000000059
 20
903.658807978945
 42
0.0
  0
SEQEND
  0
POLYLINE
  8
Default
 66
     1
 10
0.0
 20
0.0
 30
0.0
 70
     1
  0
VERTEX
  8
Default
 10
1039.74953536616
 20
974.964135374675
 42
0.0
  0
VERTEX
  8
Default
 10
1065.99999999942
 20
942.942106886087
 42
0.0
  0
VERTEX
  8
Default
 10
1092.25046463383
 20
974.964135387157
 42
0.0
  0
VERTEX
  8
Default
 10
1066.00000000058
 20
1006.98616387576
 42
0.0
  0
SEQEND
  0
POLYLINE
  8
Default
 66
     1
 10
0.0
 20
0.0
 30
0.0
 70
     1
  0
VERTEX
  8
Default
 10
1039.74953536617
 20
1078.29149127149
 42
0.0
  0
VERTEX
  8
Default
 10
1065.99999999942
 20
1046.26946278291
 42
0.0
  0
VERTEX
  8
Default
 10
1092.25046463383
 20
1078.29149128398
 42
0.0
  0
VERTEX
  8
Default
 10
1066.00000000058
 20
1110.31351977259
 42
0.0
  0
SEQEND
  0
POLYLINE
  8
Default
 66
     1
 10
0.0
 20
0.0
 30
0.0
 70
     1
  0
VERTEX
  8
Default
 10
1039.74953536617
 20
1181.61884716832
 42
0.0
  0
VERTEX
  8
Default
 10
1065.99999999942
 20
1149.59681867973
 42
0.0
  0
VERTEX
  8
Default
 10
1092.25046463383
 20
1181.61884718079
 42
0.0
  0
VERTEX
  8
Default
 10
1066.00000000058
 20
1213.64087566941
 42
0.0
  0
SEQEND
  0
POLYLINE
  8
Default
 66
     1
 10
0.0
 20
0.0
 30
0.0
 70
     1
  0
VERTEX
  8
Default
 10
1039.74953536617
 20
1284.94620306514
 42
0.0
  0
VERTEX
  8
Default
 10
1065.99999999942
 20
1252.92417457655
 42
0.0
  0
VERTEX
  8
Default
 10
1092.25046463383
 20
1284.94620307762
 42
0.0
  0
VERTEX
  8
Default
 10
1066.00000000058
 20
1316.96823156623
 42
0.0
  0
SEQEND
  0
ENDSEC
  0
EOF
