  0
SECTION
  2
HEADER
  9
$ACADVER
  1
AC1009
  9
$EXTMAX
 10
134.695526123047
 20
77.6487426757813
 30
0.0
  9
$EXTMIN
 10
-56.6378173828125
 20
-119.50106048584
 30
0.0
  9
$INSUNITS
 70
     4
  9
$LUNITS
 70
     2
  9
$LUPREC
 70
     4
  9
$MEASUREMENT
 70
     1
  0
ENDSEC
  0
SECTION
  2
TABLES
  0
TABLE
  2
LAYER
 70
     1
  0
LAYER
  2
0
 70
     0
 62
     7
  6
Continuous
  0
LAYER
  2
Default
 70
     0
 62
    70
  6
Continuous
  0
ENDTAB
  0
TABLE
  2
APPID
 70
     1
  0
APPID
  2
ACAD
 70
     0
  0
ENDTAB
  0
ENDSEC
  0
SECTION
  2
ENTITIES
  0
POLYLINE
  8
Default
 66
     1
 10
0.0
 20
0.0
 30
0.0
 70
     1
  0
VERTEX
  8
Default
 10
-44.9338046092719
 20
-86.3409613504296
 42
0.0545629608758
  0
VERTEX
  8
Default
 10
-29.3084916421301
 20
-109.009262607101
 42
0.1382050629713
  0
VERTEX
  8
Default
 10
-15.2836641872777
 20
-118.036372643918
 42
0.1780911438621
  0
VERTEX
  8
Default
 10
6.8657226609933
 20
-116.860596987257
 42
0.1165244333079
  0
VERTEX
  8
Default
 10
17.8125584014579
 20
-108.862805272591
 42
0.1341743518682
  0
VERTEX
  8
Default
 10
23.9077165427224
 20
-96.1684441880836
 42
0.1826568437243
  0
VERTEX
  8
Default
 10
20.4285964229936
 20
-77.7582434692223
 42
0.0505444521036
  0
VERTEX
  8
Default
 10
16.9866024035391
 20
-73.2286630232673
 42
-0.0796250780963
  0
VERTEX
  8
Default
 10
1.6661072450002
 20
-50.9991805298735
 42
-0.0675463534224
  0
VERTEX
  8
Default
 10
-5.0422531897048
 20
-30.1195356346864
 42
-0.1300281764532
  0
VERTEX
  8
Default
 10
1.7946366726512
 20
19.2420733254342
 42
-0.0905960954445
  0
VERTEX
  8
Default
 10
22.2834921641879
 20
50.4501329471074
 42
-0.0344118322058
  0
VERTEX
  8
Default
 10
33.3439543427931
 20
60.5476984342822
 42
0.0933926382833
  0
VERTEX
  8
Default
 10
-0.820031876454
 20
52.6790029133933
 42
0.0766426264572
  0
VERTEX
  8
Default
 10
-23.8534440451979
 20
38.1484550133023
 42
0.0802943244311
  0
VERTEX
  8
Default
 10
-40.9565449585531
 20
17.7590245740194
 42
0.0130753341163
  0
VERTEX
  8
Default
 10
-43.0283064397909
 20
14.0674052583204
 42
0.0326386693497
  0
VERTEX
  8
Default
 10
-44.9205119053276
 20
10.6922187300877
 42
0.0957139385204
  0
VERTEX
  8
Default
 10
-56.2116135783462
 20
-28.1677116794919
 42
0.1193724014046
  0
VERTEX
  8
Default
 10
-48.807844398855
 20
-77.8527636973068
 42
0.0213060864133
  0
SEQEND
  0
POLYLINE
  8
Default
 66
     1
 10
0.0
 20
0.0
 30
0.0
 70
     1
  0
VERTEX
  8
Default
 10
-15.3941704381564
 20
-105.172079254073
 42
0.0
  0
VERTEX
  8
Default
 10
-20.6163032356487
 20
-99.6235631567376
 42
0.0
  0
VERTEX
  8
Default
 10
-17.3720247671919
 20
-96.528558066742
 42
-0.3865736953064
  0
VERTEX
  8
Default
 10
-12.2511996166996
 20
-80.5114839660883
 42
-0.2550761434981
  0
VERTEX
  8
Default
 10
-0.2799882976561
 20
-80.2229479331067
 42
0.0
  0
VERTEX
  8
Default
 10
2.9770773661365
 20
-77.1157440028957
 42
0.0
  0
VERTEX
  8
Default
 10
8.2856349162988
 20
-82.5818118603479
 42
0.0
  0
VERTEX
  8
Default
 10
5.1103089318377
 20
-85.6110370578314
 42
-0.11951746368
  0
VERTEX
  8
Default
 10
6.4988004305321
 20
-91.3368015406629
 42
-0.5771169889283
  0
VERTEX
  8
Default
 10
-12.2436213224405
 20
-102.166490910092
 42
0.0
  0
SEQEND
  0
POLYLINE
  8
Default
 66
     1
 10
0.0
 20
0.0
 30
0.0
 70
     1
  0
VERTEX
  8
Default
 10
65.4788150607056
 20
-104.337212454841
 42
0.0
  0
VERTEX
  8
Default
 10
60.2566822632133
 20
-98.7886963575051
 42
0.0
  0
VERTEX
  8
Default
 10
63.5009607316701
 20
-95.6936912675095
 42
-0.3865736953064
  0
VERTEX
  8
Default
 10
68.6217858821624
 20
-79.6766171668557
 42
-0.2550761434981
  0
VERTEX
  8
Default
 10
80.5929972012059
 20
-79.3880811338742
 42
0.0
  0
VERTEX
  8
Default
 10
83.8500628649984
 20
-76.2808772036632
 42
0.0
  0
VERTEX
  8
Default
 10
89.1586204151608
 20
-81.7469450611154
 42
0.0
  0
VERTEX
  8
Default
 10
85.9832944306996
 20
-84.7761702585989
 42
-0.11951746368
  0
VERTEX
  8
Default
 10
87.371785929394
 20
-90.5019347414304
 42
-0.5771169889283
  0
VERTEX
  8
Default
 10
68.6293641764215
 20
-101.33162411086
 42
0.0
  0
SEQEND
  0
POLYLINE
  8
Default
 66
     1
 10
0.0
 20
0.0
 30
0.0
 70
     1
  0
VERTEX
  8
Default
 10
44.2006189879353
 20
-97.9279963438863
 42
-0.1274292660098
  0
VERTEX
  8
Default
 10
24.7852447616928
 20
-39.4584246330734
 42
-0.093908281712
  0
VERTEX
  8
Default
 10
32.4023718946868
 20
11.3655690024252
 42
-0.0423372768526
  0
VERTEX
  8
Default
 10
41.6434051912682
 20
32.1231118157931
 42
-0.2975420507718
  0
VERTEX
  8
Default
 10
134.695528479612
 20
76.8698081913222
 42
0.0614985237415
  0
VERTEX
  8
Default
 10
115.065056820125
 20
64.6916142238201
 42
0.1197893606807
  0
VERTEX
  8
Default
 10
86.9813643272928
 20
27.5330638193823
 42
0.1983113045443
  0
VERTEX
  8
Default
 10
85.6747441107678
 20
-49.6608267960582
 42
0.010365601116
  0
VERTEX
  8
Default
 10
87.2724601915958
 20
-53.4886284574656
 42
0.0492897629346
  0
VERTEX
  8
Default
 10
97.9038348625262
 20
-68.799051733698
 42
-0.3076196689324
  0
VERTEX
  8
Default
 10
101.286461221792
 20
-103.961953361494
 42
-0.1467715578154
  0
VERTEX
  8
Default
 10
89.1033406848977
 20
-116.088304336734
 42
-0.2753360599547
  0
VERTEX
  8
Default
 10
59.4398390573583
 20
-114.684486787507
 42
-0.0812134227987
  0
VERTEX
  8
Default
 10
52.3033057359906
 20
-108.064342626205
 42
-0.0262863111732
  0
SEQEND
  0
ENDSEC
  0
EOF
