  0
SECTION
  2
HEADER
  9
$ACADVER
  1
AC1009
  9
$EXTMAX
 10
853.768920898438
 20
946.258850097656
 30
0.0
  9
$EXTMIN
 10
0.0004074262397
 20
0.0038543292321
 30
0.0
  9
$INSUNITS
 70
     4
  9
$LUNITS
 70
     2
  9
$LUPREC
 70
     4
  9
$MEASUREMENT
 70
     1
  0
ENDSEC
  0
SECTION
  2
TABLES
  0
TABLE
  2
LAYER
 70
     1
  0
LAYER
  2
0
 70
     0
 62
     7
  6
Continuous
  0
LAYER
  2
Default
 70
     0
 62
    70
  6
Continuous
  0
ENDTAB
  0
TABLE
  2
APPID
 70
     1
  0
APPID
  2
ACAD
 70
     0
  0
ENDTAB
  0
ENDSEC
  0
SECTION
  2
ENTITIES
  0
POLYLINE
  8
Default
 66
     1
 10
0.0
 20
0.0
 30
0.0
 70
     1
  0
VERTEX
  8
Default
 10
52.9766675357992
 20
761.133670081803
 42
0.0
  0
VERTEX
  8
Default
 10
50.0833624559795
 20
758.364993412881
 42
0.0
  0
VERTEX
  8
Default
 10
44.5523634865128
 20
764.144963170638
 42
0.0
  0
VERTEX
  8
Default
 10
47.4051365036092
 20
766.874853685459
 42
-0.1286012318024
  0
VERTEX
  8
Default
 10
46.0864034620732
 20
773.319788017282
 42
-0.5523136433095
  0
VERTEX
  8
Default
 10
65.3187525820323
 20
784.016845118444
 42
0.0
  0
VERTEX
  8
Default
 10
68.3612698391697
 20
786.928306686523
 42
0.0
  0
VERTEX
  8
Default
 10
73.8922688086196
 20
781.148336928865
 42
0.0
  0
VERTEX
  8
Default
 10
70.809219488742
 20
778.198089206767
 42
-0.4066109288084
  0
VERTEX
  8
Default
 10
64.9507066133923
 20
761.025965604845
 42
-0.2439878381833
  0
SEQEND
  0
POLYLINE
  8
Default
 66
     1
 10
0.0
 20
0.0
 30
0.0
 70
     1
  0
VERTEX
  8
Default
 10
15.0187663601821
 20
786.514554053699
 42
0.0827612829105
  0
VERTEX
  8
Default
 10
36.2076413722048
 20
754.15511909966
 42
1.0183002032405
  0
VERTEX
  8
Default
 10
81.5184837837343
 20
791.92790050199
 42
0.0739001972228
  0
VERTEX
  8
Default
 10
74.9425229374755
 20
797.582563822553
 42
-0.1154841644512
  0
VERTEX
  8
Default
 10
74.9425229374755
 20
797.582563822553
 42
0.0698005019029
  0
VERTEX
  8
Default
 10
74.9425229374755
 20
797.582563822553
 42
-0.1404517183086
  0
VERTEX
  8
Default
 10
58.8947926864136
 20
832.367424937005
 42
-0.3138514648351
  0
VERTEX
  8
Default
 10
112.632690271886
 20
929.131458171173
 42
0.2269433204767
  0
VERTEX
  8
Default
 10
113.703334448335
 20
930.486056867334
 42
0.0
  0
VERTEX
  8
Default
 10
116.719836675541
 20
943.817715838902
 42
0.5032555571422
  0
VERTEX
  8
Default
 10
114.62591195924
 20
946.253954937044
 42
0.1867605499068
  0
VERTEX
  8
Default
 10
41.0921729848737
 20
911.550669241607
 42
0.2503887449045
  0
VERTEX
  8
Default
 10
10.0108572973918
 20
803.341113233834
 42
0.0458886978039
  0
VERTEX
  8
Default
 10
14.9924152606577
 20
786.577303393919
 42
0.0
  0
SEQEND
  0
POLYLINE
  8
Default
 66
     1
 10
0.0
 20
0.0
 30
0.0
 70
     1
  0
VERTEX
  8
Default
 10
108.116575531738
 20
791.717563113796
 42
0.0
  0
VERTEX
  8
Default
 10
104.570392182856
 20
789.857087787958
 42
0.0
  0
VERTEX
  8
Default
 10
100.853711493743
 20
796.941315667974
 42
0.0
  0
VERTEX
  8
Default
 10
104.350216664197
 20
798.77572775444
 42
-0.1286012318024
  0
VERTEX
  8
Default
 10
104.865405919231
 20
805.33399089401
 42
-0.5523136433095
  0
VERTEX
  8
Default
 10
126.306064838782
 20
810.294679192319
 42
0.0
  0
VERTEX
  8
Default
 10
130.035130297935
 20
812.251102082119
 42
0.0
  0
VERTEX
  8
Default
 10
133.751810987059
 20
805.166874202203
 42
0.0
  0
VERTEX
  8
Default
 10
129.973067349484
 20
803.184388073113
 42
-0.4066109288084
  0
VERTEX
  8
Default
 10
119.593760545341
 20
788.302385775849
 42
-0.2439878381833
  0
SEQEND
  0
POLYLINE
  8
Default
 66
     1
 10
0.0
 20
0.0
 30
0.0
 70
     1
  0
VERTEX
  8
Default
 10
164.84071168737
 20
932.625649450672
 42
0.3922447679682
  0
VERTEX
  8
Default
 10
82.2262925996293
 20
880.824094209906
 42
-0.0168304809838
  0
VERTEX
  8
Default
 10
82.1574021928205
 20
880.59883296347
 42
0.1854617880789
  0
VERTEX
  8
Default
 10
85.0985547685195
 20
799.626393303792
 42
-0.0079890794396
  0
VERTEX
  8
Default
 10
85.1407733774608
 20
799.522828016044
 42
0.0231192830367
  0
VERTEX
  8
Default
 10
89.5667503935389
 20
789.540552118935
 42
-0.0157129540402
  0
VERTEX
  8
Default
 10
89.6588601688942
 20
789.340843081097
 42
1.0161827471159
  0
VERTEX
  8
Default
 10
144.515761931841
 20
813.626492120273
 42
0.0672261290743
  0
VERTEX
  8
Default
 10
139.612195918248
 20
821.394134915234
 42
-0.0831122227015
  0
VERTEX
  8
Default
 10
139.612195918248
 20
821.394134915234
 42
0.0146694010016
  0
VERTEX
  8
Default
 10
139.612195918248
 20
821.394134915234
 42
0.0512729719823
  0
VERTEX
  8
Default
 10
139.612195918248
 20
821.394134915234
 42
-0.459585141946
  0
VERTEX
  8
Default
 10
162.712676664962
 20
921.476305638325
 42
0.0
  0
SEQEND
  0
POLYLINE
  8
Default
 66
     1
 10
0.0
 20
0.0
 30
0.0
 70
     1
  0
VERTEX
  8
Default
 10
196.976667535799
 20
761.133670081803
 42
0.0
  0
VERTEX
  8
Default
 10
194.083362455979
 20
758.364993412881
 42
0.0
  0
VERTEX
  8
Default
 10
188.552363486513
 20
764.144963170638
 42
0.0
  0
VERTEX
  8
Default
 10
191.405136503609
 20
766.874853685459
 42
-0.1286012318024
  0
VERTEX
  8
Default
 10
190.086403462073
 20
773.319788017282
 42
-0.5523136433095
  0
VERTEX
  8
Default
 10
209.318752582032
 20
784.016845118444
 42
0.0
  0
VERTEX
  8
Default
 10
212.36126983917
 20
786.928306686523
 42
0.0
  0
VERTEX
  8
Default
 10
217.89226880862
 20
781.148336928865
 42
0.0
  0
VERTEX
  8
Default
 10
214.809219488742
 20
778.198089206767
 42
-0.4066109288084
  0
VERTEX
  8
Default
 10
208.950706613392
 20
761.025965604845
 42
-0.2439878381833
  0
SEQEND
  0
POLYLINE
  8
Default
 66
     1
 10
0.0
 20
0.0
 30
0.0
 70
     1
  0
VERTEX
  8
Default
 10
159.018766360182
 20
786.514554053699
 42
0.0827612829105
  0
VERTEX
  8
Default
 10
180.207641372205
 20
754.15511909966
 42
1.0183002032405
  0
VERTEX
  8
Default
 10
225.518483783734
 20
791.92790050199
 42
0.0739001972228
  0
VERTEX
  8
Default
 10
218.942522937475
 20
797.582563822553
 42
-0.1154841644512
  0
VERTEX
  8
Default
 10
218.942522937475
 20
797.582563822553
 42
0.0698005019029
  0
VERTEX
  8
Default
 10
218.942522937475
 20
797.582563822553
 42
-0.1404517183086
  0
VERTEX
  8
Default
 10
202.894792686414
 20
832.367424937005
 42
-0.3138514648351
  0
VERTEX
  8
Default
 10
256.632690271886
 20
929.131458171173
 42
0.2269433204767
  0
VERTEX
  8
Default
 10
257.703334448335
 20
930.486056867334
 42
0.0
  0
VERTEX
  8
Default
 10
260.719836675541
 20
943.817715838902
 42
0.5032555571422
  0
VERTEX
  8
Default
 10
258.62591195924
 20
946.253954937044
 42
0.1867605499068
  0
VERTEX
  8
Default
 10
185.092172984874
 20
911.550669241607
 42
0.2503887449045
  0
VERTEX
  8
Default
 10
154.010857297392
 20
803.341113233834
 42
0.0458886978039
  0
VERTEX
  8
Default
 10
158.992415260658
 20
786.577303393919
 42
0.0
  0
SEQEND
  0
POLYLINE
  8
Default
 66
     1
 10
0.0
 20
0.0
 30
0.0
 70
     1
  0
VERTEX
  8
Default
 10
252.116575531738
 20
791.717563113796
 42
0.0
  0
VERTEX
  8
Default
 10
248.570392182856
 20
789.857087787958
 42
0.0
  0
VERTEX
  8
Default
 10
244.853711493743
 20
796.941315667974
 42
0.0
  0
VERTEX
  8
Default
 10
248.350216664197
 20
798.77572775444
 42
-0.1286012318024
  0
VERTEX
  8
Default
 10
248.865405919231
 20
805.33399089401
 42
-0.5523136433095
  0
VERTEX
  8
Default
 10
270.306064838782
 20
810.294679192319
 42
0.0
  0
VERTEX
  8
Default
 10
274.035130297935
 20
812.251102082119
 42
0.0
  0
VERTEX
  8
Default
 10
277.751810987059
 20
805.166874202203
 42
0.0
  0
VERTEX
  8
Default
 10
273.973067349485
 20
803.184388073113
 42
-0.4066109288084
  0
VERTEX
  8
Default
 10
263.593760545341
 20
788.302385775849
 42
-0.2439878381833
  0
SEQEND
  0
POLYLINE
  8
Default
 66
     1
 10
0.0
 20
0.0
 30
0.0
 70
     1
  0
VERTEX
  8
Default
 10
308.84071168737
 20
932.625649450672
 42
0.3922447679682
  0
VERTEX
  8
Default
 10
226.226292599629
 20
880.824094209906
 42
-0.0168304809838
  0
VERTEX
  8
Default
 10
226.157402192821
 20
880.59883296347
 42
0.1854617880789
  0
VERTEX
  8
Default
 10
229.098554768519
 20
799.626393303792
 42
-0.0079890794396
  0
VERTEX
  8
Default
 10
229.140773377461
 20
799.522828016044
 42
0.0231192830367
  0
VERTEX
  8
Default
 10
233.566750393539
 20
789.540552118935
 42
-0.0157129540402
  0
VERTEX
  8
Default
 10
233.658860168894
 20
789.340843081097
 42
1.0161827471159
  0
VERTEX
  8
Default
 10
288.515761931841
 20
813.626492120273
 42
0.0672261290743
  0
VERTEX
  8
Default
 10
283.612195918248
 20
821.394134915234
 42
-0.0831122227015
  0
VERTEX
  8
Default
 10
283.612195918248
 20
821.394134915234
 42
0.0146694010016
  0
VERTEX
  8
Default
 10
283.612195918248
 20
821.394134915234
 42
0.0512729719823
  0
VERTEX
  8
Default
 10
283.612195918248
 20
821.394134915234
 42
-0.459585141946
  0
VERTEX
  8
Default
 10
306.712676664962
 20
921.476305638325
 42
0.0
  0
SEQEND
  0
POLYLINE
  8
Default
 66
     1
 10
0.0
 20
0.0
 30
0.0
 70
     1
  0
VERTEX
  8
Default
 10
492.976667535799
 20
761.133670081803
 42
0.0
  0
VERTEX
  8
Default
 10
490.083362455979
 20
758.364993412881
 42
0.0
  0
VERTEX
  8
Default
 10
484.552363486513
 20
764.144963170638
 42
0.0
  0
VERTEX
  8
Default
 10
487.405136503609
 20
766.874853685459
 42
-0.1286012318024
  0
VERTEX
  8
Default
 10
486.086403462073
 20
773.319788017282
 42
-0.5523136433095
  0
VERTEX
  8
Default
 10
505.318752582032
 20
784.016845118444
 42
0.0
  0
VERTEX
  8
Default
 10
508.36126983917
 20
786.928306686523
 42
0.0
  0
VERTEX
  8
Default
 10
513.89226880862
 20
781.148336928865
 42
0.0
  0
VERTEX
  8
Default
 10
510.809219488742
 20
778.198089206767
 42
-0.4066109288084
  0
VERTEX
  8
Default
 10
504.950706613392
 20
761.025965604845
 42
-0.2439878381833
  0
SEQEND
  0
POLYLINE
  8
Default
 66
     1
 10
0.0
 20
0.0
 30
0.0
 70
     1
  0
VERTEX
  8
Default
 10
455.018766360182
 20
786.514554053699
 42
0.0827612829105
  0
VERTEX
  8
Default
 10
476.207641372205
 20
754.15511909966
 42
1.0183002032405
  0
VERTEX
  8
Default
 10
521.518483783734
 20
791.92790050199
 42
0.0739001972228
  0
VERTEX
  8
Default
 10
514.942522937475
 20
797.582563822553
 42
-0.1154841644512
  0
VERTEX
  8
Default
 10
514.942522937475
 20
797.582563822553
 42
0.0698005019029
  0
VERTEX
  8
Default
 10
514.942522937475
 20
797.582563822553
 42
-0.1404517183086
  0
VERTEX
  8
Default
 10
498.894792686414
 20
832.367424937005
 42
-0.3138514648351
  0
VERTEX
  8
Default
 10
552.632690271886
 20
929.131458171173
 42
0.2269433204767
  0
VERTEX
  8
Default
 10
553.703334448335
 20
930.486056867334
 42
0.0
  0
VERTEX
  8
Default
 10
556.719836675541
 20
943.817715838902
 42
0.5032555571422
  0
VERTEX
  8
Default
 10
554.62591195924
 20
946.253954937044
 42
0.1867605499068
  0
VERTEX
  8
Default
 10
481.092172984874
 20
911.550669241607
 42
0.2503887449045
  0
VERTEX
  8
Default
 10
450.010857297392
 20
803.341113233834
 42
0.0458886978039
  0
VERTEX
  8
Default
 10
454.992415260658
 20
786.577303393919
 42
0.0
  0
SEQEND
  0
POLYLINE
  8
Default
 66
     1
 10
0.0
 20
0.0
 30
0.0
 70
     1
  0
VERTEX
  8
Default
 10
548.116575531738
 20
791.717563113796
 42
0.0
  0
VERTEX
  8
Default
 10
544.570392182856
 20
789.857087787958
 42
0.0
  0
VERTEX
  8
Default
 10
540.853711493743
 20
796.941315667974
 42
0.0
  0
VERTEX
  8
Default
 10
544.350216664197
 20
798.77572775444
 42
-0.1286012318024
  0
VERTEX
  8
Default
 10
544.865405919231
 20
805.33399089401
 42
-0.5523136433095
  0
VERTEX
  8
Default
 10
566.306064838783
 20
810.294679192319
 42
0.0
  0
VERTEX
  8
Default
 10
570.035130297935
 20
812.251102082119
 42
0.0
  0
VERTEX
  8
Default
 10
573.751810987059
 20
805.166874202203
 42
0.0
  0
VERTEX
  8
Default
 10
569.973067349485
 20
803.184388073113
 42
-0.4066109288084
  0
VERTEX
  8
Default
 10
559.593760545341
 20
788.302385775849
 42
-0.2439878381833
  0
SEQEND
  0
POLYLINE
  8
Default
 66
     1
 10
0.0
 20
0.0
 30
0.0
 70
     1
  0
VERTEX
  8
Default
 10
604.84071168737
 20
932.625649450672
 42
0.3922447679682
  0
VERTEX
  8
Default
 10
522.226292599629
 20
880.824094209906
 42
-0.0168304809838
  0
VERTEX
  8
Default
 10
522.157402192821
 20
880.59883296347
 42
0.1854617880789
  0
VERTEX
  8
Default
 10
525.09855476852
 20
799.626393303792
 42
-0.0079890794396
  0
VERTEX
  8
Default
 10
525.140773377461
 20
799.522828016044
 42
0.0231192830367
  0
VERTEX
  8
Default
 10
529.566750393539
 20
789.540552118935
 42
-0.0157129540402
  0
VERTEX
  8
Default
 10
529.658860168894
 20
789.340843081097
 42
1.0161827471159
  0
VERTEX
  8
Default
 10
584.515761931841
 20
813.626492120273
 42
0.0672261290743
  0
VERTEX
  8
Default
 10
579.612195918248
 20
821.394134915234
 42
-0.0831122227015
  0
VERTEX
  8
Default
 10
579.612195918248
 20
821.394134915234
 42
0.0146694010016
  0
VERTEX
  8
Default
 10
579.612195918248
 20
821.394134915234
 42
0.0512729719823
  0
VERTEX
  8
Default
 10
579.612195918248
 20
821.394134915234
 42
-0.459585141946
  0
VERTEX
  8
Default
 10
602.712676664962
 20
921.476305638325
 42
0.0
  0
SEQEND
  0
POLYLINE
  8
Default
 66
     1
 10
0.0
 20
0.0
 30
0.0
 70
     1
  0
VERTEX
  8
Default
 10
636.976667535799
 20
761.133670081803
 42
0.0
  0
VERTEX
  8
Default
 10
634.083362455979
 20
758.364993412881
 42
0.0
  0
VERTEX
  8
Default
 10
628.552363486513
 20
764.144963170638
 42
0.0
  0
VERTEX
  8
Default
 10
631.405136503609
 20
766.874853685459
 42
-0.1286012318024
  0
VERTEX
  8
Default
 10
630.086403462073
 20
773.319788017282
 42
-0.5523136433095
  0
VERTEX
  8
Default
 10
649.318752582032
 20
784.016845118444
 42
0.0
  0
VERTEX
  8
Default
 10
652.36126983917
 20
786.928306686523
 42
0.0
  0
VERTEX
  8
Default
 10
657.89226880862
 20
781.148336928865
 42
0.0
  0
VERTEX
  8
Default
 10
654.809219488742
 20
778.198089206767
 42
-0.4066109288084
  0
VERTEX
  8
Default
 10
648.950706613392
 20
761.025965604845
 42
-0.2439878381833
  0
SEQEND
  0
POLYLINE
  8
Default
 66
     1
 10
0.0
 20
0.0
 30
0.0
 70
     1
  0
VERTEX
  8
Default
 10
599.018766360182
 20
786.514554053699
 42
0.0827612829105
  0
VERTEX
  8
Default
 10
620.207641372205
 20
754.15511909966
 42
1.0183002032405
  0
VERTEX
  8
Default
 10
665.518483783734
 20
791.92790050199
 42
0.0739001972228
  0
VERTEX
  8
Default
 10
658.942522937475
 20
797.582563822553
 42
-0.1154841644512
  0
VERTEX
  8
Default
 10
658.942522937475
 20
797.582563822553
 42
0.0698005019029
  0
VERTEX
  8
Default
 10
658.942522937475
 20
797.582563822553
 42
-0.1404517183086
  0
VERTEX
  8
Default
 10
642.894792686414
 20
832.367424937005
 42
-0.3138514648351
  0
VERTEX
  8
Default
 10
696.632690271886
 20
929.131458171173
 42
0.2269433204767
  0
VERTEX
  8
Default
 10
697.703334448335
 20
930.486056867334
 42
0.0
  0
VERTEX
  8
Default
 10
700.719836675541
 20
943.817715838902
 42
0.5032555571422
  0
VERTEX
  8
Default
 10
698.62591195924
 20
946.253954937044
 42
0.1867605499068
  0
VERTEX
  8
Default
 10
625.092172984874
 20
911.550669241607
 42
0.2503887449045
  0
VERTEX
  8
Default
 10
594.010857297392
 20
803.341113233834
 42
0.0458886978039
  0
VERTEX
  8
Default
 10
598.992415260658
 20
786.577303393919
 42
0.0
  0
SEQEND
  0
POLYLINE
  8
Default
 66
     1
 10
0.0
 20
0.0
 30
0.0
 70
     1
  0
VERTEX
  8
Default
 10
692.116575531738
 20
791.717563113796
 42
0.0
  0
VERTEX
  8
Default
 10
688.570392182856
 20
789.857087787958
 42
0.0
  0
VERTEX
  8
Default
 10
684.853711493743
 20
796.941315667974
 42
0.0
  0
VERTEX
  8
Default
 10
688.350216664197
 20
798.77572775444
 42
-0.1286012318024
  0
VERTEX
  8
Default
 10
688.865405919231
 20
805.33399089401
 42
-0.5523136433095
  0
VERTEX
  8
Default
 10
710.306064838783
 20
810.294679192319
 42
0.0
  0
VERTEX
  8
Default
 10
714.035130297935
 20
812.251102082119
 42
0.0
  0
VERTEX
  8
Default
 10
717.751810987059
 20
805.166874202203
 42
0.0
  0
VERTEX
  8
Default
 10
713.973067349485
 20
803.184388073113
 42
-0.4066109288084
  0
VERTEX
  8
Default
 10
703.593760545341
 20
788.302385775849
 42
-0.2439878381833
  0
SEQEND
  0
POLYLINE
  8
Default
 66
     1
 10
0.0
 20
0.0
 30
0.0
 70
     1
  0
VERTEX
  8
Default
 10
748.84071168737
 20
932.625649450672
 42
0.3922447679682
  0
VERTEX
  8
Default
 10
666.226292599629
 20
880.824094209906
 42
-0.0168304809838
  0
VERTEX
  8
Default
 10
666.157402192821
 20
880.59883296347
 42
0.1854617880789
  0
VERTEX
  8
Default
 10
669.09855476852
 20
799.626393303792
 42
-0.0079890794396
  0
VERTEX
  8
Default
 10
669.140773377461
 20
799.522828016044
 42
0.0231192830367
  0
VERTEX
  8
Default
 10
673.566750393539
 20
789.540552118935
 42
-0.0157129540402
  0
VERTEX
  8
Default
 10
673.658860168894
 20
789.340843081097
 42
1.0161827471159
  0
VERTEX
  8
Default
 10
728.515761931841
 20
813.626492120273
 42
0.0672261290743
  0
VERTEX
  8
Default
 10
723.612195918248
 20
821.394134915234
 42
-0.0831122227015
  0
VERTEX
  8
Default
 10
723.612195918248
 20
821.394134915234
 42
0.0146694010016
  0
VERTEX
  8
Default
 10
723.612195918248
 20
821.394134915234
 42
0.0512729719823
  0
VERTEX
  8
Default
 10
723.612195918248
 20
821.394134915234
 42
-0.459585141946
  0
VERTEX
  8
Default
 10
746.712676664962
 20
921.476305638325
 42
0.0
  0
SEQEND
  0
POLYLINE
  8
Default
 66
     1
 10
0.0
 20
0.0
 30
0.0
 70
     1
  0
VERTEX
  8
Default
 10
779.976667535799
 20
761.133670081803
 42
0.0
  0
VERTEX
  8
Default
 10
777.083362455979
 20
758.364993412881
 42
0.0
  0
VERTEX
  8
Default
 10
771.552363486513
 20
764.144963170638
 42
0.0
  0
VERTEX
  8
Default
 10
774.405136503609
 20
766.874853685459
 42
-0.1286012318024
  0
VERTEX
  8
Default
 10
773.086403462073
 20
773.319788017282
 42
-0.5523136433095
  0
VERTEX
  8
Default
 10
792.318752582032
 20
784.016845118444
 42
0.0
  0
VERTEX
  8
Default
 10
795.36126983917
 20
786.928306686523
 42
0.0
  0
VERTEX
  8
Default
 10
800.89226880862
 20
781.148336928865
 42
0.0
  0
VERTEX
  8
Default
 10
797.809219488742
 20
778.198089206767
 42
-0.4066109288084
  0
VERTEX
  8
Default
 10
791.950706613392
 20
761.025965604845
 42
-0.2439878381833
  0
SEQEND
  0
POLYLINE
  8
Default
 66
     1
 10
0.0
 20
0.0
 30
0.0
 70
     1
  0
VERTEX
  8
Default
 10
742.018766360182
 20
786.514554053699
 42
0.0827612829105
  0
VERTEX
  8
Default
 10
763.207641372205
 20
754.15511909966
 42
1.0183002032405
  0
VERTEX
  8
Default
 10
808.518483783734
 20
791.92790050199
 42
0.0739001972228
  0
VERTEX
  8
Default
 10
801.942522937475
 20
797.582563822553
 42
-0.1154841644512
  0
VERTEX
  8
Default
 10
801.942522937475
 20
797.582563822553
 42
0.0698005019029
  0
VERTEX
  8
Default
 10
801.942522937475
 20
797.582563822553
 42
-0.1404517183086
  0
VERTEX
  8
Default
 10
785.894792686414
 20
832.367424937005
 42
-0.3138514648351
  0
VERTEX
  8
Default
 10
839.632690271886
 20
929.131458171173
 42
0.2269433204767
  0
VERTEX
  8
Default
 10
840.703334448335
 20
930.486056867334
 42
0.0
  0
VERTEX
  8
Default
 10
843.719836675541
 20
943.817715838902
 42
0.5032555571422
  0
VERTEX
  8
Default
 10
841.62591195924
 20
946.253954937044
 42
0.1867605499068
  0
VERTEX
  8
Default
 10
768.092172984874
 20
911.550669241607
 42
0.2503887449045
  0
VERTEX
  8
Default
 10
737.010857297392
 20
803.341113233834
 42
0.0458886978039
  0
VERTEX
  8
Default
 10
741.992415260658
 20
786.577303393919
 42
0.0
  0
SEQEND
  0
POLYLINE
  8
Default
 66
     1
 10
0.0
 20
0.0
 30
0.0
 70
     1
  0
VERTEX
  8
Default
 10
52.9766675357992
 20
561.133670081803
 42
0.0
  0
VERTEX
  8
Default
 10
50.0833624559795
 20
558.364993412881
 42
0.0
  0
VERTEX
  8
Default
 10
44.5523634865128
 20
564.144963170638
 42
0.0
  0
VERTEX
  8
Default
 10
47.4051365036092
 20
566.874853685459
 42
-0.1286012318024
  0
VERTEX
  8
Default
 10
46.0864034620732
 20
573.319788017282
 42
-0.5523136433095
  0
VERTEX
  8
Default
 10
65.3187525820323
 20
584.016845118444
 42
0.0
  0
VERTEX
  8
Default
 10
68.3612698391697
 20
586.928306686523
 42
0.0
  0
VERTEX
  8
Default
 10
73.8922688086196
 20
581.148336928865
 42
0.0
  0
VERTEX
  8
Default
 10
70.809219488742
 20
578.198089206767
 42
-0.4066109288084
  0
VERTEX
  8
Default
 10
64.9507066133923
 20
561.025965604845
 42
-0.2439878381833
  0
SEQEND
  0
POLYLINE
  8
Default
 66
     1
 10
0.0
 20
0.0
 30
0.0
 70
     1
  0
VERTEX
  8
Default
 10
15.0187663601821
 20
586.514554053699
 42
0.0827612829105
  0
VERTEX
  8
Default
 10
36.2076413722048
 20
554.15511909966
 42
1.0183002032405
  0
VERTEX
  8
Default
 10
81.5184837837343
 20
591.92790050199
 42
0.0739001972228
  0
VERTEX
  8
Default
 10
74.9425229374755
 20
597.582563822553
 42
-0.1154841644512
  0
VERTEX
  8
Default
 10
74.9425229374755
 20
597.582563822553
 42
0.0698005019029
  0
VERTEX
  8
Default
 10
74.9425229374755
 20
597.582563822553
 42
-0.1404517183086
  0
VERTEX
  8
Default
 10
58.8947926864136
 20
632.367424937005
 42
-0.3138514648351
  0
VERTEX
  8
Default
 10
112.632690271886
 20
729.131458171173
 42
0.2269433204767
  0
VERTEX
  8
Default
 10
113.703334448335
 20
730.486056867334
 42
0.0
  0
VERTEX
  8
Default
 10
116.719836675541
 20
743.817715838902
 42
0.5032555571422
  0
VERTEX
  8
Default
 10
114.62591195924
 20
746.253954937044
 42
0.1867605499068
  0
VERTEX
  8
Default
 10
41.0921729848737
 20
711.550669241607
 42
0.2503887449045
  0
VERTEX
  8
Default
 10
10.0108572973918
 20
603.341113233834
 42
0.0458886978039
  0
VERTEX
  8
Default
 10
14.9924152606577
 20
586.577303393919
 42
0.0
  0
SEQEND
  0
POLYLINE
  8
Default
 66
     1
 10
0.0
 20
0.0
 30
0.0
 70
     1
  0
VERTEX
  8
Default
 10
108.116575531738
 20
591.717563113796
 42
0.0
  0
VERTEX
  8
Default
 10
104.570392182856
 20
589.857087787958
 42
0.0
  0
VERTEX
  8
Default
 10
100.853711493743
 20
596.941315667974
 42
0.0
  0
VERTEX
  8
Default
 10
104.350216664197
 20
598.77572775444
 42
-0.1286012318024
  0
VERTEX
  8
Default
 10
104.865405919231
 20
605.33399089401
 42
-0.5523136433095
  0
VERTEX
  8
Default
 10
126.306064838782
 20
610.294679192319
 42
0.0
  0
VERTEX
  8
Default
 10
130.035130297935
 20
612.251102082119
 42
0.0
  0
VERTEX
  8
Default
 10
133.751810987059
 20
605.166874202203
 42
0.0
  0
VERTEX
  8
Default
 10
129.973067349484
 20
603.184388073113
 42
-0.4066109288084
  0
VERTEX
  8
Default
 10
119.593760545341
 20
588.302385775849
 42
-0.2439878381833
  0
SEQEND
  0
POLYLINE
  8
Default
 66
     1
 10
0.0
 20
0.0
 30
0.0
 70
     1
  0
VERTEX
  8
Default
 10
164.84071168737
 20
732.625649450672
 42
0.3922447679682
  0
VERTEX
  8
Default
 10
82.2262925996293
 20
680.824094209906
 42
-0.0168304809838
  0
VERTEX
  8
Default
 10
82.1574021928205
 20
680.59883296347
 42
0.1854617880789
  0
VERTEX
  8
Default
 10
85.0985547685195
 20
599.626393303792
 42
-0.0079890794396
  0
VERTEX
  8
Default
 10
85.1407733774608
 20
599.522828016044
 42
0.0231192830367
  0
VERTEX
  8
Default
 10
89.5667503935389
 20
589.540552118935
 42
-0.0157129540402
  0
VERTEX
  8
Default
 10
89.6588601688942
 20
589.340843081097
 42
1.0161827471159
  0
VERTEX
  8
Default
 10
144.515761931841
 20
613.626492120273
 42
0.0672261290743
  0
VERTEX
  8
Default
 10
139.612195918248
 20
621.394134915234
 42
-0.0831122227015
  0
VERTEX
  8
Default
 10
139.612195918248
 20
621.394134915234
 42
0.0146694010016
  0
VERTEX
  8
Default
 10
139.612195918248
 20
621.394134915234
 42
0.0512729719823
  0
VERTEX
  8
Default
 10
139.612195918248
 20
621.394134915234
 42
-0.459585141946
  0
VERTEX
  8
Default
 10
162.712676664962
 20
721.476305638325
 42
0.0
  0
SEQEND
  0
POLYLINE
  8
Default
 66
     1
 10
0.0
 20
0.0
 30
0.0
 70
     1
  0
VERTEX
  8
Default
 10
196.976667535799
 20
561.133670081803
 42
0.0
  0
VERTEX
  8
Default
 10
194.083362455979
 20
558.364993412881
 42
0.0
  0
VERTEX
  8
Default
 10
188.552363486513
 20
564.144963170638
 42
0.0
  0
VERTEX
  8
Default
 10
191.405136503609
 20
566.874853685459
 42
-0.1286012318024
  0
VERTEX
  8
Default
 10
190.086403462073
 20
573.319788017282
 42
-0.5523136433095
  0
VERTEX
  8
Default
 10
209.318752582032
 20
584.016845118444
 42
0.0
  0
VERTEX
  8
Default
 10
212.36126983917
 20
586.928306686523
 42
0.0
  0
VERTEX
  8
Default
 10
217.89226880862
 20
581.148336928865
 42
0.0
  0
VERTEX
  8
Default
 10
214.809219488742
 20
578.198089206767
 42
-0.4066109288084
  0
VERTEX
  8
Default
 10
208.950706613392
 20
561.025965604845
 42
-0.2439878381833
  0
SEQEND
  0
POLYLINE
  8
Default
 66
     1
 10
0.0
 20
0.0
 30
0.0
 70
     1
  0
VERTEX
  8
Default
 10
159.018766360182
 20
586.514554053699
 42
0.0827612829105
  0
VERTEX
  8
Default
 10
180.207641372205
 20
554.15511909966
 42
1.0183002032405
  0
VERTEX
  8
Default
 10
225.518483783734
 20
591.92790050199
 42
0.0739001972228
  0
VERTEX
  8
Default
 10
218.942522937475
 20
597.582563822553
 42
-0.1154841644512
  0
VERTEX
  8
Default
 10
218.942522937475
 20
597.582563822553
 42
0.0698005019029
  0
VERTEX
  8
Default
 10
218.942522937475
 20
597.582563822553
 42
-0.1404517183086
  0
VERTEX
  8
Default
 10
202.894792686414
 20
632.367424937005
 42
-0.3138514648351
  0
VERTEX
  8
Default
 10
256.632690271886
 20
729.131458171173
 42
0.2269433204767
  0
VERTEX
  8
Default
 10
257.703334448335
 20
730.486056867334
 42
0.0
  0
VERTEX
  8
Default
 10
260.719836675541
 20
743.817715838902
 42
0.5032555571422
  0
VERTEX
  8
Default
 10
258.62591195924
 20
746.253954937044
 42
0.1867605499068
  0
VERTEX
  8
Default
 10
185.092172984874
 20
711.550669241607
 42
0.2503887449045
  0
VERTEX
  8
Default
 10
154.010857297392
 20
603.341113233834
 42
0.0458886978039
  0
VERTEX
  8
Default
 10
158.992415260658
 20
586.577303393919
 42
0.0
  0
SEQEND
  0
POLYLINE
  8
Default
 66
     1
 10
0.0
 20
0.0
 30
0.0
 70
     1
  0
VERTEX
  8
Default
 10
252.116575531738
 20
591.717563113796
 42
0.0
  0
VERTEX
  8
Default
 10
248.570392182856
 20
589.857087787958
 42
0.0
  0
VERTEX
  8
Default
 10
244.853711493743
 20
596.941315667974
 42
0.0
  0
VERTEX
  8
Default
 10
248.350216664197
 20
598.77572775444
 42
-0.1286012318024
  0
VERTEX
  8
Default
 10
248.865405919231
 20
605.33399089401
 42
-0.5523136433095
  0
VERTEX
  8
Default
 10
270.306064838782
 20
610.294679192319
 42
0.0
  0
VERTEX
  8
Default
 10
274.035130297935
 20
612.251102082119
 42
0.0
  0
VERTEX
  8
Default
 10
277.751810987059
 20
605.166874202203
 42
0.0
  0
VERTEX
  8
Default
 10
273.973067349485
 20
603.184388073113
 42
-0.4066109288084
  0
VERTEX
  8
Default
 10
263.593760545341
 20
588.302385775849
 42
-0.2439878381833
  0
SEQEND
  0
POLYLINE
  8
Default
 66
     1
 10
0.0
 20
0.0
 30
0.0
 70
     1
  0
VERTEX
  8
Default
 10
308.84071168737
 20
732.625649450672
 42
0.3922447679682
  0
VERTEX
  8
Default
 10
226.226292599629
 20
680.824094209906
 42
-0.0168304809838
  0
VERTEX
  8
Default
 10
226.157402192821
 20
680.59883296347
 42
0.1854617880789
  0
VERTEX
  8
Default
 10
229.098554768519
 20
599.626393303792
 42
-0.0079890794396
  0
VERTEX
  8
Default
 10
229.140773377461
 20
599.522828016044
 42
0.0231192830367
  0
VERTEX
  8
Default
 10
233.566750393539
 20
589.540552118935
 42
-0.0157129540402
  0
VERTEX
  8
Default
 10
233.658860168894
 20
589.340843081097
 42
1.0161827471159
  0
VERTEX
  8
Default
 10
288.515761931841
 20
613.626492120273
 42
0.0672261290743
  0
VERTEX
  8
Default
 10
283.612195918248
 20
621.394134915234
 42
-0.0831122227015
  0
VERTEX
  8
Default
 10
283.612195918248
 20
621.394134915234
 42
0.0146694010016
  0
VERTEX
  8
Default
 10
283.612195918248
 20
621.394134915234
 42
0.0512729719823
  0
VERTEX
  8
Default
 10
283.612195918248
 20
621.394134915234
 42
-0.459585141946
  0
VERTEX
  8
Default
 10
306.712676664962
 20
721.476305638325
 42
0.0
  0
SEQEND
  0
POLYLINE
  8
Default
 66
     1
 10
0.0
 20
0.0
 30
0.0
 70
     1
  0
VERTEX
  8
Default
 10
502.976667535799
 20
561.133670081803
 42
0.0
  0
VERTEX
  8
Default
 10
500.083362455979
 20
558.364993412881
 42
0.0
  0
VERTEX
  8
Default
 10
494.552363486513
 20
564.144963170638
 42
0.0
  0
VERTEX
  8
Default
 10
497.405136503609
 20
566.874853685459
 42
-0.1286012318024
  0
VERTEX
  8
Default
 10
496.086403462073
 20
573.319788017282
 42
-0.5523136433095
  0
VERTEX
  8
Default
 10
515.318752582032
 20
584.016845118444
 42
0.0
  0
VERTEX
  8
Default
 10
518.36126983917
 20
586.928306686523
 42
0.0
  0
VERTEX
  8
Default
 10
523.89226880862
 20
581.148336928865
 42
0.0
  0
VERTEX
  8
Default
 10
520.809219488742
 20
578.198089206767
 42
-0.4066109288084
  0
VERTEX
  8
Default
 10
514.950706613392
 20
561.025965604845
 42
-0.2439878381833
  0
SEQEND
  0
POLYLINE
  8
Default
 66
     1
 10
0.0
 20
0.0
 30
0.0
 70
     1
  0
VERTEX
  8
Default
 10
465.018766360182
 20
586.514554053699
 42
0.0827612829105
  0
VERTEX
  8
Default
 10
486.207641372205
 20
554.15511909966
 42
1.0183002032405
  0
VERTEX
  8
Default
 10
531.518483783734
 20
591.92790050199
 42
0.0739001972228
  0
VERTEX
  8
Default
 10
524.942522937475
 20
597.582563822553
 42
-0.1154841644512
  0
VERTEX
  8
Default
 10
524.942522937475
 20
597.582563822553
 42
0.0698005019029
  0
VERTEX
  8
Default
 10
524.942522937475
 20
597.582563822553
 42
-0.1404517183086
  0
VERTEX
  8
Default
 10
508.894792686414
 20
632.367424937005
 42
-0.3138514648351
  0
VERTEX
  8
Default
 10
562.632690271886
 20
729.131458171173
 42
0.2269433204767
  0
VERTEX
  8
Default
 10
563.703334448335
 20
730.486056867334
 42
0.0
  0
VERTEX
  8
Default
 10
566.719836675541
 20
743.817715838902
 42
0.5032555571422
  0
VERTEX
  8
Default
 10
564.62591195924
 20
746.253954937044
 42
0.1867605499068
  0
VERTEX
  8
Default
 10
491.092172984874
 20
711.550669241607
 42
0.2503887449045
  0
VERTEX
  8
Default
 10
460.010857297392
 20
603.341113233834
 42
0.0458886978039
  0
VERTEX
  8
Default
 10
464.992415260658
 20
586.577303393919
 42
0.0
  0
SEQEND
  0
POLYLINE
  8
Default
 66
     1
 10
0.0
 20
0.0
 30
0.0
 70
     1
  0
VERTEX
  8
Default
 10
558.116575531738
 20
591.717563113796
 42
0.0
  0
VERTEX
  8
Default
 10
554.570392182856
 20
589.857087787958
 42
0.0
  0
VERTEX
  8
Default
 10
550.853711493743
 20
596.941315667974
 42
0.0
  0
VERTEX
  8
Default
 10
554.350216664197
 20
598.77572775444
 42
-0.1286012318024
  0
VERTEX
  8
Default
 10
554.865405919231
 20
605.33399089401
 42
-0.5523136433095
  0
VERTEX
  8
Default
 10
576.306064838783
 20
610.294679192319
 42
0.0
  0
VERTEX
  8
Default
 10
580.035130297935
 20
612.251102082119
 42
0.0
  0
VERTEX
  8
Default
 10
583.751810987059
 20
605.166874202203
 42
0.0
  0
VERTEX
  8
Default
 10
579.973067349485
 20
603.184388073113
 42
-0.4066109288084
  0
VERTEX
  8
Default
 10
569.593760545341
 20
588.302385775849
 42
-0.2439878381833
  0
SEQEND
  0
POLYLINE
  8
Default
 66
     1
 10
0.0
 20
0.0
 30
0.0
 70
     1
  0
VERTEX
  8
Default
 10
614.84071168737
 20
732.625649450672
 42
0.3922447679682
  0
VERTEX
  8
Default
 10
532.226292599629
 20
680.824094209906
 42
-0.0168304809838
  0
VERTEX
  8
Default
 10
532.157402192821
 20
680.59883296347
 42
0.1854617880789
  0
VERTEX
  8
Default
 10
535.09855476852
 20
599.626393303792
 42
-0.0079890794396
  0
VERTEX
  8
Default
 10
535.140773377461
 20
599.522828016044
 42
0.0231192830367
  0
VERTEX
  8
Default
 10
539.566750393539
 20
589.540552118935
 42
-0.0157129540402
  0
VERTEX
  8
Default
 10
539.658860168894
 20
589.340843081097
 42
1.0161827471159
  0
VERTEX
  8
Default
 10
594.515761931841
 20
613.626492120273
 42
0.0672261290743
  0
VERTEX
  8
Default
 10
589.612195918248
 20
621.394134915234
 42
-0.0831122227015
  0
VERTEX
  8
Default
 10
589.612195918248
 20
621.394134915234
 42
0.0146694010016
  0
VERTEX
  8
Default
 10
589.612195918248
 20
621.394134915234
 42
0.0512729719823
  0
VERTEX
  8
Default
 10
589.612195918248
 20
621.394134915234
 42
-0.459585141946
  0
VERTEX
  8
Default
 10
612.712676664962
 20
721.476305638325
 42
0.0
  0
SEQEND
  0
POLYLINE
  8
Default
 66
     1
 10
0.0
 20
0.0
 30
0.0
 70
     1
  0
VERTEX
  8
Default
 10
646.976667535799
 20
561.133670081803
 42
0.0
  0
VERTEX
  8
Default
 10
644.083362455979
 20
558.364993412881
 42
0.0
  0
VERTEX
  8
Default
 10
638.552363486513
 20
564.144963170638
 42
0.0
  0
VERTEX
  8
Default
 10
641.405136503609
 20
566.874853685459
 42
-0.1286012318024
  0
VERTEX
  8
Default
 10
640.086403462073
 20
573.319788017282
 42
-0.5523136433095
  0
VERTEX
  8
Default
 10
659.318752582032
 20
584.016845118444
 42
0.0
  0
VERTEX
  8
Default
 10
662.36126983917
 20
586.928306686523
 42
0.0
  0
VERTEX
  8
Default
 10
667.89226880862
 20
581.148336928865
 42
0.0
  0
VERTEX
  8
Default
 10
664.809219488742
 20
578.198089206767
 42
-0.4066109288084
  0
VERTEX
  8
Default
 10
658.950706613392
 20
561.025965604845
 42
-0.2439878381833
  0
SEQEND
  0
POLYLINE
  8
Default
 66
     1
 10
0.0
 20
0.0
 30
0.0
 70
     1
  0
VERTEX
  8
Default
 10
609.018766360182
 20
586.514554053699
 42
0.0827612829105
  0
VERTEX
  8
Default
 10
630.207641372205
 20
554.15511909966
 42
1.0183002032405
  0
VERTEX
  8
Default
 10
675.518483783734
 20
591.92790050199
 42
0.0739001972228
  0
VERTEX
  8
Default
 10
668.942522937475
 20
597.582563822553
 42
-0.1154841644512
  0
VERTEX
  8
Default
 10
668.942522937475
 20
597.582563822553
 42
0.0698005019029
  0
VERTEX
  8
Default
 10
668.942522937475
 20
597.582563822553
 42
-0.1404517183086
  0
VERTEX
  8
Default
 10
652.894792686414
 20
632.367424937005
 42
-0.3138514648351
  0
VERTEX
  8
Default
 10
706.632690271886
 20
729.131458171173
 42
0.2269433204767
  0
VERTEX
  8
Default
 10
707.703334448335
 20
730.486056867334
 42
0.0
  0
VERTEX
  8
Default
 10
710.719836675541
 20
743.817715838902
 42
0.5032555571422
  0
VERTEX
  8
Default
 10
708.62591195924
 20
746.253954937044
 42
0.1867605499068
  0
VERTEX
  8
Default
 10
635.092172984874
 20
711.550669241607
 42
0.2503887449045
  0
VERTEX
  8
Default
 10
604.010857297392
 20
603.341113233834
 42
0.0458886978039
  0
VERTEX
  8
Default
 10
608.992415260658
 20
586.577303393919
 42
0.0
  0
SEQEND
  0
POLYLINE
  8
Default
 66
     1
 10
0.0
 20
0.0
 30
0.0
 70
     1
  0
VERTEX
  8
Default
 10
702.116575531738
 20
591.717563113796
 42
0.0
  0
VERTEX
  8
Default
 10
698.570392182856
 20
589.857087787958
 42
0.0
  0
VERTEX
  8
Default
 10
694.853711493743
 20
596.941315667974
 42
0.0
  0
VERTEX
  8
Default
 10
698.350216664197
 20
598.77572775444
 42
-0.1286012318024
  0
VERTEX
  8
Default
 10
698.865405919231
 20
605.33399089401
 42
-0.5523136433095
  0
VERTEX
  8
Default
 10
720.306064838783
 20
610.294679192319
 42
0.0
  0
VERTEX
  8
Default
 10
724.035130297935
 20
612.251102082119
 42
0.0
  0
VERTEX
  8
Default
 10
727.751810987059
 20
605.166874202203
 42
0.0
  0
VERTEX
  8
Default
 10
723.973067349485
 20
603.184388073113
 42
-0.4066109288084
  0
VERTEX
  8
Default
 10
713.593760545341
 20
588.302385775849
 42
-0.2439878381833
  0
SEQEND
  0
POLYLINE
  8
Default
 66
     1
 10
0.0
 20
0.0
 30
0.0
 70
     1
  0
VERTEX
  8
Default
 10
758.84071168737
 20
732.625649450672
 42
0.3922447679682
  0
VERTEX
  8
Default
 10
676.226292599629
 20
680.824094209906
 42
-0.0168304809838
  0
VERTEX
  8
Default
 10
676.157402192821
 20
680.59883296347
 42
0.1854617880789
  0
VERTEX
  8
Default
 10
679.09855476852
 20
599.626393303792
 42
-0.0079890794396
  0
VERTEX
  8
Default
 10
679.140773377461
 20
599.522828016044
 42
0.0231192830367
  0
VERTEX
  8
Default
 10
683.566750393539
 20
589.540552118935
 42
-0.0157129540402
  0
VERTEX
  8
Default
 10
683.658860168894
 20
589.340843081097
 42
1.0161827471159
  0
VERTEX
  8
Default
 10
738.515761931841
 20
613.626492120273
 42
0.0672261290743
  0
VERTEX
  8
Default
 10
733.612195918248
 20
621.394134915234
 42
-0.0831122227015
  0
VERTEX
  8
Default
 10
733.612195918248
 20
621.394134915234
 42
0.0146694010016
  0
VERTEX
  8
Default
 10
733.612195918248
 20
621.394134915234
 42
0.0512729719823
  0
VERTEX
  8
Default
 10
733.612195918248
 20
621.394134915234
 42
-0.459585141946
  0
VERTEX
  8
Default
 10
756.712676664962
 20
721.476305638325
 42
0.0
  0
SEQEND
  0
POLYLINE
  8
Default
 66
     1
 10
0.0
 20
0.0
 30
0.0
 70
     1
  0
VERTEX
  8
Default
 10
789.976667535799
 20
561.133670081803
 42
0.0
  0
VERTEX
  8
Default
 10
787.083362455979
 20
558.364993412881
 42
0.0
  0
VERTEX
  8
Default
 10
781.552363486513
 20
564.144963170638
 42
0.0
  0
VERTEX
  8
Default
 10
784.405136503609
 20
566.874853685459
 42
-0.1286012318024
  0
VERTEX
  8
Default
 10
783.086403462073
 20
573.319788017282
 42
-0.5523136433095
  0
VERTEX
  8
Default
 10
802.318752582032
 20
584.016845118444
 42
0.0
  0
VERTEX
  8
Default
 10
805.36126983917
 20
586.928306686523
 42
0.0
  0
VERTEX
  8
Default
 10
810.89226880862
 20
581.148336928865
 42
0.0
  0
VERTEX
  8
Default
 10
807.809219488742
 20
578.198089206767
 42
-0.4066109288084
  0
VERTEX
  8
Default
 10
801.950706613392
 20
561.025965604845
 42
-0.2439878381833
  0
SEQEND
  0
POLYLINE
  8
Default
 66
     1
 10
0.0
 20
0.0
 30
0.0
 70
     1
  0
VERTEX
  8
Default
 10
752.018766360182
 20
586.514554053699
 42
0.0827612829105
  0
VERTEX
  8
Default
 10
773.207641372205
 20
554.15511909966
 42
1.0183002032405
  0
VERTEX
  8
Default
 10
818.518483783734
 20
591.92790050199
 42
0.0739001972228
  0
VERTEX
  8
Default
 10
811.942522937475
 20
597.582563822553
 42
-0.1154841644512
  0
VERTEX
  8
Default
 10
811.942522937475
 20
597.582563822553
 42
0.0698005019029
  0
VERTEX
  8
Default
 10
811.942522937475
 20
597.582563822553
 42
-0.1404517183086
  0
VERTEX
  8
Default
 10
795.894792686414
 20
632.367424937005
 42
-0.3138514648351
  0
VERTEX
  8
Default
 10
849.632690271886
 20
729.131458171173
 42
0.2269433204767
  0
VERTEX
  8
Default
 10
850.703334448335
 20
730.486056867334
 42
0.0
  0
VERTEX
  8
Default
 10
853.719836675541
 20
743.817715838902
 42
0.5032555571422
  0
VERTEX
  8
Default
 10
851.62591195924
 20
746.253954937044
 42
0.1867605499068
  0
VERTEX
  8
Default
 10
778.092172984874
 20
711.550669241607
 42
0.2503887449045
  0
VERTEX
  8
Default
 10
747.010857297392
 20
603.341113233834
 42
0.0458886978039
  0
VERTEX
  8
Default
 10
751.992415260658
 20
586.577303393919
 42
0.0
  0
SEQEND
  0
POLYLINE
  8
Default
 66
     1
 10
0.0
 20
0.0
 30
0.0
 70
     1
  0
VERTEX
  8
Default
 10
346.976667535799
 20
561.133670081803
 42
0.0
  0
VERTEX
  8
Default
 10
344.083362455979
 20
558.364993412881
 42
0.0
  0
VERTEX
  8
Default
 10
338.552363486513
 20
564.144963170638
 42
0.0
  0
VERTEX
  8
Default
 10
341.405136503609
 20
566.874853685459
 42
-0.1286012318024
  0
VERTEX
  8
Default
 10
340.086403462073
 20
573.319788017282
 42
-0.5523136433095
  0
VERTEX
  8
Default
 10
359.318752582032
 20
584.016845118444
 42
0.0
  0
VERTEX
  8
Default
 10
362.36126983917
 20
586.928306686523
 42
0.0
  0
VERTEX
  8
Default
 10
367.89226880862
 20
581.148336928865
 42
0.0
  0
VERTEX
  8
Default
 10
364.809219488742
 20
578.198089206767
 42
-0.4066109288084
  0
VERTEX
  8
Default
 10
358.950706613392
 20
561.025965604845
 42
-0.2439878381833
  0
SEQEND
  0
POLYLINE
  8
Default
 66
     1
 10
0.0
 20
0.0
 30
0.0
 70
     1
  0
VERTEX
  8
Default
 10
402.116575531738
 20
591.717563113796
 42
0.0
  0
VERTEX
  8
Default
 10
398.570392182856
 20
589.857087787958
 42
0.0
  0
VERTEX
  8
Default
 10
394.853711493743
 20
596.941315667974
 42
0.0
  0
VERTEX
  8
Default
 10
398.350216664197
 20
598.77572775444
 42
-0.1286012318024
  0
VERTEX
  8
Default
 10
398.865405919231
 20
605.33399089401
 42
-0.5523136433095
  0
VERTEX
  8
Default
 10
420.306064838782
 20
610.294679192319
 42
0.0
  0
VERTEX
  8
Default
 10
424.035130297935
 20
612.251102082119
 42
0.0
  0
VERTEX
  8
Default
 10
427.751810987059
 20
605.166874202203
 42
0.0
  0
VERTEX
  8
Default
 10
423.973067349485
 20
603.184388073113
 42
-0.4066109288084
  0
VERTEX
  8
Default
 10
413.593760545341
 20
588.302385775849
 42
-0.2439878381833
  0
SEQEND
  0
POLYLINE
  8
Default
 66
     1
 10
0.0
 20
0.0
 30
0.0
 70
     1
  0
VERTEX
  8
Default
 10
458.84071168737
 20
732.625649450672
 42
0.3922447679682
  0
VERTEX
  8
Default
 10
376.226292599629
 20
680.824094209906
 42
-0.0168304809838
  0
VERTEX
  8
Default
 10
376.157402192821
 20
680.59883296347
 42
0.1854617880789
  0
VERTEX
  8
Default
 10
379.098554768519
 20
599.626393303792
 42
-0.0079890794396
  0
VERTEX
  8
Default
 10
379.140773377461
 20
599.522828016044
 42
0.0231192830367
  0
VERTEX
  8
Default
 10
383.566750393539
 20
589.540552118935
 42
-0.0157129540402
  0
VERTEX
  8
Default
 10
383.658860168894
 20
589.340843081097
 42
1.0161827471159
  0
VERTEX
  8
Default
 10
438.515761931841
 20
613.626492120273
 42
0.0672261290743
  0
VERTEX
  8
Default
 10
433.612195918248
 20
621.394134915234
 42
-0.0831122227015
  0
VERTEX
  8
Default
 10
433.612195918248
 20
621.394134915234
 42
0.0146694010016
  0
VERTEX
  8
Default
 10
433.612195918248
 20
621.394134915234
 42
0.0512729719823
  0
VERTEX
  8
Default
 10
433.612195918248
 20
621.394134915234
 42
-0.459585141946
  0
VERTEX
  8
Default
 10
456.712676664962
 20
721.476305638325
 42
0.0
  0
SEQEND
  0
POLYLINE
  8
Default
 66
     1
 10
0.0
 20
0.0
 30
0.0
 70
     1
  0
VERTEX
  8
Default
 10
309.018766360182
 20
586.514554053699
 42
0.0827612829105
  0
VERTEX
  8
Default
 10
330.207641372205
 20
554.15511909966
 42
1.0183002032405
  0
VERTEX
  8
Default
 10
375.518483783734
 20
591.92790050199
 42
0.0739001972228
  0
VERTEX
  8
Default
 10
368.942522937475
 20
597.582563822553
 42
-0.1154841644512
  0
VERTEX
  8
Default
 10
368.942522937475
 20
597.582563822553
 42
0.0698005019029
  0
VERTEX
  8
Default
 10
368.942522937475
 20
597.582563822553
 42
-0.1404517183086
  0
VERTEX
  8
Default
 10
352.894792686414
 20
632.367424937005
 42
-0.3138514648351
  0
VERTEX
  8
Default
 10
406.632690271886
 20
729.131458171173
 42
0.2269433204767
  0
VERTEX
  8
Default
 10
407.703334448335
 20
730.486056867334
 42
0.0
  0
VERTEX
  8
Default
 10
410.719836675541
 20
743.817715838902
 42
0.5032555571422
  0
VERTEX
  8
Default
 10
408.62591195924
 20
746.253954937044
 42
0.1867605499068
  0
VERTEX
  8
Default
 10
335.092172984874
 20
711.550669241607
 42
0.2503887449045
  0
VERTEX
  8
Default
 10
304.010857297392
 20
603.341113233834
 42
0.0458886978039
  0
VERTEX
  8
Default
 10
308.992415260658
 20
586.577303393919
 42
0.0
  0
SEQEND
  0
POLYLINE
  8
Default
 66
     1
 10
0.0
 20
0.0
 30
0.0
 70
     1
  0
VERTEX
  8
Default
 10
52.9766675357992
 20
361.133670081803
 42
0.0
  0
VERTEX
  8
Default
 10
50.0833624559795
 20
358.364993412881
 42
0.0
  0
VERTEX
  8
Default
 10
44.5523634865128
 20
364.144963170638
 42
0.0
  0
VERTEX
  8
Default
 10
47.4051365036092
 20
366.874853685459
 42
-0.1286012318024
  0
VERTEX
  8
Default
 10
46.0864034620732
 20
373.319788017282
 42
-0.5523136433095
  0
VERTEX
  8
Default
 10
65.3187525820323
 20
384.016845118444
 42
0.0
  0
VERTEX
  8
Default
 10
68.3612698391697
 20
386.928306686523
 42
0.0
  0
VERTEX
  8
Default
 10
73.8922688086196
 20
381.148336928865
 42
0.0
  0
VERTEX
  8
Default
 10
70.809219488742
 20
378.198089206767
 42
-0.4066109288084
  0
VERTEX
  8
Default
 10
64.9507066133923
 20
361.025965604845
 42
-0.2439878381833
  0
SEQEND
  0
POLYLINE
  8
Default
 66
     1
 10
0.0
 20
0.0
 30
0.0
 70
     1
  0
VERTEX
  8
Default
 10
15.0187663601821
 20
386.514554053699
 42
0.0827612829105
  0
VERTEX
  8
Default
 10
36.2076413722048
 20
354.15511909966
 42
1.0183002032405
  0
VERTEX
  8
Default
 10
81.5184837837343
 20
391.92790050199
 42
0.0739001972228
  0
VERTEX
  8
Default
 10
74.9425229374755
 20
397.582563822553
 42
-0.1154841644512
  0
VERTEX
  8
Default
 10
74.9425229374755
 20
397.582563822553
 42
0.0698005019029
  0
VERTEX
  8
Default
 10
74.9425229374755
 20
397.582563822553
 42
-0.1404517183086
  0
VERTEX
  8
Default
 10
58.8947926864136
 20
432.367424937005
 42
-0.3138514648351
  0
VERTEX
  8
Default
 10
112.632690271886
 20
529.131458171173
 42
0.2269433204767
  0
VERTEX
  8
Default
 10
113.703334448335
 20
530.486056867334
 42
0.0
  0
VERTEX
  8
Default
 10
116.719836675541
 20
543.817715838902
 42
0.5032555571422
  0
VERTEX
  8
Default
 10
114.62591195924
 20
546.253954937044
 42
0.1867605499068
  0
VERTEX
  8
Default
 10
41.0921729848737
 20
511.550669241607
 42
0.2503887449045
  0
VERTEX
  8
Default
 10
10.0108572973918
 20
403.341113233834
 42
0.0458886978039
  0
VERTEX
  8
Default
 10
14.9924152606577
 20
386.577303393919
 42
0.0
  0
SEQEND
  0
POLYLINE
  8
Default
 66
     1
 10
0.0
 20
0.0
 30
0.0
 70
     1
  0
VERTEX
  8
Default
 10
108.116575531738
 20
391.717563113796
 42
0.0
  0
VERTEX
  8
Default
 10
104.570392182856
 20
389.857087787958
 42
0.0
  0
VERTEX
  8
Default
 10
100.853711493743
 20
396.941315667974
 42
0.0
  0
VERTEX
  8
Default
 10
104.350216664197
 20
398.77572775444
 42
-0.1286012318024
  0
VERTEX
  8
Default
 10
104.865405919231
 20
405.33399089401
 42
-0.5523136433095
  0
VERTEX
  8
Default
 10
126.306064838782
 20
410.294679192319
 42
0.0
  0
VERTEX
  8
Default
 10
130.035130297935
 20
412.251102082119
 42
0.0
  0
VERTEX
  8
Default
 10
133.751810987059
 20
405.166874202203
 42
0.0
  0
VERTEX
  8
Default
 10
129.973067349484
 20
403.184388073113
 42
-0.4066109288084
  0
VERTEX
  8
Default
 10
119.593760545341
 20
388.302385775849
 42
-0.2439878381833
  0
SEQEND
  0
POLYLINE
  8
Default
 66
     1
 10
0.0
 20
0.0
 30
0.0
 70
     1
  0
VERTEX
  8
Default
 10
164.84071168737
 20
532.625649450672
 42
0.3922447679682
  0
VERTEX
  8
Default
 10
82.2262925996293
 20
480.824094209906
 42
-0.0168304809838
  0
VERTEX
  8
Default
 10
82.1574021928205
 20
480.59883296347
 42
0.1854617880789
  0
VERTEX
  8
Default
 10
85.0985547685195
 20
399.626393303792
 42
-0.0079890794396
  0
VERTEX
  8
Default
 10
85.1407733774608
 20
399.522828016044
 42
0.0231192830367
  0
VERTEX
  8
Default
 10
89.5667503935389
 20
389.540552118935
 42
-0.0157129540402
  0
VERTEX
  8
Default
 10
89.6588601688942
 20
389.340843081097
 42
1.0161827471159
  0
VERTEX
  8
Default
 10
144.515761931841
 20
413.626492120273
 42
0.0672261290743
  0
VERTEX
  8
Default
 10
139.612195918248
 20
421.394134915234
 42
-0.0831122227015
  0
VERTEX
  8
Default
 10
139.612195918248
 20
421.394134915234
 42
0.0146694010016
  0
VERTEX
  8
Default
 10
139.612195918248
 20
421.394134915234
 42
0.0512729719823
  0
VERTEX
  8
Default
 10
139.612195918248
 20
421.394134915234
 42
-0.459585141946
  0
VERTEX
  8
Default
 10
162.712676664962
 20
521.476305638325
 42
0.0
  0
SEQEND
  0
POLYLINE
  8
Default
 66
     1
 10
0.0
 20
0.0
 30
0.0
 70
     1
  0
VERTEX
  8
Default
 10
196.976667535799
 20
361.133670081803
 42
0.0
  0
VERTEX
  8
Default
 10
194.083362455979
 20
358.364993412881
 42
0.0
  0
VERTEX
  8
Default
 10
188.552363486513
 20
364.144963170638
 42
0.0
  0
VERTEX
  8
Default
 10
191.405136503609
 20
366.874853685459
 42
-0.1286012318024
  0
VERTEX
  8
Default
 10
190.086403462073
 20
373.319788017282
 42
-0.5523136433095
  0
VERTEX
  8
Default
 10
209.318752582032
 20
384.016845118444
 42
0.0
  0
VERTEX
  8
Default
 10
212.36126983917
 20
386.928306686523
 42
0.0
  0
VERTEX
  8
Default
 10
217.89226880862
 20
381.148336928865
 42
0.0
  0
VERTEX
  8
Default
 10
214.809219488742
 20
378.198089206767
 42
-0.4066109288084
  0
VERTEX
  8
Default
 10
208.950706613392
 20
361.025965604845
 42
-0.2439878381833
  0
SEQEND
  0
POLYLINE
  8
Default
 66
     1
 10
0.0
 20
0.0
 30
0.0
 70
     1
  0
VERTEX
  8
Default
 10
159.018766360182
 20
386.514554053699
 42
0.0827612829105
  0
VERTEX
  8
Default
 10
180.207641372205
 20
354.15511909966
 42
1.0183002032405
  0
VERTEX
  8
Default
 10
225.518483783734
 20
391.92790050199
 42
0.0739001972228
  0
VERTEX
  8
Default
 10
218.942522937475
 20
397.582563822553
 42
-0.1154841644512
  0
VERTEX
  8
Default
 10
218.942522937475
 20
397.582563822553
 42
0.0698005019029
  0
VERTEX
  8
Default
 10
218.942522937475
 20
397.582563822553
 42
-0.1404517183086
  0
VERTEX
  8
Default
 10
202.894792686414
 20
432.367424937005
 42
-0.3138514648351
  0
VERTEX
  8
Default
 10
256.632690271886
 20
529.131458171173
 42
0.2269433204767
  0
VERTEX
  8
Default
 10
257.703334448335
 20
530.486056867334
 42
0.0
  0
VERTEX
  8
Default
 10
260.719836675541
 20
543.817715838902
 42
0.5032555571422
  0
VERTEX
  8
Default
 10
258.62591195924
 20
546.253954937044
 42
0.1867605499068
  0
VERTEX
  8
Default
 10
185.092172984874
 20
511.550669241607
 42
0.2503887449045
  0
VERTEX
  8
Default
 10
154.010857297392
 20
403.341113233834
 42
0.0458886978039
  0
VERTEX
  8
Default
 10
158.992415260658
 20
386.577303393919
 42
0.0
  0
SEQEND
  0
POLYLINE
  8
Default
 66
     1
 10
0.0
 20
0.0
 30
0.0
 70
     1
  0
VERTEX
  8
Default
 10
252.116575531738
 20
391.717563113796
 42
0.0
  0
VERTEX
  8
Default
 10
248.570392182856
 20
389.857087787958
 42
0.0
  0
VERTEX
  8
Default
 10
244.853711493743
 20
396.941315667974
 42
0.0
  0
VERTEX
  8
Default
 10
248.350216664197
 20
398.77572775444
 42
-0.1286012318024
  0
VERTEX
  8
Default
 10
248.865405919231
 20
405.33399089401
 42
-0.5523136433095
  0
VERTEX
  8
Default
 10
270.306064838782
 20
410.294679192319
 42
0.0
  0
VERTEX
  8
Default
 10
274.035130297935
 20
412.251102082119
 42
0.0
  0
VERTEX
  8
Default
 10
277.751810987059
 20
405.166874202203
 42
0.0
  0
VERTEX
  8
Default
 10
273.973067349485
 20
403.184388073113
 42
-0.4066109288084
  0
VERTEX
  8
Default
 10
263.593760545341
 20
388.302385775849
 42
-0.2439878381833
  0
SEQEND
  0
POLYLINE
  8
Default
 66
     1
 10
0.0
 20
0.0
 30
0.0
 70
     1
  0
VERTEX
  8
Default
 10
308.84071168737
 20
532.625649450672
 42
0.3922447679682
  0
VERTEX
  8
Default
 10
226.226292599629
 20
480.824094209906
 42
-0.0168304809838
  0
VERTEX
  8
Default
 10
226.157402192821
 20
480.59883296347
 42
0.1854617880789
  0
VERTEX
  8
Default
 10
229.098554768519
 20
399.626393303792
 42
-0.0079890794396
  0
VERTEX
  8
Default
 10
229.140773377461
 20
399.522828016044
 42
0.0231192830367
  0
VERTEX
  8
Default
 10
233.566750393539
 20
389.540552118935
 42
-0.0157129540402
  0
VERTEX
  8
Default
 10
233.658860168894
 20
389.340843081097
 42
1.0161827471159
  0
VERTEX
  8
Default
 10
288.515761931841
 20
413.626492120273
 42
0.0672261290743
  0
VERTEX
  8
Default
 10
283.612195918248
 20
421.394134915234
 42
-0.0831122227015
  0
VERTEX
  8
Default
 10
283.612195918248
 20
421.394134915234
 42
0.0146694010016
  0
VERTEX
  8
Default
 10
283.612195918248
 20
421.394134915234
 42
0.0512729719823
  0
VERTEX
  8
Default
 10
283.612195918248
 20
421.394134915234
 42
-0.459585141946
  0
VERTEX
  8
Default
 10
306.712676664962
 20
521.476305638325
 42
0.0
  0
SEQEND
  0
POLYLINE
  8
Default
 66
     1
 10
0.0
 20
0.0
 30
0.0
 70
     1
  0
VERTEX
  8
Default
 10
502.976667535799
 20
361.133670081803
 42
0.0
  0
VERTEX
  8
Default
 10
500.083362455979
 20
358.364993412881
 42
0.0
  0
VERTEX
  8
Default
 10
494.552363486513
 20
364.144963170638
 42
0.0
  0
VERTEX
  8
Default
 10
497.405136503609
 20
366.874853685459
 42
-0.1286012318024
  0
VERTEX
  8
Default
 10
496.086403462073
 20
373.319788017282
 42
-0.5523136433095
  0
VERTEX
  8
Default
 10
515.318752582032
 20
384.016845118444
 42
0.0
  0
VERTEX
  8
Default
 10
518.36126983917
 20
386.928306686523
 42
0.0
  0
VERTEX
  8
Default
 10
523.89226880862
 20
381.148336928865
 42
0.0
  0
VERTEX
  8
Default
 10
520.809219488742
 20
378.198089206767
 42
-0.4066109288084
  0
VERTEX
  8
Default
 10
514.950706613392
 20
361.025965604845
 42
-0.2439878381833
  0
SEQEND
  0
POLYLINE
  8
Default
 66
     1
 10
0.0
 20
0.0
 30
0.0
 70
     1
  0
VERTEX
  8
Default
 10
465.018766360182
 20
386.514554053699
 42
0.0827612829105
  0
VERTEX
  8
Default
 10
486.207641372205
 20
354.15511909966
 42
1.0183002032405
  0
VERTEX
  8
Default
 10
531.518483783734
 20
391.92790050199
 42
0.0739001972228
  0
VERTEX
  8
Default
 10
524.942522937475
 20
397.582563822553
 42
-0.1154841644512
  0
VERTEX
  8
Default
 10
524.942522937475
 20
397.582563822553
 42
0.0698005019029
  0
VERTEX
  8
Default
 10
524.942522937475
 20
397.582563822553
 42
-0.1404517183086
  0
VERTEX
  8
Default
 10
508.894792686414
 20
432.367424937005
 42
-0.3138514648351
  0
VERTEX
  8
Default
 10
562.632690271886
 20
529.131458171173
 42
0.2269433204767
  0
VERTEX
  8
Default
 10
563.703334448335
 20
530.486056867334
 42
0.0
  0
VERTEX
  8
Default
 10
566.719836675541
 20
543.817715838902
 42
0.5032555571422
  0
VERTEX
  8
Default
 10
564.62591195924
 20
546.253954937044
 42
0.1867605499068
  0
VERTEX
  8
Default
 10
491.092172984874
 20
511.550669241607
 42
0.2503887449045
  0
VERTEX
  8
Default
 10
460.010857297392
 20
403.341113233834
 42
0.0458886978039
  0
VERTEX
  8
Default
 10
464.992415260658
 20
386.577303393919
 42
0.0
  0
SEQEND
  0
POLYLINE
  8
Default
 66
     1
 10
0.0
 20
0.0
 30
0.0
 70
     1
  0
VERTEX
  8
Default
 10
558.116575531738
 20
391.717563113796
 42
0.0
  0
VERTEX
  8
Default
 10
554.570392182856
 20
389.857087787958
 42
0.0
  0
VERTEX
  8
Default
 10
550.853711493743
 20
396.941315667974
 42
0.0
  0
VERTEX
  8
Default
 10
554.350216664197
 20
398.77572775444
 42
-0.1286012318024
  0
VERTEX
  8
Default
 10
554.865405919231
 20
405.33399089401
 42
-0.5523136433095
  0
VERTEX
  8
Default
 10
576.306064838783
 20
410.294679192319
 42
0.0
  0
VERTEX
  8
Default
 10
580.035130297935
 20
412.251102082119
 42
0.0
  0
VERTEX
  8
Default
 10
583.751810987059
 20
405.166874202203
 42
0.0
  0
VERTEX
  8
Default
 10
579.973067349485
 20
403.184388073113
 42
-0.4066109288084
  0
VERTEX
  8
Default
 10
569.593760545341
 20
388.302385775849
 42
-0.2439878381833
  0
SEQEND
  0
POLYLINE
  8
Default
 66
     1
 10
0.0
 20
0.0
 30
0.0
 70
     1
  0
VERTEX
  8
Default
 10
614.84071168737
 20
532.625649450672
 42
0.3922447679682
  0
VERTEX
  8
Default
 10
532.226292599629
 20
480.824094209906
 42
-0.0168304809838
  0
VERTEX
  8
Default
 10
532.157402192821
 20
480.59883296347
 42
0.1854617880789
  0
VERTEX
  8
Default
 10
535.09855476852
 20
399.626393303792
 42
-0.0079890794396
  0
VERTEX
  8
Default
 10
535.140773377461
 20
399.522828016044
 42
0.0231192830367
  0
VERTEX
  8
Default
 10
539.566750393539
 20
389.540552118935
 42
-0.0157129540402
  0
VERTEX
  8
Default
 10
539.658860168894
 20
389.340843081097
 42
1.0161827471159
  0
VERTEX
  8
Default
 10
594.515761931841
 20
413.626492120273
 42
0.0672261290743
  0
VERTEX
  8
Default
 10
589.612195918248
 20
421.394134915234
 42
-0.0831122227015
  0
VERTEX
  8
Default
 10
589.612195918248
 20
421.394134915234
 42
0.0146694010016
  0
VERTEX
  8
Default
 10
589.612195918248
 20
421.394134915234
 42
0.0512729719823
  0
VERTEX
  8
Default
 10
589.612195918248
 20
421.394134915234
 42
-0.459585141946
  0
VERTEX
  8
Default
 10
612.712676664962
 20
521.476305638325
 42
0.0
  0
SEQEND
  0
POLYLINE
  8
Default
 66
     1
 10
0.0
 20
0.0
 30
0.0
 70
     1
  0
VERTEX
  8
Default
 10
646.976667535799
 20
361.133670081803
 42
0.0
  0
VERTEX
  8
Default
 10
644.083362455979
 20
358.364993412881
 42
0.0
  0
VERTEX
  8
Default
 10
638.552363486513
 20
364.144963170638
 42
0.0
  0
VERTEX
  8
Default
 10
641.405136503609
 20
366.874853685459
 42
-0.1286012318024
  0
VERTEX
  8
Default
 10
640.086403462073
 20
373.319788017282
 42
-0.5523136433095
  0
VERTEX
  8
Default
 10
659.318752582032
 20
384.016845118444
 42
0.0
  0
VERTEX
  8
Default
 10
662.36126983917
 20
386.928306686523
 42
0.0
  0
VERTEX
  8
Default
 10
667.89226880862
 20
381.148336928865
 42
0.0
  0
VERTEX
  8
Default
 10
664.809219488742
 20
378.198089206767
 42
-0.4066109288084
  0
VERTEX
  8
Default
 10
658.950706613392
 20
361.025965604845
 42
-0.2439878381833
  0
SEQEND
  0
POLYLINE
  8
Default
 66
     1
 10
0.0
 20
0.0
 30
0.0
 70
     1
  0
VERTEX
  8
Default
 10
609.018766360182
 20
386.514554053699
 42
0.0827612829105
  0
VERTEX
  8
Default
 10
630.207641372205
 20
354.15511909966
 42
1.0183002032405
  0
VERTEX
  8
Default
 10
675.518483783734
 20
391.92790050199
 42
0.0739001972228
  0
VERTEX
  8
Default
 10
668.942522937475
 20
397.582563822553
 42
-0.1154841644512
  0
VERTEX
  8
Default
 10
668.942522937475
 20
397.582563822553
 42
0.0698005019029
  0
VERTEX
  8
Default
 10
668.942522937475
 20
397.582563822553
 42
-0.1404517183086
  0
VERTEX
  8
Default
 10
652.894792686414
 20
432.367424937005
 42
-0.3138514648351
  0
VERTEX
  8
Default
 10
706.632690271886
 20
529.131458171173
 42
0.2269433204767
  0
VERTEX
  8
Default
 10
707.703334448335
 20
530.486056867334
 42
0.0
  0
VERTEX
  8
Default
 10
710.719836675541
 20
543.817715838902
 42
0.5032555571422
  0
VERTEX
  8
Default
 10
708.62591195924
 20
546.253954937044
 42
0.1867605499068
  0
VERTEX
  8
Default
 10
635.092172984874
 20
511.550669241607
 42
0.2503887449045
  0
VERTEX
  8
Default
 10
604.010857297392
 20
403.341113233834
 42
0.0458886978039
  0
VERTEX
  8
Default
 10
608.992415260658
 20
386.577303393919
 42
0.0
  0
SEQEND
  0
POLYLINE
  8
Default
 66
     1
 10
0.0
 20
0.0
 30
0.0
 70
     1
  0
VERTEX
  8
Default
 10
702.116575531738
 20
391.717563113796
 42
0.0
  0
VERTEX
  8
Default
 10
698.570392182856
 20
389.857087787958
 42
0.0
  0
VERTEX
  8
Default
 10
694.853711493743
 20
396.941315667974
 42
0.0
  0
VERTEX
  8
Default
 10
698.350216664197
 20
398.77572775444
 42
-0.1286012318024
  0
VERTEX
  8
Default
 10
698.865405919231
 20
405.33399089401
 42
-0.5523136433095
  0
VERTEX
  8
Default
 10
720.306064838783
 20
410.294679192319
 42
0.0
  0
VERTEX
  8
Default
 10
724.035130297935
 20
412.251102082119
 42
0.0
  0
VERTEX
  8
Default
 10
727.751810987059
 20
405.166874202203
 42
0.0
  0
VERTEX
  8
Default
 10
723.973067349485
 20
403.184388073113
 42
-0.4066109288084
  0
VERTEX
  8
Default
 10
713.593760545341
 20
388.302385775849
 42
-0.2439878381833
  0
SEQEND
  0
POLYLINE
  8
Default
 66
     1
 10
0.0
 20
0.0
 30
0.0
 70
     1
  0
VERTEX
  8
Default
 10
758.84071168737
 20
532.625649450672
 42
0.3922447679682
  0
VERTEX
  8
Default
 10
676.226292599629
 20
480.824094209906
 42
-0.0168304809838
  0
VERTEX
  8
Default
 10
676.157402192821
 20
480.59883296347
 42
0.1854617880789
  0
VERTEX
  8
Default
 10
679.09855476852
 20
399.626393303792
 42
-0.0079890794396
  0
VERTEX
  8
Default
 10
679.140773377461
 20
399.522828016044
 42
0.0231192830367
  0
VERTEX
  8
Default
 10
683.566750393539
 20
389.540552118935
 42
-0.0157129540402
  0
VERTEX
  8
Default
 10
683.658860168894
 20
389.340843081097
 42
1.0161827471159
  0
VERTEX
  8
Default
 10
738.515761931841
 20
413.626492120273
 42
0.0672261290743
  0
VERTEX
  8
Default
 10
733.612195918248
 20
421.394134915234
 42
-0.0831122227015
  0
VERTEX
  8
Default
 10
733.612195918248
 20
421.394134915234
 42
0.0146694010016
  0
VERTEX
  8
Default
 10
733.612195918248
 20
421.394134915234
 42
0.0512729719823
  0
VERTEX
  8
Default
 10
733.612195918248
 20
421.394134915234
 42
-0.459585141946
  0
VERTEX
  8
Default
 10
756.712676664962
 20
521.476305638325
 42
0.0
  0
SEQEND
  0
POLYLINE
  8
Default
 66
     1
 10
0.0
 20
0.0
 30
0.0
 70
     1
  0
VERTEX
  8
Default
 10
789.976667535799
 20
361.133670081803
 42
0.0
  0
VERTEX
  8
Default
 10
787.083362455979
 20
358.364993412881
 42
0.0
  0
VERTEX
  8
Default
 10
781.552363486513
 20
364.144963170638
 42
0.0
  0
VERTEX
  8
Default
 10
784.405136503609
 20
366.874853685459
 42
-0.1286012318024
  0
VERTEX
  8
Default
 10
783.086403462073
 20
373.319788017282
 42
-0.5523136433095
  0
VERTEX
  8
Default
 10
802.318752582032
 20
384.016845118444
 42
0.0
  0
VERTEX
  8
Default
 10
805.36126983917
 20
386.928306686523
 42
0.0
  0
VERTEX
  8
Default
 10
810.89226880862
 20
381.148336928865
 42
0.0
  0
VERTEX
  8
Default
 10
807.809219488742
 20
378.198089206767
 42
-0.4066109288084
  0
VERTEX
  8
Default
 10
801.950706613392
 20
361.025965604845
 42
-0.2439878381833
  0
SEQEND
  0
POLYLINE
  8
Default
 66
     1
 10
0.0
 20
0.0
 30
0.0
 70
     1
  0
VERTEX
  8
Default
 10
752.018766360182
 20
386.514554053699
 42
0.0827612829105
  0
VERTEX
  8
Default
 10
773.207641372205
 20
354.15511909966
 42
1.0183002032405
  0
VERTEX
  8
Default
 10
818.518483783734
 20
391.92790050199
 42
0.0739001972228
  0
VERTEX
  8
Default
 10
811.942522937475
 20
397.582563822553
 42
-0.1154841644512
  0
VERTEX
  8
Default
 10
811.942522937475
 20
397.582563822553
 42
0.0698005019029
  0
VERTEX
  8
Default
 10
811.942522937475
 20
397.582563822553
 42
-0.1404517183086
  0
VERTEX
  8
Default
 10
795.894792686414
 20
432.367424937005
 42
-0.3138514648351
  0
VERTEX
  8
Default
 10
849.632690271886
 20
529.131458171173
 42
0.2269433204767
  0
VERTEX
  8
Default
 10
850.703334448335
 20
530.486056867334
 42
0.0
  0
VERTEX
  8
Default
 10
853.719836675541
 20
543.817715838902
 42
0.5032555571422
  0
VERTEX
  8
Default
 10
851.62591195924
 20
546.253954937044
 42
0.1867605499068
  0
VERTEX
  8
Default
 10
778.092172984874
 20
511.550669241607
 42
0.2503887449045
  0
VERTEX
  8
Default
 10
747.010857297392
 20
403.341113233834
 42
0.0458886978039
  0
VERTEX
  8
Default
 10
751.992415260658
 20
386.577303393919
 42
0.0
  0
SEQEND
  0
POLYLINE
  8
Default
 66
     1
 10
0.0
 20
0.0
 30
0.0
 70
     1
  0
VERTEX
  8
Default
 10
346.976667535799
 20
361.133670081803
 42
0.0
  0
VERTEX
  8
Default
 10
344.083362455979
 20
358.364993412881
 42
0.0
  0
VERTEX
  8
Default
 10
338.552363486513
 20
364.144963170638
 42
0.0
  0
VERTEX
  8
Default
 10
341.405136503609
 20
366.874853685459
 42
-0.1286012318024
  0
VERTEX
  8
Default
 10
340.086403462073
 20
373.319788017282
 42
-0.5523136433095
  0
VERTEX
  8
Default
 10
359.318752582032
 20
384.016845118444
 42
0.0
  0
VERTEX
  8
Default
 10
362.36126983917
 20
386.928306686523
 42
0.0
  0
VERTEX
  8
Default
 10
367.89226880862
 20
381.148336928865
 42
0.0
  0
VERTEX
  8
Default
 10
364.809219488742
 20
378.198089206767
 42
-0.4066109288084
  0
VERTEX
  8
Default
 10
358.950706613392
 20
361.025965604845
 42
-0.2439878381833
  0
SEQEND
  0
POLYLINE
  8
Default
 66
     1
 10
0.0
 20
0.0
 30
0.0
 70
     1
  0
VERTEX
  8
Default
 10
402.116575531738
 20
391.717563113796
 42
0.0
  0
VERTEX
  8
Default
 10
398.570392182856
 20
389.857087787958
 42
0.0
  0
VERTEX
  8
Default
 10
394.853711493743
 20
396.941315667974
 42
0.0
  0
VERTEX
  8
Default
 10
398.350216664197
 20
398.77572775444
 42
-0.1286012318024
  0
VERTEX
  8
Default
 10
398.865405919231
 20
405.33399089401
 42
-0.5523136433095
  0
VERTEX
  8
Default
 10
420.306064838782
 20
410.294679192319
 42
0.0
  0
VERTEX
  8
Default
 10
424.035130297935
 20
412.251102082119
 42
0.0
  0
VERTEX
  8
Default
 10
427.751810987059
 20
405.166874202203
 42
0.0
  0
VERTEX
  8
Default
 10
423.973067349485
 20
403.184388073113
 42
-0.4066109288084
  0
VERTEX
  8
Default
 10
413.593760545341
 20
388.302385775849
 42
-0.2439878381833
  0
SEQEND
  0
POLYLINE
  8
Default
 66
     1
 10
0.0
 20
0.0
 30
0.0
 70
     1
  0
VERTEX
  8
Default
 10
458.84071168737
 20
532.625649450672
 42
0.3922447679682
  0
VERTEX
  8
Default
 10
376.226292599629
 20
480.824094209906
 42
-0.0168304809838
  0
VERTEX
  8
Default
 10
376.157402192821
 20
480.59883296347
 42
0.1854617880789
  0
VERTEX
  8
Default
 10
379.098554768519
 20
399.626393303792
 42
-0.0079890794396
  0
VERTEX
  8
Default
 10
379.140773377461
 20
399.522828016044
 42
0.0231192830367
  0
VERTEX
  8
Default
 10
383.566750393539
 20
389.540552118935
 42
-0.0157129540402
  0
VERTEX
  8
Default
 10
383.658860168894
 20
389.340843081097
 42
1.0161827471159
  0
VERTEX
  8
Default
 10
438.515761931841
 20
413.626492120273
 42
0.0672261290743
  0
VERTEX
  8
Default
 10
433.612195918248
 20
421.394134915234
 42
-0.0831122227015
  0
VERTEX
  8
Default
 10
433.612195918248
 20
421.394134915234
 42
0.0146694010016
  0
VERTEX
  8
Default
 10
433.612195918248
 20
421.394134915234
 42
0.0512729719823
  0
VERTEX
  8
Default
 10
433.612195918248
 20
421.394134915234
 42
-0.459585141946
  0
VERTEX
  8
Default
 10
456.712676664962
 20
521.476305638325
 42
0.0
  0
SEQEND
  0
POLYLINE
  8
Default
 66
     1
 10
0.0
 20
0.0
 30
0.0
 70
     1
  0
VERTEX
  8
Default
 10
309.018766360182
 20
386.514554053699
 42
0.0827612829105
  0
VERTEX
  8
Default
 10
330.207641372205
 20
354.15511909966
 42
1.0183002032405
  0
VERTEX
  8
Default
 10
375.518483783734
 20
391.92790050199
 42
0.0739001972228
  0
VERTEX
  8
Default
 10
368.942522937475
 20
397.582563822553
 42
-0.1154841644512
  0
VERTEX
  8
Default
 10
368.942522937475
 20
397.582563822553
 42
0.0698005019029
  0
VERTEX
  8
Default
 10
368.942522937475
 20
397.582563822553
 42
-0.1404517183086
  0
VERTEX
  8
Default
 10
352.894792686414
 20
432.367424937005
 42
-0.3138514648351
  0
VERTEX
  8
Default
 10
406.632690271886
 20
529.131458171173
 42
0.2269433204767
  0
VERTEX
  8
Default
 10
407.703334448335
 20
530.486056867334
 42
0.0
  0
VERTEX
  8
Default
 10
410.719836675541
 20
543.817715838902
 42
0.5032555571422
  0
VERTEX
  8
Default
 10
408.62591195924
 20
546.253954937044
 42
0.1867605499068
  0
VERTEX
  8
Default
 10
335.092172984874
 20
511.550669241607
 42
0.2503887449045
  0
VERTEX
  8
Default
 10
304.010857297392
 20
403.341113233834
 42
0.0458886978039
  0
VERTEX
  8
Default
 10
308.992415260658
 20
386.577303393919
 42
0.0
  0
SEQEND
  0
POLYLINE
  8
Default
 66
     1
 10
0.0
 20
0.0
 30
0.0
 70
     1
  0
VERTEX
  8
Default
 10
52.9766675357992
 20
161.133670081803
 42
0.0
  0
VERTEX
  8
Default
 10
50.0833624559795
 20
158.364993412881
 42
0.0
  0
VERTEX
  8
Default
 10
44.5523634865128
 20
164.144963170638
 42
0.0
  0
VERTEX
  8
Default
 10
47.4051365036092
 20
166.874853685459
 42
-0.1286012318024
  0
VERTEX
  8
Default
 10
46.0864034620732
 20
173.319788017282
 42
-0.5523136433095
  0
VERTEX
  8
Default
 10
65.3187525820323
 20
184.016845118444
 42
0.0
  0
VERTEX
  8
Default
 10
68.3612698391697
 20
186.928306686523
 42
0.0
  0
VERTEX
  8
Default
 10
73.8922688086196
 20
181.148336928865
 42
0.0
  0
VERTEX
  8
Default
 10
70.809219488742
 20
178.198089206767
 42
-0.4066109288084
  0
VERTEX
  8
Default
 10
64.9507066133923
 20
161.025965604845
 42
-0.2439878381833
  0
SEQEND
  0
POLYLINE
  8
Default
 66
     1
 10
0.0
 20
0.0
 30
0.0
 70
     1
  0
VERTEX
  8
Default
 10
15.0187663601821
 20
186.514554053699
 42
0.0827612829105
  0
VERTEX
  8
Default
 10
36.2076413722048
 20
154.15511909966
 42
1.0183002032405
  0
VERTEX
  8
Default
 10
81.5184837837343
 20
191.92790050199
 42
0.0739001972228
  0
VERTEX
  8
Default
 10
74.9425229374755
 20
197.582563822553
 42
-0.1154841644512
  0
VERTEX
  8
Default
 10
74.9425229374755
 20
197.582563822553
 42
0.0698005019029
  0
VERTEX
  8
Default
 10
74.9425229374755
 20
197.582563822553
 42
-0.1404517183086
  0
VERTEX
  8
Default
 10
58.8947926864136
 20
232.367424937005
 42
-0.3138514648351
  0
VERTEX
  8
Default
 10
112.632690271886
 20
329.131458171173
 42
0.2269433204767
  0
VERTEX
  8
Default
 10
113.703334448335
 20
330.486056867334
 42
0.0
  0
VERTEX
  8
Default
 10
116.719836675541
 20
343.817715838902
 42
0.5032555571422
  0
VERTEX
  8
Default
 10
114.62591195924
 20
346.253954937044
 42
0.1867605499068
  0
VERTEX
  8
Default
 10
41.0921729848737
 20
311.550669241607
 42
0.2503887449045
  0
VERTEX
  8
Default
 10
10.0108572973918
 20
203.341113233834
 42
0.0458886978039
  0
VERTEX
  8
Default
 10
14.9924152606577
 20
186.577303393919
 42
0.0
  0
SEQEND
  0
POLYLINE
  8
Default
 66
     1
 10
0.0
 20
0.0
 30
0.0
 70
     1
  0
VERTEX
  8
Default
 10
108.116575531738
 20
191.717563113796
 42
0.0
  0
VERTEX
  8
Default
 10
104.570392182856
 20
189.857087787958
 42
0.0
  0
VERTEX
  8
Default
 10
100.853711493743
 20
196.941315667974
 42
0.0
  0
VERTEX
  8
Default
 10
104.350216664197
 20
198.77572775444
 42
-0.1286012318024
  0
VERTEX
  8
Default
 10
104.865405919231
 20
205.33399089401
 42
-0.5523136433095
  0
VERTEX
  8
Default
 10
126.306064838782
 20
210.294679192319
 42
0.0
  0
VERTEX
  8
Default
 10
130.035130297935
 20
212.251102082119
 42
0.0
  0
VERTEX
  8
Default
 10
133.751810987059
 20
205.166874202203
 42
0.0
  0
VERTEX
  8
Default
 10
129.973067349484
 20
203.184388073113
 42
-0.4066109288084
  0
VERTEX
  8
Default
 10
119.593760545341
 20
188.302385775849
 42
-0.2439878381833
  0
SEQEND
  0
POLYLINE
  8
Default
 66
     1
 10
0.0
 20
0.0
 30
0.0
 70
     1
  0
VERTEX
  8
Default
 10
164.84071168737
 20
332.625649450672
 42
0.3922447679682
  0
VERTEX
  8
Default
 10
82.2262925996293
 20
280.824094209906
 42
-0.0168304809838
  0
VERTEX
  8
Default
 10
82.1574021928205
 20
280.59883296347
 42
0.1854617880789
  0
VERTEX
  8
Default
 10
85.0985547685195
 20
199.626393303792
 42
-0.0079890794396
  0
VERTEX
  8
Default
 10
85.1407733774608
 20
199.522828016044
 42
0.0231192830367
  0
VERTEX
  8
Default
 10
89.5667503935389
 20
189.540552118935
 42
-0.0157129540402
  0
VERTEX
  8
Default
 10
89.6588601688942
 20
189.340843081097
 42
1.0161827471159
  0
VERTEX
  8
Default
 10
144.515761931841
 20
213.626492120273
 42
0.0672261290743
  0
VERTEX
  8
Default
 10
139.612195918248
 20
221.394134915234
 42
-0.0831122227015
  0
VERTEX
  8
Default
 10
139.612195918248
 20
221.394134915234
 42
0.0146694010016
  0
VERTEX
  8
Default
 10
139.612195918248
 20
221.394134915234
 42
0.0512729719823
  0
VERTEX
  8
Default
 10
139.612195918248
 20
221.394134915234
 42
-0.459585141946
  0
VERTEX
  8
Default
 10
162.712676664962
 20
321.476305638325
 42
0.0
  0
SEQEND
  0
POLYLINE
  8
Default
 66
     1
 10
0.0
 20
0.0
 30
0.0
 70
     1
  0
VERTEX
  8
Default
 10
196.976667535799
 20
161.133670081803
 42
0.0
  0
VERTEX
  8
Default
 10
194.083362455979
 20
158.364993412881
 42
0.0
  0
VERTEX
  8
Default
 10
188.552363486513
 20
164.144963170638
 42
0.0
  0
VERTEX
  8
Default
 10
191.405136503609
 20
166.874853685459
 42
-0.1286012318024
  0
VERTEX
  8
Default
 10
190.086403462073
 20
173.319788017282
 42
-0.5523136433095
  0
VERTEX
  8
Default
 10
209.318752582032
 20
184.016845118444
 42
0.0
  0
VERTEX
  8
Default
 10
212.36126983917
 20
186.928306686523
 42
0.0
  0
VERTEX
  8
Default
 10
217.89226880862
 20
181.148336928865
 42
0.0
  0
VERTEX
  8
Default
 10
214.809219488742
 20
178.198089206767
 42
-0.4066109288084
  0
VERTEX
  8
Default
 10
208.950706613392
 20
161.025965604845
 42
-0.2439878381833
  0
SEQEND
  0
POLYLINE
  8
Default
 66
     1
 10
0.0
 20
0.0
 30
0.0
 70
     1
  0
VERTEX
  8
Default
 10
159.018766360182
 20
186.514554053699
 42
0.0827612829105
  0
VERTEX
  8
Default
 10
180.207641372205
 20
154.15511909966
 42
1.0183002032405
  0
VERTEX
  8
Default
 10
225.518483783734
 20
191.92790050199
 42
0.0739001972228
  0
VERTEX
  8
Default
 10
218.942522937475
 20
197.582563822553
 42
-0.1154841644512
  0
VERTEX
  8
Default
 10
218.942522937475
 20
197.582563822553
 42
0.0698005019029
  0
VERTEX
  8
Default
 10
218.942522937475
 20
197.582563822553
 42
-0.1404517183086
  0
VERTEX
  8
Default
 10
202.894792686414
 20
232.367424937005
 42
-0.3138514648351
  0
VERTEX
  8
Default
 10
256.632690271886
 20
329.131458171173
 42
0.2269433204767
  0
VERTEX
  8
Default
 10
257.703334448335
 20
330.486056867334
 42
0.0
  0
VERTEX
  8
Default
 10
260.719836675541
 20
343.817715838902
 42
0.5032555571422
  0
VERTEX
  8
Default
 10
258.62591195924
 20
346.253954937044
 42
0.1867605499068
  0
VERTEX
  8
Default
 10
185.092172984874
 20
311.550669241607
 42
0.2503887449045
  0
VERTEX
  8
Default
 10
154.010857297392
 20
203.341113233834
 42
0.0458886978039
  0
VERTEX
  8
Default
 10
158.992415260658
 20
186.577303393919
 42
0.0
  0
SEQEND
  0
POLYLINE
  8
Default
 66
     1
 10
0.0
 20
0.0
 30
0.0
 70
     1
  0
VERTEX
  8
Default
 10
252.116575531738
 20
191.717563113796
 42
0.0
  0
VERTEX
  8
Default
 10
248.570392182856
 20
189.857087787958
 42
0.0
  0
VERTEX
  8
Default
 10
244.853711493743
 20
196.941315667974
 42
0.0
  0
VERTEX
  8
Default
 10
248.350216664197
 20
198.77572775444
 42
-0.1286012318024
  0
VERTEX
  8
Default
 10
248.865405919231
 20
205.33399089401
 42
-0.5523136433095
  0
VERTEX
  8
Default
 10
270.306064838782
 20
210.294679192319
 42
0.0
  0
VERTEX
  8
Default
 10
274.035130297935
 20
212.251102082119
 42
0.0
  0
VERTEX
  8
Default
 10
277.751810987059
 20
205.166874202203
 42
0.0
  0
VERTEX
  8
Default
 10
273.973067349485
 20
203.184388073113
 42
-0.4066109288084
  0
VERTEX
  8
Default
 10
263.593760545341
 20
188.302385775849
 42
-0.2439878381833
  0
SEQEND
  0
POLYLINE
  8
Default
 66
     1
 10
0.0
 20
0.0
 30
0.0
 70
     1
  0
VERTEX
  8
Default
 10
308.84071168737
 20
332.625649450672
 42
0.3922447679682
  0
VERTEX
  8
Default
 10
226.226292599629
 20
280.824094209906
 42
-0.0168304809838
  0
VERTEX
  8
Default
 10
226.157402192821
 20
280.59883296347
 42
0.1854617880789
  0
VERTEX
  8
Default
 10
229.098554768519
 20
199.626393303792
 42
-0.0079890794396
  0
VERTEX
  8
Default
 10
229.140773377461
 20
199.522828016044
 42
0.0231192830367
  0
VERTEX
  8
Default
 10
233.566750393539
 20
189.540552118935
 42
-0.0157129540402
  0
VERTEX
  8
Default
 10
233.658860168894
 20
189.340843081097
 42
1.0161827471159
  0
VERTEX
  8
Default
 10
288.515761931841
 20
213.626492120273
 42
0.0672261290743
  0
VERTEX
  8
Default
 10
283.612195918248
 20
221.394134915234
 42
-0.0831122227015
  0
VERTEX
  8
Default
 10
283.612195918248
 20
221.394134915234
 42
0.0146694010016
  0
VERTEX
  8
Default
 10
283.612195918248
 20
221.394134915234
 42
0.0512729719823
  0
VERTEX
  8
Default
 10
283.612195918248
 20
221.394134915234
 42
-0.459585141946
  0
VERTEX
  8
Default
 10
306.712676664962
 20
321.476305638325
 42
0.0
  0
SEQEND
  0
POLYLINE
  8
Default
 66
     1
 10
0.0
 20
0.0
 30
0.0
 70
     1
  0
VERTEX
  8
Default
 10
502.976667535799
 20
161.133670081803
 42
0.0
  0
VERTEX
  8
Default
 10
500.083362455979
 20
158.364993412881
 42
0.0
  0
VERTEX
  8
Default
 10
494.552363486513
 20
164.144963170638
 42
0.0
  0
VERTEX
  8
Default
 10
497.405136503609
 20
166.874853685459
 42
-0.1286012318024
  0
VERTEX
  8
Default
 10
496.086403462073
 20
173.319788017282
 42
-0.5523136433095
  0
VERTEX
  8
Default
 10
515.318752582032
 20
184.016845118444
 42
0.0
  0
VERTEX
  8
Default
 10
518.36126983917
 20
186.928306686523
 42
0.0
  0
VERTEX
  8
Default
 10
523.89226880862
 20
181.148336928865
 42
0.0
  0
VERTEX
  8
Default
 10
520.809219488742
 20
178.198089206767
 42
-0.4066109288084
  0
VERTEX
  8
Default
 10
514.950706613392
 20
161.025965604845
 42
-0.2439878381833
  0
SEQEND
  0
POLYLINE
  8
Default
 66
     1
 10
0.0
 20
0.0
 30
0.0
 70
     1
  0
VERTEX
  8
Default
 10
465.018766360182
 20
186.514554053699
 42
0.0827612829105
  0
VERTEX
  8
Default
 10
486.207641372205
 20
154.15511909966
 42
1.0183002032405
  0
VERTEX
  8
Default
 10
531.518483783734
 20
191.92790050199
 42
0.0739001972228
  0
VERTEX
  8
Default
 10
524.942522937475
 20
197.582563822553
 42
-0.1154841644512
  0
VERTEX
  8
Default
 10
524.942522937475
 20
197.582563822553
 42
0.0698005019029
  0
VERTEX
  8
Default
 10
524.942522937475
 20
197.582563822553
 42
-0.1404517183086
  0
VERTEX
  8
Default
 10
508.894792686414
 20
232.367424937005
 42
-0.3138514648351
  0
VERTEX
  8
Default
 10
562.632690271886
 20
329.131458171173
 42
0.2269433204767
  0
VERTEX
  8
Default
 10
563.703334448335
 20
330.486056867334
 42
0.0
  0
VERTEX
  8
Default
 10
566.719836675541
 20
343.817715838902
 42
0.5032555571422
  0
VERTEX
  8
Default
 10
564.62591195924
 20
346.253954937044
 42
0.1867605499068
  0
VERTEX
  8
Default
 10
491.092172984874
 20
311.550669241607
 42
0.2503887449045
  0
VERTEX
  8
Default
 10
460.010857297392
 20
203.341113233834
 42
0.0458886978039
  0
VERTEX
  8
Default
 10
464.992415260658
 20
186.577303393919
 42
0.0
  0
SEQEND
  0
POLYLINE
  8
Default
 66
     1
 10
0.0
 20
0.0
 30
0.0
 70
     1
  0
VERTEX
  8
Default
 10
558.116575531738
 20
191.717563113796
 42
0.0
  0
VERTEX
  8
Default
 10
554.570392182856
 20
189.857087787958
 42
0.0
  0
VERTEX
  8
Default
 10
550.853711493743
 20
196.941315667974
 42
0.0
  0
VERTEX
  8
Default
 10
554.350216664197
 20
198.77572775444
 42
-0.1286012318024
  0
VERTEX
  8
Default
 10
554.865405919231
 20
205.33399089401
 42
-0.5523136433095
  0
VERTEX
  8
Default
 10
576.306064838783
 20
210.294679192319
 42
0.0
  0
VERTEX
  8
Default
 10
580.035130297935
 20
212.251102082119
 42
0.0
  0
VERTEX
  8
Default
 10
583.751810987059
 20
205.166874202203
 42
0.0
  0
VERTEX
  8
Default
 10
579.973067349485
 20
203.184388073113
 42
-0.4066109288084
  0
VERTEX
  8
Default
 10
569.593760545341
 20
188.302385775849
 42
-0.2439878381833
  0
SEQEND
  0
POLYLINE
  8
Default
 66
     1
 10
0.0
 20
0.0
 30
0.0
 70
     1
  0
VERTEX
  8
Default
 10
614.84071168737
 20
332.625649450672
 42
0.3922447679682
  0
VERTEX
  8
Default
 10
532.226292599629
 20
280.824094209906
 42
-0.0168304809838
  0
VERTEX
  8
Default
 10
532.157402192821
 20
280.59883296347
 42
0.1854617880789
  0
VERTEX
  8
Default
 10
535.09855476852
 20
199.626393303792
 42
-0.0079890794396
  0
VERTEX
  8
Default
 10
535.140773377461
 20
199.522828016044
 42
0.0231192830367
  0
VERTEX
  8
Default
 10
539.566750393539
 20
189.540552118935
 42
-0.0157129540402
  0
VERTEX
  8
Default
 10
539.658860168894
 20
189.340843081097
 42
1.0161827471159
  0
VERTEX
  8
Default
 10
594.515761931841
 20
213.626492120273
 42
0.0672261290743
  0
VERTEX
  8
Default
 10
589.612195918248
 20
221.394134915234
 42
-0.0831122227015
  0
VERTEX
  8
Default
 10
589.612195918248
 20
221.394134915234
 42
0.0146694010016
  0
VERTEX
  8
Default
 10
589.612195918248
 20
221.394134915234
 42
0.0512729719823
  0
VERTEX
  8
Default
 10
589.612195918248
 20
221.394134915234
 42
-0.459585141946
  0
VERTEX
  8
Default
 10
612.712676664962
 20
321.476305638325
 42
0.0
  0
SEQEND
  0
POLYLINE
  8
Default
 66
     1
 10
0.0
 20
0.0
 30
0.0
 70
     1
  0
VERTEX
  8
Default
 10
646.976667535799
 20
161.133670081803
 42
0.0
  0
VERTEX
  8
Default
 10
644.083362455979
 20
158.364993412881
 42
0.0
  0
VERTEX
  8
Default
 10
638.552363486513
 20
164.144963170638
 42
0.0
  0
VERTEX
  8
Default
 10
641.405136503609
 20
166.874853685459
 42
-0.1286012318024
  0
VERTEX
  8
Default
 10
640.086403462073
 20
173.319788017282
 42
-0.5523136433095
  0
VERTEX
  8
Default
 10
659.318752582032
 20
184.016845118444
 42
0.0
  0
VERTEX
  8
Default
 10
662.36126983917
 20
186.928306686523
 42
0.0
  0
VERTEX
  8
Default
 10
667.89226880862
 20
181.148336928865
 42
0.0
  0
VERTEX
  8
Default
 10
664.809219488742
 20
178.198089206767
 42
-0.4066109288084
  0
VERTEX
  8
Default
 10
658.950706613392
 20
161.025965604845
 42
-0.2439878381833
  0
SEQEND
  0
POLYLINE
  8
Default
 66
     1
 10
0.0
 20
0.0
 30
0.0
 70
     1
  0
VERTEX
  8
Default
 10
609.018766360182
 20
186.514554053699
 42
0.0827612829105
  0
VERTEX
  8
Default
 10
630.207641372205
 20
154.15511909966
 42
1.0183002032405
  0
VERTEX
  8
Default
 10
675.518483783734
 20
191.92790050199
 42
0.0739001972228
  0
VERTEX
  8
Default
 10
668.942522937475
 20
197.582563822553
 42
-0.1154841644512
  0
VERTEX
  8
Default
 10
668.942522937475
 20
197.582563822553
 42
0.0698005019029
  0
VERTEX
  8
Default
 10
668.942522937475
 20
197.582563822553
 42
-0.1404517183086
  0
VERTEX
  8
Default
 10
652.894792686414
 20
232.367424937005
 42
-0.3138514648351
  0
VERTEX
  8
Default
 10
706.632690271886
 20
329.131458171173
 42
0.2269433204767
  0
VERTEX
  8
Default
 10
707.703334448335
 20
330.486056867334
 42
0.0
  0
VERTEX
  8
Default
 10
710.719836675541
 20
343.817715838902
 42
0.5032555571422
  0
VERTEX
  8
Default
 10
708.62591195924
 20
346.253954937044
 42
0.1867605499068
  0
VERTEX
  8
Default
 10
635.092172984874
 20
311.550669241607
 42
0.2503887449045
  0
VERTEX
  8
Default
 10
604.010857297392
 20
203.341113233834
 42
0.0458886978039
  0
VERTEX
  8
Default
 10
608.992415260658
 20
186.577303393919
 42
0.0
  0
SEQEND
  0
POLYLINE
  8
Default
 66
     1
 10
0.0
 20
0.0
 30
0.0
 70
     1
  0
VERTEX
  8
Default
 10
702.116575531738
 20
191.717563113796
 42
0.0
  0
VERTEX
  8
Default
 10
698.570392182856
 20
189.857087787958
 42
0.0
  0
VERTEX
  8
Default
 10
694.853711493743
 20
196.941315667974
 42
0.0
  0
VERTEX
  8
Default
 10
698.350216664197
 20
198.77572775444
 42
-0.1286012318024
  0
VERTEX
  8
Default
 10
698.865405919231
 20
205.33399089401
 42
-0.5523136433095
  0
VERTEX
  8
Default
 10
720.306064838783
 20
210.294679192319
 42
0.0
  0
VERTEX
  8
Default
 10
724.035130297935
 20
212.251102082119
 42
0.0
  0
VERTEX
  8
Default
 10
727.751810987059
 20
205.166874202203
 42
0.0
  0
VERTEX
  8
Default
 10
723.973067349485
 20
203.184388073113
 42
-0.4066109288084
  0
VERTEX
  8
Default
 10
713.593760545341
 20
188.302385775849
 42
-0.2439878381833
  0
SEQEND
  0
POLYLINE
  8
Default
 66
     1
 10
0.0
 20
0.0
 30
0.0
 70
     1
  0
VERTEX
  8
Default
 10
758.84071168737
 20
332.625649450672
 42
0.3922447679682
  0
VERTEX
  8
Default
 10
676.226292599629
 20
280.824094209906
 42
-0.0168304809838
  0
VERTEX
  8
Default
 10
676.157402192821
 20
280.59883296347
 42
0.1854617880789
  0
VERTEX
  8
Default
 10
679.09855476852
 20
199.626393303792
 42
-0.0079890794396
  0
VERTEX
  8
Default
 10
679.140773377461
 20
199.522828016044
 42
0.0231192830367
  0
VERTEX
  8
Default
 10
683.566750393539
 20
189.540552118935
 42
-0.0157129540402
  0
VERTEX
  8
Default
 10
683.658860168894
 20
189.340843081097
 42
1.0161827471159
  0
VERTEX
  8
Default
 10
738.515761931841
 20
213.626492120273
 42
0.0672261290743
  0
VERTEX
  8
Default
 10
733.612195918248
 20
221.394134915234
 42
-0.0831122227015
  0
VERTEX
  8
Default
 10
733.612195918248
 20
221.394134915234
 42
0.0146694010016
  0
VERTEX
  8
Default
 10
733.612195918248
 20
221.394134915234
 42
0.0512729719823
  0
VERTEX
  8
Default
 10
733.612195918248
 20
221.394134915234
 42
-0.459585141946
  0
VERTEX
  8
Default
 10
756.712676664962
 20
321.476305638325
 42
0.0
  0
SEQEND
  0
POLYLINE
  8
Default
 66
     1
 10
0.0
 20
0.0
 30
0.0
 70
     1
  0
VERTEX
  8
Default
 10
789.976667535799
 20
161.133670081803
 42
0.0
  0
VERTEX
  8
Default
 10
787.083362455979
 20
158.364993412881
 42
0.0
  0
VERTEX
  8
Default
 10
781.552363486513
 20
164.144963170638
 42
0.0
  0
VERTEX
  8
Default
 10
784.405136503609
 20
166.874853685459
 42
-0.1286012318024
  0
VERTEX
  8
Default
 10
783.086403462073
 20
173.319788017282
 42
-0.5523136433095
  0
VERTEX
  8
Default
 10
802.318752582032
 20
184.016845118444
 42
0.0
  0
VERTEX
  8
Default
 10
805.36126983917
 20
186.928306686523
 42
0.0
  0
VERTEX
  8
Default
 10
810.89226880862
 20
181.148336928865
 42
0.0
  0
VERTEX
  8
Default
 10
807.809219488742
 20
178.198089206767
 42
-0.4066109288084
  0
VERTEX
  8
Default
 10
801.950706613392
 20
161.025965604845
 42
-0.2439878381833
  0
SEQEND
  0
POLYLINE
  8
Default
 66
     1
 10
0.0
 20
0.0
 30
0.0
 70
     1
  0
VERTEX
  8
Default
 10
752.018766360182
 20
186.514554053699
 42
0.0827612829105
  0
VERTEX
  8
Default
 10
773.207641372205
 20
154.15511909966
 42
1.0183002032405
  0
VERTEX
  8
Default
 10
818.518483783734
 20
191.92790050199
 42
0.0739001972228
  0
VERTEX
  8
Default
 10
811.942522937475
 20
197.582563822553
 42
-0.1154841644512
  0
VERTEX
  8
Default
 10
811.942522937475
 20
197.582563822553
 42
0.0698005019029
  0
VERTEX
  8
Default
 10
811.942522937475
 20
197.582563822553
 42
-0.1404517183086
  0
VERTEX
  8
Default
 10
795.894792686414
 20
232.367424937005
 42
-0.3138514648351
  0
VERTEX
  8
Default
 10
849.632690271886
 20
329.131458171173
 42
0.2269433204767
  0
VERTEX
  8
Default
 10
850.703334448335
 20
330.486056867334
 42
0.0
  0
VERTEX
  8
Default
 10
853.719836675541
 20
343.817715838902
 42
0.5032555571422
  0
VERTEX
  8
Default
 10
851.62591195924
 20
346.253954937044
 42
0.1867605499068
  0
VERTEX
  8
Default
 10
778.092172984874
 20
311.550669241607
 42
0.2503887449045
  0
VERTEX
  8
Default
 10
747.010857297392
 20
203.341113233834
 42
0.0458886978039
  0
VERTEX
  8
Default
 10
751.992415260658
 20
186.577303393919
 42
0.0
  0
SEQEND
  0
POLYLINE
  8
Default
 66
     1
 10
0.0
 20
0.0
 30
0.0
 70
     1
  0
VERTEX
  8
Default
 10
346.976667535799
 20
161.133670081803
 42
0.0
  0
VERTEX
  8
Default
 10
344.083362455979
 20
158.364993412881
 42
0.0
  0
VERTEX
  8
Default
 10
338.552363486513
 20
164.144963170638
 42
0.0
  0
VERTEX
  8
Default
 10
341.405136503609
 20
166.874853685459
 42
-0.1286012318024
  0
VERTEX
  8
Default
 10
340.086403462073
 20
173.319788017282
 42
-0.5523136433095
  0
VERTEX
  8
Default
 10
359.318752582032
 20
184.016845118444
 42
0.0
  0
VERTEX
  8
Default
 10
362.36126983917
 20
186.928306686523
 42
0.0
  0
VERTEX
  8
Default
 10
367.89226880862
 20
181.148336928865
 42
0.0
  0
VERTEX
  8
Default
 10
364.809219488742
 20
178.198089206767
 42
-0.4066109288084
  0
VERTEX
  8
Default
 10
358.950706613392
 20
161.025965604845
 42
-0.2439878381833
  0
SEQEND
  0
POLYLINE
  8
Default
 66
     1
 10
0.0
 20
0.0
 30
0.0
 70
     1
  0
VERTEX
  8
Default
 10
402.116575531738
 20
191.717563113796
 42
0.0
  0
VERTEX
  8
Default
 10
398.570392182856
 20
189.857087787958
 42
0.0
  0
VERTEX
  8
Default
 10
394.853711493743
 20
196.941315667974
 42
0.0
  0
VERTEX
  8
Default
 10
398.350216664197
 20
198.77572775444
 42
-0.1286012318024
  0
VERTEX
  8
Default
 10
398.865405919231
 20
205.33399089401
 42
-0.5523136433095
  0
VERTEX
  8
Default
 10
420.306064838782
 20
210.294679192319
 42
0.0
  0
VERTEX
  8
Default
 10
424.035130297935
 20
212.251102082119
 42
0.0
  0
VERTEX
  8
Default
 10
427.751810987059
 20
205.166874202203
 42
0.0
  0
VERTEX
  8
Default
 10
423.973067349485
 20
203.184388073113
 42
-0.4066109288084
  0
VERTEX
  8
Default
 10
413.593760545341
 20
188.302385775849
 42
-0.2439878381833
  0
SEQEND
  0
POLYLINE
  8
Default
 66
     1
 10
0.0
 20
0.0
 30
0.0
 70
     1
  0
VERTEX
  8
Default
 10
458.84071168737
 20
332.625649450672
 42
0.3922447679682
  0
VERTEX
  8
Default
 10
376.226292599629
 20
280.824094209906
 42
-0.0168304809838
  0
VERTEX
  8
Default
 10
376.157402192821
 20
280.59883296347
 42
0.1854617880789
  0
VERTEX
  8
Default
 10
379.098554768519
 20
199.626393303792
 42
-0.0079890794396
  0
VERTEX
  8
Default
 10
379.140773377461
 20
199.522828016044
 42
0.0231192830367
  0
VERTEX
  8
Default
 10
383.566750393539
 20
189.540552118935
 42
-0.0157129540402
  0
VERTEX
  8
Default
 10
383.658860168894
 20
189.340843081097
 42
1.0161827471159
  0
VERTEX
  8
Default
 10
438.515761931841
 20
213.626492120273
 42
0.0672261290743
  0
VERTEX
  8
Default
 10
433.612195918248
 20
221.394134915234
 42
-0.0831122227015
  0
VERTEX
  8
Default
 10
433.612195918248
 20
221.394134915234
 42
0.0146694010016
  0
VERTEX
  8
Default
 10
433.612195918248
 20
221.394134915234
 42
0.0512729719823
  0
VERTEX
  8
Default
 10
433.612195918248
 20
221.394134915234
 42
-0.459585141946
  0
VERTEX
  8
Default
 10
456.712676664962
 20
321.476305638325
 42
0.0
  0
SEQEND
  0
POLYLINE
  8
Default
 66
     1
 10
0.0
 20
0.0
 30
0.0
 70
     1
  0
VERTEX
  8
Default
 10
309.018766360182
 20
186.514554053699
 42
0.0827612829105
  0
VERTEX
  8
Default
 10
330.207641372205
 20
154.15511909966
 42
1.0183002032405
  0
VERTEX
  8
Default
 10
375.518483783734
 20
191.92790050199
 42
0.0739001972228
  0
VERTEX
  8
Default
 10
368.942522937475
 20
197.582563822553
 42
-0.1154841644512
  0
VERTEX
  8
Default
 10
368.942522937475
 20
197.582563822553
 42
0.0698005019029
  0
VERTEX
  8
Default
 10
368.942522937475
 20
197.582563822553
 42
-0.1404517183086
  0
VERTEX
  8
Default
 10
352.894792686414
 20
232.367424937005
 42
-0.3138514648351
  0
VERTEX
  8
Default
 10
406.632690271886
 20
329.131458171173
 42
0.2269433204767
  0
VERTEX
  8
Default
 10
407.703334448335
 20
330.486056867334
 42
0.0
  0
VERTEX
  8
Default
 10
410.719836675541
 20
343.817715838902
 42
0.5032555571422
  0
VERTEX
  8
Default
 10
408.62591195924
 20
346.253954937044
 42
0.1867605499068
  0
VERTEX
  8
Default
 10
335.092172984874
 20
311.550669241607
 42
0.2503887449045
  0
VERTEX
  8
Default
 10
304.010857297392
 20
203.341113233834
 42
0.0458886978039
  0
VERTEX
  8
Default
 10
308.992415260658
 20
186.577303393919
 42
0.0
  0
SEQEND
  0
POLYLINE
  8
Default
 66
     1
 10
0.0
 20
0.0
 30
0.0
 70
     1
  0
VERTEX
  8
Default
 10
194.061787957616
 20
83.7712655749822
 42
0.0
  0
VERTEX
  8
Default
 10
197.380794315629
 20
81.5305108857282
 42
0.0
  0
VERTEX
  8
Default
 10
192.904427675661
 20
74.9001155954451
 42
0.0
  0
VERTEX
  8
Default
 10
189.631916993164
 20
77.109479744453
 42
-0.1286012318024
  0
VERTEX
  8
Default
 10
183.61290971026
 20
74.4547129553167
 42
-0.5523136433095
  0
VERTEX
  8
Default
 10
169.082612990302
 20
90.9828937544097
 42
0.0
  0
VERTEX
  8
Default
 10
165.592440387617
 20
93.3392075972254
 42
0.0
  0
VERTEX
  8
Default
 10
170.068807027492
 20
99.9696028874711
 42
0.0
  0
VERTEX
  8
Default
 10
173.605475305616
 20
97.5818985043753
 42
-0.4066109288084
  0
VERTEX
  8
Default
 10
191.629165672488
 20
95.4960922647026
 42
-0.2439878381833
  0
SEQEND
  0
POLYLINE
  8
Default
 66
     1
 10
0.0
 20
0.0
 30
0.0
 70
     1
  0
VERTEX
  8
Default
 10
177.302657326606
 20
41.2962956121262
 42
0.0827612829105
  0
VERTEX
  8
Default
 10
204.435962275959
 20
68.8623112354481
 42
1.0183002032405
  0
VERTEX
  8
Default
 10
157.917781215666
 20
105.137844115785
 42
0.0739001972228
  0
VERTEX
  8
Default
 10
153.785352273494
 20
97.5127861252934
 42
-0.1154841644512
  0
VERTEX
  8
Default
 10
153.785352273494
 20
97.5127861252934
 42
0.0698005019029
  0
VERTEX
  8
Default
 10
153.785352273494
 20
97.5127861252934
 42
-0.1404517183086
  0
VERTEX
  8
Default
 10
123.192066825733
 20
74.4570472632582
 42
-0.3138514648351
  0
VERTEX
  8
Default
 10
17.2367641941274
 20
106.465071396196
 42
0.2269433204767
  0
VERTEX
  8
Default
 10
15.6860194080382
 20
107.224286246302
 42
0.0
  0
VERTEX
  8
Default
 10
2.0179014524269
 20
107.346630728917
 42
0.5032555571422
  0
VERTEX
  8
Default
 10
0.0808159119075
 20
104.783920977587
 42
0.1867605499068
  0
VERTEX
  8
Default
 10
49.5810386778753
 20
40.2761171727067
 42
0.2503887449045
  0
VERTEX
  8
Default
 10
161.919802443499
 20
32.8357978330924
 42
0.0458886978039
  0
VERTEX
  8
Default
 10
177.246918675542
 20
41.2572435581257
 42
0.0
  0
SEQEND
  0
POLYLINE
  8
Default
 66
     1
 10
0.0
 20
0.0
 30
0.0
 70
     1
  0
VERTEX
  8
Default
 10
152.485913854587
 20
131.176230076204
 42
0.0
  0
VERTEX
  8
Default
 10
155.055729027257
 20
128.104938041855
 42
0.0
  0
VERTEX
  8
Default
 10
148.920193856922
 20
122.971205659425
 42
0.0
  0
VERTEX
  8
Default
 10
146.386379004707
 20
125.999472227063
 42
-0.1286012318024
  0
VERTEX
  8
Default
 10
139.867920541993
 20
125.112942675265
 42
-0.5523136433095
  0
VERTEX
  8
Default
 10
130.475619121233
 20
145.015077166799
 42
0.0
  0
VERTEX
  8
Default
 10
127.773274641548
 20
148.244760438499
 42
0.0
  0
VERTEX
  8
Default
 10
133.908809811783
 20
153.378492820918
 42
0.0
  0
VERTEX
  8
Default
 10
136.647154611841
 20
150.105784082496
 42
-0.4066109288084
  0
VERTEX
  8
Default
 10
153.390928883857
 20
143.116504775007
 42
-0.2439878381833
  0
SEQEND
  0
POLYLINE
  8
Default
 66
     1
 10
0.0
 20
0.0
 30
0.0
 70
     1
  0
VERTEX
  8
Default
 10
2.756545397231
 20
156.746381407088
 42
0.3922447679682
  0
VERTEX
  8
Default
 10
70.8912159386535
 20
86.9881558220092
 42
-0.0168304809838
  0
VERTEX
  8
Default
 10
71.1259606566934
 20
86.9685743346125
 42
0.1854617880789
  0
VERTEX
  8
Default
 10
149.635401026116
 20
107.004894750143
 42
-0.0079890794396
  0
VERTEX
  8
Default
 10
149.727665225322
 20
107.068104696451
 42
0.0231192830367
  0
VERTEX
  8
Default
 10
158.545072872768
 20
113.50925575908
 42
-0.0157129540402
  0
VERTEX
  8
Default
 10
158.720722157508
 20
113.641600911165
 42
1.0161827471159
  0
VERTEX
  8
Default
 10
123.359983941997
 20
162.10489230927
 42
0.0672261290743
  0
VERTEX
  8
Default
 10
116.808119056708
 20
155.666390871459
 42
-0.0831122227015
  0
VERTEX
  8
Default
 10
116.808119056708
 20
155.666390871459
 42
0.0146694010016
  0
VERTEX
  8
Default
 10
116.808119056708
 20
155.666390871459
 42
0.0512729719823
  0
VERTEX
  8
Default
 10
116.808119056708
 20
155.666390871459
 42
-0.459585141946
  0
VERTEX
  8
Default
 10
14.1036192708198
 20
157.02978043641
 42
0.0
  0
SEQEND
  0
POLYLINE
  8
Default
 66
     1
 10
0.0
 20
0.0
 30
0.0
 70
     1
  0
VERTEX
  8
Default
 10
405.741374920129
 20
40.9668198759813
 42
0.0
  0
VERTEX
  8
Default
 10
408.294575633357
 20
37.8817022283196
 42
0.0
  0
VERTEX
  8
Default
 10
402.131420967455
 20
32.7811606330575
 42
0.0
  0
VERTEX
  8
Default
 10
399.613987824145
 20
35.8230591321765
 42
-0.1286012318024
  0
VERTEX
  8
Default
 10
393.090839345292
 20
34.9717252968393
 42
-0.5523136433095
  0
VERTEX
  8
Default
 10
383.806094745096
 20
54.9242640076563
 42
0.0
  0
VERTEX
  8
Default
 10
381.12122155799
 20
58.1684859007359
 42
0.0
  0
VERTEX
  8
Default
 10
387.284376223792
 20
63.2690274959885
 42
0.0
  0
VERTEX
  8
Default
 10
390.005016980733
 20
59.9815864543551
 42
-0.4066109288084
  0
VERTEX
  8
Default
 10
406.710823343692
 20
52.9020359125738
 42
-0.2439878381833
  0
SEQEND
  0
POLYLINE
  8
Default
 66
     1
 10
0.0
 20
0.0
 30
0.0
 70
     1
  0
VERTEX
  8
Default
 10
377.693718836047
 20
4.9346048310821
 42
0.0827612829105
  0
VERTEX
  8
Default
 10
411.494599042888
 20
23.7389115734919
 42
1.0183002032405
  0
VERTEX
  8
Default
 10
377.081801678396
 20
71.6514864621483
 42
0.0739001972228
  0
VERTEX
  8
Default
 10
370.968400432409
 20
65.4996734345917
 42
-0.1154841644512
  0
VERTEX
  8
Default
 10
370.968400432409
 20
65.4996734345917
 42
0.0698005019029
  0
VERTEX
  8
Default
 10
370.968400432409
 20
65.4996734345917
 42
-0.1404517183086
  0
VERTEX
  8
Default
 10
335.11850367623
 20
51.9977805475226
 42
-0.3138514648351
  0
VERTEX
  8
Default
 10
242.474192674798
 20
112.562385753203
 42
0.2269433204767
  0
VERTEX
  8
Default
 10
241.200185560962
 20
113.727770862983
 42
0.0
  0
VERTEX
  8
Default
 10
228.120279621444
 20
117.696205974497
 42
0.5032555571422
  0
VERTEX
  8
Default
 10
225.539618085226
 20
115.783101770242
 42
0.1867605499068
  0
VERTEX
  8
Default
 10
254.859088825681
 20
39.941837005544
 42
0.2503887449045
  0
VERTEX
  8
Default
 10
360.550295341171
 20
1.1510512238115
 42
0.0458886978039
  0
VERTEX
  8
Default
 10
377.629235270024
 20
4.9128394949469
 42
0.0
  0
SEQEND
  0
POLYLINE
  8
Default
 66
     1
 10
0.0
 20
0.0
 30
0.0
 70
     1
  0
VERTEX
  8
Default
 10
379.206417327857
 20
98.1654211907805
 42
0.0
  0
VERTEX
  8
Default
 10
380.806771847423
 20
94.494501661065
 42
0.0
  0
VERTEX
  8
Default
 10
373.473357886788
 20
91.2974655832612
 42
0.0
  0
VERTEX
  8
Default
 10
371.895422596526
 20
94.9169595160819
 42
-0.1286012318024
  0
VERTEX
  8
Default
 10
365.391265322061
 20
95.9029481191531
 42
-0.5523136433095
  0
VERTEX
  8
Default
 10
361.986983748569
 20
117.645099582748
 42
0.0
  0
VERTEX
  8
Default
 10
360.304096493687
 20
121.505334058753
 42
0.0
  0
VERTEX
  8
Default
 10
367.637510454224
 20
124.702370136575
 42
0.0
  0
VERTEX
  8
Default
 10
369.342816938327
 20
120.790710063688
 42
-0.4066109288084
  0
VERTEX
  8
Default
 10
383.438987608794
 20
109.366963981977
 42
-0.2439878381833
  0
SEQEND
  0
POLYLINE
  8
Default
 66
     1
 10
0.0
 20
0.0
 30
0.0
 70
     1
  0
VERTEX
  8
Default
 10
242.747577094824
 20
164.886492375067
 42
0.3922447679682
  0
VERTEX
  8
Default
 10
288.46722463313
 20
78.7571872835949
 42
-0.0168304809838
  0
VERTEX
  8
Default
 10
288.68694189823
 20
78.6722588389279
 42
0.1854617880789
  0
VERTEX
  8
Default
 10
369.66101731235
 20
75.7764905916179
 42
-0.0079890794396
  0
VERTEX
  8
Default
 10
369.767353238276
 20
75.8111438833042
 42
0.0231192830367
  0
VERTEX
  8
Default
 10
380.042358564726
 20
79.5070023998427
 42
-0.0157129540402
  0
VERTEX
  8
Default
 10
380.248180491054
 20
79.5844959166881
 42
1.0161827471159
  0
VERTEX
  8
Default
 10
359.974750798472
 20
136.047408246673
 42
0.0672261290743
  0
VERTEX
  8
Default
 10
351.874250096271
 20
131.715766223904
 42
-0.0831122227015
  0
VERTEX
  8
Default
 10
351.874250096271
 20
131.715766223904
 42
0.0146694010016
  0
VERTEX
  8
Default
 10
351.874250096271
 20
131.715766223904
 42
0.0512729719823
  0
VERTEX
  8
Default
 10
351.874250096271
 20
131.715766223904
 42
-0.459585141946
  0
VERTEX
  8
Default
 10
253.714792042445
 20
161.96132626095
 42
0.0
  0
SEQEND
  0
POLYLINE
  8
Default
 66
     1
 10
0.0
 20
0.0
 30
0.0
 70
     1
  0
VERTEX
  8
Default
 10
595.741374920129
 20
43.9668198759813
 42
0.0
  0
VERTEX
  8
Default
 10
598.294575633357
 20
40.8817022283196
 42
0.0
  0
VERTEX
  8
Default
 10
592.131420967455
 20
35.7811606330575
 42
0.0
  0
VERTEX
  8
Default
 10
589.613987824145
 20
38.8230591321765
 42
-0.1286012318024
  0
VERTEX
  8
Default
 10
583.090839345292
 20
37.9717252968393
 42
-0.5523136433095
  0
VERTEX
  8
Default
 10
573.806094745096
 20
57.9242640076563
 42
0.0
  0
VERTEX
  8
Default
 10
571.12122155799
 20
61.1684859007359
 42
0.0
  0
VERTEX
  8
Default
 10
577.284376223792
 20
66.2690274959885
 42
0.0
  0
VERTEX
  8
Default
 10
580.005016980733
 20
62.9815864543551
 42
-0.4066109288084
  0
VERTEX
  8
Default
 10
596.710823343692
 20
55.9020359125738
 42
-0.2439878381833
  0
SEQEND
  0
POLYLINE
  8
Default
 66
     1
 10
0.0
 20
0.0
 30
0.0
 70
     1
  0
VERTEX
  8
Default
 10
567.693718836047
 20
7.9346048310821
 42
0.0827612829105
  0
VERTEX
  8
Default
 10
601.494599042888
 20
26.7389115734919
 42
1.0183002032405
  0
VERTEX
  8
Default
 10
567.081801678396
 20
74.6514864621483
 42
0.0739001972228
  0
VERTEX
  8
Default
 10
560.968400432409
 20
68.4996734345917
 42
-0.1154841644512
  0
VERTEX
  8
Default
 10
560.968400432409
 20
68.4996734345917
 42
0.0698005019029
  0
VERTEX
  8
Default
 10
560.968400432409
 20
68.4996734345917
 42
-0.1404517183086
  0
VERTEX
  8
Default
 10
525.11850367623
 20
54.9977805475226
 42
-0.3138514648351
  0
VERTEX
  8
Default
 10
432.474192674798
 20
115.562385753203
 42
0.2269433204767
  0
VERTEX
  8
Default
 10
431.200185560962
 20
116.727770862983
 42
0.0
  0
VERTEX
  8
Default
 10
418.120279621444
 20
120.696205974497
 42
0.5032555571422
  0
VERTEX
  8
Default
 10
415.539618085226
 20
118.783101770242
 42
0.1867605499068
  0
VERTEX
  8
Default
 10
444.859088825681
 20
42.941837005544
 42
0.2503887449045
  0
VERTEX
  8
Default
 10
550.550295341171
 20
4.1510512238115
 42
0.0458886978039
  0
VERTEX
  8
Default
 10
567.629235270024
 20
7.9128394949469
 42
0.0
  0
SEQEND
  0
POLYLINE
  8
Default
 66
     1
 10
0.0
 20
0.0
 30
0.0
 70
     1
  0
VERTEX
  8
Default
 10
569.206417327857
 20
101.165421190781
 42
0.0
  0
VERTEX
  8
Default
 10
570.806771847423
 20
97.494501661065
 42
0.0
  0
VERTEX
  8
Default
 10
563.473357886788
 20
94.2974655832612
 42
0.0
  0
VERTEX
  8
Default
 10
561.895422596525
 20
97.9169595160819
 42
-0.1286012318024
  0
VERTEX
  8
Default
 10
555.391265322061
 20
98.9029481191531
 42
-0.5523136433095
  0
VERTEX
  8
Default
 10
551.986983748569
 20
120.645099582748
 42
0.0
  0
VERTEX
  8
Default
 10
550.304096493687
 20
124.505334058753
 42
0.0
  0
VERTEX
  8
Default
 10
557.637510454224
 20
127.702370136575
 42
0.0
  0
VERTEX
  8
Default
 10
559.342816938327
 20
123.790710063688
 42
-0.4066109288084
  0
VERTEX
  8
Default
 10
573.438987608794
 20
112.366963981977
 42
-0.2439878381833
  0
SEQEND
  0
POLYLINE
  8
Default
 66
     1
 10
0.0
 20
0.0
 30
0.0
 70
     1
  0
VERTEX
  8
Default
 10
432.747577094824
 20
167.886492375067
 42
0.3922447679682
  0
VERTEX
  8
Default
 10
478.46722463313
 20
81.7571872835949
 42
-0.0168304809838
  0
VERTEX
  8
Default
 10
478.68694189823
 20
81.6722588389279
 42
0.1854617880789
  0
VERTEX
  8
Default
 10
559.66101731235
 20
78.7764905916179
 42
-0.0079890794396
  0
VERTEX
  8
Default
 10
559.767353238276
 20
78.8111438833042
 42
0.0231192830367
  0
VERTEX
  8
Default
 10
570.042358564726
 20
82.5070023998427
 42
-0.0157129540402
  0
VERTEX
  8
Default
 10
570.248180491054
 20
82.5844959166881
 42
1.0161827471159
  0
VERTEX
  8
Default
 10
549.974750798472
 20
139.047408246673
 42
0.0672261290743
  0
VERTEX
  8
Default
 10
541.874250096271
 20
134.715766223904
 42
-0.0831122227015
  0
VERTEX
  8
Default
 10
541.874250096271
 20
134.715766223904
 42
0.0146694010016
  0
VERTEX
  8
Default
 10
541.874250096271
 20
134.715766223904
 42
0.0512729719823
  0
VERTEX
  8
Default
 10
541.874250096271
 20
134.715766223904
 42
-0.459585141946
  0
VERTEX
  8
Default
 10
443.714792042445
 20
164.96132626095
 42
0.0
  0
SEQEND
  0
POLYLINE
  8
Default
 66
     1
 10
0.0
 20
0.0
 30
0.0
 70
     1
  0
VERTEX
  8
Default
 10
809.976893819001
 20
101.660748088276
 42
0.0
  0
VERTEX
  8
Default
 10
813.909941770903
 20
100.907144352893
 42
0.0
  0
VERTEX
  8
Default
 10
812.404463890075
 20
93.0500751568659
 42
0.0
  0
VERTEX
  8
Default
 10
808.526513669699
 20
93.7931217222079
 42
-0.1286012318024
  0
VERTEX
  8
Default
 10
804.038168627184
 20
88.9836525045412
 42
-0.5523136433095
  0
VERTEX
  8
Default
 10
784.175431055239
 20
98.458985714806
 42
0.0
  0
VERTEX
  8
Default
 10
780.039549792572
 20
99.2514539498155
 42
0.0
  0
VERTEX
  8
Default
 10
781.545027673329
 20
107.108523145772
 42
0.0
  0
VERTEX
  8
Default
 10
785.736006667466
 20
106.30549774066
 42
-0.4066109288084
  0
VERTEX
  8
Default
 10
803.125935436742
 20
111.481826508217
 42
-0.2439878381833
  0
SEQEND
  0
POLYLINE
  8
Default
 66
     1
 10
0.0
 20
0.0
 30
0.0
 70
     1
  0
VERTEX
  8
Default
 10
811.287754139277
 20
56.0178606021242
 42
0.0827612829105
  0
VERTEX
  8
Default
 10
825.381653165083
 20
92.0381807710261
 42
1.0183002032405
  0
VERTEX
  8
Default
 10
768.340590328712
 20
107.077216824172
 42
0.0739001972228
  0
VERTEX
  8
Default
 10
767.542771584996
 20
98.4411318562816
 42
-0.1154841644512
  0
VERTEX
  8
Default
 10
767.542771584996
 20
98.4411318562816
 42
0.0698005019029
  0
VERTEX
  8
Default
 10
767.542771584996
 20
98.4411318562816
 42
-0.1404517183086
  0
VERTEX
  8
Default
 10
748.492986868913
 20
65.2052790579334
 42
-0.3138514648351
  0
VERTEX
  8
Default
 10
638.491597984806
 20
52.9278930080752
 42
0.2269433204767
  0
VERTEX
  8
Default
 10
636.767201324089
 20
53.0154871671963
 42
0.0
  0
VERTEX
  8
Default
 10
624.154087742045
 20
47.7484403297958
 42
0.5032555571422
  0
VERTEX
  8
Default
 10
623.381979679845
 20
44.6301666405347
 42
0.1867605499068
  0
VERTEX
  8
Default
 10
694.276099407584
 20
4.8111687420641
 42
0.2503887449045
  0
VERTEX
  8
Default
 10
800.476347425158
 20
42.1858060950868
 42
0.0458886978039
  0
VERTEX
  8
Default
 10
811.251884329032
 20
55.9600227524308
 42
0.0
  0
SEQEND
  0
POLYLINE
  8
Default
 66
     1
 10
0.0
 20
0.0
 30
0.0
 70
     1
  0
VERTEX
  8
Default
 10
753.098906058094
 20
128.876156868287
 42
0.0
  0
VERTEX
  8
Default
 10
756.670114257385
 20
127.06418093598
 42
0.0
  0
VERTEX
  8
Default
 10
753.050321044513
 20
119.92996078961
 42
0.0
  0
VERTEX
  8
Default
 10
749.529141594699
 20
121.716552906515
 42
-0.1286012318024
  0
VERTEX
  8
Default
 10
743.885710919384
 20
118.336031409873
 42
-0.5523136433095
  0
VERTEX
  8
Default
 10
727.418354500935
 20
132.935225082309
 42
0.0
  0
VERTEX
  8
Default
 10
723.662973621487
 20
134.840647390526
 42
0.0
  0
VERTEX
  8
Default
 10
727.282766834271
 20
141.974867536847
 42
0.0
  0
VERTEX
  8
Default
 10
731.088176463125
 20
140.044061413185
 42
-0.4066109288084
  0
VERTEX
  8
Default
 10
749.231407202295
 20
140.208926374744
 42
-0.2439878381833
  0
SEQEND
  0
POLYLINE
  8
Default
 66
     1
 10
0.0
 20
0.0
 30
0.0
 70
     1
  0
VERTEX
  8
Default
 10
605.390293009697
 20
93.4518424918335
 42
0.3922447679682
  0
VERTEX
  8
Default
 10
695.48133833154
 20
56.1403574050062
 42
-0.0168304809838
  0
VERTEX
  8
Default
 10
695.70484365944
 20
56.2147474963937
 42
0.1854617880789
  0
VERTEX
  8
Default
 10
759.991846528995
 20
105.533786669552
 42
-0.0079890794396
  0
VERTEX
  8
Default
 10
760.051785805304
 20
105.628208398635
 42
0.0231192830367
  0
VERTEX
  8
Default
 10
765.622421300353
 20
115.019860266871
 42
-0.0157129540402
  0
VERTEX
  8
Default
 10
765.731805302706
 20
115.210656101572
 42
1.0161827471159
  0
VERTEX
  8
Default
 10
714.150790637476
 20
145.845135799926
 42
0.0672261290743
  0
VERTEX
  8
Default
 10
710.661802593888
 20
137.347595175046
 42
-0.0831122227015
  0
VERTEX
  8
Default
 10
710.661802593888
 20
137.347595175046
 42
0.0146694010016
  0
VERTEX
  8
Default
 10
710.661802593888
 20
137.347595175046
 42
0.0512729719823
  0
VERTEX
  8
Default
 10
710.661802593888
 20
137.347595175046
 42
-0.459585141946
  0
VERTEX
  8
Default
 10
615.710001405871
 20
98.1783654337476
 42
0.0
  0
SEQEND
  0
ENDSEC
  0
EOF
