  0
SECTION
  2
HEADER
  9
$ACADVER
  1
AC1009
  9
$EXTMAX
 10
1000.0
 20
2000.0
 30
0.0
  9
$EXTMIN
 10
0.0
 20
0.0
 30
0.0
  9
$INSUNITS
 70
     4
  9
$LUNITS
 70
     2
  9
$LUPREC
 70
     4
  9
$MEASUREMENT
 70
     1
  0
ENDSEC
  0
SECTION
  2
TABLES
  0
TABLE
  2
LAYER
 70
     1
  0
LAYER
  2
0
 70
     0
 62
     7
  6
Continuous
  0
LAYER
  2
Default
 70
     0
 62
    70
  6
Continuous
  0
ENDTAB
  0
TABLE
  2
APPID
 70
     1
  0
APPID
  2
ACAD
 70
     0
  0
ENDTAB
  0
ENDSEC
  0
SECTION
  2
ENTITIES
  0
CIRCLE
  8
Default
 10
424.99999873
 20
1000.00000203
 30
0.0
 40
16.9517812589535
  0
CIRCLE
  8
Default
 10
574.99999873
 20
1000.00000203
 30
0.0
 40
16.9517812589535
  0
CIRCLE
  8
Default
 10
499.99999873
 20
1075.00000203
 30
0.0
 40
16.9517812589535
  0
CIRCLE
  8
Default
 10
499.99999873
 20
925.00000203
 30
0.0
 40
16.9517812589535
  0
POLYLINE
  8
Default
 66
     1
 10
0.0
 20
0.0
 30
0.0
 70
     1
  0
VERTEX
  8
Default
 10
0.0
 20
0.0
 42
0.0
  0
VERTEX
  8
Default
 10
999.99999746
 20
0.0
 42
0.0
  0
VERTEX
  8
Default
 10
999.99999746
 20
2000.00000406
 42
0.0
  0
VERTEX
  8
Default
 10
0.0
 20
2000.00000406
 42
0.0
  0
SEQEND
  0
POLYLINE
  8
Default
 66
     1
 10
0.0
 20
0.0
 30
0.0
 70
     1
  0
VERTEX
  8
Default
 10
656.592037487176
 20
274.367920016697
 42
-0.0007848843022
  0
VERTEX
  8
Default
 10
694.363698324509
 20
235.036597278279
 42
0.0
  0
VERTEX
  8
Default
 10
656.567840395031
 20
195.714590425171
 42
0.0086605262863
  0
VERTEX
  8
Default
 10
655.910038427871
 20
195.710275051341
 42
0.0
  0
VERTEX
  8
Default
 10
655.914518907133
 20
195.710277515305
 42
0.0
  0
VERTEX
  8
Default
 10
618.130759523727
 20
235.039012507804
 42
0.0
  0
VERTEX
  8
Default
 10
655.938715999278
 20
274.363952139622
 42
0.0
  0
VERTEX
  8
Default
 10
655.931928979876
 20
274.363723582978
 42
-0.0036448314017
  0
SEQEND
  0
POLYLINE
  8
Default
 66
     1
 10
0.0
 20
0.0
 30
0.0
 70
     1
  0
VERTEX
  8
Default
 10
781.182864938446
 20
195.710104998911
 42
0.0023744349597
  0
VERTEX
  8
Default
 10
743.411204101112
 20
235.038667475014
 42
0.0
  0
VERTEX
  8
Default
 10
781.20706203059
 20
274.363434590438
 42
0.0011104978941
  0
VERTEX
  8
Default
 10
781.865465821986
 20
274.367568654667
 42
0.0
  0
VERTEX
  8
Default
 10
781.860383518488
 20
274.367574983907
 42
0.0
  0
VERTEX
  8
Default
 10
819.644142901894
 20
235.036252245491
 42
0.0
  0
VERTEX
  8
Default
 10
781.836186426343
 20
195.714245392382
 42
0.0
  0
VERTEX
  8
Default
 10
781.841877057953
 20
195.714394234023
 42
-0.0031511703211
  0
SEQEND
  0
POLYLINE
  8
Default
 66
     1
 10
0.0
 20
0.0
 30
0.0
 70
     1
  0
VERTEX
  8
Default
 10
531.299494363719
 20
195.714762941564
 42
0.0
  0
VERTEX
  8
Default
 10
569.095352293197
 20
235.036769794675
 42
0.0
  0
VERTEX
  8
Default
 10
531.311592909791
 20
274.368092533091
 42
0.0
  0
VERTEX
  8
Default
 10
531.316675213289
 20
274.368086203851
 42
-0.0011104978586
  0
VERTEX
  8
Default
 10
530.658271421893
 20
274.363952139622
 42
0.0
  0
VERTEX
  8
Default
 10
492.862413492415
 20
235.039012507804
 42
0.0007282514068
  0
VERTEX
  8
Default
 10
530.646172875821
 20
195.7104500317
 42
0.0
  0
VERTEX
  8
Default
 10
530.641692396559
 20
195.710447567736
 42
-0.008660524886
  0
SEQEND
  0
POLYLINE
  8
Default
 66
     1
 10
0.0
 20
0.0
 30
0.0
 70
     1
  0
VERTEX
  8
Default
 10
405.372249741673
 20
324.451257992106
 42
0.0023744349597
  0
VERTEX
  8
Default
 10
367.600588904339
 20
363.77982046821
 42
0.0
  0
VERTEX
  8
Default
 10
405.396446833817
 20
403.104587583633
 42
0.0084919882363
  0
VERTEX
  8
Default
 10
406.054968950637
 20
403.108733884181
 42
0.0
  0
VERTEX
  8
Default
 10
406.049768321715
 20
403.108727977103
 42
0.0
  0
VERTEX
  8
Default
 10
443.833527705121
 20
363.777405238685
 42
0.0
  0
VERTEX
  8
Default
 10
406.02557122957
 20
324.455398385576
 42
0.0
  0
VERTEX
  8
Default
 10
406.03126186118
 20
324.455547227219
 42
-0.0031511701908
  0
SEQEND
  0
POLYLINE
  8
Default
 66
     1
 10
0.0
 20
0.0
 30
0.0
 70
     1
  0
VERTEX
  8
Default
 10
656.598558930412
 20
403.108037911526
 42
-0.0007848843022
  0
VERTEX
  8
Default
 10
694.370219767746
 20
363.776715173108
 42
0.0
  0
VERTEX
  8
Default
 10
656.574361838267
 20
324.454708319999
 42
0.0086605262863
  0
VERTEX
  8
Default
 10
655.916559871107
 20
324.450392946169
 42
0.0
  0
VERTEX
  8
Default
 10
655.92104035037
 20
324.450395410133
 42
0.0
  0
VERTEX
  8
Default
 10
618.137280966963
 20
363.779130402632
 42
0.0
  0
VERTEX
  8
Default
 10
655.945237442514
 20
403.10407003445
 42
0.0
  0
VERTEX
  8
Default
 10
655.938450423113
 20
403.103841477806
 42
-0.0036448314017
  0
SEQEND
  0
POLYLINE
  8
Default
 66
     1
 10
0.0
 20
0.0
 30
0.0
 70
     1
  0
VERTEX
  8
Default
 10
468.659744245226
 20
260.086771299409
 42
0.0
  0
VERTEX
  8
Default
 10
506.467700720777
 20
299.408605636121
 42
0.0
  0
VERTEX
  8
Default
 10
468.68394133737
 20
338.739928374539
 42
0.0
  0
VERTEX
  8
Default
 10
468.689023640869
 20
338.739922045299
 42
-0.0011104978807
  0
VERTEX
  8
Default
 10
468.030619849473
 20
338.735787981069
 42
0.0
  0
VERTEX
  8
Default
 10
430.234761919994
 20
299.411020865648
 42
0.0
  0
VERTEX
  8
Default
 10
468.018521303401
 20
260.081595807569
 42
0.0
  0
VERTEX
  8
Default
 10
468.014171619336
 20
260.08297811053
 42
-0.1940964110269
  0
VERTEX
  8
Default
 10
468.665312704175
 20
260.087312985731
 42
0.0
  0
SEQEND
  0
POLYLINE
  8
Default
 66
     1
 10
0.0
 20
0.0
 30
0.0
 70
     1
  0
VERTEX
  8
Default
 10
718.562962228033
 20
260.081252946586
 42
-0.194133331447
  0
VERTEX
  8
Default
 10
719.214225485533
 20
260.085540009894
 42
0.0
  0
VERTEX
  8
Default
 10
719.208534853923
 20
260.086771299409
 42
0.0
  0
VERTEX
  8
Default
 10
757.004392783402
 20
299.408260603333
 42
0.0007848843021
  0
VERTEX
  8
Default
 10
719.232731946067
 20
338.739583341751
 42
0.0
  0
VERTEX
  8
Default
 10
719.237814249565
 20
338.73957701251
 42
-0.0011104976367
  0
VERTEX
  8
Default
 10
718.57941045817
 20
338.73544294828
 42
0.0
  0
VERTEX
  8
Default
 10
680.771453982619
 20
299.410675832859
 42
0.0
  0
VERTEX
  8
Default
 10
718.555213366026
 20
260.081595807569
 42
0.0002988213644
  0
SEQEND
  0
POLYLINE
  8
Default
 66
     1
 10
0.0
 20
0.0
 30
0.0
 70
     1
  0
VERTEX
  8
Default
 10
781.189386381682
 20
324.450222893739
 42
0.0023744349597
  0
VERTEX
  8
Default
 10
743.417725544348
 20
363.778785369842
 42
0.0
  0
VERTEX
  8
Default
 10
781.213583473826
 20
403.103552485266
 42
0.0011104978941
  0
VERTEX
  8
Default
 10
781.871987265222
 20
403.107686549495
 42
0.0
  0
VERTEX
  8
Default
 10
781.866904961724
 20
403.107692878735
 42
0.0
  0
VERTEX
  8
Default
 10
819.65066434513
 20
363.776370140319
 42
0.0
  0
VERTEX
  8
Default
 10
781.84270786958
 20
324.45436328721
 42
0.0
  0
VERTEX
  8
Default
 10
781.848398501189
 20
324.454512128851
 42
-0.0031511703211
  0
SEQEND
  0
POLYLINE
  8
Default
 66
     1
 10
0.0
 20
0.0
 30
0.0
 70
     1
  0
VERTEX
  8
Default
 10
531.306015806955
 20
324.454880836392
 42
0.0
  0
VERTEX
  8
Default
 10
569.101873736433
 20
363.776887689503
 42
0.0
  0
VERTEX
  8
Default
 10
531.318114353027
 20
403.10821042792
 42
0.0
  0
VERTEX
  8
Default
 10
531.323196656525
 20
403.108204098679
 42
-0.0011104978586
  0
VERTEX
  8
Default
 10
530.664792865129
 20
403.104070034451
 42
0.0
  0
VERTEX
  8
Default
 10
492.868934935651
 20
363.779130402633
 42
0.0007282514068
  0
VERTEX
  8
Default
 10
530.652694319057
 20
324.450567926528
 42
0.0
  0
VERTEX
  8
Default
 10
530.648213839795
 20
324.450565462565
 42
-0.008660524886
  0
SEQEND
  0
POLYLINE
  8
Default
 66
     1
 10
0.0
 20
0.0
 30
0.0
 70
     1
  0
VERTEX
  8
Default
 10
593.964385914755
 20
338.739928374539
 42
0.0023999086743
  0
VERTEX
  8
Default
 10
631.736046752089
 20
299.408605636121
 42
0.0
  0
VERTEX
  8
Default
 10
593.940188822611
 20
260.086771299409
 42
0.1895779610707
  0
VERTEX
  8
Default
 10
593.282386855451
 20
260.082973474765
 42
0.0
  0
VERTEX
  8
Default
 10
593.286867334713
 20
260.081595807569
 42
0.0
  0
VERTEX
  8
Default
 10
555.503107951307
 20
299.411020865648
 42
0.0
  0
VERTEX
  8
Default
 10
593.311064426857
 20
338.735960497464
 42
0.0
  0
VERTEX
  8
Default
 10
593.304171865701
 20
338.735809197675
 42
-0.0026971635478
  0
SEQEND
  0
POLYLINE
  8
Default
 66
     1
 10
0.0
 20
0.0
 30
0.0
 70
     1
  0
VERTEX
  8
Default
 10
593.272817092842
 20
388.82602697321
 42
-0.1941368430684
  0
VERTEX
  8
Default
 10
593.924097616766
 20
388.830411403256
 42
0.0
  0
VERTEX
  8
Default
 10
593.91852051393
 20
388.8315499618
 42
0.0
  0
VERTEX
  8
Default
 10
631.714378443408
 20
428.15321178212
 42
0.0
  0
VERTEX
  8
Default
 10
593.942717606074
 20
467.484189487749
 42
0.0026971636271
  0
VERTEX
  8
Default
 10
593.28250355702
 20
467.480070310884
 42
0.0
  0
VERTEX
  8
Default
 10
593.289396118176
 20
467.480049094278
 42
0.0
  0
VERTEX
  8
Default
 10
555.481439642626
 20
428.154936946067
 42
0.0005543225092
  0
VERTEX
  8
Default
 10
593.265199026032
 20
388.826374469963
 42
0.0003025998155
  0
SEQEND
  0
POLYLINE
  8
Default
 66
     1
 10
0.0
 20
0.0
 30
0.0
 70
     1
  0
VERTEX
  8
Default
 10
406.003902920889
 20
453.197416785656
 42
0.0
  0
VERTEX
  8
Default
 10
443.81185939644
 20
492.519251122369
 42
0.0
  0
VERTEX
  8
Default
 10
406.028100013034
 20
531.850573860788
 42
0.0
  0
VERTEX
  8
Default
 10
406.033182316532
 20
531.850567531546
 42
-0.0011104978807
  0
VERTEX
  8
Default
 10
405.374778525136
 20
531.846433467317
 42
0.0
  0
VERTEX
  8
Default
 10
367.578920595657
 20
492.521666351895
 42
0.0
  0
VERTEX
  8
Default
 10
405.362679979064
 20
453.192241293816
 42
0.0
  0
VERTEX
  8
Default
 10
405.358330294999
 20
453.193623596777
 42
-0.1940964110269
  0
VERTEX
  8
Default
 10
406.009471379837
 20
453.197958471978
 42
0.0
  0
SEQEND
  0
POLYLINE
  8
Default
 66
     1
 10
0.0
 20
0.0
 30
0.0
 70
     1
  0
VERTEX
  8
Default
 10
655.907120903696
 20
453.191898432833
 42
-0.194133331447
  0
VERTEX
  8
Default
 10
656.558384161196
 20
453.196185496141
 42
0.0
  0
VERTEX
  8
Default
 10
656.552693529586
 20
453.197416785656
 42
0.0
  0
VERTEX
  8
Default
 10
694.348551459064
 20
492.51890608958
 42
0.0007848843021
  0
VERTEX
  8
Default
 10
656.57689062173
 20
531.850228827999
 42
0.0
  0
VERTEX
  8
Default
 10
656.581972925228
 20
531.850222498758
 42
-0.0011104976367
  0
VERTEX
  8
Default
 10
655.923569133833
 20
531.846088434527
 42
0.0
  0
VERTEX
  8
Default
 10
618.115612658282
 20
492.521321319106
 42
0.0
  0
VERTEX
  8
Default
 10
655.899372041689
 20
453.192241293816
 42
0.0002988213644
  0
SEQEND
  0
POLYLINE
  8
Default
 66
     1
 10
0.0
 20
0.0
 30
0.0
 70
     1
  0
VERTEX
  8
Default
 10
468.650174482618
 20
388.829824797853
 42
0.0
  0
VERTEX
  8
Default
 10
506.446032412095
 20
428.151486618173
 42
0.0008733986517
  0
VERTEX
  8
Default
 10
468.662273028689
 20
467.482291807408
 42
0.0
  0
VERTEX
  8
Default
 10
468.667355332188
 20
467.482285478167
 42
-0.0011104977265
  0
VERTEX
  8
Default
 10
468.008951540792
 20
467.478151413937
 42
0.0
  0
VERTEX
  8
Default
 10
430.213093611313
 20
428.15321178212
 42
0.0
  0
VERTEX
  8
Default
 10
467.99685299472
 20
388.824649306017
 42
0.0
  0
VERTEX
  8
Default
 10
467.992372515458
 20
388.824301809262
 42
0.0832479568614
  0
SEQEND
  0
POLYLINE
  8
Default
 66
     1
 10
0.0
 20
0.0
 30
0.0
 70
     1
  0
VERTEX
  8
Default
 10
718.533545057344
 20
517.560868379987
 42
0.0023744349597
  0
VERTEX
  8
Default
 10
680.76188422001
 20
556.889430856089
 42
0.0
  0
VERTEX
  8
Default
 10
718.557742149489
 20
596.214197971513
 42
0.0011104978941
  0
VERTEX
  8
Default
 10
719.216145940884
 20
596.218332035742
 42
0.0
  0
VERTEX
  8
Default
 10
719.211063637386
 20
596.218338364983
 42
0.0
  0
VERTEX
  8
Default
 10
756.994823020793
 20
556.887015626566
 42
0.0
  0
VERTEX
  8
Default
 10
719.186866545242
 20
517.565008773458
 42
0.0
  0
VERTEX
  8
Default
 10
719.192557176852
 20
517.565157615098
 42
-0.0031511703211
  0
SEQEND
  0
POLYLINE
  8
Default
 66
     1
 10
0.0
 20
0.0
 30
0.0
 70
     1
  0
VERTEX
  8
Default
 10
531.308544590418
 20
531.850573860788
 42
0.0023999086743
  0
VERTEX
  8
Default
 10
569.080205427752
 20
492.519251122369
 42
0.0
  0
VERTEX
  8
Default
 10
531.284347498274
 20
453.197416785656
 42
0.1895779610707
  0
VERTEX
  8
Default
 10
530.626545531113
 20
453.193618961012
 42
0.0
  0
VERTEX
  8
Default
 10
530.631026010376
 20
453.192241293816
 42
0.0
  0
VERTEX
  8
Default
 10
492.84726662697
 20
492.521666351895
 42
0.0
  0
VERTEX
  8
Default
 10
530.655223102521
 20
531.846605983711
 42
0.0
  0
VERTEX
  8
Default
 10
530.648330541364
 20
531.846454683922
 42
-0.0026971635478
  0
SEQEND
  0
POLYLINE
  8
Default
 66
     1
 10
0.0
 20
0.0
 30
0.0
 70
     1
  0
VERTEX
  8
Default
 10
718.541293919352
 20
388.82430644503
 42
-0.1941333316227
  0
VERTEX
  8
Default
 10
719.192557176852
 20
388.828593508338
 42
0.0
  0
VERTEX
  8
Default
 10
719.186866545242
 20
388.828099633907
 42
0.0
  0
VERTEX
  8
Default
 10
756.994823020793
 20
428.149761454227
 42
0.0006191649595
  0
VERTEX
  8
Default
 10
719.211063637386
 20
467.48160174183
 42
0.0
  0
VERTEX
  8
Default
 10
719.216145940884
 20
467.481595412587
 42
-0.0053238972757
  0
VERTEX
  8
Default
 10
718.557742149489
 20
467.477461348358
 42
0.0
  0
VERTEX
  8
Default
 10
680.76188422001
 20
428.15321178212
 42
0.0
  0
VERTEX
  8
Default
 10
718.533545057344
 20
388.824649306016
 42
0.000298821324
  0
SEQEND
  0
POLYLINE
  8
Default
 66
     1
 10
0.0
 20
0.0
 30
0.0
 70
     1
  0
VERTEX
  8
Default
 10
342.724157279343
 20
388.824306445031
 42
-0.1941333313923
  0
VERTEX
  8
Default
 10
343.375420536842
 20
388.828593508339
 42
-1.0905484761177
  0
VERTEX
  8
Default
 10
343.369729905232
 20
388.829824797853
 42
0.0
  0
VERTEX
  8
Default
 10
381.177686380783
 20
428.151486618173
 42
0.0
  0
VERTEX
  8
Default
 10
343.393926997377
 20
467.482291807408
 42
0.0
  0
VERTEX
  8
Default
 10
343.399009300875
 20
467.482285478167
 42
-0.0011104975743
  0
VERTEX
  8
Default
 10
342.74060550948
 20
467.478151413937
 42
0.0
  0
VERTEX
  8
Default
 10
304.944747580001
 20
428.15321178212
 42
0.0
  0
VERTEX
  8
Default
 10
342.716408417335
 20
388.824649306017
 42
0.0002988213547
  0
SEQEND
  0
POLYLINE
  8
Default
 66
     1
 10
0.0
 20
0.0
 30
0.0
 70
     1
  0
VERTEX
  8
Default
 10
342.716408417335
 20
517.561903478353
 42
0.0023744349597
  0
VERTEX
  8
Default
 10
304.944747580001
 20
556.890465954457
 42
0.0
  0
VERTEX
  8
Default
 10
342.74060550948
 20
596.21523306988
 42
0.0084919882363
  0
VERTEX
  8
Default
 10
343.399127626299
 20
596.219379370428
 42
0.0
  0
VERTEX
  8
Default
 10
343.393926997377
 20
596.21937346335
 42
0.0
  0
VERTEX
  8
Default
 10
381.177686380783
 20
556.888050724934
 42
0.0
  0
VERTEX
  8
Default
 10
343.369729905232
 20
517.566043871825
 42
0.0
  0
VERTEX
  8
Default
 10
343.375420536842
 20
517.566192713467
 42
-0.0031511701908
  0
SEQEND
  0
POLYLINE
  8
Default
 66
     1
 10
0.0
 20
0.0
 30
0.0
 70
     1
  0
VERTEX
  8
Default
 10
656.592037487176
 20
660.697463616697
 42
-0.0007848843022
  0
VERTEX
  8
Default
 10
694.363698324509
 20
621.366140878279
 42
0.0
  0
VERTEX
  8
Default
 10
656.567840395031
 20
582.04413402517
 42
0.0086605262863
  0
VERTEX
  8
Default
 10
655.910038427871
 20
582.039818651341
 42
0.0
  0
VERTEX
  8
Default
 10
655.914518907133
 20
582.039821115305
 42
0.0
  0
VERTEX
  8
Default
 10
618.130759523727
 20
621.368556107804
 42
0.0
  0
VERTEX
  8
Default
 10
655.938715999278
 20
660.693495739622
 42
0.0
  0
VERTEX
  8
Default
 10
655.931928979876
 20
660.693267182978
 42
-0.0036448314017
  0
SEQEND
  0
POLYLINE
  8
Default
 66
     1
 10
0.0
 20
0.0
 30
0.0
 70
     1
  0
VERTEX
  8
Default
 10
531.299494363719
 20
582.044306541564
 42
0.0
  0
VERTEX
  8
Default
 10
569.095352293197
 20
621.366313394675
 42
0.0
  0
VERTEX
  8
Default
 10
531.311592909791
 20
660.697636133091
 42
0.0
  0
VERTEX
  8
Default
 10
531.316675213289
 20
660.697629803851
 42
-0.0011104978586
  0
VERTEX
  8
Default
 10
530.658271421893
 20
660.693495739622
 42
0.0
  0
VERTEX
  8
Default
 10
492.862413492415
 20
621.368556107804
 42
0.0007282514068
  0
VERTEX
  8
Default
 10
530.646172875821
 20
582.0399936317
 42
0.0
  0
VERTEX
  8
Default
 10
530.641692396559
 20
582.039991167736
 42
-0.008660524886
  0
SEQEND
  0
POLYLINE
  8
Default
 66
     1
 10
0.0
 20
0.0
 30
0.0
 70
     1
  0
VERTEX
  8
Default
 10
405.365728298436
 20
582.040683697278
 42
0.0023744349597
  0
VERTEX
  8
Default
 10
367.594067461103
 20
621.369246173382
 42
0.0
  0
VERTEX
  8
Default
 10
405.389925390581
 20
660.694013288805
 42
0.0084919882363
  0
VERTEX
  8
Default
 10
406.048447507401
 20
660.698159589353
 42
0.0
  0
VERTEX
  8
Default
 10
406.043246878478
 20
660.698153682275
 42
0.0
  0
VERTEX
  8
Default
 10
443.827006261885
 20
621.366830943857
 42
0.0
  0
VERTEX
  8
Default
 10
406.019049786334
 20
582.044824090748
 42
0.0
  0
VERTEX
  8
Default
 10
406.024740417944
 20
582.04497293239
 42
-0.0031511701908
  0
SEQEND
  0
POLYLINE
  8
Default
 66
     1
 10
0.0
 20
0.0
 30
0.0
 70
     1
  0
VERTEX
  8
Default
 10
718.562962228033
 20
646.410796546584
 42
-0.194133331447
  0
VERTEX
  8
Default
 10
719.214225485533
 20
646.415083609893
 42
0.0
  0
VERTEX
  8
Default
 10
719.208534853923
 20
646.416314899409
 42
0.0
  0
VERTEX
  8
Default
 10
757.004392783402
 20
685.737804203333
 42
0.0007848843021
  0
VERTEX
  8
Default
 10
719.232731946067
 20
725.06912694175
 42
0.0
  0
VERTEX
  8
Default
 10
719.237814249565
 20
725.06912061251
 42
-0.0011104976367
  0
VERTEX
  8
Default
 10
718.57941045817
 20
725.06498654828
 42
0.0
  0
VERTEX
  8
Default
 10
680.771453982619
 20
685.740219432859
 42
0.0
  0
VERTEX
  8
Default
 10
718.555213366026
 20
646.411139407569
 42
0.0002988213644
  0
SEQEND
  0
POLYLINE
  8
Default
 66
     1
 10
0.0
 20
0.0
 30
0.0
 70
     1
  0
VERTEX
  8
Default
 10
280.097382267124
 20
195.710795064489
 42
0.0023744349597
  0
VERTEX
  8
Default
 10
242.32572142979
 20
235.039357540592
 42
0.0
  0
VERTEX
  8
Default
 10
280.121579359268
 20
274.364124656016
 42
0.0011104978941
  0
VERTEX
  8
Default
 10
280.779983150664
 20
274.368258720245
 42
0.0
  0
VERTEX
  8
Default
 10
280.774900847166
 20
274.368265049485
 42
0.0
  0
VERTEX
  8
Default
 10
318.558660230573
 20
235.036942311068
 42
0.0
  0
VERTEX
  8
Default
 10
280.750703755022
 20
195.714935457959
 42
0.0
  0
VERTEX
  8
Default
 10
280.756394386631
 20
195.7150842996
 42
-0.0031511703211
  0
SEQEND
  0
POLYLINE
  8
Default
 66
     1
 10
0.0
 20
0.0
 30
0.0
 70
     1
  0
VERTEX
  8
Default
 10
217.477479556711
 20
260.081943012163
 42
-0.194133331447
  0
VERTEX
  8
Default
 10
218.128742814211
 20
260.086230075472
 42
0.0
  0
VERTEX
  8
Default
 10
218.123052182601
 20
260.087461364987
 42
0.0
  0
VERTEX
  8
Default
 10
255.91891011208
 20
299.408950668911
 42
0.0007848843021
  0
VERTEX
  8
Default
 10
218.147249274746
 20
338.740273407328
 42
0.0
  0
VERTEX
  8
Default
 10
218.152331578244
 20
338.740267078088
 42
-0.0011104976367
  0
VERTEX
  8
Default
 10
217.493927786848
 20
338.736133013858
 42
0.0
  0
VERTEX
  8
Default
 10
179.685971311297
 20
299.411365898437
 42
0.0
  0
VERTEX
  8
Default
 10
217.469730694704
 20
260.082285873147
 42
0.0002988213644
  0
SEQEND
  0
POLYLINE
  8
Default
 66
     1
 10
0.0
 20
0.0
 30
0.0
 70
     1
  0
VERTEX
  8
Default
 10
280.10390371036
 20
324.450912959317
 42
0.0023744349597
  0
VERTEX
  8
Default
 10
242.332242873026
 20
363.77947543542
 42
0.0
  0
VERTEX
  8
Default
 10
280.128100802505
 20
403.104242550844
 42
0.0011104978941
  0
VERTEX
  8
Default
 10
280.7865045939
 20
403.108376615073
 42
0.0
  0
VERTEX
  8
Default
 10
280.781422290402
 20
403.108382944313
 42
0.0
  0
VERTEX
  8
Default
 10
318.565181673808
 20
363.777060205897
 42
0.0
  0
VERTEX
  8
Default
 10
280.757225198258
 20
324.455053352788
 42
0.0
  0
VERTEX
  8
Default
 10
280.762915829868
 20
324.455202194429
 42
-0.0031511703211
  0
SEQEND
  0
POLYLINE
  8
Default
 66
     1
 10
0.0
 20
0.0
 30
0.0
 70
     1
  0
VERTEX
  8
Default
 10
217.448062386023
 20
517.561558445565
 42
0.0023744349597
  0
VERTEX
  8
Default
 10
179.676401548689
 20
556.890120921667
 42
0.0
  0
VERTEX
  8
Default
 10
217.472259478167
 20
596.214888037091
 42
0.0011104978941
  0
VERTEX
  8
Default
 10
218.130663269563
 20
596.21902210132
 42
0.0
  0
VERTEX
  8
Default
 10
218.125580966065
 20
596.21902843056
 42
0.0
  0
VERTEX
  8
Default
 10
255.909340349471
 20
556.887705692144
 42
0.0
  0
VERTEX
  8
Default
 10
218.10138387392
 20
517.565698839036
 42
0.0
  0
VERTEX
  8
Default
 10
218.10707450553
 20
517.565847680677
 42
-0.0031511703211
  0
SEQEND
  0
POLYLINE
  8
Default
 66
     1
 10
0.0
 20
0.0
 30
0.0
 70
     1
  0
VERTEX
  8
Default
 10
217.45581124803
 20
388.824996510607
 42
-0.1941333316227
  0
VERTEX
  8
Default
 10
218.10707450553
 20
388.829283573916
 42
0.0
  0
VERTEX
  8
Default
 10
218.10138387392
 20
388.828789699485
 42
0.0
  0
VERTEX
  8
Default
 10
255.909340349471
 20
428.150451519805
 42
0.0006191649595
  0
VERTEX
  8
Default
 10
218.125580966065
 20
467.482291807408
 42
0.0
  0
VERTEX
  8
Default
 10
218.130663269563
 20
467.482285478165
 42
-0.0053238972757
  0
VERTEX
  8
Default
 10
217.472259478167
 20
467.478151413936
 42
0.0
  0
VERTEX
  8
Default
 10
179.676401548689
 20
428.153901847698
 42
0.0
  0
VERTEX
  8
Default
 10
217.448062386023
 20
388.825339371593
 42
0.000298821324
  0
SEQEND
  0
POLYLINE
  8
Default
 66
     1
 10
0.0
 20
0.0
 30
0.0
 70
     1
  0
VERTEX
  8
Default
 10
406.055345424551
 20
274.368610082275
 42
0.0023999086742
  0
VERTEX
  8
Default
 10
443.827006261885
 20
235.037287343857
 42
0.0
  0
VERTEX
  8
Default
 10
406.031148332406
 20
195.715280490748
 42
0.0051768129439
  0
VERTEX
  8
Default
 10
405.373477160444
 20
195.710969752687
 42
0.0
  0
VERTEX
  8
Default
 10
405.377826844509
 20
195.710967580883
 42
0.0
  0
VERTEX
  8
Default
 10
367.594067461103
 20
235.039530056987
 42
0.0
  0
VERTEX
  8
Default
 10
405.402023936653
 20
274.36429717241
 42
0.0
  0
VERTEX
  8
Default
 10
405.395236917252
 20
274.364413648556
 42
-0.0036448314967
  0
SEQEND
  0
POLYLINE
  8
Default
 66
     1
 10
0.0
 20
0.0
 30
0.0
 70
     1
  0
VERTEX
  8
Default
 10
343.391398213914
 20
260.092981889616
 42
0.0
  0
VERTEX
  8
Default
 10
381.199354689464
 20
299.414816226329
 42
0.0
  0
VERTEX
  8
Default
 10
343.415595306058
 20
338.746138964747
 42
0.0
  0
VERTEX
  8
Default
 10
343.420677609556
 20
338.746132635507
 42
-0.0011104978807
  0
VERTEX
  8
Default
 10
342.762273818161
 20
338.741998571277
 42
0.0
  0
VERTEX
  8
Default
 10
304.966415888682
 20
299.417231455855
 42
0.0
  0
VERTEX
  8
Default
 10
342.750175272089
 20
260.087806397777
 42
0.0
  0
VERTEX
  8
Default
 10
342.745825588024
 20
260.089188700738
 42
-0.1940964110269
  0
VERTEX
  8
Default
 10
343.396966672863
 20
260.093523575939
 42
0.0
  0
SEQEND
  0
POLYLINE
  8
Default
 66
     1
 10
0.0
 20
0.0
 30
0.0
 70
     1
  0
VERTEX
  8
Default
 10
217.48317018832
 20
646.418191076802
 42
-0.1941333316227
  0
VERTEX
  8
Default
 10
218.134433445821
 20
646.422478140111
 42
0.0
  0
VERTEX
  8
Default
 10
218.128742814211
 20
646.42198426568
 42
0.0
  0
VERTEX
  8
Default
 10
255.936699289762
 20
685.743646086
 42
0.0006191649595
  0
VERTEX
  8
Default
 10
218.152939906355
 20
725.075486373603
 42
0.0
  0
VERTEX
  8
Default
 10
218.158022209854
 20
725.07548004436
 42
-0.0053238972757
  0
VERTEX
  8
Default
 10
217.499618418457
 20
725.071345980131
 42
0.0
  0
VERTEX
  8
Default
 10
179.70376048898
 20
685.747096413892
 42
0.0
  0
VERTEX
  8
Default
 10
217.475421326313
 20
646.418533937788
 42
0.000298821324
  0
SEQEND
  0
POLYLINE
  8
Default
 66
     1
 10
0.0
 20
0.0
 30
0.0
 70
     1
  0
VERTEX
  8
Default
 10
782.487580479041
 20
582.049460822615
 42
0.0
  0
VERTEX
  8
Default
 10
820.295536954592
 20
621.37060509375
 42
0.0
  0
VERTEX
  8
Default
 10
782.511777571186
 20
660.701927832168
 42
0.0
  0
VERTEX
  8
Default
 10
782.516859874684
 20
660.701921502926
 42
-0.0011104976853
  0
VERTEX
  8
Default
 10
781.858456083288
 20
660.697787438697
 42
0.0
  0
VERTEX
  8
Default
 10
744.06259815381
 20
621.37284780688
 42
0.000554322509
  0
VERTEX
  8
Default
 10
781.846357537216
 20
582.044285330775
 42
0.0
  0
VERTEX
  8
Default
 10
781.841877057953
 20
582.043937834023
 42
-0.1941368430048
  0
VERTEX
  8
Default
 10
782.493157581877
 20
582.04832226407
 42
0.0
  0
SEQEND
  0
POLYLINE
  8
Default
 66
     1
 10
0.0
 20
0.0
 30
0.0
 70
     1
  0
VERTEX
  8
Default
 10
781.849405856588
 20
710.89169263587
 42
0.0023744349597
  0
VERTEX
  8
Default
 10
744.077745019255
 20
750.220255111973
 42
0.0
  0
VERTEX
  8
Default
 10
781.873602948733
 20
789.545022227397
 42
0.0011104978941
  0
VERTEX
  8
Default
 10
782.532006740129
 20
789.549156291626
 42
0.0
  0
VERTEX
  8
Default
 10
782.52692443663
 20
789.549162620866
 42
0.0
  0
VERTEX
  8
Default
 10
820.310683820037
 20
750.21783988245
 42
0.0
  0
VERTEX
  8
Default
 10
782.502727344486
 20
710.895833029341
 42
0.0
  0
VERTEX
  8
Default
 10
782.508417976096
 20
710.895981870982
 42
-0.0031511703211
  0
SEQEND
  0
POLYLINE
  8
Default
 66
     1
 10
0.0
 20
0.0
 30
0.0
 70
     1
  0
VERTEX
  8
Default
 10
280.771852527793
 20
531.850573860788
 42
0.0023999086743
  0
VERTEX
  8
Default
 10
318.543513365127
 20
492.519251122369
 42
0.0
  0
VERTEX
  8
Default
 10
280.747655435649
 20
453.197416785656
 42
0.1895779610707
  0
VERTEX
  8
Default
 10
280.089853468489
 20
453.193618961012
 42
0.0
  0
VERTEX
  8
Default
 10
280.094333947751
 20
453.192241293816
 42
0.0
  0
VERTEX
  8
Default
 10
242.310574564345
 20
492.521666351895
 42
0.0
  0
VERTEX
  8
Default
 10
280.118531039896
 20
531.846605983711
 42
0.0
  0
VERTEX
  8
Default
 10
280.111638478739
 20
531.846454683922
 42
-0.0026971635478
  0
SEQEND
  0
POLYLINE
  8
Default
 66
     1
 10
0.0
 20
0.0
 30
0.0
 70
     1
  0
VERTEX
  8
Default
 10
781.18756548108
 20
453.191380883648
 42
-0.194133331447
  0
VERTEX
  8
Default
 10
781.83882873858
 20
453.195667946956
 42
0.0
  0
VERTEX
  8
Default
 10
781.83313810697
 20
453.196899236471
 42
0.0
  0
VERTEX
  8
Default
 10
819.628996036449
 20
492.518388540395
 42
0.0007848843021
  0
VERTEX
  8
Default
 10
781.857335199114
 20
531.849711278814
 42
0.0
  0
VERTEX
  8
Default
 10
781.862417502613
 20
531.849704949573
 42
-0.0011104976367
  0
VERTEX
  8
Default
 10
781.204013711217
 20
531.845570885342
 42
0.0
  0
VERTEX
  8
Default
 10
743.396057235667
 20
492.520803769921
 42
0.0
  0
VERTEX
  8
Default
 10
781.179816619073
 20
453.191723744631
 42
0.0002988213644
  0
SEQEND
  0
POLYLINE
  8
Default
 66
     1
 10
0.0
 20
0.0
 30
0.0
 70
     1
  0
VERTEX
  8
Default
 10
468.637945141348
 20
517.565004137691
 42
0.0
  0
VERTEX
  8
Default
 10
506.445901616899
 20
556.886838474404
 42
0.0
  0
VERTEX
  8
Default
 10
468.662142233492
 20
596.218161212822
 42
0.0
  0
VERTEX
  8
Default
 10
468.667224536991
 20
596.218154883581
 42
-0.0011104978807
  0
VERTEX
  8
Default
 10
468.008820745595
 20
596.214020819351
 42
0.0
  0
VERTEX
  8
Default
 10
430.212962816116
 20
556.88925370393
 42
0.0
  0
VERTEX
  8
Default
 10
467.996722199523
 20
517.559828645852
 42
0.0
  0
VERTEX
  8
Default
 10
467.992372515458
 20
517.561210948813
 42
-0.1940964110269
  0
VERTEX
  8
Default
 10
468.643513600297
 20
517.565545824014
 42
0.0
  0
SEQEND
  0
POLYLINE
  8
Default
 66
     1
 10
0.0
 20
0.0
 30
0.0
 70
     1
  0
VERTEX
  8
Default
 10
593.26833661358
 20
517.560690935665
 42
-0.1941368430684
  0
VERTEX
  8
Default
 10
593.919617137503
 20
517.565075365711
 42
0.0
  0
VERTEX
  8
Default
 10
593.914040034667
 20
517.566213924254
 42
0.0
  0
VERTEX
  8
Default
 10
631.709897964146
 20
556.887875744574
 42
0.0
  0
VERTEX
  8
Default
 10
593.938237126812
 20
596.218853450204
 42
0.0026971636271
  0
VERTEX
  8
Default
 10
593.278023077757
 20
596.214734273339
 42
0.0
  0
VERTEX
  8
Default
 10
593.284915638914
 20
596.214713056733
 42
0.0
  0
VERTEX
  8
Default
 10
555.476959163364
 20
556.889600908522
 42
0.0005543225092
  0
VERTEX
  8
Default
 10
593.26071854677
 20
517.561038432417
 42
0.0003025998155
  0
SEQEND
  0
POLYLINE
  8
Default
 66
     1
 10
0.0
 20
0.0
 30
0.0
 70
     1
  0
VERTEX
  8
Default
 10
280.780591478776
 20
660.697784974732
 42
0.0023999086743
  0
VERTEX
  8
Default
 10
318.552252316109
 20
621.366462236313
 42
0.0
  0
VERTEX
  8
Default
 10
280.756394386631
 20
582.044627899601
 42
0.1895779610707
  0
VERTEX
  8
Default
 10
280.098592419471
 20
582.040830074956
 42
0.0
  0
VERTEX
  8
Default
 10
280.103072898734
 20
582.039452407761
 42
0.0
  0
VERTEX
  8
Default
 10
242.319313515327
 20
621.368877465839
 42
0.0
  0
VERTEX
  8
Default
 10
280.127269990878
 20
660.693817097656
 42
0.0
  0
VERTEX
  8
Default
 10
280.120377429721
 20
660.693665797866
 42
-0.0026971635478
  0
SEQEND
  0
POLYLINE
  8
Default
 66
     1
 10
0.0
 20
0.0
 30
0.0
 70
     1
  0
VERTEX
  8
Default
 10
453.297173565534
 20
1183.23509743439
 42
0.0
  0
VERTEX
  8
Default
 10
466.499822424637
 20
1148.64972155021
 42
0.0
  0
VERTEX
  8
Default
 10
496.082568598504
 20
1148.38790318181
 42
0.0
  0
VERTEX
  8
Default
 10
496.082568598504
 20
1117.33419214524
 42
0.0621468689081
  0
VERTEX
  8
Default
 10
467.370664033465
 20
1112.7740457905
 42
0.0
  0
VERTEX
  8
Default
 10
437.867219025532
 20
1178.59387581181
 42
-0.0213124808005
  0
SEQEND
  0
POLYLINE
  8
Default
 66
     1
 10
0.0
 20
0.0
 30
0.0
 70
     1
  0
VERTEX
  8
Default
 10
508.072308474747
 20
1117.12171754091
 42
-0.0271091421863
  0
VERTEX
  8
Default
 10
520.697229772291
 20
1115.56073522262
 42
0.0
  0
VERTEX
  8
Default
 10
527.24082664874
 20
1187.12079553115
 42
0.0826784948416
  0
VERTEX
  8
Default
 10
465.142570879059
 20
1185.85266891916
 42
0.0
  0
VERTEX
  8
Default
 10
474.804062598642
 20
1160.54363235464
 42
0.0
  0
VERTEX
  8
Default
 10
508.011203981806
 20
1160.11580895017
 42
0.0
  0
SEQEND
  0
POLYLINE
  8
Default
 66
     1
 10
0.0
 20
0.0
 30
0.0
 70
     1
  0
VERTEX
  8
Default
 10
366.967788423443
 20
1134.3826091157
 42
0.0185490312397
  0
VERTEX
  8
Default
 10
357.373329170195
 20
1124.15267899057
 42
0.0
  0
VERTEX
  8
Default
 10
414.294287068335
 20
1080.23209920689
 42
-0.0626605980603
  0
VERTEX
  8
Default
 10
436.839590887454
 20
1098.96171841567
 42
0.0
  0
VERTEX
  8
Default
 10
418.899188795497
 20
1127.44603771524
 42
0.0
  0
VERTEX
  8
Default
 10
393.350437165277
 20
1111.47592879835
 42
0.0
  0
SEQEND
  0
POLYLINE
  8
Default
 66
     1
 10
0.0
 20
0.0
 30
0.0
 70
     1
  0
VERTEX
  8
Default
 10
318.237979298908
 20
1052.1423299271
 42
0.0223010780954
  0
VERTEX
  8
Default
 10
314.316051486122
 20
1035.7452926587
 42
0.0
  0
VERTEX
  8
Default
 10
385.812386838617
 20
1027.27357384188
 42
-0.0587464618266
  0
VERTEX
  8
Default
 10
395.286293302147
 20
1053.08199826605
 42
0.0
  0
VERTEX
  8
Default
 10
366.738102910722
 20
1070.05727168931
 42
0.0
  0
VERTEX
  8
Default
 10
352.285570305878
 20
1047.10184905243
 42
0.0
  0
SEQEND
  0
POLYLINE
  8
Default
 66
     1
 10
0.0
 20
0.0
 30
0.0
 70
     1
  0
VERTEX
  8
Default
 10
362.992220429267
 20
869.673018057783
 42
0.0
  0
VERTEX
  8
Default
 10
386.894988139439
 20
899.193529375198
 42
0.0
  0
VERTEX
  8
Default
 10
371.681767616338
 20
919.186947919561
 42
0.0
  0
VERTEX
  8
Default
 10
400.569481255015
 20
937.5802085067
 42
0.0601854267231
  0
VERTEX
  8
Default
 10
418.294777733907
 20
915.697479583667
 42
0.0
  0
VERTEX
  8
Default
 10
374.733853367805
 20
858.350268912373
 42
-0.0215756834173
  0
SEQEND
  0
POLYLINE
  8
Default
 66
     1
 10
0.0
 20
0.0
 30
0.0
 70
     1
  0
VERTEX
  8
Default
 10
316.432843729714
 20
954.619899878306
 42
0.0178799005783
  0
VERTEX
  8
Default
 10
320.144477391312
 20
941.619821230468
 42
0.0
  0
VERTEX
  8
Default
 10
387.218983434843
 20
967.39477211472
 42
-0.0585355908827
  0
VERTEX
  8
Default
 10
382.733146213934
 20
994.419345275653
 42
0.0
  0
VERTEX
  8
Default
 10
347.34091955653
 20
994.897859880506
 42
0.0
  0
VERTEX
  8
Default
 10
346.009760519751
 20
965.277993483532
 42
0.0
  0
SEQEND
  0
POLYLINE
  8
Default
 66
     1
 10
0.0
 20
0.0
 30
0.0
 70
     1
  0
VERTEX
  8
Default
 10
550.61786909409
 20
817.80756183008
 42
0.0218683653897
  0
VERTEX
  8
Default
 10
566.338557355648
 20
822.925301110674
 42
0.0
  0
VERTEX
  8
Default
 10
537.117650443294
 20
888.622543089129
 42
-0.066968871704
  0
VERTEX
  8
Default
 10
506.36093074951
 20
882.772884976488
 42
0.0
  0
VERTEX
  8
Default
 10
506.509174290226
 20
851.61402068758
 42
0.0
  0
VERTEX
  8
Default
 10
536.935615336428
 20
852.539630604478
 42
0.0
  0
SEQEND
  0
POLYLINE
  8
Default
 66
     1
 10
0.0
 20
0.0
 30
0.0
 70
     1
  0
VERTEX
  8
Default
 10
371.610607235996
 20
899.386318949809
 42
0.0
  0
VERTEX
  8
Default
 10
353.935749093651
 20
922.376846884885
 42
0.0
  0
VERTEX
  8
Default
 10
394.696017269639
 20
948.098846768959
 42
-0.0228077282947
  0
VERTEX
  8
Default
 10
390.406181533202
 20
957.906609899292
 42
0.0
  0
VERTEX
  8
Default
 10
323.483540672122
 20
932.190016770461
 42
0.0825180137777
  0
VERTEX
  8
Default
 10
354.899541742736
 20
878.747738346865
 42
0.0
  0
SEQEND
  0
POLYLINE
  8
Default
 66
     1
 10
0.0
 20
0.0
 30
0.0
 70
     1
  0
VERTEX
  8
Default
 10
682.611994481683
 20
950.917285379586
 42
0.0
  0
VERTEX
  8
Default
 10
650.464118860482
 20
955.472060906016
 42
0.0
  0
VERTEX
  8
Default
 10
637.342745292418
 20
930.110069938021
 42
0.0
  0
VERTEX
  8
Default
 10
605.616106436916
 20
948.736991762597
 42
0.0592633974772
  0
VERTEX
  8
Default
 10
614.694111364395
 20
974.941690916849
 42
0.0
  0
VERTEX
  8
Default
 10
685.901829189907
 20
965.405732304315
 42
-0.0196503514646
  0
SEQEND
  0
POLYLINE
  8
Default
 66
     1
 10
0.0
 20
0.0
 30
0.0
 70
     1
  0
VERTEX
  8
Default
 10
657.226983285321
 20
942.394040401877
 42
0.0
  0
VERTEX
  8
Default
 10
679.084947980953
 20
939.297160103274
 42
-0.0768656863415
  0
VERTEX
  8
Default
 10
652.383068055553
 20
888.037266045561
 42
0.0
  0
VERTEX
  8
Default
 10
594.091702308022
 20
929.790246677767
 42
0.0217228074164
  0
VERTEX
  8
Default
 10
599.828819565491
 20
938.219220556875
 42
0.0
  0
VERTEX
  8
Default
 10
642.250317926992
 20
913.311628729963
 42
0.0
  0
SEQEND
  0
POLYLINE
  8
Default
 66
     1
 10
0.0
 20
0.0
 30
0.0
 70
     1
  0
VERTEX
  8
Default
 10
635.12174576553
 20
867.71860672339
 42
0.0
  0
VERTEX
  8
Default
 10
608.627807242125
 20
889.936732093718
 42
0.0
  0
VERTEX
  8
Default
 10
584.476817420694
 20
873.645840481007
 42
0.0
  0
VERTEX
  8
Default
 10
565.6573169268
 20
902.676957502823
 42
0.062800957844
  0
VERTEX
  8
Default
 10
587.762510253937
 20
922.023082368824
 42
0.0
  0
VERTEX
  8
Default
 10
646.246301641124
 20
880.132270963524
 42
-0.022048753173
  0
SEQEND
  0
POLYLINE
  8
Default
 66
     1
 10
0.0
 20
0.0
 30
0.0
 70
     1
  0
VERTEX
  8
Default
 10
554.968746523446
 20
1180.92731017396
 42
0.0243377934099
  0
VERTEX
  8
Default
 10
537.126360742158
 20
1185.41275053975
 42
0.0
  0
VERTEX
  8
Default
 10
530.53756066989
 20
1113.3583530219
 42
-0.0578977872144
  0
VERTEX
  8
Default
 10
555.71433941461
 20
1103.3371718718
 42
0.0
  0
VERTEX
  8
Default
 10
572.998022391744
 20
1132.94166661469
 42
0.0
  0
VERTEX
  8
Default
 10
546.911428726463
 20
1148.12631169997
 42
0.0
  0
SEQEND
  0
POLYLINE
  8
Default
 66
     1
 10
0.0
 20
0.0
 30
0.0
 70
     1
  0
VERTEX
  8
Default
 10
683.475630799173
 20
1045.74873428582
 42
0.0
  0
VERTEX
  8
Default
 10
654.647633489877
 20
1034.88984554895
 42
0.0
  0
VERTEX
  8
Default
 10
655.978792526657
 20
1006.3807634107
 42
0.0
  0
VERTEX
  8
Default
 10
617.250740398398
 20
1005.90948652912
 42
0.055891030623
  0
VERTEX
  8
Default
 10
613.029979782695
 20
1031.73140307159
 42
0.0
  0
VERTEX
  8
Default
 10
679.321251173711
 20
1060.00118942005
 42
-0.0196348990357
  0
SEQEND
  0
POLYLINE
  8
Default
 66
     1
 10
0.0
 20
0.0
 30
0.0
 70
     1
  0
VERTEX
  8
Default
 10
631.185473131834
 20
1101.5935742947
 42
0.0
  0
VERTEX
  8
Default
 10
649.995451483517
 20
1078.84339723267
 42
0.0
  0
VERTEX
  8
Default
 10
605.768676541515
 20
1050.94747716703
 42
-0.0224225634077
  0
VERTEX
  8
Default
 10
609.90628981878
 20
1041.27064059961
 42
0.0
  0
VERTEX
  8
Default
 10
675.893200400359
 20
1069.41063286093
 42
0.0780339221869
  0
VERTEX
  8
Default
 10
646.154351017455
 20
1119.97983105818
 42
0.0
  0
SEQEND
  0
POLYLINE
  8
Default
 66
     1
 10
0.0
 20
0.0
 30
0.0
 70
     1
  0
VERTEX
  8
Default
 10
607.856263519168
 20
874.922633586906
 42
0.0
  0
VERTEX
  8
Default
 10
626.40605228388
 20
859.366564714648
 42
-0.0803720865874
  0
VERTEX
  8
Default
 10
575.612106380962
 20
826.682192088907
 42
0.0
  0
VERTEX
  8
Default
 10
546.474926098312
 20
892.191191838324
 42
0.0210997424847
  0
VERTEX
  8
Default
 10
555.39635760871
 20
896.492022377145
 42
0.0
  0
VERTEX
  8
Default
 10
581.211120925238
 20
856.882345023907
 42
0.0
  0
SEQEND
  0
POLYLINE
  8
Default
 66
     1
 10
0.0
 20
0.0
 30
0.0
 70
     1
  0
VERTEX
  8
Default
 10
346.241856980567
 20
1060.12736005391
 42
0.0
  0
VERTEX
  8
Default
 10
321.966648663951
 20
1063.72111572442
 42
-0.0800785009856
  0
VERTEX
  8
Default
 10
351.006104651844
 20
1116.43484902017
 42
0.0
  0
VERTEX
  8
Default
 10
407.768731935328
 20
1072.63643816425
 42
0.0238674000957
  0
VERTEX
  8
Default
 10
401.265839979297
 20
1063.51554599072
 42
0.0
  0
VERTEX
  8
Default
 10
362.668158482215
 20
1086.62527840032
 42
0.0
  0
SEQEND
  0
POLYLINE
  8
Default
 66
     1
 10
0.0
 20
0.0
 30
0.0
 70
     1
  0
VERTEX
  8
Default
 10
494.319066408531
 20
882.737964537922
 42
0.0
  0
VERTEX
  8
Default
 10
494.319066408531
 20
839.425223638295
 42
0.0
  0
VERTEX
  8
Default
 10
528.849866745527
 20
840.324983523127
 42
0.0
  0
VERTEX
  8
Default
 10
538.849691060523
 20
814.940672429947
 42
-0.082590989748
  0
VERTEX
  8
Default
 10
476.858359348362
 20
812.328164523869
 42
0.0
  0
VERTEX
  8
Default
 10
482.971419462329
 20
883.841980710078
 42
0.0242930067537
  0
SEQEND
  0
POLYLINE
  8
Default
 66
     1
 10
0.0
 20
0.0
 30
0.0
 70
     1
  0
VERTEX
  8
Default
 10
638.132924892818
 20
1129.13384258272
 42
0.0
  0
VERTEX
  8
Default
 10
615.664036025491
 20
1101.53533031871
 42
0.0
  0
VERTEX
  8
Default
 10
632.398542744766
 20
1081.72708611617
 42
0.0
  0
VERTEX
  8
Default
 10
600.012452006769
 20
1061.48306976736
 42
0.0612713440645
  0
VERTEX
  8
Default
 10
582.131216010036
 20
1083.8875552005
 42
0.0
  0
VERTEX
  8
Default
 10
625.997116998778
 20
1140.99993200928
 42
-0.0224512668341
  0
SEQEND
  0
POLYLINE
  8
Default
 66
     1
 10
0.0
 20
0.0
 30
0.0
 70
     1
  0
VERTEX
  8
Default
 10
560.722628078921
 20
1154.0473592677
 42
0.0
  0
VERTEX
  8
Default
 10
566.37570193908
 20
1177.06078280795
 42
-0.0795809325819
  0
VERTEX
  8
Default
 10
618.357968278302
 20
1147.47083002863
 42
0.0
  0
VERTEX
  8
Default
 10
574.671246841841
 20
1090.59174080487
 42
0.0232364676478
  0
VERTEX
  8
Default
 10
565.942553468795
 20
1097.13000719501
 42
0.0
  0
VERTEX
  8
Default
 10
589.343165327301
 20
1137.6654881451
 42
0.0
  0
SEQEND
  0
POLYLINE
  8
Default
 66
     1
 10
0.0
 20
0.0
 30
0.0
 70
     1
  0
VERTEX
  8
Default
 10
448.128214190971
 20
818.106714809325
 42
0.0
  0
VERTEX
  8
Default
 10
455.164326441896
 20
855.686896302868
 42
0.0
  0
VERTEX
  8
Default
 10
429.872394383419
 20
869.200958164886
 42
0.0
  0
VERTEX
  8
Default
 10
445.677571101929
 20
895.924393526241
 42
0.0625394553653
  0
VERTEX
  8
Default
 10
473.095893890914
 20
885.724774742358
 42
0.0
  0
VERTEX
  8
Default
 10
466.949206324629
 20
813.817566801608
 42
-0.0415510724036
  0
SEQEND
  0
POLYLINE
  8
Default
 66
     1
 10
0.0
 20
0.0
 30
0.0
 70
     1
  0
VERTEX
  8
Default
 10
593.25856927007
 20
646.297942019328
 42
0.0
  0
VERTEX
  8
Default
 10
567.124359726092
 20
673.500777792334
 42
0.0463530085448
  0
VERTEX
  8
Default
 10
626.123583445912
 20
691.454600759232
 42
-0.0001162439204
  0
VERTEX
  8
Default
 10
631.709897964146
 20
685.622024621811
 42
0.0
  0
VERTEX
  8
Default
 10
593.914040034667
 20
646.300017768701
 42
0.0086015539601
  0
VERTEX
  8
Default
 10
593.26071854677
 20
646.295704858835
 42
0.0
  0
SEQEND
  0
POLYLINE
  8
Default
 66
     1
 10
0.0
 20
0.0
 30
0.0
 70
     1
  0
VERTEX
  8
Default
 10
844.506655080216
 20
209.998947897737
 42
-0.0011019261294
  0
VERTEX
  8
Default
 10
843.853333592318
 20
209.994807504267
 42
0.0
  0
VERTEX
  8
Default
 10
806.045377116767
 20
170.670040388844
 42
0.0
  0
VERTEX
  8
Default
 10
806.463883271298
 20
170.234417721561
 42
0.0
  0
VERTEX
  8
Default
 10
846.142989308336
 20
170.234417721561
 42
0.0
  0
VERTEX
  8
Default
 10
846.142989308332
 20
208.300160666412
 42
0.000033898664
  0
VERTEX
  8
Default
 10
844.511737383714
 20
209.998941568497
 42
0.0
  0
SEQEND
  0
POLYLINE
  8
Default
 66
     1
 10
0.0
 20
0.0
 30
0.0
 70
     1
  0
VERTEX
  8
Default
 10
343.409073862822
 20
210.0001555125
 42
-0.0011019261294
  0
VERTEX
  8
Default
 10
342.755752374925
 20
209.99601511903
 42
0.0
  0
VERTEX
  8
Default
 10
304.947795899374
 20
170.671248003608
 42
0.0
  0
VERTEX
  8
Default
 10
305.367462218993
 20
170.234417721561
 42
0.0
  0
VERTEX
  8
Default
 10
380.763174483131
 20
170.234417721561
 42
0.0
  0
VERTEX
  8
Default
 10
381.180734700157
 20
170.668832774082
 42
0.0007848334847
  0
VERTEX
  8
Default
 10
343.41415616632
 20
210.00014918326
 42
0.0
  0
SEQEND
  0
POLYLINE
  8
Default
 66
     1
 10
0.0
 20
0.0
 30
0.0
 70
     1
  0
VERTEX
  8
Default
 10
719.226210502831
 20
209.999465446922
 42
-0.0011019261293
  0
VERTEX
  8
Default
 10
718.572889014934
 20
209.995325053452
 42
0.0
  0
VERTEX
  8
Default
 10
680.764932539383
 20
170.670557938029
 42
0.0
  0
VERTEX
  8
Default
 10
681.183935907524
 20
170.234417721561
 42
0.0
  0
VERTEX
  8
Default
 10
756.580974414919
 20
170.234417721561
 42
0.0
  0
VERTEX
  8
Default
 10
756.997871340166
 20
170.668142708503
 42
0.0007848334847
  0
VERTEX
  8
Default
 10
719.231292806329
 20
209.999459117682
 42
0.0
  0
SEQEND
  0
POLYLINE
  8
Default
 66
     1
 10
0.0
 20
0.0
 30
0.0
 70
     1
  0
VERTEX
  8
Default
 10
656.592037487176
 20
1725.6320840433
 42
0.0007848843022
  0
VERTEX
  8
Default
 10
694.36369832451
 20
1764.96340678172
 42
0.0
  0
VERTEX
  8
Default
 10
656.567840395031
 20
1804.28541363483
 42
-0.0086605262863
  0
VERTEX
  8
Default
 10
655.910038427871
 20
1804.28972900866
 42
0.0
  0
VERTEX
  8
Default
 10
655.914518907134
 20
1804.28972654469
 42
0.0
  0
VERTEX
  8
Default
 10
618.130759523727
 20
1764.9609915522
 42
0.0
  0
VERTEX
  8
Default
 10
655.938715999278
 20
1725.63605192038
 42
0.0
  0
VERTEX
  8
Default
 10
655.931928979876
 20
1725.63628047702
 42
0.0036448314017
  0
SEQEND
  0
POLYLINE
  8
Default
 66
     1
 10
0.0
 20
0.0
 30
0.0
 70
     1
  0
VERTEX
  8
Default
 10
781.182864938446
 20
1804.28989906109
 42
-0.0023744349597
  0
VERTEX
  8
Default
 10
743.411204101112
 20
1764.96133658499
 42
0.0
  0
VERTEX
  8
Default
 10
781.20706203059
 20
1725.63656946956
 42
-0.0011104978941
  0
VERTEX
  8
Default
 10
781.865465821986
 20
1725.63243540533
 42
0.0
  0
VERTEX
  8
Default
 10
781.860383518488
 20
1725.63242907609
 42
0.0
  0
VERTEX
  8
Default
 10
819.644142901894
 20
1764.96375181451
 42
0.0
  0
VERTEX
  8
Default
 10
781.836186426344
 20
1804.28575866762
 42
0.0
  0
VERTEX
  8
Default
 10
781.841877057954
 20
1804.28560982598
 42
0.0031511703211
  0
SEQEND
  0
POLYLINE
  8
Default
 66
     1
 10
0.0
 20
0.0
 30
0.0
 70
     1
  0
VERTEX
  8
Default
 10
531.299494363719
 20
1804.28524111844
 42
0.0
  0
VERTEX
  8
Default
 10
569.095352293197
 20
1764.96323426533
 42
0.0
  0
VERTEX
  8
Default
 10
531.311592909791
 20
1725.63191152691
 42
0.0
  0
VERTEX
  8
Default
 10
531.316675213289
 20
1725.63191785615
 42
0.0011104978586
  0
VERTEX
  8
Default
 10
530.658271421893
 20
1725.63605192038
 42
0.0
  0
VERTEX
  8
Default
 10
492.862413492415
 20
1764.9609915522
 42
-0.0007282514068
  0
VERTEX
  8
Default
 10
530.646172875821
 20
1804.2895540283
 42
0.0
  0
VERTEX
  8
Default
 10
530.641692396559
 20
1804.28955649226
 42
0.008660524886
  0
SEQEND
  0
POLYLINE
  8
Default
 66
     1
 10
0.0
 20
0.0
 30
0.0
 70
     1
  0
VERTEX
  8
Default
 10
405.372249741673
 20
1675.54874606789
 42
-0.0023744349597
  0
VERTEX
  8
Default
 10
367.600588904339
 20
1636.22018359179
 42
0.0
  0
VERTEX
  8
Default
 10
405.396446833817
 20
1596.89541647637
 42
-0.0084919882363
  0
VERTEX
  8
Default
 10
406.054968950637
 20
1596.89127017582
 42
0.0
  0
VERTEX
  8
Default
 10
406.049768321715
 20
1596.8912760829
 42
0.0
  0
VERTEX
  8
Default
 10
443.833527705121
 20
1636.22259882131
 42
0.0
  0
VERTEX
  8
Default
 10
406.02557122957
 20
1675.54460567442
 42
0.0
  0
VERTEX
  8
Default
 10
406.03126186118
 20
1675.54445683278
 42
0.0031511701908
  0
SEQEND
  0
POLYLINE
  8
Default
 66
     1
 10
0.0
 20
0.0
 30
0.0
 70
     1
  0
VERTEX
  8
Default
 10
656.598558930412
 20
1596.89196614847
 42
0.0007848843022
  0
VERTEX
  8
Default
 10
694.370219767746
 20
1636.22328888689
 42
0.0
  0
VERTEX
  8
Default
 10
656.574361838267
 20
1675.54529574
 42
-0.0086605262863
  0
VERTEX
  8
Default
 10
655.916559871107
 20
1675.54961111383
 42
0.0
  0
VERTEX
  8
Default
 10
655.92104035037
 20
1675.54960864987
 42
0.0
  0
VERTEX
  8
Default
 10
618.137280966964
 20
1636.22087365737
 42
0.0
  0
VERTEX
  8
Default
 10
655.945237442514
 20
1596.89593402555
 42
0.0
  0
VERTEX
  8
Default
 10
655.938450423113
 20
1596.89616258219
 42
0.0036448314017
  0
SEQEND
  0
POLYLINE
  8
Default
 66
     1
 10
0.0
 20
0.0
 30
0.0
 70
     1
  0
VERTEX
  8
Default
 10
468.659744245226
 20
1739.91323276059
 42
0.0
  0
VERTEX
  8
Default
 10
506.467700720777
 20
1700.59139842388
 42
0.0
  0
VERTEX
  8
Default
 10
468.683941337371
 20
1661.26007568546
 42
0.0
  0
VERTEX
  8
Default
 10
468.689023640869
 20
1661.2600820147
 42
0.0011104978807
  0
VERTEX
  8
Default
 10
468.030619849473
 20
1661.26421607893
 42
0.0
  0
VERTEX
  8
Default
 10
430.234761919995
 20
1700.58898319435
 42
0.0
  0
VERTEX
  8
Default
 10
468.018521303401
 20
1739.91840825243
 42
0.0
  0
VERTEX
  8
Default
 10
468.014171619336
 20
1739.91702594947
 42
0.1940964110269
  0
VERTEX
  8
Default
 10
468.665312704175
 20
1739.91269107427
 42
0.0
  0
SEQEND
  0
POLYLINE
  8
Default
 66
     1
 10
0.0
 20
0.0
 30
0.0
 70
     1
  0
VERTEX
  8
Default
 10
718.562962228033
 20
1739.91875111341
 42
0.194133331447
  0
VERTEX
  8
Default
 10
719.214225485533
 20
1739.91446405011
 42
0.0
  0
VERTEX
  8
Default
 10
719.208534853924
 20
1739.91323276059
 42
0.0
  0
VERTEX
  8
Default
 10
757.004392783402
 20
1700.59174345667
 42
-0.0007848843021
  0
VERTEX
  8
Default
 10
719.232731946068
 20
1661.26042071825
 42
0.0
  0
VERTEX
  8
Default
 10
719.237814249566
 20
1661.26042704749
 42
0.0011104976367
  0
VERTEX
  8
Default
 10
718.57941045817
 20
1661.26456111172
 42
0.0
  0
VERTEX
  8
Default
 10
680.771453982619
 20
1700.58932822714
 42
0.0
  0
VERTEX
  8
Default
 10
718.555213366026
 20
1739.91840825243
 42
-0.0002988213644
  0
SEQEND
  0
POLYLINE
  8
Default
 66
     1
 10
0.0
 20
0.0
 30
0.0
 70
     1
  0
VERTEX
  8
Default
 10
781.189386381682
 20
1675.54978116626
 42
-0.0023744349597
  0
VERTEX
  8
Default
 10
743.417725544348
 20
1636.22121869016
 42
0.0
  0
VERTEX
  8
Default
 10
781.213583473827
 20
1596.89645157473
 42
-0.0011104978941
  0
VERTEX
  8
Default
 10
781.871987265222
 20
1596.8923175105
 42
0.0
  0
VERTEX
  8
Default
 10
781.866904961724
 20
1596.89231118126
 42
0.0
  0
VERTEX
  8
Default
 10
819.65066434513
 20
1636.22363391968
 42
0.0
  0
VERTEX
  8
Default
 10
781.84270786958
 20
1675.54564077279
 42
0.0
  0
VERTEX
  8
Default
 10
781.848398501189
 20
1675.54549193115
 42
0.0031511703211
  0
SEQEND
  0
POLYLINE
  8
Default
 66
     1
 10
0.0
 20
0.0
 30
0.0
 70
     1
  0
VERTEX
  8
Default
 10
531.306015806955
 20
1675.54512322361
 42
0.0
  0
VERTEX
  8
Default
 10
569.101873736433
 20
1636.2231163705
 42
0.0
  0
VERTEX
  8
Default
 10
531.318114353027
 20
1596.89179363208
 42
0.0
  0
VERTEX
  8
Default
 10
531.323196656525
 20
1596.89179996132
 42
0.0011104978586
  0
VERTEX
  8
Default
 10
530.664792865129
 20
1596.89593402555
 42
0.0
  0
VERTEX
  8
Default
 10
492.868934935651
 20
1636.22087365737
 42
-0.0007282514068
  0
VERTEX
  8
Default
 10
530.652694319057
 20
1675.54943613347
 42
0.0
  0
VERTEX
  8
Default
 10
530.648213839795
 20
1675.54943859743
 42
0.008660524886
  0
SEQEND
  0
POLYLINE
  8
Default
 66
     1
 10
0.0
 20
0.0
 30
0.0
 70
     1
  0
VERTEX
  8
Default
 10
593.964385914756
 20
1661.26007568546
 42
-0.0023999086743
  0
VERTEX
  8
Default
 10
631.736046752089
 20
1700.59139842388
 42
0.0
  0
VERTEX
  8
Default
 10
593.940188822611
 20
1739.91323276059
 42
-0.1895779610707
  0
VERTEX
  8
Default
 10
593.282386855451
 20
1739.91703058523
 42
0.0
  0
VERTEX
  8
Default
 10
593.286867334714
 20
1739.91840825243
 42
0.0
  0
VERTEX
  8
Default
 10
555.503107951307
 20
1700.58898319435
 42
0.0
  0
VERTEX
  8
Default
 10
593.311064426858
 20
1661.26404356254
 42
0.0
  0
VERTEX
  8
Default
 10
593.304171865701
 20
1661.26419486233
 42
0.0026971635478
  0
SEQEND
  0
POLYLINE
  8
Default
 66
     1
 10
0.0
 20
0.0
 30
0.0
 70
     1
  0
VERTEX
  8
Default
 10
593.272817092842
 20
1611.17397708679
 42
0.1941368430684
  0
VERTEX
  8
Default
 10
593.924097616766
 20
1611.16959265674
 42
0.0
  0
VERTEX
  8
Default
 10
593.91852051393
 20
1611.1684540982
 42
0.0
  0
VERTEX
  8
Default
 10
631.714378443408
 20
1571.84679227788
 42
0.0
  0
VERTEX
  8
Default
 10
593.942717606074
 20
1532.51581457225
 42
-0.0026971636271
  0
VERTEX
  8
Default
 10
593.28250355702
 20
1532.51993374912
 42
0.0
  0
VERTEX
  8
Default
 10
593.289396118176
 20
1532.51995496572
 42
0.0
  0
VERTEX
  8
Default
 10
555.481439642626
 20
1571.84506711393
 42
-0.0005543225092
  0
VERTEX
  8
Default
 10
593.265199026032
 20
1611.17362959004
 42
-0.0003025998155
  0
SEQEND
  0
POLYLINE
  8
Default
 66
     1
 10
0.0
 20
0.0
 30
0.0
 70
     1
  0
VERTEX
  8
Default
 10
406.003902920889
 20
1546.80258727434
 42
0.0
  0
VERTEX
  8
Default
 10
443.81185939644
 20
1507.48075293763
 42
0.0
  0
VERTEX
  8
Default
 10
406.028100013034
 20
1468.14943019921
 42
0.0
  0
VERTEX
  8
Default
 10
406.033182316532
 20
1468.14943652845
 42
0.0011104978807
  0
VERTEX
  8
Default
 10
405.374778525136
 20
1468.15357059268
 42
0.0
  0
VERTEX
  8
Default
 10
367.578920595657
 20
1507.47833770811
 42
0.0
  0
VERTEX
  8
Default
 10
405.362679979064
 20
1546.80776276618
 42
0.0
  0
VERTEX
  8
Default
 10
405.358330294999
 20
1546.80638046322
 42
0.1940964110269
  0
VERTEX
  8
Default
 10
406.009471379838
 20
1546.80204558802
 42
0.0
  0
SEQEND
  0
POLYLINE
  8
Default
 66
     1
 10
0.0
 20
0.0
 30
0.0
 70
     1
  0
VERTEX
  8
Default
 10
655.907120903696
 20
1546.80810562717
 42
0.194133331447
  0
VERTEX
  8
Default
 10
656.558384161196
 20
1546.80381856386
 42
0.0
  0
VERTEX
  8
Default
 10
656.552693529586
 20
1546.80258727434
 42
0.0
  0
VERTEX
  8
Default
 10
694.348551459065
 20
1507.48109797042
 42
-0.0007848843021
  0
VERTEX
  8
Default
 10
656.57689062173
 20
1468.149775232
 42
0.0
  0
VERTEX
  8
Default
 10
656.581972925228
 20
1468.14978156124
 42
0.0011104976367
  0
VERTEX
  8
Default
 10
655.923569133833
 20
1468.15391562547
 42
0.0
  0
VERTEX
  8
Default
 10
618.115612658283
 20
1507.47868274089
 42
0.0
  0
VERTEX
  8
Default
 10
655.899372041689
 20
1546.80776276618
 42
-0.0002988213644
  0
SEQEND
  0
POLYLINE
  8
Default
 66
     1
 10
0.0
 20
0.0
 30
0.0
 70
     1
  0
VERTEX
  8
Default
 10
468.650174482618
 20
1611.17017926215
 42
0.0
  0
VERTEX
  8
Default
 10
506.446032412096
 20
1571.84851744183
 42
-0.0008733986517
  0
VERTEX
  8
Default
 10
468.662273028689
 20
1532.51771225259
 42
0.0
  0
VERTEX
  8
Default
 10
468.667355332188
 20
1532.51771858183
 42
0.0011104977265
  0
VERTEX
  8
Default
 10
468.008951540792
 20
1532.52185264606
 42
0.0
  0
VERTEX
  8
Default
 10
430.213093611314
 20
1571.84679227788
 42
0.0
  0
VERTEX
  8
Default
 10
467.99685299472
 20
1611.17535475398
 42
0.0
  0
VERTEX
  8
Default
 10
467.992372515458
 20
1611.17570225074
 42
-0.0832479568614
  0
SEQEND
  0
POLYLINE
  8
Default
 66
     1
 10
0.0
 20
0.0
 30
0.0
 70
     1
  0
VERTEX
  8
Default
 10
718.533545057344
 20
1482.43913568001
 42
-0.0023744349597
  0
VERTEX
  8
Default
 10
680.761884220011
 20
1443.11057320391
 42
0.0
  0
VERTEX
  8
Default
 10
718.557742149489
 20
1403.78580608849
 42
-0.0011104978941
  0
VERTEX
  8
Default
 10
719.216145940885
 20
1403.78167202426
 42
0.0
  0
VERTEX
  8
Default
 10
719.211063637386
 20
1403.78166569502
 42
0.0
  0
VERTEX
  8
Default
 10
756.994823020793
 20
1443.11298843343
 42
0.0
  0
VERTEX
  8
Default
 10
719.186866545242
 20
1482.43499528654
 42
0.0
  0
VERTEX
  8
Default
 10
719.192557176852
 20
1482.4348464449
 42
0.0031511703211
  0
SEQEND
  0
POLYLINE
  8
Default
 66
     1
 10
0.0
 20
0.0
 30
0.0
 70
     1
  0
VERTEX
  8
Default
 10
531.308544590418
 20
1468.14943019921
 42
-0.0023999086743
  0
VERTEX
  8
Default
 10
569.080205427752
 20
1507.48075293763
 42
0.0
  0
VERTEX
  8
Default
 10
531.284347498274
 20
1546.80258727434
 42
-0.1895779610707
  0
VERTEX
  8
Default
 10
530.626545531113
 20
1546.80638509899
 42
0.0
  0
VERTEX
  8
Default
 10
530.631026010376
 20
1546.80776276618
 42
0.0
  0
VERTEX
  8
Default
 10
492.84726662697
 20
1507.47833770811
 42
0.0
  0
VERTEX
  8
Default
 10
530.655223102521
 20
1468.15339807629
 42
0.0
  0
VERTEX
  8
Default
 10
530.648330541364
 20
1468.15354937608
 42
0.0026971635478
  0
SEQEND
  0
POLYLINE
  8
Default
 66
     1
 10
0.0
 20
0.0
 30
0.0
 70
     1
  0
VERTEX
  8
Default
 10
718.541293919352
 20
1611.17569761497
 42
0.1941333316227
  0
VERTEX
  8
Default
 10
719.192557176852
 20
1611.17141055166
 42
0.0
  0
VERTEX
  8
Default
 10
719.186866545242
 20
1611.17190442609
 42
0.0
  0
VERTEX
  8
Default
 10
756.994823020793
 20
1571.85024260577
 42
-0.0006191649595
  0
VERTEX
  8
Default
 10
719.211063637386
 20
1532.51840231817
 42
0.0
  0
VERTEX
  8
Default
 10
719.216145940885
 20
1532.51840864741
 42
0.0053238972757
  0
VERTEX
  8
Default
 10
718.557742149489
 20
1532.52254271164
 42
0.0
  0
VERTEX
  8
Default
 10
680.761884220011
 20
1571.84679227788
 42
0.0
  0
VERTEX
  8
Default
 10
718.533545057345
 20
1611.17535475398
 42
-0.000298821324
  0
SEQEND
  0
POLYLINE
  8
Default
 66
     1
 10
0.0
 20
0.0
 30
0.0
 70
     1
  0
VERTEX
  8
Default
 10
342.724157279343
 20
1611.17569761497
 42
0.1941333313923
  0
VERTEX
  8
Default
 10
343.375420536843
 20
1611.17141055166
 42
1.0905484761177
  0
VERTEX
  8
Default
 10
343.369729905233
 20
1611.17017926215
 42
0.0
  0
VERTEX
  8
Default
 10
381.177686380784
 20
1571.84851744183
 42
0.0
  0
VERTEX
  8
Default
 10
343.393926997377
 20
1532.51771225259
 42
0.0
  0
VERTEX
  8
Default
 10
343.399009300875
 20
1532.51771858183
 42
0.0011104975743
  0
VERTEX
  8
Default
 10
342.74060550948
 20
1532.52185264606
 42
0.0
  0
VERTEX
  8
Default
 10
304.944747580001
 20
1571.84679227788
 42
0.0
  0
VERTEX
  8
Default
 10
342.716408417335
 20
1611.17535475398
 42
-0.0002988213547
  0
SEQEND
  0
POLYLINE
  8
Default
 66
     1
 10
0.0
 20
0.0
 30
0.0
 70
     1
  0
VERTEX
  8
Default
 10
342.716408417335
 20
1482.43810058165
 42
-0.0023744349597
  0
VERTEX
  8
Default
 10
304.944747580001
 20
1443.10953810554
 42
0.0
  0
VERTEX
  8
Default
 10
342.74060550948
 20
1403.78477099012
 42
-0.0084919882363
  0
VERTEX
  8
Default
 10
343.399127626299
 20
1403.78062468957
 42
0.0
  0
VERTEX
  8
Default
 10
343.393926997377
 20
1403.78063059665
 42
0.0
  0
VERTEX
  8
Default
 10
381.177686380783
 20
1443.11195333507
 42
0.0
  0
VERTEX
  8
Default
 10
343.369729905233
 20
1482.43396018817
 42
0.0
  0
VERTEX
  8
Default
 10
343.375420536843
 20
1482.43381134653
 42
0.0031511701908
  0
SEQEND
  0
POLYLINE
  8
Default
 66
     1
 10
0.0
 20
0.0
 30
0.0
 70
     1
  0
VERTEX
  8
Default
 10
656.592037487176
 20
1339.3025404433
 42
0.0007848843022
  0
VERTEX
  8
Default
 10
694.363698324509
 20
1378.63386318172
 42
0.0
  0
VERTEX
  8
Default
 10
656.567840395031
 20
1417.95587003483
 42
-0.0086605262863
  0
VERTEX
  8
Default
 10
655.910038427871
 20
1417.96018540866
 42
0.0
  0
VERTEX
  8
Default
 10
655.914518907134
 20
1417.96018294469
 42
0.0
  0
VERTEX
  8
Default
 10
618.130759523727
 20
1378.6314479522
 42
0.0
  0
VERTEX
  8
Default
 10
655.938715999278
 20
1339.30650832038
 42
0.0
  0
VERTEX
  8
Default
 10
655.931928979876
 20
1339.30673687702
 42
0.0036448314017
  0
SEQEND
  0
POLYLINE
  8
Default
 66
     1
 10
0.0
 20
0.0
 30
0.0
 70
     1
  0
VERTEX
  8
Default
 10
531.299494363719
 20
1417.95569751844
 42
0.0
  0
VERTEX
  8
Default
 10
569.095352293197
 20
1378.63369066533
 42
0.0
  0
VERTEX
  8
Default
 10
531.311592909791
 20
1339.30236792691
 42
0.0
  0
VERTEX
  8
Default
 10
531.316675213289
 20
1339.30237425615
 42
0.0011104978586
  0
VERTEX
  8
Default
 10
530.658271421893
 20
1339.30650832038
 42
0.0
  0
VERTEX
  8
Default
 10
492.862413492415
 20
1378.6314479522
 42
-0.0007282514068
  0
VERTEX
  8
Default
 10
530.646172875821
 20
1417.9600104283
 42
0.0
  0
VERTEX
  8
Default
 10
530.641692396559
 20
1417.96001289226
 42
0.008660524886
  0
SEQEND
  0
POLYLINE
  8
Default
 66
     1
 10
0.0
 20
0.0
 30
0.0
 70
     1
  0
VERTEX
  8
Default
 10
405.365728298436
 20
1417.95932036272
 42
-0.0023744349597
  0
VERTEX
  8
Default
 10
367.594067461103
 20
1378.63075788662
 42
0.0
  0
VERTEX
  8
Default
 10
405.389925390581
 20
1339.30599077119
 42
-0.0084919882363
  0
VERTEX
  8
Default
 10
406.048447507401
 20
1339.30184447065
 42
0.0
  0
VERTEX
  8
Default
 10
406.043246878479
 20
1339.30185037772
 42
0.0
  0
VERTEX
  8
Default
 10
443.827006261885
 20
1378.63317311614
 42
0.0
  0
VERTEX
  8
Default
 10
406.019049786334
 20
1417.95517996925
 42
0.0
  0
VERTEX
  8
Default
 10
406.024740417944
 20
1417.95503112761
 42
0.0031511701908
  0
SEQEND
  0
POLYLINE
  8
Default
 66
     1
 10
0.0
 20
0.0
 30
0.0
 70
     1
  0
VERTEX
  8
Default
 10
718.562962228033
 20
1353.58920751342
 42
0.194133331447
  0
VERTEX
  8
Default
 10
719.214225485533
 20
1353.58492045011
 42
0.0
  0
VERTEX
  8
Default
 10
719.208534853923
 20
1353.58368916059
 42
0.0
  0
VERTEX
  8
Default
 10
757.004392783402
 20
1314.26219985667
 42
-0.0007848843021
  0
VERTEX
  8
Default
 10
719.232731946067
 20
1274.93087711825
 42
0.0
  0
VERTEX
  8
Default
 10
719.237814249566
 20
1274.93088344749
 42
0.0011104976367
  0
VERTEX
  8
Default
 10
718.57941045817
 20
1274.93501751172
 42
0.0
  0
VERTEX
  8
Default
 10
680.771453982619
 20
1314.25978462714
 42
0.0
  0
VERTEX
  8
Default
 10
718.555213366026
 20
1353.58886465243
 42
-0.0002988213644
  0
SEQEND
  0
POLYLINE
  8
Default
 66
     1
 10
0.0
 20
0.0
 30
0.0
 70
     1
  0
VERTEX
  8
Default
 10
280.097382267124
 20
1804.28920899551
 42
-0.0023744349597
  0
VERTEX
  8
Default
 10
242.32572142979
 20
1764.96064651941
 42
0.0
  0
VERTEX
  8
Default
 10
280.121579359269
 20
1725.63587940398
 42
-0.0011104978941
  0
VERTEX
  8
Default
 10
280.779983150664
 20
1725.63174533976
 42
0.0
  0
VERTEX
  8
Default
 10
280.774900847166
 20
1725.63173901051
 42
0.0
  0
VERTEX
  8
Default
 10
318.558660230573
 20
1764.96306174893
 42
0.0
  0
VERTEX
  8
Default
 10
280.750703755022
 20
1804.28506860204
 42
0.0
  0
VERTEX
  8
Default
 10
280.756394386632
 20
1804.2849197604
 42
0.0031511703211
  0
SEQEND
  0
POLYLINE
  8
Default
 66
     1
 10
0.0
 20
0.0
 30
0.0
 70
     1
  0
VERTEX
  8
Default
 10
217.477479556711
 20
1739.91806104784
 42
0.194133331447
  0
VERTEX
  8
Default
 10
218.128742814211
 20
1739.91377398453
 42
0.0
  0
VERTEX
  8
Default
 10
218.123052182601
 20
1739.91254269501
 42
0.0
  0
VERTEX
  8
Default
 10
255.91891011208
 20
1700.59105339109
 42
-0.0007848843021
  0
VERTEX
  8
Default
 10
218.147249274746
 20
1661.25973065267
 42
0.0
  0
VERTEX
  8
Default
 10
218.152331578244
 20
1661.25973698191
 42
0.0011104976367
  0
VERTEX
  8
Default
 10
217.493927786848
 20
1661.26387104614
 42
0.0
  0
VERTEX
  8
Default
 10
179.685971311298
 20
1700.58863816156
 42
0.0
  0
VERTEX
  8
Default
 10
217.469730694704
 20
1739.91771818685
 42
-0.0002988213644
  0
SEQEND
  0
POLYLINE
  8
Default
 66
     1
 10
0.0
 20
0.0
 30
0.0
 70
     1
  0
VERTEX
  8
Default
 10
280.103903710361
 20
1675.54909110068
 42
-0.0023744349597
  0
VERTEX
  8
Default
 10
242.332242873026
 20
1636.22052862458
 42
0.0
  0
VERTEX
  8
Default
 10
280.128100802505
 20
1596.89576150916
 42
-0.0011104978941
  0
VERTEX
  8
Default
 10
280.7865045939
 20
1596.89162744493
 42
0.0
  0
VERTEX
  8
Default
 10
280.781422290402
 20
1596.89162111569
 42
0.0
  0
VERTEX
  8
Default
 10
318.565181673808
 20
1636.2229438541
 42
0.0
  0
VERTEX
  8
Default
 10
280.757225198258
 20
1675.54495070721
 42
0.0
  0
VERTEX
  8
Default
 10
280.762915829868
 20
1675.54480186557
 42
0.0031511703211
  0
SEQEND
  0
POLYLINE
  8
Default
 66
     1
 10
0.0
 20
0.0
 30
0.0
 70
     1
  0
VERTEX
  8
Default
 10
217.448062386023
 20
1482.43844561443
 42
-0.0023744349597
  0
VERTEX
  8
Default
 10
179.676401548689
 20
1443.10988313833
 42
0.0
  0
VERTEX
  8
Default
 10
217.472259478167
 20
1403.78511602291
 42
-0.0011104978941
  0
VERTEX
  8
Default
 10
218.130663269563
 20
1403.78098195868
 42
0.0
  0
VERTEX
  8
Default
 10
218.125580966065
 20
1403.78097562944
 42
0.0
  0
VERTEX
  8
Default
 10
255.909340349471
 20
1443.11229836786
 42
0.0
  0
VERTEX
  8
Default
 10
218.10138387392
 20
1482.43430522096
 42
0.0
  0
VERTEX
  8
Default
 10
218.10707450553
 20
1482.43415637932
 42
0.0031511703211
  0
SEQEND
  0
POLYLINE
  8
Default
 66
     1
 10
0.0
 20
0.0
 30
0.0
 70
     1
  0
VERTEX
  8
Default
 10
217.45581124803
 20
1611.17500754939
 42
0.1941333316227
  0
VERTEX
  8
Default
 10
218.10707450553
 20
1611.17072048608
 42
0.0
  0
VERTEX
  8
Default
 10
218.101383873921
 20
1611.17121436052
 42
0.0
  0
VERTEX
  8
Default
 10
255.909340349471
 20
1571.84955254019
 42
-0.0006191649595
  0
VERTEX
  8
Default
 10
218.125580966065
 20
1532.51771225259
 42
0.0
  0
VERTEX
  8
Default
 10
218.130663269563
 20
1532.51771858183
 42
0.0053238972757
  0
VERTEX
  8
Default
 10
217.472259478167
 20
1532.52185264606
 42
0.0
  0
VERTEX
  8
Default
 10
179.676401548689
 20
1571.8461022123
 42
0.0
  0
VERTEX
  8
Default
 10
217.448062386023
 20
1611.17466468841
 42
-0.000298821324
  0
SEQEND
  0
POLYLINE
  8
Default
 66
     1
 10
0.0
 20
0.0
 30
0.0
 70
     1
  0
VERTEX
  8
Default
 10
406.055345424551
 20
1725.63139397772
 42
-0.0023999086742
  0
VERTEX
  8
Default
 10
443.827006261885
 20
1764.96271671614
 42
0.0
  0
VERTEX
  8
Default
 10
406.031148332406
 20
1804.28472356925
 42
-0.0051768129439
  0
VERTEX
  8
Default
 10
405.373477160444
 20
1804.28903430731
 42
0.0
  0
VERTEX
  8
Default
 10
405.377826844509
 20
1804.28903647912
 42
0.0
  0
VERTEX
  8
Default
 10
367.594067461103
 20
1764.96047400301
 42
0.0
  0
VERTEX
  8
Default
 10
405.402023936653
 20
1725.63570688759
 42
0.0
  0
VERTEX
  8
Default
 10
405.395236917252
 20
1725.63559041144
 42
0.0036448314967
  0
SEQEND
  0
POLYLINE
  8
Default
 66
     1
 10
0.0
 20
0.0
 30
0.0
 70
     1
  0
VERTEX
  8
Default
 10
343.391398213914
 20
1739.90702217038
 42
0.0
  0
VERTEX
  8
Default
 10
381.199354689465
 20
1700.58518783367
 42
0.0
  0
VERTEX
  8
Default
 10
343.415595306058
 20
1661.25386509525
 42
0.0
  0
VERTEX
  8
Default
 10
343.420677609556
 20
1661.25387142449
 42
0.0011104978807
  0
VERTEX
  8
Default
 10
342.762273818161
 20
1661.25800548872
 42
0.0
  0
VERTEX
  8
Default
 10
304.966415888683
 20
1700.58277260414
 42
0.0
  0
VERTEX
  8
Default
 10
342.750175272089
 20
1739.91219766222
 42
0.0
  0
VERTEX
  8
Default
 10
342.745825588024
 20
1739.91081535926
 42
0.1940964110269
  0
VERTEX
  8
Default
 10
343.396966672863
 20
1739.90648048406
 42
0.0
  0
SEQEND
  0
POLYLINE
  8
Default
 66
     1
 10
0.0
 20
0.0
 30
0.0
 70
     1
  0
VERTEX
  8
Default
 10
217.483170188321
 20
1353.5818129832
 42
0.1941333316227
  0
VERTEX
  8
Default
 10
218.134433445821
 20
1353.57752591989
 42
0.0
  0
VERTEX
  8
Default
 10
218.128742814211
 20
1353.57801979432
 42
0.0
  0
VERTEX
  8
Default
 10
255.936699289762
 20
1314.256357974
 42
-0.0006191649595
  0
VERTEX
  8
Default
 10
218.152939906356
 20
1274.9245176864
 42
0.0
  0
VERTEX
  8
Default
 10
218.158022209854
 20
1274.92452401564
 42
0.0053238972757
  0
VERTEX
  8
Default
 10
217.499618418458
 20
1274.92865807987
 42
0.0
  0
VERTEX
  8
Default
 10
179.70376048898
 20
1314.25290764611
 42
0.0
  0
VERTEX
  8
Default
 10
217.475421326314
 20
1353.58147012221
 42
-0.000298821324
  0
SEQEND
  0
POLYLINE
  8
Default
 66
     1
 10
0.0
 20
0.0
 30
0.0
 70
     1
  0
VERTEX
  8
Default
 10
782.487580479041
 20
1417.95054323738
 42
0.0
  0
VERTEX
  8
Default
 10
820.295536954592
 20
1378.62939896625
 42
0.0
  0
VERTEX
  8
Default
 10
782.511777571186
 20
1339.29807622783
 42
0.0
  0
VERTEX
  8
Default
 10
782.516859874684
 20
1339.29808255707
 42
0.0011104976853
  0
VERTEX
  8
Default
 10
781.858456083288
 20
1339.3022166213
 42
0.0
  0
VERTEX
  8
Default
 10
744.06259815381
 20
1378.62715625312
 42
-0.000554322509
  0
VERTEX
  8
Default
 10
781.846357537216
 20
1417.95571872922
 42
0.0
  0
VERTEX
  8
Default
 10
781.841877057954
 20
1417.95606622598
 42
0.1941368430048
  0
VERTEX
  8
Default
 10
782.493157581877
 20
1417.95168179593
 42
0.0
  0
SEQEND
  0
POLYLINE
  8
Default
 66
     1
 10
0.0
 20
0.0
 30
0.0
 70
     1
  0
VERTEX
  8
Default
 10
781.849405856588
 20
1289.10831142413
 42
-0.0023744349597
  0
VERTEX
  8
Default
 10
744.077745019255
 20
1249.77974894803
 42
0.0
  0
VERTEX
  8
Default
 10
781.873602948733
 20
1210.4549818326
 42
-0.0011104978941
  0
VERTEX
  8
Default
 10
782.532006740129
 20
1210.45084776837
 42
0.0
  0
VERTEX
  8
Default
 10
782.52692443663
 20
1210.45084143913
 42
0.0
  0
VERTEX
  8
Default
 10
820.310683820037
 20
1249.78216417755
 42
0.0
  0
VERTEX
  8
Default
 10
782.502727344486
 20
1289.10417103066
 42
0.0
  0
VERTEX
  8
Default
 10
782.508417976096
 20
1289.10402218902
 42
0.0031511703211
  0
SEQEND
  0
POLYLINE
  8
Default
 66
     1
 10
0.0
 20
0.0
 30
0.0
 70
     1
  0
VERTEX
  8
Default
 10
280.771852527793
 20
1468.14943019921
 42
-0.0023999086743
  0
VERTEX
  8
Default
 10
318.543513365127
 20
1507.48075293763
 42
0.0
  0
VERTEX
  8
Default
 10
280.747655435649
 20
1546.80258727434
 42
-0.1895779610707
  0
VERTEX
  8
Default
 10
280.089853468489
 20
1546.80638509899
 42
0.0
  0
VERTEX
  8
Default
 10
280.094333947751
 20
1546.80776276618
 42
0.0
  0
VERTEX
  8
Default
 10
242.310574564345
 20
1507.47833770811
 42
0.0
  0
VERTEX
  8
Default
 10
280.118531039896
 20
1468.15339807629
 42
0.0
  0
VERTEX
  8
Default
 10
280.111638478739
 20
1468.15354937608
 42
0.0026971635478
  0
SEQEND
  0
POLYLINE
  8
Default
 66
     1
 10
0.0
 20
0.0
 30
0.0
 70
     1
  0
VERTEX
  8
Default
 10
781.18756548108
 20
1546.80862317635
 42
0.194133331447
  0
VERTEX
  8
Default
 10
781.83882873858
 20
1546.80433611304
 42
0.0
  0
VERTEX
  8
Default
 10
781.83313810697
 20
1546.80310482353
 42
0.0
  0
VERTEX
  8
Default
 10
819.628996036449
 20
1507.48161551961
 42
-0.0007848843021
  0
VERTEX
  8
Default
 10
781.857335199115
 20
1468.15029278119
 42
0.0
  0
VERTEX
  8
Default
 10
781.862417502613
 20
1468.15029911043
 42
0.0011104976367
  0
VERTEX
  8
Default
 10
781.204013711217
 20
1468.15443317466
 42
0.0
  0
VERTEX
  8
Default
 10
743.396057235667
 20
1507.47920029008
 42
0.0
  0
VERTEX
  8
Default
 10
781.179816619073
 20
1546.80828031537
 42
-0.0002988213644
  0
SEQEND
  0
POLYLINE
  8
Default
 66
     1
 10
0.0
 20
0.0
 30
0.0
 70
     1
  0
VERTEX
  8
Default
 10
468.637945141348
 20
1482.43499992231
 42
0.0
  0
VERTEX
  8
Default
 10
506.445901616899
 20
1443.1131655856
 42
0.0
  0
VERTEX
  8
Default
 10
468.662142233492
 20
1403.78184284718
 42
0.0
  0
VERTEX
  8
Default
 10
468.667224536991
 20
1403.78184917642
 42
0.0011104978807
  0
VERTEX
  8
Default
 10
468.008820745595
 20
1403.78598324065
 42
0.0
  0
VERTEX
  8
Default
 10
430.212962816116
 20
1443.11075035607
 42
0.0
  0
VERTEX
  8
Default
 10
467.996722199523
 20
1482.44017541415
 42
0.0
  0
VERTEX
  8
Default
 10
467.992372515458
 20
1482.43879311119
 42
0.1940964110269
  0
VERTEX
  8
Default
 10
468.643513600297
 20
1482.43445823599
 42
0.0
  0
SEQEND
  0
POLYLINE
  8
Default
 66
     1
 10
0.0
 20
0.0
 30
0.0
 70
     1
  0
VERTEX
  8
Default
 10
593.26833661358
 20
1482.43931312434
 42
0.1941368430684
  0
VERTEX
  8
Default
 10
593.919617137503
 20
1482.43492869429
 42
0.0
  0
VERTEX
  8
Default
 10
593.914040034667
 20
1482.43379013575
 42
0.0
  0
VERTEX
  8
Default
 10
631.709897964146
 20
1443.11212831543
 42
0.0
  0
VERTEX
  8
Default
 10
593.938237126812
 20
1403.7811506098
 42
-0.0026971636271
  0
VERTEX
  8
Default
 10
593.278023077758
 20
1403.78526978666
 42
0.0
  0
VERTEX
  8
Default
 10
593.284915638914
 20
1403.78529100327
 42
0.0
  0
VERTEX
  8
Default
 10
555.476959163364
 20
1443.11040315148
 42
-0.0005543225092
  0
VERTEX
  8
Default
 10
593.26071854677
 20
1482.43896562758
 42
-0.0003025998155
  0
SEQEND
  0
POLYLINE
  8
Default
 66
     1
 10
0.0
 20
0.0
 30
0.0
 70
     1
  0
VERTEX
  8
Default
 10
280.780591478776
 20
1339.30221908527
 42
-0.0023999086743
  0
VERTEX
  8
Default
 10
318.55225231611
 20
1378.63354182369
 42
0.0
  0
VERTEX
  8
Default
 10
280.756394386632
 20
1417.9553761604
 42
-0.1895779610707
  0
VERTEX
  8
Default
 10
280.098592419471
 20
1417.95917398504
 42
0.0
  0
VERTEX
  8
Default
 10
280.103072898734
 20
1417.96055165224
 42
0.0
  0
VERTEX
  8
Default
 10
242.319313515327
 20
1378.63112659416
 42
0.0
  0
VERTEX
  8
Default
 10
280.127269990878
 20
1339.30618696234
 42
0.0
  0
VERTEX
  8
Default
 10
280.120377429721
 20
1339.30633826213
 42
0.0026971635478
  0
SEQEND
  0
POLYLINE
  8
Default
 66
     1
 10
0.0
 20
0.0
 30
0.0
 70
     1
  0
VERTEX
  8
Default
 10
593.25856927007
 20
1353.70206204067
 42
0.0
  0
VERTEX
  8
Default
 10
567.124359726092
 20
1326.49922626767
 42
-0.0463530085448
  0
VERTEX
  8
Default
 10
626.123583445912
 20
1308.54540330077
 42
0.0001162439204
  0
VERTEX
  8
Default
 10
631.709897964146
 20
1314.37797943819
 42
0.0
  0
VERTEX
  8
Default
 10
593.914040034667
 20
1353.6999862913
 42
-0.0086015539601
  0
VERTEX
  8
Default
 10
593.26071854677
 20
1353.70429920116
 42
0.0
  0
SEQEND
  0
POLYLINE
  8
Default
 66
     1
 10
0.0
 20
0.0
 30
0.0
 70
     1
  0
VERTEX
  8
Default
 10
844.506655080216
 20
1790.00105616226
 42
0.0011019261294
  0
VERTEX
  8
Default
 10
843.853333592318
 20
1790.00519655573
 42
0.0
  0
VERTEX
  8
Default
 10
806.045377116768
 20
1829.32996367116
 42
0.0
  0
VERTEX
  8
Default
 10
806.463883271298
 20
1829.76558633844
 42
0.0
  0
VERTEX
  8
Default
 10
846.142989308336
 20
1829.76558633844
 42
0.0
  0
VERTEX
  8
Default
 10
846.142989308332
 20
1791.69984339359
 42
-0.000033898664
  0
VERTEX
  8
Default
 10
844.511737383714
 20
1790.0010624915
 42
0.0
  0
SEQEND
  0
POLYLINE
  8
Default
 66
     1
 10
0.0
 20
0.0
 30
0.0
 70
     1
  0
VERTEX
  8
Default
 10
343.409073862822
 20
1789.9998485475
 42
0.0011019261294
  0
VERTEX
  8
Default
 10
342.755752374925
 20
1790.00398894097
 42
0.0
  0
VERTEX
  8
Default
 10
304.947795899374
 20
1829.32875605639
 42
0.0
  0
VERTEX
  8
Default
 10
305.367462218994
 20
1829.76558633844
 42
0.0
  0
VERTEX
  8
Default
 10
380.763174483131
 20
1829.76558633844
 42
0.0
  0
VERTEX
  8
Default
 10
381.180734700157
 20
1829.33117128592
 42
-0.0007848334847
  0
VERTEX
  8
Default
 10
343.41415616632
 20
1789.99985487674
 42
0.0
  0
SEQEND
  0
POLYLINE
  8
Default
 66
     1
 10
0.0
 20
0.0
 30
0.0
 70
     1
  0
VERTEX
  8
Default
 10
719.226210502831
 20
1790.00053861308
 42
0.0011019261293
  0
VERTEX
  8
Default
 10
718.572889014934
 20
1790.00467900655
 42
0.0
  0
VERTEX
  8
Default
 10
680.764932539383
 20
1829.32944612197
 42
0.0
  0
VERTEX
  8
Default
 10
681.183935907524
 20
1829.76558633844
 42
0.0
  0
VERTEX
  8
Default
 10
756.580974414919
 20
1829.76558633844
 42
0.0
  0
VERTEX
  8
Default
 10
756.997871340166
 20
1829.3318613515
 42
-0.0007848334847
  0
VERTEX
  8
Default
 10
719.23129280633
 20
1790.00054494232
 42
0.0
  0
SEQEND
  0
POLYLINE
  8
Default
 66
     1
 10
0.0
 20
0.0
 30
0.0
 70
     1
  0
VERTEX
  8
Default
 10
538.049860487283
 20
1000.00000203
 42
1.7320508075689
  0
VERTEX
  8
Default
 10
480.975067851359
 20
967.047855137707
 42
0.5773502691896
  0
SEQEND
  0
POLYLINE
  8
Default
 66
     1
 10
0.0
 20
0.0
 30
0.0
 70
     1
  0
VERTEX
  8
Default
 10
30.1429893083362
 20
149.787013731265
 42
0.0
  0
VERTEX
  8
Default
 10
30.142989308336
 20
136.137519373007
 42
0.0
  0
VERTEX
  8
Default
 10
119.792407638442
 20
136.137519373007
 42
0.0
  0
VERTEX
  8
Default
 10
119.792407638442
 20
71.9688376605411
 42
0.0
  0
VERTEX
  8
Default
 10
74.9842450622291
 20
71.9688376605411
 42
0.0
  0
VERTEX
  8
Default
 10
74.9842450622291
 20
90.756965188956
 42
0.0
  0
VERTEX
  8
Default
 10
61.052017259729
 20
90.756965188956
 42
0.0
  0
VERTEX
  8
Default
 10
61.052017259729
 20
58.3193433022834
 42
0.0
  0
VERTEX
  8
Default
 10
133.857008151658
 20
58.3193433022834
 42
0.0
  0
VERTEX
  8
Default
 10
133.857008151658
 20
149.787013731265
 42
0.0
  0
SEQEND
  0
POLYLINE
  8
Default
 66
     1
 10
0.0
 20
0.0
 30
0.0
 70
     1
  0
VERTEX
  8
Default
 10
30.142989308336
 20
29.318182348142
 42
0.0
  0
VERTEX
  8
Default
 10
133.857008151658
 20
29.318182348142
 42
0.0
  0
VERTEX
  8
Default
 10
133.857008151658
 20
42.9676767063979
 42
0.0
  0
VERTEX
  8
Default
 10
44.207589821551
 20
42.9676767063979
 42
0.0
  0
VERTEX
  8
Default
 10
44.207589821551
 20
107.136358418864
 42
0.0
  0
VERTEX
  8
Default
 10
89.0488455754442
 20
107.136358418864
 42
0.0
  0
VERTEX
  8
Default
 10
89.0488455754442
 20
88.3482308904495
 42
0.0
  0
VERTEX
  8
Default
 10
103.047259733302
 20
88.3482308904495
 42
0.0
  0
VERTEX
  8
Default
 10
103.047259733302
 20
120.785852777121
 42
0.0
  0
VERTEX
  8
Default
 10
30.142989308336
 20
120.785852777121
 42
0.0
  0
SEQEND
  0
POLYLINE
  8
Default
 66
     1
 10
0.0
 20
0.0
 30
0.0
 70
     1
  0
VERTEX
  8
Default
 10
30.1429893083367
 20
289.855845114387
 42
0.0
  0
VERTEX
  8
Default
 10
30.1429893083364
 20
276.206350756129
 42
0.0
  0
VERTEX
  8
Default
 10
119.792407638443
 20
276.206350756129
 42
0.0
  0
VERTEX
  8
Default
 10
119.792407638443
 20
212.037669043664
 42
0.0
  0
VERTEX
  8
Default
 10
74.9842450622296
 20
212.037669043664
 42
0.0
  0
VERTEX
  8
Default
 10
74.9842450622296
 20
230.825796572079
 42
0.0
  0
VERTEX
  8
Default
 10
61.0520172597294
 20
230.825796572079
 42
0.0
  0
VERTEX
  8
Default
 10
61.0520172597294
 20
198.388174685406
 42
0.0
  0
VERTEX
  8
Default
 10
133.857008151658
 20
198.388174685406
 42
0.0
  0
VERTEX
  8
Default
 10
133.857008151658
 20
289.855845114387
 42
0.0
  0
SEQEND
  0
POLYLINE
  8
Default
 66
     1
 10
0.0
 20
0.0
 30
0.0
 70
     1
  0
VERTEX
  8
Default
 10
30.1429893083364
 20
169.387013731264
 42
0.0
  0
VERTEX
  8
Default
 10
133.857008151658
 20
169.387013731264
 42
0.0
  0
VERTEX
  8
Default
 10
133.857008151658
 20
183.03650808952
 42
0.0
  0
VERTEX
  8
Default
 10
44.2075898215515
 20
183.03650808952
 42
0.0
  0
VERTEX
  8
Default
 10
44.2075898215515
 20
247.205189801987
 42
0.0
  0
VERTEX
  8
Default
 10
89.0488455754447
 20
247.205189801987
 42
0.0
  0
VERTEX
  8
Default
 10
89.0488455754447
 20
228.417062273572
 42
0.0
  0
VERTEX
  8
Default
 10
103.047259733303
 20
228.417062273572
 42
0.0
  0
VERTEX
  8
Default
 10
103.047259733303
 20
260.854684160244
 42
0.0
  0
VERTEX
  8
Default
 10
30.1429893083364
 20
260.854684160244
 42
0.0
  0
SEQEND
  0
POLYLINE
  8
Default
 66
     1
 10
0.0
 20
0.0
 30
0.0
 70
     1
  0
VERTEX
  8
Default
 10
30.1429893083371
 20
429.92467649751
 42
0.0
  0
VERTEX
  8
Default
 10
30.1429893083369
 20
416.275182139252
 42
0.0
  0
VERTEX
  8
Default
 10
119.792407638443
 20
416.275182139252
 42
0.0
  0
VERTEX
  8
Default
 10
119.792407638443
 20
352.106500426786
 42
0.0
  0
VERTEX
  8
Default
 10
74.9842450622301
 20
352.106500426786
 42
0.0
  0
VERTEX
  8
Default
 10
74.9842450622301
 20
370.894627955201
 42
0.0
  0
VERTEX
  8
Default
 10
61.0520172597299
 20
370.894627955201
 42
0.0
  0
VERTEX
  8
Default
 10
61.0520172597299
 20
338.457006068528
 42
0.0
  0
VERTEX
  8
Default
 10
133.857008151659
 20
338.457006068528
 42
0.0
  0
VERTEX
  8
Default
 10
133.857008151659
 20
429.92467649751
 42
0.0
  0
SEQEND
  0
POLYLINE
  8
Default
 66
     1
 10
0.0
 20
0.0
 30
0.0
 70
     1
  0
VERTEX
  8
Default
 10
30.1429893083369
 20
309.455845114387
 42
0.0
  0
VERTEX
  8
Default
 10
133.857008151658
 20
309.455845114387
 42
0.0
  0
VERTEX
  8
Default
 10
133.857008151659
 20
323.105339472643
 42
0.0
  0
VERTEX
  8
Default
 10
44.2075898215519
 20
323.105339472643
 42
0.0
  0
VERTEX
  8
Default
 10
44.2075898215519
 20
387.27402118511
 42
0.0
  0
VERTEX
  8
Default
 10
89.0488455754451
 20
387.27402118511
 42
0.0
  0
VERTEX
  8
Default
 10
89.0488455754451
 20
368.485893656695
 42
0.0
  0
VERTEX
  8
Default
 10
103.047259733303
 20
368.485893656695
 42
0.0
  0
VERTEX
  8
Default
 10
103.047259733303
 20
400.923515543366
 42
0.0
  0
VERTEX
  8
Default
 10
30.1429893083369
 20
400.923515543366
 42
0.0
  0
SEQEND
  0
POLYLINE
  8
Default
 66
     1
 10
0.0
 20
0.0
 30
0.0
 70
     1
  0
VERTEX
  8
Default
 10
30.1429893083376
 20
569.993507880632
 42
0.0
  0
VERTEX
  8
Default
 10
30.1429893083373
 20
556.344013522374
 42
0.0
  0
VERTEX
  8
Default
 10
119.792407638443
 20
556.344013522374
 42
0.0
  0
VERTEX
  8
Default
 10
119.792407638443
 20
492.175331809909
 42
0.0
  0
VERTEX
  8
Default
 10
74.9842450622305
 20
492.175331809909
 42
0.0
  0
VERTEX
  8
Default
 10
74.9842450622305
 20
510.963459338324
 42
0.0
  0
VERTEX
  8
Default
 10
61.0520172597303
 20
510.963459338324
 42
0.0
  0
VERTEX
  8
Default
 10
61.0520172597303
 20
478.525837451651
 42
0.0
  0
VERTEX
  8
Default
 10
133.857008151659
 20
478.525837451651
 42
0.0
  0
VERTEX
  8
Default
 10
133.857008151659
 20
569.993507880632
 42
0.0
  0
SEQEND
  0
POLYLINE
  8
Default
 66
     1
 10
0.0
 20
0.0
 30
0.0
 70
     1
  0
VERTEX
  8
Default
 10
30.1429893083373
 20
449.52467649751
 42
0.0
  0
VERTEX
  8
Default
 10
133.857008151659
 20
449.52467649751
 42
0.0
  0
VERTEX
  8
Default
 10
133.857008151659
 20
463.174170855766
 42
0.0
  0
VERTEX
  8
Default
 10
44.2075898215524
 20
463.174170855766
 42
0.0
  0
VERTEX
  8
Default
 10
44.2075898215524
 20
527.342852568232
 42
0.0
  0
VERTEX
  8
Default
 10
89.0488455754456
 20
527.342852568232
 42
0.0
  0
VERTEX
  8
Default
 10
89.0488455754456
 20
508.554725039817
 42
0.0
  0
VERTEX
  8
Default
 10
103.047259733304
 20
508.554725039817
 42
0.0
  0
VERTEX
  8
Default
 10
103.047259733304
 20
540.992346926489
 42
0.0
  0
VERTEX
  8
Default
 10
30.1429893083373
 20
540.992346926489
 42
0.0
  0
SEQEND
  0
POLYLINE
  8
Default
 66
     1
 10
0.0
 20
0.0
 30
0.0
 70
     1
  0
VERTEX
  8
Default
 10
30.142989308338
 20
710.062339263755
 42
0.0
  0
VERTEX
  8
Default
 10
30.1429893083378
 20
696.412844905497
 42
0.0
  0
VERTEX
  8
Default
 10
119.792407638444
 20
696.412844905497
 42
0.0
  0
VERTEX
  8
Default
 10
119.792407638444
 20
632.244163193031
 42
0.0
  0
VERTEX
  8
Default
 10
74.984245062231
 20
632.244163193031
 42
0.0
  0
VERTEX
  8
Default
 10
74.984245062231
 20
651.032290721446
 42
0.0
  0
VERTEX
  8
Default
 10
61.0520172597308
 20
651.032290721446
 42
0.0
  0
VERTEX
  8
Default
 10
61.0520172597308
 20
618.594668834774
 42
0.0
  0
VERTEX
  8
Default
 10
133.85700815166
 20
618.594668834774
 42
0.0
  0
VERTEX
  8
Default
 10
133.85700815166
 20
710.062339263755
 42
0.0
  0
SEQEND
  0
POLYLINE
  8
Default
 66
     1
 10
0.0
 20
0.0
 30
0.0
 70
     1
  0
VERTEX
  8
Default
 10
30.1429893083378
 20
589.593507880632
 42
0.0
  0
VERTEX
  8
Default
 10
133.857008151659
 20
589.593507880632
 42
0.0
  0
VERTEX
  8
Default
 10
133.85700815166
 20
603.243002238888
 42
0.0
  0
VERTEX
  8
Default
 10
44.2075898215529
 20
603.243002238888
 42
0.0
  0
VERTEX
  8
Default
 10
44.2075898215529
 20
667.411683951355
 42
0.0
  0
VERTEX
  8
Default
 10
89.048845575446
 20
667.411683951355
 42
0.0
  0
VERTEX
  8
Default
 10
89.048845575446
 20
648.62355642294
 42
0.0
  0
VERTEX
  8
Default
 10
103.047259733304
 20
648.62355642294
 42
0.0
  0
VERTEX
  8
Default
 10
103.047259733304
 20
681.061178309611
 42
0.0
  0
VERTEX
  8
Default
 10
30.1429893083378
 20
681.061178309611
 42
0.0
  0
SEQEND
  0
POLYLINE
  8
Default
 66
     1
 10
0.0
 20
0.0
 30
0.0
 70
     1
  0
VERTEX
  8
Default
 10
30.1429893083385
 20
850.131170646877
 42
0.0
  0
VERTEX
  8
Default
 10
30.1429893083383
 20
836.48167628862
 42
0.0
  0
VERTEX
  8
Default
 10
119.792407638444
 20
836.48167628862
 42
0.0
  0
VERTEX
  8
Default
 10
119.792407638444
 20
772.312994576154
 42
0.0
  0
VERTEX
  8
Default
 10
74.9842450622314
 20
772.312994576154
 42
0.0
  0
VERTEX
  8
Default
 10
74.9842450622314
 20
791.101122104569
 42
0.0
  0
VERTEX
  8
Default
 10
61.0520172597313
 20
791.101122104569
 42
0.0
  0
VERTEX
  8
Default
 10
61.0520172597313
 20
758.663500217896
 42
0.0
  0
VERTEX
  8
Default
 10
133.85700815166
 20
758.663500217896
 42
0.0
  0
VERTEX
  8
Default
 10
133.85700815166
 20
850.131170646877
 42
0.0
  0
SEQEND
  0
POLYLINE
  8
Default
 66
     1
 10
0.0
 20
0.0
 30
0.0
 70
     1
  0
VERTEX
  8
Default
 10
30.1429893083383
 20
729.662339263755
 42
0.0
  0
VERTEX
  8
Default
 10
133.85700815166
 20
729.662339263755
 42
0.0
  0
VERTEX
  8
Default
 10
133.85700815166
 20
743.311833622011
 42
0.0
  0
VERTEX
  8
Default
 10
44.2075898215533
 20
743.311833622011
 42
0.0
  0
VERTEX
  8
Default
 10
44.2075898215533
 20
807.480515334477
 42
0.0
  0
VERTEX
  8
Default
 10
89.0488455754465
 20
807.480515334477
 42
0.0
  0
VERTEX
  8
Default
 10
89.0488455754465
 20
788.692387806062
 42
0.0
  0
VERTEX
  8
Default
 10
103.047259733304
 20
788.692387806062
 42
0.0
  0
VERTEX
  8
Default
 10
103.047259733304
 20
821.130009692734
 42
0.0
  0
VERTEX
  8
Default
 10
30.1429893083383
 20
821.130009692734
 42
0.0
  0
SEQEND
  0
POLYLINE
  8
Default
 66
     1
 10
0.0
 20
0.0
 30
0.0
 70
     1
  0
VERTEX
  8
Default
 10
30.1429893083389
 20
990.20000203
 42
0.0
  0
VERTEX
  8
Default
 10
30.1429893083387
 20
976.550507671742
 42
0.0
  0
VERTEX
  8
Default
 10
119.792407638445
 20
976.550507671742
 42
0.0
  0
VERTEX
  8
Default
 10
119.792407638445
 20
912.381825959277
 42
0.0
  0
VERTEX
  8
Default
 10
74.9842450622319
 20
912.381825959277
 42
0.0
  0
VERTEX
  8
Default
 10
74.9842450622319
 20
931.169953487691
 42
0.0
  0
VERTEX
  8
Default
 10
61.0520172597317
 20
931.169953487691
 42
0.0
  0
VERTEX
  8
Default
 10
61.0520172597317
 20
898.732331601019
 42
0.0
  0
VERTEX
  8
Default
 10
133.857008151661
 20
898.732331601019
 42
0.0
  0
VERTEX
  8
Default
 10
133.857008151661
 20
990.20000203
 42
0.0
  0
SEQEND
  0
POLYLINE
  8
Default
 66
     1
 10
0.0
 20
0.0
 30
0.0
 70
     1
  0
VERTEX
  8
Default
 10
30.1429893083387
 20
869.731170646877
 42
0.0
  0
VERTEX
  8
Default
 10
133.85700815166
 20
869.731170646877
 42
0.0
  0
VERTEX
  8
Default
 10
133.857008151661
 20
883.380665005133
 42
0.0
  0
VERTEX
  8
Default
 10
44.2075898215538
 20
883.380665005133
 42
0.0
  0
VERTEX
  8
Default
 10
44.2075898215538
 20
947.5493467176
 42
0.0
  0
VERTEX
  8
Default
 10
89.0488455754469
 20
947.5493467176
 42
0.0
  0
VERTEX
  8
Default
 10
89.0488455754469
 20
928.761219189185
 42
0.0
  0
VERTEX
  8
Default
 10
103.047259733305
 20
928.761219189185
 42
0.0
  0
VERTEX
  8
Default
 10
103.047259733305
 20
961.198841075857
 42
0.0
  0
VERTEX
  8
Default
 10
30.1429893083387
 20
961.198841075857
 42
0.0
  0
SEQEND
  0
POLYLINE
  8
Default
 66
     1
 10
0.0
 20
0.0
 30
0.0
 70
     1
  0
VERTEX
  8
Default
 10
30.1429893083394
 20
1130.26883341312
 42
0.0
  0
VERTEX
  8
Default
 10
30.1429893083392
 20
1116.61933905486
 42
0.0
  0
VERTEX
  8
Default
 10
119.792407638445
 20
1116.61933905486
 42
0.0
  0
VERTEX
  8
Default
 10
119.792407638445
 20
1052.4506573424
 42
0.0
  0
VERTEX
  8
Default
 10
74.9842450622323
 20
1052.4506573424
 42
0.0
  0
VERTEX
  8
Default
 10
74.9842450622323
 20
1071.23878487081
 42
0.0
  0
VERTEX
  8
Default
 10
61.0520172597322
 20
1071.23878487081
 42
0.0
  0
VERTEX
  8
Default
 10
61.0520172597322
 20
1038.80116298414
 42
0.0
  0
VERTEX
  8
Default
 10
133.857008151661
 20
1038.80116298414
 42
0.0
  0
VERTEX
  8
Default
 10
133.857008151661
 20
1130.26883341312
 42
0.0
  0
SEQEND
  0
POLYLINE
  8
Default
 66
     1
 10
0.0
 20
0.0
 30
0.0
 70
     1
  0
VERTEX
  8
Default
 10
30.1429893083392
 20
1009.80000203
 42
0.0
  0
VERTEX
  8
Default
 10
133.857008151661
 20
1009.80000203
 42
0.0
  0
VERTEX
  8
Default
 10
133.857008151661
 20
1023.44949638826
 42
0.0
  0
VERTEX
  8
Default
 10
44.2075898215542
 20
1023.44949638826
 42
0.0
  0
VERTEX
  8
Default
 10
44.2075898215542
 20
1087.61817810072
 42
0.0
  0
VERTEX
  8
Default
 10
89.0488455754474
 20
1087.61817810072
 42
0.0
  0
VERTEX
  8
Default
 10
89.0488455754474
 20
1068.83005057231
 42
0.0
  0
VERTEX
  8
Default
 10
103.047259733305
 20
1068.83005057231
 42
0.0
  0
VERTEX
  8
Default
 10
103.047259733305
 20
1101.26767245898
 42
0.0
  0
VERTEX
  8
Default
 10
30.1429893083392
 20
1101.26767245898
 42
0.0
  0
SEQEND
  0
POLYLINE
  8
Default
 66
     1
 10
0.0
 20
0.0
 30
0.0
 70
     1
  0
VERTEX
  8
Default
 10
30.1429893083399
 20
1270.33766479625
 42
0.0
  0
VERTEX
  8
Default
 10
30.1429893083396
 20
1256.68817043799
 42
0.0
  0
VERTEX
  8
Default
 10
119.792407638446
 20
1256.68817043799
 42
0.0
  0
VERTEX
  8
Default
 10
119.792407638446
 20
1192.51948872552
 42
0.0
  0
VERTEX
  8
Default
 10
74.9842450622328
 20
1192.51948872552
 42
0.0
  0
VERTEX
  8
Default
 10
74.9842450622328
 20
1211.30761625394
 42
0.0
  0
VERTEX
  8
Default
 10
61.0520172597326
 20
1211.30761625394
 42
0.0
  0
VERTEX
  8
Default
 10
61.0520172597326
 20
1178.86999436726
 42
0.0
  0
VERTEX
  8
Default
 10
133.857008151662
 20
1178.86999436726
 42
0.0
  0
VERTEX
  8
Default
 10
133.857008151662
 20
1270.33766479625
 42
0.0
  0
SEQEND
  0
POLYLINE
  8
Default
 66
     1
 10
0.0
 20
0.0
 30
0.0
 70
     1
  0
VERTEX
  8
Default
 10
30.1429893083396
 20
1149.86883341312
 42
0.0
  0
VERTEX
  8
Default
 10
133.857008151661
 20
1149.86883341312
 42
0.0
  0
VERTEX
  8
Default
 10
133.857008151662
 20
1163.51832777138
 42
0.0
  0
VERTEX
  8
Default
 10
44.2075898215547
 20
1163.51832777138
 42
0.0
  0
VERTEX
  8
Default
 10
44.2075898215547
 20
1227.68700948385
 42
0.0
  0
VERTEX
  8
Default
 10
89.0488455754478
 20
1227.68700948385
 42
0.0
  0
VERTEX
  8
Default
 10
89.0488455754478
 20
1208.89888195543
 42
0.0
  0
VERTEX
  8
Default
 10
103.047259733306
 20
1208.89888195543
 42
0.0
  0
VERTEX
  8
Default
 10
103.047259733306
 20
1241.3365038421
 42
0.0
  0
VERTEX
  8
Default
 10
30.1429893083396
 20
1241.3365038421
 42
0.0
  0
SEQEND
  0
POLYLINE
  8
Default
 66
     1
 10
0.0
 20
0.0
 30
0.0
 70
     1
  0
VERTEX
  8
Default
 10
30.1429893083403
 20
1410.40649617937
 42
0.0
  0
VERTEX
  8
Default
 10
30.1429893083401
 20
1396.75700182111
 42
0.0
  0
VERTEX
  8
Default
 10
119.792407638446
 20
1396.75700182111
 42
0.0
  0
VERTEX
  8
Default
 10
119.792407638446
 20
1332.58832010864
 42
0.0
  0
VERTEX
  8
Default
 10
74.9842450622332
 20
1332.58832010864
 42
0.0
  0
VERTEX
  8
Default
 10
74.9842450622332
 20
1351.37644763706
 42
0.0
  0
VERTEX
  8
Default
 10
61.0520172597331
 20
1351.37644763706
 42
0.0
  0
VERTEX
  8
Default
 10
61.0520172597331
 20
1318.93882575039
 42
0.0
  0
VERTEX
  8
Default
 10
133.857008151662
 20
1318.93882575039
 42
0.0
  0
VERTEX
  8
Default
 10
133.857008151662
 20
1410.40649617937
 42
0.0
  0
SEQEND
  0
POLYLINE
  8
Default
 66
     1
 10
0.0
 20
0.0
 30
0.0
 70
     1
  0
VERTEX
  8
Default
 10
30.1429893083401
 20
1289.93766479625
 42
0.0
  0
VERTEX
  8
Default
 10
133.857008151662
 20
1289.93766479625
 42
0.0
  0
VERTEX
  8
Default
 10
133.857008151662
 20
1303.5871591545
 42
0.0
  0
VERTEX
  8
Default
 10
44.2075898215551
 20
1303.5871591545
 42
0.0
  0
VERTEX
  8
Default
 10
44.2075898215551
 20
1367.75584086697
 42
0.0
  0
VERTEX
  8
Default
 10
89.0488455754483
 20
1367.75584086697
 42
0.0
  0
VERTEX
  8
Default
 10
89.0488455754483
 20
1348.96771333855
 42
0.0
  0
VERTEX
  8
Default
 10
103.047259733306
 20
1348.96771333855
 42
0.0
  0
VERTEX
  8
Default
 10
103.047259733306
 20
1381.40533522522
 42
0.0
  0
VERTEX
  8
Default
 10
30.1429893083401
 20
1381.40533522522
 42
0.0
  0
SEQEND
  0
POLYLINE
  8
Default
 66
     1
 10
0.0
 20
0.0
 30
0.0
 70
     1
  0
VERTEX
  8
Default
 10
30.1429893083408
 20
1550.47532756249
 42
0.0
  0
VERTEX
  8
Default
 10
30.1429893083405
 20
1536.82583320423
 42
0.0
  0
VERTEX
  8
Default
 10
119.792407638447
 20
1536.82583320423
 42
0.0
  0
VERTEX
  8
Default
 10
119.792407638447
 20
1472.65715149177
 42
0.0
  0
VERTEX
  8
Default
 10
74.9842450622337
 20
1472.65715149177
 42
0.0
  0
VERTEX
  8
Default
 10
74.9842450622337
 20
1491.44527902018
 42
0.0
  0
VERTEX
  8
Default
 10
61.0520172597335
 20
1491.44527902018
 42
0.0
  0
VERTEX
  8
Default
 10
61.0520172597335
 20
1459.00765713351
 42
0.0
  0
VERTEX
  8
Default
 10
133.857008151663
 20
1459.00765713351
 42
0.0
  0
VERTEX
  8
Default
 10
133.857008151663
 20
1550.47532756249
 42
0.0
  0
SEQEND
  0
POLYLINE
  8
Default
 66
     1
 10
0.0
 20
0.0
 30
0.0
 70
     1
  0
VERTEX
  8
Default
 10
30.1429893083405
 20
1430.00649617937
 42
0.0
  0
VERTEX
  8
Default
 10
133.857008151662
 20
1430.00649617937
 42
0.0
  0
VERTEX
  8
Default
 10
133.857008151663
 20
1443.65599053762
 42
0.0
  0
VERTEX
  8
Default
 10
44.2075898215556
 20
1443.65599053762
 42
0.0
  0
VERTEX
  8
Default
 10
44.2075898215556
 20
1507.82467225009
 42
0.0
  0
VERTEX
  8
Default
 10
89.0488455754488
 20
1507.82467225009
 42
0.0
  0
VERTEX
  8
Default
 10
89.0488455754488
 20
1489.03654472168
 42
0.0
  0
VERTEX
  8
Default
 10
103.047259733307
 20
1489.03654472168
 42
0.0
  0
VERTEX
  8
Default
 10
103.047259733307
 20
1521.47416660835
 42
0.0
  0
VERTEX
  8
Default
 10
30.1429893083405
 20
1521.47416660835
 42
0.0
  0
SEQEND
  0
POLYLINE
  8
Default
 66
     1
 10
0.0
 20
0.0
 30
0.0
 70
     1
  0
VERTEX
  8
Default
 10
30.1429893083412
 20
1690.54415894561
 42
0.0
  0
VERTEX
  8
Default
 10
30.142989308341
 20
1676.89466458736
 42
0.0
  0
VERTEX
  8
Default
 10
119.792407638447
 20
1676.89466458736
 42
0.0
  0
VERTEX
  8
Default
 10
119.792407638447
 20
1612.72598287489
 42
0.0
  0
VERTEX
  8
Default
 10
74.9842450622342
 20
1612.72598287489
 42
0.0
  0
VERTEX
  8
Default
 10
74.9842450622342
 20
1631.5141104033
 42
0.0
  0
VERTEX
  8
Default
 10
61.052017259734
 20
1631.5141104033
 42
0.0
  0
VERTEX
  8
Default
 10
61.052017259734
 20
1599.07648851663
 42
0.0
  0
VERTEX
  8
Default
 10
133.857008151663
 20
1599.07648851663
 42
0.0
  0
VERTEX
  8
Default
 10
133.857008151663
 20
1690.54415894561
 42
0.0
  0
SEQEND
  0
POLYLINE
  8
Default
 66
     1
 10
0.0
 20
0.0
 30
0.0
 70
     1
  0
VERTEX
  8
Default
 10
30.142989308341
 20
1570.07532756249
 42
0.0
  0
VERTEX
  8
Default
 10
133.857008151663
 20
1570.07532756249
 42
0.0
  0
VERTEX
  8
Default
 10
133.857008151663
 20
1583.72482192075
 42
0.0
  0
VERTEX
  8
Default
 10
44.207589821556
 20
1583.72482192075
 42
0.0
  0
VERTEX
  8
Default
 10
44.207589821556
 20
1647.89350363321
 42
0.0
  0
VERTEX
  8
Default
 10
89.0488455754492
 20
1647.89350363321
 42
0.0
  0
VERTEX
  8
Default
 10
89.0488455754492
 20
1629.1053761048
 42
0.0
  0
VERTEX
  8
Default
 10
103.047259733307
 20
1629.1053761048
 42
0.0
  0
VERTEX
  8
Default
 10
103.047259733307
 20
1661.54299799147
 42
0.0
  0
VERTEX
  8
Default
 10
30.142989308341
 20
1661.54299799147
 42
0.0
  0
SEQEND
  0
POLYLINE
  8
Default
 66
     1
 10
0.0
 20
0.0
 30
0.0
 70
     1
  0
VERTEX
  8
Default
 10
30.1429893083417
 20
1830.61299032874
 42
0.0
  0
VERTEX
  8
Default
 10
30.1429893083414
 20
1816.96349597048
 42
0.0
  0
VERTEX
  8
Default
 10
119.792407638448
 20
1816.96349597048
 42
0.0
  0
VERTEX
  8
Default
 10
119.792407638448
 20
1752.79481425801
 42
0.0
  0
VERTEX
  8
Default
 10
74.9842450622346
 20
1752.79481425801
 42
0.0
  0
VERTEX
  8
Default
 10
74.9842450622346
 20
1771.58294178643
 42
0.0
  0
VERTEX
  8
Default
 10
61.0520172597344
 20
1771.58294178643
 42
0.0
  0
VERTEX
  8
Default
 10
61.0520172597344
 20
1739.14531989975
 42
0.0
  0
VERTEX
  8
Default
 10
133.857008151663
 20
1739.14531989975
 42
0.0
  0
VERTEX
  8
Default
 10
133.857008151663
 20
1830.61299032874
 42
0.0
  0
SEQEND
  0
POLYLINE
  8
Default
 66
     1
 10
0.0
 20
0.0
 30
0.0
 70
     1
  0
VERTEX
  8
Default
 10
30.1429893083414
 20
1710.14415894561
 42
0.0
  0
VERTEX
  8
Default
 10
133.857008151663
 20
1710.14415894561
 42
0.0
  0
VERTEX
  8
Default
 10
133.857008151663
 20
1723.79365330387
 42
0.0
  0
VERTEX
  8
Default
 10
44.2075898215565
 20
1723.79365330387
 42
0.0
  0
VERTEX
  8
Default
 10
44.2075898215565
 20
1787.96233501634
 42
0.0
  0
VERTEX
  8
Default
 10
89.0488455754497
 20
1787.96233501634
 42
0.0
  0
VERTEX
  8
Default
 10
89.0488455754497
 20
1769.17420748792
 42
0.0
  0
VERTEX
  8
Default
 10
103.047259733308
 20
1769.17420748792
 42
0.0
  0
VERTEX
  8
Default
 10
103.047259733308
 20
1801.61182937459
 42
0.0
  0
VERTEX
  8
Default
 10
30.1429893083414
 20
1801.61182937459
 42
0.0
  0
SEQEND
  0
POLYLINE
  8
Default
 66
     1
 10
0.0
 20
0.0
 30
0.0
 70
     1
  0
VERTEX
  8
Default
 10
30.1429893083421
 20
1970.68182171186
 42
0.0
  0
VERTEX
  8
Default
 10
30.1429893083419
 20
1957.0323273536
 42
0.0
  0
VERTEX
  8
Default
 10
119.792407638448
 20
1957.0323273536
 42
0.0
  0
VERTEX
  8
Default
 10
119.792407638448
 20
1892.86364564113
 42
0.0
  0
VERTEX
  8
Default
 10
74.9842450622351
 20
1892.86364564113
 42
0.0
  0
VERTEX
  8
Default
 10
74.9842450622351
 20
1911.65177316955
 42
0.0
  0
VERTEX
  8
Default
 10
61.0520172597349
 20
1911.65177316955
 42
0.0
  0
VERTEX
  8
Default
 10
61.0520172597349
 20
1879.21415128288
 42
0.0
  0
VERTEX
  8
Default
 10
133.857008151664
 20
1879.21415128288
 42
0.0
  0
VERTEX
  8
Default
 10
133.857008151664
 20
1970.68182171186
 42
0.0
  0
SEQEND
  0
POLYLINE
  8
Default
 66
     1
 10
0.0
 20
0.0
 30
0.0
 70
     1
  0
VERTEX
  8
Default
 10
30.1429893083419
 20
1850.21299032874
 42
0.0
  0
VERTEX
  8
Default
 10
133.857008151663
 20
1850.21299032874
 42
0.0
  0
VERTEX
  8
Default
 10
133.857008151664
 20
1863.86248468699
 42
0.0
  0
VERTEX
  8
Default
 10
44.207589821557
 20
1863.86248468699
 42
0.0
  0
VERTEX
  8
Default
 10
44.207589821557
 20
1928.03116639946
 42
0.0
  0
VERTEX
  8
Default
 10
89.0488455754501
 20
1928.03116639946
 42
0.0
  0
VERTEX
  8
Default
 10
89.0488455754501
 20
1909.24303887104
 42
0.0
  0
VERTEX
  8
Default
 10
103.047259733308
 20
1909.24303887104
 42
0.0
  0
VERTEX
  8
Default
 10
103.047259733308
 20
1941.68066075771
 42
0.0
  0
VERTEX
  8
Default
 10
30.1429893083419
 20
1941.68066075771
 42
0.0
  0
SEQEND
  0
POLYLINE
  8
Default
 66
     1
 10
0.0
 20
0.0
 30
0.0
 70
     1
  0
VERTEX
  8
Default
 10
969.857008151663
 20
149.787013731264
 42
0.0
  0
VERTEX
  8
Default
 10
969.857008151664
 20
136.137519373007
 42
0.0
  0
VERTEX
  8
Default
 10
880.207589821558
 20
136.137519373007
 42
0.0
  0
VERTEX
  8
Default
 10
880.207589821558
 20
71.968837660541
 42
0.0
  0
VERTEX
  8
Default
 10
925.01575239777
 20
71.968837660541
 42
0.0
  0
VERTEX
  8
Default
 10
925.01575239777
 20
90.7569651889559
 42
0.0
  0
VERTEX
  8
Default
 10
938.947980200271
 20
90.7569651889559
 42
0.0
  0
VERTEX
  8
Default
 10
938.947980200271
 20
58.3193433022833
 42
0.0
  0
VERTEX
  8
Default
 10
866.142989308342
 20
58.3193433022833
 42
0.0
  0
VERTEX
  8
Default
 10
866.142989308342
 20
149.787013731264
 42
0.0
  0
SEQEND
  0
POLYLINE
  8
Default
 66
     1
 10
0.0
 20
0.0
 30
0.0
 70
     1
  0
VERTEX
  8
Default
 10
969.857008151664
 20
29.3181823481419
 42
0.0
  0
VERTEX
  8
Default
 10
866.142989308342
 20
29.3181823481419
 42
0.0
  0
VERTEX
  8
Default
 10
866.142989308342
 20
42.9676767063978
 42
0.0
  0
VERTEX
  8
Default
 10
955.792407638449
 20
42.9676767063978
 42
0.0
  0
VERTEX
  8
Default
 10
955.792407638449
 20
107.136358418864
 42
0.0
  0
VERTEX
  8
Default
 10
910.951151884555
 20
107.136358418864
 42
0.0
  0
VERTEX
  8
Default
 10
910.951151884555
 20
88.3482308904494
 42
0.0
  0
VERTEX
  8
Default
 10
896.952737726697
 20
88.3482308904494
 42
0.0
  0
VERTEX
  8
Default
 10
896.952737726697
 20
120.785852777121
 42
0.0
  0
VERTEX
  8
Default
 10
969.857008151664
 20
120.785852777121
 42
0.0
  0
SEQEND
  0
POLYLINE
  8
Default
 66
     1
 10
0.0
 20
0.0
 30
0.0
 70
     1
  0
VERTEX
  8
Default
 10
969.857008151663
 20
289.855845114387
 42
0.0
  0
VERTEX
  8
Default
 10
969.857008151663
 20
276.206350756129
 42
0.0
  0
VERTEX
  8
Default
 10
880.207589821557
 20
276.206350756129
 42
0.0
  0
VERTEX
  8
Default
 10
880.207589821557
 20
212.037669043664
 42
0.0
  0
VERTEX
  8
Default
 10
925.01575239777
 20
212.037669043664
 42
0.0
  0
VERTEX
  8
Default
 10
925.01575239777
 20
230.825796572079
 42
0.0
  0
VERTEX
  8
Default
 10
938.94798020027
 20
230.825796572079
 42
0.0
  0
VERTEX
  8
Default
 10
938.94798020027
 20
198.388174685406
 42
0.0
  0
VERTEX
  8
Default
 10
866.142989308341
 20
198.388174685406
 42
0.0
  0
VERTEX
  8
Default
 10
866.142989308341
 20
289.855845114387
 42
0.0
  0
SEQEND
  0
POLYLINE
  8
Default
 66
     1
 10
0.0
 20
0.0
 30
0.0
 70
     1
  0
VERTEX
  8
Default
 10
969.857008151663
 20
169.387013731264
 42
0.0
  0
VERTEX
  8
Default
 10
866.142989308342
 20
169.387013731264
 42
0.0
  0
VERTEX
  8
Default
 10
866.142989308341
 20
183.03650808952
 42
0.0
  0
VERTEX
  8
Default
 10
955.792407638448
 20
183.03650808952
 42
0.0
  0
VERTEX
  8
Default
 10
955.792407638448
 20
247.205189801987
 42
0.0
  0
VERTEX
  8
Default
 10
910.951151884555
 20
247.205189801987
 42
0.0
  0
VERTEX
  8
Default
 10
910.951151884555
 20
228.417062273572
 42
0.0
  0
VERTEX
  8
Default
 10
896.952737726697
 20
228.417062273572
 42
0.0
  0
VERTEX
  8
Default
 10
896.952737726697
 20
260.854684160244
 42
0.0
  0
VERTEX
  8
Default
 10
969.857008151663
 20
260.854684160244
 42
0.0
  0
SEQEND
  0
POLYLINE
  8
Default
 66
     1
 10
0.0
 20
0.0
 30
0.0
 70
     1
  0
VERTEX
  8
Default
 10
969.857008151663
 20
429.924676497509
 42
0.0
  0
VERTEX
  8
Default
 10
969.857008151663
 20
416.275182139252
 42
0.0
  0
VERTEX
  8
Default
 10
880.207589821557
 20
416.275182139252
 42
0.0
  0
VERTEX
  8
Default
 10
880.207589821557
 20
352.106500426786
 42
0.0
  0
VERTEX
  8
Default
 10
925.01575239777
 20
352.106500426786
 42
0.0
  0
VERTEX
  8
Default
 10
925.01575239777
 20
370.894627955201
 42
0.0
  0
VERTEX
  8
Default
 10
938.94798020027
 20
370.894627955201
 42
0.0
  0
VERTEX
  8
Default
 10
938.94798020027
 20
338.457006068528
 42
0.0
  0
VERTEX
  8
Default
 10
866.142989308341
 20
338.457006068528
 42
0.0
  0
VERTEX
  8
Default
 10
866.142989308341
 20
429.924676497509
 42
0.0
  0
SEQEND
  0
POLYLINE
  8
Default
 66
     1
 10
0.0
 20
0.0
 30
0.0
 70
     1
  0
VERTEX
  8
Default
 10
969.857008151663
 20
309.455845114387
 42
0.0
  0
VERTEX
  8
Default
 10
866.142989308341
 20
309.455845114387
 42
0.0
  0
VERTEX
  8
Default
 10
866.142989308341
 20
323.105339472643
 42
0.0
  0
VERTEX
  8
Default
 10
955.792407638448
 20
323.105339472643
 42
0.0
  0
VERTEX
  8
Default
 10
955.792407638448
 20
387.27402118511
 42
0.0
  0
VERTEX
  8
Default
 10
910.951151884555
 20
387.27402118511
 42
0.0
  0
VERTEX
  8
Default
 10
910.951151884555
 20
368.485893656694
 42
0.0
  0
VERTEX
  8
Default
 10
896.952737726697
 20
368.485893656694
 42
0.0
  0
VERTEX
  8
Default
 10
896.952737726697
 20
400.923515543366
 42
0.0
  0
VERTEX
  8
Default
 10
969.857008151663
 20
400.923515543366
 42
0.0
  0
SEQEND
  0
POLYLINE
  8
Default
 66
     1
 10
0.0
 20
0.0
 30
0.0
 70
     1
  0
VERTEX
  8
Default
 10
969.857008151662
 20
569.993507880632
 42
0.0
  0
VERTEX
  8
Default
 10
969.857008151662
 20
556.344013522374
 42
0.0
  0
VERTEX
  8
Default
 10
880.207589821556
 20
556.344013522374
 42
0.0
  0
VERTEX
  8
Default
 10
880.207589821556
 20
492.175331809909
 42
0.0
  0
VERTEX
  8
Default
 10
925.015752397769
 20
492.175331809909
 42
0.0
  0
VERTEX
  8
Default
 10
925.015752397769
 20
510.963459338324
 42
0.0
  0
VERTEX
  8
Default
 10
938.947980200269
 20
510.963459338324
 42
0.0
  0
VERTEX
  8
Default
 10
938.947980200269
 20
478.525837451651
 42
0.0
  0
VERTEX
  8
Default
 10
866.14298930834
 20
478.525837451651
 42
0.0
  0
VERTEX
  8
Default
 10
866.14298930834
 20
569.993507880632
 42
0.0
  0
SEQEND
  0
POLYLINE
  8
Default
 66
     1
 10
0.0
 20
0.0
 30
0.0
 70
     1
  0
VERTEX
  8
Default
 10
969.857008151662
 20
449.52467649751
 42
0.0
  0
VERTEX
  8
Default
 10
866.142989308341
 20
449.52467649751
 42
0.0
  0
VERTEX
  8
Default
 10
866.14298930834
 20
463.174170855766
 42
0.0
  0
VERTEX
  8
Default
 10
955.792407638447
 20
463.174170855766
 42
0.0
  0
VERTEX
  8
Default
 10
955.792407638447
 20
527.342852568232
 42
0.0
  0
VERTEX
  8
Default
 10
910.951151884554
 20
527.342852568232
 42
0.0
  0
VERTEX
  8
Default
 10
910.951151884554
 20
508.554725039817
 42
0.0
  0
VERTEX
  8
Default
 10
896.952737726696
 20
508.554725039817
 42
0.0
  0
VERTEX
  8
Default
 10
896.952737726696
 20
540.992346926489
 42
0.0
  0
VERTEX
  8
Default
 10
969.857008151662
 20
540.992346926489
 42
0.0
  0
SEQEND
  0
POLYLINE
  8
Default
 66
     1
 10
0.0
 20
0.0
 30
0.0
 70
     1
  0
VERTEX
  8
Default
 10
969.857008151662
 20
710.062339263755
 42
0.0
  0
VERTEX
  8
Default
 10
969.857008151662
 20
696.412844905497
 42
0.0
  0
VERTEX
  8
Default
 10
880.207589821556
 20
696.412844905497
 42
0.0
  0
VERTEX
  8
Default
 10
880.207589821556
 20
632.244163193031
 42
0.0
  0
VERTEX
  8
Default
 10
925.015752397769
 20
632.244163193031
 42
0.0
  0
VERTEX
  8
Default
 10
925.015752397769
 20
651.032290721446
 42
0.0
  0
VERTEX
  8
Default
 10
938.947980200269
 20
651.032290721446
 42
0.0
  0
VERTEX
  8
Default
 10
938.947980200269
 20
618.594668834774
 42
0.0
  0
VERTEX
  8
Default
 10
866.14298930834
 20
618.594668834774
 42
0.0
  0
VERTEX
  8
Default
 10
866.14298930834
 20
710.062339263755
 42
0.0
  0
SEQEND
  0
POLYLINE
  8
Default
 66
     1
 10
0.0
 20
0.0
 30
0.0
 70
     1
  0
VERTEX
  8
Default
 10
969.857008151662
 20
589.593507880632
 42
0.0
  0
VERTEX
  8
Default
 10
866.14298930834
 20
589.593507880632
 42
0.0
  0
VERTEX
  8
Default
 10
866.14298930834
 20
603.243002238888
 42
0.0
  0
VERTEX
  8
Default
 10
955.792407638447
 20
603.243002238888
 42
0.0
  0
VERTEX
  8
Default
 10
955.792407638447
 20
667.411683951354
 42
0.0
  0
VERTEX
  8
Default
 10
910.951151884554
 20
667.411683951354
 42
0.0
  0
VERTEX
  8
Default
 10
910.951151884554
 20
648.62355642294
 42
0.0
  0
VERTEX
  8
Default
 10
896.952737726696
 20
648.62355642294
 42
0.0
  0
VERTEX
  8
Default
 10
896.952737726696
 20
681.061178309611
 42
0.0
  0
VERTEX
  8
Default
 10
969.857008151662
 20
681.061178309611
 42
0.0
  0
SEQEND
  0
POLYLINE
  8
Default
 66
     1
 10
0.0
 20
0.0
 30
0.0
 70
     1
  0
VERTEX
  8
Default
 10
969.857008151661
 20
850.131170646877
 42
0.0
  0
VERTEX
  8
Default
 10
969.857008151662
 20
836.48167628862
 42
0.0
  0
VERTEX
  8
Default
 10
880.207589821556
 20
836.48167628862
 42
0.0
  0
VERTEX
  8
Default
 10
880.207589821556
 20
772.312994576154
 42
0.0
  0
VERTEX
  8
Default
 10
925.015752397768
 20
772.312994576154
 42
0.0
  0
VERTEX
  8
Default
 10
925.015752397768
 20
791.101122104569
 42
0.0
  0
VERTEX
  8
Default
 10
938.947980200269
 20
791.101122104569
 42
0.0
  0
VERTEX
  8
Default
 10
938.947980200269
 20
758.663500217896
 42
0.0
  0
VERTEX
  8
Default
 10
866.14298930834
 20
758.663500217896
 42
0.0
  0
VERTEX
  8
Default
 10
866.14298930834
 20
850.131170646877
 42
0.0
  0
SEQEND
  0
POLYLINE
  8
Default
 66
     1
 10
0.0
 20
0.0
 30
0.0
 70
     1
  0
VERTEX
  8
Default
 10
969.857008151662
 20
729.662339263755
 42
0.0
  0
VERTEX
  8
Default
 10
866.14298930834
 20
729.662339263755
 42
0.0
  0
VERTEX
  8
Default
 10
866.14298930834
 20
743.311833622011
 42
0.0
  0
VERTEX
  8
Default
 10
955.792407638447
 20
743.31183362201
 42
0.0
  0
VERTEX
  8
Default
 10
955.792407638447
 20
807.480515334477
 42
0.0
  0
VERTEX
  8
Default
 10
910.951151884553
 20
807.480515334477
 42
0.0
  0
VERTEX
  8
Default
 10
910.951151884553
 20
788.692387806062
 42
0.0
  0
VERTEX
  8
Default
 10
896.952737726695
 20
788.692387806062
 42
0.0
  0
VERTEX
  8
Default
 10
896.952737726695
 20
821.130009692734
 42
0.0
  0
VERTEX
  8
Default
 10
969.857008151662
 20
821.130009692734
 42
0.0
  0
SEQEND
  0
POLYLINE
  8
Default
 66
     1
 10
0.0
 20
0.0
 30
0.0
 70
     1
  0
VERTEX
  8
Default
 10
969.857008151661
 20
990.20000203
 42
0.0
  0
VERTEX
  8
Default
 10
969.857008151661
 20
976.550507671742
 42
0.0
  0
VERTEX
  8
Default
 10
880.207589821555
 20
976.550507671742
 42
0.0
  0
VERTEX
  8
Default
 10
880.207589821555
 20
912.381825959277
 42
0.0
  0
VERTEX
  8
Default
 10
925.015752397768
 20
912.381825959277
 42
0.0
  0
VERTEX
  8
Default
 10
925.015752397768
 20
931.169953487691
 42
0.0
  0
VERTEX
  8
Default
 10
938.947980200268
 20
931.169953487691
 42
0.0
  0
VERTEX
  8
Default
 10
938.947980200268
 20
898.732331601019
 42
0.0
  0
VERTEX
  8
Default
 10
866.142989308339
 20
898.732331601019
 42
0.0
  0
VERTEX
  8
Default
 10
866.142989308339
 20
990.20000203
 42
0.0
  0
SEQEND
  0
POLYLINE
  8
Default
 66
     1
 10
0.0
 20
0.0
 30
0.0
 70
     1
  0
VERTEX
  8
Default
 10
969.857008151661
 20
869.731170646877
 42
0.0
  0
VERTEX
  8
Default
 10
866.14298930834
 20
869.731170646877
 42
0.0
  0
VERTEX
  8
Default
 10
866.142989308339
 20
883.380665005133
 42
0.0
  0
VERTEX
  8
Default
 10
955.792407638446
 20
883.380665005133
 42
0.0
  0
VERTEX
  8
Default
 10
955.792407638446
 20
947.5493467176
 42
0.0
  0
VERTEX
  8
Default
 10
910.951151884553
 20
947.5493467176
 42
0.0
  0
VERTEX
  8
Default
 10
910.951151884553
 20
928.761219189185
 42
0.0
  0
VERTEX
  8
Default
 10
896.952737726695
 20
928.761219189185
 42
0.0
  0
VERTEX
  8
Default
 10
896.952737726695
 20
961.198841075856
 42
0.0
  0
VERTEX
  8
Default
 10
969.857008151661
 20
961.198841075856
 42
0.0
  0
SEQEND
  0
POLYLINE
  8
Default
 66
     1
 10
0.0
 20
0.0
 30
0.0
 70
     1
  0
VERTEX
  8
Default
 10
969.857008151661
 20
1130.26883341312
 42
0.0
  0
VERTEX
  8
Default
 10
969.857008151661
 20
1116.61933905486
 42
0.0
  0
VERTEX
  8
Default
 10
880.207589821555
 20
1116.61933905486
 42
0.0
  0
VERTEX
  8
Default
 10
880.207589821555
 20
1052.4506573424
 42
0.0
  0
VERTEX
  8
Default
 10
925.015752397768
 20
1052.4506573424
 42
0.0
  0
VERTEX
  8
Default
 10
925.015752397768
 20
1071.23878487081
 42
0.0
  0
VERTEX
  8
Default
 10
938.947980200268
 20
1071.23878487081
 42
0.0
  0
VERTEX
  8
Default
 10
938.947980200268
 20
1038.80116298414
 42
0.0
  0
VERTEX
  8
Default
 10
866.142989308339
 20
1038.80116298414
 42
0.0
  0
VERTEX
  8
Default
 10
866.142989308339
 20
1130.26883341312
 42
0.0
  0
SEQEND
  0
POLYLINE
  8
Default
 66
     1
 10
0.0
 20
0.0
 30
0.0
 70
     1
  0
VERTEX
  8
Default
 10
969.857008151661
 20
1009.80000203
 42
0.0
  0
VERTEX
  8
Default
 10
866.142989308339
 20
1009.80000203
 42
0.0
  0
VERTEX
  8
Default
 10
866.142989308339
 20
1023.44949638826
 42
0.0
  0
VERTEX
  8
Default
 10
955.792407638446
 20
1023.44949638826
 42
0.0
  0
VERTEX
  8
Default
 10
955.792407638446
 20
1087.61817810072
 42
0.0
  0
VERTEX
  8
Default
 10
910.951151884552
 20
1087.61817810072
 42
0.0
  0
VERTEX
  8
Default
 10
910.951151884552
 20
1068.83005057231
 42
0.0
  0
VERTEX
  8
Default
 10
896.952737726695
 20
1068.83005057231
 42
0.0
  0
VERTEX
  8
Default
 10
896.952737726695
 20
1101.26767245898
 42
0.0
  0
VERTEX
  8
Default
 10
969.857008151661
 20
1101.26767245898
 42
0.0
  0
SEQEND
  0
POLYLINE
  8
Default
 66
     1
 10
0.0
 20
0.0
 30
0.0
 70
     1
  0
VERTEX
  8
Default
 10
969.85700815166
 20
1270.33766479625
 42
0.0
  0
VERTEX
  8
Default
 10
969.85700815166
 20
1256.68817043799
 42
0.0
  0
VERTEX
  8
Default
 10
880.207589821554
 20
1256.68817043799
 42
0.0
  0
VERTEX
  8
Default
 10
880.207589821554
 20
1192.51948872552
 42
0.0
  0
VERTEX
  8
Default
 10
925.015752397767
 20
1192.51948872552
 42
0.0
  0
VERTEX
  8
Default
 10
925.015752397767
 20
1211.30761625394
 42
0.0
  0
VERTEX
  8
Default
 10
938.947980200267
 20
1211.30761625394
 42
0.0
  0
VERTEX
  8
Default
 10
938.947980200267
 20
1178.86999436726
 42
0.0
  0
VERTEX
  8
Default
 10
866.142989308338
 20
1178.86999436726
 42
0.0
  0
VERTEX
  8
Default
 10
866.142989308338
 20
1270.33766479625
 42
0.0
  0
SEQEND
  0
POLYLINE
  8
Default
 66
     1
 10
0.0
 20
0.0
 30
0.0
 70
     1
  0
VERTEX
  8
Default
 10
969.85700815166
 20
1149.86883341312
 42
0.0
  0
VERTEX
  8
Default
 10
866.142989308339
 20
1149.86883341312
 42
0.0
  0
VERTEX
  8
Default
 10
866.142989308338
 20
1163.51832777138
 42
0.0
  0
VERTEX
  8
Default
 10
955.792407638445
 20
1163.51832777138
 42
0.0
  0
VERTEX
  8
Default
 10
955.792407638445
 20
1227.68700948384
 42
0.0
  0
VERTEX
  8
Default
 10
910.951151884552
 20
1227.68700948384
 42
0.0
  0
VERTEX
  8
Default
 10
910.951151884552
 20
1208.89888195543
 42
0.0
  0
VERTEX
  8
Default
 10
896.952737726694
 20
1208.89888195543
 42
0.0
  0
VERTEX
  8
Default
 10
896.952737726694
 20
1241.3365038421
 42
0.0
  0
VERTEX
  8
Default
 10
969.85700815166
 20
1241.3365038421
 42
0.0
  0
SEQEND
  0
POLYLINE
  8
Default
 66
     1
 10
0.0
 20
0.0
 30
0.0
 70
     1
  0
VERTEX
  8
Default
 10
969.85700815166
 20
1410.40649617937
 42
0.0
  0
VERTEX
  8
Default
 10
969.85700815166
 20
1396.75700182111
 42
0.0
  0
VERTEX
  8
Default
 10
880.207589821554
 20
1396.75700182111
 42
0.0
  0
VERTEX
  8
Default
 10
880.207589821554
 20
1332.58832010864
 42
0.0
  0
VERTEX
  8
Default
 10
925.015752397767
 20
1332.58832010864
 42
0.0
  0
VERTEX
  8
Default
 10
925.015752397767
 20
1351.37644763706
 42
0.0
  0
VERTEX
  8
Default
 10
938.947980200267
 20
1351.37644763706
 42
0.0
  0
VERTEX
  8
Default
 10
938.947980200267
 20
1318.93882575039
 42
0.0
  0
VERTEX
  8
Default
 10
866.142989308338
 20
1318.93882575039
 42
0.0
  0
VERTEX
  8
Default
 10
866.142989308338
 20
1410.40649617937
 42
0.0
  0
SEQEND
  0
POLYLINE
  8
Default
 66
     1
 10
0.0
 20
0.0
 30
0.0
 70
     1
  0
VERTEX
  8
Default
 10
969.85700815166
 20
1289.93766479624
 42
0.0
  0
VERTEX
  8
Default
 10
866.142989308338
 20
1289.93766479624
 42
0.0
  0
VERTEX
  8
Default
 10
866.142989308338
 20
1303.5871591545
 42
0.0
  0
VERTEX
  8
Default
 10
955.792407638445
 20
1303.5871591545
 42
0.0
  0
VERTEX
  8
Default
 10
955.792407638445
 20
1367.75584086697
 42
0.0
  0
VERTEX
  8
Default
 10
910.951151884552
 20
1367.75584086697
 42
0.0
  0
VERTEX
  8
Default
 10
910.951151884552
 20
1348.96771333855
 42
0.0
  0
VERTEX
  8
Default
 10
896.952737726694
 20
1348.96771333855
 42
0.0
  0
VERTEX
  8
Default
 10
896.952737726694
 20
1381.40533522522
 42
0.0
  0
VERTEX
  8
Default
 10
969.85700815166
 20
1381.40533522522
 42
0.0
  0
SEQEND
  0
POLYLINE
  8
Default
 66
     1
 10
0.0
 20
0.0
 30
0.0
 70
     1
  0
VERTEX
  8
Default
 10
969.857008151659
 20
1550.47532756249
 42
0.0
  0
VERTEX
  8
Default
 10
969.85700815166
 20
1536.82583320423
 42
0.0
  0
VERTEX
  8
Default
 10
880.207589821553
 20
1536.82583320423
 42
0.0
  0
VERTEX
  8
Default
 10
880.207589821553
 20
1472.65715149177
 42
0.0
  0
VERTEX
  8
Default
 10
925.015752397766
 20
1472.65715149177
 42
0.0
  0
VERTEX
  8
Default
 10
925.015752397766
 20
1491.44527902018
 42
0.0
  0
VERTEX
  8
Default
 10
938.947980200267
 20
1491.44527902018
 42
0.0
  0
VERTEX
  8
Default
 10
938.947980200267
 20
1459.00765713351
 42
0.0
  0
VERTEX
  8
Default
 10
866.142989308338
 20
1459.00765713351
 42
0.0
  0
VERTEX
  8
Default
 10
866.142989308338
 20
1550.47532756249
 42
0.0
  0
SEQEND
  0
POLYLINE
  8
Default
 66
     1
 10
0.0
 20
0.0
 30
0.0
 70
     1
  0
VERTEX
  8
Default
 10
969.85700815166
 20
1430.00649617937
 42
0.0
  0
VERTEX
  8
Default
 10
866.142989308338
 20
1430.00649617937
 42
0.0
  0
VERTEX
  8
Default
 10
866.142989308338
 20
1443.65599053762
 42
0.0
  0
VERTEX
  8
Default
 10
955.792407638445
 20
1443.65599053762
 42
0.0
  0
VERTEX
  8
Default
 10
955.792407638445
 20
1507.82467225009
 42
0.0
  0
VERTEX
  8
Default
 10
910.951151884551
 20
1507.82467225009
 42
0.0
  0
VERTEX
  8
Default
 10
910.951151884551
 20
1489.03654472168
 42
0.0
  0
VERTEX
  8
Default
 10
896.952737726693
 20
1489.03654472168
 42
0.0
  0
VERTEX
  8
Default
 10
896.952737726693
 20
1521.47416660835
 42
0.0
  0
VERTEX
  8
Default
 10
969.85700815166
 20
1521.47416660835
 42
0.0
  0
SEQEND
  0
POLYLINE
  8
Default
 66
     1
 10
0.0
 20
0.0
 30
0.0
 70
     1
  0
VERTEX
  8
Default
 10
969.857008151659
 20
1690.54415894561
 42
0.0
  0
VERTEX
  8
Default
 10
969.857008151659
 20
1676.89466458735
 42
0.0
  0
VERTEX
  8
Default
 10
880.207589821553
 20
1676.89466458735
 42
0.0
  0
VERTEX
  8
Default
 10
880.207589821553
 20
1612.72598287489
 42
0.0
  0
VERTEX
  8
Default
 10
925.015752397766
 20
1612.72598287489
 42
0.0
  0
VERTEX
  8
Default
 10
925.015752397766
 20
1631.5141104033
 42
0.0
  0
VERTEX
  8
Default
 10
938.947980200266
 20
1631.5141104033
 42
0.0
  0
VERTEX
  8
Default
 10
938.947980200266
 20
1599.07648851663
 42
0.0
  0
VERTEX
  8
Default
 10
866.142989308337
 20
1599.07648851663
 42
0.0
  0
VERTEX
  8
Default
 10
866.142989308337
 20
1690.54415894561
 42
0.0
  0
SEQEND
  0
POLYLINE
  8
Default
 66
     1
 10
0.0
 20
0.0
 30
0.0
 70
     1
  0
VERTEX
  8
Default
 10
969.857008151659
 20
1570.07532756249
 42
0.0
  0
VERTEX
  8
Default
 10
866.142989308338
 20
1570.07532756249
 42
0.0
  0
VERTEX
  8
Default
 10
866.142989308337
 20
1583.72482192075
 42
0.0
  0
VERTEX
  8
Default
 10
955.792407638444
 20
1583.72482192075
 42
0.0
  0
VERTEX
  8
Default
 10
955.792407638444
 20
1647.89350363321
 42
0.0
  0
VERTEX
  8
Default
 10
910.951151884551
 20
1647.89350363321
 42
0.0
  0
VERTEX
  8
Default
 10
910.951151884551
 20
1629.1053761048
 42
0.0
  0
VERTEX
  8
Default
 10
896.952737726693
 20
1629.1053761048
 42
0.0
  0
VERTEX
  8
Default
 10
896.952737726693
 20
1661.54299799147
 42
0.0
  0
VERTEX
  8
Default
 10
969.857008151659
 20
1661.54299799147
 42
0.0
  0
SEQEND
  0
POLYLINE
  8
Default
 66
     1
 10
0.0
 20
0.0
 30
0.0
 70
     1
  0
VERTEX
  8
Default
 10
969.857008151659
 20
1830.61299032874
 42
0.0
  0
VERTEX
  8
Default
 10
969.857008151659
 20
1816.96349597048
 42
0.0
  0
VERTEX
  8
Default
 10
880.207589821553
 20
1816.96349597048
 42
0.0
  0
VERTEX
  8
Default
 10
880.207589821553
 20
1752.79481425801
 42
0.0
  0
VERTEX
  8
Default
 10
925.015752397765
 20
1752.79481425801
 42
0.0
  0
VERTEX
  8
Default
 10
925.015752397765
 20
1771.58294178643
 42
0.0
  0
VERTEX
  8
Default
 10
938.947980200266
 20
1771.58294178643
 42
0.0
  0
VERTEX
  8
Default
 10
938.947980200266
 20
1739.14531989975
 42
0.0
  0
VERTEX
  8
Default
 10
866.142989308337
 20
1739.14531989975
 42
0.0
  0
VERTEX
  8
Default
 10
866.142989308337
 20
1830.61299032874
 42
0.0
  0
SEQEND
  0
POLYLINE
  8
Default
 66
     1
 10
0.0
 20
0.0
 30
0.0
 70
     1
  0
VERTEX
  8
Default
 10
969.857008151659
 20
1710.14415894561
 42
0.0
  0
VERTEX
  8
Default
 10
866.142989308337
 20
1710.14415894561
 42
0.0
  0
VERTEX
  8
Default
 10
866.142989308337
 20
1723.79365330387
 42
0.0
  0
VERTEX
  8
Default
 10
955.792407638444
 20
1723.79365330387
 42
0.0
  0
VERTEX
  8
Default
 10
955.792407638444
 20
1787.96233501634
 42
0.0
  0
VERTEX
  8
Default
 10
910.95115188455
 20
1787.96233501634
 42
0.0
  0
VERTEX
  8
Default
 10
910.95115188455
 20
1769.17420748792
 42
0.0
  0
VERTEX
  8
Default
 10
896.952737726692
 20
1769.17420748792
 42
0.0
  0
VERTEX
  8
Default
 10
896.952737726693
 20
1801.61182937459
 42
0.0
  0
VERTEX
  8
Default
 10
969.857008151659
 20
1801.61182937459
 42
0.0
  0
SEQEND
  0
POLYLINE
  8
Default
 66
     1
 10
0.0
 20
0.0
 30
0.0
 70
     1
  0
VERTEX
  8
Default
 10
969.857008151658
 20
1970.68182171186
 42
0.0
  0
VERTEX
  8
Default
 10
969.857008151658
 20
1957.0323273536
 42
0.0
  0
VERTEX
  8
Default
 10
880.207589821552
 20
1957.0323273536
 42
0.0
  0
VERTEX
  8
Default
 10
880.207589821552
 20
1892.86364564113
 42
0.0
  0
VERTEX
  8
Default
 10
925.015752397765
 20
1892.86364564113
 42
0.0
  0
VERTEX
  8
Default
 10
925.015752397765
 20
1911.65177316955
 42
0.0
  0
VERTEX
  8
Default
 10
938.947980200265
 20
1911.65177316955
 42
0.0
  0
VERTEX
  8
Default
 10
938.947980200265
 20
1879.21415128288
 42
0.0
  0
VERTEX
  8
Default
 10
866.142989308336
 20
1879.21415128288
 42
0.0
  0
VERTEX
  8
Default
 10
866.142989308336
 20
1970.68182171186
 42
0.0
  0
SEQEND
  0
POLYLINE
  8
Default
 66
     1
 10
0.0
 20
0.0
 30
0.0
 70
     1
  0
VERTEX
  8
Default
 10
969.857008151658
 20
1850.21299032874
 42
0.0
  0
VERTEX
  8
Default
 10
866.142989308337
 20
1850.21299032874
 42
0.0
  0
VERTEX
  8
Default
 10
866.142989308336
 20
1863.86248468699
 42
0.0
  0
VERTEX
  8
Default
 10
955.792407638443
 20
1863.86248468699
 42
0.0
  0
VERTEX
  8
Default
 10
955.792407638443
 20
1928.03116639946
 42
0.0
  0
VERTEX
  8
Default
 10
910.95115188455
 20
1928.03116639946
 42
0.0
  0
VERTEX
  8
Default
 10
910.95115188455
 20
1909.24303887104
 42
0.0
  0
VERTEX
  8
Default
 10
896.952737726692
 20
1909.24303887104
 42
0.0
  0
VERTEX
  8
Default
 10
896.952737726692
 20
1941.68066075771
 42
0.0
  0
VERTEX
  8
Default
 10
969.857008151658
 20
1941.68066075771
 42
0.0
  0
SEQEND
  0
POLYLINE
  8
Default
 66
     1
 10
0.0
 20
0.0
 30
0.0
 70
     1
  0
VERTEX
  8
Default
 10
152.472526881437
 20
150.234417721561
 42
0.0
  0
VERTEX
  8
Default
 10
152.472526881437
 20
136.584923363304
 42
0.0
  0
VERTEX
  8
Default
 10
238.571828245671
 20
136.584923363304
 42
0.0
  0
VERTEX
  8
Default
 10
238.571828245671
 20
72.4162416508378
 42
0.0
  0
VERTEX
  8
Default
 10
195.538068907476
 20
72.4162416508378
 42
0.0
  0
VERTEX
  8
Default
 10
195.538068907476
 20
91.2043691792527
 42
0.0
  0
VERTEX
  8
Default
 10
182.157557325955
 20
91.2043691792527
 42
0.0
  0
VERTEX
  8
Default
 10
182.157557325955
 20
58.7667472925801
 42
0.0
  0
VERTEX
  8
Default
 10
252.079470578563
 20
58.7667472925801
 42
0.0
  0
VERTEX
  8
Default
 10
252.079470578563
 20
150.234417721561
 42
0.0
  0
SEQEND
  0
POLYLINE
  8
Default
 66
     1
 10
0.0
 20
0.0
 30
0.0
 70
     1
  0
VERTEX
  8
Default
 10
152.472526881437
 20
29.7655863384388
 42
0.0
  0
VERTEX
  8
Default
 10
252.079470578563
 20
29.7655863384388
 42
0.0
  0
VERTEX
  8
Default
 10
252.079470578563
 20
43.4150806966946
 42
0.0
  0
VERTEX
  8
Default
 10
165.980169214328
 20
43.4150806966946
 42
0.0
  0
VERTEX
  8
Default
 10
165.980169214328
 20
107.583762409161
 42
0.0
  0
VERTEX
  8
Default
 10
209.045711240367
 20
107.583762409161
 42
0.0
  0
VERTEX
  8
Default
 10
209.045711240367
 20
88.7956348807462
 42
0.0
  0
VERTEX
  8
Default
 10
222.489788197574
 20
88.7956348807462
 42
0.0
  0
VERTEX
  8
Default
 10
222.489788197574
 20
121.233256767418
 42
0.0
  0
VERTEX
  8
Default
 10
152.472526881437
 20
121.233256767418
 42
0.0
  0
SEQEND
  0
POLYLINE
  8
Default
 66
     1
 10
0.0
 20
0.0
 30
0.0
 70
     1
  0
VERTEX
  8
Default
 10
271.562126881437
 20
150.234417721561
 42
0.0
  0
VERTEX
  8
Default
 10
271.562126881437
 20
136.584923363304
 42
0.0
  0
VERTEX
  8
Default
 10
357.661428245671
 20
136.584923363304
 42
0.0
  0
VERTEX
  8
Default
 10
357.661428245671
 20
72.4162416508378
 42
0.0
  0
VERTEX
  8
Default
 10
314.627668907476
 20
72.4162416508378
 42
0.0
  0
VERTEX
  8
Default
 10
314.627668907476
 20
91.2043691792527
 42
0.0
  0
VERTEX
  8
Default
 10
301.247157325955
 20
91.2043691792527
 42
0.0
  0
VERTEX
  8
Default
 10
301.247157325955
 20
58.7667472925801
 42
0.0
  0
VERTEX
  8
Default
 10
371.169070578563
 20
58.7667472925801
 42
0.0
  0
VERTEX
  8
Default
 10
371.169070578563
 20
150.234417721561
 42
0.0
  0
SEQEND
  0
POLYLINE
  8
Default
 66
     1
 10
0.0
 20
0.0
 30
0.0
 70
     1
  0
VERTEX
  8
Default
 10
271.562126881437
 20
29.7655863384388
 42
0.0
  0
VERTEX
  8
Default
 10
371.169070578563
 20
29.7655863384388
 42
0.0
  0
VERTEX
  8
Default
 10
371.169070578563
 20
43.4150806966946
 42
0.0
  0
VERTEX
  8
Default
 10
285.069769214328
 20
43.4150806966946
 42
0.0
  0
VERTEX
  8
Default
 10
285.069769214328
 20
107.583762409161
 42
0.0
  0
VERTEX
  8
Default
 10
328.135311240367
 20
107.583762409161
 42
0.0
  0
VERTEX
  8
Default
 10
328.135311240367
 20
88.7956348807462
 42
0.0
  0
VERTEX
  8
Default
 10
341.579388197574
 20
88.7956348807462
 42
0.0
  0
VERTEX
  8
Default
 10
341.579388197574
 20
121.233256767418
 42
0.0
  0
VERTEX
  8
Default
 10
271.562126881437
 20
121.233256767418
 42
0.0
  0
SEQEND
  0
POLYLINE
  8
Default
 66
     1
 10
0.0
 20
0.0
 30
0.0
 70
     1
  0
VERTEX
  8
Default
 10
390.651726881437
 20
150.234417721561
 42
0.0
  0
VERTEX
  8
Default
 10
390.651726881437
 20
136.584923363304
 42
0.0
  0
VERTEX
  8
Default
 10
476.751028245671
 20
136.584923363304
 42
0.0
  0
VERTEX
  8
Default
 10
476.751028245671
 20
72.4162416508378
 42
0.0
  0
VERTEX
  8
Default
 10
433.717268907476
 20
72.4162416508378
 42
0.0
  0
VERTEX
  8
Default
 10
433.717268907476
 20
91.2043691792527
 42
0.0
  0
VERTEX
  8
Default
 10
420.336757325955
 20
91.2043691792527
 42
0.0
  0
VERTEX
  8
Default
 10
420.336757325955
 20
58.7667472925801
 42
0.0
  0
VERTEX
  8
Default
 10
490.258670578563
 20
58.7667472925801
 42
0.0
  0
VERTEX
  8
Default
 10
490.258670578563
 20
150.234417721561
 42
0.0
  0
SEQEND
  0
POLYLINE
  8
Default
 66
     1
 10
0.0
 20
0.0
 30
0.0
 70
     1
  0
VERTEX
  8
Default
 10
390.651726881437
 20
29.7655863384388
 42
0.0
  0
VERTEX
  8
Default
 10
490.258670578563
 20
29.7655863384388
 42
0.0
  0
VERTEX
  8
Default
 10
490.258670578563
 20
43.4150806966946
 42
0.0
  0
VERTEX
  8
Default
 10
404.159369214328
 20
43.4150806966946
 42
0.0
  0
VERTEX
  8
Default
 10
404.159369214328
 20
107.583762409161
 42
0.0
  0
VERTEX
  8
Default
 10
447.224911240367
 20
107.583762409161
 42
0.0
  0
VERTEX
  8
Default
 10
447.224911240367
 20
88.7956348807462
 42
0.0
  0
VERTEX
  8
Default
 10
460.668988197574
 20
88.7956348807462
 42
0.0
  0
VERTEX
  8
Default
 10
460.668988197574
 20
121.233256767418
 42
0.0
  0
VERTEX
  8
Default
 10
390.651726881437
 20
121.233256767418
 42
0.0
  0
SEQEND
  0
POLYLINE
  8
Default
 66
     1
 10
0.0
 20
0.0
 30
0.0
 70
     1
  0
VERTEX
  8
Default
 10
509.741326881437
 20
150.234417721561
 42
0.0
  0
VERTEX
  8
Default
 10
509.741326881437
 20
136.584923363304
 42
0.0
  0
VERTEX
  8
Default
 10
595.840628245671
 20
136.584923363304
 42
0.0
  0
VERTEX
  8
Default
 10
595.840628245671
 20
72.4162416508378
 42
0.0
  0
VERTEX
  8
Default
 10
552.806868907476
 20
72.4162416508378
 42
0.0
  0
VERTEX
  8
Default
 10
552.806868907476
 20
91.2043691792527
 42
0.0
  0
VERTEX
  8
Default
 10
539.426357325955
 20
91.2043691792527
 42
0.0
  0
VERTEX
  8
Default
 10
539.426357325955
 20
58.7667472925801
 42
0.0
  0
VERTEX
  8
Default
 10
609.348270578563
 20
58.7667472925801
 42
0.0
  0
VERTEX
  8
Default
 10
609.348270578563
 20
150.234417721561
 42
0.0
  0
SEQEND
  0
POLYLINE
  8
Default
 66
     1
 10
0.0
 20
0.0
 30
0.0
 70
     1
  0
VERTEX
  8
Default
 10
509.741326881437
 20
29.7655863384388
 42
0.0
  0
VERTEX
  8
Default
 10
609.348270578563
 20
29.7655863384388
 42
0.0
  0
VERTEX
  8
Default
 10
609.348270578563
 20
43.4150806966946
 42
0.0
  0
VERTEX
  8
Default
 10
523.248969214328
 20
43.4150806966946
 42
0.0
  0
VERTEX
  8
Default
 10
523.248969214328
 20
107.583762409161
 42
0.0
  0
VERTEX
  8
Default
 10
566.314511240367
 20
107.583762409161
 42
0.0
  0
VERTEX
  8
Default
 10
566.314511240367
 20
88.7956348807462
 42
0.0
  0
VERTEX
  8
Default
 10
579.758588197574
 20
88.7956348807462
 42
0.0
  0
VERTEX
  8
Default
 10
579.758588197574
 20
121.233256767418
 42
0.0
  0
VERTEX
  8
Default
 10
509.741326881437
 20
121.233256767418
 42
0.0
  0
SEQEND
  0
POLYLINE
  8
Default
 66
     1
 10
0.0
 20
0.0
 30
0.0
 70
     1
  0
VERTEX
  8
Default
 10
628.830926881437
 20
150.234417721561
 42
0.0
  0
VERTEX
  8
Default
 10
628.830926881437
 20
136.584923363304
 42
0.0
  0
VERTEX
  8
Default
 10
714.930228245671
 20
136.584923363304
 42
0.0
  0
VERTEX
  8
Default
 10
714.930228245671
 20
72.4162416508378
 42
0.0
  0
VERTEX
  8
Default
 10
671.896468907476
 20
72.4162416508378
 42
0.0
  0
VERTEX
  8
Default
 10
671.896468907476
 20
91.2043691792527
 42
0.0
  0
VERTEX
  8
Default
 10
658.515957325955
 20
91.2043691792527
 42
0.0
  0
VERTEX
  8
Default
 10
658.515957325955
 20
58.7667472925801
 42
0.0
  0
VERTEX
  8
Default
 10
728.437870578563
 20
58.7667472925801
 42
0.0
  0
VERTEX
  8
Default
 10
728.437870578563
 20
150.234417721561
 42
0.0
  0
SEQEND
  0
POLYLINE
  8
Default
 66
     1
 10
0.0
 20
0.0
 30
0.0
 70
     1
  0
VERTEX
  8
Default
 10
628.830926881437
 20
29.7655863384388
 42
0.0
  0
VERTEX
  8
Default
 10
728.437870578563
 20
29.7655863384388
 42
0.0
  0
VERTEX
  8
Default
 10
728.437870578563
 20
43.4150806966946
 42
0.0
  0
VERTEX
  8
Default
 10
642.338569214328
 20
43.4150806966946
 42
0.0
  0
VERTEX
  8
Default
 10
642.338569214328
 20
107.583762409161
 42
0.0
  0
VERTEX
  8
Default
 10
685.404111240367
 20
107.583762409161
 42
0.0
  0
VERTEX
  8
Default
 10
685.404111240367
 20
88.7956348807462
 42
0.0
  0
VERTEX
  8
Default
 10
698.848188197574
 20
88.7956348807462
 42
0.0
  0
VERTEX
  8
Default
 10
698.848188197574
 20
121.233256767418
 42
0.0
  0
VERTEX
  8
Default
 10
628.830926881437
 20
121.233256767418
 42
0.0
  0
SEQEND
  0
POLYLINE
  8
Default
 66
     1
 10
0.0
 20
0.0
 30
0.0
 70
     1
  0
VERTEX
  8
Default
 10
747.920526881437
 20
150.234417721561
 42
0.0
  0
VERTEX
  8
Default
 10
747.920526881437
 20
136.584923363304
 42
0.0
  0
VERTEX
  8
Default
 10
834.019828245671
 20
136.584923363304
 42
0.0
  0
VERTEX
  8
Default
 10
834.019828245671
 20
72.4162416508378
 42
0.0
  0
VERTEX
  8
Default
 10
790.986068907476
 20
72.4162416508378
 42
0.0
  0
VERTEX
  8
Default
 10
790.986068907476
 20
91.2043691792527
 42
0.0
  0
VERTEX
  8
Default
 10
777.605557325955
 20
91.2043691792527
 42
0.0
  0
VERTEX
  8
Default
 10
777.605557325955
 20
58.7667472925801
 42
0.0
  0
VERTEX
  8
Default
 10
847.527470578563
 20
58.7667472925801
 42
0.0
  0
VERTEX
  8
Default
 10
847.527470578563
 20
150.234417721561
 42
0.0
  0
SEQEND
  0
POLYLINE
  8
Default
 66
     1
 10
0.0
 20
0.0
 30
0.0
 70
     1
  0
VERTEX
  8
Default
 10
747.920526881437
 20
29.7655863384388
 42
0.0
  0
VERTEX
  8
Default
 10
847.527470578563
 20
29.7655863384388
 42
0.0
  0
VERTEX
  8
Default
 10
847.527470578563
 20
43.4150806966946
 42
0.0
  0
VERTEX
  8
Default
 10
761.428169214328
 20
43.4150806966946
 42
0.0
  0
VERTEX
  8
Default
 10
761.428169214328
 20
107.583762409161
 42
0.0
  0
VERTEX
  8
Default
 10
804.493711240367
 20
107.583762409161
 42
0.0
  0
VERTEX
  8
Default
 10
804.493711240367
 20
88.7956348807462
 42
0.0
  0
VERTEX
  8
Default
 10
817.937788197574
 20
88.7956348807462
 42
0.0
  0
VERTEX
  8
Default
 10
817.937788197574
 20
121.233256767418
 42
0.0
  0
VERTEX
  8
Default
 10
747.920526881437
 20
121.233256767418
 42
0.0
  0
SEQEND
  0
POLYLINE
  8
Default
 66
     1
 10
0.0
 20
0.0
 30
0.0
 70
     1
  0
VERTEX
  8
Default
 10
152.472526881437
 20
1970.23441772156
 42
0.0
  0
VERTEX
  8
Default
 10
152.472526881437
 20
1956.5849233633
 42
0.0
  0
VERTEX
  8
Default
 10
238.571828245671
 20
1956.5849233633
 42
0.0
  0
VERTEX
  8
Default
 10
238.571828245671
 20
1892.41624165084
 42
0.0
  0
VERTEX
  8
Default
 10
195.538068907476
 20
1892.41624165084
 42
0.0
  0
VERTEX
  8
Default
 10
195.538068907476
 20
1911.20436917925
 42
0.0
  0
VERTEX
  8
Default
 10
182.157557325955
 20
1911.20436917925
 42
0.0
  0
VERTEX
  8
Default
 10
182.157557325955
 20
1878.76674729258
 42
0.0
  0
VERTEX
  8
Default
 10
252.079470578563
 20
1878.76674729258
 42
0.0
  0
VERTEX
  8
Default
 10
252.079470578563
 20
1970.23441772156
 42
0.0
  0
SEQEND
  0
POLYLINE
  8
Default
 66
     1
 10
0.0
 20
0.0
 30
0.0
 70
     1
  0
VERTEX
  8
Default
 10
152.472526881437
 20
1849.76558633844
 42
0.0
  0
VERTEX
  8
Default
 10
252.079470578563
 20
1849.76558633844
 42
0.0
  0
VERTEX
  8
Default
 10
252.079470578563
 20
1863.41508069669
 42
0.0
  0
VERTEX
  8
Default
 10
165.980169214328
 20
1863.41508069669
 42
0.0
  0
VERTEX
  8
Default
 10
165.980169214328
 20
1927.58376240916
 42
0.0
  0
VERTEX
  8
Default
 10
209.045711240367
 20
1927.58376240916
 42
0.0
  0
VERTEX
  8
Default
 10
209.045711240367
 20
1908.79563488075
 42
0.0
  0
VERTEX
  8
Default
 10
222.489788197574
 20
1908.79563488075
 42
0.0
  0
VERTEX
  8
Default
 10
222.489788197574
 20
1941.23325676742
 42
0.0
  0
VERTEX
  8
Default
 10
152.472526881437
 20
1941.23325676742
 42
0.0
  0
SEQEND
  0
POLYLINE
  8
Default
 66
     1
 10
0.0
 20
0.0
 30
0.0
 70
     1
  0
VERTEX
  8
Default
 10
271.562126881437
 20
1970.23441772156
 42
0.0
  0
VERTEX
  8
Default
 10
271.562126881437
 20
1956.5849233633
 42
0.0
  0
VERTEX
  8
Default
 10
357.661428245671
 20
1956.5849233633
 42
0.0
  0
VERTEX
  8
Default
 10
357.661428245671
 20
1892.41624165084
 42
0.0
  0
VERTEX
  8
Default
 10
314.627668907476
 20
1892.41624165084
 42
0.0
  0
VERTEX
  8
Default
 10
314.627668907476
 20
1911.20436917925
 42
0.0
  0
VERTEX
  8
Default
 10
301.247157325955
 20
1911.20436917925
 42
0.0
  0
VERTEX
  8
Default
 10
301.247157325955
 20
1878.76674729258
 42
0.0
  0
VERTEX
  8
Default
 10
371.169070578563
 20
1878.76674729258
 42
0.0
  0
VERTEX
  8
Default
 10
371.169070578563
 20
1970.23441772156
 42
0.0
  0
SEQEND
  0
POLYLINE
  8
Default
 66
     1
 10
0.0
 20
0.0
 30
0.0
 70
     1
  0
VERTEX
  8
Default
 10
271.562126881437
 20
1849.76558633844
 42
0.0
  0
VERTEX
  8
Default
 10
371.169070578563
 20
1849.76558633844
 42
0.0
  0
VERTEX
  8
Default
 10
371.169070578563
 20
1863.41508069669
 42
0.0
  0
VERTEX
  8
Default
 10
285.069769214328
 20
1863.41508069669
 42
0.0
  0
VERTEX
  8
Default
 10
285.069769214328
 20
1927.58376240916
 42
0.0
  0
VERTEX
  8
Default
 10
328.135311240367
 20
1927.58376240916
 42
0.0
  0
VERTEX
  8
Default
 10
328.135311240367
 20
1908.79563488075
 42
0.0
  0
VERTEX
  8
Default
 10
341.579388197574
 20
1908.79563488075
 42
0.0
  0
VERTEX
  8
Default
 10
341.579388197574
 20
1941.23325676742
 42
0.0
  0
VERTEX
  8
Default
 10
271.562126881437
 20
1941.23325676742
 42
0.0
  0
SEQEND
  0
POLYLINE
  8
Default
 66
     1
 10
0.0
 20
0.0
 30
0.0
 70
     1
  0
VERTEX
  8
Default
 10
390.651726881437
 20
1970.23441772156
 42
0.0
  0
VERTEX
  8
Default
 10
390.651726881437
 20
1956.5849233633
 42
0.0
  0
VERTEX
  8
Default
 10
476.751028245671
 20
1956.5849233633
 42
0.0
  0
VERTEX
  8
Default
 10
476.751028245671
 20
1892.41624165084
 42
0.0
  0
VERTEX
  8
Default
 10
433.717268907476
 20
1892.41624165084
 42
0.0
  0
VERTEX
  8
Default
 10
433.717268907476
 20
1911.20436917925
 42
0.0
  0
VERTEX
  8
Default
 10
420.336757325955
 20
1911.20436917925
 42
0.0
  0
VERTEX
  8
Default
 10
420.336757325955
 20
1878.76674729258
 42
0.0
  0
VERTEX
  8
Default
 10
490.258670578563
 20
1878.76674729258
 42
0.0
  0
VERTEX
  8
Default
 10
490.258670578563
 20
1970.23441772156
 42
0.0
  0
SEQEND
  0
POLYLINE
  8
Default
 66
     1
 10
0.0
 20
0.0
 30
0.0
 70
     1
  0
VERTEX
  8
Default
 10
390.651726881437
 20
1849.76558633844
 42
0.0
  0
VERTEX
  8
Default
 10
490.258670578563
 20
1849.76558633844
 42
0.0
  0
VERTEX
  8
Default
 10
490.258670578563
 20
1863.41508069669
 42
0.0
  0
VERTEX
  8
Default
 10
404.159369214328
 20
1863.41508069669
 42
0.0
  0
VERTEX
  8
Default
 10
404.159369214328
 20
1927.58376240916
 42
0.0
  0
VERTEX
  8
Default
 10
447.224911240367
 20
1927.58376240916
 42
0.0
  0
VERTEX
  8
Default
 10
447.224911240367
 20
1908.79563488075
 42
0.0
  0
VERTEX
  8
Default
 10
460.668988197574
 20
1908.79563488075
 42
0.0
  0
VERTEX
  8
Default
 10
460.668988197574
 20
1941.23325676742
 42
0.0
  0
VERTEX
  8
Default
 10
390.651726881437
 20
1941.23325676742
 42
0.0
  0
SEQEND
  0
POLYLINE
  8
Default
 66
     1
 10
0.0
 20
0.0
 30
0.0
 70
     1
  0
VERTEX
  8
Default
 10
509.741326881437
 20
1970.23441772156
 42
0.0
  0
VERTEX
  8
Default
 10
509.741326881437
 20
1956.5849233633
 42
0.0
  0
VERTEX
  8
Default
 10
595.840628245671
 20
1956.5849233633
 42
0.0
  0
VERTEX
  8
Default
 10
595.840628245671
 20
1892.41624165084
 42
0.0
  0
VERTEX
  8
Default
 10
552.806868907476
 20
1892.41624165084
 42
0.0
  0
VERTEX
  8
Default
 10
552.806868907476
 20
1911.20436917925
 42
0.0
  0
VERTEX
  8
Default
 10
539.426357325955
 20
1911.20436917925
 42
0.0
  0
VERTEX
  8
Default
 10
539.426357325955
 20
1878.76674729258
 42
0.0
  0
VERTEX
  8
Default
 10
609.348270578563
 20
1878.76674729258
 42
0.0
  0
VERTEX
  8
Default
 10
609.348270578563
 20
1970.23441772156
 42
0.0
  0
SEQEND
  0
POLYLINE
  8
Default
 66
     1
 10
0.0
 20
0.0
 30
0.0
 70
     1
  0
VERTEX
  8
Default
 10
509.741326881437
 20
1849.76558633844
 42
0.0
  0
VERTEX
  8
Default
 10
609.348270578563
 20
1849.76558633844
 42
0.0
  0
VERTEX
  8
Default
 10
609.348270578563
 20
1863.41508069669
 42
0.0
  0
VERTEX
  8
Default
 10
523.248969214328
 20
1863.41508069669
 42
0.0
  0
VERTEX
  8
Default
 10
523.248969214328
 20
1927.58376240916
 42
0.0
  0
VERTEX
  8
Default
 10
566.314511240367
 20
1927.58376240916
 42
0.0
  0
VERTEX
  8
Default
 10
566.314511240367
 20
1908.79563488075
 42
0.0
  0
VERTEX
  8
Default
 10
579.758588197574
 20
1908.79563488075
 42
0.0
  0
VERTEX
  8
Default
 10
579.758588197574
 20
1941.23325676742
 42
0.0
  0
VERTEX
  8
Default
 10
509.741326881437
 20
1941.23325676742
 42
0.0
  0
SEQEND
  0
POLYLINE
  8
Default
 66
     1
 10
0.0
 20
0.0
 30
0.0
 70
     1
  0
VERTEX
  8
Default
 10
628.830926881437
 20
1970.23441772156
 42
0.0
  0
VERTEX
  8
Default
 10
628.830926881437
 20
1956.5849233633
 42
0.0
  0
VERTEX
  8
Default
 10
714.930228245671
 20
1956.5849233633
 42
0.0
  0
VERTEX
  8
Default
 10
714.930228245671
 20
1892.41624165084
 42
0.0
  0
VERTEX
  8
Default
 10
671.896468907476
 20
1892.41624165084
 42
0.0
  0
VERTEX
  8
Default
 10
671.896468907476
 20
1911.20436917925
 42
0.0
  0
VERTEX
  8
Default
 10
658.515957325955
 20
1911.20436917925
 42
0.0
  0
VERTEX
  8
Default
 10
658.515957325955
 20
1878.76674729258
 42
0.0
  0
VERTEX
  8
Default
 10
728.437870578563
 20
1878.76674729258
 42
0.0
  0
VERTEX
  8
Default
 10
728.437870578563
 20
1970.23441772156
 42
0.0
  0
SEQEND
  0
POLYLINE
  8
Default
 66
     1
 10
0.0
 20
0.0
 30
0.0
 70
     1
  0
VERTEX
  8
Default
 10
628.830926881437
 20
1849.76558633844
 42
0.0
  0
VERTEX
  8
Default
 10
728.437870578563
 20
1849.76558633844
 42
0.0
  0
VERTEX
  8
Default
 10
728.437870578563
 20
1863.41508069669
 42
0.0
  0
VERTEX
  8
Default
 10
642.338569214328
 20
1863.41508069669
 42
0.0
  0
VERTEX
  8
Default
 10
642.338569214328
 20
1927.58376240916
 42
0.0
  0
VERTEX
  8
Default
 10
685.404111240367
 20
1927.58376240916
 42
0.0
  0
VERTEX
  8
Default
 10
685.404111240367
 20
1908.79563488075
 42
0.0
  0
VERTEX
  8
Default
 10
698.848188197574
 20
1908.79563488075
 42
0.0
  0
VERTEX
  8
Default
 10
698.848188197574
 20
1941.23325676742
 42
0.0
  0
VERTEX
  8
Default
 10
628.830926881437
 20
1941.23325676742
 42
0.0
  0
SEQEND
  0
POLYLINE
  8
Default
 66
     1
 10
0.0
 20
0.0
 30
0.0
 70
     1
  0
VERTEX
  8
Default
 10
747.920526881437
 20
1970.23441772156
 42
0.0
  0
VERTEX
  8
Default
 10
747.920526881437
 20
1956.5849233633
 42
0.0
  0
VERTEX
  8
Default
 10
834.019828245671
 20
1956.5849233633
 42
0.0
  0
VERTEX
  8
Default
 10
834.019828245671
 20
1892.41624165084
 42
0.0
  0
VERTEX
  8
Default
 10
790.986068907476
 20
1892.41624165084
 42
0.0
  0
VERTEX
  8
Default
 10
790.986068907476
 20
1911.20436917925
 42
0.0
  0
VERTEX
  8
Default
 10
777.605557325955
 20
1911.20436917925
 42
0.0
  0
VERTEX
  8
Default
 10
777.605557325955
 20
1878.76674729258
 42
0.0
  0
VERTEX
  8
Default
 10
847.527470578563
 20
1878.76674729258
 42
0.0
  0
VERTEX
  8
Default
 10
847.527470578563
 20
1970.23441772156
 42
0.0
  0
SEQEND
  0
POLYLINE
  8
Default
 66
     1
 10
0.0
 20
0.0
 30
0.0
 70
     1
  0
VERTEX
  8
Default
 10
747.920526881437
 20
1849.76558633844
 42
0.0
  0
VERTEX
  8
Default
 10
847.527470578563
 20
1849.76558633844
 42
0.0
  0
VERTEX
  8
Default
 10
847.527470578563
 20
1863.41508069669
 42
0.0
  0
VERTEX
  8
Default
 10
761.428169214328
 20
1863.41508069669
 42
0.0
  0
VERTEX
  8
Default
 10
761.428169214328
 20
1927.58376240916
 42
0.0
  0
VERTEX
  8
Default
 10
804.493711240367
 20
1927.58376240916
 42
0.0
  0
VERTEX
  8
Default
 10
804.493711240367
 20
1908.79563488075
 42
0.0
  0
VERTEX
  8
Default
 10
817.937788197574
 20
1908.79563488075
 42
0.0
  0
VERTEX
  8
Default
 10
817.937788197574
 20
1941.23325676742
 42
0.0
  0
VERTEX
  8
Default
 10
747.920526881437
 20
1941.23325676742
 42
0.0
  0
SEQEND
  0
POLYLINE
  8
Default
 66
     1
 10
0.0
 20
0.0
 30
0.0
 70
     1
  0
VERTEX
  8
Default
 10
391.101848838964
 20
768.044642760453
 42
-0.4202529798431
  0
VERTEX
  8
Default
 10
351.223779122206
 20
730.752485470819
 42
0.071702646911
  0
VERTEX
  8
Default
 10
433.322627606051
 20
699.695628312147
 42
-0.4124991365679
  0
VERTEX
  8
Default
 10
426.554487235605
 20
753.155478095723
 42
2.4980361009525
  0
SEQEND
  0
POLYLINE
  8
Default
 66
     1
 10
0.0
 20
0.0
 30
0.0
 70
     1
  0
VERTEX
  8
Default
 10
530.503801792597
 20
745.565368199905
 42
2.5402736398213
  0
VERTEX
  8
Default
 10
492.584939248
 20
743.309031330094
 42
-0.4186181079613
  0
VERTEX
  8
Default
 10
469.766614874105
 20
693.871709977967
 42
0.0702564499225
  0
VERTEX
  8
Default
 10
555.715197059186
 20
697.469994643605
 42
-0.4170149666207
  0
SEQEND
  0
POLYLINE
  8
Default
 66
     1
 10
0.0
 20
0.0
 30
0.0
 70
     1
  0
VERTEX
  8
Default
 10
334.389665423142
 20
973.846019309375
 42
0.0
  0
VERTEX
  8
Default
 10
335.898700112516
 20
1006.788627631
 42
0.0
  0
VERTEX
  8
Default
 10
382.774499602015
 20
1006.39068141716
 42
-0.0236434872888
  0
VERTEX
  8
Default
 10
383.901539132601
 20
1017.43003668131
 42
0.0
  0
VERTEX
  8
Default
 10
312.684577547178
 20
1025.86865203922
 42
0.0790461015936
  0
VERTEX
  8
Default
 10
313.904332657903
 20
966.464093880972
 42
0.0
  0
SEQEND
  0
POLYLINE
  8
Default
 66
     1
 10
0.0
 20
0.0
 30
0.0
 70
     1
  0
VERTEX
  8
Default
 10
667.05124713643
 20
1026.73892887032
 42
0.0
  0
VERTEX
  8
Default
 10
686.031782233119
 20
1033.8884896452
 42
-0.0779744024262
  0
VERTEX
  8
Default
 10
687.471104035423
 20
975.284849961679
 42
0.0
  0
VERTEX
  8
Default
 10
616.411543623302
 20
984.800967705759
 42
0.0195367818811
  0
VERTEX
  8
Default
 10
617.24275538852
 20
993.934159965974
 42
0.0
  0
VERTEX
  8
Default
 10
668.581258414658
 20
994.753827365203
 42
0.0
  0
SEQEND
  0
POLYLINE
  8
Default
 66
     1
 10
0.0
 20
0.0
 30
0.0
 70
     1
  0
VERTEX
  8
Default
 10
739.591553769406
 20
908.046572857043
 42
-0.4278702347432
  0
VERTEX
  8
Default
 10
777.984129704971
 20
868.267653610323
 42
0.0761525204739
  0
VERTEX
  8
Default
 10
804.67130128602
 20
957.526644582171
 42
-0.420064698318
  0
VERTEX
  8
Default
 10
751.725210645757
 20
944.267399024635
 42
2.5208681644653
  0
SEQEND
  0
POLYLINE
  8
Default
 66
     1
 10
0.0
 20
0.0
 30
0.0
 70
     1
  0
VERTEX
  8
Default
 10
435.344513186961
 20
902.008540065048
 42
0.0
  0
VERTEX
  8
Default
 10
413.243106391106
 20
864.574269303487
 42
0.0
  0
VERTEX
  8
Default
 10
441.753789163675
 20
849.266855280841
 42
0.0
  0
VERTEX
  8
Default
 10
436.619625315632
 20
821.84506291224
 42
-0.0825230701624
  0
VERTEX
  8
Default
 10
382.40643386314
 20
851.918917592787
 42
0.0
  0
VERTEX
  8
Default
 10
425.788779658587
 20
909.031032635104
 42
0.02526886707
  0
SEQEND
  0
POLYLINE
  8
Default
 66
     1
 10
0.0
 20
0.0
 30
0.0
 70
     1
  0
VERTEX
  8
Default
 10
710.801553203065
 20
1144.49577540961
 42
2.6218966807724
  0
VERTEX
  8
Default
 10
730.170325594347
 20
1112.8430319896
 42
-0.4536142561687
  0
VERTEX
  8
Default
 10
787.565296981502
 20
1109.24645705531
 42
0.08201348003
  0
VERTEX
  8
Default
 10
737.173994090695
 20
1195.90070294431
 42
-0.4568329415571
  0
SEQEND
  0
POLYLINE
  8
Default
 66
     1
 10
0.0
 20
0.0
 30
0.0
 70
     1
  0
VERTEX
  8
Default
 10
555.122584976728
 20
981.798712638539
 42
0.3585408882532
  0
VERTEX
  8
Default
 10
589.033682837676
 20
976.990129727085
 42
-0.2727206700146
  0
VERTEX
  8
Default
 10
523.009871032915
 20
910.966317922324
 42
0.3585408882532
  0
VERTEX
  8
Default
 10
518.201288121461
 20
944.877415783272
 42
0.2375600777846
  0
SEQEND
  0
POLYLINE
  8
Default
 66
     1
 10
0.0
 20
0.0
 30
0.0
 70
     1
  0
VERTEX
  8
Default
 10
518.201288121461
 20
1055.12258827673
 42
0.3585408882532
  0
VERTEX
  8
Default
 10
523.009871032915
 20
1089.03368613768
 42
-0.2727206700146
  0
VERTEX
  8
Default
 10
589.033682837676
 20
1023.00987433291
 42
0.3585408882532
  0
VERTEX
  8
Default
 10
555.122584976728
 20
1018.20129142146
 42
0.2375600777846
  0
SEQEND
  0
POLYLINE
  8
Default
 66
     1
 10
0.0
 20
0.0
 30
0.0
 70
     1
  0
VERTEX
  8
Default
 10
481.798709338539
 20
1055.12258827673
 42
0.2375600777846
  0
VERTEX
  8
Default
 10
444.877412483272
 20
1018.20129142146
 42
0.3585408882531
  0
VERTEX
  8
Default
 10
410.966314622324
 20
1023.00987433291
 42
-0.2727206700146
  0
VERTEX
  8
Default
 10
476.990126427085
 20
1089.03368613768
 42
0.3585408882532
  0
SEQEND
  0
POLYLINE
  8
Default
 66
     1
 10
0.0
 20
0.0
 30
0.0
 70
     1
  0
VERTEX
  8
Default
 10
481.798709338539
 20
944.877415783272
 42
0.3585408882532
  0
VERTEX
  8
Default
 10
476.990126427085
 20
910.966317922324
 42
-0.2727206700146
  0
VERTEX
  8
Default
 10
410.966314622324
 20
976.990129727085
 42
0.3585408882532
  0
VERTEX
  8
Default
 10
444.877412483272
 20
981.798712638539
 42
0.2375600777846
  0
SEQEND
  0
POLYLINE
  8
Default
 66
     1
 10
0.0
 20
0.0
 30
0.0
 70
     1
  0
VERTEX
  8
Default
 10
534.372327736793
 20
1253.42065711249
 42
-0.1026108518727
  0
VERTEX
  8
Default
 10
524.168697194701
 20
1241.72381234472
 42
1.2408182861497
  0
VERTEX
  8
Default
 10
577.296890546593
 20
1229.79187768101
 42
-0.5914212717755
  0
VERTEX
  8
Default
 10
614.401217741115
 20
1285.55376191217
 42
0.0821166393851
  0
VERTEX
  8
Default
 10
516.393653935536
 20
1307.18046489031
 42
-0.4439060554587
  0
SEQEND
  0
POLYLINE
  8
Default
 66
     1
 10
0.0
 20
0.0
 30
0.0
 70
     1
  0
VERTEX
  8
Default
 10
447.320145876648
 20
1104.91659524663
 42
-0.0245263280696
  0
VERTEX
  8
Default
 10
457.847672784057
 20
1109.57116541792
 42
0.0
  0
VERTEX
  8
Default
 10
428.495903803118
 20
1175.05261833403
 42
0.0823656948377
  0
VERTEX
  8
Default
 10
375.811829767696
 20
1142.59576899378
 42
0.0
  0
VERTEX
  8
Default
 10
394.438649357449
 20
1126.42307132999
 42
0.0
  0
VERTEX
  8
Default
 10
422.667008824826
 20
1144.50553982087
 42
0.0
  0
SEQEND
  0
POLYLINE
  8
Default
 66
     1
 10
0.0
 20
0.0
 30
0.0
 70
     1
  0
VERTEX
  8
Default
 10
634.744022159725
 20
1217.39194895259
 42
0.4577386430847
  0
VERTEX
  8
Default
 10
637.501271747792
 20
1275.17628845846
 42
-0.0831418207025
  0
VERTEX
  8
Default
 10
719.63991025777
 20
1215.37617981702
 42
0.6045870309072
  0
VERTEX
  8
Default
 10
663.770922624825
 20
1177.17624734521
 42
-1.6357236160978
  0
SEQEND
  0
POLYLINE
  8
Default
 66
     1
 10
0.0
 20
0.0
 30
0.0
 70
     1
  0
VERTEX
  8
Default
 10
758.31107649234
 20
1012.64115295162
 42
-0.4135990689952
  0
VERTEX
  8
Default
 10
807.464975695664
 20
990.311006541493
 42
0.0784202947531
  0
VERTEX
  8
Default
 10
795.506432962269
 20
1085.4665804183
 42
-0.4416043647706
  0
VERTEX
  8
Default
 10
753.306890405685
 20
1047.91436782626
 42
2.7668187642947
  0
SEQEND
  0
POLYLINE
  8
Default
 66
     1
 10
0.0
 20
0.0
 30
0.0
 70
     1
  0
VERTEX
  8
Default
 10
679.800077092035
 20
819.310802773208
 42
-0.4370740883052
  0
VERTEX
  8
Default
 10
701.539306891386
 20
767.598418644897
 42
0.0762244262704
  0
VERTEX
  8
Default
 10
761.914883490385
 20
838.66438341146
 42
-0.4409248266174
  0
VERTEX
  8
Default
 10
706.765582480498
 20
850.618756138253
 42
2.2534435828767
  0
SEQEND
  0
POLYLINE
  8
Default
 66
     1
 10
0.0
 20
0.0
 30
0.0
 70
     1
  0
VERTEX
  8
Default
 10
593.819815412957
 20
761.156630456931
 42
-0.4140506070587
  0
VERTEX
  8
Default
 10
594.096585182187
 20
707.12729740883
 42
0.0718318120357
  0
VERTEX
  8
Default
 10
673.111027894101
 20
745.714414007755
 42
-0.4182964431361
  0
VERTEX
  8
Default
 10
628.975402216405
 20
777.551081576413
 42
2.4678817661896
  0
SEQEND
  0
POLYLINE
  8
Default
 66
     1
 10
0.0
 20
0.0
 30
0.0
 70
     1
  0
VERTEX
  8
Default
 10
302.64589558953
 20
834.781941395954
 42
-0.3754238754512
  0
VERTEX
  8
Default
 10
252.842381856059
 20
816.856066516789
 42
0.0761620409706
  0
VERTEX
  8
Default
 10
319.012723170374
 20
751.258781522468
 42
-0.3987509681032
  0
VERTEX
  8
Default
 10
333.45097290094
 20
801.829933930986
 42
2.1917565409868
  0
SEQEND
  0
POLYLINE
  8
Default
 66
     1
 10
0.0
 20
0.0
 30
0.0
 70
     1
  0
VERTEX
  8
Default
 10
296.056842308996
 20
1149.82646494565
 42
-0.4469143653776
  0
VERTEX
  8
Default
 10
263.162552532323
 20
1196.30744654659
 42
0.0802676595019
  0
VERTEX
  8
Default
 10
213.390851040652
 20
1111.73086238137
 42
-0.4514060628837
  0
VERTEX
  8
Default
 10
270.708182109655
 20
1110.95299751367
 42
1.8654118427392
  0
SEQEND
  0
POLYLINE
  8
Default
 66
     1
 10
0.0
 20
0.0
 30
0.0
 70
     1
  0
VERTEX
  8
Default
 10
429.772779421103
 20
1245.79921421275
 42
-0.0951967066397
  0
VERTEX
  8
Default
 10
424.936954750423
 20
1232.21284966179
 42
1.2975813007815
  0
VERTEX
  8
Default
 10
477.976300265299
 20
1241.72381234472
 42
-0.5752177374068
  0
VERTEX
  8
Default
 10
486.027731684943
 20
1307.30012316192
 42
0.0748293849065
  0
VERTEX
  8
Default
 10
396.197165769027
 20
1289.57479472327
 42
-0.42658062913
  0
SEQEND
  0
POLYLINE
  8
Default
 66
     1
 10
0.0
 20
0.0
 30
0.0
 70
     1
  0
VERTEX
  8
Default
 10
336.865159927148
 20
1199.28177048236
 42
0.4084216437279
  0
VERTEX
  8
Default
 10
289.652658504392
 20
1224.46065594085
 42
-0.0716663459527
  0
VERTEX
  8
Default
 10
361.569502225987
 20
1274.71000609197
 42
0.5419558663475
  0
VERTEX
  8
Default
 10
383.13945484624
 20
1214.41587845722
 42
-1.2478224812432
  0
VERTEX
  8
Default
 10
338.391908412293
 20
1183.5053694692
 42
0.1048280123335
  0
SEQEND
  0
POLYLINE
  8
Default
 66
     1
 10
0.0
 20
0.0
 30
0.0
 70
     1
  0
VERTEX
  8
Default
 10
243.40888413265
 20
1005.92080945896
 42
0.4231391486046
  0
VERTEX
  8
Default
 10
192.75550298953
 20
984.853763841682
 42
-0.0803787526557
  0
VERTEX
  8
Default
 10
203.656138742631
 20
1082.51609344167
 42
0.4322153616882
  0
VERTEX
  8
Default
 10
247.57252470429
 20
1048.30375536637
 42
-2.1523445369419
  0
SEQEND
  0
POLYLINE
  8
Default
 66
     1
 10
0.0
 20
0.0
 30
0.0
 70
     1
  0
VERTEX
  8
Default
 10
264.633654113492
 20
894.423614459262
 42
0.3710494032775
  0
VERTEX
  8
Default
 10
227.39774240799
 20
857.463695980551
 42
-0.0794284676653
  0
VERTEX
  8
Default
 10
196.546705015357
 20
949.555109049566
 42
0.4167028188785
  0
VERTEX
  8
Default
 10
249.832755023874
 20
939.246406198278
 42
-2.0404072268408
  0
SEQEND
  0
POLYLINE
  8
Default
 66
     1
 10
0.0
 20
0.0
 30
0.0
 70
     1
  0
VERTEX
  8
Default
 10
467.976246464077
 20
646.301640812262
 42
0.0825212172996
  0
VERTEX
  8
Default
 10
468.628375378739
 20
646.308057636135
 42
0.0
  0
VERTEX
  8
Default
 10
488.396512275951
 20
666.87422643009
 42
-0.0336417052497
  0
VERTEX
  8
Default
 10
443.82557400985
 20
671.43972251604
 42
0.0
  0
SEQEND
  0
POLYLINE
  8
Default
 66
     1
 10
0.0
 20
0.0
 30
0.0
 70
     1
  0
VERTEX
  8
Default
 10
342.750175272089
 20
646.418040063355
 42
-0.1911886838195
  0
VERTEX
  8
Default
 10
343.391398213914
 20
646.423215555194
 42
0.0
  0
VERTEX
  8
Default
 10
381.199354689464
 20
685.744359826329
 42
0.0
  0
VERTEX
  8
Default
 10
376.875032355658
 20
690.245799601287
 42
-0.0384368624365
  0
VERTEX
  8
Default
 10
330.912613387967
 20
712.74248796792
 42
0.0
  0
VERTEX
  8
Default
 10
304.966415888682
 20
685.746602539459
 42
0.0005542934668
  0
VERTEX
  8
Default
 10
342.745694792826
 20
646.417692566602
 42
-0.0002410642498
  0
SEQEND
  0
POLYLINE
  8
Default
 66
     1
 10
0.0
 20
0.0
 30
0.0
 70
     1
  0
VERTEX
  8
Default
 10
280.759442706004
 20
710.891690171904
 42
-0.0031239534031
  0
VERTEX
  8
Default
 10
280.106121218107
 20
710.887549778433
 42
0.0023744349597
  0
VERTEX
  8
Default
 10
242.334460380772
 20
750.216112254536
 42
0.0
  0
VERTEX
  8
Default
 10
260.041885704026
 20
768.639834196501
 42
0.041331757856
  0
VERTEX
  8
Default
 10
301.364717743346
 20
732.322120212536
 42
0.0
  0
SEQEND
  0
POLYLINE
  8
Default
 66
     1
 10
0.0
 20
0.0
 30
0.0
 70
     1
  0
VERTEX
  8
Default
 10
218.128742814211
 20
775.158893405231
 42
-0.0031239534031
  0
VERTEX
  8
Default
 10
217.475421326313
 20
775.15475301176
 42
0.0023744349597
  0
VERTEX
  8
Default
 10
179.70376048898
 20
814.483315487862
 42
0.0
  0
VERTEX
  8
Default
 10
206.373362051204
 20
842.231749521361
 42
0.0423857351053
  0
VERTEX
  8
Default
 10
237.183119195629
 20
794.976317791453
 42
0.0
  0
SEQEND
  0
POLYLINE
  8
Default
 66
     1
 10
0.0
 20
0.0
 30
0.0
 70
     1
  0
VERTEX
  8
Default
 10
155.488879166945
 20
324.455398385576
 42
-0.0031239532739
  0
VERTEX
  8
Default
 10
154.835557679048
 20
324.451257992106
 42
0.0000618124255
  0
VERTEX
  8
Default
 10
153.857008151663
 20
325.479620697981
 42
0.0
  0
VERTEX
  8
Default
 10
153.857008151663
 20
402.061278092885
 42
0.0
  0
VERTEX
  8
Default
 10
154.859754771193
 20
403.104587583633
 42
0.0084249407669
  0
VERTEX
  8
Default
 10
155.51307625909
 20
403.108727977103
 42
0.0
  0
VERTEX
  8
Default
 10
193.296835642496
 20
363.777405238685
 42
0.0
  0
SEQEND
  0
POLYLINE
  8
Default
 66
     1
 10
0.0
 20
0.0
 30
0.0
 70
     1
  0
VERTEX
  8
Default
 10
156.141369843216
 20
582.049113325861
 42
-0.0031239532739
  0
VERTEX
  8
Default
 10
155.488048355319
 20
582.04497293239
 42
0.0001030196409
  0
VERTEX
  8
Default
 10
153.857008151663
 20
583.758758577172
 42
0.0
  0
VERTEX
  8
Default
 10
153.857008151663
 20
658.976107957
 42
0.0
  0
VERTEX
  8
Default
 10
155.512245447463
 20
660.698302523917
 42
0.0084249407669
  0
VERTEX
  8
Default
 10
156.165566935361
 20
660.702442917388
 42
0.0
  0
VERTEX
  8
Default
 10
193.949326318767
 20
621.37112017897
 42
0.0
  0
SEQEND
  0
POLYLINE
  8
Default
 66
     1
 10
0.0
 20
0.0
 30
0.0
 70
     1
  0
VERTEX
  8
Default
 10
156.122647144799
 20
710.794195282124
 42
0.0
  0
VERTEX
  8
Default
 10
193.927658010086
 20
750.112966062653
 42
0.0
  0
VERTEX
  8
Default
 10
156.14389862668
 20
789.444288801072
 42
-0.0011019263714
  0
VERTEX
  8
Default
 10
155.490577138782
 20
789.440148407602
 42
0.0
  0
VERTEX
  8
Default
 10
153.857008151663
 20
787.740498670711
 42
0.0
  0
VERTEX
  8
Default
 10
153.857008151663
 20
712.473758116066
 42
0.0
  0
VERTEX
  8
Default
 10
155.47847859271
 20
710.785956234101
 42
-0.1915595190313
  0
VERTEX
  8
Default
 10
156.119701534535
 20
710.791131725941
 42
0.0
  0
SEQEND
  0
POLYLINE
  8
Default
 66
     1
 10
0.0
 20
0.0
 30
0.0
 70
     1
  0
VERTEX
  8
Default
 10
154.865535058294
 20
274.364508508188
 42
-0.00360623187
  0
VERTEX
  8
Default
 10
155.518653361926
 20
274.368610082275
 42
0.0023999086742
  0
VERTEX
  8
Default
 10
193.29031419926
 20
235.037287343857
 42
0.0
  0
VERTEX
  8
Default
 10
155.494456269781
 20
195.715280490748
 42
0.0051425805509
  0
VERTEX
  8
Default
 10
154.841134781884
 20
195.710967580883
 42
0.0
  0
VERTEX
  8
Default
 10
153.857008151663
 20
196.73533059538
 42
0.0
  0
VERTEX
  8
Default
 10
153.857008151663
 20
273.315520691073
 42
0.0
  0
SEQEND
  0
POLYLINE
  8
Default
 66
     1
 10
0.0
 20
0.0
 30
0.0
 70
     1
  0
VERTEX
  8
Default
 10
155.470156468528
 20
453.200480341839
 42
0.0
  0
VERTEX
  8
Default
 10
193.275167333815
 20
492.519251122369
 42
0.0
  0
VERTEX
  8
Default
 10
155.491407950409
 20
531.850573860788
 42
-0.0011019263714
  0
VERTEX
  8
Default
 10
154.838086462511
 20
531.846433467317
 42
0.0
  0
VERTEX
  8
Default
 10
153.857008151663
 20
530.825668806595
 42
0.0
  0
VERTEX
  8
Default
 10
153.857008151663
 20
454.200860278889
 42
0.0
  0
VERTEX
  8
Default
 10
154.825987916439
 20
453.192241293816
 42
-0.1915595190313
  0
VERTEX
  8
Default
 10
155.467210858264
 20
453.197416785656
 42
0.0
  0
SEQEND
  0
POLYLINE
  8
Default
 66
     1
 10
0.0
 20
0.0
 30
0.0
 70
     1
  0
VERTEX
  8
Default
 10
844.494670062918
 20
646.414566060708
 42
-0.1926062864648
  0
VERTEX
  8
Default
 10
845.140242688808
 20
646.418359249585
 42
0.0
  0
VERTEX
  8
Default
 10
846.142989308336
 20
647.46125252233
 42
0.0
  0
VERTEX
  8
Default
 10
846.14298930833
 20
724.055675050175
 42
0.0000159753762
  0
VERTEX
  8
Default
 10
845.16952208445
 20
725.071855028265
 42
0.0037913761889
  0
VERTEX
  8
Default
 10
844.511118293055
 20
725.067720964037
 42
0.0
  0
VERTEX
  8
Default
 10
806.715260363576
 20
685.743471397798
 42
0.0
  0
VERTEX
  8
Default
 10
844.48692120091
 20
646.414908921694
 42
0.000297234102
  0
SEQEND
  0
POLYLINE
  8
Default
 66
     1
 10
0.0
 20
0.0
 30
0.0
 70
     1
  0
VERTEX
  8
Default
 10
156.134848399981
 20
839.638539031033
 42
-0.0031239532739
  0
VERTEX
  8
Default
 10
155.481526912083
 20
839.634398637562
 42
0.0001026078228
  0
VERTEX
  8
Default
 10
153.857008151663
 20
841.34133481044
 42
0.0
  0
VERTEX
  8
Default
 10
153.857008151663
 20
916.572318909302
 42
0.0
  0
VERTEX
  8
Default
 10
155.505724004227
 20
918.287728229089
 42
0.0084249407669
  0
VERTEX
  8
Default
 10
156.159045492125
 20
918.29186862256
 42
0.0
  0
VERTEX
  8
Default
 10
186.525209902442
 20
886.68195388034
 42
0.0088712434251
  0
VERTEX
  8
Default
 10
190.74267867715
 20
875.63226802853
 42
0.0
  0
SEQEND
  0
POLYLINE
  8
Default
 66
     1
 10
0.0
 20
0.0
 30
0.0
 70
     1
  0
VERTEX
  8
Default
 10
845.140242688808
 20
775.155268389136
 42
-0.0031239534031
  0
VERTEX
  8
Default
 10
844.48692120091
 20
775.151127995666
 42
0.0023744349597
  0
VERTEX
  8
Default
 10
806.715260363576
 20
814.479690471768
 42
0.0
  0
VERTEX
  8
Default
 10
844.511118293055
 20
853.804457587192
 42
0.0011019263847
  0
VERTEX
  8
Default
 10
845.164439780952
 20
853.808597980661
 42
0.0
  0
VERTEX
  8
Default
 10
846.142989308337
 20
852.789968603776
 42
0.0
  0
VERTEX
  8
Default
 10
846.142989308337
 20
776.198170812877
 42
0.0
  0
SEQEND
  0
POLYLINE
  8
Default
 66
     1
 10
0.0
 20
0.0
 30
0.0
 70
     1
  0
VERTEX
  8
Default
 10
843.843406805417
 20
260.080735397401
 42
-0.192419751115
  0
VERTEX
  8
Default
 10
844.488979431308
 20
260.086253750224
 42
0.0
  0
VERTEX
  8
Default
 10
846.142989308337
 20
261.807027804606
 42
0.0
  0
VERTEX
  8
Default
 10
846.14298930835
 20
337.047049820975
 42
0.0000337633523
  0
VERTEX
  8
Default
 10
844.51825882695
 20
338.739059463325
 42
0.0037913757193
  0
VERTEX
  8
Default
 10
843.859855035555
 20
338.734925399095
 42
0.0
  0
VERTEX
  8
Default
 10
806.051898560004
 20
299.410158283673
 42
0.0
  0
VERTEX
  8
Default
 10
843.83565794341
 20
260.081078258384
 42
0.0003130698277
  0
SEQEND
  0
POLYLINE
  8
Default
 66
     1
 10
0.0
 20
0.0
 30
0.0
 70
     1
  0
VERTEX
  8
Default
 10
468.677419894135
 20
209.999810479711
 42
-0.0011019261775
  0
VERTEX
  8
Default
 10
468.024098406237
 20
209.995670086241
 42
0.0
  0
VERTEX
  8
Default
 10
430.228240476759
 20
170.670730454423
 42
0.0
  0
VERTEX
  8
Default
 10
430.646442947466
 20
170.234417721561
 42
0.0
  0
VERTEX
  8
Default
 10
506.04381348828
 20
170.234417721561
 42
0.0
  0
VERTEX
  8
Default
 10
506.461179277541
 20
170.668487741293
 42
0.0
  0
SEQEND
  0
POLYLINE
  8
Default
 66
     1
 10
0.0
 20
0.0
 30
0.0
 70
     1
  0
VERTEX
  8
Default
 10
843.821738496736
 20
388.823788895844
 42
-0.1926062864648
  0
VERTEX
  8
Default
 10
844.467311122627
 20
388.827582084722
 42
0.0
  0
VERTEX
  8
Default
 10
846.142989308336
 20
390.570348874584
 42
0.0
  0
VERTEX
  8
Default
 10
846.142989308344
 20
465.766008544499
 42
0.0000269895424
  0
VERTEX
  8
Default
 10
844.496590518269
 20
467.481077863402
 42
0.0037913759394
  0
VERTEX
  8
Default
 10
843.838186726873
 20
467.476943799173
 42
0.0
  0
VERTEX
  8
Default
 10
806.042328797395
 20
428.152694232934
 42
0.0
  0
VERTEX
  8
Default
 10
843.813989634729
 20
388.82413175683
 42
0.0002972341052
  0
SEQEND
  0
POLYLINE
  8
Default
 66
     1
 10
0.0
 20
0.0
 30
0.0
 70
     1
  0
VERTEX
  8
Default
 10
593.304542983622
 20
209.995842602636
 42
-0.0026690007587
  0
VERTEX
  8
Default
 10
593.957864471519
 20
209.999810479711
 42
0.0023999086743
  0
VERTEX
  8
Default
 10
631.729525308853
 20
170.668487741292
 42
0.0
  0
VERTEX
  8
Default
 10
631.312300398725
 20
170.234417721561
 42
0.0
  0
VERTEX
  8
Default
 10
555.915917673171
 20
170.234417721561
 42
0.0
  0
VERTEX
  8
Default
 10
555.496586508071
 20
170.670902970818
 42
0.0
  0
SEQEND
  0
POLYLINE
  8
Default
 66
     1
 10
0.0
 20
0.0
 30
0.0
 70
     1
  0
VERTEX
  8
Default
 10
844.467311122627
 20
517.564491224273
 42
-0.0031239534031
  0
VERTEX
  8
Default
 10
843.813989634729
 20
517.560350830802
 42
0.0023744349597
  0
VERTEX
  8
Default
 10
806.042328797395
 20
556.888913306904
 42
0.0
  0
VERTEX
  8
Default
 10
843.838186726873
 20
596.213680422328
 42
0.0011019263847
  0
VERTEX
  8
Default
 10
844.491508214771
 20
596.217820815797
 42
0.0
  0
VERTEX
  8
Default
 10
846.142989308337
 20
594.498697654222
 42
0.0
  0
VERTEX
  8
Default
 10
846.142989308337
 20
519.307273306258
 42
0.0
  0
SEQEND
  0
POLYLINE
  8
Default
 66
     1
 10
0.0
 20
0.0
 30
0.0
 70
     1
  0
VERTEX
  8
Default
 10
217.487406343613
 20
209.996532668214
 42
-0.0026690007587
  0
VERTEX
  8
Default
 10
218.140727831509
 20
210.000500545289
 42
0.0023999086743
  0
VERTEX
  8
Default
 10
255.912388668844
 20
170.669177806871
 42
0.0
  0
VERTEX
  8
Default
 10
255.494500472757
 20
170.234417721561
 42
0.0
  0
VERTEX
  8
Default
 10
180.099443978826
 20
170.234417721561
 42
0.0
  0
VERTEX
  8
Default
 10
179.679449868062
 20
170.671593036397
 42
0.0
  0
SEQEND
  0
POLYLINE
  8
Default
 66
     1
 10
0.0
 20
0.0
 30
0.0
 70
     1
  0
VERTEX
  8
Default
 10
844.516338371599
 20
904.001056162262
 42
-0.1924197511149
  0
VERTEX
  8
Default
 10
845.161910997489
 20
904.006574515087
 42
0.0
  0
VERTEX
  8
Default
 10
846.142989308337
 20
905.027254092682
 42
0.0
  0
VERTEX
  8
Default
 10
846.142989308333
 20
981.666040672839
 42
0.0000198012823
  0
VERTEX
  8
Default
 10
845.191190393131
 20
982.659380228188
 42
0.003791375878
  0
VERTEX
  8
Default
 10
844.532786601736
 20
982.655246163958
 42
0.0
  0
VERTEX
  8
Default
 10
831.934168217175
 20
969.551186063029
 42
-0.0341688094855
  0
VERTEX
  8
Default
 10
824.694058213452
 20
924.626326233421
 42
0.0
  0
VERTEX
  8
Default
 10
844.508589509592
 20
904.001399023247
 42
0.0003130698326
  0
SEQEND
  0
POLYLINE
  8
Default
 66
     1
 10
0.0
 20
0.0
 30
0.0
 70
     1
  0
VERTEX
  8
Default
 10
467.976246464077
 20
1353.69836324774
 42
-0.0825212172996
  0
VERTEX
  8
Default
 10
468.628375378739
 20
1353.69194642386
 42
0.0
  0
VERTEX
  8
Default
 10
488.396512275952
 20
1333.12577762991
 42
0.0336417052497
  0
VERTEX
  8
Default
 10
443.82557400985
 20
1328.56028154396
 42
0.0
  0
SEQEND
  0
POLYLINE
  8
Default
 66
     1
 10
0.0
 20
0.0
 30
0.0
 70
     1
  0
VERTEX
  8
Default
 10
342.750175272089
 20
1353.58196399665
 42
0.1911886838195
  0
VERTEX
  8
Default
 10
343.391398213914
 20
1353.57678850481
 42
0.0
  0
VERTEX
  8
Default
 10
381.199354689465
 20
1314.25564423367
 42
0.0
  0
VERTEX
  8
Default
 10
376.875032355658
 20
1309.75420445871
 42
0.0384368624365
  0
VERTEX
  8
Default
 10
330.912613387967
 20
1287.25751609208
 42
0.0
  0
VERTEX
  8
Default
 10
304.966415888682
 20
1314.25340152054
 42
-0.0005542934668
  0
VERTEX
  8
Default
 10
342.745694792826
 20
1353.5823114934
 42
0.0002410642567
  0
SEQEND
  0
POLYLINE
  8
Default
 66
     1
 10
0.0
 20
0.0
 30
0.0
 70
     1
  0
VERTEX
  8
Default
 10
280.759442706004
 20
1289.1083138881
 42
0.0031239534031
  0
VERTEX
  8
Default
 10
280.106121218107
 20
1289.11245428157
 42
-0.0023744349597
  0
VERTEX
  8
Default
 10
242.334460380772
 20
1249.78389180546
 42
0.0
  0
VERTEX
  8
Default
 10
260.041885704026
 20
1231.3601698635
 42
-0.041331757856
  0
VERTEX
  8
Default
 10
301.364717743346
 20
1267.67788384746
 42
0.0
  0
SEQEND
  0
POLYLINE
  8
Default
 66
     1
 10
0.0
 20
0.0
 30
0.0
 70
     1
  0
VERTEX
  8
Default
 10
218.128742814211
 20
1224.84111065477
 42
0.0031239534031
  0
VERTEX
  8
Default
 10
217.475421326313
 20
1224.84525104824
 42
-0.0023744349597
  0
VERTEX
  8
Default
 10
179.70376048898
 20
1185.51668857214
 42
0.0
  0
VERTEX
  8
Default
 10
206.373362051204
 20
1157.76825453864
 42
-0.0423857351053
  0
VERTEX
  8
Default
 10
237.18311919563
 20
1205.02368626855
 42
0.0
  0
SEQEND
  0
POLYLINE
  8
Default
 66
     1
 10
0.0
 20
0.0
 30
0.0
 70
     1
  0
VERTEX
  8
Default
 10
155.488879166945
 20
1675.54460567442
 42
0.0031239532739
  0
VERTEX
  8
Default
 10
154.835557679048
 20
1675.54874606789
 42
-0.0000618124255
  0
VERTEX
  8
Default
 10
153.857008151663
 20
1674.52038336202
 42
0.0
  0
VERTEX
  8
Default
 10
153.857008151663
 20
1597.93872596711
 42
0.0
  0
VERTEX
  8
Default
 10
154.859754771193
 20
1596.89541647637
 42
-0.0084249407669
  0
VERTEX
  8
Default
 10
155.51307625909
 20
1596.8912760829
 42
0.0
  0
VERTEX
  8
Default
 10
193.296835642496
 20
1636.22259882131
 42
0.0
  0
SEQEND
  0
POLYLINE
  8
Default
 66
     1
 10
0.0
 20
0.0
 30
0.0
 70
     1
  0
VERTEX
  8
Default
 10
156.141369843216
 20
1417.95089073414
 42
0.0031239532739
  0
VERTEX
  8
Default
 10
155.488048355319
 20
1417.95503112761
 42
-0.0001030196409
  0
VERTEX
  8
Default
 10
153.857008151663
 20
1416.24124548283
 42
0.0
  0
VERTEX
  8
Default
 10
153.857008151663
 20
1341.023896103
 42
0.0
  0
VERTEX
  8
Default
 10
155.512245447464
 20
1339.30170153608
 42
-0.0084249407669
  0
VERTEX
  8
Default
 10
156.165566935361
 20
1339.29756114261
 42
0.0
  0
VERTEX
  8
Default
 10
193.949326318767
 20
1378.62888388103
 42
0.0
  0
SEQEND
  0
POLYLINE
  8
Default
 66
     1
 10
0.0
 20
0.0
 30
0.0
 70
     1
  0
VERTEX
  8
Default
 10
156.122647144799
 20
1289.20580877788
 42
0.0
  0
VERTEX
  8
Default
 10
193.927658010086
 20
1249.88703799735
 42
0.0
  0
VERTEX
  8
Default
 10
156.14389862668
 20
1210.55571525893
 42
0.0011019263714
  0
VERTEX
  8
Default
 10
155.490577138782
 20
1210.5598556524
 42
0.0
  0
VERTEX
  8
Default
 10
153.857008151663
 20
1212.25950538929
 42
0.0
  0
VERTEX
  8
Default
 10
153.857008151663
 20
1287.52624594393
 42
0.0
  0
VERTEX
  8
Default
 10
155.47847859271
 20
1289.2140478259
 42
0.1915595190313
  0
VERTEX
  8
Default
 10
156.119701534535
 20
1289.20887233406
 42
0.0
  0
SEQEND
  0
POLYLINE
  8
Default
 66
     1
 10
0.0
 20
0.0
 30
0.0
 70
     1
  0
VERTEX
  8
Default
 10
154.865535058294
 20
1725.63549555181
 42
0.00360623187
  0
VERTEX
  8
Default
 10
155.518653361926
 20
1725.63139397772
 42
-0.0023999086742
  0
VERTEX
  8
Default
 10
193.29031419926
 20
1764.96271671614
 42
0.0
  0
VERTEX
  8
Default
 10
155.494456269781
 20
1804.28472356925
 42
-0.0051425805509
  0
VERTEX
  8
Default
 10
154.841134781884
 20
1804.28903647912
 42
0.0
  0
VERTEX
  8
Default
 10
153.857008151663
 20
1803.26467346462
 42
0.0
  0
VERTEX
  8
Default
 10
153.857008151663
 20
1726.68448336893
 42
0.0
  0
SEQEND
  0
POLYLINE
  8
Default
 66
     1
 10
0.0
 20
0.0
 30
0.0
 70
     1
  0
VERTEX
  8
Default
 10
155.470156468528
 20
1546.79952371816
 42
0.0
  0
VERTEX
  8
Default
 10
193.275167333815
 20
1507.48075293763
 42
0.0
  0
VERTEX
  8
Default
 10
155.491407950409
 20
1468.14943019921
 42
0.0011019263714
  0
VERTEX
  8
Default
 10
154.838086462511
 20
1468.15357059268
 42
0.0
  0
VERTEX
  8
Default
 10
153.857008151663
 20
1469.1743352534
 42
0.0
  0
VERTEX
  8
Default
 10
153.857008151663
 20
1545.79914378111
 42
0.0
  0
VERTEX
  8
Default
 10
154.825987916439
 20
1546.80776276618
 42
0.1915595190313
  0
VERTEX
  8
Default
 10
155.467210858264
 20
1546.80258727434
 42
0.0
  0
SEQEND
  0
POLYLINE
  8
Default
 66
     1
 10
0.0
 20
0.0
 30
0.0
 70
     1
  0
VERTEX
  8
Default
 10
844.494670062918
 20
1353.58543799929
 42
0.1926062864648
  0
VERTEX
  8
Default
 10
845.140242688808
 20
1353.58164481041
 42
0.0
  0
VERTEX
  8
Default
 10
846.142989308337
 20
1352.53875153767
 42
0.0
  0
VERTEX
  8
Default
 10
846.14298930833
 20
1275.94432900982
 42
-0.0000159753762
  0
VERTEX
  8
Default
 10
845.16952208445
 20
1274.92814903173
 42
-0.0037913758514
  0
VERTEX
  8
Default
 10
844.511118293055
 20
1274.93228309596
 42
0.0
  0
VERTEX
  8
Default
 10
806.715260363576
 20
1314.2565326622
 42
0.0
  0
VERTEX
  8
Default
 10
844.48692120091
 20
1353.58509513831
 42
-0.0002972341201
  0
SEQEND
  0
POLYLINE
  8
Default
 66
     1
 10
0.0
 20
0.0
 30
0.0
 70
     1
  0
VERTEX
  8
Default
 10
156.134848399981
 20
1160.36146502897
 42
0.0031239532739
  0
VERTEX
  8
Default
 10
155.481526912083
 20
1160.36560542244
 42
-0.0001026078228
  0
VERTEX
  8
Default
 10
153.857008151663
 20
1158.65866924956
 42
0.0
  0
VERTEX
  8
Default
 10
153.857008151663
 20
1083.4276851507
 42
0.0
  0
VERTEX
  8
Default
 10
155.505724004227
 20
1081.71227583091
 42
-0.0084249407669
  0
VERTEX
  8
Default
 10
156.159045492125
 20
1081.70813543744
 42
0.0
  0
VERTEX
  8
Default
 10
186.525209902442
 20
1113.31805017966
 42
-0.0088712434251
  0
VERTEX
  8
Default
 10
190.74267867715
 20
1124.36773603147
 42
0.0
  0
SEQEND
  0
POLYLINE
  8
Default
 66
     1
 10
0.0
 20
0.0
 30
0.0
 70
     1
  0
VERTEX
  8
Default
 10
845.140242688808
 20
1224.84473567086
 42
0.0031239534031
  0
VERTEX
  8
Default
 10
844.48692120091
 20
1224.84887606433
 42
-0.0023744349597
  0
VERTEX
  8
Default
 10
806.715260363576
 20
1185.52031358823
 42
0.0
  0
VERTEX
  8
Default
 10
844.511118293055
 20
1146.19554647281
 42
-0.0011019263847
  0
VERTEX
  8
Default
 10
845.164439780952
 20
1146.19140607934
 42
0.0
  0
VERTEX
  8
Default
 10
846.142989308337
 20
1147.21003545622
 42
0.0
  0
VERTEX
  8
Default
 10
846.142989308337
 20
1223.80183324712
 42
0.0
  0
SEQEND
  0
POLYLINE
  8
Default
 66
     1
 10
0.0
 20
0.0
 30
0.0
 70
     1
  0
VERTEX
  8
Default
 10
843.843406805418
 20
1739.9192686626
 42
0.192419751115
  0
VERTEX
  8
Default
 10
844.488979431308
 20
1739.91375030978
 42
0.0
  0
VERTEX
  8
Default
 10
846.142989308337
 20
1738.19297625539
 42
0.0
  0
VERTEX
  8
Default
 10
846.14298930835
 20
1662.95295423903
 42
-0.0000337633523
  0
VERTEX
  8
Default
 10
844.51825882695
 20
1661.26094459667
 42
-0.0037913756374
  0
VERTEX
  8
Default
 10
843.859855035555
 20
1661.2650786609
 42
0.0
  0
VERTEX
  8
Default
 10
806.051898560004
 20
1700.58984577633
 42
0.0
  0
VERTEX
  8
Default
 10
843.835657943411
 20
1739.91892580162
 42
-0.0003130698269
  0
SEQEND
  0
POLYLINE
  8
Default
 66
     1
 10
0.0
 20
0.0
 30
0.0
 70
     1
  0
VERTEX
  8
Default
 10
468.677419894135
 20
1790.00019358029
 42
0.0011019261775
  0
VERTEX
  8
Default
 10
468.024098406237
 20
1790.00433397376
 42
0.0
  0
VERTEX
  8
Default
 10
430.228240476759
 20
1829.32927360558
 42
0.0
  0
VERTEX
  8
Default
 10
430.646442947466
 20
1829.76558633844
 42
0.0
  0
VERTEX
  8
Default
 10
506.04381348828
 20
1829.76558633844
 42
0.0
  0
VERTEX
  8
Default
 10
506.461179277541
 20
1829.33151631871
 42
0.0
  0
SEQEND
  0
POLYLINE
  8
Default
 66
     1
 10
0.0
 20
0.0
 30
0.0
 70
     1
  0
VERTEX
  8
Default
 10
843.821738496736
 20
1611.17621516416
 42
0.1926062864648
  0
VERTEX
  8
Default
 10
844.467311122627
 20
1611.17242197528
 42
0.0
  0
VERTEX
  8
Default
 10
846.142989308336
 20
1609.42965518542
 42
0.0
  0
VERTEX
  8
Default
 10
846.142989308344
 20
1534.2339955155
 42
-0.0000269895424
  0
VERTEX
  8
Default
 10
844.496590518269
 20
1532.5189261966
 42
-0.0037913758657
  0
VERTEX
  8
Default
 10
843.838186726874
 20
1532.52306026083
 42
0.0
  0
VERTEX
  8
Default
 10
806.042328797395
 20
1571.84730982707
 42
0.0
  0
VERTEX
  8
Default
 10
843.813989634729
 20
1611.17587230317
 42
-0.0002972341237
  0
SEQEND
  0
POLYLINE
  8
Default
 66
     1
 10
0.0
 20
0.0
 30
0.0
 70
     1
  0
VERTEX
  8
Default
 10
593.304542983622
 20
1790.00416145736
 42
0.0026690007587
  0
VERTEX
  8
Default
 10
593.957864471519
 20
1790.00019358029
 42
-0.0023999086743
  0
VERTEX
  8
Default
 10
631.729525308853
 20
1829.33151631871
 42
0.0
  0
VERTEX
  8
Default
 10
631.312300398725
 20
1829.76558633844
 42
0.0
  0
VERTEX
  8
Default
 10
555.915917673172
 20
1829.76558633844
 42
0.0
  0
VERTEX
  8
Default
 10
555.496586508071
 20
1829.32910108918
 42
0.0
  0
SEQEND
  0
POLYLINE
  8
Default
 66
     1
 10
0.0
 20
0.0
 30
0.0
 70
     1
  0
VERTEX
  8
Default
 10
844.467311122627
 20
1482.43551283573
 42
0.0031239534031
  0
VERTEX
  8
Default
 10
843.813989634729
 20
1482.4396532292
 42
-0.0023744349597
  0
VERTEX
  8
Default
 10
806.042328797395
 20
1443.1110907531
 42
0.0
  0
VERTEX
  8
Default
 10
843.838186726874
 20
1403.78632363767
 42
-0.0011019263847
  0
VERTEX
  8
Default
 10
844.491508214771
 20
1403.7821832442
 42
0.0
  0
VERTEX
  8
Default
 10
846.142989308337
 20
1405.50130640578
 42
0.0
  0
VERTEX
  8
Default
 10
846.142989308337
 20
1480.69273075374
 42
0.0
  0
SEQEND
  0
POLYLINE
  8
Default
 66
     1
 10
0.0
 20
0.0
 30
0.0
 70
     1
  0
VERTEX
  8
Default
 10
217.487406343613
 20
1790.00347139179
 42
0.0026690007587
  0
VERTEX
  8
Default
 10
218.14072783151
 20
1789.99950351471
 42
-0.0023999086743
  0
VERTEX
  8
Default
 10
255.912388668845
 20
1829.33082625313
 42
0.0
  0
VERTEX
  8
Default
 10
255.494500472758
 20
1829.76558633844
 42
0.0
  0
VERTEX
  8
Default
 10
180.099443978826
 20
1829.76558633844
 42
0.0
  0
VERTEX
  8
Default
 10
179.679449868062
 20
1829.3284110236
 42
0.0
  0
SEQEND
  0
POLYLINE
  8
Default
 66
     1
 10
0.0
 20
0.0
 30
0.0
 70
     1
  0
VERTEX
  8
Default
 10
844.516338371599
 20
1095.99894789774
 42
0.1924197511149
  0
VERTEX
  8
Default
 10
845.161910997489
 20
1095.99342954491
 42
0.0
  0
VERTEX
  8
Default
 10
846.142989308337
 20
1094.97274996732
 42
0.0
  0
VERTEX
  8
Default
 10
846.142989308333
 20
1018.33396338716
 42
-0.0000198012823
  0
VERTEX
  8
Default
 10
845.191190393131
 20
1017.34062383181
 42
-0.0037913758221
  0
VERTEX
  8
Default
 10
844.532786601736
 20
1017.34475789604
 42
0.0
  0
VERTEX
  8
Default
 10
831.934168217175
 20
1030.44881799697
 42
0.0341688094855
  0
VERTEX
  8
Default
 10
824.694058213452
 20
1075.37367782658
 42
0.0
  0
VERTEX
  8
Default
 10
844.508589509592
 20
1095.99860503675
 42
-0.0003130698319
  0
SEQEND
  0
POLYLINE
  8
Default
 66
     1
 10
0.0
 20
0.0
 30
0.0
 70
     1
  0
VERTEX
  8
Default
 10
341.969324110483
 20
1124.35754199805
 42
-0.0419626514218
  0
VERTEX
  8
Default
 10
364.951214260524
 20
1148.99771235107
 42
1.3446482630113
  0
SEQEND
  0
POLYLINE
  8
Default
 66
     1
 10
0.0
 20
0.0
 30
0.0
 70
     1
  0
VERTEX
  8
Default
 10
404.358489734616
 20
1176.89317212057
 42
-0.0422055717166
  0
VERTEX
  8
Default
 10
435.420978268258
 20
1190.44170435333
 42
1.3171378440045
  0
SEQEND
  0
POLYLINE
  8
Default
 66
     1
 10
0.0
 20
0.0
 30
0.0
 70
     1
  0
VERTEX
  8
Default
 10
484.782890994395
 20
1200.51666343191
 42
-1.3197516855632
  0
VERTEX
  8
Default
 10
518.652192016597
 20
1200.22634283761
 42
0.0421829374367
  0
SEQEND
  0
POLYLINE
  8
Default
 66
     1
 10
0.0
 20
0.0
 30
0.0
 70
     1
  0
VERTEX
  8
Default
 10
567.325781090692
 20
1189.48807790056
 42
-0.0419756837069
  0
VERTEX
  8
Default
 10
598.02800057685
 20
1175.5818995067
 42
1.3432007019716
  0
SEQEND
  0
POLYLINE
  8
Default
 66
     1
 10
0.0
 20
0.0
 30
0.0
 70
     1
  0
VERTEX
  8
Default
 10
637.827084161505
 20
1146.43150953116
 42
-0.0420840004749
  0
VERTEX
  8
Default
 10
660.400290853803
 20
1121.28577264718
 42
1.3310501881294
  0
SEQEND
  0
POLYLINE
  8
Default
 66
     1
 10
0.0
 20
0.0
 30
0.0
 70
     1
  0
VERTEX
  8
Default
 10
685.249434389075
 20
1078.23770685063
 42
-0.041539518873
  0
VERTEX
  8
Default
 10
695.633731373984
 20
1046.53960365472
 42
1.3902293426316
  0
SEQEND
  0
POLYLINE
  8
Default
 66
     1
 10
0.0
 20
0.0
 30
0.0
 70
     1
  0
VERTEX
  8
Default
 10
684.132722997582
 20
919.169118567032
 42
-0.0424852784543
  0
VERTEX
  8
Default
 10
667.821090186108
 20
889.2093294529
 42
1.2838028328215
  0
SEQEND
  0
POLYLINE
  8
Default
 66
     1
 10
0.0
 20
0.0
 30
0.0
 70
     1
  0
VERTEX
  8
Default
 10
701.092142238017
 20
999.335406697092
 42
-0.0418975334356
  0
VERTEX
  8
Default
 10
698.167253354173
 20
965.820606740971
 42
1.3518377767923
  0
SEQEND
  0
POLYLINE
  8
Default
 66
     1
 10
0.0
 20
0.0
 30
0.0
 70
     1
  0
VERTEX
  8
Default
 10
405.698519498538
 20
822.388845616999
 42
-0.0418733224933
  0
VERTEX
  8
Default
 10
377.424008691193
 20
840.583508110419
 42
1.3544929594072
  0
SEQEND
  0
POLYLINE
  8
Default
 66
     1
 10
0.0
 20
0.0
 30
0.0
 70
     1
  0
VERTEX
  8
Default
 10
565.935937417185
 20
810.023835479969
 42
-0.0421086217498
  0
VERTEX
  8
Default
 10
533.175111717817
 20
801.66214950091
 42
1.3282571291606
  0
SEQEND
  0
POLYLINE
  8
Default
 66
     1
 10
0.0
 20
0.0
 30
0.0
 70
     1
  0
VERTEX
  8
Default
 10
485.195669285027
 20
799.452442340808
 42
-0.0419866431568
  0
VERTEX
  8
Default
 10
451.900051521895
 20
804.744049633708
 42
1.3419810709398
  0
SEQEND
  0
POLYLINE
  8
Default
 66
     1
 10
0.0
 20
0.0
 30
0.0
 70
     1
  0
VERTEX
  8
Default
 10
636.340184509979
 20
852.183069275034
 42
-0.0422892787457
  0
VERTEX
  8
Default
 10
609.525981886144
 20
831.350807305313
 42
1.307370285201
  0
SEQEND
  0
POLYLINE
  8
Default
 66
     1
 10
0.0
 20
0.0
 30
0.0
 70
     1
  0
VERTEX
  8
Default
 10
339.851410145922
 20
878.382069790823
 42
-0.0421788914715
  0
VERTEX
  8
Default
 10
321.712982335707
 20
906.982629175105
 42
1.3202177432874
  0
SEQEND
  0
POLYLINE
  8
Default
 66
     1
 10
0.0
 20
0.0
 30
0.0
 70
     1
  0
VERTEX
  8
Default
 10
302.728950244054
 20
960.979170454278
 42
-0.041911337823
  0
VERTEX
  8
Default
 10
298.984095568088
 20
994.423395211666
 42
1.3503195971036
  0
SEQEND
  0
POLYLINE
  8
Default
 66
     1
 10
0.0
 20
0.0
 30
0.0
 70
     1
  0
VERTEX
  8
Default
 10
304.606912519224
 20
1047.53981406827
 42
-0.0416812306983
  0
VERTEX
  8
Default
 10
315.198071646953
 20
1079.28896478017
 42
1.3752439608144
  0
SEQEND
  0
ENDSEC
  0
EOF
