  0
SECTION
  2
HEADER
  9
$ACADVER
  1
AC1009
  9
$EXTMAX
 10
1000.0
 20
2000.0
 30
0.0
  9
$EXTMIN
 10
0.0
 20
-0.0000000000001
 30
0.0
  9
$INSUNITS
 70
     4
  9
$LUNITS
 70
     2
  9
$LUPREC
 70
     4
  9
$MEASUREMENT
 70
     1
  0
ENDSEC
  0
SECTION
  2
TABLES
  0
TABLE
  2
LAYER
 70
     1
  0
LAYER
  2
0
 70
     0
 62
     7
  6
Continuous
  0
LAYER
  2
Default
 70
     0
 62
    70
  6
Continuous
  0
ENDTAB
  0
TABLE
  2
APPID
 70
     1
  0
APPID
  2
ACAD
 70
     0
  0
ENDTAB
  0
ENDSEC
  0
SECTION
  2
ENTITIES
  0
POLYLINE
  8
Default
 66
     1
 10
0.0
 20
0.0
 30
0.0
 70
     1
  0
VERTEX
  8
Default
 10
411.911147816677
 20
581.975158464474
 42
0.3553354234805
  0
VERTEX
  8
Default
 10
414.400709292366
 20
596.340222591245
 42
0.5423177763984
  0
VERTEX
  8
Default
 10
400.805160172057
 20
598.004421257225
 42
0.371173400428
  0
VERTEX
  8
Default
 10
400.962116348565
 20
583.035898953132
 42
0.3872880607797
  0
SEQEND
  0
POLYLINE
  8
Default
 66
     1
 10
0.0
 20
0.0
 30
0.0
 70
     1
  0
VERTEX
  8
Default
 10
109.159673914573
 20
1606.93566440591
 42
0.4606743172122
  0
VERTEX
  8
Default
 10
107.30430377744
 20
1587.34748952226
 42
0.4541988557842
  0
VERTEX
  8
Default
 10
122.859800634956
 20
1588.38070959105
 42
0.369372671782
  0
VERTEX
  8
Default
 10
122.056969124938
 20
1605.3184441141
 42
0.3615844660805
  0
SEQEND
  0
POLYLINE
  8
Default
 66
     1
 10
0.0
 20
0.0
 30
0.0
 70
     1
  0
VERTEX
  8
Default
 10
126.723698505271
 20
530.86797809721
 42
0.4606742197757
  0
VERTEX
  8
Default
 10
128.579068171494
 20
550.456148779468
 42
0.4541990339854
  0
VERTEX
  8
Default
 10
113.023569434238
 20
549.422932930687
 42
0.3693725625767
  0
VERTEX
  8
Default
 10
113.826404806286
 20
532.485191420525
 42
0.3615846367846
  0
SEQEND
  0
POLYLINE
  8
Default
 66
     1
 10
0.0
 20
0.0
 30
0.0
 70
     1
  0
VERTEX
  8
Default
 10
149.655382239388
 20
1587.25833201468
 42
0.1741510266352
  0
VERTEX
  8
Default
 10
141.996783934592
 20
1588.47510260188
 42
-0.4736349819349
  0
VERTEX
  8
Default
 10
105.93427328075
 20
1566.12595610076
 42
-0.2104008064129
  0
VERTEX
  8
Default
 10
89.3178683368947
 20
1586.60427602991
 42
0.2404221746737
  0
VERTEX
  8
Default
 10
80.0846329098661
 20
1586.89015897183
 42
0.1952346586389
  0
VERTEX
  8
Default
 10
99.6302431882382
 20
1556.90521682308
 42
0.3904352876657
  0
VERTEX
  8
Default
 10
142.195801781676
 20
1568.31609471406
 42
0.1252869732258
  0
VERTEX
  8
Default
 10
149.91835262259
 20
1586.70321196973
 42
0.0636245522474
  0
SEQEND
  0
POLYLINE
  8
Default
 66
     1
 10
0.0
 20
0.0
 30
0.0
 70
     1
  0
VERTEX
  8
Default
 10
381.741128319401
 20
1446.75393163228
 42
-0.4056843725938
  0
VERTEX
  8
Default
 10
388.133186405609
 20
1446.01472008555
 42
-0.4194941449073
  0
VERTEX
  8
Default
 10
387.891734442727
 20
1443.63198069835
 42
-0.063785946092
  0
VERTEX
  8
Default
 10
374.406209956544
 20
1438.85864678725
 42
0.5344424587424
  0
VERTEX
  8
Default
 10
398.033162405125
 20
1445.75541801802
 42
0.1498173417902
  0
VERTEX
  8
Default
 10
396.971309184781
 20
1460.94830251301
 42
0.1544632433017
  0
VERTEX
  8
Default
 10
395.209474072019
 20
1463.37817466163
 42
0.3914847285868
  0
VERTEX
  8
Default
 10
393.972152470652
 20
1462.9271841522
 42
-0.2596852274136
  0
VERTEX
  8
Default
 10
379.302716005762
 20
1454.57484196768
 42
0.4700830037514
  0
VERTEX
  8
Default
 10
371.38529106726
 20
1449.22030612224
 42
0.0763472351743
  0
VERTEX
  8
Default
 10
371.857516752586
 20
1441.88355274805
 42
-0.0460383630287
  0
SEQEND
  0
POLYLINE
  8
Default
 66
     1
 10
0.0
 20
0.0
 30
0.0
 70
     1
  0
VERTEX
  8
Default
 10
360.276032911968
 20
1425.36920677268
 42
0.2249904607114
  0
VERTEX
  8
Default
 10
366.178567076254
 20
1445.67070748008
 42
0.2280987655415
  0
VERTEX
  8
Default
 10
347.215955434092
 20
1480.48174255164
 42
0.2966769405962
  0
VERTEX
  8
Default
 10
345.169666542836
 20
1477.20707949647
 42
-0.1385003193437
  0
VERTEX
  8
Default
 10
341.30136205697
 20
1449.49968887163
 42
0.2230044638031
  0
VERTEX
  8
Default
 10
338.566907637933
 20
1427.26991521676
 42
0.4818480154762
  0
VERTEX
  8
Default
 10
342.127862762924
 20
1425.91905515812
 42
0.2359350983249
  0
VERTEX
  8
Default
 10
352.062741827295
 20
1443.41617132356
 42
0.042108477181
  0
VERTEX
  8
Default
 10
351.614631156939
 20
1447.68453731533
 42
-0.9739235039044
  0
VERTEX
  8
Default
 10
355.181168205798
 20
1446.69383257953
 42
-0.1692570855889
  0
VERTEX
  8
Default
 10
354.399672478138
 20
1435.95359470549
 42
0.0667870338161
  0
VERTEX
  8
Default
 10
348.530866867063
 20
1422.93018778932
 42
0.1014754389493
  0
VERTEX
  8
Default
 10
350.46219543386
 20
1416.33656896338
 42
0.5578782944593
  0
VERTEX
  8
Default
 10
353.581800867235
 20
1415.62072378179
 42
0.0129825203975
  0
VERTEX
  8
Default
 10
360.275644206778
 20
1425.36877056956
 42
0.0
  0
SEQEND
  0
POLYLINE
  8
Default
 66
     1
 10
0.0
 20
0.0
 30
0.0
 70
     1
  0
VERTEX
  8
Default
 10
198.745681227577
 20
71.8413575707689
 42
0.0
  0
VERTEX
  8
Default
 10
196.583135024241
 20
69.8202485593901
 42
-0.3085750805726
  0
VERTEX
  8
Default
 10
157.474399771966
 20
464.070748296997
 42
0.0
  0
VERTEX
  8
Default
 10
157.333796175628
 20
425.861686608361
 42
0.2460399208207
  0
SEQEND
  0
POLYLINE
  8
Default
 66
     1
 10
0.0
 20
0.0
 30
0.0
 70
     1
  0
VERTEX
  8
Default
 10
197.083940865634
 20
422.785112065186
 42
-0.3915595686357
  0
VERTEX
  8
Default
 10
195.861876530929
 20
425.94736880863
 42
-0.0542326530322
  0
VERTEX
  8
Default
 10
197.566171306116
 20
438.202384990234
 42
-0.1257807556786
  0
VERTEX
  8
Default
 10
239.048034427259
 20
525.701604195155
 42
-0.002261631109
  0
VERTEX
  8
Default
 10
321.031356315101
 20
619.753937578847
 42
-0.0919970867459
  0
VERTEX
  8
Default
 10
328.695823598314
 20
627.246556871424
 42
-0.4210191621701
  0
VERTEX
  8
Default
 10
332.076565889529
 20
627.265106186191
 42
-0.3647795017921
  0
VERTEX
  8
Default
 10
332.080294462387
 20
613.339519725045
 42
-0.0202056350725
  0
VERTEX
  8
Default
 10
330.858686252996
 20
611.792925992657
 42
-0.0150188341211
  0
VERTEX
  8
Default
 10
275.788406916897
 20
552.794644006131
 42
0.0955986678397
  0
VERTEX
  8
Default
 10
221.017471170535
 20
481.075141263433
 42
0.0459246249816
  0
VERTEX
  8
Default
 10
199.913930143958
 20
427.08825564654
 42
-0.3619571362295
  0
SEQEND
  0
POLYLINE
  8
Default
 66
     1
 10
0.0
 20
0.0
 30
0.0
 70
     1
  0
VERTEX
  8
Default
 10
66.4180954029994
 20
1840.8762458472
 42
0.2772708847567
  0
VERTEX
  8
Default
 10
82.8932093319709
 20
1834.61856388384
 42
-0.5083075167856
  0
VERTEX
  8
Default
 10
92.0453767273314
 20
1829.24467936867
 42
-0.057753316681
  0
VERTEX
  8
Default
 10
92.6675899474406
 20
1823.40141836639
 42
0.0299592616236
  0
VERTEX
  8
Default
 10
80.7233538617436
 20
1826.94308779869
 42
0.3424093835198
  0
VERTEX
  8
Default
 10
76.1438549871466
 20
1824.93008016908
 42
0.4392695461857
  0
VERTEX
  8
Default
 10
77.0355856473007
 20
1822.50717360792
 42
0.0583475820965
  0
VERTEX
  8
Default
 10
90.8275269971433
 20
1820.05355614633
 42
-0.5214751121997
  0
VERTEX
  8
Default
 10
66.6814801462542
 20
1822.99593565089
 42
-0.1555187061084
  0
VERTEX
  8
Default
 10
64.5705097295088
 20
1838.18003348367
 42
-0.4135510393439
  0
SEQEND
  0
POLYLINE
  8
Default
 66
     1
 10
0.0
 20
0.0
 30
0.0
 70
     1
  0
VERTEX
  8
Default
 10
393.669493407693
 20
1194.0801182806
 42
-0.1480066100542
  0
VERTEX
  8
Default
 10
411.538280084469
 20
1193.00351560071
 42
-0.1168742165891
  0
VERTEX
  8
Default
 10
420.247988368662
 20
1141.46611028066
 42
-0.2135014045543
  0
VERTEX
  8
Default
 10
392.2664837876
 20
1097.23880646649
 42
-0.4831198957918
  0
VERTEX
  8
Default
 10
334.895917394621
 20
1118.12371243103
 42
-0.0666493871435
  0
VERTEX
  8
Default
 10
329.175130923627
 20
1141.31563500675
 42
-0.127975246696
  0
VERTEX
  8
Default
 10
329.525560358795
 20
1155.41748126763
 42
-0.2833435809781
  0
VERTEX
  8
Default
 10
342.613500282537
 20
1166.86325829902
 42
-0.4025650105983
  0
VERTEX
  8
Default
 10
368.841115110148
 20
1153.33056768607
 42
-0.1976934120553
  0
VERTEX
  8
Default
 10
367.296143611882
 20
1130.5394742794
 42
-0.0761194796758
  0
VERTEX
  8
Default
 10
364.654614294155
 20
1126.84307691398
 42
-0.0013569321268
  0
VERTEX
  8
Default
 10
355.319467018434
 20
1118.13768317321
 42
0.5888655971432
  0
VERTEX
  8
Default
 10
355.916605642821
 20
1109.82865924829
 42
0.1991886148415
  0
VERTEX
  8
Default
 10
384.738328602731
 20
1110.19083940581
 42
0.2761164908913
  0
VERTEX
  8
Default
 10
402.0559563543
 20
1130.40406811511
 42
0.0588203159758
  0
VERTEX
  8
Default
 10
403.84096648991
 20
1155.07021140966
 42
0.1281404887218
  0
VERTEX
  8
Default
 10
394.511011207665
 20
1187.04897973352
 42
-0.1389525704351
  0
VERTEX
  8
Default
 10
392.380986586511
 20
1191.63548316395
 42
-0.2455863534073
  0
SEQEND
  0
POLYLINE
  8
Default
 66
     1
 10
0.0
 20
0.0
 30
0.0
 70
     1
  0
VERTEX
  8
Default
 10
378.803591687728
 20
518.427862670743
 42
-0.5110182589826
  0
VERTEX
  8
Default
 10
378.361185039151
 20
512.882511402693
 42
-0.0743359454912
  0
VERTEX
  8
Default
 10
360.954242615935
 20
507.301394126788
 42
0.1325124169658
  0
VERTEX
  8
Default
 10
343.138032346772
 20
498.978832101077
 42
0.3945868500015
  0
VERTEX
  8
Default
 10
343.424610871918
 20
486.901344473324
 42
0.2151540782135
  0
VERTEX
  8
Default
 10
364.45506809908
 20
480.868451035731
 42
0.1525214145653
  0
VERTEX
  8
Default
 10
402.534737295655
 20
490.614748743115
 42
-0.1127885712999
  0
VERTEX
  8
Default
 10
415.709613105801
 20
494.359330899465
 42
-0.0754013926283
  0
VERTEX
  8
Default
 10
443.302491667015
 20
491.589421995958
 42
0.115203890129
  0
VERTEX
  8
Default
 10
424.634506927915
 20
525.746998513962
 42
0.1099000235233
  0
VERTEX
  8
Default
 10
405.723030872865
 20
539.279436495582
 42
0.1259452077821
  0
VERTEX
  8
Default
 10
368.945254347153
 20
544.331422599386
 42
0.3398592219477
  0
VERTEX
  8
Default
 10
326.823346869854
 20
507.18353795052
 42
-0.0857020817212
  0
VERTEX
  8
Default
 10
365.526062184058
 20
522.374743374114
 42
-0.2279765571582
  0
SEQEND
  0
POLYLINE
  8
Default
 66
     1
 10
0.0
 20
0.0
 30
0.0
 70
     1
  0
VERTEX
  8
Default
 10
157.471423833643
 20
1524.39269686834
 42
0.1111264517405
  0
VERTEX
  8
Default
 10
144.079265956045
 20
1488.57173685951
 42
0.1592287943431
  0
VERTEX
  8
Default
 10
158.139975252313
 20
1442.92353996536
 42
0.039418127669
  0
VERTEX
  8
Default
 10
173.698524665164
 20
1429.63343880501
 42
-0.6786479667482
  0
VERTEX
  8
Default
 10
172.190008942932
 20
1418.65536833798
 42
-0.1739144287211
  0
VERTEX
  8
Default
 10
163.55164869175
 20
1420.70295638302
 42
-0.098709908743
  0
VERTEX
  8
Default
 10
151.888142215638
 20
1431.94215646306
 42
-0.1547631448292
  0
VERTEX
  8
Default
 10
135.101275015466
 20
1490.24852349798
 42
-0.160536645054
  0
VERTEX
  8
Default
 10
149.278573909992
 20
1530.21642528191
 42
-0.2198619815422
  0
VERTEX
  8
Default
 10
155.220143106465
 20
1531.33597774554
 42
-0.4362724460402
  0
VERTEX
  8
Default
 10
157.960898589555
 20
1527.2620315425
 42
-0.0419921567197
  0
VERTEX
  8
Default
 10
157.471154189227
 20
1524.39264026442
 42
0.0
  0
SEQEND
  0
POLYLINE
  8
Default
 66
     1
 10
0.0
 20
0.0
 30
0.0
 70
     1
  0
VERTEX
  8
Default
 10
156.411095014585
 20
552.571337619096
 42
-0.1471226693435
  0
VERTEX
  8
Default
 10
148.647658046725
 20
551.2714206951
 42
0.4239415046823
  0
VERTEX
  8
Default
 10
115.755582784806
 20
573.781183662934
 42
0.2548865933358
  0
VERTEX
  8
Default
 10
95.9687424490295
 20
553.080940071953
 42
-0.1696709677058
  0
VERTEX
  8
Default
 10
87.1488158968064
 20
552.47065494479
 42
-0.4861485848393
  0
VERTEX
  8
Default
 10
87.4196260560727
 20
555.509685790223
 42
-0.0861885326997
  0
VERTEX
  8
Default
 10
97.4492989956706
 20
574.121294089687
 42
-0.4996246752161
  0
VERTEX
  8
Default
 10
149.032477153726
 20
570.497354885545
 42
-0.1266576961255
  0
VERTEX
  8
Default
 10
156.563056457665
 20
553.087771919331
 42
-0.1158567045149
  0
SEQEND
  0
POLYLINE
  8
Default
 66
     1
 10
0.0
 20
0.0
 30
0.0
 70
     1
  0
VERTEX
  8
Default
 10
74.9822709143371
 20
1752.82715760079
 42
-0.7441747582006
  0
VERTEX
  8
Default
 10
70.725159350869
 20
1755.31370620181
 42
-0.060846198842
  0
VERTEX
  8
Default
 10
82.6803983905559
 20
1764.1920315548
 42
0.4886692798093
  0
VERTEX
  8
Default
 10
61.5843346412159
 20
1750.17025620396
 42
0.1645021594025
  0
VERTEX
  8
Default
 10
65.7129251665017
 20
1736.47732599276
 42
0.5669874734096
  0
VERTEX
  8
Default
 10
68.7759726518723
 20
1735.41992092625
 42
-0.2672124202292
  0
VERTEX
  8
Default
 10
83.3715104281973
 20
1748.86301130422
 42
0.33540099115
  0
VERTEX
  8
Default
 10
87.65952564232
 20
1755.34800136306
 42
0.081767412169
  0
VERTEX
  8
Default
 10
85.716731692828
 20
1762.22910268035
 42
-0.0601254665079
  0
SEQEND
  0
POLYLINE
  8
Default
 66
     1
 10
0.0
 20
0.0
 30
0.0
 70
     1
  0
VERTEX
  8
Default
 10
210.332027261094
 20
1273.01276134367
 42
0.2715948749115
  0
VERTEX
  8
Default
 10
211.887070442651
 20
1273.6919717891
 42
-0.0515144958063
  0
VERTEX
  8
Default
 10
234.928867706276
 20
1307.94451631766
 42
-0.1031522576965
  0
VERTEX
  8
Default
 10
325.755397259215
 20
1388.22033988846
 42
0.0642698365421
  0
VERTEX
  8
Default
 10
331.384424234826
 20
1391.89105898381
 42
0.5003525892586
  0
VERTEX
  8
Default
 10
330.545960562422
 20
1398.3819536046
 42
0.1503341555035
  0
VERTEX
  8
Default
 10
316.015606941875
 20
1395.48702007277
 42
0.0393152888235
  0
VERTEX
  8
Default
 10
301.637825917149
 20
1387.3473501892
 42
0.125629846605
  0
VERTEX
  8
Default
 10
216.505392365284
 20
1294.42469720879
 42
0.0357693200417
  0
VERTEX
  8
Default
 10
210.505398361253
 20
1281.90310554577
 42
0.1802200534685
  0
VERTEX
  8
Default
 10
209.73366086577
 20
1273.6930213972
 42
0.2091169900185
  0
SEQEND
  0
POLYLINE
  8
Default
 66
     1
 10
0.0
 20
0.0
 30
0.0
 70
     1
  0
VERTEX
  8
Default
 10
418.817562465693
 20
1938.13171124636
 42
-0.2995053345096
  0
VERTEX
  8
Default
 10
417.403302221255
 20
1934.66174954553
 42
0.0706333483589
  0
VERTEX
  8
Default
 10
386.564175092363
 20
1888.56618738759
 42
-0.1494103788999
  0
VERTEX
  8
Default
 10
374.103468643368
 20
1871.62291560225
 42
-0.0637097803383
  0
VERTEX
  8
Default
 10
350.09817512659
 20
1860.29186522074
 42
-0.4066717127292
  0
VERTEX
  8
Default
 10
349.999305562225
 20
1869.38043442696
 42
0.0971268363617
  0
VERTEX
  8
Default
 10
361.887807701169
 20
1885.35593636232
 42
0.1846182721238
  0
VERTEX
  8
Default
 10
361.282965238205
 20
1892.27999911029
 42
0.4242659588149
  0
VERTEX
  8
Default
 10
357.941333108869
 20
1893.24554338649
 42
0.1036240538181
  0
VERTEX
  8
Default
 10
353.090030302616
 20
1889.0961699472
 42
0.1388229880901
  0
VERTEX
  8
Default
 10
340.584140924567
 20
1863.16660354502
 42
-0.1386752251333
  0
VERTEX
  8
Default
 10
336.88006287635
 20
1851.89311680918
 42
-0.5539995729748
  0
VERTEX
  8
Default
 10
333.960404027509
 20
1852.53188807161
 42
-0.2385914943998
  0
VERTEX
  8
Default
 10
332.895219613943
 20
1884.07462418203
 42
-0.1358524601167
  0
VERTEX
  8
Default
 10
361.761253227292
 20
1915.72458526173
 42
-0.064791460958
  0
VERTEX
  8
Default
 10
415.110997626358
 20
1937.91023994319
 42
-0.2437298092266
  0
SEQEND
  0
POLYLINE
  8
Default
 66
     1
 10
0.0
 20
0.0
 30
0.0
 70
     1
  0
VERTEX
  8
Default
 10
156.288490338518
 20
532.283125507758
 42
0.1741510724943
  0
VERTEX
  8
Default
 10
148.629889898948
 20
533.499898453588
 42
-0.4736353508569
  0
VERTEX
  8
Default
 10
112.567357873035
 20
511.150758204927
 42
-0.2104005073879
  0
VERTEX
  8
Default
 10
95.9509743012513
 20
531.629069308712
 42
0.2404219848753
  0
VERTEX
  8
Default
 10
86.7177398720237
 20
531.914952114443
 42
0.1952346724997
  0
VERTEX
  8
Default
 10
106.263355490095
 20
501.930006521326
 42
0.390434772875
  0
VERTEX
  8
Default
 10
148.82888404726
 20
513.340848551068
 42
0.1252868766574
  0
VERTEX
  8
Default
 10
156.551460952248
 20
531.728005248523
 42
0.0636245634096
  0
SEQEND
  0
POLYLINE
  8
Default
 66
     1
 10
0.0
 20
0.0
 30
0.0
 70
     1
  0
VERTEX
  8
Default
 10
417.012973414549
 20
1359.75528882058
 42
-0.6004058041394
  0
VERTEX
  8
Default
 10
414.227128908284
 20
1358.55496669457
 42
0.2256365213149
  0
VERTEX
  8
Default
 10
399.182335664713
 20
1369.08097038075
 42
-0.4920149947566
  0
VERTEX
  8
Default
 10
391.031806036612
 20
1378.15862512456
 42
-0.0426388611395
  0
VERTEX
  8
Default
 10
391.681031450771
 20
1382.33511615256
 42
0.0355565834862
  0
VERTEX
  8
Default
 10
403.536942613622
 20
1375.10756373236
 42
0.3108932030602
  0
VERTEX
  8
Default
 10
408.249633609629
 20
1375.65972708152
 42
0.442686377077
  0
VERTEX
  8
Default
 10
408.084878669169
 20
1377.96724631993
 42
0.0500322411491
  0
VERTEX
  8
Default
 10
394.313524935295
 20
1384.76863718367
 42
-0.5219103351068
  0
VERTEX
  8
Default
 10
418.931309933593
 20
1371.34861216744
 42
-0.1640184996956
  0
SEQEND
  0
POLYLINE
  8
Default
 66
     1
 10
0.0
 20
0.0
 30
0.0
 70
     1
  0
VERTEX
  8
Default
 10
90.7223679098254
 20
856.558885177392
 42
0.0648572159759
  0
VERTEX
  8
Default
 10
91.1246824186686
 20
856.299747803225
 42
0.0752703948433
  0
VERTEX
  8
Default
 10
121.259298512894
 20
847.293849741037
 42
-0.6692572614547
  0
VERTEX
  8
Default
 10
123.732678135662
 20
844.350521556724
 42
-0.2369906411605
  0
VERTEX
  8
Default
 10
104.844374406246
 20
841.577607560756
 42
-0.2177721638757
  0
VERTEX
  8
Default
 10
66.2807731183161
 20
873.955842768016
 42
-0.1596408358212
  0
VERTEX
  8
Default
 10
56.2787356974777
 20
916.946763640417
 42
0.0870830811339
  0
VERTEX
  8
Default
 10
90.4911457693299
 20
892.825783742963
 42
-0.1363283847952
  0
VERTEX
  8
Default
 10
115.451631045638
 20
868.025320380026
 42
-0.0209238898371
  0
VERTEX
  8
Default
 10
121.535744868195
 20
858.367244707894
 42
-0.1662772755412
  0
VERTEX
  8
Default
 10
96.1932381618759
 20
867.326449419578
 42
0.0850730722935
  0
VERTEX
  8
Default
 10
91.36582775374
 20
870.042921521191
 42
0.4374044757015
  0
VERTEX
  8
Default
 10
87.6550547631173
 20
868.798039739019
 42
0.2687499468824
  0
SEQEND
  0
POLYLINE
  8
Default
 66
     1
 10
0.0
 20
0.0
 30
0.0
 70
     1
  0
VERTEX
  8
Default
 10
120.876353760423
 20
1791.14186472349
 42
1.1724805731356
  0
VERTEX
  8
Default
 10
129.151372683515
 20
1785.10140992203
 42
0.8528925961871
  0
SEQEND
  0
POLYLINE
  8
Default
 66
     1
 10
0.0
 20
0.0
 30
0.0
 70
     1
  0
VERTEX
  8
Default
 10
281.342988758399
 20
1682.62897913954
 42
-0.4328142686552
  0
VERTEX
  8
Default
 10
279.502697589617
 20
1682.26878120751
 42
-0.1290947019771
  0
VERTEX
  8
Default
 10
266.303973067356
 20
1693.48069579815
 42
0.0539098439619
  0
VERTEX
  8
Default
 10
220.39123667337
 20
1740.16152587663
 42
0.043410348228
  0
VERTEX
  8
Default
 10
174.243614474979
 20
1766.68962254949
 42
0.1014236932488
  0
VERTEX
  8
Default
 10
144.488731180967
 20
1775.19910704709
 42
0.0
  0
VERTEX
  8
Default
 10
147.660099567994
 20
1788.9979420845
 42
-0.0598596834308
  0
VERTEX
  8
Default
 10
164.410219061895
 20
1785.56221394348
 42
-0.0934991358023
  0
VERTEX
  8
Default
 10
215.959836890175
 20
1757.81356738271
 42
-0.0867568130697
  0
VERTEX
  8
Default
 10
280.627866612534
 20
1685.01449773745
 42
-0.48653313031
  0
SEQEND
  0
POLYLINE
  8
Default
 66
     1
 10
0.0
 20
0.0
 30
0.0
 70
     1
  0
VERTEX
  8
Default
 10
117.313090531937
 20
1165.93220816526
 42
-0.4895322246535
  0
VERTEX
  8
Default
 10
115.764309642699
 20
1165.44879363204
 42
-0.191573519513
  0
VERTEX
  8
Default
 10
112.373948106671
 20
1169.98534673859
 42
-0.2240203467306
  0
VERTEX
  8
Default
 10
117.23520018804
 20
1211.98694747531
 42
-0.24132214472
  0
VERTEX
  8
Default
 10
141.034567573049
 20
1223.86144342898
 42
-0.0992438443611
  0
VERTEX
  8
Default
 10
144.925918293417
 20
1222.81564045673
 42
0.1277295386384
  0
VERTEX
  8
Default
 10
137.323154455012
 20
1205.58637093919
 42
-0.0803197144235
  0
VERTEX
  8
Default
 10
134.249265832199
 20
1175.03900254093
 42
-0.1319847899329
  0
VERTEX
  8
Default
 10
129.526807452055
 20
1169.1265858978
 42
-0.3965787153315
  0
VERTEX
  8
Default
 10
127.204840263838
 20
1168.86405797578
 42
-0.1586017626237
  0
VERTEX
  8
Default
 10
126.468926351735
 20
1172.62541710145
 42
0.0795917003986
  0
VERTEX
  8
Default
 10
127.314580036878
 20
1190.11672662221
 42
0.2876914493104
  0
VERTEX
  8
Default
 10
124.65189873655
 20
1193.181312324
 42
0.0
  0
VERTEX
  8
Default
 10
119.583411587096
 20
1194.55966932285
 42
0.0271164478809
  0
VERTEX
  8
Default
 10
116.342633251364
 20
1177.85446216192
 42
0.0487203859785
  0
VERTEX
  8
Default
 10
117.442708671153
 20
1166.58220684885
 42
-0.1467438261711
  0
SEQEND
  0
POLYLINE
  8
Default
 66
     1
 10
0.0
 20
0.0
 30
0.0
 70
     1
  0
VERTEX
  8
Default
 10
212.144047661639
 20
1906.86290034583
 42
-0.532445190928
  0
VERTEX
  8
Default
 10
212.866339886237
 20
1906.94730426566
 42
-0.0460068880899
  0
VERTEX
  8
Default
 10
221.658148092116
 20
1898.81359084219
 42
0.3274267527405
  0
VERTEX
  8
Default
 10
242.085340482051
 20
1899.95442356715
 42
0.2148583476402
  0
VERTEX
  8
Default
 10
248.14120855149
 20
1915.99712198593
 42
0.19122588238
  0
VERTEX
  8
Default
 10
238.710041911252
 20
1937.50650398182
 42
0.3018401650298
  0
VERTEX
  8
Default
 10
208.17602658894
 20
1939.37430039594
 42
0.0972916768431
  0
VERTEX
  8
Default
 10
204.744236186383
 20
1936.76036468214
 42
-0.569581087778
  0
VERTEX
  8
Default
 10
191.530496114739
 20
1939.63508242318
 42
-0.2604003899436
  0
VERTEX
  8
Default
 10
232.104884691501
 20
1964.47368943749
 42
-0.1083081372469
  0
VERTEX
  8
Default
 10
264.896988480978
 20
1961.68032038865
 42
-0.4779220364591
  0
VERTEX
  8
Default
 10
267.080918222486
 20
1956.60979449436
 42
-0.1334896025353
  0
VERTEX
  8
Default
 10
265.750320439997
 20
1950.29229291772
 42
-0.2877597544777
  0
VERTEX
  8
Default
 10
262.930908608251
 20
1950.57842447035
 42
0.173308186562
  0
VERTEX
  8
Default
 10
256.313163566976
 20
1955.11957258272
 42
0.0793050166599
  0
VERTEX
  8
Default
 10
236.923310542285
 20
1955.04777260008
 42
0.8038373111437
  0
VERTEX
  8
Default
 10
235.80608211163
 20
1951.54910712986
 42
0.0566471895579
  0
VERTEX
  8
Default
 10
248.623829203183
 20
1943.69645607502
 42
-0.1832669211199
  0
VERTEX
  8
Default
 10
259.348073625283
 20
1928.86922420315
 42
-0.2223741220321
  0
VERTEX
  8
Default
 10
256.04020270639
 20
1895.51149568308
 42
-0.306711460624
  0
VERTEX
  8
Default
 10
228.812775843988
 20
1884.46596345905
 42
-0.2374323526282
  0
VERTEX
  8
Default
 10
212.100779798177
 20
1906.39195346602
 42
-0.2613443991898
  0
SEQEND
  0
POLYLINE
  8
Default
 66
     1
 10
0.0
 20
0.0
 30
0.0
 70
     1
  0
VERTEX
  8
Default
 10
350.808981457985
 20
1396.92093097783
 42
0.5949268116962
  0
VERTEX
  8
Default
 10
347.800732123615
 20
1406.60260518142
 42
1.4901792418493
  0
SEQEND
  0
POLYLINE
  8
Default
 66
     1
 10
0.0
 20
0.0
 30
0.0
 70
     1
  0
VERTEX
  8
Default
 10
412.48360987195
 20
1799.87955562272
 42
-0.0341483712134
  0
VERTEX
  8
Default
 10
422.755380609985
 20
1801.53546235563
 42
-0.3363519841931
  0
VERTEX
  8
Default
 10
426.249025260238
 20
1799.23042833558
 42
-0.0927333008696
  0
VERTEX
  8
Default
 10
424.175236161176
 20
1750.2657347973
 42
-0.3658524334036
  0
VERTEX
  8
Default
 10
380.754632916334
 20
1725.75336189968
 42
-0.1453802999017
  0
VERTEX
  8
Default
 10
359.455894092087
 20
1736.33384346372
 42
-0.254052466846
  0
VERTEX
  8
Default
 10
350.417816491396
 20
1763.6456766123
 42
-0.2468443819021
  0
VERTEX
  8
Default
 10
373.987651158687
 20
1794.94904296661
 42
-0.1650870495631
  0
VERTEX
  8
Default
 10
380.59862377865
 20
1795.91368881526
 42
-0.2141475368237
  0
VERTEX
  8
Default
 10
382.340317109847
 20
1794.7474804828
 42
0.0429906286037
  0
VERTEX
  8
Default
 10
388.682982924844
 20
1785.54823139547
 42
0.076791141034
  0
VERTEX
  8
Default
 10
372.059055102568
 20
1772.46169846195
 42
0.3843750440459
  0
VERTEX
  8
Default
 10
368.169182139571
 20
1751.27265267147
 42
0.3443147178708
  0
VERTEX
  8
Default
 10
393.109220295263
 20
1743.07832470454
 42
0.2262187899833
  0
VERTEX
  8
Default
 10
407.243088315694
 20
1754.46266478906
 42
0.115343752059
  0
VERTEX
  8
Default
 10
411.411024477628
 20
1775.77405882859
 42
-0.0066048421842
  0
VERTEX
  8
Default
 10
410.976298961425
 20
1794.57635867023
 42
-0.0798178220836
  0
VERTEX
  8
Default
 10
411.400880541954
 20
1798.88048069662
 42
-0.2530484770652
  0
SEQEND
  0
POLYLINE
  8
Default
 66
     1
 10
0.0
 20
0.0
 30
0.0
 70
     1
  0
VERTEX
  8
Default
 10
90.7766322098274
 20
1169.43779444501
 42
0.074760654643
  0
VERTEX
  8
Default
 10
84.0669639842019
 20
1173.04747858145
 42
0.3469483259524
  0
VERTEX
  8
Default
 10
81.4481388894319
 20
1172.34143420986
 42
0.4391493178117
  0
VERTEX
  8
Default
 10
81.5696515276162
 20
1163.54698161838
 42
0.0203082145426
  0
VERTEX
  8
Default
 10
92.8154832162902
 20
1158.21636111941
 42
-0.5048137237688
  0
VERTEX
  8
Default
 10
93.3428467619259
 20
1153.56661010677
 42
-0.4172750527186
  0
VERTEX
  8
Default
 10
80.9360486498252
 20
1154.58770229243
 42
0.1598628921359
  0
VERTEX
  8
Default
 10
56.3422469032218
 20
1169.30414939891
 42
-0.6900159597797
  0
VERTEX
  8
Default
 10
54.3128722427585
 20
1173.00870357651
 42
-0.3030406315587
  0
VERTEX
  8
Default
 10
86.0456386139662
 20
1180.68941235638
 42
-0.30759667984
  0
VERTEX
  8
Default
 10
101.958012264837
 20
1165.54928048231
 42
-0.177789806977
  0
VERTEX
  8
Default
 10
99.3093920302303
 20
1163.54698161838
 42
0.0319112503429
  0
SEQEND
  0
POLYLINE
  8
Default
 66
     1
 10
0.0
 20
0.0
 30
0.0
 70
     1
  0
VERTEX
  8
Default
 10
320.172398464946
 20
1683.74392855853
 42
-0.4285758917162
  0
VERTEX
  8
Default
 10
325.822876399395
 20
1685.65785524205
 42
-0.2365960863981
  0
VERTEX
  8
Default
 10
331.709409977882
 20
1678.86917071283
 42
-0.044899969995
  0
VERTEX
  8
Default
 10
350.131604258537
 20
1596.62241020101
 42
-0.0946437778914
  0
VERTEX
  8
Default
 10
345.713850932999
 20
1504.87509764963
 42
-0.0448947922712
  0
VERTEX
  8
Default
 10
342.380569653245
 20
1495.26403491894
 42
-0.2446729362827
  0
VERTEX
  8
Default
 10
339.021843508513
 20
1492.26975405549
 42
-0.6113886804015
  0
VERTEX
  8
Default
 10
336.840754435662
 20
1497.13636463332
 42
0.1190147308156
  0
VERTEX
  8
Default
 10
339.945710465627
 20
1607.88453398829
 42
0.0309153174876
  0
VERTEX
  8
Default
 10
320.938830435884
 20
1678.17998706761
 42
-0.1142910972737
  0
SEQEND
  0
POLYLINE
  8
Default
 66
     1
 10
0.0
 20
0.0
 30
0.0
 70
     1
  0
VERTEX
  8
Default
 10
398.583133737574
 20
624.081014230216
 42
-0.2889905736228
  0
VERTEX
  8
Default
 10
399.294910863285
 20
623.236128208115
 42
-0.0801548772573
  0
VERTEX
  8
Default
 10
399.831885407829
 20
616.571942865455
 42
0.3716082171932
  0
VERTEX
  8
Default
 10
383.083801133511
 20
587.975932623089
 42
0.2672286489072
  0
VERTEX
  8
Default
 10
398.521174654634
 20
566.634448558479
 42
-0.0910423638296
  0
VERTEX
  8
Default
 10
399.176560590437
 20
559.103194107447
 42
-0.9321146032689
  0
VERTEX
  8
Default
 10
396.754022135016
 20
558.529950229286
 42
-0.3928933037052
  0
VERTEX
  8
Default
 10
376.070329326494
 20
600.465646350255
 42
-0.2873048824838
  0
VERTEX
  8
Default
 10
398.367000686857
 20
624.054419523169
 42
-0.0741328386193
  0
SEQEND
  0
POLYLINE
  8
Default
 66
     1
 10
0.0
 20
0.0
 30
0.0
 70
     1
  0
VERTEX
  8
Default
 10
283.445366079065
 20
1491.89121396907
 42
0.4079353580308
  0
VERTEX
  8
Default
 10
282.12206325771
 20
1491.99637397329
 42
0.0916742885026
  0
VERTEX
  8
Default
 10
280.067509938728
 20
1489.56709991902
 42
0.0075577600992
  0
VERTEX
  8
Default
 10
271.693227405948
 20
1476.78364893602
 42
-0.4880813148071
  0
VERTEX
  8
Default
 10
269.344249736945
 20
1476.60794070047
 42
-0.1156003206532
  0
VERTEX
  8
Default
 10
267.490230330861
 20
1481.55191700206
 42
-0.0237667005142
  0
VERTEX
  8
Default
 10
263.607153148467
 20
1511.16860263418
 42
0.3896847982071
  0
VERTEX
  8
Default
 10
247.921784067815
 20
1524.77830659926
 42
0.3811856158095
  0
VERTEX
  8
Default
 10
244.985996548521
 20
1519.49568737183
 42
0.0571610883687
  0
VERTEX
  8
Default
 10
251.122996159086
 20
1494.06536854481
 42
-0.1761220422162
  0
VERTEX
  8
Default
 10
248.166232571182
 20
1429.61674131972
 42
-0.0130089082031
  0
VERTEX
  8
Default
 10
202.223864034157
 20
1321.03457861106
 42
0.085785281158
  0
VERTEX
  8
Default
 10
199.755381695369
 20
1314.08278036884
 42
0.2905155844973
  0
VERTEX
  8
Default
 10
202.135367547056
 20
1307.58475858681
 42
0.3223818189857
  0
VERTEX
  8
Default
 10
204.458770486825
 20
1307.60825068446
 42
0.1028054771776
  0
VERTEX
  8
Default
 10
208.081705332319
 20
1312.34202728524
 42
0.0199997717417
  0
VERTEX
  8
Default
 10
215.23324256041
 20
1326.95566848802
 42
-0.0955375298294
  0
VERTEX
  8
Default
 10
247.177249518436
 20
1368.58194102533
 42
-0.0676674385478
  0
VERTEX
  8
Default
 10
264.151486915888
 20
1378.94320156691
 42
0.0938024658157
  0
VERTEX
  8
Default
 10
268.721374860503
 20
1382.40375262427
 42
0.2839656240008
  0
VERTEX
  8
Default
 10
269.330550527228
 20
1386.13137757789
 42
0.3504732170879
  0
VERTEX
  8
Default
 10
258.450948064853
 20
1391.95385333897
 42
0.1018190975583
  0
VERTEX
  8
Default
 10
245.366094006722
 20
1387.1368938908
 42
-0.7360706072487
  0
VERTEX
  8
Default
 10
242.051941496439
 20
1392.49694559257
 42
0.0789042757364
  0
VERTEX
  8
Default
 10
275.559479140952
 20
1435.35473509869
 42
0.1057927360017
  0
VERTEX
  8
Default
 10
284.103861763833
 20
1460.89243192892
 42
0.1010631448865
  0
VERTEX
  8
Default
 10
284.046364916472
 20
1490.8521514877
 42
0.2326411798083
  0
SEQEND
  0
POLYLINE
  8
Default
 66
     1
 10
0.0
 20
0.0
 30
0.0
 70
     1
  0
VERTEX
  8
Default
 10
158.551246849336
 20
1334.17053682396
 42
-0.3405111978946
  0
VERTEX
  8
Default
 10
157.855963143717
 20
1334.01950706912
 42
-0.0982050015739
  0
VERTEX
  8
Default
 10
148.700546186809
 20
1337.84362392079
 42
0.0
  0
VERTEX
  8
Default
 10
146.611897077333
 20
1336.6252452736
 42
-0.2497124061546
  0
VERTEX
  8
Default
 10
163.18162684636
 20
1308.09512860245
 42
0.0333639195051
  0
VERTEX
  8
Default
 10
163.849250509146
 20
1293.51690343745
 42
0.1270632833957
  0
VERTEX
  8
Default
 10
165.404005599809
 20
1288.2977649128
 42
0.2555657749647
  0
VERTEX
  8
Default
 10
166.982976833986
 20
1287.41993056714
 42
0.151747992996
  0
VERTEX
  8
Default
 10
175.416203425051
 20
1288.03428597159
 42
0.2334159215307
  0
VERTEX
  8
Default
 10
176.484012540169
 20
1290.01688117592
 42
0.0910366690413
  0
VERTEX
  8
Default
 10
166.444282869182
 20
1358.7413222593
 42
0.0889781347815
  0
VERTEX
  8
Default
 10
146.349185749081
 20
1390.45658659079
 42
0.1309792357879
  0
VERTEX
  8
Default
 10
120.732913921461
 20
1407.3357518983
 42
0.1902317684741
  0
VERTEX
  8
Default
 10
80.8912225923021
 20
1400.35097460993
 42
0.2337859569651
  0
VERTEX
  8
Default
 10
67.5136214545657
 20
1381.83641757492
 42
0.0
  0
VERTEX
  8
Default
 10
77.0170614694367
 20
1381.14724679422
 42
-0.294822707912
  0
VERTEX
  8
Default
 10
111.229473906592
 20
1394.24149162755
 42
-0.2191188086115
  0
VERTEX
  8
Default
 10
153.830955002188
 20
1362.50971998348
 42
-0.096749939292
  0
VERTEX
  8
Default
 10
159.158831499384
 20
1338.40885271834
 42
-0.2039100350774
  0
SEQEND
  0
POLYLINE
  8
Default
 66
     1
 10
0.0
 20
0.0
 30
0.0
 70
     1
  0
VERTEX
  8
Default
 10
172.958506123167
 20
53.0090279050867
 42
-0.1922018332208
  0
VERTEX
  8
Default
 10
159.939032516526
 20
56.1789463302777
 42
0.0287783315509
  0
VERTEX
  8
Default
 10
134.085978390607
 20
72.8173352111946
 42
0.1304664498517
  0
VERTEX
  8
Default
 10
125.237406805959
 20
76.2386204531082
 42
0.9138964148732
  0
VERTEX
  8
Default
 10
122.441942563809
 20
67.5357600766039
 42
0.0576655040806
  0
VERTEX
  8
Default
 10
168.264464282362
 20
39.8461069144245
 42
-0.1458032260974
  0
VERTEX
  8
Default
 10
134.797456152142
 20
35.8705649791656
 42
-0.1301709340128
  0
VERTEX
  8
Default
 10
114.450470884352
 20
45.49174328263
 42
-0.1826307680461
  0
VERTEX
  8
Default
 10
85.3127978182165
 20
102.285371611533
 42
-0.0544646777698
  0
VERTEX
  8
Default
 10
84.041069050213
 20
144.131927976351
 42
0.0502548392856
  0
VERTEX
  8
Default
 10
127.944790335254
 20
114.89282130303
 42
-0.0767895039113
  0
VERTEX
  8
Default
 10
140.044144848723
 20
106.379469709147
 42
-0.0720912656842
  0
VERTEX
  8
Default
 10
164.713812928524
 20
76.9680304430561
 42
-0.0728203489886
  0
VERTEX
  8
Default
 10
172.899919092703
 20
57.1735676369095
 42
-0.2347921004143
  0
SEQEND
  0
POLYLINE
  8
Default
 66
     1
 10
0.0
 20
0.0
 30
0.0
 70
     1
  0
VERTEX
  8
Default
 10
414.059450635665
 20
624.066891551266
 42
0.2294561911293
  0
VERTEX
  8
Default
 10
412.770439161983
 20
616.557367355117
 42
-0.3995532249485
  0
VERTEX
  8
Default
 10
429.734320225771
 20
585.478868145461
 42
-0.2412892840635
  0
VERTEX
  8
Default
 10
414.139187327592
 20
566.620351608586
 42
0.218630701179
  0
VERTEX
  8
Default
 10
413.984996090429
 20
557.81781620684
 42
0.4185095734305
  0
VERTEX
  8
Default
 10
437.211458783988
 20
600.927332253398
 42
0.2840660134258
  0
VERTEX
  8
Default
 10
414.374409735341
 20
624.025588606973
 42
0.0647663599579
  0
SEQEND
  0
POLYLINE
  8
Default
 66
     1
 10
0.0
 20
0.0
 30
0.0
 70
     1
  0
VERTEX
  8
Default
 10
181.120729875734
 20
1025.78013727122
 42
0.0241686068739
  0
VERTEX
  8
Default
 10
179.636989964557
 20
1024.68995059461
 42
0.0
  0
VERTEX
  8
Default
 10
188.190094256496
 20
1017.10910288176
 42
-0.3740146556482
  0
VERTEX
  8
Default
 10
235.740239280306
 20
1000.41707926127
 42
-0.1190313876827
  0
VERTEX
  8
Default
 10
237.565539524222
 20
989.585280278925
 42
-0.0651429411645
  0
VERTEX
  8
Default
 10
234.123421958579
 20
971.968392303208
 42
0.0
  0
VERTEX
  8
Default
 10
242.993325324112
 20
960.252473593849
 42
0.3303036184515
  0
VERTEX
  8
Default
 10
239.252805251049
 20
1017.53475476069
 42
0.2107272825641
  0
VERTEX
  8
Default
 10
209.283703770341
 20
1031.62634497979
 42
0.15948013823
  0
SEQEND
  0
POLYLINE
  8
Default
 66
     1
 10
0.0
 20
0.0
 30
0.0
 70
     1
  0
VERTEX
  8
Default
 10
337.738577752647
 20
1752.64764909094
 42
0.2783954596446
  0
VERTEX
  8
Default
 10
325.255910847042
 20
1729.77799349534
 42
-0.0025599769821
  0
VERTEX
  8
Default
 10
324.537323701352
 20
1707.88036946363
 42
-0.0567643955899
  0
VERTEX
  8
Default
 10
323.715594882252
 20
1702.16056551562
 42
-0.398916625215
  0
VERTEX
  8
Default
 10
320.364646556162
 20
1699.28462771719
 42
-0.3279794156479
  0
VERTEX
  8
Default
 10
311.392960855758
 20
1705.88654849142
 42
-0.0605858908639
  0
VERTEX
  8
Default
 10
308.72249960763
 20
1716.58431674413
 42
-0.0353683063027
  0
VERTEX
  8
Default
 10
306.772872307868
 20
1755.25607272638
 42
-0.0973408607317
  0
VERTEX
  8
Default
 10
318.288520837123
 20
1800.85343180568
 42
-0.3549549719862
  0
VERTEX
  8
Default
 10
379.445986622128
 20
1831.24418187795
 42
-0.0858718063036
  0
VERTEX
  8
Default
 10
404.239914767132
 20
1820.97147369947
 42
-0.0971989031136
  0
VERTEX
  8
Default
 10
409.158897759522
 20
1816.90180055353
 42
-0.4773297200993
  0
VERTEX
  8
Default
 10
408.768263217606
 20
1813.14588345994
 42
-0.065296827967
  0
VERTEX
  8
Default
 10
399.469905503044
 20
1805.01868890832
 42
-0.3021154215982
  0
VERTEX
  8
Default
 10
397.338417655821
 20
1805.32697323531
 42
0.0915742207297
  0
VERTEX
  8
Default
 10
378.516589063497
 20
1815.42604722662
 42
0.2620345272796
  0
VERTEX
  8
Default
 10
339.756296744339
 20
1807.06272949158
 42
0.1878581650881
  0
VERTEX
  8
Default
 10
318.841181242641
 20
1760.03432810171
 42
0.0966993716312
  0
VERTEX
  8
Default
 10
319.921482157655
 20
1750.61390554317
 42
0.7102000287726
  0
VERTEX
  8
Default
 10
323.331116277883
 20
1749.99353306421
 42
-0.350096944078
  0
SEQEND
  0
POLYLINE
  8
Default
 66
     1
 10
0.0
 20
0.0
 30
0.0
 70
     1
  0
VERTEX
  8
Default
 10
188.52413355268
 20
715.752481096372
 42
-0.1159119911203
  0
VERTEX
  8
Default
 10
179.337494976704
 20
673.3684845155
 42
0.1426114175415
  0
VERTEX
  8
Default
 10
173.020120977234
 20
627.766510017625
 42
0.0707352535374
  0
VERTEX
  8
Default
 10
175.731259926698
 20
618.137462529492
 42
0.9074427845058
  0
VERTEX
  8
Default
 10
179.063708656668
 20
617.596759972068
 42
0.0608568726229
  0
VERTEX
  8
Default
 10
186.606953956663
 20
647.458012712202
 42
-0.0193200157235
  0
VERTEX
  8
Default
 10
188.377664246765
 20
657.27338387833
 42
-0.6819104044738
  0
VERTEX
  8
Default
 10
193.806612943461
 20
656.282699809589
 42
-0.0733475398611
  0
VERTEX
  8
Default
 10
190.242590923672
 20
625.034365550571
 42
0.0916825654553
  0
VERTEX
  8
Default
 10
185.646551308126
 20
611.546581742881
 42
0.3380312343676
  0
VERTEX
  8
Default
 10
188.20699860622
 20
608.241792994656
 42
0.2043528975606
  0
VERTEX
  8
Default
 10
206.756855731723
 20
658.286673996129
 42
0.0302925438985
  0
VERTEX
  8
Default
 10
205.946807702586
 20
669.922630611993
 42
-0.0011644108368
  0
VERTEX
  8
Default
 10
199.956862219263
 20
716.386333092964
 42
0.2645810645498
  0
VERTEX
  8
Default
 10
195.558258357107
 20
723.978867982651
 42
0.4417981828774
  0
VERTEX
  8
Default
 10
188.523800045114
 20
715.752481096371
 42
0.0
  0
SEQEND
  0
POLYLINE
  8
Default
 66
     1
 10
0.0
 20
0.0
 30
0.0
 70
     1
  0
VERTEX
  8
Default
 10
186.565326548879
 20
1094.11016079029
 42
-0.2649146054201
  0
VERTEX
  8
Default
 10
185.722425572306
 20
1095.09108010654
 42
-0.0613376862997
  0
VERTEX
  8
Default
 10
162.606711258663
 20
1169.61930225444
 42
-0.0285825603068
  0
VERTEX
  8
Default
 10
162.182494212256
 20
1175.12770192888
 42
-0.0119658957401
  0
VERTEX
  8
Default
 10
161.166042185613
 20
1248.88176657301
 42
-0.0271059060512
  0
VERTEX
  8
Default
 10
161.869970718255
 20
1262.91687959046
 42
-0.64916387842
  0
VERTEX
  8
Default
 10
170.897494786378
 20
1268.93031410502
 42
-0.2253548051407
  0
VERTEX
  8
Default
 10
171.577458744152
 20
1265.12320107895
 42
0.0546714067685
  0
VERTEX
  8
Default
 10
168.177548595335
 20
1183.89046777782
 42
0.0471335542214
  0
VERTEX
  8
Default
 10
172.051532577193
 20
1156.13287240092
 42
0.0038370249662
  0
VERTEX
  8
Default
 10
186.623459741519
 20
1100.6545280705
 42
-0.095142135588
  0
VERTEX
  8
Default
 10
187.756055360916
 20
1095.81709776472
 42
-0.6869532737266
  0
SEQEND
  0
POLYLINE
  8
Default
 66
     1
 10
0.0
 20
0.0
 30
0.0
 70
     1
  0
VERTEX
  8
Default
 10
119.083912789044
 20
1808.34219817894
 42
-0.0884931768314
  0
VERTEX
  8
Default
 10
118.585662618191
 20
1802.00710418295
 42
-0.59863708906
  0
VERTEX
  8
Default
 10
115.796434218387
 20
1800.56497686364
 42
-0.0231307564764
  0
VERTEX
  8
Default
 10
106.14529581032
 20
1810.04771133511
 42
-0.1684781503732
  0
VERTEX
  8
Default
 10
98.3664411439926
 20
1822.90128539027
 42
-0.2726131104046
  0
VERTEX
  8
Default
 10
108.546684642732
 20
1864.89147175406
 42
-0.2719882171975
  0
VERTEX
  8
Default
 10
111.189512131204
 20
1862.01671027363
 42
0.1259124329885
  0
VERTEX
  8
Default
 10
120.15296968861
 20
1836.17261405601
 42
-0.2204656289337
  0
VERTEX
  8
Default
 10
127.760312366358
 20
1814.33243312812
 42
-0.4222478161239
  0
VERTEX
  8
Default
 10
125.532653178991
 20
1812.33183270337
 42
-0.1425636834164
  0
VERTEX
  8
Default
 10
121.392106521874
 20
1814.08015413684
 42
-0.2280256737779
  0
VERTEX
  8
Default
 10
110.392672870773
 20
1833.36634425343
 42
0.4142135623741
  0
VERTEX
  8
Default
 10
108.689631606077
 20
1833.85760615671
 42
0.2573040367911
  0
VERTEX
  8
Default
 10
111.510127214469
 20
1819.16045070813
 42
-0.0727349851711
  0
SEQEND
  0
POLYLINE
  8
Default
 66
     1
 10
0.0
 20
0.0
 30
0.0
 70
     1
  0
VERTEX
  8
Default
 10
202.85946074545
 20
1009.27176269997
 42
-0.0033956372834
  0
VERTEX
  8
Default
 10
201.811685697889
 20
1009.18364533595
 42
0.0
  0
VERTEX
  8
Default
 10
230.005270532057
 20
981.616814107892
 42
0.268466733281
  0
VERTEX
  8
Default
 10
217.935210970581
 20
1007.93190719903
 42
0.1443396052054
  0
SEQEND
  0
POLYLINE
  8
Default
 66
     1
 10
0.0
 20
0.0
 30
0.0
 70
     1
  0
VERTEX
  8
Default
 10
115.40024545916
 20
1153.1631511109
 42
0.3907762850935
  0
VERTEX
  8
Default
 10
110.282958985736
 20
1152.39730911184
 42
0.3213961571751
  0
VERTEX
  8
Default
 10
109.995853357953
 20
1144.05846129367
 42
0.5166124775009
  0
VERTEX
  8
Default
 10
116.212688780805
 20
1143.68406765252
 42
0.425920726974
  0
SEQEND
  0
POLYLINE
  8
Default
 66
     1
 10
0.0
 20
0.0
 30
0.0
 70
     1
  0
VERTEX
  8
Default
 10
352.924315499554
 20
1380.07220237907
 42
0.3433769519729
  0
VERTEX
  8
Default
 10
351.675441788804
 20
1377.71190231654
 42
0.2589012588926
  0
VERTEX
  8
Default
 10
365.191052935711
 20
1354.25929215148
 42
-0.1192080080002
  0
VERTEX
  8
Default
 10
381.660009522279
 20
1341.98716481329
 42
0.1626730391581
  0
VERTEX
  8
Default
 10
384.337285822641
 20
1336.66370980931
 42
0.5662573330132
  0
VERTEX
  8
Default
 10
386.837006719828
 20
1340.03635993488
 42
0.085049628921
  0
VERTEX
  8
Default
 10
384.966553990367
 20
1369.71688425816
 42
0.0124772539218
  0
VERTEX
  8
Default
 10
380.994619881145
 20
1377.12102619965
 42
0.2947048541276
  0
VERTEX
  8
Default
 10
361.559505605279
 20
1384.33170635125
 42
-0.1174235888504
  0
VERTEX
  8
Default
 10
375.177541214855
 20
1370.28090634978
 42
-0.418371228285
  0
VERTEX
  8
Default
 10
369.767238488752
 20
1364.42640577453
 42
-0.2036963026792
  0
VERTEX
  8
Default
 10
367.543100787025
 20
1366.02503724491
 42
0.0531652134972
  0
VERTEX
  8
Default
 10
359.634413388703
 20
1377.76563037391
 42
0.1725264723939
  0
SEQEND
  0
POLYLINE
  8
Default
 66
     1
 10
0.0
 20
0.0
 30
0.0
 70
     1
  0
VERTEX
  8
Default
 10
176.422257017529
 20
1871.08879278984
 42
0.4031818877953
  0
VERTEX
  8
Default
 10
178.305633823468
 20
1872.93179274321
 42
0.0583714866889
  0
VERTEX
  8
Default
 10
176.442500288714
 20
1906.88211995081
 42
-0.1098359442029
  0
VERTEX
  8
Default
 10
178.63185049261
 20
1920.26503944843
 42
-0.2982986823003
  0
VERTEX
  8
Default
 10
187.358660310748
 20
1926.81493531804
 42
-0.2900257378651
  0
VERTEX
  8
Default
 10
191.93423714931
 20
1923.14996394161
 42
-0.1154794171043
  0
VERTEX
  8
Default
 10
192.787588151633
 20
1899.42013669103
 42
0.1295445144066
  0
VERTEX
  8
Default
 10
197.885672635587
 20
1850.98992815905
 42
0.0519620576534
  0
VERTEX
  8
Default
 10
229.901051463479
 20
1798.91950312756
 42
0.0180093545128
  0
VERTEX
  8
Default
 10
277.354325562969
 20
1732.87798713377
 42
-0.3833266602757
  0
VERTEX
  8
Default
 10
278.749511826258
 20
1721.84857967406
 42
-0.3878564086434
  0
VERTEX
  8
Default
 10
276.033336125827
 20
1721.41553116723
 42
-0.086050363027
  0
VERTEX
  8
Default
 10
271.879854471489
 20
1725.01829647293
 42
-0.0194673962451
  0
VERTEX
  8
Default
 10
261.791037510586
 20
1737.75631634022
 42
0.0950546096646
  0
VERTEX
  8
Default
 10
223.03106311163
 20
1770.60731747807
 42
0.0583281689704
  0
VERTEX
  8
Default
 10
212.883151150625
 20
1775.00885389266
 42
-0.0261850367878
  0
VERTEX
  8
Default
 10
200.659238223913
 20
1778.36441653894
 42
-0.5526652594693
  0
VERTEX
  8
Default
 10
197.052716683437
 20
1785.43713414423
 42
-0.3033767800765
  0
VERTEX
  8
Default
 10
206.665024351481
 20
1791.64300943032
 42
-0.0940600817324
  0
VERTEX
  8
Default
 10
219.79723264038
 20
1789.79524179679
 42
0.9438650555619
  0
VERTEX
  8
Default
 10
219.79723264038
 20
1797.11316171141
 42
-0.0758651906117
  0
VERTEX
  8
Default
 10
179.652516306178
 20
1830.72212023835
 42
-0.0652831499625
  0
VERTEX
  8
Default
 10
171.189384617669
 20
1842.40464818781
 42
-0.0761589777598
  0
VERTEX
  8
Default
 10
155.045044624129
 20
1881.06708595632
 42
-0.2169109633634
  0
VERTEX
  8
Default
 10
155.709476172405
 20
1887.11341565725
 42
-0.4514314089103
  0
VERTEX
  8
Default
 10
160.393843360684
 20
1887.16848083284
 42
-0.0620798427647
  0
VERTEX
  8
Default
 10
162.987523077573
 20
1884.928331905
 42
0.0128586653804
  0
VERTEX
  8
Default
 10
175.333467391572
 20
1871.60158273563
 42
0.1787396705006
  0
SEQEND
  0
POLYLINE
  8
Default
 66
     1
 10
0.0
 20
0.0
 30
0.0
 70
     1
  0
VERTEX
  8
Default
 10
149.777960322609
 20
1607.54658040254
 42
-0.1471231901337
  0
VERTEX
  8
Default
 10
142.014523698746
 20
1606.24666343698
 42
0.4239412671207
  0
VERTEX
  8
Default
 10
109.122465993464
 20
1628.7564312762
 42
0.2548867793211
  0
VERTEX
  8
Default
 10
89.3356081010505
 20
1608.05618281383
 42
-0.1696708832816
  0
VERTEX
  8
Default
 10
80.515681650721
 20
1607.44589712045
 42
-0.4861488626707
  0
VERTEX
  8
Default
 10
80.7864893427909
 20
1610.4849285321
 42
-0.0861884987056
  0
VERTEX
  8
Default
 10
90.8161630891398
 20
1629.09653632305
 42
-0.499624722084
  0
VERTEX
  8
Default
 10
142.39933639287
 20
1625.47260611671
 42
-0.1266576719905
  0
VERTEX
  8
Default
 10
149.929922109799
 20
1608.06301466019
 42
-0.1158566007286
  0
SEQEND
  0
POLYLINE
  8
Default
 66
     1
 10
0.0
 20
0.0
 30
0.0
 70
     1
  0
VERTEX
  8
Default
 10
128.000819897185
 20
1145.08401456196
 42
0.2646773756195
  0
VERTEX
  8
Default
 10
126.418628779913
 20
1144.05488855872
 42
0.3358712848273
  0
VERTEX
  8
Default
 10
132.442840101998
 20
1120.15814346196
 42
-0.0659501148395
  0
VERTEX
  8
Default
 10
147.412261360482
 20
1103.36996946156
 42
0.0695409358805
  0
VERTEX
  8
Default
 10
151.648815253011
 20
1094.66536721889
 42
0.5237509260943
  0
VERTEX
  8
Default
 10
153.512101317894
 20
1095.10508701032
 42
0.1716272343116
  0
VERTEX
  8
Default
 10
152.066657300269
 20
1134.52296737437
 42
0.1909233771065
  0
VERTEX
  8
Default
 10
138.595918529046
 20
1148.52047692807
 42
0.2526058125795
  0
VERTEX
  8
Default
 10
132.254664940258
 20
1147.00685457957
 42
-0.1344857377702
  0
VERTEX
  8
Default
 10
142.703436302018
 20
1131.84673901641
 42
-0.4151274858521
  0
VERTEX
  8
Default
 10
141.209056636495
 20
1129.71410485836
 42
-0.2435347861684
  0
VERTEX
  8
Default
 10
131.944356489379
 20
1132.05238464657
 42
-0.2145815587902
  0
VERTEX
  8
Default
 10
130.353991129093
 20
1135.29093587022
 42
0.0748253953114
  0
VERTEX
  8
Default
 10
129.346783086846
 20
1143.05929652737
 42
0.4857907530471
  0
SEQEND
  0
POLYLINE
  8
Default
 66
     1
 10
0.0
 20
0.0
 30
0.0
 70
     1
  0
VERTEX
  8
Default
 10
420.507263607467
 20
1400.90900880142
 42
-0.3627198987934
  0
VERTEX
  8
Default
 10
418.987312239494
 20
1400.18037317758
 42
0.2491299248222
  0
VERTEX
  8
Default
 10
389.142114039513
 20
1396.40592532436
 42
-0.3665049130812
  0
VERTEX
  8
Default
 10
373.175309146628
 20
1394.74555375732
 42
-0.086870909332
  0
VERTEX
  8
Default
 10
364.463706048216
 20
1404.24911164005
 42
0.0609723872469
  0
VERTEX
  8
Default
 10
388.074605991684
 20
1409.20385376323
 42
0.2720913051801
  0
VERTEX
  8
Default
 10
390.861851939312
 20
1414.5552855309
 42
0.3732683614407
  0
VERTEX
  8
Default
 10
387.834296010818
 20
1417.05919974427
 42
0.077199540444
  0
VERTEX
  8
Default
 10
364.3158084518
 20
1410.12028929736
 42
-0.4629771180761
  0
VERTEX
  8
Default
 10
400.860426721658
 20
1425.50656261836
 42
-0.1674573072606
  0
VERTEX
  8
Default
 10
420.113692708786
 20
1405.09561895956
 42
-0.1981078476288
  0
SEQEND
  0
POLYLINE
  8
Default
 66
     1
 10
0.0
 20
0.0
 30
0.0
 70
     1
  0
VERTEX
  8
Default
 10
115.468491635488
 20
1758.70463883287
 42
-0.2787022939664
  0
VERTEX
  8
Default
 10
122.304230047452
 20
1765.87894411874
 42
-0.5014130388392
  0
VERTEX
  8
Default
 10
125.117702753839
 20
1764.47346562676
 42
-0.0619115960834
  0
VERTEX
  8
Default
 10
125.41245691818
 20
1757.56430115834
 42
-0.2165087540088
  0
VERTEX
  8
Default
 10
117.706739701459
 20
1739.61815940485
 42
0.0929101266909
  0
VERTEX
  8
Default
 10
103.813679868471
 20
1724.93336359013
 42
-0.1554860332111
  0
VERTEX
  8
Default
 10
102.01371448166
 20
1718.74489977067
 42
-0.4661410442467
  0
VERTEX
  8
Default
 10
99.018613853694
 20
1721.78961643221
 42
-0.0727859012351
  0
VERTEX
  8
Default
 10
94.68564501735
 20
1750.16773669562
 42
-0.0638235691706
  0
VERTEX
  8
Default
 10
98.8348329462397
 20
1762.43140822505
 42
-0.2125630590053
  0
VERTEX
  8
Default
 10
114.360880518231
 20
1768.87465031506
 42
0.1372903388508
  0
VERTEX
  8
Default
 10
104.073729030375
 20
1752.76364870605
 42
0.372264782757
  0
VERTEX
  8
Default
 10
109.053395186543
 20
1748.05382122016
 42
0.3453670983128
  0
VERTEX
  8
Default
 10
112.246591563011
 20
1749.90126468154
 42
-0.0523475686464
  0
SEQEND
  0
POLYLINE
  8
Default
 66
     1
 10
0.0
 20
0.0
 30
0.0
 70
     1
  0
VERTEX
  8
Default
 10
268.59865710722
 20
1841.50001146076
 42
-0.0923581248984
  0
VERTEX
  8
Default
 10
269.228652609802
 20
1839.018677607
 42
0.1545875800746
  0
VERTEX
  8
Default
 10
277.238073725067
 20
1807.94588630216
 42
-0.0825974060651
  0
VERTEX
  8
Default
 10
292.653769386511
 20
1774.63238182602
 42
-0.1009243743377
  0
VERTEX
  8
Default
 10
291.592748139743
 20
1754.43581632162
 42
-0.0983003147852
  0
VERTEX
  8
Default
 10
290.28915569563
 20
1750.48283648698
 42
-0.4567971428358
  0
VERTEX
  8
Default
 10
289.173291536858
 20
1750.09403612111
 42
-0.1309541050059
  0
VERTEX
  8
Default
 10
287.404916866481
 20
1753.42452712437
 42
-0.0020217344111
  0
VERTEX
  8
Default
 10
283.387391854707
 20
1767.20167415417
 42
0.109279519738
  0
VERTEX
  8
Default
 10
271.876109981284
 20
1788.6127869642
 42
0.8675202408418
  0
VERTEX
  8
Default
 10
267.081248340232
 20
1787.65381463599
 42
0.1546086953162
  0
VERTEX
  8
Default
 10
281.385514300298
 20
1751.62613289058
 42
-0.1078131100286
  0
VERTEX
  8
Default
 10
285.673176808212
 20
1745.23984981493
 42
-0.6555264049419
  0
VERTEX
  8
Default
 10
284.26407129646
 20
1742.65147144589
 42
-0.1898598491942
  0
VERTEX
  8
Default
 10
279.362252155988
 20
1745.20956304149
 42
-0.1096607501689
  0
VERTEX
  8
Default
 10
256.862626791017
 20
1776.45464403781
 42
-0.1175606877917
  0
VERTEX
  8
Default
 10
254.429029659287
 20
1795.89735059803
 42
-0.0265662887336
  0
VERTEX
  8
Default
 10
258.151063744198
 20
1821.03476565093
 42
-0.1123318596681
  0
VERTEX
  8
Default
 10
263.94306386131
 20
1834.4190787924
 42
0.0184301543504
  0
VERTEX
  8
Default
 10
268.121345077492
 20
1841.18463292988
 42
-0.6545466614341
  0
SEQEND
  0
POLYLINE
  8
Default
 66
     1
 10
0.0
 20
0.0
 30
0.0
 70
     1
  0
VERTEX
  8
Default
 10
250.982525959077
 20
869.997177218339
 42
0.1009823101546
  0
VERTEX
  8
Default
 10
221.305478281953
 20
885.362765661091
 42
0.0311814670363
  0
VERTEX
  8
Default
 10
214.862311608908
 20
886.29217973194
 42
-0.4966803126577
  0
VERTEX
  8
Default
 10
214.773416779546
 20
891.244374951868
 42
-0.0669664289079
  0
VERTEX
  8
Default
 10
239.367883142502
 20
892.96664447068
 42
-0.0996325837177
  0
VERTEX
  8
Default
 10
250.912826738263
 20
889.612431264829
 42
0.6193957177721
  0
VERTEX
  8
Default
 10
255.039927669056
 20
890.387663361611
 42
0.1140359306048
  0
VERTEX
  8
Default
 10
254.610595603829
 20
896.412751383029
 42
0.0454115855568
  0
VERTEX
  8
Default
 10
248.122129266795
 20
914.023902741453
 42
0.0579304721026
  0
VERTEX
  8
Default
 10
214.502701061777
 20
970.215228188634
 42
0.0473297298821
  0
VERTEX
  8
Default
 10
199.956130611909
 20
985.933414432023
 42
0.0355162034241
  0
VERTEX
  8
Default
 10
145.107844682261
 20
1029.51416149695
 42
-0.5595691431707
  0
VERTEX
  8
Default
 10
147.588966325635
 20
1034.45786959625
 42
-0.0978429402084
  0
VERTEX
  8
Default
 10
151.443471358842
 20
1032.96001540045
 42
-0.0516892325189
  0
VERTEX
  8
Default
 10
211.1402811333
 20
987.807114501915
 42
-0.074323552132
  0
VERTEX
  8
Default
 10
238.000206433901
 20
955.492482211127
 42
-0.0589589105021
  0
VERTEX
  8
Default
 10
265.678713551456
 20
896.442871771932
 42
-0.0509965749863
  0
VERTEX
  8
Default
 10
267.358153981937
 20
888.351226724767
 42
-0.1832007910724
  0
VERTEX
  8
Default
 10
265.260440619068
 20
882.128951597013
 42
0.0427149720575
  0
VERTEX
  8
Default
 10
255.017312661983
 20
870.188829757218
 42
-0.5157888963322
  0
VERTEX
  8
Default
 10
253.629323133917
 20
868.502955840466
 42
-0.0305519639907
  0
SEQEND
  0
POLYLINE
  8
Default
 66
     1
 10
0.0
 20
0.0
 30
0.0
 70
     1
  0
VERTEX
  8
Default
 10
195.956498631334
 20
1381.79380422037
 42
-0.1069540382752
  0
VERTEX
  8
Default
 10
196.126899756388
 20
1381.83641757492
 42
-0.4361929784511
  0
VERTEX
  8
Default
 10
201.828992148963
 20
1370.12050143838
 42
-0.0421379984005
  0
VERTEX
  8
Default
 10
197.13947023024
 20
1344.65169405274
 42
-0.0827245775215
  0
VERTEX
  8
Default
 10
195.493365472353
 20
1341.17531321158
 42
1.5797402233292
  0
VERTEX
  8
Default
 10
200.417340992058
 20
1338.8054583612
 42
0.2559413295593
  0
VERTEX
  8
Default
 10
204.065618189306
 20
1414.13177714151
 42
0.1797841717607
  0
VERTEX
  8
Default
 10
188.865426862067
 20
1431.12175562908
 42
0.0310495233603
  0
VERTEX
  8
Default
 10
187.890599268643
 20
1431.45674466029
 42
-0.0970190258544
  0
VERTEX
  8
Default
 10
183.455646403228
 20
1390.10648238078
 42
0.085415158644
  0
VERTEX
  8
Default
 10
177.954720588898
 20
1358.79378349763
 42
0.2617610040254
  0
VERTEX
  8
Default
 10
183.260562161967
 20
1344.26605433518
 42
0.5405950379787
  0
VERTEX
  8
Default
 10
188.011715834698
 20
1344.40421114672
 42
0.0948410088186
  0
VERTEX
  8
Default
 10
189.795781432746
 20
1348.90113696374
 42
-0.0076707885369
  0
VERTEX
  8
Default
 10
194.510286800369
 20
1378.1640099469
 42
-0.2338454342155
  0
SEQEND
  0
POLYLINE
  8
Default
 66
     1
 10
0.0
 20
0.0
 30
0.0
 70
     1
  0
VERTEX
  8
Default
 10
297.151576528704
 20
791.709620437053
 42
0.0683891785388
  0
VERTEX
  8
Default
 10
297.854577205839
 20
795.129682859146
 42
0.0275083395637
  0
VERTEX
  8
Default
 10
296.863394662935
 20
823.938577767521
 42
0.2967349344659
  0
VERTEX
  8
Default
 10
285.459278471602
 20
804.641808772411
 42
0.3512533765889
  0
VERTEX
  8
Default
 10
296.863394662935
 20
791.547535637123
 42
0.107827250544
  0
SEQEND
  0
POLYLINE
  8
Default
 66
     1
 10
0.0
 20
0.0
 30
0.0
 70
     1
  0
VERTEX
  8
Default
 10
83.8368888169084
 20
1788.94647240377
 42
-0.2495079081864
  0
VERTEX
  8
Default
 10
79.9450832755441
 20
1793.58792467281
 42
-0.4226441550825
  0
VERTEX
  8
Default
 10
82.3535616703523
 20
1796.70152144224
 42
-0.0571589708059
  0
VERTEX
  8
Default
 10
106.432461915966
 20
1793.59754089911
 42
0.593464137054
  0
VERTEX
  8
Default
 10
58.9961407360064
 20
1793.00701695065
 42
0.2003848329785
  0
VERTEX
  8
Default
 10
53.8911963972548
 20
1776.31129155223
 42
0.4545023978726
  0
VERTEX
  8
Default
 10
55.873956666896
 20
1775.4146271507
 42
-0.2459022532608
  0
VERTEX
  8
Default
 10
85.5598637358767
 20
1776.19783424251
 42
0.4012735501956
  0
VERTEX
  8
Default
 10
101.736885785601
 20
1777.95218571647
 42
0.0756319934593
  0
VERTEX
  8
Default
 10
107.489607576223
 20
1787.84804109439
 42
-0.0700136667159
  0
SEQEND
  0
POLYLINE
  8
Default
 66
     1
 10
0.0
 20
0.0
 30
0.0
 70
     1
  0
VERTEX
  8
Default
 10
281.385514300298
 20
1939.06013321458
 42
-0.100261057165
  0
VERTEX
  8
Default
 10
301.484711233128
 20
1908.41166836521
 42
-0.1582150062365
  0
VERTEX
  8
Default
 10
298.215967309689
 20
1861.21807007553
 42
-0.0680199478886
  0
VERTEX
  8
Default
 10
285.933350502473
 20
1844.35650404458
 42
0.4687254774734
  0
VERTEX
  8
Default
 10
285.302173778324
 20
1833.52380730447
 42
0.2746278565512
  0
VERTEX
  8
Default
 10
291.230494712055
 20
1833.0169319186
 42
0.1391791073576
  0
VERTEX
  8
Default
 10
299.133905648788
 20
1839.05145012447
 42
0.1686944106994
  0
VERTEX
  8
Default
 10
313.099318800964
 20
1886.7396085764
 42
0.1999855393605
  0
VERTEX
  8
Default
 10
292.33395829599
 20
1943.08523280498
 42
0.4092198920012
  0
VERTEX
  8
Default
 10
281.979648400286
 20
1946.26341821256
 42
0.4528587211946
  0
VERTEX
  8
Default
 10
281.385781579412
 20
1939.06013321458
 42
0.0
  0
SEQEND
  0
POLYLINE
  8
Default
 66
     1
 10
0.0
 20
0.0
 30
0.0
 70
     1
  0
VERTEX
  8
Default
 10
60.2714647256699
 20
1335.195577039
 42
0.0438458252549
  0
VERTEX
  8
Default
 10
61.7348956461711
 20
1322.90215413421
 42
0.6084384717923
  0
VERTEX
  8
Default
 10
125.777961486577
 20
1316.08805260104
 42
0.2051817729919
  0
VERTEX
  8
Default
 10
131.474585392374
 20
1333.64942062197
 42
0.2820293496756
  0
VERTEX
  8
Default
 10
112.246476839503
 20
1364.57780657498
 42
0.4342630254978
  0
VERTEX
  8
Default
 10
97.8745456984041
 20
1362.17508217677
 42
0.0913129983991
  0
VERTEX
  8
Default
 10
95.3904072151415
 20
1355.64786873144
 42
-0.1012243395307
  0
VERTEX
  8
Default
 10
108.240112080852
 20
1349.3205841531
 42
-0.3246345950469
  0
VERTEX
  8
Default
 10
114.687219501225
 20
1329.47767912005
 42
-0.3499218227605
  0
VERTEX
  8
Default
 10
96.266255279762
 20
1313.66422353052
 42
-0.199918579592
  0
VERTEX
  8
Default
 10
74.2304485538207
 20
1325.30050219387
 42
-0.1371322765794
  0
VERTEX
  8
Default
 10
73.0430539363518
 20
1328.39432636291
 42
-0.0300039901116
  0
VERTEX
  8
Default
 10
72.5821086040185
 20
1366.67465268078
 42
0.0
  0
VERTEX
  8
Default
 10
61.3822220388511
 20
1365.94367732956
 42
0.0552012589347
  0
SEQEND
  0
POLYLINE
  8
Default
 66
     1
 10
0.0
 20
0.0
 30
0.0
 70
     1
  0
VERTEX
  8
Default
 10
207.240161870531
 20
557.377247344962
 42
-0.0168596642846
  0
VERTEX
  8
Default
 10
207.028043931265
 20
556.24140478706
 42
0.022830660524
  0
VERTEX
  8
Default
 10
179.629587724604
 20
425.111208536894
 42
0.0190933337592
  0
VERTEX
  8
Default
 10
171.217825033418
 20
327.711080518129
 42
-0.0014175123037
  0
VERTEX
  8
Default
 10
170.506498845206
 20
250.533792752317
 42
-0.0226838651945
  0
VERTEX
  8
Default
 10
170.056452471798
 20
241.108137035902
 42
-0.5495174470503
  0
VERTEX
  8
Default
 10
168.205107027209
 20
239.926086174582
 42
-0.0896716686045
  0
VERTEX
  8
Default
 10
165.518806260856
 20
249.371536122338
 42
-0.0664879640469
  0
VERTEX
  8
Default
 10
166.363957033132
 20
404.252234964242
 42
-0.0178381235203
  0
VERTEX
  8
Default
 10
192.904173569477
 20
550.06748868697
 42
-0.1720250557034
  0
VERTEX
  8
Default
 10
199.334892231159
 20
559.455240557506
 42
-0.3644872249704
  0
SEQEND
  0
POLYLINE
  8
Default
 66
     1
 10
0.0
 20
0.0
 30
0.0
 70
     1
  0
VERTEX
  8
Default
 10
229.010019628719
 20
1503.2108808519
 42
0.4554127594014
  0
VERTEX
  8
Default
 10
228.035427467502
 20
1502.90954468765
 42
0.0477110737016
  0
VERTEX
  8
Default
 10
221.423815268826
 20
1493.23124890672
 42
-0.6102065475824
  0
VERTEX
  8
Default
 10
193.024168157898
 20
1500.97728178185
 42
-0.2209300135314
  0
VERTEX
  8
Default
 10
197.291257102436
 20
1527.61649467974
 42
-0.2933329367811
  0
VERTEX
  8
Default
 10
226.395230608731
 20
1535.82102234265
 42
-0.1039737757276
  0
VERTEX
  8
Default
 10
230.110410103388
 20
1534.06544806857
 42
0.4430504923354
  0
VERTEX
  8
Default
 10
242.025532281459
 20
1538.03991098362
 42
0.08566878909
  0
VERTEX
  8
Default
 10
242.33304610877
 20
1539.8123003534
 42
0.2612129247219
  0
VERTEX
  8
Default
 10
197.965420529834
 20
1555.05647284166
 42
0.0658249725067
  0
VERTEX
  8
Default
 10
169.756664300679
 20
1547.56875833621
 42
0.4829266281389
  0
VERTEX
  8
Default
 10
165.66400337197
 20
1542.88423116039
 42
0.4336480282546
  0
VERTEX
  8
Default
 10
172.636650517276
 20
1538.26593740066
 42
0.0304913643713
  0
VERTEX
  8
Default
 10
190.27308034367
 20
1544.36527297237
 42
-0.0666454710837
  0
VERTEX
  8
Default
 10
195.758723233543
 20
1544.72301719587
 42
-0.6223268630536
  0
VERTEX
  8
Default
 10
197.318840337219
 20
1542.2595865942
 42
-0.0969146659285
  0
VERTEX
  8
Default
 10
187.250782790497
 20
1532.14067707111
 42
0.1918196210674
  0
VERTEX
  8
Default
 10
178.822758860453
 20
1514.62109441161
 42
0.2069220219022
  0
VERTEX
  8
Default
 10
187.687875857218
 20
1483.44038675055
 42
0.2220926248221
  0
VERTEX
  8
Default
 10
210.99426710475
 20
1475.24855427783
 42
0.2238263315221
  0
VERTEX
  8
Default
 10
223.814698970705
 20
1484.45716347434
 42
0.1245332861029
  0
VERTEX
  8
Default
 10
229.203002744858
 20
1501.73825866434
 42
0.6040970098541
  0
SEQEND
  0
POLYLINE
  8
Default
 66
     1
 10
0.0
 20
0.0
 30
0.0
 70
     1
  0
VERTEX
  8
Default
 10
187.58149756295
 20
962.206312524363
 42
-0.2853803879176
  0
VERTEX
  8
Default
 10
178.759122441619
 20
983.599521657884
 42
-0.0118973083591
  0
VERTEX
  8
Default
 10
179.003455680522
 20
985.751807917235
 42
0.0
  0
VERTEX
  8
Default
 10
203.078822859715
 20
959.563259073752
 42
-0.2126951370447
  0
SEQEND
  0
POLYLINE
  8
Default
 66
     1
 10
0.0
 20
0.0
 30
0.0
 70
     1
  0
VERTEX
  8
Default
 10
220.447955131277
 20
942.555335224246
 42
0.0569353447649
  0
VERTEX
  8
Default
 10
223.828682023782
 20
945.358074760129
 42
0.0
  0
VERTEX
  8
Default
 10
215.666938216834
 20
952.596942149565
 42
-0.5398588932059
  0
VERTEX
  8
Default
 10
169.552246964759
 20
976.838276662522
 42
-0.0607089304438
  0
VERTEX
  8
Default
 10
171.568443782575
 20
996.013667025692
 42
0.0
  0
VERTEX
  8
Default
 10
162.872125191956
 20
1007.47329860622
 42
0.3138731675321
  0
VERTEX
  8
Default
 10
171.92204862828
 20
946.647103716405
 42
0.335222901751
  0
SEQEND
  0
POLYLINE
  8
Default
 66
     1
 10
0.0
 20
0.0
 30
0.0
 70
     1
  0
VERTEX
  8
Default
 10
361.437506375846
 20
622.634017712014
 42
-0.1313746519426
  0
VERTEX
  8
Default
 10
363.211330246127
 20
628.597326624797
 42
0.0443059524196
  0
VERTEX
  8
Default
 10
396.555483033091
 20
689.765142656041
 42
0.0946861574687
  0
VERTEX
  8
Default
 10
406.941426236159
 20
735.951829660148
 42
0.0598220277969
  0
VERTEX
  8
Default
 10
398.746343385164
 20
812.861067030852
 42
0.0284468595533
  0
VERTEX
  8
Default
 10
385.635835520192
 20
860.931696993904
 42
-0.0212664678377
  0
VERTEX
  8
Default
 10
377.262168680019
 20
885.850828838113
 42
-0.0950444530372
  0
VERTEX
  8
Default
 10
375.988051858573
 20
895.78823009926
 42
-0.5433585412156
  0
VERTEX
  8
Default
 10
382.860146701569
 20
898.038210482259
 42
0.0
  0
VERTEX
  8
Default
 10
396.798539581857
 20
871.849733680135
 42
0.0
  0
VERTEX
  8
Default
 10
419.606835827653
 20
882.187295390646
 42
-0.0047798857689
  0
VERTEX
  8
Default
 10
419.407283723175
 20
738.103205680744
 42
-0.1707983126052
  0
VERTEX
  8
Default
 10
388.562236728812
 20
652.69336109446
 42
-0.0082998050226
  0
VERTEX
  8
Default
 10
365.454800689296
 20
625.440706987318
 42
-0.0853055830897
  0
VERTEX
  8
Default
 10
361.867492155107
 20
622.277086298844
 42
-0.4132097679361
  0
SEQEND
  0
POLYLINE
  8
Default
 66
     1
 10
0.0
 20
0.0
 30
0.0
 70
     1
  0
VERTEX
  8
Default
 10
203.122893259074
 20
783.72709329508
 42
-0.1764817690439
  0
VERTEX
  8
Default
 10
225.71279374715
 20
714.693978219052
 42
-0.0579730187889
  0
VERTEX
  8
Default
 10
204.931461367673
 20
584.033372225773
 42
0.27871624007
  0
VERTEX
  8
Default
 10
203.986484665958
 20
580.201595492152
 42
0.2427625064693
  0
VERTEX
  8
Default
 10
209.26888942089
 20
579.811672303362
 42
0.0303740103323
  0
VERTEX
  8
Default
 10
217.544086272558
 20
581.743134409681
 42
0.0215900687687
  0
VERTEX
  8
Default
 10
222.030254239932
 20
595.64113360993
 42
0.0315080977473
  0
VERTEX
  8
Default
 10
241.603943270766
 20
687.152635872818
 42
0.1394305977541
  0
VERTEX
  8
Default
 10
231.878249640117
 20
767.150305943623
 42
0.0614865075679
  0
VERTEX
  8
Default
 10
217.106226884935
 20
791.189243504769
 42
0.1744337845507
  0
SEQEND
  0
POLYLINE
  8
Default
 66
     1
 10
0.0
 20
0.0
 30
0.0
 70
     1
  0
VERTEX
  8
Default
 10
208.677540907087
 20
803.127302678412
 42
0.1995456482984
  0
VERTEX
  8
Default
 10
193.797448359767
 20
793.056224922098
 42
0.4194168402143
  0
VERTEX
  8
Default
 10
93.5950784952816
 20
784.269015051382
 42
0.0784834453744
  0
VERTEX
  8
Default
 10
88.1010833012215
 20
775.025656054346
 42
0.0446898729039
  0
VERTEX
  8
Default
 10
80.4570903060437
 20
745.481842071082
 42
0.0
  0
VERTEX
  8
Default
 10
62.4378917507335
 20
745.137600163632
 42
-0.1404784903863
  0
VERTEX
  8
Default
 10
80.9963317363036
 20
802.01512204775
 42
-0.1873976174143
  0
VERTEX
  8
Default
 10
111.816880073218
 20
822.478414973594
 42
-0.0413920305773
  0
VERTEX
  8
Default
 10
152.334340205445
 20
828.512299034231
 42
-0.1190767046706
  0
VERTEX
  8
Default
 10
164.680483172888
 20
827.351562540834
 42
0.1873980097095
  0
VERTEX
  8
Default
 10
165.188202943143
 20
830.980370619662
 42
0.1094487611795
  0
VERTEX
  8
Default
 10
161.620059372818
 20
837.54898902275
 42
-0.12833510664
  0
VERTEX
  8
Default
 10
93.3551994119667
 20
968.075111940421
 42
-0.1016191336396
  0
VERTEX
  8
Default
 10
91.7820290307917
 20
1059.17077139523
 42
-0.0632319549942
  0
VERTEX
  8
Default
 10
111.134622600405
 20
1122.46109649348
 42
-0.0054450620577
  0
VERTEX
  8
Default
 10
113.608870627956
 20
1122.66570734907
 42
0.1063767296817
  0
VERTEX
  8
Default
 10
103.765944183281
 20
985.946991781732
 42
0.1256714216561
  0
VERTEX
  8
Default
 10
138.134710425848
 20
899.261659893377
 42
-0.0046299435332
  0
SEQEND
  0
POLYLINE
  8
Default
 66
     1
 10
0.0
 20
0.0
 30
0.0
 70
     1
  0
VERTEX
  8
Default
 10
338.151280521308
 20
860.926510170377
 42
0.2590536849798
  0
VERTEX
  8
Default
 10
324.796276859092
 20
839.71006415639
 42
-0.1662117090281
  0
VERTEX
  8
Default
 10
359.485927849653
 20
816.409590720138
 42
-0.2433052404463
  0
VERTEX
  8
Default
 10
371.429731689873
 20
735.699052818563
 42
-0.0369963273367
  0
VERTEX
  8
Default
 10
337.044968060706
 20
645.801653287446
 42
0.1093028526533
  0
VERTEX
  8
Default
 10
336.713233480734
 20
636.651683575133
 42
0.7320584389115
  0
VERTEX
  8
Default
 10
344.17588420112
 20
636.422248235156
 42
0.0460168316058
  0
VERTEX
  8
Default
 10
354.762936044093
 20
653.085383286307
 42
0.0428100789312
  0
VERTEX
  8
Default
 10
380.059802946138
 20
710.953475832431
 42
0.0424664958237
  0
VERTEX
  8
Default
 10
386.422779737354
 20
735.977734556108
 42
0.0719883906389
  0
VERTEX
  8
Default
 10
385.903148293832
 20
802.97473774161
 42
0.1812846864352
  0
VERTEX
  8
Default
 10
357.346604222897
 20
850.807404240665
 42
0.0961432060072
  0
SEQEND
  0
POLYLINE
  8
Default
 66
     1
 10
0.0
 20
0.0
 30
0.0
 70
     1
  0
VERTEX
  8
Default
 10
240.262403359082
 20
1243.73443972827
 42
0.2484564770859
  0
VERTEX
  8
Default
 10
205.986676153405
 20
1138.69170592242
 42
0.0488271841056
  0
VERTEX
  8
Default
 10
214.995413269309
 20
1095.66565530322
 42
0.0917292282144
  0
VERTEX
  8
Default
 10
217.780705543483
 20
1090.18118666442
 42
0.86938981728
  0
VERTEX
  8
Default
 10
218.476796653913
 20
1091.77048975147
 42
0.0229590085015
  0
VERTEX
  8
Default
 10
217.591643665759
 20
1097.13935074537
 42
-0.0817546566828
  0
VERTEX
  8
Default
 10
211.868898101543
 20
1166.78661922567
 42
-0.1683046758262
  0
VERTEX
  8
Default
 10
247.610100913382
 20
1241.03453384896
 42
0.1048463041468
  0
SEQEND
  0
POLYLINE
  8
Default
 66
     1
 10
0.0
 20
0.0
 30
0.0
 70
     1
  0
VERTEX
  8
Default
 10
244.432365628702
 20
1249.23633091386
 42
0.6293797153171
  0
VERTEX
  8
Default
 10
243.102577249566
 20
1253.83736715729
 42
0.083827997646
  0
VERTEX
  8
Default
 10
222.102943112044
 20
1256.75185269563
 42
-0.2001819907894
  0
VERTEX
  8
Default
 10
228.557870081477
 20
1283.72148762626
 42
-0.0966076977993
  0
VERTEX
  8
Default
 10
241.740080818348
 20
1296.67197477766
 42
-0.1436646647327
  0
VERTEX
  8
Default
 10
285.723772431671
 20
1309.87638186973
 42
-0.3489358625549
  0
VERTEX
  8
Default
 10
326.606939399433
 20
1277.50508301964
 42
-0.4027085933023
  0
VERTEX
  8
Default
 10
296.463866258034
 20
1226.45345320746
 42
-0.2653244193699
  0
VERTEX
  8
Default
 10
283.021325213925
 20
1230.26809468662
 42
-0.3880592878415
  0
VERTEX
  8
Default
 10
283.407624836113
 20
1260.93870600408
 42
-0.3567875606095
  0
VERTEX
  8
Default
 10
304.822635915024
 20
1261.50297981172
 42
-0.1963540227827
  0
VERTEX
  8
Default
 10
309.217846577201
 20
1249.86014488861
 42
0.1934296264375
  0
VERTEX
  8
Default
 10
310.187195171919
 20
1251.4661365756
 42
0.0366215201653
  0
VERTEX
  8
Default
 10
314.270704125395
 20
1264.27438521754
 42
0.1991662666628
  0
VERTEX
  8
Default
 10
312.458646932084
 20
1282.5876840013
 42
0.2594442516419
  0
VERTEX
  8
Default
 10
288.782518002291
 20
1299.07696453937
 42
0.3690542545091
  0
VERTEX
  8
Default
 10
231.606383126915
 20
1264.33270298137
 42
-0.0555303116377
  0
VERTEX
  8
Default
 10
258.663320053244
 20
1254.21853019564
 42
-0.6269258205822
  0
VERTEX
  8
Default
 10
257.336502967228
 20
1249.75969916829
 42
0.0249682209772
  0
VERTEX
  8
Default
 10
252.565414635391
 20
1245.98286367221
 42
0.1176548309485
  0
SEQEND
  0
POLYLINE
  8
Default
 66
     1
 10
0.0
 20
0.0
 30
0.0
 70
     1
  0
VERTEX
  8
Default
 10
270.268439380478
 20
1107.23096517074
 42
-0.1924571543047
  0
VERTEX
  8
Default
 10
292.222959681774
 20
1109.6620818927
 42
-0.0175793004825
  0
VERTEX
  8
Default
 10
292.688837372181
 20
1130.2868683635
 42
-0.1459554968559
  0
VERTEX
  8
Default
 10
319.288325074972
 20
1196.02080912858
 42
-0.2655547863501
  0
VERTEX
  8
Default
 10
358.534391048404
 20
1210.76679225332
 42
-0.1361293772447
  0
VERTEX
  8
Default
 10
384.857112370534
 20
1201.72562317955
 42
-0.1345487623722
  0
VERTEX
  8
Default
 10
386.195773378149
 20
1199.89522598063
 42
0.0
  0
VERTEX
  8
Default
 10
396.966352920148
 20
1207.47607369348
 42
0.0368458982893
  0
VERTEX
  8
Default
 10
372.390953971474
 20
1223.61224846292
 42
0.0768092095073
  0
VERTEX
  8
Default
 10
364.066340890601
 20
1226.90966404279
 42
-0.6687520416518
  0
VERTEX
  8
Default
 10
361.560690780301
 20
1235.10650887917
 42
-0.0818866416831
  0
VERTEX
  8
Default
 10
367.303240927947
 20
1241.68318564507
 42
0.4352268261798
  0
VERTEX
  8
Default
 10
367.188893348409
 20
1250.89389205449
 42
-0.0856806180926
  0
VERTEX
  8
Default
 10
337.589313149101
 20
1225.15805385714
 42
0.0614915410517
  0
VERTEX
  8
Default
 10
313.477066646329
 20
1209.5261655004
 42
0.1346111792533
  0
VERTEX
  8
Default
 10
294.96271848647
 20
1181.97673937009
 42
0.0596103750902
  0
VERTEX
  8
Default
 10
287.311727340445
 20
1153.18938582815
 42
0.0882624358309
  0
VERTEX
  8
Default
 10
287.359954648066
 20
1151.65319671728
 42
0.043409020855
  0
VERTEX
  8
Default
 10
275.586129641544
 20
1168.61622197334
 42
0.1234308530158
  0
VERTEX
  8
Default
 10
272.78802511844
 20
1170.95003775373
 42
0.280716287073
  0
VERTEX
  8
Default
 10
272.136451868817
 20
1170.45064709159
 42
0.0729419802633
  0
VERTEX
  8
Default
 10
269.837366021692
 20
1154.08040180287
 42
0.031934501817
  0
SEQEND
  0
POLYLINE
  8
Default
 66
     1
 10
0.0
 20
0.0
 30
0.0
 70
     1
  0
VERTEX
  8
Default
 10
292.751528589083
 20
1095.36365181895
 42
0.1853792183781
  0
VERTEX
  8
Default
 10
271.536592678391
 20
1093.13789639427
 42
0.0422217177259
  0
VERTEX
  8
Default
 10
277.832991986928
 20
1061.81979390023
 42
0.0381570623962
  0
VERTEX
  8
Default
 10
316.756777513493
 20
974.493278835475
 42
-0.098311679871
  0
VERTEX
  8
Default
 10
319.055759986542
 20
967.84894331583
 42
-0.5294724469745
  0
VERTEX
  8
Default
 10
317.916801849693
 20
966.215012316311
 42
-0.1169414792789
  0
VERTEX
  8
Default
 10
307.445775911903
 20
974.403575041715
 42
-0.0129330911246
  0
VERTEX
  8
Default
 10
296.229858013599
 20
985.56298968303
 42
0.2398272051619
  0
VERTEX
  8
Default
 10
298.79323276776
 20
972.542923374523
 42
0.0174775703717
  0
VERTEX
  8
Default
 10
307.419471300122
 20
962.065848014013
 42
0.0078822458599
  0
VERTEX
  8
Default
 10
359.5861271447
 20
904.929990330631
 42
0.5742284531073
  0
VERTEX
  8
Default
 10
364.992920942042
 20
918.549966163729
 42
-0.0480525328936
  0
VERTEX
  8
Default
 10
303.322742412408
 20
1043.03883739498
 42
-0.0747142149372
  0
SEQEND
  0
POLYLINE
  8
Default
 66
     1
 10
0.0
 20
0.0
 30
0.0
 70
     1
  0
VERTEX
  8
Default
 10
221.677463017199
 20
1700.43567313671
 42
-0.174522198921
  0
VERTEX
  8
Default
 10
227.616380077847
 20
1707.25412579814
 42
0.1739478796749
  0
VERTEX
  8
Default
 10
187.149117546466
 20
1712.83491187165
 42
0.2566949871756
  0
VERTEX
  8
Default
 10
158.597112174013
 20
1686.49010166557
 42
0.2198880625881
  0
VERTEX
  8
Default
 10
163.179991609887
 20
1643.41785444069
 42
0.0353365419472
  0
VERTEX
  8
Default
 10
174.101909246311
 20
1626.45095032501
 42
0.3166868401002
  0
VERTEX
  8
Default
 10
199.05692400516
 20
1616.99330641039
 42
0.352383901881
  0
VERTEX
  8
Default
 10
213.799915285
 20
1629.81739599585
 42
0.1928758574522
  0
VERTEX
  8
Default
 10
211.216881018295
 20
1648.98369912718
 42
0.2308087411691
  0
VERTEX
  8
Default
 10
203.564451536784
 20
1654.40501212493
 42
0.3358019765165
  0
VERTEX
  8
Default
 10
182.545135268176
 20
1637.78582938107
 42
-1.0149612840571
  0
VERTEX
  8
Default
 10
179.231896907545
 20
1636.60270784803
 42
-0.1176632588065
  0
VERTEX
  8
Default
 10
167.305268620207
 20
1658.29082023508
 42
-0.2839875304418
  0
VERTEX
  8
Default
 10
175.182486536014
 20
1690.21180188567
 42
-0.3532058151402
  0
SEQEND
  0
POLYLINE
  8
Default
 66
     1
 10
0.0
 20
0.0
 30
0.0
 70
     1
  0
VERTEX
  8
Default
 10
235.692578955671
 20
1702.77899980624
 42
0.1805936924968
  0
VERTEX
  8
Default
 10
229.535730406456
 20
1695.75918092404
 42
-0.0847530464142
  0
VERTEX
  8
Default
 10
254.95756819254
 20
1674.00773758488
 42
-0.491995318156
  0
VERTEX
  8
Default
 10
257.354255245492
 20
1670.28458006349
 42
-0.154083477235
  0
VERTEX
  8
Default
 10
253.488115016462
 20
1668.605009546
 42
0.0545853564583
  0
VERTEX
  8
Default
 10
235.904368348922
 20
1663.43709134586
 42
0.2723730147976
  0
VERTEX
  8
Default
 10
226.690564763519
 20
1653.63854948428
 42
0.3234584487489
  0
VERTEX
  8
Default
 10
229.774184240044
 20
1649.01945423605
 42
0.0336637425734
  0
VERTEX
  8
Default
 10
232.73565114457
 20
1647.63227471339
 42
-0.1162564889463
  0
VERTEX
  8
Default
 10
256.543453436712
 20
1634.91108848389
 42
-0.0536361996872
  0
VERTEX
  8
Default
 10
277.740047162311
 20
1614.75790864165
 42
-0.1154565393591
  0
VERTEX
  8
Default
 10
302.198030952294
 20
1559.5420199289
 42
-0.0554601382534
  0
VERTEX
  8
Default
 10
307.081185056172
 20
1504.60569480063
 42
-0.0754019236765
  0
VERTEX
  8
Default
 10
305.965271793378
 20
1495.45552519679
 42
0.2399377141987
  0
VERTEX
  8
Default
 10
306.107535232218
 20
1486.29148842716
 42
0.4372568369453
  0
VERTEX
  8
Default
 10
307.286213587156
 20
1486.1386063009
 42
0.1148904628706
  0
VERTEX
  8
Default
 10
312.844748954631
 20
1501.32174635664
 42
0.1917271860972
  0
VERTEX
  8
Default
 10
288.167127941458
 20
1615.11596864815
 42
0.0832582584521
  0
VERTEX
  8
Default
 10
264.340508512686
 20
1642.57462576544
 42
0.0710134233524
  0
VERTEX
  8
Default
 10
252.746515387614
 20
1649.70095216757
 42
-0.7586234547848
  0
VERTEX
  8
Default
 10
251.649519880784
 20
1658.96347355981
 42
-0.16895491192
  0
VERTEX
  8
Default
 10
264.766987688314
 20
1662.34637972069
 42
0.6645550392269
  0
VERTEX
  8
Default
 10
270.48816781024
 20
1670.19756908867
 42
0.0798069716969
  0
VERTEX
  8
Default
 10
262.486385522537
 20
1681.12463966064
 42
0.0667185597093
  0
SEQEND
  0
POLYLINE
  8
Default
 66
     1
 10
0.0
 20
0.0
 30
0.0
 70
     1
  0
VERTEX
  8
Default
 10
210.778617438915
 20
291.855100057708
 42
0.1648449660137
  0
VERTEX
  8
Default
 10
277.592592642936
 20
63.2959563741914
 42
-0.2112216003261
  0
VERTEX
  8
Default
 10
268.911776812577
 20
353.361626352858
 42
0.1226157053295
  0
VERTEX
  8
Default
 10
237.96633052135
 20
322.358957901717
 42
-0.0320593623705
  0
VERTEX
  8
Default
 10
229.411049602748
 20
307.061110805117
 42
-0.0668359187626
  0
VERTEX
  8
Default
 10
226.225216299168
 20
303.347063075287
 42
-0.4980129829708
  0
VERTEX
  8
Default
 10
220.623753646272
 20
303.727176072461
 42
0.0
  0
SEQEND
  0
POLYLINE
  8
Default
 66
     1
 10
0.0
 20
0.0
 30
0.0
 70
     1
  0
VERTEX
  8
Default
 10
357.625264323675
 20
150.549675956832
 42
0.2754765389166
  0
VERTEX
  8
Default
 10
376.25747990916
 20
149.48644497005
 42
0.0991641735477
  0
VERTEX
  8
Default
 10
407.117215396915
 20
174.766044469307
 42
0.0577782777097
  0
VERTEX
  8
Default
 10
437.678352736982
 20
221.894477728969
 42
0.0996378663278
  0
VERTEX
  8
Default
 10
451.298684702364
 20
284.317910394894
 42
0.072204069992
  0
VERTEX
  8
Default
 10
441.910526267461
 20
357.735408918028
 42
-0.0505686653122
  0
VERTEX
  8
Default
 10
438.203277976877
 20
295.215016205384
 42
-0.101324155869
  0
VERTEX
  8
Default
 10
409.16495509395
 20
223.761272681277
 42
-0.1447480785382
  0
VERTEX
  8
Default
 10
375.148236796265
 20
192.091125005487
 42
0.0724971964488
  0
VERTEX
  8
Default
 10
360.793327324014
 20
180.935784593916
 42
0.2188437974279
  0
VERTEX
  8
Default
 10
353.766685060673
 20
158.935571293124
 42
0.1958825131839
  0
SEQEND
  0
POLYLINE
  8
Default
 66
     1
 10
0.0
 20
0.0
 30
0.0
 70
     1
  0
VERTEX
  8
Default
 10
194.837600787751
 20
301.165018201219
 42
-0.0398717136427
  0
VERTEX
  8
Default
 10
198.380361829431
 20
369.313592334793
 42
-0.0559045780254
  0
VERTEX
  8
Default
 10
209.924573366602
 20
415.750570921511
 42
0.0009428734444
  0
VERTEX
  8
Default
 10
228.715393421069
 20
464.233308595787
 42
-0.054377196609
  0
VERTEX
  8
Default
 10
238.846630678343
 20
482.656636123355
 42
-0.0172810634018
  0
VERTEX
  8
Default
 10
284.759209250097
 20
539.758429809148
 42
0.0118639852624
  0
VERTEX
  8
Default
 10
299.592436716395
 20
552.418835200805
 42
-0.1408049126351
  0
VERTEX
  8
Default
 10
318.68850307668
 20
563.768049299357
 42
-0.2466981575163
  0
VERTEX
  8
Default
 10
330.107676123774
 20
560.206070223172
 42
-0.2054685266293
  0
VERTEX
  8
Default
 10
331.812019038917
 20
554.996398303485
 42
-0.2003456811449
  0
VERTEX
  8
Default
 10
313.809766739883
 20
531.814492795194
 42
0.0616111879977
  0
VERTEX
  8
Default
 10
256.896411428998
 20
491.151178603977
 42
0.1018520232619
  0
VERTEX
  8
Default
 10
231.315511182428
 20
453.605080657953
 42
0.097164551659
  0
VERTEX
  8
Default
 10
196.528722404283
 20
322.750951900467
 42
-0.0064784224715
  0
SEQEND
  0
POLYLINE
  8
Default
 66
     1
 10
0.0
 20
0.0
 30
0.0
 70
     1
  0
VERTEX
  8
Default
 10
288.940943733739
 20
694.302823736805
 42
0.0
  0
VERTEX
  8
Default
 10
301.1903960789
 20
692.721371888654
 42
-0.0815300249818
  0
VERTEX
  8
Default
 10
254.001678485281
 20
575.90203621967
 42
0.0030934678537
  0
VERTEX
  8
Default
 10
212.705808950124
 20
512.011147587865
 42
0.0
  0
VERTEX
  8
Default
 10
217.662451248365
 20
547.057129909887
 42
0.0729767423171
  0
VERTEX
  8
Default
 10
258.4778691621
 20
615.301969906926
 42
0.0276136437567
  0
SEQEND
  0
POLYLINE
  8
Default
 66
     1
 10
0.0
 20
0.0
 30
0.0
 70
     1
  0
VERTEX
  8
Default
 10
119.45271812098
 20
656.983609540986
 42
0.3550223201039
  0
VERTEX
  8
Default
 10
121.891341176633
 20
660.731198706189
 42
0.0838864459223
  0
VERTEX
  8
Default
 10
120.656775926826
 20
666.731827063631
 42
0.035958655644
  0
VERTEX
  8
Default
 10
111.17770801306
 20
687.936252453125
 42
-0.093021692933
  0
VERTEX
  8
Default
 10
108.7113469055
 20
710.342157409706
 42
-0.2921310280467
  0
VERTEX
  8
Default
 10
123.948149752834
 20
731.701524836997
 42
-0.0852965891218
  0
VERTEX
  8
Default
 10
136.860061601389
 20
734.76846172212
 42
-0.2865637552295
  0
VERTEX
  8
Default
 10
154.561120169442
 20
724.843906458405
 42
-0.1636003830171
  0
VERTEX
  8
Default
 10
162.595533570889
 20
675.714717879268
 42
-0.1858955557382
  0
VERTEX
  8
Default
 10
140.023277885989
 20
646.569660041807
 42
-0.1963560855369
  0
VERTEX
  8
Default
 10
116.69245642093
 20
642.865040893538
 42
-0.1079955581619
  0
VERTEX
  8
Default
 10
97.9868943302975
 20
652.966434426002
 42
-0.2477800808713
  0
VERTEX
  8
Default
 10
66.7559250903963
 20
726.587552950723
 42
0.0
  0
VERTEX
  8
Default
 10
76.9422898823356
 20
727.091240267709
 42
0.0835382139223
  0
VERTEX
  8
Default
 10
82.5062130843022
 20
690.438481420068
 42
0.0759181533159
  0
VERTEX
  8
Default
 10
86.3486989584121
 20
683.481211108769
 42
0.1161102527062
  0
VERTEX
  8
Default
 10
114.890211165291
 20
657.819286250603
 42
0.3092056562964
  0
SEQEND
  0
POLYLINE
  8
Default
 66
     1
 10
0.0
 20
0.0
 30
0.0
 70
     1
  0
VERTEX
  8
Default
 10
310.153803763906
 20
848.121872770204
 42
-0.177476536225
  0
VERTEX
  8
Default
 10
316.585821669875
 20
866.153643561008
 42
0.149942621019
  0
VERTEX
  8
Default
 10
276.755937141572
 20
849.369477369942
 42
0.0846955668533
  0
VERTEX
  8
Default
 10
268.834923330219
 20
840.171691441388
 42
0.1702377950565
  0
VERTEX
  8
Default
 10
253.234527039503
 20
774.326344062821
 42
0.1929247560207
  0
VERTEX
  8
Default
 10
283.249963319904
 20
727.811655198028
 42
0.1167850535305
  0
VERTEX
  8
Default
 10
299.067003714198
 20
720.687820596381
 42
0.2296064271221
  0
VERTEX
  8
Default
 10
313.103968188286
 20
724.747566902393
 42
0.1392266247698
  0
VERTEX
  8
Default
 10
320.887279816882
 20
739.05811990578
 42
0.0753002850168
  0
VERTEX
  8
Default
 10
322.431306854403
 20
763.290957774582
 42
0.1000174640607
  0
VERTEX
  8
Default
 10
318.790670764059
 20
776.001482206415
 42
0.3349091032236
  0
VERTEX
  8
Default
 10
305.1209946991
 20
782.58925867455
 42
0.1742294233717
  0
VERTEX
  8
Default
 10
292.302161264464
 20
774.352746366499
 42
0.241242378215
  0
VERTEX
  8
Default
 10
290.855609228707
 20
766.093039699641
 42
-0.2180660722634
  0
VERTEX
  8
Default
 10
288.98283437902
 20
745.582655720931
 42
-0.4190819061713
  0
VERTEX
  8
Default
 10
286.164342149584
 20
745.148099922689
 42
-0.215893008742
  0
VERTEX
  8
Default
 10
265.840967277387
 20
781.658801825422
 42
-0.131535584813
  0
VERTEX
  8
Default
 10
274.828711261134
 20
822.819794699174
 42
-0.2533574003394
  0
SEQEND
  0
POLYLINE
  8
Default
 66
     1
 10
0.0
 20
0.0
 30
0.0
 70
     1
  0
VERTEX
  8
Default
 10
193.846491254946
 20
1291.09146905746
 42
-0.1192251160048
  0
VERTEX
  8
Default
 10
199.259840020808
 20
1296.55999873258
 42
-0.9164449124315
  0
VERTEX
  8
Default
 10
201.352480001451
 20
1294.95775814624
 42
-0.0360474470299
  0
VERTEX
  8
Default
 10
189.889304012973
 20
1253.58150713503
 42
0.0030607082781
  0
VERTEX
  8
Default
 10
187.564381229522
 20
1243.33113645762
 42
0.6442002503434
  0
VERTEX
  8
Default
 10
189.43858107367
 20
1238.85197419227
 42
0.201069082381
  0
VERTEX
  8
Default
 10
195.60192054598
 20
1240.91978302311
 42
-0.3470203545143
  0
VERTEX
  8
Default
 10
227.736054544322
 20
1248.94678483826
 42
-0.0831696012277
  0
VERTEX
  8
Default
 10
215.66857891826
 20
1230.89941661913
 42
0.0965708675258
  0
VERTEX
  8
Default
 10
194.856946964073
 20
1197.4446711068
 42
0.1312407278713
  0
VERTEX
  8
Default
 10
190.793964903666
 20
1166.91701431117
 42
0.0266608234715
  0
VERTEX
  8
Default
 10
200.015629457298
 20
1120.92442900449
 42
-0.0138869155636
  0
VERTEX
  8
Default
 10
206.262687710927
 20
1093.28921646156
 42
-0.0599152864615
  0
VERTEX
  8
Default
 10
206.840939354987
 20
1087.65134257338
 42
-0.0389712857987
  0
VERTEX
  8
Default
 10
203.668167517504
 20
1092.9350414199
 42
-0.0575920202639
  0
VERTEX
  8
Default
 10
184.527506092161
 20
1145.42443513162
 42
-0.0568982291095
  0
VERTEX
  8
Default
 10
178.174392670887
 20
1232.11065644467
 42
-0.0884204827648
  0
SEQEND
  0
POLYLINE
  8
Default
 66
     1
 10
0.0
 20
0.0
 30
0.0
 70
     1
  0
VERTEX
  8
Default
 10
271.729132995381
 20
1023.3551855626
 42
-0.2817266674715
  0
VERTEX
  8
Default
 10
271.392790789638
 20
1023.21053185477
 42
-0.1804468595381
  0
VERTEX
  8
Default
 10
260.859760009585
 20
1035.11981666951
 42
-0.0580632524115
  0
VERTEX
  8
Default
 10
229.632060961119
 20
1107.86271088828
 42
-0.0863872685993
  0
VERTEX
  8
Default
 10
224.370822756323
 20
1139.34952426371
 42
-0.0139042258519
  0
VERTEX
  8
Default
 10
225.111043751748
 20
1164.12106947308
 42
-0.1655409197223
  0
VERTEX
  8
Default
 10
238.532699749354
 20
1197.24222954871
 42
-0.033081551969
  0
VERTEX
  8
Default
 10
252.227142604589
 20
1211.26868008669
 42
0.0
  0
VERTEX
  8
Default
 10
274.139282234628
 20
1209.48104000102
 42
0.1016997529582
  0
VERTEX
  8
Default
 10
247.985184498912
 20
1183.72508404176
 42
0.2088624764018
  0
VERTEX
  8
Default
 10
238.236068473856
 20
1129.36924539382
 42
0.0477404917234
  0
VERTEX
  8
Default
 10
271.841457776722
 20
1030.02373016055
 42
-0.0831786671252
  0
VERTEX
  8
Default
 10
272.057327533664
 20
1023.96984213787
 42
-0.2266122913805
  0
SEQEND
  0
POLYLINE
  8
Default
 66
     1
 10
0.0
 20
0.0
 30
0.0
 70
     0
  0
VERTEX
  8
Default
 10
406.410377195344
 20
286.098393272399
 42
0.0005887227996
  0
VERTEX
  8
Default
 10
406.540716552566
 20
286.482336596825
 42
0.0
  0
SEQEND
  0
POLYLINE
  8
Default
 66
     1
 10
0.0
 20
0.0
 30
0.0
 70
     1
  0
VERTEX
  8
Default
 10
379.435774597315
 20
444.101000480348
 42
0.1310280925112
  0
VERTEX
  8
Default
 10
361.203707404984
 20
432.44652805369
 42
0.0116040670779
  0
VERTEX
  8
Default
 10
356.230230498596
 20
437.900789925855
 42
0.0948515820636
  0
VERTEX
  8
Default
 10
353.648495006336
 20
439.667540588053
 42
0.3702200685085
  0
VERTEX
  8
Default
 10
352.215128438793
 20
439.06635764986
 42
0.1201815906441
  0
VERTEX
  8
Default
 10
351.787842075136
 20
434.907550049735
 42
0.0015822654371
  0
VERTEX
  8
Default
 10
352.901995950998
 20
421.073536958051
 42
-0.2330130938546
  0
VERTEX
  8
Default
 10
344.459993189938
 20
396.750464799324
 42
-0.426825335886
  0
VERTEX
  8
Default
 10
327.849016944424
 20
395.897205344731
 42
-0.0435456689239
  0
VERTEX
  8
Default
 10
322.679490739173
 20
401.79302604259
 42
-0.0535305651665
  0
VERTEX
  8
Default
 10
307.603745681177
 20
429.211552601862
 42
0.3924770954523
  0
VERTEX
  8
Default
 10
285.541891114142
 20
438.706086039561
 42
0.1457386968887
  0
VERTEX
  8
Default
 10
257.909616972339
 20
417.5614126678
 42
0.0665844670953
  0
VERTEX
  8
Default
 10
239.5871266708
 20
384.457060292194
 42
0.0506852224563
  0
VERTEX
  8
Default
 10
223.848437413348
 20
330.748912141134
 42
0.0
  0
VERTEX
  8
Default
 10
210.285152661592
 20
314.393186411074
 42
-0.0628435237833
  0
VERTEX
  8
Default
 10
231.279655104368
 20
407.448515891064
 42
-0.1037516898091
  0
VERTEX
  8
Default
 10
262.810432046373
 20
453.527931442925
 42
-0.0750067338669
  0
VERTEX
  8
Default
 10
289.01213811994
 20
471.533992991834
 42
-0.1038196172325
  0
VERTEX
  8
Default
 10
301.613015447529
 20
475.15737771774
 42
-0.1637886644021
  0
VERTEX
  8
Default
 10
358.033938611711
 20
460.850618439299
 42
-0.0698793943561
  0
SEQEND
  0
POLYLINE
  8
Default
 66
     1
 10
0.0
 20
0.0
 30
0.0
 70
     1
  0
VERTEX
  8
Default
 10
355.19538642043
 20
272.993146577639
 42
0.1993999795845
  0
VERTEX
  8
Default
 10
353.289982307235
 20
230.835078777608
 42
0.2095799825761
  0
VERTEX
  8
Default
 10
388.163844908031
 20
252.220241118579
 42
0.0426260634583
  0
VERTEX
  8
Default
 10
406.540716552566
 20
286.482336596825
 42
0.0722064673148
  0
VERTEX
  8
Default
 10
415.491486906746
 20
335.137826980232
 42
0.0248363158572
  0
VERTEX
  8
Default
 10
412.479207131276
 20
365.875528245547
 42
0.0728191687197
  0
VERTEX
  8
Default
 10
397.632375762025
 20
417.618105465284
 42
0.0308121160644
  0
VERTEX
  8
Default
 10
391.881226112662
 20
428.184693496257
 42
0.1328834342438
  0
VERTEX
  8
Default
 10
372.773597383887
 20
417.413231807788
 42
-0.1175779306367
  0
VERTEX
  8
Default
 10
384.754287166999
 20
384.237731486153
 42
-0.0857625403348
  0
VERTEX
  8
Default
 10
387.872039794922
 20
330.946973596435
 42
-0.0401299001909
  0
VERTEX
  8
Default
 10
382.013431548414
 20
304.791344323321
 42
-0.0057702982348
  0
VERTEX
  8
Default
 10
375.892944068063
 20
289.908104937347
 42
-0.1931004358772
  0
VERTEX
  8
Default
 10
358.488237373381
 20
273.873973473258
 42
-0.0291606792822
  0
SEQEND
  0
POLYLINE
  8
Default
 66
     1
 10
0.0
 20
0.0
 30
0.0
 70
     1
  0
VERTEX
  8
Default
 10
336.297723178307
 20
231.492395703491
 42
-0.2022748639362
  0
VERTEX
  8
Default
 10
339.316034376742
 20
274.147795328884
 42
-0.0775173330823
  0
VERTEX
  8
Default
 10
331.417825977185
 20
278.493112359992
 42
-0.0854102337519
  0
VERTEX
  8
Default
 10
320.513045261043
 20
290.254548000942
 42
-0.1529990916635
  0
VERTEX
  8
Default
 10
305.763055224415
 20
340.726147752689
 42
0.0022438801824
  0
VERTEX
  8
Default
 10
307.805197288507
 20
362.447998249761
 42
0.1769943555731
  0
VERTEX
  8
Default
 10
289.782941630845
 20
332.064463060551
 42
0.189062961273
  0
VERTEX
  8
Default
 10
299.330413085896
 20
257.210603426006
 42
0.1137575022617
  0
VERTEX
  8
Default
 10
314.30011771988
 20
240.409329047862
 42
0.0970102570487
  0
SEQEND
  0
POLYLINE
  8
Default
 66
     1
 10
0.0
 20
0.0
 30
0.0
 70
     1
  0
VERTEX
  8
Default
 10
588.088856323773
 20
581.975158464474
 42
-0.3553354234805
  0
VERTEX
  8
Default
 10
585.599294848084
 20
596.340222591245
 42
-0.5423177763984
  0
VERTEX
  8
Default
 10
599.194843968393
 20
598.004421257225
 42
-0.371173400428
  0
VERTEX
  8
Default
 10
599.037887791885
 20
583.035898953132
 42
-0.3872880607797
  0
SEQEND
  0
POLYLINE
  8
Default
 66
     1
 10
0.0
 20
0.0
 30
0.0
 70
     1
  0
VERTEX
  8
Default
 10
890.840330225877
 20
1606.93566440591
 42
-0.4606743172122
  0
VERTEX
  8
Default
 10
892.69570036301
 20
1587.34748952226
 42
-0.4541988557842
  0
VERTEX
  8
Default
 10
877.140203505494
 20
1588.38070959105
 42
-0.369372671782
  0
VERTEX
  8
Default
 10
877.943035015512
 20
1605.3184441141
 42
-0.3615844660805
  0
SEQEND
  0
POLYLINE
  8
Default
 66
     1
 10
0.0
 20
0.0
 30
0.0
 70
     1
  0
VERTEX
  8
Default
 10
873.276305635179
 20
530.86797809721
 42
-0.4606742197757
  0
VERTEX
  8
Default
 10
871.420935968956
 20
550.456148779468
 42
-0.4541990339854
  0
VERTEX
  8
Default
 10
886.976434706212
 20
549.422932930687
 42
-0.3693725625767
  0
VERTEX
  8
Default
 10
886.173599334164
 20
532.485191420525
 42
-0.3615846367846
  0
SEQEND
  0
POLYLINE
  8
Default
 66
     1
 10
0.0
 20
0.0
 30
0.0
 70
     1
  0
VERTEX
  8
Default
 10
850.344621901062
 20
1587.25833201468
 42
-0.1741510266352
  0
VERTEX
  8
Default
 10
858.003220205858
 20
1588.47510260188
 42
0.4736349819349
  0
VERTEX
  8
Default
 10
894.0657308597
 20
1566.12595610076
 42
0.2104008064129
  0
VERTEX
  8
Default
 10
910.682135803555
 20
1586.60427602991
 42
-0.2404221746737
  0
VERTEX
  8
Default
 10
919.915371230584
 20
1586.89015897183
 42
-0.1952346586389
  0
VERTEX
  8
Default
 10
900.369760952212
 20
1556.90521682308
 42
-0.3904352876657
  0
VERTEX
  8
Default
 10
857.804202358774
 20
1568.31609471406
 42
-0.1252869732258
  0
VERTEX
  8
Default
 10
850.08165151786
 20
1586.70321196973
 42
-0.0636245522474
  0
SEQEND
  0
POLYLINE
  8
Default
 66
     1
 10
0.0
 20
0.0
 30
0.0
 70
     1
  0
VERTEX
  8
Default
 10
618.258875821049
 20
1446.75393163228
 42
0.4056843725938
  0
VERTEX
  8
Default
 10
611.866817734841
 20
1446.01472008555
 42
0.4194941449073
  0
VERTEX
  8
Default
 10
612.108269697723
 20
1443.63198069835
 42
0.063785946092
  0
VERTEX
  8
Default
 10
625.593794183906
 20
1438.85864678725
 42
-0.5344424587424
  0
VERTEX
  8
Default
 10
601.966841735325
 20
1445.75541801802
 42
-0.1498173417902
  0
VERTEX
  8
Default
 10
603.028694955669
 20
1460.94830251301
 42
-0.1544632433017
  0
VERTEX
  8
Default
 10
604.790530068431
 20
1463.37817466163
 42
-0.3914847285868
  0
VERTEX
  8
Default
 10
606.027851669798
 20
1462.9271841522
 42
0.2596852274136
  0
VERTEX
  8
Default
 10
620.697288134688
 20
1454.57484196768
 42
-0.4700830037514
  0
VERTEX
  8
Default
 10
628.61471307319
 20
1449.22030612224
 42
-0.0763472351743
  0
VERTEX
  8
Default
 10
628.142487387864
 20
1441.88355274805
 42
0.0460383630287
  0
SEQEND
  0
POLYLINE
  8
Default
 66
     1
 10
0.0
 20
0.0
 30
0.0
 70
     1
  0
VERTEX
  8
Default
 10
639.723971228482
 20
1425.36920677268
 42
-0.2249904607114
  0
VERTEX
  8
Default
 10
633.821437064196
 20
1445.67070748008
 42
-0.2280987655415
  0
VERTEX
  8
Default
 10
652.784048706358
 20
1480.48174255164
 42
-0.2966769405962
  0
VERTEX
  8
Default
 10
654.830337597614
 20
1477.20707949647
 42
0.1385003193437
  0
VERTEX
  8
Default
 10
658.69864208348
 20
1449.49968887163
 42
-0.2230044638031
  0
VERTEX
  8
Default
 10
661.433096502517
 20
1427.26991521676
 42
-0.4818480154762
  0
VERTEX
  8
Default
 10
657.872141377526
 20
1425.91905515812
 42
-0.2359350983249
  0
VERTEX
  8
Default
 10
647.937262313155
 20
1443.41617132356
 42
-0.042108477181
  0
VERTEX
  8
Default
 10
648.385372983511
 20
1447.68453731533
 42
0.9739235039044
  0
VERTEX
  8
Default
 10
644.818835934652
 20
1446.69383257953
 42
0.1692570855889
  0
VERTEX
  8
Default
 10
645.600331662312
 20
1435.95359470549
 42
-0.0667870338161
  0
VERTEX
  8
Default
 10
651.469137273387
 20
1422.93018778932
 42
-0.1014754389493
  0
VERTEX
  8
Default
 10
649.53780870659
 20
1416.33656896338
 42
-0.5578782944593
  0
VERTEX
  8
Default
 10
646.418203273215
 20
1415.62072378179
 42
-0.0129825203975
  0
VERTEX
  8
Default
 10
639.724359933672
 20
1425.36877056956
 42
0.0
  0
SEQEND
  0
POLYLINE
  8
Default
 66
     1
 10
0.0
 20
0.0
 30
0.0
 70
     1
  0
VERTEX
  8
Default
 10
801.254322912873
 20
71.8413575707689
 42
0.0
  0
VERTEX
  8
Default
 10
803.416869116209
 20
69.8202485593901
 42
0.3085750805726
  0
VERTEX
  8
Default
 10
842.525604368484
 20
464.070748296997
 42
0.0
  0
VERTEX
  8
Default
 10
842.666207964822
 20
425.861686608361
 42
-0.2460399208207
  0
SEQEND
  0
POLYLINE
  8
Default
 66
     1
 10
0.0
 20
0.0
 30
0.0
 70
     1
  0
VERTEX
  8
Default
 10
802.916063274816
 20
422.785112065186
 42
0.3915595686357
  0
VERTEX
  8
Default
 10
804.138127609521
 20
425.94736880863
 42
0.0542326530322
  0
VERTEX
  8
Default
 10
802.433832834334
 20
438.202384990234
 42
0.1257807556786
  0
VERTEX
  8
Default
 10
760.951969713191
 20
525.701604195155
 42
0.002261631109
  0
VERTEX
  8
Default
 10
678.968647825349
 20
619.753937578847
 42
0.0919970867459
  0
VERTEX
  8
Default
 10
671.304180542136
 20
627.246556871424
 42
0.4210191621701
  0
VERTEX
  8
Default
 10
667.923438250921
 20
627.265106186191
 42
0.3647795017921
  0
VERTEX
  8
Default
 10
667.919709678063
 20
613.339519725045
 42
0.0202056350725
  0
VERTEX
  8
Default
 10
669.141317887454
 20
611.792925992657
 42
0.0150188341211
  0
VERTEX
  8
Default
 10
724.211597223553
 20
552.794644006131
 42
-0.0955986678397
  0
VERTEX
  8
Default
 10
778.982532969915
 20
481.075141263433
 42
-0.0459246249816
  0
VERTEX
  8
Default
 10
800.086073996492
 20
427.08825564654
 42
0.3619571362295
  0
SEQEND
  0
POLYLINE
  8
Default
 66
     1
 10
0.0
 20
0.0
 30
0.0
 70
     1
  0
VERTEX
  8
Default
 10
933.581908737451
 20
1840.8762458472
 42
-0.2772708847567
  0
VERTEX
  8
Default
 10
917.106794808479
 20
1834.61856388384
 42
0.5083075167856
  0
VERTEX
  8
Default
 10
907.954627413119
 20
1829.24467936867
 42
0.057753316681
  0
VERTEX
  8
Default
 10
907.33241419301
 20
1823.40141836639
 42
-0.0299592616236
  0
VERTEX
  8
Default
 10
919.276650278707
 20
1826.94308779869
 42
-0.3424093835198
  0
VERTEX
  8
Default
 10
923.856149153304
 20
1824.93008016908
 42
-0.4392695461857
  0
VERTEX
  8
Default
 10
922.964418493149
 20
1822.50717360792
 42
-0.0583475820965
  0
VERTEX
  8
Default
 10
909.172477143307
 20
1820.05355614633
 42
0.5214751121997
  0
VERTEX
  8
Default
 10
933.318523994196
 20
1822.99593565089
 42
0.1555187061084
  0
VERTEX
  8
Default
 10
935.429494410941
 20
1838.18003348367
 42
0.4135510393439
  0
SEQEND
  0
POLYLINE
  8
Default
 66
     1
 10
0.0
 20
0.0
 30
0.0
 70
     1
  0
VERTEX
  8
Default
 10
606.330510732757
 20
1194.0801182806
 42
0.1480066100542
  0
VERTEX
  8
Default
 10
588.461724055981
 20
1193.00351560071
 42
0.1168742165891
  0
VERTEX
  8
Default
 10
579.752015771788
 20
1141.46611028066
 42
0.2135014045543
  0
VERTEX
  8
Default
 10
607.73352035285
 20
1097.23880646649
 42
0.4831198957918
  0
VERTEX
  8
Default
 10
665.104086745829
 20
1118.12371243103
 42
0.0666493871435
  0
VERTEX
  8
Default
 10
670.824873216823
 20
1141.31563500675
 42
0.127975246696
  0
VERTEX
  8
Default
 10
670.474443781655
 20
1155.41748126763
 42
0.2833435809781
  0
VERTEX
  8
Default
 10
657.386503857913
 20
1166.86325829902
 42
0.4025650105983
  0
VERTEX
  8
Default
 10
631.158889030302
 20
1153.33056768607
 42
0.1976934120553
  0
VERTEX
  8
Default
 10
632.703860528568
 20
1130.5394742794
 42
0.0761194796758
  0
VERTEX
  8
Default
 10
635.345389846295
 20
1126.84307691398
 42
0.0013569321268
  0
VERTEX
  8
Default
 10
644.680537122016
 20
1118.13768317321
 42
-0.5888655971432
  0
VERTEX
  8
Default
 10
644.083398497629
 20
1109.82865924829
 42
-0.1991886148415
  0
VERTEX
  8
Default
 10
615.261675537719
 20
1110.19083940581
 42
-0.2761164908913
  0
VERTEX
  8
Default
 10
597.94404778615
 20
1130.40406811511
 42
-0.0588203159758
  0
VERTEX
  8
Default
 10
596.15903765054
 20
1155.07021140966
 42
-0.1281404887218
  0
VERTEX
  8
Default
 10
605.488992932785
 20
1187.04897973352
 42
0.1389525704351
  0
VERTEX
  8
Default
 10
607.619017553939
 20
1191.63548316395
 42
0.2455863534073
  0
SEQEND
  0
POLYLINE
  8
Default
 66
     1
 10
0.0
 20
0.0
 30
0.0
 70
     1
  0
VERTEX
  8
Default
 10
621.196412452722
 20
518.427862670743
 42
0.5110182589826
  0
VERTEX
  8
Default
 10
621.638819101299
 20
512.882511402693
 42
0.0743359454912
  0
VERTEX
  8
Default
 10
639.045761524515
 20
507.301394126788
 42
-0.1325124169658
  0
VERTEX
  8
Default
 10
656.861971793678
 20
498.978832101077
 42
-0.3945868500015
  0
VERTEX
  8
Default
 10
656.575393268532
 20
486.901344473324
 42
-0.2151540782135
  0
VERTEX
  8
Default
 10
635.54493604137
 20
480.868451035731
 42
-0.1525214145653
  0
VERTEX
  8
Default
 10
597.465266844795
 20
490.614748743115
 42
0.1127885712999
  0
VERTEX
  8
Default
 10
584.290391034649
 20
494.359330899465
 42
0.0754013926283
  0
VERTEX
  8
Default
 10
556.697512473435
 20
491.589421995958
 42
-0.115203890129
  0
VERTEX
  8
Default
 10
575.365497212535
 20
525.746998513962
 42
-0.1099000235233
  0
VERTEX
  8
Default
 10
594.276973267585
 20
539.279436495582
 42
-0.1259452077821
  0
VERTEX
  8
Default
 10
631.054749793297
 20
544.331422599386
 42
-0.3398592219477
  0
VERTEX
  8
Default
 10
673.176657270596
 20
507.18353795052
 42
0.0857020817212
  0
VERTEX
  8
Default
 10
634.473941956392
 20
522.374743374114
 42
0.2279765571582
  0
SEQEND
  0
POLYLINE
  8
Default
 66
     1
 10
0.0
 20
0.0
 30
0.0
 70
     1
  0
VERTEX
  8
Default
 10
842.528580306807
 20
1524.39269686834
 42
-0.1111264517405
  0
VERTEX
  8
Default
 10
855.920738184405
 20
1488.57173685951
 42
-0.1592287943431
  0
VERTEX
  8
Default
 10
841.860028888137
 20
1442.92353996536
 42
-0.039418127669
  0
VERTEX
  8
Default
 10
826.301479475286
 20
1429.63343880501
 42
0.6786479667482
  0
VERTEX
  8
Default
 10
827.809995197518
 20
1418.65536833798
 42
0.1739144287211
  0
VERTEX
  8
Default
 10
836.4483554487
 20
1420.70295638302
 42
0.098709908743
  0
VERTEX
  8
Default
 10
848.111861924812
 20
1431.94215646306
 42
0.1547631448292
  0
VERTEX
  8
Default
 10
864.898729124984
 20
1490.24852349798
 42
0.160536645054
  0
VERTEX
  8
Default
 10
850.721430230458
 20
1530.21642528191
 42
0.2198619815422
  0
VERTEX
  8
Default
 10
844.779861033985
 20
1531.33597774554
 42
0.4362724460402
  0
VERTEX
  8
Default
 10
842.039105550895
 20
1527.2620315425
 42
0.0419921567197
  0
VERTEX
  8
Default
 10
842.528849951223
 20
1524.39264026442
 42
0.0
  0
SEQEND
  0
POLYLINE
  8
Default
 66
     1
 10
0.0
 20
0.0
 30
0.0
 70
     1
  0
VERTEX
  8
Default
 10
843.588909125865
 20
552.571337619096
 42
0.1471226693435
  0
VERTEX
  8
Default
 10
851.352346093725
 20
551.2714206951
 42
-0.4239415046823
  0
VERTEX
  8
Default
 10
884.244421355644
 20
573.781183662934
 42
-0.2548865933358
  0
VERTEX
  8
Default
 10
904.03126169142
 20
553.080940071953
 42
0.1696709677058
  0
VERTEX
  8
Default
 10
912.851188243644
 20
552.47065494479
 42
0.4861485848393
  0
VERTEX
  8
Default
 10
912.580378084377
 20
555.509685790223
 42
0.0861885326997
  0
VERTEX
  8
Default
 10
902.550705144779
 20
574.121294089687
 42
0.4996246752161
  0
VERTEX
  8
Default
 10
850.967526986724
 20
570.497354885545
 42
0.1266576961255
  0
VERTEX
  8
Default
 10
843.436947682785
 20
553.087771919331
 42
0.1158567045149
  0
SEQEND
  0
POLYLINE
  8
Default
 66
     1
 10
0.0
 20
0.0
 30
0.0
 70
     1
  0
VERTEX
  8
Default
 10
925.017733226113
 20
1752.82715760079
 42
0.7441747582006
  0
VERTEX
  8
Default
 10
929.274844789581
 20
1755.31370620181
 42
0.060846198842
  0
VERTEX
  8
Default
 10
917.319605749894
 20
1764.1920315548
 42
-0.4886692798093
  0
VERTEX
  8
Default
 10
938.415669499234
 20
1750.17025620396
 42
-0.1645021594025
  0
VERTEX
  8
Default
 10
934.287078973949
 20
1736.47732599276
 42
-0.5669874734096
  0
VERTEX
  8
Default
 10
931.224031488578
 20
1735.41992092625
 42
0.2672124202292
  0
VERTEX
  8
Default
 10
916.628493712253
 20
1748.86301130422
 42
-0.33540099115
  0
VERTEX
  8
Default
 10
912.34047849813
 20
1755.34800136306
 42
-0.081767412169
  0
VERTEX
  8
Default
 10
914.283272447622
 20
1762.22910268035
 42
0.0601254665079
  0
SEQEND
  0
POLYLINE
  8
Default
 66
     1
 10
0.0
 20
0.0
 30
0.0
 70
     1
  0
VERTEX
  8
Default
 10
789.667976879356
 20
1273.01276134367
 42
-0.2715948749115
  0
VERTEX
  8
Default
 10
788.112933697799
 20
1273.6919717891
 42
0.0515144958063
  0
VERTEX
  8
Default
 10
765.071136434174
 20
1307.94451631766
 42
0.1031522576965
  0
VERTEX
  8
Default
 10
674.244606881235
 20
1388.22033988846
 42
-0.0642698365421
  0
VERTEX
  8
Default
 10
668.615579905624
 20
1391.89105898381
 42
-0.5003525892586
  0
VERTEX
  8
Default
 10
669.454043578028
 20
1398.3819536046
 42
-0.1503341555035
  0
VERTEX
  8
Default
 10
683.984397198575
 20
1395.48702007277
 42
-0.0393152888235
  0
VERTEX
  8
Default
 10
698.362178223301
 20
1387.3473501892
 42
-0.125629846605
  0
VERTEX
  8
Default
 10
783.494611775166
 20
1294.42469720879
 42
-0.0357693200417
  0
VERTEX
  8
Default
 10
789.494605779197
 20
1281.90310554577
 42
-0.1802200534685
  0
VERTEX
  8
Default
 10
790.26634327468
 20
1273.6930213972
 42
-0.2091169900185
  0
SEQEND
  0
POLYLINE
  8
Default
 66
     1
 10
0.0
 20
0.0
 30
0.0
 70
     1
  0
VERTEX
  8
Default
 10
581.182441674757
 20
1938.13171124636
 42
0.2995053345096
  0
VERTEX
  8
Default
 10
582.596701919195
 20
1934.66174954553
 42
-0.0706333483589
  0
VERTEX
  8
Default
 10
613.435829048087
 20
1888.56618738759
 42
0.1494103788999
  0
VERTEX
  8
Default
 10
625.896535497082
 20
1871.62291560225
 42
0.0637097803383
  0
VERTEX
  8
Default
 10
649.90182901386
 20
1860.29186522074
 42
0.4066717127292
  0
VERTEX
  8
Default
 10
650.000698578225
 20
1869.38043442696
 42
-0.0971268363617
  0
VERTEX
  8
Default
 10
638.112196439281
 20
1885.35593636232
 42
-0.1846182721238
  0
VERTEX
  8
Default
 10
638.717038902245
 20
1892.27999911029
 42
-0.4242659588149
  0
VERTEX
  8
Default
 10
642.058671031581
 20
1893.24554338649
 42
-0.1036240538181
  0
VERTEX
  8
Default
 10
646.909973837834
 20
1889.0961699472
 42
-0.1388229880901
  0
VERTEX
  8
Default
 10
659.415863215883
 20
1863.16660354502
 42
0.1386752251333
  0
VERTEX
  8
Default
 10
663.1199412641
 20
1851.89311680918
 42
0.5539995729748
  0
VERTEX
  8
Default
 10
666.039600112941
 20
1852.53188807161
 42
0.2385914943998
  0
VERTEX
  8
Default
 10
667.104784526507
 20
1884.07462418203
 42
0.1358524601167
  0
VERTEX
  8
Default
 10
638.238750913158
 20
1915.72458526173
 42
0.064791460958
  0
VERTEX
  8
Default
 10
584.889006514092
 20
1937.91023994319
 42
0.2437298092266
  0
SEQEND
  0
POLYLINE
  8
Default
 66
     1
 10
0.0
 20
0.0
 30
0.0
 70
     1
  0
VERTEX
  8
Default
 10
843.711513801932
 20
532.283125507758
 42
-0.1741510724943
  0
VERTEX
  8
Default
 10
851.370114241502
 20
533.499898453588
 42
0.4736353508569
  0
VERTEX
  8
Default
 10
887.432646267415
 20
511.150758204927
 42
0.2104005073879
  0
VERTEX
  8
Default
 10
904.049029839199
 20
531.629069308712
 42
-0.2404219848753
  0
VERTEX
  8
Default
 10
913.282264268426
 20
531.914952114443
 42
-0.1952346724997
  0
VERTEX
  8
Default
 10
893.736648650355
 20
501.930006521326
 42
-0.390434772875
  0
VERTEX
  8
Default
 10
851.17112009319
 20
513.340848551068
 42
-0.1252868766574
  0
VERTEX
  8
Default
 10
843.448543188202
 20
531.728005248523
 42
-0.0636245634096
  0
SEQEND
  0
POLYLINE
  8
Default
 66
     1
 10
0.0
 20
0.0
 30
0.0
 70
     1
  0
VERTEX
  8
Default
 10
582.987030725901
 20
1359.75528882058
 42
0.6004058041394
  0
VERTEX
  8
Default
 10
585.772875232166
 20
1358.55496669457
 42
-0.2256365213149
  0
VERTEX
  8
Default
 10
600.817668475737
 20
1369.08097038075
 42
0.4920149947566
  0
VERTEX
  8
Default
 10
608.968198103838
 20
1378.15862512456
 42
0.0426388611395
  0
VERTEX
  8
Default
 10
608.318972689679
 20
1382.33511615256
 42
-0.0355565834862
  0
VERTEX
  8
Default
 10
596.463061526828
 20
1375.10756373236
 42
-0.3108932030602
  0
VERTEX
  8
Default
 10
591.750370530821
 20
1375.65972708152
 42
-0.442686377077
  0
VERTEX
  8
Default
 10
591.915125471281
 20
1377.96724631993
 42
-0.0500322411491
  0
VERTEX
  8
Default
 10
605.686479205155
 20
1384.76863718367
 42
0.5219103351068
  0
VERTEX
  8
Default
 10
581.068694206857
 20
1371.34861216744
 42
0.1640184996956
  0
SEQEND
  0
POLYLINE
  8
Default
 66
     1
 10
0.0
 20
0.0
 30
0.0
 70
     1
  0
VERTEX
  8
Default
 10
909.277636230625
 20
856.558885177392
 42
-0.0648572159759
  0
VERTEX
  8
Default
 10
908.875321721781
 20
856.299747803225
 42
-0.0752703948433
  0
VERTEX
  8
Default
 10
878.740705627556
 20
847.293849741037
 42
0.6692572614547
  0
VERTEX
  8
Default
 10
876.267326004788
 20
844.350521556724
 42
0.2369906411605
  0
VERTEX
  8
Default
 10
895.155629734204
 20
841.577607560756
 42
0.2177721638757
  0
VERTEX
  8
Default
 10
933.719231022134
 20
873.955842768016
 42
0.1596408358212
  0
VERTEX
  8
Default
 10
943.721268442972
 20
916.946763640417
 42
-0.0870830811339
  0
VERTEX
  8
Default
 10
909.50885837112
 20
892.825783742963
 42
0.1363283847952
  0
VERTEX
  8
Default
 10
884.548373094812
 20
868.025320380026
 42
0.0209238898371
  0
VERTEX
  8
Default
 10
878.464259272255
 20
858.367244707894
 42
0.1662772755412
  0
VERTEX
  8
Default
 10
903.806765978574
 20
867.326449419578
 42
-0.0850730722935
  0
VERTEX
  8
Default
 10
908.63417638671
 20
870.042921521191
 42
-0.4374044757015
  0
VERTEX
  8
Default
 10
912.344949377333
 20
868.798039739019
 42
-0.2687499468824
  0
SEQEND
  0
POLYLINE
  8
Default
 66
     1
 10
0.0
 20
0.0
 30
0.0
 70
     1
  0
VERTEX
  8
Default
 10
879.123650380027
 20
1791.14186472349
 42
-1.1724805731356
  0
VERTEX
  8
Default
 10
870.848631456935
 20
1785.10140992203
 42
-0.8528925961871
  0
SEQEND
  0
POLYLINE
  8
Default
 66
     1
 10
0.0
 20
0.0
 30
0.0
 70
     1
  0
VERTEX
  8
Default
 10
718.657015382051
 20
1682.62897913954
 42
0.4328142686552
  0
VERTEX
  8
Default
 10
720.497306550833
 20
1682.26878120751
 42
0.1290947019771
  0
VERTEX
  8
Default
 10
733.696031073094
 20
1693.48069579815
 42
-0.0539098439619
  0
VERTEX
  8
Default
 10
779.60876746708
 20
1740.16152587663
 42
-0.043410348228
  0
VERTEX
  8
Default
 10
825.756389665471
 20
1766.68962254949
 42
-0.1014236932488
  0
VERTEX
  8
Default
 10
855.511272959483
 20
1775.19910704709
 42
0.0
  0
VERTEX
  8
Default
 10
852.339904572456
 20
1788.9979420845
 42
0.0598596834308
  0
VERTEX
  8
Default
 10
835.589785078555
 20
1785.56221394348
 42
0.0934991358023
  0
VERTEX
  8
Default
 10
784.040167250275
 20
1757.81356738271
 42
0.0867568130697
  0
VERTEX
  8
Default
 10
719.372137527916
 20
1685.01449773745
 42
0.48653313031
  0
SEQEND
  0
POLYLINE
  8
Default
 66
     1
 10
0.0
 20
0.0
 30
0.0
 70
     1
  0
VERTEX
  8
Default
 10
882.686913608513
 20
1165.93220816526
 42
0.4895322246535
  0
VERTEX
  8
Default
 10
884.235694497751
 20
1165.44879363204
 42
0.191573519513
  0
VERTEX
  8
Default
 10
887.626056033779
 20
1169.98534673859
 42
0.2240203467306
  0
VERTEX
  8
Default
 10
882.76480395241
 20
1211.98694747531
 42
0.24132214472
  0
VERTEX
  8
Default
 10
858.965436567401
 20
1223.86144342898
 42
0.0992438443611
  0
VERTEX
  8
Default
 10
855.074085847033
 20
1222.81564045673
 42
-0.1277295386384
  0
VERTEX
  8
Default
 10
862.676849685438
 20
1205.58637093919
 42
0.0803197144235
  0
VERTEX
  8
Default
 10
865.750738308251
 20
1175.03900254093
 42
0.1319847899329
  0
VERTEX
  8
Default
 10
870.473196688395
 20
1169.1265858978
 42
0.3965787153315
  0
VERTEX
  8
Default
 10
872.795163876612
 20
1168.86405797578
 42
0.1586017626237
  0
VERTEX
  8
Default
 10
873.531077788715
 20
1172.62541710145
 42
-0.0795917003986
  0
VERTEX
  8
Default
 10
872.685424103572
 20
1190.11672662221
 42
-0.2876914493104
  0
VERTEX
  8
Default
 10
875.3481054039
 20
1193.181312324
 42
0.0
  0
VERTEX
  8
Default
 10
880.416592553354
 20
1194.55966932285
 42
-0.0271164478809
  0
VERTEX
  8
Default
 10
883.657370889086
 20
1177.85446216192
 42
-0.0487203859785
  0
VERTEX
  8
Default
 10
882.557295469297
 20
1166.58220684885
 42
0.1467438261711
  0
SEQEND
  0
POLYLINE
  8
Default
 66
     1
 10
0.0
 20
0.0
 30
0.0
 70
     1
  0
VERTEX
  8
Default
 10
787.855956478811
 20
1906.86290034583
 42
0.532445190928
  0
VERTEX
  8
Default
 10
787.133664254213
 20
1906.94730426566
 42
0.0460068880899
  0
VERTEX
  8
Default
 10
778.341856048334
 20
1898.81359084219
 42
-0.3274267527405
  0
VERTEX
  8
Default
 10
757.914663658399
 20
1899.95442356715
 42
-0.2148583476402
  0
VERTEX
  8
Default
 10
751.85879558896
 20
1915.99712198593
 42
-0.19122588238
  0
VERTEX
  8
Default
 10
761.289962229198
 20
1937.50650398182
 42
-0.3018401650298
  0
VERTEX
  8
Default
 10
791.82397755151
 20
1939.37430039594
 42
-0.0972916768431
  0
VERTEX
  8
Default
 10
795.255767954067
 20
1936.76036468214
 42
0.569581087778
  0
VERTEX
  8
Default
 10
808.469508025711
 20
1939.63508242318
 42
0.2604003899436
  0
VERTEX
  8
Default
 10
767.895119448949
 20
1964.47368943749
 42
0.1083081372469
  0
VERTEX
  8
Default
 10
735.103015659472
 20
1961.68032038865
 42
0.4779220364591
  0
VERTEX
  8
Default
 10
732.919085917964
 20
1956.60979449436
 42
0.1334896025353
  0
VERTEX
  8
Default
 10
734.249683700453
 20
1950.29229291772
 42
0.2877597544777
  0
VERTEX
  8
Default
 10
737.069095532199
 20
1950.57842447035
 42
-0.173308186562
  0
VERTEX
  8
Default
 10
743.686840573474
 20
1955.11957258272
 42
-0.0793050166599
  0
VERTEX
  8
Default
 10
763.076693598165
 20
1955.04777260008
 42
-0.8038373111437
  0
VERTEX
  8
Default
 10
764.19392202882
 20
1951.54910712986
 42
-0.0566471895579
  0
VERTEX
  8
Default
 10
751.376174937267
 20
1943.69645607502
 42
0.1832669211199
  0
VERTEX
  8
Default
 10
740.651930515167
 20
1928.86922420315
 42
0.2223741220321
  0
VERTEX
  8
Default
 10
743.95980143406
 20
1895.51149568308
 42
0.306711460624
  0
VERTEX
  8
Default
 10
771.187228296462
 20
1884.46596345905
 42
0.2374323526282
  0
VERTEX
  8
Default
 10
787.899224342273
 20
1906.39195346602
 42
0.2613443991898
  0
SEQEND
  0
POLYLINE
  8
Default
 66
     1
 10
0.0
 20
0.0
 30
0.0
 70
     1
  0
VERTEX
  8
Default
 10
649.191022682465
 20
1396.92093097783
 42
-0.5949268116962
  0
VERTEX
  8
Default
 10
652.199272016835
 20
1406.60260518142
 42
-1.4901792418493
  0
SEQEND
  0
POLYLINE
  8
Default
 66
     1
 10
0.0
 20
0.0
 30
0.0
 70
     1
  0
VERTEX
  8
Default
 10
587.5163942685
 20
1799.87955562272
 42
0.0341483712134
  0
VERTEX
  8
Default
 10
577.244623530465
 20
1801.53546235563
 42
0.3363519841931
  0
VERTEX
  8
Default
 10
573.750978880212
 20
1799.23042833558
 42
0.0927333008696
  0
VERTEX
  8
Default
 10
575.824767979274
 20
1750.2657347973
 42
0.3658524334036
  0
VERTEX
  8
Default
 10
619.245371224116
 20
1725.75336189968
 42
0.1453802999017
  0
VERTEX
  8
Default
 10
640.544110048363
 20
1736.33384346372
 42
0.254052466846
  0
VERTEX
  8
Default
 10
649.582187649054
 20
1763.6456766123
 42
0.2468443819021
  0
VERTEX
  8
Default
 10
626.012352981763
 20
1794.94904296661
 42
0.1650870495631
  0
VERTEX
  8
Default
 10
619.4013803618
 20
1795.91368881526
 42
0.2141475368237
  0
VERTEX
  8
Default
 10
617.659687030603
 20
1794.7474804828
 42
-0.0429906286037
  0
VERTEX
  8
Default
 10
611.317021215606
 20
1785.54823139547
 42
-0.076791141034
  0
VERTEX
  8
Default
 10
627.940949037882
 20
1772.46169846195
 42
-0.3843750440459
  0
VERTEX
  8
Default
 10
631.830822000879
 20
1751.27265267147
 42
-0.3443147178708
  0
VERTEX
  8
Default
 10
606.890783845187
 20
1743.07832470454
 42
-0.2262187899833
  0
VERTEX
  8
Default
 10
592.756915824756
 20
1754.46266478906
 42
-0.115343752059
  0
VERTEX
  8
Default
 10
588.588979662822
 20
1775.77405882859
 42
0.0066048421842
  0
VERTEX
  8
Default
 10
589.023705179025
 20
1794.57635867023
 42
0.0798178220836
  0
VERTEX
  8
Default
 10
588.599123598496
 20
1798.88048069662
 42
0.2530484770652
  0
SEQEND
  0
POLYLINE
  8
Default
 66
     1
 10
0.0
 20
0.0
 30
0.0
 70
     1
  0
VERTEX
  8
Default
 10
909.223371930623
 20
1169.43779444501
 42
-0.074760654643
  0
VERTEX
  8
Default
 10
915.933040156248
 20
1173.04747858145
 42
-0.3469483259524
  0
VERTEX
  8
Default
 10
918.551865251018
 20
1172.34143420986
 42
-0.4391493178117
  0
VERTEX
  8
Default
 10
918.430352612834
 20
1163.54698161838
 42
-0.0203082145426
  0
VERTEX
  8
Default
 10
907.18452092416
 20
1158.21636111941
 42
0.5048137237688
  0
VERTEX
  8
Default
 10
906.657157378524
 20
1153.56661010677
 42
0.4172750527186
  0
VERTEX
  8
Default
 10
919.063955490625
 20
1154.58770229243
 42
-0.1598628921359
  0
VERTEX
  8
Default
 10
943.657757237228
 20
1169.30414939891
 42
0.6900159597797
  0
VERTEX
  8
Default
 10
945.687131897692
 20
1173.00870357651
 42
0.3030406315587
  0
VERTEX
  8
Default
 10
913.954365526484
 20
1180.68941235638
 42
0.30759667984
  0
VERTEX
  8
Default
 10
898.041991875613
 20
1165.54928048231
 42
0.177789806977
  0
VERTEX
  8
Default
 10
900.69061211022
 20
1163.54698161838
 42
-0.0319112503429
  0
SEQEND
  0
POLYLINE
  8
Default
 66
     1
 10
0.0
 20
0.0
 30
0.0
 70
     1
  0
VERTEX
  8
Default
 10
679.827605675504
 20
1683.74392855853
 42
0.4285758917162
  0
VERTEX
  8
Default
 10
674.177127741055
 20
1685.65785524205
 42
0.2365960863981
  0
VERTEX
  8
Default
 10
668.290594162568
 20
1678.86917071283
 42
0.044899969995
  0
VERTEX
  8
Default
 10
649.868399881913
 20
1596.62241020101
 42
0.0946437778914
  0
VERTEX
  8
Default
 10
654.286153207451
 20
1504.87509764963
 42
0.0448947922712
  0
VERTEX
  8
Default
 10
657.619434487205
 20
1495.26403491894
 42
0.2446729362827
  0
VERTEX
  8
Default
 10
660.978160631937
 20
1492.26975405549
 42
0.6113886804015
  0
VERTEX
  8
Default
 10
663.159249704788
 20
1497.13636463332
 42
-0.1190147308156
  0
VERTEX
  8
Default
 10
660.054293674823
 20
1607.88453398829
 42
-0.0309153174876
  0
VERTEX
  8
Default
 10
679.061173704566
 20
1678.17998706761
 42
0.1142910972737
  0
SEQEND
  0
POLYLINE
  8
Default
 66
     1
 10
0.0
 20
0.0
 30
0.0
 70
     1
  0
VERTEX
  8
Default
 10
601.416870402876
 20
624.081014230216
 42
0.2889905736228
  0
VERTEX
  8
Default
 10
600.705093277165
 20
623.236128208115
 42
0.0801548772573
  0
VERTEX
  8
Default
 10
600.168118732621
 20
616.571942865455
 42
-0.3716082171932
  0
VERTEX
  8
Default
 10
616.916203006939
 20
587.975932623089
 42
-0.2672286489072
  0
VERTEX
  8
Default
 10
601.478829485816
 20
566.634448558479
 42
0.0910423638296
  0
VERTEX
  8
Default
 10
600.823443550013
 20
559.103194107447
 42
0.9321146032689
  0
VERTEX
  8
Default
 10
603.245982005434
 20
558.529950229286
 42
0.3928933037052
  0
VERTEX
  8
Default
 10
623.929674813956
 20
600.465646350255
 42
0.2873048824838
  0
VERTEX
  8
Default
 10
601.633003453593
 20
624.054419523169
 42
0.0741328386193
  0
SEQEND
  0
POLYLINE
  8
Default
 66
     1
 10
0.0
 20
0.0
 30
0.0
 70
     1
  0
VERTEX
  8
Default
 10
716.554638061385
 20
1491.89121396907
 42
-0.4079353580308
  0
VERTEX
  8
Default
 10
717.87794088274
 20
1491.99637397329
 42
-0.0916742885026
  0
VERTEX
  8
Default
 10
719.932494201722
 20
1489.56709991902
 42
-0.0075577600992
  0
VERTEX
  8
Default
 10
728.306776734502
 20
1476.78364893602
 42
0.4880813148071
  0
VERTEX
  8
Default
 10
730.655754403505
 20
1476.60794070047
 42
0.1156003206532
  0
VERTEX
  8
Default
 10
732.509773809589
 20
1481.55191700206
 42
0.0237667005142
  0
VERTEX
  8
Default
 10
736.392850991983
 20
1511.16860263418
 42
-0.3896847982071
  0
VERTEX
  8
Default
 10
752.078220072635
 20
1524.77830659926
 42
-0.3811856158095
  0
VERTEX
  8
Default
 10
755.014007591929
 20
1519.49568737183
 42
-0.0571610883687
  0
VERTEX
  8
Default
 10
748.877007981364
 20
1494.06536854481
 42
0.1761220422162
  0
VERTEX
  8
Default
 10
751.833771569268
 20
1429.61674131972
 42
0.0130089082031
  0
VERTEX
  8
Default
 10
797.776140106293
 20
1321.03457861106
 42
-0.085785281158
  0
VERTEX
  8
Default
 10
800.244622445081
 20
1314.08278036884
 42
-0.2905155844973
  0
VERTEX
  8
Default
 10
797.864636593394
 20
1307.58475858681
 42
-0.3223818189857
  0
VERTEX
  8
Default
 10
795.541233653625
 20
1307.60825068446
 42
-0.1028054771776
  0
VERTEX
  8
Default
 10
791.918298808131
 20
1312.34202728524
 42
-0.0199997717417
  0
VERTEX
  8
Default
 10
784.76676158004
 20
1326.95566848802
 42
0.0955375298294
  0
VERTEX
  8
Default
 10
752.822754622014
 20
1368.58194102533
 42
0.0676674385478
  0
VERTEX
  8
Default
 10
735.848517224562
 20
1378.94320156691
 42
-0.0938024658157
  0
VERTEX
  8
Default
 10
731.278629279947
 20
1382.40375262427
 42
-0.2839656240008
  0
VERTEX
  8
Default
 10
730.669453613222
 20
1386.13137757789
 42
-0.3504732170879
  0
VERTEX
  8
Default
 10
741.549056075597
 20
1391.95385333897
 42
-0.1018190975583
  0
VERTEX
  8
Default
 10
754.633910133728
 20
1387.1368938908
 42
0.7360706072487
  0
VERTEX
  8
Default
 10
757.948062644011
 20
1392.49694559257
 42
-0.0789042757364
  0
VERTEX
  8
Default
 10
724.440524999498
 20
1435.35473509869
 42
-0.1057927360017
  0
VERTEX
  8
Default
 10
715.896142376617
 20
1460.89243192892
 42
-0.1010631448865
  0
VERTEX
  8
Default
 10
715.953639223978
 20
1490.8521514877
 42
-0.2326411798083
  0
SEQEND
  0
POLYLINE
  8
Default
 66
     1
 10
0.0
 20
0.0
 30
0.0
 70
     1
  0
VERTEX
  8
Default
 10
841.448757291114
 20
1334.17053682396
 42
0.3405111978946
  0
VERTEX
  8
Default
 10
842.144040996733
 20
1334.01950706912
 42
0.0982050015739
  0
VERTEX
  8
Default
 10
851.299457953641
 20
1337.84362392079
 42
0.0
  0
VERTEX
  8
Default
 10
853.388107063117
 20
1336.6252452736
 42
0.2497124061546
  0
VERTEX
  8
Default
 10
836.81837729409
 20
1308.09512860245
 42
-0.0333639195051
  0
VERTEX
  8
Default
 10
836.150753631304
 20
1293.51690343745
 42
-0.1270632833957
  0
VERTEX
  8
Default
 10
834.595998540641
 20
1288.2977649128
 42
-0.2555657749647
  0
VERTEX
  8
Default
 10
833.017027306464
 20
1287.41993056714
 42
-0.151747992996
  0
VERTEX
  8
Default
 10
824.583800715399
 20
1288.03428597159
 42
-0.2334159215307
  0
VERTEX
  8
Default
 10
823.515991600281
 20
1290.01688117592
 42
-0.0910366690413
  0
VERTEX
  8
Default
 10
833.555721271268
 20
1358.7413222593
 42
-0.0889781347815
  0
VERTEX
  8
Default
 10
853.650818391369
 20
1390.45658659079
 42
-0.1309792357879
  0
VERTEX
  8
Default
 10
879.267090218989
 20
1407.3357518983
 42
-0.1902317684741
  0
VERTEX
  8
Default
 10
919.108781548148
 20
1400.35097460993
 42
-0.2337859569651
  0
VERTEX
  8
Default
 10
932.486382685884
 20
1381.83641757492
 42
0.0
  0
VERTEX
  8
Default
 10
922.982942671013
 20
1381.14724679422
 42
0.294822707912
  0
VERTEX
  8
Default
 10
888.770530233858
 20
1394.24149162755
 42
0.2191188086115
  0
VERTEX
  8
Default
 10
846.169049138262
 20
1362.50971998348
 42
0.096749939292
  0
VERTEX
  8
Default
 10
840.841172641066
 20
1338.40885271834
 42
0.2039100350774
  0
SEQEND
  0
POLYLINE
  8
Default
 66
     1
 10
0.0
 20
0.0
 30
0.0
 70
     1
  0
VERTEX
  8
Default
 10
827.041498017283
 20
53.0090279050867
 42
0.1922018332208
  0
VERTEX
  8
Default
 10
840.060971623924
 20
56.1789463302777
 42
-0.0287783315509
  0
VERTEX
  8
Default
 10
865.914025749843
 20
72.8173352111946
 42
-0.1304664498517
  0
VERTEX
  8
Default
 10
874.762597334491
 20
76.2386204531082
 42
-0.9138964148732
  0
VERTEX
  8
Default
 10
877.558061576641
 20
67.5357600766039
 42
-0.0576655040806
  0
VERTEX
  8
Default
 10
831.735539858088
 20
39.8461069144245
 42
0.1458032260974
  0
VERTEX
  8
Default
 10
865.202547988308
 20
35.8705649791656
 42
0.1301709340128
  0
VERTEX
  8
Default
 10
885.549533256098
 20
45.4917432826299
 42
0.1826307680461
  0
VERTEX
  8
Default
 10
914.687206322233
 20
102.285371611533
 42
0.0544646777698
  0
VERTEX
  8
Default
 10
915.958935090237
 20
144.131927976351
 42
-0.0502548392856
  0
VERTEX
  8
Default
 10
872.055213805196
 20
114.89282130303
 42
0.0767895039113
  0
VERTEX
  8
Default
 10
859.955859291727
 20
106.379469709147
 42
0.0720912656842
  0
VERTEX
  8
Default
 10
835.286191211926
 20
76.9680304430561
 42
0.0728203489886
  0
VERTEX
  8
Default
 10
827.100085047747
 20
57.1735676369095
 42
0.2347921004143
  0
SEQEND
  0
POLYLINE
  8
Default
 66
     1
 10
0.0
 20
0.0
 30
0.0
 70
     1
  0
VERTEX
  8
Default
 10
585.940553504785
 20
624.066891551266
 42
-0.2294561911293
  0
VERTEX
  8
Default
 10
587.229564978467
 20
616.557367355117
 42
0.3995532249485
  0
VERTEX
  8
Default
 10
570.265683914679
 20
585.478868145461
 42
0.2412892840635
  0
VERTEX
  8
Default
 10
585.860816812858
 20
566.620351608586
 42
-0.218630701179
  0
VERTEX
  8
Default
 10
586.015008050021
 20
557.81781620684
 42
-0.4185095734305
  0
VERTEX
  8
Default
 10
562.788545356462
 20
600.927332253398
 42
-0.2840660134258
  0
VERTEX
  8
Default
 10
585.625594405109
 20
624.025588606973
 42
-0.0647663599579
  0
SEQEND
  0
POLYLINE
  8
Default
 66
     1
 10
0.0
 20
0.0
 30
0.0
 70
     1
  0
VERTEX
  8
Default
 10
818.879274264716
 20
1025.78013727122
 42
-0.0241686068739
  0
VERTEX
  8
Default
 10
820.363014175893
 20
1024.68995059461
 42
0.0
  0
VERTEX
  8
Default
 10
811.809909883954
 20
1017.10910288176
 42
0.3740146556482
  0
VERTEX
  8
Default
 10
764.259764860144
 20
1000.41707926127
 42
0.1190313876827
  0
VERTEX
  8
Default
 10
762.434464616228
 20
989.585280278925
 42
0.0651429411645
  0
VERTEX
  8
Default
 10
765.876582181871
 20
971.968392303208
 42
0.0
  0
VERTEX
  8
Default
 10
757.006678816338
 20
960.252473593849
 42
-0.3303036184515
  0
VERTEX
  8
Default
 10
760.747198889401
 20
1017.53475476069
 42
-0.2107272825641
  0
VERTEX
  8
Default
 10
790.716300370109
 20
1031.62634497979
 42
-0.15948013823
  0
SEQEND
  0
POLYLINE
  8
Default
 66
     1
 10
0.0
 20
0.0
 30
0.0
 70
     1
  0
VERTEX
  8
Default
 10
662.261426387803
 20
1752.64764909094
 42
-0.2783954596446
  0
VERTEX
  8
Default
 10
674.744093293408
 20
1729.77799349534
 42
0.0025599769821
  0
VERTEX
  8
Default
 10
675.462680439098
 20
1707.88036946363
 42
0.0567643955899
  0
VERTEX
  8
Default
 10
676.284409258198
 20
1702.16056551562
 42
0.398916625215
  0
VERTEX
  8
Default
 10
679.635357584288
 20
1699.28462771719
 42
0.3279794156479
  0
VERTEX
  8
Default
 10
688.607043284692
 20
1705.88654849142
 42
0.0605858908639
  0
VERTEX
  8
Default
 10
691.27750453282
 20
1716.58431674413
 42
0.0353683063027
  0
VERTEX
  8
Default
 10
693.227131832582
 20
1755.25607272638
 42
0.0973408607317
  0
VERTEX
  8
Default
 10
681.711483303327
 20
1800.85343180568
 42
0.3549549719862
  0
VERTEX
  8
Default
 10
620.554017518322
 20
1831.24418187795
 42
0.0858718063036
  0
VERTEX
  8
Default
 10
595.760089373318
 20
1820.97147369947
 42
0.0971989031136
  0
VERTEX
  8
Default
 10
590.841106380928
 20
1816.90180055353
 42
0.4773297200993
  0
VERTEX
  8
Default
 10
591.231740922844
 20
1813.14588345994
 42
0.065296827967
  0
VERTEX
  8
Default
 10
600.530098637406
 20
1805.01868890832
 42
0.3021154215982
  0
VERTEX
  8
Default
 10
602.661586484629
 20
1805.32697323531
 42
-0.0915742207297
  0
VERTEX
  8
Default
 10
621.483415076953
 20
1815.42604722662
 42
-0.2620345272796
  0
VERTEX
  8
Default
 10
660.243707396111
 20
1807.06272949158
 42
-0.1878581650881
  0
VERTEX
  8
Default
 10
681.158822897809
 20
1760.03432810171
 42
-0.0966993716312
  0
VERTEX
  8
Default
 10
680.078521982795
 20
1750.61390554317
 42
-0.7102000287726
  0
VERTEX
  8
Default
 10
676.668887862567
 20
1749.99353306421
 42
0.350096944078
  0
SEQEND
  0
POLYLINE
  8
Default
 66
     1
 10
0.0
 20
0.0
 30
0.0
 70
     1
  0
VERTEX
  8
Default
 10
811.47587058777
 20
715.752481096372
 42
0.1159119911203
  0
VERTEX
  8
Default
 10
820.662509163746
 20
673.3684845155
 42
-0.1426114175415
  0
VERTEX
  8
Default
 10
826.979883163216
 20
627.766510017625
 42
-0.0707352535374
  0
VERTEX
  8
Default
 10
824.268744213752
 20
618.137462529492
 42
-0.9074427845058
  0
VERTEX
  8
Default
 10
820.936295483782
 20
617.596759972068
 42
-0.0608568726229
  0
VERTEX
  8
Default
 10
813.393050183787
 20
647.458012712202
 42
0.0193200157235
  0
VERTEX
  8
Default
 10
811.622339893685
 20
657.27338387833
 42
0.6819104044738
  0
VERTEX
  8
Default
 10
806.193391196989
 20
656.282699809589
 42
0.0733475398611
  0
VERTEX
  8
Default
 10
809.757413216778
 20
625.034365550571
 42
-0.0916825654553
  0
VERTEX
  8
Default
 10
814.353452832324
 20
611.546581742881
 42
-0.3380312343676
  0
VERTEX
  8
Default
 10
811.79300553423
 20
608.241792994656
 42
-0.2043528975606
  0
VERTEX
  8
Default
 10
793.243148408727
 20
658.286673996129
 42
-0.0302925438985
  0
VERTEX
  8
Default
 10
794.053196437864
 20
669.922630611993
 42
0.0011644108368
  0
VERTEX
  8
Default
 10
800.043141921187
 20
716.386333092964
 42
-0.2645810645498
  0
VERTEX
  8
Default
 10
804.441745783343
 20
723.978867982651
 42
-0.4417981828774
  0
VERTEX
  8
Default
 10
811.476204095336
 20
715.752481096371
 42
0.0
  0
SEQEND
  0
POLYLINE
  8
Default
 66
     1
 10
0.0
 20
0.0
 30
0.0
 70
     1
  0
VERTEX
  8
Default
 10
813.434677591571
 20
1094.11016079029
 42
0.2649146054201
  0
VERTEX
  8
Default
 10
814.277578568144
 20
1095.09108010654
 42
0.0613376862997
  0
VERTEX
  8
Default
 10
837.393292881787
 20
1169.61930225444
 42
0.0285825603068
  0
VERTEX
  8
Default
 10
837.817509928194
 20
1175.12770192888
 42
0.0119658957401
  0
VERTEX
  8
Default
 10
838.833961954837
 20
1248.88176657301
 42
0.0271059060512
  0
VERTEX
  8
Default
 10
838.130033422195
 20
1262.91687959046
 42
0.64916387842
  0
VERTEX
  8
Default
 10
829.102509354072
 20
1268.93031410502
 42
0.2253548051407
  0
VERTEX
  8
Default
 10
828.422545396298
 20
1265.12320107895
 42
-0.0546714067685
  0
VERTEX
  8
Default
 10
831.822455545115
 20
1183.89046777782
 42
-0.0471335542214
  0
VERTEX
  8
Default
 10
827.948471563257
 20
1156.13287240092
 42
-0.0038370249662
  0
VERTEX
  8
Default
 10
813.376544398931
 20
1100.6545280705
 42
0.095142135588
  0
VERTEX
  8
Default
 10
812.243948779534
 20
1095.81709776472
 42
0.6869532737266
  0
SEQEND
  0
POLYLINE
  8
Default
 66
     1
 10
0.0
 20
0.0
 30
0.0
 70
     1
  0
VERTEX
  8
Default
 10
880.916091351406
 20
1808.34219817894
 42
0.0884931768314
  0
VERTEX
  8
Default
 10
881.414341522259
 20
1802.00710418295
 42
0.59863708906
  0
VERTEX
  8
Default
 10
884.203569922063
 20
1800.56497686364
 42
0.0231307564764
  0
VERTEX
  8
Default
 10
893.85470833013
 20
1810.04771133511
 42
0.1684781503732
  0
VERTEX
  8
Default
 10
901.633562996458
 20
1822.90128539027
 42
0.2726131104046
  0
VERTEX
  8
Default
 10
891.453319497718
 20
1864.89147175406
 42
0.2719882171975
  0
VERTEX
  8
Default
 10
888.810492009246
 20
1862.01671027363
 42
-0.1259124329885
  0
VERTEX
  8
Default
 10
879.84703445184
 20
1836.17261405601
 42
0.2204656289337
  0
VERTEX
  8
Default
 10
872.239691774092
 20
1814.33243312812
 42
0.4222478161239
  0
VERTEX
  8
Default
 10
874.467350961459
 20
1812.33183270337
 42
0.1425636834164
  0
VERTEX
  8
Default
 10
878.607897618576
 20
1814.08015413684
 42
0.2280256737779
  0
VERTEX
  8
Default
 10
889.607331269677
 20
1833.36634425343
 42
-0.4142135623741
  0
VERTEX
  8
Default
 10
891.310372534373
 20
1833.85760615671
 42
-0.2573040367911
  0
VERTEX
  8
Default
 10
888.489876925981
 20
1819.16045070813
 42
0.0727349851711
  0
SEQEND
  0
POLYLINE
  8
Default
 66
     1
 10
0.0
 20
0.0
 30
0.0
 70
     1
  0
VERTEX
  8
Default
 10
797.140543395
 20
1009.27176269997
 42
0.0033956372834
  0
VERTEX
  8
Default
 10
798.188318442561
 20
1009.18364533595
 42
0.0
  0
VERTEX
  8
Default
 10
769.994733608393
 20
981.616814107892
 42
-0.268466733281
  0
VERTEX
  8
Default
 10
782.064793169869
 20
1007.93190719903
 42
-0.1443396052054
  0
SEQEND
  0
POLYLINE
  8
Default
 66
     1
 10
0.0
 20
0.0
 30
0.0
 70
     1
  0
VERTEX
  8
Default
 10
884.59975868129
 20
1153.1631511109
 42
-0.3907762850935
  0
VERTEX
  8
Default
 10
889.717045154714
 20
1152.39730911184
 42
-0.3213961571751
  0
VERTEX
  8
Default
 10
890.004150782497
 20
1144.05846129367
 42
-0.5166124775009
  0
VERTEX
  8
Default
 10
883.787315359645
 20
1143.68406765252
 42
-0.425920726974
  0
SEQEND
  0
POLYLINE
  8
Default
 66
     1
 10
0.0
 20
0.0
 30
0.0
 70
     1
  0
VERTEX
  8
Default
 10
647.075688640896
 20
1380.07220237907
 42
-0.3433769519729
  0
VERTEX
  8
Default
 10
648.324562351646
 20
1377.71190231654
 42
-0.2589012588926
  0
VERTEX
  8
Default
 10
634.808951204739
 20
1354.25929215148
 42
0.1192080080002
  0
VERTEX
  8
Default
 10
618.339994618171
 20
1341.98716481329
 42
-0.1626730391581
  0
VERTEX
  8
Default
 10
615.662718317809
 20
1336.66370980931
 42
-0.5662573330132
  0
VERTEX
  8
Default
 10
613.162997420622
 20
1340.03635993488
 42
-0.085049628921
  0
VERTEX
  8
Default
 10
615.033450150083
 20
1369.71688425816
 42
-0.0124772539218
  0
VERTEX
  8
Default
 10
619.005384259305
 20
1377.12102619965
 42
-0.2947048541276
  0
VERTEX
  8
Default
 10
638.440498535171
 20
1384.33170635125
 42
0.1174235888504
  0
VERTEX
  8
Default
 10
624.822462925595
 20
1370.28090634978
 42
0.418371228285
  0
VERTEX
  8
Default
 10
630.232765651698
 20
1364.42640577453
 42
0.2036963026792
  0
VERTEX
  8
Default
 10
632.456903353425
 20
1366.02503724491
 42
-0.0531652134972
  0
VERTEX
  8
Default
 10
640.365590751747
 20
1377.76563037391
 42
-0.1725264723939
  0
SEQEND
  0
POLYLINE
  8
Default
 66
     1
 10
0.0
 20
0.0
 30
0.0
 70
     1
  0
VERTEX
  8
Default
 10
823.577747122921
 20
1871.08879278984
 42
-0.4031818877953
  0
VERTEX
  8
Default
 10
821.694370316982
 20
1872.93179274321
 42
-0.0583714866889
  0
VERTEX
  8
Default
 10
823.557503851736
 20
1906.88211995081
 42
0.1098359442029
  0
VERTEX
  8
Default
 10
821.36815364784
 20
1920.26503944843
 42
0.2982986823003
  0
VERTEX
  8
Default
 10
812.641343829702
 20
1926.81493531804
 42
0.2900257378651
  0
VERTEX
  8
Default
 10
808.06576699114
 20
1923.14996394161
 42
0.1154794171043
  0
VERTEX
  8
Default
 10
807.212415988817
 20
1899.42013669103
 42
-0.1295445144066
  0
VERTEX
  8
Default
 10
802.114331504863
 20
1850.98992815905
 42
-0.0519620576534
  0
VERTEX
  8
Default
 10
770.098952676971
 20
1798.91950312756
 42
-0.0180093545128
  0
VERTEX
  8
Default
 10
722.645678577481
 20
1732.87798713377
 42
0.3833266602757
  0
VERTEX
  8
Default
 10
721.250492314192
 20
1721.84857967406
 42
0.3878564086434
  0
VERTEX
  8
Default
 10
723.966668014623
 20
1721.41553116723
 42
0.086050363027
  0
VERTEX
  8
Default
 10
728.120149668961
 20
1725.01829647293
 42
0.0194673962451
  0
VERTEX
  8
Default
 10
738.208966629864
 20
1737.75631634022
 42
-0.0950546096646
  0
VERTEX
  8
Default
 10
776.96894102882
 20
1770.60731747807
 42
-0.0583281689704
  0
VERTEX
  8
Default
 10
787.116852989825
 20
1775.00885389266
 42
0.0261850367878
  0
VERTEX
  8
Default
 10
799.340765916537
 20
1778.36441653894
 42
0.5526652594693
  0
VERTEX
  8
Default
 10
802.947287457013
 20
1785.43713414423
 42
0.3033767800765
  0
VERTEX
  8
Default
 10
793.334979788969
 20
1791.64300943032
 42
0.0940600817324
  0
VERTEX
  8
Default
 10
780.20277150007
 20
1789.79524179679
 42
-0.9438650555619
  0
VERTEX
  8
Default
 10
780.20277150007
 20
1797.11316171141
 42
0.0758651906117
  0
VERTEX
  8
Default
 10
820.347487834272
 20
1830.72212023835
 42
0.0652831499625
  0
VERTEX
  8
Default
 10
828.810619522781
 20
1842.40464818781
 42
0.0761589777598
  0
VERTEX
  8
Default
 10
844.954959516321
 20
1881.06708595632
 42
0.2169109633634
  0
VERTEX
  8
Default
 10
844.290527968045
 20
1887.11341565725
 42
0.4514314089103
  0
VERTEX
  8
Default
 10
839.606160779766
 20
1887.16848083284
 42
0.0620798427647
  0
VERTEX
  8
Default
 10
837.012481062877
 20
1884.928331905
 42
-0.0128586653804
  0
VERTEX
  8
Default
 10
824.666536748878
 20
1871.60158273563
 42
-0.1787396705006
  0
SEQEND
  0
POLYLINE
  8
Default
 66
     1
 10
0.0
 20
0.0
 30
0.0
 70
     1
  0
VERTEX
  8
Default
 10
850.222043817841
 20
1607.54658040254
 42
0.1471231901337
  0
VERTEX
  8
Default
 10
857.985480441704
 20
1606.24666343698
 42
-0.4239412671207
  0
VERTEX
  8
Default
 10
890.877538146986
 20
1628.7564312762
 42
-0.2548867793211
  0
VERTEX
  8
Default
 10
910.6643960394
 20
1608.05618281383
 42
0.1696708832816
  0
VERTEX
  8
Default
 10
919.484322489729
 20
1607.44589712045
 42
0.4861488626707
  0
VERTEX
  8
Default
 10
919.213514797659
 20
1610.4849285321
 42
0.0861884987056
  0
VERTEX
  8
Default
 10
909.18384105131
 20
1629.09653632305
 42
0.499624722084
  0
VERTEX
  8
Default
 10
857.60066774758
 20
1625.47260611671
 42
0.1266576719905
  0
VERTEX
  8
Default
 10
850.070082030651
 20
1608.06301466019
 42
0.1158566007286
  0
SEQEND
  0
POLYLINE
  8
Default
 66
     1
 10
0.0
 20
0.0
 30
0.0
 70
     1
  0
VERTEX
  8
Default
 10
871.999184243265
 20
1145.08401456196
 42
-0.2646773756195
  0
VERTEX
  8
Default
 10
873.581375360537
 20
1144.05488855872
 42
-0.3358712848273
  0
VERTEX
  8
Default
 10
867.557164038452
 20
1120.15814346196
 42
0.0659501148395
  0
VERTEX
  8
Default
 10
852.587742779968
 20
1103.36996946156
 42
-0.0695409358805
  0
VERTEX
  8
Default
 10
848.351188887439
 20
1094.66536721889
 42
-0.5237509260943
  0
VERTEX
  8
Default
 10
846.487902822556
 20
1095.10508701032
 42
-0.1716272343116
  0
VERTEX
  8
Default
 10
847.933346840181
 20
1134.52296737437
 42
-0.1909233771065
  0
VERTEX
  8
Default
 10
861.404085611404
 20
1148.52047692807
 42
-0.2526058125795
  0
VERTEX
  8
Default
 10
867.745339200192
 20
1147.00685457957
 42
0.1344857377702
  0
VERTEX
  8
Default
 10
857.296567838432
 20
1131.84673901641
 42
0.4151274858521
  0
VERTEX
  8
Default
 10
858.790947503955
 20
1129.71410485836
 42
0.2435347861684
  0
VERTEX
  8
Default
 10
868.055647651071
 20
1132.05238464657
 42
0.2145815587902
  0
VERTEX
  8
Default
 10
869.646013011357
 20
1135.29093587022
 42
-0.0748253953114
  0
VERTEX
  8
Default
 10
870.653221053604
 20
1143.05929652737
 42
-0.4857907530471
  0
SEQEND
  0
POLYLINE
  8
Default
 66
     1
 10
0.0
 20
0.0
 30
0.0
 70
     1
  0
VERTEX
  8
Default
 10
579.492740532983
 20
1400.90900880142
 42
0.3627198987934
  0
VERTEX
  8
Default
 10
581.012691900956
 20
1400.18037317758
 42
-0.2491299248222
  0
VERTEX
  8
Default
 10
610.857890100937
 20
1396.40592532436
 42
0.3665049130812
  0
VERTEX
  8
Default
 10
626.824694993822
 20
1394.74555375732
 42
0.086870909332
  0
VERTEX
  8
Default
 10
635.536298092234
 20
1404.24911164005
 42
-0.0609723872469
  0
VERTEX
  8
Default
 10
611.925398148766
 20
1409.20385376323
 42
-0.2720913051801
  0
VERTEX
  8
Default
 10
609.138152201138
 20
1414.5552855309
 42
-0.3732683614407
  0
VERTEX
  8
Default
 10
612.165708129632
 20
1417.05919974427
 42
-0.077199540444
  0
VERTEX
  8
Default
 10
635.68419568865
 20
1410.12028929736
 42
0.4629771180761
  0
VERTEX
  8
Default
 10
599.139577418792
 20
1425.50656261836
 42
0.1674573072606
  0
VERTEX
  8
Default
 10
579.886311431664
 20
1405.09561895956
 42
0.1981078476288
  0
SEQEND
  0
POLYLINE
  8
Default
 66
     1
 10
0.0
 20
0.0
 30
0.0
 70
     1
  0
VERTEX
  8
Default
 10
884.531512504962
 20
1758.70463883287
 42
0.2787022939664
  0
VERTEX
  8
Default
 10
877.695774092998
 20
1765.87894411874
 42
0.5014130388392
  0
VERTEX
  8
Default
 10
874.882301386611
 20
1764.47346562676
 42
0.0619115960834
  0
VERTEX
  8
Default
 10
874.58754722227
 20
1757.56430115834
 42
0.2165087540088
  0
VERTEX
  8
Default
 10
882.293264438991
 20
1739.61815940485
 42
-0.0929101266909
  0
VERTEX
  8
Default
 10
896.186324271979
 20
1724.93336359013
 42
0.1554860332111
  0
VERTEX
  8
Default
 10
897.98628965879
 20
1718.74489977067
 42
0.4661410442467
  0
VERTEX
  8
Default
 10
900.981390286756
 20
1721.78961643221
 42
0.0727859012351
  0
VERTEX
  8
Default
 10
905.3143591231
 20
1750.16773669562
 42
0.0638235691706
  0
VERTEX
  8
Default
 10
901.16517119421
 20
1762.43140822505
 42
0.2125630590053
  0
VERTEX
  8
Default
 10
885.639123622219
 20
1768.87465031506
 42
-0.1372903388508
  0
VERTEX
  8
Default
 10
895.926275110075
 20
1752.76364870605
 42
-0.372264782757
  0
VERTEX
  8
Default
 10
890.946608953907
 20
1748.05382122016
 42
-0.3453670983128
  0
VERTEX
  8
Default
 10
887.753412577439
 20
1749.90126468154
 42
0.0523475686464
  0
SEQEND
  0
POLYLINE
  8
Default
 66
     1
 10
0.0
 20
0.0
 30
0.0
 70
     1
  0
VERTEX
  8
Default
 10
731.40134703323
 20
1841.50001146076
 42
0.0923581248984
  0
VERTEX
  8
Default
 10
730.771351530648
 20
1839.018677607
 42
-0.1545875800746
  0
VERTEX
  8
Default
 10
722.761930415383
 20
1807.94588630216
 42
0.0825974060651
  0
VERTEX
  8
Default
 10
707.346234753939
 20
1774.63238182602
 42
0.1009243743377
  0
VERTEX
  8
Default
 10
708.407256000707
 20
1754.43581632162
 42
0.0983003147852
  0
VERTEX
  8
Default
 10
709.71084844482
 20
1750.48283648698
 42
0.4567971428358
  0
VERTEX
  8
Default
 10
710.826712603592
 20
1750.09403612111
 42
0.1309541050059
  0
VERTEX
  8
Default
 10
712.595087273969
 20
1753.42452712437
 42
0.0020217344111
  0
VERTEX
  8
Default
 10
716.612612285743
 20
1767.20167415417
 42
-0.109279519738
  0
VERTEX
  8
Default
 10
728.123894159166
 20
1788.6127869642
 42
-0.8675202408418
  0
VERTEX
  8
Default
 10
732.918755800218
 20
1787.65381463599
 42
-0.1546086953162
  0
VERTEX
  8
Default
 10
718.614489840152
 20
1751.62613289058
 42
0.1078131100286
  0
VERTEX
  8
Default
 10
714.326827332238
 20
1745.23984981493
 42
0.6555264049419
  0
VERTEX
  8
Default
 10
715.73593284399
 20
1742.65147144589
 42
0.1898598491942
  0
VERTEX
  8
Default
 10
720.637751984462
 20
1745.20956304149
 42
0.1096607501689
  0
VERTEX
  8
Default
 10
743.137377349433
 20
1776.45464403781
 42
0.1175606877917
  0
VERTEX
  8
Default
 10
745.570974481163
 20
1795.89735059803
 42
0.0265662887336
  0
VERTEX
  8
Default
 10
741.848940396252
 20
1821.03476565093
 42
0.1123318596681
  0
VERTEX
  8
Default
 10
736.05694027914
 20
1834.4190787924
 42
-0.0184301543504
  0
VERTEX
  8
Default
 10
731.878659062958
 20
1841.18463292988
 42
0.6545466614341
  0
SEQEND
  0
POLYLINE
  8
Default
 66
     1
 10
0.0
 20
0.0
 30
0.0
 70
     1
  0
VERTEX
  8
Default
 10
749.017478181373
 20
869.997177218339
 42
-0.1009823101546
  0
VERTEX
  8
Default
 10
778.694525858497
 20
885.362765661091
 42
-0.0311814670363
  0
VERTEX
  8
Default
 10
785.137692531542
 20
886.29217973194
 42
0.4966803126577
  0
VERTEX
  8
Default
 10
785.226587360904
 20
891.244374951868
 42
0.0669664289079
  0
VERTEX
  8
Default
 10
760.632120997948
 20
892.96664447068
 42
0.0996325837177
  0
VERTEX
  8
Default
 10
749.087177402187
 20
889.612431264829
 42
-0.6193957177721
  0
VERTEX
  8
Default
 10
744.960076471394
 20
890.387663361611
 42
-0.1140359306048
  0
VERTEX
  8
Default
 10
745.389408536621
 20
896.412751383029
 42
-0.0454115855568
  0
VERTEX
  8
Default
 10
751.877874873655
 20
914.023902741453
 42
-0.0579304721026
  0
VERTEX
  8
Default
 10
785.497303078673
 20
970.215228188634
 42
-0.0473297298821
  0
VERTEX
  8
Default
 10
800.043873528541
 20
985.933414432023
 42
-0.0355162034241
  0
VERTEX
  8
Default
 10
854.892159458189
 20
1029.51416149695
 42
0.5595691431707
  0
VERTEX
  8
Default
 10
852.411037814815
 20
1034.45786959625
 42
0.0978429402084
  0
VERTEX
  8
Default
 10
848.556532781608
 20
1032.96001540045
 42
0.0516892325189
  0
VERTEX
  8
Default
 10
788.85972300715
 20
987.807114501915
 42
0.074323552132
  0
VERTEX
  8
Default
 10
761.999797706549
 20
955.492482211127
 42
0.0589589105021
  0
VERTEX
  8
Default
 10
734.321290588994
 20
896.442871771932
 42
0.0509965749863
  0
VERTEX
  8
Default
 10
732.641850158513
 20
888.351226724767
 42
0.1832007910724
  0
VERTEX
  8
Default
 10
734.739563521382
 20
882.128951597013
 42
-0.0427149720575
  0
VERTEX
  8
Default
 10
744.982691478467
 20
870.188829757218
 42
0.5157888963322
  0
VERTEX
  8
Default
 10
746.370681006533
 20
868.502955840466
 42
0.0305519639907
  0
SEQEND
  0
POLYLINE
  8
Default
 66
     1
 10
0.0
 20
0.0
 30
0.0
 70
     1
  0
VERTEX
  8
Default
 10
804.043505509116
 20
1381.79380422037
 42
0.1069540382752
  0
VERTEX
  8
Default
 10
803.873104384062
 20
1381.83641757492
 42
0.4361929784511
  0
VERTEX
  8
Default
 10
798.171011991487
 20
1370.12050143838
 42
0.0421379984005
  0
VERTEX
  8
Default
 10
802.86053391021
 20
1344.65169405274
 42
0.0827245775215
  0
VERTEX
  8
Default
 10
804.506638668097
 20
1341.17531321158
 42
-1.5797402233292
  0
VERTEX
  8
Default
 10
799.582663148392
 20
1338.8054583612
 42
-0.2559413295593
  0
VERTEX
  8
Default
 10
795.934385951144
 20
1414.13177714151
 42
-0.1797841717607
  0
VERTEX
  8
Default
 10
811.134577278383
 20
1431.12175562908
 42
-0.0310495233603
  0
VERTEX
  8
Default
 10
812.109404871807
 20
1431.45674466029
 42
0.0970190258544
  0
VERTEX
  8
Default
 10
816.544357737222
 20
1390.10648238078
 42
-0.085415158644
  0
VERTEX
  8
Default
 10
822.045283551552
 20
1358.79378349763
 42
-0.2617610040254
  0
VERTEX
  8
Default
 10
816.739441978483
 20
1344.26605433518
 42
-0.5405950379787
  0
VERTEX
  8
Default
 10
811.988288305752
 20
1344.40421114672
 42
-0.0948410088186
  0
VERTEX
  8
Default
 10
810.204222707704
 20
1348.90113696374
 42
0.0076707885369
  0
VERTEX
  8
Default
 10
805.489717340081
 20
1378.1640099469
 42
0.2338454342155
  0
SEQEND
  0
POLYLINE
  8
Default
 66
     1
 10
0.0
 20
0.0
 30
0.0
 70
     1
  0
VERTEX
  8
Default
 10
702.848427611746
 20
791.709620437053
 42
-0.0683891785388
  0
VERTEX
  8
Default
 10
702.145426934611
 20
795.129682859146
 42
-0.0275083395637
  0
VERTEX
  8
Default
 10
703.136609477515
 20
823.938577767521
 42
-0.2967349344659
  0
VERTEX
  8
Default
 10
714.540725668848
 20
804.641808772411
 42
-0.3512533765889
  0
VERTEX
  8
Default
 10
703.136609477515
 20
791.547535637123
 42
-0.107827250544
  0
SEQEND
  0
POLYLINE
  8
Default
 66
     1
 10
0.0
 20
0.0
 30
0.0
 70
     1
  0
VERTEX
  8
Default
 10
916.163115323542
 20
1788.94647240377
 42
0.2495079081864
  0
VERTEX
  8
Default
 10
920.054920864906
 20
1793.58792467281
 42
0.4226441550825
  0
VERTEX
  8
Default
 10
917.646442470098
 20
1796.70152144224
 42
0.0571589708059
  0
VERTEX
  8
Default
 10
893.567542224484
 20
1793.59754089911
 42
-0.593464137054
  0
VERTEX
  8
Default
 10
941.003863404444
 20
1793.00701695065
 42
-0.2003848329785
  0
VERTEX
  8
Default
 10
946.108807743195
 20
1776.31129155223
 42
-0.4545023978726
  0
VERTEX
  8
Default
 10
944.126047473554
 20
1775.4146271507
 42
0.2459022532608
  0
VERTEX
  8
Default
 10
914.440140404573
 20
1776.19783424251
 42
-0.4012735501956
  0
VERTEX
  8
Default
 10
898.263118354849
 20
1777.95218571647
 42
-0.0756319934593
  0
VERTEX
  8
Default
 10
892.510396564227
 20
1787.84804109439
 42
0.0700136667159
  0
SEQEND
  0
POLYLINE
  8
Default
 66
     1
 10
0.0
 20
0.0
 30
0.0
 70
     1
  0
VERTEX
  8
Default
 10
718.614489840152
 20
1939.06013321458
 42
0.100261057165
  0
VERTEX
  8
Default
 10
698.515292907322
 20
1908.41166836521
 42
0.1582150062365
  0
VERTEX
  8
Default
 10
701.784036830761
 20
1861.21807007553
 42
0.0680199478886
  0
VERTEX
  8
Default
 10
714.066653637977
 20
1844.35650404458
 42
-0.4687254774734
  0
VERTEX
  8
Default
 10
714.697830362126
 20
1833.52380730447
 42
-0.2746278565512
  0
VERTEX
  8
Default
 10
708.769509428395
 20
1833.0169319186
 42
-0.1391791073576
  0
VERTEX
  8
Default
 10
700.866098491662
 20
1839.05145012447
 42
-0.1686944106994
  0
VERTEX
  8
Default
 10
686.900685339486
 20
1886.7396085764
 42
-0.1999855393605
  0
VERTEX
  8
Default
 10
707.66604584446
 20
1943.08523280498
 42
-0.4092198920012
  0
VERTEX
  8
Default
 10
718.020355740164
 20
1946.26341821256
 42
-0.4528587211946
  0
VERTEX
  8
Default
 10
718.614222561038
 20
1939.06013321458
 42
0.0
  0
SEQEND
  0
POLYLINE
  8
Default
 66
     1
 10
0.0
 20
0.0
 30
0.0
 70
     1
  0
VERTEX
  8
Default
 10
939.72853941478
 20
1335.195577039
 42
-0.0438458252549
  0
VERTEX
  8
Default
 10
938.265108494279
 20
1322.90215413421
 42
-0.6084384717923
  0
VERTEX
  8
Default
 10
874.222042653873
 20
1316.08805260104
 42
-0.2051817729919
  0
VERTEX
  8
Default
 10
868.525418748076
 20
1333.64942062197
 42
-0.2820293496756
  0
VERTEX
  8
Default
 10
887.753527300947
 20
1364.57780657498
 42
-0.4342630254978
  0
VERTEX
  8
Default
 10
902.125458442046
 20
1362.17508217677
 42
-0.0913129983991
  0
VERTEX
  8
Default
 10
904.609596925309
 20
1355.64786873144
 42
0.1012243395307
  0
VERTEX
  8
Default
 10
891.759892059598
 20
1349.3205841531
 42
0.3246345950469
  0
VERTEX
  8
Default
 10
885.312784639225
 20
1329.47767912005
 42
0.3499218227605
  0
VERTEX
  8
Default
 10
903.733748860688
 20
1313.66422353052
 42
0.199918579592
  0
VERTEX
  8
Default
 10
925.769555586629
 20
1325.30050219387
 42
0.1371322765794
  0
VERTEX
  8
Default
 10
926.956950204098
 20
1328.39432636291
 42
0.0300039901116
  0
VERTEX
  8
Default
 10
927.417895536432
 20
1366.67465268078
 42
0.0
  0
VERTEX
  8
Default
 10
938.617782101599
 20
1365.94367732956
 42
-0.0552012589347
  0
SEQEND
  0
POLYLINE
  8
Default
 66
     1
 10
0.0
 20
0.0
 30
0.0
 70
     1
  0
VERTEX
  8
Default
 10
792.759842269919
 20
557.377247344962
 42
0.0168596642846
  0
VERTEX
  8
Default
 10
792.971960209185
 20
556.24140478706
 42
-0.022830660524
  0
VERTEX
  8
Default
 10
820.370416415846
 20
425.111208536894
 42
-0.0190933337592
  0
VERTEX
  8
Default
 10
828.782179107032
 20
327.711080518129
 42
0.0014175123037
  0
VERTEX
  8
Default
 10
829.493505295244
 20
250.533792752317
 42
0.0226838651945
  0
VERTEX
  8
Default
 10
829.943551668652
 20
241.108137035902
 42
0.5495174470503
  0
VERTEX
  8
Default
 10
831.794897113241
 20
239.926086174582
 42
0.0896716686045
  0
VERTEX
  8
Default
 10
834.481197879594
 20
249.371536122338
 42
0.0664879640469
  0
VERTEX
  8
Default
 10
833.636047107318
 20
404.252234964242
 42
0.0178381235203
  0
VERTEX
  8
Default
 10
807.095830570973
 20
550.06748868697
 42
0.1720250557034
  0
VERTEX
  8
Default
 10
800.665111909291
 20
559.455240557506
 42
0.3644872249704
  0
SEQEND
  0
POLYLINE
  8
Default
 66
     1
 10
0.0
 20
0.0
 30
0.0
 70
     1
  0
VERTEX
  8
Default
 10
770.989984511731
 20
1503.2108808519
 42
-0.4554127594014
  0
VERTEX
  8
Default
 10
771.964576672948
 20
1502.90954468765
 42
-0.0477110737016
  0
VERTEX
  8
Default
 10
778.576188871624
 20
1493.23124890672
 42
0.6102065475824
  0
VERTEX
  8
Default
 10
806.975835982552
 20
1500.97728178185
 42
0.2209300135314
  0
VERTEX
  8
Default
 10
802.708747038014
 20
1527.61649467974
 42
0.2933329367811
  0
VERTEX
  8
Default
 10
773.604773531719
 20
1535.82102234265
 42
0.1039737757276
  0
VERTEX
  8
Default
 10
769.889594037062
 20
1534.06544806857
 42
-0.4430504923354
  0
VERTEX
  8
Default
 10
757.974471858991
 20
1538.03991098362
 42
-0.08566878909
  0
VERTEX
  8
Default
 10
757.66695803168
 20
1539.8123003534
 42
-0.2612129247219
  0
VERTEX
  8
Default
 10
802.034583610616
 20
1555.05647284166
 42
-0.0658249725067
  0
VERTEX
  8
Default
 10
830.243339839771
 20
1547.56875833621
 42
-0.4829266281389
  0
VERTEX
  8
Default
 10
834.33600076848
 20
1542.88423116039
 42
-0.4336480282546
  0
VERTEX
  8
Default
 10
827.363353623174
 20
1538.26593740066
 42
-0.0304913643713
  0
VERTEX
  8
Default
 10
809.72692379678
 20
1544.36527297237
 42
0.0666454710837
  0
VERTEX
  8
Default
 10
804.241280906907
 20
1544.72301719587
 42
0.6223268630536
  0
VERTEX
  8
Default
 10
802.681163803231
 20
1542.2595865942
 42
0.0969146659285
  0
VERTEX
  8
Default
 10
812.749221349953
 20
1532.14067707111
 42
-0.1918196210674
  0
VERTEX
  8
Default
 10
821.177245279997
 20
1514.62109441161
 42
-0.2069220219022
  0
VERTEX
  8
Default
 10
812.312128283232
 20
1483.44038675055
 42
-0.2220926248221
  0
VERTEX
  8
Default
 10
789.0057370357
 20
1475.24855427783
 42
-0.2238263315221
  0
VERTEX
  8
Default
 10
776.185305169745
 20
1484.45716347434
 42
-0.1245332861029
  0
VERTEX
  8
Default
 10
770.797001395592
 20
1501.73825866434
 42
-0.6040970098541
  0
SEQEND
  0
POLYLINE
  8
Default
 66
     1
 10
0.0
 20
0.0
 30
0.0
 70
     1
  0
VERTEX
  8
Default
 10
812.4185065775
 20
962.206312524363
 42
0.2853803879176
  0
VERTEX
  8
Default
 10
821.240881698831
 20
983.599521657884
 42
0.0118973083591
  0
VERTEX
  8
Default
 10
820.996548459928
 20
985.751807917235
 42
0.0
  0
VERTEX
  8
Default
 10
796.921181280735
 20
959.563259073752
 42
0.2126951370447
  0
SEQEND
  0
POLYLINE
  8
Default
 66
     1
 10
0.0
 20
0.0
 30
0.0
 70
     1
  0
VERTEX
  8
Default
 10
779.552049009173
 20
942.555335224246
 42
-0.0569353447649
  0
VERTEX
  8
Default
 10
776.171322116668
 20
945.358074760129
 42
0.0
  0
VERTEX
  8
Default
 10
784.333065923616
 20
952.596942149565
 42
0.5398588932059
  0
VERTEX
  8
Default
 10
830.447757175691
 20
976.838276662522
 42
0.0607089304438
  0
VERTEX
  8
Default
 10
828.431560357875
 20
996.013667025692
 42
0.0
  0
VERTEX
  8
Default
 10
837.127878948494
 20
1007.47329860622
 42
-0.3138731675321
  0
VERTEX
  8
Default
 10
828.07795551217
 20
946.647103716405
 42
-0.335222901751
  0
SEQEND
  0
POLYLINE
  8
Default
 66
     1
 10
0.0
 20
0.0
 30
0.0
 70
     1
  0
VERTEX
  8
Default
 10
638.562497764604
 20
622.634017712014
 42
0.1313746519426
  0
VERTEX
  8
Default
 10
636.788673894323
 20
628.597326624797
 42
-0.0443059524196
  0
VERTEX
  8
Default
 10
603.444521107359
 20
689.765142656041
 42
-0.0946861574687
  0
VERTEX
  8
Default
 10
593.058577904291
 20
735.951829660148
 42
-0.0598220277969
  0
VERTEX
  8
Default
 10
601.253660755286
 20
812.861067030852
 42
-0.0284468595533
  0
VERTEX
  8
Default
 10
614.364168620258
 20
860.931696993904
 42
0.0212664678377
  0
VERTEX
  8
Default
 10
622.737835460431
 20
885.850828838113
 42
0.0950444530372
  0
VERTEX
  8
Default
 10
624.011952281877
 20
895.78823009926
 42
0.5433585412156
  0
VERTEX
  8
Default
 10
617.139857438881
 20
898.038210482259
 42
0.0
  0
VERTEX
  8
Default
 10
603.201464558593
 20
871.849733680135
 42
0.0
  0
VERTEX
  8
Default
 10
580.393168312797
 20
882.187295390646
 42
0.0047798857689
  0
VERTEX
  8
Default
 10
580.592720417275
 20
738.103205680744
 42
0.1707983126052
  0
VERTEX
  8
Default
 10
611.437767411638
 20
652.69336109446
 42
0.0082998050226
  0
VERTEX
  8
Default
 10
634.545203451154
 20
625.440706987318
 42
0.0853055830897
  0
VERTEX
  8
Default
 10
638.132511985343
 20
622.277086298844
 42
0.4132097679361
  0
SEQEND
  0
POLYLINE
  8
Default
 66
     1
 10
0.0
 20
0.0
 30
0.0
 70
     1
  0
VERTEX
  8
Default
 10
796.877110881376
 20
783.72709329508
 42
0.1764817690439
  0
VERTEX
  8
Default
 10
774.2872103933
 20
714.693978219052
 42
0.0579730187889
  0
VERTEX
  8
Default
 10
795.068542772777
 20
584.033372225773
 42
-0.27871624007
  0
VERTEX
  8
Default
 10
796.013519474492
 20
580.201595492152
 42
-0.2427625064693
  0
VERTEX
  8
Default
 10
790.73111471956
 20
579.811672303362
 42
-0.0303740103323
  0
VERTEX
  8
Default
 10
782.455917867892
 20
581.743134409681
 42
-0.0215900687687
  0
VERTEX
  8
Default
 10
777.969749900518
 20
595.64113360993
 42
-0.0315080977473
  0
VERTEX
  8
Default
 10
758.396060869684
 20
687.152635872818
 42
-0.1394305977541
  0
VERTEX
  8
Default
 10
768.121754500333
 20
767.150305943623
 42
-0.0614865075679
  0
VERTEX
  8
Default
 10
782.893777255515
 20
791.189243504769
 42
-0.1744337845507
  0
SEQEND
  0
POLYLINE
  8
Default
 66
     1
 10
0.0
 20
0.0
 30
0.0
 70
     1
  0
VERTEX
  8
Default
 10
791.322463233363
 20
803.127302678412
 42
-0.1995456482984
  0
VERTEX
  8
Default
 10
806.202555780683
 20
793.056224922098
 42
-0.4194168402143
  0
VERTEX
  8
Default
 10
906.404925645168
 20
784.269015051382
 42
-0.0784834453744
  0
VERTEX
  8
Default
 10
911.898920839229
 20
775.025656054346
 42
-0.0446898729039
  0
VERTEX
  8
Default
 10
919.542913834406
 20
745.481842071082
 42
0.0
  0
VERTEX
  8
Default
 10
937.562112389717
 20
745.137600163632
 42
0.1404784903863
  0
VERTEX
  8
Default
 10
919.003672404146
 20
802.01512204775
 42
0.1873976174143
  0
VERTEX
  8
Default
 10
888.183124067232
 20
822.478414973594
 42
0.0413920305773
  0
VERTEX
  8
Default
 10
847.665663935005
 20
828.512299034231
 42
0.1190767046706
  0
VERTEX
  8
Default
 10
835.319520967562
 20
827.351562540834
 42
-0.1873980097095
  0
VERTEX
  8
Default
 10
834.811801197307
 20
830.980370619662
 42
-0.1094487611795
  0
VERTEX
  8
Default
 10
838.379944767632
 20
837.54898902275
 42
0.12833510664
  0
VERTEX
  8
Default
 10
906.644804728483
 20
968.075111940421
 42
0.1016191336396
  0
VERTEX
  8
Default
 10
908.217975109658
 20
1059.17077139523
 42
0.0632319549942
  0
VERTEX
  8
Default
 10
888.865381540045
 20
1122.46109649348
 42
0.0054450620577
  0
VERTEX
  8
Default
 10
886.391133512494
 20
1122.66570734907
 42
-0.1063767296817
  0
VERTEX
  8
Default
 10
896.234059957169
 20
985.946991781732
 42
-0.1256714216561
  0
VERTEX
  8
Default
 10
861.865293714602
 20
899.261659893377
 42
0.0046299435332
  0
SEQEND
  0
POLYLINE
  8
Default
 66
     1
 10
0.0
 20
0.0
 30
0.0
 70
     1
  0
VERTEX
  8
Default
 10
661.848723619142
 20
860.926510170377
 42
-0.2590536849798
  0
VERTEX
  8
Default
 10
675.203727281358
 20
839.71006415639
 42
0.1662117090281
  0
VERTEX
  8
Default
 10
640.514076290797
 20
816.409590720138
 42
0.2433052404463
  0
VERTEX
  8
Default
 10
628.570272450577
 20
735.699052818563
 42
0.0369963273367
  0
VERTEX
  8
Default
 10
662.955036079744
 20
645.801653287446
 42
-0.1093028526533
  0
VERTEX
  8
Default
 10
663.286770659716
 20
636.651683575133
 42
-0.7320584389115
  0
VERTEX
  8
Default
 10
655.82411993933
 20
636.422248235156
 42
-0.0460168316058
  0
VERTEX
  8
Default
 10
645.237068096357
 20
653.085383286307
 42
-0.0428100789312
  0
VERTEX
  8
Default
 10
619.940201194312
 20
710.953475832431
 42
-0.0424664958237
  0
VERTEX
  8
Default
 10
613.577224403096
 20
735.977734556108
 42
-0.0719883906389
  0
VERTEX
  8
Default
 10
614.096855846618
 20
802.97473774161
 42
-0.1812846864352
  0
VERTEX
  8
Default
 10
642.653399917553
 20
850.807404240665
 42
-0.0961432060072
  0
SEQEND
  0
POLYLINE
  8
Default
 66
     1
 10
0.0
 20
0.0
 30
0.0
 70
     1
  0
VERTEX
  8
Default
 10
759.737600781368
 20
1243.73443972827
 42
-0.2484564770859
  0
VERTEX
  8
Default
 10
794.013327987045
 20
1138.69170592242
 42
-0.0488271841056
  0
VERTEX
  8
Default
 10
785.004590871141
 20
1095.66565530322
 42
-0.0917292282144
  0
VERTEX
  8
Default
 10
782.219298596967
 20
1090.18118666442
 42
-0.86938981728
  0
VERTEX
  8
Default
 10
781.523207486537
 20
1091.77048975147
 42
-0.0229590085015
  0
VERTEX
  8
Default
 10
782.408360474691
 20
1097.13935074537
 42
0.0817546566828
  0
VERTEX
  8
Default
 10
788.131106038907
 20
1166.78661922567
 42
0.1683046758262
  0
VERTEX
  8
Default
 10
752.389903227068
 20
1241.03453384896
 42
-0.1048463041468
  0
SEQEND
  0
POLYLINE
  8
Default
 66
     1
 10
0.0
 20
0.0
 30
0.0
 70
     1
  0
VERTEX
  8
Default
 10
755.567638511748
 20
1249.23633091386
 42
-0.6293797153171
  0
VERTEX
  8
Default
 10
756.897426890884
 20
1253.83736715729
 42
-0.083827997646
  0
VERTEX
  8
Default
 10
777.897061028406
 20
1256.75185269563
 42
0.2001819907894
  0
VERTEX
  8
Default
 10
771.442134058973
 20
1283.72148762626
 42
0.0966076977993
  0
VERTEX
  8
Default
 10
758.259923322102
 20
1296.67197477766
 42
0.1436646647327
  0
VERTEX
  8
Default
 10
714.276231708779
 20
1309.87638186973
 42
0.3489358625549
  0
VERTEX
  8
Default
 10
673.393064741017
 20
1277.50508301964
 42
0.4027085933023
  0
VERTEX
  8
Default
 10
703.536137882416
 20
1226.45345320746
 42
0.2653244193699
  0
VERTEX
  8
Default
 10
716.978678926525
 20
1230.26809468662
 42
0.3880592878415
  0
VERTEX
  8
Default
 10
716.592379304337
 20
1260.93870600408
 42
0.3567875606095
  0
VERTEX
  8
Default
 10
695.177368225426
 20
1261.50297981172
 42
0.1963540227827
  0
VERTEX
  8
Default
 10
690.782157563249
 20
1249.86014488861
 42
-0.1934296264375
  0
VERTEX
  8
Default
 10
689.812808968531
 20
1251.4661365756
 42
-0.0366215201653
  0
VERTEX
  8
Default
 10
685.729300015055
 20
1264.27438521754
 42
-0.1991662666628
  0
VERTEX
  8
Default
 10
687.541357208366
 20
1282.5876840013
 42
-0.2594442516419
  0
VERTEX
  8
Default
 10
711.217486138159
 20
1299.07696453937
 42
-0.3690542545091
  0
VERTEX
  8
Default
 10
768.393621013535
 20
1264.33270298137
 42
0.0555303116377
  0
VERTEX
  8
Default
 10
741.336684087206
 20
1254.21853019564
 42
0.6269258205822
  0
VERTEX
  8
Default
 10
742.663501173222
 20
1249.75969916829
 42
-0.0249682209772
  0
VERTEX
  8
Default
 10
747.434589505059
 20
1245.98286367221
 42
-0.1176548309485
  0
SEQEND
  0
POLYLINE
  8
Default
 66
     1
 10
0.0
 20
0.0
 30
0.0
 70
     1
  0
VERTEX
  8
Default
 10
729.731564759972
 20
1107.23096517074
 42
0.1924571543047
  0
VERTEX
  8
Default
 10
707.777044458676
 20
1109.6620818927
 42
0.0175793004825
  0
VERTEX
  8
Default
 10
707.311166768269
 20
1130.2868683635
 42
0.1459554968559
  0
VERTEX
  8
Default
 10
680.711679065478
 20
1196.02080912858
 42
0.2655547863501
  0
VERTEX
  8
Default
 10
641.465613092046
 20
1210.76679225332
 42
0.1361293772447
  0
VERTEX
  8
Default
 10
615.142891769916
 20
1201.72562317955
 42
0.1345487623722
  0
VERTEX
  8
Default
 10
613.804230762301
 20
1199.89522598063
 42
0.0
  0
VERTEX
  8
Default
 10
603.033651220302
 20
1207.47607369348
 42
-0.0368458982893
  0
VERTEX
  8
Default
 10
627.609050168976
 20
1223.61224846292
 42
-0.0768092095073
  0
VERTEX
  8
Default
 10
635.933663249849
 20
1226.90966404279
 42
0.6687520416518
  0
VERTEX
  8
Default
 10
638.439313360149
 20
1235.10650887917
 42
0.0818866416831
  0
VERTEX
  8
Default
 10
632.696763212503
 20
1241.68318564507
 42
-0.4352268261798
  0
VERTEX
  8
Default
 10
632.811110792041
 20
1250.89389205449
 42
0.0856806180926
  0
VERTEX
  8
Default
 10
662.410690991349
 20
1225.15805385714
 42
-0.0614915410517
  0
VERTEX
  8
Default
 10
686.522937494121
 20
1209.5261655004
 42
-0.1346111792533
  0
VERTEX
  8
Default
 10
705.03728565398
 20
1181.97673937009
 42
-0.0596103750902
  0
VERTEX
  8
Default
 10
712.688276800005
 20
1153.18938582815
 42
-0.0882624358309
  0
VERTEX
  8
Default
 10
712.640049492384
 20
1151.65319671728
 42
-0.043409020855
  0
VERTEX
  8
Default
 10
724.413874498906
 20
1168.61622197334
 42
-0.1234308530158
  0
VERTEX
  8
Default
 10
727.21197902201
 20
1170.95003775373
 42
-0.280716287073
  0
VERTEX
  8
Default
 10
727.863552271633
 20
1170.45064709159
 42
-0.0729419802633
  0
VERTEX
  8
Default
 10
730.162638118758
 20
1154.08040180287
 42
-0.031934501817
  0
SEQEND
  0
POLYLINE
  8
Default
 66
     1
 10
0.0
 20
0.0
 30
0.0
 70
     1
  0
VERTEX
  8
Default
 10
707.248475551367
 20
1095.36365181895
 42
-0.1853792183781
  0
VERTEX
  8
Default
 10
728.463411462059
 20
1093.13789639427
 42
-0.0422217177259
  0
VERTEX
  8
Default
 10
722.167012153522
 20
1061.81979390023
 42
-0.0381570623962
  0
VERTEX
  8
Default
 10
683.243226626957
 20
974.493278835475
 42
0.098311679871
  0
VERTEX
  8
Default
 10
680.944244153908
 20
967.84894331583
 42
0.5294724469745
  0
VERTEX
  8
Default
 10
682.083202290757
 20
966.215012316311
 42
0.1169414792789
  0
VERTEX
  8
Default
 10
692.554228228547
 20
974.403575041715
 42
0.0129330911246
  0
VERTEX
  8
Default
 10
703.770146126851
 20
985.56298968303
 42
-0.2398272051619
  0
VERTEX
  8
Default
 10
701.20677137269
 20
972.542923374523
 42
-0.0174775703717
  0
VERTEX
  8
Default
 10
692.580532840328
 20
962.065848014013
 42
-0.0078822458599
  0
VERTEX
  8
Default
 10
640.41387699575
 20
904.929990330631
 42
-0.5742284531073
  0
VERTEX
  8
Default
 10
635.007083198408
 20
918.549966163729
 42
0.0480525328936
  0
VERTEX
  8
Default
 10
696.677261728042
 20
1043.03883739498
 42
0.0747142149372
  0
SEQEND
  0
POLYLINE
  8
Default
 66
     1
 10
0.0
 20
0.0
 30
0.0
 70
     1
  0
VERTEX
  8
Default
 10
778.322541123251
 20
1700.43567313671
 42
0.174522198921
  0
VERTEX
  8
Default
 10
772.383624062603
 20
1707.25412579814
 42
-0.1739478796749
  0
VERTEX
  8
Default
 10
812.850886593984
 20
1712.83491187165
 42
-0.2566949871756
  0
VERTEX
  8
Default
 10
841.402891966437
 20
1686.49010166557
 42
-0.2198880625881
  0
VERTEX
  8
Default
 10
836.820012530563
 20
1643.41785444069
 42
-0.0353365419472
  0
VERTEX
  8
Default
 10
825.898094894139
 20
1626.45095032501
 42
-0.3166868401002
  0
VERTEX
  8
Default
 10
800.94308013529
 20
1616.99330641039
 42
-0.352383901881
  0
VERTEX
  8
Default
 10
786.20008885545
 20
1629.81739599585
 42
-0.1928758574522
  0
VERTEX
  8
Default
 10
788.783123122155
 20
1648.98369912718
 42
-0.2308087411691
  0
VERTEX
  8
Default
 10
796.435552603666
 20
1654.40501212493
 42
-0.3358019765165
  0
VERTEX
  8
Default
 10
817.454868872274
 20
1637.78582938107
 42
1.0149612840571
  0
VERTEX
  8
Default
 10
820.768107232905
 20
1636.60270784803
 42
0.1176632588065
  0
VERTEX
  8
Default
 10
832.694735520243
 20
1658.29082023508
 42
0.2839875304418
  0
VERTEX
  8
Default
 10
824.817517604436
 20
1690.21180188567
 42
0.3532058151402
  0
SEQEND
  0
POLYLINE
  8
Default
 66
     1
 10
0.0
 20
0.0
 30
0.0
 70
     1
  0
VERTEX
  8
Default
 10
764.307425184779
 20
1702.77899980624
 42
-0.1805936924968
  0
VERTEX
  8
Default
 10
770.464273733994
 20
1695.75918092404
 42
0.0847530464142
  0
VERTEX
  8
Default
 10
745.04243594791
 20
1674.00773758488
 42
0.491995318156
  0
VERTEX
  8
Default
 10
742.645748894958
 20
1670.28458006349
 42
0.154083477235
  0
VERTEX
  8
Default
 10
746.511889123988
 20
1668.605009546
 42
-0.0545853564583
  0
VERTEX
  8
Default
 10
764.095635791528
 20
1663.43709134586
 42
-0.2723730147976
  0
VERTEX
  8
Default
 10
773.309439376931
 20
1653.63854948428
 42
-0.3234584487489
  0
VERTEX
  8
Default
 10
770.225819900406
 20
1649.01945423605
 42
-0.0336637425734
  0
VERTEX
  8
Default
 10
767.26435299588
 20
1647.63227471339
 42
0.1162564889463
  0
VERTEX
  8
Default
 10
743.456550703738
 20
1634.91108848389
 42
0.0536361996872
  0
VERTEX
  8
Default
 10
722.259956978139
 20
1614.75790864165
 42
0.1154565393591
  0
VERTEX
  8
Default
 10
697.801973188156
 20
1559.5420199289
 42
0.0554601382534
  0
VERTEX
  8
Default
 10
692.918819084278
 20
1504.60569480063
 42
0.0754019236765
  0
VERTEX
  8
Default
 10
694.034732347072
 20
1495.45552519679
 42
-0.2399377141987
  0
VERTEX
  8
Default
 10
693.892468908232
 20
1486.29148842716
 42
-0.4372568369453
  0
VERTEX
  8
Default
 10
692.713790553294
 20
1486.1386063009
 42
-0.1148904628706
  0
VERTEX
  8
Default
 10
687.155255185819
 20
1501.32174635664
 42
-0.1917271860972
  0
VERTEX
  8
Default
 10
711.832876198992
 20
1615.11596864815
 42
-0.0832582584521
  0
VERTEX
  8
Default
 10
735.659495627764
 20
1642.57462576544
 42
-0.0710134233524
  0
VERTEX
  8
Default
 10
747.253488752836
 20
1649.70095216757
 42
0.7586234547848
  0
VERTEX
  8
Default
 10
748.350484259666
 20
1658.96347355981
 42
0.16895491192
  0
VERTEX
  8
Default
 10
735.233016452136
 20
1662.34637972069
 42
-0.6645550392269
  0
VERTEX
  8
Default
 10
729.51183633021
 20
1670.19756908867
 42
-0.0798069716969
  0
VERTEX
  8
Default
 10
737.513618617913
 20
1681.12463966064
 42
-0.0667185597093
  0
SEQEND
  0
POLYLINE
  8
Default
 66
     1
 10
0.0
 20
0.0
 30
0.0
 70
     1
  0
VERTEX
  8
Default
 10
789.221386701535
 20
291.855100057708
 42
-0.1648449660137
  0
VERTEX
  8
Default
 10
722.407411497514
 20
63.2959563741914
 42
0.2112216003261
  0
VERTEX
  8
Default
 10
731.088227327873
 20
353.361626352858
 42
-0.1226157053295
  0
VERTEX
  8
Default
 10
762.0336736191
 20
322.358957901717
 42
0.0320593623705
  0
VERTEX
  8
Default
 10
770.588954537702
 20
307.061110805117
 42
0.0668359187626
  0
VERTEX
  8
Default
 10
773.774787841282
 20
303.347063075287
 42
0.4980129829708
  0
VERTEX
  8
Default
 10
779.376250494178
 20
303.727176072461
 42
0.0
  0
SEQEND
  0
POLYLINE
  8
Default
 66
     1
 10
0.0
 20
0.0
 30
0.0
 70
     1
  0
VERTEX
  8
Default
 10
642.374739816775
 20
150.549675956832
 42
-0.2754765389166
  0
VERTEX
  8
Default
 10
623.74252423129
 20
149.48644497005
 42
-0.0991641735477
  0
VERTEX
  8
Default
 10
592.882788743535
 20
174.766044469307
 42
-0.0577782777097
  0
VERTEX
  8
Default
 10
562.321651403468
 20
221.894477728969
 42
-0.0996378663278
  0
VERTEX
  8
Default
 10
548.701319438086
 20
284.317910394894
 42
-0.072204069992
  0
VERTEX
  8
Default
 10
558.089477872989
 20
357.735408918028
 42
0.0505686653122
  0
VERTEX
  8
Default
 10
561.796726163573
 20
295.215016205384
 42
0.101324155869
  0
VERTEX
  8
Default
 10
590.8350490465
 20
223.761272681277
 42
0.1447480785382
  0
VERTEX
  8
Default
 10
624.851767344185
 20
192.091125005487
 42
-0.0724971964488
  0
VERTEX
  8
Default
 10
639.206676816436
 20
180.935784593916
 42
-0.2188437974279
  0
VERTEX
  8
Default
 10
646.233319079777
 20
158.935571293124
 42
-0.1958825131839
  0
SEQEND
  0
POLYLINE
  8
Default
 66
     1
 10
0.0
 20
0.0
 30
0.0
 70
     1
  0
VERTEX
  8
Default
 10
805.162403352699
 20
301.165018201219
 42
0.0398717136427
  0
VERTEX
  8
Default
 10
801.619642311019
 20
369.313592334793
 42
0.0559045780254
  0
VERTEX
  8
Default
 10
790.075430773848
 20
415.750570921511
 42
-0.0009428734444
  0
VERTEX
  8
Default
 10
771.284610719381
 20
464.233308595787
 42
0.054377196609
  0
VERTEX
  8
Default
 10
761.153373462107
 20
482.656636123355
 42
0.0172810634018
  0
VERTEX
  8
Default
 10
715.240794890353
 20
539.758429809148
 42
-0.0118639852624
  0
VERTEX
  8
Default
 10
700.407567424055
 20
552.418835200805
 42
0.1408049126351
  0
VERTEX
  8
Default
 10
681.31150106377
 20
563.768049299357
 42
0.2466981575163
  0
VERTEX
  8
Default
 10
669.892328016676
 20
560.206070223172
 42
0.2054685266293
  0
VERTEX
  8
Default
 10
668.187985101533
 20
554.996398303485
 42
0.2003456811449
  0
VERTEX
  8
Default
 10
686.190237400567
 20
531.814492795194
 42
-0.0616111879977
  0
VERTEX
  8
Default
 10
743.103592711452
 20
491.151178603977
 42
-0.1018520232619
  0
VERTEX
  8
Default
 10
768.684492958022
 20
453.605080657953
 42
-0.097164551659
  0
VERTEX
  8
Default
 10
803.471281736167
 20
322.750951900467
 42
0.0064784224715
  0
SEQEND
  0
POLYLINE
  8
Default
 66
     1
 10
0.0
 20
0.0
 30
0.0
 70
     1
  0
VERTEX
  8
Default
 10
711.059060406711
 20
694.302823736805
 42
0.0
  0
VERTEX
  8
Default
 10
698.80960806155
 20
692.721371888654
 42
0.0815300249818
  0
VERTEX
  8
Default
 10
745.998325655169
 20
575.90203621967
 42
-0.0030934678537
  0
VERTEX
  8
Default
 10
787.294195190326
 20
512.011147587865
 42
0.0
  0
VERTEX
  8
Default
 10
782.337552892085
 20
547.057129909887
 42
-0.0729767423171
  0
VERTEX
  8
Default
 10
741.52213497835
 20
615.301969906926
 42
-0.0276136437567
  0
SEQEND
  0
POLYLINE
  8
Default
 66
     1
 10
0.0
 20
0.0
 30
0.0
 70
     1
  0
VERTEX
  8
Default
 10
880.54728601947
 20
656.983609540986
 42
-0.3550223201039
  0
VERTEX
  8
Default
 10
878.108662963817
 20
660.731198706189
 42
-0.0838864459223
  0
VERTEX
  8
Default
 10
879.343228213624
 20
666.731827063631
 42
-0.035958655644
  0
VERTEX
  8
Default
 10
888.82229612739
 20
687.936252453125
 42
0.093021692933
  0
VERTEX
  8
Default
 10
891.28865723495
 20
710.342157409706
 42
0.2921310280467
  0
VERTEX
  8
Default
 10
876.051854387616
 20
731.701524836997
 42
0.0852965891218
  0
VERTEX
  8
Default
 10
863.139942539061
 20
734.76846172212
 42
0.2865637552295
  0
VERTEX
  8
Default
 10
845.438883971008
 20
724.843906458405
 42
0.1636003830171
  0
VERTEX
  8
Default
 10
837.404470569561
 20
675.714717879268
 42
0.1858955557382
  0
VERTEX
  8
Default
 10
859.976726254461
 20
646.569660041807
 42
0.1963560855369
  0
VERTEX
  8
Default
 10
883.30754771952
 20
642.865040893538
 42
0.1079955581619
  0
VERTEX
  8
Default
 10
902.013109810153
 20
652.966434426002
 42
0.2477800808713
  0
VERTEX
  8
Default
 10
933.244079050054
 20
726.587552950723
 42
0.0
  0
VERTEX
  8
Default
 10
923.057714258114
 20
727.091240267709
 42
-0.0835382139223
  0
VERTEX
  8
Default
 10
917.493791056148
 20
690.438481420068
 42
-0.0759181533159
  0
VERTEX
  8
Default
 10
913.651305182038
 20
683.481211108769
 42
-0.1161102527062
  0
VERTEX
  8
Default
 10
885.109792975159
 20
657.819286250603
 42
-0.3092056562964
  0
SEQEND
  0
POLYLINE
  8
Default
 66
     1
 10
0.0
 20
0.0
 30
0.0
 70
     1
  0
VERTEX
  8
Default
 10
689.846200376544
 20
848.121872770204
 42
0.177476536225
  0
VERTEX
  8
Default
 10
683.414182470575
 20
866.153643561008
 42
-0.149942621019
  0
VERTEX
  8
Default
 10
723.244066998878
 20
849.369477369942
 42
-0.0846955668533
  0
VERTEX
  8
Default
 10
731.165080810231
 20
840.171691441388
 42
-0.1702377950565
  0
VERTEX
  8
Default
 10
746.765477100947
 20
774.326344062821
 42
-0.1929247560207
  0
VERTEX
  8
Default
 10
716.750040820546
 20
727.811655198028
 42
-0.1167850535305
  0
VERTEX
  8
Default
 10
700.933000426252
 20
720.687820596381
 42
-0.2296064271221
  0
VERTEX
  8
Default
 10
686.896035952164
 20
724.747566902393
 42
-0.1392266247698
  0
VERTEX
  8
Default
 10
679.112724323568
 20
739.05811990578
 42
-0.0753002850168
  0
VERTEX
  8
Default
 10
677.568697286047
 20
763.290957774582
 42
-0.1000174640607
  0
VERTEX
  8
Default
 10
681.209333376391
 20
776.001482206415
 42
-0.3349091032236
  0
VERTEX
  8
Default
 10
694.87900944135
 20
782.58925867455
 42
-0.1742294233717
  0
VERTEX
  8
Default
 10
707.697842875986
 20
774.352746366499
 42
-0.241242378215
  0
VERTEX
  8
Default
 10
709.144394911743
 20
766.093039699641
 42
0.2180660722634
  0
VERTEX
  8
Default
 10
711.01716976143
 20
745.582655720931
 42
0.4190819061713
  0
VERTEX
  8
Default
 10
713.835661990866
 20
745.148099922689
 42
0.215893008742
  0
VERTEX
  8
Default
 10
734.159036863063
 20
781.658801825422
 42
0.131535584813
  0
VERTEX
  8
Default
 10
725.171292879316
 20
822.819794699174
 42
0.2533574003394
  0
SEQEND
  0
POLYLINE
  8
Default
 66
     1
 10
0.0
 20
0.0
 30
0.0
 70
     1
  0
VERTEX
  8
Default
 10
806.153512885504
 20
1291.09146905746
 42
0.1192251160048
  0
VERTEX
  8
Default
 10
800.740164119642
 20
1296.55999873258
 42
0.9164449124315
  0
VERTEX
  8
Default
 10
798.647524138999
 20
1294.95775814624
 42
0.0360474470299
  0
VERTEX
  8
Default
 10
810.110700127477
 20
1253.58150713503
 42
-0.0030607082781
  0
VERTEX
  8
Default
 10
812.435622910928
 20
1243.33113645762
 42
-0.6442002503434
  0
VERTEX
  8
Default
 10
810.56142306678
 20
1238.85197419227
 42
-0.201069082381
  0
VERTEX
  8
Default
 10
804.39808359447
 20
1240.91978302311
 42
0.3470203545143
  0
VERTEX
  8
Default
 10
772.263949596128
 20
1248.94678483826
 42
0.0831696012277
  0
VERTEX
  8
Default
 10
784.33142522219
 20
1230.89941661913
 42
-0.0965708675258
  0
VERTEX
  8
Default
 10
805.143057176377
 20
1197.4446711068
 42
-0.1312407278713
  0
VERTEX
  8
Default
 10
809.206039236784
 20
1166.91701431117
 42
-0.0266608234715
  0
VERTEX
  8
Default
 10
799.984374683152
 20
1120.92442900449
 42
0.0138869155636
  0
VERTEX
  8
Default
 10
793.737316429523
 20
1093.28921646156
 42
0.0599152864615
  0
VERTEX
  8
Default
 10
793.159064785463
 20
1087.65134257338
 42
0.0389712857987
  0
VERTEX
  8
Default
 10
796.331836622946
 20
1092.9350414199
 42
0.0575920202639
  0
VERTEX
  8
Default
 10
815.472498048289
 20
1145.42443513162
 42
0.0568982291095
  0
VERTEX
  8
Default
 10
821.825611469563
 20
1232.11065644467
 42
0.0884204827648
  0
SEQEND
  0
POLYLINE
  8
Default
 66
     1
 10
0.0
 20
0.0
 30
0.0
 70
     1
  0
VERTEX
  8
Default
 10
728.270871145069
 20
1023.3551855626
 42
0.2817266674715
  0
VERTEX
  8
Default
 10
728.607213350812
 20
1023.21053185477
 42
0.1804468595381
  0
VERTEX
  8
Default
 10
739.140244130865
 20
1035.11981666951
 42
0.0580632524115
  0
VERTEX
  8
Default
 10
770.367943179331
 20
1107.86271088828
 42
0.0863872685993
  0
VERTEX
  8
Default
 10
775.629181384127
 20
1139.34952426371
 42
0.0139042258519
  0
VERTEX
  8
Default
 10
774.888960388702
 20
1164.12106947308
 42
0.1655409197223
  0
VERTEX
  8
Default
 10
761.467304391096
 20
1197.24222954871
 42
0.033081551969
  0
VERTEX
  8
Default
 10
747.772861535861
 20
1211.26868008669
 42
0.0
  0
VERTEX
  8
Default
 10
725.860721905822
 20
1209.48104000102
 42
-0.1016997529582
  0
VERTEX
  8
Default
 10
752.014819641538
 20
1183.72508404176
 42
-0.2088624764018
  0
VERTEX
  8
Default
 10
761.763935666594
 20
1129.36924539382
 42
-0.0477404917234
  0
VERTEX
  8
Default
 10
728.158546363728
 20
1030.02373016055
 42
0.0831786671252
  0
VERTEX
  8
Default
 10
727.942676606786
 20
1023.96984213787
 42
0.2266122913805
  0
SEQEND
  0
POLYLINE
  8
Default
 66
     1
 10
0.0
 20
0.0
 30
0.0
 70
     0
  0
VERTEX
  8
Default
 10
593.589626945106
 20
286.098393272399
 42
-0.0005887227996
  0
VERTEX
  8
Default
 10
593.459287587884
 20
286.482336596825
 42
0.0
  0
SEQEND
  0
POLYLINE
  8
Default
 66
     1
 10
0.0
 20
0.0
 30
0.0
 70
     1
  0
VERTEX
  8
Default
 10
620.564229543135
 20
444.101000480348
 42
-0.1310280925112
  0
VERTEX
  8
Default
 10
638.796296735466
 20
432.44652805369
 42
-0.0116040670779
  0
VERTEX
  8
Default
 10
643.769773641854
 20
437.900789925855
 42
-0.0948515820636
  0
VERTEX
  8
Default
 10
646.351509134114
 20
439.667540588053
 42
-0.3702200685085
  0
VERTEX
  8
Default
 10
647.784875701657
 20
439.06635764986
 42
-0.1201815906441
  0
VERTEX
  8
Default
 10
648.212162065314
 20
434.907550049735
 42
-0.0015822654371
  0
VERTEX
  8
Default
 10
647.098008189452
 20
421.073536958051
 42
0.2330130938546
  0
VERTEX
  8
Default
 10
655.540010950512
 20
396.750464799324
 42
0.426825335886
  0
VERTEX
  8
Default
 10
672.150987196026
 20
395.897205344731
 42
0.0435456689239
  0
VERTEX
  8
Default
 10
677.320513401277
 20
401.79302604259
 42
0.0535305651665
  0
VERTEX
  8
Default
 10
692.396258459273
 20
429.211552601862
 42
-0.3924770954523
  0
VERTEX
  8
Default
 10
714.458113026308
 20
438.706086039561
 42
-0.1457386968887
  0
VERTEX
  8
Default
 10
742.090387168111
 20
417.5614126678
 42
-0.0665844670953
  0
VERTEX
  8
Default
 10
760.41287746965
 20
384.457060292194
 42
-0.0506852224563
  0
VERTEX
  8
Default
 10
776.151566727102
 20
330.748912141134
 42
0.0
  0
VERTEX
  8
Default
 10
789.714851478858
 20
314.393186411074
 42
0.0628435237833
  0
VERTEX
  8
Default
 10
768.720349036082
 20
407.448515891064
 42
0.1037516898091
  0
VERTEX
  8
Default
 10
737.189572094077
 20
453.527931442925
 42
0.0750067338669
  0
VERTEX
  8
Default
 10
710.98786602051
 20
471.533992991834
 42
0.1038196172325
  0
VERTEX
  8
Default
 10
698.386988692921
 20
475.15737771774
 42
0.1637886644021
  0
VERTEX
  8
Default
 10
641.966065528739
 20
460.850618439299
 42
0.0698793943561
  0
SEQEND
  0
POLYLINE
  8
Default
 66
     1
 10
0.0
 20
0.0
 30
0.0
 70
     1
  0
VERTEX
  8
Default
 10
644.80461772002
 20
272.993146577639
 42
-0.1993999795845
  0
VERTEX
  8
Default
 10
646.710021833215
 20
230.835078777608
 42
-0.2095799825761
  0
VERTEX
  8
Default
 10
611.836159232419
 20
252.220241118579
 42
-0.0426260634583
  0
VERTEX
  8
Default
 10
593.459287587884
 20
286.482336596825
 42
-0.0722064673148
  0
VERTEX
  8
Default
 10
584.508517233704
 20
335.137826980232
 42
-0.0248363158572
  0
VERTEX
  8
Default
 10
587.520797009174
 20
365.875528245547
 42
-0.0728191687197
  0
VERTEX
  8
Default
 10
602.367628378425
 20
417.618105465284
 42
-0.0308121160644
  0
VERTEX
  8
Default
 10
608.118778027788
 20
428.184693496257
 42
-0.1328834342438
  0
VERTEX
  8
Default
 10
627.226406756563
 20
417.413231807788
 42
0.1175779306367
  0
VERTEX
  8
Default
 10
615.245716973451
 20
384.237731486153
 42
0.0857625403348
  0
VERTEX
  8
Default
 10
612.127964345528
 20
330.946973596435
 42
0.0401299001909
  0
VERTEX
  8
Default
 10
617.986572592036
 20
304.791344323321
 42
0.0057702982348
  0
VERTEX
  8
Default
 10
624.107060072387
 20
289.908104937347
 42
0.1931004358772
  0
VERTEX
  8
Default
 10
641.511766767069
 20
273.873973473258
 42
0.0291606792822
  0
SEQEND
  0
POLYLINE
  8
Default
 66
     1
 10
0.0
 20
0.0
 30
0.0
 70
     1
  0
VERTEX
  8
Default
 10
663.702280962144
 20
231.492395703491
 42
0.2022748639362
  0
VERTEX
  8
Default
 10
660.683969763708
 20
274.147795328884
 42
0.0775173330823
  0
VERTEX
  8
Default
 10
668.582178163265
 20
278.493112359992
 42
0.0854102337519
  0
VERTEX
  8
Default
 10
679.486958879407
 20
290.254548000942
 42
0.1529990916635
  0
VERTEX
  8
Default
 10
694.236948916035
 20
340.726147752689
 42
-0.0022438801824
  0
VERTEX
  8
Default
 10
692.194806851943
 20
362.447998249761
 42
-0.1769943555731
  0
VERTEX
  8
Default
 10
710.217062509605
 20
332.064463060551
 42
-0.189062961273
  0
VERTEX
  8
Default
 10
700.669591054554
 20
257.210603426006
 42
-0.1137575022617
  0
VERTEX
  8
Default
 10
685.69988642057
 20
240.409329047862
 42
-0.0970102570487
  0
SEQEND
  0
POLYLINE
  8
Default
 66
     1
 10
0.0
 20
0.0
 30
0.0
 70
     0
  0
VERTEX
  8
Default
 10
500.000002070225
 20
0.0
 42
0.0
  0
VERTEX
  8
Default
 10
500.000002070225
 20
2000.00000126088
 42
0.0
  0
SEQEND
  0
POLYLINE
  8
Default
 66
     1
 10
0.0
 20
0.0
 30
0.0
 70
     1
  0
VERTEX
  8
Default
 10
500.000002070225
 20
0.0
 42
0.0
  0
VERTEX
  8
Default
 10
0.0
 20
0.0
 42
0.0
  0
VERTEX
  8
Default
 10
0.0
 20
2000.00000126088
 42
0.0
  0
VERTEX
  8
Default
 10
500.000002070225
 20
2000.00000126088
 42
0.0
  0
VERTEX
  8
Default
 10
1000.00000414045
 20
2000.00000126088
 42
0.0
  0
VERTEX
  8
Default
 10
1000.00000414045
 20
-0.0000000000001
 42
0.0
  0
SEQEND
  0
ENDSEC
  0
EOF
