  0
SECTION
  2
HEADER
  9
$ACADVER
  1
AC1009
  9
$EXTMAX
 10
12801.599609375
 20
25400.0
 30
0.0
  9
$EXTMIN
 10
-12598.3994140625
 20
-25400.0
 30
0.0
  9
$INSUNITS
 70
     1
  9
$LUNITS
 70
     2
  9
$LUPREC
 70
     4
  9
$MEASUREMENT
 70
     0
  0
ENDSEC
  0
SECTION
  2
TABLES
  0
TABLE
  2
LAYER
 70
     1
  0
LAYER
  2
0
 70
     0
 62
     7
  6
Continuous
  0
LAYER
  2
Default
 70
     0
 62
    70
  6
Continuous
  0
ENDTAB
  0
TABLE
  2
APPID
 70
     1
  0
APPID
  2
ACAD
 70
     0
  0
ENDTAB
  0
ENDSEC
  0
SECTION
  2
ENTITIES
  0
POLYLINE
  8
Default
 66
     1
 10
0.0
 20
0.0
 30
0.0
 70
     1
  0
VERTEX
  8
Default
 10
-192.569118370628
 20
-504.386116006899
 42
0.2434743735136
  0
VERTEX
  8
Default
 10
-195.401485202608
 20
-521.890486912326
 42
0.1610493225769
  0
VERTEX
  8
Default
 10
-184.760506238714
 20
-537.73798430668
 42
0.1129916427071
  0
VERTEX
  8
Default
 10
-172.586593503169
 20
-543.407913877673
 42
0.1461900644344
  0
VERTEX
  8
Default
 10
-164.833831359459
 20
-543.171626322494
 42
0.1854023853056
  0
VERTEX
  8
Default
 10
-157.296282809048
 20
-536.943134820267
 42
0.1374798066436
  0
VERTEX
  8
Default
 10
-155.533483559587
 20
-529.720267027505
 42
0.1689703528635
  0
VERTEX
  8
Default
 10
-163.159685512335
 20
-511.098639079209
 42
0.1399751808312
  0
VERTEX
  8
Default
 10
-177.136555288852
 20
-502.12863043867
 42
0.0203833154049
  0
VERTEX
  8
Default
 10
-179.515657076004
 20
-501.516962686215
 42
0.1625534464324
  0
VERTEX
  8
Default
 10
-187.734003890912
 20
-501.492839271824
 42
0.1095526458886
  0
SEQEND
  0
POLYLINE
  8
Default
 66
     1
 10
0.0
 20
0.0
 30
0.0
 70
     1
  0
VERTEX
  8
Default
 10
-74.864011112295
 20
-723.333412269577
 42
0.2434743734794
  0
VERTEX
  8
Default
 10
-77.696377941456
 20
-740.837783174456
 42
0.1610493225911
  0
VERTEX
  8
Default
 10
-67.055398979045
 20
-756.685280567578
 42
0.1129916427544
  0
VERTEX
  8
Default
 10
-54.881486240237
 20
-762.355210138696
 42
0.1461900643964
  0
VERTEX
  8
Default
 10
-47.128724096461
 20
-762.118922582069
 42
0.1854023853038
  0
VERTEX
  8
Default
 10
-39.59117554719
 20
-755.890431078487
 42
0.1374798065695
  0
VERTEX
  8
Default
 10
-37.828376298849
 20
-748.667563289369
 42
0.1689703528619
  0
VERTEX
  8
Default
 10
-45.4545782510151
 20
-730.045935340762
 42
0.1399751808306
  0
VERTEX
  8
Default
 10
-59.431448027246
 20
-721.075926699689
 42
0.0203833154408
  0
VERTEX
  8
Default
 10
-61.81054981863
 20
-720.464258946233
 42
0.1625534464696
  0
VERTEX
  8
Default
 10
-70.028896632437
 20
-720.440135532762
 42
0.1095526459538
  0
SEQEND
  0
POLYLINE
  8
Default
 66
     1
 10
0.0
 20
0.0
 30
0.0
 70
     1
  0
VERTEX
  8
Default
 10
-292.146648161614
 20
-556.099837436098
 42
0.1950037004083
  0
VERTEX
  8
Default
 10
-298.606630428953
 20
-586.831536047532
 42
0.1255467291779
  0
VERTEX
  8
Default
 10
-274.311045734968
 20
-632.696267494586
 42
0.1444564063968
  0
VERTEX
  8
Default
 10
-220.374373540704
 20
-667.962056237268
 42
0.1684371284415
  0
VERTEX
  8
Default
 10
-185.789917437161
 20
-669.092210980709
 42
0.0934114031538
  0
VERTEX
  8
Default
 10
-175.457391963514
 20
-663.287743694256
 42
0.2047256431198
  0
VERTEX
  8
Default
 10
-164.181417468598
 20
-640.849248304886
 42
0.1301915997269
  0
VERTEX
  8
Default
 10
-174.834944779797
 20
-602.543629080112
 42
0.148067982646
  0
VERTEX
  8
Default
 10
-225.091354554055
 20
-554.97957122703
 42
0.0329215422591
  0
VERTEX
  8
Default
 10
-239.518449989792
 20
-548.912595857648
 42
0.1595766437766
  0
VERTEX
  8
Default
 10
-275.016865399537
 20
-545.906769168332
 42
0.1716650844724
  0
SEQEND
  0
POLYLINE
  8
Default
 66
     1
 10
0.0
 20
0.0
 30
0.0
 70
     1
  0
VERTEX
  8
Default
 10
-246.920989925164
 20
631.289262054075
 42
0.0937064526044
  0
VERTEX
  8
Default
 10
-222.316964431161
 20
615.896475864005
 42
0.060249603086
  0
VERTEX
  8
Default
 10
-252.232243884776
 20
604.645145051425
 42
0.1102193299023
  0
SEQEND
  0
POLYLINE
  8
Default
 66
     1
 10
0.0
 20
0.0
 30
0.0
 70
     1
  0
VERTEX
  8
Default
 10
-284.943512776387
 20
182.761855614995
 42
-0.0434077965152
  0
VERTEX
  8
Default
 10
-244.065935379541
 20
228.821721419445
 42
-0.0952413316166
  0
VERTEX
  8
Default
 10
-300.291716514041
 20
233.142161296625
 42
-0.1798954834384
  0
VERTEX
  8
Default
 10
-346.672152227175
 20
264.935293264515
 42
0.0
  0
VERTEX
  8
Default
 10
-346.672152227175
 20
47.3683221041952
 42
-0.1060497013304
  0
VERTEX
  8
Default
 10
-284.943434982576
 20
182.761960324135
 42
0.0
  0
SEQEND
  0
POLYLINE
  8
Default
 66
     1
 10
0.0
 20
0.0
 30
0.0
 70
     1
  0
VERTEX
  8
Default
 10
-284.943512731116
 20
-256.757000429293
 42
0.0433773709969
  0
VERTEX
  8
Default
 10
-244.065935340795
 20
-303.489273378798
 42
0.0965511914197
  0
VERTEX
  8
Default
 10
-300.29171646632
 20
-307.872785403317
 42
0.1806629523323
  0
VERTEX
  8
Default
 10
-346.672152172048
 20
-340.130050922737
 42
0.0
  0
VERTEX
  8
Default
 10
-346.672152172048
 20
-119.386917969968
 42
0.1052943729672
  0
VERTEX
  8
Default
 10
-284.943434937305
 20
-256.757106667024
 42
0.0
  0
SEQEND
  0
POLYLINE
  8
Default
 66
     1
 10
0.0
 20
0.0
 30
0.0
 70
     1
  0
VERTEX
  8
Default
 10
-246.920989885961
 20
-711.832255577206
 42
0.108804054546
  0
VERTEX
  8
Default
 10
-252.232243844725
 20
-684.799173163278
 42
0.0609134898168
  0
VERTEX
  8
Default
 10
-222.316964395886
 20
-696.214757064692
 42
0.0938990030055
  0
SEQEND
  0
POLYLINE
  8
Default
 66
     1
 10
0.0
 20
0.0
 30
0.0
 70
     1
  0
VERTEX
  8
Default
 10
-303.291007363271
 20
-761.633250425309
 42
-0.1089893652063
  0
VERTEX
  8
Default
 10
-346.672152172048
 20
-777.169667871876
 42
0.0
  0
VERTEX
  8
Default
 10
-346.672152172048
 20
-658.742705644267
 42
-0.0955900658158
  0
VERTEX
  8
Default
 10
-313.926410191099
 20
-662.156753857919
 42
-0.0789959438211
  0
VERTEX
  8
Default
 10
-289.291126471503
 20
-674.173381982235
 42
-0.0236741759304
  0
VERTEX
  8
Default
 10
-284.676330232774
 20
-677.66846657191
 42
-0.1324465940817
  0
VERTEX
  8
Default
 10
-271.948880860528
 20
-696.015769684357
 42
-0.1731034439165
  0
VERTEX
  8
Default
 10
-271.928136052834
 20
-724.925217559333
 42
-0.1704453977003
  0
VERTEX
  8
Default
 10
-302.274210685495
 20
-761.042870338754
 42
0.0057757802036
  0
SEQEND
  0
POLYLINE
  8
Default
 66
     1
 10
0.0
 20
0.0
 30
0.0
 70
     1
  0
VERTEX
  8
Default
 10
-210.943334339152
 20
-499.962487046153
 42
-0.0174512440995
  0
VERTEX
  8
Default
 10
-210.486026564948
 20
-499.119628049151
 42
-0.0751322467001
  0
VERTEX
  8
Default
 10
-263.931922586292
 20
-485.981510657627
 42
-0.1111461329709
  0
VERTEX
  8
Default
 10
-330.051742291364
 20
-439.416629743796
 42
-0.0605638371674
  0
VERTEX
  8
Default
 10
-346.672152172048
 20
-415.015123104768
 42
0.0
  0
VERTEX
  8
Default
 10
-346.672152172048
 20
-635.924163154039
 42
-0.0935133431863
  0
VERTEX
  8
Default
 10
-302.697290743342
 20
-641.996932710788
 42
-0.0724687110323
  0
VERTEX
  8
Default
 10
-321.008550695778
 20
-609.219936758983
 42
-0.1346675953844
  0
VERTEX
  8
Default
 10
-325.875120472306
 20
-565.566292966469
 42
-0.2289924239241
  0
VERTEX
  8
Default
 10
-297.165196927435
 20
-524.832329526482
 42
-0.0401307285146
  0
VERTEX
  8
Default
 10
-288.86090710008
 20
-521.060076614868
 42
-0.1760498695828
  0
VERTEX
  8
Default
 10
-227.627453914246
 20
-523.554131395903
 42
-0.0342438999033
  0
VERTEX
  8
Default
 10
-210.883533318772
 20
-531.094977261583
 42
-0.2098492837422
  0
SEQEND
  0
POLYLINE
  8
Default
 66
     1
 10
0.0
 20
0.0
 30
0.0
 70
     1
  0
VERTEX
  8
Default
 10
-240.717959273474
 20
667.470810278995
 42
0.2493181371415
  0
VERTEX
  8
Default
 10
-232.210144428839
 20
647.691749454035
 42
0.0163971546048
  0
VERTEX
  8
Default
 10
-231.013721983245
 20
646.795279629525
 42
0.163281842818
  0
VERTEX
  8
Default
 10
-195.922840323762
 20
631.565953833705
 42
0.1588604731799
  0
VERTEX
  8
Default
 10
-147.381428389409
 20
639.504953519365
 42
0.2033576937437
  0
VERTEX
  8
Default
 10
-134.230840316513
 20
658.183332076725
 42
0.249318137135
  0
VERTEX
  8
Default
 10
-142.738655162489
 20
677.962392901625
 42
0.0163971545898
  0
VERTEX
  8
Default
 10
-143.935077607361
 20
678.858862725555
 42
0.1632818428449
  0
VERTEX
  8
Default
 10
-179.025959266438
 20
694.088188521085
 42
0.1588604732158
  0
VERTEX
  8
Default
 10
-227.567371203295
 20
686.149188833795
 42
0.2033576937389
  0
SEQEND
  0
POLYLINE
  8
Default
 66
     1
 10
0.0
 20
0.0
 30
0.0
 70
     1
  0
VERTEX
  8
Default
 10
-322.997937155893
 20
288.178113567865
 42
0.0854337643019
  0
VERTEX
  8
Default
 10
-317.321982394123
 20
278.952979084825
 42
0.1680195338059
  0
VERTEX
  8
Default
 10
-281.234611621126
 20
261.492408448715
 42
0.1776558464947
  0
VERTEX
  8
Default
 10
-179.092678305731
 20
284.630901143495
 42
0.1513538272571
  0
VERTEX
  8
Default
 10
-136.203099381448
 20
330.154677043375
 42
0.2515800856258
  0
VERTEX
  8
Default
 10
-136.116163059127
 20
367.397112898605
 42
0.1513198436559
  0
VERTEX
  8
Default
 10
-157.37910850002
 20
383.908399002515
 42
0.0847153290833
  0
VERTEX
  8
Default
 10
-187.317459856059
 20
390.281463275125
 42
0.0842302234093
  0
VERTEX
  8
Default
 10
-238.27192099981
 20
383.775111244665
 42
0.1435605979648
  0
VERTEX
  8
Default
 10
-310.500520579714
 20
336.269012562665
 42
0.0812772768446
  0
VERTEX
  8
Default
 10
-321.869703410718
 20
316.180989450575
 42
0.0222747389088
  0
VERTEX
  8
Default
 10
-324.155365430863
 20
308.751958639105
 42
0.1504846580535
  0
SEQEND
  0
POLYLINE
  8
Default
 66
     1
 10
0.0
 20
0.0
 30
0.0
 70
     1
  0
VERTEX
  8
Default
 10
-192.569118401154
 20
426.827960533675
 42
0.253973213263
  0
VERTEX
  8
Default
 10
-180.538343427001
 20
423.700836305715
 42
0.0206924881628
  0
VERTEX
  8
Default
 10
-179.515657104446
 20
424.000090015465
 42
0.0717758812098
  0
VERTEX
  8
Default
 10
-171.368690575964
 20
427.004261702735
 42
0.0756185619706
  0
VERTEX
  8
Default
 10
-164.061186305549
 20
432.554855277005
 42
0.1726704039781
  0
VERTEX
  8
Default
 10
-155.573512403604
 20
451.266534616565
 42
0.0331020006649
  0
VERTEX
  8
Default
 10
-155.53605360496
 20
452.812155688875
 42
0.2229241951488
  0
VERTEX
  8
Default
 10
-160.7903182794
 20
462.980144366895
 42
0.2172335639743
  0
VERTEX
  8
Default
 10
-171.520086762942
 20
465.478691732445
 42
0.1496249184449
  0
VERTEX
  8
Default
 10
-187.114629028436
 20
457.795578933975
 42
0.1363057521901
  0
VERTEX
  8
Default
 10
-195.401485233586
 20
444.080469859865
 42
0.2475568694751
  0
SEQEND
  0
POLYLINE
  8
Default
 66
     1
 10
0.0
 20
0.0
 30
0.0
 70
     1
  0
VERTEX
  8
Default
 10
-74.864011124029
 20
642.624934393805
 42
0.2539732133033
  0
VERTEX
  8
Default
 10
-62.833236153064
 20
639.497810162695
 42
0.0206924882131
  0
VERTEX
  8
Default
 10
-61.810549828281
 20
639.797063872965
 42
0.071775881214
  0
VERTEX
  8
Default
 10
-53.663583299466
 20
642.801235559365
 42
0.0756185619695
  0
VERTEX
  8
Default
 10
-46.356079028428
 20
648.351829132865
 42
0.1726704039774
  0
VERTEX
  8
Default
 10
-37.868405124404
 20
667.063508471815
 42
0.0331020007591
  0
VERTEX
  8
Default
 10
-37.830946325526
 20
668.609129548165
 42
0.2229241951495
  0
VERTEX
  8
Default
 10
-43.085211001282
 20
678.777118225875
 42
0.2172335639649
  0
VERTEX
  8
Default
 10
-53.814979484769
 20
681.275665590395
 42
0.1496249184332
  0
VERTEX
  8
Default
 10
-69.409521750767
 20
673.592552789245
 42
0.1363057521342
  0
VERTEX
  8
Default
 10
-77.696377953645
 20
659.877443719465
 42
0.24755686943
  0
SEQEND
  0
POLYLINE
  8
Default
 66
     1
 10
0.0
 20
0.0
 30
0.0
 70
     1
  0
VERTEX
  8
Default
 10
-303.397916721211
 20
680.439659853515
 42
0.1074239827594
  0
VERTEX
  8
Default
 10
-346.672152227175
 20
695.686567221635
 42
0.0
  0
VERTEX
  8
Default
 10
-346.672152227175
 20
578.963590923695
 42
0.0944341629565
  0
VERTEX
  8
Default
 10
-313.996732986689
 20
582.303193328905
 42
0.0780407957755
  0
VERTEX
  8
Default
 10
-289.347053230235
 20
594.136132031405
 42
0.0145996880611
  0
VERTEX
  8
Default
 10
-285.501001123708
 20
596.934828068785
 42
0.1569568185228
  0
VERTEX
  8
Default
 10
-271.108694317069
 20
618.237790017355
 42
0.1584604783367
  0
VERTEX
  8
Default
 10
-271.92813609603
 20
644.193835998745
 42
0.1701185039812
  0
VERTEX
  8
Default
 10
-302.096645667507
 20
679.696790731615
 42
-0.0064004595369
  0
SEQEND
  0
POLYLINE
  8
Default
 66
     1
 10
0.0
 20
0.0
 30
0.0
 70
     1
  0
VERTEX
  8
Default
 10
-210.943334372612
 20
422.467980942685
 42
0.0175836417738
  0
VERTEX
  8
Default
 10
-210.486026598335
 20
421.637249419385
 42
0.0744967886427
  0
VERTEX
  8
Default
 10
-263.660308948384
 20
408.852979202905
 42
0.1108132878913
  0
VERTEX
  8
Default
 10
-330.051742343836
 20
362.793287495275
 42
0.0609668048042
  0
VERTEX
  8
Default
 10
-346.672152227174
 20
338.742881848725
 42
0.0
  0
VERTEX
  8
Default
 10
-346.672152227176
 20
556.473372951875
 42
0.0923031164585
  0
VERTEX
  8
Default
 10
-302.697290791449
 20
562.458764485205
 42
0.0729426421942
  0
VERTEX
  8
Default
 10
-320.974996236842
 20
530.239929935675
 42
0.136909706515
  0
VERTEX
  8
Default
 10
-325.875120524114
 20
487.127846732145
 42
0.2286511295826
  0
VERTEX
  8
Default
 10
-297.346133686775
 20
447.050157473855
 42
0.0413658858225
  0
VERTEX
  8
Default
 10
-288.860907145977
 20
443.262007918055
 42
0.1735291357745
  0
VERTEX
  8
Default
 10
-227.627453950369
 20
445.720177000645
 42
0.0339367920378
  0
VERTEX
  8
Default
 10
-210.883533352221
 20
453.152521432095
 42
0.2129000171992
  0
SEQEND
  0
POLYLINE
  8
Default
 66
     1
 10
0.0
 20
0.0
 30
0.0
 70
     1
  0
VERTEX
  8
Default
 10
-316.234307332858
 20
756.308536350015
 42
0.1194612921951
  0
VERTEX
  8
Default
 10
-308.68296115784
 20
758.049820738695
 42
0.1521778734509
  0
VERTEX
  8
Default
 10
-301.645592109318
 20
764.860331503485
 42
0.1791352579627
  0
VERTEX
  8
Default
 10
-292.132999191278
 20
797.099049955995
 42
0.1610288375546
  0
VERTEX
  8
Default
 10
-303.232625487905
 20
831.945071877095
 42
0.2711661592119
  0
VERTEX
  8
Default
 10
-320.285351449077
 20
837.452364827305
 42
0.0888233017024
  0
VERTEX
  8
Default
 10
-327.219731038179
 20
833.457319684985
 42
0.1338311639277
  0
VERTEX
  8
Default
 10
-333.947442560262
 20
823.669414244875
 42
0.2130160061565
  0
VERTEX
  8
Default
 10
-335.851333101203
 20
774.892623988625
 42
0.0394986380927
  0
VERTEX
  8
Default
 10
-331.669591225825
 20
766.445061884465
 42
0.2120323958258
  0
SEQEND
  0
POLYLINE
  8
Default
 66
     1
 10
0.0
 20
0.0
 30
0.0
 70
     1
  0
VERTEX
  8
Default
 10
-292.146648208035
 20
477.797599263895
 42
0.1722850361133
  0
VERTEX
  8
Default
 10
-275.016865443225
 20
467.751193923065
 42
0.1571774697457
  0
VERTEX
  8
Default
 10
-239.518450027812
 20
470.713771285625
 42
0.062221481686
  0
VERTEX
  8
Default
 10
-212.750660004753
 20
483.758066860895
 42
0.0681493282547
  0
VERTEX
  8
Default
 10
-188.029082939071
 20
505.252506229135
 42
0.0485901418082
  0
VERTEX
  8
Default
 10
-174.114966568963
 20
524.810326739985
 42
0.1264953353508
  0
VERTEX
  8
Default
 10
-164.181417494591
 20
561.327593532345
 42
0.2403001235031
  0
VERTEX
  8
Default
 10
-178.54902658739
 20
585.770940173445
 42
0.0597423447238
  0
VERTEX
  8
Default
 10
-185.19003682403
 20
588.966097174355
 42
0.1691843837973
  0
VERTEX
  8
Default
 10
-220.37437357567
 20
588.050288923105
 42
0.1380598878344
  0
VERTEX
  8
Default
 10
-273.017938352155
 20
554.755445077415
 42
-0.0045261016674
  0
VERTEX
  8
Default
 10
-275.437721180389
 20
552.039791795055
 42
0.1217052525843
  0
VERTEX
  8
Default
 10
-298.606630476407
 20
508.087114937905
 42
0.1983534477737
  0
SEQEND
  0
POLYLINE
  8
Default
 66
     1
 10
0.0
 20
0.0
 30
0.0
 70
     1
  0
VERTEX
  8
Default
 10
-322.997937104546
 20
-363.712182645462
 42
0.1483864135489
  0
VERTEX
  8
Default
 10
-324.15451734816
 20
-384.535182668077
 42
0.0872339341886
  0
VERTEX
  8
Default
 10
-314.217529373436
 20
-407.390916690605
 42
0.0370672346057
  0
VERTEX
  8
Default
 10
-308.923695162585
 20
-414.367000517812
 42
0.1653905560612
  0
VERTEX
  8
Default
 10
-224.450905730259
 20
-464.235342435833
 42
0.0564724445832
  0
VERTEX
  8
Default
 10
-190.399402546273
 20
-467.399605111105
 42
0.0899452380172
  0
VERTEX
  8
Default
 10
-158.66674106749
 20
-461.348047180214
 42
0.0701300482644
  0
VERTEX
  8
Default
 10
-146.948064331723
 20
-455.169210617273
 42
0.075082454545
  0
VERTEX
  8
Default
 10
-137.232241328123
 20
-445.634387929039
 42
0.2661214240947
  0
VERTEX
  8
Default
 10
-136.20309935992
 20
-406.301542982471
 42
0.144083177081
  0
VERTEX
  8
Default
 10
-175.973359982884
 20
-362.130035737875
 42
0.1902964916486
  0
VERTEX
  8
Default
 10
-283.645277796334
 20
-336.975715852412
 42
0.1588611743633
  0
VERTEX
  8
Default
 10
-317.321982343681
 20
-354.352374597248
 42
0.0840188164309
  0
SEQEND
  0
POLYLINE
  8
Default
 66
     1
 10
0.0
 20
0.0
 30
0.0
 70
     1
  0
VERTEX
  8
Default
 10
-240.717959235261
 20
-748.542001857421
 42
0.2044844620245
  0
VERTEX
  8
Default
 10
-227.567371167183
 20
-767.493057611307
 42
0.1614534395386
  0
VERTEX
  8
Default
 10
-179.025959238075
 20
-775.547955163719
 42
0.163675746692
  0
VERTEX
  8
Default
 10
-143.9350775846
 20
-760.096303330099
 42
0.2617509480462
  0
VERTEX
  8
Default
 10
-134.230840295299
 20
-739.118939962194
 42
0.2044844620288
  0
VERTEX
  8
Default
 10
-147.381428366097
 20
-720.167884205712
 42
0.1614534395015
  0
VERTEX
  8
Default
 10
-195.922840292701
 20
-712.112986654978
 42
0.1636757466628
  0
VERTEX
  8
Default
 10
-231.013721946581
 20
-727.564638488875
 42
0.2617509480973
  0
SEQEND
  0
POLYLINE
  8
Default
 66
     1
 10
0.0
 20
0.0
 30
0.0
 70
     1
  0
VERTEX
  8
Default
 10
-458.589347032322
 20
-640.312608465989
 42
0.0
  0
VERTEX
  8
Default
 10
-458.589347032322
 20
-686.072579249057
 42
0.0
  0
VERTEX
  8
Default
 10
-394.292676576992
 20
-686.072579249057
 42
0.0
  0
VERTEX
  8
Default
 10
-394.292676576993
 20
-777.416036079418
 42
0.0
  0
VERTEX
  8
Default
 10
-424.437019749032
 20
-777.416036079418
 42
0.0
  0
VERTEX
  8
Default
 10
-424.437019749032
 20
-758.116169614155
 42
0.0
  0
VERTEX
  8
Default
 10
-405.089463108406
 20
-758.116169614155
 42
0.0
  0
VERTEX
  8
Default
 10
-405.089463108407
 20
-701.72929652525
 42
0.0247442785516
  0
VERTEX
  8
Default
 10
-458.589347032323
 20
-701.905781261041
 42
0.0
  0
VERTEX
  8
Default
 10
-458.590862051829
 20
-767.003436667075
 42
0.0
  0
VERTEX
  8
Default
 10
-469.99971646491
 20
-767.003436667075
 42
0.0
  0
VERTEX
  8
Default
 10
-470.00000150968
 20
-640.30753095365
 42
0.0
  0
SEQEND
  0
POLYLINE
  8
Default
 66
     1
 10
0.0
 20
0.0
 30
0.0
 70
     1
  0
VERTEX
  8
Default
 10
-446.857793463809
 20
-640.312608465989
 42
0.0
  0
VERTEX
  8
Default
 10
-446.857793463809
 20
-575.025862271591
 42
0.0
  0
VERTEX
  8
Default
 10
-416.821016676921
 20
-575.025862271591
 42
0.0
  0
VERTEX
  8
Default
 10
-416.821016676921
 20
-593.796274529448
 42
0.0
  0
VERTEX
  8
Default
 10
-436.168573317546
 20
-593.796274529448
 42
0.0
  0
VERTEX
  8
Default
 10
-436.168353364266
 20
-650.713827337108
 42
0.0
  0
VERTEX
  8
Default
 10
-382.561492242861
 20
-650.713827337108
 42
0.0
  0
VERTEX
  8
Default
 10
-382.561492242861
 20
-640.30753095365
 42
0.0
  0
VERTEX
  8
Default
 10
-371.337858485268
 20
-640.312608465989
 42
0.0
  0
VERTEX
  8
Default
 10
-371.337858485268
 20
-767.003436667075
 42
0.0
  0
VERTEX
  8
Default
 10
-382.561492242861
 20
-767.00641298999
 42
0.0
  0
VERTEX
  8
Default
 10
-382.561880518235
 20
-666.545803837777
 42
0.0
  0
VERTEX
  8
Default
 10
-446.857657675612
 20
-666.545628672656
 42
0.0
  0
SEQEND
  0
POLYLINE
  8
Default
 66
     1
 10
0.0
 20
0.0
 30
0.0
 70
     1
  0
VERTEX
  8
Default
 10
-436.168353364266
 20
-796.935632930488
 42
0.0
  0
VERTEX
  8
Default
 10
-382.561492242861
 20
-796.935632930488
 42
0.0
  0
VERTEX
  8
Default
 10
-382.561492242861
 20
-786.529336547011
 42
0.0
  0
VERTEX
  8
Default
 10
-371.337858485268
 20
-786.530212078356
 42
0.0
  0
VERTEX
  8
Default
 10
-371.33772267249
 20
-913.228218583351
 42
0.0
  0
VERTEX
  8
Default
 10
-382.561123008484
 20
-913.233646332014
 42
0.0
  0
VERTEX
  8
Default
 10
-382.561880518184
 20
-812.763407450136
 42
0.0
  0
VERTEX
  8
Default
 10
-446.857657675484
 20
-812.767434265994
 42
0.0
  0
VERTEX
  8
Default
 10
-446.857793463809
 20
-721.243465883991
 42
0.0
  0
VERTEX
  8
Default
 10
-416.82101667692
 20
-721.243465883991
 42
0.0
  0
VERTEX
  8
Default
 10
-416.82101667692
 20
-740.013878141829
 42
0.0
  0
VERTEX
  8
Default
 10
-436.168573317546
 20
-740.013878141829
 42
0.0
  0
SEQEND
  0
POLYLINE
  8
Default
 66
     1
 10
0.0
 20
0.0
 30
0.0
 70
     1
  0
VERTEX
  8
Default
 10
-458.589347032322
 20
-786.530212078355
 42
0.0
  0
VERTEX
  8
Default
 10
-458.589347032322
 20
-832.290182861456
 42
0.0
  0
VERTEX
  8
Default
 10
-394.292676576993
 20
-832.290182861456
 42
0.0
  0
VERTEX
  8
Default
 10
-394.292676576993
 20
-923.633639691801
 42
0.0
  0
VERTEX
  8
Default
 10
-424.437019749032
 20
-923.633639691801
 42
0.0
  0
VERTEX
  8
Default
 10
-424.437019749032
 20
-904.333773226554
 42
0.0
  0
VERTEX
  8
Default
 10
-405.089463108406
 20
-904.333773226554
 42
0.0
  0
VERTEX
  8
Default
 10
-405.089463108403
 20
-847.946900137646
 42
0.0252798916025
  0
VERTEX
  8
Default
 10
-458.589347032323
 20
-848.135990926013
 42
0.0
  0
VERTEX
  8
Default
 10
-458.590862051829
 20
-913.233646332014
 42
0.0
  0
VERTEX
  8
Default
 10
-469.99971646491
 20
-913.233646332014
 42
0.0
  0
VERTEX
  8
Default
 10
-470.00000150968
 20
-786.529336547011
 42
0.0
  0
SEQEND
  0
POLYLINE
  8
Default
 66
     1
 10
0.0
 20
0.0
 30
0.0
 70
     1
  0
VERTEX
  8
Default
 10
-458.589347032322
 20
90.800621701095
 42
0.0
  0
VERTEX
  8
Default
 10
-458.589347032322
 20
45.040650918005
 42
0.0
  0
VERTEX
  8
Default
 10
-394.292676576992
 20
45.040650918005
 42
0.0
  0
VERTEX
  8
Default
 10
-394.292676576992
 20
-46.302805912344
 42
0.0
  0
VERTEX
  8
Default
 10
-424.437019749032
 20
-46.302805912344
 42
0.0
  0
VERTEX
  8
Default
 10
-424.437019749032
 20
-27.0029394470839
 42
0.0
  0
VERTEX
  8
Default
 10
-405.089463108407
 20
-27.0029394470839
 42
0.0
  0
VERTEX
  8
Default
 10
-405.089463108407
 20
29.383933641825
 42
0.0247442785535
  0
VERTEX
  8
Default
 10
-458.589347032322
 20
29.2074489060151
 42
0.0
  0
VERTEX
  8
Default
 10
-458.590862051829
 20
-35.8902065000029
 42
0.0
  0
VERTEX
  8
Default
 10
-469.999716464909
 20
-35.8902065000029
 42
0.0
  0
VERTEX
  8
Default
 10
-470.00000150968
 20
90.805699213435
 42
0.0
  0
SEQEND
  0
POLYLINE
  8
Default
 66
     1
 10
0.0
 20
0.0
 30
0.0
 70
     1
  0
VERTEX
  8
Default
 10
-446.857793463809
 20
-347.864795188651
 42
0.0
  0
VERTEX
  8
Default
 10
-446.857793463809
 20
-282.578048994254
 42
0.0
  0
VERTEX
  8
Default
 10
-416.821016676921
 20
-282.578048994254
 42
0.0
  0
VERTEX
  8
Default
 10
-416.821016676921
 20
-301.348461252123
 42
0.0
  0
VERTEX
  8
Default
 10
-436.168573317546
 20
-301.348461252123
 42
0.0
  0
VERTEX
  8
Default
 10
-436.168353364266
 20
-358.266013950118
 42
0.0
  0
VERTEX
  8
Default
 10
-382.561492242861
 20
-358.266013950118
 42
0.0
  0
VERTEX
  8
Default
 10
-382.561492242861
 20
-347.859717566643
 42
0.0
  0
VERTEX
  8
Default
 10
-371.337858485268
 20
-347.864795188651
 42
0.0
  0
VERTEX
  8
Default
 10
-371.337858485268
 20
-474.555623389735
 42
0.0
  0
VERTEX
  8
Default
 10
-382.561492242861
 20
-474.558599602985
 42
0.0
  0
VERTEX
  8
Default
 10
-382.561880518235
 20
-374.097990560422
 42
0.0
  0
VERTEX
  8
Default
 10
-446.857657675612
 20
-374.097815285667
 42
0.0
  0
SEQEND
  0
POLYLINE
  8
Default
 66
     1
 10
0.0
 20
0.0
 30
0.0
 70
     1
  0
VERTEX
  8
Default
 10
-436.168353364266
 20
-504.487819543465
 42
0.0
  0
VERTEX
  8
Default
 10
-382.561492242861
 20
-504.487819543465
 42
0.0
  0
VERTEX
  8
Default
 10
-382.561492242861
 20
-494.081523160006
 42
0.0
  0
VERTEX
  8
Default
 10
-371.337858485268
 20
-494.082398801017
 42
0.0
  0
VERTEX
  8
Default
 10
-371.337722684327
 20
-620.780405196345
 42
0.0
  0
VERTEX
  8
Default
 10
-382.561123008484
 20
-620.785833054675
 42
0.0
  0
VERTEX
  8
Default
 10
-382.561880518274
 20
-520.31559417287
 42
0.0
  0
VERTEX
  8
Default
 10
-446.857657675656
 20
-520.319620879067
 42
0.0
  0
VERTEX
  8
Default
 10
-446.857793463809
 20
-428.795652606653
 42
0.0
  0
VERTEX
  8
Default
 10
-416.821016676921
 20
-428.795652606653
 42
0.0
  0
VERTEX
  8
Default
 10
-416.821016676921
 20
-447.566064864508
 42
0.0
  0
VERTEX
  8
Default
 10
-436.168573317546
 20
-447.566064864508
 42
0.0
  0
SEQEND
  0
POLYLINE
  8
Default
 66
     1
 10
0.0
 20
0.0
 30
0.0
 70
     1
  0
VERTEX
  8
Default
 10
-458.589347032322
 20
-494.082398801017
 42
0.0
  0
VERTEX
  8
Default
 10
-458.589347032322
 20
-539.842369584118
 42
0.0
  0
VERTEX
  8
Default
 10
-394.292676576992
 20
-539.842369584118
 42
0.0
  0
VERTEX
  8
Default
 10
-394.292676576992
 20
-631.185826414461
 42
0.0
  0
VERTEX
  8
Default
 10
-424.437019749032
 20
-631.185826414461
 42
0.0
  0
VERTEX
  8
Default
 10
-424.437019749032
 20
-611.885959949216
 42
0.0
  0
VERTEX
  8
Default
 10
-405.089463108407
 20
-611.885959949216
 42
0.0
  0
VERTEX
  8
Default
 10
-405.08946310841
 20
-555.499086860311
 42
0.0252798916038
  0
VERTEX
  8
Default
 10
-458.589347032322
 20
-555.688177648674
 42
0.0
  0
VERTEX
  8
Default
 10
-458.590862051831
 20
-620.785833054675
 42
0.0
  0
VERTEX
  8
Default
 10
-469.999716464912
 20
-620.785833054675
 42
0.0
  0
VERTEX
  8
Default
 10
-470.00000150968
 20
-494.081523160006
 42
0.0
  0
SEQEND
  0
POLYLINE
  8
Default
 66
     1
 10
0.0
 20
0.0
 30
0.0
 70
     1
  0
VERTEX
  8
Default
 10
-458.589347032322
 20
-347.864795188651
 42
0.0
  0
VERTEX
  8
Default
 10
-458.589347032322
 20
-393.624765971719
 42
0.0
  0
VERTEX
  8
Default
 10
-394.292676576992
 20
-393.624765971719
 42
0.0
  0
VERTEX
  8
Default
 10
-394.292676576992
 20
-484.968222802079
 42
0.0
  0
VERTEX
  8
Default
 10
-424.437019749032
 20
-484.968222802079
 42
0.0
  0
VERTEX
  8
Default
 10
-424.437019749034
 20
-465.668356336817
 42
0.0
  0
VERTEX
  8
Default
 10
-405.089463108405
 20
-465.668356336817
 42
0.0
  0
VERTEX
  8
Default
 10
-405.089463108407
 20
-409.281483247911
 42
0.0247442785513
  0
VERTEX
  8
Default
 10
-458.589347032322
 20
-409.45796798372
 42
0.0
  0
VERTEX
  8
Default
 10
-458.590862051829
 20
-474.555623389735
 42
0.0
  0
VERTEX
  8
Default
 10
-469.999716464909
 20
-474.555623389735
 42
0.0
  0
VERTEX
  8
Default
 10
-470.00000150968
 20
-347.859717566643
 42
0.0
  0
SEQEND
  0
POLYLINE
  8
Default
 66
     1
 10
0.0
 20
0.0
 30
0.0
 70
     1
  0
VERTEX
  8
Default
 10
-446.857657675612
 20
-227.876009692305
 42
0.0
  0
VERTEX
  8
Default
 10
-446.857793463804
 20
-136.360445381871
 42
-0.0006020438497
  0
VERTEX
  8
Default
 10
-416.821016676908
 20
-136.347839329318
 42
0.0
  0
VERTEX
  8
Default
 10
-416.821016676921
 20
-155.11825158717
 42
0.0
  0
VERTEX
  8
Default
 10
-436.168573317546
 20
-155.11825158717
 42
0.0
  0
VERTEX
  8
Default
 10
-436.168353364267
 20
-212.044208356758
 42
0.0
  0
VERTEX
  8
Default
 10
-382.561492242861
 20
-212.044208356758
 42
0.0
  0
VERTEX
  8
Default
 10
-382.561492242861
 20
-201.637911973282
 42
0.0
  0
VERTEX
  8
Default
 10
-371.337858485268
 20
-201.634585523679
 42
0.0
  0
VERTEX
  8
Default
 10
-371.337858485268
 20
-328.338019777338
 42
0.0
  0
VERTEX
  8
Default
 10
-382.561492242861
 20
-328.33679400964
 42
0.0
  0
VERTEX
  8
Default
 10
-382.56188051816
 20
-227.880386948072
 42
0.0
  0
SEQEND
  0
POLYLINE
  8
Default
 66
     1
 10
0.0
 20
0.0
 30
0.0
 70
     1
  0
VERTEX
  8
Default
 10
-458.589347032322
 20
-201.634585523679
 42
0.0
  0
VERTEX
  8
Default
 10
-458.589347032322
 20
-247.39455630678
 42
0.0
  0
VERTEX
  8
Default
 10
-394.292676576992
 20
-247.39455630678
 42
0.0
  0
VERTEX
  8
Default
 10
-394.292676577014
 20
-338.738013137114
 42
-0.0002613834386
  0
VERTEX
  8
Default
 10
-424.437019749004
 20
-338.738013137114
 42
0.0
  0
VERTEX
  8
Default
 10
-424.437019749032
 20
-319.438146671863
 42
0.0
  0
VERTEX
  8
Default
 10
-405.089463108407
 20
-319.438146671863
 42
0.0
  0
VERTEX
  8
Default
 10
-405.089463108411
 20
-263.051273582973
 42
0.0252798916849
  0
VERTEX
  8
Default
 10
-458.589347032322
 20
-263.240364371338
 42
0.0
  0
VERTEX
  8
Default
 10
-458.590862051829
 20
-328.338019777338
 42
0.0
  0
VERTEX
  8
Default
 10
-469.999716464909
 20
-328.338019777338
 42
0.0
  0
VERTEX
  8
Default
 10
-470.00000150968
 20
-201.637911973282
 42
0.0
  0
SEQEND
  0
POLYLINE
  8
Default
 66
     1
 10
0.0
 20
0.0
 30
0.0
 70
     1
  0
VERTEX
  8
Default
 10
-436.168353364267
 20
-65.8224027634169
 42
0.0
  0
VERTEX
  8
Default
 10
-382.561492242861
 20
-65.8224027634169
 42
0.0
  0
VERTEX
  8
Default
 10
-382.561492242861
 20
-55.4161063799389
 42
0.0
  0
VERTEX
  8
Default
 10
-371.337858485268
 20
-55.416981911309
 42
0.0
  0
VERTEX
  8
Default
 10
-371.33772267249
 20
-182.114988416276
 42
0.0
  0
VERTEX
  8
Default
 10
-382.561123008484
 20
-182.120416164939
 42
0.0
  0
VERTEX
  8
Default
 10
-382.561880518274
 20
-81.6501772830979
 42
0.0
  0
VERTEX
  8
Default
 10
-446.857657675651
 20
-81.6542040989559
 42
0.0
  0
VERTEX
  8
Default
 10
-446.857793463809
 20
9.869764283075
 42
0.0
  0
VERTEX
  8
Default
 10
-416.821016676921
 20
9.869764283075
 42
0.0
  0
VERTEX
  8
Default
 10
-416.821016676921
 20
-8.900647974771
 42
0.0
  0
VERTEX
  8
Default
 10
-436.168573317546
 20
-8.900647974771
 42
0.0
  0
SEQEND
  0
POLYLINE
  8
Default
 66
     1
 10
0.0
 20
0.0
 30
0.0
 70
     1
  0
VERTEX
  8
Default
 10
-458.589347032322
 20
-55.416981911309
 42
0.0
  0
VERTEX
  8
Default
 10
-458.589347032322
 20
-101.176952694381
 42
0.0
  0
VERTEX
  8
Default
 10
-394.292676576992
 20
-101.176952694381
 42
0.0
  0
VERTEX
  8
Default
 10
-394.292676576992
 20
-192.520409524741
 42
0.0
  0
VERTEX
  8
Default
 10
-424.437019749032
 20
-192.520409524741
 42
0.0
  0
VERTEX
  8
Default
 10
-424.437019749032
 20
-173.22054305948
 42
0.0
  0
VERTEX
  8
Default
 10
-405.089463108407
 20
-173.22054305948
 42
0.0
  0
VERTEX
  8
Default
 10
-405.089463108404
 20
-116.833669970574
 42
0.0252798916031
  0
VERTEX
  8
Default
 10
-458.589347032322
 20
-117.022760758943
 42
0.0
  0
VERTEX
  8
Default
 10
-458.590862051829
 20
-182.120416164939
 42
0.0
  0
VERTEX
  8
Default
 10
-469.999716464909
 20
-182.120416164939
 42
0.0
  0
VERTEX
  8
Default
 10
-470.00000150968
 20
-55.4161063799389
 42
0.0
  0
SEQEND
  0
POLYLINE
  8
Default
 66
     1
 10
0.0
 20
0.0
 30
0.0
 70
     1
  0
VERTEX
  8
Default
 10
-416.821016676923
 20
154.628893255405
 42
0.0
  0
VERTEX
  8
Default
 10
-416.821016676921
 20
137.316955637625
 42
0.0
  0
VERTEX
  8
Default
 10
-436.168573317545
 20
137.316955637625
 42
0.0
  0
VERTEX
  8
Default
 10
-436.168353364267
 20
80.3994028299651
 42
0.0
  0
VERTEX
  8
Default
 10
-382.561492242861
 20
80.3994028299651
 42
0.0
  0
VERTEX
  8
Default
 10
-382.561492242861
 20
90.805699213435
 42
0.0
  0
VERTEX
  8
Default
 10
-371.337858485268
 20
90.800621701095
 42
0.0
  0
VERTEX
  8
Default
 10
-371.337858485268
 20
-35.8902065000029
 42
0.0
  0
VERTEX
  8
Default
 10
-382.561492242861
 20
-35.8931828229089
 42
0.0
  0
VERTEX
  8
Default
 10
-382.561880518235
 20
64.5674263293051
 42
0.0
  0
VERTEX
  8
Default
 10
-446.857657675612
 20
64.5676014944152
 42
0.0
  0
VERTEX
  8
Default
 10
-446.857793463807
 20
154.628893255405
 42
0.0
  0
SEQEND
  0
POLYLINE
  8
Default
 66
     1
 10
0.0
 20
0.0
 30
0.0
 70
     1
  0
VERTEX
  8
Default
 10
-446.857793463809
 20
237.018225313495
 42
0.0
  0
VERTEX
  8
Default
 10
-446.857793463809
 20
302.304971507865
 42
0.0
  0
VERTEX
  8
Default
 10
-416.821016676921
 20
302.304971507865
 42
0.0
  0
VERTEX
  8
Default
 10
-416.821016676921
 20
283.534559250005
 42
0.0
  0
VERTEX
  8
Default
 10
-436.168573317545
 20
283.534559250005
 42
0.0
  0
VERTEX
  8
Default
 10
-436.168353364267
 20
226.617006552005
 42
0.0
  0
VERTEX
  8
Default
 10
-382.561492242861
 20
226.617006552005
 42
0.0
  0
VERTEX
  8
Default
 10
-382.561492242861
 20
237.023302935475
 42
0.0
  0
VERTEX
  8
Default
 10
-371.337858485268
 20
237.018225313495
 42
0.0
  0
VERTEX
  8
Default
 10
-371.337858485268
 20
110.327397112395
 42
0.0
  0
VERTEX
  8
Default
 10
-382.561492242861
 20
110.324420899145
 42
0.0
  0
VERTEX
  8
Default
 10
-382.561880518235
 20
210.785029941685
 42
0.0
  0
VERTEX
  8
Default
 10
-446.857657675612
 20
210.785205216475
 42
0.0
  0
SEQEND
  0
POLYLINE
  8
Default
 66
     1
 10
0.0
 20
0.0
 30
0.0
 70
     1
  0
VERTEX
  8
Default
 10
-458.589347032322
 20
237.018225313495
 42
0.0
  0
VERTEX
  8
Default
 10
-458.589347032322
 20
191.258254530405
 42
0.0
  0
VERTEX
  8
Default
 10
-394.292676576992
 20
191.258254530405
 42
0.0
  0
VERTEX
  8
Default
 10
-394.292676576992
 20
99.914797700045
 42
0.0
  0
VERTEX
  8
Default
 10
-424.437019749032
 20
99.914797700045
 42
0.0
  0
VERTEX
  8
Default
 10
-424.437019749034
 20
119.214664165305
 42
0.0
  0
VERTEX
  8
Default
 10
-405.089463108405
 20
119.214664165305
 42
0.0
  0
VERTEX
  8
Default
 10
-405.089463108407
 20
175.601537254215
 42
0.0247442785508
  0
VERTEX
  8
Default
 10
-458.589347032322
 20
175.425052518405
 42
0.0
  0
VERTEX
  8
Default
 10
-458.590862051829
 20
110.327397112395
 42
0.0
  0
VERTEX
  8
Default
 10
-469.999716464909
 20
110.327397112395
 42
0.0
  0
VERTEX
  8
Default
 10
-470.00000150968
 20
237.023302935475
 42
0.0
  0
SEQEND
  0
POLYLINE
  8
Default
 66
     1
 10
0.0
 20
0.0
 30
0.0
 70
     1
  0
VERTEX
  8
Default
 10
-446.857657675612
 20
357.007010809815
 42
0.0
  0
VERTEX
  8
Default
 10
-446.857793463815
 20
448.522575120235
 42
-0.0006020438495
  0
VERTEX
  8
Default
 10
-416.821016676919
 20
448.535181172815
 42
0.0
  0
VERTEX
  8
Default
 10
-416.821016676921
 20
429.764768914945
 42
0.0
  0
VERTEX
  8
Default
 10
-436.168573317545
 20
429.764768914945
 42
0.0
  0
VERTEX
  8
Default
 10
-436.168353364267
 20
372.838812145355
 42
0.0
  0
VERTEX
  8
Default
 10
-382.561492242861
 20
372.838812145355
 42
0.0
  0
VERTEX
  8
Default
 10
-382.561492242861
 20
383.245108528835
 42
0.0
  0
VERTEX
  8
Default
 10
-371.337858485268
 20
383.248434978445
 42
0.0
  0
VERTEX
  8
Default
 10
-371.337858485268
 20
256.545000724775
 42
0.0
  0
VERTEX
  8
Default
 10
-382.561492242861
 20
256.546226492495
 42
0.0
  0
VERTEX
  8
Default
 10
-382.56188051816
 20
357.002633554045
 42
0.0
  0
SEQEND
  0
POLYLINE
  8
Default
 66
     1
 10
0.0
 20
0.0
 30
0.0
 70
     1
  0
VERTEX
  8
Default
 10
-458.589347032322
 20
383.248434978445
 42
0.0
  0
VERTEX
  8
Default
 10
-458.589347032322
 20
337.488464195335
 42
0.0
  0
VERTEX
  8
Default
 10
-394.292676576992
 20
337.488464195335
 42
0.0
  0
VERTEX
  8
Default
 10
-394.292676576972
 20
246.145007364985
 42
-0.0002613834388
  0
VERTEX
  8
Default
 10
-424.43701974896
 20
246.145007364985
 42
0.0
  0
VERTEX
  8
Default
 10
-424.437019749032
 20
265.444873830275
 42
0.0
  0
VERTEX
  8
Default
 10
-405.089463108407
 20
265.444873830275
 42
0.0
  0
VERTEX
  8
Default
 10
-405.08946310841
 20
321.831746919165
 42
0.0252798916851
  0
VERTEX
  8
Default
 10
-458.589347032322
 20
321.642656130785
 42
0.0
  0
VERTEX
  8
Default
 10
-458.590862051829
 20
256.545000724775
 42
0.0
  0
VERTEX
  8
Default
 10
-469.999716464909
 20
256.545000724775
 42
0.0
  0
VERTEX
  8
Default
 10
-470.00000150968
 20
383.245108528835
 42
0.0
  0
SEQEND
  0
POLYLINE
  8
Default
 66
     1
 10
0.0
 20
0.0
 30
0.0
 70
     1
  0
VERTEX
  8
Default
 10
-458.589347032322
 20
529.466038590845
 42
0.0
  0
VERTEX
  8
Default
 10
-458.589347032322
 20
483.706067807725
 42
0.0
  0
VERTEX
  8
Default
 10
-394.292676576992
 20
483.706067807725
 42
0.0
  0
VERTEX
  8
Default
 10
-394.292676576992
 20
392.362610977405
 42
0.0
  0
VERTEX
  8
Default
 10
-424.437019749032
 20
392.362610977405
 42
0.0
  0
VERTEX
  8
Default
 10
-424.437019749031
 20
411.662477442645
 42
0.0
  0
VERTEX
  8
Default
 10
-405.089463108407
 20
411.662477442645
 42
0.0
  0
VERTEX
  8
Default
 10
-405.089463108406
 20
468.049350531555
 42
0.025279891604
  0
VERTEX
  8
Default
 10
-458.589347032322
 20
467.860259743185
 42
0.0
  0
VERTEX
  8
Default
 10
-458.590862051829
 20
402.762604337175
 42
0.0
  0
VERTEX
  8
Default
 10
-469.999716464909
 20
402.762604337175
 42
0.0
  0
VERTEX
  8
Default
 10
-470.00000150968
 20
529.466914122195
 42
0.0
  0
SEQEND
  0
POLYLINE
  8
Default
 66
     1
 10
0.0
 20
0.0
 30
0.0
 70
     1
  0
VERTEX
  8
Default
 10
-458.589347032322
 20
675.683642203195
 42
0.0
  0
VERTEX
  8
Default
 10
-458.589347032322
 20
629.923671420115
 42
0.0
  0
VERTEX
  8
Default
 10
-394.292676576992
 20
629.923671420115
 42
0.0
  0
VERTEX
  8
Default
 10
-394.292676576992
 20
538.580214589765
 42
0.0
  0
VERTEX
  8
Default
 10
-424.437019749032
 20
538.580214589765
 42
0.0
  0
VERTEX
  8
Default
 10
-424.437019749032
 20
557.880081055035
 42
0.0
  0
VERTEX
  8
Default
 10
-405.089463108407
 20
557.880081055035
 42
0.0
  0
VERTEX
  8
Default
 10
-405.089463108407
 20
614.266954143935
 42
0.0247442785536
  0
VERTEX
  8
Default
 10
-458.589347032322
 20
614.090469408125
 42
0.0
  0
VERTEX
  8
Default
 10
-458.590862051829
 20
548.992814002105
 42
0.0
  0
VERTEX
  8
Default
 10
-469.999716464909
 20
548.992814002105
 42
0.0
  0
VERTEX
  8
Default
 10
-470.00000150968
 20
675.688719715545
 42
0.0
  0
SEQEND
  0
POLYLINE
  8
Default
 66
     1
 10
0.0
 20
0.0
 30
0.0
 70
     1
  0
VERTEX
  8
Default
 10
-416.821016676923
 20
739.511913757515
 42
0.0
  0
VERTEX
  8
Default
 10
-416.821016676921
 20
722.199976139745
 42
0.0
  0
VERTEX
  8
Default
 10
-436.168573317545
 20
722.199976139745
 42
0.0
  0
VERTEX
  8
Default
 10
-436.168353364267
 20
665.282423332075
 42
0.0
  0
VERTEX
  8
Default
 10
-382.561492242861
 20
665.282423332075
 42
0.0
  0
VERTEX
  8
Default
 10
-382.561492242861
 20
675.688719715545
 42
0.0
  0
VERTEX
  8
Default
 10
-371.337858485268
 20
675.683642203195
 42
0.0
  0
VERTEX
  8
Default
 10
-371.337858485268
 20
548.992814002105
 42
0.0
  0
VERTEX
  8
Default
 10
-382.561492242861
 20
548.989837679195
 42
0.0
  0
VERTEX
  8
Default
 10
-382.561880518235
 20
649.450446831415
 42
0.0
  0
VERTEX
  8
Default
 10
-446.857657675612
 20
649.450621996545
 42
0.0
  0
VERTEX
  8
Default
 10
-446.857793463807
 20
739.511913757515
 42
0.0
  0
SEQEND
  0
POLYLINE
  8
Default
 66
     1
 10
0.0
 20
0.0
 30
0.0
 70
     1
  0
VERTEX
  8
Default
 10
-446.857793463809
 20
821.901245815615
 42
0.0
  0
VERTEX
  8
Default
 10
-446.857793463809
 20
887.187992009985
 42
0.0
  0
VERTEX
  8
Default
 10
-416.821016676921
 20
887.187992009985
 42
0.0
  0
VERTEX
  8
Default
 10
-416.821016676921
 20
868.417579752135
 42
0.0
  0
VERTEX
  8
Default
 10
-436.168573317545
 20
868.417579752135
 42
0.0
  0
VERTEX
  8
Default
 10
-436.168353364267
 20
811.500027054135
 42
0.0
  0
VERTEX
  8
Default
 10
-382.561492242861
 20
811.500027054135
 42
0.0
  0
VERTEX
  8
Default
 10
-382.561492242861
 20
821.906323437595
 42
0.0
  0
VERTEX
  8
Default
 10
-371.337858485268
 20
821.901245815615
 42
0.0
  0
VERTEX
  8
Default
 10
-371.337858485268
 20
695.210417614505
 42
0.0
  0
VERTEX
  8
Default
 10
-382.561492242861
 20
695.207441401245
 42
0.0
  0
VERTEX
  8
Default
 10
-382.561880518235
 20
795.668050443805
 42
0.0
  0
VERTEX
  8
Default
 10
-446.857657675612
 20
795.668225718575
 42
0.0
  0
SEQEND
  0
POLYLINE
  8
Default
 66
     1
 10
0.0
 20
0.0
 30
0.0
 70
     1
  0
VERTEX
  8
Default
 10
-458.589347032322
 20
821.901245815615
 42
0.0
  0
VERTEX
  8
Default
 10
-458.589347032322
 20
776.141275032515
 42
0.0
  0
VERTEX
  8
Default
 10
-394.292676576992
 20
776.141275032515
 42
0.0
  0
VERTEX
  8
Default
 10
-394.292676576992
 20
684.797818202175
 42
0.0
  0
VERTEX
  8
Default
 10
-424.437019749032
 20
684.797818202175
 42
0.0
  0
VERTEX
  8
Default
 10
-424.437019749034
 20
704.097684667425
 42
0.0
  0
VERTEX
  8
Default
 10
-405.089463108405
 20
704.097684667425
 42
0.0
  0
VERTEX
  8
Default
 10
-405.089463108407
 20
760.484557756325
 42
0.0247442785508
  0
VERTEX
  8
Default
 10
-458.589347032322
 20
760.308073020525
 42
0.0
  0
VERTEX
  8
Default
 10
-458.590862051829
 20
695.210417614505
 42
0.0
  0
VERTEX
  8
Default
 10
-469.999716464909
 20
695.210417614505
 42
0.0
  0
VERTEX
  8
Default
 10
-470.00000150968
 20
821.906323437595
 42
0.0
  0
SEQEND
  0
POLYLINE
  8
Default
 66
     1
 10
0.0
 20
0.0
 30
0.0
 70
     1
  0
VERTEX
  8
Default
 10
-458.589347032322
 20
968.131455480565
 42
0.0
  0
VERTEX
  8
Default
 10
-458.589347032322
 20
922.371484697455
 42
0.0
  0
VERTEX
  8
Default
 10
-394.292676576992
 20
922.371484697455
 42
0.0
  0
VERTEX
  8
Default
 10
-394.292676576992
 20
831.028027867105
 42
-0.0002613834419
  0
VERTEX
  8
Default
 10
-424.437019748986
 20
831.028027867105
 42
0.0
  0
VERTEX
  8
Default
 10
-424.437019749032
 20
850.327894332375
 42
0.0
  0
VERTEX
  8
Default
 10
-405.089463108407
 20
850.327894332375
 42
0.0
  0
VERTEX
  8
Default
 10
-405.08946310841
 20
906.714767421275
 42
0.0252798916852
  0
VERTEX
  8
Default
 10
-458.589347032322
 20
906.525676632895
 42
0.0
  0
VERTEX
  8
Default
 10
-458.590862051829
 20
841.428021226895
 42
0.0
  0
VERTEX
  8
Default
 10
-469.999716464909
 20
841.428021226895
 42
0.0
  0
VERTEX
  8
Default
 10
-470.00000150968
 20
968.128129030945
 42
0.0
  0
SEQEND
  0
POLYLINE
  8
Default
 66
     1
 10
0.0
 20
0.0
 30
0.0
 70
     1
  0
VERTEX
  8
Default
 10
-436.168353364267
 20
519.060617738705
 42
0.0
  0
VERTEX
  8
Default
 10
-382.561492242861
 20
519.060617738705
 42
0.0
  0
VERTEX
  8
Default
 10
-382.561492242861
 20
529.466914122175
 42
0.0
  0
VERTEX
  8
Default
 10
-371.337858485268
 20
529.466038590805
 42
0.0
  0
VERTEX
  8
Default
 10
-371.33772267249
 20
402.768032085845
 42
0.0
  0
VERTEX
  8
Default
 10
-382.561123008484
 20
402.762604337175
 42
0.0
  0
VERTEX
  8
Default
 10
-382.561880518186
 20
503.232843219025
 42
0.0
  0
VERTEX
  8
Default
 10
-446.857657675562
 20
503.228816403155
 42
0.0
  0
VERTEX
  8
Default
 10
-446.857793463809
 20
594.752784785195
 42
0.0
  0
VERTEX
  8
Default
 10
-416.821016676921
 20
594.752784785195
 42
0.0
  0
VERTEX
  8
Default
 10
-416.821016676921
 20
575.982372527345
 42
0.0
  0
VERTEX
  8
Default
 10
-436.168573317546
 20
575.982372527345
 42
0.0
  0
SEQEND
  0
POLYLINE
  8
Default
 66
     1
 10
0.0
 20
0.0
 30
0.0
 70
     1
  0
VERTEX
  8
Default
 10
-371.337858485268
 20
-970.169092369362
 42
0.0
  0
VERTEX
  8
Default
 10
-382.561837323691
 20
-970.169092369363
 42
0.0
  0
VERTEX
  8
Default
 10
-382.56188051816
 20
-958.993617115147
 42
0.0
  0
VERTEX
  8
Default
 10
-446.857657675612
 20
-958.989239859379
 42
0.0
  0
VERTEX
  8
Default
 10
-446.857793463812
 20
-867.473675548949
 42
-0.0006020438402
  0
VERTEX
  8
Default
 10
-416.821016676913
 20
-867.461069496388
 42
0.0
  0
VERTEX
  8
Default
 10
-416.82101667692
 20
-886.231481754244
 42
0.0
  0
VERTEX
  8
Default
 10
-436.168573317546
 20
-886.231481754244
 42
0.0
  0
VERTEX
  8
Default
 10
-436.168353364266
 20
-943.157438523832
 42
0.0
  0
VERTEX
  8
Default
 10
-382.561492242861
 20
-943.157438523832
 42
0.0
  0
VERTEX
  8
Default
 10
-382.561492242861
 20
-932.751142140356
 42
0.0
  0
VERTEX
  8
Default
 10
-371.337858485268
 20
-932.747815690755
 42
0.0
  0
SEQEND
  0
POLYLINE
  8
Default
 66
     1
 10
0.0
 20
0.0
 30
0.0
 70
     1
  0
VERTEX
  8
Default
 10
-458.589347032322
 20
-970.169092369363
 42
0.0
  0
VERTEX
  8
Default
 10
-469.999917328291
 20
-970.169092369363
 42
0.0
  0
VERTEX
  8
Default
 10
-470.00000150968
 20
-932.751142140356
 42
0.0
  0
VERTEX
  8
Default
 10
-458.589347032322
 20
-932.747815690755
 42
0.0
  0
SEQEND
  0
POLYLINE
  8
Default
 66
     1
 10
0.0
 20
0.0
 30
0.0
 70
     1
  0
VERTEX
  8
Default
 10
-436.16840015136
 20
969.830768117645
 42
0.0
  0
VERTEX
  8
Default
 10
-436.168353364267
 20
957.721832647475
 42
0.0
  0
VERTEX
  8
Default
 10
-382.561492242861
 20
957.721832647475
 42
0.0
  0
VERTEX
  8
Default
 10
-382.561492242861
 20
968.128129030945
 42
0.0
  0
VERTEX
  8
Default
 10
-371.337858485268
 20
968.131455480565
 42
0.0
  0
VERTEX
  8
Default
 10
-371.337858485268
 20
841.428021226895
 42
0.0
  0
VERTEX
  8
Default
 10
-382.561492242861
 20
841.429246994615
 42
0.0
  0
VERTEX
  8
Default
 10
-382.56188051816
 20
941.885654056155
 42
0.0
  0
VERTEX
  8
Default
 10
-446.857657675612
 20
941.890031311945
 42
0.0
  0
VERTEX
  8
Default
 10
-446.857699133284
 20
969.830768117645
 42
0.0
  0
SEQEND
  0
POLYLINE
  8
Default
 66
     1
 10
0.0
 20
0.0
 30
0.0
 70
     1
  0
VERTEX
  8
Default
 10
-241.507486575589
 20
944.795845391095
 42
0.0
  0
VERTEX
  8
Default
 10
-303.023716916898
 20
944.795845391095
 42
0.0
  0
VERTEX
  8
Default
 10
-303.023716916898
 20
914.507937697395
 42
0.0
  0
VERTEX
  8
Default
 10
-285.337355268267
 20
914.507937697395
 42
0.0
  0
VERTEX
  8
Default
 10
-285.337355268267
 20
934.017255018205
 42
0.0
  0
VERTEX
  8
Default
 10
-231.70697105816
 20
934.017033225945
 42
0.0
  0
VERTEX
  8
Default
 10
-231.70697105816
 20
879.961976889065
 42
0.0
  0
VERTEX
  8
Default
 10
-241.512270948883
 20
879.961976889065
 42
0.0
  0
VERTEX
  8
Default
 10
-241.507486575589
 20
868.644504789795
 42
0.0
  0
VERTEX
  8
Default
 10
-122.133453957345
 20
868.644504789795
 42
0.0
  0
VERTEX
  8
Default
 10
-122.130649629815
 20
879.961976889065
 42
0.0
  0
VERTEX
  8
Default
 10
-216.789341115051
 20
879.962368410725
 42
0.0
  0
VERTEX
  8
Default
 10
-216.789506267134
 20
944.795708467595
 42
0.0
  0
SEQEND
  0
POLYLINE
  8
Default
 66
     1
 10
0.0
 20
0.0
 30
0.0
 70
     1
  0
VERTEX
  8
Default
 10
-241.507486575589
 20
956.625483907485
 42
0.0
  0
VERTEX
  8
Default
 10
-198.390298674682
 20
956.625483907485
 42
0.0
  0
VERTEX
  8
Default
 10
-198.390298674682
 20
891.791243084005
 42
0.0
  0
VERTEX
  8
Default
 10
-112.322215057581
 20
891.791243084005
 42
0.0
  0
VERTEX
  8
Default
 10
-112.322215057581
 20
922.187616501815
 42
0.0
  0
VERTEX
  8
Default
 10
-130.507453260423
 20
922.187616501815
 42
0.0
  0
VERTEX
  8
Default
 10
-130.507453260423
 20
902.678299181005
 42
0.0
  0
VERTEX
  8
Default
 10
-183.637806285442
 20
902.678299181005
 42
-0.023123710595
  0
VERTEX
  8
Default
 10
-183.471514100695
 20
956.625483907485
 42
0.0
  0
VERTEX
  8
Default
 10
-122.133453957345
 20
956.627011593745
 42
0.0
  0
VERTEX
  8
Default
 10
-122.133453957345
 20
968.131252937795
 42
0.0
  0
VERTEX
  8
Default
 10
-241.512270948883
 20
968.131540365775
 42
0.0
  0
SEQEND
  0
POLYLINE
  8
Default
 66
     1
 10
0.0
 20
0.0
 30
0.0
 70
     1
  0
VERTEX
  8
Default
 10
-345.779180179625
 20
879.962332080445
 42
0.0
  0
VERTEX
  8
Default
 10
-345.779180179625
 20
868.644504789795
 42
0.0
  0
VERTEX
  8
Default
 10
-259.906529015975
 20
868.644504789795
 42
0.0
  0
VERTEX
  8
Default
 10
-259.907683991715
 20
879.961976889065
 42
0.0
  0
SEQEND
  0
POLYLINE
  8
Default
 66
     1
 10
0.0
 20
0.0
 30
0.0
 70
     1
  0
VERTEX
  8
Default
 10
-345.779180179627
 20
968.131459686235
 42
0.0
  0
VERTEX
  8
Default
 10
-345.779180179625
 20
956.625483907485
 42
0.0
  0
VERTEX
  8
Default
 10
-336.17525174649
 20
956.625483907485
 42
0.0
  0
VERTEX
  8
Default
 10
-336.17525174649
 20
891.791243084005
 42
0.0
  0
VERTEX
  8
Default
 10
-250.10716812941
 20
891.791243084015
 42
0.000244245636
  0
VERTEX
  8
Default
 10
-250.10716812941
 20
922.187616501785
 42
0.0
  0
VERTEX
  8
Default
 10
-268.292406332247
 20
922.187616501815
 42
0.0
  0
VERTEX
  8
Default
 10
-268.292406332247
 20
902.678299181005
 42
0.0
  0
VERTEX
  8
Default
 10
-321.422759357251
 20
902.678299181015
 42
-0.0236247308554
  0
VERTEX
  8
Default
 10
-321.24458915931
 20
956.625483907485
 42
0.0
  0
VERTEX
  8
Default
 10
-259.906529015975
 20
956.627011593745
 42
0.0
  0
VERTEX
  8
Default
 10
-259.906529015975
 20
968.131252937795
 42
0.0
  0
SEQEND
  0
POLYLINE
  8
Default
 66
     1
 10
0.0
 20
0.0
 30
0.0
 70
     1
  0
VERTEX
  8
Default
 10
-239.691969077299
 20
-894.017751768069
 42
0.0
  0
VERTEX
  8
Default
 10
-301.208199418607
 20
-894.017751768069
 42
0.0
  0
VERTEX
  8
Default
 10
-301.208199418607
 20
-924.305659461756
 42
0.0
  0
VERTEX
  8
Default
 10
-283.521837769978
 20
-924.305659461756
 42
0.0
  0
VERTEX
  8
Default
 10
-283.521837769978
 20
-904.79634214095
 42
0.0
  0
VERTEX
  8
Default
 10
-229.891453559869
 20
-904.796563933211
 42
0.0
  0
VERTEX
  8
Default
 10
-229.891453559869
 20
-958.851620270088
 42
0.0
  0
VERTEX
  8
Default
 10
-239.696753450594
 20
-958.851620270088
 42
0.0
  0
VERTEX
  8
Default
 10
-239.691969077299
 20
-970.169092369362
 42
0.0
  0
VERTEX
  8
Default
 10
-120.317936459055
 20
-970.169092369362
 42
0.0
  0
VERTEX
  8
Default
 10
-120.315132131523
 20
-958.851620270088
 42
0.0
  0
VERTEX
  8
Default
 10
-214.97382361676
 20
-958.851228748429
 42
0.0
  0
VERTEX
  8
Default
 10
-214.973988768845
 20
-894.017888691562
 42
0.0
  0
SEQEND
  0
POLYLINE
  8
Default
 66
     1
 10
0.0
 20
0.0
 30
0.0
 70
     1
  0
VERTEX
  8
Default
 10
-239.691969077299
 20
-882.188113251668
 42
0.0
  0
VERTEX
  8
Default
 10
-196.574781176392
 20
-882.188113251668
 42
0.0
  0
VERTEX
  8
Default
 10
-196.574781176392
 20
-947.022354075158
 42
0.0
  0
VERTEX
  8
Default
 10
-110.50669755929
 20
-947.022354075158
 42
0.0
  0
VERTEX
  8
Default
 10
-110.50669755929
 20
-916.62598065735
 42
0.0
  0
VERTEX
  8
Default
 10
-128.691935762132
 20
-916.625980657348
 42
0.0
  0
VERTEX
  8
Default
 10
-128.691935762132
 20
-936.135297978159
 42
0.0
  0
VERTEX
  8
Default
 10
-181.822288787152
 20
-936.135297978157
 42
-0.023123710595
  0
VERTEX
  8
Default
 10
-181.655996602405
 20
-882.188113251669
 42
0.0
  0
VERTEX
  8
Default
 10
-120.317936459055
 20
-882.186585565417
 42
0.0
  0
VERTEX
  8
Default
 10
-120.317936459055
 20
-870.682344221353
 42
0.0
  0
VERTEX
  8
Default
 10
-239.696753450594
 20
-870.682056793385
 42
0.0
  0
SEQEND
  0
POLYLINE
  8
Default
 66
     1
 10
0.0
 20
0.0
 30
0.0
 70
     1
  0
VERTEX
  8
Default
 10
-343.963662681335
 20
-958.851265078716
 42
0.0
  0
VERTEX
  8
Default
 10
-343.963662681335
 20
-970.169092369362
 42
0.0
  0
VERTEX
  8
Default
 10
-258.091011517683
 20
-970.169092369362
 42
0.0
  0
VERTEX
  8
Default
 10
-258.092166493425
 20
-958.851620270088
 42
0.0
  0
SEQEND
  0
POLYLINE
  8
Default
 66
     1
 10
0.0
 20
0.0
 30
0.0
 70
     1
  0
VERTEX
  8
Default
 10
-343.963662681336
 20
-870.682137472924
 42
0.0
  0
VERTEX
  8
Default
 10
-343.963662681335
 20
-882.188113251668
 42
0.0
  0
VERTEX
  8
Default
 10
-334.3597342482
 20
-882.188113251668
 42
0.0
  0
VERTEX
  8
Default
 10
-334.3597342482
 20
-947.022354075158
 42
0.0
  0
VERTEX
  8
Default
 10
-248.291650631125
 20
-947.022354075148
 42
0.000244245636
  0
VERTEX
  8
Default
 10
-248.291650631125
 20
-916.625980657382
 42
0.0
  0
VERTEX
  8
Default
 10
-266.476888833957
 20
-916.62598065735
 42
0.0
  0
VERTEX
  8
Default
 10
-266.476888833957
 20
-936.135297978157
 42
0.0
  0
VERTEX
  8
Default
 10
-319.60724185896
 20
-936.135297978153
 42
-0.0236247308554
  0
VERTEX
  8
Default
 10
-319.42907166102
 20
-882.188113251669
 42
0.0
  0
VERTEX
  8
Default
 10
-258.091011517683
 20
-882.186585565417
 42
0.0
  0
VERTEX
  8
Default
 10
-258.091011517683
 20
-870.682344221353
 42
0.0
  0
SEQEND
  0
POLYLINE
  8
Default
 66
     1
 10
0.0
 20
0.0
 30
0.0
 70
     1
  0
VERTEX
  8
Default
 10
-269.554664447718
 20
841.782968338725
 42
0.0212746595336
  0
VERTEX
  8
Default
 10
-259.361111160658
 20
837.599696307535
 42
0.0989634319296
  0
VERTEX
  8
Default
 10
-194.742756967635
 20
841.520425962915
 42
0.3333543868355
  0
VERTEX
  8
Default
 10
-209.020904192853
 20
751.351240576915
 42
0.1096623708983
  0
VERTEX
  8
Default
 10
-177.919397225487
 20
716.250739338845
 42
0.1863352027598
  0
VERTEX
  8
Default
 10
-241.664535157388
 20
703.520851320055
 42
0.2052144402077
  0
VERTEX
  8
Default
 10
-262.313651690688
 20
673.194304465205
 42
0.1694337092688
  0
VERTEX
  8
Default
 10
-333.677832422894
 20
716.321008490015
 42
0.0260747920757
  0
VERTEX
  8
Default
 10
-346.672152227172
 20
718.361531609185
 42
0.0
  0
VERTEX
  8
Default
 10
-346.672152227132
 20
744.672937597465
 42
0.2388741471781
  0
VERTEX
  8
Default
 10
-310.948684665951
 20
731.729815132295
 42
0.2113964184385
  0
VERTEX
  8
Default
 10
-281.620343809197
 20
749.289610013265
 42
0.2418907800101
  0
VERTEX
  8
Default
 10
-271.939335450219
 20
827.909267785975
 42
0.0473621526369
  0
VERTEX
  8
Default
 10
-276.809369310502
 20
841.782968338725
 42
0.0
  0
SEQEND
  0
POLYLINE
  8
Default
 66
     1
 10
0.0
 20
0.0
 30
0.0
 70
     1
  0
VERTEX
  8
Default
 10
-335.326778804739
 20
-848.794959623897
 42
0.0
  0
VERTEX
  8
Default
 10
-295.087233102705
 20
-848.794959623898
 42
0.0510551037074
  0
VERTEX
  8
Default
 10
-299.957290230112
 20
-839.546972169109
 42
0.1885990443983
  0
VERTEX
  8
Default
 10
-309.45558932498
 20
-830.698294722436
 42
0.0587939336025
  0
VERTEX
  8
Default
 10
-313.47276188456
 20
-829.630642992044
 42
0.0395143401287
  0
VERTEX
  8
Default
 10
-315.53292373638
 20
-829.482410120451
 42
0.077055678546
  0
VERTEX
  8
Default
 10
-322.209534527307
 20
-831.734832633613
 42
0.1314258150679
  0
VERTEX
  8
Default
 10
-330.968207626882
 20
-839.766914205776
 42
0.0409415082421
  0
SEQEND
  0
POLYLINE
  8
Default
 66
     1
 10
0.0
 20
0.0
 30
0.0
 70
     1
  0
VERTEX
  8
Default
 10
-214.991354685474
 20
-848.794959623898
 42
-0.052826244873
  0
VERTEX
  8
Default
 10
-208.959222824736
 20
-833.528837805506
 42
-0.1095656954963
  0
VERTEX
  8
Default
 10
-177.9193971973
 20
-798.034047035325
 42
-0.1469472755214
  0
VERTEX
  8
Default
 10
-233.31611606282
 20
-790.025314512511
 42
-0.2496807763278
  0
VERTEX
  8
Default
 10
-262.313651649029
 20
-754.349050746146
 42
-0.1706128341429
  0
VERTEX
  8
Default
 10
-332.712378164622
 20
-797.929749403342
 42
-0.0284148812752
  0
VERTEX
  8
Default
 10
-346.672152172045
 20
-800.175653807168
 42
0.0
  0
VERTEX
  8
Default
 10
-346.672152172003
 20
-826.871168109137
 42
-0.2322938330935
  0
VERTEX
  8
Default
 10
-312.365079743698
 20
-813.620533090661
 42
-0.2149956035235
  0
VERTEX
  8
Default
 10
-282.38410518903
 20
-830.480583882322
 42
-0.0253472994788
  0
VERTEX
  8
Default
 10
-277.999093192414
 20
-837.451794571782
 42
-0.0353805277603
  0
VERTEX
  8
Default
 10
-272.646350493595
 20
-848.794959623898
 42
0.0
  0
SEQEND
  0
POLYLINE
  8
Default
 66
     1
 10
0.0
 20
0.0
 30
0.0
 70
     1
  0
VERTEX
  8
Default
 10
-56.801949706388
 20
27.996659219765
 42
0.0
  0
VERTEX
  8
Default
 10
-108.364141914779
 20
74.346036000225
 42
0.2474752773677
  0
VERTEX
  8
Default
 10
-122.739701334388
 20
99.159646469865
 42
0.1006818017694
  0
VERTEX
  8
Default
 10
-134.089906860154
 20
103.431654371195
 42
0.0929058884645
  0
VERTEX
  8
Default
 10
-140.32120017768
 20
103.090621944075
 42
-0.0003901368818
  0
VERTEX
  8
Default
 10
-158.753896076659
 20
119.645108671665
 42
-0.0763313372858
  0
VERTEX
  8
Default
 10
-103.66622497679
 20
161.223070030635
 42
0.0046526615758
  0
VERTEX
  8
Default
 10
-92.457339477484
 20
138.406856953115
 42
0.3016091582986
  0
VERTEX
  8
Default
 10
-84.142996284147
 20
105.291424850225
 42
0.0414962428508
  0
VERTEX
  8
Default
 10
-80.192939066172
 20
102.252852704545
 42
0.1058398289123
  0
VERTEX
  8
Default
 10
-73.454601637306
 20
99.785043745585
 42
0.0
  0
VERTEX
  8
Default
 10
-43.196542592496
 20
38.2543880845551
 42
0.0517930032978
  0
SEQEND
  0
POLYLINE
  8
Default
 66
     1
 10
0.0
 20
0.0
 30
0.0
 70
     1
  0
VERTEX
  8
Default
 10
-83.199008464095
 20
-35.3236197961969
 42
0.0
  0
VERTEX
  8
Default
 10
-152.091571380503
 20
-43.4414899108069
 42
0.2498667146675
  0
VERTEX
  8
Default
 10
-180.487336251287
 20
-37.9258594767209
 42
0.1027930862846
  0
VERTEX
  8
Default
 10
-191.471124113807
 20
-43.981528075156
 42
0.0925987989604
  0
VERTEX
  8
Default
 10
-194.81836547413
 20
-48.4518853855859
 42
-0.0018540728665
  0
VERTEX
  8
Default
 10
-219.256792753353
 20
-51.3379234215739
 42
-0.0886917554732
  0
VERTEX
  8
Default
 10
-212.747825670447
 20
24.5349868866351
 42
0.0
  0
VERTEX
  8
Default
 10
-188.175813041901
 20
17.002481474105
 42
0.2531237347118
  0
VERTEX
  8
Default
 10
-163.863242059334
 20
0.4603521490451
 42
0.0921285111949
  0
VERTEX
  8
Default
 10
-152.644227690438
 20
1.3850162603551
 42
0.09811953936
  0
VERTEX
  8
Default
 10
-147.012315055681
 20
4.4087072434251
 42
0.0
  0
VERTEX
  8
Default
 10
-81.454743280797
 20
-15.681451720209
 42
0.0593757029739
  0
SEQEND
  0
POLYLINE
  8
Default
 66
     1
 10
0.0
 20
0.0
 30
0.0
 70
     1
  0
VERTEX
  8
Default
 10
-55.199554137716
 20
-95.088919973426
 42
0.0
  0
VERTEX
  8
Default
 10
-96.60039483843
 20
-151.035915193593
 42
0.2080280769784
  0
VERTEX
  8
Default
 10
-117.561755422974
 20
-163.783503850256
 42
0.1368265369423
  0
VERTEX
  8
Default
 10
-123.108318627984
 20
-179.427820215663
 42
0.0951427996018
  0
VERTEX
  8
Default
 10
-122.165852582359
 20
-185.600798050312
 42
-0.0011345670324
  0
VERTEX
  8
Default
 10
-137.003539025132
 20
-205.679623180001
 42
-0.0818689134848
  0
VERTEX
  8
Default
 10
-187.019683307539
 20
-149.549376241882
 42
-0.0051925027921
  0
VERTEX
  8
Default
 10
-189.202024385027
 20
-145.918103289427
 42
-0.0006495515072
  0
VERTEX
  8
Default
 10
-166.756133820146
 20
-133.52166083568
 42
0.1700447319639
  0
VERTEX
  8
Default
 10
-147.241705909684
 20
-133.32380273184
 42
0.208928945042
  0
VERTEX
  8
Default
 10
-130.037089109852
 20
-116.91534085011
 42
0.0655273348303
  0
VERTEX
  8
Default
 10
-129.133084578196
 20
-112.719645781122
 42
0.0
  0
VERTEX
  8
Default
 10
-68.95954123462
 20
-79.4361381464009
 42
0.0632933051726
  0
SEQEND
  0
POLYLINE
  8
Default
 66
     1
 10
0.0
 20
0.0
 30
0.0
 70
     1
  0
VERTEX
  8
Default
 10
-76.188120245302
 20
-66.3510939106919
 42
-0.0008097330713
  0
VERTEX
  8
Default
 10
-137.062207988889
 20
-99.7910917738969
 42
0.1620045275128
  0
VERTEX
  8
Default
 10
-156.369067799891
 20
-100.168674230728
 42
0.1906409655956
  0
VERTEX
  8
Default
 10
-173.35289450552
 20
-115.062761545845
 42
0.0936714119167
  0
VERTEX
  8
Default
 10
-174.780513914014
 20
-120.501454892173
 42
0.0006869080382
  0
VERTEX
  8
Default
 10
-196.523427356954
 20
-132.418444656448
 42
-0.0774620488442
  0
VERTEX
  8
Default
 10
-217.427250202366
 20
-66.5742681656469
 42
-0.0037025886377
  0
VERTEX
  8
Default
 10
-192.287644452327
 20
-63.536435870751
 42
0.2922464725776
  0
VERTEX
  8
Default
 10
-159.149454639972
 20
-67.1054841131349
 42
0.047670466899
  0
VERTEX
  8
Default
 10
-154.154472696034
 20
-63.9963811925039
 42
0.1052070496322
  0
VERTEX
  8
Default
 10
-149.575251716802
 20
-58.3845047106789
 42
0.0
  0
VERTEX
  8
Default
 10
-81.410286347597
 20
-50.168406927764
 42
0.0512569109533
  0
SEQEND
  0
POLYLINE
  8
Default
 66
     1
 10
0.0
 20
0.0
 30
0.0
 70
     1
  0
VERTEX
  8
Default
 10
-77.081485525083
 20
-1.397003352358
 42
-0.0005759089293
  0
VERTEX
  8
Default
 10
-143.284634607052
 20
19.1408564268951
 42
0.2486586967639
  0
VERTEX
  8
Default
 10
-166.769134868905
 20
35.6531697159651
 42
0.1056507248183
  0
VERTEX
  8
Default
 10
-179.489239890002
 20
34.5659891063751
 42
0.0926713717782
  0
VERTEX
  8
Default
 10
-184.386440120866
 20
31.829580462585
 42
0.0
  0
VERTEX
  8
Default
 10
-208.152265267869
 20
39.2277127580351
 42
-0.0865264265303
  0
VERTEX
  8
Default
 10
-169.064000890325
 20
108.241051071445
 42
0.0065879687714
  0
VERTEX
  8
Default
 10
-150.009592266691
 20
91.1924545265251
 42
0.251608244616
  0
VERTEX
  8
Default
 10
-136.18672309382
 20
66.5330369850051
 42
0.1267636176312
  0
VERTEX
  8
Default
 10
-122.187622378824
 20
61.971667458635
 42
0.0691649904531
  0
VERTEX
  8
Default
 10
-117.889585996638
 20
62.522918132235
 42
0.0
  0
VERTEX
  8
Default
 10
-66.772665728421
 20
16.8745510683051
 42
0.0634145071684
  0
SEQEND
  0
POLYLINE
  8
Default
 66
     1
 10
0.0
 20
0.0
 30
0.0
 70
     1
  0
VERTEX
  8
Default
 10
-25.284151499777
 20
-111.95263661563
 42
-0.0597096843764
  0
VERTEX
  8
Default
 10
-43.131880517262
 20
-103.933070260868
 42
0.0
  0
VERTEX
  8
Default
 10
-83.955932146571
 20
-159.43285153886
 42
-0.2529091753737
  0
VERTEX
  8
Default
 10
-88.243143107502
 20
-180.938840542191
 42
-0.2377653948524
  0
VERTEX
  8
Default
 10
-109.444295967371
 20
-194.111346517493
 42
0.0
  0
VERTEX
  8
Default
 10
-124.669218847892
 20
-214.787283702835
 42
0.0874622952894
  0
VERTEX
  8
Default
 10
-55.292981033734
 20
-246.015596210371
 42
0.0
  0
VERTEX
  8
Default
 10
-49.874627122817
 20
-221.9293058375
 42
-0.3034964162005
  0
VERTEX
  8
Default
 10
-50.193214830338
 20
-189.276287485209
 42
-0.1162221851654
  0
VERTEX
  8
Default
 10
-40.5279881251
 20
-180.084786076084
 42
0.0
  0
SEQEND
  0
POLYLINE
  8
Default
 66
     1
 10
0.0
 20
0.0
 30
0.0
 70
     1
  0
VERTEX
  8
Default
 10
-158.653521249299
 20
199.842474888855
 42
0.0
  0
VERTEX
  8
Default
 10
-166.975768345863
 20
212.174061642915
 42
0.027766457905
  0
VERTEX
  8
Default
 10
-191.039671264852
 20
193.522167890545
 42
0.0
  0
VERTEX
  8
Default
 10
-161.39004392375
 20
157.763301248735
 42
-0.0466055104244
  0
VERTEX
  8
Default
 10
-135.351445653535
 20
176.471401349755
 42
0.0
  0
VERTEX
  8
Default
 10
-128.806543324111
 20
165.881350003905
 42
0.079125029198
  0
VERTEX
  8
Default
 10
-182.886659052724
 20
117.453766191135
 42
0.0
  0
VERTEX
  8
Default
 10
-192.563001499381
 20
125.459509923995
 42
-0.0397557421498
  0
VERTEX
  8
Default
 10
-170.078984626139
 20
149.926068886825
 42
0.0
  0
VERTEX
  8
Default
 10
-207.82506836815
 20
191.162577997175
 42
-0.0604153079383
  0
VERTEX
  8
Default
 10
-153.547385780841
 20
231.387803531795
 42
0.0
  0
VERTEX
  8
Default
 10
-141.727113098524
 20
210.713342627965
 42
0.0017636294676
  0
SEQEND
  0
POLYLINE
  8
Default
 66
     1
 10
0.0
 20
0.0
 30
0.0
 70
     1
  0
VERTEX
  8
Default
 10
-115.998760760222
 20
-296.8772550152
 42
0.0157802316251
  0
VERTEX
  8
Default
 10
-104.940099126515
 20
-301.456026605313
 42
0.0
  0
VERTEX
  8
Default
 10
-94.220015398985
 20
-274.376949180192
 42
-0.052857206938
  0
VERTEX
  8
Default
 10
-147.002483451418
 20
-245.8091572408
 42
0.0
  0
VERTEX
  8
Default
 10
-179.275738119141
 20
-291.371509372334
 42
-0.0359059592957
  0
VERTEX
  8
Default
 10
-210.05377825199
 20
-266.680232689908
 42
0.0
  0
VERTEX
  8
Default
 10
-215.836961395495
 20
-272.747718794293
 42
0.0765003800577
  0
VERTEX
  8
Default
 10
-132.502135768564
 20
-327.664120976336
 42
0.0
  0
VERTEX
  8
Default
 10
-129.004002045505
 20
-320.135915857008
 42
-0.0380328755344
  0
VERTEX
  8
Default
 10
-163.590529970631
 20
-301.624537976268
 42
0.0
  0
VERTEX
  8
Default
 10
-141.529546239825
 20
-265.697052288503
 42
0.0400909408157
  0
VERTEX
  8
Default
 10
-109.425634593842
 20
-283.05684607188
 42
0.0
  0
SEQEND
  0
POLYLINE
  8
Default
 66
     1
 10
0.0
 20
0.0
 30
0.0
 70
     1
  0
VERTEX
  8
Default
 10
-121.246015413466
 20
-287.551308139017
 42
0.0
  0
VERTEX
  8
Default
 10
-127.706246232018
 20
-300.95027714245
 42
0.029210266143
  0
VERTEX
  8
Default
 10
-99.608281099707
 20
-312.579715238352
 42
0.0
  0
VERTEX
  8
Default
 10
-83.640942718933
 20
-268.899414386649
 42
-0.0468651269369
  0
VERTEX
  8
Default
 10
-112.754533432466
 20
-255.584647231195
 42
0.0
  0
VERTEX
  8
Default
 10
-106.914902615048
 20
-244.601259119788
 42
0.0794150954823
  0
VERTEX
  8
Default
 10
-38.136872344884
 20
-267.46679854603
 42
0.0
  0
VERTEX
  8
Default
 10
-40.196239206981
 20
-279.882694823058
 42
-0.0399187821817
  0
VERTEX
  8
Default
 10
-72.525833411312
 20
-272.551104249011
 42
0.0
  0
VERTEX
  8
Default
 10
-89.17032760444
 20
-326.034890590436
 42
-0.0605940726192
  0
VERTEX
  8
Default
 10
-150.951982291176
 20
-298.899714491662
 42
0.0
  0
VERTEX
  8
Default
 10
-139.075261934946
 20
-278.253464437158
 42
0.0010479423775
  0
SEQEND
  0
POLYLINE
  8
Default
 66
     1
 10
0.0
 20
0.0
 30
0.0
 70
     1
  0
VERTEX
  8
Default
 10
-200.518446852811
 20
-230.500033783208
 42
0.0
  0
VERTEX
  8
Default
 10
-211.182191043734
 20
-240.893362908775
 42
0.0280361129534
  0
VERTEX
  8
Default
 10
-188.726398007449
 20
-261.483514289625
 42
0.0
  0
VERTEX
  8
Default
 10
-158.851088107998
 20
-225.921262193096
 42
-0.046794432549
  0
VERTEX
  8
Default
 10
-181.673682887414
 20
-203.39296085876
 42
0.0
  0
VERTEX
  8
Default
 10
-172.448705557456
 20
-195.078189883308
 42
0.0796139743396
  0
VERTEX
  8
Default
 10
-115.603843317438
 20
-240.19110657563
 42
0.0
  0
VERTEX
  8
Default
 10
-121.782052041034
 20
-251.174387012038
 42
-0.039541267882
  0
VERTEX
  8
Default
 10
-149.62611077804
 20
-233.168543244166
 42
0.0
  0
VERTEX
  8
Default
 10
-183.479143354207
 20
-277.691616300643
 42
-0.0603243890509
  0
VERTEX
  8
Default
 10
-232.312112566881
 20
-230.949469222422
 42
0.0
  0
VERTEX
  8
Default
 10
-214.116064302267
 20
-215.640238089834
 42
0.0025160523365
  0
SEQEND
  0
POLYLINE
  8
Default
 66
     1
 10
0.0
 20
0.0
 30
0.0
 70
     1
  0
VERTEX
  8
Default
 10
-198.769434059934
 20
-241.089977454057
 42
0.0133943428291
  0
VERTEX
  8
Default
 10
-189.939374172758
 20
-249.180030709901
 42
0.0
  0
VERTEX
  8
Default
 10
-170.671360790316
 20
-227.410084382365
 42
-0.0525451392446
  0
VERTEX
  8
Default
 10
-210.533367205644
 20
-182.409472712349
 42
0.0
  0
VERTEX
  8
Default
 10
-256.347791648912
 20
-214.123420401236
 42
-0.0357476408438
  0
VERTEX
  8
Default
 10
-276.885228870578
 20
-180.358910061562
 42
0.0
  0
VERTEX
  8
Default
 10
-284.389309107308
 20
-184.066806272575
 42
0.0762394195174
  0
VERTEX
  8
Default
 10
-224.751584656234
 20
-264.320642796536
 42
0.0
  0
VERTEX
  8
Default
 10
-218.911953838815
 20
-258.449771237433
 42
-0.0376813886936
  0
VERTEX
  8
Default
 10
-245.119786993465
 20
-229.179722964895
 42
0.0
  0
VERTEX
  8
Default
 10
-212.141368951041
 20
-202.9996240932
 42
0.0401150686435
  0
VERTEX
  8
Default
 10
-187.908231147619
 20
-230.359517911581
 42
0.0
  0
SEQEND
  0
POLYLINE
  8
Default
 66
     1
 10
0.0
 20
0.0
 30
0.0
 70
     1
  0
VERTEX
  8
Default
 10
-255.614296299951
 20
-149.628250449077
 42
0.0
  0
VERTEX
  8
Default
 10
-269.155466075496
 20
-155.723839727786
 42
0.029103529783
  0
VERTEX
  8
Default
 10
-255.050035835426
 20
-182.802809477909
 42
0.0
  0
VERTEX
  8
Default
 10
-214.877783488185
 20
-159.656453658408
 42
-0.0473979164914
  0
VERTEX
  8
Default
 10
-228.672859659035
 20
-130.639226279801
 42
0.0
  0
VERTEX
  8
Default
 10
-217.191056745588
 20
-126.004356016034
 42
0.0790067449677
  0
VERTEX
  8
Default
 10
-179.134618934358
 20
-187.943321529541
 42
0.0
  0
VERTEX
  8
Default
 10
-188.641726496578
 20
-196.14567980769
 42
-0.0399056070649
  0
VERTEX
  8
Default
 10
-208.699682901897
 20
-169.628450519086
 42
0.0
  0
VERTEX
  8
Default
 10
-255.670635836559
 20
-199.853576018702
 42
-0.0600581363692
  0
VERTEX
  8
Default
 10
-285.630617246881
 20
-139.12240095121
 42
0.0
  0
VERTEX
  8
Default
 10
-263.344059095033
 20
-131.004352196037
 42
0.0021644218514
  0
SEQEND
  0
POLYLINE
  8
Default
 66
     1
 10
0.0
 20
0.0
 30
0.0
 70
     1
  0
VERTEX
  8
Default
 10
-257.56076781422
 20
-160.1900909456
 42
0.0142966306474
  0
VERTEX
  8
Default
 10
-252.03149106602
 20
-170.836348640097
 42
0.0
  0
VERTEX
  8
Default
 10
-226.500705586418
 20
-157.015939696777
 42
-0.0523526113285
  0
VERTEX
  8
Default
 10
-248.674368390439
 20
-101.004052091025
 42
0.0
  0
VERTEX
  8
Default
 10
-302.500685861051
 20
-115.049178753951
 42
-0.0359579893661
  0
VERTEX
  8
Default
 10
-310.315120167003
 20
-76.2564613849499
 42
0.0
  0
VERTEX
  8
Default
 10
-318.609035289302
 20
-77.1834354377039
 42
0.076031001333
  0
VERTEX
  8
Default
 10
-289.890470155859
 20
-173.083525836167
 42
0.0
  0
VERTEX
  8
Default
 10
-282.386389919127
 20
-169.60034734476
 42
-0.0381390056198
  0
VERTEX
  8
Default
 10
-297.055972486415
 20
-133.055022521823
 42
0.0
  0
VERTEX
  8
Default
 10
-257.194074208393
 20
-119.796354040022
 42
0.0396678143566
  0
VERTEX
  8
Default
 10
-243.709243969456
 20
-153.841788447955
 42
0.0
  0
SEQEND
  0
POLYLINE
  8
Default
 66
     1
 10
0.0
 20
0.0
 30
0.0
 70
     1
  0
VERTEX
  8
Default
 10
-279.875549803026
 20
-54.711340452016
 42
0.0
  0
VERTEX
  8
Default
 10
-294.686251555099
 20
-55.778722701406
 42
0.0280274465282
  0
VERTEX
  8
Default
 10
-290.652081204469
 20
-86.060054549674
 42
0.0
  0
VERTEX
  8
Default
 10
-245.035223619899
 20
-78.138512664782
 42
-0.0460796664084
  0
VERTEX
  8
Default
 10
-248.110216063219
 20
-46.115645408313
 42
0.0
  0
VERTEX
  8
Default
 10
-235.72557477907
 20
-45.694313143418
 42
0.0790216361221
  0
VERTEX
  8
Default
 10
-221.027768374824
 20
-117.015431881762
 42
0.0
  0
VERTEX
  8
Default
 10
-232.763477683577
 20
-121.425584425922
 42
-0.0393837619808
  0
VERTEX
  8
Default
 10
-242.609055014669
 20
-89.627434889057
 42
0.0
  0
VERTEX
  8
Default
 10
-296.999632949807
 20
-101.874819795127
 42
-0.0600273534942
  0
VERTEX
  8
Default
 10
-304.503605049234
 20
-34.514418161736
 42
0.0
  0
VERTEX
  8
Default
 10
-280.806503873379
 20
-34.542952036048
 42
0.0021273757404
  0
VERTEX
  8
Default
 10
-279.875549803026
 20
-54.711771152005
 42
0.0
  0
SEQEND
  0
POLYLINE
  8
Default
 66
     1
 10
0.0
 20
0.0
 30
0.0
 70
     1
  0
VERTEX
  8
Default
 10
-285.292039340705
 20
-63.952977805228
 42
0.0153248282921
  0
VERTEX
  8
Default
 10
-283.712261432262
 20
-75.8632322943889
 42
0.0
  0
VERTEX
  8
Default
 10
-255.021811998469
 20
-71.6496942955059
 42
-0.0526645119847
  0
VERTEX
  8
Default
 10
-256.79915676561
 20
-11.3961655165569
 42
0.0
  0
VERTEX
  8
Default
 10
-312.177028307708
 20
-6.087142093969
 42
-0.0356576352916
  0
VERTEX
  8
Default
 10
-306.337397490287
 20
33.042598016955
 42
0.0
  0
VERTEX
  8
Default
 10
-314.433853891197
 20
35.037061994075
 42
0.0759541240618
  0
VERTEX
  8
Default
 10
-320.076025987223
 20
-64.9642613809549
 42
0.0
  0
VERTEX
  8
Default
 10
-311.838450401531
 20
-64.233901873487
 42
-0.0375910852257
  0
VERTEX
  8
Default
 10
-313.192545751623
 20
-24.879444042967
 42
0.0
  0
VERTEX
  8
Default
 10
-271.214832937593
 20
-26.115445338304
 42
0.0399254127871
  0
VERTEX
  8
Default
 10
-270.114643982805
 20
-62.745079684216
 42
0.0
  0
SEQEND
  0
POLYLINE
  8
Default
 66
     1
 10
0.0
 20
0.0
 30
0.0
 70
     1
  0
VERTEX
  8
Default
 10
-270.396774215067
 20
42.8460835066651
 42
0.0
  0
VERTEX
  8
Default
 10
-284.671439339571
 20
46.919213308915
 42
0.0278101499411
  0
VERTEX
  8
Default
 10
-291.159893995082
 20
17.0873168998551
 42
0.0
  0
VERTEX
  8
Default
 10
-245.599375947118
 20
8.8288599480551
 42
-0.046147381364
  0
VERTEX
  8
Default
 10
-237.615706756731
 20
39.9808518254351
 42
0.0
  0
VERTEX
  8
Default
 10
-225.851773611022
 20
36.104444243455
 42
0.0784274452563
  0
VERTEX
  8
Default
 10
-236.289835243595
 20
-35.947034002347
 42
0.0
  0
VERTEX
  8
Default
 10
-248.815487575223
 20
-36.059554374649
 42
-0.0396143604101
  0
VERTEX
  8
Default
 10
-247.235601529474
 20
-2.8006858228349
 42
0.0
  0
VERTEX
  8
Default
 10
-302.528909698008
 20
4.4184920539051
 42
-0.0603361209854
  0
VERTEX
  8
Default
 10
-286.646242828105
 20
70.2900714980251
 42
0.0
  0
VERTEX
  8
Default
 10
-264.387800375907
 20
62.115816394205
 42
0.0018470979945
  0
VERTEX
  8
Default
 10
-270.396774215067
 20
42.8458681566651
 42
0.0
  0
SEQEND
  0
POLYLINE
  8
Default
 66
     1
 10
0.0
 20
0.0
 30
0.0
 70
     1
  0
VERTEX
  8
Default
 10
-278.634349800761
 20
36.020134720485
 42
0.0147693613322
  0
VERTEX
  8
Default
 10
-281.173305616512
 20
24.2784992772849
 42
0.0
  0
VERTEX
  8
Default
 10
-252.793210251937
 20
18.379524543855
 42
-0.0527720098452
  0
VERTEX
  8
Default
 10
-233.976561986193
 20
75.599310270615
 42
0.0
  0
VERTEX
  8
Default
 10
-284.191850385918
 20
99.644536968545
 42
-0.0360860864203
  0
VERTEX
  8
Default
 10
-265.375202120174
 20
134.392227709625
 42
0.0
  0
VERTEX
  8
Default
 10
-272.315130029687
 20
139.055201147715
 42
0.0760196517232
  0
VERTEX
  8
Default
 10
-311.640991680139
 20
47.031518331215
 42
0.0
  0
VERTEX
  8
Default
 10
-303.657322489751
 20
44.8685429831251
 42
-0.0378500558107
  0
VERTEX
  8
Default
 10
-291.526695738214
 20
82.3409495338151
 42
0.0
  0
VERTEX
  8
Default
 10
-252.511080019675
 20
66.7227988336451
 42
0.0401086506736
  0
VERTEX
  8
Default
 10
-263.936435259209
 20
31.919009418915
 42
0.0
  0
SEQEND
  0
POLYLINE
  8
Default
 66
     1
 10
0.0
 20
0.0
 30
0.0
 70
     1
  0
VERTEX
  8
Default
 10
-228.277942216252
 20
131.246071960135
 42
0.0
  0
VERTEX
  8
Default
 10
-240.295781757266
 20
139.982175200465
 42
0.0283816824508
  0
VERTEX
  8
Default
 10
-256.573366069955
 20
114.167202245005
 42
0.0
  0
VERTEX
  8
Default
 10
-216.542232907497
 20
90.7680255315749
 42
-0.0467369957126
  0
VERTEX
  8
Default
 10
-198.459079990714
 20
117.285254820175
 42
0.0
  0
VERTEX
  8
Default
 10
-188.698066033187
 20
109.616641504225
 42
0.0789449872803
  0
VERTEX
  8
Default
 10
-223.030687563008
 20
45.486597468295
 42
0.0
  0
VERTEX
  8
Default
 10
-234.851068382631
 20
49.672032292855
 42
-0.0398578673782
  0
VERTEX
  8
Default
 10
-222.043393956049
 20
80.4026919053351
 42
0.0
  0
VERTEX
  8
Default
 10
-271.553410843769
 20
106.189561686475
 42
-0.0602095919061
  0
VERTEX
  8
Default
 10
-234.230468381498
 20
162.622889232105
 42
0.0
  0
VERTEX
  8
Default
 10
-216.0908677908
 20
147.285554925195
 42
0.0022933824159
  0
SEQEND
  0
POLYLINE
  8
Default
 66
     1
 10
0.0
 20
0.0
 30
0.0
 70
     1
  0
VERTEX
  8
Default
 10
-238.349202105692
 20
127.650480771415
 42
0.0177555258495
  0
VERTEX
  8
Default
 10
-244.72486955068
 20
117.509972539785
 42
0.0
  0
VERTEX
  8
Default
 10
-220.068590467515
 20
102.228844581525
 42
-0.0525432741438
  0
VERTEX
  8
Default
 10
-182.91488288968
 20
149.504736621935
 42
0.0
  0
VERTEX
  8
Default
 10
-221.93049860822
 20
189.364728565325
 42
-0.0355902755823
  0
VERTEX
  8
Default
 10
-192.421990451903
 20
215.572930611345
 42
0.0
  0
VERTEX
  8
Default
 10
-197.358891035927
 20
222.314677549545
 42
0.0763169680736
  0
VERTEX
  8
Default
 10
-265.629108515478
 20
149.364220750305
 42
0.0
  0
VERTEX
  8
Default
 10
-258.858523627706
 20
144.588942289915
 42
-0.0380068922468
  0
VERTEX
  8
Default
 10
-234.710057335152
 20
175.628629144975
 42
0.0
  0
VERTEX
  8
Default
 10
-203.367756737781
 20
147.538375819125
 42
0.0396467328588
  0
VERTEX
  8
Default
 10
-225.936445121892
 20
118.773969334455
 42
0.0
  0
SEQEND
  0
POLYLINE
  8
Default
 66
     1
 10
0.0
 20
0.0
 30
0.0
 70
     1
  0
VERTEX
  8
Default
 10
-69.87409038504
 20
240.348516816745
 42
0.0
  0
VERTEX
  8
Default
 10
-73.485011318622
 20
254.815083419555
 42
0.0289406530559
  0
VERTEX
  8
Default
 10
-102.457590984678
 20
245.545235217025
 42
0.0
  0
VERTEX
  8
Default
 10
-86.772382836167
 20
201.752629343025
 42
-0.0470974829826
  0
VERTEX
  8
Default
 10
-55.937895029406
 20
210.376212211065
 42
0.0
  0
VERTEX
  8
Default
 10
-53.370715376698
 20
198.185141328635
 42
0.0793629409436
  0
VERTEX
  8
Default
 10
-120.681754948941
 20
171.246579775145
 42
0.0
  0
VERTEX
  8
Default
 10
-127.057422393928
 20
182.117555189245
 42
-0.0396468147186
  0
VERTEX
  8
Default
 10
-97.605361911523
 20
197.370472298185
 42
0.0
  0
VERTEX
  8
Default
 10
-119.045529366585
 20
249.112723231405
 42
-0.0605818689392
  0
VERTEX
  8
Default
 10
-54.358117120964
 20
268.242155597315
 42
0.0
  0
VERTEX
  8
Default
 10
-50.267499096422
 20
244.758777035895
 42
0.0011212586221
  0
SEQEND
  0
POLYLINE
  8
Default
 66
     1
 10
0.0
 20
0.0
 30
0.0
 70
     1
  0
VERTEX
  8
Default
 10
-169.317265440223
 20
199.926676736835
 42
0.0137623280393
  0
VERTEX
  8
Default
 10
-178.76792532853
 20
192.595193837785
 42
0.0
  0
VERTEX
  8
Default
 10
-160.797667759573
 20
169.729654411555
 42
-0.0533143847795
  0
VERTEX
  8
Default
 10
-109.792436336975
 20
201.387395751785
 42
0.0
  0
VERTEX
  8
Default
 10
-132.925277048305
 20
252.258878980905
 42
-0.0353536341378
  0
VERTEX
  8
Default
 10
-96.279382261081
 20
266.753333408045
 42
0.0
  0
VERTEX
  8
Default
 10
-98.592655518484
 20
274.787287990235
 42
0.0765078386115
  0
VERTEX
  8
Default
 10
-187.569653241442
 20
229.702366797245
 42
0.0
  0
VERTEX
  8
Default
 10
-182.830319516116
 20
222.876418011065
 42
-0.0386152478625
  0
VERTEX
  8
Default
 10
-149.597886941083
 20
243.747493460175
 42
0.0
  0
VERTEX
  8
Default
 10
-129.68104972055
 20
206.584114152065
 42
0.0402821334822
  0
VERTEX
  8
Default
 10
-160.684772411746
 20
187.314165914535
 42
0.0
  0
SEQEND
  0
POLYLINE
  8
Default
 66
     1
 10
0.0
 20
0.0
 30
0.0
 70
     1
  0
VERTEX
  8
Default
 10
-20.5046479413134
 20
-93.9248943979965
 42
-0.591293113502
  0
VERTEX
  8
Default
 10
-21.409917544159
 20
30.1009875880472
 42
0.0
  0
SEQEND
  0
POLYLINE
  8
Default
 66
     1
 10
0.0
 20
0.0
 30
0.0
 70
     1
  0
VERTEX
  8
Default
 10
200.569118370628
 20
-504.386116006899
 42
-0.2434743735136
  0
VERTEX
  8
Default
 10
203.401485202607
 20
-521.890486912326
 42
-0.1610493225769
  0
VERTEX
  8
Default
 10
192.760506238714
 20
-537.73798430668
 42
-0.1129916427071
  0
VERTEX
  8
Default
 10
180.586593503169
 20
-543.407913877673
 42
-0.1461900644344
  0
VERTEX
  8
Default
 10
172.833831359458
 20
-543.171626322494
 42
-0.1854023853056
  0
VERTEX
  8
Default
 10
165.296282809048
 20
-536.943134820267
 42
-0.1374798066436
  0
VERTEX
  8
Default
 10
163.533483559587
 20
-529.720267027505
 42
-0.1689703528635
  0
VERTEX
  8
Default
 10
171.159685512335
 20
-511.098639079209
 42
-0.1399751808312
  0
VERTEX
  8
Default
 10
185.136555288852
 20
-502.12863043867
 42
-0.0203833154049
  0
VERTEX
  8
Default
 10
187.515657076003
 20
-501.516962686215
 42
-0.1625534464324
  0
VERTEX
  8
Default
 10
195.734003890912
 20
-501.492839271824
 42
-0.1095526458886
  0
SEQEND
  0
POLYLINE
  8
Default
 66
     1
 10
0.0
 20
0.0
 30
0.0
 70
     1
  0
VERTEX
  8
Default
 10
82.8640111122945
 20
-723.333412269577
 42
-0.2434743734794
  0
VERTEX
  8
Default
 10
85.6963779414555
 20
-740.837783174456
 42
-0.1610493225911
  0
VERTEX
  8
Default
 10
75.0553989790445
 20
-756.685280567578
 42
-0.1129916427544
  0
VERTEX
  8
Default
 10
62.8814862402364
 20
-762.355210138696
 42
-0.1461900643964
  0
VERTEX
  8
Default
 10
55.1287240964605
 20
-762.118922582069
 42
-0.1854023853038
  0
VERTEX
  8
Default
 10
47.5911755471894
 20
-755.890431078487
 42
-0.1374798065695
  0
VERTEX
  8
Default
 10
45.8283762988485
 20
-748.667563289369
 42
-0.1689703528619
  0
VERTEX
  8
Default
 10
53.4545782510145
 20
-730.045935340762
 42
-0.1399751808306
  0
VERTEX
  8
Default
 10
67.4314480272454
 20
-721.075926699689
 42
-0.0203833154408
  0
VERTEX
  8
Default
 10
69.8105498186295
 20
-720.464258946233
 42
-0.1625534464696
  0
VERTEX
  8
Default
 10
78.0288966324364
 20
-720.440135532762
 42
-0.1095526459538
  0
SEQEND
  0
POLYLINE
  8
Default
 66
     1
 10
0.0
 20
0.0
 30
0.0
 70
     1
  0
VERTEX
  8
Default
 10
300.146648161614
 20
-556.099837436098
 42
-0.1950037004083
  0
VERTEX
  8
Default
 10
306.606630428953
 20
-586.831536047532
 42
-0.1255467291779
  0
VERTEX
  8
Default
 10
282.311045734967
 20
-632.696267494586
 42
-0.1444564063968
  0
VERTEX
  8
Default
 10
228.374373540703
 20
-667.962056237268
 42
-0.1684371284415
  0
VERTEX
  8
Default
 10
193.78991743716
 20
-669.092210980709
 42
-0.0934114031538
  0
VERTEX
  8
Default
 10
183.457391963513
 20
-663.287743694256
 42
-0.2047256431198
  0
VERTEX
  8
Default
 10
172.181417468597
 20
-640.849248304886
 42
-0.1301915997269
  0
VERTEX
  8
Default
 10
182.834944779796
 20
-602.543629080112
 42
-0.148067982646
  0
VERTEX
  8
Default
 10
233.091354554055
 20
-554.97957122703
 42
-0.0329215422591
  0
VERTEX
  8
Default
 10
247.518449989792
 20
-548.912595857648
 42
-0.1595766437766
  0
VERTEX
  8
Default
 10
283.016865399536
 20
-545.906769168332
 42
-0.1716650844724
  0
SEQEND
  0
POLYLINE
  8
Default
 66
     1
 10
0.0
 20
0.0
 30
0.0
 70
     1
  0
VERTEX
  8
Default
 10
254.920989925164
 20
631.289262054075
 42
-0.0937064526044
  0
VERTEX
  8
Default
 10
230.316964431161
 20
615.896475864005
 42
-0.060249603086
  0
VERTEX
  8
Default
 10
260.232243884776
 20
604.645145051425
 42
-0.1102193299023
  0
SEQEND
  0
POLYLINE
  8
Default
 66
     1
 10
0.0
 20
0.0
 30
0.0
 70
     1
  0
VERTEX
  8
Default
 10
292.943512776387
 20
182.761855614995
 42
0.0434077965152
  0
VERTEX
  8
Default
 10
252.065935379541
 20
228.821721419445
 42
0.0952413316166
  0
VERTEX
  8
Default
 10
308.291716514041
 20
233.142161296625
 42
0.1798954834384
  0
VERTEX
  8
Default
 10
354.672152227175
 20
264.935293264515
 42
0.0
  0
VERTEX
  8
Default
 10
354.672152227175
 20
47.368322104195
 42
0.1060497013304
  0
VERTEX
  8
Default
 10
292.943434982576
 20
182.761960324135
 42
0.0
  0
SEQEND
  0
POLYLINE
  8
Default
 66
     1
 10
0.0
 20
0.0
 30
0.0
 70
     1
  0
VERTEX
  8
Default
 10
292.943512731116
 20
-256.757000429293
 42
-0.0433773709969
  0
VERTEX
  8
Default
 10
252.065935340795
 20
-303.489273378798
 42
-0.0965511914197
  0
VERTEX
  8
Default
 10
308.29171646632
 20
-307.872785403317
 42
-0.1806629523323
  0
VERTEX
  8
Default
 10
354.672152172048
 20
-340.130050922737
 42
0.0
  0
VERTEX
  8
Default
 10
354.672152172048
 20
-119.386917969968
 42
-0.1052943729672
  0
VERTEX
  8
Default
 10
292.943434937305
 20
-256.757106667024
 42
0.0
  0
SEQEND
  0
POLYLINE
  8
Default
 66
     1
 10
0.0
 20
0.0
 30
0.0
 70
     1
  0
VERTEX
  8
Default
 10
254.92098988596
 20
-711.832255577206
 42
-0.108804054546
  0
VERTEX
  8
Default
 10
260.232243844724
 20
-684.799173163278
 42
-0.0609134898168
  0
VERTEX
  8
Default
 10
230.316964395885
 20
-696.214757064692
 42
-0.0938990030055
  0
SEQEND
  0
POLYLINE
  8
Default
 66
     1
 10
0.0
 20
0.0
 30
0.0
 70
     1
  0
VERTEX
  8
Default
 10
311.29100736327
 20
-761.633250425309
 42
0.1089893652063
  0
VERTEX
  8
Default
 10
354.672152172047
 20
-777.169667871876
 42
0.0
  0
VERTEX
  8
Default
 10
354.672152172047
 20
-658.742705644267
 42
0.0955900658158
  0
VERTEX
  8
Default
 10
321.926410191098
 20
-662.156753857919
 42
0.0789959438211
  0
VERTEX
  8
Default
 10
297.291126471502
 20
-674.173381982235
 42
0.0236741759304
  0
VERTEX
  8
Default
 10
292.676330232773
 20
-677.66846657191
 42
0.1324465940817
  0
VERTEX
  8
Default
 10
279.948880860527
 20
-696.015769684357
 42
0.1731034439165
  0
VERTEX
  8
Default
 10
279.928136052833
 20
-724.925217559333
 42
0.1704453977003
  0
VERTEX
  8
Default
 10
310.274210685495
 20
-761.042870338754
 42
-0.0057757802036
  0
SEQEND
  0
POLYLINE
  8
Default
 66
     1
 10
0.0
 20
0.0
 30
0.0
 70
     1
  0
VERTEX
  8
Default
 10
218.943334339152
 20
-499.962487046153
 42
0.0174512440995
  0
VERTEX
  8
Default
 10
218.486026564948
 20
-499.119628049151
 42
0.0751322467001
  0
VERTEX
  8
Default
 10
271.931922586291
 20
-485.981510657627
 42
0.1111461329709
  0
VERTEX
  8
Default
 10
338.051742291364
 20
-439.416629743796
 42
0.0605638371674
  0
VERTEX
  8
Default
 10
354.672152172048
 20
-415.015123104768
 42
0.0
  0
VERTEX
  8
Default
 10
354.672152172047
 20
-635.924163154039
 42
0.0935133431863
  0
VERTEX
  8
Default
 10
310.697290743341
 20
-641.996932710788
 42
0.0724687110323
  0
VERTEX
  8
Default
 10
329.008550695778
 20
-609.219936758983
 42
0.1346675953844
  0
VERTEX
  8
Default
 10
333.875120472305
 20
-565.566292966469
 42
0.2289924239241
  0
VERTEX
  8
Default
 10
305.165196927435
 20
-524.832329526482
 42
0.0401307285146
  0
VERTEX
  8
Default
 10
296.860907100079
 20
-521.060076614868
 42
0.1760498695828
  0
VERTEX
  8
Default
 10
235.627453914246
 20
-523.554131395903
 42
0.0342438999033
  0
VERTEX
  8
Default
 10
218.883533318772
 20
-531.094977261583
 42
0.2098492837422
  0
SEQEND
  0
POLYLINE
  8
Default
 66
     1
 10
0.0
 20
0.0
 30
0.0
 70
     1
  0
VERTEX
  8
Default
 10
248.717959273474
 20
667.470810278995
 42
-0.2493181371415
  0
VERTEX
  8
Default
 10
240.210144428839
 20
647.691749454035
 42
-0.0163971546048
  0
VERTEX
  8
Default
 10
239.013721983245
 20
646.795279629525
 42
-0.163281842818
  0
VERTEX
  8
Default
 10
203.922840323762
 20
631.565953833705
 42
-0.1588604731799
  0
VERTEX
  8
Default
 10
155.381428389409
 20
639.504953519365
 42
-0.2033576937437
  0
VERTEX
  8
Default
 10
142.230840316513
 20
658.183332076725
 42
-0.249318137135
  0
VERTEX
  8
Default
 10
150.738655162489
 20
677.962392901625
 42
-0.0163971545898
  0
VERTEX
  8
Default
 10
151.935077607361
 20
678.858862725555
 42
-0.1632818428449
  0
VERTEX
  8
Default
 10
187.025959266438
 20
694.088188521085
 42
-0.1588604732158
  0
VERTEX
  8
Default
 10
235.567371203295
 20
686.149188833795
 42
-0.2033576937389
  0
SEQEND
  0
POLYLINE
  8
Default
 66
     1
 10
0.0
 20
0.0
 30
0.0
 70
     1
  0
VERTEX
  8
Default
 10
330.997937155893
 20
288.178113567865
 42
-0.0854337643019
  0
VERTEX
  8
Default
 10
325.321982394123
 20
278.952979084825
 42
-0.1680195338059
  0
VERTEX
  8
Default
 10
289.234611621126
 20
261.492408448715
 42
-0.1776558464947
  0
VERTEX
  8
Default
 10
187.092678305731
 20
284.630901143495
 42
-0.1513538272571
  0
VERTEX
  8
Default
 10
144.203099381448
 20
330.154677043375
 42
-0.2515800856258
  0
VERTEX
  8
Default
 10
144.116163059127
 20
367.397112898605
 42
-0.1513198436559
  0
VERTEX
  8
Default
 10
165.37910850002
 20
383.908399002515
 42
-0.0847153290833
  0
VERTEX
  8
Default
 10
195.317459856059
 20
390.281463275125
 42
-0.0842302234093
  0
VERTEX
  8
Default
 10
246.27192099981
 20
383.775111244665
 42
-0.1435605979648
  0
VERTEX
  8
Default
 10
318.500520579714
 20
336.269012562665
 42
-0.0812772768446
  0
VERTEX
  8
Default
 10
329.869703410718
 20
316.180989450575
 42
-0.0222747389088
  0
VERTEX
  8
Default
 10
332.155365430863
 20
308.751958639105
 42
-0.1504846580535
  0
SEQEND
  0
POLYLINE
  8
Default
 66
     1
 10
0.0
 20
0.0
 30
0.0
 70
     1
  0
VERTEX
  8
Default
 10
200.569118401154
 20
426.827960533675
 42
-0.253973213263
  0
VERTEX
  8
Default
 10
188.538343427001
 20
423.700836305715
 42
-0.0206924881628
  0
VERTEX
  8
Default
 10
187.515657104446
 20
424.000090015465
 42
-0.0717758812098
  0
VERTEX
  8
Default
 10
179.368690575964
 20
427.004261702735
 42
-0.0756185619706
  0
VERTEX
  8
Default
 10
172.061186305549
 20
432.554855277005
 42
-0.1726704039781
  0
VERTEX
  8
Default
 10
163.573512403604
 20
451.266534616565
 42
-0.0331020006649
  0
VERTEX
  8
Default
 10
163.53605360496
 20
452.812155688875
 42
-0.2229241951488
  0
VERTEX
  8
Default
 10
168.7903182794
 20
462.980144366895
 42
-0.2172335639743
  0
VERTEX
  8
Default
 10
179.520086762942
 20
465.478691732445
 42
-0.1496249184449
  0
VERTEX
  8
Default
 10
195.114629028436
 20
457.795578933975
 42
-0.1363057521901
  0
VERTEX
  8
Default
 10
203.401485233586
 20
444.080469859865
 42
-0.2475568694751
  0
SEQEND
  0
POLYLINE
  8
Default
 66
     1
 10
0.0
 20
0.0
 30
0.0
 70
     1
  0
VERTEX
  8
Default
 10
82.8640111240289
 20
642.624934393805
 42
-0.2539732133033
  0
VERTEX
  8
Default
 10
70.8332361530639
 20
639.497810162695
 42
-0.0206924882131
  0
VERTEX
  8
Default
 10
69.8105498282809
 20
639.797063872965
 42
-0.071775881214
  0
VERTEX
  8
Default
 10
61.6635832994659
 20
642.801235559365
 42
-0.0756185619695
  0
VERTEX
  8
Default
 10
54.3560790284279
 20
648.351829132865
 42
-0.1726704039774
  0
VERTEX
  8
Default
 10
45.8684051244039
 20
667.063508471815
 42
-0.0331020007591
  0
VERTEX
  8
Default
 10
45.8309463255259
 20
668.609129548165
 42
-0.2229241951495
  0
VERTEX
  8
Default
 10
51.0852110012819
 20
678.777118225875
 42
-0.2172335639649
  0
VERTEX
  8
Default
 10
61.8149794847689
 20
681.275665590395
 42
-0.1496249184332
  0
VERTEX
  8
Default
 10
77.4095217507669
 20
673.592552789245
 42
-0.1363057521342
  0
VERTEX
  8
Default
 10
85.6963779536449
 20
659.877443719465
 42
-0.24755686943
  0
SEQEND
  0
POLYLINE
  8
Default
 66
     1
 10
0.0
 20
0.0
 30
0.0
 70
     1
  0
VERTEX
  8
Default
 10
311.397916721211
 20
680.439659853515
 42
-0.1074239827594
  0
VERTEX
  8
Default
 10
354.672152227175
 20
695.686567221635
 42
0.0
  0
VERTEX
  8
Default
 10
354.672152227175
 20
578.963590923695
 42
-0.0944341629565
  0
VERTEX
  8
Default
 10
321.996732986689
 20
582.303193328905
 42
-0.0780407957755
  0
VERTEX
  8
Default
 10
297.347053230235
 20
594.136132031405
 42
-0.0145996880611
  0
VERTEX
  8
Default
 10
293.501001123708
 20
596.934828068785
 42
-0.1569568185228
  0
VERTEX
  8
Default
 10
279.108694317069
 20
618.237790017355
 42
-0.1584604783367
  0
VERTEX
  8
Default
 10
279.92813609603
 20
644.193835998745
 42
-0.1701185039812
  0
VERTEX
  8
Default
 10
310.096645667507
 20
679.696790731615
 42
0.0064004595369
  0
SEQEND
  0
POLYLINE
  8
Default
 66
     1
 10
0.0
 20
0.0
 30
0.0
 70
     1
  0
VERTEX
  8
Default
 10
218.943334372612
 20
422.467980942685
 42
-0.0175836417738
  0
VERTEX
  8
Default
 10
218.486026598335
 20
421.637249419385
 42
-0.0744967886427
  0
VERTEX
  8
Default
 10
271.660308948384
 20
408.852979202905
 42
-0.1108132878913
  0
VERTEX
  8
Default
 10
338.051742343836
 20
362.793287495275
 42
-0.0609668048042
  0
VERTEX
  8
Default
 10
354.672152227174
 20
338.742881848725
 42
0.0
  0
VERTEX
  8
Default
 10
354.672152227176
 20
556.473372951875
 42
-0.0923031164585
  0
VERTEX
  8
Default
 10
310.697290791449
 20
562.458764485205
 42
-0.0729426421942
  0
VERTEX
  8
Default
 10
328.974996236842
 20
530.239929935675
 42
-0.136909706515
  0
VERTEX
  8
Default
 10
333.875120524114
 20
487.127846732145
 42
-0.2286511295826
  0
VERTEX
  8
Default
 10
305.346133686775
 20
447.050157473855
 42
-0.0413658858225
  0
VERTEX
  8
Default
 10
296.860907145977
 20
443.262007918055
 42
-0.1735291357745
  0
VERTEX
  8
Default
 10
235.627453950369
 20
445.720177000645
 42
-0.0339367920378
  0
VERTEX
  8
Default
 10
218.883533352221
 20
453.152521432095
 42
-0.2129000171992
  0
SEQEND
  0
POLYLINE
  8
Default
 66
     1
 10
0.0
 20
0.0
 30
0.0
 70
     1
  0
VERTEX
  8
Default
 10
324.234307332858
 20
756.308536350015
 42
-0.1194612921951
  0
VERTEX
  8
Default
 10
316.68296115784
 20
758.049820738695
 42
-0.1521778734509
  0
VERTEX
  8
Default
 10
309.645592109318
 20
764.860331503485
 42
-0.1791352579627
  0
VERTEX
  8
Default
 10
300.132999191278
 20
797.099049955995
 42
-0.1610288375546
  0
VERTEX
  8
Default
 10
311.232625487905
 20
831.945071877095
 42
-0.2711661592119
  0
VERTEX
  8
Default
 10
328.285351449077
 20
837.452364827305
 42
-0.0888233017024
  0
VERTEX
  8
Default
 10
335.219731038179
 20
833.457319684985
 42
-0.1338311639277
  0
VERTEX
  8
Default
 10
341.947442560262
 20
823.669414244875
 42
-0.2130160061565
  0
VERTEX
  8
Default
 10
343.851333101203
 20
774.892623988625
 42
-0.0394986380927
  0
VERTEX
  8
Default
 10
339.669591225825
 20
766.445061884465
 42
-0.2120323958258
  0
SEQEND
  0
POLYLINE
  8
Default
 66
     1
 10
0.0
 20
0.0
 30
0.0
 70
     1
  0
VERTEX
  8
Default
 10
300.146648208035
 20
477.797599263895
 42
-0.1722850361133
  0
VERTEX
  8
Default
 10
283.016865443225
 20
467.751193923065
 42
-0.1571774697457
  0
VERTEX
  8
Default
 10
247.518450027812
 20
470.713771285625
 42
-0.062221481686
  0
VERTEX
  8
Default
 10
220.750660004753
 20
483.758066860895
 42
-0.0681493282547
  0
VERTEX
  8
Default
 10
196.029082939071
 20
505.252506229135
 42
-0.0485901418082
  0
VERTEX
  8
Default
 10
182.114966568963
 20
524.810326739985
 42
-0.1264953353508
  0
VERTEX
  8
Default
 10
172.181417494591
 20
561.327593532345
 42
-0.2403001235031
  0
VERTEX
  8
Default
 10
186.54902658739
 20
585.770940173445
 42
-0.0597423447238
  0
VERTEX
  8
Default
 10
193.19003682403
 20
588.966097174355
 42
-0.1691843837973
  0
VERTEX
  8
Default
 10
228.37437357567
 20
588.050288923105
 42
-0.1380598878344
  0
VERTEX
  8
Default
 10
281.017938352155
 20
554.755445077415
 42
0.0045261016674
  0
VERTEX
  8
Default
 10
283.437721180389
 20
552.039791795055
 42
-0.1217052525843
  0
VERTEX
  8
Default
 10
306.606630476407
 20
508.087114937905
 42
-0.1983534477737
  0
SEQEND
  0
POLYLINE
  8
Default
 66
     1
 10
0.0
 20
0.0
 30
0.0
 70
     1
  0
VERTEX
  8
Default
 10
330.997937104546
 20
-363.712182645462
 42
-0.1483864135489
  0
VERTEX
  8
Default
 10
332.15451734816
 20
-384.535182668077
 42
-0.0872339341886
  0
VERTEX
  8
Default
 10
322.217529373436
 20
-407.390916690605
 42
-0.0370672346057
  0
VERTEX
  8
Default
 10
316.923695162585
 20
-414.367000517812
 42
-0.1653905560612
  0
VERTEX
  8
Default
 10
232.450905730259
 20
-464.235342435833
 42
-0.0564724445832
  0
VERTEX
  8
Default
 10
198.399402546273
 20
-467.399605111105
 42
-0.0899452380172
  0
VERTEX
  8
Default
 10
166.66674106749
 20
-461.348047180214
 42
-0.0701300482644
  0
VERTEX
  8
Default
 10
154.948064331723
 20
-455.169210617273
 42
-0.075082454545
  0
VERTEX
  8
Default
 10
145.232241328123
 20
-445.634387929039
 42
-0.2661214240947
  0
VERTEX
  8
Default
 10
144.20309935992
 20
-406.301542982471
 42
-0.144083177081
  0
VERTEX
  8
Default
 10
183.973359982884
 20
-362.130035737875
 42
-0.1902964916486
  0
VERTEX
  8
Default
 10
291.645277796334
 20
-336.975715852412
 42
-0.1588611743633
  0
VERTEX
  8
Default
 10
325.321982343681
 20
-354.352374597248
 42
-0.0840188164309
  0
SEQEND
  0
POLYLINE
  8
Default
 66
     1
 10
0.0
 20
0.0
 30
0.0
 70
     1
  0
VERTEX
  8
Default
 10
248.71795923526
 20
-748.542001857421
 42
-0.2044844620245
  0
VERTEX
  8
Default
 10
235.567371167182
 20
-767.493057611307
 42
-0.1614534395386
  0
VERTEX
  8
Default
 10
187.025959238074
 20
-775.547955163719
 42
-0.163675746692
  0
VERTEX
  8
Default
 10
151.935077584599
 20
-760.096303330099
 42
-0.2617509480462
  0
VERTEX
  8
Default
 10
142.230840295298
 20
-739.118939962194
 42
-0.2044844620288
  0
VERTEX
  8
Default
 10
155.381428366096
 20
-720.167884205712
 42
-0.1614534395015
  0
VERTEX
  8
Default
 10
203.9228402927
 20
-712.112986654978
 42
-0.1636757466628
  0
VERTEX
  8
Default
 10
239.01372194658
 20
-727.564638488875
 42
-0.2617509480973
  0
SEQEND
  0
POLYLINE
  8
Default
 66
     1
 10
0.0
 20
0.0
 30
0.0
 70
     1
  0
VERTEX
  8
Default
 10
466.589347032322
 20
-640.312608465989
 42
0.0
  0
VERTEX
  8
Default
 10
466.589347032322
 20
-686.072579249057
 42
0.0
  0
VERTEX
  8
Default
 10
402.292676576991
 20
-686.072579249057
 42
0.0
  0
VERTEX
  8
Default
 10
402.292676576992
 20
-777.416036079418
 42
0.0
  0
VERTEX
  8
Default
 10
432.437019749031
 20
-777.416036079418
 42
0.0
  0
VERTEX
  8
Default
 10
432.437019749031
 20
-758.116169614155
 42
0.0
  0
VERTEX
  8
Default
 10
413.089463108405
 20
-758.116169614155
 42
0.0
  0
VERTEX
  8
Default
 10
413.089463108406
 20
-701.72929652525
 42
-0.0247442785516
  0
VERTEX
  8
Default
 10
466.589347032322
 20
-701.905781261041
 42
0.0
  0
VERTEX
  8
Default
 10
466.590862051828
 20
-767.003436667075
 42
0.0
  0
VERTEX
  8
Default
 10
477.999716464909
 20
-767.003436667075
 42
0.0
  0
VERTEX
  8
Default
 10
478.000001509679
 20
-640.30753095365
 42
0.0
  0
SEQEND
  0
POLYLINE
  8
Default
 66
     1
 10
0.0
 20
0.0
 30
0.0
 70
     1
  0
VERTEX
  8
Default
 10
454.857793463808
 20
-640.312608465989
 42
0.0
  0
VERTEX
  8
Default
 10
454.857793463808
 20
-575.025862271591
 42
0.0
  0
VERTEX
  8
Default
 10
424.82101667692
 20
-575.025862271591
 42
0.0
  0
VERTEX
  8
Default
 10
424.82101667692
 20
-593.796274529448
 42
0.0
  0
VERTEX
  8
Default
 10
444.168573317545
 20
-593.796274529448
 42
0.0
  0
VERTEX
  8
Default
 10
444.168353364265
 20
-650.713827337108
 42
0.0
  0
VERTEX
  8
Default
 10
390.56149224286
 20
-650.713827337108
 42
0.0
  0
VERTEX
  8
Default
 10
390.56149224286
 20
-640.30753095365
 42
0.0
  0
VERTEX
  8
Default
 10
379.337858485267
 20
-640.312608465989
 42
0.0
  0
VERTEX
  8
Default
 10
379.337858485267
 20
-767.003436667075
 42
0.0
  0
VERTEX
  8
Default
 10
390.56149224286
 20
-767.00641298999
 42
0.0
  0
VERTEX
  8
Default
 10
390.561880518234
 20
-666.545803837777
 42
0.0
  0
VERTEX
  8
Default
 10
454.857657675611
 20
-666.545628672656
 42
0.0
  0
SEQEND
  0
POLYLINE
  8
Default
 66
     1
 10
0.0
 20
0.0
 30
0.0
 70
     1
  0
VERTEX
  8
Default
 10
444.168353364265
 20
-796.935632930488
 42
0.0
  0
VERTEX
  8
Default
 10
390.56149224286
 20
-796.935632930488
 42
0.0
  0
VERTEX
  8
Default
 10
390.56149224286
 20
-786.529336547011
 42
0.0
  0
VERTEX
  8
Default
 10
379.337858485267
 20
-786.530212078356
 42
0.0
  0
VERTEX
  8
Default
 10
379.337722672489
 20
-913.228218583352
 42
0.0
  0
VERTEX
  8
Default
 10
390.561123008483
 20
-913.233646332014
 42
0.0
  0
VERTEX
  8
Default
 10
390.561880518183
 20
-812.763407450136
 42
0.0
  0
VERTEX
  8
Default
 10
454.857657675483
 20
-812.767434265994
 42
0.0
  0
VERTEX
  8
Default
 10
454.857793463808
 20
-721.243465883991
 42
0.0
  0
VERTEX
  8
Default
 10
424.821016676919
 20
-721.243465883991
 42
0.0
  0
VERTEX
  8
Default
 10
424.821016676919
 20
-740.013878141829
 42
0.0
  0
VERTEX
  8
Default
 10
444.168573317545
 20
-740.013878141829
 42
0.0
  0
SEQEND
  0
POLYLINE
  8
Default
 66
     1
 10
0.0
 20
0.0
 30
0.0
 70
     1
  0
VERTEX
  8
Default
 10
466.589347032322
 20
-786.530212078355
 42
0.0
  0
VERTEX
  8
Default
 10
466.589347032322
 20
-832.290182861456
 42
0.0
  0
VERTEX
  8
Default
 10
402.292676576992
 20
-832.290182861456
 42
0.0
  0
VERTEX
  8
Default
 10
402.292676576992
 20
-923.633639691801
 42
0.0
  0
VERTEX
  8
Default
 10
432.437019749031
 20
-923.633639691801
 42
0.0
  0
VERTEX
  8
Default
 10
432.437019749031
 20
-904.333773226555
 42
0.0
  0
VERTEX
  8
Default
 10
413.089463108405
 20
-904.333773226555
 42
0.0
  0
VERTEX
  8
Default
 10
413.089463108402
 20
-847.946900137646
 42
-0.0252798916025
  0
VERTEX
  8
Default
 10
466.589347032322
 20
-848.135990926013
 42
0.0
  0
VERTEX
  8
Default
 10
466.590862051828
 20
-913.233646332014
 42
0.0
  0
VERTEX
  8
Default
 10
477.999716464909
 20
-913.233646332014
 42
0.0
  0
VERTEX
  8
Default
 10
478.000001509679
 20
-786.529336547011
 42
0.0
  0
SEQEND
  0
POLYLINE
  8
Default
 66
     1
 10
0.0
 20
0.0
 30
0.0
 70
     1
  0
VERTEX
  8
Default
 10
466.589347032322
 20
90.8006217010949
 42
0.0
  0
VERTEX
  8
Default
 10
466.589347032322
 20
45.0406509180048
 42
0.0
  0
VERTEX
  8
Default
 10
402.292676576992
 20
45.0406509180049
 42
0.0
  0
VERTEX
  8
Default
 10
402.292676576992
 20
-46.3028059123441
 42
0.0
  0
VERTEX
  8
Default
 10
432.437019749032
 20
-46.3028059123441
 42
0.0
  0
VERTEX
  8
Default
 10
432.437019749032
 20
-27.0029394470841
 42
0.0
  0
VERTEX
  8
Default
 10
413.089463108407
 20
-27.002939447084
 42
0.0
  0
VERTEX
  8
Default
 10
413.089463108406
 20
29.3839336418249
 42
-0.0247442785535
  0
VERTEX
  8
Default
 10
466.589347032321
 20
29.2074489060149
 42
0.0
  0
VERTEX
  8
Default
 10
466.590862051828
 20
-35.8902065000031
 42
0.0
  0
VERTEX
  8
Default
 10
477.999716464909
 20
-35.8902065000031
 42
0.0
  0
VERTEX
  8
Default
 10
478.000001509679
 20
90.8056992134348
 42
0.0
  0
SEQEND
  0
POLYLINE
  8
Default
 66
     1
 10
0.0
 20
0.0
 30
0.0
 70
     1
  0
VERTEX
  8
Default
 10
454.857793463808
 20
-347.864795188651
 42
0.0
  0
VERTEX
  8
Default
 10
454.857793463808
 20
-282.578048994254
 42
0.0
  0
VERTEX
  8
Default
 10
424.82101667692
 20
-282.578048994254
 42
0.0
  0
VERTEX
  8
Default
 10
424.82101667692
 20
-301.348461252123
 42
0.0
  0
VERTEX
  8
Default
 10
444.168573317545
 20
-301.348461252123
 42
0.0
  0
VERTEX
  8
Default
 10
444.168353364265
 20
-358.266013950118
 42
0.0
  0
VERTEX
  8
Default
 10
390.561492242861
 20
-358.266013950118
 42
0.0
  0
VERTEX
  8
Default
 10
390.561492242861
 20
-347.859717566643
 42
0.0
  0
VERTEX
  8
Default
 10
379.337858485268
 20
-347.864795188651
 42
0.0
  0
VERTEX
  8
Default
 10
379.337858485268
 20
-474.555623389735
 42
0.0
  0
VERTEX
  8
Default
 10
390.561492242861
 20
-474.558599602985
 42
0.0
  0
VERTEX
  8
Default
 10
390.561880518235
 20
-374.097990560422
 42
0.0
  0
VERTEX
  8
Default
 10
454.857657675611
 20
-374.097815285667
 42
0.0
  0
SEQEND
  0
POLYLINE
  8
Default
 66
     1
 10
0.0
 20
0.0
 30
0.0
 70
     1
  0
VERTEX
  8
Default
 10
444.168353364265
 20
-504.487819543465
 42
0.0
  0
VERTEX
  8
Default
 10
390.561492242861
 20
-504.487819543465
 42
0.0
  0
VERTEX
  8
Default
 10
390.561492242861
 20
-494.081523160006
 42
0.0
  0
VERTEX
  8
Default
 10
379.337858485268
 20
-494.082398801017
 42
0.0
  0
VERTEX
  8
Default
 10
379.337722684326
 20
-620.780405196345
 42
0.0
  0
VERTEX
  8
Default
 10
390.561123008483
 20
-620.785833054675
 42
0.0
  0
VERTEX
  8
Default
 10
390.561880518274
 20
-520.31559417287
 42
0.0
  0
VERTEX
  8
Default
 10
454.857657675655
 20
-520.319620879067
 42
0.0
  0
VERTEX
  8
Default
 10
454.857793463808
 20
-428.795652606653
 42
0.0
  0
VERTEX
  8
Default
 10
424.82101667692
 20
-428.795652606653
 42
0.0
  0
VERTEX
  8
Default
 10
424.82101667692
 20
-447.566064864508
 42
0.0
  0
VERTEX
  8
Default
 10
444.168573317545
 20
-447.566064864508
 42
0.0
  0
SEQEND
  0
POLYLINE
  8
Default
 66
     1
 10
0.0
 20
0.0
 30
0.0
 70
     1
  0
VERTEX
  8
Default
 10
466.589347032322
 20
-494.082398801017
 42
0.0
  0
VERTEX
  8
Default
 10
466.589347032322
 20
-539.842369584118
 42
0.0
  0
VERTEX
  8
Default
 10
402.292676576991
 20
-539.842369584118
 42
0.0
  0
VERTEX
  8
Default
 10
402.292676576991
 20
-631.185826414461
 42
0.0
  0
VERTEX
  8
Default
 10
432.437019749031
 20
-631.185826414461
 42
0.0
  0
VERTEX
  8
Default
 10
432.437019749031
 20
-611.885959949216
 42
0.0
  0
VERTEX
  8
Default
 10
413.089463108407
 20
-611.885959949216
 42
0.0
  0
VERTEX
  8
Default
 10
413.08946310841
 20
-555.499086860311
 42
-0.0252798916038
  0
VERTEX
  8
Default
 10
466.589347032321
 20
-555.688177648674
 42
0.0
  0
VERTEX
  8
Default
 10
466.590862051831
 20
-620.785833054675
 42
0.0
  0
VERTEX
  8
Default
 10
477.999716464911
 20
-620.785833054675
 42
0.0
  0
VERTEX
  8
Default
 10
478.000001509679
 20
-494.081523160006
 42
0.0
  0
SEQEND
  0
POLYLINE
  8
Default
 66
     1
 10
0.0
 20
0.0
 30
0.0
 70
     1
  0
VERTEX
  8
Default
 10
466.589347032322
 20
-347.864795188651
 42
0.0
  0
VERTEX
  8
Default
 10
466.589347032322
 20
-393.624765971719
 42
0.0
  0
VERTEX
  8
Default
 10
402.292676576992
 20
-393.624765971719
 42
0.0
  0
VERTEX
  8
Default
 10
402.292676576991
 20
-484.968222802079
 42
0.0
  0
VERTEX
  8
Default
 10
432.437019749031
 20
-484.968222802079
 42
0.0
  0
VERTEX
  8
Default
 10
432.437019749033
 20
-465.668356336817
 42
0.0
  0
VERTEX
  8
Default
 10
413.089463108404
 20
-465.668356336817
 42
0.0
  0
VERTEX
  8
Default
 10
413.089463108407
 20
-409.281483247911
 42
-0.0247442785513
  0
VERTEX
  8
Default
 10
466.589347032322
 20
-409.45796798372
 42
0.0
  0
VERTEX
  8
Default
 10
466.590862051828
 20
-474.555623389735
 42
0.0
  0
VERTEX
  8
Default
 10
477.999716464908
 20
-474.555623389735
 42
0.0
  0
VERTEX
  8
Default
 10
478.000001509679
 20
-347.859717566643
 42
0.0
  0
SEQEND
  0
POLYLINE
  8
Default
 66
     1
 10
0.0
 20
0.0
 30
0.0
 70
     1
  0
VERTEX
  8
Default
 10
454.857657675611
 20
-227.876009692305
 42
0.0
  0
VERTEX
  8
Default
 10
454.857793463803
 20
-136.360445381871
 42
0.0006020438497
  0
VERTEX
  8
Default
 10
424.821016676907
 20
-136.347839329318
 42
0.0
  0
VERTEX
  8
Default
 10
424.82101667692
 20
-155.11825158717
 42
0.0
  0
VERTEX
  8
Default
 10
444.168573317545
 20
-155.11825158717
 42
0.0
  0
VERTEX
  8
Default
 10
444.168353364267
 20
-212.044208356758
 42
0.0
  0
VERTEX
  8
Default
 10
390.561492242861
 20
-212.044208356758
 42
0.0
  0
VERTEX
  8
Default
 10
390.561492242861
 20
-201.637911973282
 42
0.0
  0
VERTEX
  8
Default
 10
379.337858485268
 20
-201.634585523679
 42
0.0
  0
VERTEX
  8
Default
 10
379.337858485268
 20
-328.338019777338
 42
0.0
  0
VERTEX
  8
Default
 10
390.561492242861
 20
-328.33679400964
 42
0.0
  0
VERTEX
  8
Default
 10
390.56188051816
 20
-227.880386948072
 42
0.0
  0
SEQEND
  0
POLYLINE
  8
Default
 66
     1
 10
0.0
 20
0.0
 30
0.0
 70
     1
  0
VERTEX
  8
Default
 10
466.589347032322
 20
-201.634585523679
 42
0.0
  0
VERTEX
  8
Default
 10
466.589347032322
 20
-247.39455630678
 42
0.0
  0
VERTEX
  8
Default
 10
402.292676576992
 20
-247.39455630678
 42
0.0
  0
VERTEX
  8
Default
 10
402.292676577014
 20
-338.738013137114
 42
0.0002613834386
  0
VERTEX
  8
Default
 10
432.437019749003
 20
-338.738013137114
 42
0.0
  0
VERTEX
  8
Default
 10
432.437019749032
 20
-319.438146671863
 42
0.0
  0
VERTEX
  8
Default
 10
413.089463108407
 20
-319.438146671863
 42
0.0
  0
VERTEX
  8
Default
 10
413.08946310841
 20
-263.051273582973
 42
-0.0252798916849
  0
VERTEX
  8
Default
 10
466.589347032322
 20
-263.240364371338
 42
0.0
  0
VERTEX
  8
Default
 10
466.590862051828
 20
-328.338019777338
 42
0.0
  0
VERTEX
  8
Default
 10
477.999716464909
 20
-328.338019777338
 42
0.0
  0
VERTEX
  8
Default
 10
478.000001509679
 20
-201.637911973282
 42
0.0
  0
SEQEND
  0
POLYLINE
  8
Default
 66
     1
 10
0.0
 20
0.0
 30
0.0
 70
     1
  0
VERTEX
  8
Default
 10
444.168353364267
 20
-65.822402763417
 42
0.0
  0
VERTEX
  8
Default
 10
390.561492242861
 20
-65.822402763417
 42
0.0
  0
VERTEX
  8
Default
 10
390.561492242861
 20
-55.416106379939
 42
0.0
  0
VERTEX
  8
Default
 10
379.337858485268
 20
-55.4169819113091
 42
0.0
  0
VERTEX
  8
Default
 10
379.33772267249
 20
-182.114988416276
 42
0.0
  0
VERTEX
  8
Default
 10
390.561123008484
 20
-182.120416164939
 42
0.0
  0
VERTEX
  8
Default
 10
390.561880518274
 20
-81.6501772830981
 42
0.0
  0
VERTEX
  8
Default
 10
454.857657675651
 20
-81.6542040989561
 42
0.0
  0
VERTEX
  8
Default
 10
454.857793463808
 20
9.8697642830749
 42
0.0
  0
VERTEX
  8
Default
 10
424.82101667692
 20
9.8697642830749
 42
0.0
  0
VERTEX
  8
Default
 10
424.82101667692
 20
-8.9006479747711
 42
0.0
  0
VERTEX
  8
Default
 10
444.168573317545
 20
-8.9006479747711
 42
0.0
  0
SEQEND
  0
POLYLINE
  8
Default
 66
     1
 10
0.0
 20
0.0
 30
0.0
 70
     1
  0
VERTEX
  8
Default
 10
466.589347032322
 20
-55.4169819113091
 42
0.0
  0
VERTEX
  8
Default
 10
466.589347032322
 20
-101.176952694381
 42
0.0
  0
VERTEX
  8
Default
 10
402.292676576992
 20
-101.176952694381
 42
0.0
  0
VERTEX
  8
Default
 10
402.292676576992
 20
-192.520409524741
 42
0.0
  0
VERTEX
  8
Default
 10
432.437019749032
 20
-192.520409524741
 42
0.0
  0
VERTEX
  8
Default
 10
432.437019749032
 20
-173.22054305948
 42
0.0
  0
VERTEX
  8
Default
 10
413.089463108407
 20
-173.22054305948
 42
0.0
  0
VERTEX
  8
Default
 10
413.089463108404
 20
-116.833669970574
 42
-0.0252798916031
  0
VERTEX
  8
Default
 10
466.589347032322
 20
-117.022760758943
 42
0.0
  0
VERTEX
  8
Default
 10
466.590862051828
 20
-182.120416164939
 42
0.0
  0
VERTEX
  8
Default
 10
477.999716464909
 20
-182.120416164939
 42
0.0
  0
VERTEX
  8
Default
 10
478.000001509679
 20
-55.4161063799391
 42
0.0
  0
SEQEND
  0
POLYLINE
  8
Default
 66
     1
 10
0.0
 20
0.0
 30
0.0
 70
     1
  0
VERTEX
  8
Default
 10
424.821016676923
 20
154.628893255405
 42
0.0
  0
VERTEX
  8
Default
 10
424.821016676921
 20
137.316955637625
 42
0.0
  0
VERTEX
  8
Default
 10
444.168573317545
 20
137.316955637625
 42
0.0
  0
VERTEX
  8
Default
 10
444.168353364267
 20
80.3994028299649
 42
0.0
  0
VERTEX
  8
Default
 10
390.561492242861
 20
80.399402829965
 42
0.0
  0
VERTEX
  8
Default
 10
390.561492242861
 20
90.8056992134349
 42
0.0
  0
VERTEX
  8
Default
 10
379.337858485268
 20
90.8006217010949
 42
0.0
  0
VERTEX
  8
Default
 10
379.337858485268
 20
-35.8902065000031
 42
0.0
  0
VERTEX
  8
Default
 10
390.561492242861
 20
-35.893182822909
 42
0.0
  0
VERTEX
  8
Default
 10
390.561880518235
 20
64.567426329305
 42
0.0
  0
VERTEX
  8
Default
 10
454.857657675611
 20
64.567601494415
 42
0.0
  0
VERTEX
  8
Default
 10
454.857793463807
 20
154.628893255405
 42
0.0
  0
SEQEND
  0
POLYLINE
  8
Default
 66
     1
 10
0.0
 20
0.0
 30
0.0
 70
     1
  0
VERTEX
  8
Default
 10
454.857793463808
 20
237.018225313495
 42
0.0
  0
VERTEX
  8
Default
 10
454.857793463808
 20
302.304971507865
 42
0.0
  0
VERTEX
  8
Default
 10
424.821016676921
 20
302.304971507865
 42
0.0
  0
VERTEX
  8
Default
 10
424.821016676921
 20
283.534559250005
 42
0.0
  0
VERTEX
  8
Default
 10
444.168573317545
 20
283.534559250005
 42
0.0
  0
VERTEX
  8
Default
 10
444.168353364267
 20
226.617006552005
 42
0.0
  0
VERTEX
  8
Default
 10
390.561492242861
 20
226.617006552005
 42
0.0
  0
VERTEX
  8
Default
 10
390.561492242861
 20
237.023302935475
 42
0.0
  0
VERTEX
  8
Default
 10
379.337858485268
 20
237.018225313495
 42
0.0
  0
VERTEX
  8
Default
 10
379.337858485268
 20
110.327397112395
 42
0.0
  0
VERTEX
  8
Default
 10
390.561492242861
 20
110.324420899145
 42
0.0
  0
VERTEX
  8
Default
 10
390.561880518235
 20
210.785029941685
 42
0.0
  0
VERTEX
  8
Default
 10
454.857657675611
 20
210.785205216475
 42
0.0
  0
SEQEND
  0
POLYLINE
  8
Default
 66
     1
 10
0.0
 20
0.0
 30
0.0
 70
     1
  0
VERTEX
  8
Default
 10
466.589347032322
 20
237.018225313495
 42
0.0
  0
VERTEX
  8
Default
 10
466.589347032322
 20
191.258254530405
 42
0.0
  0
VERTEX
  8
Default
 10
402.292676576992
 20
191.258254530405
 42
0.0
  0
VERTEX
  8
Default
 10
402.292676576992
 20
99.9147977000449
 42
0.0
  0
VERTEX
  8
Default
 10
432.437019749032
 20
99.9147977000449
 42
0.0
  0
VERTEX
  8
Default
 10
432.437019749034
 20
119.214664165305
 42
0.0
  0
VERTEX
  8
Default
 10
413.089463108404
 20
119.214664165305
 42
0.0
  0
VERTEX
  8
Default
 10
413.089463108407
 20
175.601537254215
 42
-0.0247442785508
  0
VERTEX
  8
Default
 10
466.589347032321
 20
175.425052518405
 42
0.0
  0
VERTEX
  8
Default
 10
466.590862051828
 20
110.327397112395
 42
0.0
  0
VERTEX
  8
Default
 10
477.999716464909
 20
110.327397112395
 42
0.0
  0
VERTEX
  8
Default
 10
478.000001509679
 20
237.023302935475
 42
0.0
  0
SEQEND
  0
POLYLINE
  8
Default
 66
     1
 10
0.0
 20
0.0
 30
0.0
 70
     1
  0
VERTEX
  8
Default
 10
454.857657675611
 20
357.007010809815
 42
0.0
  0
VERTEX
  8
Default
 10
454.857793463814
 20
448.522575120235
 42
0.0006020438495
  0
VERTEX
  8
Default
 10
424.821016676919
 20
448.535181172815
 42
0.0
  0
VERTEX
  8
Default
 10
424.821016676921
 20
429.764768914945
 42
0.0
  0
VERTEX
  8
Default
 10
444.168573317545
 20
429.764768914945
 42
0.0
  0
VERTEX
  8
Default
 10
444.168353364267
 20
372.838812145355
 42
0.0
  0
VERTEX
  8
Default
 10
390.561492242861
 20
372.838812145355
 42
0.0
  0
VERTEX
  8
Default
 10
390.561492242861
 20
383.245108528835
 42
0.0
  0
VERTEX
  8
Default
 10
379.337858485268
 20
383.248434978445
 42
0.0
  0
VERTEX
  8
Default
 10
379.337858485268
 20
256.545000724775
 42
0.0
  0
VERTEX
  8
Default
 10
390.561492242861
 20
256.546226492495
 42
0.0
  0
VERTEX
  8
Default
 10
390.56188051816
 20
357.002633554045
 42
0.0
  0
SEQEND
  0
POLYLINE
  8
Default
 66
     1
 10
0.0
 20
0.0
 30
0.0
 70
     1
  0
VERTEX
  8
Default
 10
466.589347032322
 20
383.248434978445
 42
0.0
  0
VERTEX
  8
Default
 10
466.589347032322
 20
337.488464195335
 42
0.0
  0
VERTEX
  8
Default
 10
402.292676576992
 20
337.488464195335
 42
0.0
  0
VERTEX
  8
Default
 10
402.292676576972
 20
246.145007364985
 42
0.0002613834388
  0
VERTEX
  8
Default
 10
432.43701974896
 20
246.145007364985
 42
0.0
  0
VERTEX
  8
Default
 10
432.437019749032
 20
265.444873830275
 42
0.0
  0
VERTEX
  8
Default
 10
413.089463108407
 20
265.444873830275
 42
0.0
  0
VERTEX
  8
Default
 10
413.08946310841
 20
321.831746919165
 42
-0.0252798916851
  0
VERTEX
  8
Default
 10
466.589347032322
 20
321.642656130785
 42
0.0
  0
VERTEX
  8
Default
 10
466.590862051828
 20
256.545000724775
 42
0.0
  0
VERTEX
  8
Default
 10
477.999716464909
 20
256.545000724775
 42
0.0
  0
VERTEX
  8
Default
 10
478.000001509679
 20
383.245108528835
 42
0.0
  0
SEQEND
  0
POLYLINE
  8
Default
 66
     1
 10
0.0
 20
0.0
 30
0.0
 70
     1
  0
VERTEX
  8
Default
 10
466.589347032322
 20
529.466038590845
 42
0.0
  0
VERTEX
  8
Default
 10
466.589347032322
 20
483.706067807725
 42
0.0
  0
VERTEX
  8
Default
 10
402.292676576992
 20
483.706067807725
 42
0.0
  0
VERTEX
  8
Default
 10
402.292676576992
 20
392.362610977405
 42
0.0
  0
VERTEX
  8
Default
 10
432.437019749032
 20
392.362610977405
 42
0.0
  0
VERTEX
  8
Default
 10
432.437019749031
 20
411.662477442645
 42
0.0
  0
VERTEX
  8
Default
 10
413.089463108407
 20
411.662477442645
 42
0.0
  0
VERTEX
  8
Default
 10
413.089463108406
 20
468.049350531555
 42
-0.025279891604
  0
VERTEX
  8
Default
 10
466.589347032322
 20
467.860259743185
 42
0.0
  0
VERTEX
  8
Default
 10
466.590862051828
 20
402.762604337175
 42
0.0
  0
VERTEX
  8
Default
 10
477.999716464909
 20
402.762604337175
 42
0.0
  0
VERTEX
  8
Default
 10
478.000001509679
 20
529.466914122195
 42
0.0
  0
SEQEND
  0
POLYLINE
  8
Default
 66
     1
 10
0.0
 20
0.0
 30
0.0
 70
     1
  0
VERTEX
  8
Default
 10
466.589347032322
 20
675.683642203195
 42
0.0
  0
VERTEX
  8
Default
 10
466.589347032322
 20
629.923671420115
 42
0.0
  0
VERTEX
  8
Default
 10
402.292676576992
 20
629.923671420115
 42
0.0
  0
VERTEX
  8
Default
 10
402.292676576992
 20
538.580214589765
 42
0.0
  0
VERTEX
  8
Default
 10
432.437019749032
 20
538.580214589765
 42
0.0
  0
VERTEX
  8
Default
 10
432.437019749032
 20
557.880081055035
 42
0.0
  0
VERTEX
  8
Default
 10
413.089463108407
 20
557.880081055035
 42
0.0
  0
VERTEX
  8
Default
 10
413.089463108407
 20
614.266954143935
 42
-0.0247442785536
  0
VERTEX
  8
Default
 10
466.589347032322
 20
614.090469408125
 42
0.0
  0
VERTEX
  8
Default
 10
466.590862051828
 20
548.992814002105
 42
0.0
  0
VERTEX
  8
Default
 10
477.999716464909
 20
548.992814002105
 42
0.0
  0
VERTEX
  8
Default
 10
478.00000150968
 20
675.688719715545
 42
0.0
  0
SEQEND
  0
POLYLINE
  8
Default
 66
     1
 10
0.0
 20
0.0
 30
0.0
 70
     1
  0
VERTEX
  8
Default
 10
424.821016676923
 20
739.511913757515
 42
0.0
  0
VERTEX
  8
Default
 10
424.821016676921
 20
722.199976139745
 42
0.0
  0
VERTEX
  8
Default
 10
444.168573317545
 20
722.199976139745
 42
0.0
  0
VERTEX
  8
Default
 10
444.168353364267
 20
665.282423332075
 42
0.0
  0
VERTEX
  8
Default
 10
390.561492242861
 20
665.282423332075
 42
0.0
  0
VERTEX
  8
Default
 10
390.561492242861
 20
675.688719715545
 42
0.0
  0
VERTEX
  8
Default
 10
379.337858485268
 20
675.683642203195
 42
0.0
  0
VERTEX
  8
Default
 10
379.337858485268
 20
548.992814002105
 42
0.0
  0
VERTEX
  8
Default
 10
390.561492242861
 20
548.989837679195
 42
0.0
  0
VERTEX
  8
Default
 10
390.561880518235
 20
649.450446831415
 42
0.0
  0
VERTEX
  8
Default
 10
454.857657675612
 20
649.450621996545
 42
0.0
  0
VERTEX
  8
Default
 10
454.857793463807
 20
739.511913757515
 42
0.0
  0
SEQEND
  0
POLYLINE
  8
Default
 66
     1
 10
0.0
 20
0.0
 30
0.0
 70
     1
  0
VERTEX
  8
Default
 10
454.857793463809
 20
821.901245815615
 42
0.0
  0
VERTEX
  8
Default
 10
454.857793463809
 20
887.187992009985
 42
0.0
  0
VERTEX
  8
Default
 10
424.821016676921
 20
887.187992009985
 42
0.0
  0
VERTEX
  8
Default
 10
424.821016676921
 20
868.417579752135
 42
0.0
  0
VERTEX
  8
Default
 10
444.168573317545
 20
868.417579752135
 42
0.0
  0
VERTEX
  8
Default
 10
444.168353364267
 20
811.500027054135
 42
0.0
  0
VERTEX
  8
Default
 10
390.561492242861
 20
811.500027054135
 42
0.0
  0
VERTEX
  8
Default
 10
390.561492242861
 20
821.906323437595
 42
0.0
  0
VERTEX
  8
Default
 10
379.337858485268
 20
821.901245815615
 42
0.0
  0
VERTEX
  8
Default
 10
379.337858485268
 20
695.210417614505
 42
0.0
  0
VERTEX
  8
Default
 10
390.561492242861
 20
695.207441401245
 42
0.0
  0
VERTEX
  8
Default
 10
390.561880518235
 20
795.668050443805
 42
0.0
  0
VERTEX
  8
Default
 10
454.857657675612
 20
795.668225718575
 42
0.0
  0
SEQEND
  0
POLYLINE
  8
Default
 66
     1
 10
0.0
 20
0.0
 30
0.0
 70
     1
  0
VERTEX
  8
Default
 10
466.589347032322
 20
821.901245815615
 42
0.0
  0
VERTEX
  8
Default
 10
466.589347032322
 20
776.141275032515
 42
0.0
  0
VERTEX
  8
Default
 10
402.292676576992
 20
776.141275032515
 42
0.0
  0
VERTEX
  8
Default
 10
402.292676576992
 20
684.797818202175
 42
0.0
  0
VERTEX
  8
Default
 10
432.437019749032
 20
684.797818202175
 42
0.0
  0
VERTEX
  8
Default
 10
432.437019749034
 20
704.097684667425
 42
0.0
  0
VERTEX
  8
Default
 10
413.089463108404
 20
704.097684667425
 42
0.0
  0
VERTEX
  8
Default
 10
413.089463108407
 20
760.484557756325
 42
-0.0247442785508
  0
VERTEX
  8
Default
 10
466.589347032322
 20
760.308073020525
 42
0.0
  0
VERTEX
  8
Default
 10
466.590862051828
 20
695.210417614505
 42
0.0
  0
VERTEX
  8
Default
 10
477.999716464909
 20
695.210417614505
 42
0.0
  0
VERTEX
  8
Default
 10
478.00000150968
 20
821.906323437595
 42
0.0
  0
SEQEND
  0
POLYLINE
  8
Default
 66
     1
 10
0.0
 20
0.0
 30
0.0
 70
     1
  0
VERTEX
  8
Default
 10
466.589347032322
 20
968.131455480565
 42
0.0
  0
VERTEX
  8
Default
 10
466.589347032322
 20
922.371484697455
 42
0.0
  0
VERTEX
  8
Default
 10
402.292676576992
 20
922.371484697455
 42
0.0
  0
VERTEX
  8
Default
 10
402.292676576992
 20
831.028027867105
 42
0.0002613834419
  0
VERTEX
  8
Default
 10
432.437019748986
 20
831.028027867105
 42
0.0
  0
VERTEX
  8
Default
 10
432.437019749032
 20
850.327894332375
 42
0.0
  0
VERTEX
  8
Default
 10
413.089463108407
 20
850.327894332375
 42
0.0
  0
VERTEX
  8
Default
 10
413.08946310841
 20
906.714767421275
 42
-0.0252798916852
  0
VERTEX
  8
Default
 10
466.589347032322
 20
906.525676632895
 42
0.0
  0
VERTEX
  8
Default
 10
466.590862051829
 20
841.428021226895
 42
0.0
  0
VERTEX
  8
Default
 10
477.999716464909
 20
841.428021226895
 42
0.0
  0
VERTEX
  8
Default
 10
478.00000150968
 20
968.128129030945
 42
0.0
  0
SEQEND
  0
POLYLINE
  8
Default
 66
     1
 10
0.0
 20
0.0
 30
0.0
 70
     1
  0
VERTEX
  8
Default
 10
444.168353364267
 20
519.060617738705
 42
0.0
  0
VERTEX
  8
Default
 10
390.561492242861
 20
519.060617738705
 42
0.0
  0
VERTEX
  8
Default
 10
390.561492242861
 20
529.466914122175
 42
0.0
  0
VERTEX
  8
Default
 10
379.337858485268
 20
529.466038590805
 42
0.0
  0
VERTEX
  8
Default
 10
379.33772267249
 20
402.768032085845
 42
0.0
  0
VERTEX
  8
Default
 10
390.561123008484
 20
402.762604337175
 42
0.0
  0
VERTEX
  8
Default
 10
390.561880518186
 20
503.232843219025
 42
0.0
  0
VERTEX
  8
Default
 10
454.857657675562
 20
503.228816403155
 42
0.0
  0
VERTEX
  8
Default
 10
454.857793463808
 20
594.752784785195
 42
0.0
  0
VERTEX
  8
Default
 10
424.821016676921
 20
594.752784785195
 42
0.0
  0
VERTEX
  8
Default
 10
424.821016676921
 20
575.982372527345
 42
0.0
  0
VERTEX
  8
Default
 10
444.168573317545
 20
575.982372527345
 42
0.0
  0
SEQEND
  0
POLYLINE
  8
Default
 66
     1
 10
0.0
 20
0.0
 30
0.0
 70
     1
  0
VERTEX
  8
Default
 10
379.337858485267
 20
-970.169092369362
 42
0.0
  0
VERTEX
  8
Default
 10
390.56183732369
 20
-970.169092369363
 42
0.0
  0
VERTEX
  8
Default
 10
390.561880518159
 20
-958.993617115147
 42
0.0
  0
VERTEX
  8
Default
 10
454.857657675611
 20
-958.989239859379
 42
0.0
  0
VERTEX
  8
Default
 10
454.857793463811
 20
-867.473675548949
 42
0.0006020438402
  0
VERTEX
  8
Default
 10
424.821016676912
 20
-867.461069496388
 42
0.0
  0
VERTEX
  8
Default
 10
424.821016676919
 20
-886.231481754244
 42
0.0
  0
VERTEX
  8
Default
 10
444.168573317545
 20
-886.231481754244
 42
0.0
  0
VERTEX
  8
Default
 10
444.168353364265
 20
-943.157438523832
 42
0.0
  0
VERTEX
  8
Default
 10
390.56149224286
 20
-943.157438523832
 42
0.0
  0
VERTEX
  8
Default
 10
390.56149224286
 20
-932.751142140356
 42
0.0
  0
VERTEX
  8
Default
 10
379.337858485267
 20
-932.747815690756
 42
0.0
  0
SEQEND
  0
POLYLINE
  8
Default
 66
     1
 10
0.0
 20
0.0
 30
0.0
 70
     1
  0
VERTEX
  8
Default
 10
466.589347032322
 20
-970.169092369363
 42
0.0
  0
VERTEX
  8
Default
 10
477.99991732829
 20
-970.169092369363
 42
0.0
  0
VERTEX
  8
Default
 10
478.000001509679
 20
-932.751142140356
 42
0.0
  0
VERTEX
  8
Default
 10
466.589347032322
 20
-932.747815690756
 42
0.0
  0
SEQEND
  0
POLYLINE
  8
Default
 66
     1
 10
0.0
 20
0.0
 30
0.0
 70
     1
  0
VERTEX
  8
Default
 10
444.16840015136
 20
969.830768117645
 42
0.0
  0
VERTEX
  8
Default
 10
444.168353364267
 20
957.721832647475
 42
0.0
  0
VERTEX
  8
Default
 10
390.561492242861
 20
957.721832647475
 42
0.0
  0
VERTEX
  8
Default
 10
390.561492242861
 20
968.128129030945
 42
0.0
  0
VERTEX
  8
Default
 10
379.337858485268
 20
968.131455480565
 42
0.0
  0
VERTEX
  8
Default
 10
379.337858485268
 20
841.428021226895
 42
0.0
  0
VERTEX
  8
Default
 10
390.561492242861
 20
841.429246994615
 42
0.0
  0
VERTEX
  8
Default
 10
390.56188051816
 20
941.885654056155
 42
0.0
  0
VERTEX
  8
Default
 10
454.857657675612
 20
941.890031311945
 42
0.0
  0
VERTEX
  8
Default
 10
454.857699133284
 20
969.830768117645
 42
0.0
  0
SEQEND
  0
POLYLINE
  8
Default
 66
     1
 10
0.0
 20
0.0
 30
0.0
 70
     1
  0
VERTEX
  8
Default
 10
249.507486575589
 20
944.795845391095
 42
0.0
  0
VERTEX
  8
Default
 10
311.023716916898
 20
944.795845391095
 42
0.0
  0
VERTEX
  8
Default
 10
311.023716916898
 20
914.507937697395
 42
0.0
  0
VERTEX
  8
Default
 10
293.337355268267
 20
914.507937697395
 42
0.0
  0
VERTEX
  8
Default
 10
293.337355268267
 20
934.017255018205
 42
0.0
  0
VERTEX
  8
Default
 10
239.70697105816
 20
934.017033225945
 42
0.0
  0
VERTEX
  8
Default
 10
239.70697105816
 20
879.961976889065
 42
0.0
  0
VERTEX
  8
Default
 10
249.512270948883
 20
879.961976889065
 42
0.0
  0
VERTEX
  8
Default
 10
249.507486575589
 20
868.644504789795
 42
0.0
  0
VERTEX
  8
Default
 10
130.133453957345
 20
868.644504789795
 42
0.0
  0
VERTEX
  8
Default
 10
130.130649629815
 20
879.961976889065
 42
0.0
  0
VERTEX
  8
Default
 10
224.789341115051
 20
879.962368410725
 42
0.0
  0
VERTEX
  8
Default
 10
224.789506267134
 20
944.795708467595
 42
0.0
  0
SEQEND
  0
POLYLINE
  8
Default
 66
     1
 10
0.0
 20
0.0
 30
0.0
 70
     1
  0
VERTEX
  8
Default
 10
249.507486575589
 20
956.625483907485
 42
0.0
  0
VERTEX
  8
Default
 10
206.390298674682
 20
956.625483907485
 42
0.0
  0
VERTEX
  8
Default
 10
206.390298674682
 20
891.791243084005
 42
0.0
  0
VERTEX
  8
Default
 10
120.322215057581
 20
891.791243084005
 42
0.0
  0
VERTEX
  8
Default
 10
120.322215057581
 20
922.187616501815
 42
0.0
  0
VERTEX
  8
Default
 10
138.507453260423
 20
922.187616501815
 42
0.0
  0
VERTEX
  8
Default
 10
138.507453260423
 20
902.678299181005
 42
0.0
  0
VERTEX
  8
Default
 10
191.637806285442
 20
902.678299181005
 42
0.023123710595
  0
VERTEX
  8
Default
 10
191.471514100695
 20
956.625483907485
 42
0.0
  0
VERTEX
  8
Default
 10
130.133453957345
 20
956.627011593745
 42
0.0
  0
VERTEX
  8
Default
 10
130.133453957345
 20
968.131252937795
 42
0.0
  0
VERTEX
  8
Default
 10
249.512270948883
 20
968.131540365775
 42
0.0
  0
SEQEND
  0
POLYLINE
  8
Default
 66
     1
 10
0.0
 20
0.0
 30
0.0
 70
     1
  0
VERTEX
  8
Default
 10
353.779180179625
 20
879.962332080445
 42
0.0
  0
VERTEX
  8
Default
 10
353.779180179625
 20
868.644504789795
 42
0.0
  0
VERTEX
  8
Default
 10
267.906529015975
 20
868.644504789795
 42
0.0
  0
VERTEX
  8
Default
 10
267.907683991715
 20
879.961976889065
 42
0.0
  0
SEQEND
  0
POLYLINE
  8
Default
 66
     1
 10
0.0
 20
0.0
 30
0.0
 70
     1
  0
VERTEX
  8
Default
 10
353.779180179627
 20
968.131459686235
 42
0.0
  0
VERTEX
  8
Default
 10
353.779180179625
 20
956.625483907485
 42
0.0
  0
VERTEX
  8
Default
 10
344.17525174649
 20
956.625483907485
 42
0.0
  0
VERTEX
  8
Default
 10
344.17525174649
 20
891.791243084005
 42
0.0
  0
VERTEX
  8
Default
 10
258.10716812941
 20
891.791243084015
 42
-0.000244245636
  0
VERTEX
  8
Default
 10
258.10716812941
 20
922.187616501785
 42
0.0
  0
VERTEX
  8
Default
 10
276.292406332247
 20
922.187616501815
 42
0.0
  0
VERTEX
  8
Default
 10
276.292406332247
 20
902.678299181005
 42
0.0
  0
VERTEX
  8
Default
 10
329.422759357251
 20
902.678299181015
 42
0.0236247308554
  0
VERTEX
  8
Default
 10
329.24458915931
 20
956.625483907485
 42
0.0
  0
VERTEX
  8
Default
 10
267.906529015975
 20
956.627011593745
 42
0.0
  0
VERTEX
  8
Default
 10
267.906529015975
 20
968.131252937795
 42
0.0
  0
SEQEND
  0
POLYLINE
  8
Default
 66
     1
 10
0.0
 20
0.0
 30
0.0
 70
     1
  0
VERTEX
  8
Default
 10
247.691969077298
 20
-894.017751768069
 42
0.0
  0
VERTEX
  8
Default
 10
309.208199418606
 20
-894.017751768069
 42
0.0
  0
VERTEX
  8
Default
 10
309.208199418606
 20
-924.305659461756
 42
0.0
  0
VERTEX
  8
Default
 10
291.521837769977
 20
-924.305659461756
 42
0.0
  0
VERTEX
  8
Default
 10
291.521837769977
 20
-904.79634214095
 42
0.0
  0
VERTEX
  8
Default
 10
237.891453559868
 20
-904.796563933211
 42
0.0
  0
VERTEX
  8
Default
 10
237.891453559868
 20
-958.851620270088
 42
0.0
  0
VERTEX
  8
Default
 10
247.696753450593
 20
-958.851620270088
 42
0.0
  0
VERTEX
  8
Default
 10
247.691969077298
 20
-970.169092369362
 42
0.0
  0
VERTEX
  8
Default
 10
128.317936459054
 20
-970.169092369362
 42
0.0
  0
VERTEX
  8
Default
 10
128.315132131522
 20
-958.851620270088
 42
0.0
  0
VERTEX
  8
Default
 10
222.973823616759
 20
-958.851228748429
 42
0.0
  0
VERTEX
  8
Default
 10
222.973988768844
 20
-894.017888691562
 42
0.0
  0
SEQEND
  0
POLYLINE
  8
Default
 66
     1
 10
0.0
 20
0.0
 30
0.0
 70
     1
  0
VERTEX
  8
Default
 10
247.691969077298
 20
-882.188113251668
 42
0.0
  0
VERTEX
  8
Default
 10
204.574781176391
 20
-882.188113251668
 42
0.0
  0
VERTEX
  8
Default
 10
204.574781176391
 20
-947.022354075158
 42
0.0
  0
VERTEX
  8
Default
 10
118.506697559289
 20
-947.022354075158
 42
0.0
  0
VERTEX
  8
Default
 10
118.506697559289
 20
-916.62598065735
 42
0.0
  0
VERTEX
  8
Default
 10
136.691935762131
 20
-916.625980657348
 42
0.0
  0
VERTEX
  8
Default
 10
136.691935762131
 20
-936.135297978159
 42
0.0
  0
VERTEX
  8
Default
 10
189.822288787151
 20
-936.135297978157
 42
0.023123710595
  0
VERTEX
  8
Default
 10
189.655996602404
 20
-882.188113251669
 42
0.0
  0
VERTEX
  8
Default
 10
128.317936459054
 20
-882.186585565417
 42
0.0
  0
VERTEX
  8
Default
 10
128.317936459054
 20
-870.682344221353
 42
0.0
  0
VERTEX
  8
Default
 10
247.696753450593
 20
-870.682056793385
 42
0.0
  0
SEQEND
  0
POLYLINE
  8
Default
 66
     1
 10
0.0
 20
0.0
 30
0.0
 70
     1
  0
VERTEX
  8
Default
 10
351.963662681334
 20
-958.851265078716
 42
0.0
  0
VERTEX
  8
Default
 10
351.963662681334
 20
-970.169092369362
 42
0.0
  0
VERTEX
  8
Default
 10
266.091011517682
 20
-970.169092369362
 42
0.0
  0
VERTEX
  8
Default
 10
266.092166493424
 20
-958.851620270088
 42
0.0
  0
SEQEND
  0
POLYLINE
  8
Default
 66
     1
 10
0.0
 20
0.0
 30
0.0
 70
     1
  0
VERTEX
  8
Default
 10
351.963662681335
 20
-870.682137472924
 42
0.0
  0
VERTEX
  8
Default
 10
351.963662681334
 20
-882.188113251668
 42
0.0
  0
VERTEX
  8
Default
 10
342.359734248199
 20
-882.188113251668
 42
0.0
  0
VERTEX
  8
Default
 10
342.359734248199
 20
-947.022354075158
 42
0.0
  0
VERTEX
  8
Default
 10
256.291650631124
 20
-947.022354075148
 42
-0.000244245636
  0
VERTEX
  8
Default
 10
256.291650631124
 20
-916.625980657382
 42
0.0
  0
VERTEX
  8
Default
 10
274.476888833956
 20
-916.62598065735
 42
0.0
  0
VERTEX
  8
Default
 10
274.476888833956
 20
-936.135297978157
 42
0.0
  0
VERTEX
  8
Default
 10
327.607241858959
 20
-936.135297978153
 42
0.0236247308554
  0
VERTEX
  8
Default
 10
327.429071661019
 20
-882.188113251669
 42
0.0
  0
VERTEX
  8
Default
 10
266.091011517682
 20
-882.186585565417
 42
0.0
  0
VERTEX
  8
Default
 10
266.091011517682
 20
-870.682344221353
 42
0.0
  0
SEQEND
  0
POLYLINE
  8
Default
 66
     1
 10
0.0
 20
0.0
 30
0.0
 70
     1
  0
VERTEX
  8
Default
 10
277.554664447718
 20
841.782968338725
 42
-0.0212746595336
  0
VERTEX
  8
Default
 10
267.361111160658
 20
837.599696307535
 42
-0.0989634319296
  0
VERTEX
  8
Default
 10
202.742756967635
 20
841.520425962915
 42
-0.3333543868355
  0
VERTEX
  8
Default
 10
217.020904192853
 20
751.351240576915
 42
-0.1096623708983
  0
VERTEX
  8
Default
 10
185.919397225487
 20
716.250739338845
 42
-0.1863352027598
  0
VERTEX
  8
Default
 10
249.664535157388
 20
703.520851320055
 42
-0.2052144402077
  0
VERTEX
  8
Default
 10
270.313651690688
 20
673.194304465205
 42
-0.1694337092688
  0
VERTEX
  8
Default
 10
341.677832422894
 20
716.321008490015
 42
-0.0260747920757
  0
VERTEX
  8
Default
 10
354.672152227172
 20
718.361531609185
 42
0.0
  0
VERTEX
  8
Default
 10
354.672152227132
 20
744.672937597465
 42
-0.2388741471781
  0
VERTEX
  8
Default
 10
318.948684665951
 20
731.729815132295
 42
-0.2113964184385
  0
VERTEX
  8
Default
 10
289.620343809197
 20
749.289610013265
 42
-0.2418907800101
  0
VERTEX
  8
Default
 10
279.939335450219
 20
827.909267785975
 42
-0.0473621526369
  0
VERTEX
  8
Default
 10
284.809369310502
 20
841.782968338725
 42
0.0
  0
SEQEND
  0
POLYLINE
  8
Default
 66
     1
 10
0.0
 20
0.0
 30
0.0
 70
     1
  0
VERTEX
  8
Default
 10
343.326778804738
 20
-848.794959623897
 42
0.0
  0
VERTEX
  8
Default
 10
303.087233102704
 20
-848.794959623898
 42
-0.0510551037074
  0
VERTEX
  8
Default
 10
307.957290230111
 20
-839.546972169109
 42
-0.1885990443983
  0
VERTEX
  8
Default
 10
317.455589324979
 20
-830.698294722436
 42
-0.0587939336025
  0
VERTEX
  8
Default
 10
321.472761884559
 20
-829.630642992044
 42
-0.0395143401287
  0
VERTEX
  8
Default
 10
323.532923736379
 20
-829.482410120451
 42
-0.077055678546
  0
VERTEX
  8
Default
 10
330.209534527306
 20
-831.734832633613
 42
-0.1314258150679
  0
VERTEX
  8
Default
 10
338.968207626881
 20
-839.766914205776
 42
-0.0409415082421
  0
SEQEND
  0
POLYLINE
  8
Default
 66
     1
 10
0.0
 20
0.0
 30
0.0
 70
     1
  0
VERTEX
  8
Default
 10
222.991354685473
 20
-848.794959623898
 42
0.052826244873
  0
VERTEX
  8
Default
 10
216.959222824735
 20
-833.528837805506
 42
0.1095656954963
  0
VERTEX
  8
Default
 10
185.919397197299
 20
-798.034047035325
 42
0.1469472755214
  0
VERTEX
  8
Default
 10
241.316116062819
 20
-790.025314512511
 42
0.2496807763278
  0
VERTEX
  8
Default
 10
270.313651649028
 20
-754.349050746146
 42
0.1706128341429
  0
VERTEX
  8
Default
 10
340.712378164621
 20
-797.929749403342
 42
0.0284148812752
  0
VERTEX
  8
Default
 10
354.672152172044
 20
-800.175653807168
 42
0.0
  0
VERTEX
  8
Default
 10
354.672152172002
 20
-826.871168109137
 42
0.2322938330935
  0
VERTEX
  8
Default
 10
320.365079743697
 20
-813.620533090661
 42
0.2149956035235
  0
VERTEX
  8
Default
 10
290.384105189029
 20
-830.480583882322
 42
0.0253472994788
  0
VERTEX
  8
Default
 10
285.999093192413
 20
-837.451794571782
 42
0.0353805277603
  0
VERTEX
  8
Default
 10
280.646350493594
 20
-848.794959623898
 42
0.0
  0
SEQEND
  0
POLYLINE
  8
Default
 66
     1
 10
0.0
 20
0.0
 30
0.0
 70
     1
  0
VERTEX
  8
Default
 10
64.8019497063877
 20
27.996659219765
 42
0.0
  0
VERTEX
  8
Default
 10
116.364141914779
 20
74.346036000225
 42
-0.2474752773677
  0
VERTEX
  8
Default
 10
130.739701334388
 20
99.159646469865
 42
-0.1006818017694
  0
VERTEX
  8
Default
 10
142.089906860154
 20
103.431654371195
 42
-0.0929058884645
  0
VERTEX
  8
Default
 10
148.32120017768
 20
103.090621944075
 42
0.0003901368818
  0
VERTEX
  8
Default
 10
166.753896076659
 20
119.645108671665
 42
0.0763313372858
  0
VERTEX
  8
Default
 10
111.66622497679
 20
161.223070030635
 42
-0.0046526615758
  0
VERTEX
  8
Default
 10
100.457339477484
 20
138.406856953115
 42
-0.3016091582986
  0
VERTEX
  8
Default
 10
92.1429962841467
 20
105.291424850225
 42
-0.0414962428508
  0
VERTEX
  8
Default
 10
88.1929390661717
 20
102.252852704545
 42
-0.1058398289123
  0
VERTEX
  8
Default
 10
81.4546016373057
 20
99.7850437455849
 42
0.0
  0
VERTEX
  8
Default
 10
51.1965425924957
 20
38.2543880845551
 42
-0.0517930032978
  0
SEQEND
  0
POLYLINE
  8
Default
 66
     1
 10
0.0
 20
0.0
 30
0.0
 70
     1
  0
VERTEX
  8
Default
 10
91.1990084640947
 20
-35.3236197961969
 42
0.0
  0
VERTEX
  8
Default
 10
160.091571380503
 20
-43.441489910807
 42
-0.2498667146675
  0
VERTEX
  8
Default
 10
188.487336251287
 20
-37.925859476721
 42
-0.1027930862846
  0
VERTEX
  8
Default
 10
199.471124113807
 20
-43.9815280751561
 42
-0.0925987989604
  0
VERTEX
  8
Default
 10
202.81836547413
 20
-48.451885385586
 42
0.0018540728665
  0
VERTEX
  8
Default
 10
227.256792753353
 20
-51.337923421574
 42
0.0886917554732
  0
VERTEX
  8
Default
 10
220.747825670447
 20
24.5349868866351
 42
0.0
  0
VERTEX
  8
Default
 10
196.175813041901
 20
17.002481474105
 42
-0.2531237347118
  0
VERTEX
  8
Default
 10
171.863242059334
 20
0.460352149045
 42
-0.0921285111949
  0
VERTEX
  8
Default
 10
160.644227690438
 20
1.385016260355
 42
-0.09811953936
  0
VERTEX
  8
Default
 10
155.012315055681
 20
4.408707243425
 42
0.0
  0
VERTEX
  8
Default
 10
89.4547432807967
 20
-15.681451720209
 42
-0.0593757029739
  0
SEQEND
  0
POLYLINE
  8
Default
 66
     1
 10
0.0
 20
0.0
 30
0.0
 70
     1
  0
VERTEX
  8
Default
 10
63.1995541377156
 20
-95.088919973426
 42
0.0
  0
VERTEX
  8
Default
 10
104.60039483843
 20
-151.035915193593
 42
-0.2080280769784
  0
VERTEX
  8
Default
 10
125.561755422974
 20
-163.783503850256
 42
-0.1368265369423
  0
VERTEX
  8
Default
 10
131.108318627984
 20
-179.427820215663
 42
-0.0951427996018
  0
VERTEX
  8
Default
 10
130.165852582359
 20
-185.600798050312
 42
0.0011345670324
  0
VERTEX
  8
Default
 10
145.003539025132
 20
-205.679623180001
 42
0.0818689134848
  0
VERTEX
  8
Default
 10
195.019683307539
 20
-149.549376241882
 42
0.0051925027921
  0
VERTEX
  8
Default
 10
197.202024385027
 20
-145.918103289427
 42
0.0006495515072
  0
VERTEX
  8
Default
 10
174.756133820146
 20
-133.52166083568
 42
-0.1700447319639
  0
VERTEX
  8
Default
 10
155.241705909684
 20
-133.32380273184
 42
-0.208928945042
  0
VERTEX
  8
Default
 10
138.037089109852
 20
-116.91534085011
 42
-0.0655273348303
  0
VERTEX
  8
Default
 10
137.133084578196
 20
-112.719645781122
 42
0.0
  0
VERTEX
  8
Default
 10
76.9595412346197
 20
-79.436138146401
 42
-0.0632933051726
  0
SEQEND
  0
POLYLINE
  8
Default
 66
     1
 10
0.0
 20
0.0
 30
0.0
 70
     1
  0
VERTEX
  8
Default
 10
84.1881202453016
 20
-66.351093910692
 42
0.0008097330713
  0
VERTEX
  8
Default
 10
145.062207988889
 20
-99.791091773897
 42
-0.1620045275128
  0
VERTEX
  8
Default
 10
164.369067799891
 20
-100.168674230728
 42
-0.1906409655956
  0
VERTEX
  8
Default
 10
181.35289450552
 20
-115.062761545845
 42
-0.0936714119167
  0
VERTEX
  8
Default
 10
182.780513914014
 20
-120.501454892173
 42
-0.0006869080382
  0
VERTEX
  8
Default
 10
204.523427356954
 20
-132.418444656448
 42
0.0774620488442
  0
VERTEX
  8
Default
 10
225.427250202366
 20
-66.574268165647
 42
0.0037025886377
  0
VERTEX
  8
Default
 10
200.287644452327
 20
-63.5364358707511
 42
-0.2922464725776
  0
VERTEX
  8
Default
 10
167.149454639972
 20
-67.105484113135
 42
-0.047670466899
  0
VERTEX
  8
Default
 10
162.154472696034
 20
-63.996381192504
 42
-0.1052070496322
  0
VERTEX
  8
Default
 10
157.575251716802
 20
-58.384504710679
 42
0.0
  0
VERTEX
  8
Default
 10
89.4102863475967
 20
-50.168406927764
 42
-0.0512569109533
  0
SEQEND
  0
POLYLINE
  8
Default
 66
     1
 10
0.0
 20
0.0
 30
0.0
 70
     1
  0
VERTEX
  8
Default
 10
85.0814855250827
 20
-1.397003352358
 42
0.0005759089293
  0
VERTEX
  8
Default
 10
151.284634607052
 20
19.140856426895
 42
-0.2486586967639
  0
VERTEX
  8
Default
 10
174.769134868905
 20
35.653169715965
 42
-0.1056507248183
  0
VERTEX
  8
Default
 10
187.489239890002
 20
34.5659891063751
 42
-0.0926713717782
  0
VERTEX
  8
Default
 10
192.386440120866
 20
31.8295804625849
 42
0.0
  0
VERTEX
  8
Default
 10
216.152265267869
 20
39.227712758035
 42
0.0865264265303
  0
VERTEX
  8
Default
 10
177.064000890325
 20
108.241051071445
 42
-0.0065879687714
  0
VERTEX
  8
Default
 10
158.009592266691
 20
91.1924545265251
 42
-0.251608244616
  0
VERTEX
  8
Default
 10
144.18672309382
 20
66.533036985005
 42
-0.1267636176312
  0
VERTEX
  8
Default
 10
130.187622378824
 20
61.971667458635
 42
-0.0691649904531
  0
VERTEX
  8
Default
 10
125.889585996638
 20
62.5229181322349
 42
0.0
  0
VERTEX
  8
Default
 10
74.7726657284207
 20
16.8745510683051
 42
-0.0634145071684
  0
SEQEND
  0
POLYLINE
  8
Default
 66
     1
 10
0.0
 20
0.0
 30
0.0
 70
     1
  0
VERTEX
  8
Default
 10
33.2841514997766
 20
-111.95263661563
 42
0.0597096843764
  0
VERTEX
  8
Default
 10
51.1318805172616
 20
-103.933070260868
 42
0.0
  0
VERTEX
  8
Default
 10
91.9559321465706
 20
-159.43285153886
 42
0.2529091753737
  0
VERTEX
  8
Default
 10
96.2431431075016
 20
-180.938840542191
 42
0.2377653948524
  0
VERTEX
  8
Default
 10
117.444295967371
 20
-194.111346517493
 42
0.0
  0
VERTEX
  8
Default
 10
132.669218847892
 20
-214.787283702835
 42
-0.0874622952894
  0
VERTEX
  8
Default
 10
63.2929810337336
 20
-246.015596210371
 42
0.0
  0
VERTEX
  8
Default
 10
57.8746271228166
 20
-221.9293058375
 42
0.3034964162005
  0
VERTEX
  8
Default
 10
58.1932148303376
 20
-189.276287485209
 42
0.1162221851654
  0
VERTEX
  8
Default
 10
48.5279881250996
 20
-180.084786076084
 42
0.0
  0
SEQEND
  0
POLYLINE
  8
Default
 66
     1
 10
0.0
 20
0.0
 30
0.0
 70
     1
  0
VERTEX
  8
Default
 10
166.653521249299
 20
199.842474888855
 42
0.0
  0
VERTEX
  8
Default
 10
174.975768345863
 20
212.174061642915
 42
-0.027766457905
  0
VERTEX
  8
Default
 10
199.039671264852
 20
193.522167890545
 42
0.0
  0
VERTEX
  8
Default
 10
169.39004392375
 20
157.763301248735
 42
0.0466055104244
  0
VERTEX
  8
Default
 10
143.351445653535
 20
176.471401349755
 42
0.0
  0
VERTEX
  8
Default
 10
136.806543324111
 20
165.881350003905
 42
-0.079125029198
  0
VERTEX
  8
Default
 10
190.886659052724
 20
117.453766191135
 42
0.0
  0
VERTEX
  8
Default
 10
200.563001499381
 20
125.459509923995
 42
0.0397557421498
  0
VERTEX
  8
Default
 10
178.078984626139
 20
149.926068886825
 42
0.0
  0
VERTEX
  8
Default
 10
215.82506836815
 20
191.162577997175
 42
0.0604153079383
  0
VERTEX
  8
Default
 10
161.547385780841
 20
231.387803531795
 42
0.0
  0
VERTEX
  8
Default
 10
149.727113098524
 20
210.713342627965
 42
-0.0017636294676
  0
SEQEND
  0
POLYLINE
  8
Default
 66
     1
 10
0.0
 20
0.0
 30
0.0
 70
     1
  0
VERTEX
  8
Default
 10
123.998760760222
 20
-296.8772550152
 42
-0.0157802316251
  0
VERTEX
  8
Default
 10
112.940099126515
 20
-301.456026605313
 42
0.0
  0
VERTEX
  8
Default
 10
102.220015398985
 20
-274.376949180192
 42
0.052857206938
  0
VERTEX
  8
Default
 10
155.002483451418
 20
-245.8091572408
 42
0.0
  0
VERTEX
  8
Default
 10
187.275738119141
 20
-291.371509372334
 42
0.0359059592957
  0
VERTEX
  8
Default
 10
218.05377825199
 20
-266.680232689908
 42
0.0
  0
VERTEX
  8
Default
 10
223.836961395495
 20
-272.747718794293
 42
-0.0765003800577
  0
VERTEX
  8
Default
 10
140.502135768564
 20
-327.664120976336
 42
0.0
  0
VERTEX
  8
Default
 10
137.004002045505
 20
-320.135915857008
 42
0.0380328755344
  0
VERTEX
  8
Default
 10
171.590529970631
 20
-301.624537976268
 42
0.0
  0
VERTEX
  8
Default
 10
149.529546239825
 20
-265.697052288503
 42
-0.0400909408157
  0
VERTEX
  8
Default
 10
117.425634593842
 20
-283.05684607188
 42
0.0
  0
SEQEND
  0
POLYLINE
  8
Default
 66
     1
 10
0.0
 20
0.0
 30
0.0
 70
     1
  0
VERTEX
  8
Default
 10
129.246015413466
 20
-287.551308139017
 42
0.0
  0
VERTEX
  8
Default
 10
135.706246232018
 20
-300.95027714245
 42
-0.029210266143
  0
VERTEX
  8
Default
 10
107.608281099707
 20
-312.579715238352
 42
0.0
  0
VERTEX
  8
Default
 10
91.6409427189326
 20
-268.899414386649
 42
0.0468651269369
  0
VERTEX
  8
Default
 10
120.754533432466
 20
-255.584647231195
 42
0.0
  0
VERTEX
  8
Default
 10
114.914902615048
 20
-244.601259119788
 42
-0.0794150954823
  0
VERTEX
  8
Default
 10
46.1368723448836
 20
-267.46679854603
 42
0.0
  0
VERTEX
  8
Default
 10
48.1962392069806
 20
-279.882694823058
 42
0.0399187821817
  0
VERTEX
  8
Default
 10
80.5258334113116
 20
-272.551104249011
 42
0.0
  0
VERTEX
  8
Default
 10
97.1703276044396
 20
-326.034890590436
 42
0.0605940726192
  0
VERTEX
  8
Default
 10
158.951982291176
 20
-298.899714491662
 42
0.0
  0
VERTEX
  8
Default
 10
147.075261934946
 20
-278.253464437158
 42
-0.0010479423775
  0
SEQEND
  0
POLYLINE
  8
Default
 66
     1
 10
0.0
 20
0.0
 30
0.0
 70
     1
  0
VERTEX
  8
Default
 10
208.518446852811
 20
-230.500033783208
 42
0.0
  0
VERTEX
  8
Default
 10
219.182191043734
 20
-240.893362908775
 42
-0.0280361129534
  0
VERTEX
  8
Default
 10
196.726398007449
 20
-261.483514289625
 42
0.0
  0
VERTEX
  8
Default
 10
166.851088107998
 20
-225.921262193096
 42
0.046794432549
  0
VERTEX
  8
Default
 10
189.673682887414
 20
-203.39296085876
 42
0.0
  0
VERTEX
  8
Default
 10
180.448705557456
 20
-195.078189883308
 42
-0.0796139743396
  0
VERTEX
  8
Default
 10
123.603843317438
 20
-240.19110657563
 42
0.0
  0
VERTEX
  8
Default
 10
129.782052041034
 20
-251.174387012038
 42
0.039541267882
  0
VERTEX
  8
Default
 10
157.62611077804
 20
-233.168543244166
 42
0.0
  0
VERTEX
  8
Default
 10
191.479143354207
 20
-277.691616300643
 42
0.0603243890509
  0
VERTEX
  8
Default
 10
240.312112566881
 20
-230.949469222422
 42
0.0
  0
VERTEX
  8
Default
 10
222.116064302267
 20
-215.640238089834
 42
-0.0025160523365
  0
SEQEND
  0
POLYLINE
  8
Default
 66
     1
 10
0.0
 20
0.0
 30
0.0
 70
     1
  0
VERTEX
  8
Default
 10
206.769434059934
 20
-241.089977454057
 42
-0.0133943428291
  0
VERTEX
  8
Default
 10
197.939374172758
 20
-249.180030709901
 42
0.0
  0
VERTEX
  8
Default
 10
178.671360790316
 20
-227.410084382365
 42
0.0525451392446
  0
VERTEX
  8
Default
 10
218.533367205644
 20
-182.409472712349
 42
0.0
  0
VERTEX
  8
Default
 10
264.347791648912
 20
-214.123420401236
 42
0.0357476408438
  0
VERTEX
  8
Default
 10
284.885228870578
 20
-180.358910061562
 42
0.0
  0
VERTEX
  8
Default
 10
292.389309107308
 20
-184.066806272575
 42
-0.0762394195174
  0
VERTEX
  8
Default
 10
232.751584656234
 20
-264.320642796536
 42
0.0
  0
VERTEX
  8
Default
 10
226.911953838815
 20
-258.449771237433
 42
0.0376813886936
  0
VERTEX
  8
Default
 10
253.119786993465
 20
-229.179722964895
 42
0.0
  0
VERTEX
  8
Default
 10
220.141368951041
 20
-202.9996240932
 42
-0.0401150686435
  0
VERTEX
  8
Default
 10
195.908231147619
 20
-230.359517911581
 42
0.0
  0
SEQEND
  0
POLYLINE
  8
Default
 66
     1
 10
0.0
 20
0.0
 30
0.0
 70
     1
  0
VERTEX
  8
Default
 10
263.614296299951
 20
-149.628250449077
 42
0.0
  0
VERTEX
  8
Default
 10
277.155466075496
 20
-155.723839727786
 42
-0.029103529783
  0
VERTEX
  8
Default
 10
263.050035835426
 20
-182.802809477909
 42
0.0
  0
VERTEX
  8
Default
 10
222.877783488185
 20
-159.656453658408
 42
0.0473979164914
  0
VERTEX
  8
Default
 10
236.672859659035
 20
-130.639226279801
 42
0.0
  0
VERTEX
  8
Default
 10
225.191056745588
 20
-126.004356016034
 42
-0.0790067449677
  0
VERTEX
  8
Default
 10
187.134618934358
 20
-187.943321529541
 42
0.0
  0
VERTEX
  8
Default
 10
196.641726496578
 20
-196.14567980769
 42
0.0399056070649
  0
VERTEX
  8
Default
 10
216.699682901897
 20
-169.628450519086
 42
0.0
  0
VERTEX
  8
Default
 10
263.670635836559
 20
-199.853576018702
 42
0.0600581363692
  0
VERTEX
  8
Default
 10
293.630617246881
 20
-139.12240095121
 42
0.0
  0
VERTEX
  8
Default
 10
271.344059095033
 20
-131.004352196037
 42
-0.0021644218514
  0
SEQEND
  0
POLYLINE
  8
Default
 66
     1
 10
0.0
 20
0.0
 30
0.0
 70
     1
  0
VERTEX
  8
Default
 10
265.56076781422
 20
-160.1900909456
 42
-0.0142966306474
  0
VERTEX
  8
Default
 10
260.03149106602
 20
-170.836348640097
 42
0.0
  0
VERTEX
  8
Default
 10
234.500705586418
 20
-157.015939696777
 42
0.0523526113285
  0
VERTEX
  8
Default
 10
256.674368390439
 20
-101.004052091025
 42
0.0
  0
VERTEX
  8
Default
 10
310.500685861051
 20
-115.049178753951
 42
0.0359579893661
  0
VERTEX
  8
Default
 10
318.315120167003
 20
-76.25646138495
 42
0.0
  0
VERTEX
  8
Default
 10
326.609035289302
 20
-77.183435437704
 42
-0.076031001333
  0
VERTEX
  8
Default
 10
297.890470155859
 20
-173.083525836167
 42
0.0
  0
VERTEX
  8
Default
 10
290.386389919127
 20
-169.60034734476
 42
0.0381390056198
  0
VERTEX
  8
Default
 10
305.055972486415
 20
-133.055022521823
 42
0.0
  0
VERTEX
  8
Default
 10
265.194074208393
 20
-119.796354040022
 42
-0.0396678143566
  0
VERTEX
  8
Default
 10
251.709243969456
 20
-153.841788447955
 42
0.0
  0
SEQEND
  0
POLYLINE
  8
Default
 66
     1
 10
0.0
 20
0.0
 30
0.0
 70
     1
  0
VERTEX
  8
Default
 10
287.875549803026
 20
-54.7113404520161
 42
0.0
  0
VERTEX
  8
Default
 10
302.686251555099
 20
-55.7787227014061
 42
-0.0280274465282
  0
VERTEX
  8
Default
 10
298.652081204469
 20
-86.0600545496741
 42
0.0
  0
VERTEX
  8
Default
 10
253.035223619899
 20
-78.138512664782
 42
0.0460796664084
  0
VERTEX
  8
Default
 10
256.110216063219
 20
-46.115645408313
 42
0.0
  0
VERTEX
  8
Default
 10
243.72557477907
 20
-45.694313143418
 42
-0.0790216361221
  0
VERTEX
  8
Default
 10
229.027768374824
 20
-117.015431881762
 42
0.0
  0
VERTEX
  8
Default
 10
240.763477683577
 20
-121.425584425922
 42
0.0393837619808
  0
VERTEX
  8
Default
 10
250.609055014669
 20
-89.6274348890571
 42
0.0
  0
VERTEX
  8
Default
 10
304.999632949807
 20
-101.874819795127
 42
0.0600273534942
  0
VERTEX
  8
Default
 10
312.503605049234
 20
-34.5144181617361
 42
0.0
  0
VERTEX
  8
Default
 10
288.806503873379
 20
-34.542952036048
 42
-0.0021273757404
  0
VERTEX
  8
Default
 10
287.875549803026
 20
-54.7117711520051
 42
0.0
  0
SEQEND
  0
POLYLINE
  8
Default
 66
     1
 10
0.0
 20
0.0
 30
0.0
 70
     1
  0
VERTEX
  8
Default
 10
293.292039340705
 20
-63.9529778052281
 42
-0.0153248282921
  0
VERTEX
  8
Default
 10
291.712261432262
 20
-75.863232294389
 42
0.0
  0
VERTEX
  8
Default
 10
263.021811998469
 20
-71.649694295506
 42
0.0526645119847
  0
VERTEX
  8
Default
 10
264.79915676561
 20
-11.396165516557
 42
0.0
  0
VERTEX
  8
Default
 10
320.177028307708
 20
-6.0871420939691
 42
0.0356576352916
  0
VERTEX
  8
Default
 10
314.337397490287
 20
33.0425980169549
 42
0.0
  0
VERTEX
  8
Default
 10
322.433853891197
 20
35.0370619940749
 42
-0.0759541240618
  0
VERTEX
  8
Default
 10
328.076025987223
 20
-64.964261380955
 42
0.0
  0
VERTEX
  8
Default
 10
319.838450401531
 20
-64.2339018734871
 42
0.0375910852257
  0
VERTEX
  8
Default
 10
321.192545751623
 20
-24.8794440429671
 42
0.0
  0
VERTEX
  8
Default
 10
279.214832937593
 20
-26.1154453383041
 42
-0.0399254127871
  0
VERTEX
  8
Default
 10
278.114643982805
 20
-62.7450796842161
 42
0.0
  0
SEQEND
  0
POLYLINE
  8
Default
 66
     1
 10
0.0
 20
0.0
 30
0.0
 70
     1
  0
VERTEX
  8
Default
 10
278.396774215067
 20
42.846083506665
 42
0.0
  0
VERTEX
  8
Default
 10
292.671439339571
 20
46.9192133089149
 42
-0.0278101499411
  0
VERTEX
  8
Default
 10
299.159893995082
 20
17.087316899855
 42
0.0
  0
VERTEX
  8
Default
 10
253.599375947118
 20
8.828859948055
 42
0.046147381364
  0
VERTEX
  8
Default
 10
245.615706756731
 20
39.9808518254351
 42
0.0
  0
VERTEX
  8
Default
 10
233.851773611022
 20
36.1044442434549
 42
-0.0784274452563
  0
VERTEX
  8
Default
 10
244.289835243595
 20
-35.9470340023471
 42
0.0
  0
VERTEX
  8
Default
 10
256.815487575223
 20
-36.0595543746491
 42
0.0396143604101
  0
VERTEX
  8
Default
 10
255.235601529474
 20
-2.800685822835
 42
0.0
  0
VERTEX
  8
Default
 10
310.528909698008
 20
4.418492053905
 42
0.0603361209854
  0
VERTEX
  8
Default
 10
294.646242828105
 20
70.290071498025
 42
0.0
  0
VERTEX
  8
Default
 10
272.387800375907
 20
62.1158163942049
 42
-0.0018470979945
  0
VERTEX
  8
Default
 10
278.396774215067
 20
42.845868156665
 42
0.0
  0
SEQEND
  0
POLYLINE
  8
Default
 66
     1
 10
0.0
 20
0.0
 30
0.0
 70
     1
  0
VERTEX
  8
Default
 10
286.634349800761
 20
36.0201347204849
 42
-0.0147693613322
  0
VERTEX
  8
Default
 10
289.173305616512
 20
24.2784992772848
 42
0.0
  0
VERTEX
  8
Default
 10
260.793210251937
 20
18.379524543855
 42
0.0527720098452
  0
VERTEX
  8
Default
 10
241.976561986193
 20
75.5993102706149
 42
0.0
  0
VERTEX
  8
Default
 10
292.191850385918
 20
99.6445369685449
 42
0.0360860864203
  0
VERTEX
  8
Default
 10
273.375202120174
 20
134.392227709625
 42
0.0
  0
VERTEX
  8
Default
 10
280.315130029687
 20
139.055201147715
 42
-0.0760196517232
  0
VERTEX
  8
Default
 10
319.640991680139
 20
47.0315183312149
 42
0.0
  0
VERTEX
  8
Default
 10
311.657322489751
 20
44.868542983125
 42
0.0378500558107
  0
VERTEX
  8
Default
 10
299.526695738214
 20
82.340949533815
 42
0.0
  0
VERTEX
  8
Default
 10
260.511080019675
 20
66.722798833645
 42
-0.0401086506736
  0
VERTEX
  8
Default
 10
271.936435259209
 20
31.919009418915
 42
0.0
  0
SEQEND
  0
POLYLINE
  8
Default
 66
     1
 10
0.0
 20
0.0
 30
0.0
 70
     1
  0
VERTEX
  8
Default
 10
236.277942216252
 20
131.246071960135
 42
0.0
  0
VERTEX
  8
Default
 10
248.295781757266
 20
139.982175200465
 42
-0.0283816824508
  0
VERTEX
  8
Default
 10
264.573366069955
 20
114.167202245005
 42
0.0
  0
VERTEX
  8
Default
 10
224.542232907497
 20
90.7680255315749
 42
0.0467369957126
  0
VERTEX
  8
Default
 10
206.459079990714
 20
117.285254820175
 42
0.0
  0
VERTEX
  8
Default
 10
196.698066033187
 20
109.616641504225
 42
-0.0789449872803
  0
VERTEX
  8
Default
 10
231.030687563008
 20
45.486597468295
 42
0.0
  0
VERTEX
  8
Default
 10
242.851068382631
 20
49.6720322928549
 42
0.0398578673782
  0
VERTEX
  8
Default
 10
230.043393956049
 20
80.4026919053351
 42
0.0
  0
VERTEX
  8
Default
 10
279.553410843769
 20
106.189561686475
 42
0.0602095919061
  0
VERTEX
  8
Default
 10
242.230468381498
 20
162.622889232105
 42
0.0
  0
VERTEX
  8
Default
 10
224.0908677908
 20
147.285554925195
 42
-0.0022933824159
  0
SEQEND
  0
POLYLINE
  8
Default
 66
     1
 10
0.0
 20
0.0
 30
0.0
 70
     1
  0
VERTEX
  8
Default
 10
246.349202105692
 20
127.650480771415
 42
-0.0177555258495
  0
VERTEX
  8
Default
 10
252.72486955068
 20
117.509972539785
 42
0.0
  0
VERTEX
  8
Default
 10
228.068590467515
 20
102.228844581525
 42
0.0525432741438
  0
VERTEX
  8
Default
 10
190.91488288968
 20
149.504736621935
 42
0.0
  0
VERTEX
  8
Default
 10
229.93049860822
 20
189.364728565325
 42
0.0355902755823
  0
VERTEX
  8
Default
 10
200.421990451903
 20
215.572930611345
 42
0.0
  0
VERTEX
  8
Default
 10
205.358891035927
 20
222.314677549545
 42
-0.0763169680736
  0
VERTEX
  8
Default
 10
273.629108515478
 20
149.364220750305
 42
0.0
  0
VERTEX
  8
Default
 10
266.858523627706
 20
144.588942289915
 42
0.0380068922468
  0
VERTEX
  8
Default
 10
242.710057335152
 20
175.628629144975
 42
0.0
  0
VERTEX
  8
Default
 10
211.367756737781
 20
147.538375819125
 42
-0.0396467328588
  0
VERTEX
  8
Default
 10
233.936445121892
 20
118.773969334455
 42
0.0
  0
SEQEND
  0
POLYLINE
  8
Default
 66
     1
 10
0.0
 20
0.0
 30
0.0
 70
     1
  0
VERTEX
  8
Default
 10
77.8740903850397
 20
240.348516816745
 42
0.0
  0
VERTEX
  8
Default
 10
81.4850113186218
 20
254.815083419555
 42
-0.0289406530559
  0
VERTEX
  8
Default
 10
110.457590984678
 20
245.545235217025
 42
0.0
  0
VERTEX
  8
Default
 10
94.7723828361668
 20
201.752629343025
 42
0.0470974829826
  0
VERTEX
  8
Default
 10
63.9378950294058
 20
210.376212211065
 42
0.0
  0
VERTEX
  8
Default
 10
61.3707153766977
 20
198.185141328635
 42
-0.0793629409436
  0
VERTEX
  8
Default
 10
128.681754948941
 20
171.246579775145
 42
0.0
  0
VERTEX
  8
Default
 10
135.057422393928
 20
182.117555189245
 42
0.0396468147186
  0
VERTEX
  8
Default
 10
105.605361911523
 20
197.370472298185
 42
0.0
  0
VERTEX
  8
Default
 10
127.045529366585
 20
249.112723231405
 42
0.0605818689392
  0
VERTEX
  8
Default
 10
62.3581171209638
 20
268.242155597315
 42
0.0
  0
VERTEX
  8
Default
 10
58.2674990964217
 20
244.758777035895
 42
-0.0011212586221
  0
SEQEND
  0
POLYLINE
  8
Default
 66
     1
 10
0.0
 20
0.0
 30
0.0
 70
     1
  0
VERTEX
  8
Default
 10
177.317265440223
 20
199.926676736835
 42
-0.0137623280393
  0
VERTEX
  8
Default
 10
186.76792532853
 20
192.595193837785
 42
0.0
  0
VERTEX
  8
Default
 10
168.797667759573
 20
169.729654411555
 42
0.0533143847795
  0
VERTEX
  8
Default
 10
117.792436336975
 20
201.387395751785
 42
0.0
  0
VERTEX
  8
Default
 10
140.925277048305
 20
252.258878980905
 42
0.0353536341378
  0
VERTEX
  8
Default
 10
104.279382261081
 20
266.753333408045
 42
0.0
  0
VERTEX
  8
Default
 10
106.592655518484
 20
274.787287990235
 42
-0.0765078386115
  0
VERTEX
  8
Default
 10
195.569653241442
 20
229.702366797245
 42
0.0
  0
VERTEX
  8
Default
 10
190.830319516116
 20
222.876418011065
 42
0.0386152478625
  0
VERTEX
  8
Default
 10
157.597886941083
 20
243.747493460175
 42
0.0
  0
VERTEX
  8
Default
 10
137.68104972055
 20
206.584114152065
 42
-0.0402821334822
  0
VERTEX
  8
Default
 10
168.684772411746
 20
187.314165914535
 42
0.0
  0
SEQEND
  0
POLYLINE
  8
Default
 66
     1
 10
0.0
 20
0.0
 30
0.0
 70
     0
  0
VERTEX
  8
Default
 10
3.9999999999996
 20
-970.169213864162
 42
0.0
  0
VERTEX
  8
Default
 10
4.0
 20
968.131280989219
 42
0.0
  0
SEQEND
  0
POLYLINE
  8
Default
 66
     1
 10
0.0
 20
0.0
 30
0.0
 70
     1
  0
VERTEX
  8
Default
 10
28.504647941313
 20
-93.9248943979965
 42
0.591293113502
  0
VERTEX
  8
Default
 10
29.4099175441587
 20
30.1009875880471
 42
0.0
  0
SEQEND
  0
LINE
  8
Default
 10
4.0
 20
968.131280989219
 30
0.0
 11
4.0
 21
999.999995290365
 31
0.0
  0
LINE
  8
Default
 10
3.9999999999996
 20
-999.999995290365
 30
0.0
 11
3.9999999999996
 21
-970.169213864162
 31
0.0
  0
POLYLINE
  8
Default
 66
     1
 10
0.0
 20
0.0
 30
0.0
 70
     1
  0
VERTEX
  8
Default
 10
-21.0000000000002
 20
-204.659077890939
 42
-0.1222639484602
  0
VERTEX
  8
Default
 10
-26.877435960629
 20
-217.570625671145
 42
-0.0942371740958
  0
VERTEX
  8
Default
 10
-35.282363780134
 20
-224.790478482525
 42
0.0
  0
VERTEX
  8
Default
 10
-40.316669874906
 20
-249.341342442737
 42
0.0221230022935
  0
VERTEX
  8
Default
 10
-21.0000000000002
 20
-252.139290260799
 42
0.0
  0
SEQEND
  0
POLYLINE
  8
Default
 66
     1
 10
0.0
 20
0.0
 30
0.0
 70
     1
  0
VERTEX
  8
Default
 10
-21.0000000000002
 20
-924.305659461756
 42
0.0
  0
VERTEX
  8
Default
 10
-25.650171288169
 20
-924.305659461756
 42
0.0
  0
VERTEX
  8
Default
 10
-25.650171288169
 20
-894.017751768069
 42
0.0
  0
VERTEX
  8
Default
 10
-21.0000000000003
 20
-894.017751768069
 42
0.0
  0
SEQEND
  0
POLYLINE
  8
Default
 66
     1
 10
0.0
 20
0.0
 30
0.0
 70
     1
  0
VERTEX
  8
Default
 10
-21.0000000000003
 20
-936.135297978155
 42
0.0
  0
VERTEX
  8
Default
 10
-44.049213728522
 20
-936.135297978153
 42
-0.0236248528631
  0
VERTEX
  8
Default
 10
-43.871043530581
 20
-882.188113251668
 42
0.0
  0
VERTEX
  8
Default
 10
-21.0000000000003
 20
-882.187543625261
 42
0.0
  0
VERTEX
  8
Default
 10
-21.0000000000003
 20
-870.682251610591
 42
0.0
  0
VERTEX
  8
Default
 10
-101.919719088678
 20
-870.682056793385
 42
0.0
  0
VERTEX
  8
Default
 10
-101.918894018701
 20
-882.188113251668
 42
0.0
  0
VERTEX
  8
Default
 10
-58.801706117762
 20
-882.188113251668
 42
0.0
  0
VERTEX
  8
Default
 10
-58.801706117762
 20
-947.022354075158
 42
0.0
  0
VERTEX
  8
Default
 10
-21.0000000000003
 20
-947.022354075158
 42
0.0
  0
SEQEND
  0
POLYLINE
  8
Default
 66
     1
 10
0.0
 20
0.0
 30
0.0
 70
     1
  0
VERTEX
  8
Default
 10
-21.0000000000002
 20
-713.623881445627
 42
-0.0947967547423
  0
VERTEX
  8
Default
 10
-38.368010352568
 20
-676.499602184383
 42
-0.1925702459952
  0
VERTEX
  8
Default
 10
-33.325136766634
 20
-651.253936049521
 42
-0.1561200446725
  0
VERTEX
  8
Default
 10
-21.0000000000002
 20
-643.578113337245
 42
0.0
  0
SEQEND
  0
POLYLINE
  8
Default
 66
     1
 10
0.0
 20
0.0
 30
0.0
 70
     1
  0
VERTEX
  8
Default
 10
-21.0000000000002
 20
-970.169185187786
 42
0.0
  0
VERTEX
  8
Default
 10
-101.918894018701
 20
-970.169092369362
 42
0.0
  0
VERTEX
  8
Default
 10
-101.919719088678
 20
-958.851620270088
 42
0.0
  0
VERTEX
  8
Default
 10
-92.114419197966
 20
-958.851620270088
 42
0.0
  0
VERTEX
  8
Default
 10
-92.114419197966
 20
-904.796563933211
 42
0.0
  0
VERTEX
  8
Default
 10
-145.748762711362
 20
-904.79634214095
 42
0.0
  0
VERTEX
  8
Default
 10
-145.748762711362
 20
-924.305659461756
 42
0.0
  0
VERTEX
  8
Default
 10
-163.435124359979
 20
-924.305659461756
 42
0.0
  0
VERTEX
  8
Default
 10
-163.435124359979
 20
-894.017751768069
 42
0.0
  0
VERTEX
  8
Default
 10
-77.196954406893
 20
-894.017888691517
 42
0.0
  0
VERTEX
  8
Default
 10
-77.200748558086
 20
-958.851228748389
 42
0.0
  0
VERTEX
  8
Default
 10
-21.0000000000003
 20
-958.851682213805
 42
0.0
  0
SEQEND
  0
POLYLINE
  8
Default
 66
     1
 10
0.0
 20
0.0
 30
0.0
 70
     1
  0
VERTEX
  8
Default
 10
-21.0000000000003
 20
-848.794959623898
 42
0.0
  0
VERTEX
  8
Default
 10
-182.641756163549
 20
-848.794959623898
 42
-0.0588450084107
  0
VERTEX
  8
Default
 10
-176.694129834157
 20
-839.098184457182
 42
-0.138166922715
  0
VERTEX
  8
Default
 10
-139.876966389798
 20
-811.275251659558
 42
-0.1649780658083
  0
VERTEX
  8
Default
 10
-41.29621597124
 20
-802.161663038021
 42
-0.0434671523076
  0
VERTEX
  8
Default
 10
-21.0000000000002
 20
-808.492680116231
 42
0.0
  0
SEQEND
  0
POLYLINE
  8
Default
 66
     1
 10
0.0
 20
0.0
 30
0.0
 70
     1
  0
VERTEX
  8
Default
 10
-21.0000000000002
 20
-623.793656811536
 42
0.0023007749773
  0
VERTEX
  8
Default
 10
-21.824542596936
 20
-623.885471222923
 42
0.2387225606205
  0
VERTEX
  8
Default
 10
-54.112238242533
 20
-647.35449713076
 42
0.1457522530729
  0
VERTEX
  8
Default
 10
-58.547411555417
 20
-672.226926877995
 42
0.1034007774745
  0
VERTEX
  8
Default
 10
-48.551312533888
 20
-706.292593958911
 42
0.0611332651406
  0
VERTEX
  8
Default
 10
-58.799694450576
 20
-702.911964775332
 42
0.074630186274
  0
VERTEX
  8
Default
 10
-69.941225970896
 20
-702.350788711512
 42
0.2509657533638
  0
VERTEX
  8
Default
 10
-93.238250942727
 20
-718.909834773473
 42
0.3279250691443
  0
VERTEX
  8
Default
 10
-80.850199982937
 20
-767.752123158849
 42
0.0607708758656
  0
VERTEX
  8
Default
 10
-126.325261850739
 20
-774.149674794309
 42
0.2158531970662
  0
VERTEX
  8
Default
 10
-112.216133121914
 20
-739.242544072621
 42
0.2238609168296
  0
VERTEX
  8
Default
 10
-130.294721471025
 20
-704.685477448485
 42
0.0296185327447
  0
VERTEX
  8
Default
 10
-136.866821564757
 20
-700.370469473192
 42
0.0899413583869
  0
VERTEX
  8
Default
 10
-164.848967893078
 20
-690.044416782705
 42
0.1228655744526
  0
VERTEX
  8
Default
 10
-145.296584357789
 20
-670.703123806166
 42
0.2066654879408
  0
VERTEX
  8
Default
 10
-139.846081504927
 20
-614.34302816068
 42
0.1203786752464
  0
VERTEX
  8
Default
 10
-171.250591625912
 20
-561.549039768217
 42
0.0474478898504
  0
VERTEX
  8
Default
 10
-165.441751211887
 20
-561.490144859759
 42
0.3012372116963
  0
VERTEX
  8
Default
 10
-139.190671821308
 20
-539.814110684681
 42
0.111638646412
  0
VERTEX
  8
Default
 10
-83.097378143082
 20
-590.273325951323
 42
0.1362163765599
  0
VERTEX
  8
Default
 10
-32.543082335084
 20
-604.268383730628
 42
0.0763930482672
  0
VERTEX
  8
Default
 10
-21.0000000000002
 20
-602.45555084729
 42
0.0
  0
SEQEND
  0
POLYLINE
  8
Default
 66
     1
 10
0.0
 20
0.0
 30
0.0
 70
     1
  0
VERTEX
  8
Default
 10
-21.0000000000002
 20
-577.090518846023
 42
-0.0638477000855
  0
VERTEX
  8
Default
 10
-24.424880954035
 20
-579.794073099006
 42
-0.1170903999745
  0
VERTEX
  8
Default
 10
-31.998580565047
 20
-582.159335947113
 42
-0.1406950453691
  0
VERTEX
  8
Default
 10
-58.413427304112
 20
-577.638822841831
 42
-0.1331116986646
  0
VERTEX
  8
Default
 10
-114.443556864021
 20
-536.353545409564
 42
-0.1031309708539
  0
VERTEX
  8
Default
 10
-133.359111883211
 20
-501.323466708188
 42
-0.1886918759634
  0
VERTEX
  8
Default
 10
-130.448820745829
 20
-483.442598378338
 42
-0.2506672017588
  0
VERTEX
  8
Default
 10
-115.963069702503
 20
-477.256645860391
 42
-0.1295248383139
  0
VERTEX
  8
Default
 10
-88.659500505322
 20
-483.199136674184
 42
-0.0094872507931
  0
VERTEX
  8
Default
 10
-83.890619965082
 20
-485.338811896475
 42
-0.1383091113255
  0
VERTEX
  8
Default
 10
-27.292308548353
 20
-534.541899388631
 42
-0.047709541764
  0
VERTEX
  8
Default
 10
-21.0000000000002
 20
-546.31693009212
 42
0.0
  0
SEQEND
  0
POLYLINE
  8
Default
 66
     1
 10
0.0
 20
0.0
 30
0.0
 70
     1
  0
VERTEX
  8
Default
 10
-21.0000000000001
 20
544.583414028512
 42
-0.0061814962484
  0
VERTEX
  8
Default
 10
-23.223335393927
 20
544.853345467835
 42
-0.1872017059546
  0
VERTEX
  8
Default
 10
-50.598930711804
 20
562.011463288685
 42
-0.1875507116467
  0
VERTEX
  8
Default
 10
-58.543139300732
 20
592.502820864835
 42
-0.1024818902924
  0
VERTEX
  8
Default
 10
-48.55131254142
 20
625.829307837505
 42
-0.0604812184494
  0
VERTEX
  8
Default
 10
-58.8080842087981
 20
622.494694318215
 42
-0.0730562995482
  0
VERTEX
  8
Default
 10
-69.925330293143
 20
621.935450920365
 42
-0.2484912708433
  0
VERTEX
  8
Default
 10
-93.238250957395
 20
638.265005526955
 42
-0.3223178414315
  0
VERTEX
  8
Default
 10
-80.850199995626
 20
686.404526817605
 42
-0.0599081005307
  0
VERTEX
  8
Default
 10
-126.325261870689
 20
692.710027303855
 42
-0.2205463337826
  0
VERTEX
  8
Default
 10
-112.234015303821
 20
657.902631925995
 42
-0.2248027410463
  0
VERTEX
  8
Default
 10
-130.333490964723
 20
624.187901371075
 42
-0.0282910706524
  0
VERTEX
  8
Default
 10
-136.931058877967
 20
619.954671779125
 42
-0.0889793606612
  0
VERTEX
  8
Default
 10
-164.848967919178
 20
609.814917501475
 42
-0.1119708239796
  0
VERTEX
  8
Default
 10
-146.496746756961
 20
592.640521516135
 42
-0.2194244124439
  0
VERTEX
  8
Default
 10
-139.846081527037
 20
535.202758043495
 42
-0.1213067872128
  0
VERTEX
  8
Default
 10
-171.250591653034
 20
483.168395767415
 42
-0.0458511014338
  0
VERTEX
  8
Default
 10
-165.594125163673
 20
483.112871369675
 42
-0.2977676399398
  0
VERTEX
  8
Default
 10
-139.190671843313
 20
461.746199634595
 42
-0.1113885734683
  0
VERTEX
  8
Default
 10
-83.097378156131
 20
511.479382659755
 42
-0.1337311203067
  0
VERTEX
  8
Default
 10
-32.776171946219
 20
525.282586127085
 42
-0.0776061567717
  0
VERTEX
  8
Default
 10
-21.0000000000001
 20
523.506796953938
 42
0.0
  0
SEQEND
  0
POLYLINE
  8
Default
 66
     1
 10
0.0
 20
0.0
 30
0.0
 70
     1
  0
VERTEX
  8
Default
 10
-21.0
 20
841.782968338725
 42
0.0
  0
VERTEX
  8
Default
 10
-141.524401375488
 20
841.782968338725
 42
0.1147135975152
  0
VERTEX
  8
Default
 10
-177.698859639741
 20
814.795815357485
 42
0.3200736572221
  0
VERTEX
  8
Default
 10
-178.873151653747
 20
759.668801352845
 42
0.1496174864842
  0
VERTEX
  8
Default
 10
-139.876966411912
 20
729.301422936895
 42
0.1630278873386
  0
VERTEX
  8
Default
 10
-41.296215977616
 20
720.318965153205
 42
0.0429460225212
  0
VERTEX
  8
Default
 10
-21.0000000000001
 20
726.574807465565
 42
0.0
  0
SEQEND
  0
POLYLINE
  8
Default
 66
     1
 10
0.0
 20
0.0
 30
0.0
 70
     1
  0
VERTEX
  8
Default
 10
-21.0
 20
879.961900296529
 42
0.0
  0
VERTEX
  8
Default
 10
-79.016266056375
 20
879.962368410765
 42
0.0
  0
VERTEX
  8
Default
 10
-79.012471905183
 20
944.795708467645
 42
0.0
  0
VERTEX
  8
Default
 10
-165.250641858268
 20
944.795845391095
 42
0.0
  0
VERTEX
  8
Default
 10
-165.250641858268
 20
914.507937697395
 42
0.0
  0
VERTEX
  8
Default
 10
-147.564280209652
 20
914.507937697395
 42
0.0
  0
VERTEX
  8
Default
 10
-147.564280209652
 20
934.017255018205
 42
0.0
  0
VERTEX
  8
Default
 10
-93.9299366962561
 20
934.017033225945
 42
0.0
  0
VERTEX
  8
Default
 10
-93.9299366962561
 20
879.961976889065
 42
0.0
  0
VERTEX
  8
Default
 10
-103.735236586967
 20
879.961976889065
 42
0.0
  0
VERTEX
  8
Default
 10
-103.73441151699
 20
868.644504789795
 42
0.0
  0
VERTEX
  8
Default
 10
-21.0
 20
868.644409888874
 42
0.0
  0
SEQEND
  0
POLYLINE
  8
Default
 66
     1
 10
0.0
 20
0.0
 30
0.0
 70
     1
  0
VERTEX
  8
Default
 10
-21.0
 20
944.795845391095
 42
0.0
  0
VERTEX
  8
Default
 10
-27.46568878646
 20
944.795845391095
 42
0.0
  0
VERTEX
  8
Default
 10
-27.46568878646
 20
914.507937697395
 42
0.0
  0
VERTEX
  8
Default
 10
-21.0
 20
914.507937697395
 42
0.0
  0
SEQEND
  0
POLYLINE
  8
Default
 66
     1
 10
0.0
 20
0.0
 30
0.0
 70
     1
  0
VERTEX
  8
Default
 10
-21.0
 20
902.67829918101
 42
0.0
  0
VERTEX
  8
Default
 10
-45.864731226812
 20
902.678299181015
 42
-0.0236248528624
  0
VERTEX
  8
Default
 10
-45.686561028872
 20
956.625483907485
 42
0.0
  0
VERTEX
  8
Default
 10
-21.0
 20
956.626098751189
 42
0.0
  0
VERTEX
  8
Default
 10
-21.0
 20
968.131341177641
 42
0.0
  0
VERTEX
  8
Default
 10
-103.735236586967
 20
968.131540365775
 42
0.0
  0
VERTEX
  8
Default
 10
-103.73441151699
 20
956.625483907485
 42
0.0
  0
VERTEX
  8
Default
 10
-60.617223616052
 20
956.625483907485
 42
0.0
  0
VERTEX
  8
Default
 10
-60.617223616052
 20
891.791243084005
 42
0.0
  0
VERTEX
  8
Default
 10
-21.0
 20
891.791243084005
 42
0.0
  0
SEQEND
  0
POLYLINE
  8
Default
 66
     1
 10
0.0
 20
0.0
 30
0.0
 70
     1
  0
VERTEX
  8
Default
 10
3.9999999999997
 20
-999.999995290365
 42
0.0
  0
VERTEX
  8
Default
 10
-496.000001985345
 20
-999.999995290365
 42
0.0
  0
VERTEX
  8
Default
 10
-496.000001985345
 20
999.999995290365
 42
0.0
  0
VERTEX
  8
Default
 10
4.0
 20
999.999995290365
 42
0.0
  0
VERTEX
  8
Default
 10
504.000001985345
 20
999.999995290365
 42
0.0
  0
VERTEX
  8
Default
 10
504.000001985344
 20
-999.999995290365
 42
0.0
  0
SEQEND
  0
POLYLINE
  8
Default
 66
     1
 10
0.0
 20
0.0
 30
0.0
 70
     1
  0
VERTEX
  8
Default
 10
28.9999999999997
 20
-756.890139646588
 42
0.0
  0
VERTEX
  8
Default
 10
28.9999999999996
 20
-775.732659165422
 42
-0.0174833588919
  0
VERTEX
  8
Default
 10
38.4919147460524
 20
-773.212094712652
 42
-0.1462203179963
  0
SEQEND
  0
POLYLINE
  8
Default
 66
     1
 10
0.0
 20
0.0
 30
0.0
 70
     1
  0
VERTEX
  8
Default
 10
28.9999999999997
 20
-483.446303642997
 42
0.0
  0
VERTEX
  8
Default
 10
28.9999999999997
 20
-506.746635671107
 42
-0.0860050329494
  0
VERTEX
  8
Default
 10
69.7162240561936
 20
-472.419923276935
 42
0.0157625923228
  0
VERTEX
  8
Default
 10
71.8036562622416
 20
-471.137556689287
 42
-0.1000961412785
  0
VERTEX
  8
Default
 10
113.947748232914
 20
-455.704575631254
 42
-0.2483816455084
  0
VERTEX
  8
Default
 10
119.459441504882
 20
-384.019676029425
 42
-0.0539469356432
  0
VERTEX
  8
Default
 10
45.4115267220786
 20
-400.377458136594
 42
-0.2191800662327
  0
VERTEX
  8
Default
 10
62.8514949835065
 20
-439.578005753826
 42
-0.2166897133183
  0
VERTEX
  8
Default
 10
42.1196645031095
 20
-476.51992159673
 42
-0.0736650347945
  0
SEQEND
  0
POLYLINE
  8
Default
 66
     1
 10
0.0
 20
0.0
 30
0.0
 70
     1
  0
VERTEX
  8
Default
 10
29.0
 20
694.272516167709
 42
0.0
  0
VERTEX
  8
Default
 10
28.9999999999999
 20
675.679910408178
 42
-0.1481660212536
  0
VERTEX
  8
Default
 10
38.4919147507059
 20
691.785937589905
 42
-0.0172708036823
  0
SEQEND
  0
POLYLINE
  8
Default
 66
     1
 10
0.0
 20
0.0
 30
0.0
 70
     1
  0
VERTEX
  8
Default
 10
28.9999999999999
 20
563.990637732721
 42
0.0
  0
VERTEX
  8
Default
 10
28.9999999999999
 20
633.049106649754
 42
-0.0950846979985
  0
VERTEX
  8
Default
 10
46.3680103584769
 20
596.464992420375
 42
-0.1958450065573
  0
VERTEX
  8
Default
 10
41.3251367717359
 20
571.582573463935
 42
-0.1564244646565
  0
SEQEND
  0
POLYLINE
  8
Default
 66
     1
 10
0.0
 20
0.0
 30
0.0
 70
     1
  0
VERTEX
  8
Default
 10
28.9999999999998
 20
-269.460033520582
 42
0.0082176651408
  0
VERTEX
  8
Default
 10
36.4892944217156
 20
-268.618490318391
 42
0.0
  0
VERTEX
  8
Default
 10
38.2384153518986
 20
-280.921973898116
 42
-0.0139124934871
  0
VERTEX
  8
Default
 10
28.9999999999997
 20
-282.279224036272
 42
0.0
  0
SEQEND
  0
POLYLINE
  8
Default
 66
     1
 10
0.0
 20
0.0
 30
0.0
 70
     1
  0
VERTEX
  8
Default
 10
28.9999999999999
 20
468.178677049754
 42
0.0
  0
VERTEX
  8
Default
 10
28.9999999999999
 20
498.578577366978
 42
-0.0719944975944
  0
VERTEX
  8
Default
 10
32.8517524812548
 20
501.467353779195
 42
-0.1130290693943
  0
VERTEX
  8
Default
 10
39.9985805699388
 20
503.482140772195
 42
-0.1384702585824
  0
VERTEX
  8
Default
 10
66.4134273132208
 20
499.026671053845
 42
-0.054724838665
  0
VERTEX
  8
Default
 10
92.4884657117839
 20
485.580887656095
 42
-0.0759857422639
  0
VERTEX
  8
Default
 10
122.443556882075
 20
458.335426690765
 42
-0.1034259496909
  0
VERTEX
  8
Default
 10
141.359111904287
 20
423.809378153635
 42
-0.1918225269153
  0
VERTEX
  8
Default
 10
138.448820766437
 20
406.185788634885
 42
-0.2243427172587
  0
VERTEX
  8
Default
 10
126.132551054354
 20
400.276711183425
 42
-0.1384702585804
  0
VERTEX
  8
Default
 10
99.7177043125388
 20
404.732180901835
 42
-0.0544418930801
  0
VERTEX
  8
Default
 10
73.5043952099368
 20
418.239264517845
 42
-0.0664234487145
  0
VERTEX
  8
Default
 10
46.4098354341058
 20
441.951313009995
 42
-0.0356605246097
  0
VERTEX
  8
Default
 10
34.5882248044848
 20
457.625533784585
 42
-0.0435064939788
  0
SEQEND
  0
POLYLINE
  8
Default
 66
     1
 10
0.0
 20
0.0
 30
0.0
 70
     1
  0
VERTEX
  8
Default
 10
28.9999999999999
 20
343.036728068588
 42
0.0
  0
VERTEX
  8
Default
 10
28.9999999999999
 20
376.97856615031
 42
-0.2517665897153
  0
VERTEX
  8
Default
 10
37.1606434352758
 20
357.465461064765
 42
-0.1578517326931
  0
SEQEND
  0
POLYLINE
  8
Default
 66
     1
 10
0.0
 20
0.0
 30
0.0
 70
     1
  0
VERTEX
  8
Default
 10
28.9999999999999
 20
281.347017907414
 42
0.0
  0
VERTEX
  8
Default
 10
28.9999999999999
 20
289.603972559483
 42
-0.0510903477429
  0
VERTEX
  8
Default
 10
94.8851700466867
 20
278.354668329625
 42
0.0
  0
VERTEX
  8
Default
 10
92.7411316737198
 20
270.320713747425
 42
0.038386057982
  0
VERTEX
  8
Default
 10
54.4308956044908
 20
278.495076526255
 42
0.0
  0
VERTEX
  8
Default
 10
48.3654740914158
 20
236.724930128705
 42
-0.0401397770647
  0
VERTEX
  8
Default
 10
84.0521909713298
 20
229.281034532355
 42
0.0
  0
VERTEX
  8
Default
 10
87.8606787636097
 20
244.112619376405
 42
-0.012826519148
  0
VERTEX
  8
Default
 10
99.2578101661868
 20
240.460929514045
 42
0.0
  0
VERTEX
  8
Default
 10
90.1457281840557
 20
212.792008453085
 42
0.0533986035476
  0
VERTEX
  8
Default
 10
31.4390659406387
 20
225.011290184825
 42
0.0
  0
VERTEX
  8
Default
 10
35.8399298970948
 20
280.770464571645
 42
0.0061614750934
  0
SEQEND
  0
POLYLINE
  8
Default
 66
     1
 10
0.0
 20
0.0
 30
0.0
 70
     1
  0
VERTEX
  8
Default
 10
28.9999999999998
 20
47.5256622289358
 42
0.0
  0
VERTEX
  8
Default
 10
28.9999999999998
 20
186.411729326716
 42
-0.0841098866242
  0
VERTEX
  8
Default
 10
97.8945186679127
 20
168.023085342885
 42
-0.0041968464901
  0
VERTEX
  8
Default
 10
87.0642724041007
 20
145.798357951575
 42
0.2328489145428
  0
VERTEX
  8
Default
 10
70.9285114007837
 20
133.563522046555
 42
0.2390436197625
  0
VERTEX
  8
Default
 10
68.2100349788537
 20
107.156428126855
 42
0.0
  0
VERTEX
  8
Default
 10
37.7468881095017
 20
44.775876882145
 42
0.0279693813503
  0
SEQEND
  0
POLYLINE
  8
Default
 66
     1
 10
0.0
 20
0.0
 30
0.0
 70
     1
  0
VERTEX
  8
Default
 10
-21.0000000000002
 20
-756.890139646588
 42
0.0
  0
VERTEX
  8
Default
 10
-21.0000000000002
 20
-775.732659165422
 42
0.0174833588919
  0
VERTEX
  8
Default
 10
-30.491914746053
 20
-773.212094712652
 42
0.1462203179963
  0
SEQEND
  0
POLYLINE
  8
Default
 66
     1
 10
0.0
 20
0.0
 30
0.0
 70
     1
  0
VERTEX
  8
Default
 10
28.9999999999996
 20
-924.305659461756
 42
0.0
  0
VERTEX
  8
Default
 10
33.6501712881684
 20
-924.305659461756
 42
0.0
  0
VERTEX
  8
Default
 10
33.6501712881684
 20
-894.017751768069
 42
0.0
  0
VERTEX
  8
Default
 10
28.9999999999997
 20
-894.017751768069
 42
0.0
  0
SEQEND
  0
POLYLINE
  8
Default
 66
     1
 10
0.0
 20
0.0
 30
0.0
 70
     1
  0
VERTEX
  8
Default
 10
28.9999999999997
 20
-305.380246095181
 42
0.0
  0
VERTEX
  8
Default
 10
28.9999999999998
 20
-291.263547126919
 42
0.0403153748783
  0
VERTEX
  8
Default
 10
73.7552485235406
 20
-283.506281511093
 42
0.0
  0
VERTEX
  8
Default
 10
88.5659502756126
 20
-337.411507792405
 42
0.0360034234013
  0
VERTEX
  8
Default
 10
125.888892737882
 20
-324.826992469425
 42
0.0
  0
VERTEX
  8
Default
 10
129.246015413466
 20
-332.495605785383
 42
-0.076925021488
  0
VERTEX
  8
Default
 10
32.2853485001195
 20
-355.445347059604
 42
0.0
  0
VERTEX
  8
Default
 10
31.5518531511596
 20
-347.186890107802
 42
0.0376356728046
  0
VERTEX
  8
Default
 10
70.3417863113506
 20
-341.681144464937
 42
0.0
  0
VERTEX
  8
Default
 10
61.8220804933956
 20
-300.332330332281
 42
-0.0367300559423
  0
SEQEND
  0
POLYLINE
  8
Default
 66
     1
 10
0.0
 20
0.0
 30
0.0
 70
     1
  0
VERTEX
  8
Default
 10
28.9999999999999
 20
429.204752085201
 42
0.0868280435446
  0
VERTEX
  8
Default
 10
70.2260043260348
 20
395.029374998665
 42
0.1028753817603
  0
VERTEX
  8
Default
 10
113.947748249612
 20
378.846874330575
 42
0.2516788100862
  0
VERTEX
  8
Default
 10
119.45944152246
 20
308.193412654665
 42
0.0532424817766
  0
VERTEX
  8
Default
 10
45.4115267278338
 20
324.315830871485
 42
0.0652496408079
  0
VERTEX
  8
Default
 10
56.0134560820338
 20
337.065029522775
 42
0.321048696589
  0
VERTEX
  8
Default
 10
53.2726030693688
 20
388.295823591045
 42
0.1224491255609
  0
VERTEX
  8
Default
 10
30.1371437218998
 20
405.513771677055
 42
0.0043704835899
  0
VERTEX
  8
Default
 10
28.9999999999999
 20
405.974659208461
 42
0.0
  0
SEQEND
  0
POLYLINE
  8
Default
 66
     1
 10
0.0
 20
0.0
 30
0.0
 70
     1
  0
VERTEX
  8
Default
 10
28.9999999999998
 20
-204.659077890939
 42
0.1222639484602
  0
VERTEX
  8
Default
 10
34.8774359606286
 20
-217.570625671145
 42
0.0942371740958
  0
VERTEX
  8
Default
 10
43.2823637801336
 20
-224.790478482525
 42
0.0
  0
VERTEX
  8
Default
 10
48.3166698749056
 20
-249.341342442737
 42
-0.0221230022935
  0
VERTEX
  8
Default
 10
28.9999999999998
 20
-252.139290260799
 42
0.0
  0
SEQEND
  0
POLYLINE
  8
Default
 66
     1
 10
0.0
 20
0.0
 30
0.0
 70
     1
  0
VERTEX
  8
Default
 10
28.9999999999998
 20
216.524135546903
 42
-0.0305488892311
  0
VERTEX
  8
Default
 10
54.2070513803498
 20
212.820111627405
 42
0.0
  0
VERTEX
  8
Default
 10
51.9218938225977
 20
200.432318524705
 42
0.0252244003501
  0
VERTEX
  8
Default
 10
28.9999999999998
 20
203.613991526875
 42
0.0
  0
SEQEND
  0
POLYLINE
  8
Default
 66
     1
 10
0.0
 20
0.0
 30
0.0
 70
     1
  0
VERTEX
  8
Default
 10
28.9999999999997
 20
-453.812230415704
 42
0.0094133520605
  0
VERTEX
  8
Default
 10
29.6444192414375
 20
-453.264314669029
 42
0.2421141183979
  0
VERTEX
  8
Default
 10
37.1606434308365
 20
-434.011024785356
 42
0.1348456864012
  0
VERTEX
  8
Default
 10
30.5567134862635
 20
-420.985285855142
 42
0.0199231019347
  0
VERTEX
  8
Default
 10
28.9999999999997
 20
-419.410776462105
 42
0.0
  0
SEQEND
  0
POLYLINE
  8
Default
 66
     1
 10
0.0
 20
0.0
 30
0.0
 70
     1
  0
VERTEX
  8
Default
 10
35.3321227505854
 20
-313.899973334688
 42
0.0
  0
VERTEX
  8
Default
 10
36.8554473410106
 20
-328.731610900717
 42
-0.0073727383513
  0
VERTEX
  8
Default
 10
28.9999999999997
 20
-329.38357671451
 42
0.0
  0
VERTEX
  8
Default
 10
28.9999999999997
 20
-338.724566656331
 42
0.0274085008905
  0
VERTEX
  8
Default
 10
59.3965607120026
 20
-334.770993830776
 42
0.0
  0
VERTEX
  8
Default
 10
55.2494950135456
 20
-311.287507594364
 42
-0.0022156103851
  0
VERTEX
  8
Default
 10
35.3326577930136
 20
-313.899918381667
 42
0.0
  0
SEQEND
  0
POLYLINE
  8
Default
 66
     1
 10
0.0
 20
0.0
 30
0.0
 70
     1
  0
VERTEX
  8
Default
 10
-21.0000000000001
 20
694.272516167709
 42
0.0
  0
VERTEX
  8
Default
 10
-21.0000000000001
 20
675.679910408178
 42
0.1481660212536
  0
VERTEX
  8
Default
 10
-30.491914750706
 20
691.785937589905
 42
0.0172708036823
  0
SEQEND
  0
POLYLINE
  8
Default
 66
     1
 10
0.0
 20
0.0
 30
0.0
 70
     1
  0
VERTEX
  8
Default
 10
28.9999999999998
 20
-161.874485293168
 42
0.0
  0
VERTEX
  8
Default
 10
33.5936861233896
 20
-182.729728132224
 42
0.1036138584245
  0
VERTEX
  8
Default
 10
28.9999999999998
 20
-193.894074487301
 42
0.0
  0
SEQEND
  0
POLYLINE
  8
Default
 66
     1
 10
0.0
 20
0.0
 30
0.0
 70
     1
  0
VERTEX
  8
Default
 10
-21.0000000000002
 20
-483.446303642997
 42
0.0
  0
VERTEX
  8
Default
 10
-21.0000000000002
 20
-506.746635671107
 42
0.0860050329494
  0
VERTEX
  8
Default
 10
-61.7162240561941
 20
-472.419923276935
 42
-0.0157625923228
  0
VERTEX
  8
Default
 10
-63.803656262242
 20
-471.137556689287
 42
0.1000961412785
  0
VERTEX
  8
Default
 10
-105.947748232914
 20
-455.704575631254
 42
0.2483816455084
  0
VERTEX
  8
Default
 10
-111.459441504882
 20
-384.019676029425
 42
0.0539469356432
  0
VERTEX
  8
Default
 10
-37.411526722079
 20
-400.377458136594
 42
0.2191800662327
  0
VERTEX
  8
Default
 10
-54.851494983507
 20
-439.578005753826
 42
0.2166897133183
  0
VERTEX
  8
Default
 10
-34.11966450311
 20
-476.51992159673
 42
0.0736650347945
  0
SEQEND
  0
POLYLINE
  8
Default
 66
     1
 10
0.0
 20
0.0
 30
0.0
 70
     1
  0
VERTEX
  8
Default
 10
-21.0000000000001
 20
343.036728068588
 42
0.0
  0
VERTEX
  8
Default
 10
-21.0000000000001
 20
376.97856615031
 42
0.2517665897153
  0
VERTEX
  8
Default
 10
-29.160643435276
 20
357.465461064765
 42
0.1578517326931
  0
SEQEND
  0
POLYLINE
  8
Default
 66
     1
 10
0.0
 20
0.0
 30
0.0
 70
     1
  0
VERTEX
  8
Default
 10
-21.0000000000001
 20
281.347017907414
 42
0.0
  0
VERTEX
  8
Default
 10
-21.0000000000001
 20
289.603972559483
 42
0.0510903477429
  0
VERTEX
  8
Default
 10
-86.885170046687
 20
278.354668329625
 42
0.0
  0
VERTEX
  8
Default
 10
-84.74113167372
 20
270.320713747425
 42
-0.038386057982
  0
VERTEX
  8
Default
 10
-46.430895604491
 20
278.495076526255
 42
0.0
  0
VERTEX
  8
Default
 10
-40.365474091416
 20
236.724930128705
 42
0.0401397770647
  0
VERTEX
  8
Default
 10
-76.05219097133
 20
229.281034532355
 42
0.0
  0
VERTEX
  8
Default
 10
-79.86067876361
 20
244.112619376405
 42
0.012826519148
  0
VERTEX
  8
Default
 10
-91.257810166187
 20
240.460929514045
 42
0.0
  0
VERTEX
  8
Default
 10
-82.145728184056
 20
212.792008453085
 42
-0.0533986035476
  0
VERTEX
  8
Default
 10
-23.439065940639
 20
225.011290184825
 42
0.0
  0
VERTEX
  8
Default
 10
-27.839929897095
 20
280.770464571645
 42
-0.0061614750934
  0
SEQEND
  0
POLYLINE
  8
Default
 66
     1
 10
0.0
 20
0.0
 30
0.0
 70
     1
  0
VERTEX
  8
Default
 10
-21.0000000000001
 20
563.990637732721
 42
0.0
  0
VERTEX
  8
Default
 10
-21.0
 20
633.049106649754
 42
0.0950846979985
  0
VERTEX
  8
Default
 10
-38.368010358477
 20
596.464992420375
 42
0.1958450065573
  0
VERTEX
  8
Default
 10
-33.325136771736
 20
571.582573463935
 42
0.1564244646565
  0
SEQEND
  0
POLYLINE
  8
Default
 66
     1
 10
0.0
 20
0.0
 30
0.0
 70
     1
  0
VERTEX
  8
Default
 10
28.9999999999997
 20
-936.135297978155
 42
0.0
  0
VERTEX
  8
Default
 10
52.0492137285214
 20
-936.135297978153
 42
0.0236248528631
  0
VERTEX
  8
Default
 10
51.8710435305804
 20
-882.188113251668
 42
0.0
  0
VERTEX
  8
Default
 10
28.9999999999996
 20
-882.187543625261
 42
0.0
  0
VERTEX
  8
Default
 10
28.9999999999996
 20
-870.682251610591
 42
0.0
  0
VERTEX
  8
Default
 10
109.919719088677
 20
-870.682056793385
 42
0.0
  0
VERTEX
  8
Default
 10
109.9188940187
 20
-882.188113251668
 42
0.0
  0
VERTEX
  8
Default
 10
66.8017061177614
 20
-882.188113251668
 42
0.0
  0
VERTEX
  8
Default
 10
66.8017061177614
 20
-947.022354075158
 42
0.0
  0
VERTEX
  8
Default
 10
28.9999999999996
 20
-947.022354075158
 42
0.0
  0
SEQEND
  0
POLYLINE
  8
Default
 66
     1
 10
0.0
 20
0.0
 30
0.0
 70
     1
  0
VERTEX
  8
Default
 10
28.9999999999996
 20
-713.623881445627
 42
0.0947967547423
  0
VERTEX
  8
Default
 10
46.3680103525675
 20
-676.499602184383
 42
0.1925702459952
  0
VERTEX
  8
Default
 10
41.3251367666335
 20
-651.253936049521
 42
0.1561200446725
  0
VERTEX
  8
Default
 10
28.9999999999997
 20
-643.578113337245
 42
0.0
  0
SEQEND
  0
POLYLINE
  8
Default
 66
     1
 10
0.0
 20
0.0
 30
0.0
 70
     1
  0
VERTEX
  8
Default
 10
28.9999999999996
 20
-970.169185187786
 42
0.0
  0
VERTEX
  8
Default
 10
109.9188940187
 20
-970.169092369362
 42
0.0
  0
VERTEX
  8
Default
 10
109.919719088677
 20
-958.851620270088
 42
0.0
  0
VERTEX
  8
Default
 10
100.114419197965
 20
-958.851620270088
 42
0.0
  0
VERTEX
  8
Default
 10
100.114419197965
 20
-904.796563933211
 42
0.0
  0
VERTEX
  8
Default
 10
153.748762711361
 20
-904.79634214095
 42
0.0
  0
VERTEX
  8
Default
 10
153.748762711361
 20
-924.305659461756
 42
0.0
  0
VERTEX
  8
Default
 10
171.435124359978
 20
-924.305659461756
 42
0.0
  0
VERTEX
  8
Default
 10
171.435124359978
 20
-894.017751768069
 42
0.0
  0
VERTEX
  8
Default
 10
85.1969544068924
 20
-894.017888691517
 42
0.0
  0
VERTEX
  8
Default
 10
85.2007485580854
 20
-958.851228748389
 42
0.0
  0
VERTEX
  8
Default
 10
28.9999999999996
 20
-958.851682213805
 42
0.0
  0
SEQEND
  0
POLYLINE
  8
Default
 66
     1
 10
0.0
 20
0.0
 30
0.0
 70
     1
  0
VERTEX
  8
Default
 10
28.9999999999997
 20
-848.794959623898
 42
0.0
  0
VERTEX
  8
Default
 10
190.641756163548
 20
-848.794959623898
 42
0.0588450084107
  0
VERTEX
  8
Default
 10
184.694129834156
 20
-839.098184457182
 42
0.138166922715
  0
VERTEX
  8
Default
 10
147.876966389797
 20
-811.275251659558
 42
0.1649780658083
  0
VERTEX
  8
Default
 10
49.2962159712394
 20
-802.161663038021
 42
0.0434671523076
  0
VERTEX
  8
Default
 10
28.9999999999997
 20
-808.492680116231
 42
0.0
  0
SEQEND
  0
POLYLINE
  8
Default
 66
     1
 10
0.0
 20
0.0
 30
0.0
 70
     1
  0
VERTEX
  8
Default
 10
28.9999999999997
 20
-623.793656811536
 42
-0.0023007749773
  0
VERTEX
  8
Default
 10
29.8245425969355
 20
-623.885471222923
 42
-0.2387225606205
  0
VERTEX
  8
Default
 10
62.1122382425325
 20
-647.35449713076
 42
-0.1457522530729
  0
VERTEX
  8
Default
 10
66.5474115554164
 20
-672.226926877995
 42
-0.1034007774745
  0
VERTEX
  8
Default
 10
56.5513125338874
 20
-706.292593958911
 42
-0.0611332651406
  0
VERTEX
  8
Default
 10
66.7996944505754
 20
-702.911964775332
 42
-0.074630186274
  0
VERTEX
  8
Default
 10
77.9412259708955
 20
-702.350788711512
 42
-0.2509657533638
  0
VERTEX
  8
Default
 10
101.238250942726
 20
-718.909834773473
 42
-0.3279250691443
  0
VERTEX
  8
Default
 10
88.8501999829364
 20
-767.752123158849
 42
-0.0607708758656
  0
VERTEX
  8
Default
 10
134.325261850738
 20
-774.149674794309
 42
-0.2158531970662
  0
VERTEX
  8
Default
 10
120.216133121913
 20
-739.242544072621
 42
-0.2238609168296
  0
VERTEX
  8
Default
 10
138.294721471024
 20
-704.685477448485
 42
-0.0296185327447
  0
VERTEX
  8
Default
 10
144.866821564756
 20
-700.370469473192
 42
-0.0899413583869
  0
VERTEX
  8
Default
 10
172.848967893077
 20
-690.044416782705
 42
-0.1228655744526
  0
VERTEX
  8
Default
 10
153.296584357788
 20
-670.703123806166
 42
-0.2066654879408
  0
VERTEX
  8
Default
 10
147.846081504927
 20
-614.34302816068
 42
-0.1203786752464
  0
VERTEX
  8
Default
 10
179.250591625912
 20
-561.549039768217
 42
-0.0474478898504
  0
VERTEX
  8
Default
 10
173.441751211887
 20
-561.490144859759
 42
-0.3012372116963
  0
VERTEX
  8
Default
 10
147.190671821307
 20
-539.814110684681
 42
-0.111638646412
  0
VERTEX
  8
Default
 10
91.0973781430815
 20
-590.273325951323
 42
-0.1362163765599
  0
VERTEX
  8
Default
 10
40.5430823350835
 20
-604.268383730628
 42
-0.0763930482672
  0
VERTEX
  8
Default
 10
28.9999999999997
 20
-602.45555084729
 42
0.0
  0
SEQEND
  0
POLYLINE
  8
Default
 66
     1
 10
0.0
 20
0.0
 30
0.0
 70
     1
  0
VERTEX
  8
Default
 10
28.9999999999997
 20
-577.090518846023
 42
0.0638477000855
  0
VERTEX
  8
Default
 10
32.4248809540345
 20
-579.794073099006
 42
0.1170903999745
  0
VERTEX
  8
Default
 10
39.9985805650465
 20
-582.159335947113
 42
0.1406950453691
  0
VERTEX
  8
Default
 10
66.4134273041115
 20
-577.638822841831
 42
0.1331116986646
  0
VERTEX
  8
Default
 10
122.443556864021
 20
-536.353545409564
 42
0.1031309708539
  0
VERTEX
  8
Default
 10
141.359111883211
 20
-501.323466708188
 42
0.1886918759634
  0
VERTEX
  8
Default
 10
138.448820745829
 20
-483.442598378338
 42
0.2506672017588
  0
VERTEX
  8
Default
 10
123.963069702503
 20
-477.256645860391
 42
0.1295248383139
  0
VERTEX
  8
Default
 10
96.6595005053215
 20
-483.199136674184
 42
0.0094872507931
  0
VERTEX
  8
Default
 10
91.8906199650815
 20
-485.338811896475
 42
0.1383091113255
  0
VERTEX
  8
Default
 10
35.2923085483525
 20
-534.541899388631
 42
0.047709541764
  0
VERTEX
  8
Default
 10
28.9999999999997
 20
-546.31693009212
 42
0.0
  0
SEQEND
  0
POLYLINE
  8
Default
 66
     1
 10
0.0
 20
0.0
 30
0.0
 70
     1
  0
VERTEX
  8
Default
 10
28.9999999999999
 20
544.583414028512
 42
0.0061814962484
  0
VERTEX
  8
Default
 10
31.2233353939269
 20
544.853345467835
 42
0.1872017059546
  0
VERTEX
  8
Default
 10
58.5989307118039
 20
562.011463288685
 42
0.1875507116467
  0
VERTEX
  8
Default
 10
66.5431393007319
 20
592.502820864835
 42
0.1024818902924
  0
VERTEX
  8
Default
 10
56.5513125414199
 20
625.829307837505
 42
0.0604812184494
  0
VERTEX
  8
Default
 10
66.8080842087979
 20
622.494694318215
 42
0.0730562995482
  0
VERTEX
  8
Default
 10
77.9253302931429
 20
621.935450920365
 42
0.2484912708433
  0
VERTEX
  8
Default
 10
101.238250957395
 20
638.265005526955
 42
0.3223178414315
  0
VERTEX
  8
Default
 10
88.8501999956259
 20
686.404526817605
 42
0.0599081005307
  0
VERTEX
  8
Default
 10
134.325261870689
 20
692.710027303855
 42
0.2205463337826
  0
VERTEX
  8
Default
 10
120.234015303821
 20
657.902631925995
 42
0.2248027410463
  0
VERTEX
  8
Default
 10
138.333490964723
 20
624.187901371075
 42
0.0282910706524
  0
VERTEX
  8
Default
 10
144.931058877967
 20
619.954671779125
 42
0.0889793606612
  0
VERTEX
  8
Default
 10
172.848967919178
 20
609.814917501475
 42
0.1119708239796
  0
VERTEX
  8
Default
 10
154.496746756961
 20
592.640521516135
 42
0.2194244124439
  0
VERTEX
  8
Default
 10
147.846081527037
 20
535.202758043495
 42
0.1213067872128
  0
VERTEX
  8
Default
 10
179.250591653034
 20
483.168395767415
 42
0.0458511014338
  0
VERTEX
  8
Default
 10
173.594125163673
 20
483.112871369675
 42
0.2977676399398
  0
VERTEX
  8
Default
 10
147.190671843313
 20
461.746199634595
 42
0.1113885734683
  0
VERTEX
  8
Default
 10
91.0973781561308
 20
511.479382659755
 42
0.1337311203067
  0
VERTEX
  8
Default
 10
40.7761719462188
 20
525.282586127085
 42
0.0776061567717
  0
VERTEX
  8
Default
 10
28.9999999999999
 20
523.506796953938
 42
0.0
  0
SEQEND
  0
POLYLINE
  8
Default
 66
     1
 10
0.0
 20
0.0
 30
0.0
 70
     1
  0
VERTEX
  8
Default
 10
-21.0000000000001
 20
468.178677049754
 42
0.0
  0
VERTEX
  8
Default
 10
-21.0000000000001
 20
498.578577366978
 42
0.0719944975944
  0
VERTEX
  8
Default
 10
-24.851752481255
 20
501.467353779195
 42
0.1130290693943
  0
VERTEX
  8
Default
 10
-31.998580569939
 20
503.482140772195
 42
0.1384702585824
  0
VERTEX
  8
Default
 10
-58.413427313221
 20
499.026671053845
 42
0.054724838665
  0
VERTEX
  8
Default
 10
-84.488465711784
 20
485.580887656095
 42
0.0759857422639
  0
VERTEX
  8
Default
 10
-114.443556882075
 20
458.335426690765
 42
0.1034259496909
  0
VERTEX
  8
Default
 10
-133.359111904287
 20
423.809378153635
 42
0.1918225269153
  0
VERTEX
  8
Default
 10
-130.448820766437
 20
406.185788634885
 42
0.2243427172587
  0
VERTEX
  8
Default
 10
-118.132551054354
 20
400.276711183425
 42
0.1384702585804
  0
VERTEX
  8
Default
 10
-91.717704312539
 20
404.732180901835
 42
0.0544418930801
  0
VERTEX
  8
Default
 10
-65.504395209937
 20
418.239264517845
 42
0.0664234487145
  0
VERTEX
  8
Default
 10
-38.409835434106
 20
441.951313009995
 42
0.0356605246097
  0
VERTEX
  8
Default
 10
-26.588224804485
 20
457.625533784585
 42
0.0435064939788
  0
SEQEND
  0
POLYLINE
  8
Default
 66
     1
 10
0.0
 20
0.0
 30
0.0
 70
     1
  0
VERTEX
  8
Default
 10
29.0
 20
841.782968338725
 42
0.0
  0
VERTEX
  8
Default
 10
149.524401375488
 20
841.782968338725
 42
-0.1147135975152
  0
VERTEX
  8
Default
 10
185.698859639741
 20
814.795815357485
 42
-0.3200736572221
  0
VERTEX
  8
Default
 10
186.873151653747
 20
759.668801352845
 42
-0.1496174864842
  0
VERTEX
  8
Default
 10
147.876966411912
 20
729.301422936895
 42
-0.1630278873386
  0
VERTEX
  8
Default
 10
49.2962159776159
 20
720.318965153205
 42
-0.0429460225212
  0
VERTEX
  8
Default
 10
29.0
 20
726.574807465565
 42
0.0
  0
SEQEND
  0
POLYLINE
  8
Default
 66
     1
 10
0.0
 20
0.0
 30
0.0
 70
     1
  0
VERTEX
  8
Default
 10
29.0
 20
879.961900296529
 42
0.0
  0
VERTEX
  8
Default
 10
87.0162660563749
 20
879.962368410765
 42
0.0
  0
VERTEX
  8
Default
 10
87.012471905183
 20
944.795708467645
 42
0.0
  0
VERTEX
  8
Default
 10
173.250641858268
 20
944.795845391095
 42
0.0
  0
VERTEX
  8
Default
 10
173.250641858268
 20
914.507937697395
 42
0.0
  0
VERTEX
  8
Default
 10
155.564280209652
 20
914.507937697395
 42
0.0
  0
VERTEX
  8
Default
 10
155.564280209652
 20
934.017255018205
 42
0.0
  0
VERTEX
  8
Default
 10
101.929936696256
 20
934.017033225945
 42
0.0
  0
VERTEX
  8
Default
 10
101.929936696256
 20
879.961976889065
 42
0.0
  0
VERTEX
  8
Default
 10
111.735236586967
 20
879.961976889065
 42
0.0
  0
VERTEX
  8
Default
 10
111.73441151699
 20
868.644504789795
 42
0.0
  0
VERTEX
  8
Default
 10
29.0
 20
868.644409888874
 42
0.0
  0
SEQEND
  0
POLYLINE
  8
Default
 66
     1
 10
0.0
 20
0.0
 30
0.0
 70
     1
  0
VERTEX
  8
Default
 10
29.0
 20
944.795845391095
 42
0.0
  0
VERTEX
  8
Default
 10
35.46568878646
 20
944.795845391095
 42
0.0
  0
VERTEX
  8
Default
 10
35.46568878646
 20
914.507937697395
 42
0.0
  0
VERTEX
  8
Default
 10
29.0
 20
914.507937697395
 42
0.0
  0
SEQEND
  0
POLYLINE
  8
Default
 66
     1
 10
0.0
 20
0.0
 30
0.0
 70
     1
  0
VERTEX
  8
Default
 10
-21.0000000000001
 20
47.5256622289358
 42
0.0
  0
VERTEX
  8
Default
 10
-21.0000000000001
 20
186.411729326716
 42
0.0841098866242
  0
VERTEX
  8
Default
 10
-89.894518667913
 20
168.023085342885
 42
0.0041968464901
  0
VERTEX
  8
Default
 10
-79.064272404101
 20
145.798357951575
 42
-0.2328489145428
  0
VERTEX
  8
Default
 10
-62.928511400784
 20
133.563522046555
 42
-0.2390436197625
  0
VERTEX
  8
Default
 10
-60.210034978854
 20
107.156428126855
 42
0.0
  0
VERTEX
  8
Default
 10
-29.746888109502
 20
44.775876882145
 42
-0.0279693813503
  0
SEQEND
  0
POLYLINE
  8
Default
 66
     1
 10
0.0
 20
0.0
 30
0.0
 70
     1
  0
VERTEX
  8
Default
 10
-21.0000000000002
 20
-305.380246095181
 42
0.0
  0
VERTEX
  8
Default
 10
-21.0000000000002
 20
-291.263547126919
 42
-0.0403153748783
  0
VERTEX
  8
Default
 10
-65.755248523541
 20
-283.506281511093
 42
0.0
  0
VERTEX
  8
Default
 10
-80.565950275613
 20
-337.411507792405
 42
-0.0360034234013
  0
VERTEX
  8
Default
 10
-117.888892737882
 20
-324.826992469425
 42
0.0
  0
VERTEX
  8
Default
 10
-121.246015413466
 20
-332.495605785383
 42
0.076925021488
  0
VERTEX
  8
Default
 10
-24.28534850012
 20
-355.445347059604
 42
0.0
  0
VERTEX
  8
Default
 10
-23.55185315116
 20
-347.186890107802
 42
-0.0376356728046
  0
VERTEX
  8
Default
 10
-62.341786311351
 20
-341.681144464937
 42
0.0
  0
VERTEX
  8
Default
 10
-53.822080493396
 20
-300.332330332281
 42
0.0367300559423
  0
SEQEND
  0
POLYLINE
  8
Default
 66
     1
 10
0.0
 20
0.0
 30
0.0
 70
     1
  0
VERTEX
  8
Default
 10
29.0
 20
902.67829918101
 42
0.0
  0
VERTEX
  8
Default
 10
53.864731226812
 20
902.678299181015
 42
0.0236248528624
  0
VERTEX
  8
Default
 10
53.686561028872
 20
956.625483907485
 42
0.0
  0
VERTEX
  8
Default
 10
28.9999999999999
 20
956.626098751189
 42
0.0
  0
VERTEX
  8
Default
 10
29.0
 20
968.131341177641
 42
0.0
  0
VERTEX
  8
Default
 10
111.735236586967
 20
968.131540365775
 42
0.0
  0
VERTEX
  8
Default
 10
111.73441151699
 20
956.625483907485
 42
0.0
  0
VERTEX
  8
Default
 10
68.617223616052
 20
956.625483907485
 42
0.0
  0
VERTEX
  8
Default
 10
68.6172236160519
 20
891.791243084005
 42
0.0
  0
VERTEX
  8
Default
 10
29.0
 20
891.791243084005
 42
0.0
  0
SEQEND
  0
POLYLINE
  8
Default
 66
     1
 10
0.0
 20
0.0
 30
0.0
 70
     1
  0
VERTEX
  8
Default
 10
-21.0000000000001
 20
429.204752085201
 42
-0.0868280435446
  0
VERTEX
  8
Default
 10
-62.226004326035
 20
395.029374998665
 42
-0.1028753817603
  0
VERTEX
  8
Default
 10
-105.947748249612
 20
378.846874330575
 42
-0.2516788100862
  0
VERTEX
  8
Default
 10
-111.45944152246
 20
308.193412654665
 42
-0.0532424817766
  0
VERTEX
  8
Default
 10
-37.411526727834
 20
324.315830871485
 42
-0.0652496408079
  0
VERTEX
  8
Default
 10
-48.013456082034
 20
337.065029522775
 42
-0.321048696589
  0
VERTEX
  8
Default
 10
-45.272603069369
 20
388.295823591045
 42
-0.1224491255609
  0
VERTEX
  8
Default
 10
-22.1371437219
 20
405.513771677055
 42
-0.0043704835899
  0
VERTEX
  8
Default
 10
-21.0000000000001
 20
405.974659208461
 42
0.0
  0
SEQEND
  0
POLYLINE
  8
Default
 66
     1
 10
0.0
 20
0.0
 30
0.0
 70
     1
  0
VERTEX
  8
Default
 10
-21.0000000000001
 20
216.524135546903
 42
0.0305488892311
  0
VERTEX
  8
Default
 10
-46.20705138035
 20
212.820111627405
 42
0.0
  0
VERTEX
  8
Default
 10
-43.921893822598
 20
200.432318524705
 42
-0.0252244003501
  0
VERTEX
  8
Default
 10
-21.0000000000001
 20
203.613991526875
 42
0.0
  0
SEQEND
  0
POLYLINE
  8
Default
 66
     1
 10
0.0
 20
0.0
 30
0.0
 70
     1
  0
VERTEX
  8
Default
 10
-21.0000000000002
 20
-453.812230415704
 42
-0.0094133520605
  0
VERTEX
  8
Default
 10
-21.644419241438
 20
-453.264314669029
 42
-0.2421141183979
  0
VERTEX
  8
Default
 10
-29.160643430837
 20
-434.011024785356
 42
-0.1348456864012
  0
VERTEX
  8
Default
 10
-22.556713486264
 20
-420.985285855142
 42
-0.0199231019347
  0
VERTEX
  8
Default
 10
-21.0000000000002
 20
-419.410776462105
 42
0.0
  0
SEQEND
  0
POLYLINE
  8
Default
 66
     1
 10
0.0
 20
0.0
 30
0.0
 70
     1
  0
VERTEX
  8
Default
 10
-27.3321227505859
 20
-313.899973334688
 42
0.0
  0
VERTEX
  8
Default
 10
-28.855447341011
 20
-328.731610900717
 42
0.0073727383513
  0
VERTEX
  8
Default
 10
-21.0000000000002
 20
-329.38357671451
 42
0.0
  0
VERTEX
  8
Default
 10
-21.0000000000002
 20
-338.724566656331
 42
-0.0274085008905
  0
VERTEX
  8
Default
 10
-51.396560712003
 20
-334.770993830776
 42
0.0
  0
VERTEX
  8
Default
 10
-47.249495013546
 20
-311.287507594364
 42
0.0022156103851
  0
VERTEX
  8
Default
 10
-27.3326577930141
 20
-313.899918381667
 42
0.0
  0
SEQEND
  0
POLYLINE
  8
Default
 66
     1
 10
0.0
 20
0.0
 30
0.0
 70
     1
  0
VERTEX
  8
Default
 10
-21.0000000000002
 20
-269.460033520582
 42
-0.0082176651408
  0
VERTEX
  8
Default
 10
-28.489294421716
 20
-268.618490318391
 42
0.0
  0
VERTEX
  8
Default
 10
-30.2384153518991
 20
-280.921973898116
 42
0.0139124934871
  0
VERTEX
  8
Default
 10
-21.0000000000002
 20
-282.279224036272
 42
0.0
  0
SEQEND
  0
POLYLINE
  8
Default
 66
     1
 10
0.0
 20
0.0
 30
0.0
 70
     1
  0
VERTEX
  8
Default
 10
-21.0000000000002
 20
-161.874485293168
 42
0.0
  0
VERTEX
  8
Default
 10
-25.59368612339
 20
-182.729728132224
 42
-0.1036138584245
  0
VERTEX
  8
Default
 10
-21.0000000000002
 20
-193.894074487301
 42
0.0
  0
SEQEND
  0
ENDSEC
  0
EOF
