  0
SECTION
  2
HEADER
  9
$ACADVER
  1
AC1009
  9
$EXTMAX
 10
825.0
 20
1000.0
 30
0.0
  9
$EXTMIN
 10
-165.0
 20
-1000.0
 30
0.0
  9
$INSUNITS
 70
     4
  9
$LUNITS
 70
     2
  9
$LUPREC
 70
     4
  9
$MEASUREMENT
 70
     1
  0
ENDSEC
  0
SECTION
  2
TABLES
  0
TABLE
  2
LAYER
 70
     1
  0
LAYER
  2
0
 70
     0
 62
     7
  6
Continuous
  0
LAYER
  2
Default
 70
     0
 62
    70
  6
Continuous
  0
ENDTAB
  0
TABLE
  2
APPID
 70
     1
  0
APPID
  2
ACAD
 70
     0
  0
ENDTAB
  0
ENDSEC
  0
SECTION
  2
ENTITIES
  0
POLYLINE
  8
Default
 66
     1
 10
0.0
 20
0.0
 30
0.0
 70
     1
  0
VERTEX
  8
Default
 10
-113.231100417521
 20
-529.19710423162
 42
0.0
  0
VERTEX
  8
Default
 10
-112.247017211317
 20
-293.11203010187
 42
0.0
  0
VERTEX
  8
Default
 10
-124.282411003216
 20
-278.818100095548
 42
0.0
  0
VERTEX
  8
Default
 10
-124.282411003216
 20
-542.098476669985
 42
0.0
  0
SEQEND
  0
POLYLINE
  8
Default
 66
     1
 10
0.0
 20
0.0
 30
0.0
 70
     1
  0
VERTEX
  8
Default
 10
-112.242570691922
 20
-816.12469875552
 42
0.0
  0
VERTEX
  8
Default
 10
-111.258487485719
 20
-580.039624625779
 42
0.0
  0
VERTEX
  8
Default
 10
-123.293881277617
 20
-565.745694619458
 42
0.0
  0
VERTEX
  8
Default
 10
-123.293881277617
 20
-829.026071193897
 42
0.0
  0
SEQEND
  0
POLYLINE
  8
Default
 66
     1
 10
0.0
 20
0.0
 30
0.0
 70
     1
  0
VERTEX
  8
Default
 10
-122.305351552023
 20
-976.205409070959
 42
0.0
  0
VERTEX
  8
Default
 10
-110.725299837864
 20
-976.205409070959
 42
0.0
  0
VERTEX
  8
Default
 10
-110.269957760125
 20
-866.967219149693
 42
0.0
  0
VERTEX
  8
Default
 10
-122.305351552023
 20
-852.673289143371
 42
0.0
  0
SEQEND
  0
POLYLINE
  8
Default
 66
     1
 10
0.0
 20
0.0
 30
0.0
 70
     1
  0
VERTEX
  8
Default
 10
-114.219630143115
 20
-242.269509707695
 42
0.0
  0
VERTEX
  8
Default
 10
-113.235546936912
 20
-6.1844355779564
 42
0.0
  0
VERTEX
  8
Default
 10
-125.27094072881
 20
8.1094944283658
 42
0.0
  0
VERTEX
  8
Default
 10
-125.27094072881
 20
-255.170882146074
 42
0.0
  0
SEQEND
  0
POLYLINE
  8
Default
 66
     1
 10
0.0
 20
0.0
 30
0.0
 70
     1
  0
VERTEX
  8
Default
 10
116.196689594316
 20
-529.197104231619
 42
0.0
  0
VERTEX
  8
Default
 10
115.212606388116
 20
-293.11203010187
 42
0.0
  0
VERTEX
  8
Default
 10
127.248000180016
 20
-278.818100095548
 42
0.0
  0
VERTEX
  8
Default
 10
127.248000180016
 20
-542.098476669986
 42
0.0
  0
SEQEND
  0
POLYLINE
  8
Default
 66
     1
 10
0.0
 20
0.0
 30
0.0
 70
     1
  0
VERTEX
  8
Default
 10
117.186314913876
 20
-578.593970152644
 42
0.0
  0
VERTEX
  8
Default
 10
128.236529905606
 20
-565.693876717854
 42
0.0
  0
VERTEX
  8
Default
 10
128.236529905606
 20
-828.974253292293
 42
0.0
  0
VERTEX
  8
Default
 10
116.201138558898
 20
-814.680326190005
 42
0.0
  0
SEQEND
  0
POLYLINE
  8
Default
 66
     1
 10
0.0
 20
0.0
 30
0.0
 70
     1
  0
VERTEX
  8
Default
 10
117.645007917047
 20
-976.205409070959
 42
0.0
  0
VERTEX
  8
Default
 10
117.189665839309
 20
-866.967219149692
 42
0.0
  0
VERTEX
  8
Default
 10
129.225059631209
 20
-852.673289143371
 42
0.0
  0
VERTEX
  8
Default
 10
129.225059631209
 20
-976.20540907096
 42
0.0
  0
SEQEND
  0
POLYLINE
  8
Default
 66
     1
 10
0.0
 20
0.0
 30
0.0
 70
     1
  0
VERTEX
  8
Default
 10
115.209255462683
 20
-4.7387811048193
 42
0.0
  0
VERTEX
  8
Default
 10
126.259470454413
 20
8.1613123299746
 42
0.0
  0
VERTEX
  8
Default
 10
126.259470454413
 20
-255.119064244465
 42
0.0
  0
VERTEX
  8
Default
 10
114.224079107705
 20
-240.825137142176
 42
0.0
  0
SEQEND
  0
POLYLINE
  8
Default
 66
     1
 10
0.0
 20
0.0
 30
0.0
 70
     1
  0
VERTEX
  8
Default
 10
-15.3566171035076
 20
-98.8517765468907
 42
0.0
  0
VERTEX
  8
Default
 10
-5.5079622273414
 20
-87.270046994611
 42
0.0
  0
VERTEX
  8
Default
 10
-2.8449039588912
 20
-90.4328490723891
 42
0.4652758708142
  0
VERTEX
  8
Default
 10
-0.8254270304235
 20
-90.4328490723891
 42
0.0
  0
VERTEX
  8
Default
 10
90.552095832352
 20
18.0923839641335
 42
0.364930686321
  0
VERTEX
  8
Default
 10
90.552095832352
 20
19.7927700774688
 42
0.0
  0
VERTEX
  8
Default
 10
45.3633583126333
 20
73.4615292680371
 42
0.0
  0
VERTEX
  8
Default
 10
55.247763161268
 20
85.000800084618
 42
0.0
  0
VERTEX
  8
Default
 10
108.70202365773
 20
21.5154275835066
 42
-0.0322049880133
  0
VERTEX
  8
Default
 10
108.972986174343
 20
21.1465695125265
 42
-0.322447991445
  0
VERTEX
  8
Default
 10
108.695607395626
 20
16.3621061339936
 42
0.0
  0
VERTEX
  8
Default
 10
2.9639041768397
 20
-109.210981991819
 42
0.1767641128661
  0
VERTEX
  8
Default
 10
2.6536426411644
 20
-110.061175048487
 42
0.0
  0
VERTEX
  8
Default
 10
2.6536426411637
 20
-114.602038134598
 42
0.0
  0
VERTEX
  8
Default
 10
-8.289633887532
 20
-114.602038134598
 42
0.0
  0
VERTEX
  8
Default
 10
-8.289633887534
 20
-107.726643198817
 42
0.1767639079556
  0
VERTEX
  8
Default
 10
-8.5998954232093
 20
-106.87645014215
 42
0.0
  0
SEQEND
  0
POLYLINE
  8
Default
 66
     1
 10
0.0
 20
0.0
 30
0.0
 70
     1
  0
VERTEX
  8
Default
 10
-14.3680873779051
 20
-385.779371070789
 42
0.0
  0
VERTEX
  8
Default
 10
-4.519432501739
 20
-374.19764151851
 42
0.0
  0
VERTEX
  8
Default
 10
-1.8563742332887
 20
-377.360443596292
 42
0.4652758708142
  0
VERTEX
  8
Default
 10
0.163102695179
 20
-377.360443596292
 42
0.0
  0
VERTEX
  8
Default
 10
91.5406255579544
 20
-268.835210559767
 42
0.364930686321
  0
VERTEX
  8
Default
 10
91.5406255579544
 20
-267.134824446432
 42
0.0
  0
VERTEX
  8
Default
 10
46.3518880382358
 20
-213.466065255864
 42
0.0
  0
VERTEX
  8
Default
 10
56.2362928868705
 20
-201.926794439283
 42
0.0
  0
VERTEX
  8
Default
 10
109.690553383333
 20
-265.412166940394
 42
-0.0322049880133
  0
VERTEX
  8
Default
 10
109.961515899945
 20
-265.781025011374
 42
-0.322447991445
  0
VERTEX
  8
Default
 10
109.684137121228
 20
-270.565488389907
 42
0.0
  0
VERTEX
  8
Default
 10
3.9524339024422
 20
-396.138576515722
 42
0.1767641128661
  0
VERTEX
  8
Default
 10
3.6421723667669
 20
-396.988769572389
 42
0.0
  0
VERTEX
  8
Default
 10
3.6421723667662
 20
-401.5296326585
 42
0.0
  0
VERTEX
  8
Default
 10
-7.3011041619295
 20
-401.5296326585
 42
0.0
  0
VERTEX
  8
Default
 10
-7.3011041619315
 20
-394.65423772272
 42
0.1767639079556
  0
VERTEX
  8
Default
 10
-7.6113656976068
 20
-393.804044666052
 42
0.0
  0
SEQEND
  0
POLYLINE
  8
Default
 66
     1
 10
0.0
 20
0.0
 30
0.0
 70
     1
  0
VERTEX
  8
Default
 10
3.2735848390841
 20
-162.303779969074
 42
0.0
  0
VERTEX
  8
Default
 10
0.163100394353
 20
-158.609588677331
 42
0.4652751815125
  0
VERTEX
  8
Default
 10
-1.8563746071134
 20
-158.60959096594
 42
0.0
  0
VERTEX
  8
Default
 10
-93.2338974698914
 20
-267.134824002456
 42
0.3649306863211
  0
VERTEX
  8
Default
 10
-93.2338974698914
 20
-268.835210115792
 42
0.0
  0
VERTEX
  8
Default
 10
-47.6235007684663
 20
-323.004756146752
 42
0.0
  0
VERTEX
  8
Default
 10
-56.777182367517
 20
-333.769217489026
 42
0.0
  0
VERTEX
  8
Default
 10
-108.758091318239
 20
-269.618618343377
 42
-0.2753005396167
  0
VERTEX
  8
Default
 10
-109.004639168676
 20
-264.073009578757
 42
0.0
  0
VERTEX
  8
Default
 10
-7.6064836162311
 20
-142.228588563023
 42
0.1752785073526
  0
VERTEX
  8
Default
 10
-7.3011041619315
 20
-141.384227770364
 42
0.0
  0
VERTEX
  8
Default
 10
-7.3011041619322
 20
-136.373699979651
 42
0.0
  0
VERTEX
  8
Default
 10
3.6421723667675
 20
-136.373699979651
 42
0.0
  0
VERTEX
  8
Default
 10
3.6421723667669
 20
-138.981265433811
 42
0.1767638395387
  0
VERTEX
  8
Default
 10
3.9524339024422
 20
-139.831458490479
 42
0.0
  0
VERTEX
  8
Default
 10
13.1579896877188
 20
-150.7645091525
 42
0.0
  0
SEQEND
  0
POLYLINE
  8
Default
 66
     1
 10
0.0
 20
0.0
 30
0.0
 70
     1
  0
VERTEX
  8
Default
 10
-13.3795576523119
 20
-672.706965594711
 42
0.0
  0
VERTEX
  8
Default
 10
-3.5309027761457
 20
-661.125236042432
 42
0.0
  0
VERTEX
  8
Default
 10
-0.8678445076955
 20
-664.288038120214
 42
0.4652758708142
  0
VERTEX
  8
Default
 10
1.1516324207722
 20
-664.288038120214
 42
0.0
  0
VERTEX
  8
Default
 10
92.5291552835476
 20
-555.762805083691
 42
0.364930686321
  0
VERTEX
  8
Default
 10
92.5291552835476
 20
-554.062418970356
 42
0.0
  0
VERTEX
  8
Default
 10
47.340417763829
 20
-500.393659779783
 42
0.0
  0
VERTEX
  8
Default
 10
57.2248226124637
 20
-488.854388963208
 42
0.0
  0
VERTEX
  8
Default
 10
110.679083108926
 20
-552.339761464318
 42
-0.0322049880133
  0
VERTEX
  8
Default
 10
110.950045625538
 20
-552.708619535299
 42
-0.322447991445
  0
VERTEX
  8
Default
 10
110.672666846821
 20
-557.493082913831
 42
0.0
  0
VERTEX
  8
Default
 10
4.9409636280354
 20
-683.066171039644
 42
0.1767641128661
  0
VERTEX
  8
Default
 10
4.6307020923601
 20
-683.916364096312
 42
0.0
  0
VERTEX
  8
Default
 10
4.6307020923594
 20
-688.457227182423
 42
0.0
  0
VERTEX
  8
Default
 10
-6.3125744363363
 20
-688.457227182423
 42
0.0
  0
VERTEX
  8
Default
 10
-6.3125744363383
 20
-681.581832246642
 42
0.1767639079556
  0
VERTEX
  8
Default
 10
-6.6228359720136
 20
-680.731639189974
 42
0.0
  0
SEQEND
  0
POLYLINE
  8
Default
 66
     1
 10
0.0
 20
0.0
 30
0.0
 70
     1
  0
VERTEX
  8
Default
 10
4.2621145646773
 20
-449.231374492996
 42
0.0
  0
VERTEX
  8
Default
 10
1.1516301199462
 20
-445.537183201253
 42
0.4652751815125
  0
VERTEX
  8
Default
 10
-0.8678448815201
 20
-445.537185489865
 42
0.0
  0
VERTEX
  8
Default
 10
-92.2453677442982
 20
-554.062418526381
 42
0.3649306863211
  0
VERTEX
  8
Default
 10
-92.2453677442982
 20
-555.762804639716
 42
0.0
  0
VERTEX
  8
Default
 10
-46.6349710428731
 20
-609.932350670675
 42
0.0
  0
VERTEX
  8
Default
 10
-55.7886526419237
 20
-620.696812012951
 42
0.0
  0
VERTEX
  8
Default
 10
-107.769561592646
 20
-556.546212867301
 42
-0.2753005396167
  0
VERTEX
  8
Default
 10
-108.016109443083
 20
-551.000604102681
 42
0.0
  0
VERTEX
  8
Default
 10
-6.6179538906379
 20
-429.156183086947
 42
0.1752785073526
  0
VERTEX
  8
Default
 10
-6.3125744363383
 20
-428.311822294288
 42
0.0
  0
VERTEX
  8
Default
 10
-6.312574436339
 20
-423.301294503575
 42
0.0
  0
VERTEX
  8
Default
 10
4.6307020923607
 20
-423.301294503575
 42
0.0
  0
VERTEX
  8
Default
 10
4.6307020923601
 20
-425.908859957736
 42
0.1767638395387
  0
VERTEX
  8
Default
 10
4.9409636280354
 20
-426.759053014403
 42
0.0
  0
VERTEX
  8
Default
 10
14.146519413312
 20
-437.69210367642
 42
0.0
  0
SEQEND
  0
POLYLINE
  8
Default
 66
     1
 10
0.0
 20
0.0
 30
0.0
 70
     1
  0
VERTEX
  8
Default
 10
-12.3910279267115
 20
-959.634560118611
 42
0.0
  0
VERTEX
  8
Default
 10
-2.5423730505453
 20
-948.052830566331
 42
0.0
  0
VERTEX
  8
Default
 10
0.120685217905
 20
-951.215632644113
 42
0.4652758708142
  0
VERTEX
  8
Default
 10
2.1401621463727
 20
-951.215632644113
 42
0.0
  0
VERTEX
  8
Default
 10
93.5176850091482
 20
-842.690399607591
 42
0.364930686321
  0
VERTEX
  8
Default
 10
93.5176850091482
 20
-840.990013494255
 42
0.0
  0
VERTEX
  8
Default
 10
48.3289474894294
 20
-787.321254303683
 42
0.0
  0
VERTEX
  8
Default
 10
58.2133523380641
 20
-775.781983487107
 42
0.0
  0
VERTEX
  8
Default
 10
111.667612834526
 20
-839.267355988218
 42
-0.0322049880133
  0
VERTEX
  8
Default
 10
111.938575351139
 20
-839.636214059198
 42
-0.322447991445
  0
VERTEX
  8
Default
 10
111.661196572422
 20
-844.420677437731
 42
0.0
  0
VERTEX
  8
Default
 10
5.9294933536358
 20
-969.993765563543
 42
0.1767641128661
  0
VERTEX
  8
Default
 10
5.6192318179606
 20
-970.843958620211
 42
0.0
  0
VERTEX
  8
Default
 10
5.6192318179599
 20
-975.384821706322
 42
0.0
  0
VERTEX
  8
Default
 10
-5.3240447107359
 20
-975.384821706322
 42
0.0
  0
VERTEX
  8
Default
 10
-5.3240447107378
 20
-968.509426770541
 42
0.1767639079556
  0
VERTEX
  8
Default
 10
-5.6343062464131
 20
-967.659233713874
 42
0.0
  0
SEQEND
  0
POLYLINE
  8
Default
 66
     1
 10
0.0
 20
0.0
 30
0.0
 70
     1
  0
VERTEX
  8
Default
 10
5.2506442902778
 20
-736.158969016895
 42
0.0
  0
VERTEX
  8
Default
 10
2.1401598455467
 20
-732.464777725152
 42
0.4652751815125
  0
VERTEX
  8
Default
 10
0.1206848440804
 20
-732.464780013764
 42
0.0
  0
VERTEX
  8
Default
 10
-91.2568380186977
 20
-840.99001305028
 42
0.3649306863211
  0
VERTEX
  8
Default
 10
-91.2568380186977
 20
-842.690399163615
 42
0.0
  0
VERTEX
  8
Default
 10
-45.6464413172727
 20
-896.859945194574
 42
0.0
  0
VERTEX
  8
Default
 10
-54.8001229163233
 20
-907.62440653685
 42
0.0
  0
VERTEX
  8
Default
 10
-106.781031867045
 20
-843.473807391201
 42
-0.2753005396167
  0
VERTEX
  8
Default
 10
-107.027579717482
 20
-837.928198626581
 42
0.0
  0
VERTEX
  8
Default
 10
-5.6294241650374
 20
-716.083777610846
 42
0.1752785073526
  0
VERTEX
  8
Default
 10
-5.3240447107378
 20
-715.239416818187
 42
0.0
  0
VERTEX
  8
Default
 10
-5.3240447107385
 20
-710.228889027474
 42
0.0
  0
VERTEX
  8
Default
 10
5.6192318179612
 20
-710.228889027474
 42
0.0
  0
VERTEX
  8
Default
 10
5.6192318179606
 20
-712.836454481635
 42
0.1767638395387
  0
VERTEX
  8
Default
 10
5.9294933536358
 20
-713.686647538303
 42
0.0
  0
VERTEX
  8
Default
 10
15.1350491389125
 20
-724.619698200319
 42
0.0
  0
SEQEND
  0
POLYLINE
  8
Default
 66
     1
 10
0.0
 20
0.0
 30
0.0
 70
     1
  0
VERTEX
  8
Default
 10
-116.196689594317
 20
331.585679340105
 42
0.0
  0
VERTEX
  8
Default
 10
-115.212606388113
 20
567.670753469854
 42
0.0
  0
VERTEX
  8
Default
 10
-127.248000180012
 20
581.964683476176
 42
0.0
  0
VERTEX
  8
Default
 10
-127.248000180012
 20
318.684306901739
 42
0.0
  0
SEQEND
  0
POLYLINE
  8
Default
 66
     1
 10
0.0
 20
0.0
 30
0.0
 70
     1
  0
VERTEX
  8
Default
 10
-115.208159868718
 20
44.6580848162041
 42
0.0
  0
VERTEX
  8
Default
 10
-114.224076662515
 20
280.743158945945
 42
0.0
  0
VERTEX
  8
Default
 10
-126.259470454413
 20
295.037088952266
 42
0.0
  0
VERTEX
  8
Default
 10
-126.259470454413
 20
31.7567123778276
 42
0.0
  0
SEQEND
  0
POLYLINE
  8
Default
 66
     1
 10
0.0
 20
0.0
 30
0.0
 70
     1
  0
VERTEX
  8
Default
 10
-117.185219319911
 20
618.513273864029
 42
0.0
  0
VERTEX
  8
Default
 10
-116.201136113708
 20
854.598347993768
 42
0.0
  0
VERTEX
  8
Default
 10
-128.236529905606
 20
868.89227800009
 42
0.0
  0
VERTEX
  8
Default
 10
-128.236529905606
 20
605.61190142565
 42
0.0
  0
SEQEND
  0
POLYLINE
  8
Default
 66
     1
 10
0.0
 20
0.0
 30
0.0
 70
     1
  0
VERTEX
  8
Default
 10
113.23110041752
 20
331.585679340105
 42
0.0
  0
VERTEX
  8
Default
 10
112.24701721132
 20
567.670753469854
 42
0.0
  0
VERTEX
  8
Default
 10
124.28241100322
 20
581.964683476176
 42
0.0
  0
VERTEX
  8
Default
 10
124.28241100322
 20
318.684306901738
 42
0.0
  0
SEQEND
  0
POLYLINE
  8
Default
 66
     1
 10
0.0
 20
0.0
 30
0.0
 70
     1
  0
VERTEX
  8
Default
 10
114.22072573708
 20
282.188813419081
 42
0.0
  0
VERTEX
  8
Default
 10
125.27094072881
 20
295.088906853871
 42
0.0
  0
VERTEX
  8
Default
 10
125.27094072881
 20
31.8085302794311
 42
0.0
  0
VERTEX
  8
Default
 10
113.235549382102
 20
46.1024573817192
 42
0.0
  0
SEQEND
  0
POLYLINE
  8
Default
 66
     1
 10
0.0
 20
0.0
 30
0.0
 70
     1
  0
VERTEX
  8
Default
 10
112.243666285887
 20
856.044002466905
 42
0.0
  0
VERTEX
  8
Default
 10
123.293881277617
 20
868.944095901699
 42
0.0
  0
VERTEX
  8
Default
 10
123.293881277617
 20
605.663719327259
 42
0.0
  0
VERTEX
  8
Default
 10
111.258489930909
 20
619.957646429548
 42
0.0
  0
SEQEND
  0
POLYLINE
  8
Default
 66
     1
 10
0.0
 20
0.0
 30
0.0
 70
     1
  0
VERTEX
  8
Default
 10
-18.3222062803038
 20
761.931007024833
 42
0.0
  0
VERTEX
  8
Default
 10
-8.4735514041376
 20
773.512736577113
 42
0.0
  0
VERTEX
  8
Default
 10
-5.8104931356873
 20
770.349934499335
 42
0.4652758708142
  0
VERTEX
  8
Default
 10
-3.7910162072196
 20
770.349934499335
 42
0.0
  0
VERTEX
  8
Default
 10
87.5865066555558
 20
878.875167535858
 42
0.364930686321
  0
VERTEX
  8
Default
 10
87.5865066555558
 20
880.575553649193
 42
0.0
  0
VERTEX
  8
Default
 10
42.3977691358371
 20
934.244312839761
 42
0.0
  0
VERTEX
  8
Default
 10
52.2821739844718
 20
945.783583656342
 42
0.0
  0
VERTEX
  8
Default
 10
105.736434480934
 20
882.298211155231
 42
-0.0322049880133
  0
VERTEX
  8
Default
 10
106.007396997547
 20
881.929353084251
 42
-0.322447991445
  0
VERTEX
  8
Default
 10
105.73001821883
 20
877.144889705718
 42
0.0
  0
VERTEX
  8
Default
 10
-0.0016849999564
 20
751.571801579905
 42
0.1767641128661
  0
VERTEX
  8
Default
 10
-0.3119465356317
 20
750.721608523237
 42
0.0
  0
VERTEX
  8
Default
 10
-0.3119465356324
 20
746.180745437126
 42
0.0
  0
VERTEX
  8
Default
 10
-11.2552230643281
 20
746.180745437126
 42
0.0
  0
VERTEX
  8
Default
 10
-11.2552230643301
 20
753.056140372907
 42
0.1767639079556
  0
VERTEX
  8
Default
 10
-11.5654846000054
 20
753.906333429575
 42
0.0
  0
SEQEND
  0
POLYLINE
  8
Default
 66
     1
 10
0.0
 20
0.0
 30
0.0
 70
     1
  0
VERTEX
  8
Default
 10
-17.3336765547013
 20
475.003412500936
 42
0.0
  0
VERTEX
  8
Default
 10
-7.4850216785351
 20
486.585142053215
 42
0.0
  0
VERTEX
  8
Default
 10
-4.8219634100848
 20
483.422339975432
 42
0.4652758708142
  0
VERTEX
  8
Default
 10
-2.8024864816171
 20
483.422339975432
 42
0.0
  0
VERTEX
  8
Default
 10
88.5750363811583
 20
591.947573011957
 42
0.364930686321
  0
VERTEX
  8
Default
 10
88.5750363811583
 20
593.647959125292
 42
0.0
  0
VERTEX
  8
Default
 10
43.3862988614396
 20
647.316718315861
 42
0.0
  0
VERTEX
  8
Default
 10
53.2707037100743
 20
658.855989132442
 42
0.0
  0
VERTEX
  8
Default
 10
106.724964206537
 20
595.37061663133
 42
-0.0322049880133
  0
VERTEX
  8
Default
 10
106.995926723149
 20
595.00175856035
 42
-0.322447991445
  0
VERTEX
  8
Default
 10
106.718547944432
 20
590.217295181817
 42
0.0
  0
VERTEX
  8
Default
 10
0.986844725646
 20
464.644207056002
 42
0.1767641128661
  0
VERTEX
  8
Default
 10
0.6765831899707
 20
463.794013999335
 42
0.0
  0
VERTEX
  8
Default
 10
0.67658318997
 20
459.253150913224
 42
0.0
  0
VERTEX
  8
Default
 10
-10.2666933387257
 20
459.253150913224
 42
0.0
  0
VERTEX
  8
Default
 10
-10.2666933387277
 20
466.128545849004
 42
0.1767639079556
  0
VERTEX
  8
Default
 10
-10.576954874403
 20
466.978738905672
 42
0.0
  0
SEQEND
  0
POLYLINE
  8
Default
 66
     1
 10
0.0
 20
0.0
 30
0.0
 70
     1
  0
VERTEX
  8
Default
 10
0.3079956622879
 20
698.47900360265
 42
0.0
  0
VERTEX
  8
Default
 10
-2.8024887824432
 20
702.173194894393
 42
0.4652751815125
  0
VERTEX
  8
Default
 10
-4.8219637839095
 20
702.173192605784
 42
0.0
  0
VERTEX
  8
Default
 10
-96.1994866466876
 20
593.647959569268
 42
0.3649306863211
  0
VERTEX
  8
Default
 10
-96.1994866466876
 20
591.947573455933
 42
0.0
  0
VERTEX
  8
Default
 10
-50.5890899452625
 20
537.778027424972
 42
0.0
  0
VERTEX
  8
Default
 10
-59.7427715443131
 20
527.013566082698
 42
0.0
  0
VERTEX
  8
Default
 10
-111.723680495035
 20
591.164165228347
 42
-0.2753005396167
  0
VERTEX
  8
Default
 10
-111.970228345472
 20
596.709773992967
 42
0.0
  0
VERTEX
  8
Default
 10
-10.5720727930273
 20
718.554195008702
 42
0.1752785073526
  0
VERTEX
  8
Default
 10
-10.2666933387277
 20
719.398555801361
 42
0.0
  0
VERTEX
  8
Default
 10
-10.2666933387283
 20
724.409083592073
 42
0.0
  0
VERTEX
  8
Default
 10
0.6765831899714
 20
724.409083592073
 42
0.0
  0
VERTEX
  8
Default
 10
0.6765831899707
 20
721.801518137913
 42
0.1767638395387
  0
VERTEX
  8
Default
 10
0.986844725646
 20
720.951325081245
 42
0.0
  0
VERTEX
  8
Default
 10
10.1924005109226
 20
710.018274419224
 42
0.0
  0
SEQEND
  0
POLYLINE
  8
Default
 66
     1
 10
0.0
 20
0.0
 30
0.0
 70
     1
  0
VERTEX
  8
Default
 10
-16.3451468291081
 20
188.075817977013
 42
0.0
  0
VERTEX
  8
Default
 10
-6.4964919529419
 20
199.657547529292
 42
0.0
  0
VERTEX
  8
Default
 10
-3.8334336844916
 20
196.49474545151
 42
0.4652758708142
  0
VERTEX
  8
Default
 10
-1.8139567560239
 20
196.49474545151
 42
0.0
  0
VERTEX
  8
Default
 10
89.5635661067515
 20
305.019978488033
 42
0.364930686321
  0
VERTEX
  8
Default
 10
89.5635661067515
 20
306.720364601368
 42
0.0
  0
VERTEX
  8
Default
 10
44.3748285870329
 20
360.389123791941
 42
0.0
  0
VERTEX
  8
Default
 10
54.2592334356675
 20
371.928394608517
 42
0.0
  0
VERTEX
  8
Default
 10
107.71349393213
 20
308.443022107406
 42
-0.0322049880133
  0
VERTEX
  8
Default
 10
107.984456448742
 20
308.074164036426
 42
-0.322447991445
  0
VERTEX
  8
Default
 10
107.707077670025
 20
303.289700657893
 42
0.0
  0
VERTEX
  8
Default
 10
1.9753744512392
 20
177.71661253208
 42
0.1767641128661
  0
VERTEX
  8
Default
 10
1.6651129155639
 20
176.866419475412
 42
0.0
  0
VERTEX
  8
Default
 10
1.6651129155633
 20
172.325556389302
 42
0.0
  0
VERTEX
  8
Default
 10
-9.2781636131325
 20
172.325556389302
 42
0.0
  0
VERTEX
  8
Default
 10
-9.2781636131345
 20
179.200951325082
 42
0.1767639079556
  0
VERTEX
  8
Default
 10
-9.5884251488097
 20
180.05114438175
 42
0.0
  0
SEQEND
  0
POLYLINE
  8
Default
 66
     1
 10
0.0
 20
0.0
 30
0.0
 70
     1
  0
VERTEX
  8
Default
 10
1.2965253878811
 20
411.551409078728
 42
0.0
  0
VERTEX
  8
Default
 10
-1.8139590568499
 20
415.245600370471
 42
0.4652751815125
  0
VERTEX
  8
Default
 10
-3.8334340583163
 20
415.24559808186
 42
0.0
  0
VERTEX
  8
Default
 10
-95.2109569210944
 20
306.720365045343
 42
0.3649306863211
  0
VERTEX
  8
Default
 10
-95.2109569210944
 20
305.019978932008
 42
0.0
  0
VERTEX
  8
Default
 10
-49.6005602196693
 20
250.850432901049
 42
0.0
  0
VERTEX
  8
Default
 10
-58.7542418187199
 20
240.085971558774
 42
0.0
  0
VERTEX
  8
Default
 10
-110.735150769442
 20
304.236570704423
 42
-0.2753005396167
  0
VERTEX
  8
Default
 10
-110.981698619879
 20
309.782179469043
 42
0.0
  0
VERTEX
  8
Default
 10
-9.583543067434
 20
431.626600484777
 42
0.1752785073526
  0
VERTEX
  8
Default
 10
-9.2781636131345
 20
432.470961277436
 42
0.0
  0
VERTEX
  8
Default
 10
-9.2781636131351
 20
437.481489068149
 42
0.0
  0
VERTEX
  8
Default
 10
1.6651129155646
 20
437.481489068149
 42
0.0
  0
VERTEX
  8
Default
 10
1.6651129155639
 20
434.873923613989
 42
0.1767638395387
  0
VERTEX
  8
Default
 10
1.9753744512392
 20
434.023730557321
 42
0.0
  0
VERTEX
  8
Default
 10
11.1809302365159
 20
423.090679895304
 42
0.0
  0
SEQEND
  0
POLYLINE
  8
Default
 66
     1
 10
0.0
 20
0.0
 30
0.0
 70
     1
  0
VERTEX
  8
Default
 10
2.2850551134816
 20
124.623814554829
 42
0.0
  0
VERTEX
  8
Default
 10
-0.8254293312495
 20
128.318005846572
 42
0.4652751815125
  0
VERTEX
  8
Default
 10
-2.8449043327158
 20
128.31800355796
 42
0.0
  0
VERTEX
  8
Default
 10
-94.2224271954939
 20
19.7927705214443
 42
0.3649306863211
  0
VERTEX
  8
Default
 10
-94.2224271954939
 20
18.092384408109
 42
0.0
  0
VERTEX
  8
Default
 10
-48.6120304940688
 20
-36.0771616228499
 42
0.0
  0
VERTEX
  8
Default
 10
-57.7657120931194
 20
-46.8416229651257
 42
0.0
  0
VERTEX
  8
Default
 10
-109.746621043841
 20
17.3089761805235
 42
-0.2753005396167
  0
VERTEX
  8
Default
 10
-109.993168894278
 20
22.8545849451434
 42
0.0
  0
VERTEX
  8
Default
 10
-8.5950133418336
 20
144.699005960878
 42
0.1752785073526
  0
VERTEX
  8
Default
 10
-8.289633887534
 20
145.543366753537
 42
0.0
  0
VERTEX
  8
Default
 10
-8.2896338875346
 20
150.55389454425
 42
0.0
  0
VERTEX
  8
Default
 10
2.6536426411651
 20
150.55389454425
 42
0.0
  0
VERTEX
  8
Default
 10
2.6536426411645
 20
147.946329090089
 42
0.1767638395387
  0
VERTEX
  8
Default
 10
2.9639041768397
 20
147.096136033422
 42
0.0
  0
VERTEX
  8
Default
 10
12.1694599621163
 20
136.163085371405
 42
0.0
  0
SEQEND
  0
POLYLINE
  8
Default
 66
     1
 10
0.0
 20
0.0
 30
0.0
 70
     1
  0
VERTEX
  8
Default
 10
-16.6683158833083
 20
976.205409070959
 42
0.0
  0
VERTEX
  8
Default
 10
-97.18801637229
 20
880.575554093168
 42
0.3649306863211
  0
VERTEX
  8
Default
 10
-97.18801637229
 20
878.875167979833
 42
0.0
  0
VERTEX
  8
Default
 10
-51.5776196708649
 20
824.705621948873
 42
0.0
  0
VERTEX
  8
Default
 10
-60.7313012699156
 20
813.941160606598
 42
0.0
  0
VERTEX
  8
Default
 10
-112.712210220638
 20
878.091759752248
 42
-0.2753005396167
  0
VERTEX
  8
Default
 10
-112.958758071075
 20
883.637368516868
 42
0.0
  0
VERTEX
  8
Default
 10
-35.9242209372263
 20
976.205409070959
 42
0.0
  0
SEQEND
  0
POLYLINE
  8
Default
 66
     1
 10
0.0
 20
0.0
 30
0.0
 70
     1
  0
VERTEX
  8
Default
 10
-117.878778275601
 20
976.20540907096
 42
0.0
  0
VERTEX
  8
Default
 10
-129.225059631209
 20
976.205409070959
 42
0.0
  0
VERTEX
  8
Default
 10
-129.225059631209
 20
892.53949594955
 42
0.0
  0
VERTEX
  8
Default
 10
-118.173749045513
 20
905.44086838793
 42
0.0
  0
SEQEND
  0
POLYLINE
  8
Default
 66
     1
 10
0.0
 20
0.0
 30
0.0
 70
     1
  0
VERTEX
  8
Default
 10
122.305351552015
 20
976.205409070959
 42
0.0
  0
VERTEX
  8
Default
 10
122.305351552015
 20
892.591313851159
 42
0.0
  0
VERTEX
  8
Default
 10
110.269960205306
 20
906.885240953449
 42
0.0
  0
VERTEX
  8
Default
 10
110.559229740822
 20
976.205409070959
 42
0.0
  0
SEQEND
  0
POLYLINE
  8
Default
 66
     1
 10
0.0
 20
0.0
 30
0.0
 70
     1
  0
VERTEX
  8
Default
 10
216.768899662479
 20
-529.19710423162
 42
0.0
  0
VERTEX
  8
Default
 10
217.752982868683
 20
-293.11203010187
 42
0.0
  0
VERTEX
  8
Default
 10
205.717589076784
 20
-278.818100095548
 42
0.0
  0
VERTEX
  8
Default
 10
205.717589076784
 20
-542.098476669985
 42
0.0
  0
SEQEND
  0
POLYLINE
  8
Default
 66
     1
 10
0.0
 20
0.0
 30
0.0
 70
     1
  0
VERTEX
  8
Default
 10
217.757429388078
 20
-816.12469875552
 42
0.0
  0
VERTEX
  8
Default
 10
218.741512594281
 20
-580.039624625779
 42
0.0
  0
VERTEX
  8
Default
 10
206.706118802383
 20
-565.745694619458
 42
0.0
  0
VERTEX
  8
Default
 10
206.706118802383
 20
-829.026071193897
 42
0.0
  0
SEQEND
  0
POLYLINE
  8
Default
 66
     1
 10
0.0
 20
0.0
 30
0.0
 70
     1
  0
VERTEX
  8
Default
 10
207.694648527977
 20
-976.205409070959
 42
0.0
  0
VERTEX
  8
Default
 10
219.274700242136
 20
-976.205409070959
 42
0.0
  0
VERTEX
  8
Default
 10
219.730042319875
 20
-866.967219149693
 42
0.0
  0
VERTEX
  8
Default
 10
207.694648527977
 20
-852.673289143371
 42
0.0
  0
SEQEND
  0
POLYLINE
  8
Default
 66
     1
 10
0.0
 20
0.0
 30
0.0
 70
     1
  0
VERTEX
  8
Default
 10
215.780369936885
 20
-242.269509707695
 42
0.0
  0
VERTEX
  8
Default
 10
216.764453143088
 20
-6.1844355779564
 42
0.0
  0
VERTEX
  8
Default
 10
204.72905935119
 20
8.1094944283658
 42
0.0
  0
VERTEX
  8
Default
 10
204.72905935119
 20
-255.170882146074
 42
0.0
  0
SEQEND
  0
POLYLINE
  8
Default
 66
     1
 10
0.0
 20
0.0
 30
0.0
 70
     1
  0
VERTEX
  8
Default
 10
446.196689674316
 20
-529.197104231619
 42
0.0
  0
VERTEX
  8
Default
 10
445.212606468117
 20
-293.11203010187
 42
0.0
  0
VERTEX
  8
Default
 10
457.248000260016
 20
-278.818100095548
 42
0.0
  0
VERTEX
  8
Default
 10
457.248000260016
 20
-542.098476669986
 42
0.0
  0
SEQEND
  0
POLYLINE
  8
Default
 66
     1
 10
0.0
 20
0.0
 30
0.0
 70
     1
  0
VERTEX
  8
Default
 10
447.186314993876
 20
-578.593970152644
 42
0.0
  0
VERTEX
  8
Default
 10
458.236529985606
 20
-565.693876717854
 42
0.0
  0
VERTEX
  8
Default
 10
458.236529985606
 20
-828.974253292293
 42
0.0
  0
VERTEX
  8
Default
 10
446.201138638898
 20
-814.680326190005
 42
0.0
  0
SEQEND
  0
POLYLINE
  8
Default
 66
     1
 10
0.0
 20
0.0
 30
0.0
 70
     1
  0
VERTEX
  8
Default
 10
447.645007997047
 20
-976.205409070959
 42
0.0
  0
VERTEX
  8
Default
 10
447.18966591931
 20
-866.967219149692
 42
0.0
  0
VERTEX
  8
Default
 10
459.225059711209
 20
-852.673289143371
 42
0.0
  0
VERTEX
  8
Default
 10
459.225059711209
 20
-976.20540907096
 42
0.0
  0
SEQEND
  0
POLYLINE
  8
Default
 66
     1
 10
0.0
 20
0.0
 30
0.0
 70
     1
  0
VERTEX
  8
Default
 10
445.209255542683
 20
-4.7387811048193
 42
0.0
  0
VERTEX
  8
Default
 10
456.259470534413
 20
8.1613123299746
 42
0.0
  0
VERTEX
  8
Default
 10
456.259470534413
 20
-255.119064244465
 42
0.0
  0
VERTEX
  8
Default
 10
444.224079187705
 20
-240.825137142176
 42
0.0
  0
SEQEND
  0
POLYLINE
  8
Default
 66
     1
 10
0.0
 20
0.0
 30
0.0
 70
     1
  0
VERTEX
  8
Default
 10
314.643382976492
 20
-98.8517765468907
 42
0.0
  0
VERTEX
  8
Default
 10
324.492037852659
 20
-87.270046994611
 42
0.0
  0
VERTEX
  8
Default
 10
327.155096121109
 20
-90.4328490723891
 42
0.4652758708142
  0
VERTEX
  8
Default
 10
329.174573049577
 20
-90.4328490723891
 42
0.0
  0
VERTEX
  8
Default
 10
420.552095912352
 20
18.0923839641335
 42
0.364930686321
  0
VERTEX
  8
Default
 10
420.552095912352
 20
19.7927700774688
 42
0.0
  0
VERTEX
  8
Default
 10
375.363358392633
 20
73.4615292680371
 42
0.0
  0
VERTEX
  8
Default
 10
385.247763241268
 20
85.000800084618
 42
0.0
  0
VERTEX
  8
Default
 10
438.70202373773
 20
21.5154275835066
 42
-0.0322049880133
  0
VERTEX
  8
Default
 10
438.972986254343
 20
21.1465695125265
 42
-0.322447991445
  0
VERTEX
  8
Default
 10
438.695607475626
 20
16.3621061339936
 42
0.0
  0
VERTEX
  8
Default
 10
332.96390425684
 20
-109.210981991819
 42
0.1767641128661
  0
VERTEX
  8
Default
 10
332.653642721164
 20
-110.061175048487
 42
0.0
  0
VERTEX
  8
Default
 10
332.653642721164
 20
-114.602038134598
 42
0.0
  0
VERTEX
  8
Default
 10
321.710366192468
 20
-114.602038134598
 42
0.0
  0
VERTEX
  8
Default
 10
321.710366192466
 20
-107.726643198817
 42
0.1767639079556
  0
VERTEX
  8
Default
 10
321.400104656791
 20
-106.87645014215
 42
0.0
  0
SEQEND
  0
POLYLINE
  8
Default
 66
     1
 10
0.0
 20
0.0
 30
0.0
 70
     1
  0
VERTEX
  8
Default
 10
315.631912702095
 20
-385.779371070789
 42
0.0
  0
VERTEX
  8
Default
 10
325.480567578261
 20
-374.19764151851
 42
0.0
  0
VERTEX
  8
Default
 10
328.143625846711
 20
-377.360443596292
 42
0.4652758708142
  0
VERTEX
  8
Default
 10
330.163102775179
 20
-377.360443596292
 42
0.0
  0
VERTEX
  8
Default
 10
421.540625637954
 20
-268.835210559767
 42
0.364930686321
  0
VERTEX
  8
Default
 10
421.540625637954
 20
-267.134824446432
 42
0.0
  0
VERTEX
  8
Default
 10
376.351888118236
 20
-213.466065255864
 42
0.0
  0
VERTEX
  8
Default
 10
386.236292966871
 20
-201.926794439283
 42
0.0
  0
VERTEX
  8
Default
 10
439.690553463333
 20
-265.412166940394
 42
-0.0322049880133
  0
VERTEX
  8
Default
 10
439.961515979945
 20
-265.781025011374
 42
-0.322447991445
  0
VERTEX
  8
Default
 10
439.684137201228
 20
-270.565488389907
 42
0.0
  0
VERTEX
  8
Default
 10
333.952433982442
 20
-396.138576515722
 42
0.1767641128661
  0
VERTEX
  8
Default
 10
333.642172446767
 20
-396.988769572389
 42
0.0
  0
VERTEX
  8
Default
 10
333.642172446766
 20
-401.5296326585
 42
0.0
  0
VERTEX
  8
Default
 10
322.698895918071
 20
-401.5296326585
 42
0.0
  0
VERTEX
  8
Default
 10
322.698895918069
 20
-394.65423772272
 42
0.1767639079556
  0
VERTEX
  8
Default
 10
322.388634382393
 20
-393.804044666052
 42
0.0
  0
SEQEND
  0
POLYLINE
  8
Default
 66
     1
 10
0.0
 20
0.0
 30
0.0
 70
     1
  0
VERTEX
  8
Default
 10
333.273584919084
 20
-162.303779969074
 42
0.0
  0
VERTEX
  8
Default
 10
330.163100474353
 20
-158.609588677331
 42
0.4652751815125
  0
VERTEX
  8
Default
 10
328.143625472887
 20
-158.60959096594
 42
0.0
  0
VERTEX
  8
Default
 10
236.766102610109
 20
-267.134824002456
 42
0.3649306863211
  0
VERTEX
  8
Default
 10
236.766102610109
 20
-268.835210115792
 42
0.0
  0
VERTEX
  8
Default
 10
282.376499311534
 20
-323.004756146752
 42
0.0
  0
VERTEX
  8
Default
 10
273.222817712483
 20
-333.769217489026
 42
0.0
  0
VERTEX
  8
Default
 10
221.241908761761
 20
-269.618618343377
 42
-0.2753005396167
  0
VERTEX
  8
Default
 10
220.995360911324
 20
-264.073009578757
 42
0.0
  0
VERTEX
  8
Default
 10
322.393516463769
 20
-142.228588563023
 42
0.1752785073526
  0
VERTEX
  8
Default
 10
322.698895918069
 20
-141.384227770364
 42
0.0
  0
VERTEX
  8
Default
 10
322.698895918068
 20
-136.373699979651
 42
0.0
  0
VERTEX
  8
Default
 10
333.642172446768
 20
-136.373699979651
 42
0.0
  0
VERTEX
  8
Default
 10
333.642172446767
 20
-138.981265433811
 42
0.1767638395387
  0
VERTEX
  8
Default
 10
333.952433982442
 20
-139.831458490479
 42
0.0
  0
VERTEX
  8
Default
 10
343.157989767719
 20
-150.7645091525
 42
0.0
  0
SEQEND
  0
POLYLINE
  8
Default
 66
     1
 10
0.0
 20
0.0
 30
0.0
 70
     1
  0
VERTEX
  8
Default
 10
316.620442427688
 20
-672.706965594711
 42
0.0
  0
VERTEX
  8
Default
 10
326.469097303854
 20
-661.125236042432
 42
0.0
  0
VERTEX
  8
Default
 10
329.132155572305
 20
-664.288038120214
 42
0.4652758708142
  0
VERTEX
  8
Default
 10
331.151632500772
 20
-664.288038120214
 42
0.0
  0
VERTEX
  8
Default
 10
422.529155363548
 20
-555.762805083691
 42
0.364930686321
  0
VERTEX
  8
Default
 10
422.529155363548
 20
-554.062418970356
 42
0.0
  0
VERTEX
  8
Default
 10
377.340417843829
 20
-500.393659779783
 42
0.0
  0
VERTEX
  8
Default
 10
387.224822692464
 20
-488.854388963208
 42
0.0
  0
VERTEX
  8
Default
 10
440.679083188926
 20
-552.339761464318
 42
-0.0322049880133
  0
VERTEX
  8
Default
 10
440.950045705539
 20
-552.708619535299
 42
-0.322447991445
  0
VERTEX
  8
Default
 10
440.672666926821
 20
-557.493082913831
 42
0.0
  0
VERTEX
  8
Default
 10
334.940963708035
 20
-683.066171039644
 42
0.1767641128661
  0
VERTEX
  8
Default
 10
334.63070217236
 20
-683.916364096312
 42
0.0
  0
VERTEX
  8
Default
 10
334.63070217236
 20
-688.457227182423
 42
0.0
  0
VERTEX
  8
Default
 10
323.687425643664
 20
-688.457227182423
 42
0.0
  0
VERTEX
  8
Default
 10
323.687425643662
 20
-681.581832246642
 42
0.1767639079556
  0
VERTEX
  8
Default
 10
323.377164107986
 20
-680.731639189974
 42
0.0
  0
SEQEND
  0
POLYLINE
  8
Default
 66
     1
 10
0.0
 20
0.0
 30
0.0
 70
     1
  0
VERTEX
  8
Default
 10
334.262114644677
 20
-449.231374492996
 42
0.0
  0
VERTEX
  8
Default
 10
331.151630199946
 20
-445.537183201253
 42
0.4652751815125
  0
VERTEX
  8
Default
 10
329.13215519848
 20
-445.537185489865
 42
0.0
  0
VERTEX
  8
Default
 10
237.754632335702
 20
-554.062418526381
 42
0.3649306863211
  0
VERTEX
  8
Default
 10
237.754632335702
 20
-555.762804639716
 42
0.0
  0
VERTEX
  8
Default
 10
283.365029037127
 20
-609.932350670675
 42
0.0
  0
VERTEX
  8
Default
 10
274.211347438076
 20
-620.696812012951
 42
0.0
  0
VERTEX
  8
Default
 10
222.230438487354
 20
-556.546212867301
 42
-0.2753005396167
  0
VERTEX
  8
Default
 10
221.983890636917
 20
-551.000604102681
 42
0.0
  0
VERTEX
  8
Default
 10
323.382046189362
 20
-429.156183086947
 42
0.1752785073526
  0
VERTEX
  8
Default
 10
323.687425643662
 20
-428.311822294288
 42
0.0
  0
VERTEX
  8
Default
 10
323.687425643661
 20
-423.301294503575
 42
0.0
  0
VERTEX
  8
Default
 10
334.630702172361
 20
-423.301294503575
 42
0.0
  0
VERTEX
  8
Default
 10
334.63070217236
 20
-425.908859957736
 42
0.1767638395387
  0
VERTEX
  8
Default
 10
334.940963708035
 20
-426.759053014403
 42
0.0
  0
VERTEX
  8
Default
 10
344.146519493312
 20
-437.69210367642
 42
0.0
  0
SEQEND
  0
POLYLINE
  8
Default
 66
     1
 10
0.0
 20
0.0
 30
0.0
 70
     1
  0
VERTEX
  8
Default
 10
317.608972153289
 20
-959.634560118611
 42
0.0
  0
VERTEX
  8
Default
 10
327.457627029455
 20
-948.052830566331
 42
0.0
  0
VERTEX
  8
Default
 10
330.120685297905
 20
-951.215632644113
 42
0.4652758708142
  0
VERTEX
  8
Default
 10
332.140162226373
 20
-951.215632644113
 42
0.0
  0
VERTEX
  8
Default
 10
423.517685089148
 20
-842.690399607591
 42
0.364930686321
  0
VERTEX
  8
Default
 10
423.517685089148
 20
-840.990013494255
 42
0.0
  0
VERTEX
  8
Default
 10
378.328947569429
 20
-787.321254303683
 42
0.0
  0
VERTEX
  8
Default
 10
388.213352418064
 20
-775.781983487107
 42
0.0
  0
VERTEX
  8
Default
 10
441.667612914527
 20
-839.267355988218
 42
-0.0322049880133
  0
VERTEX
  8
Default
 10
441.938575431139
 20
-839.636214059198
 42
-0.322447991445
  0
VERTEX
  8
Default
 10
441.661196652422
 20
-844.420677437731
 42
0.0
  0
VERTEX
  8
Default
 10
335.929493433636
 20
-969.993765563543
 42
0.1767641128661
  0
VERTEX
  8
Default
 10
335.619231897961
 20
-970.843958620211
 42
0.0
  0
VERTEX
  8
Default
 10
335.61923189796
 20
-975.384821706322
 42
0.0
  0
VERTEX
  8
Default
 10
324.675955369264
 20
-975.384821706322
 42
0.0
  0
VERTEX
  8
Default
 10
324.675955369262
 20
-968.509426770541
 42
0.1767639079556
  0
VERTEX
  8
Default
 10
324.365693833587
 20
-967.659233713874
 42
0.0
  0
SEQEND
  0
POLYLINE
  8
Default
 66
     1
 10
0.0
 20
0.0
 30
0.0
 70
     1
  0
VERTEX
  8
Default
 10
335.250644370278
 20
-736.158969016895
 42
0.0
  0
VERTEX
  8
Default
 10
332.140159925547
 20
-732.464777725152
 42
0.4652751815125
  0
VERTEX
  8
Default
 10
330.12068492408
 20
-732.464780013764
 42
0.0
  0
VERTEX
  8
Default
 10
238.743162061302
 20
-840.99001305028
 42
0.3649306863211
  0
VERTEX
  8
Default
 10
238.743162061302
 20
-842.690399163615
 42
0.0
  0
VERTEX
  8
Default
 10
284.353558762727
 20
-896.859945194574
 42
0.0
  0
VERTEX
  8
Default
 10
275.199877163677
 20
-907.62440653685
 42
0.0
  0
VERTEX
  8
Default
 10
223.218968212955
 20
-843.473807391201
 42
-0.2753005396167
  0
VERTEX
  8
Default
 10
222.972420362518
 20
-837.928198626581
 42
0.0
  0
VERTEX
  8
Default
 10
324.370575914963
 20
-716.083777610846
 42
0.1752785073526
  0
VERTEX
  8
Default
 10
324.675955369262
 20
-715.239416818187
 42
0.0
  0
VERTEX
  8
Default
 10
324.675955369262
 20
-710.228889027474
 42
0.0
  0
VERTEX
  8
Default
 10
335.619231897961
 20
-710.228889027474
 42
0.0
  0
VERTEX
  8
Default
 10
335.619231897961
 20
-712.836454481635
 42
0.1767638395387
  0
VERTEX
  8
Default
 10
335.929493433636
 20
-713.686647538303
 42
0.0
  0
VERTEX
  8
Default
 10
345.135049218913
 20
-724.619698200319
 42
0.0
  0
SEQEND
  0
POLYLINE
  8
Default
 66
     1
 10
0.0
 20
0.0
 30
0.0
 70
     1
  0
VERTEX
  8
Default
 10
213.803310485683
 20
331.585679340105
 42
0.0
  0
VERTEX
  8
Default
 10
214.787393691887
 20
567.670753469854
 42
0.0
  0
VERTEX
  8
Default
 10
202.751999899988
 20
581.964683476176
 42
0.0
  0
VERTEX
  8
Default
 10
202.751999899988
 20
318.684306901739
 42
0.0
  0
SEQEND
  0
POLYLINE
  8
Default
 66
     1
 10
0.0
 20
0.0
 30
0.0
 70
     1
  0
VERTEX
  8
Default
 10
214.791840211282
 20
44.6580848162041
 42
0.0
  0
VERTEX
  8
Default
 10
215.775923417485
 20
280.743158945945
 42
0.0
  0
VERTEX
  8
Default
 10
203.740529625587
 20
295.037088952266
 42
0.0
  0
VERTEX
  8
Default
 10
203.740529625587
 20
31.7567123778276
 42
0.0
  0
SEQEND
  0
POLYLINE
  8
Default
 66
     1
 10
0.0
 20
0.0
 30
0.0
 70
     1
  0
VERTEX
  8
Default
 10
212.814780760089
 20
618.513273864029
 42
0.0
  0
VERTEX
  8
Default
 10
213.798863966292
 20
854.598347993768
 42
0.0
  0
VERTEX
  8
Default
 10
201.763470174394
 20
868.89227800009
 42
0.0
  0
VERTEX
  8
Default
 10
201.763470174394
 20
605.61190142565
 42
0.0
  0
SEQEND
  0
POLYLINE
  8
Default
 66
     1
 10
0.0
 20
0.0
 30
0.0
 70
     1
  0
VERTEX
  8
Default
 10
443.23110049752
 20
331.585679340105
 42
0.0
  0
VERTEX
  8
Default
 10
442.24701729132
 20
567.670753469854
 42
0.0
  0
VERTEX
  8
Default
 10
454.28241108322
 20
581.964683476176
 42
0.0
  0
VERTEX
  8
Default
 10
454.28241108322
 20
318.684306901738
 42
0.0
  0
SEQEND
  0
POLYLINE
  8
Default
 66
     1
 10
0.0
 20
0.0
 30
0.0
 70
     1
  0
VERTEX
  8
Default
 10
444.22072581708
 20
282.188813419081
 42
0.0
  0
VERTEX
  8
Default
 10
455.27094080881
 20
295.088906853871
 42
0.0
  0
VERTEX
  8
Default
 10
455.27094080881
 20
31.8085302794311
 42
0.0
  0
VERTEX
  8
Default
 10
443.235549462102
 20
46.1024573817192
 42
0.0
  0
SEQEND
  0
POLYLINE
  8
Default
 66
     1
 10
0.0
 20
0.0
 30
0.0
 70
     1
  0
VERTEX
  8
Default
 10
442.243666365887
 20
856.044002466905
 42
0.0
  0
VERTEX
  8
Default
 10
453.293881357617
 20
868.944095901699
 42
0.0
  0
VERTEX
  8
Default
 10
453.293881357617
 20
605.663719327259
 42
0.0
  0
VERTEX
  8
Default
 10
441.258490010909
 20
619.957646429548
 42
0.0
  0
SEQEND
  0
POLYLINE
  8
Default
 66
     1
 10
0.0
 20
0.0
 30
0.0
 70
     1
  0
VERTEX
  8
Default
 10
311.677793799696
 20
761.931007024833
 42
0.0
  0
VERTEX
  8
Default
 10
321.526448675863
 20
773.512736577113
 42
0.0
  0
VERTEX
  8
Default
 10
324.189506944313
 20
770.349934499335
 42
0.4652758708142
  0
VERTEX
  8
Default
 10
326.20898387278
 20
770.349934499335
 42
0.0
  0
VERTEX
  8
Default
 10
417.586506735556
 20
878.875167535858
 42
0.364930686321
  0
VERTEX
  8
Default
 10
417.586506735556
 20
880.575553649193
 42
0.0
  0
VERTEX
  8
Default
 10
372.397769215837
 20
934.244312839761
 42
0.0
  0
VERTEX
  8
Default
 10
382.282174064472
 20
945.783583656342
 42
0.0
  0
VERTEX
  8
Default
 10
435.736434560934
 20
882.298211155231
 42
-0.0322049880133
  0
VERTEX
  8
Default
 10
436.007397077547
 20
881.929353084251
 42
-0.322447991445
  0
VERTEX
  8
Default
 10
435.73001829883
 20
877.144889705718
 42
0.0
  0
VERTEX
  8
Default
 10
329.998315080044
 20
751.571801579905
 42
0.1767641128661
  0
VERTEX
  8
Default
 10
329.688053544368
 20
750.721608523237
 42
0.0
  0
VERTEX
  8
Default
 10
329.688053544368
 20
746.180745437126
 42
0.0
  0
VERTEX
  8
Default
 10
318.744777015672
 20
746.180745437126
 42
0.0
  0
VERTEX
  8
Default
 10
318.74477701567
 20
753.056140372907
 42
0.1767639079556
  0
VERTEX
  8
Default
 10
318.434515479995
 20
753.906333429575
 42
0.0
  0
SEQEND
  0
POLYLINE
  8
Default
 66
     1
 10
0.0
 20
0.0
 30
0.0
 70
     1
  0
VERTEX
  8
Default
 10
312.666323525299
 20
475.003412500936
 42
0.0
  0
VERTEX
  8
Default
 10
322.514978401465
 20
486.585142053215
 42
0.0
  0
VERTEX
  8
Default
 10
325.178036669915
 20
483.422339975432
 42
0.4652758708142
  0
VERTEX
  8
Default
 10
327.197513598383
 20
483.422339975432
 42
0.0
  0
VERTEX
  8
Default
 10
418.575036461158
 20
591.947573011957
 42
0.364930686321
  0
VERTEX
  8
Default
 10
418.575036461158
 20
593.647959125292
 42
0.0
  0
VERTEX
  8
Default
 10
373.38629894144
 20
647.316718315861
 42
0.0
  0
VERTEX
  8
Default
 10
383.270703790074
 20
658.855989132442
 42
0.0
  0
VERTEX
  8
Default
 10
436.724964286537
 20
595.37061663133
 42
-0.0322049880133
  0
VERTEX
  8
Default
 10
436.995926803149
 20
595.00175856035
 42
-0.322447991445
  0
VERTEX
  8
Default
 10
436.718548024432
 20
590.217295181817
 42
0.0
  0
VERTEX
  8
Default
 10
330.986844805646
 20
464.644207056002
 42
0.1767641128661
  0
VERTEX
  8
Default
 10
330.676583269971
 20
463.794013999335
 42
0.0
  0
VERTEX
  8
Default
 10
330.67658326997
 20
459.253150913224
 42
0.0
  0
VERTEX
  8
Default
 10
319.733306741274
 20
459.253150913224
 42
0.0
  0
VERTEX
  8
Default
 10
319.733306741272
 20
466.128545849004
 42
0.1767639079556
  0
VERTEX
  8
Default
 10
319.423045205597
 20
466.978738905672
 42
0.0
  0
SEQEND
  0
POLYLINE
  8
Default
 66
     1
 10
0.0
 20
0.0
 30
0.0
 70
     1
  0
VERTEX
  8
Default
 10
330.307995742288
 20
698.47900360265
 42
0.0
  0
VERTEX
  8
Default
 10
327.197511297557
 20
702.173194894393
 42
0.4652751815125
  0
VERTEX
  8
Default
 10
325.178036296091
 20
702.173192605784
 42
0.0
  0
VERTEX
  8
Default
 10
233.800513433312
 20
593.647959569268
 42
0.3649306863211
  0
VERTEX
  8
Default
 10
233.800513433312
 20
591.947573455933
 42
0.0
  0
VERTEX
  8
Default
 10
279.410910134738
 20
537.778027424972
 42
0.0
  0
VERTEX
  8
Default
 10
270.257228535687
 20
527.013566082698
 42
0.0
  0
VERTEX
  8
Default
 10
218.276319584965
 20
591.164165228347
 42
-0.2753005396167
  0
VERTEX
  8
Default
 10
218.029771734528
 20
596.709773992967
 42
0.0
  0
VERTEX
  8
Default
 10
319.427927286973
 20
718.554195008702
 42
0.1752785073526
  0
VERTEX
  8
Default
 10
319.733306741272
 20
719.398555801361
 42
0.0
  0
VERTEX
  8
Default
 10
319.733306741272
 20
724.409083592073
 42
0.0
  0
VERTEX
  8
Default
 10
330.676583269972
 20
724.409083592073
 42
0.0
  0
VERTEX
  8
Default
 10
330.676583269971
 20
721.801518137913
 42
0.1767638395387
  0
VERTEX
  8
Default
 10
330.986844805646
 20
720.951325081245
 42
0.0
  0
VERTEX
  8
Default
 10
340.192400590923
 20
710.018274419224
 42
0.0
  0
SEQEND
  0
POLYLINE
  8
Default
 66
     1
 10
0.0
 20
0.0
 30
0.0
 70
     1
  0
VERTEX
  8
Default
 10
313.654853250892
 20
188.075817977013
 42
0.0
  0
VERTEX
  8
Default
 10
323.503508127058
 20
199.657547529292
 42
0.0
  0
VERTEX
  8
Default
 10
326.166566395508
 20
196.49474545151
 42
0.4652758708142
  0
VERTEX
  8
Default
 10
328.186043323976
 20
196.49474545151
 42
0.0
  0
VERTEX
  8
Default
 10
419.563566186752
 20
305.019978488033
 42
0.364930686321
  0
VERTEX
  8
Default
 10
419.563566186752
 20
306.720364601368
 42
0.0
  0
VERTEX
  8
Default
 10
374.374828667033
 20
360.389123791941
 42
0.0
  0
VERTEX
  8
Default
 10
384.259233515668
 20
371.928394608517
 42
0.0
  0
VERTEX
  8
Default
 10
437.71349401213
 20
308.443022107406
 42
-0.0322049880133
  0
VERTEX
  8
Default
 10
437.984456528742
 20
308.074164036426
 42
-0.322447991445
  0
VERTEX
  8
Default
 10
437.707077750025
 20
303.289700657893
 42
0.0
  0
VERTEX
  8
Default
 10
331.975374531239
 20
177.71661253208
 42
0.1767641128661
  0
VERTEX
  8
Default
 10
331.665112995564
 20
176.866419475412
 42
0.0
  0
VERTEX
  8
Default
 10
331.665112995563
 20
172.325556389302
 42
0.0
  0
VERTEX
  8
Default
 10
320.721836466868
 20
172.325556389302
 42
0.0
  0
VERTEX
  8
Default
 10
320.721836466866
 20
179.200951325082
 42
0.1767639079556
  0
VERTEX
  8
Default
 10
320.41157493119
 20
180.05114438175
 42
0.0
  0
SEQEND
  0
POLYLINE
  8
Default
 66
     1
 10
0.0
 20
0.0
 30
0.0
 70
     1
  0
VERTEX
  8
Default
 10
331.296525467881
 20
411.551409078728
 42
0.0
  0
VERTEX
  8
Default
 10
328.18604102315
 20
415.245600370471
 42
0.4652751815125
  0
VERTEX
  8
Default
 10
326.166566021684
 20
415.24559808186
 42
0.0
  0
VERTEX
  8
Default
 10
234.789043158906
 20
306.720365045343
 42
0.3649306863211
  0
VERTEX
  8
Default
 10
234.789043158906
 20
305.019978932008
 42
0.0
  0
VERTEX
  8
Default
 10
280.399439860331
 20
250.850432901049
 42
0.0
  0
VERTEX
  8
Default
 10
271.24575826128
 20
240.085971558774
 42
0.0
  0
VERTEX
  8
Default
 10
219.264849310558
 20
304.236570704423
 42
-0.2753005396167
  0
VERTEX
  8
Default
 10
219.018301460121
 20
309.782179469043
 42
0.0
  0
VERTEX
  8
Default
 10
320.416457012566
 20
431.626600484777
 42
0.1752785073526
  0
VERTEX
  8
Default
 10
320.721836466866
 20
432.470961277436
 42
0.0
  0
VERTEX
  8
Default
 10
320.721836466865
 20
437.481489068149
 42
0.0
  0
VERTEX
  8
Default
 10
331.665112995565
 20
437.481489068149
 42
0.0
  0
VERTEX
  8
Default
 10
331.665112995564
 20
434.873923613989
 42
0.1767638395387
  0
VERTEX
  8
Default
 10
331.975374531239
 20
434.023730557321
 42
0.0
  0
VERTEX
  8
Default
 10
341.180930316516
 20
423.090679895304
 42
0.0
  0
SEQEND
  0
POLYLINE
  8
Default
 66
     1
 10
0.0
 20
0.0
 30
0.0
 70
     1
  0
VERTEX
  8
Default
 10
332.285055193482
 20
124.623814554829
 42
0.0
  0
VERTEX
  8
Default
 10
329.174570748751
 20
128.318005846572
 42
0.4652751815125
  0
VERTEX
  8
Default
 10
327.155095747284
 20
128.31800355796
 42
0.0
  0
VERTEX
  8
Default
 10
235.777572884506
 20
19.7927705214443
 42
0.3649306863211
  0
VERTEX
  8
Default
 10
235.777572884506
 20
18.092384408109
 42
0.0
  0
VERTEX
  8
Default
 10
281.387969585931
 20
-36.0771616228499
 42
0.0
  0
VERTEX
  8
Default
 10
272.234287986881
 20
-46.8416229651257
 42
0.0
  0
VERTEX
  8
Default
 10
220.253379036159
 20
17.3089761805235
 42
-0.2753005396167
  0
VERTEX
  8
Default
 10
220.006831185722
 20
22.8545849451434
 42
0.0
  0
VERTEX
  8
Default
 10
321.404986738166
 20
144.699005960878
 42
0.1752785073526
  0
VERTEX
  8
Default
 10
321.710366192466
 20
145.543366753537
 42
0.0
  0
VERTEX
  8
Default
 10
321.710366192465
 20
150.55389454425
 42
0.0
  0
VERTEX
  8
Default
 10
332.653642721165
 20
150.55389454425
 42
0.0
  0
VERTEX
  8
Default
 10
332.653642721164
 20
147.946329090089
 42
0.1767638395387
  0
VERTEX
  8
Default
 10
332.96390425684
 20
147.096136033422
 42
0.0
  0
VERTEX
  8
Default
 10
342.169460042116
 20
136.163085371405
 42
0.0
  0
SEQEND
  0
POLYLINE
  8
Default
 66
     1
 10
0.0
 20
0.0
 30
0.0
 70
     1
  0
VERTEX
  8
Default
 10
313.331684196692
 20
976.205409070959
 42
0.0
  0
VERTEX
  8
Default
 10
232.81198370771
 20
880.575554093168
 42
0.3649306863211
  0
VERTEX
  8
Default
 10
232.81198370771
 20
878.875167979833
 42
0.0
  0
VERTEX
  8
Default
 10
278.422380409135
 20
824.705621948873
 42
0.0
  0
VERTEX
  8
Default
 10
269.268698810085
 20
813.941160606598
 42
0.0
  0
VERTEX
  8
Default
 10
217.287789859362
 20
878.091759752248
 42
-0.2753005396167
  0
VERTEX
  8
Default
 10
217.041242008926
 20
883.637368516868
 42
0.0
  0
VERTEX
  8
Default
 10
294.075779142774
 20
976.205409070959
 42
0.0
  0
SEQEND
  0
POLYLINE
  8
Default
 66
     1
 10
0.0
 20
0.0
 30
0.0
 70
     1
  0
VERTEX
  8
Default
 10
212.121221804399
 20
976.20540907096
 42
0.0
  0
VERTEX
  8
Default
 10
200.774940448791
 20
976.205409070959
 42
0.0
  0
VERTEX
  8
Default
 10
200.774940448791
 20
892.53949594955
 42
0.0
  0
VERTEX
  8
Default
 10
211.826251034487
 20
905.44086838793
 42
0.0
  0
SEQEND
  0
POLYLINE
  8
Default
 66
     1
 10
0.0
 20
0.0
 30
0.0
 70
     1
  0
VERTEX
  8
Default
 10
452.305351632015
 20
976.205409070959
 42
0.0
  0
VERTEX
  8
Default
 10
452.305351632015
 20
892.591313851159
 42
0.0
  0
VERTEX
  8
Default
 10
440.269960285307
 20
906.885240953449
 42
0.0
  0
VERTEX
  8
Default
 10
440.559229820822
 20
976.205409070959
 42
0.0
  0
SEQEND
  0
POLYLINE
  8
Default
 66
     1
 10
0.0
 20
0.0
 30
0.0
 70
     1
  0
VERTEX
  8
Default
 10
546.768899742479
 20
-529.19710423162
 42
0.0
  0
VERTEX
  8
Default
 10
547.752982948683
 20
-293.11203010187
 42
0.0
  0
VERTEX
  8
Default
 10
535.717589156784
 20
-278.818100095548
 42
0.0
  0
VERTEX
  8
Default
 10
535.717589156784
 20
-542.098476669985
 42
0.0
  0
SEQEND
  0
POLYLINE
  8
Default
 66
     1
 10
0.0
 20
0.0
 30
0.0
 70
     1
  0
VERTEX
  8
Default
 10
547.757429468078
 20
-816.12469875552
 42
0.0
  0
VERTEX
  8
Default
 10
548.741512674281
 20
-580.039624625779
 42
0.0
  0
VERTEX
  8
Default
 10
536.706118882383
 20
-565.745694619458
 42
0.0
  0
VERTEX
  8
Default
 10
536.706118882383
 20
-829.026071193897
 42
0.0
  0
SEQEND
  0
POLYLINE
  8
Default
 66
     1
 10
0.0
 20
0.0
 30
0.0
 70
     1
  0
VERTEX
  8
Default
 10
537.694648607977
 20
-976.205409070959
 42
0.0
  0
VERTEX
  8
Default
 10
549.274700322136
 20
-976.205409070959
 42
0.0
  0
VERTEX
  8
Default
 10
549.730042399875
 20
-866.967219149693
 42
0.0
  0
VERTEX
  8
Default
 10
537.694648607977
 20
-852.673289143371
 42
0.0
  0
SEQEND
  0
POLYLINE
  8
Default
 66
     1
 10
0.0
 20
0.0
 30
0.0
 70
     1
  0
VERTEX
  8
Default
 10
545.780370016885
 20
-242.269509707695
 42
0.0
  0
VERTEX
  8
Default
 10
546.764453223088
 20
-6.1844355779564
 42
0.0
  0
VERTEX
  8
Default
 10
534.72905943119
 20
8.1094944283658
 42
0.0
  0
VERTEX
  8
Default
 10
534.72905943119
 20
-255.170882146074
 42
0.0
  0
SEQEND
  0
POLYLINE
  8
Default
 66
     1
 10
0.0
 20
0.0
 30
0.0
 70
     1
  0
VERTEX
  8
Default
 10
776.196689754316
 20
-529.197104231619
 42
0.0
  0
VERTEX
  8
Default
 10
775.212606548117
 20
-293.11203010187
 42
0.0
  0
VERTEX
  8
Default
 10
787.248000340016
 20
-278.818100095548
 42
0.0
  0
VERTEX
  8
Default
 10
787.248000340016
 20
-542.098476669986
 42
0.0
  0
SEQEND
  0
POLYLINE
  8
Default
 66
     1
 10
0.0
 20
0.0
 30
0.0
 70
     1
  0
VERTEX
  8
Default
 10
777.186315073876
 20
-578.593970152644
 42
0.0
  0
VERTEX
  8
Default
 10
788.236530065606
 20
-565.693876717854
 42
0.0
  0
VERTEX
  8
Default
 10
788.236530065606
 20
-828.974253292293
 42
0.0
  0
VERTEX
  8
Default
 10
776.201138718898
 20
-814.680326190005
 42
0.0
  0
SEQEND
  0
POLYLINE
  8
Default
 66
     1
 10
0.0
 20
0.0
 30
0.0
 70
     1
  0
VERTEX
  8
Default
 10
777.645008077047
 20
-976.205409070959
 42
0.0
  0
VERTEX
  8
Default
 10
777.18966599931
 20
-866.967219149692
 42
0.0
  0
VERTEX
  8
Default
 10
789.225059791209
 20
-852.673289143371
 42
0.0
  0
VERTEX
  8
Default
 10
789.225059791209
 20
-976.20540907096
 42
0.0
  0
SEQEND
  0
POLYLINE
  8
Default
 66
     1
 10
0.0
 20
0.0
 30
0.0
 70
     1
  0
VERTEX
  8
Default
 10
775.209255622683
 20
-4.7387811048193
 42
0.0
  0
VERTEX
  8
Default
 10
786.259470614413
 20
8.1613123299746
 42
0.0
  0
VERTEX
  8
Default
 10
786.259470614413
 20
-255.119064244465
 42
0.0
  0
VERTEX
  8
Default
 10
774.224079267705
 20
-240.825137142176
 42
0.0
  0
SEQEND
  0
POLYLINE
  8
Default
 66
     1
 10
0.0
 20
0.0
 30
0.0
 70
     1
  0
VERTEX
  8
Default
 10
644.643383056492
 20
-98.8517765468907
 42
0.0
  0
VERTEX
  8
Default
 10
654.492037932659
 20
-87.270046994611
 42
0.0
  0
VERTEX
  8
Default
 10
657.155096201109
 20
-90.4328490723891
 42
0.4652758708142
  0
VERTEX
  8
Default
 10
659.174573129577
 20
-90.4328490723891
 42
0.0
  0
VERTEX
  8
Default
 10
750.552095992352
 20
18.0923839641335
 42
0.364930686321
  0
VERTEX
  8
Default
 10
750.552095992352
 20
19.7927700774688
 42
0.0
  0
VERTEX
  8
Default
 10
705.363358472633
 20
73.4615292680371
 42
0.0
  0
VERTEX
  8
Default
 10
715.247763321268
 20
85.000800084618
 42
0.0
  0
VERTEX
  8
Default
 10
768.70202381773
 20
21.5154275835066
 42
-0.0322049880133
  0
VERTEX
  8
Default
 10
768.972986334343
 20
21.1465695125265
 42
-0.322447991445
  0
VERTEX
  8
Default
 10
768.695607555626
 20
16.3621061339936
 42
0.0
  0
VERTEX
  8
Default
 10
662.96390433684
 20
-109.210981991819
 42
0.1767641128661
  0
VERTEX
  8
Default
 10
662.653642801165
 20
-110.061175048487
 42
0.0
  0
VERTEX
  8
Default
 10
662.653642801164
 20
-114.602038134598
 42
0.0
  0
VERTEX
  8
Default
 10
651.710366272468
 20
-114.602038134598
 42
0.0
  0
VERTEX
  8
Default
 10
651.710366272466
 20
-107.726643198817
 42
0.1767639079556
  0
VERTEX
  8
Default
 10
651.400104736791
 20
-106.87645014215
 42
0.0
  0
SEQEND
  0
POLYLINE
  8
Default
 66
     1
 10
0.0
 20
0.0
 30
0.0
 70
     1
  0
VERTEX
  8
Default
 10
645.631912782095
 20
-385.779371070789
 42
0.0
  0
VERTEX
  8
Default
 10
655.480567658261
 20
-374.19764151851
 42
0.0
  0
VERTEX
  8
Default
 10
658.143625926711
 20
-377.360443596292
 42
0.4652758708142
  0
VERTEX
  8
Default
 10
660.163102855179
 20
-377.360443596292
 42
0.0
  0
VERTEX
  8
Default
 10
751.540625717955
 20
-268.835210559767
 42
0.364930686321
  0
VERTEX
  8
Default
 10
751.540625717955
 20
-267.134824446432
 42
0.0
  0
VERTEX
  8
Default
 10
706.351888198236
 20
-213.466065255864
 42
0.0
  0
VERTEX
  8
Default
 10
716.236293046871
 20
-201.926794439283
 42
0.0
  0
VERTEX
  8
Default
 10
769.690553543333
 20
-265.412166940394
 42
-0.0322049880133
  0
VERTEX
  8
Default
 10
769.961516059945
 20
-265.781025011374
 42
-0.322447991445
  0
VERTEX
  8
Default
 10
769.684137281228
 20
-270.565488389907
 42
0.0
  0
VERTEX
  8
Default
 10
663.952434062442
 20
-396.138576515722
 42
0.1767641128661
  0
VERTEX
  8
Default
 10
663.642172526767
 20
-396.988769572389
 42
0.0
  0
VERTEX
  8
Default
 10
663.642172526766
 20
-401.5296326585
 42
0.0
  0
VERTEX
  8
Default
 10
652.698895998071
 20
-401.5296326585
 42
0.0
  0
VERTEX
  8
Default
 10
652.698895998069
 20
-394.65423772272
 42
0.1767639079556
  0
VERTEX
  8
Default
 10
652.388634462393
 20
-393.804044666052
 42
0.0
  0
SEQEND
  0
POLYLINE
  8
Default
 66
     1
 10
0.0
 20
0.0
 30
0.0
 70
     1
  0
VERTEX
  8
Default
 10
663.273584999084
 20
-162.303779969074
 42
0.0
  0
VERTEX
  8
Default
 10
660.163100554353
 20
-158.609588677331
 42
0.4652751815125
  0
VERTEX
  8
Default
 10
658.143625552887
 20
-158.60959096594
 42
0.0
  0
VERTEX
  8
Default
 10
566.766102690109
 20
-267.134824002456
 42
0.3649306863211
  0
VERTEX
  8
Default
 10
566.766102690109
 20
-268.835210115792
 42
0.0
  0
VERTEX
  8
Default
 10
612.376499391534
 20
-323.004756146752
 42
0.0
  0
VERTEX
  8
Default
 10
603.222817792483
 20
-333.769217489026
 42
0.0
  0
VERTEX
  8
Default
 10
551.241908841761
 20
-269.618618343377
 42
-0.2753005396167
  0
VERTEX
  8
Default
 10
550.995360991324
 20
-264.073009578757
 42
0.0
  0
VERTEX
  8
Default
 10
652.393516543769
 20
-142.228588563023
 42
0.1752785073526
  0
VERTEX
  8
Default
 10
652.698895998069
 20
-141.384227770364
 42
0.0
  0
VERTEX
  8
Default
 10
652.698895998068
 20
-136.373699979651
 42
0.0
  0
VERTEX
  8
Default
 10
663.642172526768
 20
-136.373699979651
 42
0.0
  0
VERTEX
  8
Default
 10
663.642172526767
 20
-138.981265433811
 42
0.1767638395387
  0
VERTEX
  8
Default
 10
663.952434062442
 20
-139.831458490479
 42
0.0
  0
VERTEX
  8
Default
 10
673.157989847719
 20
-150.7645091525
 42
0.0
  0
SEQEND
  0
POLYLINE
  8
Default
 66
     1
 10
0.0
 20
0.0
 30
0.0
 70
     1
  0
VERTEX
  8
Default
 10
646.620442507688
 20
-672.706965594711
 42
0.0
  0
VERTEX
  8
Default
 10
656.469097383854
 20
-661.125236042432
 42
0.0
  0
VERTEX
  8
Default
 10
659.132155652305
 20
-664.288038120214
 42
0.4652758708142
  0
VERTEX
  8
Default
 10
661.151632580772
 20
-664.288038120214
 42
0.0
  0
VERTEX
  8
Default
 10
752.529155443548
 20
-555.762805083691
 42
0.364930686321
  0
VERTEX
  8
Default
 10
752.529155443548
 20
-554.062418970356
 42
0.0
  0
VERTEX
  8
Default
 10
707.340417923829
 20
-500.393659779783
 42
0.0
  0
VERTEX
  8
Default
 10
717.224822772464
 20
-488.854388963208
 42
0.0
  0
VERTEX
  8
Default
 10
770.679083268926
 20
-552.339761464318
 42
-0.0322049880133
  0
VERTEX
  8
Default
 10
770.950045785539
 20
-552.708619535299
 42
-0.322447991445
  0
VERTEX
  8
Default
 10
770.672667006821
 20
-557.493082913831
 42
0.0
  0
VERTEX
  8
Default
 10
664.940963788036
 20
-683.066171039644
 42
0.1767641128661
  0
VERTEX
  8
Default
 10
664.63070225236
 20
-683.916364096312
 42
0.0
  0
VERTEX
  8
Default
 10
664.63070225236
 20
-688.457227182423
 42
0.0
  0
VERTEX
  8
Default
 10
653.687425723664
 20
-688.457227182423
 42
0.0
  0
VERTEX
  8
Default
 10
653.687425723662
 20
-681.581832246642
 42
0.1767639079556
  0
VERTEX
  8
Default
 10
653.377164187987
 20
-680.731639189974
 42
0.0
  0
SEQEND
  0
POLYLINE
  8
Default
 66
     1
 10
0.0
 20
0.0
 30
0.0
 70
     1
  0
VERTEX
  8
Default
 10
664.262114724677
 20
-449.231374492996
 42
0.0
  0
VERTEX
  8
Default
 10
661.151630279946
 20
-445.537183201253
 42
0.4652751815125
  0
VERTEX
  8
Default
 10
659.13215527848
 20
-445.537185489865
 42
0.0
  0
VERTEX
  8
Default
 10
567.754632415702
 20
-554.062418526381
 42
0.3649306863211
  0
VERTEX
  8
Default
 10
567.754632415702
 20
-555.762804639716
 42
0.0
  0
VERTEX
  8
Default
 10
613.365029117127
 20
-609.932350670675
 42
0.0
  0
VERTEX
  8
Default
 10
604.211347518076
 20
-620.696812012951
 42
0.0
  0
VERTEX
  8
Default
 10
552.230438567354
 20
-556.546212867301
 42
-0.2753005396167
  0
VERTEX
  8
Default
 10
551.983890716917
 20
-551.000604102681
 42
0.0
  0
VERTEX
  8
Default
 10
653.382046269362
 20
-429.156183086947
 42
0.1752785073526
  0
VERTEX
  8
Default
 10
653.687425723662
 20
-428.311822294288
 42
0.0
  0
VERTEX
  8
Default
 10
653.687425723661
 20
-423.301294503575
 42
0.0
  0
VERTEX
  8
Default
 10
664.630702252361
 20
-423.301294503575
 42
0.0
  0
VERTEX
  8
Default
 10
664.63070225236
 20
-425.908859957736
 42
0.1767638395387
  0
VERTEX
  8
Default
 10
664.940963788036
 20
-426.759053014403
 42
0.0
  0
VERTEX
  8
Default
 10
674.146519573312
 20
-437.69210367642
 42
0.0
  0
SEQEND
  0
POLYLINE
  8
Default
 66
     1
 10
0.0
 20
0.0
 30
0.0
 70
     1
  0
VERTEX
  8
Default
 10
647.608972233289
 20
-959.634560118611
 42
0.0
  0
VERTEX
  8
Default
 10
657.457627109455
 20
-948.052830566331
 42
0.0
  0
VERTEX
  8
Default
 10
660.120685377905
 20
-951.215632644113
 42
0.4652758708142
  0
VERTEX
  8
Default
 10
662.140162306373
 20
-951.215632644113
 42
0.0
  0
VERTEX
  8
Default
 10
753.517685169148
 20
-842.690399607591
 42
0.364930686321
  0
VERTEX
  8
Default
 10
753.517685169148
 20
-840.990013494255
 42
0.0
  0
VERTEX
  8
Default
 10
708.32894764943
 20
-787.321254303683
 42
0.0
  0
VERTEX
  8
Default
 10
718.213352498064
 20
-775.781983487107
 42
0.0
  0
VERTEX
  8
Default
 10
771.667612994527
 20
-839.267355988218
 42
-0.0322049880133
  0
VERTEX
  8
Default
 10
771.938575511139
 20
-839.636214059198
 42
-0.322447991445
  0
VERTEX
  8
Default
 10
771.661196732422
 20
-844.420677437731
 42
0.0
  0
VERTEX
  8
Default
 10
665.929493513636
 20
-969.993765563543
 42
0.1767641128661
  0
VERTEX
  8
Default
 10
665.619231977961
 20
-970.843958620211
 42
0.0
  0
VERTEX
  8
Default
 10
665.61923197796
 20
-975.384821706322
 42
0.0
  0
VERTEX
  8
Default
 10
654.675955449264
 20
-975.384821706322
 42
0.0
  0
VERTEX
  8
Default
 10
654.675955449262
 20
-968.509426770541
 42
0.1767639079556
  0
VERTEX
  8
Default
 10
654.365693913587
 20
-967.659233713874
 42
0.0
  0
SEQEND
  0
POLYLINE
  8
Default
 66
     1
 10
0.0
 20
0.0
 30
0.0
 70
     1
  0
VERTEX
  8
Default
 10
665.250644450278
 20
-736.158969016895
 42
0.0
  0
VERTEX
  8
Default
 10
662.140160005547
 20
-732.464777725152
 42
0.4652751815125
  0
VERTEX
  8
Default
 10
660.120685004081
 20
-732.464780013764
 42
0.0
  0
VERTEX
  8
Default
 10
568.743162141302
 20
-840.99001305028
 42
0.3649306863211
  0
VERTEX
  8
Default
 10
568.743162141302
 20
-842.690399163615
 42
0.0
  0
VERTEX
  8
Default
 10
614.353558842727
 20
-896.859945194574
 42
0.0
  0
VERTEX
  8
Default
 10
605.199877243677
 20
-907.62440653685
 42
0.0
  0
VERTEX
  8
Default
 10
553.218968292955
 20
-843.473807391201
 42
-0.2753005396167
  0
VERTEX
  8
Default
 10
552.972420442518
 20
-837.928198626581
 42
0.0
  0
VERTEX
  8
Default
 10
654.370575994963
 20
-716.083777610846
 42
0.1752785073526
  0
VERTEX
  8
Default
 10
654.675955449262
 20
-715.239416818187
 42
0.0
  0
VERTEX
  8
Default
 10
654.675955449262
 20
-710.228889027474
 42
0.0
  0
VERTEX
  8
Default
 10
665.619231977961
 20
-710.228889027474
 42
0.0
  0
VERTEX
  8
Default
 10
665.619231977961
 20
-712.836454481635
 42
0.1767638395387
  0
VERTEX
  8
Default
 10
665.929493513636
 20
-713.686647538303
 42
0.0
  0
VERTEX
  8
Default
 10
675.135049298913
 20
-724.619698200319
 42
0.0
  0
SEQEND
  0
POLYLINE
  8
Default
 66
     1
 10
0.0
 20
0.0
 30
0.0
 70
     1
  0
VERTEX
  8
Default
 10
543.803310565683
 20
331.585679340105
 42
0.0
  0
VERTEX
  8
Default
 10
544.787393771887
 20
567.670753469854
 42
0.0
  0
VERTEX
  8
Default
 10
532.751999979988
 20
581.964683476176
 42
0.0
  0
VERTEX
  8
Default
 10
532.751999979988
 20
318.684306901739
 42
0.0
  0
SEQEND
  0
POLYLINE
  8
Default
 66
     1
 10
0.0
 20
0.0
 30
0.0
 70
     1
  0
VERTEX
  8
Default
 10
544.791840291282
 20
44.6580848162041
 42
0.0
  0
VERTEX
  8
Default
 10
545.775923497485
 20
280.743158945945
 42
0.0
  0
VERTEX
  8
Default
 10
533.740529705587
 20
295.037088952266
 42
0.0
  0
VERTEX
  8
Default
 10
533.740529705587
 20
31.7567123778276
 42
0.0
  0
SEQEND
  0
POLYLINE
  8
Default
 66
     1
 10
0.0
 20
0.0
 30
0.0
 70
     1
  0
VERTEX
  8
Default
 10
542.814780840089
 20
618.513273864029
 42
0.0
  0
VERTEX
  8
Default
 10
543.798864046292
 20
854.598347993768
 42
0.0
  0
VERTEX
  8
Default
 10
531.763470254394
 20
868.89227800009
 42
0.0
  0
VERTEX
  8
Default
 10
531.763470254394
 20
605.61190142565
 42
0.0
  0
SEQEND
  0
POLYLINE
  8
Default
 66
     1
 10
0.0
 20
0.0
 30
0.0
 70
     1
  0
VERTEX
  8
Default
 10
773.23110057752
 20
331.585679340105
 42
0.0
  0
VERTEX
  8
Default
 10
772.24701737132
 20
567.670753469854
 42
0.0
  0
VERTEX
  8
Default
 10
784.28241116322
 20
581.964683476176
 42
0.0
  0
VERTEX
  8
Default
 10
784.28241116322
 20
318.684306901738
 42
0.0
  0
SEQEND
  0
POLYLINE
  8
Default
 66
     1
 10
0.0
 20
0.0
 30
0.0
 70
     1
  0
VERTEX
  8
Default
 10
774.22072589708
 20
282.188813419081
 42
0.0
  0
VERTEX
  8
Default
 10
785.27094088881
 20
295.088906853871
 42
0.0
  0
VERTEX
  8
Default
 10
785.27094088881
 20
31.8085302794311
 42
0.0
  0
VERTEX
  8
Default
 10
773.235549542102
 20
46.1024573817192
 42
0.0
  0
SEQEND
  0
POLYLINE
  8
Default
 66
     1
 10
0.0
 20
0.0
 30
0.0
 70
     1
  0
VERTEX
  8
Default
 10
772.243666445887
 20
856.044002466905
 42
0.0
  0
VERTEX
  8
Default
 10
783.293881437617
 20
868.944095901699
 42
0.0
  0
VERTEX
  8
Default
 10
783.293881437617
 20
605.663719327259
 42
0.0
  0
VERTEX
  8
Default
 10
771.258490090909
 20
619.957646429548
 42
0.0
  0
SEQEND
  0
POLYLINE
  8
Default
 66
     1
 10
0.0
 20
0.0
 30
0.0
 70
     1
  0
VERTEX
  8
Default
 10
641.677793879696
 20
761.931007024833
 42
0.0
  0
VERTEX
  8
Default
 10
651.526448755863
 20
773.512736577113
 42
0.0
  0
VERTEX
  8
Default
 10
654.189507024313
 20
770.349934499335
 42
0.4652758708142
  0
VERTEX
  8
Default
 10
656.208983952781
 20
770.349934499335
 42
0.0
  0
VERTEX
  8
Default
 10
747.586506815556
 20
878.875167535858
 42
0.364930686321
  0
VERTEX
  8
Default
 10
747.586506815556
 20
880.575553649193
 42
0.0
  0
VERTEX
  8
Default
 10
702.397769295837
 20
934.244312839761
 42
0.0
  0
VERTEX
  8
Default
 10
712.282174144472
 20
945.783583656342
 42
0.0
  0
VERTEX
  8
Default
 10
765.736434640934
 20
882.298211155231
 42
-0.0322049880133
  0
VERTEX
  8
Default
 10
766.007397157547
 20
881.929353084251
 42
-0.322447991445
  0
VERTEX
  8
Default
 10
765.73001837883
 20
877.144889705718
 42
0.0
  0
VERTEX
  8
Default
 10
659.998315160044
 20
751.571801579905
 42
0.1767641128661
  0
VERTEX
  8
Default
 10
659.688053624368
 20
750.721608523237
 42
0.0
  0
VERTEX
  8
Default
 10
659.688053624368
 20
746.180745437126
 42
0.0
  0
VERTEX
  8
Default
 10
648.744777095672
 20
746.180745437126
 42
0.0
  0
VERTEX
  8
Default
 10
648.74477709567
 20
753.056140372907
 42
0.1767639079556
  0
VERTEX
  8
Default
 10
648.434515559995
 20
753.906333429575
 42
0.0
  0
SEQEND
  0
POLYLINE
  8
Default
 66
     1
 10
0.0
 20
0.0
 30
0.0
 70
     1
  0
VERTEX
  8
Default
 10
642.666323605299
 20
475.003412500936
 42
0.0
  0
VERTEX
  8
Default
 10
652.514978481465
 20
486.585142053215
 42
0.0
  0
VERTEX
  8
Default
 10
655.178036749915
 20
483.422339975432
 42
0.4652758708142
  0
VERTEX
  8
Default
 10
657.197513678383
 20
483.422339975432
 42
0.0
  0
VERTEX
  8
Default
 10
748.575036541158
 20
591.947573011957
 42
0.364930686321
  0
VERTEX
  8
Default
 10
748.575036541158
 20
593.647959125292
 42
0.0
  0
VERTEX
  8
Default
 10
703.38629902144
 20
647.316718315861
 42
0.0
  0
VERTEX
  8
Default
 10
713.270703870075
 20
658.855989132442
 42
0.0
  0
VERTEX
  8
Default
 10
766.724964366537
 20
595.37061663133
 42
-0.0322049880133
  0
VERTEX
  8
Default
 10
766.995926883149
 20
595.00175856035
 42
-0.322447991445
  0
VERTEX
  8
Default
 10
766.718548104432
 20
590.217295181817
 42
0.0
  0
VERTEX
  8
Default
 10
660.986844885646
 20
464.644207056002
 42
0.1767641128661
  0
VERTEX
  8
Default
 10
660.676583349971
 20
463.794013999335
 42
0.0
  0
VERTEX
  8
Default
 10
660.67658334997
 20
459.253150913224
 42
0.0
  0
VERTEX
  8
Default
 10
649.733306821274
 20
459.253150913224
 42
0.0
  0
VERTEX
  8
Default
 10
649.733306821272
 20
466.128545849004
 42
0.1767639079556
  0
VERTEX
  8
Default
 10
649.423045285597
 20
466.978738905672
 42
0.0
  0
SEQEND
  0
POLYLINE
  8
Default
 66
     1
 10
0.0
 20
0.0
 30
0.0
 70
     1
  0
VERTEX
  8
Default
 10
660.307995822288
 20
698.47900360265
 42
0.0
  0
VERTEX
  8
Default
 10
657.197511377557
 20
702.173194894393
 42
0.4652751815125
  0
VERTEX
  8
Default
 10
655.178036376091
 20
702.173192605784
 42
0.0
  0
VERTEX
  8
Default
 10
563.800513513313
 20
593.647959569268
 42
0.3649306863211
  0
VERTEX
  8
Default
 10
563.800513513313
 20
591.947573455933
 42
0.0
  0
VERTEX
  8
Default
 10
609.410910214738
 20
537.778027424972
 42
0.0
  0
VERTEX
  8
Default
 10
600.257228615687
 20
527.013566082698
 42
0.0
  0
VERTEX
  8
Default
 10
548.276319664965
 20
591.164165228347
 42
-0.2753005396167
  0
VERTEX
  8
Default
 10
548.029771814528
 20
596.709773992967
 42
0.0
  0
VERTEX
  8
Default
 10
649.427927366973
 20
718.554195008702
 42
0.1752785073526
  0
VERTEX
  8
Default
 10
649.733306821272
 20
719.398555801361
 42
0.0
  0
VERTEX
  8
Default
 10
649.733306821272
 20
724.409083592073
 42
0.0
  0
VERTEX
  8
Default
 10
660.676583349972
 20
724.409083592073
 42
0.0
  0
VERTEX
  8
Default
 10
660.676583349971
 20
721.801518137913
 42
0.1767638395387
  0
VERTEX
  8
Default
 10
660.986844885646
 20
720.951325081245
 42
0.0
  0
VERTEX
  8
Default
 10
670.192400670923
 20
710.018274419224
 42
0.0
  0
SEQEND
  0
POLYLINE
  8
Default
 66
     1
 10
0.0
 20
0.0
 30
0.0
 70
     1
  0
VERTEX
  8
Default
 10
643.654853330892
 20
188.075817977013
 42
0.0
  0
VERTEX
  8
Default
 10
653.503508207058
 20
199.657547529292
 42
0.0
  0
VERTEX
  8
Default
 10
656.166566475508
 20
196.49474545151
 42
0.4652758708142
  0
VERTEX
  8
Default
 10
658.186043403976
 20
196.49474545151
 42
0.0
  0
VERTEX
  8
Default
 10
749.563566266752
 20
305.019978488033
 42
0.364930686321
  0
VERTEX
  8
Default
 10
749.563566266752
 20
306.720364601368
 42
0.0
  0
VERTEX
  8
Default
 10
704.374828747033
 20
360.389123791941
 42
0.0
  0
VERTEX
  8
Default
 10
714.259233595668
 20
371.928394608517
 42
0.0
  0
VERTEX
  8
Default
 10
767.71349409213
 20
308.443022107406
 42
-0.0322049880133
  0
VERTEX
  8
Default
 10
767.984456608742
 20
308.074164036426
 42
-0.322447991445
  0
VERTEX
  8
Default
 10
767.707077830025
 20
303.289700657893
 42
0.0
  0
VERTEX
  8
Default
 10
661.975374611239
 20
177.71661253208
 42
0.1767641128661
  0
VERTEX
  8
Default
 10
661.665113075564
 20
176.866419475412
 42
0.0
  0
VERTEX
  8
Default
 10
661.665113075563
 20
172.325556389302
 42
0.0
  0
VERTEX
  8
Default
 10
650.721836546868
 20
172.325556389302
 42
0.0
  0
VERTEX
  8
Default
 10
650.721836546866
 20
179.200951325082
 42
0.1767639079556
  0
VERTEX
  8
Default
 10
650.41157501119
 20
180.05114438175
 42
0.0
  0
SEQEND
  0
POLYLINE
  8
Default
 66
     1
 10
0.0
 20
0.0
 30
0.0
 70
     1
  0
VERTEX
  8
Default
 10
661.296525547881
 20
411.551409078728
 42
0.0
  0
VERTEX
  8
Default
 10
658.18604110315
 20
415.245600370471
 42
0.4652751815125
  0
VERTEX
  8
Default
 10
656.166566101684
 20
415.24559808186
 42
0.0
  0
VERTEX
  8
Default
 10
564.789043238906
 20
306.720365045343
 42
0.3649306863211
  0
VERTEX
  8
Default
 10
564.789043238906
 20
305.019978932008
 42
0.0
  0
VERTEX
  8
Default
 10
610.399439940331
 20
250.850432901049
 42
0.0
  0
VERTEX
  8
Default
 10
601.24575834128
 20
240.085971558774
 42
0.0
  0
VERTEX
  8
Default
 10
549.264849390558
 20
304.236570704423
 42
-0.2753005396167
  0
VERTEX
  8
Default
 10
549.018301540121
 20
309.782179469043
 42
0.0
  0
VERTEX
  8
Default
 10
650.416457092566
 20
431.626600484777
 42
0.1752785073526
  0
VERTEX
  8
Default
 10
650.721836546866
 20
432.470961277436
 42
0.0
  0
VERTEX
  8
Default
 10
650.721836546865
 20
437.481489068149
 42
0.0
  0
VERTEX
  8
Default
 10
661.665113075565
 20
437.481489068149
 42
0.0
  0
VERTEX
  8
Default
 10
661.665113075564
 20
434.873923613989
 42
0.1767638395387
  0
VERTEX
  8
Default
 10
661.975374611239
 20
434.023730557321
 42
0.0
  0
VERTEX
  8
Default
 10
671.180930396516
 20
423.090679895304
 42
0.0
  0
SEQEND
  0
POLYLINE
  8
Default
 66
     1
 10
0.0
 20
0.0
 30
0.0
 70
     1
  0
VERTEX
  8
Default
 10
662.285055273482
 20
124.623814554829
 42
0.0
  0
VERTEX
  8
Default
 10
659.174570828751
 20
128.318005846572
 42
0.4652751815125
  0
VERTEX
  8
Default
 10
657.155095827284
 20
128.31800355796
 42
0.0
  0
VERTEX
  8
Default
 10
565.777572964506
 20
19.7927705214443
 42
0.3649306863211
  0
VERTEX
  8
Default
 10
565.777572964506
 20
18.092384408109
 42
0.0
  0
VERTEX
  8
Default
 10
611.387969665931
 20
-36.0771616228499
 42
0.0
  0
VERTEX
  8
Default
 10
602.234288066881
 20
-46.8416229651257
 42
0.0
  0
VERTEX
  8
Default
 10
550.253379116159
 20
17.3089761805235
 42
-0.2753005396167
  0
VERTEX
  8
Default
 10
550.006831265722
 20
22.8545849451434
 42
0.0
  0
VERTEX
  8
Default
 10
651.404986818167
 20
144.699005960878
 42
0.1752785073526
  0
VERTEX
  8
Default
 10
651.710366272466
 20
145.543366753537
 42
0.0
  0
VERTEX
  8
Default
 10
651.710366272466
 20
150.55389454425
 42
0.0
  0
VERTEX
  8
Default
 10
662.653642801165
 20
150.55389454425
 42
0.0
  0
VERTEX
  8
Default
 10
662.653642801165
 20
147.946329090089
 42
0.1767638395387
  0
VERTEX
  8
Default
 10
662.96390433684
 20
147.096136033422
 42
0.0
  0
VERTEX
  8
Default
 10
672.169460122116
 20
136.163085371405
 42
0.0
  0
SEQEND
  0
POLYLINE
  8
Default
 66
     1
 10
0.0
 20
0.0
 30
0.0
 70
     1
  0
VERTEX
  8
Default
 10
643.331684276692
 20
976.205409070959
 42
0.0
  0
VERTEX
  8
Default
 10
562.81198378771
 20
880.575554093168
 42
0.3649306863211
  0
VERTEX
  8
Default
 10
562.81198378771
 20
878.875167979833
 42
0.0
  0
VERTEX
  8
Default
 10
608.422380489135
 20
824.705621948873
 42
0.0
  0
VERTEX
  8
Default
 10
599.268698890085
 20
813.941160606598
 42
0.0
  0
VERTEX
  8
Default
 10
547.287789939362
 20
878.091759752248
 42
-0.2753005396167
  0
VERTEX
  8
Default
 10
547.041242088926
 20
883.637368516868
 42
0.0
  0
VERTEX
  8
Default
 10
624.075779222774
 20
976.205409070959
 42
0.0
  0
SEQEND
  0
POLYLINE
  8
Default
 66
     1
 10
0.0
 20
0.0
 30
0.0
 70
     1
  0
VERTEX
  8
Default
 10
542.121221884399
 20
976.20540907096
 42
0.0
  0
VERTEX
  8
Default
 10
530.774940528791
 20
976.205409070959
 42
0.0
  0
VERTEX
  8
Default
 10
530.774940528791
 20
892.53949594955
 42
0.0
  0
VERTEX
  8
Default
 10
541.826251114487
 20
905.44086838793
 42
0.0
  0
SEQEND
  0
POLYLINE
  8
Default
 66
     1
 10
0.0
 20
0.0
 30
0.0
 70
     1
  0
VERTEX
  8
Default
 10
782.305351712015
 20
976.205409070959
 42
0.0
  0
VERTEX
  8
Default
 10
782.305351712015
 20
892.591313851159
 42
0.0
  0
VERTEX
  8
Default
 10
770.269960365307
 20
906.885240953449
 42
0.0
  0
VERTEX
  8
Default
 10
770.559229900822
 20
976.205409070959
 42
0.0
  0
SEQEND
  0
LINE
  8
Default
 10
165.00000004
 20
1000.00000301
 30
0.0
 11
165.00000004
 21
-1000.00000301
 31
0.0
  0
LINE
  8
Default
 10
495.00000012
 20
1000.00000301
 30
0.0
 11
495.00000012
 21
-1000.00000301
 31
0.0
  0
POLYLINE
  8
Default
 66
     1
 10
0.0
 20
0.0
 30
0.0
 70
     1
  0
VERTEX
  8
Default
 10
495.00000012
 20
1000.00000301
 42
0.0
  0
VERTEX
  8
Default
 10
165.00000004
 20
1000.00000301
 42
0.0
  0
VERTEX
  8
Default
 10
-165.00000004
 20
1000.00000301
 42
0.0
  0
VERTEX
  8
Default
 10
-165.00000004
 20
-1000.00000301
 42
0.0
  0
VERTEX
  8
Default
 10
165.00000004
 20
-1000.00000301
 42
0.0
  0
VERTEX
  8
Default
 10
495.00000012
 20
-1000.00000301
 42
0.0
  0
VERTEX
  8
Default
 10
825.0000002
 20
-1000.00000301
 42
0.0
  0
VERTEX
  8
Default
 10
825.0000002
 20
1000.00000301
 42
0.0
  0
SEQEND
  0
ENDSEC
  0
EOF
