  0
SECTION
  2
HEADER
  9
$ACADVER
  1
AC1014
  9
$HANDSEED
  5
FFFF
  9
$INSUNITS
 70
     0
  9
$MEASUREMENT
 70
     1
  0
ENDSEC
  0
SECTION
  2
TABLES
  0
TABLE
  2
VPORT
  5
8
330
0
100
AcDbSymbolTable
 70
     4
  0
VPORT
  5
2E
330
8
100
AcDbSymbolTableRecord
100
AcDbViewportTableRecord
  2
*ACTIVE
 70
     0
 10
0.0
 20
0.0
 11
1.0
 21
1.0
 12
210.0
 22
148.5
 13
0.0
 23
0.0
 14
10.0
 24
10.0
 15
10.0
 25
10.0
 16
0.0
 26
0.0
 36
1.0
 17
0.0
 27
0.0
 37
0.0
 40
341.0
 41
1.24
 42
50.0
 43
0.0
 44
0.0
 50
0.0
 51
0.0
 71
     0
 72
   100
 73
     1
 74
     3
 75
     0
 76
     0
 77
     0
 78
     0
  0
ENDTAB
  0
TABLE
  2
LTYPE
  5
5
330
0
100
AcDbSymbolTable
 70
     1
  0
LTYPE
  5
14
330
5
100
AcDbSymbolTableRecord
100
AcDbLinetypeTableRecord
  2
BYBLOCK
 70
     0
  3

 72
    65
 73
     0
 40
0.0
  0
LTYPE
  5
15
330
5
100
AcDbSymbolTableRecord
100
AcDbLinetypeTableRecord
  2
BYLAYER
 70
     0
  3

 72
    65
 73
     0
 40
0.0
  0
LTYPE
  5
16
330
5
100
AcDbSymbolTableRecord
100
AcDbLinetypeTableRecord
  2
CONTINUOUS
 70
     0
  3
Solid line
 72
    65
 73
     0
 40
0.0
  0
ENDTAB
  0
TABLE
  2
LAYER
  5
2
100
AcDbSymbolTable
 70
2
  0
LAYER
  5
50
100
AcDbSymbolTableRecord
100
AcDbLayerTableRecord
  2
0
 70
0
  6
CONTINUOUS
  0
LAYER
  5
51
100
AcDbSymbolTableRecord
100
AcDbLayerTableRecord
  2
Image
 70
0
  6
CONTINUOUS
  0
ENDTAB
  0
TABLE
  2
STYLE
  5
3
330
0
100
AcDbSymbolTable
 70
     1
  0
STYLE
  5
11
330
3
100
AcDbSymbolTableRecord
100
AcDbTextStyleTableRecord
  2
STANDARD
 70
     0
 40
0.0
 41
1.0
 50
0.0
 71
     0
 42
2.5
  3
txt
  4

  0
ENDTAB
  0
TABLE
  2
VIEW
  5
6
330
0
100
AcDbSymbolTable
 70
     0
  0
ENDTAB
  0
TABLE
  2
UCS
  5
7
330
0
100
AcDbSymbolTable
 70
     0
  0
ENDTAB
  0
TABLE
  2
APPID
  5
9
330
0
100
AcDbSymbolTable
 70
     2
  0
APPID
  5
12
330
9
100
AcDbSymbolTableRecord
100
AcDbRegAppTableRecord
  2
ACAD
 70
     0
  0
ENDTAB
  0
TABLE
  2
DIMSTYLE
  5
A
330
0
100
AcDbSymbolTable
 70
     1
  0
DIMSTYLE
105
27
330
A
100
AcDbSymbolTableRecord
100
AcDbDimStyleTableRecord
  2
ISO-25
 70
     0
  3

  4

  5

  6

  7

 40
1.0
 41
2.5
 42
0.625
 43
3.75
 44
1.25
 45
0.0
 46
0.0
 47
0.0
 48
0.0
140
2.5
141
2.5
142
0.0
143
0.03937007874016
144
1.0
145
0.0
146
1.0
147
0.625
 71
     0
 72
     0
 73
     0
 74
     0
 75
     0
 76
     0
 77
     1
 78
     8
170
     0
171
     3
172
     1
173
     0
174
     0
175
     0
176
     0
177
     0
178
     0
270
     2
271
     2
272
     2
273
     2
274
     3
340
11
275
     0
280
     0
281
     0
282
     0
283
     0
284
     8
285
     0
286
     0
287
     3
288
     0
  0
ENDTAB
  0
TABLE
  2
BLOCK_RECORD
  5
1
330
0
100
AcDbSymbolTable
 70
     1
  0
BLOCK_RECORD
  5
1F
330
1
100
AcDbSymbolTableRecord
100
AcDbBlockTableRecord
  2
*MODEL_SPACE
  0
BLOCK_RECORD
  5
1B
330
1
100
AcDbSymbolTableRecord
100
AcDbBlockTableRecord
  2
*PAPER_SPACE
  0
ENDTAB
  0
ENDSEC
  0
SECTION
  2
BLOCKS
  0
BLOCK
  5
20
330
1F
100
AcDbEntity
  8
0
100
AcDbBlockBegin
  2
*MODEL_SPACE
 70
     0
 10
0.0
 20
0.0
 30
0.0
  3
*MODEL_SPACE
  1

  0
ENDBLK
  5
21
330
1F
100
AcDbEntity
  8
0
100
AcDbBlockEnd
  0
BLOCK
  5
1C
330
1B
100
AcDbEntity
 67
     1
  8
0
100
AcDbBlockBegin
  2
*PAPER_SPACE
  1

  0
ENDBLK
  5
1D
330
1B
100
AcDbEntity
 67
     1
  8
0
100
AcDbBlockEnd
  0
ENDSEC
  0
SECTION
  2
ENTITIES
  0
SPLINE
  5
100
100
AcDbEntity
  8
Image
 62
7
100
AcDbSpline
 70
8
 71
3
 72
8
 73
4
 74
0
 40
0
 40
0
 40
0
 40
0
 40
1
 40
1
 40
1
 40
1
 10
1663.430600
 20
1866.979030
 30
0.0
 10
1833.359200
 20
1865.318000
 30
0.0
 10
2001.560500
 20
1791.363660
 30
0.0
 10
2117.026300
 20
1666.679490
 30
0.0
  0
SPLINE
  5
101
100
AcDbEntity
  8
Image
 62
7
100
AcDbSpline
 70
8
 71
3
 72
8
 73
4
 74
0
 40
0
 40
0
 40
0
 40
0
 40
1
 40
1
 40
1
 40
1
 10
2117.026300
 20
1666.679490
 30
0.0
 10
2232.492200
 20
1541.995330
 30
0.0
 10
2293.369800
 20
1368.237100
 30
0.0
 10
2280.111800
 20
1198.818300
 30
0.0
  0
SPLINE
  5
102
100
AcDbEntity
  8
Image
 62
7
100
AcDbSpline
 70
8
 71
3
 72
8
 73
4
 74
0
 40
0
 40
0
 40
0
 40
0
 40
1
 40
1
 40
1
 40
1
 10
2280.111800
 20
1198.818300
 30
0.0
 10
2267.418700
 20
1036.618500
 30
0.0
 10
2187.247600
 20
880.912300
 30
0.0
 10
2063.179100
 20
775.665500
 30
0.0
  0
SPLINE
  5
103
100
AcDbEntity
  8
Image
 62
7
100
AcDbSpline
 70
8
 71
3
 72
8
 73
4
 74
0
 40
0
 40
0
 40
0
 40
0
 40
1
 40
1
 40
1
 40
1
 10
2063.179100
 20
775.665500
 30
0.0
 10
1939.110600
 20
670.418800
 30
0.0
 10
1772.800300
 20
616.739300
 30
0.0
 10
1610.543700
 20
628.684000
 30
0.0
  0
SPLINE
  5
104
100
AcDbEntity
  8
Image
 62
7
100
AcDbSpline
 70
8
 71
3
 72
8
 73
4
 74
0
 40
0
 40
0
 40
0
 40
0
 40
1
 40
1
 40
1
 40
1
 10
1610.543700
 20
628.684000
 30
0.0
 10
1485.642800
 20
637.878800
 30
0.0
 10
1363.725000
 20
685.209500
 30
0.0
 10
1265.691000
 20
763.146100
 30
0.0
  0
SPLINE
  5
105
100
AcDbEntity
  8
Image
 62
7
100
AcDbSpline
 70
8
 71
3
 72
8
 73
4
 74
0
 40
0
 40
0
 40
0
 40
0
 40
1
 40
1
 40
1
 40
1
 10
1265.691000
 20
763.146100
 30
0.0
 10
1167.657000
 20
841.082700
 30
0.0
 10
1093.982600
 20
949.353700
 30
0.0
 10
1058.010500
 20
1069.315300
 30
0.0
  0
SPLINE
  5
106
100
AcDbEntity
  8
Image
 62
7
100
AcDbSpline
 70
8
 71
3
 72
8
 73
4
 74
0
 40
0
 40
0
 40
0
 40
0
 40
1
 40
1
 40
1
 40
1
 10
1058.010500
 20
1069.315300
 30
0.0
 10
1002.285200
 20
1255.150900
 30
0.0
 10
1041.360900
 20
1466.568510
 30
0.0
 10
1158.946800
 20
1620.885530
 30
0.0
  0
SPLINE
  5
107
100
AcDbEntity
  8
Image
 62
7
100
AcDbSpline
 70
8
 71
3
 72
8
 73
4
 74
0
 40
0
 40
0
 40
0
 40
0
 40
1
 40
1
 40
1
 40
1
 10
1158.946800
 20
1620.885530
 30
0.0
 10
1276.532800
 20
1775.202540
 30
0.0
 10
1469.429100
 20
1868.875370
 30
0.0
 10
1663.430600
 20
1866.979030
 30
0.0
  0
LWPOLYLINE
  5
108
100
AcDbEntity
  8
Image
 62
7
100
AcDbPolyline
 90
2
 70
0
 10
1663.430600
 20
1865.638420
 30
0.0
 10
2282.793000
 20
1254.855900
 30
0.0
  0
SPLINE
  5
109
100
AcDbEntity
  8
Image
 62
7
100
AcDbSpline
 70
8
 71
3
 72
8
 73
4
 74
0
 40
0
 40
0
 40
0
 40
0
 40
1
 40
1
 40
1
 40
1
 10
1803.390300
 20
2272.059480
 30
0.0
 10
1935.402000
 20
2254.284240
 30
0.0
 10
2063.897800
 20
2210.761490
 30
0.0
 10
2179.539000
 20
2144.654270
 30
0.0
  0
SPLINE
  5
10a
100
AcDbEntity
  8
Image
 62
7
100
AcDbSpline
 70
8
 71
3
 72
8
 73
4
 74
0
 40
0
 40
0
 40
0
 40
0
 40
1
 40
1
 40
1
 40
1
 10
2179.539000
 20
2144.654270
 30
0.0
 10
2363.828100
 20
2039.303940
 30
0.0
 10
2514.349400
 20
1875.880780
 30
0.0
 10
2604.223000
 20
1683.568770
 30
0.0
  0
SPLINE
  5
10b
100
AcDbEntity
  8
Image
 62
7
100
AcDbSpline
 70
8
 71
3
 72
8
 73
4
 74
0
 40
0
 40
0
 40
0
 40
0
 40
1
 40
1
 40
1
 40
1
 10
1801.467600
 20
2270.345990
 30
0.0
 10
1977.083800
 20
2247.679040
 30
0.0
 10
2146.659900
 20
2179.171200
 30
0.0
 10
2288.364300
 20
2072.988850
 30
0.0
  0
SPLINE
  5
10c
100
AcDbEntity
  8
Image
 62
7
100
AcDbSpline
 70
8
 71
3
 72
8
 73
4
 74
0
 40
0
 40
0
 40
0
 40
0
 40
1
 40
1
 40
1
 40
1
 10
2288.364300
 20
2072.988850
 30
0.0
 10
2434.053800
 20
1963.820380
 30
0.0
 10
2549.820200
 20
1815.023590
 30
0.0
 10
2619.390300
 20
1646.788100
 30
0.0
  0
SPLINE
  5
10d
100
AcDbEntity
  8
Image
 62
7
100
AcDbSpline
 70
8
 71
3
 72
8
 73
4
 74
0
 40
0
 40
0
 40
0
 40
0
 40
1
 40
1
 40
1
 40
1
 10
2619.390300
 20
1646.788100
 30
0.0
 10
2674.586500
 20
1513.311720
 30
0.0
 10
2700.814300
 20
1368.162000
 30
0.0
 10
2697.846300
 20
1223.753700
 30
0.0
  0
SPLINE
  5
10e
100
AcDbEntity
  8
Image
 62
7
100
AcDbSpline
 70
8
 71
3
 72
8
 73
4
 74
0
 40
0
 40
0
 40
0
 40
0
 40
1
 40
1
 40
1
 40
1
 10
2697.846300
 20
1223.753700
 30
0.0
 10
2695.260700
 20
1097.951600
 30
0.0
 10
2670.621700
 20
972.588300
 30
0.0
 10
2624.917100
 20
855.353700
 30
0.0
  0
SPLINE
  5
10f
100
AcDbEntity
  8
Image
 62
7
100
AcDbSpline
 70
8
 71
3
 72
8
 73
4
 74
0
 40
0
 40
0
 40
0
 40
0
 40
1
 40
1
 40
1
 40
1
 10
2624.917100
 20
855.353700
 30
0.0
 10
2529.597200
 20
610.853400
 30
0.0
 10
2339.601700
 20
403.994000
 30
0.0
 10
2102.500000
 20
291.526000
 30
0.0
  0
SPLINE
  5
110
100
AcDbEntity
  8
Image
 62
7
100
AcDbSpline
 70
8
 71
3
 72
8
 73
4
 74
0
 40
0
 40
0
 40
0
 40
0
 40
1
 40
1
 40
1
 40
1
 10
2102.500000
 20
291.526000
 30
0.0
 10
1809.877200
 20
152.721800
 30
0.0
 10
1450.234600
 20
164.638900
 30
0.0
 10
1167.940600
 20
323.399100
 30
0.0
  0
SPLINE
  5
111
100
AcDbEntity
  8
Image
 62
7
100
AcDbSpline
 70
8
 71
3
 72
8
 73
4
 74
0
 40
0
 40
0
 40
0
 40
0
 40
1
 40
1
 40
1
 40
1
 10
1167.940600
 20
323.399100
 30
0.0
 10
882.296070
 20
484.043600
 30
0.0
 10
684.942530
 20
788.287600
 30
0.0
 10
644.565950
 20
1113.509400
 30
0.0
  0
SPLINE
  5
112
100
AcDbEntity
  8
Image
 62
7
100
AcDbSpline
 70
8
 71
3
 72
8
 73
4
 74
0
 40
0
 40
0
 40
0
 40
0
 40
1
 40
1
 40
1
 40
1
 10
644.565950
 20
1113.509400
 30
0.0
 10
615.601210
 20
1346.812100
 30
0.0
 10
664.956480
 20
1590.138420
 30
0.0
 10
787.940520
 20
1790.498140
 30
0.0
  0
SPLINE
  5
113
100
AcDbEntity
  8
Image
 62
7
100
AcDbSpline
 70
8
 71
3
 72
8
 73
4
 74
0
 40
0
 40
0
 40
0
 40
0
 40
1
 40
1
 40
1
 40
1
 10
787.940520
 20
1790.498140
 30
0.0
 10
907.745800
 20
1985.679170
 30
0.0
 10
1095.942200
 20
2137.394730
 30
0.0
 10
1311.117900
 20
2215.806110
 30
0.0
  0
SPLINE
  5
114
100
AcDbEntity
  8
Image
 62
7
100
AcDbSpline
 70
8
 71
3
 72
8
 73
4
 74
0
 40
0
 40
0
 40
0
 40
0
 40
1
 40
1
 40
1
 40
1
 10
1311.117900
 20
2215.806110
 30
0.0
 10
1467.115800
 20
2272.652710
 30
0.0
 10
1636.800800
 20
2291.599690
 30
0.0
 10
1801.467600
 20
2270.345990
 30
0.0
  0
LWPOLYLINE
  5
115
100
AcDbEntity
  8
Image
 62
7
100
AcDbPolyline
 90
1
 70
1
 10
1663.430600
 20
1866.979030
 30
0.0
  0
SPLINE
  5
116
100
AcDbEntity
  8
Image
 62
7
100
AcDbSpline
 70
8
 71
3
 72
8
 73
4
 74
0
 40
0
 40
0
 40
0
 40
0
 40
1
 40
1
 40
1
 40
1
 10
1143.613400
 20
333.680300
 30
0.0
 10
1070.863800
 20
375.867700
 30
0.0
 10
1003.429300
 20
427.209900
 30
0.0
 10
943.405210
 20
486.111500
 30
0.0
  0
SPLINE
  5
117
100
AcDbEntity
  8
Image
 62
7
100
AcDbSpline
 70
8
 71
3
 72
8
 73
4
 74
0
 40
0
 40
0
 40
0
 40
0
 40
1
 40
1
 40
1
 40
1
 10
943.405210
 20
486.111500
 30
0.0
 10
892.394750
 20
536.168100
 30
0.0
 10
846.885430
 20
591.474100
 30
0.0
 10
800.832710
 20
646.126400
 30
0.0
  0
SPLINE
  5
118
100
AcDbEntity
  8
Image
 62
7
100
AcDbSpline
 70
8
 71
3
 72
8
 73
4
 74
0
 40
0
 40
0
 40
0
 40
0
 40
1
 40
1
 40
1
 40
1
 10
800.832710
 20
646.126400
 30
0.0
 10
744.389610
 20
713.109300
 30
0.0
 10
686.962810
 20
779.293100
 30
0.0
 10
627.167290
 20
843.301100
 30
0.0
  0
SPLINE
  5
119
100
AcDbEntity
  8
Image
 62
7
100
AcDbSpline
 70
8
 71
3
 72
8
 73
4
 74
0
 40
0
 40
0
 40
0
 40
0
 40
1
 40
1
 40
1
 40
1
 10
627.167290
 20
843.301100
 30
0.0
 10
593.797220
 20
879.022100
 30
0.0
 10
559.461510
 20
914.354000
 30
0.0
 10
533.130110
 20
955.539000
 30
0.0
  0
SPLINE
  5
11a
100
AcDbEntity
  8
Image
 62
7
100
AcDbSpline
 70
8
 71
3
 72
8
 73
4
 74
0
 40
0
 40
0
 40
0
 40
0
 40
1
 40
1
 40
1
 40
1
 10
533.130110
 20
955.539000
 30
0.0
 10
518.537230
 20
978.363800
 30
0.0
 10
506.523950
 20
1002.836400
 30
0.0
 10
497.392190
 20
1028.342000
 30
0.0
  0
SPLINE
  5
11b
100
AcDbEntity
  8
Image
 62
7
100
AcDbSpline
 70
8
 71
3
 72
8
 73
4
 74
0
 40
0
 40
0
 40
0
 40
0
 40
1
 40
1
 40
1
 40
1
 10
497.392190
 20
1028.342000
 30
0.0
 10
493.428550
 20
1041.367600
 30
0.0
 10
490.011900
 20
1054.559600
 30
0.0
 10
487.154280
 20
1067.871700
 30
0.0
  0
SPLINE
  5
11c
100
AcDbEntity
  8
Image
 62
7
100
AcDbSpline
 70
8
 71
3
 72
8
 73
4
 74
0
 40
0
 40
0
 40
0
 40
0
 40
1
 40
1
 40
1
 40
1
 10
487.154280
 20
1067.871700
 30
0.0
 10
485.561300
 20
1075.292500
 30
0.0
 10
484.135210
 20
1082.889700
 30
0.0
 10
484.973980
 20
1090.433100
 30
0.0
  0
SPLINE
  5
11d
100
AcDbEntity
  8
Image
 62
7
100
AcDbSpline
 70
8
 71
3
 72
8
 73
4
 74
0
 40
0
 40
0
 40
0
 40
0
 40
1
 40
1
 40
1
 40
1
 10
484.973980
 20
1090.433100
 30
0.0
 10
485.564010
 20
1095.739400
 30
0.0
 10
487.343210
 20
1101.020900
 30
0.0
 10
490.756510
 20
1105.126400
 30
0.0
  0
SPLINE
  5
11e
100
AcDbEntity
  8
Image
 62
7
100
AcDbSpline
 70
8
 71
3
 72
8
 73
4
 74
0
 40
0
 40
0
 40
0
 40
0
 40
1
 40
1
 40
1
 40
1
 10
490.756510
 20
1105.126400
 30
0.0
 10
492.349250
 20
1107.042100
 30
0.0
 10
494.278070
 20
1108.677600
 30
0.0
 10
496.428390
 20
1109.935800
 30
0.0
  0
SPLINE
  5
11f
100
AcDbEntity
  8
Image
 62
7
100
AcDbSpline
 70
8
 71
3
 72
8
 73
4
 74
0
 40
0
 40
0
 40
0
 40
0
 40
1
 40
1
 40
1
 40
1
 10
490.661710
 20
1344.959100
 30
0.0
 10
509.402790
 20
1344.733700
 30
0.0
 10
528.090250
 20
1340.710700
 30
0.0
 10
545.263940
 20
1333.204500
 30
0.0
  0
SPLINE
  5
120
100
AcDbEntity
  8
Image
 62
7
100
AcDbSpline
 70
8
 71
3
 72
8
 73
4
 74
0
 40
0
 40
0
 40
0
 40
0
 40
1
 40
1
 40
1
 40
1
 10
545.263940
 20
1333.204500
 30
0.0
 10
568.070710
 20
1323.236200
 30
0.0
 10
588.422130
 20
1306.742000
 30
0.0
 10
600.624540
 20
1285.048300
 30
0.0
  0
SPLINE
  5
121
100
AcDbEntity
  8
Image
 62
7
100
AcDbSpline
 70
8
 71
3
 72
8
 73
4
 74
0
 40
0
 40
0
 40
0
 40
0
 40
1
 40
1
 40
1
 40
1
 10
600.624540
 20
1285.048300
 30
0.0
 10
612.345380
 20
1264.210700
 30
0.0
 10
616.083940
 20
1239.427500
 30
0.0
 10
613.516730
 20
1215.658000
 30
0.0
  0
SPLINE
  5
122
100
AcDbEntity
  8
Image
 62
7
100
AcDbSpline
 70
8
 71
3
 72
8
 73
4
 74
0
 40
0
 40
0
 40
0
 40
0
 40
1
 40
1
 40
1
 40
1
 10
613.516730
 20
1215.658000
 30
0.0
 10
610.697820
 20
1189.558000
 30
0.0
 10
600.234830
 20
1164.036200
 30
0.0
 10
582.423790
 20
1144.750900
 30
0.0
  0
SPLINE
  5
123
100
AcDbEntity
  8
Image
 62
7
100
AcDbSpline
 70
8
 71
3
 72
8
 73
4
 74
0
 40
0
 40
0
 40
0
 40
0
 40
1
 40
1
 40
1
 40
1
 10
582.423790
 20
1144.750900
 30
0.0
 10
569.758940
 20
1131.037700
 30
0.0
 10
553.534470
 20
1120.640500
 30
0.0
 10
535.784390
 20
1114.862600
 30
0.0
  0
LWPOLYLINE
  5
124
100
AcDbEntity
  8
Image
 62
7
100
AcDbPolyline
 90
1
 70
1
 10
1801.467600
 20
2270.345990
 30
0.0
  0
LWPOLYLINE
  5
125
100
AcDbEntity
  8
Image
 62
7
100
AcDbPolyline
 90
3
 70
0
 10
535.784390
 20
1114.862600
 30
0.0
 10
500.483740
 20
1110.371500
 30
0.0
 10
496.461910
 20
1109.902300
 30
0.0
  0
ENDSEC
  0
SECTION
  2
OBJECTS
  0
DICTIONARY
  5
C
330
0
100
AcDbDictionary
  3
ACAD_GROUP
350
D
  3
ACAD_MLINESTYLE
350
17
  0
DICTIONARY
  5
D
330
C
100
AcDbDictionary
  0
DICTIONARY
  5
1A
330
C
100
AcDbDictionary
  0
DICTIONARY
  5
17
330
C
100
AcDbDictionary
  3
STANDARD
350
18
  0
DICTIONARY
  5
19
330
C
100
AcDbDictionary
  0
ENDSEC
  0
EOF
